<svg xmlns="http://www.w3.org/2000/svg" viewBox="0 0 59.74 79.54"><defs><style>.cls-1{isolation:isolate;}.cls-2{fill:#fff;}.cls-3,.cls-8{fill:#d3dbfd;}.cls-14,.cls-23,.cls-26,.cls-3,.cls-7{opacity:0.5;}.cls-11,.cls-13,.cls-17,.cls-21,.cls-23,.cls-26,.cls-27,.cls-3,.cls-30,.cls-31,.cls-5,.cls-7,.cls-9{mix-blend-mode:multiply;}.cls-21,.cls-4,.cls-5,.cls-6{fill:#3c1d91;}.cls-11,.cls-27,.cls-30,.cls-5{opacity:0.45;}.cls-14,.cls-15,.cls-18,.cls-19,.cls-22,.cls-24,.cls-29,.cls-32,.cls-6{mix-blend-mode:screen;}.cls-10,.cls-11,.cls-13,.cls-15{fill:#ebd0a6;}.cls-12{fill:#de9168;}.cls-13{opacity:0.62;}.cls-16,.cls-17,.cls-18{fill:#6f3a1e;}.cls-17,.cls-31{opacity:0.25;}.cls-19{fill:#f8e9d0;}.cls-20,.cls-22,.cls-23{fill:#a95913;}.cls-24{opacity:0.35;}.cls-25,.cls-26{fill:#f15e6b;}.cls-27{fill:#bd5b2f;}.cls-28,.cls-29,.cls-30,.cls-31{fill:#f7a825;}.cls-32{fill:#294168;opacity:0.6;}</style></defs><title>angryРесурс 13</title><g class="cls-1"><g id="Слой_2" data-name="Слой 2"><g id="OBJECTS"><path class="cls-2" d="M26.73,61a1.29,1.29,0,0,1-.16.49c0,.05-.05.1-.07.16-.11.24-.26.55-.44.91-.62,1.24-1.64,3.12-2.88,5.26a.08.08,0,0,0,0,0A111.39,111.39,0,0,1,15.84,79H6.64a1,1,0,0,1,0,.52L6.37,79H2.83l-.1-.11c-.44-.47-.69-.78-.69-.78-.12-.57.42-1.43,1.35-2.51l.72-.79.34-.35.28-.29.65-.65.77-.75.12-.12.14-.14c.1-.1.2-.19.3-.3l.09-.08A68.64,68.64,0,0,0,14.33,64l.21-.29c.28-.4.55-.8.79-1.2l0,0c.21-.33.4-.67.58-1s.23-.45.34-.68l.15-.34c.08-.17.15-.34.22-.51a1.83,1.83,0,0,0,.08-.25,8.85,8.85,0,0,0,.52-2.07,22.51,22.51,0,0,1,4.44-10.91c.11-.15.22-.28.33-.41a.18.18,0,0,1,.05-.07,14.83,14.83,0,0,1,1.5-1.64s.3,1.6.72,3.8a.09.09,0,0,0,0,0l.12.67h0c.3,1.57.64,3.37,1,5.09C26,57.61,26.64,60.69,26.73,61Z"/><path class="cls-2" d="M51.27,56.4c0,.29,0,.57,0,.86A10.58,10.58,0,0,0,51.9,61s0,.07,0,.11-.08.25-.11.37c-.2.65-.39,1.29-.57,1.94-.11.37-.21.73-.31,1.09s-.16.58-.23.87c-.15.56-.29,1.12-.43,1.69h0c-.17.68-.33,1.36-.48,2.05s-.3,1.36-.44,2c-.38,1.9-.71,3.8-1,5.7l-.06.42c0,.13,0,.26-.05.39l-.06.52c0,.27-.07.53-.1.8H45.19l-.22.13S45,79.07,45,79H24.77c-.23-1.55-.46-3.11-.68-4.67q-.48-3.27-.93-6.54-.37-2.69-.72-5.37c0-.34-.09-.67-.12-1q-.48-3.8-.84-7.6c-.12-1.28-.23-2.57-.29-3.86,0-.15,0-.3,0-.45A6.46,6.46,0,0,1,22,46.27a.18.18,0,0,1,.05-.07c1.67-2.84,5.52-4.09,9.55-4.63l.47-.06.59-.07H33c2.15-.21,4.29-.26,6.12-.26h1.66l.64.11.75.14c2.76.51,8.88,1.77,11.3,3.35l.07,0-.14.44A46.31,46.31,0,0,0,51.27,56.4Z"/><path class="cls-3" d="M53.5,44.54s0,.07-.07.2-.06.21-.11.36a44.86,44.86,0,0,0-2,11.3c0,.29,0,.57,0,.86a10.3,10.3,0,0,0,.67,3.63l0,.13-.1.34c-.32,1-.61,2.06-.89,3.09-.23.84-.45,1.68-.65,2.53h0a99.85,99.85,0,0,0-1.9,9.93s0,.1,0,.15c0,.22-.06.43-.08.65s0,.36-.07.53-.06.52-.08.77H45.19l-.22.13S45,79.07,45,79H24.81c0-.15,0-.3-.07-.46-.22-1.48-.44-3-.65-4.45q-.46-3.17-.91-6.34-.36-2.65-.71-5.33c0-.34-.09-.67-.12-1-.33-2.61-.63-5.22-.87-7.84-.12-1.28-.23-2.57-.29-3.86a1.48,1.48,0,0,1,0-.21,7,7,0,0,1,.51-2.85c1.44-3.4,5.69-4.8,10.11-5.38l.49-.06.39,0h.24c2.22-.22,4.43-.26,6.3-.27h1.54l.35.05.89.16C44.72,41.62,51.08,42.92,53.5,44.54Z"/><path class="cls-3" d="M24.74,78.56A4,4,0,0,0,25,79h-.2c0-.18-.05-.36-.08-.54A.59.59,0,0,0,24.74,78.56Z"/><path class="cls-3" d="M51.83,61.5c-.2.65-.39,1.29-.57,1.94-.11.37-.21.73-.3,1.1s-.16.57-.24.86c-.15.56-.29,1.12-.43,1.69h0c-.17.68-.33,1.36-.48,2.05s-.3,1.36-.44,2c-.38,1.9-.71,3.8-1,5.7l-.06.42c0,.13,0,.26-.05.39l-.06.52c0,.27-.07.53-.1.8H45.19l-.22.13S45,79.07,45,79c2.12-4,3.43-10,4.22-15,.14-.89.26-1.75.36-2.56a69.35,69.35,0,0,0,.66-7.16s.68,2.9,1.52,7Z"/><path class="cls-3" d="M42.36,47.56V47.5A.18.18,0,0,0,42.36,47.56Z"/><path class="cls-3" d="M39.72,79a32.85,32.85,0,0,0,0-8.4c-.53-6.87-1.45-13.73-2.55-20.54a3.19,3.19,0,0,0,.83-.6,6.27,6.27,0,0,0,.5-.54h0a9.49,9.49,0,0,0,.81-1.21.76.76,0,0,0,0-.26A4,4,0,0,0,37,44.74s0,0,0,0l-.09,0h0a1.31,1.31,0,0,0-.27-.06.93.93,0,0,0-.5.11,2.72,2.72,0,0,0-.49.34,3.41,3.41,0,0,0-.38.38c-.11.12-.22.24-.32.37l0,0a11.47,11.47,0,0,0-1,1.42.28.28,0,0,0,0,.06,3.9,3.9,0,0,0,.42,1.47A2.77,2.77,0,0,0,35.55,50c0,.13-.11.86-.26,2-.6,4.71-2.09,16.32-2.47,20-.12,1.2-.28,2.4-.44,3.59-.05.37-.1.73-.13,1.09a11.55,11.55,0,0,0,0,2.35Z"/><path class="cls-4" d="M39.19,70.37c-.54-6.87-1.46-13.73-2.56-20.54a3.75,3.75,0,0,0,1-.73q.23-.24.42-.48h0a7.21,7.21,0,0,0,.61-.87l.16-.27a1.39,1.39,0,0,0,0-.45,2.76,2.76,0,0,0-.08-.27v0a1.85,1.85,0,0,0-.13-.29,4.63,4.63,0,0,0-1.16-1.39,3.77,3.77,0,0,0-.42-.31s0,0,0,0l-.06,0-.16-.09h0a2.7,2.7,0,0,0-.29-.15h-.07a1.31,1.31,0,0,0-.27-.06.5.5,0,0,0-.21,0,.31.31,0,0,0-.13,0,1.45,1.45,0,0,0-.39.2h0l-.06.05a7.14,7.14,0,0,0-1.38,1.57c-.3.43-.49.77-.49.77s0,.12,0,.32a2.89,2.89,0,0,0,.11.48,3,3,0,0,0,.24.62,1.74,1.74,0,0,0,.1.19,2.7,2.7,0,0,0,1.16,1.13s0,0,0,.09,0,.13,0,.22,0,.31-.07.53,0,.19,0,.3,0,.32-.06.5,0,.32-.06.49c-.07.48-.14,1-.22,1.64l-.09.72c-.06.44-.12.91-.18,1.39-.7,5.49-1.68,13.22-2,16.08-.1,1-.24,2.08-.38,3.11h0l-.06.47A13.5,13.5,0,0,0,31.76,79h7.42C39.72,76.32,39.43,73.46,39.19,70.37Z"/><path class="cls-5" d="M32.25,76.67A9.29,9.29,0,0,0,33.09,79H31.76a13.5,13.5,0,0,1,.13-3.69l.06-.47A16.27,16.27,0,0,0,32.25,76.67Z"/><path class="cls-5" d="M39.18,79H36.24a7.82,7.82,0,0,0,.66-1.15c2.43-5-.26-26.54-.92-26.94-.19-.11-.43.36-.69,1.09-.35,1-.72,2.5-1,3.64.06-.48.12-.95.18-1.39l.09-.72c.08-.61.15-1.16.22-1.64,0-.17,0-.34.06-.49s0-.35.06-.5,0-.21,0-.3,0-.39.07-.53,0-.16,0-.22,0-.07,0-.09a2.7,2.7,0,0,1-1.16-1.13,1.74,1.74,0,0,1-.1-.19,3.54,3.54,0,0,0,.54.36,1.89,1.89,0,0,0,2.17,0,1.43,1.43,0,0,0,.42-.62,2.77,2.77,0,0,0,.14-.78,7,7,0,0,0-.48-2.69s0,0,0-.05l.09,0,.73.32a4.63,4.63,0,0,1,1.16,1.39,1.85,1.85,0,0,1,.13.29v0a2.76,2.76,0,0,1,.08.27,1.39,1.39,0,0,1,0,.45l-.16.27a7.21,7.21,0,0,1-.61.87h0q-.2.24-.42.48a3.75,3.75,0,0,1-1,.73c1.1,6.81,2,13.67,2.56,20.54C39.43,73.46,39.72,76.32,39.18,79Z"/><path class="cls-6" d="M35.44,53.38c-.14,0-1.2,8.84-1.2,8.84s-.83,8.88-.68,8.9,1.21-8.84,1.21-8.84S35.59,53.4,35.44,53.38Zm-2,18.77a3.79,3.79,0,0,0-.32,1.18c-.1.61-.16,1.21-.16,1.21s0,.61,0,1.22A3.45,3.45,0,0,0,33.16,77a3.74,3.74,0,0,0,.2-1.21c.07-.6.13-1.2.13-1.2s0-.6,0-1.2A3.64,3.64,0,0,0,33.44,72.15ZM35.35,47c.12-.31.38-.54.35-.61s-.42.07-.68.41a1.89,1.89,0,0,0-.34.74,1.83,1.83,0,0,0,.13.81c.15.4.49.64.53.58s-.13-.35-.17-.68a1.87,1.87,0,0,1,0-.63A1.91,1.91,0,0,1,35.35,47Z"/><g class="cls-7"><path class="cls-8" d="M29.57,44c-.42,1-1.72,1.67-2.4,2.49s-1.5,2-2.18,3a.25.25,0,0,1-.45-.06,4.21,4.21,0,0,1,1-4.41c.83-1,2.55-2.29,3.91-1.65a.45.45,0,0,1,.16.61Z"/></g><g class="cls-9"><path class="cls-8" d="M23.16,66.72a2.08,2.08,0,0,0,0-.41L23,65.23c-.1-.89-.23-2.08-.34-3.28-.21-2.38-.29-4.78-.29-4.78s-.12-2.39-.05-4.78c0-1.2.11-2.4.19-3.29,0-.45.08-.82.1-1.08a2.51,2.51,0,0,0,0-.41s0,.14-.07.4-.11.63-.15,1.08c-.12.89-.22,2.09-.28,3.29-.12,2.4,0,4.8,0,4.8s.11,2.4.37,4.79c.14,1.19.29,2.38.42,3.27l.17,1.08A1.78,1.78,0,0,0,23.16,66.72Z"/></g><path class="cls-8" d="M31.12,54.39l-7.48-.28s.57,8.34,4,7.62S31.12,54.39,31.12,54.39Z"/><path class="cls-10" d="M40.86,38.68l-.21,4.2s-2.78,3.16-7.91.53L33,38.68S38.94,36.23,40.86,38.68Z"/><path class="cls-11" d="M32.81,41.86c4.6,4.5,8.25-3.4,6-1.92-1.87,1.25-5,0-5.92-.44v-.16l0-.51a.77.77,0,0,1,.19-.22c.3-.11.93-.34,1.72-.55s1.93-.26,2.81-.46a5.73,5.73,0,0,1,.93,0h0l.41.06h0a2.6,2.6,0,0,1,.4.1h.05l.32.12.07,0a1.74,1.74,0,0,1,.33.18l0,0,.26.2.07.06a1.6,1.6,0,0,1,.25.27h0l-.21,4.2s-2.78,3.16-7.91.53Z"/><path class="cls-10" d="M23.76,20.56a2.1,2.1,0,0,0-2.9-.65c-2,1.3-1,8.11,1.7,8S24.24,20.42,23.76,20.56Z"/><path class="cls-11" d="M23.76,20.56a2.1,2.1,0,0,0-2.9-.65c-2,1.3-1,8.11,1.7,8S24.24,20.42,23.76,20.56Z"/><path class="cls-12" d="M21.3,25.89c0-.05.2,0,.43-.06a.46.46,0,0,0,.29-.24.76.76,0,0,0,0-.45.9.9,0,0,0-.25-.38c-.1-.1-.24-.13-.42-.28a.78.78,0,0,1-.25-.69,1.25,1.25,0,0,1,.08-.27,1.11,1.11,0,0,1,.14-.21,1,1,0,0,1,.26-.2l.19-.09s0,0,0,0l0,0a.84.84,0,0,1,0-.12,1.1,1.1,0,0,0,0-.18,2.45,2.45,0,0,0-.28-.72c-.27-.46-.66-.63-.65-.7s.47,0,.88.44a2.47,2.47,0,0,1,.47.84l.06.23c0,.09,0,.13,0,.26s0,.43,0,.59a1.5,1.5,0,0,0-.38,0,.31.31,0,0,0-.1,0l-.11.11a.21.21,0,0,0-.05.1s0,0,0,0,.23.17.4.36a1.39,1.39,0,0,1,.35.73,1.13,1.13,0,0,1-.15.8.6.6,0,0,1-.51.25C21.45,26.09,21.29,25.93,21.3,25.89Z"/><path class="cls-13" d="M22.56,27.93c2.68-.08,1.68-7.51,1.2-7.37a2.51,2.51,0,0,0-1.52-1,4.83,4.83,0,0,1-.18,2.76s-.71-1.12-1.08-.75.2,2.18-.61,2.35c-.26.06-.42-.14-.53-.44C20,25.67,21,28,22.56,27.93Z"/><g class="cls-14"><path class="cls-15" d="M20.06,21.42c-.11.38-.06.76.11.85s.41-.15.52-.53.07-.76-.11-.85S20.18,21,20.06,21.42Z"/><path class="cls-15" d="M20.75,20.32a.31.31,0,0,0,.13.34.19.19,0,0,0,.29-.09.3.3,0,0,0-.13-.35A.19.19,0,0,0,20.75,20.32Z"/></g><path class="cls-10" d="M53.72,20.76c.22-6.09-2.3-16-15.12-16.06S23.75,18.75,23.75,18.75a38.45,38.45,0,0,0-1.19,9.18c.15,4,2.22,9.89,11.46,10.84s16.34-2.93,18-8.61a4.74,4.74,0,0,0,4.36-3.8C57,23.74,55.59,21.08,53.72,20.76Z"/><g class="cls-9"><path class="cls-11" d="M53.72,20.76A19.46,19.46,0,0,0,53,14.63a15.67,15.67,0,0,0-2.09-4.38C52.73,13.36,53.06,18,53,20.86a7.94,7.94,0,0,0,.81-.09Z"/><path class="cls-11" d="M55.41,21.8a5.47,5.47,0,0,1,.38,3.65,4.74,4.74,0,0,1-4.36,3.81c-1.66,5.67-8.77,9.55-18,8.6-4.86-.49-7.74-2.37-9.39-4.62,1.52,2.64,4.48,5,10,5.53,9.23.95,16.34-2.93,18-8.61a4.74,4.74,0,0,0,4.36-3.8A5.26,5.26,0,0,0,55.41,21.8Z"/></g><path class="cls-16" d="M29.27,24c0,1.22-.51,2.21-1.19,2.21s-1.25-1-1.28-2.2.52-2.22,1.2-2.22S29.25,22.78,29.27,24Z"/><path class="cls-17" d="M28.57,22.05a3.64,3.64,0,0,1,.15,1c0,1.22-.51,2.21-1.2,2.22A.86.86,0,0,1,27,25c.21.73.64,1.24,1.13,1.24.68,0,1.22-1,1.19-2.21A2.77,2.77,0,0,0,28.57,22.05Z"/><path class="cls-18" d="M27,23.62c0,.42.13.78.34.8s.42-.3.44-.72-.12-.78-.34-.8S27.07,23.21,27,23.62Z"/><path class="cls-18" d="M27.89,22.51a.16.16,0,1,1-.32,0,.16.16,0,0,1,.15-.17A.18.18,0,0,1,27.89,22.51Z"/><path class="cls-16" d="M43.81,25.05c-.13,1.21-.79,2.13-1.47,2.05s-1.12-1.13-1-2.35.8-2.13,1.48-2.05S44,23.83,43.81,25.05Z"/><path class="cls-17" d="M43.41,23.08a3.56,3.56,0,0,1,0,.8c-.14,1.21-.8,2.13-1.48,2.05a.91.91,0,0,1-.57-.37c.08.84.46,1.48,1,1.54.68.08,1.34-.84,1.47-2.05A2.75,2.75,0,0,0,43.41,23.08Z"/><path class="cls-18" d="M41.75,24.35c-.08.41,0,.79.23.83s.45-.25.53-.66,0-.78-.23-.83S41.83,23.94,41.75,24.35Z"/><path class="cls-18" d="M42.73,23.35a.17.17,0,0,1-.18.15.17.17,0,0,1-.13-.19.16.16,0,1,1,.31,0Z"/><path class="cls-12" d="M54.39,27.77a.9.9,0,0,1-.38.76.67.67,0,0,1-.38.13.58.58,0,0,1-.46-.22,1,1,0,0,1-.28-.57.77.77,0,0,1,.19-.69,2,2,0,0,1,.4-.26.55.55,0,0,0,.18-.24.81.81,0,0,0,.06-.56.41.41,0,0,0-.29-.3l-.11,0H53.2l-.07,0,0,0L53,26c-.15.21-.26.26-.4.27a.37.37,0,0,1-.24-.11.54.54,0,0,1-.14-.26,4.45,4.45,0,0,1-.07-.79c0-.18,0-.36,0-.55a3.08,3.08,0,0,1,.28-1,1.8,1.8,0,0,1,.54-.65c.39-.28.72-.2.71-.15s-.28.09-.56.4a2.26,2.26,0,0,0-.52,1.51,3.84,3.84,0,0,0,0,.48.5.5,0,0,0,0,.16c0,.06.07,0,.06,0h0l.09-.07a.76.76,0,0,1,.18-.09.74.74,0,0,1,.31-.06.94.94,0,0,1,.27.05,1,1,0,0,1,.25.15,1.21,1.21,0,0,1,.45.74,1.6,1.6,0,0,1-.17,1.11,1.18,1.18,0,0,1-.4.4,2.26,2.26,0,0,0-.34.16.21.21,0,0,0-.09.19.69.69,0,0,0,.12.31.37.37,0,0,0,.49.12C54.23,28.08,54.35,27.74,54.39,27.77Z"/><path class="cls-15" d="M55,22.9c.26.27.57.35.68.18s0-.53-.28-.8-.57-.35-.68-.18S54.7,22.63,55,22.9Z"/><path class="cls-15" d="M54,21.58a.3.3,0,0,0,.14.34.18.18,0,0,0,.28-.09.3.3,0,0,0-.13-.35A.19.19,0,0,0,54,21.58Z"/><path class="cls-11" d="M36.43,28.25a5,5,0,0,1-3.85-1.2s-1.11.66.8,1.47C35.93,29.59,36.43,28.25,36.43,28.25Z"/><path class="cls-12" d="M35.3,28.76a7.33,7.33,0,0,1-.81,0,4.71,4.71,0,0,1-1.64-.62,1,1,0,0,1-.51-.59.49.49,0,0,1,.24-.49,1.17,1.17,0,0,1,.46-.18l.19,0a2,2,0,0,1,.46,0,2.5,2.5,0,0,1,.54.1l.33.13c.2.11.47.31.7.47,0-.28,0-.58,0-.9s0-.36,0-.55c0-.37,0-.75,0-1.1a4.66,4.66,0,0,0-.07-1.22A4.64,4.64,0,0,0,35,25c0,.34-.07.73-.1,1.1,0,.19,0,.37-.05.55s0,.07,0,.08l-.07-.05a2.26,2.26,0,0,0-.39-.18,3.22,3.22,0,0,0-.65-.16,2.4,2.4,0,0,0-.56,0,1.27,1.27,0,0,0-.26,0,1.94,1.94,0,0,0-.63.3,1.2,1.2,0,0,0-.33.4.91.91,0,0,0-.06.59,1.38,1.38,0,0,0,.76.82,4.39,4.39,0,0,0,1.81.5A1.25,1.25,0,0,0,35.3,28.76Z"/><path class="cls-19" d="M33.61,27.19c-.06.12.11.31.37.43s.52.11.57,0-.11-.32-.37-.43S33.66,27.07,33.61,27.19Z"/><path class="cls-11" d="M44,26.38a4.43,4.43,0,0,0-.55-.13,4.29,4.29,0,0,0-.73-.09,5.14,5.14,0,0,0-1,.05l-.18,0h0a3.87,3.87,0,0,0-1.42.56,1.81,1.81,0,0,0-.9,1.4c-.05.95.86,1.81,2.18,2.18l.15,0h0a6.34,6.34,0,0,0,1,.14h.64a4.09,4.09,0,0,0,2.09-.7,1.78,1.78,0,0,0,.83-1.34v-.09C46.08,27.55,45.23,26.75,44,26.38Zm-15.07-.82-.28-.22a3.88,3.88,0,0,0-.6-.34,4.82,4.82,0,0,0-1-.37l-.15,0a3.4,3.4,0,0,0-.62-.08,3.86,3.86,0,0,0-1.73.2l-.2.07A1.86,1.86,0,0,0,23.18,26a1.74,1.74,0,0,0,.36,1.42,4,4,0,0,0,2.06,1.39,3.31,3.31,0,0,0,.42.12,5,5,0,0,0,1.36.13,3,3,0,0,0,2.07-.78,1.48,1.48,0,0,0,.4-.72A2.09,2.09,0,0,0,28.94,25.56Z"/><path class="cls-11" d="M47.82,11.72C37.5,19.67,25.59,14,25.59,14a15.09,15.09,0,0,0-1.66,3.77C24.65,14.6,27.76,4.62,38.6,4.7c12.82.09,15.34,10,15.12,16.06a2.55,2.55,0,0,1,.94.38,5.22,5.22,0,0,1-.82.66c-2.05.93-1.79,4.61-3,3.66s-.39-4.71-.39-4.71C48.22,18.73,47.82,11.72,47.82,11.72Z"/><path class="cls-20" d="M54.26,20.79a7.34,7.34,0,0,0,3.08-6.37c-.11-5.37-3.29-7.71-7.79-7.6,0,0-4.56-6.95-11.31-6.82s-8.65,5.77-11.3,5.37S23.5,4.1,23.5,4.1s-.14,2.83,1.19,3.77a11.27,11.27,0,0,1-2.91-1.21,10,10,0,0,0,1.32,5.66s-1.59,3.1-.8,5.26a17,17,0,0,1,.93,3.09S24.69,14.75,26,13c0,0,11.91,5.66,22.23-2.29,0,0,.4,7,2.65,9,0,0-.79,3.77.4,4.72S52.21,21.71,54.26,20.79Z"/><path class="cls-4" d="M48.42,23.11l.63-.25,2.55-1L53,21.29l.65-.25c.12,0,.47-.24.57-.18l.27.15a.68.68,0,0,0-.32-.69c-.19-.1-.39,0-.58.09l-1.24.43-4.24,1.45Z"/><path class="cls-21" d="M48.37,23c0-.09-.06-.2-.1-.31L53,21c.28-.09,1.29-.6,1.51-.21a.65.65,0,0,1,0,.14.38.38,0,0,0-.17-.05l-.1-.05c-.1-.06-.45.14-.57.18l-.25.1-.17.06-.07,0-.16.06-.7.27-.49.19-.11,0-.14.06c-.56.21-1.11.44-1.67.66l-.72.28,0,0-.13.05-.63.25,0-.11Z"/><path class="cls-4" d="M36.6,22.73,37,22a5.7,5.7,0,0,0-4-.31l.3.8A4.94,4.94,0,0,1,36.6,22.73Z"/><path class="cls-21" d="M36.6,22.73a4.94,4.94,0,0,0-3.32-.29l-.13-.35a5.68,5.68,0,0,1,3.61.31Z"/><path class="cls-6" d="M48.18,22.82s-5.83-4.12-11.33-.44c0,0-.73,8.3,5.17,8.52S48.18,22.82,48.18,22.82Z"/><path class="cls-6" d="M39.93,21.06l3.33,9.74a5.47,5.47,0,0,1-1.24.1l-.49,0-3.32-9.23A8.66,8.66,0,0,1,39.93,21.06Z"/><path class="cls-6" d="M44,21.09l2.52,7.37a5.82,5.82,0,0,1-1.28,1.43l-3.24-9A10.45,10.45,0,0,1,44,21.09Z"/><path class="cls-6" d="M36.83,23.53a11,11,0,0,1,0-1.15c5.5-3.68,11.33.44,11.33.44A10.74,10.74,0,0,1,48,24.18,10.4,10.4,0,0,1,36.83,23.53Z"/><path class="cls-4" d="M48.54,22.56l-.14-.1-.26-.17c-1.2-.74-6.37-3.53-11.3-.39a2.12,2.12,0,0,0-.2.12l-.17.11v.22s0,.13,0,.31c0,1.07,0,4.59,1.75,6.82A4.92,4.92,0,0,0,42,31.33h.24c5.44,0,6.22-7,6.32-8.29a1.6,1.6,0,0,0,0-.22v-.24Zm-3.42,6.92a4.29,4.29,0,0,1-2,.92,4.67,4.67,0,0,1-1.08.07l-.5,0h0l-.14,0h0a4,4,0,0,1-2.58-1.49,9,9,0,0,1-1.54-5.13c0-.51,0-.91,0-1.14A8.83,8.83,0,0,1,38.35,22a9.25,9.25,0,0,1,1.72-.55,8.62,8.62,0,0,1,2.12-.17,9.74,9.74,0,0,1,2,.28,12.23,12.23,0,0,1,3.57,1.47,12.22,12.22,0,0,1-.17,1.36A10.67,10.67,0,0,1,46.38,28c-.09.15-.19.3-.29.45A5.32,5.32,0,0,1,45.12,29.48Z"/><path class="cls-21" d="M47.93,22.73a11.77,11.77,0,0,0-3.29-1.48l-.4-.1-.2,0h0L43.76,21h-.07a5.4,5.4,0,0,0-.58-.09H42.8a2.73,2.73,0,0,0-.41,0H42l-.76,0c-.21,0-.43,0-.66.07s-.45.08-.67.14a7,7,0,0,0-1.71.6,8,8,0,0,0-1.13.63l-.15.11,0,.19a7.33,7.33,0,0,0,0,1,9.47,9.47,0,0,0,1.62,5.62,4.47,4.47,0,0,0,2,1.43,5.12,5.12,0,0,0,.56.15,1.8,1.8,0,0,0,.32.06l.13,0,.14,0s0,0,.06,0h.54l.33,0h.15a4.46,4.46,0,0,0,.51-.07l.36-.09a1.71,1.71,0,0,0,.3-.09h0a5.42,5.42,0,0,0,.6-.26,3.9,3.9,0,0,0,.74-.48l.24-.2.06-.05h0l0,0,0,0,.15-.16s0,0,0,0,0,0,0,0l0,0,.06-.07.08-.09h0s0,0,0,0l0,0,.21-.26a.21.21,0,0,1,0-.06c.08-.11.15-.23.22-.34h0A11.1,11.1,0,0,0,48,24.22c.1-.68.12-1.13.12-1.15v-.22ZM46.38,28c-.09.15-.19.3-.29.45a5.32,5.32,0,0,1-1,1,4.29,4.29,0,0,1-2,.92,4.67,4.67,0,0,1-1.08.07l-.5,0h0l-.14,0h0a4,4,0,0,1-2.58-1.49,9,9,0,0,1-1.54-5.13c0-.51,0-.91,0-1.14A8.83,8.83,0,0,1,38.35,22a9.25,9.25,0,0,1,1.72-.55,8.62,8.62,0,0,1,2.12-.17,9.74,9.74,0,0,1,2,.28,12.23,12.23,0,0,1,3.57,1.47,12.22,12.22,0,0,1-.17,1.36A10.67,10.67,0,0,1,46.38,28Z"/><path class="cls-6" d="M33.09,22s-5.47-4.58-11.26-1.37c0,0-1.42,8.21,4.44,8.91S33.09,22,33.09,22Z"/><path class="cls-6" d="M25,19.58l2.5,10a5.74,5.74,0,0,1-1.24,0l-.49-.08L23.25,20A9,9,0,0,1,25,19.58Z"/><path class="cls-6" d="M29.09,20,31,27.5a5.63,5.63,0,0,1-1.39,1.32l-2.48-9.27A11.64,11.64,0,0,1,29.09,20Z"/><path class="cls-6" d="M21.71,21.79a10.75,10.75,0,0,1,.12-1.14C27.62,17.44,33.09,22,33.09,22s-.07.55-.26,1.35A10.42,10.42,0,0,1,21.71,21.79Z"/><path class="cls-4" d="M33.33,21.68l-.14-.11c-.81-.61-4.94-3.49-9.62-2.1h0l-.54.18h0l-.2.07h0l-.43.18c-.23.11-.46.22-.69.35l-.18.09,0,.22c0,.05-.06.34-.1.81a.78.78,0,0,0,0,.16.81.81,0,0,0,0,.16c0,.47,0,1.05,0,1.68h0a10.88,10.88,0,0,0,.11,1.09,8.32,8.32,0,0,0,.28,1.35,1.38,1.38,0,0,0,.08.27,6,6,0,0,0,.8,1.7s0,0,0,0a.86.86,0,0,0,.07.1A4.92,4.92,0,0,0,26.22,30l.24,0c5.29.44,6.71-6.06,7-7.62l0-.33V22h0v-.17Zm-5.92,7.48a5,5,0,0,1-1.09,0,4.53,4.53,0,0,1-.66-.13h0a4,4,0,0,1-2.24-1.43,2.47,2.47,0,0,1-.21-.27A4.89,4.89,0,0,1,22.58,26a4.51,4.51,0,0,1-.17-.52,7.85,7.85,0,0,1-.22-1.05h0a7.29,7.29,0,0,1-.08-.79,13.52,13.52,0,0,1,0-1.4v-.19c0-.51.07-.91.1-1.14l.2-.1a7.21,7.21,0,0,1,.82-.35l.08,0,.08,0a1,1,0,0,1,.22-.08h0A7.71,7.71,0,0,1,25.11,20a8.34,8.34,0,0,1,2.12,0,9.9,9.9,0,0,1,2,.44h0a12.5,12.5,0,0,1,3.44,1.76,13.09,13.09,0,0,1-.28,1.34A10.87,10.87,0,0,1,30.86,27a5.36,5.36,0,0,1-1.38,1.39A4.16,4.16,0,0,1,27.41,29.16Z"/><path class="cls-21" d="M32.84,21.91A12.09,12.09,0,0,0,29.09,20l-.13,0-.14,0-.49-.13-.52-.1-.18,0h-.05l-.27,0-.2,0a8.27,8.27,0,0,0-2.1.05,7.09,7.09,0,0,0-1.56.38l-.05,0-.09,0h0a0,0,0,0,0,0,0,.44.44,0,0,0-.16.06,5.76,5.76,0,0,0-.72.33,2.2,2.2,0,0,0-.31.15l-.16.09,0,.19c0,.05-.06.38-.11.89h0v.05a.38.38,0,0,1,0,.1c0,.16,0,.35,0,.55v0c0,.17,0,.35,0,.54a6.34,6.34,0,0,0,0,.74h0a2.45,2.45,0,0,0,0,.27,7.86,7.86,0,0,0,.11.83h0c0,.2.08.4.13.6s.08.31.12.46a5.86,5.86,0,0,0,.39.89v.07a4.7,4.7,0,0,0,.37.65,1.84,1.84,0,0,0,.17.22,4.27,4.27,0,0,0,.87.88,4,4,0,0,0,.34.23l.24.13a1.15,1.15,0,0,0,.25.12l.17.07.17.06a1.35,1.35,0,0,0,.34.11h0l.12,0,.18,0,.08,0,.3.05h.14l.22,0h.07s0,0,0,0h1l.25,0a2.59,2.59,0,0,0,.4-.09l.19-.06.14-.05.37-.15a5.42,5.42,0,0,0,.48-.26l.11-.07.07,0,.16-.11.06-.05a1.25,1.25,0,0,0,.19-.15l.21-.19c.13-.12.26-.26.39-.4l0,0,.08-.1a.94.94,0,0,1,.09-.12.12.12,0,0,1,.05-.05l0,0s0,0,0,0h0a11.17,11.17,0,0,0,1.78-4.1h0A10.5,10.5,0,0,0,33,22.27l0-.22Zm-2,5.11a5.36,5.36,0,0,1-1.38,1.39,4.16,4.16,0,0,1-2.07.75,5,5,0,0,1-1.09,0,4.53,4.53,0,0,1-.66-.13h0a4,4,0,0,1-2.24-1.43,2.47,2.47,0,0,1-.21-.27A4.89,4.89,0,0,1,22.58,26a4.51,4.51,0,0,1-.17-.52,7.85,7.85,0,0,1-.22-1.05h0a7.29,7.29,0,0,1-.08-.79,13.52,13.52,0,0,1,0-1.4v-.19c0-.51.07-.91.1-1.14l.2-.1a7.21,7.21,0,0,1,.82-.35l.08,0,.08,0a1,1,0,0,1,.22-.08h0A7.71,7.71,0,0,1,25.11,20a8.34,8.34,0,0,1,2.12,0,9.9,9.9,0,0,1,2,.44h0a12.5,12.5,0,0,1,3.44,1.76,13.09,13.09,0,0,1-.28,1.34A10.87,10.87,0,0,1,30.86,27Z"/><path class="cls-20" d="M43.75,18.9c-.1,0-.36.22-.67.35a1.8,1.8,0,0,1-.61.15,1.66,1.66,0,0,1-.61.12c-.33,0-.68-.12-.75,0s.2.43.63.59a1.83,1.83,0,0,0,.61.12,1.5,1.5,0,0,0,.3,0,1.63,1.63,0,0,0,.27-.11,1.84,1.84,0,0,0,.5-.37C43.75,19.38,43.85,19,43.75,18.9Z"/><path class="cls-20" d="M30.68,18.75c0-.11-.43-.06-.78-.07a1.72,1.72,0,0,1-.61-.13l-.16,0a.89.89,0,0,1-.35-.16,1,1,0,0,1-.3-.29c-.07-.1-.1-.2-.16-.21s-.13.09-.15.27a1,1,0,0,0,.18.61,1.36,1.36,0,0,0,.47.46,1.06,1.06,0,0,0,.29.13,2,2,0,0,0,.29,0,2.28,2.28,0,0,0,.6-.12C30.4,19.1,30.72,18.85,30.68,18.75Z"/><path class="cls-22" d="M53.78,9.45a4.23,4.23,0,0,0-.78-.8,4.15,4.15,0,0,0-1-.52A2.08,2.08,0,0,0,51.25,8c-.22,0-.35,0-.35.07s.14,0,.34,0a2.73,2.73,0,0,1,.69.22,4.38,4.38,0,0,1,.91.56,4.56,4.56,0,0,1,.79.71c.37.4.61.87.66.87A2.63,2.63,0,0,0,53.78,9.45Zm0,4.34s0-.06,0-.09a.06.06,0,0,0,0,0,7.1,7.1,0,0,0-.37-1.54l-.2-.49-.07-.14s0,0,0,0a6.46,6.46,0,0,0-.37-.64,7.45,7.45,0,0,0-1-1.24,5.17,5.17,0,0,0-1.32-.93,1.29,1.29,0,0,0-.72-.13,2.55,2.55,0,0,1,.67.22,5.69,5.69,0,0,1,1.24,1,8,8,0,0,1,1,1.24c.22.37.34.63.34.63l.09.17c.05.12.12.28.21.47a7.55,7.55,0,0,1,.35,1.15c0,.12,0,.24.07.37a6.78,6.78,0,0,1,.1,1.57c0,.43-.07.72-.05.73a.63.63,0,0,0,.06-.2,3.39,3.39,0,0,0,.09-.52A5.92,5.92,0,0,0,53.77,13.79Zm-3.72-3a2.66,2.66,0,0,0-.26-.57,2.72,2.72,0,0,0-.43-.47,1.14,1.14,0,0,0-.53-.31,5.07,5.07,0,0,0,.4.45,3.86,3.86,0,0,1,.34.47,4.38,4.38,0,0,1,.3.5,3.59,3.59,0,0,0,.25.55A1.19,1.19,0,0,0,50.05,10.8ZM48,7.1c-.05-.13-.11-.32-.21-.53a5.3,5.3,0,0,0-.49-.87,5.9,5.9,0,0,0-.42-.6,8.46,8.46,0,0,0-1.22-1.24,7.19,7.19,0,0,0-.63-.49s-.26-.17-.67-.41a13,13,0,0,0-1.57-.74,14.34,14.34,0,0,0-1.64-.52,3.52,3.52,0,0,0-.77-.16,7.15,7.15,0,0,0,.74.26,15.93,15.93,0,0,1,1.6.6,13,13,0,0,1,1.51.78c.4.24.65.42.65.42a9.28,9.28,0,0,1,1.85,1.62A3,3,0,0,1,47,5.5a6.33,6.33,0,0,1,.74,1.12c.22.39.34.69.36.69A.65.65,0,0,0,48,7.1Zm-1.28.23a2.79,2.79,0,0,0-.46-.52,2.76,2.76,0,0,0-.6-.33A1.39,1.39,0,0,0,45,6.35a6.46,6.46,0,0,0,.59.3,3.25,3.25,0,0,1,.51.37,3.72,3.72,0,0,1,.48.43c.21.22.37.5.42.5A1.42,1.42,0,0,0,46.74,7.33ZM45.3,10.22l-.44.28a4.79,4.79,0,0,0-.45.25l-.27.15c-.31.16-.63.32-1,.47a15.92,15.92,0,0,1-2.26.82c-.32.1-.59.15-.77.2l-.29.07-.3.06c-.19,0-.45.1-.78.14a17.57,17.57,0,0,1-2.4.21A18.6,18.6,0,0,1,34,12.72a9.43,9.43,0,0,0-1.09-.16l.29.09c.19,0,.46.12.78.17a16.12,16.12,0,0,0,2.43.25,17.3,17.3,0,0,0,2.44-.16c.33,0,.6-.1.79-.13l.3-.06.3-.07c.19-.06.46-.11.78-.22a16.51,16.51,0,0,0,2.27-.88,14.14,14.14,0,0,0,2.07-1.23l0,0c.28-.18.48-.37.64-.48s.22-.19.22-.21S45.84,9.87,45.3,10.22ZM31,6.41c-.41.06-.95.14-1.5.18a8,8,0,0,1-1.49,0c-.41,0-.67-.09-.67-.09a5.86,5.86,0,0,1-.66-.15,5.35,5.35,0,0,1-1.35-.6,4.38,4.38,0,0,1-1.12-1L24,4.47h0a1.43,1.43,0,0,0-.19-.25,1.32,1.32,0,0,0,.07.18s0,0,0,0a2.8,2.8,0,0,0,.24.41,4.33,4.33,0,0,0,1.1,1.07,5.3,5.3,0,0,0,1.39.67,5.66,5.66,0,0,0,.68.18s.28,0,.7.08a9,9,0,0,0,1.53,0A11.7,11.7,0,0,0,31,6.51a3.54,3.54,0,0,0,.66-.2A4.25,4.25,0,0,0,31,6.41Zm.25,2.89h-.54c-.38,0-.81,0-1.24-.05s-.87-.08-1.25-.14L27.73,9A5.41,5.41,0,0,1,27,8.79a3.81,3.81,0,0,1-.72-.32A3.91,3.91,0,0,1,25,7.3a8.42,8.42,0,0,1-.86-1.54c-.17-.36-.29-.63-.34-.71A5.31,5.31,0,0,0,24,5.8a8.27,8.27,0,0,0,.8,1.61,4,4,0,0,0,1.3,1.27,4.35,4.35,0,0,0,.75.37,6.67,6.67,0,0,0,.79.21l.36.07h0a12.15,12.15,0,0,0,1.42.12H30a11.5,11.5,0,0,0,1.25-.06,3.45,3.45,0,0,0,.81-.12A6.25,6.25,0,0,0,31.25,9.3ZM36,2.9l-.66.43-.64.47a4.16,4.16,0,0,0-.63.48A2.81,2.81,0,0,0,34.77,4c.35-.19.69-.41.69-.41s.32-.24.62-.5a2.8,2.8,0,0,0,.56-.58A3.8,3.8,0,0,0,36,2.9Zm-7,9.66c-.4-.17-.93-.41-1.44-.67-.34-.18-.67-.37-1-.55-.59-.35-1-.65-1-.65a12.28,12.28,0,0,1-1.82-1.41,6.59,6.59,0,0,1-1-1.2c-.2-.3-.33-.53-.38-.59a2.68,2.68,0,0,0,.29.65,6.35,6.35,0,0,0,1,1.28,11.57,11.57,0,0,0,1.21,1.06c.35.27.6.43.6.43s.43.29,1,.63h0c.29.17.64.35,1,.52a15,15,0,0,0,1.49.6,6.22,6.22,0,0,0,.7.19A6.21,6.21,0,0,0,29,12.56Zm-3.14.74h0c-.05,0-.16,0-.3,0h0a2.08,2.08,0,0,1-.78-.29,3.2,3.2,0,0,1-.64-.52,2.36,2.36,0,0,1-.25-.29l-.25-.29c-.14-.18-.33-.42-.5-.68-.36-.51-.64-1-.68-1a4.35,4.35,0,0,0,.51,1.15c.16.27.34.54.47.73a3.43,3.43,0,0,0,.25.32,3.74,3.74,0,0,0,.28.29,3,3,0,0,0,.72.51,2.13,2.13,0,0,0,.86.23,1.16,1.16,0,0,0,.33,0h0Zm25.77,6.55a15.51,15.51,0,0,1-1.11-1.69,16.08,16.08,0,0,1-.87-1.82c-.11-.26-.17-.48-.23-.63h0l-.08-.22-.08-.24c0-.16-.13-.37-.19-.64a14.87,14.87,0,0,1-.42-2l-.06-.52a14,14,0,0,1-.08-1.5,8.69,8.69,0,0,0,0-.92,1.08,1.08,0,0,0,0,.25c0,.16,0,.39-.06.67a12.47,12.47,0,0,0,0,1.48v0c0,.17,0,.35,0,.52a13.93,13.93,0,0,0,.24,1.44,1.29,1.29,0,0,0,0,.19s0,0,0,.06a2.66,2.66,0,0,0,.08.33c0,.24.12.45.16.6s0,0,0,.05.07.24.07.24,0,.09.09.24.13.38.25.63a15.79,15.79,0,0,0,.93,1.82,13.35,13.35,0,0,0,1.19,1.66c.18.22.35.38.45.5s.17.17.19.17S51.9,20.27,51.58,19.85Zm4.65-5.35s0,.37-.09.83a4.42,4.42,0,0,1-.1.6,7.36,7.36,0,0,1-.45,1.35,7.33,7.33,0,0,1-.65,1.28c-.37.59-.87,1.09-.87,1.15a4.83,4.83,0,0,0,1-1,7,7,0,0,0,.74-1.28,4.33,4.33,0,0,0,.16-.48,6.38,6.38,0,0,0,.22-.95,7.16,7.16,0,0,0,.07-.76v-.1A1.82,1.82,0,0,0,56.23,14.5ZM53.09,19a2.21,2.21,0,0,0-.13.45l-.06.21a4.5,4.5,0,0,1-.29.61,3.39,3.39,0,0,1-.35.57l-.08.09a5,5,0,0,0-.37.43s.33-.14.59-.39a1.14,1.14,0,0,0,.15-.17,3.84,3.84,0,0,0,.3-.4l.11-.22a0,0,0,0,0,0,0v0c0-.12.08-.27.11-.42A1.38,1.38,0,0,0,53.09,19Zm-.53,4.41-.11-.08a3.15,3.15,0,0,1-.58-.47,3.69,3.69,0,0,1-.6-.86h0a1.59,1.59,0,0,1-.15-.29,2.08,2.08,0,0,1-.14-.36,1.68,1.68,0,0,1-.09-.32,3.61,3.61,0,0,1-.08-.81v0c0-.14,0-.23,0-.23a2.1,2.1,0,0,0-.1,1V21a2.09,2.09,0,0,0,.07.36,2.36,2.36,0,0,0,.11.37,1.77,1.77,0,0,0,.13.31l0,0a3.67,3.67,0,0,0,.71.87,2.73,2.73,0,0,0,.66.43h0l.11,0a.7.7,0,0,0,.19,0A.56.56,0,0,0,52.56,23.4ZM25,16a1.3,1.3,0,0,1-.38,0h0a.39.39,0,0,1-.14-.05h0l-.11,0a1.79,1.79,0,0,1-.57-.39,1.58,1.58,0,0,1-.2-.24h0a1.91,1.91,0,0,1-.19-.24c-.11-.16-.24-.38-.37-.61s-.25-.47-.32-.65a1.06,1.06,0,0,1-.07-.22h0c0-.05,0-.08,0-.08s0,.07,0,.19h0a.34.34,0,0,0,0,.14,5.47,5.47,0,0,0,.25.7,6,6,0,0,0,.33.67,3.42,3.42,0,0,0,.2.28l.19.2.05.05a1.88,1.88,0,0,0,.67.39l.13,0,.14,0h0a1.31,1.31,0,0,0,.45,0c.19,0,.31-.11.31-.14S25.2,16,25,16Zm-.78,1.15s0,0,0,0,0,0,0,0a.08.08,0,0,1,0,0,.11.11,0,0,1-.06,0h0a.93.93,0,0,1-.44,0,1.14,1.14,0,0,1-.26-.09.53.53,0,0,1-.15-.08.8.8,0,0,1-.17-.12,1.12,1.12,0,0,1-.15-.13,2.24,2.24,0,0,1-.3-.35c-.19-.28-.33-.6-.37-.6a1.59,1.59,0,0,0,.21.7,2,2,0,0,0,.28.43l.17.17.21.12a.69.69,0,0,0,.23.09.86.86,0,0,0,.27.05.89.89,0,0,0,.44-.06.09.09,0,0,0,.06,0h0a.15.15,0,0,0,.09-.06s0,0,0,0a.14.14,0,0,1,0-.06h0Z"/><path class="cls-23" d="M55.9,9.5h0a1,1,0,0,0-.08-.11s0,0,0,0a3.73,3.73,0,0,0-.36-.43.3.3,0,0,0-.08-.08l-.13-.14-.13-.12a3.88,3.88,0,0,0-.31-.26,2,2,0,0,0-.33-.24A5,5,0,0,0,54,7.79l-.4-.2-.23-.11-.51-.2-.06,0-.6-.17L52,7l-.59-.11h0c-.25,0-.5-.06-.76-.08s-.52,0-.79,0h-.31l0-.08-.1-.13-.11-.15-.2-.27-.32-.4-.23-.28L48.05,5,48,4.9l.09.31c.2.75-.18.77-.76.49L47,5.5A18.16,18.16,0,0,1,45,4l-.36-.32.48.47a0,0,0,0,1,0,0,10.81,10.81,0,0,1,1.25,1.5c.23.36-.3.38-1.06.25h0c-.39-.06-.85-.16-1.3-.27l-.22,0c-.87-.23-1.69-.48-1.94-.55a12.39,12.39,0,0,1,3.38,2.05c1.37,1.19-.43,3.18-1.07,3.82A.79.79,0,0,0,44,11l.4-.28a4.79,4.79,0,0,1,.45-.25,3.27,3.27,0,0,1,.47-.18,1.62,1.62,0,0,1,1.31.07c.73.41-1,1.77-2.41,2.74l.51-.24.5-.26.72-.39h0c.22-.12.44-.26.66-.4l.62-.4,1-.72s0,.11,0,.3,0,.22,0,.36,0,.44.08.72v0c0,.11,0,.22,0,.33a2.84,2.84,0,0,1,.13-.35,1.1,1.1,0,0,1,.41-.5c1-.53,2.07,1.63,2.21,1.91-.06-.28-.44-2.08.16-2.41h0l.08,0h0c.51,0,1.55,1.45,2.08,2.28.12.18.21.33.27.43l0,.09a.9.9,0,0,0-.06-.18.06.06,0,0,0,0,0c-.14-.44-.45-1.36-.64-2.17,0,0,0,0,0,0-.16-.69-.26-1.28-.12-1.42.36-.36,2,1.44,2,1.44S53.55,9,54,8.67,55.23,9.05,55.9,9.5ZM30,9.46h0c.23-.06.47-.11.71-.15C31.9,9.08,33,9,33,9s-3.28-.44-3.73-.87c-.05,0-.07-.1,0-.15a4.66,4.66,0,0,1,1.35-.89h0l0,0h0l0,0,0,0h0c.81-.44,1.79-.88,2.32-1.1l-.48.06h0c-.93.08-2.33.07-2.8-.4s.15-1.33.76-2.15c-.6.52-1.14,1-1.65,1.37a2.5,2.5,0,0,1-.24.16,3.11,3.11,0,0,1-.46.26,2.54,2.54,0,0,1-.46.17,1,1,0,0,1-.24,0,.9.9,0,0,1-.23,0l-.27,0-.47-.08-.4-.08-.43-.11L25.28,5,25,4.9l-.53-.2A4.6,4.6,0,0,1,24,4.47l-.06,0s0,0-.05,0l-.22-.16a.85.85,0,0,1-.17-.14s-.13,2.79,1.17,3.76l-.15,0h0l-.25-.08L24,7.67l-.31-.11-.33-.12-.42-.17-.06,0-.33-.15L22.38,7l-.17-.08-.16-.09-.28-.18a10,10,0,0,0,1.32,5.65l-.1.22c0,.05,0,.1-.07.16l.23.21a4.13,4.13,0,0,1,.4,2.32c0,.12,0,.25,0,.38a11.32,11.32,0,0,1-.18,1.52c0,.08,0,.16,0,.23a2.6,2.6,0,0,1-.33.89.55.55,0,0,1-.39.18c.08.25.16.48.22.68l.09.29c0,.09.05.18.07.26l0,.08c0,.05,0,.1,0,.15s0,.12.05.18,0,0,0,.06a.57.57,0,0,0,0,.14.5.5,0,0,0,0,.12h0c0-.08.06-.17.1-.26a.08.08,0,0,1,0,0h0s0,0,0,0,0,0,0-.06h0c.05-.15.12-.32.19-.5l0-.08a.88.88,0,0,1,.05-.15,1.21,1.21,0,0,1,.05-.18.24.24,0,0,1,0-.08,0,0,0,0,1,0,0s0-.06,0-.09l0-.1v0c0-.08.05-.17.08-.26v0c.09-.3.18-.63.29-1,0-.08.05-.16.07-.24s0,0,0,0a.14.14,0,0,1,0-.06v0c.07-.2.13-.41.2-.61l.15-.42a1,1,0,0,1,.05-.16l.06-.17c.06-.17.13-.33.19-.5l.05-.12a.08.08,0,0,1,0,0c.09-.24.18-.47.28-.69v0l.09-.21.16-.32,0-.06.25-.46,0,0h0v0h0A2.23,2.23,0,0,1,26,13l.11.05.18.08.48.19h0l.21.08.11,0,.39.14.34.11.28.09.45.14.24.07.25.07.82.21.32.07.33.07.24.05h0l2.05.22s-5.83-3-5.29-4.1C27.81,10.1,28.87,9.72,30,9.46Zm26.33,8c-.23,0-.31-.19-.32-.53a7.19,7.19,0,0,1,.29-1.71v0l0-.11,0,0h0s-.08.12-.15.22a12.7,12.7,0,0,1-2.51,2.74,1.34,1.34,0,0,1-.7.28h0c-.82,0-2.55-1.63-3.55-2.64h0l-.43-.43-.07-.08,0,.13v0c0,.17.08.35.13.53a12,12,0,0,0,.4,1.33c.06.18.12.36.19.53s.12.29.19.43l.11.22.15.28a5,5,0,0,0,.48.72l.16.18.18.18-.08.43v0q0,.16-.06.36c0,.1,0,.21,0,.32s0,.07,0,.11V21c0,.13,0,.25,0,.39h0a3,3,0,0,0,0,.31v.1c0,.13,0,.26,0,.38a2.9,2.9,0,0,0,.65,2.22.58.58,0,0,0,.35.15l.11,0,0,0a.23.23,0,0,0,.1-.07h0l.12-.15,0-.05h0a0,0,0,0,0,0,0,7.93,7.93,0,0,0,.34-.82s0,0,0,0l0-.06a5.7,5.7,0,0,1,1.11-2,1.29,1.29,0,0,1,.18-.16.44.44,0,0,1,.11-.09,1.53,1.53,0,0,1,.21-.14l0,0h.05l.13-.07.12-.08.09-.07a5.84,5.84,0,0,0,1-.9,3,3,0,0,0,.28-.33l.14-.18A1.43,1.43,0,0,0,56,19q.14-.2.27-.42c.07-.11.13-.23.2-.35l.18-.37.17-.41L57,17c.06-.2.12-.41.17-.63s.08-.44.12-.68.05-.48.06-.73C57.12,16,56.76,17.37,56.32,17.44Z"/><g class="cls-24"><path class="cls-20" d="M55.5,9.74c.8,1,1.78,2.53,1.42,3.88a.25.25,0,0,1-.45.06A13.11,13.11,0,0,1,55.83,12a9,9,0,0,0-.94-1.82c-.24-.36.33-.81.61-.47Z"/><path class="cls-20" d="M54.79,11.63a2.48,2.48,0,0,1,1.11,1.74c.12.64.07,1.75-.73,1.93-1.44.33-1.35-2.53-1.18-3.34a.55.55,0,0,1,.8-.33Z"/><path class="cls-20" d="M52.09,12.16c.5.23.81,1.09.95,1.6a3.84,3.84,0,0,1-.15,2.15c-.06.18-.35.2-.39,0A18.86,18.86,0,0,1,52.07,14a4.12,4.12,0,0,1-.16-1.73.12.12,0,0,1,.18-.07Z"/><path class="cls-20" d="M50,12.72A2.11,2.11,0,0,0,50,13l0,.56a3.36,3.36,0,0,1-.08,1,.22.22,0,0,1-.4,0,9,9,0,0,1-.63-1.9l.25.32L49.08,13a.66.66,0,0,1,.16-1.19c.5-.14,1.08.48.73,1Z"/><path class="cls-20" d="M44.75,5.7c-1.11,0-2.09-.62-3.12-1A10.72,10.72,0,0,0,38,4.3a.57.57,0,0,1-.4-1c1.86-2.06,6.53-1.13,7.77,1.24a.76.76,0,0,1-.65,1.13Z"/><path class="cls-20" d="M35.76,1.82a6.11,6.11,0,0,0-1,.63,4.21,4.21,0,0,1-.93.6c-.27.09-.41-.21-.32-.41.33-.78,1.42-1,2.17-1a.08.08,0,0,1,0,.15Z"/><path class="cls-20" d="M45.13,11.53c-2,2-5.67,3-8.48,3.07-.2,0-.25-.32,0-.35a24.9,24.9,0,0,0,4.07-1c1.48-.55,2.79-1.41,4.23-2,.18-.07.38.13.22.29Z"/><path class="cls-20" d="M44.82,9.15c-2.49,2.92-9.66,3.78-12.9,1.95a.41.41,0,0,1,.1-.74c2.17-.39,4.36-.06,6.55-.45,2-.37,3.88-1.44,5.88-1.65.49-.06.63.59.37.89Z"/><path class="cls-20" d="M29.9,11a1.74,1.74,0,0,0-.5-.08.81.81,0,0,1-.51-.07.29.29,0,0,1-.06-.45c.32-.31.93-.06,1.27.12a.26.26,0,0,1-.2.48Z"/><path class="cls-20" d="M39.86,6.87a6.2,6.2,0,0,1-1.49.18,15.91,15.91,0,0,0-2.52.6A6.88,6.88,0,0,1,32,8.06a.6.6,0,0,1-.35-.87c1-1.54,2.93-1.82,4.64-2,1.25-.14,3.45-.47,3.85,1.14a.46.46,0,0,1-.31.55Z"/><path class="cls-20" d="M30.75,7.89a1.26,1.26,0,0,1-.46.16A2.51,2.51,0,0,1,29.84,8c-.16,0-.16-.25,0-.33a2.41,2.41,0,0,1,.36-.23,1.14,1.14,0,0,1,.45,0c.26,0,.41.41.14.53Z"/></g><path class="cls-3" d="M40.83,40.72l-.11,0c.22.06-.41,1.64-.52,1.84a4.7,4.7,0,0,1-1.29,1.34,4.38,4.38,0,0,1-3.56.78,3.52,3.52,0,0,1-2-1.25,4,4,0,0,1-.58-2.72,12.88,12.88,0,0,0-2.41,4c-.44,1.31.16,5.21,2.14,4.23,1-.5,2-2.43,2.71-3.44,0,0,2.38,4.23,3.19,4.32,1.49.16,2.8-2,3.33-3.07.85-1.8,1-4.08-.48-5.6A1.93,1.93,0,0,0,40.83,40.72Z"/><path class="cls-2" d="M41,39.93l-.1,0c.21.07-.41,1.65-.53,1.85a4.57,4.57,0,0,1-1.29,1.34,4.34,4.34,0,0,1-3.55.77,3.48,3.48,0,0,1-2-1.24,4,4,0,0,1-.58-2.72,12.85,12.85,0,0,0-2.4,4c-.45,1.3.15,5.2,2.13,4.23,1-.5,2-2.43,2.72-3.45,0,0,2.38,4.24,3.18,4.33,1.49.16,2.8-2,3.33-3.07.86-1.81,1-4.08-.47-5.6A2,2,0,0,0,41,39.93Z"/><path class="cls-3" d="M38.57,47.76c2.55-.57,1.69-4.7,1.69-4.7S39,45.45,35.35,44.33s-2.56-3.84-2.46-4.45a4,4,0,0,0,.58,2.72,3.48,3.48,0,0,0,2,1.24,4.34,4.34,0,0,0,3.55-.77,4.57,4.57,0,0,0,1.29-1.34c.12-.2.74-1.78.53-1.85l.1,0a2,2,0,0,1,.41.35c1.51,1.52,1.33,3.79.47,5.6C41.32,47,40,49.11,38.52,49c-.29,0-.78-.6-1.29-1.31A2.12,2.12,0,0,0,38.57,47.76Z"/><path class="cls-3" d="M35.34,44.62c-.75,1-1.7,3-2.72,3.45-1.68.83-2.37-1.87-2.26-3.5a6.58,6.58,0,0,0,1.1,2.71C32.53,48.38,35.34,44.62,35.34,44.62Z"/><path class="cls-25" d="M30.94,79H6.64a1,1,0,0,1,0,.52L6.37,79h0v-.11l-.2-1.13-.07-.37,0-.28-.09-.53v0l0-.16-.1-.54-.19-1.07-.07-.43-.1-.56,0-.25-.21-1.18-.08-.45,0-.2L5,71.31l0-.27,0-.19-.1-.53L4.6,69.08l-.06-.34-.07-.41-1-5.46a1,1,0,0,1,0-.43,1.6,1.6,0,0,1,.05-.21A.66.66,0,0,1,3.65,62a1,1,0,0,1,.11-.17h0l.12-.12A.81.81,0,0,1,4,61.63l.21-.1.17-.05a1.15,1.15,0,0,1,.33,0H26.88a1.78,1.78,0,0,1,.9.26,1.7,1.7,0,0,1,.8,1.17Z"/><path class="cls-26" d="M30.94,79H29.55L27.33,63.87a1.72,1.72,0,0,0-1.27-1.36,1.25,1.25,0,0,0-.43-.07H3.51a1.6,1.6,0,0,1,.05-.21A.66.66,0,0,1,3.65,62a1,1,0,0,1,.11-.17h0l.12-.12A.81.81,0,0,1,4,61.63l.21-.1.17-.05a1.15,1.15,0,0,1,.33,0H26.88a1.78,1.78,0,0,1,.9.26,1.7,1.7,0,0,1,.8,1.17Z"/><path class="cls-26" d="M6.73,77c.29.65.59,1.31.92,2h-1a1,1,0,0,1,0,.52L6.37,79h0v-.11l-.2-1.13-.07-.37,0-.28-.09-.53v0l0-.16-.1-.54-.19-1.07-.07-.43-.1-.56.23.6c.06.15.11.3.18.46l.38,1c.1.24.21.49.31.74Z"/><path class="cls-27" d="M10.43,63.82a.46.46,0,0,0,.16.07l.24,0h.11l.26,0H15l.57,0h.13a31.92,31.92,0,0,0,3.72-.26h.09l.09,0a.38.38,0,0,0,.11-.05h0a.7.7,0,0,0,.06-.41c0-.11,0-.22-.06-.34a6.23,6.23,0,0,0-.19-.64s0-.09,0-.13l-.06-.16,1.27,0h0v-.44H9.5v.06c0,.13.05.26.08.39v.06c0,.12.05.23.08.35a.29.29,0,0,1,0,.09l.09.29,0,.09a.14.14,0,0,0,0,.07,2.49,2.49,0,0,0,.11.29h0a.69.69,0,0,1,0,.1l.07.14s.06.11.09.15l0,0,.05.07a.65.65,0,0,0,.11.12l.05.05Z"/><path class="cls-28" d="M9.12,60.26s.32,3.14,1.22,3.35,8.91,0,9.16-.32-.29-1.68-.29-1.68l1.27,0s.09-1.92-.68-1.9-9.42-.13-9.93,0A1.28,1.28,0,0,0,9.12,60.26Z"/><path class="cls-29" d="M9.41,60.5a1.24,1.24,0,0,1,.75-.57c.5-.13,9.16,0,9.93,0a.39.39,0,0,1,.14,0,.49.49,0,0,0-.43-.29c-.76,0-9.42-.13-9.93,0a1.28,1.28,0,0,0-.75.58s.3,2.94,1.14,3.31A8.51,8.51,0,0,1,9.41,60.5Z"/><path class="cls-30" d="M10.34,63.61c.89.2,8.91,0,9.16-.32s-.29-1.68-.29-1.68l1.27,0s.06-1.5-.45-1.83l-1.65.69-9.26-.19S9.44,63.4,10.34,63.61Z"/><path class="cls-30" d="M20.28,60.1,20.22,60l0-.07a.5.5,0,0,0-.14-.15l-.42.18h0l-1.23.51-9.26-.19a11.61,11.61,0,0,0,.58,2.57,12.58,12.58,0,0,1-.45-2.22l9.25.19c.16.53.48,1.49.6,1.8a2.22,2.22,0,0,1,.11.79.61.61,0,0,0,.29-.1c.25-.34-.29-1.68-.29-1.68h0a7.57,7.57,0,0,1-.28-1l.85-.36a1.42,1.42,0,0,1,.14.44c0,.3,0,.64.08.9h.46A4.25,4.25,0,0,0,20.28,60.1Z"/><path class="cls-31" d="M18.79,61.92s-.79.68-4.46.54A9.24,9.24,0,0,1,9.2,60.82c.13.91.48,2.64,1.14,2.79a57.16,57.16,0,0,0,9-.24Z"/><path class="cls-27" d="M8.66,76.4a1.68,1.68,0,0,1-.51.36A3.56,3.56,0,0,1,6.73,77H6.58a2.52,2.52,0,0,1-.58.09H5.86c0,.07.12.16.19.27A8.34,8.34,0,0,1,7,79H6.64a1,1,0,0,1,0,.52L6.37,79l0-.11L5.09,76.65l-.23-.43-.22-.4-.53-1-.27-.49-.14-.26L2.31,71.5l0,0L1,69.09a3.6,3.6,0,0,1,2.78-.44l.76.09.52.1a6.24,6.24,0,0,1,.75.16l.22.07h0l.17.07.07,0,.14.07h0l.06,0,.1.06.08,0,.08.06.06.07,0,.06a.36.36,0,0,1,0,.09.08.08,0,0,1,0,0,.31.31,0,0,1,0,.1v.05c-.09.48-.68.73-1.32.87a6.79,6.79,0,0,1-.75.11l-.33,0c-.37,0-.63,0-.63,0s.43.15,1,.42a14.17,14.17,0,0,1,1.72.92,8.52,8.52,0,0,1,1,.77s0,0,0,0A3.48,3.48,0,0,1,9,75,1.53,1.53,0,0,1,8.66,76.4Z"/><path class="cls-10" d="M5.9,76.55a6,6,0,0,1-.65,0l.12.16a12.42,12.42,0,0,1,.75,1.12A4.77,4.77,0,0,1,6.64,79a1,1,0,0,1,0,.52L6.37,79H2.89a.91.91,0,0,1-.16-.11A5.47,5.47,0,0,1,1,77.05a7.7,7.7,0,0,1-.77-2.42A19.69,19.69,0,0,1,0,72.13c0-.74,0-1.47,0-2.21a2.3,2.3,0,0,1,.23-1c.52-1,1.82-.92,3-.79.17,0,.65.07,1.19.16a8.64,8.64,0,0,1,.85.19,2.29,2.29,0,0,1,1,.51.44.44,0,0,1,.08.11s0,0,0,0a.29.29,0,0,1,0,.09.29.29,0,0,1,0,.13c-.1.57-.91.82-1.67.94a9.73,9.73,0,0,1-1.35.09,11.51,11.51,0,0,1,1.12.47,2.83,2.83,0,0,1,.36.16A11.12,11.12,0,0,1,6.8,72.15a6.91,6.91,0,0,1,.93.85s0,0,0,0a3,3,0,0,1,.77,1.53c.24,1.52-1,1.92-2,2H5.9Z"/><path class="cls-12" d="M4.92,76.23c.76.12,1.42.25,1.42.25a3,3,0,0,1-1.48.14,3,3,0,0,1-1.37-.56S4.15,76.12,4.92,76.23Z"/><path class="cls-12" d="M5.7,74.39a7.57,7.57,0,0,1,1.88.86,5.61,5.61,0,0,1,.69.51,18.64,18.64,0,0,0-2.69-1c-.74-.23-1.44-.36-2-.51a2.87,2.87,0,0,1-.78-.34,4.3,4.3,0,0,0,.82.15A10.34,10.34,0,0,1,5.7,74.39Z"/><path class="cls-12" d="M5.37,72a7.92,7.92,0,0,1,2,1.17,6.68,6.68,0,0,1,.69.64,16.84,16.84,0,0,0-2.81-1.44,16.65,16.65,0,0,0-3-.9,6.85,6.85,0,0,1,.94,0A7.71,7.71,0,0,1,5.37,72Z"/><path class="cls-12" d="M2.76,70a2,2,0,0,1,.8.33,2,2,0,0,1-.86.06A2,2,0,0,1,1.9,70,1.87,1.87,0,0,1,2.76,70Z"/><path class="cls-11" d="M5.9,76.55a6,6,0,0,1-.65,0l.12.16a12.42,12.42,0,0,1,.75,1.12A4.77,4.77,0,0,1,6.64,79a1,1,0,0,1,0,.52L6.37,79H2.89a.91.91,0,0,1-.16-.11A5.47,5.47,0,0,1,1,77.05a7.7,7.7,0,0,1-.77-2.42c.57,1.18,1.32,2.42,1.87,2.16,1-.48.88-1.25.88-1.25l.39.08a10.28,10.28,0,0,0,1.25.2,8.68,8.68,0,0,0,1.14,0l.43,0a2.07,2.07,0,0,0,1.12-.44,1.14,1.14,0,0,0,.15-.17,1,1,0,0,0,.16-.34c.14-.5-.29-1.15-1-1.82l-.39-.37-.71-.58h0l-.48-.37c-.71-.51-1.44-1-2-1.34l-.71-.43h0l-.53-.31a11.45,11.45,0,0,0,2.82-.55,2.8,2.8,0,0,0,.46-.24.86.86,0,0,0,.26-.32,2.29,2.29,0,0,1,1,.51.44.44,0,0,1,.08.11s0,0,0,0a.29.29,0,0,1,0,.09.29.29,0,0,1,0,.13c-.1.57-.91.82-1.67.94a9.73,9.73,0,0,1-1.35.09,11.51,11.51,0,0,1,1.12.47,2.83,2.83,0,0,1,.36.16A11.12,11.12,0,0,1,6.8,72.15a6.91,6.91,0,0,1,.93.85s0,0,0,0a3,3,0,0,1,.77,1.53c.24,1.52-1,1.92-2,2H5.9Z"/><path class="cls-21" d="M32.84,31s1,2.53-.26,3.49a14.77,14.77,0,0,0,5,0c1.84-.53,2.27-2.17,1.74-2.58S35.9,29.64,32.84,31Z"/><path class="cls-12" d="M39.31,32c-.05.07-1-.51-2-.77a8.2,8.2,0,0,0-2.09-.27,8.77,8.77,0,0,0-2.1.13c-1,.19-2,.71-2,.64a4.31,4.31,0,0,1,2-1.07,8.18,8.18,0,0,1,2.22-.33,7.86,7.86,0,0,1,2.2.48A4.34,4.34,0,0,1,39.31,32Z"/><path class="cls-25" d="M37.57,34.54a2.8,2.8,0,0,0,1.74-1.31,4.89,4.89,0,0,0-5.8,1.43A12.41,12.41,0,0,0,37.57,34.54Z"/><path class="cls-2" d="M32.32,31.31a1.87,1.87,0,0,0,1.79,1.18,14.62,14.62,0,0,0,4.72-.67A6.87,6.87,0,0,0,32.32,31.31Z"/><path class="cls-12" d="M35.86,36.57c0,.08-.26.14-.54.1a1.45,1.45,0,0,1-.55-.18,1.27,1.27,0,0,1-.32-.51c-.1-.29,0-.59.08-.57s.16.23.31.36a1,1,0,0,0,.31.22,1.51,1.51,0,0,0,.31.26C35.65,36.38,35.88,36.48,35.86,36.57Z"/><path class="cls-26" d="M38.21,33c.11.37-.83,1.2-2.7,1.15-.68,0-.93-.21-1-.44a5.42,5.42,0,0,0-1,.94,12.41,12.41,0,0,0,4.06-.12,2.8,2.8,0,0,0,1.74-1.31,5.38,5.38,0,0,0-1.12-.33S38.2,33,38.21,33Z"/><path class="cls-3" d="M36.73,31.33c.36.41.15.75-.28,1a9.55,9.55,0,0,0,2.38-.53,6.87,6.87,0,0,0-6.51-.51C32.49,31.38,35.69,30.16,36.73,31.33Z"/><path class="cls-2" d="M59.74,73.92v.21c0,.13,0,.26,0,.39v.18c0,.17,0,.33,0,.5s0,.15,0,.23,0,.3,0,.45,0,.33-.07.48l-.06.3,0,.14c0,.13-.06.26-.1.39a7,7,0,0,1-.47,1.15c-.07.15-.15.29-.23.43l-.14.25H45.19c1.14-.69,2.23-1.41,3.17-2.1l0,0c.52-.39,1-.77,1.4-1.14l.06,0,.46-.44a7.32,7.32,0,0,0,.77-.91,2.36,2.36,0,0,0,.15-.25l0-.07a2.2,2.2,0,0,0,.18-.43,1.25,1.25,0,0,0,.07-.31c0-.11,0-.23,0-.36v-.14c0-.1,0-.21,0-.32a.33.33,0,0,0,0-.14c0-.1,0-.21,0-.32a.78.78,0,0,0,0-.16c0-.1,0-.2,0-.3s0-.15,0-.22L51.33,71a2,2,0,0,0,0-.24c0-.11,0-.22-.07-.34a2,2,0,0,1-.05-.24l-.09-.36L51,69.58c0-.13-.07-.25-.1-.39s0-.16-.07-.24-.07-.27-.11-.41a2.17,2.17,0,0,1-.07-.24c0-.15-.09-.29-.13-.43s-.05-.16-.07-.24-.09-.3-.14-.45l0-.08h0l0-.1s0,0,0,0-.11-.32-.16-.48a1.72,1.72,0,0,0-.07-.21c-.05-.17-.11-.33-.16-.5s0-.13-.07-.2L49.61,65l-.06-.17c-.06-.19-.13-.38-.2-.57a.56.56,0,0,0,0-.12c0-.05,0-.1-.05-.15s-.12-.32-.17-.48l0-.06c-.13-.35-.25-.69-.38-1l-.24-.64c-.29-.77-.58-1.5-.84-2.16l-.42-1a0,0,0,0,0,0,0c-.05-.14-.11-.28-.16-.41a.36.36,0,0,1,0-.09l-.13-.31a1,1,0,0,0,0-.1c0-.1-.08-.18-.11-.27l-.09-.22,0-.06s0-.07,0-.11l-.06-.13a1.17,1.17,0,0,0,0-.11s0,0,0-.05a.73.73,0,0,0,0-.12h0l0-.09a9.17,9.17,0,0,1,0-1.62.13.13,0,0,0,0-.06,4.53,4.53,0,0,1,.06-.5h0c0-.16.06-.32.09-.5s0-.07,0-.11.07-.34.11-.52a.09.09,0,0,0,0,0c.05-.19.1-.39.16-.58s0-.09,0-.14.12-.39.2-.59a0,0,0,0,1,0,0l0,0a4.45,4.45,0,0,1,.22-.57s0,0,0,0l.06-.14,0-.06c.07-.15.14-.31.22-.46a.84.84,0,0,1,.06-.14l.18-.32c.11-.18.21-.36.3-.52l.15-.24a9.89,9.89,0,0,1,.59-.83h0a13.79,13.79,0,0,1,4.32-3.65s0,.11.1.31l0,.12c.34,1.08,1.29,4.1,2.36,7.91h0l.15.54L56,54c0,.2.11.4.16.6l.18.64,0,.13c0,.06,0,.13.05.19.06.24.13.48.19.72v0c0,.13.07.26.1.39s.09.35.14.53v0l.15.61.06.24c.05.19.1.38.14.57l.06.23c.06.23.12.46.17.7a.31.31,0,0,1,0,.08c.07.27.13.54.2.81a1.16,1.16,0,0,0,0,.18c0,.2.09.41.14.61l.06.25c0,.19.08.38.13.56a2.38,2.38,0,0,0,0,.26l.15.69,0,.1c.05.26.11.53.16.79a1.77,1.77,0,0,1,0,.2l.12.59c.06.27.11.53.16.8,0,.09,0,.17,0,.26l.12.66a.36.36,0,0,1,0,.11c.05.25.09.5.13.75a2.07,2.07,0,0,1,0,.22l.09.54c0,.08,0,.17,0,.25s0,.34.08.51l0,.24.09.63s0,.06,0,.09,0,.26.05.39l.06.52c0,.16,0,.32,0,.48s0,0,0,.07,0,.31,0,.47,0,.1,0,.15a1.5,1.5,0,0,1,0,.22c0,.19,0,.38,0,.57a.2.2,0,0,0,0,.07c0,.2,0,.41,0,.61a1.09,1.09,0,0,1,0,.18C59.73,73.65,59.74,73.79,59.74,73.92Z"/><g class="cls-7"><path class="cls-8" d="M56.45,74.09a4.49,4.49,0,0,0-1.24-.69,5.11,5.11,0,0,0-1-.28,2.8,2.8,0,0,0-.46-.05,3,3,0,0,0-.45,0,3.3,3.3,0,0,0-1,.26,2.38,2.38,0,0,0-.8.57,1,1,0,0,0-.25.36s.13-.12.32-.29a2.77,2.77,0,0,1,.8-.47,3.44,3.44,0,0,1,.91-.19c.26,0,.43,0,.43,0a3.9,3.9,0,0,1,.42,0,5.86,5.86,0,0,1,.92.21C55.81,73.79,56.43,74.13,56.45,74.09Z"/><path class="cls-8" d="M54.8,71.67a2.74,2.74,0,0,0-1,.28,5.79,5.79,0,0,0-.92.48,6.26,6.26,0,0,0-.79.67,3.05,3.05,0,0,0-.62.82s.37-.36.76-.68a7.06,7.06,0,0,1,.8-.59,7.27,7.27,0,0,1,.86-.53C54.33,71.88,54.81,71.71,54.8,71.67Z"/></g><path class="cls-3" d="M59.74,73.92v.21c0,.13,0,.26,0,.39v.18c0,.17,0,.33,0,.5v0a1.36,1.36,0,0,1,0,.2l0,.3s0,.1,0,.15,0,.22,0,.32,0,.11,0,.16l-.06.3,0,.14c0,.13-.06.26-.1.39a7,7,0,0,1-.47,1.15c-.07.15-.15.29-.23.43l-.14.25H52.67c1-1.7,1.37-3,.71-3.42a4.73,4.73,0,0,0-3.58.15l.06,0c.17-.15.32-.3.46-.44a7.32,7.32,0,0,0,.77-.91c0-.09.11-.17.15-.25l0-.07a2.2,2.2,0,0,0,.18-.43,1.25,1.25,0,0,0,.07-.31c0-.11,0-.23,0-.36v-.14a2.72,2.72,0,0,0,0-.28.06.06,0,0,0,0,0,.33.33,0,0,0,0-.14c0-.09,0-.18,0-.28a.06.06,0,0,0,0,0,.78.78,0,0,0,0-.16c0-.1,0-.2,0-.3s0-.15,0-.22L51.33,71a2,2,0,0,0,0-.24c0-.11,0-.22-.07-.34a2,2,0,0,1-.05-.24l-.09-.36L51,69.58c0-.13-.07-.25-.1-.39s0-.16-.07-.24-.07-.27-.11-.41a2.17,2.17,0,0,1-.07-.24c0-.15-.09-.29-.13-.43s-.05-.16-.07-.24-.09-.3-.14-.45l0-.08h0l0-.1h0s0,0,0,0c0-.16-.11-.32-.16-.48a1.72,1.72,0,0,0-.07-.21c-.05-.17-.11-.33-.16-.5s0-.13-.07-.2L49.61,65l-.06-.17c-.06-.19-.13-.38-.2-.57a.56.56,0,0,0,0-.12c0-.05,0-.1-.05-.15s-.12-.32-.17-.48l0-.06c-.13-.35-.25-.69-.38-1l-.24-.64c-.29-.77-.58-1.5-.84-2.16l-.42-1a0,0,0,0,0,0,0c-.05-.14-.11-.28-.16-.41a.36.36,0,0,1,0-.09l-.13-.31a1,1,0,0,0,0-.1c0-.1-.08-.18-.11-.27l0-.08-.06-.14,0-.06s0-.07,0-.11l-.06-.13a1.17,1.17,0,0,0,0-.11s0,0,0-.05a.73.73,0,0,0,0-.12h0c0-.44,0-.87,0-1.27l0-.44a.13.13,0,0,0,0-.06,3.87,3.87,0,0,1,.06-.46v0c0-.16.06-.32.09-.5s0-.07,0-.11.07-.34.11-.52a.09.09,0,0,0,0,0c.05-.19.1-.39.16-.58s0-.09,0-.14.12-.39.2-.59a0,0,0,0,1,0,0l0,0c.06-.19.14-.37.22-.57,0,0,0,0,0,0l.06-.14,0-.06c.07-.15.14-.31.22-.46a.84.84,0,0,1,.06-.14l.18-.32c.11-.18.21-.36.3-.52l.15-.24a9.89,9.89,0,0,1,.59-.83,15.91,15.91,0,0,0-1.27,6.19,26.45,26.45,0,0,0,2,6.83c.4,1,.83,2,1.29,3a.3.3,0,0,1,0,.08,0,0,0,0,0,0,0c1.72,3.62,3.72,6.58,4.92,5.76,2.43-1.66-.23-17-.3-17.26l.14.09h0l.15.54.06.19L56,54c0,.2.11.4.16.6l.06.2.12.44,0,.13c0,.06,0,.13.05.19.06.24.13.48.19.72v0c0,.13.07.26.1.39s.07.27.1.4a.5.5,0,0,1,0,.13v0l.15.61.06.24c.05.19.1.38.14.57l.06.23c.06.23.12.46.17.7a.31.31,0,0,1,0,.08c.07.27.13.54.2.81a1.16,1.16,0,0,0,0,.18c0,.2.09.41.14.61l.06.25c0,.19.08.38.13.56a2.38,2.38,0,0,0,0,.26l.15.69,0,.1c.05.26.11.53.16.79a1.77,1.77,0,0,1,0,.2l.12.59.06.26c0,.18.07.36.1.54s0,.17,0,.26l.12.66a.36.36,0,0,1,0,.11c.05.25.09.5.13.75a2.07,2.07,0,0,1,0,.22l.09.54c0,.08,0,.17,0,.25s0,.34.08.51l0,.24.09.63s0,.06,0,.09,0,.26.05.39,0,.21,0,.31a1.49,1.49,0,0,0,0,.21c0,.16,0,.32,0,.48s0,0,0,.07,0,.11,0,.17,0,.3,0,.45a1.5,1.5,0,0,1,0,.22c0,.19,0,.38,0,.57a.2.2,0,0,0,0,.07c0,.2,0,.41,0,.61a1.09,1.09,0,0,1,0,.18C59.73,73.65,59.74,73.79,59.74,73.92Z"/><path class="cls-32" d="M51.9,76.13a3,3,0,0,1-.4,0,2.34,2.34,0,0,0-1,.28,16,16,0,0,0-2.29,1.82l0,0-.16.13-.79.64h-.72c.41-.29.84-.61,1.27-.93l.47-.37,0,0,.85-.67a6,6,0,0,1,1.29-.82A2.21,2.21,0,0,1,51.5,76,.73.73,0,0,1,51.9,76.13Z"/><path class="cls-32" d="M49.48,49.94a18.76,18.76,0,0,0-.91,1.85c-.41,1-.7,2-.77,2a6.56,6.56,0,0,1,.41-2.08,14.49,14.49,0,0,1,.79-2,16.51,16.51,0,0,1,1.19-1.77,6.32,6.32,0,0,1,1.5-1.5c.06.05-.62.85-1.18,1.72A20.63,20.63,0,0,0,49.48,49.94Z"/></g></g></g></svg>