<svg xmlns="http://www.w3.org/2000/svg" viewBox="0 0 70.4 86.03"><defs><style>.cls-1{isolation:isolate;}.cls-11,.cls-2,.cls-6{fill:#294168;}.cls-3,.cls-4{fill:#88ac76;}.cls-4,.cls-6{opacity:0.34;}.cls-10,.cls-12,.cls-14,.cls-16,.cls-18,.cls-20,.cls-26,.cls-29,.cls-31,.cls-33,.cls-34,.cls-4,.cls-6,.cls-8{mix-blend-mode:multiply;}.cls-5{fill:#212f47;}.cls-7{fill:#fff;}.cls-10,.cls-21,.cls-26,.cls-31,.cls-34,.cls-8{opacity:0.5;}.cls-10,.cls-12,.cls-9{fill:#d3dbfd;}.cls-11{opacity:0.6;}.cls-11,.cls-15,.cls-21,.cls-22,.cls-23,.cls-25,.cls-27{mix-blend-mode:screen;}.cls-13,.cls-14,.cls-15,.cls-29{fill:#3c1d91;}.cls-14,.cls-18{opacity:0.45;}.cls-17,.cls-18,.cls-20,.cls-22{fill:#ebd0a6;}.cls-19{fill:#de9168;}.cls-20{opacity:0.62;}.cls-23{fill:#f8e9d0;}.cls-24,.cls-25,.cls-26{fill:#a95913;}.cls-27{opacity:0.35;}.cls-28{fill:#6f3a1e;}.cls-30,.cls-31{fill:#3f4349;}.cls-32,.cls-34{fill:#f15e6b;}.cls-33{fill:#501214;opacity:0.1;}</style></defs><title>callРесурс 12</title><g class="cls-1"><g id="Слой_2" data-name="Слой 2"><g id="OBJECTS"><path class="cls-2" d="M49.05,85.66a.92.92,0,0,1,0,.16H30.74l0,0a8.09,8.09,0,0,1,1.2-.71l.07,0h0a19.68,19.68,0,0,1,3.72-1.26c.7-.17,1.44-.32,2.19-.45l.6-.09c.67-.1,1.34-.17,2-.23l.23,0c.54,0,1.07-.07,1.59-.07h.37a13.22,13.22,0,0,1,4.31.56,3.88,3.88,0,0,1,1.25.66,1.58,1.58,0,0,1,.36.37.59.59,0,0,1,.13.19.78.78,0,0,1,.11.2A1.76,1.76,0,0,1,49.05,85.66Z"/><path class="cls-3" d="M49.05,85.66a.92.92,0,0,1,0,.16H30.74l0,0a8.09,8.09,0,0,1,1.2-.71l.07,0h0a19.68,19.68,0,0,1,3.72-1.26c.7-.17,1.44-.32,2.19-.45l.6-.09c.67-.1,1.34-.17,2-.23l.23,0c.54,0,1.07-.07,1.59-.07h.37a13.22,13.22,0,0,1,4.31.56,3.88,3.88,0,0,1,1.25.66,1.58,1.58,0,0,1,.36.37.59.59,0,0,1,.13.19.78.78,0,0,1,.11.2A1.76,1.76,0,0,1,49.05,85.66Z"/><path class="cls-4" d="M49.05,85.66a1.76,1.76,0,0,0-.14-.77.78.78,0,0,0-.11-.2.59.59,0,0,0-.13-.19,1.58,1.58,0,0,0-.36-.37,3.88,3.88,0,0,0-1.25-.66,13.22,13.22,0,0,0-4.31-.56h-.37c-.52,0-1.05,0-1.59.07l-.23,0c-.66.06-1.33.13-2,.23l-.6.09c-.75.13-1.49.28-2.19.45A19.68,19.68,0,0,0,32.05,85h0l-.07,0a8.09,8.09,0,0,0-1.2.71l0,0H49A.92.92,0,0,0,49.05,85.66Z"/><path class="cls-5" d="M49.51,85.82H29.05l.08-.09s0,0,0,0a.12.12,0,0,1,.05-.05,2.28,2.28,0,0,1,.92-.32l.73-.13.2,0,.24,0,.26,0,.38,0h.27l.32,0c.76-.07,1.61-.13,2.52-.18l.69,0,2.63-.11H39l.68,0,.9,0a1.92,1.92,0,0,1,.24,0l.58,0h0c.1,0,.2,0,.3,0h0l.66,0,.84,0h1.59c1,0,1.81,0,2.47,0h1.47a2.08,2.08,0,0,1,.23.26h0a.05.05,0,0,1,0,0l.06.07c.07.1.15.22.23.36v0l.15.31h0A1.06,1.06,0,0,1,49.51,85.82Z"/><path class="cls-6" d="M49.51,85.82H29.05l.08-.09s0,0,0,0a.12.12,0,0,1,.05-.05,2.28,2.28,0,0,1,.92-.32l.73-.13.2,0,.24,0,.26,0,.38,0h.11l.16,0,.32,0c.76-.07,1.61-.13,2.52-.18l.69,0,2.63-.11H39l.68,0,.9,0h1.8l.84,0h1.59c1,0,1.81,0,2.47,0h1.12l.44.19.14.07h0a.05.05,0,0,1,0,0l.06.07c.07.1.15.22.23.36v0l.15.31h0A1.06,1.06,0,0,1,49.51,85.82Z"/><path class="cls-7" d="M70.34,73.87a4.44,4.44,0,0,1-.08.61q0,.3-.12.6c0,.1,0,.2-.07.3-.1.4-.23.81-.38,1.23a1.8,1.8,0,0,1-.08.21q-.14.38-.3.75c0,.1-.08.21-.13.31s-.09.21-.14.31c-.21.45-.44.9-.69,1.36s-.64,1.12-1,1.69c-.09.14-.18.29-.28.43l-.53.79c-.78,1.14-1.65,2.27-2.56,3.36L63.8,86l.17-.21H52.43C55,83,59.22,78.09,60.94,74.67c.05-.12.11-.23.15-.34a7.37,7.37,0,0,0,.39-1,3.16,3.16,0,0,0,.15-.54.07.07,0,0,1,0,0c0-.09,0-.17,0-.25s0,0,0,0a1.21,1.21,0,0,0,0-.19,1.69,1.69,0,0,0,0-.32,1.43,1.43,0,0,0,0-.22c0-.11-.07-.23-.12-.35a.61.61,0,0,1-.05-.12c0-.09-.07-.18-.12-.27l-.07-.15c-.05-.09-.09-.17-.13-.26l-.1-.18-.15-.26L60.78,70l-.17-.28-.13-.2-.19-.29-.14-.2-.21-.31-.15-.2-.24-.33L59.4,68l-.25-.34-.16-.2-.27-.35-.16-.2c-.12-.16-.25-.32-.38-.47l-.07-.09-.31-.39-.14-.16-.34-.41-.09-.1-.3-.36-.11-.12a1.34,1.34,0,0,0-.11-.14l-.39-.45-.09-.1c-.14-.17-.29-.34-.44-.5l0-.05c-.72-.81-1.42-1.59-2.07-2.29l-.1-.12L53.41,61h0l0,0h0c-.43-.45-.81-.87-1.16-1.23l0,0-.31-.32a.23.23,0,0,0-.07-.07L51.59,59a.3.3,0,0,0-.08-.08l-.1-.11h0l-.09-.09-.06-.06-.16-.16L51,58.45l-.1-.11-.08-.08,0,0-.09-.09s0,0,0,0l-.06-.06A6.81,6.81,0,0,1,50.23,57l0,0a4.17,4.17,0,0,1-.13-.42l0-.06c0-.14-.07-.29-.11-.45s0,0,0,0-.07-.33-.11-.51,0-.07,0-.11-.06-.34-.08-.52a.09.09,0,0,1,0-.05c0-.2,0-.39-.07-.59h0s0-.1,0-.14c0-.2,0-.41,0-.62h0a1.55,1.55,0,0,1,0-.22c0-.16,0-.32,0-.49v-.16c0-.12,0-.24,0-.36l0-.36.09-.66.1-.58a9.65,9.65,0,0,1,.24-1,9.49,9.49,0,0,1,.32-.94,12.76,12.76,0,0,1,1-2.09,14.46,14.46,0,0,1,1.29-1.85l.08-.1s2.38,2.88,5.37,6.85h0l.45.6.08.1.37.5.13.17c.11.16.23.31.35.47l.11.16.44.6,0,0,.44.59,0,.06.1.14.37.51.14.2.34.48.14.19.42.59,0,.07c.15.23.31.45.47.68l.1.15.36.52.15.21.32.48.15.21.12.18.27.42.06.08.44.67.12.18c.11.16.21.33.32.5l.15.22c.09.16.19.31.29.47l.14.22.36.57,0,.09c.14.22.27.44.4.66l.12.19c.09.15.18.31.28.46l.13.23a1.74,1.74,0,0,0,.11.18c0,.09.09.17.14.26l.12.21.24.42.08.14,0,.07.34.62.09.19.23.43a2.12,2.12,0,0,0,.11.21c.07.14.13.27.2.4a1.24,1.24,0,0,0,.1.2l0,.08.21.44,0,.06c.09.19.17.38.25.56a1.22,1.22,0,0,1,.07.17c.06.13.11.26.16.38s0,.13.08.19l.14.36.06.17c.06.16.11.32.16.48v0c0,.16.1.32.14.48a.57.57,0,0,1,0,.14c0,.11.06.22.08.32l0,.16a.8.8,0,0,1,0,.15l0,.15a.59.59,0,0,1,0,.13c0,.14,0,.28.05.41A6.24,6.24,0,0,1,70.34,73.87Z"/><g class="cls-8"><path class="cls-9" d="M66.5,70.71a4.57,4.57,0,0,0-1.41-.19,4.74,4.74,0,0,0-1,.09,3.21,3.21,0,0,0-.44.11,2.92,2.92,0,0,0-.42.19,3.55,3.55,0,0,0-.8.59,2.48,2.48,0,0,0-.53.82,1.06,1.06,0,0,0-.1.44s.07-.17.19-.39a2.69,2.69,0,0,1,.58-.73,2.92,2.92,0,0,1,.77-.51,3.76,3.76,0,0,1,.4-.16,4.06,4.06,0,0,1,.4-.12,4.68,4.68,0,0,1,.94-.14C65.79,70.66,66.5,70.75,66.5,70.71Z"/><path class="cls-9" d="M64.08,69.06a3.05,3.05,0,0,0-.82.62,4.48,4.48,0,0,0-1.17,1.7,3,3,0,0,0-.28,1s.21-.47.45-.91a7.93,7.93,0,0,1,.54-.84,7.49,7.49,0,0,1,.6-.81C63.72,69.43,64.11,69.09,64.08,69.06Z"/></g><path class="cls-10" d="M70.34,73.87a4.44,4.44,0,0,1-.08.61q0,.3-.12.6c0,.1,0,.2-.07.3-.1.4-.23.81-.38,1.23a1.8,1.8,0,0,1-.08.21q-.14.38-.3.75c0,.1-.08.21-.13.31s-.09.21-.14.31c-.21.45-.44.9-.69,1.36s-.64,1.12-1,1.69c-.09.14-.18.29-.28.43l-.53.79c-.78,1.14-1.65,2.27-2.56,3.36H61C64.55,80.75,66,73.46,64.2,73.23a4.71,4.71,0,0,0-3.26,1.44h0l.17-.35a7.37,7.37,0,0,0,.39-1,3.16,3.16,0,0,0,.15-.54.07.07,0,0,1,0,0c0-.09,0-.17,0-.25s0,0,0,0a1.21,1.21,0,0,0,0-.19,1.93,1.93,0,0,0,0-.24V72a1.43,1.43,0,0,0,0-.22c0-.11-.07-.23-.12-.35a.61.61,0,0,1-.05-.12c0-.09-.07-.18-.12-.27l-.07-.15c-.05-.09-.09-.17-.13-.26l-.1-.18-.15-.26L60.78,70l-.17-.28-.13-.2-.19-.29-.14-.2-.21-.31-.15-.2-.24-.33L59.4,68l-.25-.34-.16-.2-.27-.35-.16-.2-.29-.37a.81.81,0,0,0-.09-.1l-.07-.09-.31-.39-.14-.16-.34-.41-.09-.1,0-.06-.26-.3-.11-.12a1.34,1.34,0,0,0-.11-.14l-.39-.45-.09-.1c-.14-.17-.29-.34-.44-.5l0-.05c-.72-.81-1.42-1.59-2.07-2.29l-.11-.11L53.41,61h0l0,0h0c-.43-.45-.81-.87-1.16-1.23l0,0-.31-.32a.23.23,0,0,0-.07-.07L51.59,59a.3.3,0,0,0-.08-.08l-.1-.11h0l-.09-.09-.06-.06-.16-.16L51,58.45l-.1-.11-.08-.08,0,0-.09-.09s0,0,0,0c-.17-.39-.33-.77-.47-1.12l0,0a4.17,4.17,0,0,1-.13-.42l0-.06c0-.14-.07-.29-.11-.45s0,0,0,0-.07-.33-.11-.51,0-.07,0-.11-.06-.34-.08-.52a.09.09,0,0,1,0-.05c0-.2,0-.39-.07-.59h0s0-.1,0-.14c0-.2,0-.41,0-.62h0a0,0,0,0,0,0,0V53.2c0-.16,0-.32,0-.49v-.16c0-.12,0-.24,0-.36l0-.36.09-.66.1-.58a9.65,9.65,0,0,1,.24-1,18.63,18.63,0,0,0,.52,4.58,11.56,11.56,0,0,0,.57,1.65,8.46,8.46,0,0,0,.72,1.25c.42.61,1,1.33,1.59,2.09l.23.27c.06.06.11.13.16.19,3.61,4.23,9.49,9.54,10.71,7.76C66.24,65,58.14,51.62,58,51.43l.16,0h0l.45.6.08.1.37.5.13.17c.11.16.23.31.35.47l.11.16.44.6,0,0,.44.59,0,.06.1.14.37.51.14.2.34.48.14.19.42.59,0,.07c.15.23.31.45.47.68l.1.15.36.52.15.21.32.48.15.21.12.18.27.42.06.08.44.67.12.18c.11.16.21.33.32.5l.15.22c.09.16.19.31.29.47l.14.22.36.57,0,.09c.14.22.27.44.4.66l.12.19c.09.15.18.31.28.46l.13.23a1.74,1.74,0,0,0,.11.18c0,.09.09.17.14.26l.12.21.24.42.08.14,0,.07.34.62.09.19.23.43a2.12,2.12,0,0,0,.11.21c.07.14.13.27.2.4a1.24,1.24,0,0,0,.1.2l0,.08.21.44,0,.06c.09.19.17.38.25.56a1.22,1.22,0,0,1,.07.17c.06.13.11.26.16.38s0,.13.08.19l.14.36.06.17c.06.16.11.32.16.48v0c0,.16.1.32.14.48a.57.57,0,0,1,0,.14c0,.11.06.22.08.32l0,.16a.8.8,0,0,1,0,.15l0,.15a.59.59,0,0,1,0,.13c0,.14,0,.28.05.41A6.24,6.24,0,0,1,70.34,73.87Z"/><path class="cls-11" d="M63,74.26s-.15,0-.38.14a2.27,2.27,0,0,0-.81.62,19.94,19.94,0,0,0-1.59,2.75c-.57,1-1.17,2-1.65,2.78s-.82,1.22-.82,1.22a32.69,32.69,0,0,1-3.06,3.59c-.15.16-.31.31-.47.46h-.49q.34-.34.69-.72a35.59,35.59,0,0,0,2.89-3.64s.35-.46.84-1.18,1.13-1.7,1.73-2.69l.88-1.48a6,6,0,0,1,.9-1.23,2.1,2.1,0,0,1,.92-.58A.85.85,0,0,1,63,74.26Z"/><path class="cls-11" d="M51.18,50.78A18.65,18.65,0,0,0,51,52.84c0,1,.07,2.09,0,2.1a6.42,6.42,0,0,1-.38-2.09,15.34,15.34,0,0,1,0-2.13,15.8,15.8,0,0,1,.46-2.08,6.41,6.41,0,0,1,.85-2c.07,0-.27,1-.48,2A18.87,18.87,0,0,0,51.18,50.78Z"/><path class="cls-7" d="M54.78,50c-.05,1.28-.16,2.57-.28,3.85q-.27,2.89-.62,5.79c-.06.54-.13,1.08-.2,1.63-.54,4.37-1.16,8.73-1.79,13.09-.3,2-.6,4.09-.91,6.14-.11.74-.22,1.49-.34,2.23a5.76,5.76,0,0,1-1,3.11H28.75c-1.05-.75-.6-2.43-.66-3.72-.08-1.6-.24-3.2-.46-4.79q-.16-1.2-.36-2.4c-.16-1-.34-2-.54-3.07-.16-.84-.34-1.67-.52-2.5-.14-.66-.29-1.32-.46-2s-.32-1.32-.5-2q-.51-2-1.11-3.9c0-.12-.07-.25-.11-.37-.17-.66-.33-1.41-.47-2.2-.06-.38-.13-.77-.18-1.17-.2-1.38-.36-2.86-.48-4.3-.36-4.31-.42-8.34-.42-8.66v0c2.38-1.59,8.58-2.87,11.36-3.39l.75-.13.64-.11H36.9c1.83,0,4,.05,6.12.26h.28l.59.06h0l.46.07c3.25.44,6.37,1.33,8.34,3.14A6.41,6.41,0,0,1,54.78,50Z"/><path class="cls-10" d="M54.78,50c-.05,1.28-.16,2.57-.28,3.85q-.27,2.89-.62,5.79c-.06.54-.13,1.08-.2,1.63-.54,4.37-1.16,8.73-1.79,13.09-.3,2-.6,4.09-.91,6.14-.11.74-.22,1.49-.34,2.23a5.76,5.76,0,0,1-1,3.11H28.75c-1.05-.75-.6-2.43-.66-3.72-.08-1.6-.24-3.2-.46-4.79q-.16-1.2-.36-2.4c-.16-1-.34-2-.54-3.07-.16-.84-.34-1.67-.52-2.5-.14-.66-.29-1.32-.46-2s-.32-1.32-.5-2q-.51-2-1.11-3.9c0-.12-.07-.25-.11-.37-.17-.66-.33-1.41-.47-2.2-.06-.38-.13-.77-.18-1.17-.2-1.38-.36-2.86-.48-4.3-.36-4.31-.42-8.34-.42-8.66v0c2.38-1.59,8.58-2.87,11.36-3.39l.75-.13.64-.11H36.9c1.83,0,4,.05,6.12.26h.28l.59.06h0l.46.07c3.25.44,6.37,1.33,8.34,3.14A6.41,6.41,0,0,1,54.78,50Z"/><path class="cls-10" d="M51.27,78.47c-.1.67-.2,1.34-.29,2s-.22,1.49-.34,2.23a5.76,5.76,0,0,1-1,3.11H28.75c-1.05-.75-.6-2.43-.66-3.72-.08-1.6-.24-3.2-.46-4.79q-.16-1.2-.36-2.4c-.16-1-.34-2-.54-3.07-.16-.84-.34-1.67-.52-2.5-.15-.66-.3-1.32-.46-2s-.33-1.32-.5-2q-.51-2-1.11-3.9a8.7,8.7,0,0,1-.58-2.57,5.85,5.85,0,0,1,.06-1.28h0a4.92,4.92,0,0,1,1.49-2.86c.12-.12.23-.21.32-.29a2.49,2.49,0,0,1,.27-.18s0,.5.05,1.28h0v0c0,.19,0,.42.05.65.47,6.08,2.63,24,9,27.07.31.15.63.29.94.41a15.19,15.19,0,0,0,2.76.88h0l.52.11h0c.27,0,.54.1.81.13h0c.22,0,.43,0,.65.06a.78.78,0,0,0,.22,0,1.51,1.51,0,0,0,.3,0,1.41,1.41,0,0,0,.29,0h0a10.14,10.14,0,0,0,3.4-.48h0a9.14,9.14,0,0,0,2.29-1.06A11.7,11.7,0,0,0,51.27,78.47Z"/><path class="cls-10" d="M33.63,47.56v0Z"/><path class="cls-12" d="M40.79,83c0-.29,0-.62,0-.95s0-.94,0-1.3a2.39,2.39,0,0,0,0-.59,4.8,4.8,0,0,0-.05.59c0,.36,0,.83-.06,1.3s0,.67,0,1c0,.53,0,.92,0,.92s0,.28,0,.68V85c0,.21,0,.44,0,.67v.18h.19v-.14a2.72,2.72,0,0,0,0-.28c0-.14,0-.28,0-.41s0-.27,0-.38h0c0-.39,0-.66,0-.66S40.8,83.54,40.79,83Z"/><path class="cls-10" d="M43.72,76.68v0c0-.36-.08-.72-.13-1.09-.16-1.19-.32-2.39-.44-3.59-.37-3.66-1.87-15.32-2.48-20h0c-.14-1.1-.23-1.82-.25-1.95a2.82,2.82,0,0,0,1.21-1.21,4.09,4.09,0,0,0,.43-1.44h0a.45.45,0,0,0,0-.08,13,13,0,0,0-1-1.45c-.1-.13-.21-.25-.32-.37a4.6,4.6,0,0,0-.39-.38,2.36,2.36,0,0,0-.48-.34.93.93,0,0,0-.5-.11,1.31,1.31,0,0,0-.27.06s0,0,0,0l-.07,0h0a4,4,0,0,0-2.33,2.72.76.76,0,0,0,0,.26,9,9,0,0,0,.82,1.21h0c.15.18.32.37.5.55a3.15,3.15,0,0,0,.83.59c-1.1,6.81-2,13.67-2.56,20.54-.37,4.7-.85,8.87,1.67,12.72a13,13,0,0,0,1,1.32h0l0,.07.05.06h0c.27.33.56.65.84,1l.06.06h.43l.06-.06.09-.11h0s0,0,0,0l.19-.24c.11-.13.21-.26.31-.4s.2-.27.3-.41h0a16.46,16.46,0,0,0,1-1.67,13.75,13.75,0,0,0,1-2.16A8.77,8.77,0,0,0,43.72,76.68Z"/><path class="cls-13" d="M44.09,75.33,44,74.85h0c-.14-1-.28-2.07-.38-3.11-.29-2.84-1.26-10.55-2-16q-.06-.48-.12-.93c-.08-.61-.15-1.18-.22-1.7,0-.36-.09-.7-.13-1-.07-.59-.13-1.08-.18-1.46,0-.1,0-.2,0-.29l0-.24q0-.15,0-.24s0-.05,0-.07l.23-.13a1.82,1.82,0,0,0,.38-.29,2.86,2.86,0,0,0,.64-.88h0a4,4,0,0,0,.23-.62,3.22,3.22,0,0,0,.11-.49,1.67,1.67,0,0,0,0-.31s-.2-.35-.5-.79L42,46.19A6.44,6.44,0,0,0,40.7,44.7h0l-.07,0h0a1.45,1.45,0,0,0-.39-.2l-.12,0a.38.38,0,0,0-.21,0,1.23,1.23,0,0,0-.25,0h0s0,0,0,0,0,0,0,0a0,0,0,0,1,0,0,2.78,2.78,0,0,0-.3.15h0l-.16.09-.05,0h0a3.28,3.28,0,0,0-.44.32l-.21.18-.16.16a3.45,3.45,0,0,0-.26.28,3.29,3.29,0,0,0-.61,1,.53.53,0,0,0-.06.14,0,0,0,0,0,0,0,.83.83,0,0,0-.06.21,1.15,1.15,0,0,0,0,.45s.05.1.16.27a9.25,9.25,0,0,0,.61.87h0l0,0,.33.38.07.07a3.7,3.7,0,0,0,1,.73c-1.1,6.81-2,13.67-2.55,20.54a54.63,54.63,0,0,0-.28,6c0,.56.06,1.12.13,1.66,0,.28.08.55.13.82s.09.43.14.65.08.32.13.48.11.38.18.58a3.75,3.75,0,0,0,.16.43c0,.15.12.3.19.46s.21.46.33.69.24.43.37.64.19.31.29.46.13.19.19.28c.23.32.48.64.76,1l.13.15.24.28.53.6a.57.57,0,0,0,.14.13s0,0,0,0a.05.05,0,0,0,0,0l.08,0h.05a.3.3,0,0,0,.11-.06.52.52,0,0,0,.1-.11,6.25,6.25,0,0,0,.4-.5h0c.06-.08.13-.16.18-.24l.14-.18h0s0,0,0,0,.15-.2.22-.31c.21-.29.4-.59.59-.9l.25-.44c.11-.19.22-.39.32-.59s.2-.4.29-.6a12.21,12.21,0,0,0,.5-1.2A10.5,10.5,0,0,0,44.09,75.33Z"/><path class="cls-14" d="M44.09,75.33,44,74.84c-.49,4.51-2.6,7.86-5,3-2.43-5,.26-26.55.92-26.94.45-.27,1.23,2.8,1.69,4.77-.42-3.22-.73-5.67-.77-5.92a2.84,2.84,0,0,0,1.26-1.32c-.39.3-1.71,1.2-2.71.37-1.18-1-.19-3.95-.06-4.14l-.82.36a3.24,3.24,0,0,0-1.4,2.42,6.34,6.34,0,0,0,2.16,2.36c-1.1,6.8-2,13.67-2.56,20.54-.41,5.27-1,9.87,2.72,14.11l.9,1c.08.09.17.19.28.18a.4.4,0,0,0,.27-.17,16.66,16.66,0,0,0,2.9-5A10.38,10.38,0,0,0,44.09,75.33Z"/><path class="cls-15" d="M41.74,62.21s-1.06-8.84-1.21-8.84.67,8.9.67,8.9,1.07,8.84,1.21,8.84S41.74,62.21,41.74,62.21ZM43,74.53s-.06-.6-.17-1.2a3.62,3.62,0,0,0-.31-1.19,3.84,3.84,0,0,0-.07,1.22c0,.6,0,1.21,0,1.21s.07.6.13,1.2a3.82,3.82,0,0,0,.21,1.2A3.49,3.49,0,0,0,43,75.76C43,75.15,43,74.53,43,74.53ZM41.3,47.48a1.82,1.82,0,0,0-.35-.74c-.25-.33-.64-.47-.67-.41s.23.31.35.61a1.76,1.76,0,0,1,.13.62,1.87,1.87,0,0,1,0,.63c0,.33-.22.63-.17.68s.39-.18.54-.58A2,2,0,0,0,41.3,47.48Z"/><g class="cls-8"><path class="cls-9" d="M46.41,44c.43,1,1.72,1.67,2.41,2.49s1.5,2,2.18,3a.24.24,0,0,0,.44-.06A4.21,4.21,0,0,0,50.49,45c-.84-1-2.56-2.29-3.92-1.65a.46.46,0,0,0-.16.61Z"/></g><g class="cls-8"><path class="cls-9" d="M32.37,85.82H30.82l-.05,0a2.62,2.62,0,0,1-.64-.48,5.39,5.39,0,0,1-1.4-4.39.32.32,0,0,1,.59-.08,13.89,13.89,0,0,0,1.08,2.79,7,7,0,0,0,1.54,1.43h0l0,0,.34.28A.35.35,0,0,1,32.37,85.82Z"/></g><g class="cls-8"><path class="cls-9" d="M50,82.12a4.45,4.45,0,0,1-1,2.68l-.06.09a5.84,5.84,0,0,1-.93.93H46a11,11,0,0,0,1.91-1.25l.06-.06s0,0,0,0a3,3,0,0,0,.35-.37,13.9,13.9,0,0,0,1.38-2.08A.14.14,0,0,1,50,82.12Z"/></g><g class="cls-16"><path class="cls-9" d="M52.82,66.72a2.08,2.08,0,0,1,0-.41c0-.26.07-.63.12-1.08.1-.89.22-2.08.33-3.28.22-2.38.3-4.78.3-4.78s.12-2.39,0-4.78c0-1.2-.11-2.4-.2-3.29,0-.45-.08-.82-.1-1.08a2.51,2.51,0,0,1,0-.41,1.78,1.78,0,0,1,.08.4c0,.26.1.63.15,1.08.11.89.21,2.09.28,3.29.12,2.4,0,4.8,0,4.8s-.11,2.4-.38,4.79c-.13,1.19-.28,2.38-.42,3.27-.06.45-.12.82-.17,1.08A1.78,1.78,0,0,1,52.82,66.72Z"/></g><path class="cls-17" d="M48.71,85.82h-.65A.77.77,0,0,1,48.71,85.82Z"/><path class="cls-9" d="M44.87,54.39l7.48-.28s-.58,8.34-4,7.62S44.87,54.39,44.87,54.39Z"/><path class="cls-17" d="M35.12,38.68l.21,4.2s2.78,3.16,7.91.53L43,38.68S37,36.23,35.12,38.68Z"/><path class="cls-18" d="M43.17,41.86c-4.59,4.5-8.25-3.4-6-1.92,1.88,1.25,5,0,5.92-.44v-.16l0-.51a.55.55,0,0,0-.19-.22,17.27,17.27,0,0,0-1.72-.55c-.88-.15-1.92-.26-2.81-.46a5.78,5.78,0,0,0-.93,0h0l-.41.06h0a2.73,2.73,0,0,0-.41.1h0l-.32.12-.07,0a2.68,2.68,0,0,0-.33.18l0,0a2.43,2.43,0,0,0-.25.2l-.08.06a2.16,2.16,0,0,0-.25.27h0l.21,4.2s2.78,3.16,7.91.53Z"/><path class="cls-17" d="M52.22,20.56a2.11,2.11,0,0,1,2.91-.65c2,1.3,1,8.11-1.7,8S51.75,20.42,52.22,20.56Z"/><path class="cls-18" d="M52.22,20.56a2.11,2.11,0,0,1,2.91-.65c2,1.3,1,8.11-1.7,8S51.75,20.42,52.22,20.56Z"/><path class="cls-19" d="M54.69,25.89c0-.05-.2,0-.44-.06a.44.44,0,0,1-.28-.24.63.63,0,0,1,0-.45.82.82,0,0,1,.25-.38c.1-.1.23-.13.41-.28a.79.79,0,0,0,.26-.69c0-.19-.09-.27-.08-.27a2,2,0,0,0-.15-.21,1.09,1.09,0,0,0-.25-.2l-.2-.09h0s0,0,0,0,0-.07,0-.12l0-.18a2.2,2.2,0,0,1,.28-.72c.26-.46.66-.63.64-.7s-.47,0-.87.44a2.47,2.47,0,0,0-.47.84,1.12,1.12,0,0,0-.06.23.89.89,0,0,0,0,.26c0,.22,0,.43,0,.59a1.59,1.59,0,0,1,.39,0l.09,0a.56.56,0,0,1,.11.11.46.46,0,0,1,.06.1s0,0,0,0-.23.17-.39.36a1.4,1.4,0,0,0-.36.73,1.13,1.13,0,0,0,.16.8.59.59,0,0,0,.51.25C54.53,26.09,54.7,25.93,54.69,25.89Z"/><path class="cls-20" d="M53.43,27.93c-2.69-.08-1.68-7.51-1.21-7.37a2.55,2.55,0,0,1,1.52-1,4.8,4.8,0,0,0,.19,2.76s.7-1.12,1.08-.75-.2,2.18.61,2.35c.25.06.41-.14.52-.44C56,25.67,55,28,53.43,27.93Z"/><g class="cls-21"><path class="cls-22" d="M55.92,21.42c.12.38.07.76-.11.85s-.41-.15-.52-.53-.06-.76.11-.85S55.81,21,55.92,21.42Z"/><path class="cls-22" d="M55.23,20.32a.28.28,0,0,1-.13.34.19.19,0,0,1-.29-.09.32.32,0,0,1,.13-.35A.19.19,0,0,1,55.23,20.32Z"/></g><path class="cls-17" d="M22.26,20.76c-.21-6.09,2.31-16,15.13-16.06S52.24,18.75,52.24,18.75a39,39,0,0,1,1.19,9.18c-.16,4-2.22,9.89-11.46,10.84s-16.35-2.93-18-8.61a4.72,4.72,0,0,1-4.35-3.8C19,23.74,20.39,21.08,22.26,20.76Z"/><g class="cls-16"><path class="cls-18" d="M22.26,20.76A19.75,19.75,0,0,1,23,14.63a16,16,0,0,1,2.09-4.38C23.25,13.36,22.93,18,23,20.86a7.65,7.65,0,0,1-.81-.09Z"/><path class="cls-18" d="M20.58,21.8a5.41,5.41,0,0,0-.38,3.65,4.73,4.73,0,0,0,4.35,3.81c1.67,5.67,8.78,9.55,18,8.6,4.87-.49,7.74-2.37,9.4-4.62-1.53,2.64-4.48,5-10,5.53-9.24.95-16.35-2.93-18-8.61a4.72,4.72,0,0,1-4.35-3.8A5.23,5.23,0,0,1,20.58,21.8Z"/></g><path class="cls-19" d="M21.6,27.77a.87.87,0,0,0,.37.76.67.67,0,0,0,.38.13.6.6,0,0,0,.47-.22,1.1,1.1,0,0,0,.28-.57.77.77,0,0,0-.2-.69,1.72,1.72,0,0,0-.39-.26.65.65,0,0,1-.19-.24.8.8,0,0,1-.05-.56.4.4,0,0,1,.28-.3l.11,0h.13l.06,0,0,0L23,26a.49.49,0,0,0,.4.27.33.33,0,0,0,.23-.11.47.47,0,0,0,.14-.26,3.13,3.13,0,0,0,.07-.79,5.21,5.21,0,0,0,0-.55,3.35,3.35,0,0,0-.29-1,1.79,1.79,0,0,0-.53-.65c-.4-.28-.72-.2-.72-.15s.28.09.56.4a2.26,2.26,0,0,1,.53,1.51c0,.16,0,.32,0,.48s0,.12,0,.16-.06,0-.06,0h0l-.08-.07a.76.76,0,0,0-.18-.09.8.8,0,0,0-.31-.06.85.85,0,0,0-.53.2,1.2,1.2,0,0,0-.44.74,1.55,1.55,0,0,0,.17,1.11,1.15,1.15,0,0,0,.39.4,2.49,2.49,0,0,1,.35.16.2.2,0,0,1,.08.19.58.58,0,0,1-.11.31.38.38,0,0,1-.5.12C21.76,28.08,21.64,27.74,21.6,27.77Z"/><path class="cls-22" d="M21,22.9c-.27.27-.58.35-.69.18s0-.53.28-.8.58-.35.69-.18S21.29,22.63,21,22.9Z"/><path class="cls-22" d="M22,21.58a.28.28,0,0,1-.13.34.19.19,0,0,1-.29-.09.32.32,0,0,1,.13-.35A.19.19,0,0,1,22,21.58Z"/><path class="cls-18" d="M39.56,28.25a4.94,4.94,0,0,0,3.84-1.2s1.12.66-.8,1.47C40.06,29.59,39.56,28.25,39.56,28.25Z"/><path class="cls-19" d="M40.68,28.76a7.57,7.57,0,0,0,.82,0,4.86,4.86,0,0,0,1.64-.62,1,1,0,0,0,.51-.59.49.49,0,0,0-.25-.49,1.2,1.2,0,0,0-.45-.18l-.2,0a2,2,0,0,0-.46,0,2.61,2.61,0,0,0-.54.1l-.33.13c-.2.11-.46.31-.69.47l0-.9V25a4.91,4.91,0,0,1,.08-1.22A5.58,5.58,0,0,1,41,25c0,.34.07.73.11,1.1,0,.19,0,.37,0,.55a.16.16,0,0,0,0,.08l.07-.05a2.58,2.58,0,0,1,.38-.18,3.57,3.57,0,0,1,.65-.16,2.37,2.37,0,0,1,.56,0,1.19,1.19,0,0,1,.26,0,2,2,0,0,1,.64.3,1.33,1.33,0,0,1,.33.4.91.91,0,0,1,0,.59,1.36,1.36,0,0,1-.75.82,4.39,4.39,0,0,1-1.82.5A1.28,1.28,0,0,1,40.68,28.76Z"/><path class="cls-23" d="M42.38,27.19c0,.12-.12.31-.38.43s-.51.11-.57,0,.12-.32.38-.43S42.32,27.07,42.38,27.19Z"/><path class="cls-18" d="M35.77,26.71a4.12,4.12,0,0,0-1.65-.53,6.36,6.36,0,0,0-.88,0,4.7,4.7,0,0,0-1.39.26l-.07,0-.31.12a2.24,2.24,0,0,0-1.58,2,1.41,1.41,0,0,0,.16.6s0,0,0,0a2,2,0,0,0,.52.62,3.53,3.53,0,0,0,1.46.68,5.18,5.18,0,0,0,.59.1,7.36,7.36,0,0,0,.82,0,6.05,6.05,0,0,0,1-.14c1.42-.34,2.42-1.23,2.37-2.23A1.9,1.9,0,0,0,35.77,26.71Zm17-.71a1.81,1.81,0,0,0-1.12-1.21,1.49,1.49,0,0,0-.37-.14,2.4,2.4,0,0,0-.48-.11,2.33,2.33,0,0,0-.38,0,3.91,3.91,0,0,0-.9,0c-.19,0-.38.06-.58.1a4.75,4.75,0,0,0-1.89.9,2.11,2.11,0,0,0-1,2,1.55,1.55,0,0,0,.26.55,2.74,2.74,0,0,0,2,.94A5.13,5.13,0,0,0,50,28.93l.22-.06a4.14,4.14,0,0,0,2.27-1.45A1.72,1.72,0,0,0,52.79,26Z"/><path class="cls-18" d="M28.17,11.72C38.49,19.67,50.4,14,50.4,14a15.12,15.12,0,0,1,1.65,3.77C51.34,14.6,48.23,4.62,37.39,4.7c-12.82.09-15.34,10-15.13,16.06a2.51,2.51,0,0,0-.93.38,4.72,4.72,0,0,0,.82.66c2.05.93,1.78,4.61,3,3.66s.4-4.71.4-4.71C27.77,18.73,28.17,11.72,28.17,11.72Z"/><path class="cls-24" d="M21.72,20.79a7.34,7.34,0,0,1-3.08-6.37c.11-5.37,3.3-7.71,7.8-7.6,0,0,4.55-6.95,11.3-6.82S46.4,5.77,49.05,5.37,52.49,4.1,52.49,4.1s.13,2.83-1.19,3.77a11.42,11.42,0,0,0,2.91-1.21,10.06,10.06,0,0,1-1.32,5.66s1.58,3.1.79,5.26a18.25,18.25,0,0,0-.93,3.09S51.3,14.75,50,13c0,0-11.92,5.66-22.24-2.29,0,0-.39,7-2.64,9,0,0,.79,3.77-.4,4.72S23.78,21.71,21.72,20.79Z"/><path class="cls-24" d="M32.9,18.45c0,.1-.42,0-.75.09a1.65,1.65,0,0,0-.58.21A1.78,1.78,0,0,0,31,19c-.28.17-.5.48-.61.44s-.07-.47.2-.84a2.36,2.36,0,0,1,.44-.45,1.67,1.67,0,0,1,.25-.15,1.38,1.38,0,0,1,.29-.06,1.91,1.91,0,0,1,.62,0C32.63,18.06,33,18.36,32.9,18.45Z"/><path class="cls-24" d="M48.52,17.27c-.07.08-.42-.11-.74-.22a1.58,1.58,0,0,0-.62-.11.39.39,0,0,0-.15,0,1,1,0,0,0-.39,0,1.15,1.15,0,0,0-.39.17c-.1.07-.17.14-.23.13s-.08-.13,0-.3a1,1,0,0,1,.39-.51,1.49,1.49,0,0,1,.61-.25,1.42,1.42,0,0,1,.31,0,2,2,0,0,1,.28.1,2.15,2.15,0,0,1,.52.33C48.4,16.84,48.6,17.19,48.52,17.27Z"/><path class="cls-25" d="M24.73,8a2,2,0,0,0-.76.15,4.15,4.15,0,0,0-1,.52,4.5,4.5,0,0,0-.79.8,2.7,2.7,0,0,0-.5,1s.3-.48.65-.87a5.46,5.46,0,0,1,.8-.71A4.7,4.7,0,0,1,24,8.3a2.48,2.48,0,0,1,.7-.23,1.74,1.74,0,0,0,.33,0A.67.67,0,0,0,24.73,8Zm.9.66a5.39,5.39,0,0,0-1.33.93,7.35,7.35,0,0,0-1,1.24,6.46,6.46,0,0,0-.37.64h0s0,0,0,.06a.54.54,0,0,0-.06.11c-.05.12-.12.29-.2.5a7.81,7.81,0,0,0-.39,1.57v0a.34.34,0,0,0,0,.1,5.61,5.61,0,0,0,0,1.48,3.2,3.2,0,0,0,.1.52.51.51,0,0,0,.05.2,5.43,5.43,0,0,0,0-.73,6.73,6.73,0,0,1,.09-1.57,2,2,0,0,1,.08-.35,6.43,6.43,0,0,1,.35-1.16l.21-.48.09-.17s.12-.26.34-.63a7.51,7.51,0,0,1,1-1.23,5.1,5.1,0,0,1,1.23-1,2.87,2.87,0,0,1,.68-.23A1.28,1.28,0,0,0,25.63,8.63Zm1,1.12a3.31,3.31,0,0,0-.43.47,2.92,2.92,0,0,0-.25.57,1.08,1.08,0,0,0-.07.62s.11-.28.25-.55a3.8,3.8,0,0,1,.3-.49,2.76,2.76,0,0,1,.34-.48,5.07,5.07,0,0,0,.4-.45A1.26,1.26,0,0,0,26.61,9.75Zm8.2-8.06a13.39,13.39,0,0,0-1.65.53A12.15,12.15,0,0,0,31.6,3c-.42.24-.68.42-.68.42s-.26.18-.62.48a8,8,0,0,0-1.22,1.24,5.9,5.9,0,0,0-.42.6,5.3,5.3,0,0,0-.49.87,4.06,4.06,0,0,0-.21.53.65.65,0,0,0-.05.21s.13-.29.35-.69A7.28,7.28,0,0,1,29,5.49a1.93,1.93,0,0,1,.22-.28,9.28,9.28,0,0,1,1.85-1.62s.25-.18.64-.42a14.11,14.11,0,0,1,1.52-.78c.57-.24,1.15-.45,1.6-.6a7.45,7.45,0,0,0,.73-.26A3.62,3.62,0,0,0,34.81,1.69ZM30.3,6.47a3.65,3.65,0,0,0-.61.33,3,3,0,0,0-.45.52,1.33,1.33,0,0,0-.27.62c.05,0,.21-.28.42-.5A4.05,4.05,0,0,1,29.86,7a3.65,3.65,0,0,1,.52-.37,5.67,5.67,0,0,0,.58-.3A1.37,1.37,0,0,0,30.3,6.47ZM42,12.71a18.69,18.69,0,0,1-2.41.16,17.43,17.43,0,0,1-2.4-.21c-.33-.05-.59-.12-.78-.15l-.3-.06-.29-.07c-.19-.05-.46-.1-.77-.19a19.59,19.59,0,0,1-2.27-.82c-.32-.15-.65-.31-.95-.47l-.2-.11-.11-.06a2.26,2.26,0,0,0-.26-.16h0l-.56-.35a9.76,9.76,0,0,0-.92-.59l.22.19c.15.12.36.3.64.49h0a15.67,15.67,0,0,0,2.08,1.23,15.82,15.82,0,0,0,2.28.88c.32.11.59.16.78.22l.29.08.3,0c.2,0,.47.1.8.13a17.3,17.3,0,0,0,2.44.16A15.84,15.84,0,0,0,42,12.81c.33-.05.6-.13.79-.17a1.06,1.06,0,0,0,.28-.09C43,12.55,42.6,12.63,42,12.71ZM52,4.44l-.23.31a4.55,4.55,0,0,1-1.12,1,5.4,5.4,0,0,1-1.36.6,6,6,0,0,1-.65.15s-.27,0-.67.09a8.14,8.14,0,0,1-1.5,0c-.54,0-1.09-.11-1.49-.18a3.48,3.48,0,0,0-.69-.09A3.71,3.71,0,0,0,45,6.5a11.39,11.39,0,0,0,1.5.27,9,9,0,0,0,1.53,0,4.49,4.49,0,0,0,.69-.08,4.76,4.76,0,0,0,.69-.17,5.48,5.48,0,0,0,1.38-.68,4,4,0,0,0,1.1-1.07,2.87,2.87,0,0,0,.26-.43.49.49,0,0,0,.06-.17A1.58,1.58,0,0,0,52,4.44Zm-.16,1.31A8.71,8.71,0,0,1,51,7.3a4,4,0,0,1-2,1.48,5.41,5.41,0,0,1-.76.23l-.49.1h0c-.38.06-.81.11-1.25.14s-.85.05-1.23.05h-.54c-.48,0-.81,0-.81,0a3.42,3.42,0,0,0,.8.12A11.7,11.7,0,0,0,46,9.45h.53a12.14,12.14,0,0,0,1.43-.12h0l.35-.06A5.46,5.46,0,0,0,49.1,9a4.71,4.71,0,0,0,.75-.36,4.22,4.22,0,0,0,1.3-1.27,8,8,0,0,0,.79-1.62A4.68,4.68,0,0,0,52.19,5S52.05,5.33,51.84,5.75Zm-10.53-2-.64-.47L40,2.89a6.14,6.14,0,0,0-.67-.43s.25.32.55.58.63.51.63.51.33.21.69.4a2.36,2.36,0,0,0,.73.32A4.16,4.16,0,0,0,41.31,3.79Zm12,4.28a7.5,7.5,0,0,1-1,1.2,12.28,12.28,0,0,1-1.82,1.41s-.42.3-1,.66c-.29.17-.62.36-1,.54-.51.27-1,.5-1.44.67a6.21,6.21,0,0,0-.66.29,4.43,4.43,0,0,0,.7-.19,14,14,0,0,0,1.48-.6c.35-.16.7-.34,1-.51.61-.35,1-.64,1-.64s.24-.16.59-.43a9.84,9.84,0,0,0,1.21-1.06,6.43,6.43,0,0,0,1-1.28,2.68,2.68,0,0,0,.3-.67S53.52,7.72,53.28,8.07Zm-.34,3.11c-.18.26-.36.5-.51.68l-.24.3s-.1.12-.26.28a2.67,2.67,0,0,1-.64.52,2,2,0,0,1-.77.29h0c-.15,0-.25,0-.31,0h0s0,0,0,0l.06,0a1.31,1.31,0,0,0,.34,0,2.13,2.13,0,0,0,.85-.23,3.1,3.1,0,0,0,.73-.51,3.74,3.74,0,0,0,.28-.29s.1-.12.24-.32a7.84,7.84,0,0,0,.47-.73,4.41,4.41,0,0,0,.52-1.15S53.29,10.67,52.94,11.18ZM27.63,10.6c0-.28-.05-.51-.06-.67a.79.79,0,0,0-.05-.25s0,.37,0,.93,0,.94-.08,1.49l-.06.52a16.24,16.24,0,0,1-.42,2c-.07.27-.15.48-.2.64s-.07.24-.07.24l-.09.23h0c-.05.15-.12.37-.23.62a15.1,15.1,0,0,1-.86,1.82,14.6,14.6,0,0,1-1.08,1.64l0,.05a7.13,7.13,0,0,0-.54.73A1.27,1.27,0,0,0,24,20.4a6.66,6.66,0,0,0,.45-.5l.08-.09a13.82,13.82,0,0,0,1.12-1.56,14.23,14.23,0,0,0,.92-1.83c.12-.25.19-.48.25-.63l.09-.24.08-.24s0,0,0-.05.11-.36.16-.6a4.13,4.13,0,0,0,.1-.44,1.55,1.55,0,0,0,0-.21s0-.06,0-.09l0-.2c.07-.34.13-.71.18-1.08l0-.39a.76.76,0,0,1,0-.15v0A12.47,12.47,0,0,0,27.63,10.6Zm-6,8.81h0a8.1,8.1,0,0,1-.64-.85,7.92,7.92,0,0,1-.65-1.27,8.07,8.07,0,0,1-.44-1.36,4.42,4.42,0,0,1-.1-.6,7.66,7.66,0,0,0-.1-.83,2.16,2.16,0,0,0,0,.62v.06h0a5.4,5.4,0,0,0,.06.77,6.38,6.38,0,0,0,.22.95c.09.29.16.48.16.48a7,7,0,0,0,.75,1.28,5.89,5.89,0,0,0,.63.72,1.71,1.71,0,0,0,.4.32A1.51,1.51,0,0,0,21.67,19.41Zm2.47,1.88a6.13,6.13,0,0,1-.42-.47,3.39,3.39,0,0,1-.35-.57,3.45,3.45,0,0,1-.29-.61s0,0,0,0a1.52,1.52,0,0,1-.06-.2s0,0,0,0a3.18,3.18,0,0,0-.12-.4,1.06,1.06,0,0,0,0,.59.5.5,0,0,0,0,.12c0,.14.07.27.1.38v.08l.13.23a3.52,3.52,0,0,0,.45.57,2.21,2.21,0,0,0,.3.25h0c.15.1.26.16.27.14A.15.15,0,0,0,24.14,21.29Zm1-1.36a.63.63,0,0,0,0,.19h0a3.15,3.15,0,0,1-.07.87,2.63,2.63,0,0,1-.18.56,2.49,2.49,0,0,1-.16.35l0,.07s0,.09-.12.23-.18.27-.3.42l-.19.21a2.88,2.88,0,0,1-.57.47l-.11.07-.13.09s0,0,0,0,0,0,0,0l.16-.05.1-.05h0a2.69,2.69,0,0,0,.65-.43l.15-.13a4.22,4.22,0,0,0,.45-.55l.12-.19L25,22a2.47,2.47,0,0,0,.14-.36h0a3.12,3.12,0,0,0,.14-.6V21A1.88,1.88,0,0,0,25.17,19.93ZM53.4,13.41s0,0,0,.09a1.94,1.94,0,0,1-.06.22c-.07.18-.21.41-.33.65a5.19,5.19,0,0,1-.36.61l-.19.24v0s-.08.1-.21.23a1.74,1.74,0,0,1-.56.39.28.28,0,0,1-.12,0h0l-.14,0h0A1.33,1.33,0,0,1,51,16c-.19,0-.32-.06-.32,0s.11.1.31.15a1.29,1.29,0,0,0,.44,0h.05l.13,0h0l.13,0a1.82,1.82,0,0,0,.66-.38l.06-.06c.12-.11.19-.19.19-.19a2.15,2.15,0,0,0,.19-.29,5.92,5.92,0,0,0,.34-.67,5.47,5.47,0,0,0,.25-.7.38.38,0,0,0,0-.1h0C53.45,13.5,53.42,13.4,53.4,13.41Zm.36,2.43s-.18.32-.37.6a2.24,2.24,0,0,1-.3.35.86.86,0,0,1-.16.13.9.9,0,0,1-.16.12l-.15.09-.26.08a.93.93,0,0,1-.44,0h0l-.06,0a.1.1,0,0,1-.05,0s0,0,0,0,0,0,0,.05h0a.16.16,0,0,0,0,.08,0,0,0,0,0,0,0l.08,0h0l0,0h0a.87.87,0,0,0,.43.06,1.16,1.16,0,0,0,.28,0,1.23,1.23,0,0,0,.23-.09,1.27,1.27,0,0,0,.21-.12l.17-.17a2.46,2.46,0,0,0,.28-.43A1.56,1.56,0,0,0,53.76,15.84Z"/><path class="cls-26" d="M23.06,18.35h0c0,.35,0,.7,0,1,0,0,0,0,0,0a.11.11,0,0,0,0,.08h0v0s0,0,0,0h.06l1.36.19a14.6,14.6,0,0,0,1.08-1.64,15.1,15.1,0,0,0,.86-1.82c.11-.25.18-.47.23-.62C25.6,16.73,23.87,18.35,23.06,18.35Zm0,0h0c0,.35,0,.7,0,1,0,0,0,0,0,0a.11.11,0,0,0,0,.08h0v0s0,0,0,0h.06l1.36.19a14.6,14.6,0,0,0,1.08-1.64,15.1,15.1,0,0,0,.86-1.82c.11-.25.18-.47.23-.62C25.6,16.73,23.87,18.35,23.06,18.35Zm0,0h0c0,.35,0,.7,0,1,0,0,0,0,0,0a.11.11,0,0,0,0,.08h0v0s0,0,0,0h.06l1.36.19a14.6,14.6,0,0,0,1.08-1.64,15.1,15.1,0,0,0,.86-1.82c.11-.25.18-.47.23-.62C25.6,16.73,23.87,18.35,23.06,18.35Zm0,0h0c0,.35,0,.7,0,1,0,0,0,0,0,0a.11.11,0,0,0,0,.08h0v0s0,0,0,0h.06l1.36.19a14.6,14.6,0,0,0,1.08-1.64,15.1,15.1,0,0,0,.86-1.82c.11-.25.18-.47.23-.62C25.6,16.73,23.87,18.35,23.06,18.35Zm6.27-8a1.66,1.66,0,0,1,1.29-.08h0a3,3,0,0,1,.61.25h0a2.26,2.26,0,0,1,.26.16l.11.06c.14.09.24.17.32.23a.68.68,0,0,0-.12-.12c-.63-.63-2.44-2.63-1.07-3.82a12.23,12.23,0,0,1,3.29-2c-.27.08-.88.26-1.56.42a2.14,2.14,0,0,1-.27.09h0l-.22,0-.08,0c-.42.1-.84.19-1.21.25-.76.13-1.28.11-1.05-.25A9,9,0,0,1,30.8,4.22l.57-.56L31,4l0,0A18.13,18.13,0,0,1,29,5.49l-.35.2c-.59.29-1,.27-.77-.48,0-.11.06-.22.1-.33a16.39,16.39,0,0,0-1.56,1.93h-.34c-.24,0-.47,0-.7,0l-.22,0-.54,0-.1,0h-.06l-.58.11-.47.13L23,7.3l-.41.17a1.23,1.23,0,0,0-.26.12,1.69,1.69,0,0,0-.27.13l0,0L21.68,8l-.38.26,0,0a2.64,2.64,0,0,0-.37.31,2.79,2.79,0,0,0-.38.39l-.24.26-.21.28c.67-.44,1.66-1,1.94-.84s-1,2.8-1,2.8,1.65-1.8,2-1.44c.14.14,0,.74-.12,1.43,0,0,0,0,0,.06-.21.85-.52,1.81-.65,2.21a.59.59,0,0,0-.06.18l.05-.08.28-.45c.52-.82,1.54-2.3,2.07-2.3h0a.11.11,0,0,1,.08,0h0c.6.33.21,2.14.15,2.42C25,13.24,26,11.07,27,11.61a1,1,0,0,1,.41.49,2.84,2.84,0,0,1,.13.35s0,0,0-.06a.59.59,0,0,1,0-.14.76.76,0,0,1,0-.15v0c0-.28.06-.52.08-.72s0-.26,0-.36,0-.3,0-.3c.33.25.66.5,1,.72l.62.4c.46.3.93.56,1.39.81s.66.34,1,.49C30.35,12.15,28.61,10.79,29.33,10.38Zm-6.27,8h0c0,.35,0,.7,0,1,0,0,0,0,0,0a.11.11,0,0,0,0,.08h0v0s0,0,0,0h.06l1.36.19a14.6,14.6,0,0,0,1.08-1.64,15.1,15.1,0,0,0,.86-1.82c.11-.25.18-.47.23-.62C25.6,16.73,23.87,18.35,23.06,18.35Zm0,0h0c0,.35,0,.7,0,1,0,0,0,0,0,0a.11.11,0,0,0,0,.08h0v0s0,0,0,0h.06l1.36.19a14.6,14.6,0,0,0,1.08-1.64,15.1,15.1,0,0,0,.86-1.82c.11-.25.18-.47.23-.62C25.6,16.73,23.87,18.35,23.06,18.35Zm0,0h0c0,.35,0,.7,0,1,0,0,0,0,0,0a.11.11,0,0,0,0,.08h0v0s0,0,0,0h.06l1.36.19a14.6,14.6,0,0,0,1.08-1.64,15.1,15.1,0,0,0,.86-1.82c.11-.25.18-.47.23-.62C25.6,16.73,23.87,18.35,23.06,18.35Zm0,0h0c0,.35,0,.7,0,1,0,0,0,0,0,0a.11.11,0,0,0,0,.08h0v0s0,0,0,0h.06l1.36.19a14.6,14.6,0,0,0,1.08-1.64,15.1,15.1,0,0,0,.86-1.82c.11-.25.18-.47.23-.62C25.6,16.73,23.87,18.35,23.06,18.35Zm29.6-1c0-.07,0-.15,0-.22a11.47,11.47,0,0,1-.18-1.53c0-.13,0-.25,0-.38a4.15,4.15,0,0,1,.4-2.32,2.32,2.32,0,0,1,.22-.21c-.1-.23-.17-.37-.17-.37a10,10,0,0,0,1.33-5.66l-.36.23a6.87,6.87,0,0,1-.77.36l-.4.16-.38.14-.2.07-.32.1-.16,0-.31.09a.8.8,0,0,0,.17-.15,1.62,1.62,0,0,0,.18-.19l.15-.21a1.18,1.18,0,0,0,.11-.19s0,0,0-.06a1.47,1.47,0,0,0,.1-.22,2.09,2.09,0,0,0,.11-.3c0-.1.06-.2.09-.3s.07-.29.1-.43A7.51,7.51,0,0,0,52.46,5c0-.11,0-.21,0-.3,0-.33,0-.55,0-.55a2.53,2.53,0,0,1-.37.28L52,4.44a2.76,2.76,0,0,1-.46.24L51,4.89l-.09,0L50.54,5l-.39.1c-.33.08-.7.16-1.11.22a1.46,1.46,0,0,1-.29,0l-.22,0a1.53,1.53,0,0,1-.37-.08l-.33-.13,0,0a2.9,2.9,0,0,1-.34-.19l0,0c-.14-.09-.27-.18-.41-.29l-.2-.15-.15-.12L46.18,4l-.7-.61c.62.82,1.16,1.76.77,2.15s-1.87.48-2.81.4h0L43,5.85c.53.21,1.47.64,2.28,1.07h.05a6.08,6.08,0,0,1,1.51,1s0,.1,0,.15h0C46.25,8.52,43,9,43,9s1.06.11,2.26.34l.71.15h0c1.12.26,2.18.63,2.42,1.13.53,1.13-5.29,4.1-5.29,4.1l2.06-.22.73-.16.65-.15h0l.8-.22.45-.14.28-.09.34-.11.39-.14.11,0,.21-.08h0l.48-.19.18-.08L50,13a2.93,2.93,0,0,1,.18.26l0,0,0,0a6.68,6.68,0,0,1,.4.76c0,.09.09.18.13.27.11.25.22.51.32.79a.3.3,0,0,1,0,.1c.1.23.18.47.27.72h0l0,.14a.19.19,0,0,1,0,.08c.08.21.15.43.22.65a3,3,0,0,1,.1.32h0a.29.29,0,0,0,0,.09,0,0,0,0,0,0,0c.16.5.3,1,.43,1.44,0,0,0,0,0,.05s0,0,0,.05h0a.13.13,0,0,1,0,.06.49.49,0,0,1,0,.11c0,.14.07.28.11.41s0,0,0,0,.1.24.14.35.09.22.12.31a1.71,1.71,0,0,1,.09.22.41.41,0,0,1,0,.08h0s0,0,0-.07a.43.43,0,0,0,0,0c0-.1.05-.21.09-.33v0h0s0-.1,0-.15l.1-.35c.08-.27.18-.59.31-1a.53.53,0,0,1-.39-.18A2.6,2.6,0,0,1,52.66,17.35ZM27,15.26l-.44.44h0c-1,1-2.73,2.64-3.54,2.64h0a1.47,1.47,0,0,1-.69-.27,12.53,12.53,0,0,1-2.51-2.76l-.15-.21,0,0,0,.11h0A7.79,7.79,0,0,1,20,16.9c0,.34-.09.57-.31.53-.45-.07-.79-1.35-1-2.34h0c0,.17,0,.34,0,.5a2.54,2.54,0,0,0,0,.29c0,.13,0,.27.07.39l.06.26c0,.15.07.28.11.42a.88.88,0,0,0,.05.15,4.09,4.09,0,0,0,.18.49c0,.09.07.18.11.27l.12.25a5,5,0,0,0,.25.46l0,.06L20,19l.21.29a7.06,7.06,0,0,0,1.26,1.27,2,2,0,0,0,.28.2l.14.08s0,0,0,0A.51.51,0,0,1,22,21h0a3.28,3.28,0,0,1,.48.43h0a4.14,4.14,0,0,1,.34.48,0,0,0,0,1,0,0,2,2,0,0,1,.18.32c.06.12.12.24.17.36s.19.48.28.7h0l0,.09a6.88,6.88,0,0,0,.27.68l.09.17h0v0h0a0,0,0,0,1,0,0l.12.14a.48.48,0,0,0,.11.09h0a.27.27,0,0,0,.12,0l.13,0a.55.55,0,0,0,.15-.08l.07,0A1.23,1.23,0,0,0,25,24l.09-.22a2.58,2.58,0,0,0,.12-.42,1.86,1.86,0,0,0,.05-.27l0-.29c0-.1,0-.2,0-.3h0c0-.13,0-.25,0-.38h0c0-.13,0-.26,0-.4v0l0-.39c0-.07,0-.14,0-.21s0,0,0,0V21c0-.17,0-.32-.06-.47l0-.2,0-.17h0c0-.09,0-.17,0-.23l0-.16c.06-.06.12-.11.18-.18l.17-.19c.08-.11.17-.22.25-.34l.22-.37c.07-.14.15-.27.21-.41s.13-.28.2-.43h0c.09-.23.18-.45.26-.69,0-.08.05-.17.08-.26a.49.49,0,0,1,0-.11c.08-.24.15-.5.22-.75l0-.13c0-.15.07-.3.11-.44s0,0,0-.05l0-.13s0,0,0-.06Z"/><g class="cls-27"><path class="cls-24" d="M20.49,9.74c-.81,1-1.79,2.53-1.42,3.88a.24.24,0,0,0,.44.06A10.63,10.63,0,0,0,20.15,12a9,9,0,0,1,.94-1.82c.25-.36-.32-.81-.6-.47Z"/><path class="cls-24" d="M21.2,11.63a2.53,2.53,0,0,0-1.12,1.74c-.11.64-.07,1.75.73,1.93,1.44.33,1.36-2.53,1.19-3.34a.55.55,0,0,0-.8-.33Z"/><path class="cls-24" d="M23.9,12.16c-.51.23-.82,1.09-.95,1.6a3.76,3.76,0,0,0,.15,2.15.2.2,0,0,0,.39,0c.15-.65.34-1.29.43-1.95a4.28,4.28,0,0,0,.15-1.73.11.11,0,0,0-.17-.07Z"/><path class="cls-24" d="M26,12.72S26,13,26,13l0,.56a3.78,3.78,0,0,0,.08,1,.23.23,0,0,0,.41,0,8.45,8.45,0,0,0,.62-1.9l-.24.32L26.9,13a.66.66,0,0,0-.15-1.19c-.51-.14-1.09.48-.73,1Z"/><path class="cls-24" d="M31.23,5.7c1.12,0,2.09-.62,3.13-1A10.72,10.72,0,0,1,38,4.3a.58.58,0,0,0,.4-1C36.5,1.27,31.83,2.2,30.59,4.57a.76.76,0,0,0,.64,1.13Z"/><path class="cls-24" d="M40.23,1.82a6.61,6.61,0,0,1,1,.63,3.8,3.8,0,0,0,.93.6c.26.09.41-.21.32-.41-.33-.78-1.43-1-2.17-1a.08.08,0,0,0,0,.15Z"/><path class="cls-24" d="M30.86,11.53c2,2,5.66,3,8.47,3.07.2,0,.26-.32.05-.35a24.65,24.65,0,0,1-4.07-1c-1.48-.55-2.79-1.41-4.23-2-.18-.07-.38.13-.22.29Z"/><path class="cls-24" d="M31.17,9.15c2.48,2.92,9.66,3.78,12.9,1.95a.41.41,0,0,0-.1-.74c-2.18-.39-4.36-.06-6.55-.45-2-.37-3.89-1.44-5.88-1.65-.5-.06-.64.59-.37.89Z"/><path class="cls-24" d="M46.09,11a1.64,1.64,0,0,1,.5-.08.82.82,0,0,0,.51-.07.29.29,0,0,0,0-.45c-.32-.31-.93-.06-1.26.12a.26.26,0,0,0,.2.48Z"/><path class="cls-24" d="M36.13,6.87a6.06,6.06,0,0,0,1.48.18,15.4,15.4,0,0,1,2.52.6A6.91,6.91,0,0,0,44,8.06a.61.61,0,0,0,.35-.87c-1-1.54-2.94-1.82-4.65-2-1.24-.14-3.45-.47-3.84,1.14a.46.46,0,0,0,.31.55Z"/><path class="cls-24" d="M45.23,7.89a1.33,1.33,0,0,0,.46.16A2.23,2.23,0,0,0,46.14,8c.17,0,.16-.25,0-.33a1.69,1.69,0,0,0-.36-.23,1.14,1.14,0,0,0-.45,0c-.26,0-.41.41-.14.53Z"/></g><path class="cls-28" d="M50.86,25c-.06,0-.24-.14-.41-.45a5.11,5.11,0,0,0-.57-1,1.22,1.22,0,0,0-1.24-.29,1.77,1.77,0,0,0-1.21.76c-.49.66-.67,1.57-.81,1.55a2.5,2.5,0,0,1,.24-1.89,2.46,2.46,0,0,1,1-1.07,2,2,0,0,1,.63-.27,1.88,1.88,0,0,1,.7,0,1.76,1.76,0,0,1,1.28.83,3.68,3.68,0,0,1,.37,1.28C50.85,24.73,50.91,25,50.86,25Z"/><path class="cls-28" d="M35.81,26.42c-.06,0-.24-.14-.4-.45a5.66,5.66,0,0,0-.57-1,1.23,1.23,0,0,0-1.25-.29,1.77,1.77,0,0,0-1.21.76c-.49.65-.67,1.57-.81,1.55a2.5,2.5,0,0,1,.24-1.89,2.54,2.54,0,0,1,1-1.08,2.07,2.07,0,0,1,.63-.26,1.88,1.88,0,0,1,.7,0,1.73,1.73,0,0,1,1.28.83,3.68,3.68,0,0,1,.37,1.28C35.8,26.17,35.86,26.39,35.81,26.42Z"/><path class="cls-10" d="M35.16,40.72l.1,0c-.21.06.41,1.64.53,1.84a4.57,4.57,0,0,0,1.29,1.34,4.35,4.35,0,0,0,3.55.78,3.54,3.54,0,0,0,2-1.25,4,4,0,0,0,.58-2.72,12.85,12.85,0,0,1,2.4,4c.45,1.31-.15,5.21-2.13,4.23-1-.5-2-2.43-2.72-3.44,0,0-2.38,4.23-3.18,4.32-1.49.16-2.8-2-3.33-3.07-.86-1.8-1-4.08.47-5.6A2,2,0,0,1,35.16,40.72Z"/><path class="cls-7" d="M35,39.93l.11,0c-.22.07.41,1.65.53,1.85a4.54,4.54,0,0,0,1.28,1.34,4.38,4.38,0,0,0,3.56.77,3.45,3.45,0,0,0,2-1.24,4,4,0,0,0,.58-2.72,12.88,12.88,0,0,1,2.41,4c.44,1.3-.16,5.2-2.14,4.23-1-.5-2-2.43-2.71-3.45,0,0-2.38,4.24-3.18,4.33-1.5.16-2.81-2-3.34-3.07-.85-1.81-1-4.08.48-5.6A1.93,1.93,0,0,1,35,39.93Z"/><path class="cls-10" d="M37.42,47.76c-2.55-.57-1.7-4.7-1.7-4.7s1.28,2.39,4.91,1.27,2.56-3.84,2.46-4.45a4,4,0,0,1-.58,2.72,3.45,3.45,0,0,1-2,1.24,4.38,4.38,0,0,1-3.56-.77,4.54,4.54,0,0,1-1.28-1.34c-.12-.2-.75-1.78-.53-1.85l-.11,0a1.93,1.93,0,0,0-.4.35c-1.52,1.52-1.33,3.79-.48,5.6C34.66,47,36,49.11,37.47,49c.28,0,.77-.6,1.28-1.31A2.08,2.08,0,0,1,37.42,47.76Z"/><path class="cls-10" d="M40.65,44.62c.74,1,1.7,3,2.71,3.45,1.69.83,2.37-1.87,2.27-3.5a6.72,6.72,0,0,1-1.1,2.71C43.46,48.38,40.65,44.62,40.65,44.62Z"/><path class="cls-13" d="M27.33,23.3s-.6-.24-.63-.26l-2.55-1-1.44-.55-.65-.25c-.12-.05-.47-.24-.58-.19l-.26.15a.68.68,0,0,1,.32-.68c.19-.1.38,0,.58.09l1.24.43,4.24,1.45Z"/><path class="cls-29" d="M27.37,23.15l.11-.31q-2.39-.8-4.75-1.62c-.28-.1-1.29-.61-1.51-.22a.38.38,0,0,0,0,.15.29.29,0,0,1,.17,0l.09-.06c.11-.05.46.14.58.19l.25.1.17.06.07,0,.16.06.7.27.49.19.1,0,.15.05,1.66.66.73.29h0l.13.05s.63.25.63.26l0-.12Z"/><path class="cls-13" d="M39.14,22.92l-.37-.78a5.78,5.78,0,0,1,4-.32l-.31.81A5,5,0,0,0,39.14,22.92Z"/><path class="cls-29" d="M39.14,22.92a5,5,0,0,1,3.32-.29l.14-.36a5.74,5.74,0,0,0-3.61.32Z"/><path class="cls-15" d="M27.56,23s5.83-4.11,11.34-.43c0,0,.72,8.3-5.17,8.51S27.56,23,27.56,23Z"/><path class="cls-15" d="M35.82,21.25,32.49,31a5.44,5.44,0,0,0,1.24.09,3.89,3.89,0,0,0,.49,0l3.31-9.22A8.37,8.37,0,0,0,35.82,21.25Z"/><path class="cls-15" d="M31.71,21.28,29.2,28.64a5.62,5.62,0,0,0,1.28,1.43l3.24-9A9.88,9.88,0,0,0,31.71,21.28Z"/><path class="cls-15" d="M38.92,23.72c0-.7,0-1.15,0-1.15-5.51-3.68-11.34.43-11.34.43a12.36,12.36,0,0,0,.15,1.37A10.4,10.4,0,0,0,38.92,23.72Z"/><path class="cls-13" d="M39.3,22.84a1.56,1.56,0,0,0,0-.32v-.21l-.17-.11a2.12,2.12,0,0,0-.2-.12c-4.22-2.69-8.62-1-10.55,0l-.75.42-.26.17-.15.1,0,0V23s0,.09,0,.22a15.82,15.82,0,0,0,.59,3.17v0c.73,2.37,2.31,5.1,5.73,5.1h.24a4.93,4.93,0,0,0,3.83-1.85C39.36,27.43,39.35,23.93,39.3,22.84Zm-4.92,7.74a4.9,4.9,0,0,1-.67.07,4.8,4.8,0,0,1-1.09-.07,4.92,4.92,0,0,1-.58-.14,4.08,4.08,0,0,1-1.42-.78,5.48,5.48,0,0,1-.56-.52s0,0,0,0a6.75,6.75,0,0,1-.7-1,10.81,10.81,0,0,1-1.21-3.56c0-.15-.05-.26-.07-.39v0c-.06-.41-.09-.75-.1-1l.26-.16a12.78,12.78,0,0,1,3.31-1.31,10.49,10.49,0,0,1,2-.27,8.62,8.62,0,0,1,2.12.17,9.25,9.25,0,0,1,1.72.55,8.83,8.83,0,0,1,1.12.61c0,.23,0,.63,0,1.14A9,9,0,0,1,37,29.09a4.06,4.06,0,0,1-2.58,1.49Z"/><path class="cls-29" d="M38.81,22.8l0-.19-.15-.11a8,8,0,0,0-1.13-.63,7,7,0,0,0-1.71-.6A9,9,0,0,0,33.71,21c-.35,0-.7,0-1,.07h0a5.4,5.4,0,0,0-.58.09l-.35.08a11.94,11.94,0,0,0-3.4,1.32h0a4.79,4.79,0,0,0-.48.3l-.18.12v.22s0,.47.12,1.15c0,.26.09.57.16.89a10.37,10.37,0,0,0,1.28,3.33h0l.12.18s0,0,0,0a.08.08,0,0,0,0,0l0,.06a.47.47,0,0,1,.09.12l0,0,.16.2.2.23.07.07a1.21,1.21,0,0,0,.16.16.46.46,0,0,0,.07.07l.19.16,0,0s.05,0,.07.06l0,0a2.62,2.62,0,0,0,.34.24,4.19,4.19,0,0,0,.73.38l.1,0a5,5,0,0,0,.78.23h.08l.39.05H33a4.19,4.19,0,0,0,.5,0h.23l.52,0,.13,0,.32-.06.15,0,.35-.1.34-.13a4.54,4.54,0,0,0,1.71-1.32,9.45,9.45,0,0,0,1.62-5.62C38.84,23.21,38.81,22.85,38.81,22.8ZM37,29.09a4.06,4.06,0,0,1-2.58,1.49h0a4.9,4.9,0,0,1-.67.07,4.8,4.8,0,0,1-1.09-.07,4.92,4.92,0,0,1-.58-.14,4.08,4.08,0,0,1-1.42-.78,5.48,5.48,0,0,1-.56-.52s0,0,0,0a6.75,6.75,0,0,1-.7-1,10.81,10.81,0,0,1-1.21-3.56c0-.15-.05-.26-.07-.39v0c-.06-.41-.09-.75-.1-1l.26-.16a12.78,12.78,0,0,1,3.31-1.31,10.49,10.49,0,0,1,2-.27,8.62,8.62,0,0,1,2.12.17,9.25,9.25,0,0,1,1.72.55,8.83,8.83,0,0,1,1.12.61c0,.23,0,.63,0,1.14A9,9,0,0,1,37,29.09Z"/><path class="cls-15" d="M42.66,22.21s5.47-4.59,11.26-1.38c0,0,1.41,8.21-4.45,8.92S42.66,22.21,42.66,22.21Z"/><path class="cls-15" d="M50.74,19.77l-2.51,10a5.73,5.73,0,0,0,1.24,0l.49-.08L52.5,20.2A9.2,9.2,0,0,0,50.74,19.77Z"/><path class="cls-15" d="M46.65,20.14l-1.89,7.55A5.82,5.82,0,0,0,46.15,29l2.48-9.27A10.84,10.84,0,0,0,46.65,20.14Z"/><path class="cls-15" d="M54,22c0-.7-.12-1.15-.12-1.15-5.79-3.21-11.26,1.38-11.26,1.38a11.16,11.16,0,0,0,.26,1.35A10.43,10.43,0,0,0,54,22Z"/><path class="cls-13" d="M54.43,22h0a2.66,2.66,0,0,0,0-.3.78.78,0,0,0,0-.16c0-.47-.08-.77-.09-.81l0-.21-.18-.1c-.16-.09-.33-.18-.49-.25s-.45-.21-.67-.3h0l-.36-.13-.05,0h0c-4.8-1.58-9.09,1.4-9.91,2l-.14.1-.18.15,0,.17v.07s0,.12.05.32a15.09,15.09,0,0,0,1.29,4h0c.16.28.32.56.5.84h0a5.44,5.44,0,0,0,5.18,2.76l.24,0A5,5,0,0,0,53.18,28l.06-.1a1.39,1.39,0,0,0,.18-.31h0a6.78,6.78,0,0,0,.62-1.5c0-.11.06-.22.08-.33a8.86,8.86,0,0,0,.22-1.12,13.42,13.42,0,0,0,.11-1.49C54.47,22.74,54.45,22.36,54.43,22Zm-5,7.28a4.92,4.92,0,0,1-1.08,0,4.24,4.24,0,0,1-2.09-.75,5.33,5.33,0,0,1-1.37-1.39,10.68,10.68,0,0,1-1.52-3.44h0a13.09,13.09,0,0,1-.28-1.34,12.55,12.55,0,0,1,3.45-1.77,9.8,9.8,0,0,1,2-.44,9.38,9.38,0,0,1,2.12,0,8,8,0,0,1,1.61.37l.15.05.29.11a6.85,6.85,0,0,1,.88.4c0,.23.08.63.1,1.14h0c0,.2,0,.41,0,.64h0c0,.23,0,.48,0,.73a9.22,9.22,0,0,1-.29,1.9v0a5.8,5.8,0,0,1-.82,1.93l0,0a4.08,4.08,0,0,1-2.43,1.67A6.66,6.66,0,0,1,49.42,29.31Z"/><path class="cls-29" d="M54,22.22a.62.62,0,0,1,0-.13A.2.2,0,0,1,54,22a9.32,9.32,0,0,0-.11-.95l0-.19-.16-.09-.06,0a7.11,7.11,0,0,0-.79-.38h0a.35.35,0,0,0-.14-.06.13.13,0,0,0-.08,0l-.1,0h0a7.82,7.82,0,0,0-1.75-.46,9,9,0,0,0-1.63-.08h-.25l-.22,0H48.1l-.61.11-.37.09-.21.06-.26.08a11.74,11.74,0,0,0-3.76,1.94l-.16.13,0,.23A10.38,10.38,0,0,0,43,23.58a11,11,0,0,0,1.78,4.08h0l.17.22L45,28l0,0a.1.1,0,0,1,0,0l.2.22a.46.46,0,0,1,.07.07h0l.25.23.08.07,0,0,.06,0,.11.09.13.09,0,0h0l.12.07a5.42,5.42,0,0,0,.48.26l.37.15.14.05.19.06a2.59,2.59,0,0,0,.4.09l.25,0h1s0,0,0,0h.07l.22,0h0l.49-.08.11,0h0l.1,0a1.93,1.93,0,0,0,.34-.11h0l.2-.07.18-.08a4.4,4.4,0,0,0,1.87-1.58,0,0,0,0,1,0,0,6.37,6.37,0,0,0,.6-1.16,7.41,7.41,0,0,0,.25-.8,9.16,9.16,0,0,0,.27-1.52c0-.21,0-.41.05-.61C54,23.12,54,22.63,54,22.22Zm-.62,3.32v0a5.8,5.8,0,0,1-.82,1.93l0,0a4.08,4.08,0,0,1-2.43,1.67,6.66,6.66,0,0,1-.67.12,4.92,4.92,0,0,1-1.08,0,4.24,4.24,0,0,1-2.09-.75,5.33,5.33,0,0,1-1.37-1.39,10.68,10.68,0,0,1-1.52-3.44h0a13.09,13.09,0,0,1-.28-1.34,12.55,12.55,0,0,1,3.45-1.77,9.8,9.8,0,0,1,2-.44,9.38,9.38,0,0,1,2.12,0,8,8,0,0,1,1.61.37l.15.05.29.11a6.85,6.85,0,0,1,.88.4c0,.23.08.63.1,1.14h0c0,.2,0,.41,0,.64h0c0,.23,0,.48,0,.73A9.22,9.22,0,0,1,53.36,25.54Z"/><rect class="cls-30" x="17.6" y="19.61" width="9.84" height="17.63" rx="2" ry="2" transform="translate(4.18 -2.86) rotate(8.01)"/><path class="cls-31" d="M26.44,35.86l1.9-13.49a2,2,0,0,0-1.15-2.09,2.07,2.07,0,0,1,.16,1.08l-1.9,13.49a2,2,0,0,1-2.26,1.71l-5.78-.82a1.68,1.68,0,0,1-.55-.17,2,2,0,0,0,1.54,1.18l5.78.81A2,2,0,0,0,26.44,35.86Z"/><path class="cls-17" d="M22,36.07s5.59-9.36,3.94-9.58c-.94-.12-1.77,1.67-1.77,1.67S25.93,21,22.58,22s-5.66,9.29-5.66,9.29-.74-3.7-3.42-1.53c-1.3,1.06,1.66,2.33,2,3.57S16.14,39.58,22,36.07Z"/><path class="cls-19" d="M23.47,29a4.56,4.56,0,0,0-.38,1.13,4.66,4.66,0,0,0,.65-1A5,5,0,0,0,24.12,28,4.79,4.79,0,0,0,23.47,29Z"/><path class="cls-19" d="M22.8,26.07a12.78,12.78,0,0,0-.9,3.21s.47-1.41,1.17-3.09,1.38-3,1.38-3A12.82,12.82,0,0,0,22.8,26.07Z"/><path class="cls-19" d="M21.05,25a12.47,12.47,0,0,0-.92,3.36s.45-1.49,1.2-3.24A33.07,33.07,0,0,1,22.84,22,12.21,12.21,0,0,0,21.05,25Z"/><path class="cls-18" d="M15.62,34.05c.37,1.78,1.36,5,6.36,2,0,0,5.59-9.36,3.94-9.58-.94-.12-1.77,1.67-1.77,1.67S25.93,21,22.58,22a3.78,3.78,0,0,0-1.64,1.09c.92-.28,2.4-.53,2.42.82a40.28,40.28,0,0,1-.81,6s2.08-2.9,2.31-1.38-3.44,7.22-4.35,7.39A4.66,4.66,0,0,1,15.62,34.05Z"/><path class="cls-7" d="M22.58,44.75a45,45,0,0,0-5.95,3.44c3.24-6.11,5.92-11.75,5.92-11.75-1.65-1.83-7.89-2-7.89-2S.13,59.22,0,61.71c-.1,2,1.86,3.29,4.82,2.36,4-.86,18.65-5.78,20.38-7.34C27.12,55,24.82,44.84,22.58,44.75Z"/><g class="cls-8"><path class="cls-9" d="M5.92,61.42a10.23,10.23,0,0,1,.9-1c.55-.6,1.27-1.4,2-2.22,1.43-1.64,2.76-3.35,2.76-3.35s1.38-1.68,2.66-3.43c.64-.88,1.27-1.77,1.73-2.44a9.08,9.08,0,0,1,.81-1.1,6.94,6.94,0,0,1-.65,1.2c-.42.7-1,1.62-1.62,2.53-1.22,1.81-2.57,3.53-2.57,3.53s-1.38,1.69-2.87,3.28C8.31,59.18,7.54,60,7,60.52A7.93,7.93,0,0,1,5.92,61.42Z"/><path class="cls-9" d="M10.63,58.06a10.59,10.59,0,0,1,.48-2A10.77,10.77,0,0,1,12,54.31a9.83,9.83,0,0,1-.47,2A10.82,10.82,0,0,1,10.63,58.06Z"/><path class="cls-9" d="M24.91,56.43c-.06,0,.22-1.24.27-2.48a15.24,15.24,0,0,0-.11-2.47,15,15,0,0,0-.41-2.43c-.3-1.2-.83-2.34-.77-2.37A8.07,8.07,0,0,1,25,49a13.72,13.72,0,0,1,.56,2.48,13.72,13.72,0,0,1,0,2.54A8.09,8.09,0,0,1,24.91,56.43Z"/><path class="cls-9" d="M25,57.27s.16-.22.34-.56a5.17,5.17,0,0,0,.45-1.33c.19-1,.28-2.07.28-2.07s.15-1,.22-2.07.07-2.1.14-2.1a8.49,8.49,0,0,1,.2,2.11c0,1.06-.1,2.12-.1,2.12a18.67,18.67,0,0,1-.42,2.09,4.45,4.45,0,0,1-.62,1.35C25.27,57.14,25,57.29,25,57.27Z"/></g><path class="cls-10" d="M23.15,45c.41,2.62.92,7.41-.48,8.75-2,1.87-8.9,5.16-8.28,2.49.44-1.89,2.93-6.54,4.48-9.47-.7.42-1.46.9-2.24,1.43,3.24-6.11,5.92-11.75,5.92-11.75-1.65-1.83-7.89-2-7.89-2s4.09,1.44,4,4.29-10.77,21.45-14,22C3,61,2.92,57.81,3.21,54.74,1.37,58.22,0,61,0,61.71c-.1,2,1.86,3.29,4.82,2.36,4-.86,18.65-5.78,20.38-7.34S25.18,46.51,23.15,45Z"/><path class="cls-29" d="M37.29,30.56s4.38,2.21,7.83-.75c0,0-.67,4.25-3.34,4.6C38.85,34.81,37.29,30.56,37.29,30.56Z"/><path class="cls-32" d="M38.89,33.18a3.32,3.32,0,0,0,2.89,1.23,2.59,2.59,0,0,0,1.38-.63C42,32.61,39.82,33,38.89,33.18Z"/><path class="cls-7" d="M41.9,32.3a2.92,2.92,0,0,0,2.38-1.88c-3.28,2-7,.14-7,.14a8.21,8.21,0,0,0,.55,1.15A6,6,0,0,0,41.9,32.3Z"/><path class="cls-33" d="M41.9,32.3a3,3,0,0,0,1.29-.48c-1.69.66-4,.47-4.43,0-.22-.29.3-.45.89-.52a8.59,8.59,0,0,1-2.36-.7,8.21,8.21,0,0,0,.55,1.15A6,6,0,0,0,41.9,32.3Z"/><path class="cls-19" d="M37.55,30c.05,0,.08.25,0,.48a1.21,1.21,0,0,1-.26.42,1.31,1.31,0,0,1-.44.22c-.24.06-.48,0-.48-.05s.21-.11.36-.22a1.5,1.5,0,0,0,.29-.25,1.62,1.62,0,0,0,.27-.26C37.41,30.17,37.49,30,37.55,30Z"/><path class="cls-19" d="M45.19,29.64a1.5,1.5,0,0,1-.43.53,4.51,4.51,0,0,1-1.25.82,5.9,5.9,0,0,1-1.45.42c-.4.07-.67.09-.67.09s-.28,0-.69,0a10.92,10.92,0,0,1-1.47-.15A5.65,5.65,0,0,1,37.79,31a1.64,1.64,0,0,1-.57-.38s.25.11.63.23a7.12,7.12,0,0,0,1.41.26c.53,0,1.06.06,1.45.05a6.27,6.27,0,0,0,.65,0s.26,0,.65,0a7.16,7.16,0,0,0,1.39-.32,5.48,5.48,0,0,0,1.26-.67A6,6,0,0,1,45.19,29.64Z"/><path class="cls-19" d="M46.17,29.92s-.16.2-.4.22a1.2,1.2,0,0,1-.34,0l-.15-.06a.92.92,0,0,1-.11-.11.76.76,0,0,1-.18-.29c-.09-.22,0-.46,0-.45s.11.19.23.31a.76.76,0,0,0,.25.19.78.78,0,0,0,.28.15C46,29.9,46.14,29.87,46.17,29.92Z"/><path class="cls-19" d="M43.18,34.22c.06,0,0,.29-.07.54a1.72,1.72,0,0,1-.33.46,1.66,1.66,0,0,1-.5.24c-.27.08-.55,0-.55,0s.24-.13.43-.25a2.51,2.51,0,0,0,.36-.29,2.38,2.38,0,0,0,.34-.31C43,34.43,43.13,34.21,43.18,34.22Z"/><path class="cls-34" d="M41.78,34.41a2.59,2.59,0,0,0,1.38-.63,2.47,2.47,0,0,0-.63-.44c0,.37-.24.76-1.36.6s-1.36-.61-1.36-.93a9.15,9.15,0,0,0-.92.17A3.32,3.32,0,0,0,41.78,34.41Z"/></g></g></g></svg>