<svg xmlns="http://www.w3.org/2000/svg" viewBox="0 0 84.42 84.85"><defs><style>.cls-1{isolation:isolate;}.cls-2{fill:#88ac76;}.cls-3{fill:#fff;}.cls-18,.cls-27,.cls-30,.cls-4,.cls-6{opacity:0.5;}.cls-10,.cls-12,.cls-14,.cls-15,.cls-17,.cls-21,.cls-25,.cls-27,.cls-30,.cls-32,.cls-33,.cls-34,.cls-35,.cls-4,.cls-6,.cls-8{mix-blend-mode:multiply;}.cls-5,.cls-6,.cls-8{fill:#d3dbfd;}.cls-7{fill:#294168;}.cls-35,.cls-7{opacity:0.6;}.cls-11,.cls-18,.cls-19,.cls-22,.cls-23,.cls-26,.cls-28,.cls-7{mix-blend-mode:screen;}.cls-10,.cls-11,.cls-25,.cls-9{fill:#3c1d91;}.cls-10,.cls-14{opacity:0.45;}.cls-13,.cls-14,.cls-17,.cls-19{fill:#ebd0a6;}.cls-15{fill:#e28c89;}.cls-15,.cls-21{opacity:0.25;}.cls-16{fill:#de9168;}.cls-17{opacity:0.62;}.cls-20,.cls-21,.cls-22{fill:#6f3a1e;}.cls-23{fill:#f8e9d0;}.cls-24,.cls-26,.cls-27{fill:#a95913;}.cls-28{opacity:0.35;}.cls-29,.cls-30,.cls-35{fill:#f15e6b;}.cls-31{fill:#e5e5ff;}.cls-32,.cls-33{fill:#5766be;}.cls-32{opacity:0.2;}.cls-33,.cls-34{opacity:0.1;}.cls-34{fill:#501214;}</style></defs><title>fearРесурс 11</title><g class="cls-1"><g id="Слой_2" data-name="Слой 2"><g id="OBJECTS"><path class="cls-2" d="M56,84.74H52.8l-.42.11-.11-.11H46.19l.11-.12c.26-.29.53-.57.81-.85s.55-.5.85-.73a8.86,8.86,0,0,1,.73-.52l.29-.16a4.16,4.16,0,0,1,.47-.24,4.88,4.88,0,0,1,1.15-.39l.34-.06.16,0a4.2,4.2,0,0,1,1,0,4,4,0,0,1,1.36.42h0a1.74,1.74,0,0,1,.27.14,2.66,2.66,0,0,1,.47.3,4.44,4.44,0,0,1,.38.27,4.25,4.25,0,0,1,.89,1s0,0,0,0A5,5,0,0,1,56,84.74Z"/><path class="cls-2" d="M58.6,84.74H52.8l-.42.11-.11-.11H47.88l.36-.08,1.29-.29.37-.07.31-.06c.29,0,.58-.11.87-.15l.26,0,.15,0,1.2-.14h.12c.23,0,.45,0,.68,0l.68,0h0c.31,0,.61,0,.92,0a1.67,1.67,0,0,1,.32,0,.11.11,0,0,1,.08,0,7.93,7.93,0,0,1,1.23.17A5.23,5.23,0,0,1,58.6,84.74Z"/><path class="cls-3" d="M46.38,42.89S39.31,68.64,33.66,73.32s-22.44,2.15-28.25-.79c0,0,4.15-.1,3.94-6.67,0,0,17.52,2.78,19.9-.12s4.9-16.88,4.9-16.88A12.71,12.71,0,0,1,46.38,42.89Z"/><g class="cls-4"><path class="cls-5" d="M32.91,69.11a4.48,4.48,0,0,0-.66-1.26,4.53,4.53,0,0,0-.64-.75,3.29,3.29,0,0,0-.34-.3,3,3,0,0,0-.39-.23,3,3,0,0,0-.95-.31,2.42,2.42,0,0,0-1,0,1,1,0,0,0-.41.17s.18,0,.43-.07a3,3,0,0,1,.93,0,3.28,3.28,0,0,1,.86.35,2.28,2.28,0,0,1,.35.23,2.5,2.5,0,0,1,.34.26,4.28,4.28,0,0,1,.65.68C32.54,68.51,32.87,69.13,32.91,69.11Z"/><path class="cls-5" d="M32.87,66.19a2.72,2.72,0,0,0-1-.32,6.8,6.8,0,0,0-1-.11,6.83,6.83,0,0,0-1,.13,2.66,2.66,0,0,0-1,.34s.5-.1,1-.15a8.35,8.35,0,0,1,1,0,6.38,6.38,0,0,1,1,0C32.36,66.1,32.86,66.22,32.87,66.19Z"/></g><path class="cls-6" d="M9.35,65.89l0,0h0Z"/><path class="cls-6" d="M33.66,73.32h0c.1-.08.2-.18.3-.27l.1-.1.21-.22.11-.12.22-.24.1-.12.31-.39v0l.3-.4.1-.15.22-.32a1.63,1.63,0,0,1,.11-.17l.22-.35s.07-.1.1-.16.21-.34.31-.52l0-.06.28-.5.1-.19.22-.4.11-.21c.07-.15.15-.29.22-.43s.07-.13.1-.19l.31-.63,0-.08.28-.58a2,2,0,0,1,.1-.21l.21-.47a2.56,2.56,0,0,0,.11-.24c.08-.16.15-.33.22-.49l.09-.2c.11-.24.21-.47.31-.71l0-.1.27-.62a2.44,2.44,0,0,1,.1-.24l.21-.51a2.44,2.44,0,0,1,.1-.24c.07-.19.15-.37.22-.56s0-.13.08-.19c.1-.25.2-.5.29-.76l0-.09.26-.66.09-.24.2-.54.09-.24c.08-.2.15-.4.22-.59l.07-.18c.09-.26.19-.52.28-.77l0-.09.24-.68.08-.22c.07-.19.13-.37.2-.55l.08-.23c.07-.2.14-.4.2-.6l.06-.16c.09-.25.17-.51.26-.76v0l.24-.7.06-.19c.06-.19.13-.37.19-.56l.06-.19.2-.6,0-.12c.07-.24.15-.48.23-.72h0l-.06-.16c-.08.24-6.33,14.53-9.27,14.57S34.46,51,36.28,48a16.49,16.49,0,0,1,4.47-4.47h0l-1,.37h0c-.33.15-.71.34-1.12.55l-.62.38-.13.09-.56.39,0,0-.49.39-.1.08-.46.4,0,0-.38.37-.07.08-.36.38,0,0-.31.35,0,.05-.28.34c-.22.34-.44.71-.67,1.1l0,.12v0l0,.12,0,.14,0,.12,0,.22v.08l-.06.28,0,.11-.06.32,0,.1-.09.44v0c-.27,1.35-.65,3.18-1.11,5.1l0,.06c0,.22-.1.43-.16.65l0,.12c0,.2-.1.39-.14.59l0,.17c0,.18-.09.36-.14.54s0,.13-.05.2-.09.34-.14.51l-.06.21c0,.16-.09.32-.13.48s-.05.16-.07.24-.09.3-.13.45a2.17,2.17,0,0,0-.07.24c-.05.14-.09.28-.13.42s-.05.17-.08.25-.09.27-.13.4S31,61.89,31,62s-.09.26-.13.38a2.25,2.25,0,0,0-.08.24c-.05.12-.09.24-.13.35l-.09.23c0,.11-.08.22-.13.33s-.05.15-.08.22-.09.2-.13.3l-.09.2L30,64.5l-.09.18-.14.25a1.19,1.19,0,0,1-.08.16l-.15.24-.07.11a2.32,2.32,0,0,1-.22.3A2.23,2.23,0,0,1,29,66a5.59,5.59,0,0,1-2.58.89,4.71,4.71,0,0,1,3.07,1.84c1.15,2.2-12.63,7.29-18.74,2.93a8.49,8.49,0,0,1-2-1.87,4,4,0,0,1-3.38,2.79,38.41,38.41,0,0,0,11,2.92,47.06,47.06,0,0,0,8.34.42c.67,0,1.32-.09,2-.16s1.25-.17,1.84-.28A11.43,11.43,0,0,0,33.66,73.32Z"/><path class="cls-7" d="M12.5,67.25c.54.1,1.11.19,1.69.27a35.35,35.35,0,0,0,4.64.27s.58,0,1.46,0,2,0,3.2-.13l1.7-.13a6.44,6.44,0,0,1,1.53,0,2.27,2.27,0,0,1,1,.43c.2.17.28.31.27.32s-.12-.1-.33-.23a2.35,2.35,0,0,0-1-.31,19.74,19.74,0,0,0-3.17.28c-1.16.13-2.33.21-3.21.25s-1.47,0-1.47,0a31.81,31.81,0,0,1-4.7-.44c-.58-.1-1.16-.22-1.7-.35A9.77,9.77,0,0,0,11,67.23a1.55,1.55,0,0,0-1,.18c-.2.13-.27.26-.29.25s0-.16.23-.34A1.6,1.6,0,0,1,11,67,8.85,8.85,0,0,1,12.5,67.25Z"/><path class="cls-7" d="M40.41,45.12a17.91,17.91,0,0,0-1.79,1.05c-.86.57-1.66,1.26-1.71,1.2a6.55,6.55,0,0,1,1.49-1.51,14,14,0,0,1,1.75-1.21,15.68,15.68,0,0,1,2-.82,6.77,6.77,0,0,1,2.08-.44c0,.08-1,.37-1.94.79A17.78,17.78,0,0,0,40.41,45.12Z"/><path class="cls-3" d="M66.81,43.73a.93.93,0,0,1,0,.13h0a48.84,48.84,0,0,0-1.45,10.71c0,.48,0,1,.05,1.43,0,.19,0,.38,0,.57A10.28,10.28,0,0,0,66.26,60h0l0,.11-.09.38-.06.28h0c-.11.45-.21.9-.31,1.35s-.17.76-.24,1.15a.85.85,0,0,0,0,.17c-.07.34-.14.67-.2,1-.1.5-.19,1-.28,1.5h0c0,.16-.06.33-.09.49-.09.52-.18,1-.26,1.56s-.16,1-.24,1.56h0s0,0,0,.09h0c0,.25-.07.51-.1.77s-.07.49-.1.74h0c0,.19-.05.39-.07.59s0,.39-.07.59c-.08.68-.15,1.37-.21,2.06s-.12,1.37-.17,2.06c-.07,1-.12,2-.14,3q0,.92,0,1.83c0,.09,0,.19,0,.29s0,.08,0,.12c0,.21,0,.44.07.67a2.19,2.19,0,0,1,0,.36v0a3.09,3.09,0,0,1-.22,1.91H52.8l-.42.11-.11-.11H41.45c-.12-.44-.19-.89-.29-1.32-.6-2.76-1.2-5.52-1.78-8.28s-1.12-5.27-1.65-7.91h0c-.24-1.19-.48-2.39-.71-3.58-.57-2.92-1.1-5.85-1.57-8.79-.11-.71-.22-1.43-.31-2.15,0-.2-.05-.41-.08-.61S35,51.7,35,51.51L34.91,51c0-.08,0-.16,0-.24s0-.16,0-.23a6.34,6.34,0,0,1,.93-3.83h0l0,0c1.63-2.61,5.18-4,8.94-4.74l.45-.09.59-.11h0l.11,0,.13,0c2.13-.35,4.25-.53,6.07-.66l1.52-.1h.15l.65.07h0l.76.08c2.8.34,9,1.21,11.48,2.61Z"/><path class="cls-6" d="M66.79,43.49s0,.07-.05.2,0,.18-.08.31A47.68,47.68,0,0,0,65.3,54.54c0,.5,0,1,.07,1.47,0,.19,0,.38,0,.57a10.1,10.1,0,0,0,.88,3.32l0,.12h0c0,.12-.06.23-.08.35s-.06.23-.08.34c-.21.89-.4,1.78-.58,2.68s-.34,1.67-.48,2.51c-.22,1.21-.41,2.43-.58,3.65h0a.28.28,0,0,0,0,.09c-.08.5-.14,1-.2,1.51-.22,1.7-.38,3.41-.5,5.12-.08,1.08-.12,2.15-.13,3.22,0,.53,0,1.06,0,1.59a4.84,4.84,0,0,0,0,.53s0,.08,0,.12c0,.21,0,.44.07.67a2.19,2.19,0,0,1,0,.36v0a2.32,2.32,0,0,1-.43,1.91H52.8l-.42.11-.11-.11H41.5c-.15-.51-.24-1-.35-1.56-.29-1.29-.57-2.59-.84-3.88h0c-.31-1.46-.63-2.93-.94-4.39q-.81-3.86-1.61-7.72h0c-.24-1.19-.48-2.38-.71-3.57-.58-3-1.13-6-1.61-9l-.3-1.91c0-.2-.05-.41-.08-.61s0-.41-.07-.61h0c0-.23-.06-.46-.09-.69s0-.16,0-.23a6.54,6.54,0,0,1,.57-3.44h0l0,0v0c1.46-3.06,5.34-4.58,9.45-5.39h0l.47-.09.39-.07h0l.12,0H46c2.2-.37,4.39-.55,6.25-.68h0l1.45-.09h.08l.37,0,.91.11C57.86,41.15,64.28,42,66.79,43.49Z"/><path class="cls-6" d="M46.7,84.74H41.45c-.12-.44-.19-.89-.29-1.32l-.9-4.2,0,.07h0a11,11,0,0,0,6,5.32C46.43,84.66,46.56,84.71,46.7,84.74Z"/><path class="cls-6" d="M66.23,60.52l-.06.28h0c-.11.45-.21.9-.31,1.35s-.17.76-.24,1.15a.85.85,0,0,0,0,.17c-.07.34-.14.67-.2,1-.1.5-.19,1-.28,1.5h0c0,.16-.06.33-.09.49-.09.52-.18,1-.26,1.56s-.16,1-.23,1.57h0a.15.15,0,0,0,0,.09h0c0,.26-.07.51-.11.76l-.09.75c0,.19,0,.39-.08.59s0,.39-.07.59c-.08.68-.15,1.37-.21,2.06s-.12,1.37-.17,2.06c-.07,1-.12,2-.14,3q0,.92,0,1.83c0,.09,0,.19,0,.29s0,.08,0,.12c0,.21,0,.44.07.67a2.19,2.19,0,0,1,0,.36v0a3.09,3.09,0,0,1-.22,1.91H52.86l.53-.14c.38-.12.77-.25,1.16-.41a6,6,0,0,0,.66-.26l.21-.09.06,0a7.92,7.92,0,0,0,.72-.35c.26-.12.52-.25.78-.4,3.31-1.83,5.13-7.83,6.12-14l.12-.81h0c.21-1.41.38-2.82.51-4.17h0c.1-1,.18-2,.25-2.9s.11-1.81.15-2.62.06-1.5.07-2.13h0v0a.49.49,0,0,0,0-.12c0-.34,0-.66,0-.95a.33.33,0,0,0,0-.14c0-.25,0-.46,0-.66,0,0,0,0,0,0a8.77,8.77,0,0,0,0-1.09s.8,2.6,1.84,6.4l.14.53S66.22,60.47,66.23,60.52Z"/><path class="cls-6" d="M55.86,47.22v0S55.86,47.19,55.86,47.22Z"/><path class="cls-8" d="M51.34,84.05V84a.45.45,0,0,0,0-.11c0-.24-.08-.88-.15-1.55,0-.07,0-.15,0-.22s0-.3,0-.45c0-.31-.06-.61-.09-.85s0-.2,0-.28a1.06,1.06,0,0,0-.07-.3.77.77,0,0,0,0,.22c0,.1,0,.22,0,.37s0,.54,0,.86c0,.14,0,.28,0,.43h0c0,.57.06,1.14.08,1.5s0,.39,0,.39a.62.62,0,0,0,0,.09c0,.13,0,.36.07.65h.23C51.36,84.42,51.35,84.17,51.34,84.05Z"/><path class="cls-6" d="M54.7,70.41c-.12-.83-.24-1.66-.37-2.5a.36.36,0,0,1,0-.11,1.46,1.46,0,0,1,0-.22.3.3,0,0,1,0-.1.51.51,0,0,1,0-.13c-.07-.39-.13-.78-.2-1.18v0c-.89-5.39-2-10.75-3.22-16.07a3.18,3.18,0,0,0,.78-.65c.17-.19.33-.39.47-.58a8.6,8.6,0,0,0,.74-1.27.77.77,0,0,0,0-.26,4,4,0,0,0-2.45-2.54h0a.27.27,0,0,0-.12,0,1,1,0,0,0-.28-.05.82.82,0,0,0-.46.14h0a2.07,2.07,0,0,0-.46.36c-.12.12-.24.26-.36.4l-.29.39a12.62,12.62,0,0,0-.9,1.52.21.21,0,0,0,0,.06h0A3.92,3.92,0,0,0,48,49a2.73,2.73,0,0,0,1.29,1.13c0,.14-.05.87-.13,2h0c-.27,4.35-.91,14.5-1.13,19,0,.41,0,.77,0,1.08s0,.39,0,.59h0a2.06,2.06,0,0,1,0,.35.55.55,0,0,1,0,.18h0a2.17,2.17,0,0,1,0,.36h0c0,.23,0,.47,0,.7q0,.7-.09,1.41v0c0,.36,0,.69-.06,1V77a12.31,12.31,0,0,0,0,1.72A7.48,7.48,0,0,0,48.3,81l0,0A12.36,12.36,0,0,0,49,82.36a15.57,15.57,0,0,0,1.23,1.88c.12.17.25.34.38.5h1.68l.11.11.42-.11h.06l0-.06c.08-.11.17-.22.24-.33s.24-.34.35-.51.19-.3.27-.45a6.21,6.21,0,0,0,.34-.61,2.4,2.4,0,0,0,.11-.23,7.07,7.07,0,0,0,.35-.81C55.94,78.18,55.29,74.5,54.7,70.41Z"/><path class="cls-9" d="M54.19,70.19c-.09-.64-.19-1.28-.29-1.92,0,0,0-.08,0-.13a1.43,1.43,0,0,1,0-.22s0,0,0-.07a.37.37,0,0,1,0-.11c-.07-.38-.13-.76-.19-1.15,0,0,0-.07,0-.11-.91-5.57-2-11.11-3.31-16.61a3.28,3.28,0,0,0,.91-.8l.18-.21c.07-.1.15-.2.21-.3s.12-.17.18-.26l.15-.24.22-.41c.09-.17.14-.28.14-.28a1,1,0,0,0,0-.34.36.36,0,0,0,0-.1,2.4,2.4,0,0,0-.48-.9,2.6,2.6,0,0,0-.3-.36l-.21-.21a4.72,4.72,0,0,0-.5-.41h0l-.39-.26h0l-.08,0-.16-.08H50a1.16,1.16,0,0,0-.27-.14h-.07a1.27,1.27,0,0,0-.26,0,.77.77,0,0,0-.25,0h0s0,0-.07,0a1.59,1.59,0,0,0-.39.23h0a.19.19,0,0,0-.07.06h0a7.17,7.17,0,0,0-1.23,1.6h0c-.28.47-.46.83-.46.83a2.23,2.23,0,0,0,.06.32,3.31,3.31,0,0,0,.14.47,3.18,3.18,0,0,0,.28.6,2.75,2.75,0,0,0,1.34,1.23c0,.05,0,.18,0,.37s0,.29,0,.48c0,.35,0,.8-.09,1.34q0,.23,0,.48c0,.25,0,.52-.05.81s0,.49,0,.76,0,.74-.07,1.13c0,.11,0,.21,0,.32s0,.15,0,.22c-.33,5.29-.78,12.66-.91,15.79,0,.14,0,.27,0,.39q0,.65-.06,1.29a.53.53,0,0,1,0,.13,1.55,1.55,0,0,1,0,.22,1.15,1.15,0,0,1,0,.19h0l0,.46c0,.33,0,.65-.07,1h0c0,.11,0,.23,0,.34,0,.27,0,.53,0,.79s0,.61,0,.91,0,.53,0,.79,0,.38,0,.57a7.48,7.48,0,0,0,.4,1.7c0,.13.1.27.16.41a14.3,14.3,0,0,0,.9,1.73A15.48,15.48,0,0,0,49.9,84.3a4.94,4.94,0,0,0,.36.44h1.91l0,0,.18-.23.37-.51a.35.35,0,0,0,.05-.08c.21-.3.39-.6.56-.89s.23-.43.32-.64a.47.47,0,0,0,.05-.1,9.51,9.51,0,0,0,.39-.95c.12-.33.23-.67.32-1s.16-.68.22-1,.1-.67.13-1,0-.5.05-.76A40.21,40.21,0,0,0,54.19,70.19Z"/><path class="cls-10" d="M54.85,77.48c0,.26,0,.51-.05.76s-.07.67-.13,1-.13.68-.22,1-.2.69-.32,1a9.51,9.51,0,0,1-.39.95.47.47,0,0,1-.05.1c-.09.21-.2.42-.32.64s-.35.59-.56.89a.35.35,0,0,1-.05.08l-.37.51-.18.23,0,0H50.26a4.94,4.94,0,0,1-.36-.44,15.48,15.48,0,0,1-1.21-1.78,14.3,14.3,0,0,1-.9-1.73c-.06-.14-.11-.28-.16-.41a7.48,7.48,0,0,1-.4-1.7c0-.19,0-.38,0-.57s0-.53,0-.79,0-.6,0-.91,0-.52,0-.79l0-.34s0-.1,0-.15,0,.15,0,.22c.1.54.23,1.06.37,1.55l0,.11c.69,2.28,1.81,3.8,3,3.21a1.87,1.87,0,0,0,.57-.45,5.06,5.06,0,0,0,.61-.86,10.09,10.09,0,0,0,.51-1.08c.67-1.64.72-4.93.44-8.67,0,0,0-.08,0-.13s0-.16,0-.24v0c0-.38-.07-.77-.1-1.16,0-.11,0-.22,0-.33-.74-7.56-2.51-16-2.93-16.25-.2-.1-.41.38-.62,1.13h0c-.29,1-.56,2.52-.75,3.67,0,0,0,0,0,.06s0-.19,0-.28,0-.21,0-.32c0-.39,0-.77.07-1.13s0-.52,0-.76,0-.56.05-.81,0-.33,0-.48c0-.54.07-1,.09-1.34q0-.28,0-.48c0-.19,0-.32,0-.37a2.75,2.75,0,0,1-1.34-1.23A3.53,3.53,0,0,0,48,49a1.89,1.89,0,0,0,2.17-.13,1.37,1.37,0,0,0,.37-.64h0a2.29,2.29,0,0,0,.1-.79,7.1,7.1,0,0,0-.65-2.64l0,0,.1,0,.73.26h0a4.72,4.72,0,0,1,.5.41l.21.21a2.6,2.6,0,0,1,.3.36,2.4,2.4,0,0,1,.48.9.36.36,0,0,1,0,.1,1,1,0,0,1,0,.34s0,.11-.14.28l-.22.41-.15.24c-.06.09-.11.17-.18.26s-.14.2-.21.3l-.18.21a3.28,3.28,0,0,1-.91.8c1.26,5.5,2.4,11,3.31,16.61,0,0,0,.08,0,.11.06.39.12.77.19,1.15a.37.37,0,0,0,0,.11s0,.05,0,.07a1.43,1.43,0,0,0,0,.22s0,.09,0,.13c.1.64.2,1.28.29,1.92A40.21,40.21,0,0,1,54.85,77.48Z"/><path class="cls-11" d="M48.74,47.7a2,2,0,0,1,.1-.63c.1-.31.34-.56.31-.63s-.42.1-.65.45a2,2,0,0,0-.3.77,2.08,2.08,0,0,0,.18.8c.18.38.54.6.58.54s-.16-.35-.22-.67A1.9,1.9,0,0,1,48.74,47.7Zm0,25.85c0-.23,0-.45,0-.65h0c0-.07,0-.14,0-.2s0-.11,0-.16,0-.19-.07-.19-.08.14-.13.35h0a2,2,0,0,1,0,.2c0,.09,0,.2,0,.31a0,0,0,0,0,0,0l0,.32c-.07.61-.09,1.22-.09,1.22s0,.06,0,.16,0,.64.1,1.06c0,.26.07.5.1.71h0c.06.28.11.48.15.48s0-.09.07-.23h0c0-.23,0-.61.06-1,0-.16,0-.31,0-.46,0-.41,0-.74,0-.74S48.75,74.16,48.71,73.55Zm.64-20.07c-.15,0-.63,8.9-.63,8.9s-.17,6.2-.14,8.26a2.57,2.57,0,0,0,0,.66,2.92,2.92,0,0,0,.11-.79c.2-2.18.53-8.11.53-8.11S49.5,53.49,49.35,53.48Z"/><g class="cls-4"><path class="cls-5" d="M42.88,44.5c-.37,1-1.61,1.79-2.24,2.65a34,34,0,0,0-2,3.15.25.25,0,0,1-.45,0,4.22,4.22,0,0,1,.67-4.46c.77-1.05,2.4-2.46,3.8-1.91a.47.47,0,0,1,.2.6Z"/></g><g class="cls-4"><path class="cls-5" d="M61.74,84.74h-2A8.79,8.79,0,0,0,61.43,83a14.83,14.83,0,0,0,.89-2.86.33.33,0,0,1,.6,0A5.39,5.39,0,0,1,61.74,84.74Z"/></g><g class="cls-4"><path class="cls-5" d="M42.07,82.69a13.68,13.68,0,0,0,1.56,2H42.49a4,4,0,0,1-.67-2A.14.14,0,0,1,42.07,82.69Z"/></g><g class="cls-12"><path class="cls-5" d="M38,67.59a2.27,2.27,0,0,0-.05-.4c0-.26-.11-.63-.19-1.08-.16-.88-.36-2.06-.54-3.25-.38-2.36-.61-4.75-.61-4.75s-.28-2.38-.36-4.77c0-1.2,0-2.39,0-3.29,0-.45,0-.83,0-1.09a2.17,2.17,0,0,0,0-.41,2.5,2.5,0,0,0-.06.41c0,.26-.06.63-.08,1.08,0,.9-.07,2.1-.06,3.31,0,2.4.28,4.79.28,4.79s.27,2.39.69,4.76c.21,1.18.44,2.36.63,3.24.09.44.18.8.23,1.06A3.23,3.23,0,0,0,38,67.59Z"/></g><path class="cls-13" d="M5.64,61.5a2.88,2.88,0,0,1,2,1.32,1.11,1.11,0,0,1,.4-.38c1.07-.54,3,.56,2,1.24a5.24,5.24,0,0,0-1.29,1.53,13.42,13.42,0,0,1,.52,2.08s.51,4-2.55,4.23-3.3-3.61-3.65-3.88-1.15,1-1.67,1.34-2-1-1.08-3.32,2.21-2.52,2.21-2.52-1.52,0-1.44-.73S2.85,61.18,5.64,61.5Z"/><path class="cls-14" d="M2.27,61.89c-.34.57,2.79,1,2.95,1s-2.85.17-3,.63,1.82.13,1.82.13-2.69,1.18-2.51,1.59,2.67-.8,2.67-.8c-.49.29-3.42,2.3-2.87,2.94s2.28-1.06,2.28-1.06,0,1.15,2,2.43c1.6,1,3-1,3.56-2,.07.34.1.56.1.56a6.35,6.35,0,0,1-.08,1.82,11.36,11.36,0,0,1-1.3,2.06,2.69,2.69,0,0,1-1.17.35c-3.06.23-3.3-3.61-3.65-3.88s-1.15,1-1.67,1.34-2-1-1.08-3.32,2.21-2.52,2.21-2.52-1.52,0-1.44-.73c0-.48.74-.84,1.94-1A1.83,1.83,0,0,0,2.27,61.89Z"/><path class="cls-15" d="M8.6,65a.49.49,0,0,1,0,.11Z"/><path class="cls-5" d="M45.09,54.78,37.61,55s1.11,8.29,4.51,7.35S45.09,54.78,45.09,54.78Z"/><path class="cls-13" d="M53.8,38.46l.06,4.21S51.29,46,46,43.71L45.91,39S51.72,36.14,53.8,38.46Z"/><path class="cls-14" d="M46,42.16c4.87,4.19,8-3.93,5.89-2.31-1.79,1.37-5,.32-5.93-.05v-.67a.59.59,0,0,1,.18-.24,16.78,16.78,0,0,1,1.68-.66c.87-.21,1.9-.38,2.77-.64a7.39,7.39,0,0,1,.93,0h0l.42,0h0a2.7,2.7,0,0,1,.41.07h0l.33.1.07,0,.34.16,0,0a1.81,1.81,0,0,1,.27.18l.08.06a3.08,3.08,0,0,1,.27.25h0l.06,4.21S51.29,46,46,43.71Z"/><path class="cls-13" d="M35.56,21.49A2.1,2.1,0,0,0,32.62,21c-1.88,1.42-.46,8.15,2.21,7.89S36,21.32,35.56,21.49Z"/><path class="cls-14" d="M35.56,21.49A2.1,2.1,0,0,0,32.62,21c-1.88,1.42-.46,8.15,2.21,7.89S36,21.32,35.56,21.49Z"/><path class="cls-16" d="M33.44,27s.2,0,.43-.09a.46.46,0,0,0,.27-.26.64.64,0,0,0,0-.45.88.88,0,0,0-.27-.36c-.11-.09-.24-.12-.43-.26a.75.75,0,0,1-.3-.67,1.56,1.56,0,0,1,.06-.27,1.1,1.1,0,0,1,.13-.22,1.83,1.83,0,0,1,.24-.22.84.84,0,0,1,.19-.09h0s0,0,0,0,0-.06,0-.11a1.16,1.16,0,0,0,0-.18,2.21,2.21,0,0,0-.32-.7c-.29-.44-.7-.59-.69-.66s.47-.06.9.39a2.53,2.53,0,0,1,.53.81l.07.22a1.26,1.26,0,0,1,.06.26c0,.22,0,.43.05.58a1.35,1.35,0,0,0-.38.05l-.09.06-.11.11a.66.66,0,0,0,0,.1s0,0,0,0,.24.15.42.33a1.5,1.5,0,0,1,.4.7,1.1,1.1,0,0,1-.1.81.58.58,0,0,1-.49.29C33.61,27.15,33.43,27,33.44,27Z"/><path class="cls-17" d="M34.83,28.92c2.68-.26,1.19-7.6.73-7.43a2.53,2.53,0,0,0-1.58-.9,4.85,4.85,0,0,1,0,2.76s-.78-1.07-1.13-.67.34,2.16-.45,2.38c-.25.07-.43-.11-.55-.4C32.13,26.83,33.27,29.08,34.83,28.92Z"/><g class="cls-18"><path class="cls-19" d="M31.92,22.58c-.09.39,0,.77.17.85s.39-.17.48-.56,0-.76-.16-.84S32,22.2,31.92,22.58Z"/><path class="cls-19" d="M32.54,21.44a.3.3,0,0,0,.15.34.19.19,0,0,0,.28-.11.3.3,0,0,0-.15-.34A.19.19,0,0,0,32.54,21.44Z"/></g><path class="cls-13" d="M65.47,19.75C65.29,13.66,62.13,4,49.33,4.7s-13.91,15-13.91,15a39,39,0,0,0-.59,9.24c.41,4,2.86,9.73,12.14,10.08s16.12-4,17.41-9.76a4.73,4.73,0,0,0,4.1-4.08C69,22.5,67.35,19.94,65.47,19.75Z"/><g class="cls-12"><path class="cls-14" d="M65.47,19.75a19.68,19.68,0,0,0-1.15-6.07A15.66,15.66,0,0,0,62,9.44c2,3,2.68,7.62,2.76,10.46.16,0,.54-.12.8-.15Z"/><path class="cls-14" d="M67.21,20.67a5.37,5.37,0,0,1,.62,3.62,4.73,4.73,0,0,1-4.1,4.08c-1.29,5.77-8.13,10.11-17.41,9.76-4.89-.18-7.88-1.87-9.68-4,1.7,2.53,4.8,4.66,10.33,4.87,9.28.34,16.12-4,17.41-9.76a4.73,4.73,0,0,0,4.1-4.08A5.25,5.25,0,0,0,67.21,20.67Z"/></g><path class="cls-20" d="M41.28,24.56c.1,1.22-.37,2.24-1.05,2.29s-1.31-.9-1.42-2.12.37-2.24,1-2.29S41.18,23.34,41.28,24.56Z"/><path class="cls-21" d="M40.46,22.66a4,4,0,0,1,.2.95c.1,1.22-.37,2.25-1,2.29a.84.84,0,0,1-.59-.22c.26.72.72,1.2,1.21,1.17.68-.05,1.15-1.07,1.05-2.29A2.81,2.81,0,0,0,40.46,22.66Z"/><path class="cls-22" d="M39,24.33c0,.42.17.77.39.77s.39-.32.39-.74-.17-.77-.39-.77S39,23.91,39,24.33Z"/><path class="cls-22" d="M39.8,23.16a.17.17,0,0,1-.15.19.18.18,0,0,1-.17-.16.17.17,0,0,1,.15-.19A.18.18,0,0,1,39.8,23.16Z"/><path class="cls-20" d="M55.86,24.67c-.06,1.22-.66,2.18-1.34,2.14s-1.19-1.06-1.13-2.28.66-2.18,1.34-2.14S55.92,23.45,55.86,24.67Z"/><path class="cls-21" d="M55.33,22.73a3.49,3.49,0,0,1,0,.8c0,1.22-.65,2.18-1.33,2.14a.85.85,0,0,1-.6-.34c.14.84.56,1.45,1.08,1.48.68,0,1.28-.92,1.34-2.14A2.83,2.83,0,0,0,55.33,22.73Z"/><path class="cls-22" d="M53.75,24.11c0,.41.08.78.29.81s.43-.28.49-.69-.08-.78-.29-.82S53.81,23.69,53.75,24.11Z"/><path class="cls-22" d="M54.67,23a.17.17,0,0,1-.17.16.16.16,0,0,1-.15-.18.17.17,0,0,1,.17-.16A.18.18,0,0,1,54.67,23Z"/><path class="cls-16" d="M66.59,26.7a.91.91,0,0,1-.33.78.74.74,0,0,1-.37.16.69.69,0,0,1-.48-.19,1.15,1.15,0,0,1-.32-.55.83.83,0,0,1,.15-.71,2.55,2.55,0,0,1,.38-.29.53.53,0,0,0,.17-.24.87.87,0,0,0,0-.57.39.39,0,0,0-.3-.27l-.12,0a.27.27,0,0,0-.12,0l-.06,0,0,0-.09.15c-.13.22-.24.28-.38.3a.36.36,0,0,1-.24-.1A.48.48,0,0,1,64.3,25a4.9,4.9,0,0,1-.12-.79,5,5,0,0,1,0-.55,3.16,3.16,0,0,1,.22-1,1.76,1.76,0,0,1,.49-.68c.38-.31.71-.25.71-.2s-.28.11-.54.44a2.32,2.32,0,0,0-.43,1.54,3.91,3.91,0,0,0,.05.48c0,.16,0,.12,0,.15s.07,0,.06,0h0l.08-.07A1.2,1.2,0,0,1,65,24.1a.8.8,0,0,1,.31-.07.68.68,0,0,1,.27,0,.88.88,0,0,1,.26.12,1.27,1.27,0,0,1,.5.72,1.61,1.61,0,0,1-.1,1.12,1.08,1.08,0,0,1-.37.42,2.72,2.72,0,0,0-.33.18.2.2,0,0,0-.07.2.58.58,0,0,0,.13.3.38.38,0,0,0,.5.09C66.45,27,66.54,26.67,66.59,26.7Z"/><path class="cls-19" d="M66.85,21.8c.28.26.59.32.69.14s0-.53-.33-.79-.59-.31-.69-.13S66.56,21.55,66.85,21.8Z"/><path class="cls-19" d="M65.76,20.55a.29.29,0,0,0,.15.33.2.2,0,0,0,.29-.11.32.32,0,0,0-.16-.34A.19.19,0,0,0,65.76,20.55Z"/><path class="cls-16" d="M50.06,29.91s0,.19,0,.37a1,1,0,0,0,.16.37.74.74,0,0,0,.37.19c.22,0,.4-.11.37-.14s-.18,0-.32-.05a.55.55,0,0,1-.22-.18,1.16,1.16,0,0,1-.18-.25C50.16,30.07,50.1,29.9,50.06,29.91Z"/><path class="cls-14" d="M48.69,28.34a5,5,0,0,1-3.91-.94s-1.07.72.89,1.4C48.28,29.71,48.69,28.34,48.69,28.34Z"/><path class="cls-16" d="M47.6,28.92a6.16,6.16,0,0,1-.81,0,5,5,0,0,1-1.67-.51c-.27-.15-.51-.35-.55-.56a.47.47,0,0,1,.21-.5,1.23,1.23,0,0,1,.44-.21l.2,0a1.94,1.94,0,0,1,.45,0,2.43,2.43,0,0,1,.55.07,1.42,1.42,0,0,1,.33.11,6.37,6.37,0,0,1,.73.42q0-.42,0-.9l0-.55c0-.37-.06-.75-.08-1.09A5.61,5.61,0,0,0,47.19,24a5.05,5.05,0,0,0-.11,1.22c0,.34,0,.73,0,1.1,0,.19,0,.38,0,.56s0,.07,0,.08,0,0-.06-.05a1.8,1.8,0,0,0-.4-.15,2.65,2.65,0,0,0-.66-.12,2,2,0,0,0-.56,0,1.71,1.71,0,0,0-.26.06,1.66,1.66,0,0,0-.61.34,1,1,0,0,0-.3.41.88.88,0,0,0,0,.6,1.39,1.39,0,0,0,.81.77,4.56,4.56,0,0,0,1.84.38C47.32,29.15,47.62,29,47.6,28.92Z"/><path class="cls-23" d="M45.81,27.46c0,.13.13.31.4.41s.52.08.57-.05-.13-.31-.4-.4S45.86,27.34,45.81,27.46Z"/><path class="cls-14" d="M41.05,26.13a1.67,1.67,0,0,0-.28-.18h0a4,4,0,0,0-.62-.31,5.1,5.1,0,0,0-1.07-.3l-.15,0a4.7,4.7,0,0,0-.63-.05,4.16,4.16,0,0,0-1.72.32l-.18.09a1.8,1.8,0,0,0-1,1.28,1.78,1.78,0,0,0,.44,1.41,4.13,4.13,0,0,0,2.16,1.24,3.15,3.15,0,0,0,.42.09,4.89,4.89,0,0,0,1.37,0,3.05,3.05,0,0,0,2-.9,1.54,1.54,0,0,0,.36-.75A2.12,2.12,0,0,0,41.05,26.13Zm17.3,1.76c-.07-.89-1-1.62-2.21-1.91a3,3,0,0,0-.54-.1,6,6,0,0,0-.74,0,5.81,5.81,0,0,0-1,.12l-.18.05h0a3.74,3.74,0,0,0-1.39.66,1.81,1.81,0,0,0-.81,1.44c0,1,1,1.75,2.31,2a.45.45,0,0,0,.16,0,4.43,4.43,0,0,0,1,.09,4.48,4.48,0,0,0,.64-.05,4,4,0,0,0,2-.82,1.81,1.81,0,0,0,.74-1.4A.34.34,0,0,0,58.35,27.89Z"/><path class="cls-14" d="M59,11.11c-9.78,8.6-22,3.72-22,3.72a15,15,0,0,0-1.4,3.88c.5-3.23,3-13.39,13.78-14,12.8-.74,16,9,16.14,15.05a2.46,2.46,0,0,1,1,.31,5.48,5.48,0,0,1-.78.72c-2,1-1.48,4.71-2.73,3.84s-.7-4.68-.7-4.68C59.84,18.07,59,11.11,59,11.11Z"/><path class="cls-24" d="M66,19.74a7.33,7.33,0,0,0,2.66-6.56C68.21,7.84,64.88,5.7,60.4,6.1c0,0-5-6.64-11.73-6.07S40.41,6.35,37.74,6.12s-3.52-1-3.52-1,.05,2.83,1.44,3.69a11.77,11.77,0,0,1-3-1,10,10,0,0,0,1.69,5.56s-1.38,3.2-.45,5.3a17.34,17.34,0,0,1,1.12,3s1.07-6,2.28-7.85c0,0,12.25,4.88,22-3.72,0,0,.85,7,3.22,8.83,0,0-.54,3.82.71,4.68S64,20.79,66,19.74Z"/><path class="cls-9" d="M60.33,22.43l.61-.29c.83-.39,1.65-.79,2.48-1.17l1.4-.65.63-.29c.12-.05.46-.27.56-.22l.28.13a.68.68,0,0,0-.36-.66c-.2-.09-.39,0-.58.12l-1.21.51c-1.38.58-2.76,1.16-4.14,1.72Z"/><path class="cls-25" d="M60.27,22.3c0-.09-.08-.2-.12-.31l4.63-1.93c.27-.11,1.25-.68,1.5-.31a.38.38,0,0,1,0,.15.29.29,0,0,0-.17,0l-.1,0c-.1,0-.44.17-.56.22l-.24.11-.17.08-.07,0-.15.07-.68.31-.48.22-.1,0-.14.07-1.62.76-.71.34h0l-.12.06-.61.29,0-.11Z"/><path class="cls-9" d="M48.51,22.82l.32-.8a5.72,5.72,0,0,0-4-.06l.36.79A5,5,0,0,1,48.51,22.82Z"/><path class="cls-25" d="M48.51,22.82a5,5,0,0,0-3.33-.07L45,22.4a5.79,5.79,0,0,1,3.63.08Z"/><path class="cls-11" d="M60.07,22.16s-6.08-3.73-11.33.3c0,0-.19,8.33,5.71,8.16S60.07,22.16,60.07,22.16Z"/><path class="cls-11" d="M51.72,20.94l4,9.51a5.89,5.89,0,0,1-1.23.17,4.13,4.13,0,0,1-.5,0l-3.9-9A8.63,8.63,0,0,1,51.72,20.94Z"/><path class="cls-11" d="M55.82,20.7l3,7.19a5.76,5.76,0,0,1-1.18,1.51l-3.82-8.8A11,11,0,0,1,55.82,20.7Z"/><path class="cls-11" d="M48.79,23.61c-.06-.7,0-1.15,0-1.15,5.25-4,11.33-.3,11.33-.3a12.49,12.49,0,0,1,0,1.37A10.4,10.4,0,0,1,48.79,23.61Z"/><path class="cls-9" d="M60.46,21.91l0,0-.15-.11L60,21.64h0c-1.23-.65-6.58-3.12-11.3.34h0l-.18.13-.16.12v.22s0,.14,0,.32c0,1.08.25,4.58,2.18,6.69a5,5,0,0,0,3.94,1.6h.24c5.43-.36,5.75-7.33,5.76-8.68v-.46Zm-2.11,6A5,5,0,0,1,57.46,29a4.22,4.22,0,0,1-2,1,5,5,0,0,1-1.07.14,3.17,3.17,0,0,1-.54,0h-.15a4,4,0,0,1-2.67-1.31,9.05,9.05,0,0,1-1.87-5c-.05-.5-.06-.91-.07-1.14A9.06,9.06,0,0,1,50.22,22a7.85,7.85,0,0,1,1.68-.67A8.28,8.28,0,0,1,54,21a10.93,10.93,0,0,1,2,.14,12.37,12.37,0,0,1,3.66,1.24,11.74,11.74,0,0,1-.08,1.36,10.59,10.59,0,0,1-1,3.64h0A4.17,4.17,0,0,1,58.35,27.89Z"/><path class="cls-25" d="M60,22.42v-.23l-.18-.11a11.84,11.84,0,0,0-4-1.36h0l-.4-.05h0a9,9,0,0,0-1.57-.05h0a8.63,8.63,0,0,0-2.07.35,8.54,8.54,0,0,0-1.67.71,9.53,9.53,0,0,0-1.08.71l-.15.12v.19s0,.42,0,1a9.47,9.47,0,0,0,2,5.5A4.53,4.53,0,0,0,53,30.47l.36.08c.14,0,.28.05.43.06h.91l.32,0,.38-.07c.14,0,.27-.06.4-.09l.06,0,.38-.12h0A6.17,6.17,0,0,0,57,29.9l.25-.17a1.49,1.49,0,0,0,.2-.15l.2-.17A3.68,3.68,0,0,0,58,29h0l0,0,0,0,0,0,.09-.11.07-.09.15-.21.13-.18.08-.14a2.54,2.54,0,0,0,.16-.28h0A11.06,11.06,0,0,0,60,23.57h0A11.35,11.35,0,0,0,60,22.42Zm-1.4,5h0a4.17,4.17,0,0,1-.26.46A5,5,0,0,1,57.46,29a4.22,4.22,0,0,1-2,1,5,5,0,0,1-1.07.14,3.17,3.17,0,0,1-.54,0h-.15a4,4,0,0,1-2.67-1.31,9.05,9.05,0,0,1-1.87-5c-.05-.5-.06-.91-.07-1.14A9.06,9.06,0,0,1,50.22,22a7.85,7.85,0,0,1,1.68-.67A8.28,8.28,0,0,1,54,21a10.93,10.93,0,0,1,2,.14,12.37,12.37,0,0,1,3.66,1.24,11.74,11.74,0,0,1-.08,1.36A10.59,10.59,0,0,1,58.61,27.42Z"/><path class="cls-11" d="M45,22.34s-5.76-4.22-11.33-.64c0,0-.88,8.28,5,8.61S45,22.34,45,22.34Z"/><path class="cls-11" d="M36.74,20.43l3.15,9.81a6.23,6.23,0,0,1-1.24.07l-.5,0L35,21A9.06,9.06,0,0,1,36.74,20.43Z"/><path class="cls-11" d="M40.84,20.54,43.22,28a6,6,0,0,1-1.3,1.41l-3.08-9.09A9.75,9.75,0,0,1,40.84,20.54Z"/><path class="cls-11" d="M33.59,22.85c0-.7,0-1.15,0-1.15,5.57-3.58,11.33.64,11.33.64a13,13,0,0,1-.17,1.36A10.39,10.39,0,0,1,33.59,22.85Z"/><path class="cls-9" d="M45.18,22l-.14-.1c-.83-.55-5.14-3.17-9.73-1.49h0a4,4,0,0,0-.54.21h0l-.18.09h0a4.11,4.11,0,0,0-.42.21q-.33.18-.66.39l-.17.11,0,.22a6.08,6.08,0,0,0,0,.81h0a.71.71,0,0,0,0,.15v.17a15.1,15.1,0,0,0,.09,1.66c0,.36.1.73.17,1.11a9.43,9.43,0,0,0,.37,1.33,2.77,2.77,0,0,0,.1.26,6.19,6.19,0,0,0,.91,1.65h0l.08.09a4.87,4.87,0,0,0,3.71,1.83h.24c5.32.1,6.3-6.53,6.46-8.06,0-.2,0-.31,0-.32v-.25ZM38,29.8a4,4,0,0,1-2.34-1.29,2.62,2.62,0,0,1-.22-.25,5.14,5.14,0,0,1-.69-1.18h0a5.2,5.2,0,0,1-.21-.55h0a8.89,8.89,0,0,1-.28-1c0-.27-.1-.54-.13-.81a10.45,10.45,0,0,1-.12-1.4v0a.66.66,0,0,1,0-.14h0c0-.51,0-.91,0-1.14a.87.87,0,0,1,.19-.1,5,5,0,0,1,.79-.41l.09-.05.07,0h0l.21-.08h0a8.11,8.11,0,0,1,1.5-.43A8.62,8.62,0,0,1,39,20.73,9.62,9.62,0,0,1,41,21a12.35,12.35,0,0,1,3.55,1.53c0,.28-.08.77-.2,1.36a10.63,10.63,0,0,1-1.28,3.55A5.51,5.51,0,0,1,41.78,29a4.23,4.23,0,0,1-2,.88,4.84,4.84,0,0,1-1.09.05A4.72,4.72,0,0,1,38,29.8Z"/><path class="cls-25" d="M44.71,22.25a12,12,0,0,0-3.86-1.69,11.85,11.85,0,0,0-1.24-.22l-.44,0h-.32a8.47,8.47,0,0,0-2.1.17,8.23,8.23,0,0,0-1.53.49.05.05,0,0,0,0,0h0a.13.13,0,0,0-.08,0h0a0,0,0,0,0,0,0,0,0,0,0,0,0,0s0,0,0,0a.61.61,0,0,0-.14.07h0a7.73,7.73,0,0,0-.69.37l-.3.18-.16.1,0,.19s0,.39,0,.89V23c0,.17,0,.36,0,.56s0,.35,0,.54,0,.5.08.76a2.34,2.34,0,0,0,0,.26c0,.27.1.54.16.82s.11.39.18.59h0a4,4,0,0,0,.15.45,6.69,6.69,0,0,0,.44.94h0a5.79,5.79,0,0,0,.41.6l.18.21a4.41,4.41,0,0,0,1.29,1l.5.22.21.07.22.06.05,0,.22.05h0l.27,0h.08l.16,0a2.4,2.4,0,0,0,.28,0h.22a5,5,0,0,0,.55,0,3.32,3.32,0,0,0,.44-.06s0,0,.09,0l.44-.11.41-.14a3,3,0,0,0,.36-.16,3.91,3.91,0,0,0,.73-.46l0,0,0,0,0,0,.27-.23,0,0,.28-.27.06-.07.14-.16.07-.08a1.13,1.13,0,0,1,.1-.13l.07-.09.21-.3a11.44,11.44,0,0,0,1.52-4.21h0a9.76,9.76,0,0,0,.13-1.13l0-.23Zm-1.64,5.23A5.51,5.51,0,0,1,41.78,29a4.23,4.23,0,0,1-2,.88,4.84,4.84,0,0,1-1.09.05A4.72,4.72,0,0,1,38,29.8a4,4,0,0,1-2.34-1.29,2.62,2.62,0,0,1-.22-.25,5.14,5.14,0,0,1-.69-1.18h0a5.2,5.2,0,0,1-.21-.55h0a8.89,8.89,0,0,1-.28-1c0-.27-.1-.54-.13-.81a10.45,10.45,0,0,1-.12-1.4v0a.66.66,0,0,1,0-.14h0c0-.51,0-.91,0-1.14a.87.87,0,0,1,.19-.1,5,5,0,0,1,.79-.41l.09-.05.07,0h0l.21-.08h0a8.11,8.11,0,0,1,1.5-.43A8.62,8.62,0,0,1,39,20.73,9.62,9.62,0,0,1,41,21a12.35,12.35,0,0,1,3.55,1.53c0,.28-.08.77-.2,1.36A10.63,10.63,0,0,1,43.07,27.48Z"/><path class="cls-24" d="M54.7,18.13c.06.09.42,0,.75,0a17.66,17.66,0,0,1,1.19.38c.3.16.54.45.64.41s0-.48-.25-.83a1.8,1.8,0,0,0-.47-.42l-.26-.14-.29,0a1.72,1.72,0,0,0-.62.06C54.94,17.72,54.63,18,54.7,18.13Z"/><path class="cls-24" d="M39,18c.09.08.42-.13.74-.26a1.71,1.71,0,0,1,.6-.16l.15,0a1,1,0,0,1,.39,0,1.19,1.19,0,0,1,.4.15c.1.06.18.13.23.11s.08-.13,0-.3a1,1,0,0,0-.42-.48,1.38,1.38,0,0,0-.63-.21,1.3,1.3,0,0,0-.31,0,2,2,0,0,0-.27.12,1.76,1.76,0,0,0-.49.36C39.13,17.53,39,17.89,39,18Z"/><path class="cls-26" d="M35.75,18s0,0,0,0l0,.05-.06,0a1.09,1.09,0,0,1-.45,0,1.11,1.11,0,0,1-.26-.07L34.78,18a1.15,1.15,0,0,1-.17-.11,1.07,1.07,0,0,1-.16-.12,1.77,1.77,0,0,1-.32-.34,4.92,4.92,0,0,0-.41-.57,1.53,1.53,0,0,0,.25.68,2,2,0,0,0,.31.41,1.88,1.88,0,0,0,.18.16l.21.11.24.08a1.27,1.27,0,0,0,.28,0,.85.85,0,0,0,.43-.1h0a.05.05,0,0,0,0,0h0a.18.18,0,0,0,.09-.06s0,0,0,0a.19.19,0,0,1,0-.07A.06.06,0,0,0,35.75,18Zm.76-1.16a1.65,1.65,0,0,1-.38,0h0l-.14,0h0l-.12,0a1.8,1.8,0,0,1-.58-.36A2.73,2.73,0,0,1,35,16.2l0,0L34.8,16c-.12-.15-.27-.37-.41-.59s-.28-.45-.36-.63a.75.75,0,0,1-.08-.22h0s0-.07,0-.07,0,.09,0,.23v0l0,.09a4.74,4.74,0,0,0,.3.68,5.37,5.37,0,0,0,.37.65,2.26,2.26,0,0,0,.22.27,1.64,1.64,0,0,0,.18.17l.08.07a1.94,1.94,0,0,0,.69.34l.13,0h0L36,17h.05a1.22,1.22,0,0,0,.44,0,.61.61,0,0,0,.3-.16S36.7,16.85,36.51,16.87Zm28,5.58-.11-.06h0a3.93,3.93,0,0,1-.6-.44,4.09,4.09,0,0,1-.66-.82h0a2,2,0,0,1-.17-.28c0-.1-.11-.22-.16-.35a2.83,2.83,0,0,1-.11-.31,3.83,3.83,0,0,1-.13-.85h0v0a.72.72,0,0,0,0-.18,2.06,2.06,0,0,0,0,1.1v.08c0,.1.06.17.1.28a3.58,3.58,0,0,0,.13.36,2.67,2.67,0,0,0,.15.3.11.11,0,0,0,0,0,3.84,3.84,0,0,0,.77.82,2.43,2.43,0,0,0,.68.37h0a0,0,0,0,0,0,0l.11,0a.7.7,0,0,0,.19,0S64.57,22.5,64.48,22.45ZM64.73,18a2.19,2.19,0,0,0-.1.48c0,.06,0,.13,0,.19a3.46,3.46,0,0,1-.25.63,3.35,3.35,0,0,1-.31.59L64,20c-.17.23-.36.42-.36.46a1.39,1.39,0,0,0,.57-.43l.15-.18a3.34,3.34,0,0,0,.26-.42s0-.11.1-.26v0a3.94,3.94,0,0,0,.08-.42A1.38,1.38,0,0,0,64.73,18Zm2.94-4v-.05a2.13,2.13,0,0,0-.1-.6s0,.36,0,.82c0,.19,0,.41-.06.62a8,8,0,0,1-.36,1.39,7.84,7.84,0,0,1-.56,1.31c-.33.61-.8,1.15-.8,1.2a4.13,4.13,0,0,0,1-1.1,6.93,6.93,0,0,0,.66-1.33s.06-.19.13-.48a7.09,7.09,0,0,0,.16-1A4.54,4.54,0,0,0,67.67,14Zm-4.4,5a16.74,16.74,0,0,1-1.22-1.61,18.54,18.54,0,0,1-1-1.76c-.12-.24-.2-.45-.26-.6h0c-.07-.15-.1-.23-.1-.23s0-.08-.1-.23-.15-.36-.23-.62A16.39,16.39,0,0,1,59.83,12l-.09-.51c-.09-.54-.15-1.07-.18-1.49s0-.92-.06-.92a.87.87,0,0,0,0,.25c0,.17,0,.4,0,.68a12.16,12.16,0,0,0,.11,1.48l0,.19c0,.12,0,.24,0,.36A14.42,14.42,0,0,0,60,13.56a.19.19,0,0,0,0,.07v0c0,.06,0,.13,0,.19v0h0v0a.36.36,0,0,0,0,.09c.07.24.16.45.21.59l0,0a1.78,1.78,0,0,0,.09.24l.1.24c.07.14.16.36.29.61a16.5,16.5,0,0,0,1,1.76A13.39,13.39,0,0,0,63.19,19a6.37,6.37,0,0,0,.49.47l.19.16S63.62,19.37,63.27,19ZM37.13,14.12h0l-.3,0h0a2.21,2.21,0,0,1-.79-.24,3.13,3.13,0,0,1-.67-.48l-.27-.27-.27-.28c-.15-.17-.36-.4-.55-.64-.38-.49-.7-1-.74-1a4,4,0,0,0,.59,1.12c.17.26.36.51.51.7l.26.3.3.27a3.19,3.19,0,0,0,.76.46,2.09,2.09,0,0,0,.87.17,1.65,1.65,0,0,0,.33,0l.06,0Zm3.09-.95c-.41-.14-.95-.34-1.48-.58-.35-.15-.69-.32-1-.48h0c-.61-.32-1.05-.59-1.05-.59a12.36,12.36,0,0,1-1.9-1.28,7.65,7.65,0,0,1-1.1-1.13c-.25-.34-.39-.59-.42-.59a2,2,0,0,0,.34.65,6.2,6.2,0,0,0,1,1.21,11.47,11.47,0,0,0,1.28,1l.62.39s.45.26,1.07.55h0c.31.15.67.31,1,.45a14.79,14.79,0,0,0,1.52.5,3,3,0,0,0,.71.14A7.05,7.05,0,0,0,40.22,13.17ZM46.6,3.07,46,3.55l-.61.51a4.12,4.12,0,0,0-.6.52,2.86,2.86,0,0,0,.71-.37c.34-.21.66-.45.66-.45s.31-.26.59-.54a2.68,2.68,0,0,0,.52-.61A3.23,3.23,0,0,0,46.6,3.07Zm-4.3,6.7-.48,0c-.39,0-.84,0-1.29,0a12.38,12.38,0,0,1-1.26-.06h0a3.46,3.46,0,0,1-.49-.06A5.71,5.71,0,0,1,38,9.54a3.77,3.77,0,0,1-.74-.28,4.14,4.14,0,0,1-1.34-1.08A9.3,9.3,0,0,1,35,6.7c-.23-.41-.37-.7-.39-.7a5.22,5.22,0,0,0,.3.75,8,8,0,0,0,.89,1.55,4.13,4.13,0,0,0,1.38,1.18,3.76,3.76,0,0,0,.77.32,5,5,0,0,0,.81.16l.37,0a11,11,0,0,0,1.43,0L41,10c.47,0,.92-.09,1.27-.15a4.13,4.13,0,0,0,.8-.17A6.22,6.22,0,0,0,42.3,9.77ZM41.87,6.9c-.4.09-.94.2-1.48.28a10.28,10.28,0,0,1-1.5.08c-.4,0-.67-.06-.67-.06a5.76,5.76,0,0,1-.66-.1,6,6,0,0,1-1.4-.51A4.52,4.52,0,0,1,35,5.69l-.24-.28h0c-.11-.14-.17-.23-.19-.23a.68.68,0,0,0,.08.17h0a0,0,0,0,1,0,0,1.55,1.55,0,0,0,.26.4,4.57,4.57,0,0,0,1.17,1,5.8,5.8,0,0,0,1.43.58,5.87,5.87,0,0,0,.69.13s.28,0,.7,0a9,9,0,0,0,1.53-.15A12.39,12.39,0,0,0,41.9,7a3.2,3.2,0,0,0,.64-.24A4.8,4.8,0,0,0,41.87,6.9ZM56.39,9.77l-.43.31-.52.35-.17.1c-.29.18-.6.36-.92.53a17.64,17.64,0,0,1-2.21,1c-.31.12-.57.18-.76.24l-.28.09-.29.08c-.19.05-.45.13-.77.2a18.57,18.57,0,0,1-2.38.36,17.68,17.68,0,0,1-2.42,0c-.66-.05-1.09-.11-1.1-.09a1.06,1.06,0,0,0,.3.07c.19,0,.46.1.79.13a16.85,16.85,0,0,0,2.44.08,16.69,16.69,0,0,0,2.42-.31c.33-.06.6-.14.79-.18l.29-.08.29-.09c.19-.07.46-.14.76-.27a16.82,16.82,0,0,0,2.22-1,16,16,0,0,0,2-1.36h0c.27-.21.46-.41.6-.53a1.77,1.77,0,0,0,.22-.22S56.9,9.39,56.39,9.77Zm1.24-3a2.79,2.79,0,0,0-.49-.49A2.74,2.74,0,0,0,56.52,6a1.39,1.39,0,0,0-.67-.09,5.31,5.31,0,0,0,.6.26,4.21,4.21,0,0,1,.54.34,3.61,3.61,0,0,1,.5.39c.22.21.41.48.45.48A1.29,1.29,0,0,0,57.63,6.8Zm1.26-.32c0-.12-.13-.3-.24-.51a7.56,7.56,0,0,0-.55-.86c-.14-.18-.29-.37-.45-.55a8.77,8.77,0,0,0-1.3-1.16C56,3.12,55.7,3,55.7,3s-.28-.16-.7-.37A12.92,12.92,0,0,0,53.39,2a13.68,13.68,0,0,0-1.68-.42,3.66,3.66,0,0,0-.77-.11,7.35,7.35,0,0,0,.75.21c.45.12,1.05.29,1.63.5a11.86,11.86,0,0,1,1.56.68c.42.21.68.37.68.37a9.22,9.22,0,0,1,1.95,1.5l.24.26A6.85,6.85,0,0,1,58.56,6c.22.34.35.6.39.66A.86.86,0,0,0,58.89,6.48Zm2.27,3.57a2.83,2.83,0,0,0-.29-.56,2.74,2.74,0,0,0-.46-.44c-.25-.19-.54-.31-.56-.27s.23.2.44.42a3.81,3.81,0,0,1,.36.45,3.54,3.54,0,0,1,.34.48c.15.25.25.53.28.53A1.05,1.05,0,0,0,61.16,10.05Zm3.92,2.77a.29.29,0,0,0,0-.09v0a7.46,7.46,0,0,0-.49-1.55c-.1-.2-.18-.36-.23-.48l-.08-.13s0,0,0,0-.15-.25-.42-.61A7.08,7.08,0,0,0,62.7,8.71a5.06,5.06,0,0,0-1.38-.84,1.2,1.2,0,0,0-.73-.08,2.44,2.44,0,0,1,.69.18,5.42,5.42,0,0,1,1.3.88,7.58,7.58,0,0,1,1,1.18,5.59,5.59,0,0,1,.38.6l.11.17c0,.11.14.27.24.46a8.38,8.38,0,0,1,.43,1.14l.09.34a6.61,6.61,0,0,1,.19,1.56c0,.44,0,.72,0,.73a.69.69,0,0,0,0-.2,4.4,4.4,0,0,0,.06-.53A6.54,6.54,0,0,0,65.08,12.82ZM64.8,8.46A4.48,4.48,0,0,0,64,7.7a4.39,4.39,0,0,0-1-.45,2.18,2.18,0,0,0-.77-.1.58.58,0,0,0-.33.1s.14,0,.33,0a2.34,2.34,0,0,1,.71.17,4.52,4.52,0,0,1,.94.5,4.55,4.55,0,0,1,.84.66c.38.36.66.82.71.82A2.6,2.6,0,0,0,64.8,8.46Z"/><path class="cls-27" d="M67.85,16.26c-.22,0-.32-.17-.35-.5A7.7,7.7,0,0,1,67.67,14s0-.05,0-.07v0h0l-.14.21a12.72,12.72,0,0,1-2.32,2.93,1.3,1.3,0,0,1-.69.32c-.81.05-2.64-1.45-3.71-2.4h0l-.46-.41-.08-.08c.13.44.27.89.43,1.32.07.19.14.38.22.57l0,.06c.08.21.17.4.26.59s.2.38.3.56.11.18.17.26l.21.31a3,3,0,0,0,.22.28,3.39,3.39,0,0,0,.47.46s0,.05,0,.15,0,.14,0,.24v0h0c0,.23-.05.54-.06.89v.08c0,.11,0,.19,0,.32s0,.27,0,.41a1.15,1.15,0,0,0,0,.19.59.59,0,0,0,0,.19c0,.25,0,.48.08.71,0,0,0,.05,0,.07a.43.43,0,0,0,0,0,0,0,0,0,0,0,0,1.6,1.6,0,0,0,0,.21l.06.22a.58.58,0,0,0,0,.14,1.45,1.45,0,0,0,.09.22l0,.08a2.1,2.1,0,0,0,.15.22l0,0a.8.8,0,0,0,.21.2c.19.13.34.16.46.1s0,0,.06,0l.05,0a.4.4,0,0,0,.1-.12l.09-.16h0s0,0,0,0a5.6,5.6,0,0,0,.29-.83.29.29,0,0,0,0-.09h0s0,0,0,0h0a10.68,10.68,0,0,1,.39-1.12l.12-.25a2.59,2.59,0,0,1,.19-.33,2.42,2.42,0,0,1,.27-.36.34.34,0,0,1,.08-.09.76.76,0,0,1,.09-.09h0L65.6,20l.16-.13,0,0,0,0h0l.13-.08.12-.09.08-.07.1-.09.12-.11a1.88,1.88,0,0,0,.2-.2,2.66,2.66,0,0,0,.23-.24c.15-.18.32-.39.49-.63a7.2,7.2,0,0,0,.92-1.8,7.39,7.39,0,0,0,.3-1.17,1.2,1.2,0,0,0,0-.2.29.29,0,0,0,0-.09c0-.12,0-.23,0-.35s0-.22,0-.34a6,6,0,0,0,0-.6C68.56,14.77,68.29,16.17,67.85,16.26Zm-29.13-5c.2-.5,1.22-.94,2.32-1.27.25-.08.52-.15.78-.21C43,9.5,44,9.33,44,9.33s-3.24-.22-3.77-.63c-.06,0-.09-.1-.06-.15a4.57,4.57,0,0,1,1.26-1,.05.05,0,0,1,0,0l.06,0a24.62,24.62,0,0,1,2.32-1.3l-.47.09h0c-.93.14-2.32.22-2.82-.22s.05-1.31.6-2.17L41,4.1c-.09.09-.18.17-.26.26l-.2.19s0,0,0,0L40.08,5c-.13.13-.27.25-.4.36l-.4.32-.39.23-.14.08h0l-.29.11-.15,0-.16,0-.23,0h-.17l-.62-.07L36.68,6l-.25,0a2.84,2.84,0,0,1-.31-.06l-.44-.12-.38-.12-.13,0-.35-.15-.08,0h0l-.09,0a0,0,0,0,0,0,0h0a1.62,1.62,0,0,1-.39-.25s.05,2.8,1.41,3.67l-.17,0-.14,0L35,8.61h0l-.31-.08a11.35,11.35,0,0,1-1.17-.38L33.08,8a3,3,0,0,1-.4-.22,10,10,0,0,0,1.68,5.56.82.82,0,0,1,0,.11l-.08.2a.24.24,0,0,1,0,.08l.24.19A4.1,4.1,0,0,1,35,16.18a2.29,2.29,0,0,1,0,.37,9.66,9.66,0,0,1-.06,1.55l0,.23a2.4,2.4,0,0,1-.27.9.53.53,0,0,1-.37.21l.09.23c.09.21.16.4.22.57a1.52,1.52,0,0,1,.09.25,1.21,1.21,0,0,1,0,.14h0c0,.07.05.14.07.21h0a.7.7,0,0,1,.06.17.14.14,0,0,1,0,.06.56.56,0,0,1,0,.12,1,1,0,0,1,0,.14q0-.12.09-.27a.43.43,0,0,0,0-.05h0v0h0s0,0,0-.06h0c0-.15.1-.32.17-.5,0,0,0,0,0,0a.19.19,0,0,1,0-.07l.09-.41a.44.44,0,0,1,0-.1s0,0,0-.06a.29.29,0,0,0,0-.09s0,0,0-.05l.06-.29c0-.2.09-.41.14-.62s.05-.21.08-.32a2,2,0,0,0,.05-.24s0,0,0,0a.19.19,0,0,1,0-.07c0-.22.1-.44.17-.66a2,2,0,0,1,.09-.33.24.24,0,0,1,0-.08.83.83,0,0,1,0-.15l.12-.43,0-.12s0,0,0,0,0,0,0,0,0,0,0,0,0-.07,0-.11c.06-.21.13-.41.2-.61l.21-.57c0-.09.07-.18.11-.26a3.51,3.51,0,0,1,.22-.48l0,0s0,0,0,0L37.2,14l.11-.18.24.09.23.08.48.15.39.11.22.06.49.13.45.1.39.09.1,0c.37.08.77.15,1.19.22l.15,0,.54.08,2.08.09S38.25,12.46,38.72,11.29Zm27.41-.9S64.53,8,65,7.66c.26-.2,1.29.32,2,.72-.06-.08-.13-.15-.19-.22l0,0a4,4,0,0,0-.29-.29,6.57,6.57,0,0,0-.57-.48c-.2-.14-.4-.27-.61-.39l0,0-.1,0-.07,0-.47-.22a5,5,0,0,0-.65-.23l-.17,0-.2-.06-.32-.07-.19,0h-.09l-.38,0-.38,0a10.64,10.64,0,0,0-1.78,0s-.11-.15-.33-.4l-.3-.35c-.11-.13-.24-.27-.4-.43l-.48-.49a1,1,0,0,0-.15-.14c0,.1.06.2.1.3.25.73-.14.78-.74.51A2.14,2.14,0,0,1,57.75,5a17.19,17.19,0,0,1-2.09-1.38l-.27-.19.45.39h0a9.81,9.81,0,0,1,1.29,1.36c.26.35-.27.4-1,.32h0c-.34,0-.72-.09-1.11-.15a4.32,4.32,0,0,1-.54-.1c-.9-.18-1.72-.37-1.89-.41a12.27,12.27,0,0,1,3.55,1.85c1.45,1.11-.22,3.21-.82,3.88l-.16.18.33-.28.52-.35a3.48,3.48,0,0,1,.48-.21h0a1.65,1.65,0,0,1,1.29,0c.74.36-.89,1.82-2.22,2.87l.54-.3c.28-.15.56-.32.83-.5l.63-.42.16-.11.73-.55.07-.06q.44-.34.87-.72a.45.45,0,0,0,0,.08s0,.12,0,.22,0,.26.07.44,0,.28.07.45,0,.24.07.38l0,.16a1.6,1.6,0,0,1,.11-.35,1,1,0,0,1,.37-.52c1-.61,2.21,1.53,2.34,1.77-.06-.22-.58-2,0-2.43h0a.13.13,0,0,1,.08,0h0c.52-.05,1.65,1.38,2.23,2.17l.3.42s0,0,0,.06a1.13,1.13,0,0,1-.07-.15c-.15-.39-.54-1.35-.8-2.19,0,0,0,0,0,0C64,9.82,63.9,9.23,64,9.09,64.36,8.71,66.13,10.39,66.13,10.39Z"/><g class="cls-28"><path class="cls-24" d="M66.52,8.64c.87.94,2,2.4,1.67,3.77a.25.25,0,0,1-.44.09A12.91,12.91,0,0,1,67,10.9,8.76,8.76,0,0,0,66,9.14c-.27-.34.27-.83.57-.5Z"/><path class="cls-24" d="M65.94,10.57a2.52,2.52,0,0,1,1.23,1.66c.15.63.17,1.74-.61,2-1.42.43-1.52-2.43-1.4-3.26a.54.54,0,0,1,.78-.37Z"/><path class="cls-24" d="M63.28,11.27c.52.19.88,1,1,1.54a3.84,3.84,0,0,1,0,2.15.21.21,0,0,1-.39,0c-.2-.63-.42-1.26-.56-1.91a4.29,4.29,0,0,1-.26-1.72.12.12,0,0,1,.17-.08Z"/><path class="cls-24" d="M61.2,12a2.75,2.75,0,0,0,0,.31c0,.19,0,.38.07.56a3.36,3.36,0,0,1,0,.95.22.22,0,0,1-.4.08A8.3,8.3,0,0,1,60.16,12l.26.3-.09-.05a.66.66,0,0,1,.08-1.19c.49-.17,1.11.4.79.9Z"/><path class="cls-24" d="M55.54,5.3c-1.11.11-2.13-.49-3.18-.76a11.31,11.31,0,0,0-3.62-.21.57.57,0,0,1-.47-.93c1.73-2.18,6.45-1.56,7.84.73a.76.76,0,0,1-.57,1.17Z"/><path class="cls-24" d="M46.31,2a6.69,6.69,0,0,0-.92.69,3.81,3.81,0,0,1-.89.66c-.25.11-.42-.18-.34-.39.28-.8,1.36-1.06,2.1-1.11a.08.08,0,0,1,.05.15Z"/><path class="cls-24" d="M56.29,11.09c-1.89,2.17-5.46,3.39-8.26,3.62-.19,0-.27-.3-.07-.35a25.52,25.52,0,0,0,4-1.25c1.44-.65,2.69-1.59,4.08-2.29.18-.09.39.1.24.27Z"/><path class="cls-24" d="M55.83,8.74c-2.29,3.07-9.4,4.39-12.75,2.78a.41.41,0,0,1,.05-.75c2.15-.52,4.35-.33,6.51-.87,2-.49,3.78-1.69,5.76-2,.49-.09.67.55.43.87Z"/><path class="cls-24" d="M41.06,11.55a1.7,1.7,0,0,0-.5-.05.77.77,0,0,1-.52,0A.29.29,0,0,1,40,11c.3-.34.92-.13,1.27,0a.26.26,0,0,1-.17.49Z"/><path class="cls-24" d="M50.73,6.78a5.55,5.55,0,0,1-1.47.28,16,16,0,0,0-2.47.76A6.87,6.87,0,0,1,43,8.48a.6.6,0,0,1-.41-.84c.9-1.61,2.81-2,4.5-2.32,1.24-.22,3.42-.68,3.91.9a.45.45,0,0,1-.27.56Z"/><path class="cls-24" d="M41.71,8.39a1.27,1.27,0,0,1-.45.19,2.3,2.3,0,0,1-.45-.05c-.17,0-.18-.24-.07-.33A2.8,2.8,0,0,1,41.09,8a1.14,1.14,0,0,1,.44-.08c.27,0,.44.39.18.52Z"/></g><path class="cls-6" d="M53.89,40.5l-.1,0c.22,0-.31,1.67-.41,1.88a4.55,4.55,0,0,1-1.2,1.42,4.34,4.34,0,0,1-3.5,1,3.53,3.53,0,0,1-2.1-1.1A4,4,0,0,1,45.83,41a12.68,12.68,0,0,0-2.15,4.1c-.35,1.33.5,5.19,2.41,4.08,1-.56,1.81-2.55,2.49-3.61,0,0,2.65,4.07,3.45,4.11,1.5.06,2.67-2.14,3.13-3.28.73-1.86.77-4.14-.84-5.55A1.76,1.76,0,0,0,53.89,40.5Z"/><path class="cls-3" d="M54,39.7l-.11,0c.22.05-.3,1.67-.41,1.88A4.42,4.42,0,0,1,52.27,43a4.32,4.32,0,0,1-3.49,1,3.48,3.48,0,0,1-2.1-1.1,4,4,0,0,1-.76-2.68,12.65,12.65,0,0,0-2.14,4.1c-.36,1.33.49,5.19,2.4,4.08,1-.56,1.81-2.55,2.49-3.61,0,0,2.65,4.07,3.45,4.11,1.51.06,2.68-2.14,3.13-3.28.74-1.86.78-4.14-.84-5.55A1.91,1.91,0,0,0,54,39.7Z"/><path class="cls-6" d="M52.09,47.67c2.51-.73,1.39-4.8,1.39-4.8s-1.12,2.47-4.81,1.58-2.81-3.66-2.75-4.27a4,4,0,0,0,.76,2.68,3.48,3.48,0,0,0,2.1,1.1,4.32,4.32,0,0,0,3.49-1,4.42,4.42,0,0,0,1.2-1.42c.11-.21.63-1.83.41-1.88l.11,0a1.91,1.91,0,0,1,.42.33c1.62,1.41,1.58,3.69.84,5.55-.45,1.14-1.62,3.34-3.13,3.28-.28,0-.81-.55-1.36-1.22A2.06,2.06,0,0,0,52.09,47.67Z"/><path class="cls-6" d="M48.67,44.75c-.68,1.06-1.51,3-2.49,3.61-1.62.94-2.48-1.7-2.48-3.34A6.69,6.69,0,0,0,45,47.66C46.11,48.69,48.67,44.75,48.67,44.75Z"/><path class="cls-16" d="M6.54,69.31a.87.87,0,0,1-.61-.19,1.83,1.83,0,0,1-.73-1.2,2.66,2.66,0,0,1,.2-1.42,3.66,3.66,0,0,1,.29-.57,2.9,2.9,0,0,1,.42-.51A3,3,0,0,1,6.63,65c.08,0,0-.28.06-.55a2.26,2.26,0,0,1,.95-1.73A3.54,3.54,0,0,0,7,64.51a2.11,2.11,0,0,0,0,.35.59.59,0,0,1-.16.48,2.36,2.36,0,0,0-.47.38,3.13,3.13,0,0,0-.34.46,3.47,3.47,0,0,0-.29.5,2.34,2.34,0,0,0-.26,1.2A1.66,1.66,0,0,0,6.05,69C6.3,69.21,6.55,69.27,6.54,69.31Z"/><path class="cls-16" d="M5.65,62.9s-.15.07-.3.22a2.88,2.88,0,0,0-.43.67c-.27.55-.5,1.11-.5,1.11A8.33,8.33,0,0,0,4,66c-.2.57-.25,1.17-.31,1.18a2.27,2.27,0,0,1,0-1.26A6.86,6.86,0,0,1,4,64.7a9.46,9.46,0,0,1,.64-1.07,2.15,2.15,0,0,1,.6-.66C5.47,62.84,5.65,62.87,5.65,62.9Z"/><path class="cls-16" d="M5,63.14c0,.07-.38.17-.77.23a7,7,0,0,1-.78.07,7.18,7.18,0,0,1-.79-.11c-.39-.08-.76-.2-.75-.26s.4-.06.78-.07l.77,0,.76.07C4.59,63.06,5,63.08,5,63.14Z"/><path class="cls-16" d="M3.93,64.4c0,.06-.42.19-.79.45l-.76.51a3.54,3.54,0,0,1-.92.3c-.5.11-1-.1-.95-.16a5.66,5.66,0,0,0,.87-.16,3.87,3.87,0,0,0,.77-.4s.4-.2.84-.39S3.93,64.33,3.93,64.4Z"/><path class="cls-16" d="M3.58,65.78A12.11,12.11,0,0,1,2,67.28l-.28.19a3.75,3.75,0,0,1-.68.38,1.25,1.25,0,0,1-.8.07c-.22-.07-.3-.21-.28-.23s.14,0,.32.06a1.25,1.25,0,0,0,.62-.2,2.84,2.84,0,0,0,.55-.43l.26-.22A11.34,11.34,0,0,1,3.58,65.78Z"/><path class="cls-29" d="M79.18,84.74H52.8l-.42.11-.11-.11H48.35l-.11-.08-1.13-.89c-2.9-2.28-5-4.07-4.88-4.34s1.35-1.71,3.05-3.67l1.23-1.38h0l0-.05.61-.69.19-.21.5-.55s0,0,0-.05h0c1.54-1.72,3.22-3.56,4.79-5.22l.94-1a5.16,5.16,0,0,0,.4-.42.89.89,0,0,0,.14-.13,45.67,45.67,0,0,1,3.57-3.41l.32.33.48.5.19.19.24.25.12.13,0,0,2.47,2.55,1.61,1.65h0l.16.17,1.08,1.1h0l0,0h0l5.69,5.86h0L71.63,77h0l.45.46.18.18.35.36L76,81.48l1,1,0,0,.68.7Z"/><path class="cls-30" d="M79.18,84.74H52.8l-.42.11-.11-.11H48.35l-.11-.08-1.13-.89c-2.9-2.28-5-4.07-4.88-4.34s1.35-1.71,3.05-3.67l1.23-1.38h0l0-.05.61-.69.19-.21.5-.55s0,0,0-.05h0c1.54-1.72,3.22-3.56,4.79-5.22l.94-1a5.16,5.16,0,0,0,.4-.42.89.89,0,0,0,.14-.13,45.67,45.67,0,0,1,3.57-3.41l.32.33.48.5.19.19.24.25.12.13,0,0,2.47,2.55,1.61,1.65h0l.16.17,1.08,1.1h0l0,0h0l5.69,5.86h0L71.63,77h0l.45.46.18.18.35.36L76,81.48l1,1,0,0,.68.7Z"/><path class="cls-30" d="M79.18,84.74H69.11a13.45,13.45,0,0,0-.27-2.27c0-.15-.06-.3-.09-.46-.1-.43-.21-.87-.34-1.33a49.54,49.54,0,0,0-4.11-9.45h0s0,0,0,0c-.38-.7-.77-1.39-1.16-2.07-.5-.85-1-1.68-1.49-2.48l1.61,1.67h0l.16.17,1.08,1.1h0l0,.05,5.69,5.86h0L71.63,77h0l.45.46.18.18.35.36L76,81.48l1,1,0,0,.68.7Z"/><path class="cls-31" d="M77.84,84.74h-25l-.42.11-.11-.11H50l-.44-.37L48,83c-2.73-2.34-4.76-4.2-4.61-4.46a17.5,17.5,0,0,1,1.22-1.39l1-1,.13-.14.42-.44.25-.26.52-.55.46-.47.21-.22c.11-.11.22-.23.35-.35h0l.49-.5a0,0,0,0,1,0,0l.3-.31h0a.12.12,0,0,0,0,0l1.33-1.35h0l.9-.9,0,0,1.43-1.42.25-.26a0,0,0,0,0,0,0l.12-.11,1-1,.41-.39c1.75-1.69,3.31-3.12,4.31-3.89l.24-.18.17.19.23.27h0l.11.13,0,0,3.87,4.36h0l.16.17,1.07,1.2,0,0h0l5.91,6.66a0,0,0,0,1,0,0l.87,1h0l.63.71.27.3.07.08,3.32,3.73,1.54,1.74Z"/><path class="cls-32" d="M77.84,84.74h-25l-.42.11-.11-.11H50l-.44-.37L48,83c-2.73-2.34-4.76-4.2-4.61-4.46a17.5,17.5,0,0,1,1.22-1.39l1-1,.13-.14.42-.44.25-.26.52-.55.46-.47.21-.22c.11-.11.22-.23.35-.35h0l.49-.5a0,0,0,0,1,0,0l.3-.31h0a.12.12,0,0,0,0,0l1.33-1.35h0l.9-.9,0,0,1.43-1.42.25-.26a0,0,0,0,0,0,0l.12-.11,1-1,.41-.39c1.75-1.69,3.31-3.12,4.31-3.89l.24-.18.17.19.23.27h0l.11.13,0,0,3.87,4.36h0l.16.17,1.07,1.2,0,0h0l5.91,6.66a0,0,0,0,1,0,0l.87,1h0l.63.71.27.3.07.08,3.32,3.73,1.54,1.74Z"/><path class="cls-32" d="M77.84,84.74h-25l-.42.11-.11-.11H50l-.44-.37L48,83c-2.73-2.34-4.76-4.2-4.61-4.46a17.5,17.5,0,0,1,1.22-1.39l1-1,.13-.14.42-.44.25-.26.52-.55.46-.47.21-.22c.11-.11.22-.23.35-.35h0l.49-.5a0,0,0,0,1,0,0l.3-.31h0a.12.12,0,0,0,0,0l1.33-1.35h0l.9-.9,0,0,1.43-1.42.25-.26a0,0,0,0,0,0,0l.12-.11,1-1,.41-.39c1.75-1.69,3.31-3.12,4.31-3.89l.24-.18.17.19.23.27h0l.11.13,0,0,3.87,4.36h0l.16.17,1.07,1.2,0,0h0l5.91,6.66a0,0,0,0,1,0,0l.87,1h0l.63.71.27.3.07.08,3.32,3.73,1.54,1.74Z"/><path class="cls-32" d="M77.84,84.74h-25l-.42.11-.11-.11-.06,0L51.49,84l-.17-.15L51,83.61l-1.59-1.49-1.13-1.07-.69-.67a35.2,35.2,0,0,1-3.06-3.19l1-1,.13-.14.42-.44.25-.26.52-.55.46-.47.21-.22c.11-.11.22-.23.35-.35h0l.49-.5a0,0,0,0,1,0,0l.3-.31h0a.12.12,0,0,0,0,0l1.33-1.35h0l.9-.9,0,0,1.43-1.42.38-.34.27-.25.77-.69.42-.37c1.64-1.46,3.22-2.82,4.48-3.83l.22-.18.24.27.11.13,0,0,3.87,4.36h0l.16.17,1.07,1.2,0,0h0l5.91,6.66a0,0,0,0,1,0,0l.87,1h0l.63.71.27.3.07.08,3.32,3.73,1.54,1.74Z"/><path class="cls-31" d="M78.63,84.74H53.54l-.15-.15a3,3,0,0,0-.25-.25L52.76,84l-.06-.07h0l-1.52-1.56L51,82.11h0l-.36-.37c-1.06-1.09-2.05-2.13-2.88-3l-.54-.59c-.75-.83-1.32-1.5-1.65-2a2.36,2.36,0,0,1-.25-.4c-.05-.09-.06-.16,0-.19a17.26,17.26,0,0,1,1.27-1.19h0l0,0c.2-.19.43-.39.68-.6l.1-.09.54-.47.55-.47h0l.2-.16c.71-.61,1.49-1.27,2.32-2l0,0c.59-.5,1.2-1,1.83-1.52l1.07-.89.42-.34C56,66.43,57.67,65.1,59.1,64l.21-.16c.78-.59,1.48-1.09,2.06-1.48l.19-.13.59-.36,1.59,2.2h0l1.31,1.8,0,.07h0l4,5.49,2.6,3.6h0l.69,1,.51.71.29.39,3,4.14L77,82.51l0,0,.58.81h0Z"/><path class="cls-32" d="M78.63,84.74H53.54l-.15-.15a3,3,0,0,0-.25-.25L52.76,84l-.06-.07h0l-1.52-1.56L51,82.11h0l-.36-.37c-1.06-1.09-2.05-2.13-2.88-3l-.54-.59c-.75-.83-1.32-1.5-1.65-2a2.36,2.36,0,0,1-.25-.4c-.05-.09-.06-.16,0-.19a17.26,17.26,0,0,1,1.27-1.19h0l0,0c.2-.19.43-.39.68-.6l.1-.09.54-.47.55-.47h0l.2-.16c.71-.61,1.49-1.27,2.32-2l0,0c.59-.5,1.2-1,1.83-1.52l1.07-.89.42-.34C56,66.43,57.67,65.1,59.1,64l.21-.16c.78-.59,1.48-1.09,2.06-1.48l.19-.13.59-.36,1.59,2.2h0l1.31,1.8,0,.07h0l4,5.49,2.6,3.6h0l.69,1,.51.71.29.39,3,4.14L77,82.51l0,0,.58.81h0Z"/><path class="cls-32" d="M78.63,84.74H55.1l-.55-.56-.37-.38h0l-.41-.42-.39-.4-1.27-1.3L51,80.52l-.08-.08-.2-.22C49.53,79,48.49,77.9,47.7,77l0,0-.5-.57a10.24,10.24,0,0,1-.84-1.09c-.14-.2-.2-.34-.16-.39a4.73,4.73,0,0,1,.47-.47l.69-.62h0c.16-.15.34-.3.54-.47h0l.53-.45.24-.21,1.4-1.2h0c.85-.72,1.79-1.52,2.77-2.32l1.07-.89.43-.36c1.65-1.35,3.33-2.7,4.81-3.84l.21-.16c.73-.57,1.42-1.08,2-1.52l.19-.13.59-.36,1.59,2.2h0l1.31,1.8,0,.07h0l4,5.49,2.6,3.6h0l.69,1,.51.71.29.39,3,4.14L77,82.51l0,0,.58.81h0Z"/><path class="cls-3" d="M80.46,84.74H56l-.78-.82-.11-.11-1-1-.41-.43-.22-.24h0l-2.19-2.33c-1-1-1.85-2-2.6-2.82h0l-.22-.24h0c-.27-.3-.51-.58-.72-.83l-.43-.51,0-.07h0l-.39-.5-.21-.31-.07-.13a0,0,0,0,0,0,0c-.06-.12-.08-.19-.05-.23a5.72,5.72,0,0,1,.58-.55l.28-.25.49-.42s0,0,0-.05c1.14-1,2.85-2.4,4.76-3.95a0,0,0,0,0,0,0l.12-.09.27-.23.78-.62.43-.34C55.86,66.31,57.5,65,59,63.9l.21-.16h0a50.89,50.89,0,0,1,4.41-3.08l.38.54,1.54,2.2,0,.08,1,1.5,3.78,5.39h0l3,4.27.44.62.24.35L77,79.73h0l1.7,2.43h0Z"/><path class="cls-33" d="M80.46,84.74H70.6a8.27,8.27,0,0,0,.27-1.09A13.92,13.92,0,0,0,71,80.13c0-.23,0-.47-.07-.71,0-.45-.11-.91-.19-1.38s-.19-1.09-.31-1.65a0,0,0,0,0,0,0c-.06-.3-.13-.59-.2-.89h0c-.32-1.32-.71-2.66-1.15-4-.73-2.24-1.58-4.47-2.43-6.5l3.78,5.39h0l3,4.27.44.62.24.35L77,79.73h0l1.7,2.43h0Z"/><path class="cls-29" d="M82.93,84.74H57.45L56.73,84l-.53-.55-1.64-1.72-.43-.44-2.25-2.38c-1.17-1.25-2.25-2.42-3.13-3.41l-.5-.58c-.16-.17-.3-.33-.43-.49l-.3-.35c-.06-.08-.13-.16-.18-.24h0a.76.76,0,0,1-.08-.11.39.39,0,0,1-.08-.1l-.08-.09c-.45-.57-.67-.94-.6-1a12.24,12.24,0,0,1,1-.89c.16-.14.34-.29.53-.47l.6-.5.15-.13c1.06-.9,2.44-2,3.93-3.25q.48-.37,1-.78l.42-.33.14-.11C55.47,65,56.8,64,58.07,63c2.46-1.9,4.72-3.56,6.07-4.38l.33-.2,1.64,2.34.06.08h0l1.48,2.11,6.95,9.93.4.57.18.25,2.71,3.88,2.09,3Z"/><path class="cls-30" d="M71.45,84.74a9.81,9.81,0,0,0,.66-2.18,14.72,14.72,0,0,0,.1-4,.88.88,0,0,0,0-.16c0-.19,0-.38-.06-.58h0c0-.12,0-.24,0-.37,0-.28-.08-.57-.13-.87-.08-.48-.17-1-.29-1.46h0c-.32-1.53-.75-3.11-1.25-4.7h0c-.81-2.56-1.79-5.13-2.76-7.45l6.95,9.93.4.57.18.25,2.71,3.88,2.09,3,3,4.22Z"/><path class="cls-13" d="M61.45,84.74H60.6l.07,0C61,84.59,61.28,84.57,61.45,84.74Z"/><path class="cls-14" d="M60.66,84.74h0l0,0S60.66,84.73,60.66,84.74Z"/><path class="cls-3" d="M84.42,70.73q0,.31,0,.63v.08c0,.18,0,.37-.08.56s-.07.38-.12.58-.07.28-.11.42a5.52,5.52,0,0,1-.16.54,16.53,16.53,0,0,1-1,2.33c-.26.51-.54,1-.84,1.52-.16.27-.32.53-.49.79s-.17.27-.26.41q-.54.81-1.14,1.62c-.08.1-.15.21-.24.31-.4.54-.83,1.08-1.27,1.6l0,0h0l-.36.43-.57.65-.09.11h0q-.24.28-.51.57c-.06.07-.12.15-.19.22l-.57.59H64.57c1-1,2.4-2.47,3.84-4.06.77-.85,1.56-1.74,2.32-2.64l.56-.67h0l.34-.4h0l.32-.4c.14-.17.28-.34.4-.51.38-.47.73-.94,1.05-1.39.45-.63.86-1.23,1.2-1.8l.23-.39c0-.08.08-.16.13-.24s.1-.19.14-.28l.12-.23.12-.28c0-.07.06-.14.08-.2s.11-.29.16-.43,0-.06,0-.1a.29.29,0,0,0,0-.09,1.29,1.29,0,0,0,.06-.25s0-.07,0-.1a.29.29,0,0,0,0-.13,1.07,1.07,0,0,0,0-.4.76.76,0,0,0,0-.16c-.76-2.65-6.72-7.48-9.4-9.55h0l-.21-.16L65,59h0a0,0,0,0,0,0,0,18,18,0,0,1-.66-2.24c0-.1-.05-.2-.07-.3v0c0-.06,0-.13,0-.19a19.51,19.51,0,0,1-.33-2.44.57.57,0,0,1,0-.13,18.7,18.7,0,0,1,0-2A14.64,14.64,0,0,1,64,50.09l0-.18c.06-.3.12-.61.19-.91a12.23,12.23,0,0,1,2.46-5,.69.69,0,0,1,.11-.13s0,0,0,0l.11-.13s2.37,2.73,5.36,6.51l.47.59,0,0,.41.53.11.13.37.48.09.12.38.48a.61.61,0,0,0,.07.1l0,0,.48.63.07.09.4.53.12.16.36.47.13.18.42.57,0,.06.48.64.1.15.36.49.14.2.33.46a2.43,2.43,0,0,0,.14.2l.41.58,0,.06.44.64.12.17c.11.16.21.32.32.47l.14.22.3.44.13.2c.13.19.25.38.37.57l0,.07.4.62a1,1,0,0,0,.11.17c.09.16.18.31.28.46a2.39,2.39,0,0,0,.13.21c.08.14.17.28.26.42l.43.74a.21.21,0,0,0,0,.06l.11.2.32.56.22.41c0,.07.07.14.11.2s.21.39.3.58l.25.51,0,0c.09.18.17.36.25.53s0,.11.07.16l.16.37.07.18c0,.11.1.23.14.34l.06.16c0,.1.07.19.1.28a1.59,1.59,0,0,1,.07.2c.06.16.1.31.15.46l0,.13c0,.11.06.21.08.31a.83.83,0,0,0,0,.15,2.93,2.93,0,0,1,0,.29.5.5,0,0,1,0,.12c0,.14,0,.27.05.39S84.42,70.56,84.42,70.73Z"/><g class="cls-4"><path class="cls-5" d="M64.05,49.36a2.42,2.42,0,0,0-.17.58,9.55,9.55,0,0,0-.18,1.29,11.52,11.52,0,0,0,0,1.9A11.32,11.32,0,0,0,64.14,55a9.75,9.75,0,0,0,.49,1.21,3.63,3.63,0,0,0,.29.53,3.16,3.16,0,0,0-.19-.56,11.92,11.92,0,0,1-.4-1.23,14.34,14.34,0,0,1-.44-3.7A11.31,11.31,0,0,1,64,50,3.76,3.76,0,0,0,64.05,49.36Z"/><path class="cls-5" d="M62.27,52.56a4.19,4.19,0,0,0,.28,1.13A11.35,11.35,0,0,0,63,54.76s.29.51.63,1a4.54,4.54,0,0,0,.79.88s-.32-.49-.62-1a11.4,11.4,0,0,1-.56-1s-.28-.49-.51-1S62.31,52.56,62.27,52.56Z"/><path class="cls-5" d="M64.44,47s.17-.46.36-.89a8.4,8.4,0,0,1,.42-.86,7.7,7.7,0,0,1,.46-.83,8.4,8.4,0,0,0,.54-.82,3.17,3.17,0,0,0-.7.72,7.67,7.67,0,0,0-.54.82,6.44,6.44,0,0,0-.36.91A2.64,2.64,0,0,0,64.44,47Z"/><path class="cls-5" d="M80.53,68.54a4.75,4.75,0,0,0-1.41-.18,4.62,4.62,0,0,0-1,.1,3.21,3.21,0,0,0-.44.11,2.24,2.24,0,0,0-.42.18,3.22,3.22,0,0,0-.8.57,2.39,2.39,0,0,0-.54.78.86.86,0,0,0-.09.42s.07-.16.19-.38a2.48,2.48,0,0,1,.57-.69,3.3,3.3,0,0,1,.78-.49,3.26,3.26,0,0,1,.39-.16,3.84,3.84,0,0,1,.41-.12,5.53,5.53,0,0,1,.94-.14C79.82,68.5,80.52,68.58,80.53,68.54Z"/><path class="cls-5" d="M78.12,67a2.81,2.81,0,0,0-.83.6,6,6,0,0,0-.69.75,6.73,6.73,0,0,0-.48.87,2.9,2.9,0,0,0-.29,1s.22-.45.46-.87a13.19,13.19,0,0,1,1.14-1.58C77.75,67.33,78.14,67,78.12,67Z"/></g><path class="cls-6" d="M84.42,70.73q0,.31,0,.63v.08s0,.11,0,.16l-.06.4c0,.19-.07.38-.12.58s-.07.28-.11.42a5.52,5.52,0,0,1-.16.54,16.53,16.53,0,0,1-1,2.33c-.26.51-.54,1-.84,1.52-.16.27-.32.53-.49.79s-.17.27-.26.41q-.54.81-1.14,1.62c-.08.1-.15.21-.24.31-.4.54-.83,1.08-1.27,1.6,0,0,0,0,0,0l-.36.43-.57.65-.09.11h0q-.24.28-.51.57c-.06.07-.12.15-.19.22l-.57.59h-2.8a16.91,16.91,0,0,0,2-2.55c.15-.24.3-.47.44-.71a1.28,1.28,0,0,0,.11-.2c.3-.5.58-1,.83-1.54h0a22.26,22.26,0,0,0,.93-2.18c1.27-3.43,1.48-6.45.34-6.59a5,5,0,0,0-3.4,1.5c0-.08.08-.16.13-.24s.1-.19.14-.28l.12-.23.12-.28c0-.07.06-.14.08-.2s.11-.29.16-.43,0-.06,0-.1a.29.29,0,0,0,0-.09,1,1,0,0,0,.06-.22v0s0-.07,0-.1a.29.29,0,0,0,0-.13.62.62,0,0,0,0-.13.4.4,0,0,0,0-.11.86.86,0,0,0,0-.16.76.76,0,0,0,0-.16c-.76-2.65-6.72-7.48-9.4-9.55h0l-.21-.16L65,59h0a0,0,0,0,0,0,0,18,18,0,0,1-.66-2.24c0-.08,0-.15,0-.22a.41.41,0,0,0,0-.11,3.83,3.83,0,0,0,0-.92s0-.1,0-.16a8.64,8.64,0,0,1-.25-1,7.43,7.43,0,0,1-.15-.74,18.7,18.7,0,0,1,0-2c0-.37.06-.74.12-1.12a.38.38,0,0,1,0-.15c0-.16.05-.32.07-.49s.12-.61.19-.91a13.23,13.23,0,0,0,1,5.44l0,.1,0,0c1.61,3.2,11.67,13.1,13.31,10.8s-6.4-15-6.55-15.17l.16,0,.47.59,0,0,.41.53.11.13.37.48.09.12.38.48a.61.61,0,0,0,.07.1l0,0,.48.63.07.09.4.53.12.16.36.47.13.18.42.57,0,.06.48.64.1.15.36.49.14.2.33.46a2.43,2.43,0,0,0,.14.2l.41.58,0,.06.44.64.12.17c.11.16.21.32.32.47l.14.22.3.44.13.2c.13.19.25.38.37.57l0,.07.4.62a1,1,0,0,0,.11.17c.09.16.18.31.28.46a2.39,2.39,0,0,0,.13.21c.08.14.17.28.26.42a2,2,0,0,0,.11.2c.11.18.22.36.32.54a.21.21,0,0,0,0,.06l.11.2.22.39.1.17.22.41c0,.07.07.14.11.2l.2.4.1.18.25.51,0,0c.09.18.17.36.25.53s0,.11.07.16l.16.37.07.18c0,.11.1.23.14.34l.06.16c0,.1.07.19.1.28a1.34,1.34,0,0,1,.07.18v0c.06.16.1.31.15.46l0,.13c0,.11.06.21.08.31a.83.83,0,0,0,0,.15,2.93,2.93,0,0,1,0,.29.5.5,0,0,1,0,.12c0,.14,0,.27.05.39S84.42,70.56,84.42,70.73Z"/><path class="cls-7" d="M77,72s-.15,0-.37.14a2.17,2.17,0,0,0-.81.59,5.53,5.53,0,0,0-.68,1c-.3.51-.59,1.09-.92,1.65l-.18.3c-.31.53-.63,1-.93,1.52-.19.3-.38.57-.54.82a0,0,0,0,0,0,0l-.34.49a.56.56,0,0,1-.05.08c-.26.38-.43.6-.43.6s-.3.4-.79,1a31.42,31.42,0,0,1-2.15,2.34l-.12.12c-.42.4-.85.79-1.27,1.14a9.15,9.15,0,0,0-1.09,1l0,0h-.25l.11-.16a8,8,0,0,1,1-1.06c.4-.36.8-.77,1.2-1.18l.31-.33c.92-1,1.71-2,2.17-2.59.27-.35.42-.57.42-.57s.23-.29.58-.77l.21-.28h0l.05-.07.08-.12c.19-.25.39-.54.6-.85s.65-1,1-1.48l.08-.13.88-1.41.2-.31a5.78,5.78,0,0,1,.7-.87,2.25,2.25,0,0,1,.93-.56A.81.81,0,0,1,77,72Z"/><path class="cls-7" d="M65.26,49.62a15.75,15.75,0,0,0-.18,2c0,1,.07,2,0,2a6,6,0,0,1-.38-2,13.27,13.27,0,0,1,0-2,13.9,13.9,0,0,1,.47-2A6.39,6.39,0,0,1,66,45.71c.07,0-.27,1-.47,1.95A15.94,15.94,0,0,0,65.26,49.62Z"/><path class="cls-25" d="M45.69,30.6s-.28-.11-.38.09a1.27,1.27,0,0,0,.09.68c.2.6.06,1.54.29,2.05s1.68,1.94,3.06.84S48.71,30.19,45.69,30.6Z"/><path class="cls-3" d="M46.17,30.74a.76.76,0,0,0,0,.3,1.08,1.08,0,0,0,.31.61,1.18,1.18,0,0,0,.86.26c.91,0,1.25,0,1.39-.2a2.94,2.94,0,0,0-1.27-.93c-.33-.13-1-.48-1.28-.09Z"/><path class="cls-34" d="M48.15,31.15a2.76,2.76,0,0,0-.65-.36,3.4,3.4,0,0,0-1.14-.22.38.38,0,0,0-.16.12l0,0a.28.28,0,0,0,0,.13.34.34,0,0,1,.1,0,3,3,0,0,1,2.19,1h0a.67.67,0,0,0,.17-.06.4.4,0,0,0,.12-.1,2.87,2.87,0,0,0-.56-.54Z"/><path class="cls-29" d="M45.86,33.68a2,2,0,0,0,2.89.58,1.48,1.48,0,0,0,.41-.56,3,3,0,0,0-1.67-.47A3,3,0,0,0,45.86,33.68Z"/><path class="cls-35" d="M48.75,34.26a1.48,1.48,0,0,0,.41-.56,3,3,0,0,0-.94-.38c.18.34.13.74-.94.79s-1.1-.34-1-.63a2.38,2.38,0,0,0-.39.2A2,2,0,0,0,48.75,34.26Z"/><path class="cls-16" d="M45.55,32.88a3,3,0,0,0,.31.78,2,2,0,0,0,1.52.87,1.5,1.5,0,0,0,1.51-.66,1.62,1.62,0,0,0,.21-.74,1.84,1.84,0,0,0-.08-.79,2.25,2.25,0,0,0-1.17-1.29,4,4,0,0,0-1.78-.44c-.51,0-.85.06-.86,0a.62.62,0,0,1,.23-.07,2.36,2.36,0,0,1,.63-.09,3.9,3.9,0,0,1,1.89.36,2.54,2.54,0,0,1,1.36,1.4,2.15,2.15,0,0,1,.12.66,1.78,1.78,0,0,1,0,.26,2.15,2.15,0,0,1-.29.88,1.78,1.78,0,0,1-1.8.73,2.2,2.2,0,0,1-1.61-1A1.39,1.39,0,0,1,45.55,32.88Z"/><path class="cls-16" d="M48,36.3c0,.05-.25,0-.5,0A2.26,2.26,0,0,1,47,36s-.14-.22-.25-.44-.16-.46-.12-.48.19.16.32.36l.3.33a3.51,3.51,0,0,0,.31.27C47.75,36.15,48,36.26,48,36.3Z"/><path class="cls-16" d="M46,29.59s.06.18,0,.37-.14.35-.14.35l-.29.23c-.17.09-.35.13-.36.09s.11-.16.21-.27l.17-.25.19-.24C45.88,29.75,46,29.59,46,29.59Z"/></g></g></g></svg>