<svg xmlns="http://www.w3.org/2000/svg" viewBox="0 0 158.33 399.31"><defs><style>.cls-1{isolation:isolate;}.cls-2{fill:#d4ecd4;}.cls-13,.cls-16,.cls-17,.cls-19,.cls-2,.cls-22,.cls-23,.cls-24,.cls-26,.cls-29,.cls-30,.cls-31,.cls-35,.cls-37,.cls-39,.cls-4,.cls-40,.cls-44,.cls-5{mix-blend-mode:multiply;}.cls-3{fill:#fff;}.cls-23,.cls-4,.cls-6{fill:#d3dbfd;}.cls-32,.cls-4,.cls-40,.cls-44,.cls-5{opacity:0.5;}.cls-14,.cls-19,.cls-7{fill:#294168;}.cls-7{opacity:0.6;}.cls-10,.cls-18,.cls-21,.cls-25,.cls-32,.cls-33,.cls-36,.cls-41,.cls-43,.cls-45,.cls-7,.cls-9{mix-blend-mode:screen;}.cls-24,.cls-25,.cls-37,.cls-8{fill:#3c1d91;}.cls-11,.cls-13,.cls-9{fill:#212f47;}.cls-12,.cls-13,.cls-24,.cls-29{opacity:0.45;}.cls-15,.cls-17,.cls-18{fill:#88ac76;}.cls-16,.cls-17,.cls-19,.cls-22{opacity:0.34;}.cls-20,.cls-21,.cls-22{fill:#717982;}.cls-27,.cls-29,.cls-31,.cls-33{fill:#ebd0a6;}.cls-28{fill:#de9168;}.cls-30{fill:#e28c89;}.cls-30,.cls-35{opacity:0.25;}.cls-31{opacity:0.62;}.cls-34,.cls-35,.cls-36{fill:#6f3a1e;}.cls-38,.cls-40{fill:#f15e6b;}.cls-39{fill:#501214;opacity:0.1;}.cls-41{fill:#f8e9d0;}.cls-42,.cls-43,.cls-44{fill:#a95913;}.cls-45{opacity:0.35;}</style></defs><title>full_regularРесурс 1</title><g class="cls-1"><g id="Слой_2" data-name="Слой 2"><g id="OBJECTS"><ellipse class="cls-2" cx="76.04" cy="382.89" rx="76.04" ry="16.42"/><path class="cls-3" d="M111.75,204.25s-3.43,13.18,7.41,16.34c0,0,2.67-4.7,1.84-9.46S112.83,203.1,111.75,204.25Z"/><path class="cls-4" d="M111.75,204.25s-3.43,13.18,7.41,16.34c0,0,2.67-4.7,1.84-9.46S112.83,203.1,111.75,204.25Z"/><path class="cls-4" d="M111.75,204.25s-3.43,13.18,7.41,16.34c0,0,2.67-4.7,1.84-9.46S112.83,203.1,111.75,204.25Z"/><path class="cls-3" d="M117.5,103.41s39.44,47.7,40.79,64.67-25.82,45.41-39.13,52.51c0,0,5.34-8-7.41-16.34,0,0,28.61-29.54,26.29-37.92s-25.5-31.76-25.5-31.76S104.64,119,117.5,103.41Z"/><g class="cls-5"><path class="cls-6" d="M149.31,163.9a10.19,10.19,0,0,0-3.27-.45,10.93,10.93,0,0,0-2.28.21,8,8,0,0,0-1,.26,7.24,7.24,0,0,0-1,.44,7.65,7.65,0,0,0-1.85,1.37,5.77,5.77,0,0,0-1.24,1.9,2.38,2.38,0,0,0-.22,1,7.68,7.68,0,0,0,.44-.9,6.51,6.51,0,0,1,1.33-1.69,8,8,0,0,1,1.8-1.18,7.49,7.49,0,0,1,.91-.36s.37-.14.95-.29a11.88,11.88,0,0,1,2.16-.33C147.66,163.78,149.29,164,149.31,163.9Z"/><path class="cls-6" d="M143.7,160.06a7.47,7.47,0,0,0-1.92,1.45,15.68,15.68,0,0,0-1.58,1.82,14.77,14.77,0,0,0-1.12,2.12,6.72,6.72,0,0,0-.65,2.29c.08,0,.49-1.08,1-2.1a18.67,18.67,0,0,1,1.24-2,17.16,17.16,0,0,1,1.39-1.86C142.86,160.91,143.76,160.13,143.7,160.06Z"/></g><path class="cls-4" d="M111.8,204.28a.19.19,0,0,0,0-.08l0,.05Z"/><path class="cls-4" d="M158.29,168.08h0c0-.3-.06-.62-.11-.94,0-.1,0-.2,0-.31s-.08-.46-.13-.7-.05-.24-.08-.36l-.18-.74-.09-.34q-.15-.54-.33-1.11l0-.07c-.11-.36-.24-.73-.37-1.1l-.15-.39c-.1-.28-.21-.55-.32-.84-.05-.14-.11-.29-.17-.44l-.37-.88c-.06-.13-.11-.26-.17-.4-.18-.42-.37-.85-.58-1.29l-.06-.15-.57-1.19c-.08-.15-.15-.31-.23-.46l-.47-.94c-.08-.17-.16-.33-.25-.49l-.52-1-.23-.43-.77-1.43a1.62,1.62,0,0,1-.1-.18c-.24-.43-.48-.86-.73-1.29-.09-.16-.18-.32-.28-.48-.19-.35-.39-.69-.59-1l-.31-.53c-.21-.35-.43-.71-.64-1.08l-.27-.44-.92-1.51-.14-.22c-.27-.44-.54-.88-.82-1.32l-.33-.52-.68-1.07-.33-.52-.76-1.16c-.08-.14-.17-.27-.26-.4-.34-.53-.69-1-1-1.57l-.13-.19c-.31-.46-.61-.92-.92-1.37l-.34-.5c-.24-.37-.49-.73-.74-1.1l-.34-.5-.83-1.2-.25-.36L139.22,132l-.12-.17-1-1.37-.32-.44-.79-1.11-.33-.46-.86-1.19-.22-.31-1.11-1.52,0-.07c-.34-.47-.68-.92-1-1.38l-.27-.37-.81-1.1c-.1-.12-.19-.25-.29-.38l-.86-1.16-.18-.24L130,119.3h0l-.38-.08c.35.46,19.12,31.34,15.29,37S117,136.82,113.79,129.4c-3.12-7.19-2.31-14.46-2.52-14.44h0c-.22.78-.41,1.55-.56,2.3h0c-.15.82-.3,1.8-.43,2.87-.06.57-.09,1.13-.11,1.68,0,.12,0,.24,0,.36,0,.54,0,1.07,0,1.58v.09c0,.49,0,1,.08,1.43l0,.33c0,.47.09.94.15,1.39a.5.5,0,0,1,0,.12c.06.42.13.82.2,1.21,0,.09,0,.17.05.25.07.41.16.81.25,1.19a.19.19,0,0,0,0,.08c.08.37.17.72.26,1a.74.74,0,0,1,0,.14l.29,1c.35.87.75,1.8,1.17,2.74l.21.21.09.09.19.2.23.24.2.2.35.36.14.15.46.47.18.19.53.55.16.17.71.74,0,.05c2.2,2.32,5.15,5.49,8.19,8.92l.1.12,1,1.15.2.23c.3.35.61.7.91,1.06l.27.31c.28.33.56.65.83,1,.11.12.21.24.31.37l.79.94.32.39.74.9c.11.15.23.29.35.44l.68.85.36.46q.33.41.63.81l.37.47.59.79.35.47.55.75.33.47.5.72.33.47.44.67.3.47c.14.21.27.43.4.64s.18.3.26.44.24.41.35.61l.23.41c.11.21.21.4.3.6s.13.24.18.36.18.41.26.61.09.19.12.28c.11.28.2.55.28.81a3.2,3.2,0,0,1,.1.71c.13,1.56-.54,3.65-1.75,6.06,2.38-2,5.15-3.69,7.59-3.37,5.69.76-3,33.67-19.4,39.46a19.7,19.7,0,0,1-6.21,1.28c3.74,5.7.79,10.12.79,10.12,5.4-2.88,13.1-9.29,20.24-17a108.39,108.39,0,0,0,11.89-15.26q1.25-2,2.31-3.92c.71-1.3,1.35-2.6,1.92-3.87C157.51,176.05,158.58,171.79,158.29,168.08Z"/><path class="cls-7" d="M118.58,200.11c.91-.88,1.85-1.85,2.77-2.85a81.28,81.28,0,0,0,6.7-8.43s.81-1.08,2-2.75,2.61-3.93,4-6.24l2-3.41a13.62,13.62,0,0,1,2.08-2.86,5,5,0,0,1,2.15-1.35,1.75,1.75,0,0,1,1-.08c0,.05-.34.09-.88.31a5.36,5.36,0,0,0-1.87,1.44c-1.31,1.49-2.34,4-3.7,6.38s-2.71,4.72-3.82,6.44-1.9,2.83-1.9,2.83a75.31,75.31,0,0,1-7.08,8.32c-1,1-2,1.91-2.93,2.75a22.64,22.64,0,0,0-2.51,2.35,3.63,3.63,0,0,0-1,2.08c0,.56.13.88.08.9s-.26-.27-.33-.9a3.65,3.65,0,0,1,.84-2.37A20.29,20.29,0,0,1,118.58,200.11Z"/><path class="cls-7" d="M113.79,117.7a43.6,43.6,0,0,0-.4,4.78c-.07,2.41.18,4.83,0,4.86a15.46,15.46,0,0,1-.89-4.84,34.23,34.23,0,0,1,0-4.94,34.23,34.23,0,0,1,1.06-4.83c.71-2.37,1.8-4.59,2-4.52s-.62,2.37-1.1,4.73A44.15,44.15,0,0,0,113.79,117.7Z"/><path class="cls-8" d="M44.41,374.54s-25.9-2.58-27.87,8.22,39-2,39-2L55,370.11Z"/><path class="cls-9" d="M16.7,382.14c-.06.21-.12.41-.16.62-2,10.81,39-2,39-2l-.13-2.66C55.07,378.23,20.4,389,16.7,382.14Z"/><path class="cls-9" d="M35.78,376.05a6.22,6.22,0,0,1,.6,1.4c.21.76.19,1.59.29,1.61a2.85,2.85,0,0,0,.21-1.73,5.93,5.93,0,0,0-.48-1.72,5,5,0,0,0-1.09-1.28h0l-.75,0a4.51,4.51,0,0,1,.43.44A5.86,5.86,0,0,1,35.78,376.05Z"/><path class="cls-9" d="M37.87,375a4.78,4.78,0,0,1,.85,1.17,5.07,5.07,0,0,1,.61,1.37c.21.74.12,1.56.22,1.6a2.5,2.5,0,0,0,.28-1.72,5.11,5.11,0,0,0-.51-1.72,4.42,4.42,0,0,0-1.17-1.2,2.4,2.4,0,0,0-.39-.2h-.92A4.68,4.68,0,0,1,37.87,375Z"/><path class="cls-9" d="M41.47,375.08a4.63,4.63,0,0,1,.74,1.12c.31.64.36,1.4.46,1.41a2.37,2.37,0,0,0,0-1.63,4.66,4.66,0,0,0-.69-1.47l-.14-.14-1.1-.05A5,5,0,0,1,41.47,375.08Z"/><path class="cls-9" d="M50.24,381.25a118.63,118.63,0,0,1-22.79,3.66c-7.15.37-9.91-.52-11-1.31,0,1.38.94,2.29,2.44,2.84C29.58,387.27,50.24,381.25,50.24,381.25Z"/><g class="cls-10"><path class="cls-11" d="M27.06,376.87c0,.08-1.21.27-2.33.76a12.89,12.89,0,0,0-2.12,1.15,18.69,18.69,0,0,0-2,1.37c-1,.76-1.83,1.64-1.9,1.58a8.43,8.43,0,0,1,1.61-1.91,15.59,15.59,0,0,1,2-1.57,12,12,0,0,1,2.3-1A5.65,5.65,0,0,1,27.06,376.87Z"/></g><g class="cls-10"><path class="cls-11" d="M30.3,376.14c0,.17-.72.39-.72.39s-.76-.07-.78-.24.72-.39.72-.39S30.28,376,30.3,376.14Z"/></g><g class="cls-12"><path class="cls-13" d="M55,370.11l-9,3.77c1.88.54,6.46,2.12,3,4-4.29,2.37-22.76,5.34-28,4.31-3.37-.66-2.3-2.79-1.1-4.24a7.47,7.47,0,0,0-3.22,4.37h0l.06-.23c3.7,6.86,38.37-3.91,38.69-4Z"/></g><path class="cls-8" d="M106.63,373.29s25.59-4.75,28.46,5.84-39,1.32-39,1.32l-.38-10.68Z"/><path class="cls-9" d="M134.88,378.53a6.08,6.08,0,0,1,.21.6c2.88,10.6-39,1.32-39,1.32L96,377.79C96.32,377.86,131.77,385.68,134.88,378.53Z"/><path class="cls-9" d="M115.35,374.06a6.17,6.17,0,0,0-.47,1.45c-.16.77-.06,1.59-.16,1.63a2.79,2.79,0,0,1-.35-1.71,5.84,5.84,0,0,1,.33-1.75,5.12,5.12,0,0,1,1-1.37h0l.75,0a3,3,0,0,0-.39.47A5.73,5.73,0,0,0,115.35,374.06Z"/><path class="cls-9" d="M113.18,373.18a4.67,4.67,0,0,0-.75,1.23,4.89,4.89,0,0,0-.49,1.41c-.15.77,0,1.57-.08,1.62a2.48,2.48,0,0,1-.43-1.69,5.31,5.31,0,0,1,.36-1.75,4.53,4.53,0,0,1,1.07-1.3,3,3,0,0,1,.38-.24l.91-.07A4.72,4.72,0,0,0,113.18,373.18Z"/><path class="cls-9" d="M109.6,373.58a4.37,4.37,0,0,0-.64,1.18c-.25.65-.25,1.42-.34,1.44a2.33,2.33,0,0,1-.16-1.62,4.58,4.58,0,0,1,.57-1.53l.12-.15,1.09-.14A4.53,4.53,0,0,0,109.6,373.58Z"/><path class="cls-9" d="M101.38,380.47a118.55,118.55,0,0,0,23,1.72c7.16-.23,9.83-1.35,10.82-2.23.07,1.38-.74,2.37-2.19,3C122.47,384.72,101.38,380.47,101.38,380.47Z"/><g class="cls-10"><path class="cls-11" d="M124.11,374.14c0,.09,1.23.18,2.39.57a14,14,0,0,1,2.21,1,18.56,18.56,0,0,1,2.11,1.21c1,.67,2,1.47,2,1.41a7.83,7.83,0,0,0-1.76-1.77,15.15,15.15,0,0,0-2.09-1.41,11.91,11.91,0,0,0-2.38-.83A5.86,5.86,0,0,0,124.11,374.14Z"/></g><g class="cls-10"><path class="cls-11" d="M120.83,373.69c0,.18.74.33.74.33s.75-.13.76-.31-.75-.32-.75-.32S120.83,373.52,120.83,373.69Z"/></g><g class="cls-12"><path class="cls-13" d="M95.7,369.77l9.29,3c-1.82.69-6.25,2.65-2.63,4.28,4.47,2,23.12,3.41,28.29,1.94,3.3-1,2.06-3,.74-4.32a7.45,7.45,0,0,1,3.57,4.08h0c0-.07-.05-.15-.08-.22-3.11,7.15-38.56-.67-38.89-.74Z"/></g><path class="cls-14" d="M64.52,202.46S51,304.72,43.54,372c0,0,5.53,1.11,7.4,1.23,1.65.1,6.59-.28,6.59-.28s22.08-128.66,29.1-132c8.94-4.3.36,113.42,2.39,130.32,0,0,7.71,5.31,17.46-.56,0,0,1.7-160.62,2-172.45S64.16,193.81,64.52,202.46Z"/><path class="cls-15" d="M64.52,202.46S51,304.72,43.54,372c0,0,5.53,1.11,7.4,1.23,1.65.1,6.59-.28,6.59-.28s22.08-128.66,29.1-132c8.94-4.3.36,113.42,2.39,130.32,0,0,7.71,5.31,17.46-.56,0,0,1.7-160.62,2-172.45S64.16,193.81,64.52,202.46Z"/><g class="cls-16"><path class="cls-15" d="M61.67,224.87a9.48,9.48,0,0,0,1.82.23,7.15,7.15,0,0,0,3.75-1.22A8.86,8.86,0,0,0,69.91,221a11.41,11.41,0,0,0,.82-1.63,16,16,0,0,0,.67-1.7,38.46,38.46,0,0,0,1-3.92c.32-1.45.56-2.91.71-4s.24-1.84.28-1.84a9.71,9.71,0,0,1,0,1.87,39.12,39.12,0,0,1-.52,4.07,36.23,36.23,0,0,1-.93,4,15.16,15.16,0,0,1-.65,1.77,12.66,12.66,0,0,1-.89,1.68,9.36,9.36,0,0,1-2.93,3,7.11,7.11,0,0,1-4,1.08,5,5,0,0,1-1.35-.25A1.73,1.73,0,0,1,61.67,224.87Z"/><path class="cls-15" d="M107.81,225.56a6.86,6.86,0,0,1-.86-1.31c-.47-.81-1-1.93-1.55-3.07a39.06,39.06,0,0,1-1.71-4.72,40.84,40.84,0,0,1-.91-4.93c-.13-1.25-.2-2.5-.2-3.44a7.39,7.39,0,0,1,.08-1.56,8.6,8.6,0,0,1,.16,1.55c.08.93.22,2.16.4,3.39a44.16,44.16,0,0,0,1.07,4.83,44.83,44.83,0,0,0,1.52,4.71c.45,1.15,1,2.28,1.36,3.12A9.87,9.87,0,0,1,107.81,225.56Z"/><path class="cls-15" d="M86.31,240.69a3,3,0,0,1,.07-.72l.28-1.87c.23-1.56.54-3.63.85-5.7.59-4.14,1.06-8.3,1.06-8.3s.54-4.15,1-8.31c.19-2.08.39-4.17.53-5.73l.17-1.89a3.46,3.46,0,0,1,.11-.72,3.26,3.26,0,0,1,0,.73c0,.45,0,1.11-.06,1.89-.06,1.57-.18,3.67-.33,5.76-.3,4.18-.77,8.35-.77,8.35s-.53,4.16-1.24,8.29c-.35,2.07-.73,4.13-1,5.67-.15.77-.3,1.41-.4,1.86A3.13,3.13,0,0,1,86.31,240.69Z"/><path class="cls-15" d="M87.74,230.76a1.71,1.71,0,0,1,.52-.21,2.46,2.46,0,0,0,.59-.23l.71-.41A7.43,7.43,0,0,0,92,226.33a20.32,20.32,0,0,0,1-4.3c.18-1.2.24-2,.24-2s.1-.8.2-2,.19-2.84.28-4.47a25.29,25.29,0,0,1,.51-4.47,11,11,0,0,1,.44-1.43,2.23,2.23,0,0,1,.25-.5s-.25.78-.45,2a28.59,28.59,0,0,0-.31,4.44c0,1.63-.08,3.26-.15,4.49s-.15,2.05-.15,2.05-.08.81-.29,2a20.47,20.47,0,0,1-1.17,4.37,7.58,7.58,0,0,1-2.71,3.63l-.76.37a2.26,2.26,0,0,1-.63.18A2,2,0,0,1,87.74,230.76Z"/><path class="cls-15" d="M94.55,240.48c0,.09-1.85,0-3.69.08a34.65,34.65,0,0,0-3.66.26,18.12,18.12,0,0,0-3.56.71,13.21,13.21,0,0,0-2.3,1,6.09,6.09,0,0,1-1,.55,3.64,3.64,0,0,1,.89-.76,11.46,11.46,0,0,1,2.28-1.2,16.69,16.69,0,0,1,3.64-.91,29.65,29.65,0,0,1,3.73-.09A21.14,21.14,0,0,1,94.55,240.48Z"/><path class="cls-15" d="M91.23,239c0,.09-1.66.55-3.23,1.28a24,24,0,0,0-3,1.66,25,25,0,0,0-2.8,2c-1.34,1.1-2.48,2.42-2.55,2.36a12.08,12.08,0,0,1,2.25-2.69,21.5,21.5,0,0,1,2.77-2.2,21.85,21.85,0,0,1,3.17-1.54A12.17,12.17,0,0,1,91.23,239Z"/><path class="cls-15" d="M55.1,371.19a7.1,7.1,0,0,1-2.1,0c-1-.06-2.09-.22-2.09-.22s-1-.22-2-.54a7.38,7.38,0,0,1-1.94-.78A11.55,11.55,0,0,1,49,370c1,.2,2,.35,2,.35s1,.23,2,.4A13,13,0,0,1,55.1,371.19Z"/><path class="cls-15" d="M104.51,370.28a12.33,12.33,0,0,1-3.74.74,20.09,20.09,0,0,1-3.83-.14,20.62,20.62,0,0,1-3.69-1.05A12.22,12.22,0,0,1,89.93,368c0-.08,1.69.86,3.47,1.44a22.34,22.34,0,0,0,3.64.85,22.08,22.08,0,0,0,3.72.32C102.63,370.57,104.49,370.19,104.51,370.28Z"/></g><path class="cls-17" d="M81.19,244.73c-1.62,1.77-9.36,43.51-11.8,50.07s-8,12.89-12.23,8,10.09-90.73,10.07-91.41c-.88-20.69,31.24-9.14,41.11-5.11.06-4,.1-6.8.13-8,.29-11.83-44.31-4.43-43.95,4.22,0,0-13.57,102.26-21,169.56,0,0,5.53,1.11,7.4,1.23,1.65.1,6.59-.28,6.59-.28s21-122.19,28.54-131.52A13.36,13.36,0,0,0,81.19,244.73Z"/><path class="cls-17" d="M89,371.25s7.71,5.31,17.46-.56c0,0,.37-34.77.79-73.15-3,11.28-8.62,10.73-11.06,5.29-3-6.66,3.69-57.19-2.22-60.67A8.79,8.79,0,0,0,87.62,241C94.89,245.93,87.07,355,89,371.25Z"/><path class="cls-18" d="M104.42,292.4a5.9,5.9,0,0,1-.07-1.29c0-.82,0-2,0-3.39,0-2.79.1-6.52.16-10.26.08-7.46.15-14.92.15-14.92s.13-7.46.27-14.91c0-3.74.09-7.47.12-10.27,0-1.4,0-2.56.07-3.38a5.09,5.09,0,0,1,.1-1.28,4.53,4.53,0,0,1,.15,1.28c0,.81.12,2,.17,3.38.11,2.8.21,6.53.27,10.26.14,7.47.1,14.94.1,14.94s-.17,7.47-.51,14.93c-.17,3.73-.37,7.46-.56,10.25-.09,1.4-.19,2.57-.26,3.38A4.92,4.92,0,0,1,104.42,292.4Z"/><path class="cls-18" d="M104.25,303.18c-.17,0-.21-.78-.25-1.52s-.09-1.47-.09-1.47.08-.73.17-1.46.16-1.49.33-1.51.41.72.56,1.48a14.71,14.71,0,0,1,.19,1.53,13.06,13.06,0,0,1-.28,1.51C104.7,302.49,104.42,303.21,104.25,303.18Z"/><path class="cls-18" d="M59.83,302.12c-.13.1-1-.83-1.57-1.95a7.87,7.87,0,0,1-1.11-4.86,4.54,4.54,0,0,1,.58-2.44,11.89,11.89,0,0,1,.31,2.4,15.69,15.69,0,0,0,.49,2.28,16.29,16.29,0,0,0,.55,2.27C59.43,300.94,60,302,59.83,302.12Z"/><path class="cls-18" d="M59.05,267.81c.35,0-.18,10.34-.18,10.34s-1.09,10.27-1.44,10.24.19-10.34.19-10.34S58.71,267.78,59.05,267.81Z"/><path class="cls-11" d="M63,198.87s-7.59,7.63,15,8.78c18.93,1,30.28-1.81,31.47-5.31,1.33-3.88-1.86-6.75-1.86-6.75S63.79,196,63,198.87Z"/><path class="cls-13" d="M71.38,204.41c-1.67-2.78,7.63-.45,19.65-1,9.54-.4,16.18-3.17,18.59-4.59a7.59,7.59,0,0,0-1.4-2.66c-.42-.2-.87-.39-1.38-.6-6,.08-43.11.66-43.84,3.27,0,0-7.59,7.63,15,8.78,15,.76,25.18-.81,29.4-3.23C95.55,208.67,72.84,206.84,71.38,204.41Z"/><path class="cls-19" d="M81.51,201.62s-2.85,7,3.22,7.94,10.8-.62,11.76-1.95.79-6-1.72-6.64S81.51,201.62,81.51,201.62Z"/><path class="cls-20" d="M82.71,201s-2.85,7,3.23,7.93,10.79-.62,11.75-1.95.79-5.95-1.72-6.63S82.71,201,82.71,201Z"/><path class="cls-21" d="M96,200.31a19.74,19.74,0,0,0-4.83-.13,14.74,14.74,0,0,1,3.52.18c2.51.69,2.68,5.31,1.72,6.64-.65.9-3,1.93-6.44,2.18,4.07-.06,7-1.22,7.75-2.24C98.65,205.62,98.48,201,96,200.31Z"/><path class="cls-22" d="M87.17,207.54c-4.45-.7-4.1-4.64-3.6-6.68l-.86.1s-2.85,7,3.23,7.93,10.79-.62,11.75-1.95a2.16,2.16,0,0,0,.28-.57C96.1,207.44,92.08,208.32,87.17,207.54Z"/><path class="cls-3" d="M76.84,95.35S54.48,99,47.27,103.78c0,0,8.66,25.86,3.61,37.89a232.77,232.77,0,0,1,8.35,37.52c.49,3.69.88,7.4,1.05,11.12.17,3.54-1.31,8.36,3.29,9.36,3.11.67,6.2,1.38,9.34,1.92,8.51,1.48,17.4,2.42,26,1.35,3.71-.46,8.25-.9,11-3.59,2.09-2,2.2-5,2.61-7.63q1.48-9.71,2.88-19.41c2.28-15.8,4.56-31.63,6-47.52.28-3,.54-6,.67-8.94C123,95,92,95.35,76.84,95.35Z"/><path class="cls-4" d="M76.84,94.8s-22.36,3.6-29.57,8.42c0,0,8.66,25.86,3.61,37.89a232.77,232.77,0,0,1,8.35,37.52c.49,3.69.88,7.4,1.05,11.12.17,3.54-1.31,8.36,3.29,9.36,3.11.67,6.2,1.38,9.34,1.92,8.51,1.48,17.4,2.42,26,1.35,3.71-.46,8.25-.9,11-3.59,2.09-2,2.2-5,2.61-7.63q1.48-9.71,2.88-19.41c2.28-15.8,4.56-31.63,6-47.52.28-3,.54-6,.67-8.94C123,94.49,92,94.8,76.84,94.8Z"/><path class="cls-4" d="M112.56,191.72c.5-3.28,1-6.56,1.46-9.84-7.65,16.12-23,18.54-38.1,11.38-17.81-8.43-21.42-66.67-21.18-67.39,0,0-1.63,6.88-3.6,16.67a232,232,0,0,1,8.09,36.65c.49,3.69.88,7.4,1.05,11.12.17,3.54-1.31,8.36,3.29,9.36,3.11.67,6.2,1.38,9.34,1.92,8.51,1.48,17.4,2.42,26,1.35,3.71-.46,8.25-.9,11-3.59C112,197.32,112.15,194.38,112.56,191.72Z"/><path class="cls-4" d="M73.11,110.23v-.13A.93.93,0,0,1,73.11,110.23Z"/><path class="cls-23" d="M89.52,185.78a5.92,5.92,0,0,1,.11,1.37c0,.83,0,1.93.07,3l0,4.4L89.6,199a15.7,15.7,0,0,1-.4,3,3.31,3.31,0,0,1-.55,1.27c-.05,0,.17-.53.31-1.33a17.46,17.46,0,0,0,.2-3c0-2.19,0-4.38,0-4.38l.14-4.39c0-1.09.1-2.19.14-3A6.6,6.6,0,0,1,89.52,185.78Z"/><path class="cls-4" d="M95.69,187.2A39,39,0,0,1,89,198.79a.93.93,0,0,1-.62.4.9.9,0,0,1-.65-.41l-2.08-2.39c-8.56-9.84-7.26-20.5-6.31-32.72,1.25-15.93,3.38-31.83,5.93-47.6-2.79-1.35-5-5.47-5-5.47-.41-2.67,3.7-6.85,6.26-7.14s6.2,6.15,6.2,6.15-.19,4.54-3.81,6.33c.2,1.6,5.25,40.44,6.32,50.9.29,2.79.65,5.56,1,8.34C96.78,179.32,97.14,183.14,95.69,187.2Z"/><path class="cls-8" d="M96.83,186.63a38.71,38.71,0,0,1-6.73,11.59,1,1,0,0,1-.62.4.93.93,0,0,1-.65-.41l-2.09-2.4c-8.55-9.83-7.25-20.49-6.3-32.71,1.25-15.93,3.38-31.83,5.92-47.61-2.79-1.34-5-5.47-5-5.47-.41-2.66,3.7-6.84,6.25-7.13S93.83,109,93.83,109s-.2,4.54-3.81,6.34c.2,1.6,5.25,40.43,6.32,50.9.29,2.78.65,5.56,1,8.33C97.93,178.74,98.29,182.57,96.83,186.63Z"/><path class="cls-24" d="M97.37,174.6l-.15-1.13c-1.14,10.45-6,18.22-11.48,7-5.63-11.57.61-61.53,2.14-62.45,1-.62,2.86,6.49,3.91,11.07-1-7.46-1.7-13.15-1.77-13.74a6.48,6.48,0,0,0,2.92-3.05c-.91.7-4,2.78-6.28.85-2.74-2.28-.46-9.14-.15-9.6,0,0-.79.34-1.91.85-1.87,1.53-3.5,3.88-3.23,5.6,0,0,2.2,4.13,5,5.47-2.54,15.78-4.67,31.68-5.92,47.61-1,12.22-2.25,22.88,6.3,32.71l2.09,2.4a.93.93,0,0,0,.65.41,1,1,0,0,0,.62-.4,38.71,38.71,0,0,0,6.73-11.59C98.29,182.57,97.93,178.74,97.37,174.6Z"/><path class="cls-25" d="M93.48,164.83c-.34,0-2.8-20.49-2.8-20.49s-1.9-20.59-1.56-20.63,2.8,20.5,2.8,20.5S93.83,164.79,93.48,164.83Zm1.35,10.77c.08-1.42.06-2.83.06-2.83s-.15-1.41-.39-2.81-.56-2.77-.74-2.75a9.43,9.43,0,0,0-.14,2.83l0,2.8.3,2.78a9,9,0,0,0,.48,2.8A8.12,8.12,0,0,0,94.83,175.6ZM90.6,112a4.5,4.5,0,0,0,.3-1.88,4.61,4.61,0,0,0-.8-1.72c-.59-.78-1.5-1.1-1.56-.95s.53.7.8,1.41a4.4,4.4,0,0,1,.32,1.43,4.56,4.56,0,0,1,.09,1.47c-.07.75-.51,1.45-.39,1.57S90.24,112.86,90.6,112Z"/><g class="cls-5"><path class="cls-6" d="M102.74,102c1,2.24,4,3.88,5.58,5.78,1.79,2.15,3.47,4.67,5.05,7a.57.57,0,0,0,1-.14c1.41-3.79.36-7.13-2.22-10.2-1.93-2.31-5.92-5.33-9.07-3.84a1.05,1.05,0,0,0-.37,1.41Z"/></g><g class="cls-5"><path class="cls-6" d="M61.76,187.56c-.93,4.27,2.25,12.41,7.64,11.9.74-.06,1.32-1,.66-1.6-1.51-1.34-3.26-2.28-4.43-4-1.35-2-1.58-4.32-2.5-6.47a.76.76,0,0,0-1.37.18Z"/></g><g class="cls-5"><path class="cls-6" d="M110.34,190.18c-1.26,2.08-2.31,4.21-4.17,5.86s-4,2.55-6,3.83a.67.67,0,0,0,.33,1.23c5.18.34,10.63-5.69,10.5-10.76a.33.33,0,0,0-.61-.16Z"/></g><g class="cls-26"><path class="cls-6" d="M117.6,154.65a5.57,5.57,0,0,1,.06-1c.07-.61.16-1.47.28-2.51.23-2.07.52-4.83.77-7.6.5-5.53.69-11.07.69-11.07s.27-5.55.11-11.1c-.09-2.77-.26-5.54-.45-7.62-.07-1-.18-1.9-.23-2.5a7.49,7.49,0,0,1-.06-1,4.76,4.76,0,0,1,.19.94c.08.6.23,1.46.35,2.5.26,2.07.49,4.84.64,7.62.28,5.57.07,11.14.07,11.14s-.25,5.57-.87,11.1c-.31,2.76-.66,5.52-1,7.59-.15,1-.29,1.88-.39,2.49A5.27,5.27,0,0,1,117.6,154.65Z"/></g><path class="cls-27" d="M75.58,203.88A6.91,6.91,0,0,0,70.43,202a2.22,2.22,0,0,0,.2-1.2c-.39-2.62-5.07-4.74-5.07-2.12A11,11,0,0,1,64.37,203a34.15,34.15,0,0,0-4.63,1.7s-8.25,4.16-4.62,10,11.23,1.39,12.22,1.67S67,219.64,67,221s4.62,2.22,7.73-2.26,1.85-7.18,1.85-7.18,2,2.78,3.3,1.66S79.89,208.53,75.58,203.88Z"/><path class="cls-28" d="M72.53,213.72a7.76,7.76,0,0,1,.16,2.43,12.52,12.52,0,0,1-.36,2.44,9,9,0,0,1-1.09,2.26,2.71,2.71,0,0,1-1.4,1.12A1.31,1.31,0,0,1,69,222c0-.05.32-.07.73-.27a2.59,2.59,0,0,0,1.12-1.13,9.68,9.68,0,0,0,.87-2.2,14,14,0,0,0,.52-2.31C72.42,214.93,72.44,213.72,72.53,213.72Zm3.8-3.11a13.87,13.87,0,0,0-.83-2.11,11.79,11.79,0,0,0-1.33-1.88,4.45,4.45,0,0,0-1.27-1c-.4-.21-.71-.25-.72-.21s.25.15.59.4a5.16,5.16,0,0,1,1,1.08,13.55,13.55,0,0,1,1.12,1.9,16.72,16.72,0,0,1,1,2c.42,1,.67,2.1.76,2.09A6,6,0,0,0,76.33,210.61Zm-2,1.07a18,18,0,0,1,.5,2.3,10.38,10.38,0,0,1,.2,2.32,18,18,0,0,1-.37,2.33,4.76,4.76,0,0,0,.81-2.3,9.52,9.52,0,0,0,0-2.44,14.73,14.73,0,0,0-.7-2.33,9.41,9.41,0,0,0-1-2.19A17.62,17.62,0,0,0,74.28,211.68Zm-2.92-9.77a2.91,2.91,0,0,0-1.23-.17,10.36,10.36,0,0,0-1.19.15l-.53.09a24.24,24.24,0,0,0-3.29,1,24.19,24.19,0,0,0,3.42-.4l.52-.13c.32-.08.72-.19,1.12-.26a3,3,0,0,1,1.11,0c.3,0,.49.14.52.1S71.69,202,71.36,201.91Z"/><path class="cls-29" d="M79.31,210.48c-.62,1.34-5.52-3.84-5.73-4.13s3.48,5.37,2.76,6.14-2.69-3.12-2.69-3.12,1.36,6.38.34,6.57-2-5.85-2-5.85c.1,1.25.2,9.11-1.74,8.92s-1-5.47-1-5.47-2.15,1.54-7.26-.48c-4-1.59-2.08-6.71-1-8.93-.75.3-1.21.52-1.21.52a14.65,14.65,0,0,0-3.35,2.47,24.68,24.68,0,0,0-2.17,5,5.69,5.69,0,0,0,.9,2.56c3.63,5.84,11.23,1.39,12.22,1.67S67,219.64,67,221s4.62,2.22,7.73-2.26,1.85-7.18,1.85-7.18,2,2.78,3.3,1.66c.84-.7.61-2.4-.75-4.73A3.66,3.66,0,0,1,79.31,210.48Z"/><path class="cls-29" d="M67.64,197.66c.11.2.22.41.32.64,1.49,3.45-1.9,4.43-2.9,4.64a38.67,38.67,0,0,1,4-.52c.86,0,2.65,0,4.3.05a9,9,0,0,0-2.93-.47,2.22,2.22,0,0,0,.2-1.2A4.55,4.55,0,0,0,67.64,197.66Z"/><path class="cls-30" d="M65.06,202.94l-.27.06Z"/><path class="cls-3" d="M47.12,103.8s-36.3,47.73-36.55,64S39.26,209.44,53,215.4c0,0,8-7.94,9.76-13.43,0,0-33.87-29-32.09-37.08s23.16-26,23.16-26S61,117.86,47.12,103.8Z"/><g class="cls-5"><path class="cls-6" d="M54.5,116.41a5.29,5.29,0,0,1,.47,1.3,25.1,25.1,0,0,1,.63,3,21,21,0,0,1-.48,8.74,23.45,23.45,0,0,1-.94,2.89,5.27,5.27,0,0,1-.6,1.24,7.26,7.26,0,0,1,.37-1.32c.25-.78.52-1.83.74-2.89a33.39,33.39,0,0,0,.46-8.62c-.1-1.08-.26-2.15-.42-2.95A9.2,9.2,0,0,1,54.5,116.41Z"/><path class="cls-6" d="M59.09,123.55a9.88,9.88,0,0,1-.47,2.63,24.92,24.92,0,0,1-.88,2.55,26.35,26.35,0,0,1-1.32,2.38,10,10,0,0,1-1.68,2.16c-.07-.05.67-1.18,1.29-2.36s1.13-2.41,1.13-2.41.58-1.19,1-2.44S59,123.53,59.09,123.55Z"/><path class="cls-6" d="M53.25,111.09a21.94,21.94,0,0,1-1-2,21.46,21.46,0,0,0-1.11-1.91A20.38,20.38,0,0,0,50,105.3c-.65-.9-1.42-1.73-1.36-1.79a7.28,7.28,0,0,1,1.72,1.54,18.34,18.34,0,0,1,1.39,1.82,16.92,16.92,0,0,1,1,2A6.88,6.88,0,0,1,53.25,111.09Z"/><path class="cls-6" d="M19.26,163.24a11.21,11.21,0,0,1,3.23-.62,12.07,12.07,0,0,1,2.3.07,10.44,10.44,0,0,1,1,.18,8.05,8.05,0,0,1,1,.36,7.88,7.88,0,0,1,1.94,1.2,5.6,5.6,0,0,1,1.36,1.74,2.05,2.05,0,0,1,.28.94,8,8,0,0,1-.5-.84,6.08,6.08,0,0,0-1.43-1.52,7.48,7.48,0,0,0-1.88-1,6.4,6.4,0,0,0-.93-.29s-.37-.11-1-.22a12.45,12.45,0,0,0-2.18-.18C20.89,163,19.28,163.33,19.26,163.24Z"/><path class="cls-6" d="M24.61,159.26a7,7,0,0,1,2,1.26,15.51,15.51,0,0,1,1.69,1.64,14.33,14.33,0,0,1,1.26,2,6.34,6.34,0,0,1,.8,2.14c-.09,0-.56-1-1.19-1.94a17.5,17.5,0,0,0-1.36-1.79,17.3,17.3,0,0,0-1.51-1.69C25.5,160,24.56,159.33,24.61,159.26Z"/></g><path class="cls-4" d="M59.29,198.93c.1,3.91-1.68,8.85-12.44,5.94C30.11,200.34,19.32,169.53,25,168.48c2.5-.47,5.52,1.09,8.09,3h0c-.12-.19-.22-.36-.34-.54s-.26-.42-.38-.63l-.3-.53-.32-.61c-.08-.16-.16-.31-.23-.46a9.53,9.53,0,0,1-.41-1l-.08-.23a7,7,0,0,1-.21-.71c0-.11-.05-.21-.07-.31a4.17,4.17,0,0,1-.08-.59,2.11,2.11,0,0,1,0-.25,3,3,0,0,1,.06-.74c1.78-8.12,23.16-26,23.16-26a37.66,37.66,0,0,0,1.24-5.37,11.26,11.26,0,0,1-.17-2.89,26.75,26.75,0,0,0,.76-4.35,36.28,36.28,0,0,0-1.55-10.72,30.94,30.94,0,0,1-1.62,12.73c-2.74,7.25-25.12,32.47-29.3,27.33S35.74,120,36.07,119.55l-.37.1-1,1.44-.06.09-.89,1.3-.21.31L32.75,124l-.21.3-.93,1.39-.06.09c-.34.5-.68,1-1,1.52l-.15.23-.84,1.27-.26.4-.75,1.15c-.09.14-.18.28-.28.42l-.89,1.39-.09.14-1,1.56c-.08.11-.15.23-.22.35-.26.4-.51.8-.76,1.2l-.3.48L24.32,137c-.09.16-.19.32-.29.47l-.86,1.41a1,1,0,0,1-.08.14l-.93,1.56-.25.41-.67,1.14-.3.51-.62,1.08-.28.48-.76,1.36-.1.17-.83,1.51c-.08.14-.15.28-.23.41-.19.37-.39.73-.58,1.09l-.26.5c-.19.35-.37.69-.54,1l-.24.47-.66,1.3-.07.15c-.24.47-.46.94-.69,1.41-.06.14-.13.27-.19.41-.16.33-.31.66-.46,1l-.22.48c-.14.31-.28.63-.41.94-.06.14-.13.28-.19.43-.18.41-.35.82-.51,1.22l0,.09c-.17.44-.34.86-.5,1.28-.05.12-.09.25-.14.38-.1.29-.21.58-.31.86s-.1.29-.14.43-.19.55-.27.82l-.12.38c-.11.37-.21.73-.31,1.09v0c-.1.37-.18.73-.26,1.08,0,.11-.05.22-.07.32s-.09.49-.13.73l-.06.34-.09.68,0,.3c0,.31,0,.61,0,.9a15.53,15.53,0,0,0,.28,3.14c.91,4.86,3.91,10.31,8,15.7.92,1.2,1.88,2.4,2.89,3.58,1.51,1.78,3.12,3.54,4.8,5.25q1.66,1.72,3.41,3.36c2.32,2.19,4.7,4.28,7.07,6.2,5.9,4.79,11.68,8.56,16,10.42,0,0,1.59-1.59,3.52-3.84l1.06-1.28c.32-.38.63-.77.94-1.18s.65-.85,1-1.29.68-.95,1-1.43A19.38,19.38,0,0,0,62.76,202S61.41,200.82,59.29,198.93Z"/><path class="cls-7" d="M52.25,195.88c-1-.78-2-1.65-2.94-2.55a78.42,78.42,0,0,1-7.23-7.63s-.88-1-2.13-2.49-2.86-3.58-4.41-5.7l-2.24-3.13a13.37,13.37,0,0,0-2.26-2.6,5.06,5.06,0,0,0-2.23-1.15,1.89,1.89,0,0,0-1,0c0,.05.35.07.9.25a5.36,5.36,0,0,1,2,1.26c1.4,1.34,2.6,3.69,4.1,5.85s3,4.33,4.23,5.9,2.07,2.58,2.07,2.58a73.34,73.34,0,0,0,7.6,7.5c1,.87,2.09,1.7,3.11,2.45a21.5,21.5,0,0,1,2.66,2.08,3.41,3.41,0,0,1,1.1,1.92c.06.53-.07.85,0,.86s.24-.27.27-.87a3.48,3.48,0,0,0-1-2.21A20,20,0,0,0,52.25,195.88Z"/><path class="cls-7" d="M51.74,117.17a39.61,39.61,0,0,1,.7,4.53c.23,2.29.14,4.61.31,4.63s.58-2.3.58-4.66A31.87,31.87,0,0,0,53,117a33.29,33.29,0,0,0-1.37-4.53,14.41,14.41,0,0,0-2.24-4.19c-.16.07.77,2.22,1.39,4.44A41.3,41.3,0,0,1,51.74,117.17Z"/><path class="cls-27" d="M98.54,205.47a6.72,6.72,0,0,1,5.15-2,2.31,2.31,0,0,1-.2-1.25c.39-2.76,5.06-5,5.06-2.23a12,12,0,0,0,1.2,4.48,34,34,0,0,1,4.62,1.78s8.26,4.37,4.63,10.48-11.23,1.46-12.22,1.75.33,3.5.33,4.95-4.63,2.33-7.73-2.36-1.85-7.54-1.85-7.54-2,2.91-3.3,1.75S94.23,210.35,98.54,205.47Z"/><path class="cls-28" d="M101.87,218.3a15.38,15.38,0,0,0,.52,2.43,10.45,10.45,0,0,0,.87,2.31,2.68,2.68,0,0,0,1.12,1.18c.41.21.73.23.73.28a1.23,1.23,0,0,1-.83-.06,2.74,2.74,0,0,1-1.4-1.18,9.63,9.63,0,0,1-1.09-2.37,13.72,13.72,0,0,1-.36-2.55,8.25,8.25,0,0,1,.16-2.56C101.68,215.79,101.7,217.06,101.87,218.3Zm-4.42-3.45c.08,0,.34-1.12.76-2.19a18.11,18.11,0,0,1,1-2.07,13.8,13.8,0,0,1,1.12-2,5.11,5.11,0,0,1,1-1.14c.33-.26.6-.38.59-.42s-.32,0-.73.22a4.49,4.49,0,0,0-1.26,1.07,12.29,12.29,0,0,0-1.33,2,14.84,14.84,0,0,0-.83,2.22A6.56,6.56,0,0,0,97.45,214.85Zm3-3.62a9.87,9.87,0,0,0-1.06,2.29,16.84,16.84,0,0,0-.69,2.45,10.48,10.48,0,0,0,0,2.56,4.89,4.89,0,0,0,.81,2.4,19.38,19.38,0,0,1-.37-2.44,11.42,11.42,0,0,1,.2-2.43,19.42,19.42,0,0,1,.5-2.41A19.51,19.51,0,0,0,100.47,211.23Zm1.84-7.49s.22-.07.52-.11a3,3,0,0,1,1.1,0c.41.07.81.19,1.13.27l.52.14a22.83,22.83,0,0,0,3.42.42,24.49,24.49,0,0,0-3.29-1l-.53-.09c-.31,0-.75-.13-1.2-.16a2.8,2.8,0,0,0-1.23.18C102.43,203.53,102.29,203.71,102.31,203.74Z"/><path class="cls-29" d="M94.81,212.38c.61,1.41,5.52-4,5.73-4.32s-3.48,5.63-2.77,6.44,2.7-3.27,2.7-3.27-1.37,6.69-.34,6.89,2-6.14,2-6.14c-.1,1.31-.2,9.56,1.74,9.36s1-5.74,1-5.74,2.15,1.61,7.26-.5c4-1.67,2.08-7,1-9.37.75.32,1.2.54,1.2.54a14.46,14.46,0,0,1,3.36,2.59,27.44,27.44,0,0,1,2.17,5.21,6.13,6.13,0,0,1-.9,2.68c-3.63,6.12-11.23,1.46-12.22,1.75s.33,3.5.33,4.95-4.63,2.33-7.73-2.36-1.85-7.54-1.85-7.54-2,2.91-3.3,1.75c-.84-.74-.62-2.53.75-5A4,4,0,0,0,94.81,212.38Z"/><path class="cls-29" d="M106.48,198.94a5.94,5.94,0,0,0-.32.67c-1.49,3.62,1.9,4.65,2.9,4.87a34.85,34.85,0,0,0-4-.55c-.86-.05-2.66,0-4.31.06a9.07,9.07,0,0,1,2.94-.5,2.31,2.31,0,0,1-.2-1.25A4.67,4.67,0,0,1,106.48,198.94Z"/><path class="cls-30" d="M109.06,204.48l.27.06Z"/><path class="cls-6" d="M99.16,126.08l17.34-.67s-1.34,19.33-9.34,17.67S99.16,126.08,99.16,126.08Z"/><path class="cls-27" d="M76.57,89.65l.49,9.75s6.44,7.31,18.33,1.22l-.5-11S81,84,76.57,89.65Z"/><path class="cls-29" d="M95.23,97c-10.65,10.42-19.12-7.89-14-4.46,4.35,2.9,11.51,0,13.72-1l0-.38,0-1.17a1.63,1.63,0,0,0-.44-.52,41.36,41.36,0,0,0-4-1.28c-2-.34-4.46-.6-6.52-1.07a15.13,15.13,0,0,0-2.14.06h-.08c-.32,0-.64.07-.95.13h-.06a9,9,0,0,0-.93.23l-.12,0c-.25.08-.5.17-.74.27l-.16.07a5.14,5.14,0,0,0-.77.41l-.09.06a5.39,5.39,0,0,0-.59.45l-.17.14a5.86,5.86,0,0,0-.59.63h0l.49,9.75s6.44,7.31,18.33,1.22Z"/><path class="cls-27" d="M116.21,47.66s2.78-4.12,6.73-1.51c4.56,3,2.28,18.79-3.94,18.59S115.11,47.34,116.21,47.66Z"/><path class="cls-29" d="M116.21,47.66s2.78-4.12,6.73-1.51c4.56,3,2.28,18.79-3.94,18.59S115.11,47.34,116.21,47.66Z"/><path class="cls-28" d="M121.92,60c0-.12-.46,0-1-.14a1,1,0,0,1-.65-.55,1.5,1.5,0,0,1-.05-1,2,2,0,0,1,.57-.88c.24-.23.55-.31,1-.66a1.82,1.82,0,0,0,.6-1.59,2.54,2.54,0,0,0-.19-.62,2.23,2.23,0,0,0-.34-.48,2.27,2.27,0,0,0-.58-.48,1.77,1.77,0,0,0-.46-.2h0s0,0,0,0,0-.16,0-.27l.06-.41a5,5,0,0,1,.65-1.67c.61-1.06,1.53-1.46,1.5-1.63s-1.09-.07-2,1a5.88,5.88,0,0,0-1.24,2.49,3.35,3.35,0,0,0-.09.6c0,.5,0,1,0,1.35a4.12,4.12,0,0,1,.9,0l.22.12a1.58,1.58,0,0,1,.26.25,1.11,1.11,0,0,1,.13.22c0,.07.06,0,0,.09s-.53.38-.92.82a3.35,3.35,0,0,0-.82,1.7,2.55,2.55,0,0,0,.36,1.85,1.39,1.39,0,0,0,1.18.6C121.56,60.47,122,60.1,121.92,60Z"/><path class="cls-31" d="M119,64.74c-6.22-.2-3.89-17.4-2.79-17.08a5.85,5.85,0,0,1,3.52-2.32c-1,2.45.43,6.39.43,6.39s1.63-2.6,2.5-1.73-.46,5,1.42,5.44c.58.13,1-.33,1.21-1C124.93,59.49,122.64,64.86,119,64.74Z"/><g class="cls-32"><path class="cls-33" d="M124.78,49.64c.26.88.15,1.76-.25,2s-1-.33-1.21-1.21-.15-1.76.26-2S124.52,48.76,124.78,49.64Z"/><path class="cls-33" d="M123.18,47.09a.71.71,0,0,1-.3.81.44.44,0,0,1-.67-.22.71.71,0,0,1,.31-.81A.43.43,0,0,1,123.18,47.09Z"/></g><path class="cls-27" d="M46.76,48.12C46.27,34,52.1,11.1,81.83,10.88c29.89-.21,34.41,32.58,34.41,32.58s3.12,12.06,2.76,21.28-5.15,22.93-26.56,25.12-37.89-6.8-41.74-20a11,11,0,0,1-10.09-8.82C39.11,55,42.43,48.85,46.76,48.12Z"/><g class="cls-26"><path class="cls-29" d="M46.76,48.12A45.74,45.74,0,0,1,48.5,33.91a36.85,36.85,0,0,1,4.84-10.15c-4.28,7.21-5,18-4.8,24.59a18.82,18.82,0,0,1-1.88-.21Z"/><path class="cls-29" d="M42.87,50.53A12.56,12.56,0,0,0,42,59a11,11,0,0,0,10.1,8.82C55.93,81,72.41,90,93.82,87.76c11.27-1.15,17.94-5.5,21.77-10.71-3.53,6.1-10.39,11.5-23.15,12.81-21.4,2.2-37.89-6.8-41.74-20a11,11,0,0,1-10.09-8.82A12.14,12.14,0,0,1,42.87,50.53Z"/></g><path class="cls-34" d="M103.43,55.62c-.05,2.83,1.19,5.13,2.77,5.14s2.91-2.29,3-5.12-1.19-5.13-2.77-5.13S103.48,52.79,103.43,55.62Z"/><path class="cls-35" d="M105.05,51.11a8.56,8.56,0,0,0-.33,2.23c0,2.83,1.19,5.12,2.77,5.13a2,2,0,0,0,1.33-.6c-.49,1.71-1.48,2.89-2.62,2.89-1.58,0-2.82-2.31-2.77-5.14A6.49,6.49,0,0,1,105.05,51.11Z"/><path class="cls-36" d="M108.6,54.76c.07,1-.28,1.79-.78,1.84s-1-.7-1-1.67.28-1.8.78-1.85S108.54,53.79,108.6,54.76Z"/><path class="cls-36" d="M106.65,52.17a.38.38,0,0,0,.36.39.39.39,0,0,0,.38-.39.38.38,0,0,0-.36-.4A.39.39,0,0,0,106.65,52.17Z"/><path class="cls-34" d="M69.73,58.06c.32,2.81,1.85,4.94,3.42,4.75s2.58-2.62,2.27-5.44S73.57,52.43,72,52.62,69.41,55.24,69.73,58.06Z"/><path class="cls-35" d="M70.67,53.49a8.28,8.28,0,0,0,0,1.86c.32,2.81,1.85,4.94,3.42,4.75a2,2,0,0,0,1.33-.87c-.2,2-1.07,3.43-2.28,3.58-1.57.19-3.1-1.94-3.42-4.75A6.54,6.54,0,0,1,70.67,53.49Z"/><path class="cls-36" d="M74.52,56.44c.19,1,0,1.82-.54,1.93s-1-.58-1.24-1.53.06-1.82.55-1.93S74.33,55.49,74.52,56.44Z"/><path class="cls-36" d="M72.24,54.12a.39.39,0,0,0,.41.35A.39.39,0,0,0,73,54a.37.37,0,0,0-.41-.35A.39.39,0,0,0,72.24,54.12Z"/><path class="cls-28" d="M45.22,64.37a2,2,0,0,0,.87,1.75,1.54,1.54,0,0,0,.89.31,1.45,1.45,0,0,0,1.08-.5,2.65,2.65,0,0,0,.65-1.33A1.84,1.84,0,0,0,48.25,63a5.68,5.68,0,0,0-.91-.61,1.31,1.31,0,0,1-.44-.54,1.89,1.89,0,0,1-.12-1.3.91.91,0,0,1,.65-.69.89.89,0,0,1,.27-.07.69.69,0,0,1,.28,0,.52.52,0,0,1,.16.06l.08.06.23.33c.33.5.6.63.92.64a.79.79,0,0,0,.55-.25,1.23,1.23,0,0,0,.32-.6,8,8,0,0,0,.16-1.84,10.79,10.79,0,0,0-.08-1.26,7.16,7.16,0,0,0-.66-2.37,4.05,4.05,0,0,0-1.24-1.52c-.91-.65-1.67-.45-1.66-.35s.65.22,1.31.94a5.29,5.29,0,0,1,1.21,3.5,8.23,8.23,0,0,1,0,1.11c0,.37,0,.28-.06.37s-.15,0-.14-.09v0l-.2-.16a1.5,1.5,0,0,0-.41-.22,1.9,1.9,0,0,0-.72-.13,1.83,1.83,0,0,0-.63.11,2.49,2.49,0,0,0-.59.33,2.86,2.86,0,0,0-1,1.73,3.61,3.61,0,0,0,.39,2.57,2.46,2.46,0,0,0,.92.92,7,7,0,0,1,.8.38.45.45,0,0,1,.19.45,1.43,1.43,0,0,1-.26.71.87.87,0,0,1-1.14.28C45.59,65.09,45.32,64.29,45.22,64.37Z"/><path class="cls-33" d="M43.88,53.08c-.62.63-1.33.82-1.59.42s0-1.23.65-1.86,1.33-.82,1.59-.42S44.5,52.46,43.88,53.08Z"/><path class="cls-33" d="M46.21,50a.71.71,0,0,1-.31.81.43.43,0,0,1-.66-.22.71.71,0,0,1,.3-.81A.44.44,0,0,1,46.21,50Z"/><path class="cls-8" d="M83.34,70.59s9.09,6.76,16.3-.84c0,0,.55,9.33-6.44,10.23S82.64,74.35,83.34,70.59Z"/><path class="cls-37" d="M83.34,70.59s9.09,6.76,16.3-.84c0,0,.55,9.33-6.44,10.23S82.64,74.35,83.34,70.59Z"/><path class="cls-38" d="M95.52,79.27C93.71,76.6,86.44,75.33,84.09,75a8.54,8.54,0,0,0,9.11,5A6.72,6.72,0,0,0,95.52,79.27Z"/><path class="cls-28" d="M93.56,81.19c.16,0,.16.75,0,1.46A5.25,5.25,0,0,1,93,84.06a3.7,3.7,0,0,1-1.27.93c-.74.35-1.55.18-1.52,0s.64-.33,1.06-.76a3.34,3.34,0,0,0,.71-.91,6.22,6.22,0,0,0,.74-1C93.07,81.77,93.39,81.15,93.56,81.19Z"/><path class="cls-3" d="M83.34,70.59a6.4,6.4,0,0,0,.1,2.52c2.35,2.51,5.77,4.66,10.11,3.33,2.42-.74,3.51-4.54,3.51-4.54l0,0C90.4,75.84,83.34,70.59,83.34,70.59Z"/><path class="cls-28" d="M83.93,69.31c.08,0,.12.43.06.87a2.33,2.33,0,0,1-.32.86,1.66,1.66,0,0,1-.83.5c-.5.13-.94-.19-.87-.26s.42,0,.73-.16a1.31,1.31,0,0,0,.47-.46,2,2,0,0,0,.39-.61C83.72,69.7,83.84,69.3,83.93,69.31Z"/><path class="cls-28" d="M101.18,70.28c.06.08-.39.36-.89.24a1.8,1.8,0,0,1-.86-.49,2.44,2.44,0,0,1-.36-.87c-.08-.45,0-.89.05-.89s.2.4.37.75a2.21,2.21,0,0,0,.42.61,1.49,1.49,0,0,0,.52.47C100.75,70.29,101.14,70.22,101.18,70.28Z"/><path class="cls-39" d="M83.34,70.59a6.4,6.4,0,0,0,.1,2.52,13.9,13.9,0,0,0,2.45,2.1c-1.39-1.41-1.7-2.69.5-1.6,3.42,1.68,8.7,0,10.31-.73a10.16,10.16,0,0,0,.36-1l0,0C90.4,75.84,83.34,70.59,83.34,70.59Z"/><path class="cls-28" d="M99.78,69.71c.06.05-.21.55-.81,1.16a8.73,8.73,0,0,1-2.56,1.77,11.32,11.32,0,0,1-3,.91,14,14,0,0,1-1.4.17s-.57,0-1.43,0a13,13,0,0,1-3.07-.59c-2.17-.72-4-2.12-3.83-2.27s2,1,4.07,1.41a12.38,12.38,0,0,0,2.87.29,13,13,0,0,0,1.32-.06s.53,0,1.32-.07a11.42,11.42,0,0,0,2.82-.58,10,10,0,0,0,2.58-1.32C99.31,70,99.7,69.65,99.78,69.71Z"/><path class="cls-40" d="M94.11,78c-.34.73-1.33,1.65-4.16.9-3.13-.83-4-2.63-4.22-3.63L84.09,75a8.54,8.54,0,0,0,9.11,5,6.72,6.72,0,0,0,2.32-.71A4.91,4.91,0,0,0,94.11,78Z"/><path class="cls-29" d="M86.85,65.47s4,1,8.91-2.76c0,0,2.59,1.51-1.85,3.38C88,68.59,86.85,65.47,86.85,65.47Z"/><path class="cls-28" d="M89.46,66.66c0-.1.78.14,1.88,0a11.24,11.24,0,0,0,3.8-1.44,2.34,2.34,0,0,0,1.19-1.36,1.13,1.13,0,0,0-.57-1.13,2.74,2.74,0,0,0-1.05-.43,2.84,2.84,0,0,0-.45-.05,4.2,4.2,0,0,0-1.07,0,5.39,5.39,0,0,0-1.25.25,5.2,5.2,0,0,0-.76.3,16.46,16.46,0,0,0-1.62,1.09c0-.65,0-1.36-.06-2.1V57.93a11.84,11.84,0,0,1,.18-2.84,11.46,11.46,0,0,1,.43,2.81c.07.8.16,1.68.24,2.55,0,.43.07.86.11,1.27,0,.12,0,.17.06.19l.15-.13a7.48,7.48,0,0,1,.89-.4A6.31,6.31,0,0,1,93.07,61a5.44,5.44,0,0,1,1.31,0,3.61,3.61,0,0,1,.59.1,4,4,0,0,1,1.48.7,2.52,2.52,0,0,1,.76.92,2.13,2.13,0,0,1,.14,1.37A3.25,3.25,0,0,1,95.59,66a10.46,10.46,0,0,1-4.21,1.16A2.84,2.84,0,0,1,89.46,66.66Z"/><path class="cls-41" d="M93.39,63c.12.29-.26.74-.87,1s-1.19.26-1.32,0,.26-.73.87-1S93.26,62.73,93.39,63Z"/><path class="cls-29" d="M80.49,65.35c.14,2.83-3.35,5.29-7.78,5.5s-8.13-1.91-8.26-4.74,3.35-5.29,7.78-5.5S80.36,62.53,80.49,65.35Zm28.18-8.26c-4.27,1-7.22,4-6.59,6.79s4.61,4.18,8.88,3.19,7.22-4,6.58-6.8S112.94,56.09,108.67,57.09Z"/><path class="cls-29" d="M60.45,27.16C84.37,45.59,112,32.47,112,32.47c1.32,1.75,2.69,5.28,3.83,8.75-1.66-7.39-8.86-30.52-34-30.34C52.1,11.1,46.27,34,46.76,48.12a5.8,5.8,0,0,0-2.17.87,12.91,12.91,0,0,0,1.9,1.55c4.76,2.14,4.14,10.67,6.9,8.48s.92-10.93.92-10.93C59.53,43.4,60.45,27.16,60.45,27.16Z"/><path class="cls-42" d="M45.51,48.18s-7.34-4.44-7.13-14.76C38.63,21,46,15.54,56.44,15.8,56.44,15.8,67-.31,82.64,0s20.07,13.37,26.2,12.44,8-2.93,8-2.93.3,6.55-2.76,8.74c0,0,4.6-1.25,6.74-2.81,0,0,.62,7.81-3.06,13.12,0,0,3.68,7.18,1.84,12.18a40.69,40.69,0,0,0-2.15,7.18s-3.37-13.74-6.44-17.8c0,0-27.61,13.12-51.53-5.31,0,0-.92,16.24-6.14,20.92,0,0,1.84,8.75-.92,10.94S50.27,50.32,45.51,48.18Z"/><path class="cls-8" d="M59.05,53.56S57.67,53,57.59,53l-5.9-2.35-3.34-1.29-1.5-.56c-.29-.11-1.1-.57-1.34-.44l-.61.35a1.55,1.55,0,0,1,.73-1.58c.45-.25.9,0,1.36.2l2.86,1q4.92,1.69,9.84,3.35Z"/><path class="cls-37" d="M59.16,53.23l.25-.72q-5.52-1.86-11-3.76c-.65-.23-3-1.4-3.51-.5a1.9,1.9,0,0,0,0,.34.72.72,0,0,1,.39-.12l.22-.13c.24-.13,1.05.33,1.34.44l.58.21.39.15.17.06.36.14L50,50l1.14.44.25.1.33.12,3.86,1.54,1.68.66.07,0,.29.12c.08,0,1.47.57,1.46.58l.09-.26Z"/><path class="cls-8" d="M86.44,52.69l-.85-1.81c.2-.1,5-2.35,9.26-.73L94.14,52C90.71,50.71,86.48,52.67,86.44,52.69Z"/><path class="cls-37" d="M86.44,52.69s4.27-2,7.7-.67l.31-.83c-3.48-1.07-7.19.24-8.37.73Z"/><path class="cls-25" d="M59.6,52.88s13.52-9.53,26.27-1c0,0,1.69,19.23-12,19.74S59.6,52.88,59.6,52.88Z"/><path class="cls-25" d="M78.73,48.81,71,71.4a13.17,13.17,0,0,0,2.87.22c.39,0,.78-.05,1.15-.1l7.67-21.39A20.4,20.4,0,0,0,78.73,48.81Z"/><path class="cls-25" d="M69.22,48.88,63.39,66a13.74,13.74,0,0,0,3,3.31l7.51-20.93A24.38,24.38,0,0,0,69.22,48.88Z"/><path class="cls-25" d="M85.93,54.54c0-1.61-.06-2.66-.06-2.66-12.75-8.53-26.27,1-26.27,1a31.18,31.18,0,0,0,.34,3.17C65.47,59.11,75,61.71,85.93,54.54Z"/><path class="cls-8" d="M73.36,72.63c-13.88,0-14.67-19.51-14.67-19.71l0-.57L59.1,52c.14-.09,14.16-9.77,27.25-1l.39.26,0,.49c0,.43.87,10.52-4,16.54a11.42,11.42,0,0,1-8.87,4.3ZM60.55,53.43c.22,3.17,1.87,17.64,13.31,17.19A9.73,9.73,0,0,0,81.41,67c3.77-4.67,3.67-12.5,3.58-14.53C74.28,45.65,62.93,52,60.55,53.43Z"/><path class="cls-37" d="M82,67.67c4.48-5.55,3.72-14.85,3.68-15.24l0-.46-.36-.24c-12.06-8.07-25,.85-25.1.94l-.41.28,0,.52c0,.19.73,18.16,13.52,18.16h.52A10.49,10.49,0,0,0,82,67.67ZM60.55,53.43c2.38-1.48,13.73-7.78,24.44-1,.09,2,.19,9.86-3.58,14.53a9.73,9.73,0,0,1-7.55,3.62C62.42,71.07,60.77,56.6,60.55,53.43Z"/><path class="cls-25" d="M94.59,51s12.68-10.62,26.1-3.18c0,0,3.28,19-10.3,20.67S94.59,51,94.59,51Z"/><path class="cls-25" d="M113.32,45.39l-5.81,23.15a13.25,13.25,0,0,0,2.88,0c.39,0,.77-.12,1.13-.19l5.87-21.95A19.6,19.6,0,0,0,113.32,45.39Z"/><path class="cls-25" d="M103.85,46.25l-4.39,17.5a13.39,13.39,0,0,0,3.22,3.06l5.75-21.49A24.59,24.59,0,0,0,103.85,46.25Z"/><path class="cls-25" d="M121,50.5c-.1-1.6-.28-2.65-.28-2.65C107.27,40.41,94.59,51,94.59,51a29.32,29.32,0,0,0,.6,3.14C101,56.75,110.64,58.55,121,50.5Z"/><path class="cls-8" d="M110,69.57C96.11,70.72,93.71,51.34,93.68,51.15l-.06-.57.41-.34c.13-.11,13.29-10.92,27.07-3.28l.41.23.08.49c.07.42,1.73,10.42-2.61,16.82a11.42,11.42,0,0,1-8.48,5ZM95.59,51.5c.48,3.14,3.32,17.43,14.68,16a9.74,9.74,0,0,0,7.23-4.22c3.37-5,2.62-12.77,2.36-14.79C108.62,42.61,97.83,49.83,95.59,51.5Z"/><path class="cls-37" d="M118.14,63.91c4-5.9,2.47-15.1,2.41-15.49l-.08-.46-.38-.2c-12.69-7-24.82,2.91-24.94,3l-.38.32.06.52c0,.18,2.24,18,15,17l.51,0A10.52,10.52,0,0,0,118.14,63.91ZM95.59,51.5c2.24-1.67,13-8.89,24.27-3,.26,2,1,9.82-2.36,14.79a9.74,9.74,0,0,1-7.23,4.22C98.91,68.93,96.07,54.64,95.59,51.5Z"/><path class="cls-42" d="M71.42,42.76c-.12.22-1,.06-1.73.21a4.14,4.14,0,0,0-1.36.5A4,4,0,0,0,67,44c-.66.4-1.17,1.1-1.41,1s-.17-1.09.45-2a4.34,4.34,0,0,1,1-1,4.17,4.17,0,0,1,.58-.36,3.57,3.57,0,0,1,.67-.14,4.49,4.49,0,0,1,1.44.07C70.8,41.85,71.56,42.54,71.42,42.76Z"/><path class="cls-42" d="M107.63,40c-.17.2-1-.24-1.73-.5a4.07,4.07,0,0,0-1.42-.27,1.72,1.72,0,0,0-.36-.08,2.38,2.38,0,0,0-.91,0,2.52,2.52,0,0,0-.88.38c-.24.16-.4.34-.54.3s-.19-.29-.08-.69a2.32,2.32,0,0,1,.91-1.18,3.26,3.26,0,0,1,1.41-.57,3.55,3.55,0,0,1,.73,0,4.68,4.68,0,0,1,.65.23,4.45,4.45,0,0,1,1.18.76C107.34,39,107.8,39.83,107.63,40Z"/><path class="cls-43" d="M45.45,24.18a5.9,5.9,0,0,1,1.17-2.28A10.23,10.23,0,0,1,48.43,20a9.89,9.89,0,0,1,2.3-1.2,5.08,5.08,0,0,1,1.76-.35c.5,0,.81.13.8.17a6.43,6.43,0,0,1-.78.08,5.6,5.6,0,0,0-1.61.51,10.75,10.75,0,0,0-2.1,1.29A11,11,0,0,0,47,22.18C46.12,23.09,45.53,24.22,45.45,24.18Zm3.34,2.62a14.49,14.49,0,0,1,.79-1.45,17.25,17.25,0,0,1,2.24-2.87,12.4,12.4,0,0,1,2.86-2.24,6.07,6.07,0,0,1,1.57-.52,2.78,2.78,0,0,0-1.67.3,11.41,11.41,0,0,0-3.07,2.15A16.92,16.92,0,0,0,49.09,25a15,15,0,0,0-.86,1.48l-.21.42c-.11.28-.28.68-.47,1.15a17.74,17.74,0,0,0-.89,3.65,14.64,14.64,0,0,0,0,3.74,10.42,10.42,0,0,0,.21,1.21,1.52,1.52,0,0,0,.14.45,16.69,16.69,0,0,0-.11-1.68,15.85,15.85,0,0,1,.22-3.65,17.49,17.49,0,0,1,1-3.51l.49-1.1ZM55.27,25a2.8,2.8,0,0,0-.17,1.43c.09,0,.28-.66.59-1.27a8.52,8.52,0,0,1,.7-1.15,8.65,8.65,0,0,1,.78-1.11c.44-.53,1-1,.94-1a2.77,2.77,0,0,0-1.25.73,6.66,6.66,0,0,0-1,1.07A7.28,7.28,0,0,0,55.27,25ZM67.2,8.33s.58-.42,1.5-1a29.76,29.76,0,0,1,3.51-1.8c1.32-.58,2.68-1.06,3.71-1.4a14.31,14.31,0,0,0,1.71-.6,9,9,0,0,0-1.78.36A34.28,34.28,0,0,0,72,5.15a28.38,28.38,0,0,0-3.63,1.71c-1,.54-1.56.95-1.56.95s-.61.42-1.45,1.12a20.28,20.28,0,0,0-2.82,2.87,16.05,16.05,0,0,0-2.11,3.42A11.38,11.38,0,0,0,60,16.44a1.87,1.87,0,0,0-.12.49s.31-.66.83-1.61a17.79,17.79,0,0,1,2.23-3.23A21.27,21.27,0,0,1,67.2,8.33Zm-1.61,7.08c.64-.38,1.37-.61,1.36-.7a3.09,3.09,0,0,0-1.55.3,6.85,6.85,0,0,0-1.4.77A6.65,6.65,0,0,0,63,17a3,3,0,0,0-.63,1.44c.08,0,.47-.62,1-1.17a8.69,8.69,0,0,1,1.1-1A8,8,0,0,1,65.59,15.41Zm27,14.06a41.21,41.21,0,0,1-5.59.36,40.6,40.6,0,0,1-5.56-.48c-.75-.1-1.37-.27-1.81-.34l-.68-.14-.68-.16c-.43-.12-1.06-.23-1.78-.46a39.49,39.49,0,0,1-5.25-1.9,39.52,39.52,0,0,1-4.92-2.68c-1.28-.83-2.1-1.44-2.13-1.4s.17.19.52.47.84.71,1.48,1.14A36.73,36.73,0,0,0,71,26.76a39.94,39.94,0,0,0,5.28,2c.73.25,1.36.37,1.8.49l.68.18.7.13c.45.07,1.08.22,1.85.31a39.1,39.1,0,0,0,5.65.35,35.19,35.19,0,0,0,5.62-.56c.76-.12,1.37-.31,1.81-.41a3.45,3.45,0,0,0,.68-.2C95.05,29,94.05,29.25,92.54,29.47Zm10.31-13.76a20.75,20.75,0,0,0,3.55.09,14.53,14.53,0,0,0,1.62-.18,12.2,12.2,0,0,0,1.58-.42,12.8,12.8,0,0,0,3.21-1.55,10.25,10.25,0,0,0,2.55-2.48,6.65,6.65,0,0,0,.59-1c.12-.26.18-.4.16-.41s-.35.54-1,1.27a10.11,10.11,0,0,1-2.59,2.25,12.4,12.4,0,0,1-3.14,1.38,13.1,13.1,0,0,1-1.52.35s-.62.13-1.55.23a20.75,20.75,0,0,1-3.47,0,34.78,34.78,0,0,1-3.47-.42,9,9,0,0,0-1.58-.21,7.33,7.33,0,0,0,1.54.45A29.24,29.24,0,0,0,102.85,15.71Zm4.28,5.75A13.43,13.43,0,0,0,109,21a9.42,9.42,0,0,0,1.74-.84,9.54,9.54,0,0,0,3-2.95,18.53,18.53,0,0,0,1.84-3.73,11,11,0,0,0,.58-1.79,13,13,0,0,0-.81,1.7,20.44,20.44,0,0,1-2,3.57,9.15,9.15,0,0,1-2.93,2.7,8.79,8.79,0,0,1-1.66.75,14.36,14.36,0,0,1-1.76.53,25.7,25.7,0,0,1-4.05.56c-1.49.11-3,.11-4.11.08a15.22,15.22,0,0,0-1.88,0,9.74,9.74,0,0,0,1.87.28,35.7,35.7,0,0,0,4.15.11A24,24,0,0,0,107.13,21.46ZM87.64,7.06c.7.61,1.44,1.17,1.44,1.17s.79.5,1.6.94a6,6,0,0,0,1.71.74,10,10,0,0,0-1.47-1.12L89.44,7.71l-1.53-1a9.32,9.32,0,0,0-1.56-1A5.8,5.8,0,0,0,87.64,7.06Zm26.17,17.23a25.18,25.18,0,0,0,2.8-2.47,15.36,15.36,0,0,0,2.27-3,5.3,5.3,0,0,0,.68-1.55s-.33.59-.89,1.42a16.2,16.2,0,0,1-2.37,2.78,29,29,0,0,1-4.21,3.26,44.11,44.11,0,0,1-4.57,2.78c-1.19.62-2.41,1.17-3.34,1.56a12.56,12.56,0,0,0-1.55.67,8.41,8.41,0,0,0,1.64-.44,31.82,31.82,0,0,0,3.44-1.39,41.54,41.54,0,0,0,4.73-2.66S113,24.9,113.81,24.29Zm2.15,5a7.83,7.83,0,0,0,.65-.67s.24-.28.56-.73.72-1.06,1.09-1.7a10.08,10.08,0,0,0,1.19-2.66c-.07,0-.75,1.24-1.57,2.43-.4.59-.84,1.16-1.17,1.58s-.58.68-.58.68-.22.28-.58.66a7,7,0,0,1-1.48,1.21,5.26,5.26,0,0,1-1.8.67c-.52.08-.88.06-.89.1a1.58,1.58,0,0,0,.91.14,4.87,4.87,0,0,0,2-.52A7.18,7.18,0,0,0,116,29.26ZM59.07,23a2.1,2.1,0,0,0-.1-.58s0,.86,0,2.14a38.07,38.07,0,0,1-.33,4.67,35.32,35.32,0,0,1-1,4.57c-.15.62-.34,1.12-.45,1.48s-.18.55-.18.55l-.19.55c-.13.35-.28.86-.53,1.44a39.53,39.53,0,0,1-2,4.23A38.48,38.48,0,0,1,51.73,46a19.93,19.93,0,0,0-1.28,1.71s.17-.13.43-.4.64-.65,1-1.16a30.54,30.54,0,0,0,2.77-3.84,33.88,33.88,0,0,0,2.15-4.23c.27-.59.43-1.1.58-1.45s.21-.56.21-.56l.17-.57c.1-.36.28-.87.42-1.51a33.84,33.84,0,0,0,.85-4.66,32.74,32.74,0,0,0,.14-4.73C59.19,23.94,59.11,23.41,59.07,23Zm-16.65,17a17.35,17.35,0,0,1-1-3.14c-.37-1.63-.38-3.32-.46-3.32A9.53,9.53,0,0,0,41,37a16.27,16.27,0,0,0,.88,3.3,16.68,16.68,0,0,0,1.72,3A10.14,10.14,0,0,0,46,45.67c.06-.07-1.13-1.26-2-2.67A18.3,18.3,0,0,1,42.42,40.05Zm8.78,9.43c0-.07-.57-.58-1.05-1.21a8.43,8.43,0,0,1-.81-1.33,8,8,0,0,1-.67-1.41c-.26-.73-.36-1.53-.45-1.53a3.24,3.24,0,0,0,0,1.65,7,7,0,0,0,.54,1.59,7,7,0,0,0,1,1.32A3.08,3.08,0,0,0,51.2,49.48Zm2.13-.79A8.75,8.75,0,0,1,52.45,51,8.52,8.52,0,0,1,51,53a16.54,16.54,0,0,1-2,1.54,5.08,5.08,0,0,0,2.27-1.21,8.53,8.53,0,0,0,1.65-2,8.5,8.5,0,0,0,.77-2.5,5,5,0,0,0-.24-2.55A19.27,19.27,0,0,1,53.33,48.69Zm63.83-13s.2-.26.45-.67a11.18,11.18,0,0,0,.77-1.55,13.06,13.06,0,0,0,.59-1.61c.11-.48,0-.81,0-.8s0,.31-.2.72-.48,1-.76,1.5a12.28,12.28,0,0,1-.85,1.43,5.52,5.52,0,0,1-.46.58,5.91,5.91,0,0,1-.47.56,4.31,4.31,0,0,1-1.31.9,3.53,3.53,0,0,1-1.57.32c-.45,0-.74-.13-.76-.09s.25.22.73.33a3.53,3.53,0,0,0,1.76-.14,4.82,4.82,0,0,0,1.54-.9A5.37,5.37,0,0,0,117.16,35.72Zm2.61,1a16,16,0,0,0-.86,1.39,5,5,0,0,1-.68.82c-.22.19-.37.3-.37.3a3.27,3.27,0,0,1-.37.28,3.05,3.05,0,0,1-1,.39,2.41,2.41,0,0,1-1,0,.28.28,0,0,1-.24-.13c0-.08,0-.1,0-.1a.11.11,0,0,0-.12.13.4.4,0,0,0,.28.33,2.18,2.18,0,0,0,1.18.22,3.22,3.22,0,0,0,1.18-.33,3.14,3.14,0,0,0,.48-.29,2.89,2.89,0,0,0,.39-.39,4.69,4.69,0,0,0,.66-1A3.5,3.5,0,0,0,119.77,36.73Z"/><path class="cls-44" d="M68.33,8.08l-.14.13Zm-5.17,16c2.67-1.5,6.34,1.66,6.34,1.66s-6.84-6-3-9.33a28.26,28.26,0,0,1,8-4.83s-12.17,3.83-10.67,1.5a28.79,28.79,0,0,1,4.36-4.87c-1.2,1.07-9.6,8.51-8.36,3.87l.21-.75a40,40,0,0,0-3.6,4.47c-6.38-.15-11.61,1.83-14.77,6.24,1.56-1,3.85-2.39,4.49-2,1,.66-2.33,6.5-2.33,6.5s3.83-4.17,4.67-3.34-2,9-2,9,4.33-7.33,5.83-6.5.33,5.67.33,5.67,2.67-5.83,5.17-4.5a3.12,3.12,0,0,1,1.24,2c.3-2.4.4-4.06.4-4.06a47.51,47.51,0,0,0,9.28,5.61C65.52,28.18,61.49,25,63.16,24.08Zm57.65-8.64c-2.14,1.56-6.74,2.81-6.74,2.81,3.06-2.19,2.76-8.74,2.76-8.74s-1.85,2-8,2.93c-2.71.41-5.08-1.91-8.24-4.65,1.42,1.91,2.67,4.1,1.77,5-1.3,1.31-5.66,1.09-7.64.78,2.41.95,8.38,3.93,8.89,4.85.63,1.12-8.75,2.37-8.75,2.37s11.25,1.13,12.5,3.75S95.12,34,95.12,34s2.12-.21,4.79-.51A52.41,52.41,0,0,0,111,30.12c2.17,2.87,4.49,10.57,5.66,14.84.36.89.67,1.67.91,2.29a44.23,44.23,0,0,1,1.32-4.55,1.12,1.12,0,0,1-.89-.42c-1.38-1.87-1.88-10.87-.38-12.37l.53-.49c-.24-.54-.4-.86-.4-.86C121.43,23.25,120.81,15.44,120.81,15.44ZM53.33,45.73s1.84,8.75-.92,10.94-2.14-6.35-6.9-8.49a16.91,16.91,0,0,1-7.1-13.43c.47,2.3,1.3,5.5,2.34,5.66,1.62.25,0-5.5,0-5.5s5.12,7.62,7.87,7.62c2.27,0,7.6-5.44,9.39-7.34C57.09,39.36,55.63,43.67,53.33,45.73Z"/><g class="cls-45"><path class="cls-42" d="M42.66,22.58c-1.87,2.31-4.15,5.85-3.3,9a.57.57,0,0,0,1,.13,25.71,25.71,0,0,0,1.48-3.81,20,20,0,0,1,2.19-4.23c.57-.82-.76-1.87-1.4-1.08Z"/><path class="cls-42" d="M44.3,27a5.77,5.77,0,0,0-2.59,4c-.27,1.47-.16,4.05,1.7,4.47,3.34.77,3.14-5.86,2.75-7.75A1.28,1.28,0,0,0,44.3,27Z"/><path class="cls-42" d="M50.55,28.18c-1.16.53-1.89,2.53-2.19,3.72a8.69,8.69,0,0,0,.34,5,.48.48,0,0,0,.91,0c.35-1.49.78-3,1-4.51.17-1.18.75-2.87.36-4a.28.28,0,0,0-.41-.17Z"/><path class="cls-42" d="M55.46,29.49a5.59,5.59,0,0,1-.06.73l-.08,1.31a8.42,8.42,0,0,0,.18,2.18.53.53,0,0,0,1,.13,20.51,20.51,0,0,0,1.44-4.41l-.57.74.2-.14a1.52,1.52,0,0,0-.36-2.74c-1.17-.32-2.51,1.1-1.7,2.2Z"/><path class="cls-42" d="M67.56,13.21c2.58.1,4.85-1.44,7.25-2.23a25.3,25.3,0,0,1,8.34-1,1.33,1.33,0,0,0,.93-2.24c-4.32-4.79-15.14-2.62-18,2.88a1.75,1.75,0,0,0,1.5,2.61Z"/><path class="cls-42" d="M88.41,4.21a15.52,15.52,0,0,1,2.22,1.47,9.36,9.36,0,0,0,2.16,1.39c.61.21.94-.49.74-1-.77-1.81-3.3-2.24-5-2.25a.19.19,0,0,0-.09.35Z"/><path class="cls-42" d="M66.69,26.72c4.71,4.73,13.13,7,19.64,7.13.46,0,.59-.74.11-.83A56.47,56.47,0,0,1,77,30.74c-3.43-1.28-6.47-3.26-9.8-4.68-.42-.17-.88.3-.51.66Z"/><path class="cls-42" d="M67.41,21.22C73.17,28,89.8,30,97.3,25.72A1,1,0,0,0,97.08,24c-5-.88-10.11-.12-15.18-1-4.64-.84-9-3.32-13.63-3.83-1.15-.12-1.47,1.37-.86,2.09Z"/><path class="cls-42" d="M102,25.5a3.8,3.8,0,0,1,1.15-.19,1.94,1.94,0,0,0,1.19-.16.67.67,0,0,0,.13-1c-.74-.74-2.16-.15-2.94.26A.62.62,0,0,0,102,25.5Z"/><path class="cls-42" d="M78.9,15.92a13.2,13.2,0,0,0,3.45.41,37.77,37.77,0,0,1,5.83,1.4c2.92.81,5.86,1.84,8.87.94a1.37,1.37,0,0,0,.81-2c-2.33-3.58-6.8-4.24-10.77-4.68-2.88-.32-8-1.08-8.91,2.65a1.07,1.07,0,0,0,.72,1.27Z"/><path class="cls-42" d="M100,18.28a2.85,2.85,0,0,0,1.07.37,6.12,6.12,0,0,0,1-.18c.38-.06.37-.58.1-.77a5.71,5.71,0,0,0-.84-.54,2.78,2.78,0,0,0-1-.1c-.6,0-1,1-.33,1.22Z"/></g><path class="cls-4" d="M76.65,94.38a1.22,1.22,0,0,1,.24-.1c-.5.14,1,3.81,1.23,4.27a10.25,10.25,0,0,0,3,3.1,10.14,10.14,0,0,0,8.25,1.81A8.17,8.17,0,0,0,94,100.58a9.27,9.27,0,0,0,1.35-6.31,29.8,29.8,0,0,1,5.58,9.18c1,3-.36,12.06-5,9.79-2.34-1.15-4.56-5.63-6.29-8,0,0-5.52,9.82-7.37,10-3.47.37-6.5-4.53-7.72-7.11-2-4.18-2.42-9.46,1.1-13A5.3,5.3,0,0,1,76.65,94.38Z"/><path class="cls-3" d="M76.32,92.55a.82.82,0,0,1,.24-.1c-.5.14,1,3.81,1.22,4.27a10.4,10.4,0,0,0,3,3.1,10.07,10.07,0,0,0,8.24,1.8,8.15,8.15,0,0,0,4.69-2.88A9.23,9.23,0,0,0,95,92.44a29.59,29.59,0,0,1,5.59,9.17c1,3-.37,12.06-5,9.8-2.35-1.16-4.56-5.63-6.29-8,0,0-5.52,9.82-7.38,10-3.46.37-6.5-4.54-7.72-7.11-2-4.19-2.41-9.46,1.1-13A4.94,4.94,0,0,1,76.32,92.55Z"/><path class="cls-4" d="M81.9,110.69C76,109.38,78,99.81,78,99.81s3,5.54,11.38,2.93,5.94-8.89,5.7-10.3a9.23,9.23,0,0,1-1.34,6.3A8.15,8.15,0,0,1,89,101.62a10.07,10.07,0,0,1-8.24-1.8,10.4,10.4,0,0,1-3-3.1c-.27-.46-1.72-4.13-1.22-4.27a.82.82,0,0,0-.24.1,4.94,4.94,0,0,0-.94.81c-3.51,3.52-3.08,8.79-1.1,13,1.22,2.57,4.26,7.48,7.72,7.11.67-.08,1.8-1.38,3-3A4.78,4.78,0,0,1,81.9,110.69Z"/><path class="cls-4" d="M89.38,103.43c1.73,2.35,3.94,6.82,6.29,8,3.91,1.92,5.49-4.32,5.25-8.1-.61,2.56-1.46,5.16-2.55,6.28C95.89,112.14,89.38,103.43,89.38,103.43Z"/></g></g></g></svg>