<svg xmlns="http://www.w3.org/2000/svg" viewBox="0 0 112.46 172.15"><defs><style>.cls-1{isolation:isolate;}.cls-2{fill:#d4ecd4;}.cls-10,.cls-11,.cls-19,.cls-2,.cls-22,.cls-23,.cls-25,.cls-28,.cls-29,.cls-30,.cls-34,.cls-35,.cls-36,.cls-4,.cls-42,.cls-45,.cls-47,.cls-5,.cls-6{mix-blend-mode:multiply;}.cls-3{fill:#f15e6b;}.cls-4,.cls-5,.cls-8{fill:#d65666;}.cls-18,.cls-19,.cls-30,.cls-34,.cls-5{opacity:0.45;}.cls-7{fill:#e27975;}.cls-9{fill:#fff;}.cls-10,.cls-12,.cls-29{fill:#d3dbfd;}.cls-10,.cls-11,.cls-37,.cls-42{opacity:0.5;}.cls-13,.cls-20,.cls-25{fill:#294168;}.cls-13{opacity:0.6;}.cls-13,.cls-15,.cls-16,.cls-24,.cls-27,.cls-31,.cls-37,.cls-38,.cls-39,.cls-41,.cls-43{mix-blend-mode:screen;}.cls-14,.cls-30,.cls-31,.cls-45{fill:#3c1d91;}.cls-15,.cls-17,.cls-19{fill:#212f47;}.cls-21,.cls-23,.cls-24{fill:#88ac76;}.cls-22,.cls-23,.cls-25,.cls-28{opacity:0.34;}.cls-26,.cls-27,.cls-28{fill:#717982;}.cls-32,.cls-34,.cls-36,.cls-38{fill:#ebd0a6;}.cls-33{fill:#de9168;}.cls-35{fill:#e28c89;opacity:0.25;}.cls-36{opacity:0.62;}.cls-39{fill:#f8e9d0;}.cls-40,.cls-41,.cls-42{fill:#a95913;}.cls-43{opacity:0.35;}.cls-44{fill:#6f3a1e;}.cls-46,.cls-47{fill:#f2cb55;}</style></defs><title>supermanРесурс 3</title><g class="cls-1"><g id="Слой_2" data-name="Слой 2"><g id="OBJECTS"><ellipse class="cls-2" cx="39.59" cy="163.54" rx="39.59" ry="8.61"/><path class="cls-3" d="M46,43.18S60.38,75.84,69.65,88.42s42.81,19.42,42.81,19.42-5.95,19.64-18.31,18.76-11,12.35-19.86,19.86-19,5.29-26.27,2-24.71,3.09-25.38,3.76-9.71-42.6-11.25-68.64c-1-17.11,8.17-38.18,10.81-39.94S44.27,41.19,46,43.18Z"/><path class="cls-4" d="M80.4,111.34c-23-19.64-32-54.48-34.1-58.32A32.7,32.7,0,0,0,36,42c-5.86,0-12.37.69-13.83,1.66-2.64,1.76-11.83,22.83-10.81,39.94,1.54,26,10.59,69.3,11.25,68.64s18.1-7.07,25.38-3.76,17.44,5.52,26.27-2,7.5-20.75,19.86-19.86c4.56.32,8.25-2.16,11.09-5.41C100.2,122.49,92.18,121.38,80.4,111.34Z"/><path class="cls-5" d="M80.4,111.34c-23-19.64-32-54.48-34.1-58.32A32.7,32.7,0,0,0,36,42c-5.86,0-12.37.69-13.83,1.66-2.64,1.76-11.83,22.83-10.81,39.94.11,1.84.26,3.77.44,5.77.69-6.56,1.59-13.48,2.52-13.07,1.78.79,5.73,36.35,7.11,42.27s6.13,25.49,8.89,24.89,1.38-21.73,1-29.23-6.52-37.14-2.77-35.75,18,45.82,20,50,7.71,12.64,7.71,12.64S38.32,94.46,42.53,87.14s18.24,32,18.24,32-9.48-29.24-5.93-27.46,17.78,22.91,28.45,28.44A11.08,11.08,0,0,1,89,127.26a11.61,11.61,0,0,1,5.18-.66c4.56.32,8.25-2.16,11.09-5.41C100.2,122.49,92.18,121.38,80.4,111.34Z"/><g class="cls-6"><path class="cls-7" d="M83.11,119a6.32,6.32,0,0,1-.87-.46c-.53-.33-1.33-.74-2.22-1.35a64.18,64.18,0,0,1-6.32-4.7A67.45,67.45,0,0,1,68,107c-.74-.78-1.29-1.49-1.71-2l-.64-.76-.6-.78c-.36-.51-.94-1.2-1.54-2.1A66.69,66.69,0,0,1,59.4,94.7a64,64,0,0,1-3.22-7.19c-.4-1-.63-1.87-.84-2.46a6.76,6.76,0,0,1-.26-1,5.36,5.36,0,0,1,.38.91c.24.58.51,1.43.95,2.41a67.24,67.24,0,0,0,3.38,7.07A68.37,68.37,0,0,0,64,101.08c.6.88,1.19,1.56,1.56,2.06l.6.77.62.75c.41.47.94,1.19,1.67,2A68.33,68.33,0,0,0,74,112.18,71.42,71.42,0,0,0,80.16,117c.86.63,1.64,1.08,2.15,1.44A6.43,6.43,0,0,1,83.11,119Z"/></g><g class="cls-6"><path class="cls-7" d="M65.84,135.47a1.52,1.52,0,0,1-.13-.35l-.3-1c-.25-.85-.61-2.06-1-3.51-.87-2.91-2.07-6.77-3.37-10.6-2.56-7.67-5.58-15.17-5.58-15.17s-.19-.47-.51-1.3-.82-2-1.4-3.38c-1.15-2.81-2.69-6.55-4.24-10.28S46.15,82.43,45,79.63c-.58-1.41-1-2.58-1.39-3.4-.16-.41-.29-.73-.38-1a2,2,0,0,1-.11-.35,1.79,1.79,0,0,1,.17.32l.44.93c.36.81.87,2,1.49,3.35l4.47,10.19L54,100c.59,1.4,1.09,2.56,1.43,3.38l.52,1.29s3,7.54,5.42,15.26c1.25,3.85,2.39,7.74,3.19,10.67.4,1.46.72,2.69.93,3.55.11.43.19.77.24,1A2.08,2.08,0,0,1,65.84,135.47Z"/></g><g class="cls-6"><path class="cls-7" d="M69.83,140.2c-.09,0-.11-1.74-.48-3.43a27.64,27.64,0,0,0-.94-3.32s-.51-1.65-1.14-3.26a31,31,0,0,1-1.22-3.27A20.38,20.38,0,0,1,67.68,130c.74,1.59,1.33,3.25,1.33,3.25a24.59,24.59,0,0,1,.78,3.43A11.09,11.09,0,0,1,69.83,140.2Z"/></g><g class="cls-6"><path class="cls-7" d="M59.57,146.5s-.08-.07-.21-.21-.32-.37-.55-.66c-.46-.57-1.08-1.42-1.77-2.47a91.4,91.4,0,0,1-4.5-8.07c-1.55-3-3-6-4.11-8.27S46.71,123,46.71,123s-.67-1.54-1.57-3.9a82.77,82.77,0,0,1-2.84-8.8,62.27,62.27,0,0,1-1.66-9.09c-.14-1.26-.19-2.3-.21-3,0-.37,0-.66,0-.85a1.36,1.36,0,0,1,0-.3,1,1,0,0,1,0,.3c0,.19.05.48.09.84,0,.73.15,1.78.32,3a66.59,66.59,0,0,0,1.85,9,86,86,0,0,0,3,8.71c.92,2.33,1.6,3.86,1.6,3.86s.64,1.55,1.68,3.84,2.48,5.31,4,8.31,3,6,4.31,8.13c.66,1.08,1.25,1.94,1.67,2.54A9.69,9.69,0,0,1,59.57,146.5Z"/></g><g class="cls-6"><path class="cls-7" d="M23.79,126.35s-.06-.1-.14-.31-.19-.52-.33-.92c-.29-.78-.64-1.93-1.05-3.3A97.25,97.25,0,0,1,20,111.54c-.64-3.77-1.09-7.58-1.38-10.43s-.44-4.77-.44-4.77-.13-1.91-.32-4.77-.46-6.68-.55-10.51a50.62,50.62,0,0,1,.63-10.51,18.07,18.07,0,0,1,1-3.33c.16-.39.3-.69.4-.89a1.84,1.84,0,0,1,.18-.3s-.18.45-.46,1.23a20.21,20.21,0,0,0-.86,3.34,53.44,53.44,0,0,0-.43,10.45c.15,3.81.48,7.62.68,10.48s.38,4.76.38,4.76.15,1.91.38,4.76.66,6.65,1.25,10.42,1.37,7.51,2.09,10.28c.38,1.38.69,2.54.94,3.33.12.41.21.72.27.94A1.59,1.59,0,0,1,23.79,126.35Z"/></g><g class="cls-6"><path class="cls-7" d="M29.74,150.28a5.37,5.37,0,0,1,.26-.84c.17-.52.43-1.27.69-2.18a50.91,50.91,0,0,0,1.51-6.77,60.71,60.71,0,0,0,.63-6.91c.06-1.89,0-3.15,0-3.15s0-1.26-.07-3.16-.26-4.41-.54-6.92-.67-5-1-6.89c-.15-.94-.27-1.72-.36-2.27a5.3,5.3,0,0,1-.1-.87,4.88,4.88,0,0,1,.22.84c.13.55.3,1.32.48,2.25.38,1.87.82,4.37,1.17,6.88s.58,5,.68,7,.12,3.17.12,3.17,0,1.28-.09,3.19a57.63,57.63,0,0,1-.76,6.95,45.16,45.16,0,0,1-1.72,6.77c-.3.91-.59,1.65-.8,2.16A4.4,4.4,0,0,1,29.74,150.28Z"/></g><g class="cls-6"><path class="cls-7" d="M36.78,141.38a16.56,16.56,0,0,1-1.09-3.28c-.45-1.67-.75-3.38-.75-3.38s-.24-1.72-.33-3.44a16,16,0,0,1,0-3.46c.08,0,.19,1.71.41,3.42s.51,3.38.51,3.38.23,1.7.56,3.38S36.86,141.35,36.78,141.38Z"/></g><g class="cls-6"><path class="cls-7" d="M50.92,86.47a13.76,13.76,0,0,1-.23-1.85c-.11-1.11-.29-2.58-.49-4.05-.4-2.94-1-5.84-1-5.84s-.52-2.91-1.25-5.79c-.36-1.44-.75-2.87-1.07-3.94a13.13,13.13,0,0,1-.47-1.79,10.85,10.85,0,0,1,.71,1.72c.38,1,.84,2.47,1.26,3.9.84,2.86,1.44,5.78,1.44,5.78s.54,2.94.83,5.91c.15,1.48.25,3,.29,4.09A10.75,10.75,0,0,1,50.92,86.47Z"/></g><g class="cls-6"><path class="cls-8" d="M89.55,107.19A2,2,0,0,1,89,107c-.34-.15-.84-.34-1.4-.63a41.88,41.88,0,0,1-4.06-2.28c-1.42-.92-2.79-1.92-3.78-2.72S78.14,100,78.14,100s-.63-.58-1.52-1.48-2-2.18-3.08-3.5a43.76,43.76,0,0,1-2.65-3.83c-.34-.53-.58-1-.76-1.33a2.35,2.35,0,0,1-.25-.52,16.34,16.34,0,0,1,1.22,1.72c.71,1,1.72,2.38,2.79,3.68s2.23,2.5,3.14,3.37,1.53,1.43,1.53,1.43.61.57,1.57,1.38,2.28,1.84,3.66,2.81,2.82,1.81,3.92,2.42A19.91,19.91,0,0,1,89.55,107.19Z"/></g><g class="cls-6"><path class="cls-8" d="M105.79,114a5.85,5.85,0,0,1-1.23.31c-.74.14-1.73.31-2.74.43a27.66,27.66,0,0,1-4,.18,17.66,17.66,0,0,1-4-.75,9.84,9.84,0,0,1-3.58-1.87,8.1,8.1,0,0,1,1.14.53,15.5,15.5,0,0,0,2.57.91,18.49,18.49,0,0,0,3.91.56,32.26,32.26,0,0,0,4,0C103.78,114.19,105.77,113.93,105.79,114Z"/></g><path class="cls-5" d="M69.65,88.42c-6.87-9.34-16.54-29.71-21.07-39.61-2,0-3.59.27-4.22,1.19a28.82,28.82,0,0,1,1.94,3c1.6,3,7.37,24.53,20.58,43.23l.41,0s-4.63-12.82-1.23-10.35,6.7,10.53,17.48,18.16S100.65,110,100.65,110s-10.65-3.25-7.1-3.56,17.45,2.32,18.07,3.4a.23.23,0,0,0,.09.08c.5-1.29.75-2.11.75-2.11S78.92,101,69.65,88.42Z"/><path class="cls-9" d="M21.4,88.12s1.47,5.69-3.2,7a7,7,0,0,1-.79-4.08C17.77,89,20.93,87.62,21.4,88.12Z"/><path class="cls-10" d="M21.4,88.12s1.47,5.69-3.2,7a7,7,0,0,1-.79-4.08C17.77,89,20.93,87.62,21.4,88.12Z"/><path class="cls-10" d="M21.4,88.12s1.47,5.69-3.2,7a7,7,0,0,1-.79-4.08C17.77,89,20.93,87.62,21.4,88.12Z"/><path class="cls-9" d="M18.91,44.62S1.9,65.19,1.32,72.52,12.46,92.11,18.2,95.17c0,0-2.3-3.44,3.2-7,0,0-12.35-12.74-11.35-16.36s11-13.7,11-13.7A12.71,12.71,0,0,0,18.91,44.62Z"/><g class="cls-11"><path class="cls-12" d="M5.19,70.71a4.64,4.64,0,0,1,1.41-.19,4.84,4.84,0,0,1,1,.09,3.82,3.82,0,0,1,.44.11,3.18,3.18,0,0,1,.41.19,3.16,3.16,0,0,1,.8.59,2.52,2.52,0,0,1,.54.82,1,1,0,0,1,.09.44s-.07-.17-.19-.39a2.64,2.64,0,0,0-.57-.73,3.13,3.13,0,0,0-.78-.51A3.26,3.26,0,0,0,7.94,71a3.84,3.84,0,0,0-.41-.12,4.68,4.68,0,0,0-.93-.14C5.9,70.66,5.2,70.75,5.19,70.71Z"/><path class="cls-12" d="M7.61,69.06a3.19,3.19,0,0,1,.83.62,6.87,6.87,0,0,1,.68.79,6,6,0,0,1,.49.91,3.27,3.27,0,0,1,.28,1s-.22-.47-.46-.91a8.87,8.87,0,0,0-.53-.84,7.49,7.49,0,0,0-.6-.81C8,69.43,7.59,69.09,7.61,69.06Z"/></g><path class="cls-10" d="M21.37,88.14v0l0,0Z"/><path class="cls-10" d="M1.32,72.52h0c0-.13,0-.26.05-.4a.68.68,0,0,1,0-.14c0-.09,0-.2.06-.3l0-.15a3,3,0,0,1,.08-.32.83.83,0,0,1,0-.15c0-.16.09-.32.14-.48v0c.05-.15.1-.31.16-.47L2,69.9l.14-.36c0-.07.05-.13.08-.19s.1-.26.16-.38a.87.87,0,0,1,.07-.17c.08-.19.16-.37.25-.56l0-.07.24-.51a1.86,1.86,0,0,0,.1-.2c.07-.13.13-.27.2-.41a2.12,2.12,0,0,0,.11-.21l.23-.43a1.62,1.62,0,0,1,.1-.18c.1-.21.22-.41.33-.62l0-.08c.11-.18.21-.37.32-.56l.12-.2.25-.45.14-.22.27-.47.12-.19.4-.65,0-.1.36-.57.14-.22.29-.46.15-.23c.11-.16.21-.33.32-.5l.12-.17c.14-.23.29-.45.44-.68l.06-.08L8,59.19,8.14,59c.11-.15.21-.31.32-.47l.15-.22L9,57.77l.1-.16.47-.67.05-.07.42-.6.14-.19.34-.48.14-.2.37-.51.1-.13.48-.66,0,0c.14-.2.29-.4.44-.59l.11-.16.35-.48.13-.16.37-.5.08-.1.45-.61h0l.16,0c-.15.2-8.25,13.52-6.6,16s12-8.36,13.41-11.56A16.23,16.23,0,0,0,21.6,49.6h0a10.13,10.13,0,0,1,.24,1h0c.07.35.14.77.19,1.23,0,.25,0,.49,0,.73v.15c0,.24,0,.47,0,.69v0c0,.22,0,.42,0,.62s0,.1,0,.14c0,.21,0,.41-.07.6v.05c0,.19-.05.36-.08.53s0,.07,0,.11-.07.35-.11.51v0c0,.16-.07.31-.11.45l0,.06a4.17,4.17,0,0,1-.13.42c-.15.38-.32.78-.5,1.18l-.09.09,0,0-.08.09-.1.1-.08.09-.16.15-.06.07-.19.2L20.1,59l-.23.24-.07.07-.31.32,0,0c-.95,1-2.22,2.36-3.53,3.84l0,.05c-.15.17-.3.33-.44.5l-.09.1-.39.46-.11.13c-.13.14-.25.28-.37.43l-.13.15-.34.41a2.09,2.09,0,0,1-.14.17l-.31.39a1.46,1.46,0,0,0-.16.19l-.29.36-.16.2-.27.35a1.56,1.56,0,0,1-.16.2c-.08.12-.17.23-.25.34l-.15.21-.24.32-.15.2-.21.31-.14.21a2.9,2.9,0,0,0-.19.29l-.13.2c-.06.09-.12.18-.17.27l-.12.19-.15.27-.1.18c0,.08-.08.17-.13.25l-.07.16c-.05.09-.08.17-.12.26a.61.61,0,0,1-.05.12c-.05.12-.08.24-.12.35a1.55,1.55,0,0,0,0,.31,5.3,5.3,0,0,0,.76,2.61,4.75,4.75,0,0,0-3.28-1.45c-2.46.33,1.29,14.53,8.37,17a8.42,8.42,0,0,0,2.68.56,4,4,0,0,0-.34,4.36,38.42,38.42,0,0,1-8.73-7.34,46.52,46.52,0,0,1-5.13-6.58c-.36-.57-.69-1.14-1-1.7s-.58-1.12-.83-1.67A11.34,11.34,0,0,1,1.32,72.52Z"/><path class="cls-13" d="M18.45,86.34c-.4-.38-.8-.8-1.2-1.23a35.59,35.59,0,0,1-2.89-3.64S14,81,13.52,80.28s-1.13-1.69-1.73-2.69l-.88-1.47a6.1,6.1,0,0,0-.9-1.24,2.14,2.14,0,0,0-.92-.58c-.26-.07-.42,0-.42,0s.15,0,.38.13a2.39,2.39,0,0,1,.81.62,20.12,20.12,0,0,1,1.59,2.76c.57,1,1.17,2,1.65,2.77s.82,1.22.82,1.22A32.28,32.28,0,0,0,17,85.37c.41.41.84.82,1.26,1.18a10.1,10.1,0,0,1,1.09,1,1.67,1.67,0,0,1,.42.9c0,.25-.06.38,0,.39s.12-.11.14-.39a1.57,1.57,0,0,0-.36-1A8.76,8.76,0,0,0,18.45,86.34Z"/><path class="cls-13" d="M20.52,50.78a18.65,18.65,0,0,1,.17,2.06c0,1-.08,2.09,0,2.1a6.74,6.74,0,0,0,.38-2.09,14.5,14.5,0,0,0,0-2.13,14.12,14.12,0,0,0-.46-2.08,6.25,6.25,0,0,0-.84-2c-.07,0,.27,1,.47,2A20.45,20.45,0,0,1,20.52,50.78Z"/><path class="cls-14" d="M50.45,161.59s11.17-1.11,12,3.55-16.81-.85-16.81-.85l.22-4.61Z"/><path class="cls-15" d="M62.4,164.87a1.34,1.34,0,0,1,.07.27c.85,4.66-16.81-.85-16.81-.85l.05-1.15C45.85,163.18,60.81,167.83,62.4,164.87Z"/><path class="cls-15" d="M54.17,162.24a2.43,2.43,0,0,0-.25.61c-.1.32-.09.68-.13.69a1.16,1.16,0,0,1-.09-.74,2.67,2.67,0,0,1,.2-.74,2.41,2.41,0,0,1,.47-.56h.33l-.19.19A2.36,2.36,0,0,0,54.17,162.24Z"/><path class="cls-15" d="M53.27,161.78a2,2,0,0,0-.37.51,2.32,2.32,0,0,0-.26.59c-.09.32,0,.67-.09.69a1.1,1.1,0,0,1-.13-.74,2.26,2.26,0,0,1,.22-.74,1.92,1.92,0,0,1,.51-.52.7.7,0,0,1,.17-.09h.39A2.29,2.29,0,0,0,53.27,161.78Z"/><path class="cls-15" d="M51.72,161.83a1.71,1.71,0,0,0-.32.48c-.13.27-.16.6-.2.61a1,1,0,0,1,0-.7,2,2,0,0,1,.3-.64l.06-.06.47,0A1.75,1.75,0,0,0,51.72,161.83Z"/><path class="cls-15" d="M47.93,164.49a51.11,51.11,0,0,0,9.84,1.57c3.08.17,4.27-.22,4.73-.56a1.34,1.34,0,0,1-1,1.22C56.85,167.08,47.93,164.49,47.93,164.49Z"/><g class="cls-16"><path class="cls-17" d="M57.93,162.6s.53.12,1,.32a6.56,6.56,0,0,1,.91.5,7.38,7.38,0,0,1,.87.59,9.48,9.48,0,0,0,.82.68,3.63,3.63,0,0,0-.7-.82,6.7,6.7,0,0,0-.84-.68,5.51,5.51,0,0,0-1-.45A2.39,2.39,0,0,0,57.93,162.6Z"/></g><g class="cls-16"><path class="cls-17" d="M56.54,162.28c0,.08.31.17.31.17s.33,0,.33-.1-.31-.17-.31-.17S56.55,162.21,56.54,162.28Z"/></g><g class="cls-18"><path class="cls-19" d="M45.88,159.68l3.89,1.63c-.82.23-2.79.91-1.29,1.74,1.85,1,9.82,2.31,12.09,1.86,1.45-.28,1-1.2.48-1.83A3.22,3.22,0,0,1,62.43,165h0l0-.1c-1.59,3-16.55-1.68-16.69-1.73Z"/></g><path class="cls-14" d="M23.61,161.05s-11-2.05-12.29,2.52,16.83.57,16.83.57l.17-4.61Z"/><path class="cls-15" d="M11.42,163.31a2.77,2.77,0,0,0-.1.26c-1.24,4.58,16.83.57,16.83.57L28.2,163C28.05,163,12.76,166.4,11.42,163.31Z"/><path class="cls-15" d="M19.84,161.39a2.33,2.33,0,0,1,.21.62c.06.33,0,.69.06.7a1.19,1.19,0,0,0,.16-.73,2.64,2.64,0,0,0-.15-.76,2.12,2.12,0,0,0-.42-.59h0l-.32,0a1.93,1.93,0,0,1,.17.21A2.78,2.78,0,0,1,19.84,161.39Z"/><path class="cls-15" d="M20.78,161a2.3,2.3,0,0,1,.32.54,1.87,1.87,0,0,1,.21.61c.07.33,0,.67,0,.69s.2-.33.18-.73a2.21,2.21,0,0,0-.15-.75,1.87,1.87,0,0,0-.46-.56.75.75,0,0,0-.17-.1c-.12,0-.25,0-.39,0A2,2,0,0,1,20.78,161Z"/><path class="cls-15" d="M22.32,161.18a1.86,1.86,0,0,1,.28.51c.11.28.1.61.15.62a1,1,0,0,0,.06-.7,1.87,1.87,0,0,0-.24-.66l-.05-.06-.47-.06A1.93,1.93,0,0,1,22.32,161.18Z"/><path class="cls-15" d="M25.87,164.15a51.58,51.58,0,0,1-9.93.74c-3.09-.1-4.24-.58-4.67-1a1.35,1.35,0,0,0,.94,1.31C16.77,166,25.87,164.15,25.87,164.15Z"/><g class="cls-16"><path class="cls-17" d="M16.06,161.42s-.53.08-1,.24a5.54,5.54,0,0,0-.95.42,7.44,7.44,0,0,0-.91.52c-.44.29-.85.64-.87.61a3,3,0,0,1,.76-.76,6.27,6.27,0,0,1,.9-.61,5.32,5.32,0,0,1,1-.36A2.42,2.42,0,0,1,16.06,161.42Z"/></g><g class="cls-16"><path class="cls-17" d="M17.48,161.23c0,.07-.32.14-.32.14s-.33-.06-.33-.13.32-.14.32-.14S17.48,161.15,17.48,161.23Z"/></g><g class="cls-18"><path class="cls-19" d="M28.32,159.53l-4,1.3c.79.29,2.7,1.14,1.14,1.84-1.93.86-10,1.47-12.21.84-1.42-.41-.89-1.29-.32-1.87a3.22,3.22,0,0,0-1.54,1.77h0a.42.42,0,0,1,0-.1c1.34,3.09,16.63-.28,16.78-.32Z"/></g><path class="cls-20" d="M41.77,87.35s5.86,44.12,9,73.16c0,0-2.38.48-3.19.53s-2.84-.12-2.84-.12-9.53-55.52-12.56-57c-3.85-1.86-.15,48.93-1,56.22a7.09,7.09,0,0,1-7.53-.24s-.74-69.29-.86-74.4S41.93,83.62,41.77,87.35Z"/><path class="cls-21" d="M41.77,87.35s5.86,44.12,9,73.16c0,0-2.38.48-3.19.53s-2.84-.12-2.84-.12-9.53-55.52-12.56-57c-3.85-1.86-.15,48.93-1,56.22a7.09,7.09,0,0,1-7.53-.24s-.74-69.29-.86-74.4S41.93,83.62,41.77,87.35Z"/><g class="cls-22"><path class="cls-21" d="M43,97a5.8,5.8,0,0,1-.78.1,3.07,3.07,0,0,1-1.62-.53,3.76,3.76,0,0,1-1.16-1.25,6.13,6.13,0,0,1-.35-.7,7.67,7.67,0,0,1-.28-.73,15.93,15.93,0,0,1-.46-1.69c-.14-.63-.24-1.26-.31-1.74a5.53,5.53,0,0,0-.12-.79,4.49,4.49,0,0,0,0,.8,16.85,16.85,0,0,0,.22,1.76A14.84,14.84,0,0,0,38.57,94a6.16,6.16,0,0,0,.28.77,5.18,5.18,0,0,0,.38.72,4,4,0,0,0,1.27,1.28,3,3,0,0,0,1.72.47,2.39,2.39,0,0,0,.58-.11A.75.75,0,0,0,43,97Z"/><path class="cls-21" d="M23.1,97.31a3.76,3.76,0,0,0,.37-.56c.2-.35.44-.83.67-1.33a16.23,16.23,0,0,0,.73-2,15.59,15.59,0,0,0,.39-2.13,14.19,14.19,0,0,0,.09-1.48,4.39,4.39,0,0,0,0-.68,3.85,3.85,0,0,0-.07.67c0,.4-.1.94-.18,1.47a18.48,18.48,0,0,1-.46,2.08,18.76,18.76,0,0,1-.65,2c-.2.5-.41,1-.59,1.35A3.71,3.71,0,0,0,23.1,97.31Z"/><path class="cls-21" d="M32.37,103.84a1.2,1.2,0,0,0,0-.31c0-.19-.07-.47-.12-.81-.1-.67-.23-1.56-.37-2.45-.25-1.79-.45-3.58-.45-3.58S31.16,94.9,31,93.1c-.09-.9-.17-1.8-.23-2.47l-.08-.82a1.8,1.8,0,0,0,0-.31,1.65,1.65,0,0,0,0,.32c0,.19,0,.48,0,.81,0,.68.08,1.59.15,2.49.13,1.8.33,3.6.33,3.6s.23,1.79.53,3.58c.15.89.32,1.78.46,2.44.06.34.12.61.17.8A1,1,0,0,0,32.37,103.84Z"/><path class="cls-21" d="M31.75,99.56s-.08,0-.22-.09a1.24,1.24,0,0,1-.26-.1l-.3-.18a3.2,3.2,0,0,1-1-1.54,9.67,9.67,0,0,1-.44-1.86c-.07-.52-.1-.86-.1-.86s0-.35-.08-.87-.09-1.23-.12-1.93A11.1,11.1,0,0,0,29,90.2a4.29,4.29,0,0,0-.19-.62.9.9,0,0,0-.11-.22s.11.34.2.86A13.13,13.13,0,0,1,29,92.13c0,.71,0,1.41.07,1.94s.06.88.06.88,0,.36.13.88a8,8,0,0,0,.51,1.89,3.19,3.19,0,0,0,1.16,1.56l.33.17a1.2,1.2,0,0,0,.27.07Z"/><path class="cls-21" d="M28.82,103.75s.8,0,1.59,0a15.73,15.73,0,0,1,1.58.11,7.28,7.28,0,0,1,1.53.31,6,6,0,0,1,1,.42,2.88,2.88,0,0,0,.43.24,1.59,1.59,0,0,0-.38-.33,5,5,0,0,0-1-.51,7.32,7.32,0,0,0-1.57-.4,15,15,0,0,0-1.61,0A10.27,10.27,0,0,0,28.82,103.75Z"/><path class="cls-21" d="M30.25,103.12s.71.23,1.39.55a9.47,9.47,0,0,1,1.3.72,9.12,9.12,0,0,1,1.21.86c.58.47,1.07,1,1.1,1a5.24,5.24,0,0,0-1-1.17,8.55,8.55,0,0,0-1.2-.94,9.23,9.23,0,0,0-1.36-.67A4.89,4.89,0,0,0,30.25,103.12Z"/><path class="cls-21" d="M45.84,160.15a2.93,2.93,0,0,0,.9,0c.45,0,.9-.1.9-.1s.45-.1.88-.23a3.75,3.75,0,0,0,.84-.34,5,5,0,0,0-.89.15c-.44.09-.88.15-.88.15s-.43.1-.87.18A4.31,4.31,0,0,0,45.84,160.15Z"/><path class="cls-21" d="M24.52,159.75a5,5,0,0,0,1.61.32,8.82,8.82,0,0,0,1.66-.06,8.85,8.85,0,0,0,1.59-.45,5.46,5.46,0,0,0,1.43-.8s-.73.37-1.5.62a10.71,10.71,0,0,1-3.17.5C25.33,159.88,24.53,159.72,24.52,159.75Z"/></g><path class="cls-23" d="M34.58,105.59c.7.76,4,18.77,5.09,21.6s3.43,5.56,5.28,3.44S40.59,91.49,40.6,91.19C41,82.27,27.13,87.25,22.87,89c0-1.73-.05-2.94-.06-3.46-.13-5.11,19.12-1.91,19,1.82,0,0,5.86,44.12,9,73.16,0,0-2.38.48-3.19.53s-2.84-.12-2.84-.12-9-52.72-12.31-56.75A5.74,5.74,0,0,1,34.58,105.59Z"/><path class="cls-23" d="M31.2,160.17a7.09,7.09,0,0,1-7.53-.24s-.16-15-.34-31.56c1.29,4.87,3.72,4.63,4.77,2.28,1.3-2.87-1.59-24.67,1-26.17a3.83,3.83,0,0,1,2.75-.5C28.67,106.1,32,153.17,31.2,160.17Z"/><path class="cls-24" d="M24.56,126.15a2.7,2.7,0,0,0,0-.55c0-.36,0-.86,0-1.46,0-1.21,0-2.82-.08-4.43l-.06-6.44s-.06-3.22-.11-6.43c0-1.61,0-3.22-.06-4.43,0-.61,0-1.11,0-1.46a2.45,2.45,0,0,0,0-.56,2.24,2.24,0,0,0-.06.56c0,.35-.05.85-.08,1.46,0,1.2-.09,2.81-.12,4.43-.05,3.22,0,6.44,0,6.44s.08,3.22.22,6.44c.08,1.61.16,3.22.24,4.42,0,.61.09,1.11.12,1.46A2,2,0,0,0,24.56,126.15Z"/><path class="cls-24" d="M24.63,130.81c.08,0,.09-.34.11-.66l0-.63-.08-.63c0-.32-.06-.65-.14-.66s-.18.31-.24.64a6.37,6.37,0,0,0-.08.66,6.1,6.1,0,0,0,.12.65C24.44,130.51,24.56,130.82,24.63,130.81Z"/><path class="cls-24" d="M43.79,130.35c.06,0,.42-.36.68-.84a5.29,5.29,0,0,0,.42-1,5.77,5.77,0,0,0,.06-1.09c0-.55-.17-1.07-.25-1a5.15,5.15,0,0,0-.13,1,7.83,7.83,0,0,1-.21,1,7.47,7.47,0,0,1-.24,1C44,129.84,43.73,130.3,43.79,130.35Z"/><path class="cls-24" d="M44.13,115.54a44.35,44.35,0,0,0,.08,4.47,43.72,43.72,0,0,0,.62,4.41,44.2,44.2,0,0,0-.08-4.46A44.32,44.32,0,0,0,44.13,115.54Z"/><path class="cls-17" d="M42.43,85.8s3.27,3.29-6.49,3.79c-8.17.41-13.07-.78-13.58-2.29a2.9,2.9,0,0,1,.8-2.91S42.09,84.58,42.43,85.8Z"/><path class="cls-19" d="M38.81,88.19c.72-1.2-3.29-.19-8.48-.41a18.62,18.62,0,0,1-8-2,3.29,3.29,0,0,1,.61-1.15c.18-.09.37-.17.59-.26,2.59,0,18.6.28,18.92,1.41,0,0,3.27,3.29-6.49,3.79-6.46.33-10.87-.35-12.69-1.4C28.39,90,38.18,89.24,38.81,88.19Z"/><path class="cls-25" d="M34.44,87s1.23,3-1.39,3.42-4.66-.27-5.07-.84-.34-2.57.74-2.86S34.44,87,34.44,87Z"/><path class="cls-26" d="M33.92,86.7s1.23,3-1.39,3.42-4.66-.26-5.07-.84-.34-2.56.74-2.86S33.92,86.7,33.92,86.7Z"/><path class="cls-27" d="M28.2,86.42a8.7,8.7,0,0,1,2.09,0,6.41,6.41,0,0,0-1.52.07c-1.09.3-1.16,2.29-.75,2.87a4.32,4.32,0,0,0,2.78.94,4.83,4.83,0,0,1-3.34-1C27.05,88.71,27.12,86.72,28.2,86.42Z"/><path class="cls-28" d="M32,89.54c1.92-.3,1.77-2,1.56-2.88l.36,0s1.23,3-1.39,3.42-4.66-.26-5.07-.84a.77.77,0,0,1-.12-.24A7.72,7.72,0,0,0,32,89.54Z"/><path class="cls-9" d="M36.46,41.14s9.64,1.56,12.75,3.63c0,0-3.73,11.16-1.55,16.35a99.28,99.28,0,0,0-3.6,16.19c-.22,1.59-.38,3.19-.46,4.8s.57,3.6-1.42,4c-1.34.3-2.67.6-4,.84a38.82,38.82,0,0,1-11.23.58c-1.59-.2-3.55-.39-4.75-1.55-.9-.88-1-2.15-1.12-3.29-.43-2.79-.84-5.59-1.25-8.38-1-6.81-2-13.65-2.61-20.5-.12-1.29-.23-2.57-.28-3.86C16.52,41,29.92,41.14,36.46,41.14Z"/><path class="cls-10" d="M36.46,40.9s9.64,1.56,12.75,3.63c0,0-3.73,11.16-1.55,16.35a99,99,0,0,0-3.6,16.19c-.22,1.59-.38,3.19-.46,4.79s.57,3.61-1.42,4c-1.34.3-2.67.6-4,.83a38.13,38.13,0,0,1-11.23.58c-1.59-.19-3.55-.38-4.75-1.54-.9-.88-1-2.15-1.12-3.3-.43-2.79-.84-5.58-1.25-8.37-1-6.82-2-13.65-2.61-20.5-.12-1.29-.23-2.57-.28-3.86C16.52,40.77,29.92,40.9,36.46,40.9Z"/><path class="cls-10" d="M21.05,82.72c-.22-1.42-.42-2.83-.63-4.25,3.3,7,9.9,8,16.44,4.91C44.54,79.75,46.1,54.62,46,54.31c0,0,.71,3,1.56,7.19a99.86,99.86,0,0,0-3.49,15.81c-.22,1.59-.38,3.19-.46,4.8s.57,3.6-1.42,4c-1.34.3-2.67.6-4,.84a38.82,38.82,0,0,1-11.23.58c-1.59-.2-3.55-.39-4.75-1.55C21.27,85.13,21.22,83.86,21.05,82.72Z"/><path class="cls-10" d="M38.07,47.56V47.5A.18.18,0,0,0,38.07,47.56Z"/><path class="cls-29" d="M31,80.75c0,.35,0,.83.06,1.3l.06,1.89,0,1.89a7,7,0,0,0,.09,1.29c.06.34.15.56.13.57a1.46,1.46,0,0,1-.23-.55,6.68,6.68,0,0,1-.18-1.3l-.06-1.9,0-1.89,0-1.3a2.44,2.44,0,0,1,0-.6A5.13,5.13,0,0,1,31,80.75Z"/><path class="cls-10" d="M28.1,75.58c.16-1.2.32-2.4.44-3.6.46-4.51,2.64-21.27,2.73-22a3.41,3.41,0,0,1-1.65-2.73s1.58-2.78,2.68-2.65,2.88,1.93,2.7,3.08a6.42,6.42,0,0,1-2.16,2.36c1.1,6.8,2,13.66,2.56,20.53.41,5.28,1,9.88-2.72,14.12l-.9,1a.3.3,0,0,1-.55,0,16.78,16.78,0,0,1-2.9-5A10.38,10.38,0,0,1,28.1,75.58Z"/><path class="cls-14" d="M27.6,75.33c.16-1.2.32-2.39.44-3.6.46-4.51,2.64-21.27,2.73-22A3.41,3.41,0,0,1,29.13,47s1.57-2.77,2.67-2.65,2.88,1.93,2.7,3.08a6.38,6.38,0,0,1-2.15,2.36c1.1,6.8,2,13.67,2.55,20.54.41,5.27,1,9.87-2.72,14.11l-.9,1c-.07.09-.16.19-.28.18a.38.38,0,0,1-.26-.17,16.68,16.68,0,0,1-2.91-5A10.49,10.49,0,0,1,27.6,75.33Z"/><path class="cls-30" d="M27.6,75.33l.06-.49c.5,4.51,2.6,7.86,5,3,2.43-5-.27-26.55-.92-26.94-.45-.27-1.24,2.8-1.69,4.77.41-3.22.73-5.67.76-5.92a2.84,2.84,0,0,1-1.26-1.32c.39.3,1.71,1.2,2.71.37,1.18-1,.2-3.95.07-4.14l.82.36a3.2,3.2,0,0,1,1.39,2.42,6.38,6.38,0,0,1-2.15,2.36c1.1,6.8,2,13.67,2.55,20.54.41,5.27,1,9.87-2.72,14.11l-.9,1c-.07.09-.16.19-.28.18a.38.38,0,0,1-.26-.17,16.68,16.68,0,0,1-2.91-5A10.49,10.49,0,0,1,27.6,75.33Z"/><path class="cls-31" d="M30,62.22s1.06-8.86,1.21-8.84-.67,8.89-.67,8.89-1.07,8.86-1.21,8.84S30,62.22,30,62.22ZM28.87,77a3.92,3.92,0,0,0,.21-1.21l.13-1.2V73.36a3.84,3.84,0,0,0-.07-1.22,3.53,3.53,0,0,0-.31,1.19c-.11.6-.17,1.21-.17,1.21s0,.61,0,1.22A3.57,3.57,0,0,0,28.87,77Zm2.19-28.11c.05,0-.14-.35-.17-.67a2,2,0,0,1,0-.64,1.72,1.72,0,0,1,.13-.61c.12-.31.38-.54.35-.61s-.42.07-.67.41a1.38,1.38,0,0,0-.22,1.55C30.67,48.69,31,48.93,31.06,48.87Z"/><g class="cls-11"><path class="cls-12" d="M25.28,44c-.42,1-1.72,1.67-2.4,2.49s-1.5,2-2.18,3a.25.25,0,0,1-.45-.06,4.21,4.21,0,0,1,1-4.41c.83-1,2.55-2.29,3.91-1.65a.45.45,0,0,1,.16.61Z"/></g><g class="cls-11"><path class="cls-12" d="M43,80.92c.4,1.84-1,5.36-3.29,5.14-.32,0-.57-.44-.29-.69a10.89,10.89,0,0,0,1.92-1.73,14.83,14.83,0,0,0,1.07-2.8.33.33,0,0,1,.59.08Z"/></g><g class="cls-11"><path class="cls-12" d="M22,82.05a10.3,10.3,0,0,0,1.8,2.53,19.76,19.76,0,0,0,2.61,1.65.29.29,0,0,1-.14.53c-2.23.15-4.59-2.45-4.53-4.64a.14.14,0,0,1,.26-.07Z"/></g><g class="cls-6"><path class="cls-12" d="M18.87,66.72a2.08,2.08,0,0,0,0-.41c0-.26-.06-.63-.11-1.08-.1-.89-.23-2.08-.34-3.28-.21-2.38-.29-4.78-.29-4.78s-.12-2.39-.05-4.78c0-1.2.11-2.4.19-3.29,0-.45.08-.82.1-1.08a2.51,2.51,0,0,0,0-.41s0,.14-.07.4-.11.63-.15,1.08c-.12.89-.22,2.09-.28,3.29-.12,2.4,0,4.8,0,4.8s.11,2.4.37,4.79c.14,1.19.29,2.38.42,3.27.06.45.13.82.17,1.08A1.78,1.78,0,0,0,18.87,66.72Z"/></g><path class="cls-32" d="M37,88a3,3,0,0,1,2.22-.81,1,1,0,0,1-.08-.52c.17-1.13,2.18-2,2.18-.91a4.69,4.69,0,0,0,.52,1.84,15.64,15.64,0,0,1,2,.73s3.57,1.8,2,4.32-4.85.6-5.27.72.14,1.43.14,2-2,1-3.34-1-.79-3.1-.79-3.1-.86,1.2-1.43.72S35.14,90,37,88Z"/><path class="cls-33" d="M38.44,93.24a5.91,5.91,0,0,0,.22,1,4,4,0,0,0,.38,1,1.14,1.14,0,0,0,.48.49c.18.08.32.09.32.11s-.15,0-.36,0a1.23,1.23,0,0,1-.61-.49,4,4,0,0,1-.47-1,5,5,0,0,1-.15-1,3,3,0,0,1,.07-1.05S38.36,92.73,38.44,93.24Zm-1.91-1.42s.15-.46.33-.9a6.09,6.09,0,0,1,.42-.85,5.79,5.79,0,0,1,.48-.82,2.19,2.19,0,0,1,.45-.46,2.43,2.43,0,0,0,.26-.18.57.57,0,0,0-.31.09,2,2,0,0,0-.55.45A4.67,4.67,0,0,0,37,90a5.77,5.77,0,0,0-.35.91A2.54,2.54,0,0,0,36.53,91.82Zm1.3-1.49a4.59,4.59,0,0,0-.45,1,5.85,5.85,0,0,0-.3,1,4.25,4.25,0,0,0,0,1,1.91,1.91,0,0,0,.35,1,7.48,7.48,0,0,1-.16-1,4.49,4.49,0,0,1,.09-1,8.31,8.31,0,0,1,.21-1A6.36,6.36,0,0,0,37.83,90.33Zm.8-3.08s.09,0,.22,0a1.31,1.31,0,0,1,.48,0l.48.11.23.06a10.34,10.34,0,0,0,1.47.17,10.05,10.05,0,0,0-1.42-.42l-.22,0c-.14,0-.33,0-.52-.06a1.26,1.26,0,0,0-.53.07C38.68,87.17,38.62,87.24,38.63,87.25Z"/><path class="cls-34" d="M35.39,90.81c.27.58,2.38-1.66,2.47-1.78s-1.5,2.32-1.19,2.65,1.16-1.35,1.16-1.35-.59,2.75-.14,2.84.88-2.53.88-2.53c0,.54-.09,3.93.75,3.85s.44-2.36.44-2.36.93.66,3.13-.2c1.75-.69.9-2.9.42-3.86l.52.22a6.53,6.53,0,0,1,1.45,1.07,11.33,11.33,0,0,1,.94,2.14,2.52,2.52,0,0,1-.39,1.11c-1.57,2.51-4.85.6-5.27.72s.14,1.43.14,2-2,1-3.34-1-.79-3.1-.79-3.1-.86,1.2-1.43.72c-.36-.31-.26-1,.33-2.05A1.6,1.6,0,0,0,35.39,90.81Z"/><path class="cls-34" d="M40.43,85.28c0,.09-.1.18-.14.27-.64,1.49.82,1.92,1.25,2a15.74,15.74,0,0,0-1.73-.23c-.37,0-1.14,0-1.85,0a4.21,4.21,0,0,1,1.26-.2,1,1,0,0,1-.08-.52A1.94,1.94,0,0,1,40.43,85.28Z"/><path class="cls-35" d="M41.54,87.56l.12,0Z"/><path class="cls-9" d="M49.28,44.78S64.94,65.37,65.05,72.37s-12.38,18-18.31,20.56c0,0-3.44-3.42-4.21-5.79,0,0,14.62-12.5,13.85-16s-10-11.21-10-11.21S43.31,50.85,49.28,44.78Z"/><g class="cls-11"><path class="cls-12" d="M46.09,50.22a3.21,3.21,0,0,0-.2.56,10.51,10.51,0,0,0-.27,1.28,10.91,10.91,0,0,0-.09,1.9,11.29,11.29,0,0,0,.3,1.87,9.75,9.75,0,0,0,.4,1.25,3.71,3.71,0,0,0,.26.54,2.61,2.61,0,0,0-.16-.57c-.1-.34-.22-.8-.32-1.25a15.85,15.85,0,0,1-.2-3.72c0-.46.12-.93.19-1.27A3.46,3.46,0,0,0,46.09,50.22Z"/><path class="cls-12" d="M44.12,53.3a3.79,3.79,0,0,0,.2,1.14,9.48,9.48,0,0,0,.38,1.1,10.47,10.47,0,0,0,.57,1,4.42,4.42,0,0,0,.72.93s-.29-.51-.55-1-.49-1-.49-1-.25-.51-.45-1S44.15,53.3,44.12,53.3Z"/><path class="cls-12" d="M46.64,47.93s.19-.44.41-.87a7.18,7.18,0,0,1,.48-.82,9,9,0,0,1,.51-.81,9.29,9.29,0,0,0,.59-.77,3.07,3.07,0,0,0-.74.66,7.24,7.24,0,0,0-.6.79,8.71,8.71,0,0,0-.42.88A2.78,2.78,0,0,0,46.64,47.93Z"/><path class="cls-12" d="M61.3,70.43a4.9,4.9,0,0,0-1.39-.27,5.31,5.31,0,0,0-1,0,2.82,2.82,0,0,0-.44.08s-.18,0-.43.15a3.33,3.33,0,0,0-.83.52,2.42,2.42,0,0,0-.59.75.8.8,0,0,0-.12.41s.08-.15.21-.36a2.7,2.7,0,0,1,.62-.66,3.44,3.44,0,0,1,.81-.44,2.67,2.67,0,0,1,.4-.12,4.24,4.24,0,0,1,.42-.1,5.07,5.07,0,0,1,.94-.08C60.59,70.34,61.29,70.47,61.3,70.43Z"/><path class="cls-12" d="M59,68.71a2.91,2.91,0,0,0-.86.55,7,7,0,0,0-.74.7,6.17,6.17,0,0,0-.54.85,2.66,2.66,0,0,0-.34.92s.24-.43.51-.84a6.29,6.29,0,0,1,.59-.77,6.39,6.39,0,0,1,.65-.73C58.61,69,59,68.74,59,68.71Z"/></g><path class="cls-10" d="M44,85.83c-.05,1.68.72,3.82,5.37,2.56,7.22-2,11.87-15.25,9.44-15.7A5.06,5.06,0,0,0,55.35,74h0l.14-.23.17-.27.13-.23.14-.27.1-.19c.06-.15.12-.28.17-.42a.3.3,0,0,0,0-.1c0-.1.07-.21.09-.31l0-.13c0-.09,0-.17,0-.25v-.11a1.13,1.13,0,0,0,0-.32c-.77-3.5-10-11.21-10-11.21a16.34,16.34,0,0,1-.53-2.32,4.53,4.53,0,0,0,.07-1.24,11.7,11.7,0,0,1-.32-1.88,15.76,15.76,0,0,1,.66-4.62,13.33,13.33,0,0,0,.7,5.49c1.18,3.13,10.84,14,12.65,11.79s-5.42-15.37-5.56-15.57l.16,0,.43.62,0,0,.39.56.09.14.34.5.09.13.4.6,0,0,.43.66.07.09.36.55.11.18.33.49.11.18.39.6,0,.06.43.67.09.16.33.51a2.39,2.39,0,0,0,.13.21c.1.16.2.32.29.48l.13.2c.12.21.25.41.37.61l0,.06c.13.23.27.45.4.67l.11.18c.09.17.19.33.29.49l.12.22.27.47.12.21.33.58,0,.08.36.65a1.62,1.62,0,0,1,.1.18l.25.47.12.21c.07.15.15.3.23.45l.1.2c.1.19.19.37.28.56l0,.06c.1.21.2.41.29.61a1.42,1.42,0,0,1,.08.18c.07.14.14.28.2.43s.07.13.1.2l.18.41a1.42,1.42,0,0,0,.08.18c.07.18.15.36.22.53v0l.22.55.06.16c0,.13.09.26.13.38a1.34,1.34,0,0,1,.07.18c0,.12.08.24.11.36a1,1,0,0,1,0,.16c0,.16.1.31.14.47v0c0,.16.08.31.11.46l0,.14.06.31c0,.06,0,.1,0,.15l0,.3s0,.08,0,.12,0,.27,0,.39a7.08,7.08,0,0,1-.12,1.36,17.31,17.31,0,0,1-3.46,6.77c-.39.52-.81,1-1.24,1.55-.65.77-1.35,1.52-2.07,2.26-.48.5-1,1-1.47,1.45-1,.95-2,1.85-3,2.67a32.62,32.62,0,0,1-6.9,4.5s-.68-.68-1.51-1.65c-.15-.18-.31-.36-.46-.56s-.27-.33-.41-.5l-.42-.56c-.14-.21-.29-.41-.42-.62a8.27,8.27,0,0,1-1-1.9Z"/><path class="cls-13" d="M47.06,84.51c.42-.34.85-.71,1.27-1.1a32.57,32.57,0,0,0,3.12-3.29s.38-.42.92-1.08,1.24-1.54,1.9-2.46l1-1.35a6.05,6.05,0,0,1,1-1.12,2.18,2.18,0,0,1,1-.49,1,1,0,0,1,.42,0s-.15,0-.39.11a2.24,2.24,0,0,0-.85.55,19,19,0,0,0-1.77,2.52c-.62,1-1.29,1.87-1.82,2.54s-.89,1.12-.89,1.12a31.25,31.25,0,0,1-3.28,3.23c-.45.38-.9.74-1.34,1.06a9.24,9.24,0,0,0-1.15.9,1.51,1.51,0,0,0-.48.83c0,.23,0,.36,0,.37a.55.55,0,0,1-.12-.38,1.5,1.5,0,0,1,.43-1A8.52,8.52,0,0,1,47.06,84.51Z"/><path class="cls-13" d="M47.29,50.55a17.17,17.17,0,0,0-.31,2c-.09,1-.06,2-.13,2a6,6,0,0,1-.25-2,13.91,13.91,0,0,1,.15-2,14.16,14.16,0,0,1,.6-2,6.38,6.38,0,0,1,1-1.81c.07,0-.33,1-.6,1.92A16.05,16.05,0,0,0,47.29,50.55Z"/><path class="cls-32" d="M27.1,88.65a2.93,2.93,0,0,0-2.23-.86.94.94,0,0,0,.09-.54c-.17-1.18-2.19-2.14-2.19-1a5.17,5.17,0,0,1-.51,1.94,14.51,14.51,0,0,0-2,.76s-3.56,1.89-2,4.53,4.84.63,5.27.75-.14,1.51-.14,2.14,2,1,3.33-1,.8-3.26.8-3.26.86,1.26,1.43.76S29,90.75,27.1,88.65Z"/><path class="cls-33" d="M25.78,93.1a3.66,3.66,0,0,1,.07,1.1,6,6,0,0,1-.16,1.1,3.87,3.87,0,0,1-.47,1,1.15,1.15,0,0,1-.6.51.58.58,0,0,1-.36,0s.14,0,.32-.12a1.19,1.19,0,0,0,.48-.51,4.6,4.6,0,0,0,.37-1,7,7,0,0,0,.23-1C25.73,93.65,25.74,93.1,25.78,93.1Zm1.64-1.41a5.7,5.7,0,0,0-.36-1,5.3,5.3,0,0,0-.57-.85,2.12,2.12,0,0,0-.55-.47c-.17-.09-.31-.11-.31-.09s.11.07.25.18a2.19,2.19,0,0,1,.46.49,5.64,5.64,0,0,1,.48.86,8.28,8.28,0,0,1,.42.89c.18.46.29,1,.33.94A3.08,3.08,0,0,0,27.42,91.69Zm-.88.49a9.37,9.37,0,0,1,.21,1,4.54,4.54,0,0,1,.08,1,9.56,9.56,0,0,1-.15,1,2.23,2.23,0,0,0,.35-1,4.64,4.64,0,0,0,0-1.1,8,8,0,0,0-.3-1.06,4.16,4.16,0,0,0-.46-1A9.65,9.65,0,0,0,26.54,92.18Zm-1.26-4.43a1.26,1.26,0,0,0-.53-.07,3.28,3.28,0,0,0-.52.07l-.23,0a9.34,9.34,0,0,0-1.42.45A10.32,10.32,0,0,0,24.06,88l.22-.05a4.4,4.4,0,0,1,.49-.12,1.33,1.33,0,0,1,.48,0c.13,0,.21.07.22.05S25.42,87.81,25.28,87.75Z"/><path class="cls-34" d="M28.7,91.63c-.26.61-2.38-1.73-2.47-1.86s1.5,2.43,1.19,2.77-1.16-1.41-1.16-1.41.59,2.89.15,3-.88-2.64-.88-2.64c0,.56.09,4.12-.75,4S24.34,93,24.34,93s-.93.69-3.14-.22c-1.74-.72-.89-3-.42-4l-.52.23a6.31,6.31,0,0,0-1.44,1.12,11.52,11.52,0,0,0-.94,2.25,2.75,2.75,0,0,0,.39,1.16c1.57,2.64,4.84.63,5.27.75s-.14,1.51-.14,2.14,2,1,3.33-1,.8-3.26.8-3.26.86,1.26,1.43.76c.36-.32.26-1.09-.33-2.15A1.71,1.71,0,0,1,28.7,91.63Z"/><path class="cls-34" d="M23.67,85.83a2.59,2.59,0,0,1,.14.29,1.47,1.47,0,0,1-1.25,2.1A15.49,15.49,0,0,1,24.28,88c.37,0,1.15,0,1.86,0a4,4,0,0,0-1.27-.22.94.94,0,0,0,.09-.54A2,2,0,0,0,23.67,85.83Z"/><path class="cls-35" d="M22.56,88.22l-.12,0Z"/><path class="cls-12" d="M26.83,54.39l-7.48-.28s.57,8.34,4,7.62S26.83,54.39,26.83,54.39Z"/><path class="cls-32" d="M36.57,38.68l-.21,4.2s-2.78,3.16-7.91.53l.22-4.73S34.65,36.23,36.57,38.68Z"/><path class="cls-34" d="M28.52,41.86c4.6,4.5,8.25-3.4,6-1.92-1.88,1.25-5,0-5.92-.44v-.16l0-.51a.77.77,0,0,1,.19-.22c.3-.11.93-.34,1.72-.55s1.93-.26,2.81-.46a5.73,5.73,0,0,1,.93,0h0l.41.06h0a2.6,2.6,0,0,1,.4.1h0l.32.12.07,0a1.74,1.74,0,0,1,.33.18l0,0,.26.2.07.06a1.6,1.6,0,0,1,.25.27h0l-.21,4.2s-2.78,3.16-7.91.53Z"/><path class="cls-32" d="M19.47,20.56a2.1,2.1,0,0,0-2.9-.65c-2,1.3-1,8.11,1.7,8S20,20.42,19.47,20.56Z"/><path class="cls-34" d="M19.47,20.56a2.1,2.1,0,0,0-2.9-.65c-2,1.3-1,8.11,1.7,8S20,20.42,19.47,20.56Z"/><path class="cls-33" d="M17,25.89c0-.05.2,0,.43-.06a.46.46,0,0,0,.29-.24.76.76,0,0,0,0-.45.9.9,0,0,0-.25-.38c-.1-.1-.24-.13-.42-.28a.78.78,0,0,1-.25-.69,1.25,1.25,0,0,1,.08-.27,1.11,1.11,0,0,1,.14-.21,1.09,1.09,0,0,1,.25-.2l.2-.09s0,0,0,0l0,0a.84.84,0,0,1,0-.12,1.1,1.1,0,0,0,0-.18,2.45,2.45,0,0,0-.28-.72c-.27-.46-.66-.63-.65-.7s.47,0,.88.44a2.47,2.47,0,0,1,.47.84l.06.23c0,.09,0,.13,0,.26s0,.43,0,.59a1.5,1.5,0,0,0-.38,0,.31.31,0,0,0-.1,0l-.11.11a.21.21,0,0,0-.05.1s0,0,0,0,.23.17.4.36a1.39,1.39,0,0,1,.35.73,1.13,1.13,0,0,1-.15.8.6.6,0,0,1-.51.25C17.16,26.09,17,25.93,17,25.89Z"/><path class="cls-36" d="M18.27,27.93c2.68-.08,1.68-7.51,1.2-7.37a2.51,2.51,0,0,0-1.52-1,4.83,4.83,0,0,1-.18,2.76s-.71-1.12-1.08-.75.2,2.18-.61,2.35c-.26.06-.42-.14-.53-.44C15.71,25.67,16.7,28,18.27,27.93Z"/><g class="cls-37"><path class="cls-38" d="M15.77,21.42c-.11.38-.06.76.11.85s.41-.15.52-.53.07-.76-.11-.85S15.89,21,15.77,21.42Z"/><path class="cls-38" d="M16.46,20.32a.31.31,0,0,0,.13.34.19.19,0,0,0,.29-.09.3.3,0,0,0-.13-.35A.19.19,0,0,0,16.46,20.32Z"/></g><path class="cls-32" d="M49.43,20.76c.22-6.09-2.3-16-15.12-16.06S19.46,18.75,19.46,18.75a38.45,38.45,0,0,0-1.19,9.18c.15,4,2.22,9.89,11.46,10.84s16.34-2.93,18-8.61a4.74,4.74,0,0,0,4.36-3.8C52.73,23.74,51.3,21.08,49.43,20.76Z"/><g class="cls-6"><path class="cls-34" d="M49.43,20.76a19.46,19.46,0,0,0-.75-6.13,15.67,15.67,0,0,0-2.09-4.38c1.85,3.11,2.18,7.78,2.08,10.61a7.94,7.94,0,0,0,.81-.09Z"/><path class="cls-34" d="M51.11,21.8a5.41,5.41,0,0,1,.39,3.65,4.74,4.74,0,0,1-4.36,3.81c-1.66,5.67-8.77,9.55-18,8.6-4.86-.49-7.74-2.37-9.39-4.62,1.52,2.64,4.48,5,10,5.53,9.23.95,16.34-2.93,18-8.61a4.74,4.74,0,0,0,4.36-3.8A5.23,5.23,0,0,0,51.11,21.8Z"/></g><path class="cls-33" d="M50.1,27.77a.9.9,0,0,1-.38.76.67.67,0,0,1-.38.13.58.58,0,0,1-.46-.22,1.11,1.11,0,0,1-.29-.57.8.8,0,0,1,.2-.69,2,2,0,0,1,.4-.26.55.55,0,0,0,.18-.24.81.81,0,0,0,.06-.56.41.41,0,0,0-.29-.3l-.11,0h-.12l-.07,0,0,0-.1.15c-.15.21-.26.26-.4.27a.35.35,0,0,1-.24-.11.54.54,0,0,1-.14-.26,4.45,4.45,0,0,1-.07-.79c0-.18,0-.36,0-.55a3.08,3.08,0,0,1,.28-1,1.8,1.8,0,0,1,.54-.65c.39-.28.72-.2.71-.15s-.28.09-.56.4a2.26,2.26,0,0,0-.52,1.51,3.84,3.84,0,0,0,0,.48.5.5,0,0,0,0,.16c0,.06.07,0,.06,0h0l.09-.07a.76.76,0,0,1,.18-.09A.74.74,0,0,1,49,25a.94.94,0,0,1,.27.05,1,1,0,0,1,.25.15A1.21,1.21,0,0,1,50,26a1.6,1.6,0,0,1-.17,1.11,1.18,1.18,0,0,1-.4.4,2.26,2.26,0,0,0-.34.16.21.21,0,0,0-.09.19.59.59,0,0,0,.12.31.37.37,0,0,0,.49.12C49.94,28.08,50.06,27.74,50.1,27.77Z"/><path class="cls-38" d="M50.68,22.9c.26.27.57.35.68.18s0-.53-.28-.8-.57-.35-.68-.18S50.41,22.63,50.68,22.9Z"/><path class="cls-38" d="M49.67,21.58a.31.31,0,0,0,.13.34.19.19,0,0,0,.29-.09.3.3,0,0,0-.13-.35A.19.19,0,0,0,49.67,21.58Z"/><path class="cls-34" d="M32.14,28.25a5,5,0,0,1-3.85-1.2s-1.12.66.8,1.47C31.64,29.59,32.14,28.25,32.14,28.25Z"/><path class="cls-33" d="M31,28.76a7.33,7.33,0,0,1-.81,0,4.71,4.71,0,0,1-1.64-.62,1,1,0,0,1-.51-.59.49.49,0,0,1,.24-.49,1.17,1.17,0,0,1,.46-.18l.19,0a2,2,0,0,1,.46,0,2.5,2.5,0,0,1,.54.1l.33.13c.2.11.47.31.7.47l0-.9c0-.18,0-.36,0-.55V25a4.66,4.66,0,0,0-.07-1.22A4.64,4.64,0,0,0,30.73,25l-.1,1.1-.05.55c0,.05,0,.07,0,.08s0,0-.06-.05a2.26,2.26,0,0,0-.39-.18,3.22,3.22,0,0,0-.65-.16,2.4,2.4,0,0,0-.56,0,1.27,1.27,0,0,0-.26,0,2.07,2.07,0,0,0-.64.3,1.31,1.31,0,0,0-.32.4.91.91,0,0,0-.06.59,1.35,1.35,0,0,0,.76.82,4.39,4.39,0,0,0,1.81.5A1.25,1.25,0,0,0,31,28.76Z"/><path class="cls-39" d="M29.32,27.19c-.06.12.11.31.37.43s.52.11.57,0-.11-.32-.37-.43S29.37,27.07,29.32,27.19Z"/><path class="cls-34" d="M38.59,26.18c1.91,0,3.44,1.06,3.42,2.28s-1.6,2.18-3.51,2.14-3.44-1.06-3.42-2.28S36.68,26.14,38.59,26.18ZM19,26.55C18.8,27.75,20.11,29,22,29.41s3.55-.28,3.79-1.48-1.06-2.47-2.92-2.85S19.28,25.36,19,26.55Z"/><path class="cls-34" d="M43.53,11.72C33.21,19.67,21.3,14,21.3,14a15.09,15.09,0,0,0-1.66,3.77C20.36,14.6,23.47,4.62,34.31,4.7c12.82.09,15.34,10,15.12,16.06a2.55,2.55,0,0,1,.94.38,5.22,5.22,0,0,1-.82.66c-2,.93-1.79,4.61-3,3.66s-.39-4.71-.39-4.71C43.93,18.73,43.53,11.72,43.53,11.72Z"/><path class="cls-40" d="M50,20.79a7.34,7.34,0,0,0,3.08-6.37c-.11-5.37-3.29-7.71-7.79-7.6C45.26,6.82,40.7-.13,34,0S25.3,5.77,22.65,5.37,19.21,4.1,19.21,4.1s-.14,2.83,1.19,3.77a11.43,11.43,0,0,1-2.92-1.21,10,10,0,0,0,1.33,5.66s-1.59,3.1-.8,5.26a17,17,0,0,1,.93,3.09S20.4,14.75,21.72,13c0,0,11.91,5.66,22.23-2.29,0,0,.4,7,2.65,9,0,0-.79,3.77.4,4.72S47.92,21.71,50,20.79Z"/><path class="cls-40" d="M38.79,18.45c.06.1.43,0,.75.09a1.65,1.65,0,0,1,.59.21,1.78,1.78,0,0,1,.57.25c.29.17.51.48.61.44s.07-.47-.2-.84a2.06,2.06,0,0,0-.43-.45,1.67,1.67,0,0,0-.25-.15,1.6,1.6,0,0,0-.29-.06,2,2,0,0,0-.63,0C39.06,18.06,38.73,18.36,38.79,18.45Z"/><path class="cls-40" d="M23.17,17.27c.08.08.42-.11.75-.22a1.54,1.54,0,0,1,.61-.11.5.5,0,0,1,.16,0,1,1,0,0,1,.39,0,1.1,1.1,0,0,1,.38.17c.1.07.17.14.23.13s.09-.13,0-.3a1.08,1.08,0,0,0-.39-.51,1.55,1.55,0,0,0-.61-.25,1.52,1.52,0,0,0-.32,0,2,2,0,0,0-.28.1,2.1,2.1,0,0,0-.51.33C23.3,16.84,23.1,17.19,23.17,17.27Z"/><path class="cls-41" d="M49.35,9.57a4.84,4.84,0,0,0-.8-.71,4.48,4.48,0,0,0-.9-.56,2.79,2.79,0,0,0-.7-.22c-.19,0-.33,0-.33,0S46.75,8,47,8a2.55,2.55,0,0,1,.76.15,4.6,4.6,0,0,1,1,.52,4.35,4.35,0,0,1,.79.81,2.62,2.62,0,0,1,.5,1S49.71,10,49.35,9.57Zm-.7,2.17.21.47a8.08,8.08,0,0,1,.43,1.51,6.84,6.84,0,0,1,.09,1.58,5.31,5.31,0,0,0,0,.72.5.5,0,0,0,0-.19,3.44,3.44,0,0,0,.1-.52,6.29,6.29,0,0,0,0-1.62,8.18,8.18,0,0,0-.39-1.57l-.2-.5-.09-.18s-.13-.26-.37-.64a8.23,8.23,0,0,0-1-1.24,4.91,4.91,0,0,0-1.33-.92,1.1,1.1,0,0,0-.72-.13,2.55,2.55,0,0,1,.68.22,5.37,5.37,0,0,1,1.23,1,7.55,7.55,0,0,1,1,1.24,6.74,6.74,0,0,1,.34.62Zm-3.14-1.52a3,3,0,0,0-.43-.46,1.22,1.22,0,0,0-.54-.32s.21.23.4.45a3.25,3.25,0,0,1,.34.48,3.53,3.53,0,0,1,.3.5,5.26,5.26,0,0,0,.26.55,1.25,1.25,0,0,0-.08-.62A3.19,3.19,0,0,0,45.51,10.22Zm-3-5a7.91,7.91,0,0,1,1,1.4c.22.41.33.7.35.7a.68.68,0,0,0-.05-.22,4.7,4.7,0,0,0-.21-.53,7.47,7.47,0,0,0-.91-1.47,9,9,0,0,0-1.22-1.24c-.36-.3-.62-.48-.62-.48s-.26-.18-.68-.41a12.1,12.1,0,0,0-1.56-.74,15.35,15.35,0,0,0-1.65-.53,4,4,0,0,0-.76-.15,4.91,4.91,0,0,0,.73.25c.45.15,1,.36,1.6.61A14.2,14.2,0,0,1,40,3.17c.39.24.64.42.64.42A9.28,9.28,0,0,1,42.46,5.21ZM41.83,7a3.49,3.49,0,0,1,.47.42c.22.24.38.52.42.51a1.35,1.35,0,0,0-.27-.63A3.12,3.12,0,0,0,42,6.81a3,3,0,0,0-.61-.33,1.25,1.25,0,0,0-.66-.13s.3.13.58.3A3.65,3.65,0,0,1,41.83,7ZM28.59,12.55l.29.09c.19,0,.46.13.79.18a14.76,14.76,0,0,0,2.42.24,16,16,0,0,0,2.44-.15c.33,0,.6-.11.8-.14l.3,0,.29-.08c.19-.05.46-.1.78-.21A17.27,17.27,0,0,0,39,11.54a14.79,14.79,0,0,0,2.09-1.24,6.79,6.79,0,0,0,.64-.49,1.59,1.59,0,0,0,.23-.2s-.37.25-.92.6a17.58,17.58,0,0,1-2.12,1.16,17.88,17.88,0,0,1-2.27.82c-.31.1-.58.15-.77.2l-.29.07-.3.06c-.19,0-.45.1-.78.14a17.43,17.43,0,0,1-2.4.21,17.06,17.06,0,0,1-2.41-.16C29,12.62,28.6,12.53,28.59,12.55Zm-1.86-6a3.23,3.23,0,0,0,.67-.2,4.73,4.73,0,0,0-.69.09c-.4.07-.95.15-1.49.19a10.4,10.4,0,0,1-1.5,0,6.3,6.3,0,0,1-.67-.1,6,6,0,0,1-.65-.15A5.72,5.72,0,0,1,21,5.73a5,5,0,0,1-1.12-1c-.26-.32-.38-.57-.41-.56a1,1,0,0,0,.07.18,2.89,2.89,0,0,0,.26.44,4.17,4.17,0,0,0,1.1,1.07,5.78,5.78,0,0,0,1.38.67,6.06,6.06,0,0,0,.69.18,6.88,6.88,0,0,0,.69.08,9,9,0,0,0,1.53,0A13.32,13.32,0,0,0,26.73,6.51ZM25.18,9.45A16.53,16.53,0,0,0,27,9.4a4.23,4.23,0,0,0,.8-.12,7.3,7.3,0,0,0-.81,0c-.48,0-1.13,0-1.77,0A12.14,12.14,0,0,1,23.44,9a5.41,5.41,0,0,1-.76-.23A3.92,3.92,0,0,1,22,8.47,4,4,0,0,1,20.7,7.3a9.34,9.34,0,0,1-.85-1.54A7.13,7.13,0,0,0,19.5,5a4.12,4.12,0,0,0,.25.78,8.45,8.45,0,0,0,.79,1.61,4.11,4.11,0,0,0,1.3,1.27,3.82,3.82,0,0,0,.75.36,5.46,5.46,0,0,0,.8.22A11,11,0,0,0,25.18,9.45Zm7.17-7a3.81,3.81,0,0,0-.67.42L31,3.33l-.64.46a3.15,3.15,0,0,0-.63.49A2.67,2.67,0,0,0,30.48,4c.36-.19.69-.41.69-.41s.33-.24.63-.5S32.38,2.5,32.35,2.47ZM21.1,10.91a16.6,16.6,0,0,0,2,1.14,12.12,12.12,0,0,0,1.48.6,3,3,0,0,0,.71.19,6.77,6.77,0,0,0-.67-.29,15.7,15.7,0,0,1-1.44-.67,18.33,18.33,0,0,1-2-1.2,12.63,12.63,0,0,1-1.82-1.4,8,8,0,0,1-1-1.2c-.24-.36-.37-.62-.39-.61a2.68,2.68,0,0,0,.3.66,6.16,6.16,0,0,0,1,1.28,10,10,0,0,0,1.21,1.07Zm-.79,2.23a2.1,2.1,0,0,0,.85.22.7.7,0,0,0,.4-.06,3.38,3.38,0,0,0-.39,0A2.36,2.36,0,0,1,20.4,13a2.94,2.94,0,0,1-.64-.52l-.26-.29s-.1-.11-.24-.29-.33-.43-.51-.68c-.35-.51-.64-1.07-.68-1a4.74,4.74,0,0,0,.52,1.15c.16.27.33.54.47.73l.24.32a2.93,2.93,0,0,0,.28.28A3.12,3.12,0,0,0,20.31,13.14Zm23.76-2.53a13.13,13.13,0,0,0,0,2,16.25,16.25,0,0,0,.37,2c.06.28.14.5.18.65l.08.25.09.24c.06.15.13.37.25.63A14.84,14.84,0,0,0,46,18.25a14.12,14.12,0,0,0,1.2,1.66,6.66,6.66,0,0,0,.45.5,1.33,1.33,0,0,0,.18.17,7.5,7.5,0,0,0-.55-.74,16,16,0,0,1-1.11-1.69,14.42,14.42,0,0,1-.86-1.82c-.11-.25-.18-.47-.23-.62L45,15.47l-.07-.24c0-.15-.13-.37-.2-.63a17.12,17.12,0,0,1-.42-2,17.6,17.6,0,0,1-.14-2c0-.55,0-.92,0-.92a.79.79,0,0,0-.05.25C44.11,10.1,44.07,10.33,44.07,10.61Zm6.59,7.94c-.39.61-.9,1.13-.88,1.15a3.9,3.9,0,0,0,1-1,7,7,0,0,0,.75-1.28A7.53,7.53,0,0,0,51.94,16a4.63,4.63,0,0,0,0-1.47s0,.73-.2,1.43a7.71,7.71,0,0,1-.44,1.36A7.92,7.92,0,0,1,50.66,18.55ZM48.11,21a3.1,3.1,0,0,0,.45-.57,3.25,3.25,0,0,0,.23-.68,1.32,1.32,0,0,0,0-.72s-.07.35-.19.67a3.16,3.16,0,0,1-.29.6,3,3,0,0,1-.35.57c-.2.28-.47.5-.45.53A1.34,1.34,0,0,0,48.11,21Zm-1.59-1A2.05,2.05,0,0,0,46.41,21a3.69,3.69,0,0,0,.33,1.07,3.52,3.52,0,0,0,.72.88,2.22,2.22,0,0,0,1,.52,8.19,8.19,0,0,1-.84-.66A3.77,3.77,0,0,1,47,22a3.73,3.73,0,0,1-.38-1A6.62,6.62,0,0,1,46.52,19.93ZM19.31,15.66a2,2,0,0,0,.66.39,1.58,1.58,0,0,0,.76.06.7.7,0,0,0,.32-.14s-.14,0-.33,0a1.62,1.62,0,0,1-.68-.14,1.9,1.9,0,0,1-.56-.39l-.21-.24a2.8,2.8,0,0,1-.19-.25,4.22,4.22,0,0,1-.37-.62c-.12-.23-.26-.47-.33-.64s-.07-.31-.09-.32-.06.14,0,.35a5.37,5.37,0,0,0,.25.69,5.18,5.18,0,0,0,.34.67,2.15,2.15,0,0,0,.19.29A2.35,2.35,0,0,0,19.31,15.66Zm-1.17.88a2.13,2.13,0,0,0,.28.43,1.1,1.1,0,0,0,.17.17,1.83,1.83,0,0,0,.21.13,1.4,1.4,0,0,0,.51.14,1.14,1.14,0,0,0,.51-.09.19.19,0,0,0,.12-.15c0-.05-.05-.06-.05-.05s0,0,0,0a.19.19,0,0,1-.11.06,1.13,1.13,0,0,1-.45,0,1.3,1.3,0,0,1-.41-.17l-.16-.12-.16-.13a2.24,2.24,0,0,1-.3-.35c-.19-.29-.33-.62-.37-.6A1.54,1.54,0,0,0,18.14,16.54Z"/><path class="cls-42" d="M40.19,3.54l-.06-.06ZM40,13.12a20.22,20.22,0,0,0,4-2.42s0,.72.17,1.76a1.36,1.36,0,0,1,.54-.85c1.08-.58,2.23,1.94,2.23,1.94s-.51-2.08.14-2.44,2.52,2.8,2.52,2.8-1.22-3.52-.86-3.88,2,1.44,2,1.44-1.44-2.52-1-2.81,1.27.4,1.94.85C50.27,7.61,48,6.75,45.26,6.82A16.39,16.39,0,0,0,43.7,4.89c0,.11.07.21.1.32.53,2-3.1-1.21-3.61-1.67a13.08,13.08,0,0,1,1.88,2.1c.65,1-4.6-.65-4.6-.65a12.18,12.18,0,0,1,3.45,2.09c1.65,1.44-1.29,4-1.29,4s1.58-1.37,2.73-.72C43.08,10.79,41.34,12.16,40,13.12Zm-21.14-.8s-.07.14-.17.37l.22.21c.65.65.43,4.53-.16,5.34a.47.47,0,0,1-.39.18,16.66,16.66,0,0,1,.57,2c.11-.27.24-.61.4-1,.5-1.85,1.5-5.17,2.44-6.41a22.59,22.59,0,0,0,4.79,1.47l2.06.22s-5.82-3-5.29-4.09S28.68,9,28.68,9s-4.05-.54-3.78-1a16.82,16.82,0,0,1,3.84-2.09c-.86.13-2.74.23-3.3-.33-.39-.39.15-1.33.77-2.16-1.37,1.18-2.39,2.18-3.56,2C20,5,19.21,4.1,19.21,4.1s-.14,2.83,1.19,3.77a11.43,11.43,0,0,1-2.92-1.21A10,10,0,0,0,18.81,12.32Zm25.77,2.86c.77.82,3.07,3.17,4.05,3.17,1.19,0,3.4-3.29,3.4-3.29s-.7,2.48,0,2.37c.45-.06.8-1.44,1-2.44A7.3,7.3,0,0,1,50,20.79c-2,.92-1.78,4.6-3,3.66s-.4-4.72-.4-4.72C45.61,18.84,45,17,44.58,15.18Z"/><g class="cls-43"><path class="cls-40" d="M51.2,9.74c.81,1,1.79,2.53,1.43,3.88a.25.25,0,0,1-.45.06A13.11,13.11,0,0,1,51.54,12a9,9,0,0,0-.94-1.82c-.25-.36.33-.81.6-.47Z"/><path class="cls-40" d="M50.5,11.63a2.48,2.48,0,0,1,1.11,1.74c.12.64.07,1.75-.73,1.93-1.44.33-1.35-2.53-1.19-3.34a.56.56,0,0,1,.81-.33Z"/><path class="cls-40" d="M47.8,12.16c.5.23.81,1.09,1,1.6a3.84,3.84,0,0,1-.15,2.15c-.06.18-.35.2-.39,0A18.86,18.86,0,0,1,47.78,14a4.12,4.12,0,0,1-.16-1.73.12.12,0,0,1,.18-.07Z"/><path class="cls-40" d="M45.68,12.72a2.11,2.11,0,0,0,0,.32l0,.56a3.36,3.36,0,0,1-.08,1,.22.22,0,0,1-.4,0,9,9,0,0,1-.63-1.9,3.92,3.92,0,0,1,.25.32L44.79,13A.66.66,0,0,1,45,11.77c.5-.14,1.08.48.73,1Z"/><path class="cls-40" d="M40.46,5.7c-1.11,0-2.09-.62-3.13-1a10.63,10.63,0,0,0-3.59-.44.57.57,0,0,1-.4-1c1.86-2.06,6.53-1.13,7.77,1.24a.76.76,0,0,1-.65,1.13Z"/><path class="cls-40" d="M31.47,1.82a5.68,5.68,0,0,0-1,.63,4.05,4.05,0,0,1-.94.6c-.26.09-.4-.21-.32-.41.34-.78,1.43-1,2.18-1a.08.08,0,0,1,0,.15Z"/><path class="cls-40" d="M40.84,11.53c-2,2-5.67,3-8.48,3.07-.2,0-.25-.32,0-.35a24.9,24.9,0,0,0,4.07-1c1.48-.55,2.79-1.41,4.23-2,.18-.07.38.13.22.29Z"/><path class="cls-40" d="M40.53,9.15c-2.49,2.92-9.66,3.78-12.9,1.95a.41.41,0,0,1,.1-.74c2.17-.39,4.36-.06,6.54-.45,2-.37,3.89-1.44,5.89-1.65.49-.06.63.59.37.89Z"/><path class="cls-40" d="M25.61,11a1.74,1.74,0,0,0-.5-.08.81.81,0,0,1-.51-.07.29.29,0,0,1-.06-.45c.32-.31.93-.06,1.27.12a.26.26,0,0,1-.2.48Z"/><path class="cls-40" d="M35.57,6.87a6.2,6.2,0,0,1-1.49.18,15.91,15.91,0,0,0-2.52.6,6.88,6.88,0,0,1-3.82.41.6.6,0,0,1-.35-.87c1-1.54,2.93-1.82,4.64-2,1.25-.14,3.45-.47,3.85,1.14a.46.46,0,0,1-.31.55Z"/><path class="cls-40" d="M26.46,7.89a1.26,1.26,0,0,1-.46.16A2.51,2.51,0,0,1,25.55,8c-.16,0-.16-.25,0-.33a2,2,0,0,1,.36-.23,1.14,1.14,0,0,1,.45,0c.26,0,.41.41.14.53Z"/></g><path class="cls-10" d="M36.54,40.72l-.11,0c.22.06-.41,1.64-.53,1.84a4.54,4.54,0,0,1-1.28,1.34,4.38,4.38,0,0,1-3.56.78,3.52,3.52,0,0,1-2-1.25,4,4,0,0,1-.58-2.72,12.88,12.88,0,0,0-2.41,4c-.44,1.31.16,5.2,2.14,4.23,1-.5,2-2.43,2.71-3.44,0,0,2.38,4.23,3.18,4.32,1.5.16,2.81-2,3.34-3.07.85-1.8,1-4.08-.48-5.6A1.93,1.93,0,0,0,36.54,40.72Z"/><path class="cls-9" d="M36.68,39.93l-.1,0c.21.07-.41,1.65-.53,1.85a4.57,4.57,0,0,1-1.29,1.34,4.34,4.34,0,0,1-3.55.77,3.48,3.48,0,0,1-2-1.24,4,4,0,0,1-.58-2.72,12.85,12.85,0,0,0-2.4,4c-.45,1.3.15,5.2,2.13,4.23,1-.5,2-2.43,2.72-3.45,0,0,2.38,4.24,3.18,4.33,1.49.16,2.8-2,3.33-3.07.86-1.81,1-4.08-.47-5.6A2,2,0,0,0,36.68,39.93Z"/><path class="cls-10" d="M34.27,47.76c2.56-.57,1.7-4.7,1.7-4.7s-1.27,2.39-4.91,1.27-2.56-3.84-2.46-4.45a4,4,0,0,0,.58,2.72,3.48,3.48,0,0,0,2,1.24,4.34,4.34,0,0,0,3.55-.77,4.57,4.57,0,0,0,1.29-1.34c.12-.2.74-1.78.53-1.85l.1,0a2,2,0,0,1,.41.35c1.51,1.52,1.33,3.79.47,5.6C37,47,35.72,49.11,34.23,49c-.29,0-.78-.6-1.29-1.31A2.09,2.09,0,0,0,34.27,47.76Z"/><path class="cls-10" d="M31.05,44.62c-.75,1-1.7,3-2.72,3.45-1.68.83-2.37-1.87-2.26-3.5a6.58,6.58,0,0,0,1.1,2.71C28.24,48.38,31.05,44.62,31.05,44.62Z"/><path class="cls-44" d="M40.79,25.24A2.74,2.74,0,0,1,40,27.09a3.07,3.07,0,0,1-1.21.81,3.85,3.85,0,0,1-.49.11.69.69,0,0,1-.19,0,2,2,0,0,1-.7-.12,1.65,1.65,0,0,1-1-1.12,2,2,0,0,1,0-.79,3.24,3.24,0,0,1,.19-.64c.17-.34.3-.54.34-.52s-.41,1-.07,1.81a1.18,1.18,0,0,0,.78.71,1.4,1.4,0,0,0,.51,0,1.82,1.82,0,0,0,.52,0,2.67,2.67,0,0,0,1.06-.58C40.42,26.18,40.69,25.2,40.79,25.24Z"/><path class="cls-44" d="M25.55,23.52a2.76,2.76,0,0,1-.78,1.85,3.07,3.07,0,0,1-1.21.82l-.48.11h-.2a1.83,1.83,0,0,1-.69-.13,1.68,1.68,0,0,1-1-1.12,2.36,2.36,0,0,1,0-.79,5.35,5.35,0,0,1,.19-.63c.18-.34.31-.55.35-.53s-.41,1-.07,1.82a1.18,1.18,0,0,0,.78.71,1.52,1.52,0,0,0,.51,0,1.83,1.83,0,0,0,.52-.05,2.71,2.71,0,0,0,1.06-.57C25.18,24.47,25.45,23.49,25.55,23.52Z"/><path class="cls-14" d="M44.07,23.35s.59-.24.63-.26l2.55-1,1.44-.55.64-.25c.13-.05.48-.24.58-.19l.26.15a.67.67,0,0,0-.31-.68c-.2-.1-.39,0-.58.09L48,21.08l-4.25,1.45Z"/><path class="cls-45" d="M44,23.2l-.1-.31q2.37-.8,4.74-1.62c.28-.1,1.3-.61,1.52-.21v.14a.29.29,0,0,0-.17-.05l-.1-.06c-.1-.05-.45.14-.58.19l-.25.1-.17.06-.07,0-.15.06c-.24.08-.47.18-.7.27l-.5.19-.1,0-.14,0-1.67.66-.73.29h0l-.13.05s-.63.25-.63.26l0-.11Z"/><path class="cls-14" d="M32.25,23l.37-.78a5.75,5.75,0,0,0-4-.32l.3.81A5,5,0,0,1,32.25,23Z"/><path class="cls-45" d="M32.25,23a5,5,0,0,0-3.32-.29l-.13-.36a5.74,5.74,0,0,1,3.61.32Z"/><path class="cls-31" d="M43.83,23.05S38,18.94,32.5,22.62c0,0-.73,8.3,5.17,8.52S43.83,23.05,43.83,23.05Z"/><path class="cls-31" d="M35.58,21.3,38.9,31a6,6,0,0,1-1.23.1l-.5-.05-3.31-9.22A8.46,8.46,0,0,1,35.58,21.3Z"/><path class="cls-31" d="M39.68,21.33l2.52,7.36a5.82,5.82,0,0,1-1.28,1.43l-3.24-9A10.53,10.53,0,0,1,39.68,21.33Z"/><path class="cls-31" d="M32.47,23.77c0-.7,0-1.15,0-1.15,5.5-3.68,11.33.43,11.33.43a13.69,13.69,0,0,1-.14,1.37A10.42,10.42,0,0,1,32.47,23.77Z"/><path class="cls-14" d="M37.65,31.57a5,5,0,0,1-3.82-1.85c-2.1-2.6-1.74-7-1.73-7.14l0-.22.17-.11c5.65-3.78,11.7.4,11.76.44l.19.13v.25c0,.08-.34,8.5-6.33,8.5Zm-4.77-8.7c0,.88-.08,4.26,1.54,6.28a4.21,4.21,0,0,0,3.26,1.55c4.94.2,5.65-6.05,5.74-7.41C42.4,22.65,37.5,19.93,32.88,22.87Z"/><path class="cls-45" d="M37.69,31.14h.23c5.52,0,5.83-7.75,5.83-7.83v-.23L43.58,23s-5.62-3.89-10.83-.4l-.15.1,0,.2c0,.17-.34,4.18,1.59,6.57A4.55,4.55,0,0,0,37.69,31.14Zm0-.44a4.21,4.21,0,0,1-3.26-1.55c-1.62-2-1.58-5.4-1.54-6.28,4.62-2.94,9.52-.22,10.54.42C43.33,24.65,42.62,30.9,37.68,30.7Z"/><path class="cls-31" d="M28.73,22.26s-5.47-4.59-11.25-1.38c0,0-1.42,8.21,4.44,8.92S28.73,22.26,28.73,22.26Z"/><path class="cls-31" d="M20.66,19.82l2.5,10a5.73,5.73,0,0,1-1.24,0l-.49-.08L18.9,20.25A8.85,8.85,0,0,1,20.66,19.82Z"/><path class="cls-31" d="M24.74,20.19l1.9,7.55a5.86,5.86,0,0,1-1.4,1.32l-2.47-9.27A10.73,10.73,0,0,1,24.74,20.19Z"/><path class="cls-31" d="M17.36,22a10.77,10.77,0,0,1,.12-1.15c5.78-3.21,11.25,1.38,11.25,1.38a12.21,12.21,0,0,1-.25,1.35A10.42,10.42,0,0,1,17.36,22Z"/><path class="cls-14" d="M21.87,30.23a4.94,4.94,0,0,1-3.66-2.17c-1.87-2.76-1.15-7.07-1.12-7.25l0-.21.18-.1c5.94-3.3,11.62,1.37,11.68,1.41l.18.15,0,.24c0,.09-1.05,8.45-7,8Zm-4-9.06c-.12.87-.44,4.23,1,6.38A4.2,4.2,0,0,0,22,29.37c4.9.61,6.13-5.56,6.34-6.91C27.34,21.74,22.68,18.62,17.84,21.17Z"/><path class="cls-45" d="M22,29.8l.22,0c5.5.45,6.45-7.25,6.46-7.33l0-.22-.16-.14c-.06,0-5.29-4.34-10.77-1.3l-.16.09,0,.2c0,.16-.69,4.14,1,6.68A4.53,4.53,0,0,0,22,29.8Zm0-.43a4.2,4.2,0,0,1-3.12-1.82c-1.45-2.15-1.13-5.51-1-6.38,4.84-2.55,9.5.57,10.47,1.29C28.1,23.81,26.87,30,22,29.37Z"/><path class="cls-33" d="M33,30.21s.12.27.08.68a2.51,2.51,0,0,1-.67,1.38,2.81,2.81,0,0,1-1.36.78,2.78,2.78,0,0,1-.72.1,2.73,2.73,0,0,1-.71-.1,2.27,2.27,0,0,1-1.33-.88,2.07,2.07,0,0,1-.35-1.5c.07-.42.25-.65.28-.63s0,.27,0,.65a2,2,0,0,0,.46,1.21,1.91,1.91,0,0,0,1.1.59,2.58,2.58,0,0,0,.59,0,2.68,2.68,0,0,0,.6,0A2.42,2.42,0,0,0,32.09,32a2.47,2.47,0,0,0,.74-1.11A6.4,6.4,0,0,1,33,30.21Z"/><path class="cls-33" d="M31.34,34.4c.08,0-.09.38-.44.51a1,1,0,0,1-.51.06.9.9,0,0,1-.25,0,1,1,0,0,1-.2-.16,1.22,1.22,0,0,1-.27-.43c-.12-.36,0-.7.12-.67s.12.3.28.47a.67.67,0,0,0,.34.22.72.72,0,0,0,.39.13C31,34.5,31.27,34.35,31.34,34.4Z"/><path class="cls-3" d="M23.72,42.23s1,9.73,6.81,13.19c0,0,9.29-6.92,10.7-13.4a5.29,5.29,0,0,1,5.51,1.62S41.12,55.2,30.42,57c0,0-8.11-1.3-10.7-13.08C19.72,44,21.66,41.58,23.72,42.23Z"/><path class="cls-5" d="M36.4,54.26c-2,.2,3.36-4.69,3.36-4.69s-4,3.52-5.35,3.52c-.29,0-.31-.28-.19-.69-2,1.83-3.54,3-3.54,3a10.76,10.76,0,0,1-3.31-3.2c.13.61.16,1,0,1.12-.72.41-3.87-4.79-3.87-4.79s2.24,4.94,1.78,5.2c-.25.14-1.39-1.16-2.41-2.41,3.35,5,7.69,5.7,7.69,5.7a18.94,18.94,0,0,0,7.93-3.47A8.61,8.61,0,0,1,36.4,54.26Z"/><g class="cls-6"><path class="cls-8" d="M38.6,50.37a10.31,10.31,0,0,1-1.62,2C36.09,53.23,35.1,54,35.1,54s-1,.77-2.1,1.42a11,11,0,0,1-2.27,1.13c0-.06,1.06-.68,2.09-1.4s2-1.52,2-1.52,1-.75,1.94-1.59S38.55,50.33,38.6,50.37Z"/><path class="cls-8" d="M40.71,47.09a8.24,8.24,0,0,1,.73-1.2c.36-.58.67-1.2.67-1.2s.35-.58.65-1.21a10.08,10.08,0,0,1,.62-1.25,3.86,3.86,0,0,1-.31,1.38,12.26,12.26,0,0,1-.55,1.31,13.5,13.5,0,0,1-.81,1.17A4.11,4.11,0,0,1,40.71,47.09Z"/><path class="cls-8" d="M39.09,50.35a17.67,17.67,0,0,1,1.65-1.64c.84-.8,1.59-1.67,1.59-1.67a15.57,15.57,0,0,0,1.43-1.78c.66-.95,1.06-2,1.13-2a6.23,6.23,0,0,1-.84,2.18,13.16,13.16,0,0,1-1.38,1.92A21.14,21.14,0,0,1,41,49,12,12,0,0,1,39.09,50.35Z"/><path class="cls-8" d="M29.15,55.9a7.21,7.21,0,0,1-1.7-1.29A16.3,16.3,0,0,1,26,53a16.27,16.27,0,0,1-1.12-1.82,7.23,7.23,0,0,1-.78-2c.06,0,.51.93,1.07,1.82a19.34,19.34,0,0,0,1.21,1.71,19.31,19.31,0,0,0,1.31,1.63C28.39,55.16,29.19,55.85,29.15,55.9Z"/><path class="cls-8" d="M23.5,48.27a4.84,4.84,0,0,1-.8-1.37,11.3,11.3,0,0,1-.52-1.51,12,12,0,0,1-.2-1.58,4.74,4.74,0,0,1,.11-1.59,12.75,12.75,0,0,1,.22,1.55c.12.77.32,1.52.32,1.52s.15.75.38,1.49A13.25,13.25,0,0,1,23.5,48.27Z"/><path class="cls-8" d="M21.48,46.84a9.12,9.12,0,0,1-.63-1.72,8.54,8.54,0,0,1-.17-1.83A9.12,9.12,0,0,1,21.31,45,8.54,8.54,0,0,1,21.48,46.84Z"/></g><path class="cls-46" d="M32.55,56.42a2.2,2.2,0,1,1-2.2-2.2A2.19,2.19,0,0,1,32.55,56.42Z"/><path class="cls-47" d="M32.15,55.16a2.12,2.12,0,0,1,0,.44,2.18,2.18,0,0,1-4,1.26,2.19,2.19,0,1,0,3.94-1.7Z"/><g class="cls-37"><path class="cls-3" d="M86.16,113.45a2.06,2.06,0,0,1-.5-.23c-.3-.18-.75-.4-1.25-.74a33.72,33.72,0,0,1-3.54-2.6,48.15,48.15,0,0,1-4.56-4.49s-2.07-2.44-3.91-5c-.93-1.3-1.83-2.61-2.48-3.61a14.76,14.76,0,0,1-1-1.7,12.05,12.05,0,0,1,1.25,1.56l2.63,3.49c1.93,2.53,4,4.9,4,4.9a53.27,53.27,0,0,0,4.39,4.56,38.94,38.94,0,0,0,3.38,2.74A19.5,19.5,0,0,1,86.16,113.45Z"/><path class="cls-3" d="M90.41,110.86A14.24,14.24,0,0,1,87,109.14,36.24,36.24,0,0,1,84,106.92s-1.43-1.25-2.76-2.59a25.17,25.17,0,0,1-2.56-2.78A33.9,33.9,0,0,1,81.49,104c1.4,1.25,2.86,2.43,2.86,2.43s1.41,1.24,2.93,2.34S90.44,110.79,90.41,110.86Z"/><path class="cls-3" d="M62.07,132.53a4.13,4.13,0,0,1-.19-.78c-.1-.49-.25-1.2-.42-2-.35-1.7-.86-4-1.42-6.19-1.11-4.47-2.56-8.85-2.56-8.85s-1.36-4.4-3-8.7c-.84-2.14-1.73-4.27-2.43-5.85-.35-.79-.64-1.45-.84-1.92a4,4,0,0,1-.29-.74,4.06,4.06,0,0,1,.4.69c.23.45.58,1.08.95,1.86.77,1.56,1.72,3.67,2.62,5.8,1.8,4.26,3.23,8.67,3.23,8.67s1.38,4.42,2.4,8.94c.5,2.26.94,4.53,1.22,6.24.14.85.23,1.57.3,2.07A3.61,3.61,0,0,1,62.07,132.53Z"/><path class="cls-3" d="M80.49,122.9a3.49,3.49,0,0,1-.59-.41c-.36-.27-.89-.66-1.49-1.16-1.22-1-2.79-2.35-4.31-3.76-3-2.84-5.81-6-5.81-6s-2.72-3.17-5.11-6.58c-1.19-1.71-2.33-3.46-3.13-4.8-.41-.66-.72-1.24-.94-1.63a3.28,3.28,0,0,1-.32-.64,3.56,3.56,0,0,1,.43.57l1,1.57c.86,1.3,2.05,3,3.28,4.67,2.47,3.33,5.22,6.43,5.22,6.43s2.69,3.16,5.65,6.07c1.48,1.45,3,2.86,4.16,3.9L80,122.39A3.19,3.19,0,0,1,80.49,122.9Z"/><path class="cls-3" d="M19,128.27a3.53,3.53,0,0,1-.25-.67c-.14-.42-.35-1-.56-1.78-.45-1.47-1-3.46-1.45-5.47-1-4-1.61-8.07-1.61-8.07s-.59-4.09-.87-8.19C14.12,102,14,100,14,98.43c0-.77,0-1.41,0-1.86a3.72,3.72,0,0,1,0-.71,2.52,2.52,0,0,1,.08.7c0,.45.07,1.09.12,1.86.09,1.54.24,3.59.43,5.63.39,4.08,1.05,8.13,1.05,8.13s.58,4.06,1.42,8.08c.42,2,.88,4,1.25,5.5.19.75.34,1.37.45,1.81A3.35,3.35,0,0,1,19,128.27Z"/><path class="cls-3" d="M37,134.81a8.93,8.93,0,0,1-.38-1.61L36,129.64l-.92-5.2s-.36-2.62-.73-5.23c-.17-1.31-.34-2.62-.47-3.6a7.88,7.88,0,0,1-.13-1.65,10.29,10.29,0,0,1,.37,1.61c.18,1,.43,2.27.67,3.57.45,2.6.91,5.2.91,5.2l.74,5.22c.17,1.31.34,2.62.46,3.6A9.62,9.62,0,0,1,37,134.81Z"/><path class="cls-3" d="M60.43,142.92a2.77,2.77,0,0,1-.4-.53c-.23-.34-.58-.82-1-1.43-.77-1.21-1.71-2.86-2.6-4.55a72.39,72.39,0,0,1-3.1-7,72.61,72.61,0,0,1-2.16-7.31c-.43-1.86-.78-3.73-1-5.15-.11-.7-.16-1.29-.21-1.71a3.16,3.16,0,0,1,0-.65,20.26,20.26,0,0,1,.49,2.32c.27,1.4.69,3.25,1.17,5.08,1,3.67,2.32,7.21,2.32,7.21s1.26,3.57,2.91,7c.83,1.7,1.71,3.38,2.41,4.62A21.56,21.56,0,0,1,60.43,142.92Z"/><path class="cls-3" d="M56.74,146.48a28.66,28.66,0,0,1-1.52-2.85c-.74-1.43-1.53-2.82-1.53-2.82s-.72-1.44-1.5-2.84a29.68,29.68,0,0,1-1.52-2.85,17.78,17.78,0,0,1,1.91,2.62c.87,1.36,1.67,2.77,1.67,2.77s.73,1.45,1.37,2.93A16.72,16.72,0,0,1,56.74,146.48Z"/></g><g class="cls-37"><path class="cls-3" d="M41.6,43.83a8.83,8.83,0,0,1-1,2.28c-.59,1.1-1.3,2.13-1.3,2.13s-.76,1-1.62,1.89S36.12,52,36.06,52a5.94,5.94,0,0,1,1.29-2.13c.77-1,1.45-2,1.45-2s.76-1,1.43-2A23,23,0,0,1,41.6,43.83Z"/><path class="cls-3" d="M41.87,46.45c-.07-.06.14-.45.33-.85l.39-.78.5-.72c.25-.37.5-.74.58-.71s0,.48-.18.91a7.61,7.61,0,0,1-.36.84s-.26.37-.56.71S41.93,46.5,41.87,46.45Z"/><path class="cls-3" d="M43.73,47.74a5.39,5.39,0,0,1-1,1.46,16.62,16.62,0,0,1-1.3,1.26,16.1,16.1,0,0,1-1.52,1,4.8,4.8,0,0,1-1.66.69,10.66,10.66,0,0,1,1.42-1.07C40.33,50.54,41,50,41,50s.71-.51,1.38-1.09A8.81,8.81,0,0,1,43.73,47.74Z"/><path class="cls-3" d="M25.12,52.89a3.68,3.68,0,0,1-1.44-1.68,18.64,18.64,0,0,1-.91-2A35.58,35.58,0,0,1,21.56,45a38.41,38.41,0,0,1,1.8,4s.32,1.05.72,2A12.25,12.25,0,0,0,25.12,52.89Z"/><path class="cls-3" d="M24.68,49.26c-.07.05-.41-.39-.68-.87a9.19,9.19,0,0,1-.49-1,10.26,10.26,0,0,1-.23-1.08c-.08-.55-.09-1.1,0-1.12s.25.51.43,1,.39,1,.39,1,.14.51.3,1S24.76,49.22,24.68,49.26Z"/></g></g></g></g></svg>