<svg xmlns="http://www.w3.org/2000/svg" viewBox="0 0 85.69 173.97"><defs><style>.cls-1{isolation:isolate;}.cls-2{fill:#d4ecd4;}.cls-13,.cls-16,.cls-17,.cls-19,.cls-2,.cls-22,.cls-23,.cls-24,.cls-26,.cls-29,.cls-30,.cls-31,.cls-35,.cls-39,.cls-4,.cls-41,.cls-44,.cls-45,.cls-46,.cls-48,.cls-49,.cls-5{mix-blend-mode:multiply;}.cls-3{fill:#fff;}.cls-23,.cls-4,.cls-6{fill:#d3dbfd;}.cls-32,.cls-4,.cls-41,.cls-46,.cls-5{opacity:0.5;}.cls-14,.cls-19,.cls-7{fill:#294168;}.cls-44,.cls-7{opacity:0.6;}.cls-10,.cls-18,.cls-21,.cls-25,.cls-32,.cls-33,.cls-36,.cls-37,.cls-40,.cls-42,.cls-47,.cls-7,.cls-9{mix-blend-mode:screen;}.cls-24,.cls-25,.cls-39,.cls-45,.cls-46,.cls-47,.cls-8{fill:#3c1d91;}.cls-11,.cls-13,.cls-9{fill:#212f47;}.cls-12,.cls-13,.cls-24,.cls-29,.cls-48{opacity:0.45;}.cls-15,.cls-17,.cls-18{fill:#88ac76;}.cls-16,.cls-17,.cls-19,.cls-22{opacity:0.34;}.cls-20,.cls-21,.cls-22{fill:#717982;}.cls-27,.cls-29,.cls-31,.cls-33,.cls-49{fill:#ebd0a6;}.cls-28{fill:#de9168;}.cls-30{fill:#e28c89;}.cls-30,.cls-35,.cls-45{opacity:0.25;}.cls-31{opacity:0.62;}.cls-34,.cls-35,.cls-36{fill:#6f3a1e;}.cls-37{fill:#f8e9d0;}.cls-38,.cls-40,.cls-41{fill:#a95913;}.cls-42{opacity:0.35;}.cls-43,.cls-44{fill:#f15e6b;}.cls-47{opacity:0.3;}</style></defs><title>full_speachРесурс 5</title><g class="cls-1"><g id="Слой_2" data-name="Слой 2"><g id="OBJECTS"><ellipse class="cls-2" cx="42.85" cy="165.36" rx="42.85" ry="8.61"/><path class="cls-3" d="M37.19,88.12s1.47,5.69-3.2,7a7,7,0,0,1-.8-4.08C33.55,89,36.72,87.62,37.19,88.12Z"/><path class="cls-4" d="M37.19,88.12s1.47,5.69-3.2,7a7,7,0,0,1-.8-4.08C33.55,89,36.72,87.62,37.19,88.12Z"/><path class="cls-4" d="M37.19,88.12s1.47,5.69-3.2,7a7,7,0,0,1-.8-4.08C33.55,89,36.72,87.62,37.19,88.12Z"/><path class="cls-3" d="M34.7,44.62s-17,20.57-17.59,27.9S28.25,92.11,34,95.17c0,0-2.31-3.44,3.2-7,0,0-12.35-12.74-11.35-16.36s11-13.7,11-13.7A12.71,12.71,0,0,0,34.7,44.62Z"/><g class="cls-5"><path class="cls-6" d="M21,70.71a4.57,4.57,0,0,1,1.41-.19,4.67,4.67,0,0,1,1,.09,3.7,3.7,0,0,1,.45.11,3.18,3.18,0,0,1,.41.19,3.34,3.34,0,0,1,.8.59,2.69,2.69,0,0,1,.54.82,1.14,1.14,0,0,1,.09.44s-.07-.17-.19-.39a2.51,2.51,0,0,0-.58-.73,2.92,2.92,0,0,0-.77-.51,3.26,3.26,0,0,0-.39-.16,3.84,3.84,0,0,0-.41-.12,4.68,4.68,0,0,0-.94-.14C21.69,70.66,21,70.75,21,70.71Z"/><path class="cls-6" d="M23.4,69.06a3.19,3.19,0,0,1,.83.62,6.87,6.87,0,0,1,.68.79,6.44,6.44,0,0,1,.48.91,2.71,2.71,0,0,1,.28,1s-.21-.47-.45-.91a7.93,7.93,0,0,0-.54-.84,6.7,6.7,0,0,0-.59-.81C23.76,69.43,23.38,69.09,23.4,69.06Z"/></g><path class="cls-4" d="M37.16,88.14v0l0,0Z"/><path class="cls-4" d="M17.11,72.52h0c0-.13,0-.26,0-.4l0-.14c0-.09,0-.2.05-.3s0-.1,0-.15a3,3,0,0,1,.08-.32.83.83,0,0,1,0-.15c0-.16.09-.32.14-.48v0c.05-.15.1-.31.16-.47l.06-.17.14-.36c0-.07.05-.13.08-.19s.1-.26.16-.38a.87.87,0,0,1,.07-.17c.08-.19.16-.37.25-.56l0-.07.24-.51c0-.07.07-.13.1-.2s.13-.27.2-.41l.11-.21c.07-.14.15-.28.22-.43a1.62,1.62,0,0,0,.1-.18l.34-.62,0-.08.31-.56.12-.2.26-.45a2.53,2.53,0,0,0,.13-.22l.28-.47.11-.19.4-.65.06-.1.36-.57L22,61.9l.29-.46.15-.23.32-.5.12-.17c.14-.23.29-.45.44-.68l.06-.08.39-.59.15-.22c.11-.15.21-.31.32-.47l.15-.22.35-.51.11-.16.47-.67.05-.07.42-.6.14-.19.34-.48c0-.06.09-.13.14-.2l.37-.51.1-.13.47-.66,0,0,.43-.59.12-.16.35-.48.12-.16.38-.5.07-.1.46-.61h0l.17,0c-.16.2-8.25,13.52-6.6,16S34.91,59,36.3,55.83a16.23,16.23,0,0,0,1.09-6.23h0a10.13,10.13,0,0,1,.24,1h0c.07.35.13.77.19,1.23,0,.25,0,.49,0,.73v.15q0,.36,0,.69v0c0,.22,0,.42,0,.62a.71.71,0,0,0,0,.14c0,.21,0,.41-.07.6v.05c0,.19,0,.36-.08.53a.36.36,0,0,0,0,.11c0,.17-.07.35-.11.51v0q-.06.24-.12.45v.06c0,.15-.09.29-.13.42-.15.38-.32.78-.5,1.18l-.09.09,0,0-.08.09-.1.1-.09.09a1.06,1.06,0,0,1-.15.15l-.06.07L36,59l-.07.08-.23.24-.07.07-.31.32,0,0c-.95,1-2.22,2.36-3.53,3.84l-.05.05-.43.5-.09.1-.39.46-.12.13-.36.43-.13.15-.34.41-.14.17-.32.39-.15.19-.29.36-.16.2-.27.35-.16.2c-.08.12-.17.23-.25.34l-.15.21-.24.32-.15.2-.21.31-.14.21a2.9,2.9,0,0,0-.19.29,1.37,1.37,0,0,0-.13.2c-.06.09-.12.18-.17.27l-.12.19-.15.27-.1.18-.13.25a1.19,1.19,0,0,1-.08.16l-.11.26a.61.61,0,0,1-.05.12,2.91,2.91,0,0,0-.12.35,1.55,1.55,0,0,0,0,.31,5.38,5.38,0,0,0,.75,2.61,4.71,4.71,0,0,0-3.27-1.45c-2.46.33,1.29,14.53,8.37,17a8.42,8.42,0,0,0,2.68.56A4,4,0,0,0,34,95.17a38.42,38.42,0,0,1-8.73-7.34,45.8,45.8,0,0,1-5.13-6.58c-.36-.57-.7-1.14-1-1.7s-.59-1.12-.83-1.67A11.31,11.31,0,0,1,17.11,72.52Z"/><path class="cls-7" d="M34.24,86.34c-.4-.38-.8-.8-1.2-1.23a35.59,35.59,0,0,1-2.89-3.64s-.35-.47-.84-1.19-1.13-1.69-1.74-2.69l-.87-1.47a6.1,6.1,0,0,0-.9-1.24,2.26,2.26,0,0,0-.92-.58c-.26-.07-.42,0-.42,0s.15,0,.38.13a2.39,2.39,0,0,1,.81.62,20.12,20.12,0,0,1,1.59,2.76c.57,1,1.17,2,1.65,2.77s.82,1.22.82,1.22a32.83,32.83,0,0,0,3,3.6c.42.41.85.82,1.27,1.18a9.92,9.92,0,0,1,1.08,1,1.53,1.53,0,0,1,.42.9c0,.25-.05.38,0,.39s.11-.11.14-.39a1.57,1.57,0,0,0-.36-1A8.76,8.76,0,0,0,34.24,86.34Z"/><path class="cls-7" d="M36.3,50.78a20.18,20.18,0,0,1,.18,2.06c0,1-.08,2.09,0,2.1a6.28,6.28,0,0,0,.39-2.09,14.5,14.5,0,0,0,0-2.13,15.8,15.8,0,0,0-.46-2.08,6.83,6.83,0,0,0-.84-2c-.07,0,.26,1,.47,2A18.87,18.87,0,0,1,36.3,50.78Z"/><path class="cls-8" d="M66.24,161.59s11.17-1.11,12,3.55-16.82-.85-16.82-.85l.23-4.61Z"/><path class="cls-9" d="M78.19,164.87a1.34,1.34,0,0,1,.07.27c.85,4.66-16.82-.85-16.82-.85l.06-1.15C61.64,163.19,76.6,167.83,78.19,164.87Z"/><path class="cls-9" d="M70,162.24a2.69,2.69,0,0,0-.26.61c-.09.32-.08.68-.12.69a1.16,1.16,0,0,1-.09-.74,2.67,2.67,0,0,1,.2-.74,2.15,2.15,0,0,1,.47-.56h.33l-.19.19A2.36,2.36,0,0,0,70,162.24Z"/><path class="cls-9" d="M69.06,161.78a2,2,0,0,0-.37.51,2,2,0,0,0-.26.59c-.09.32-.05.67-.1.69a1.21,1.21,0,0,1-.12-.74,2.26,2.26,0,0,1,.22-.74,1.92,1.92,0,0,1,.51-.52.7.7,0,0,1,.17-.09h.39A2.29,2.29,0,0,0,69.06,161.78Z"/><path class="cls-9" d="M67.5,161.83a2,2,0,0,0-.32.48c-.13.27-.15.6-.19.61s-.11-.35,0-.7a2,2,0,0,1,.3-.64l.06-.06.47,0A2,2,0,0,0,67.5,161.83Z"/><path class="cls-9" d="M63.72,164.49a51.1,51.1,0,0,0,9.83,1.57c3.09.17,4.28-.22,4.74-.56a1.34,1.34,0,0,1-1.06,1.22C72.63,167.08,63.72,164.49,63.72,164.49Z"/><g class="cls-10"><path class="cls-11" d="M73.72,162.6s.53.12,1,.32a6.56,6.56,0,0,1,.91.5,8.44,8.44,0,0,1,.87.59c.41.33.79.71.81.68a3.45,3.45,0,0,0-.69-.82,6.7,6.7,0,0,0-.84-.68,5.51,5.51,0,0,0-1-.45A2.4,2.4,0,0,0,73.72,162.6Z"/></g><g class="cls-10"><path class="cls-11" d="M72.33,162.28c0,.08.31.17.31.17s.32,0,.33-.1-.31-.17-.31-.17S72.33,162.21,72.33,162.28Z"/></g><g class="cls-12"><path class="cls-13" d="M61.67,159.68l3.88,1.63c-.81.23-2.78.91-1.29,1.74,1.85,1,9.82,2.31,12.1,1.86,1.45-.28,1-1.2.47-1.83A3.2,3.2,0,0,1,78.22,165h0l0-.1c-1.59,3-16.55-1.68-16.69-1.73Z"/></g><path class="cls-8" d="M39.39,161.05s-11-2.05-12.28,2.52,16.83.57,16.83.57l.17-4.61Z"/><path class="cls-9" d="M27.21,163.31a2.77,2.77,0,0,0-.1.26c-1.24,4.58,16.83.57,16.83.57L44,163C43.84,163,28.55,166.4,27.21,163.31Z"/><path class="cls-9" d="M35.63,161.39a2.54,2.54,0,0,1,.2.62c.07.33,0,.69.07.7a1.14,1.14,0,0,0,.15-.73,2.44,2.44,0,0,0-.14-.76,2.12,2.12,0,0,0-.42-.59h0l-.32,0a1.92,1.92,0,0,1,.16.21A2.55,2.55,0,0,1,35.63,161.39Z"/><path class="cls-9" d="M36.56,161a2.14,2.14,0,0,1,.33.54,2.18,2.18,0,0,1,.21.61c.07.33,0,.67,0,.69s.19-.33.18-.73a2.09,2.09,0,0,0-.16-.75,1.7,1.7,0,0,0-.46-.56.54.54,0,0,0-.16-.1l-.39,0A2,2,0,0,1,36.56,161Z"/><path class="cls-9" d="M38.11,161.18a1.86,1.86,0,0,1,.28.51c.11.28.1.61.15.62a1,1,0,0,0,.06-.7,1.87,1.87,0,0,0-.24-.66l0-.06-.48-.06A1.74,1.74,0,0,1,38.11,161.18Z"/><path class="cls-9" d="M41.66,164.15a51.58,51.58,0,0,1-9.93.74c-3.09-.1-4.25-.58-4.67-1a1.35,1.35,0,0,0,.94,1.31C32.56,166,41.66,164.15,41.66,164.15Z"/><g class="cls-10"><path class="cls-11" d="M31.85,161.42s-.53.08-1,.24a5.54,5.54,0,0,0-.95.42,7.44,7.44,0,0,0-.91.52c-.44.29-.85.64-.88.61a3.4,3.4,0,0,1,.76-.76,6.27,6.27,0,0,1,.9-.61,5.57,5.57,0,0,1,1-.36A2.42,2.42,0,0,1,31.85,161.42Z"/></g><g class="cls-10"><path class="cls-11" d="M33.27,161.23c0,.07-.32.14-.32.14s-.33-.06-.33-.13.32-.14.32-.14S33.27,161.15,33.27,161.23Z"/></g><g class="cls-12"><path class="cls-13" d="M44.11,159.53l-4,1.3c.79.29,2.7,1.14,1.14,1.84-1.93.86-10,1.47-12.21.84-1.43-.41-.89-1.29-.32-1.87a3.22,3.22,0,0,0-1.54,1.77h0a.42.42,0,0,1,0-.1C28.55,166.4,43.84,163,44,163Z"/></g><path class="cls-14" d="M57.56,87.35s5.86,44.12,9,73.16c0,0-2.38.48-3.19.53s-2.84-.12-2.84-.12S51.05,105.4,48,104c-3.85-1.86-.15,48.93-1,56.22a7.1,7.1,0,0,1-7.53-.24s-.74-69.29-.86-74.4S57.72,83.62,57.56,87.35Z"/><path class="cls-15" d="M57.56,87.35s5.86,44.12,9,73.16c0,0-2.38.48-3.19.53s-2.84-.12-2.84-.12S51.05,105.4,48,104c-3.85-1.86-.15,48.93-1,56.22a7.1,7.1,0,0,1-7.53-.24s-.74-69.29-.86-74.4S57.72,83.62,57.56,87.35Z"/><g class="cls-16"><path class="cls-15" d="M58.79,97a5.82,5.82,0,0,1-.79.1,3.07,3.07,0,0,1-1.61-.53,3.76,3.76,0,0,1-1.16-1.25,4.58,4.58,0,0,1-.35-.7,6.13,6.13,0,0,1-.29-.73c-.15-.45-.31-1.07-.45-1.69s-.24-1.26-.31-1.74a5.53,5.53,0,0,0-.12-.79,3.56,3.56,0,0,0,0,.8A16.85,16.85,0,0,0,54,92.25,14.84,14.84,0,0,0,54.36,94a7.57,7.57,0,0,0,.27.77,6.23,6.23,0,0,0,.39.72,3.86,3.86,0,0,0,1.27,1.28,3,3,0,0,0,1.72.47,2.39,2.39,0,0,0,.58-.11A.75.75,0,0,0,58.79,97Z"/><path class="cls-15" d="M38.88,97.31a2.5,2.5,0,0,0,.37-.56,12.58,12.58,0,0,0,.67-1.33,15.39,15.39,0,0,0,.74-2,17.58,17.58,0,0,0,.39-2.13,14.19,14.19,0,0,0,.09-1.48,4.39,4.39,0,0,0,0-.68,3.85,3.85,0,0,0-.07.67c0,.4-.1.94-.18,1.47a18.48,18.48,0,0,1-.46,2.08,18.76,18.76,0,0,1-.65,2c-.2.5-.41,1-.59,1.35S38.87,97.3,38.88,97.31Z"/><path class="cls-15" d="M48.16,103.84a1.2,1.2,0,0,0,0-.31c0-.19-.07-.47-.12-.81-.1-.67-.24-1.56-.37-2.45-.25-1.79-.45-3.58-.45-3.58S47,94.9,46.77,93.1l-.22-2.47-.08-.82a1.8,1.8,0,0,0,0-.31,1,1,0,0,0,0,.32c0,.19,0,.48,0,.81,0,.68.08,1.59.14,2.49.13,1.8.34,3.6.34,3.6s.23,1.79.53,3.58c.15.89.32,1.78.45,2.44.07.34.13.61.18.8A1,1,0,0,0,48.16,103.84Z"/><path class="cls-15" d="M47.54,99.56a.94.94,0,0,0-.22-.09,1.24,1.24,0,0,1-.26-.1l-.3-.18a3.2,3.2,0,0,1-1-1.54,9,9,0,0,1-.44-1.86c-.07-.52-.1-.86-.1-.86s0-.35-.09-.87S45,92.83,45,92.13a10.28,10.28,0,0,0-.22-1.93,4.29,4.29,0,0,0-.19-.62.9.9,0,0,0-.11-.22s.11.34.2.86a13.13,13.13,0,0,1,.13,1.91c0,.71,0,1.41.07,1.94s.06.88.06.88,0,.36.13.88a8.46,8.46,0,0,0,.5,1.89,3.26,3.26,0,0,0,1.17,1.56l.33.17a1.2,1.2,0,0,0,.27.07Z"/><path class="cls-15" d="M44.6,103.75s.8,0,1.6,0a15.68,15.68,0,0,1,1.57.11,7.31,7.31,0,0,1,1.54.31,5.89,5.89,0,0,1,1,.42,2.27,2.27,0,0,0,.44.24,1.59,1.59,0,0,0-.38-.33,5,5,0,0,0-1-.51,7.32,7.32,0,0,0-1.57-.4,15,15,0,0,0-1.61,0A10.68,10.68,0,0,0,44.6,103.75Z"/><path class="cls-15" d="M46,103.12s.71.23,1.39.55a9.47,9.47,0,0,1,1.3.72,9.12,9.12,0,0,1,1.21.86c.58.47,1.07,1,1.1,1a5.24,5.24,0,0,0-1-1.17,8.55,8.55,0,0,0-1.2-.94,9,9,0,0,0-1.37-.67A4.79,4.79,0,0,0,46,103.12Z"/><path class="cls-15" d="M61.63,160.15a2.93,2.93,0,0,0,.9,0c.45,0,.9-.1.9-.1s.45-.1.88-.23a3.75,3.75,0,0,0,.84-.34,5,5,0,0,0-.89.15c-.44.09-.88.15-.88.15s-.43.1-.87.18A4.13,4.13,0,0,0,61.63,160.15Z"/><path class="cls-15" d="M40.31,159.75a5,5,0,0,0,1.61.32,6.91,6.91,0,0,0,3.24-.51,5.42,5.42,0,0,0,1.44-.8s-.73.37-1.5.62a10.71,10.71,0,0,1-3.17.5C41.12,159.88,40.32,159.72,40.31,159.75Z"/></g><path class="cls-17" d="M50.37,105.59c.7.76,4,18.77,5.09,21.6s3.43,5.56,5.28,3.44-4.36-39.14-4.35-39.44c.38-8.92-13.47-3.94-17.74-2.2,0-1.73,0-2.94,0-3.46-.13-5.11,19.12-1.91,19,1.82,0,0,5.86,44.12,9,73.16,0,0-2.38.48-3.19.53s-2.84-.12-2.84-.12-9-52.72-12.31-56.75A5.74,5.74,0,0,1,50.37,105.59Z"/><path class="cls-17" d="M47,160.17a7.1,7.1,0,0,1-7.53-.24s-.16-15-.34-31.56c1.29,4.87,3.72,4.63,4.77,2.28,1.29-2.87-1.6-24.67,1-26.17a3.81,3.81,0,0,1,2.74-.5C44.46,106.1,47.83,153.17,47,160.17Z"/><path class="cls-18" d="M40.34,126.15a2.23,2.23,0,0,0,0-.55c0-.36,0-.86,0-1.46,0-1.21,0-2.82-.07-4.43l-.06-6.44-.12-6.43c0-1.61,0-3.22,0-4.43,0-.6,0-1.11,0-1.46a2.23,2.23,0,0,0,0-.55,2.22,2.22,0,0,0-.07.55c0,.35-.05.85-.07,1.46-.05,1.2-.09,2.81-.12,4.43-.06,3.22,0,6.44,0,6.44s.07,3.22.22,6.44c.07,1.61.16,3.22.24,4.42,0,.61.08,1.11.12,1.46A3.27,3.27,0,0,0,40.34,126.15Z"/><path class="cls-18" d="M40.42,130.81c.07,0,.09-.34.11-.66l0-.63-.08-.63c0-.32-.07-.65-.14-.66s-.18.31-.24.64a6.37,6.37,0,0,0-.08.66,6.1,6.1,0,0,0,.12.65C40.23,130.51,40.35,130.82,40.42,130.81Z"/><path class="cls-18" d="M59.58,130.35c.06,0,.42-.36.68-.84a5.66,5.66,0,0,0,.41-1,5.34,5.34,0,0,0,.07-1.09c0-.55-.18-1.07-.25-1a5.15,5.15,0,0,0-.13,1,7.83,7.83,0,0,1-.21,1,7.47,7.47,0,0,1-.24,1C59.76,129.84,59.52,130.3,59.58,130.35Z"/><path class="cls-18" d="M59.92,115.54A44.35,44.35,0,0,0,60,120a43.72,43.72,0,0,0,.62,4.41,36.77,36.77,0,0,0-.7-8.88Z"/><path class="cls-11" d="M58.21,85.8s3.28,3.29-6.48,3.79c-8.18.41-13.07-.78-13.59-2.29A2.89,2.89,0,0,1,39,84.39S57.87,84.58,58.21,85.8Z"/><path class="cls-13" d="M54.6,88.19c.72-1.2-3.29-.19-8.48-.41a18.62,18.62,0,0,1-8-2,3.13,3.13,0,0,1,.61-1.15c.18-.09.37-.17.59-.26,2.59,0,18.6.28,18.91,1.41,0,0,3.28,3.29-6.48,3.79-6.46.33-10.87-.35-12.69-1.4C44.17,90,54,89.24,54.6,88.19Z"/><path class="cls-19" d="M50.23,87s1.23,3-1.39,3.42-4.66-.27-5.07-.84-.34-2.57.74-2.86S50.23,87,50.23,87Z"/><path class="cls-20" d="M49.71,86.7s1.23,3-1.39,3.42-4.66-.26-5.07-.84-.34-2.56.74-2.86S49.71,86.7,49.71,86.7Z"/><path class="cls-21" d="M44,86.42a8.63,8.63,0,0,1,2.08,0,6.32,6.32,0,0,0-1.51.07c-1.09.3-1.16,2.3-.75,2.87a4.32,4.32,0,0,0,2.78.94,4.83,4.83,0,0,1-3.34-1C42.83,88.71,42.91,86.72,44,86.42Z"/><path class="cls-22" d="M47.79,89.54c1.92-.3,1.77-2,1.55-2.88l.37,0s1.23,3-1.39,3.42-4.66-.26-5.07-.84a.77.77,0,0,1-.12-.24A7.72,7.72,0,0,0,47.79,89.54Z"/><path class="cls-3" d="M52.24,41.14S61.89,42.7,65,44.77c0,0-3.73,11.16-1.55,16.35a100.36,100.36,0,0,0-3.61,16.19c-.21,1.59-.37,3.19-.45,4.8s.56,3.6-1.42,4c-1.34.3-2.67.6-4,.84a38.83,38.83,0,0,1-11.23.58c-1.59-.2-3.56-.39-4.75-1.55-.9-.88-1-2.15-1.13-3.29-.42-2.79-.84-5.59-1.24-8.38-1-6.81-2-13.65-2.61-20.5-.12-1.29-.23-2.57-.29-3.86C32.31,41,45.71,41.14,52.24,41.14Z"/><path class="cls-4" d="M52.24,40.9S61.89,42.46,65,44.53c0,0-3.73,11.16-1.55,16.35a100.12,100.12,0,0,0-3.61,16.19c-.21,1.59-.37,3.19-.45,4.79s.56,3.61-1.42,4c-1.34.3-2.67.6-4,.83a38.14,38.14,0,0,1-11.23.58c-1.59-.19-3.56-.38-4.75-1.54-.9-.88-1-2.15-1.13-3.3-.42-2.79-.84-5.58-1.24-8.37-1-6.82-2-13.65-2.61-20.5-.12-1.29-.23-2.57-.29-3.86C32.31,40.77,45.71,40.9,52.24,40.9Z"/><path class="cls-4" d="M36.83,82.72l-.63-4.25c3.3,7,9.91,8,16.44,4.91,7.69-3.63,9.24-28.76,9.14-29.07,0,0,.7,3,1.55,7.19a101,101,0,0,0-3.49,15.81c-.21,1.59-.37,3.19-.45,4.8s.56,3.6-1.42,4c-1.34.3-2.67.6-4,.84a38.83,38.83,0,0,1-11.23.58c-1.59-.2-3.56-.39-4.75-1.55C37.06,85.13,37,83.86,36.83,82.72Z"/><path class="cls-4" d="M53.85,47.56v0Z"/><path class="cls-23" d="M46.83,80.75c0,.35,0,.83.06,1.3L47,83.94l0,1.89A7,7,0,0,0,47,87.12c.06.34.15.56.13.57a1.56,1.56,0,0,1-.24-.55,7.62,7.62,0,0,1-.17-1.3L46.68,84l0-1.9,0-1.3a2.85,2.85,0,0,1,0-.6A2.84,2.84,0,0,1,46.83,80.75Z"/><path class="cls-4" d="M43.88,75.58q.25-1.8.45-3.6c.46-4.51,2.64-21.27,2.73-22a3.41,3.41,0,0,1-1.65-2.73s1.57-2.78,2.68-2.65,2.87,1.93,2.7,3.08a6.42,6.42,0,0,1-2.16,2.36c1.1,6.8,2,13.66,2.56,20.53.41,5.28,1,9.88-2.72,14.12l-.9,1a.42.42,0,0,1-.28.18.4.4,0,0,1-.27-.17,17,17,0,0,1-2.91-5A10.62,10.62,0,0,1,43.88,75.58Z"/><path class="cls-8" d="M43.39,75.33c.16-1.2.32-2.39.44-3.6.46-4.51,2.64-21.27,2.73-22A3.44,3.44,0,0,1,44.91,47s1.58-2.77,2.68-2.65,2.88,1.93,2.7,3.08a6.38,6.38,0,0,1-2.15,2.36c1.1,6.8,2,13.67,2.55,20.54.41,5.27,1,9.87-2.72,14.11l-.9,1c-.07.09-.16.19-.28.18a.38.38,0,0,1-.26-.17,16.68,16.68,0,0,1-2.91-5A10.49,10.49,0,0,1,43.39,75.33Z"/><path class="cls-24" d="M43.39,75.33l.06-.49c.49,4.51,2.6,7.86,4.95,3,2.43-5-.26-26.55-.92-26.94-.45-.27-1.23,2.8-1.68,4.77.41-3.22.73-5.67.76-5.92a2.84,2.84,0,0,1-1.26-1.32c.39.3,1.71,1.2,2.71.37,1.18-1,.2-3.95.06-4.14l.83.36a3.23,3.23,0,0,1,1.39,2.42,6.38,6.38,0,0,1-2.15,2.36c1.1,6.8,2,13.67,2.55,20.54.41,5.27,1,9.87-2.72,14.11l-.9,1c-.07.09-.16.19-.28.18a.38.38,0,0,1-.26-.17,16.68,16.68,0,0,1-2.91-5A10.49,10.49,0,0,1,43.39,75.33Z"/><path class="cls-25" d="M45.74,62.22S46.8,53.36,47,53.38s-.68,8.89-.68,8.89-1.06,8.86-1.21,8.84S45.74,62.22,45.74,62.22ZM44.66,77a3.92,3.92,0,0,0,.21-1.21c.06-.6.13-1.2.13-1.2s0-.6,0-1.21a3.84,3.84,0,0,0-.07-1.22,3.53,3.53,0,0,0-.31,1.19c-.11.6-.17,1.21-.17,1.21s0,.61,0,1.22A3.73,3.73,0,0,0,44.66,77Zm2.19-28.11s-.14-.35-.17-.67a1.8,1.8,0,0,1,0-.64,1.88,1.88,0,0,1,.14-.61c.12-.31.38-.54.35-.61s-.42.07-.68.41a1.89,1.89,0,0,0-.34.74,2,2,0,0,0,.13.81C46.46,48.69,46.8,48.93,46.85,48.87Z"/><g class="cls-5"><path class="cls-6" d="M41.07,44c-.42,1-1.72,1.67-2.4,2.49s-1.5,2-2.18,3a.25.25,0,0,1-.45-.06A4.21,4.21,0,0,1,37,45c.83-1,2.55-2.29,3.91-1.65a.45.45,0,0,1,.16.61Z"/></g><g class="cls-5"><path class="cls-6" d="M58.75,80.92c.4,1.84-1,5.36-3.29,5.14-.32,0-.57-.44-.29-.69a10.49,10.49,0,0,0,1.91-1.73,15.58,15.58,0,0,0,1.08-2.8.33.33,0,0,1,.59.08Z"/></g><g class="cls-5"><path class="cls-6" d="M37.79,82.05a10,10,0,0,0,1.8,2.53,19.13,19.13,0,0,0,2.61,1.65.29.29,0,0,1-.14.53c-2.24.15-4.59-2.45-4.53-4.64a.14.14,0,0,1,.26-.07Z"/></g><g class="cls-26"><path class="cls-6" d="M34.66,66.72a2.08,2.08,0,0,0,0-.41l-.12-1.08c-.1-.89-.22-2.08-.33-3.28-.22-2.38-.29-4.78-.29-4.78s-.12-2.39,0-4.78c0-1.2.11-2.4.19-3.29,0-.45.08-.82.1-1.08a2.51,2.51,0,0,0,0-.41,2.43,2.43,0,0,0-.07.4c0,.26-.11.63-.16,1.08-.11.89-.21,2.09-.27,3.29-.13,2.4,0,4.8,0,4.8s.1,2.4.37,4.79c.13,1.19.29,2.38.42,3.27.06.45.13.82.17,1.08A1.78,1.78,0,0,0,34.66,66.72Z"/></g><path class="cls-27" d="M42.88,88.65a2.87,2.87,0,0,0-2.22-.85,1.08,1.08,0,0,0,.09-.55c-.17-1.18-2.19-2.14-2.19-1a5.36,5.36,0,0,1-.51,1.94,14.51,14.51,0,0,0-2,.76s-3.56,1.89-2,4.53,4.84.63,5.27.75-.14,1.51-.14,2.14,2,1,3.33-1,.8-3.26.8-3.26.85,1.26,1.42.76S44.74,90.75,42.88,88.65Z"/><path class="cls-28" d="M41.57,93.1a4.08,4.08,0,0,1,.07,1.1,6,6,0,0,1-.16,1.1,3.87,3.87,0,0,1-.47,1,1.15,1.15,0,0,1-.6.51.57.57,0,0,1-.36,0s.14,0,.31-.12a1.21,1.21,0,0,0,.49-.51,4.6,4.6,0,0,0,.37-1,7,7,0,0,0,.23-1C41.52,93.65,41.53,93.1,41.57,93.1Zm1.64-1.41a6.93,6.93,0,0,0-.36-1,5.3,5.3,0,0,0-.57-.85,2.3,2.3,0,0,0-.55-.47c-.18-.09-.31-.11-.31-.09s.11.07.25.18a2,2,0,0,1,.45.49,6.25,6.25,0,0,1,.49.86,7.24,7.24,0,0,1,.41.89c.19.46.3,1,.33.94A2.67,2.67,0,0,0,43.21,91.69Zm-.89.49a8.24,8.24,0,0,1,.22,1,4.54,4.54,0,0,1,.08,1,6.7,6.7,0,0,1-.16,1,2,2,0,0,0,.35-1,4.1,4.1,0,0,0,0-1.1,7.15,7.15,0,0,0-.29-1.06,4.16,4.16,0,0,0-.46-1A8.48,8.48,0,0,0,42.32,92.18Zm-1.26-4.43a1.22,1.22,0,0,0-.53-.07,3.14,3.14,0,0,0-.51.07l-.23,0a9.34,9.34,0,0,0-1.42.45A10.32,10.32,0,0,0,39.85,88l.22-.05a4.4,4.4,0,0,1,.49-.12,1.28,1.28,0,0,1,.47,0c.13,0,.21.07.23.05S41.2,87.81,41.06,87.75Z"/><path class="cls-29" d="M44.49,91.63c-.26.61-2.38-1.73-2.47-1.86s1.5,2.43,1.19,2.77-1.16-1.41-1.16-1.41.59,2.89.15,3-.88-2.64-.88-2.64c0,.56.08,4.12-.75,4S40.13,93,40.13,93s-.93.69-3.14-.22c-1.74-.72-.89-3-.42-4l-.52.23a6.24,6.24,0,0,0-1.45,1.12,11.51,11.51,0,0,0-.93,2.25,2.75,2.75,0,0,0,.39,1.16c1.56,2.64,4.84.63,5.27.75s-.14,1.51-.14,2.14,2,1,3.33-1,.8-3.26.8-3.26.85,1.26,1.42.76c.36-.32.27-1.09-.32-2.15A1.71,1.71,0,0,1,44.49,91.63Z"/><path class="cls-29" d="M39.46,85.83c0,.09.09.19.14.29a1.47,1.47,0,0,1-1.25,2.1A15.16,15.16,0,0,1,40.07,88c.37,0,1.15,0,1.86,0a3.76,3.76,0,0,0-1.27-.21,1.08,1.08,0,0,0,.09-.55A2,2,0,0,0,39.46,85.83Z"/><path class="cls-30" d="M38.35,88.22l-.12,0Z"/><path class="cls-6" d="M42.61,54.39l-7.47-.28s.57,8.34,4,7.62S42.61,54.39,42.61,54.39Z"/><path class="cls-27" d="M52.36,38.68l-.21,4.2s-2.78,3.16-7.91.53l.22-4.73S50.44,36.23,52.36,38.68Z"/><path class="cls-29" d="M44.31,41.86c4.59,4.5,8.25-3.4,6-1.92-1.88,1.25-5,0-5.92-.44v-.16l0-.51a.77.77,0,0,1,.19-.22c.29-.11.93-.34,1.72-.55s1.93-.26,2.81-.46a5.73,5.73,0,0,1,.93,0h0l.41.06h0a2.92,2.92,0,0,1,.4.1H51l.32.12.07,0a2.11,2.11,0,0,1,.33.18l0,0,.26.2.07.06a2.16,2.16,0,0,1,.25.27h0l-.21,4.2s-2.78,3.16-7.91.53Z"/><path class="cls-27" d="M35.26,20.56a2.1,2.1,0,0,0-2.9-.65c-2,1.3-1,8.11,1.7,8S35.73,20.42,35.26,20.56Z"/><path class="cls-29" d="M35.26,20.56a2.1,2.1,0,0,0-2.9-.65c-2,1.3-1,8.11,1.7,8S35.73,20.42,35.26,20.56Z"/><path class="cls-28" d="M32.8,25.89c0-.05.2,0,.43-.06a.44.44,0,0,0,.28-.24.63.63,0,0,0,0-.45.8.8,0,0,0-.24-.38c-.11-.1-.24-.13-.42-.28a.82.82,0,0,1-.17-1,1.11,1.11,0,0,1,.14-.21,1.09,1.09,0,0,1,.25-.2l.2-.09h0l0,0s0-.07,0-.12l0-.18A2,2,0,0,0,33,22c-.26-.46-.65-.63-.64-.7s.47,0,.87.44a2.49,2.49,0,0,1,.48.84l.06.23c0,.09,0,.13,0,.26s0,.43,0,.59a1.47,1.47,0,0,0-.38,0,.31.31,0,0,0-.1,0l-.11.11a.46.46,0,0,0-.06.1s0,0,0,0,.23.17.4.36a1.47,1.47,0,0,1,.35.73,1.13,1.13,0,0,1-.15.8.6.6,0,0,1-.51.25C33,26.09,32.78,25.93,32.8,25.89Z"/><path class="cls-31" d="M34.06,27.93c2.68-.08,1.67-7.51,1.2-7.37a2.55,2.55,0,0,0-1.52-1,4.83,4.83,0,0,1-.18,2.76s-.71-1.12-1.08-.75.2,2.18-.62,2.35c-.25.06-.41-.14-.52-.44C31.5,25.67,32.48,28,34.06,27.93Z"/><g class="cls-32"><path class="cls-33" d="M31.56,21.42c-.11.38-.06.76.11.85s.41-.15.52-.53.07-.76-.11-.85S31.67,21,31.56,21.42Z"/><path class="cls-33" d="M32.25,20.32a.3.3,0,0,0,.13.34.19.19,0,0,0,.29-.09.32.32,0,0,0-.13-.35A.19.19,0,0,0,32.25,20.32Z"/></g><path class="cls-27" d="M65.22,20.76c.22-6.09-2.3-16-15.13-16.06S35.24,18.75,35.24,18.75a38.68,38.68,0,0,0-1.18,9.18c.15,4,2.22,9.89,11.45,10.84s16.35-2.93,18-8.61a4.74,4.74,0,0,0,4.36-3.8C68.52,23.74,67.09,21.08,65.22,20.76Z"/><g class="cls-26"><path class="cls-29" d="M65.22,20.76a19.46,19.46,0,0,0-.75-6.13,15.67,15.67,0,0,0-2.09-4.38c1.85,3.11,2.18,7.78,2.08,10.61a7.79,7.79,0,0,0,.8-.09Z"/><path class="cls-29" d="M66.9,21.8a5.35,5.35,0,0,1,.38,3.65,4.72,4.72,0,0,1-4.35,3.81c-1.66,5.67-8.77,9.55-18,8.6-4.86-.49-7.74-2.37-9.39-4.62,1.52,2.64,4.48,5,10,5.53,9.24.95,16.35-2.93,18-8.61a4.74,4.74,0,0,0,4.36-3.8A5.26,5.26,0,0,0,66.9,21.8Z"/></g><path class="cls-34" d="M40.77,24c0,1.22-.51,2.21-1.19,2.21s-1.26-1-1.28-2.2.51-2.22,1.2-2.22S40.75,22.78,40.77,24Z"/><path class="cls-35" d="M40.07,22.05a3.64,3.64,0,0,1,.15,1c0,1.22-.52,2.21-1.2,2.22a.84.84,0,0,1-.57-.26c.21.73.64,1.24,1.13,1.24.68,0,1.21-1,1.19-2.21A2.77,2.77,0,0,0,40.07,22.05Z"/><path class="cls-36" d="M38.54,23.62c0,.42.13.78.34.8s.41-.3.44-.72-.12-.78-.34-.8S38.57,23.21,38.54,23.62Z"/><path class="cls-36" d="M39.38,22.51a.15.15,0,0,1-.15.17.17.17,0,0,1-.16-.17.15.15,0,0,1,.15-.17A.16.16,0,0,1,39.38,22.51Z"/><path class="cls-34" d="M55.31,25.05c-.13,1.21-.8,2.13-1.47,2.05s-1.12-1.13-1-2.35.8-2.13,1.47-2.05S55.45,23.84,55.31,25.05Z"/><path class="cls-35" d="M54.91,23.08a3.59,3.59,0,0,1,0,.8c-.13,1.21-.79,2.13-1.47,2.05a.88.88,0,0,1-.57-.37c.08.84.46,1.48,1,1.54s1.34-.84,1.47-2.05A2.85,2.85,0,0,0,54.91,23.08Z"/><path class="cls-36" d="M53.25,24.35c-.08.41,0,.79.23.83s.45-.25.53-.66,0-.78-.23-.83S53.33,23.94,53.25,24.35Z"/><path class="cls-36" d="M54.23,23.35a.17.17,0,0,1-.18.15.18.18,0,0,1-.14-.19.17.17,0,0,1,.18-.15A.16.16,0,0,1,54.23,23.35Z"/><path class="cls-28" d="M65.89,27.77a.9.9,0,0,1-.38.76.67.67,0,0,1-.38.13.61.61,0,0,1-.47-.22,1.1,1.1,0,0,1-.28-.57.8.8,0,0,1,.2-.69,2.32,2.32,0,0,1,.39-.26.57.57,0,0,0,.19-.24.81.81,0,0,0,.06-.56.42.42,0,0,0-.29-.3l-.11,0H64.7l-.07,0,0,0L64.5,26c-.15.21-.26.26-.4.27a.35.35,0,0,1-.24-.11.47.47,0,0,1-.14-.26,3.68,3.68,0,0,1-.07-.79,3.48,3.48,0,0,1,0-.55,3.08,3.08,0,0,1,.28-1,1.71,1.71,0,0,1,.54-.65c.39-.28.72-.2.71-.15s-.28.09-.56.4a2.26,2.26,0,0,0-.53,1.51c0,.16,0,.32,0,.48s0,.12,0,.16.06,0,.06,0h0l.09-.07a.76.76,0,0,1,.18-.09.72.72,0,0,1,.3-.06.84.84,0,0,1,.27.05,1,1,0,0,1,.26.15,1.25,1.25,0,0,1,.45.74,1.6,1.6,0,0,1-.17,1.11,1.18,1.18,0,0,1-.4.4,2.49,2.49,0,0,0-.35.16.2.2,0,0,0-.08.19.59.59,0,0,0,.12.31.37.37,0,0,0,.49.12C65.73,28.08,65.84,27.74,65.89,27.77Z"/><path class="cls-33" d="M66.47,22.9c.26.27.57.35.68.18s0-.53-.28-.8-.57-.35-.69-.18S66.2,22.63,66.47,22.9Z"/><path class="cls-33" d="M65.46,21.58a.31.31,0,0,0,.13.34.19.19,0,0,0,.29-.09.32.32,0,0,0-.13-.35A.19.19,0,0,0,65.46,21.58Z"/><path class="cls-29" d="M47.93,28.25a5,5,0,0,1-3.85-1.2s-1.12.66.8,1.47C47.43,29.59,47.93,28.25,47.93,28.25Z"/><path class="cls-28" d="M46.8,28.76a7.37,7.37,0,0,1-.81,0,4.71,4.71,0,0,1-1.64-.62,1,1,0,0,1-.51-.59.49.49,0,0,1,.24-.49,1.17,1.17,0,0,1,.46-.18l.19,0a2,2,0,0,1,.46,0,2.61,2.61,0,0,1,.54.1l.33.13c.2.11.47.31.7.47,0-.28,0-.58,0-.9V25a6,6,0,0,0-.07-1.22A4.64,4.64,0,0,0,46.52,25c0,.34-.07.73-.1,1.1l-.05.55a.16.16,0,0,1,0,.08s0,0-.06-.05a2.67,2.67,0,0,0-.39-.18,3.39,3.39,0,0,0-.65-.16,2.4,2.4,0,0,0-.56,0,1.27,1.27,0,0,0-.26,0,2.07,2.07,0,0,0-.64.3,1.18,1.18,0,0,0-.32.4.85.85,0,0,0-.06.59,1.35,1.35,0,0,0,.76.82A4.35,4.35,0,0,0,46,29,1.25,1.25,0,0,0,46.8,28.76Z"/><path class="cls-37" d="M45.11,27.19c-.06.12.11.31.37.43s.51.11.57,0-.11-.32-.37-.43S45.16,27.07,45.11,27.19Z"/><path class="cls-29" d="M54.23,26.15c1.92.09,3.42,1.15,3.36,2.37S55.94,30.66,54,30.57s-3.42-1.16-3.36-2.37S52.32,26.06,54.23,26.15ZM34.68,26c-.27,1.19,1,2.5,2.85,2.94s3.55-.19,3.83-1.38-1-2.5-2.85-2.93S35,24.81,34.68,26Z"/><path class="cls-29" d="M59.32,11.72C49,19.67,37.08,14,37.08,14a15.5,15.5,0,0,0-1.65,3.77C36.15,14.6,39.26,4.62,50.09,4.7c12.83.09,15.35,10,15.13,16.06a2.62,2.62,0,0,1,.94.38,5.22,5.22,0,0,1-.82.66c-2.06.93-1.79,4.61-3,3.66s-.4-4.71-.4-4.71C59.71,18.73,59.32,11.72,59.32,11.72Z"/><path class="cls-38" d="M65.76,20.79a7.34,7.34,0,0,0,3.08-6.37c-.11-5.37-3.29-7.71-7.79-7.6,0,0-4.56-6.95-11.31-6.82s-8.66,5.77-11.3,5.37S35,4.1,35,4.1s-.13,2.83,1.19,3.77a11.42,11.42,0,0,1-2.91-1.21,10,10,0,0,0,1.33,5.66s-1.59,3.1-.8,5.26a17,17,0,0,1,.93,3.09s1.45-5.92,2.78-7.68c0,0,11.91,5.66,22.23-2.29,0,0,.4,7,2.65,9,0,0-.8,3.77.39,4.72S63.71,21.71,65.76,20.79Z"/><path class="cls-8" d="M59.92,23.11l.63-.25,2.55-1,1.44-.56.64-.25c.13,0,.48-.24.58-.18L66,21a.7.7,0,0,0-.32-.69c-.19-.1-.39,0-.58.09l-1.24.43-4.25,1.45Z"/><path class="cls-39" d="M59.87,23l-.1-.31L64.52,21c.28-.09,1.29-.6,1.51-.21A.75.75,0,0,1,66,21a.29.29,0,0,0-.17-.06l-.1-.05c-.1-.06-.45.14-.58.18l-.25.1-.16.06-.08,0-.15.06-.7.27-.5.19-.1,0-.14.06c-.56.21-1.11.44-1.67.66l-.73.28,0,0-.13.05-.63.25,0-.11Z"/><path class="cls-8" d="M48.1,22.73l.37-.78a5.71,5.71,0,0,0-4-.31l.3.8A5,5,0,0,1,48.1,22.73Z"/><path class="cls-39" d="M48.1,22.73a5,5,0,0,0-3.32-.29l-.13-.35a5.68,5.68,0,0,1,3.61.31Z"/><path class="cls-25" d="M59.68,22.82s-5.83-4.12-11.33-.44c0,0-.73,8.3,5.17,8.52S59.68,22.82,59.68,22.82Z"/><path class="cls-25" d="M51.43,21.06l3.33,9.74a5.52,5.52,0,0,1-1.24.1l-.5,0-3.31-9.23A8.46,8.46,0,0,1,51.43,21.06Z"/><path class="cls-25" d="M55.53,21.09l2.52,7.37a5.82,5.82,0,0,1-1.28,1.43l-3.24-9A10.54,10.54,0,0,1,55.53,21.09Z"/><path class="cls-25" d="M48.32,23.53c0-.69,0-1.15,0-1.15,5.5-3.68,11.33.44,11.33.44a13.67,13.67,0,0,1-.14,1.36A10.42,10.42,0,0,1,48.32,23.53Z"/><path class="cls-8" d="M53.51,31.33a4.93,4.93,0,0,1-3.83-1.85c-2.1-2.6-1.74-6.95-1.73-7.14l0-.21.17-.11c5.65-3.78,11.7.39,11.76.43l.19.14v.24c0,.09-.34,8.5-6.33,8.5Zm-4.78-8.69c0,.87-.08,4.25,1.54,6.27a4.21,4.21,0,0,0,3.26,1.56c4.94.19,5.65-6,5.74-7.42C58.25,22.41,53.35,19.69,48.73,22.64Z"/><path class="cls-39" d="M53.54,30.9h.23c5.52,0,5.83-7.76,5.83-7.84v-.22l-.18-.13s-5.62-3.88-10.83-.4l-.15.1,0,.2c0,.17-.34,4.18,1.59,6.58A4.54,4.54,0,0,0,53.54,30.9Zm0-.43a4.21,4.21,0,0,1-3.26-1.56c-1.62-2-1.58-5.4-1.54-6.27,4.62-2.95,9.52-.23,10.54.41C59.18,24.42,58.47,30.66,53.53,30.47Z"/><path class="cls-25" d="M44.59,22s-5.48-4.58-11.26-1.37c0,0-1.42,8.21,4.44,8.91S44.59,22,44.59,22Z"/><path class="cls-25" d="M36.51,19.58l2.5,10a5.73,5.73,0,0,1-1.24,0l-.49-.08L34.75,20A8.85,8.85,0,0,1,36.51,19.58Z"/><path class="cls-25" d="M40.59,20l1.9,7.55a5.63,5.63,0,0,1-1.39,1.32l-2.48-9.27A11.64,11.64,0,0,1,40.59,20Z"/><path class="cls-25" d="M33.21,21.79a10.75,10.75,0,0,1,.12-1.14C39.11,17.44,44.59,22,44.59,22s-.07.55-.26,1.35A10.42,10.42,0,0,1,33.21,21.79Z"/><path class="cls-8" d="M37.72,30a5,5,0,0,1-3.66-2.16c-1.87-2.77-1.15-7.08-1.12-7.26l0-.21.18-.1c5.94-3.29,11.62,1.37,11.68,1.42l.18.14,0,.25c0,.08-1,8.44-7,7.94Zm-4-9.06c-.12.87-.44,4.23,1,6.38a4.17,4.17,0,0,0,3.12,1.82c4.9.61,6.13-5.56,6.34-6.91C43.19,21.5,38.54,18.38,33.69,20.93Z"/><path class="cls-39" d="M37.8,29.57l.22,0c5.5.46,6.45-7.25,6.46-7.32l0-.23-.16-.13c-.06-.05-5.29-4.34-10.76-1.31l-.17.09,0,.2c0,.17-.69,4.14,1,6.68A4.54,4.54,0,0,0,37.8,29.57Zm0-.44a4.17,4.17,0,0,1-3.12-1.82c-1.45-2.15-1.13-5.51-1-6.38,4.85-2.55,9.5.57,10.47,1.29C44,23.57,42.72,29.74,37.82,29.13Z"/><path class="cls-38" d="M54.58,18.45c.06.1.42,0,.75.09a1.76,1.76,0,0,1,.59.21,1.78,1.78,0,0,1,.57.25c.29.17.5.48.61.44s.07-.47-.2-.84a2.06,2.06,0,0,0-.43-.45L56.22,18a1.6,1.6,0,0,0-.29-.06,2,2,0,0,0-.63,0C54.85,18.06,54.52,18.36,54.58,18.45Z"/><path class="cls-38" d="M39,17.27c.08.08.42-.11.75-.22a1.54,1.54,0,0,1,.61-.11.5.5,0,0,1,.16,0,1,1,0,0,1,.39,0,1.1,1.1,0,0,1,.38.17c.1.07.17.14.23.13s.08-.13,0-.3a1,1,0,0,0-.4-.51,1.44,1.44,0,0,0-.61-.25,1.42,1.42,0,0,0-.31,0,2,2,0,0,0-.28.1,2.1,2.1,0,0,0-.51.33C39.09,16.84,38.89,17.19,39,17.27Z"/><path class="cls-40" d="M65.14,9.57a4.84,4.84,0,0,0-.8-.71,4.48,4.48,0,0,0-.9-.56,2.92,2.92,0,0,0-.7-.22c-.19,0-.33,0-.33,0s.12-.07.34-.08a2.55,2.55,0,0,1,.76.15,4.6,4.6,0,0,1,1,.52,4.13,4.13,0,0,1,.78.81,2.55,2.55,0,0,1,.51,1S65.5,10,65.14,9.57Zm-.7,2.17.21.47a8.08,8.08,0,0,1,.43,1.51,6.84,6.84,0,0,1,.09,1.58c0,.43-.07.72,0,.72a.62.62,0,0,0,.06-.19,3.63,3.63,0,0,0,.09-.52,6.24,6.24,0,0,0,0-1.62,8.18,8.18,0,0,0-.39-1.57l-.2-.5-.09-.18s-.13-.26-.37-.64a7.79,7.79,0,0,0-1-1.24,4.88,4.88,0,0,0-1.32-.92,1.1,1.1,0,0,0-.72-.13,2.55,2.55,0,0,1,.68.22A5.59,5.59,0,0,1,63,9.7a7.55,7.55,0,0,1,1,1.24,6.74,6.74,0,0,1,.34.62Zm-3.15-1.52a2.64,2.64,0,0,0-.42-.46,1.22,1.22,0,0,0-.54-.32s.21.23.4.45a4.47,4.47,0,0,1,.34.48,3.53,3.53,0,0,1,.3.5c.14.26.22.55.25.55a1.08,1.08,0,0,0-.07-.62A2.88,2.88,0,0,0,61.29,10.22Zm-3-5a8.48,8.48,0,0,1,1,1.4c.22.41.33.7.35.7a.68.68,0,0,0,0-.22,4.7,4.7,0,0,0-.21-.53,7.47,7.47,0,0,0-.91-1.47,9.6,9.6,0,0,0-1.22-1.24c-.36-.3-.62-.48-.62-.48s-.27-.18-.68-.41a12.1,12.1,0,0,0-1.56-.74,15.35,15.35,0,0,0-1.65-.53,4,4,0,0,0-.76-.15,4.91,4.91,0,0,0,.73.25c.45.15,1,.36,1.6.61a14.2,14.2,0,0,1,1.52.77c.39.24.64.42.64.42A9.28,9.28,0,0,1,58.25,5.21ZM57.61,7a3.25,3.25,0,0,1,.48.42c.22.24.38.52.42.51a1.35,1.35,0,0,0-.27-.63,2.94,2.94,0,0,0-.46-.51,2.76,2.76,0,0,0-.6-.33,1.27,1.27,0,0,0-.67-.13s.31.13.59.3A3.25,3.25,0,0,1,57.61,7ZM44.38,12.55l.29.09c.19,0,.46.13.79.18a14.76,14.76,0,0,0,2.42.24,16,16,0,0,0,2.44-.15c.33,0,.6-.11.79-.14l.31,0,.29-.08c.19-.05.46-.1.78-.21a17.27,17.27,0,0,0,2.28-.89,15.39,15.39,0,0,0,2.09-1.24,6.79,6.79,0,0,0,.64-.49,1.59,1.59,0,0,0,.23-.2s-.37.25-.93.6a16.17,16.17,0,0,1-2.12,1.16,17.26,17.26,0,0,1-2.26.82c-.31.1-.59.15-.77.2l-.29.07-.3.06c-.19,0-.45.1-.78.14a17.57,17.57,0,0,1-2.4.21,17,17,0,0,1-2.41-.16C44.82,12.62,44.39,12.53,44.38,12.55Zm-1.86-6a3.23,3.23,0,0,0,.67-.2,4.73,4.73,0,0,0-.69.09c-.41.07-1,.15-1.49.19a10.4,10.4,0,0,1-1.5,0,6.3,6.3,0,0,1-.67-.1,6,6,0,0,1-.65-.15,5.72,5.72,0,0,1-1.36-.59,4.8,4.8,0,0,1-1.12-1c-.26-.32-.39-.57-.41-.56s0,.07.07.18a2.24,2.24,0,0,0,.26.44,4.17,4.17,0,0,0,1.1,1.07,5.78,5.78,0,0,0,1.38.67,6.29,6.29,0,0,0,.68.18s.28,0,.7.08a9,9,0,0,0,1.53,0A13.32,13.32,0,0,0,42.52,6.51ZM41,9.45a14.19,14.19,0,0,0,1.79,0,4.25,4.25,0,0,0,.81-.12,7.3,7.3,0,0,0-.81,0c-.49,0-1.13,0-1.78,0A12.19,12.19,0,0,1,39.23,9a5.41,5.41,0,0,1-.76-.23,3.81,3.81,0,0,1-.72-.32A4,4,0,0,1,36.49,7.3a8.76,8.76,0,0,1-.86-1.54A6.43,6.43,0,0,0,35.29,5a3.58,3.58,0,0,0,.25.77,7.89,7.89,0,0,0,.79,1.61,4.11,4.11,0,0,0,1.3,1.27,3.82,3.82,0,0,0,.75.36,5.46,5.46,0,0,0,.8.22A10.91,10.91,0,0,0,41,9.45Zm7.18-7a3.81,3.81,0,0,0-.67.42l-.66.44-.64.46a3.15,3.15,0,0,0-.63.49A2.67,2.67,0,0,0,46.27,4c.36-.19.69-.41.69-.41s.32-.24.62-.5S48.17,2.5,48.14,2.47ZM36.89,10.91a16.6,16.6,0,0,0,2,1.14,12.12,12.12,0,0,0,1.48.6,3,3,0,0,0,.71.19,6.77,6.77,0,0,0-.67-.29A15.7,15.7,0,0,1,39,11.88a18.33,18.33,0,0,1-2-1.2,12.63,12.63,0,0,1-1.82-1.4,7.42,7.42,0,0,1-1-1.2c-.24-.36-.37-.62-.39-.61a2.68,2.68,0,0,0,.3.66,6.16,6.16,0,0,0,1,1.28,10,10,0,0,0,1.21,1.07C36.65,10.75,36.89,10.91,36.89,10.91Zm-.8,2.23a2.14,2.14,0,0,0,.86.22c.24,0,.4,0,.39-.06a3,3,0,0,0-.38,0,2.5,2.5,0,0,1-.78-.29,3.2,3.2,0,0,1-.64-.52l-.25-.29s-.1-.11-.24-.29-.34-.43-.51-.68c-.35-.51-.65-1.07-.68-1a4.74,4.74,0,0,0,.52,1.15,7.18,7.18,0,0,0,.47.73c.13.19.24.32.24.32a2.93,2.93,0,0,0,.28.28A3,3,0,0,0,36.09,13.14Zm23.76-2.53a14.66,14.66,0,0,0,.06,2,14.57,14.57,0,0,0,.37,2c.06.28.14.5.18.65l.07.25.1.24c.06.15.13.37.24.63a16.65,16.65,0,0,0,.93,1.82A15.42,15.42,0,0,0,63,19.91c.18.22.35.38.46.5a1.33,1.33,0,0,0,.18.17,7.5,7.5,0,0,0-.55-.74,14.95,14.95,0,0,1-2-3.51c-.1-.25-.17-.47-.23-.62l-.08-.24-.08-.24c0-.15-.12-.37-.19-.63a15.23,15.23,0,0,1-.42-2,17.6,17.6,0,0,1-.14-2,6.28,6.28,0,0,0,0-.92,1.08,1.08,0,0,0,0,.25C59.9,10.1,59.86,10.33,59.85,10.61Zm6.6,7.94c-.39.61-.9,1.13-.88,1.15a4.25,4.25,0,0,0,1-1,6.67,6.67,0,0,0,.74-1.28A7.15,7.15,0,0,0,67.73,16a4.63,4.63,0,0,0,0-1.47s0,.73-.2,1.43a7.29,7.29,0,0,1-.45,1.36A7.42,7.42,0,0,1,66.45,18.55ZM63.9,21a3.1,3.1,0,0,0,.45-.57,3.25,3.25,0,0,0,.23-.68,1.32,1.32,0,0,0,0-.72s-.08.35-.19.67a3.16,3.16,0,0,1-.29.6,3,3,0,0,1-.35.57c-.2.28-.47.5-.45.53A1.4,1.4,0,0,0,63.9,21Zm-1.6-1A2.23,2.23,0,0,0,62.2,21a3.69,3.69,0,0,0,.33,1.07,3.62,3.62,0,0,0,.71.88,2.29,2.29,0,0,0,1,.52,8.19,8.19,0,0,1-.84-.66,3.77,3.77,0,0,1-.61-.86,3.73,3.73,0,0,1-.38-1A9.31,9.31,0,0,1,62.3,19.93ZM35.09,15.66a2,2,0,0,0,.67.39,1.58,1.58,0,0,0,.76.06c.21-.05.32-.13.31-.14s-.13,0-.32,0a1.62,1.62,0,0,1-.68-.14,1.9,1.9,0,0,1-.56-.39,2,2,0,0,1-.21-.24s-.08-.09-.2-.25a5.41,5.41,0,0,1-.36-.62,6.65,6.65,0,0,1-.33-.64c-.07-.18-.07-.31-.09-.32s-.06.14,0,.35a5.37,5.37,0,0,0,.25.69,7,7,0,0,0,.33.67,2.17,2.17,0,0,0,.44.54Zm-1.16.88a2.13,2.13,0,0,0,.28.43,1.1,1.1,0,0,0,.17.17,1.83,1.83,0,0,0,.21.13,1.4,1.4,0,0,0,.5.14,1.16,1.16,0,0,0,.52-.09.19.19,0,0,0,.12-.15c0-.05,0-.06,0-.05s0,0,0,0a.13.13,0,0,1-.1.06,1.13,1.13,0,0,1-.45,0,1.3,1.3,0,0,1-.41-.17l-.16-.12-.16-.13a2.24,2.24,0,0,1-.3-.35c-.19-.29-.33-.62-.37-.6A1.54,1.54,0,0,0,33.93,16.54Z"/><path class="cls-41" d="M56,3.54l-.06-.06Zm-.25,9.58a20,20,0,0,0,4-2.42s0,.72.17,1.76a1.36,1.36,0,0,1,.54-.85c1.08-.58,2.23,1.94,2.23,1.94s-.51-2.08.14-2.44,2.52,2.8,2.52,2.8-1.23-3.52-.87-3.88,2,1.44,2,1.44-1.44-2.52-1-2.81c.28-.18,1.27.4,1.94.85-1.37-1.9-3.62-2.76-6.37-2.69a17.8,17.8,0,0,0-1.56-1.93c0,.11.07.21.09.32.54,2-3.09-1.21-3.6-1.67a13.08,13.08,0,0,1,1.88,2.1c.65,1-4.6-.65-4.6-.65a12.33,12.33,0,0,1,3.45,2.09c1.65,1.44-1.3,4-1.3,4s1.59-1.37,2.74-.72C58.87,10.79,57.13,12.16,55.73,13.12Zm-21.13-.8-.18.37.23.21c.65.65.43,4.53-.16,5.34a.47.47,0,0,1-.39.18,16.66,16.66,0,0,1,.57,2c.11-.27.24-.61.4-1,.5-1.85,1.5-5.17,2.44-6.41a22.61,22.61,0,0,0,4.78,1.47l2.07.22s-5.83-3-5.29-4.09S44.47,9,44.47,9s-4-.54-3.78-1a16.82,16.82,0,0,1,3.84-2.09c-.86.13-2.74.23-3.3-.33-.39-.39.15-1.33.76-2.16-1.36,1.18-2.38,2.18-3.55,2C35.79,5,35,4.1,35,4.1s-.13,2.83,1.19,3.77a11.42,11.42,0,0,1-2.91-1.21A10,10,0,0,0,34.6,12.32Zm25.77,2.86c.77.82,3.07,3.17,4.05,3.17,1.19,0,3.4-3.29,3.4-3.29s-.7,2.48,0,2.37c.44-.06.8-1.44,1-2.44a7.28,7.28,0,0,1-3.06,5.8c-2.05.92-1.78,4.6-3,3.66s-.39-4.72-.39-4.72C61.4,18.84,60.77,17,60.37,15.18Z"/><g class="cls-42"><path class="cls-38" d="M67,9.74c.81,1,1.79,2.53,1.43,3.88a.25.25,0,0,1-.45.06A13.11,13.11,0,0,1,67.33,12a9,9,0,0,0-.94-1.82c-.25-.36.33-.81.6-.47Z"/><path class="cls-38" d="M66.29,11.63a2.55,2.55,0,0,1,1.11,1.74c.12.64.07,1.75-.73,1.93-1.44.33-1.35-2.53-1.19-3.34a.56.56,0,0,1,.81-.33Z"/><path class="cls-38" d="M63.59,12.16c.5.23.81,1.09.94,1.6a3.67,3.67,0,0,1-.15,2.15.2.2,0,0,1-.39,0c-.15-.65-.33-1.29-.43-1.95a4.28,4.28,0,0,1-.15-1.73.12.12,0,0,1,.18-.07Z"/><path class="cls-38" d="M61.47,12.72s0,.26,0,.32,0,.37,0,.56a3.78,3.78,0,0,1-.08,1c0,.19-.32.21-.41,0a9,9,0,0,1-.62-1.9l.25.32L60.58,13a.66.66,0,0,1,.16-1.19c.5-.14,1.08.48.73,1Z"/><path class="cls-38" d="M56.25,5.7c-1.11,0-2.09-.62-3.13-1a10.69,10.69,0,0,0-3.6-.44.58.58,0,0,1-.4-1C51,1.27,55.66,2.2,56.9,4.57a.76.76,0,0,1-.65,1.13Z"/><path class="cls-38" d="M47.25,1.82a6,6,0,0,0-1,.63,4.05,4.05,0,0,1-.94.6c-.26.09-.4-.21-.32-.41.34-.78,1.43-1,2.17-1a.08.08,0,0,1,0,.15Z"/><path class="cls-38" d="M56.63,11.53c-2,2-5.67,3-8.48,3.07-.2,0-.25-.32,0-.35a24.77,24.77,0,0,0,4.08-1c1.48-.55,2.79-1.41,4.23-2,.17-.07.37.13.22.29Z"/><path class="cls-38" d="M56.32,9.15c-2.49,2.92-9.66,3.78-12.9,1.95a.41.41,0,0,1,.09-.74c2.18-.39,4.37-.06,6.55-.45,2-.37,3.89-1.44,5.88-1.65.5-.06.64.59.38.89Z"/><path class="cls-38" d="M41.39,11a1.62,1.62,0,0,0-.49-.08.8.8,0,0,1-.51-.07.29.29,0,0,1-.06-.45c.32-.31.93-.06,1.27.12a.27.27,0,0,1-.21.48Z"/><path class="cls-38" d="M51.36,6.87a6.2,6.2,0,0,1-1.49.18,15.65,15.65,0,0,0-2.52.6,6.88,6.88,0,0,1-3.82.41.6.6,0,0,1-.35-.87c1-1.54,2.93-1.82,4.64-2,1.25-.14,3.45-.47,3.85,1.14a.46.46,0,0,1-.31.55Z"/><path class="cls-38" d="M42.25,7.89a1.26,1.26,0,0,1-.46.16A2.51,2.51,0,0,1,41.34,8c-.16,0-.16-.25,0-.33a1.69,1.69,0,0,1,.36-.23,1.14,1.14,0,0,1,.45,0c.26,0,.41.41.14.53Z"/></g><path class="cls-4" d="M52.33,40.72l-.11,0c.22.06-.41,1.64-.53,1.84a4.67,4.67,0,0,1-1.28,1.34,4.38,4.38,0,0,1-3.56.78,3.52,3.52,0,0,1-2-1.25,4,4,0,0,1-.58-2.72,12.88,12.88,0,0,0-2.41,4c-.44,1.31.15,5.21,2.14,4.23,1-.5,2-2.43,2.71-3.44,0,0,2.38,4.23,3.18,4.32,1.5.16,2.81-2,3.33-3.07.86-1.8,1-4.08-.47-5.6A1.93,1.93,0,0,0,52.33,40.72Z"/><path class="cls-3" d="M52.47,39.93l-.1,0c.21.07-.41,1.65-.53,1.85a4.57,4.57,0,0,1-1.29,1.34,4.37,4.37,0,0,1-3.56.77,3.48,3.48,0,0,1-2-1.24,4,4,0,0,1-.58-2.72,12.88,12.88,0,0,0-2.41,4c-.44,1.3.16,5.2,2.14,4.23,1-.5,2-2.43,2.72-3.45,0,0,2.38,4.24,3.18,4.33,1.49.16,2.8-2,3.33-3.07.86-1.81,1-4.08-.48-5.6A1.93,1.93,0,0,0,52.47,39.93Z"/><path class="cls-4" d="M50.06,47.76c2.56-.57,1.7-4.7,1.7-4.7s-1.27,2.39-4.91,1.27-2.56-3.84-2.46-4.45A4,4,0,0,0,45,42.6a3.48,3.48,0,0,0,2,1.24,4.37,4.37,0,0,0,3.56-.77,4.57,4.57,0,0,0,1.29-1.34c.12-.2.74-1.78.53-1.85l.1,0a1.93,1.93,0,0,1,.4.35c1.52,1.52,1.34,3.79.48,5.6C52.82,47,51.51,49.11,50,49c-.29,0-.78-.6-1.29-1.31A2.08,2.08,0,0,0,50.06,47.76Z"/><path class="cls-4" d="M46.84,44.62c-.75,1-1.71,3-2.72,3.45-1.68.83-2.37-1.87-2.26-3.5A6.58,6.58,0,0,0,43,47.28C44,48.38,46.84,44.62,46.84,44.62Z"/><path class="cls-39" d="M42.85,30.45a8.5,8.5,0,0,1,6.19.73s.61,2.85-3.27,2.55S42.85,30.45,42.85,30.45Z"/><path class="cls-3" d="M45.83,31.76A4.74,4.74,0,0,0,49,31.1a9.24,9.24,0,0,0-5.78-.79C43.2,30.61,43.24,31.56,45.83,31.76Z"/><path class="cls-43" d="M48.76,32.73a5.71,5.71,0,0,0-2.14-.37,4.09,4.09,0,0,0-2.81.81,4.24,4.24,0,0,0,2,.56C47.55,33.87,48.38,33.34,48.76,32.73Z"/><path class="cls-4" d="M49,31.1a9.24,9.24,0,0,0-5.78-.79.76.76,0,0,0,.18.64c0-.31.27-.77,2-.65,2,.15,2.43.91,2.22,1.37A3.65,3.65,0,0,0,49,31.1Z"/><path class="cls-44" d="M46.22,33.21c-1.53,0-1.69-.29-1.6-.54a2.21,2.21,0,0,0-.81.5,4.24,4.24,0,0,0,2,.56c1.78.14,2.61-.39,3-1a5.16,5.16,0,0,0-1.22-.31C47.94,32.75,47.91,33.19,46.22,33.21Z"/><path class="cls-28" d="M49.93,31.29A18.11,18.11,0,0,1,48,30.7a9.19,9.19,0,0,0-1.93-.38,10.47,10.47,0,0,0-2-.05c-1,.06-2,.24-2,.17a7,7,0,0,1,2-.5,9.67,9.67,0,0,1,2.05-.09s.26,0,.64.11a10.1,10.1,0,0,1,1.35.42A8.38,8.38,0,0,1,49.93,31.29Z"/><path class="cls-28" d="M45.7,35.62c0,.07-.27.12-.52,0a1,1,0,0,1-.41-.39,1.07,1.07,0,0,1,0-.57c.08-.28.31-.44.35-.39s0,.24,0,.44a2.25,2.25,0,0,0,.27.64C45.5,35.48,45.7,35.56,45.7,35.62Z"/><path class="cls-8" d="M25,61.71c-.35,1.53-2.18,2.3-4.09,1.71S17.69,61.11,18,59.58s2.18-2.3,4.09-1.71S25.31,60.18,25,61.71Z"/><path class="cls-24" d="M25,61.71c-.35,1.53-2.18,2.3-4.09,1.71S17.69,61.11,18,59.58s2.18-2.3,4.09-1.71S25.31,60.18,25,61.71Z"/><path class="cls-24" d="M21.44,61.35a4,4,0,0,1-2.82-2.82,2.18,2.18,0,0,0-.58,1c-.35,1.53.92,3.25,2.83,3.84s3.74-.18,4.09-1.71a2.51,2.51,0,0,0,0-1A3.45,3.45,0,0,1,21.44,61.35Z"/><path class="cls-8" d="M16.43,68.1c-.3,0-.57-.27-.66-.69-.58-2.69-1.35-7.39-.13-8.67s3.63,0,4.09.23a1.14,1.14,0,0,1,.37,1.28c-.14.49-.55.73-.91.52-.85-.5-2.27-.94-2.72-.47-.28.52,0,3.66.63,6.55a1.07,1.07,0,0,1-.47,1.21A.48.48,0,0,1,16.43,68.1Z"/><path class="cls-45" d="M19.73,59a7.34,7.34,0,0,0-.76-.38c.29.33.49.69.39.95-.25.66-2.1-.3-2.8-.22s-.57,4.28-.95,4.8c-.14.19-.31-.11-.48-.55.15,1.37.41,2.76.64,3.84.09.42.36.69.66.69a.48.48,0,0,0,.2,0,1.07,1.07,0,0,0,.47-1.21c-.62-2.89-.91-6-.63-6.55.45-.47,1.87,0,2.72.47.36.21.77,0,.91-.52A1.14,1.14,0,0,0,19.73,59Z"/><path class="cls-8" d="M33,61.71c-.35,1.53-2.18,2.3-4.09,1.71s-3.17-2.31-2.82-3.84,2.18-2.3,4.09-1.71S33.38,60.18,33,61.71Z"/><path class="cls-24" d="M33,61.71c-.35,1.53-2.18,2.3-4.09,1.71s-3.17-2.31-2.82-3.84,2.18-2.3,4.09-1.71S33.38,60.18,33,61.71Z"/><path class="cls-24" d="M29.51,61.35a4,4,0,0,1-2.82-2.82,2.16,2.16,0,0,0-.57,1c-.35,1.53.91,3.25,2.82,3.84s3.74-.18,4.09-1.71a2.34,2.34,0,0,0,0-1A3.48,3.48,0,0,1,29.51,61.35Z"/><path class="cls-8" d="M24.51,68.1a.77.77,0,0,1-.67-.69c-.57-2.69-1.35-7.39-.13-8.67s3.64,0,4.1.23a1.15,1.15,0,0,1,.37,1.28c-.15.49-.56.73-.91.52-.85-.5-2.27-.94-2.73-.47-.27.52,0,3.66.63,6.55a1.07,1.07,0,0,1-.47,1.21A.43.43,0,0,1,24.51,68.1Z"/><path class="cls-45" d="M27.81,59c-.13-.07-.41-.23-.76-.38.28.33.49.69.39.95-.26.66-2.1-.3-2.8-.22s-.57,4.28-.95,4.8c-.14.19-.32-.11-.49-.55.15,1.37.41,2.76.64,3.84a.77.77,0,0,0,.67.69.43.43,0,0,0,.19,0,1.07,1.07,0,0,0,.47-1.21c-.61-2.89-.9-6-.63-6.55.46-.47,1.88,0,2.73.47.35.21.76,0,.91-.52A1.15,1.15,0,0,0,27.81,59Z"/><path class="cls-8" d="M41.11,61.71c-.35,1.53-2.18,2.3-4.09,1.71s-3.18-2.31-2.83-3.84,2.18-2.3,4.09-1.71S41.46,60.18,41.11,61.71Z"/><path class="cls-24" d="M41.11,61.71c-.35,1.53-2.18,2.3-4.09,1.71s-3.18-2.31-2.83-3.84,2.18-2.3,4.09-1.71S41.46,60.18,41.11,61.71Z"/><path class="cls-24" d="M37.59,61.35a4,4,0,0,1-2.82-2.82,2.18,2.18,0,0,0-.58,1c-.35,1.53.92,3.25,2.83,3.84s3.74-.18,4.09-1.71a2.51,2.51,0,0,0,0-1A3.45,3.45,0,0,1,37.59,61.35Z"/><path class="cls-8" d="M32.58,68.1c-.3,0-.57-.27-.67-.69-.57-2.69-1.34-7.39-.12-8.67s3.63,0,4.09.23a1.14,1.14,0,0,1,.37,1.28c-.14.49-.55.73-.91.52-.85-.5-2.27-.94-2.72-.47-.28.52,0,3.66.63,6.55a1.07,1.07,0,0,1-.47,1.21A.48.48,0,0,1,32.58,68.1Z"/><path class="cls-45" d="M35.88,59a7.34,7.34,0,0,0-.76-.38c.29.33.49.69.39.95-.25.66-2.1-.3-2.8-.22s-.57,4.28-.95,4.8c-.14.19-.31-.11-.48-.55.15,1.37.41,2.76.63,3.84.1.42.37.69.67.69a.48.48,0,0,0,.2,0,1.07,1.07,0,0,0,.47-1.21c-.62-2.89-.91-6-.63-6.55.45-.47,1.87,0,2.72.47.36.21.77,0,.91-.52A1.14,1.14,0,0,0,35.88,59Z"/><polygon class="cls-8" points="9.89 166.67 44.81 166.67 47.2 68.77 7.5 68.77 9.89 166.67"/><polygon class="cls-46" points="34.79 68.77 47.2 68.77 44.81 166.67 34.79 166.67 34.79 68.77"/><polygon class="cls-47" points="34.79 166.67 34.04 166.67 9.17 136.93 8.75 120.04 34.79 151.46 34.79 166.67"/><polygon class="cls-47" points="34.79 110.98 34.79 127.1 8.15 95.24 7.73 78.33 34.79 110.98"/><path class="cls-46" d="M44.81,166.67h-10V68.94l.6.62c0,.67,2.07,60.87,9.79,82.32Z"/><polygon class="cls-46" points="47.11 72.45 7.59 72.45 7.5 68.77 47.2 68.77 47.11 72.45"/><rect class="cls-8" x="4.67" y="66.98" width="45.37" height="4.48"/><rect class="cls-46" x="4.67" y="69.36" width="45.37" height="2.09"/><path class="cls-27" d="M43.84,63.28A6.1,6.1,0,0,1,40.36,61s-2,1-2.7-.77-.44-2.88.83-3.51c0,0,0-1.46,1.17-1.62a1.8,1.8,0,0,1,1.59-1.67s-4.78-4.55-4.09-5.15,4.2,2.56,6.41,4.51,4.68,5.79,4.75,7S43.84,63.28,43.84,63.28Z"/><path class="cls-28" d="M39.8,59.85a2.32,2.32,0,0,1,.59.84,2.22,2.22,0,0,1,.13.4s-.45-.46-1-1-1-.92-1-.92a2.48,2.48,0,0,1,.42.1A2.57,2.57,0,0,1,39.8,59.85Z"/><path class="cls-28" d="M38.93,59.88a.65.65,0,0,1,.46,0,.65.65,0,0,1-.29.36.6.6,0,0,1-.45,0A.58.58,0,0,1,38.93,59.88Z"/><path class="cls-28" d="M39,56.61a.81.81,0,0,1,.6.54l-.23,0-.45-.1-.46-.1-.23,0A.78.78,0,0,1,39,56.61Z"/><path class="cls-28" d="M40.48,54.91a.92.92,0,0,1,.68.67l-.24-.11c-.15-.06-.34-.12-.55-.18a5.07,5.07,0,0,0-.55-.12l-.27,0A.94.94,0,0,1,40.48,54.91Z"/><path class="cls-28" d="M42,53.48a3,3,0,0,1,.79.72,3.07,3.07,0,0,1-1-.37,2.48,2.48,0,0,0-.58-.3.53.53,0,0,0-.29,0,.46.46,0,0,1,.28-.19A1.11,1.11,0,0,1,42,53.48Z"/><g class="cls-48"><path class="cls-49" d="M46,58.81c-1.19,2-4.42,1.57-6.18.52a6.3,6.3,0,0,1-2.08-2.06c-.58.67-.6,1.63-.08,3,.68,1.75,2.7.77,2.7.77a6.1,6.1,0,0,0,3.48,2.28S48.39,61,48.32,59.8c0-.93-1.5-3.37-3.16-5.35C46,56.27,46.48,58,46,58.81Z"/><path class="cls-49" d="M42.52,53.85S39,50.09,37.44,48.22a.42.42,0,0,0-.28.06c-.69.6,4.09,5.15,4.09,5.15l-.12,0C41.79,53.62,42.52,53.85,42.52,53.85Z"/></g><path class="cls-3" d="M62.4,45.12s2.6-3.63,6.31,4.47c3.11,6.8,2.72,27.52-3,31.64S42.94,64.77,42.94,64.77s.2-4.07,6.21-5.92L62,72.29C63.33,72.88,58.25,52.89,62.4,45.12Z"/><g class="cls-5"><path class="cls-6" d="M63.07,74.07a5.78,5.78,0,0,1,.09,2.23,11.54,11.54,0,0,0-.3-2.18,4.12,4.12,0,0,0-.53-1.43,1.75,1.75,0,0,0-.44-.46,1.39,1.39,0,0,1,.52.39A3.16,3.16,0,0,1,63.07,74.07Z"/><path class="cls-6" d="M63.52,73.61A4,4,0,0,1,64,75.22a9.89,9.89,0,0,0-.66-1.5,2.55,2.55,0,0,0-.66-.91.69.69,0,0,0-.44-.15.74.74,0,0,1,.5.06A2,2,0,0,1,63.52,73.61Z"/></g><path class="cls-4" d="M68.71,49.59c-3.71-8.1-6.31-4.47-6.31-4.47-.15.29-.29.6-.42.92a4.8,4.8,0,0,1,2.22.49c4.47,2,5.75,24.1,2.71,25.74-1.89,1-3.79-1.56-5-3.66.29,2.37.43,3.85.06,3.68l-1.7-1.77c.42,1.58,1.28,4.83-.11,5.8-1.79,1.24-8.52-4.21-12.28-9.35-2.69-3.69-.47-6.59.91-8-5.68,1.9-5.89,5.81-5.89,5.81S60,85.35,65.7,81.23,71.82,56.39,68.71,49.59Z"/></g></g></g></svg>