<svg xmlns="http://www.w3.org/2000/svg" viewBox="0 0 104.52 174.28"><defs><style>.cls-1{isolation:isolate;}.cls-2{fill:#d4ecd4;}.cls-10,.cls-11,.cls-13,.cls-16,.cls-17,.cls-19,.cls-2,.cls-21,.cls-23,.cls-24,.cls-26,.cls-28,.cls-29,.cls-31,.cls-35,.cls-39,.cls-41,.cls-44,.cls-46,.cls-47,.cls-48,.cls-49,.cls-8{mix-blend-mode:multiply;}.cls-24,.cls-25,.cls-3,.cls-39{fill:#3c1d91;}.cls-4,.cls-6,.cls-8{fill:#212f47;}.cls-12,.cls-15,.cls-22,.cls-25,.cls-32,.cls-33,.cls-36,.cls-37,.cls-4,.cls-40,.cls-42,.cls-5{mix-blend-mode:screen;}.cls-24,.cls-28,.cls-7,.cls-8{opacity:0.45;}.cls-10,.cls-11,.cls-12,.cls-9{fill:#88ac76;}.cls-10,.cls-13,.cls-16,.cls-17{opacity:0.34;}.cls-11,.cls-19,.cls-21,.cls-32,.cls-41,.cls-44{opacity:0.5;}.cls-13,.cls-22{fill:#294168;}.cls-14,.cls-15,.cls-16{fill:#717982;}.cls-18{fill:#fff;}.cls-20,.cls-21,.cls-23{fill:#d3dbfd;}.cls-22,.cls-49{opacity:0.6;}.cls-27,.cls-28,.cls-31,.cls-33{fill:#ebd0a6;}.cls-29{fill:#e28c89;}.cls-29,.cls-35{opacity:0.25;}.cls-30{fill:#de9168;}.cls-31{opacity:0.62;}.cls-34,.cls-35,.cls-36{fill:#6f3a1e;}.cls-37{fill:#f8e9d0;}.cls-38,.cls-40,.cls-41{fill:#a95913;}.cls-42{opacity:0.35;}.cls-43,.cls-44,.cls-49{fill:#f15e6b;}.cls-45{fill:#e5e5ff;}.cls-46,.cls-47{fill:#5766be;}.cls-46{opacity:0.2;}.cls-47,.cls-48{opacity:0.1;}.cls-48{fill:#501214;}</style></defs><title>full_outРесурс 4</title><g class="cls-1"><g id="Слой_2" data-name="Слой 2"><g id="OBJECTS"><ellipse class="cls-2" cx="61.67" cy="165.68" rx="42.85" ry="8.61"/><path class="cls-3" d="M93.43,130.78s.18,11.23,4.9,11.54-2.78-16.61-2.78-16.61l-4.55.75Z"/><path class="cls-4" d="M98.06,142.28a1.26,1.26,0,0,0,.27,0c4.73.31-2.78-16.61-2.78-16.61l-1.13.19C94.48,126,100.82,140.36,98.06,142.28Z"/><path class="cls-4" d="M94.5,134.41a2.58,2.58,0,0,1,.57-.33c.31-.13.67-.16.68-.2a1.25,1.25,0,0,0-.76,0,2.8,2.8,0,0,0-.71.29,2.3,2.3,0,0,0-.5.53h0c0,.1,0,.21,0,.31a2.61,2.61,0,0,1,.17-.2A2.36,2.36,0,0,1,94.5,134.41Z"/><path class="cls-4" d="M93.94,133.57a2.17,2.17,0,0,1,.46-.43,2.44,2.44,0,0,1,.55-.33c.31-.12.67-.13.68-.17a1.09,1.09,0,0,0-.75,0,2.34,2.34,0,0,0-.71.31,1.78,1.78,0,0,0-.46.56,1.34,1.34,0,0,0-.07.18c0,.13,0,.26,0,.39A1.82,1.82,0,0,1,93.94,133.57Z"/><path class="cls-4" d="M93.8,132a1.89,1.89,0,0,1,.45-.38c.25-.16.57-.22.58-.26s-.36-.07-.7.07a2.11,2.11,0,0,0-.6.37l0,.06,0,.48A1.82,1.82,0,0,1,93.8,132Z"/><path class="cls-4" d="M96,128a51.19,51.19,0,0,1,2.7,9.59c.52,3.05.27,4.27,0,4.77a1.36,1.36,0,0,0,1.1-1.19C99.62,136.51,96,128,96,128Z"/><g class="cls-5"><path class="cls-6" d="M95.28,138.11s.18.5.45.95a5.78,5.78,0,0,0,.59.86,9,9,0,0,0,.69.79c.37.37.79.7.77.73a3.7,3.7,0,0,1-.9-.59,6.35,6.35,0,0,1-.77-.76,5.9,5.9,0,0,1-.56-.94A2.64,2.64,0,0,1,95.28,138.11Z"/></g><g class="cls-5"><path class="cls-6" d="M94.81,136.75c.08,0,.2.29.2.29s0,.33-.06.35-.2-.29-.2-.29S94.74,136.77,94.81,136.75Z"/></g><g class="cls-7"><path class="cls-8" d="M91,126.46l2.06,3.68c.14-.83.59-2.87,1.58-1.48,1.24,1.72,3.43,9.49,3.25,11.79-.12,1.48-1.09,1.13-1.77.69a3.25,3.25,0,0,0,2,1.16h0l-.1,0c2.76-1.92-3.58-16.25-3.64-16.38Z"/></g><path class="cls-3" d="M35.05,162.92s-10.79-3.12-12.47,1.31,16.7,2.2,16.7,2.2l.61-4.57Z"/><path class="cls-4" d="M22.7,164l-.12.25c-1.67,4.44,16.7,2.2,16.7,2.2l.15-1.13C39.29,165.31,23.74,167.18,22.7,164Z"/><path class="cls-4" d="M31.27,162.88a2.55,2.55,0,0,1,.15.64c0,.34,0,.69,0,.71a1.24,1.24,0,0,0,.22-.72,2.55,2.55,0,0,0-.07-.76,2.19,2.19,0,0,0-.36-.63h0l-.32,0,.15.22A2.28,2.28,0,0,1,31.27,162.88Z"/><path class="cls-4" d="M32.24,162.59a1.9,1.9,0,0,1,.27.57,2.2,2.2,0,0,1,.16.62c0,.34-.07.68,0,.7s.23-.31.26-.71a2.23,2.23,0,0,0-.09-.76,1.83,1.83,0,0,0-.4-.61l-.15-.11-.39-.07A1.6,1.6,0,0,1,32.24,162.59Z"/><path class="cls-4" d="M33.76,162.92a1.72,1.72,0,0,1,.23.53c.08.29,0,.62.09.63a1,1,0,0,0,.13-.68,2,2,0,0,0-.18-.69l0-.06-.47-.11A1.87,1.87,0,0,1,33.76,162.92Z"/><path class="cls-4" d="M37,166.22a51,51,0,0,1-9.95-.23c-3.07-.39-4.17-1-4.56-1.41a1.38,1.38,0,0,0,.82,1.4C27.77,167.16,37,166.22,37,166.22Z"/><g class="cls-5"><path class="cls-6" d="M27.51,162.55s-.54,0-1.05.14a5.51,5.51,0,0,0-1,.33,7.25,7.25,0,0,0-.95.42,9.71,9.71,0,0,1-.93.52,3.76,3.76,0,0,1,.83-.68,7.16,7.16,0,0,1,.95-.52,5.66,5.66,0,0,1,1.06-.26A2.53,2.53,0,0,1,27.51,162.55Z"/></g><g class="cls-5"><path class="cls-6" d="M28.94,162.5c0,.07-.33.1-.33.1s-.32-.08-.32-.16.34-.11.34-.11S29,162.42,28.94,162.5Z"/></g><g class="cls-7"><path class="cls-8" d="M39.89,161.86l-4.11.9c.75.37,2.57,1.4.95,2-2,.67-10.07.49-12.23-.36-1.38-.54-.76-1.36-.14-1.88a3.17,3.17,0,0,0-1.7,1.6h0l0-.1c1,3.2,16.59,1.33,16.73,1.32Z"/></g><path class="cls-9" d="M43.56,88.65c.25,1.71-.57,33,7,39.32S92,133.88,92,133.88a7.23,7.23,0,0,0-.81-8.66s-32.7-.12-34.51-6.43,3.71-31.36-2.14-36S43.56,88.65,43.56,88.65Z"/><path class="cls-10" d="M60,127.72c.68-1.62-.47-2.84-1.69-3.68-.66-.45-1.38-.79-2.07-1.17-2.06-1.12-2.1-2.7-2.59-4.77-.45-1.92-1-3.82-1.49-5.72-1.08-3.91-2.21-7.8-3.36-11.69l-.6-2s.72,1.74,2.19,1.94a11.46,11.46,0,0,0,3.7-.47,11,11,0,0,0,3,2c-.45,7-1.15,13.79-.33,16.67,1.81,6.31,34.51,6.43,34.51,6.43a7.23,7.23,0,0,1,.81,8.66s-23.51.26-35.74-3.29A6,6,0,0,0,60,127.72Z"/><path class="cls-9" d="M59.62,85.82c1,1.71,9.06,9.92,4.44,20.33s-28.39,8.49-23,55.9c0,0-8.26,3.36-8.69-3.29-1.9-28.86,5-44.47,18.09-55.86,1-.88,3.48-2.81,3.48-2.81l-10.65-14S57,81.09,59.62,85.82Z"/><path class="cls-11" d="M44.86,108.24a35.09,35.09,0,0,1,4-3.85,65.79,65.79,0,0,1,5.73-4.84s-2.59,2.14-5.6,5a38.08,38.08,0,0,0-3.81,3.72c-.23.3-.45.56-.66.79l0-.35Zm.87-12.37a11.31,11.31,0,0,0,.19-3.27,9.84,9.84,0,0,0-.19-1.34,13.25,13.25,0,0,1,.09,1.34,13.94,13.94,0,0,1-1.29,6.29,11.87,11.87,0,0,1-.61,1.19,9.45,9.45,0,0,0,.7-1.14A11.33,11.33,0,0,0,45.73,95.87Zm5.32,3.71c.28.87.5,1.39.5,1.39s-.18-.54-.4-1.42-.48-2.12-.73-3.49-.48-2.62-.69-3.51-.37-1.43-.37-1.43.1.56.27,1.46l.59,3.52A29.12,29.12,0,0,0,51.05,99.58ZM49.6,97.42c-.37-2.27-.77-4.09-.77-4.09s.21,1.85.58,4.13a5.2,5.2,0,0,0,1,2.73,2.47,2.47,0,0,0,.68.55,1.77,1.77,0,0,0,.29.12,1.78,1.78,0,0,1-.27-.15,2.37,2.37,0,0,1-.63-.59A5.85,5.85,0,0,1,49.6,97.42Z"/><path class="cls-10" d="M32.16,154.17c-.34-10.13.55-18.47,2.49-25.51,1.35,2.56,4.34,2.59,6.82-2.46,3.63-7.38,10.21-12.5,17-19.82S60.34,88,60.88,87.77l.12,0h0l.45.63.06.09c.16.22.31.45.47.69h0l.46.74a1.4,1.4,0,0,0,.1.16c.15.26.31.52.46.8l0,.08c.14.26.28.52.41.79a1.74,1.74,0,0,1,.1.19c.14.29.28.59.41.89,0,.07,0,.13.08.19q.18.42.33.84c0,.07.05.13.07.19.12.32.22.65.32,1,0,.08,0,.16.08.25.09.33.18.67.25,1a.64.64,0,0,0,0,.07c.07.36.14.73.19,1.1a2.36,2.36,0,0,0,0,.28c0,.38.08.76.1,1.14v.17c0,.35,0,.71,0,1.07,0,.09,0,.18,0,.27,0,.4,0,.8-.11,1.21l0,.26q-.09.57-.21,1.14a1.42,1.42,0,0,0,0,.2c-.11.42-.23.86-.37,1.29l-.1.3c-.16.45-.33.9-.53,1.36-4.63,10.41-28.39,8.49-23,55.9,0,0-8.26,3.36-8.69-3.29-.1-1.45-.17-2.87-.22-4.25C32.17,154.39,32.16,154.28,32.16,154.17Z"/><g class="cls-5"><path class="cls-12" d="M42.27,113.69a24.08,24.08,0,0,0-2.65,4.19c-.57,1.15-.84,1.89-.84,1.89s.36-.7,1-1.78a39.22,39.22,0,0,1,2.79-4,37.63,37.63,0,0,1,3.26-3.61c.9-.87,1.48-1.37,1.48-1.37s-.64.42-1.61,1.21A23.51,23.51,0,0,0,42.27,113.69Z"/><path class="cls-12" d="M37.17,122.61a5,5,0,0,0-.31,1.88s.33-.78.68-1.73.59-1.76.59-1.76A5,5,0,0,0,37.17,122.61Z"/><path class="cls-12" d="M55.83,128.63a20,20,0,0,1-3.44-1.1c-.85-.37-1.36-.66-1.36-.66a9.15,9.15,0,0,0,1.28.85A12.55,12.55,0,0,0,55.74,129a21.72,21.72,0,0,0,3.62.5c.92.06,1.5.07,1.5.07l-1.48-.27C58.46,129.16,57.2,129,55.83,128.63Z"/><path class="cls-12" d="M50.06,124.92a2.6,2.6,0,0,0-.71-.73,2.86,2.86,0,0,0,.38,1,2.71,2.71,0,0,0,.72.73A2.77,2.77,0,0,0,50.06,124.92Z"/></g><path class="cls-6" d="M62.9,85.93s3.61,2.93-6,4.45c-8.09,1.26-13.08.59-13.75-.86a2.91,2.91,0,0,1,.49-3S62.44,84.75,62.9,85.93Z"/><path class="cls-8" d="M59.56,88.68c.59-1.26-3.29.16-8.48.48A18.46,18.46,0,0,1,42.9,88a3.24,3.24,0,0,1,.48-1.2c.17-.11.36-.21.57-.32,2.58-.24,18.52-1.67,18.95-.58,0,0,3.61,2.93-6,4.45-6.39,1-10.85.79-12.77-.06C49.38,91.6,59,89.79,59.56,88.68Z"/><path class="cls-13" d="M55.09,88s1.54,2.86-1,3.55-4.66.22-5.13-.31-.61-2.51.44-2.92S55.09,88,55.09,88Z"/><path class="cls-14" d="M54.54,87.72s1.54,2.86-1,3.55-4.66.22-5.14-.31-.6-2.52.44-2.92S54.54,87.72,54.54,87.72Z"/><path class="cls-15" d="M48.82,88a7.94,7.94,0,0,1,2.07-.27,5.88,5.88,0,0,0-1.5.23c-1,.41-.91,2.4-.44,2.93a4.31,4.31,0,0,0,2.86.64c-1.75.16-3.06-.2-3.43-.61S47.78,88.44,48.82,88Z"/><path class="cls-16" d="M52.93,90.74c1.88-.5,1.55-2.17,1.24-3h.37s1.54,2.86-1,3.55-4.66.22-5.14-.31a1,1,0,0,1-.14-.23A7.75,7.75,0,0,0,52.93,90.74Z"/><g class="cls-17"><path class="cls-9" d="M60.84,98.84a4.32,4.32,0,0,1-2.49-.31,6.54,6.54,0,0,1-1.54-.86,7.64,7.64,0,0,1-.61-.53,6,6,0,0,1-.49-.64,6.37,6.37,0,0,1-.78-1.59,4.32,4.32,0,0,1-.17-2.5,12.22,12.22,0,0,0,.59,2.35,6.23,6.23,0,0,0,1.31,1.94,6.3,6.3,0,0,0,1.87,1.42A12.17,12.17,0,0,0,60.84,98.84Z"/></g><path class="cls-18" d="M46.38,42.89S39.31,68.64,33.66,73.32s-22.44,2.15-28.25-.79c0,0,4.15-.1,3.94-6.67,0,0,17.52,2.78,19.9-.12s4.9-16.88,4.9-16.88A12.71,12.71,0,0,1,46.38,42.89Z"/><g class="cls-19"><path class="cls-20" d="M32.91,69.11a4.48,4.48,0,0,0-.66-1.26,4.53,4.53,0,0,0-.64-.75,3.29,3.29,0,0,0-.34-.3,3,3,0,0,0-.39-.23,3,3,0,0,0-.95-.31,2.42,2.42,0,0,0-1,0,1,1,0,0,0-.41.17s.18,0,.43-.07a3,3,0,0,1,.93,0,3.28,3.28,0,0,1,.86.35,2.28,2.28,0,0,1,.35.23,2.5,2.5,0,0,1,.34.26,4.28,4.28,0,0,1,.65.68C32.54,68.51,32.87,69.13,32.91,69.11Z"/><path class="cls-20" d="M32.87,66.19a2.72,2.72,0,0,0-1-.32,6.8,6.8,0,0,0-1-.11,6.83,6.83,0,0,0-1,.13,2.66,2.66,0,0,0-1,.34s.5-.1,1-.15a8.35,8.35,0,0,1,1,0,6.38,6.38,0,0,1,1,0C32.36,66.1,32.86,66.22,32.87,66.19Z"/></g><path class="cls-21" d="M9.35,65.89l0,0h0Z"/><path class="cls-21" d="M33.66,73.32h0c.1-.08.2-.18.3-.27l.1-.1.21-.22.11-.12.22-.24.1-.12.31-.39v0l.3-.4.1-.15.22-.32a1.63,1.63,0,0,1,.11-.17l.22-.35s.07-.1.1-.16.21-.34.31-.52l0-.06.28-.5.1-.19.22-.4.11-.21c.07-.15.15-.29.22-.43s.07-.13.1-.19l.31-.63,0-.08.28-.58a2,2,0,0,1,.1-.21l.21-.47a2.56,2.56,0,0,0,.11-.24c.08-.16.15-.33.22-.49l.09-.2c.11-.24.21-.47.31-.71l0-.1.27-.62a2.44,2.44,0,0,1,.1-.24l.21-.51a2.44,2.44,0,0,1,.1-.24c.07-.19.15-.37.22-.56s0-.13.08-.19c.1-.25.2-.5.29-.76l0-.09.26-.66.09-.24.2-.54.09-.24c.08-.2.15-.4.22-.59l.07-.18c.09-.26.19-.52.28-.77l0-.09.24-.68.08-.22c.07-.19.13-.37.2-.55l.08-.23c.07-.2.14-.4.2-.6l.06-.16c.09-.25.17-.51.26-.76v0l.24-.7.06-.19c.06-.19.13-.37.19-.56l.06-.19.2-.6,0-.12c.07-.24.15-.48.23-.72h0l-.06-.16c-.08.24-6.33,14.53-9.27,14.57S34.46,51,36.28,48a16.49,16.49,0,0,1,4.47-4.47h0l-1,.37h0c-.33.15-.71.34-1.12.55l-.62.38-.13.09-.56.39,0,0-.49.39-.1.08-.46.4,0,0-.38.37-.07.08-.36.38,0,0-.31.35,0,.05-.28.34c-.22.34-.44.71-.67,1.1l0,.12v0l0,.12,0,.14,0,.12,0,.22v.08l-.06.28,0,.11-.06.32,0,.1-.09.44v0c-.27,1.35-.65,3.18-1.11,5.1l0,.06c0,.22-.1.43-.16.65l0,.12c0,.2-.1.39-.14.59l0,.17c0,.18-.09.36-.14.54s0,.13-.05.2-.09.34-.14.51l-.06.21c0,.16-.09.32-.13.48s-.05.16-.07.24-.09.3-.13.45a2.17,2.17,0,0,0-.07.24c-.05.14-.09.28-.13.42s-.05.17-.08.25-.09.27-.13.4S31,61.89,31,62s-.09.26-.13.38a2.25,2.25,0,0,0-.08.24c-.05.12-.09.24-.13.35l-.09.23c0,.11-.08.22-.13.33s-.05.15-.08.22-.09.2-.13.3l-.09.2L30,64.5l-.09.18-.14.25a1.19,1.19,0,0,1-.08.16l-.15.24-.07.11a2.32,2.32,0,0,1-.22.3A2.23,2.23,0,0,1,29,66a5.59,5.59,0,0,1-2.58.89,4.71,4.71,0,0,1,3.07,1.84c1.15,2.2-12.63,7.29-18.74,2.93a8.49,8.49,0,0,1-2-1.87,4,4,0,0,1-3.38,2.79,38.41,38.41,0,0,0,11,2.92,47.06,47.06,0,0,0,8.34.42c.67,0,1.32-.09,2-.16s1.25-.17,1.84-.28A11.43,11.43,0,0,0,33.66,73.32Z"/><path class="cls-22" d="M12.5,67.25c.54.1,1.11.19,1.69.27a35.35,35.35,0,0,0,4.64.27s.58,0,1.46,0,2,0,3.2-.13l1.7-.13a6.44,6.44,0,0,1,1.53,0,2.27,2.27,0,0,1,1,.43c.2.17.28.31.27.32s-.12-.1-.33-.23a2.35,2.35,0,0,0-1-.31,19.74,19.74,0,0,0-3.17.28c-1.16.13-2.33.21-3.21.25s-1.47,0-1.47,0a31.81,31.81,0,0,1-4.7-.44c-.58-.1-1.16-.22-1.7-.35A9.77,9.77,0,0,0,11,67.23a1.55,1.55,0,0,0-1,.18c-.2.13-.27.26-.29.25s0-.16.23-.34A1.6,1.6,0,0,1,11,67,8.85,8.85,0,0,1,12.5,67.25Z"/><path class="cls-22" d="M40.41,45.12a17.91,17.91,0,0,0-1.79,1.05c-.86.57-1.66,1.26-1.71,1.2a6.55,6.55,0,0,1,1.49-1.51,14,14,0,0,1,1.75-1.21,15.68,15.68,0,0,1,2-.82,6.77,6.77,0,0,1,2.08-.44c0,.08-1,.37-1.94.79A17.78,17.78,0,0,0,40.41,45.12Z"/><path class="cls-18" d="M53.84,40.92s9.73.93,13,2.8c0,0-3,11.38-.5,16.42a100,100,0,0,0-2.54,16.38c-.11,1.61-.17,3.21-.14,4.82s.79,3.56-1.15,4.12c-1.32.38-2.64.77-4,1.09a38.35,38.35,0,0,1-11.17,1.31c-1.61-.09-3.58-.16-4.84-1.24-1-.81-1.09-2.07-1.34-3.21q-.91-4.12-1.78-8.27C38,68.4,36.53,61.64,35.44,54.85c-.2-1.28-.4-2.55-.54-3.84C33.94,42.08,47.32,41.35,53.84,40.92Z"/><path class="cls-21" d="M53.82,40.68s9.73.93,13,2.8c0,0-3,11.38-.49,16.42a101.08,101.08,0,0,0-2.55,16.38c-.11,1.61-.17,3.21-.14,4.82s.8,3.56-1.15,4.12c-1.32.38-2.63.77-4,1.09a38.61,38.61,0,0,1-11.17,1.31c-1.6-.09-3.57-.16-4.84-1.24-.95-.81-1.09-2.07-1.34-3.21-.6-2.76-1.2-5.51-1.78-8.27-1.43-6.74-2.85-13.5-3.94-20.29-.2-1.28-.39-2.55-.53-3.84C33.92,41.84,47.3,41.11,53.82,40.68Z"/><path class="cls-21" d="M41.16,83.41c-.31-1.4-.6-2.79-.9-4.19C44,85.94,50.66,86.56,57,83.05c7.43-4.13,7.35-29.3,7.23-29.61,0,0,.9,2.92,2,7.08a99.81,99.81,0,0,0-2.46,16c-.11,1.61-.17,3.21-.14,4.82s.79,3.56-1.15,4.12c-1.32.38-2.64.77-4,1.09a38.35,38.35,0,0,1-11.17,1.31c-1.61-.09-3.58-.16-4.84-1.24C41.54,85.81,41.41,84.55,41.16,83.41Z"/><path class="cls-21" d="M55.86,47.22v0S55.86,47.19,55.86,47.22Z"/><path class="cls-23" d="M51,80.8c0,.35.09.82.14,1.29L51.33,84s.05.94.11,1.89a7.11,7.11,0,0,0,.17,1.27c.08.34.19.56.17.57a1.23,1.23,0,0,1-.27-.54,5.45,5.45,0,0,1-.26-1.28c-.1-1-.19-1.89-.19-1.89L51,82.11c0-.48,0-1-.06-1.31a2.6,2.6,0,0,1,0-.59A2.5,2.5,0,0,1,51,80.8Z"/><path class="cls-21" d="M47.73,75.83c.09-1.2.17-2.41.21-3.62.17-4.53,1.25-21.39,1.3-22.09a3.4,3.4,0,0,1-1.82-2.62s1.39-2.87,2.5-2.82,3,1.74,2.89,2.9a6.35,6.35,0,0,1-2,2.5c1.54,6.72,2.9,13.5,3.89,20.33.75,5.23,1.61,9.78-1.8,14.26l-.83,1.09c-.07.09-.16.19-.27.19s-.2-.08-.28-.15A16.85,16.85,0,0,1,48.3,81,10.59,10.59,0,0,1,47.73,75.83Z"/><path class="cls-3" d="M47.22,75.62c.09-1.21.16-2.41.21-3.62.17-4.53,1.25-21.4,1.3-22.09a3.4,3.4,0,0,1-1.82-2.62s1.39-2.87,2.5-2.82,3,1.74,2.89,2.9a6.34,6.34,0,0,1-2,2.49c1.54,6.72,2.9,13.51,3.89,20.33.75,5.23,1.61,9.79-1.8,14.26l-.83,1.09a.44.44,0,0,1-.27.2.43.43,0,0,1-.28-.16,16.85,16.85,0,0,1-3.22-4.8A10.56,10.56,0,0,1,47.22,75.62Z"/><path class="cls-24" d="M47.22,75.62l0-.49c.79,4.46,3.11,7.67,5.14,2.7,2.1-5.14-2-26.48-2.67-26.83-.46-.24-1,2.87-1.37,4.87.2-3.23.36-5.7.38-6a2.75,2.75,0,0,1-1.34-1.23c.41.28,1.78,1.08,2.72.19,1.12-1.06-.06-3.95-.2-4.14l.84.31c.85.61,1.62,1.58,1.55,2.33a6.34,6.34,0,0,1-2,2.49c1.54,6.72,2.9,13.51,3.89,20.33.75,5.23,1.61,9.79-1.8,14.26l-.83,1.09a.44.44,0,0,1-.27.2.43.43,0,0,1-.28-.16,16.85,16.85,0,0,1-3.22-4.8A10.56,10.56,0,0,1,47.22,75.62Z"/><path class="cls-25" d="M48.71,62.38s.49-8.91.64-8.9-.1,8.92-.1,8.92-.48,8.91-.63,8.9S48.71,62.38,48.71,62.38Zm-.11,14.8A4.09,4.09,0,0,0,48.72,76l.06-1.21-.07-1.2a4.55,4.55,0,0,0-.14-1.22,3.22,3.22,0,0,0-.24,1.21c-.07.61-.09,1.22-.09,1.22s0,.61.1,1.21A3.26,3.26,0,0,0,48.6,77.18ZM49,49c0-.06-.16-.34-.21-.66a2,2,0,0,1,0-.64,1.75,1.75,0,0,1,.09-.62c.1-.31.35-.57.31-.63s-.41.1-.64.45a2,2,0,0,0-.3.76,1.89,1.89,0,0,0,.18.8C48.56,48.83,48.91,49.05,49,49Z"/><g class="cls-19"><path class="cls-20" d="M42.88,44.5c-.37,1-1.61,1.79-2.24,2.65a34,34,0,0,0-2,3.15.25.25,0,0,1-.45,0,4.22,4.22,0,0,1,.67-4.46c.77-1.05,2.4-2.46,3.8-1.91a.47.47,0,0,1,.2.6Z"/></g><g class="cls-19"><path class="cls-20" d="M62.92,80.2c.51,1.81-.63,5.41-3,5.34-.32,0-.6-.4-.33-.67A10.51,10.51,0,0,0,61.43,83a15.8,15.8,0,0,0,.89-2.86c.09-.26.52-.21.6,0Z"/></g><g class="cls-19"><path class="cls-20" d="M42.07,82.69a10.3,10.3,0,0,0,2,2.4,18.73,18.73,0,0,0,2.71,1.48.29.29,0,0,1-.1.54c-2.23.29-4.74-2.15-4.83-4.34a.14.14,0,0,1,.26-.08Z"/></g><g class="cls-26"><path class="cls-20" d="M38,67.59a2.27,2.27,0,0,0-.05-.4c0-.26-.11-.63-.19-1.08-.16-.88-.36-2.06-.54-3.25-.38-2.36-.61-4.75-.61-4.75s-.28-2.38-.36-4.77c0-1.2,0-2.39,0-3.29,0-.45,0-.83,0-1.09a2.17,2.17,0,0,0,0-.41,2.5,2.5,0,0,0-.06.41c0,.26-.06.63-.08,1.08,0,.9-.07,2.1-.06,3.31,0,2.4.28,4.79.28,4.79s.27,2.39.69,4.76c.21,1.18.44,2.36.63,3.24.09.44.18.8.23,1.06A3.23,3.23,0,0,0,38,67.59Z"/></g><path class="cls-27" d="M5.64,61.5a2.88,2.88,0,0,1,2,1.32,1.11,1.11,0,0,1,.4-.38c1.07-.54,3,.56,2,1.24a5.24,5.24,0,0,0-1.29,1.53,13.42,13.42,0,0,1,.52,2.08s.51,4-2.55,4.23-3.3-3.61-3.65-3.88-1.15,1-1.67,1.34-2-1-1.08-3.32,2.21-2.52,2.21-2.52-1.52,0-1.44-.73S2.85,61.18,5.64,61.5Z"/><path class="cls-28" d="M2.27,61.89c-.34.57,2.79,1,2.95,1s-2.85.17-3,.63,1.82.13,1.82.13-2.69,1.18-2.51,1.59,2.67-.8,2.67-.8c-.49.29-3.42,2.3-2.87,2.94s2.28-1.06,2.28-1.06,0,1.15,2,2.43c1.6,1,3-1,3.56-2,.07.34.1.56.1.56a6.35,6.35,0,0,1-.08,1.82,11.36,11.36,0,0,1-1.3,2.06,2.69,2.69,0,0,1-1.17.35c-3.06.23-3.3-3.61-3.65-3.88s-1.15,1-1.67,1.34-2-1-1.08-3.32,2.21-2.52,2.21-2.52-1.52,0-1.44-.73c0-.48.74-.84,1.94-1A1.83,1.83,0,0,0,2.27,61.89Z"/><path class="cls-29" d="M8.6,65a.49.49,0,0,1,0,.11Z"/><path class="cls-20" d="M45.09,54.78,37.61,55s1.11,8.29,4.51,7.35S45.09,54.78,45.09,54.78Z"/><path class="cls-27" d="M53.8,38.46l.06,4.21S51.29,46,46,43.71L45.91,39S51.72,36.14,53.8,38.46Z"/><path class="cls-28" d="M46,42.16c4.87,4.19,8-3.93,5.89-2.31-1.79,1.37-5,.32-5.93-.05v-.67a.59.59,0,0,1,.18-.24,16.78,16.78,0,0,1,1.68-.66c.87-.21,1.9-.38,2.77-.64a7.39,7.39,0,0,1,.93,0h0l.42,0h0a2.7,2.7,0,0,1,.41.07h0l.33.1.07,0,.34.16,0,0a1.81,1.81,0,0,1,.27.18l.08.06a3.08,3.08,0,0,1,.27.25h0l.06,4.21S51.29,46,46,43.71Z"/><path class="cls-27" d="M35.56,21.49A2.1,2.1,0,0,0,32.62,21c-1.88,1.42-.46,8.15,2.21,7.89S36,21.32,35.56,21.49Z"/><path class="cls-28" d="M35.56,21.49A2.1,2.1,0,0,0,32.62,21c-1.88,1.42-.46,8.15,2.21,7.89S36,21.32,35.56,21.49Z"/><path class="cls-30" d="M33.44,27s.2,0,.43-.09a.46.46,0,0,0,.27-.26.64.64,0,0,0,0-.45.88.88,0,0,0-.27-.36c-.11-.09-.24-.12-.43-.26a.75.75,0,0,1-.3-.67,1.56,1.56,0,0,1,.06-.27,1.1,1.1,0,0,1,.13-.22,1.83,1.83,0,0,1,.24-.22.84.84,0,0,1,.19-.09h0s0,0,0,0,0-.06,0-.11a1.16,1.16,0,0,0,0-.18,2.21,2.21,0,0,0-.32-.7c-.29-.44-.7-.59-.69-.66s.47-.06.9.39a2.53,2.53,0,0,1,.53.81l.07.22a1.26,1.26,0,0,1,.06.26c0,.22,0,.43.05.58a1.35,1.35,0,0,0-.38.05l-.09.06-.11.11a.66.66,0,0,0,0,.1s0,0,0,0,.24.15.42.33a1.5,1.5,0,0,1,.4.7,1.1,1.1,0,0,1-.1.81.58.58,0,0,1-.49.29C33.61,27.15,33.43,27,33.44,27Z"/><path class="cls-31" d="M34.83,28.92c2.68-.26,1.19-7.6.73-7.43a2.53,2.53,0,0,0-1.58-.9,4.85,4.85,0,0,1,0,2.76s-.78-1.07-1.13-.67.34,2.16-.45,2.38c-.25.07-.43-.11-.55-.4C32.13,26.83,33.27,29.08,34.83,28.92Z"/><g class="cls-32"><path class="cls-33" d="M31.92,22.58c-.09.39,0,.77.17.85s.39-.17.48-.56,0-.76-.16-.84S32,22.2,31.92,22.58Z"/><path class="cls-33" d="M32.54,21.44a.3.3,0,0,0,.15.34.19.19,0,0,0,.28-.11.3.3,0,0,0-.15-.34A.19.19,0,0,0,32.54,21.44Z"/></g><path class="cls-27" d="M65.47,19.75C65.29,13.66,62.13,4,49.33,4.7s-13.91,15-13.91,15a39,39,0,0,0-.59,9.24c.41,4,2.86,9.73,12.14,10.08s16.12-4,17.41-9.76a4.73,4.73,0,0,0,4.1-4.08C69,22.5,67.35,19.94,65.47,19.75Z"/><g class="cls-26"><path class="cls-28" d="M65.47,19.75a19.68,19.68,0,0,0-1.15-6.07A15.66,15.66,0,0,0,62,9.44c2,3,2.68,7.62,2.76,10.46.16,0,.54-.12.8-.15Z"/><path class="cls-28" d="M67.21,20.67a5.37,5.37,0,0,1,.62,3.62,4.73,4.73,0,0,1-4.1,4.08c-1.29,5.77-8.13,10.11-17.41,9.76-4.89-.18-7.88-1.87-9.68-4,1.7,2.53,4.8,4.66,10.33,4.87,9.28.34,16.12-4,17.41-9.76a4.73,4.73,0,0,0,4.1-4.08A5.25,5.25,0,0,0,67.21,20.67Z"/></g><path class="cls-34" d="M41.28,24.56c.1,1.22-.37,2.24-1.05,2.29s-1.31-.9-1.42-2.12.37-2.24,1-2.29S41.18,23.34,41.28,24.56Z"/><path class="cls-35" d="M40.46,22.66a4,4,0,0,1,.2.95c.1,1.22-.37,2.25-1,2.29a.84.84,0,0,1-.59-.22c.26.72.72,1.2,1.21,1.17.68-.05,1.15-1.07,1.05-2.29A2.81,2.81,0,0,0,40.46,22.66Z"/><path class="cls-36" d="M39,24.33c0,.42.17.77.39.77s.39-.32.39-.74-.17-.77-.39-.77S39,23.91,39,24.33Z"/><path class="cls-36" d="M39.8,23.16a.17.17,0,0,1-.15.19.18.18,0,0,1-.17-.16.17.17,0,0,1,.15-.19A.18.18,0,0,1,39.8,23.16Z"/><path class="cls-34" d="M55.86,24.67c-.06,1.22-.66,2.18-1.34,2.14s-1.19-1.06-1.13-2.28.66-2.18,1.34-2.14S55.92,23.45,55.86,24.67Z"/><path class="cls-35" d="M55.33,22.73a3.49,3.49,0,0,1,0,.8c0,1.22-.65,2.18-1.33,2.14a.85.85,0,0,1-.6-.34c.14.84.56,1.45,1.08,1.48.68,0,1.28-.92,1.34-2.14A2.83,2.83,0,0,0,55.33,22.73Z"/><path class="cls-36" d="M53.75,24.11c0,.41.08.78.29.81s.43-.28.49-.69-.08-.78-.29-.82S53.81,23.69,53.75,24.11Z"/><path class="cls-36" d="M54.67,23a.17.17,0,0,1-.17.16.16.16,0,0,1-.15-.18.17.17,0,0,1,.17-.16A.18.18,0,0,1,54.67,23Z"/><path class="cls-30" d="M66.59,26.7a.91.91,0,0,1-.33.78.74.74,0,0,1-.37.16.69.69,0,0,1-.48-.19,1.15,1.15,0,0,1-.32-.55.83.83,0,0,1,.15-.71,2.55,2.55,0,0,1,.38-.29.53.53,0,0,0,.17-.24.87.87,0,0,0,0-.57.39.39,0,0,0-.3-.27l-.12,0a.27.27,0,0,0-.12,0l-.06,0,0,0-.09.15c-.13.22-.24.28-.38.3a.36.36,0,0,1-.24-.1A.48.48,0,0,1,64.3,25a4.9,4.9,0,0,1-.12-.79,5,5,0,0,1,0-.55,3.16,3.16,0,0,1,.22-1,1.76,1.76,0,0,1,.49-.68c.38-.31.71-.25.71-.2s-.28.11-.54.44a2.32,2.32,0,0,0-.43,1.54,3.91,3.91,0,0,0,.05.48c0,.16,0,.12,0,.15s.07,0,.06,0h0l.08-.07A1.2,1.2,0,0,1,65,24.1a.8.8,0,0,1,.31-.07.68.68,0,0,1,.27,0,.88.88,0,0,1,.26.12,1.27,1.27,0,0,1,.5.72,1.61,1.61,0,0,1-.1,1.12,1.08,1.08,0,0,1-.37.42,2.72,2.72,0,0,0-.33.18.2.2,0,0,0-.07.2.58.58,0,0,0,.13.3.38.38,0,0,0,.5.09C66.45,27,66.54,26.67,66.59,26.7Z"/><path class="cls-33" d="M66.85,21.8c.28.26.59.32.69.14s0-.53-.33-.79-.59-.31-.69-.13S66.56,21.55,66.85,21.8Z"/><path class="cls-33" d="M65.76,20.55a.29.29,0,0,0,.15.33.2.2,0,0,0,.29-.11.32.32,0,0,0-.16-.34A.19.19,0,0,0,65.76,20.55Z"/><path class="cls-30" d="M50.06,29.91s0,.19,0,.37a1,1,0,0,0,.16.37.74.74,0,0,0,.37.19c.22,0,.4-.11.37-.14s-.18,0-.32-.05a.55.55,0,0,1-.22-.18,1.16,1.16,0,0,1-.18-.25C50.16,30.07,50.1,29.9,50.06,29.91Z"/><path class="cls-28" d="M48.69,28.34a5,5,0,0,1-3.91-.94s-1.07.72.89,1.4C48.28,29.71,48.69,28.34,48.69,28.34Z"/><path class="cls-30" d="M47.6,28.92a6.16,6.16,0,0,1-.81,0,5,5,0,0,1-1.67-.51c-.27-.15-.51-.35-.55-.56a.47.47,0,0,1,.21-.5,1.23,1.23,0,0,1,.44-.21l.2,0a1.94,1.94,0,0,1,.45,0,2.43,2.43,0,0,1,.55.07,1.42,1.42,0,0,1,.33.11,6.37,6.37,0,0,1,.73.42q0-.42,0-.9l0-.55c0-.37-.06-.75-.08-1.09A5.61,5.61,0,0,0,47.19,24a5.05,5.05,0,0,0-.11,1.22c0,.34,0,.73,0,1.1,0,.19,0,.38,0,.56s0,.07,0,.08,0,0-.06-.05a1.8,1.8,0,0,0-.4-.15,2.65,2.65,0,0,0-.66-.12,2,2,0,0,0-.56,0,1.71,1.71,0,0,0-.26.06,1.66,1.66,0,0,0-.61.34,1,1,0,0,0-.3.41.88.88,0,0,0,0,.6,1.39,1.39,0,0,0,.81.77,4.56,4.56,0,0,0,1.84.38C47.32,29.15,47.62,29,47.6,28.92Z"/><path class="cls-37" d="M45.81,27.46c0,.13.13.31.4.41s.52.08.57-.05-.13-.31-.4-.4S45.86,27.34,45.81,27.46Z"/><path class="cls-28" d="M54.85,25.84c1.92,0,3.49.93,3.51,2.15s-1.51,2.23-3.43,2.27-3.48-.93-3.5-2.15S52.94,25.87,54.85,25.84ZM35.33,27c-.19,1.2,1.16,2.43,3,2.74s3.54-.41,3.73-1.62-1.16-2.43-3-2.74S35.53,25.75,35.33,27Z"/><path class="cls-28" d="M59,11.11c-9.78,8.6-22,3.72-22,3.72a15,15,0,0,0-1.4,3.88c.5-3.23,3-13.39,13.78-14,12.8-.74,16,9,16.14,15.05a2.46,2.46,0,0,1,1,.31,5.48,5.48,0,0,1-.78.72c-2,1-1.48,4.71-2.73,3.84s-.7-4.68-.7-4.68C59.84,18.07,59,11.11,59,11.11Z"/><path class="cls-38" d="M66,19.74a7.33,7.33,0,0,0,2.66-6.56C68.21,7.84,64.88,5.7,60.4,6.1c0,0-5-6.64-11.73-6.07S40.41,6.35,37.74,6.12s-3.52-1-3.52-1,.05,2.83,1.44,3.69a11.77,11.77,0,0,1-3-1,10,10,0,0,0,1.69,5.56s-1.38,3.2-.45,5.3a17.34,17.34,0,0,1,1.12,3s1.07-6,2.28-7.85c0,0,12.25,4.88,22-3.72,0,0,.85,7,3.22,8.83,0,0-.54,3.82.71,4.68S64,20.79,66,19.74Z"/><path class="cls-3" d="M60.33,22.43l.61-.29c.83-.39,1.65-.79,2.48-1.17l1.4-.65.63-.29c.12-.05.46-.27.56-.22l.28.13a.68.68,0,0,0-.36-.66c-.2-.09-.39,0-.58.12l-1.21.51c-1.38.58-2.76,1.16-4.14,1.72Z"/><path class="cls-39" d="M60.27,22.3c0-.09-.08-.2-.12-.31l4.63-1.93c.27-.11,1.25-.68,1.5-.31a.38.38,0,0,1,0,.15.29.29,0,0,0-.17,0l-.1,0c-.1,0-.44.17-.56.22l-.24.11-.17.08-.07,0-.15.07-.68.31-.48.22-.1,0-.14.07-1.62.76-.71.34h0l-.12.06-.61.29,0-.11Z"/><path class="cls-3" d="M48.51,22.82l.32-.8a5.72,5.72,0,0,0-4-.06l.36.79A5,5,0,0,1,48.51,22.82Z"/><path class="cls-39" d="M48.51,22.82a5,5,0,0,0-3.33-.07L45,22.4a5.79,5.79,0,0,1,3.63.08Z"/><path class="cls-25" d="M60.07,22.16s-6.08-3.73-11.33.3c0,0-.19,8.33,5.71,8.16S60.07,22.16,60.07,22.16Z"/><path class="cls-25" d="M51.72,20.94l4,9.51a5.89,5.89,0,0,1-1.23.17,4.13,4.13,0,0,1-.5,0l-3.9-9A8.63,8.63,0,0,1,51.72,20.94Z"/><path class="cls-25" d="M55.82,20.7l3,7.19a5.76,5.76,0,0,1-1.18,1.51l-3.82-8.8A11,11,0,0,1,55.82,20.7Z"/><path class="cls-25" d="M48.79,23.61c-.06-.7,0-1.15,0-1.15,5.25-4,11.33-.3,11.33-.3a12.49,12.49,0,0,1,0,1.37A10.4,10.4,0,0,1,48.79,23.61Z"/><path class="cls-3" d="M54.46,31.05a4.92,4.92,0,0,1-3.94-1.6c-2.26-2.45-2.18-6.82-2.18-7v-.21l.17-.12c5.39-4.14,11.69-.37,11.75-.33l.2.12v.25c0,.08.21,8.5-5.77,8.89Zm-5.33-8.36c0,.88.2,4.25,1.95,6.16a4.18,4.18,0,0,0,3.35,1.34c4.94-.12,5.24-6.4,5.25-7.77C58.62,21.85,53.55,19.45,49.13,22.69Z"/><path class="cls-39" d="M54.47,30.62h.22C60.2,30.25,60,22.49,60,22.42v-.23l-.18-.11c-.06,0-5.87-3.51-10.84.3l-.14.11v.2c0,.17-.07,4.2,2,6.46A4.55,4.55,0,0,0,54.47,30.62Zm0-.43a4.18,4.18,0,0,1-3.35-1.34c-1.75-1.91-1.93-5.28-1.95-6.16,4.42-3.24,9.49-.84,10.55-.27C59.67,23.79,59.37,30.07,54.43,30.19Z"/><path class="cls-25" d="M45,22.34s-5.76-4.22-11.33-.64c0,0-.88,8.28,5,8.61S45,22.34,45,22.34Z"/><path class="cls-25" d="M36.74,20.43l3.15,9.81a6.23,6.23,0,0,1-1.24.07l-.5,0L35,21A9.06,9.06,0,0,1,36.74,20.43Z"/><path class="cls-25" d="M40.84,20.54,43.22,28a6,6,0,0,1-1.3,1.41l-3.08-9.09A9.75,9.75,0,0,1,40.84,20.54Z"/><path class="cls-25" d="M33.59,22.85c0-.7,0-1.15,0-1.15,5.57-3.58,11.33.64,11.33.64a13,13,0,0,1-.17,1.36A10.39,10.39,0,0,1,33.59,22.85Z"/><path class="cls-3" d="M38.63,30.74a5,5,0,0,1-3.8-1.92c-2-2.64-1.61-7-1.59-7.17l0-.21.17-.11c5.72-3.68,11.69.61,11.75.65l.18.14v.24c0,.09-.49,8.5-6.48,8.39ZM34,22c-.06.88-.16,4.25,1.43,6.3a4.19,4.19,0,0,0,3.23,1.62c4.93.28,5.75-5.95,5.87-7.31C43.53,21.91,38.68,19.1,34,22Z"/><path class="cls-39" d="M38.67,30.31h.22c5.52.1,6-7.65,6-7.73v-.22l-.17-.13c-.05,0-5.55-4-10.82-.6l-.16.1,0,.2c0,.17-.42,4.17,1.47,6.6A4.51,4.51,0,0,0,38.67,30.31Zm0-.43a4.19,4.19,0,0,1-3.23-1.62C33.85,26.21,34,22.84,34,22c4.67-2.86,9.52-.05,10.53.61C44.42,23.93,43.6,30.16,38.67,29.88Z"/><path class="cls-38" d="M54.7,18.13c.06.09.42,0,.75,0a17.66,17.66,0,0,1,1.19.38c.3.16.54.45.64.41s0-.48-.25-.83a1.8,1.8,0,0,0-.47-.42l-.26-.14-.29,0a1.72,1.72,0,0,0-.62.06C54.94,17.72,54.63,18,54.7,18.13Z"/><path class="cls-38" d="M39,18c.09.08.42-.13.74-.26a1.71,1.71,0,0,1,.6-.16l.15,0a1,1,0,0,1,.39,0,1.19,1.19,0,0,1,.4.15c.1.06.18.13.23.11s.08-.13,0-.3a1,1,0,0,0-.42-.48,1.38,1.38,0,0,0-.63-.21,1.3,1.3,0,0,0-.31,0,2,2,0,0,0-.27.12,1.76,1.76,0,0,0-.49.36C39.13,17.53,39,17.89,39,18Z"/><path class="cls-40" d="M64.66,8.58a4.76,4.76,0,0,0-.84-.65,4.86,4.86,0,0,0-.94-.5,2.74,2.74,0,0,0-.71-.18,2,2,0,0,1-.34,0,.64.64,0,0,1,.34-.09,2.2,2.2,0,0,1,.77.1,4.17,4.17,0,0,1,1,.45,4.64,4.64,0,0,1,.83.75,2.5,2.5,0,0,1,.56,1S65.05,9,64.66,8.58Zm-.56,2.21.24.46a7.87,7.87,0,0,1,.53,1.48,7.34,7.34,0,0,1,.19,1.57c0,.43,0,.72,0,.72a.5.5,0,0,0,0-.19,4.66,4.66,0,0,0,.06-.53,6.24,6.24,0,0,0-.12-1.61,7.19,7.19,0,0,0-.48-1.54l-.24-.49-.1-.17s-.15-.26-.41-.62A7,7,0,0,0,62.7,8.71a5,5,0,0,0-1.38-.85,1.3,1.3,0,0,0-.73-.08,3.73,3.73,0,0,1,.69.18,5.26,5.26,0,0,1,1.29.89,7.22,7.22,0,0,1,1,1.17c.24.35.38.61.38.61ZM60.87,9.48a3.58,3.58,0,0,0-.46-.43,1.23,1.23,0,0,0-.56-.28s.23.21.43.42a3.13,3.13,0,0,1,.37.46,3.26,3.26,0,0,1,.33.47,4.24,4.24,0,0,0,.29.54,1.2,1.2,0,0,0-.11-.62A3.23,3.23,0,0,0,60.87,9.48ZM57.5,4.68A8.23,8.23,0,0,1,58.56,6c.24.39.37.67.4.67a1.39,1.39,0,0,0-.07-.21A5.14,5.14,0,0,0,58.65,6a7.07,7.07,0,0,0-1-1.41A8.62,8.62,0,0,0,56.35,3.4,7.58,7.58,0,0,0,55.69,3a6.93,6.93,0,0,0-.7-.37A11.72,11.72,0,0,0,53.38,2a15.67,15.67,0,0,0-1.67-.42,3.22,3.22,0,0,0-.78-.1,6.35,6.35,0,0,0,.76.21,16.49,16.49,0,0,1,1.63.49,14.16,14.16,0,0,1,1.56.68c.41.21.67.38.67.38A9.38,9.38,0,0,1,57.5,4.68ZM57,6.53a2.88,2.88,0,0,1,.5.39c.23.22.41.49.45.48a1.37,1.37,0,0,0-.31-.61,3,3,0,0,0-.49-.48,3,3,0,0,0-.62-.3,1.24,1.24,0,0,0-.68-.08s.32.11.61.26A3.24,3.24,0,0,1,57,6.53ZM44.14,12.91l.3.07c.19,0,.46.09.79.12a15.35,15.35,0,0,0,2.43.09,18.38,18.38,0,0,0,2.43-.31c.33-.06.59-.15.78-.19l.3-.07.29-.1c.18-.06.45-.14.76-.26a16.82,16.82,0,0,0,2.22-1,15.8,15.8,0,0,0,2-1.38,7.79,7.79,0,0,0,.6-.53l.22-.21a9.77,9.77,0,0,0-.89.66,17.87,17.87,0,0,1-2,1.29,17.37,17.37,0,0,1-2.2,1c-.31.12-.58.19-.76.25l-.29.09-.29.08c-.18,0-.44.13-.77.19a18.17,18.17,0,0,1-2.38.37,19.3,19.3,0,0,1-2.41,0C44.58,13,44.14,12.88,44.14,12.91ZM41.89,7a4.29,4.29,0,0,0,.65-.24,4.07,4.07,0,0,0-.68.13,13.13,13.13,0,0,1-1.48.28,8.93,8.93,0,0,1-1.49.08,5.8,5.8,0,0,1-.67,0,5.1,5.1,0,0,1-.67-.11,5.61,5.61,0,0,1-1.39-.5A4.8,4.8,0,0,1,35,5.69c-.28-.3-.42-.54-.44-.52s0,.06.08.17a2.75,2.75,0,0,0,.28.42,4.21,4.21,0,0,0,1.17,1,5.31,5.31,0,0,0,1.43.58,4.72,4.72,0,0,0,.69.14s.28,0,.7,0a8.75,8.75,0,0,0,1.52-.14A13.44,13.44,0,0,0,41.89,7Zm-1.36,3a16.31,16.31,0,0,0,1.78-.16,3.87,3.87,0,0,0,.8-.18s-.33,0-.81.07a15.52,15.52,0,0,1-1.77.08,11.11,11.11,0,0,1-1.76-.13A5.71,5.71,0,0,1,38,9.53a4.09,4.09,0,0,1-.74-.27,3.94,3.94,0,0,1-1.34-1.08,8.7,8.7,0,0,1-1-1.49,5.62,5.62,0,0,0-.4-.7,5.49,5.49,0,0,0,.3.75,9,9,0,0,0,.9,1.56,4.13,4.13,0,0,0,1.38,1.18,3.76,3.76,0,0,0,.77.31,5.69,5.69,0,0,0,.81.17A11.22,11.22,0,0,0,40.53,10ZM47.24,2.6a3.81,3.81,0,0,0-.65.47L46,3.54l-.6.51a3.64,3.64,0,0,0-.6.52,2.34,2.34,0,0,0,.71-.36c.34-.22.66-.45.66-.45s.31-.26.59-.55A2.84,2.84,0,0,0,47.24,2.6ZM36.55,11.75a17.13,17.13,0,0,0,2.11,1,10.78,10.78,0,0,0,1.53.5,3.47,3.47,0,0,0,.71.15,4.32,4.32,0,0,0-.68-.25c-.42-.14-1-.34-1.48-.57a20.76,20.76,0,0,1-2.05-1.07,12.86,12.86,0,0,1-1.9-1.29,6.41,6.41,0,0,1-1.1-1.13c-.27-.34-.41-.59-.43-.58a2.94,2.94,0,0,0,.34.64,6.62,6.62,0,0,0,1.06,1.22,9.54,9.54,0,0,0,1.28,1ZM35.91,14a2.22,2.22,0,0,0,.86.17c.25,0,.4-.07.39-.09a3.18,3.18,0,0,0-.38,0,2.15,2.15,0,0,1-.79-.24,2.82,2.82,0,0,1-.68-.48L35,13.11l-.26-.28a8.36,8.36,0,0,1-.55-.65c-.39-.48-.71-1-.75-1a4.53,4.53,0,0,0,.59,1.11,8.52,8.52,0,0,0,.52.7,3.75,3.75,0,0,0,.26.3,2.78,2.78,0,0,0,.3.27A3,3,0,0,0,35.91,14ZM59.45,10a15,15,0,0,0,.19,2,15.79,15.79,0,0,0,.5,2c.08.27.17.48.22.64l.09.24.11.23a6.1,6.1,0,0,0,.29.61,14,14,0,0,0,1,1.76A14.66,14.66,0,0,0,63.19,19c.19.21.37.36.48.47s.19.17.2.16a8,8,0,0,0-.6-.7,16.36,16.36,0,0,1-1.22-1.61,16.61,16.61,0,0,1-1-1.77c-.12-.24-.2-.46-.27-.6l-.1-.23-.09-.24c0-.15-.15-.36-.24-.62A18.47,18.47,0,0,1,59.83,12a15.68,15.68,0,0,1-.27-2A7.16,7.16,0,0,0,59.49,9a.72.72,0,0,0,0,.25A6.24,6.24,0,0,0,59.45,10Zm7.1,7.5c-.35.64-.83,1.18-.8,1.21a4.28,4.28,0,0,0,1-1.11,7,7,0,0,0,.66-1.32,7.29,7.29,0,0,0,.29-1.45,4.22,4.22,0,0,0-.09-1.46s0,.73-.1,1.44a8,8,0,0,1-.36,1.38A7.48,7.48,0,0,1,66.55,17.46ZM64.16,20a2.81,2.81,0,0,0,.41-.6,3.31,3.31,0,0,0,.19-.69,1.37,1.37,0,0,0,0-.72s0,.35-.15.68a4,4,0,0,1-.24.62,3.85,3.85,0,0,1-.32.59c-.18.29-.44.53-.41.56A1.36,1.36,0,0,0,64.16,20Zm-1.66-.91a2.3,2.3,0,0,0,0,1.11,3.45,3.45,0,0,0,.4,1.05,3.35,3.35,0,0,0,.77.82,2.08,2.08,0,0,0,1,.46,6.69,6.69,0,0,1-.89-.6,3.71,3.71,0,0,1-.66-.82,3.59,3.59,0,0,1-.44-1A7.59,7.59,0,0,1,62.5,19.11Zm-27.43-2.5a2,2,0,0,0,.69.34,1.56,1.56,0,0,0,.77,0c.2-.06.31-.15.3-.16a2.44,2.44,0,0,0-.32.05,1.57,1.57,0,0,1-.69-.09,1.84,1.84,0,0,1-.59-.35,2.39,2.39,0,0,1-.22-.23s-.09-.09-.21-.24a5.85,5.85,0,0,1-.41-.59c-.13-.22-.28-.45-.36-.62a3.26,3.26,0,0,1-.11-.31s-.06.14,0,.35a6.88,6.88,0,0,0,.29.68,5.16,5.16,0,0,0,.38.64c.12.17.21.28.21.28S34.91,16.48,35.07,16.61Zm-1.1,1a1.69,1.69,0,0,0,.31.41,1.14,1.14,0,0,0,.18.15,1.27,1.27,0,0,0,.21.12,1.3,1.3,0,0,0,.52.1,1,1,0,0,0,.5-.12c.07,0,.12-.11.11-.15s0-.06,0,0,0,0,0,0a.16.16,0,0,1-.1.06,1,1,0,0,1-.45,0,1.28,1.28,0,0,1-.59-.25l-.17-.12a2,2,0,0,1-.32-.33c-.21-.27-.37-.59-.4-.57A1.4,1.4,0,0,0,34,17.57Z"/><path class="cls-41" d="M55.13,3.16l-.07-.05Zm.38,9.58a20.48,20.48,0,0,0,3.84-2.67s.08.71.28,1.73a1.36,1.36,0,0,1,.48-.88c1-.64,2.35,1.8,2.35,1.8s-.64-2.05,0-2.45,2.69,2.63,2.69,2.63S63.69,9.47,64,9.08s2.1,1.31,2.1,1.31S64.53,8,64.94,7.66s1.29.31,2,.71c-1.48-1.8-3.79-2.51-6.53-2.27a17.37,17.37,0,0,0-1.68-1.82c0,.1.08.21.11.31.67,2-3.16-1-3.7-1.43a12.68,12.68,0,0,1,2,2c.71,1-4.63-.35-4.63-.35a12.27,12.27,0,0,1,3.58,1.86c1.74,1.32-1,4.1-1,4.1s1.49-1.47,2.68-.9C58.48,10.21,56.84,11.69,55.51,12.74Zm-21.15.57s-.06.14-.15.38l.24.2c.69.6.73,4.49.19,5.34a.49.49,0,0,1-.38.2,19.72,19.72,0,0,1,.7,1.92l.33-1c.38-1.87,1.17-5.25,2-6.55A22.35,22.35,0,0,0,42.18,15l2.07.09s-6-2.59-5.54-3.75,5.28-2,5.28-2-4.07-.27-3.83-.77a16.2,16.2,0,0,1,3.69-2.34c-.84.19-2.71.4-3.31-.12-.41-.36.06-1.34.62-2.2-1.28,1.27-2.24,2.33-3.42,2.23-2.67-.23-3.52-1-3.52-1s.05,2.83,1.44,3.69a11.77,11.77,0,0,1-3-1A10,10,0,0,0,34.36,13.31Zm25.9,1.18c.83.77,3.27,3,4.25,2.9,1.19-.07,3.18-3.5,3.18-3.5s-.54,2.52.15,2.37c.44-.1.71-1.5.85-2.5a7.3,7.3,0,0,1-2.68,6c-2,1.05-1.48,4.71-2.73,3.84s-.71-4.68-.71-4.68C61.53,18.08,60.78,16.27,60.26,14.49Z"/><g class="cls-42"><path class="cls-38" d="M66.52,8.64c.87.94,2,2.4,1.67,3.77a.25.25,0,0,1-.44.09A12.91,12.91,0,0,1,67,10.9,8.76,8.76,0,0,0,66,9.14c-.27-.34.27-.83.57-.5Z"/><path class="cls-38" d="M65.94,10.57a2.52,2.52,0,0,1,1.23,1.66c.15.63.17,1.74-.61,2-1.42.43-1.52-2.43-1.4-3.26a.54.54,0,0,1,.78-.37Z"/><path class="cls-38" d="M63.28,11.27c.52.19.88,1,1,1.54a3.84,3.84,0,0,1,0,2.15.21.21,0,0,1-.39,0c-.2-.63-.42-1.26-.56-1.91a4.29,4.29,0,0,1-.26-1.72.12.12,0,0,1,.17-.08Z"/><path class="cls-38" d="M61.2,12a2.75,2.75,0,0,0,0,.31c0,.19,0,.38.07.56a3.36,3.36,0,0,1,0,.95.22.22,0,0,1-.4.08A8.3,8.3,0,0,1,60.16,12l.26.3-.09-.05a.66.66,0,0,1,.08-1.19c.49-.17,1.11.4.79.9Z"/><path class="cls-38" d="M55.54,5.3c-1.11.11-2.13-.49-3.18-.76a11.31,11.31,0,0,0-3.62-.21.57.57,0,0,1-.47-.93c1.73-2.18,6.45-1.56,7.84.73a.76.76,0,0,1-.57,1.17Z"/><path class="cls-38" d="M46.31,2a6.69,6.69,0,0,0-.92.69,3.81,3.81,0,0,1-.89.66c-.25.11-.42-.18-.34-.39.28-.8,1.36-1.06,2.1-1.11a.08.08,0,0,1,.05.15Z"/><path class="cls-38" d="M56.29,11.09c-1.89,2.17-5.46,3.39-8.26,3.62-.19,0-.27-.3-.07-.35a25.52,25.52,0,0,0,4-1.25c1.44-.65,2.69-1.59,4.08-2.29.18-.09.39.1.24.27Z"/><path class="cls-38" d="M55.83,8.74c-2.29,3.07-9.4,4.39-12.75,2.78a.41.41,0,0,1,.05-.75c2.15-.52,4.35-.33,6.51-.87,2-.49,3.78-1.69,5.76-2,.49-.09.67.55.43.87Z"/><path class="cls-38" d="M41.06,11.55a1.7,1.7,0,0,0-.5-.05.77.77,0,0,1-.52,0A.29.29,0,0,1,40,11c.3-.34.92-.13,1.27,0a.26.26,0,0,1-.17.49Z"/><path class="cls-38" d="M50.73,6.78a5.55,5.55,0,0,1-1.47.28,16,16,0,0,0-2.47.76A6.87,6.87,0,0,1,43,8.48a.6.6,0,0,1-.41-.84c.9-1.61,2.81-2,4.5-2.32,1.24-.22,3.42-.68,3.91.9a.45.45,0,0,1-.27.56Z"/><path class="cls-38" d="M41.71,8.39a1.27,1.27,0,0,1-.45.19,2.3,2.3,0,0,1-.45-.05c-.17,0-.18-.24-.07-.33A2.8,2.8,0,0,1,41.09,8a1.14,1.14,0,0,1,.44-.08c.27,0,.44.39.18.52Z"/></g><path class="cls-21" d="M53.89,40.5l-.1,0c.22,0-.31,1.67-.41,1.88a4.55,4.55,0,0,1-1.2,1.42,4.34,4.34,0,0,1-3.5,1,3.53,3.53,0,0,1-2.1-1.1A4,4,0,0,1,45.83,41a12.68,12.68,0,0,0-2.15,4.1c-.35,1.33.5,5.19,2.41,4.08,1-.56,1.81-2.55,2.49-3.61,0,0,2.65,4.07,3.45,4.11,1.5.06,2.67-2.14,3.13-3.28.73-1.86.77-4.14-.84-5.55A1.76,1.76,0,0,0,53.89,40.5Z"/><path class="cls-18" d="M54,39.7l-.11,0c.22.05-.3,1.67-.41,1.88A4.42,4.42,0,0,1,52.27,43a4.32,4.32,0,0,1-3.49,1,3.48,3.48,0,0,1-2.1-1.1,4,4,0,0,1-.76-2.68,12.65,12.65,0,0,0-2.14,4.1c-.36,1.33.49,5.19,2.4,4.08,1-.56,1.81-2.55,2.49-3.61,0,0,2.65,4.07,3.45,4.11,1.51.06,2.68-2.14,3.13-3.28.74-1.86.78-4.14-.84-5.55A1.91,1.91,0,0,0,54,39.7Z"/><path class="cls-21" d="M52.09,47.67c2.51-.73,1.39-4.8,1.39-4.8s-1.12,2.47-4.81,1.58-2.81-3.66-2.75-4.27a4,4,0,0,0,.76,2.68,3.48,3.48,0,0,0,2.1,1.1,4.32,4.32,0,0,0,3.49-1,4.42,4.42,0,0,0,1.2-1.42c.11-.21.63-1.83.41-1.88l.11,0a1.91,1.91,0,0,1,.42.33c1.62,1.41,1.58,3.69.84,5.55-.45,1.14-1.62,3.34-3.13,3.28-.28,0-.81-.55-1.36-1.22A2.06,2.06,0,0,0,52.09,47.67Z"/><path class="cls-21" d="M48.67,44.75c-.68,1.06-1.51,3-2.49,3.61-1.62.94-2.48-1.7-2.48-3.34A6.69,6.69,0,0,0,45,47.66C46.11,48.69,48.67,44.75,48.67,44.75Z"/><path class="cls-30" d="M6.54,69.31a.87.87,0,0,1-.61-.19,1.83,1.83,0,0,1-.73-1.2,2.66,2.66,0,0,1,.2-1.42,3.66,3.66,0,0,1,.29-.57,2.9,2.9,0,0,1,.42-.51A3,3,0,0,1,6.63,65c.08,0,0-.28.06-.55a2.26,2.26,0,0,1,.95-1.73A3.54,3.54,0,0,0,7,64.51a2.11,2.11,0,0,0,0,.35.59.59,0,0,1-.16.48,2.36,2.36,0,0,0-.47.38,3.13,3.13,0,0,0-.34.46,3.47,3.47,0,0,0-.29.5,2.34,2.34,0,0,0-.26,1.2A1.66,1.66,0,0,0,6.05,69C6.3,69.21,6.55,69.27,6.54,69.31Z"/><path class="cls-30" d="M5.65,62.9s-.15.07-.3.22a2.88,2.88,0,0,0-.43.67c-.27.55-.5,1.11-.5,1.11A8.33,8.33,0,0,0,4,66c-.2.57-.25,1.17-.31,1.18a2.27,2.27,0,0,1,0-1.26A6.86,6.86,0,0,1,4,64.7a9.46,9.46,0,0,1,.64-1.07,2.15,2.15,0,0,1,.6-.66C5.47,62.84,5.65,62.87,5.65,62.9Z"/><path class="cls-30" d="M5,63.14c0,.07-.38.17-.77.23a7,7,0,0,1-.78.07,7.18,7.18,0,0,1-.79-.11c-.39-.08-.76-.2-.75-.26s.4-.06.78-.07l.77,0,.76.07C4.59,63.06,5,63.08,5,63.14Z"/><path class="cls-30" d="M3.93,64.4c0,.06-.42.19-.79.45l-.76.51a3.54,3.54,0,0,1-.92.3c-.5.11-1-.1-.95-.16a5.66,5.66,0,0,0,.87-.16,3.87,3.87,0,0,0,.77-.4s.4-.2.84-.39S3.93,64.33,3.93,64.4Z"/><path class="cls-30" d="M3.58,65.78A12.11,12.11,0,0,1,2,67.28l-.28.19a3.75,3.75,0,0,1-.68.38,1.25,1.25,0,0,1-.8.07c-.22-.07-.3-.21-.28-.23s.14,0,.32.06a1.25,1.25,0,0,0,.62-.2,2.84,2.84,0,0,0,.55-.43l.26-.22A11.34,11.34,0,0,1,3.58,65.78Z"/><path class="cls-43" d="M61.54,94.75c-.48-.57-19.74-14.52-19.32-15.33s12.1-14.07,15.52-16.79l23,23.72s-7.79,13.83-10,15.21Z"/><path class="cls-44" d="M61.54,94.75c-.48-.57-19.74-14.52-19.32-15.33s12.1-14.07,15.52-16.79l23,23.72s-7.79,13.83-10,15.21Z"/><path class="cls-44" d="M61.61,66.61c3.64,5.89,7.64,13.56,7.51,18.69-.17,6.75-6,8-9.28,8.11,1,.75,1.62,1.24,1.7,1.34l9.15,6.81c2.26-1.38,10-15.21,10-15.21Z"/><path class="cls-45" d="M61.05,93.94c-.42-.57-18.14-14.62-17.7-15.36S55.42,65.72,58.79,63.27L79.64,86.76s-8,12.81-10.18,14Z"/><path class="cls-46" d="M61.05,93.94c-.42-.57-18.14-14.62-17.7-15.36S55.42,65.72,58.79,63.27L79.64,86.76s-8,12.81-10.18,14Z"/><path class="cls-46" d="M61.05,93.94c-.42-.57-18.14-14.62-17.7-15.36S55.42,65.72,58.79,63.27L79.64,86.76s-8,12.81-10.18,14Z"/><path class="cls-46" d="M52.41,69.12c-3,3-6.16,6.24-7.84,8.07C46.45,79.74,60.89,92.47,61.25,93l8,7.26c1-.48,3.27-3.2,5.48-6.07,2.51-3.66,4.87-7.45,4.87-7.45L59,63.47C57.21,64.85,54.79,67,52.41,69.12Z"/><path class="cls-45" d="M61.31,92.63C60.94,92,44.73,76.26,45.24,75.56S58.55,64,62.14,61.89L80.52,87.36S71.29,99.3,69,100.29Z"/><path class="cls-46" d="M61.31,92.63C60.94,92,44.73,76.26,45.24,75.56S58.55,64,62.14,61.89L80.52,87.36S71.29,99.3,69,100.29Z"/><path class="cls-46" d="M69.91,99.65c3.2-2.7,10.61-12.29,10.61-12.29L62.14,61.89l-.58.37c-4.78,3.39-14.94,12.05-15.39,12.67S61.87,91.39,62.24,92Z"/><path class="cls-18" d="M62.33,91.38C62,90.77,46,74.77,46.51,74.08S60,62.7,63.61,60.66l18,25.72s-9.4,11.81-11.73,12.76Z"/><path class="cls-47" d="M66.63,65c2.53,6.07,5.13,13.87,4.24,18.67C69.69,90,64,90.22,60.93,89.87c.82.85,1.34,1.41,1.4,1.51l7.56,7.76c2.33-1,11.73-12.76,11.73-12.76Z"/><path class="cls-43" d="M63.13,90.69c-.38-.64-17.19-17.47-16.65-18.19s14.18-12,18-14.13l19,27.07S73.53,97.86,71.08,98.86Z"/><path class="cls-44" d="M67.65,62.92c2.66,6.39,5.4,14.59,4.46,19.64-1.24,6.63-7.21,6.91-10.45,6.54.85.89,1.4,1.48,1.47,1.59l7.95,8.17c2.45-1,12.34-13.42,12.34-13.42Z"/><path class="cls-27" d="M57.42,87.61a3,3,0,0,1,2.16-1,1,1,0,0,1-.11-.51c.09-1.14,2-2.19,2.12-1.06a4.77,4.77,0,0,0,.63,1.81,14.25,14.25,0,0,1,2,.6s3.67,1.56,2.27,4.17-4.8.92-5.21,1.06.23,1.43.27,2S59.66,95.84,58.2,94s-1-3-1-3-.77,1.25-1.37.81S55.69,89.74,57.42,87.61Z"/><path class="cls-30" d="M59.2,92.79a6.11,6.11,0,0,0,.29,1,4.14,4.14,0,0,0,.43.92,1.16,1.16,0,0,0,.51.46c.19.07.33.07.33.09s-.15.05-.36,0a1.17,1.17,0,0,1-.64-.44,4.11,4.11,0,0,1-.53-1,5.35,5.35,0,0,1-.22-1,3.19,3.19,0,0,1,0-1S59.09,92.28,59.2,92.79Zm-2-1.3s.12-.46.27-.91a7.3,7.3,0,0,1,.36-.88,6.15,6.15,0,0,1,.43-.85,2.1,2.1,0,0,1,.42-.49c.14-.12.25-.18.25-.19s-.14,0-.31.11a2,2,0,0,0-.52.47,5.1,5.1,0,0,0-.52.85,6.16,6.16,0,0,0-.29.93A2.56,2.56,0,0,0,57.2,91.49Zm1.2-1.57a4.8,4.8,0,0,0-.39,1,6.79,6.79,0,0,0-.23,1,4,4,0,0,0,.06,1,2,2,0,0,0,.41,1,7.37,7.37,0,0,1-.22-1,4.12,4.12,0,0,1,0-1,8.44,8.44,0,0,1,.15-1A7.54,7.54,0,0,0,58.4,89.92ZM59,86.8a2,2,0,0,0,.22-.06,1.23,1.23,0,0,1,.48,0l.49.08.22,0a10.55,10.55,0,0,0,1.49.08,10.47,10.47,0,0,0-1.45-.33l-.23,0c-.13,0-.32,0-.51,0a1.19,1.19,0,0,0-.53.11C59.05,86.71,59,86.79,59,86.8Z"/><path class="cls-28" d="M56,90.56c.3.56,2.27-1.81,2.35-1.94S57,91,57.33,91.34s1.07-1.42,1.07-1.42-.4,2.79,0,2.84.72-2.57.72-2.57c0,.53.17,3.92,1,3.79s.28-2.39.28-2.39,1,.6,3.12-.41c1.69-.79.7-2.94.17-3.87l.53.19a6.25,6.25,0,0,1,1.51,1,10.71,10.71,0,0,1,1.08,2.08,2.43,2.43,0,0,1-.32,1.12c-1.4,2.62-4.8.92-5.21,1.06s.23,1.43.27,2S59.66,95.84,58.2,94s-1-3-1-3-.77,1.25-1.37.81c-.38-.28-.33-1,.19-2.06A1.52,1.52,0,0,0,56,90.56Z"/><path class="cls-28" d="M60.66,84.71a2.49,2.49,0,0,0-.11.29c-.55,1.52.94,1.85,1.37,1.92a13.67,13.67,0,0,0-1.73-.12c-.38,0-1.15.07-1.86.14a3.93,3.93,0,0,1,1.25-.28,1,1,0,0,1-.11-.51A2,2,0,0,1,60.66,84.71Z"/><path class="cls-29" d="M61.92,86.92h0Z"/><path class="cls-18" d="M66.87,43.73s17,19.53,17.53,26.51S73.21,89,67.47,91.94c0,0-3.66-3.2-4.58-5.51,0,0,13.77-13.42,12.78-16.86S65,59,65,59,61.31,50.17,66.87,43.73Z"/><g class="cls-19"><path class="cls-20" d="M64.05,49.36a2.42,2.42,0,0,0-.17.58,9.55,9.55,0,0,0-.18,1.29,11.52,11.52,0,0,0,0,1.9A11.32,11.32,0,0,0,64.14,55a9.75,9.75,0,0,0,.49,1.21,3.63,3.63,0,0,0,.29.53,3.16,3.16,0,0,0-.19-.56,11.92,11.92,0,0,1-.4-1.23,14.34,14.34,0,0,1-.44-3.7A11.31,11.31,0,0,1,64,50,3.76,3.76,0,0,0,64.05,49.36Z"/><path class="cls-20" d="M62.27,52.56a4.19,4.19,0,0,0,.28,1.13A11.35,11.35,0,0,0,63,54.76s.29.51.63,1a4.54,4.54,0,0,0,.79.88s-.32-.49-.62-1a11.4,11.4,0,0,1-.56-1s-.28-.49-.51-1S62.31,52.56,62.27,52.56Z"/><path class="cls-20" d="M64.44,47s.17-.46.36-.89a8.4,8.4,0,0,1,.42-.86,7.7,7.7,0,0,1,.46-.83,8.4,8.4,0,0,0,.54-.82,3.17,3.17,0,0,0-.7.72,7.67,7.67,0,0,0-.54.82,6.44,6.44,0,0,0-.36.91A2.64,2.64,0,0,0,64.44,47Z"/><path class="cls-20" d="M80.53,68.54a4.75,4.75,0,0,0-1.41-.18,4.62,4.62,0,0,0-1,.1,3.21,3.21,0,0,0-.44.11,2.24,2.24,0,0,0-.42.18,3.22,3.22,0,0,0-.8.57,2.39,2.39,0,0,0-.54.78.86.86,0,0,0-.09.42s.07-.16.19-.38a2.48,2.48,0,0,1,.57-.69,3.3,3.3,0,0,1,.78-.49,3.26,3.26,0,0,1,.39-.16,3.84,3.84,0,0,1,.41-.12,5.53,5.53,0,0,1,.94-.14C79.82,68.5,80.52,68.58,80.53,68.54Z"/><path class="cls-20" d="M78.12,67a2.81,2.81,0,0,0-.83.6,6,6,0,0,0-.69.75,6.73,6.73,0,0,0-.48.87,2.9,2.9,0,0,0-.29,1s.22-.45.46-.87a13.19,13.19,0,0,1,1.14-1.58C77.75,67.33,78.14,67,78.12,67Z"/></g><path class="cls-21" d="M64.29,85c.07,1.68,1,3.76,5.53,2.2,7.08-2.41,10.86-16,8.4-16.28-1.09-.13-2.34.63-3.4,1.51h0c.05-.08.09-.16.13-.24l.15-.28a2.56,2.56,0,0,0,.11-.24c.05-.09.09-.18.13-.27a1.8,1.8,0,0,0,.08-.21,3.52,3.52,0,0,0,.15-.42l0-.1c0-.11.05-.22.07-.32a.51.51,0,0,0,0-.13,2.28,2.28,0,0,0,0-.26v-.11a1.55,1.55,0,0,0,0-.31C74.67,66.13,65,59,65,59a16.23,16.23,0,0,1-.69-2.28,4.25,4.25,0,0,0,0-1.24,11.14,11.14,0,0,1-.44-1.86A15.46,15.46,0,0,1,64.19,49a13.23,13.23,0,0,0,1.06,5.44c1.38,3,11.72,13.28,13.38,10.95s-6.41-15-6.56-15.18l.16,0c.16.2.32.39.47.6l0,0,.42.54.1.13c.13.15.25.31.37.48l.1.12.44.57,0,0c.16.21.32.41.48.63l.07.09c.13.17.26.35.4.52l.12.17c.12.15.24.31.35.47l.13.18.43.57,0,.05c.16.22.32.43.47.65a1.71,1.71,0,0,0,.11.14c.12.17.24.33.35.5l.15.2.33.46.13.19.41.58,0,.06.45.65.12.17c.1.16.21.31.32.47s.09.14.14.21l.3.45.13.2.37.56,0,.07c.14.21.27.42.4.63a1.63,1.63,0,0,1,.11.17c.1.15.19.3.28.45a2.39,2.39,0,0,1,.13.21l.26.43.12.19c.11.18.21.37.32.54l0,.07c.12.19.23.39.34.59l.09.17c.08.13.15.27.23.41a2,2,0,0,0,.11.2l.2.39.09.18c.09.17.18.34.26.51l0,0,.25.54.07.16c.05.12.1.24.16.36l.07.18.14.35.06.15c.06.16.11.32.16.47v0c0,.15.1.3.14.45a.74.74,0,0,1,0,.14c0,.1.06.21.08.31l0,.14.06.29s0,.09,0,.13,0,.26.05.39a7,7,0,0,1,0,1.36,17.23,17.23,0,0,1-3,7q-.54.81-1.14,1.62c-.6.81-1.25,1.62-1.92,2.4-.45.52-.91,1-1.38,1.54-.93,1-1.9,2-2.87,2.86a33.09,33.09,0,0,1-6.58,4.94s-.74-.64-1.63-1.55l-.49-.53c-.15-.15-.29-.31-.44-.48l-.45-.52c-.16-.2-.32-.39-.47-.59a8.5,8.5,0,0,1-1.1-1.84Z"/><path class="cls-22" d="M67.24,83.51c.39-.36.8-.76,1.19-1.17a34.62,34.62,0,0,0,2.91-3.49l.84-1.13c.5-.69,1.13-1.63,1.74-2.58l.88-1.41a5.38,5.38,0,0,1,.9-1.18,2.05,2.05,0,0,1,.93-.56A.81.81,0,0,1,77,72s-.15,0-.38.13a2.43,2.43,0,0,0-.81.6,19.47,19.47,0,0,0-1.6,2.63c-.56,1-1.17,2-1.65,2.66s-.82,1.17-.82,1.17a32.39,32.39,0,0,1-3.07,3.44c-.41.4-.85.79-1.26,1.14a9.15,9.15,0,0,0-1.09,1,1.48,1.48,0,0,0-.42.86c0,.23,0,.36,0,.37s-.11-.11-.14-.37a1.49,1.49,0,0,1,.36-1A9.47,9.47,0,0,1,67.24,83.51Z"/><path class="cls-22" d="M65.26,49.62a15.75,15.75,0,0,0-.18,2c0,1,.07,2,0,2a6,6,0,0,1-.38-2,13.27,13.27,0,0,1,0-2,13.9,13.9,0,0,1,.47-2A6.39,6.39,0,0,1,66,45.71c.07,0-.27,1-.47,1.95A15.94,15.94,0,0,0,65.26,49.62Z"/><path class="cls-39" d="M45.69,30.6s-.28-.11-.38.09a1.27,1.27,0,0,0,.09.68c.2.6.06,1.54.29,2.05s1.68,1.94,3.06.84S48.71,30.19,45.69,30.6Z"/><path class="cls-18" d="M46.17,30.74a.76.76,0,0,0,0,.3,1.08,1.08,0,0,0,.31.61,1.18,1.18,0,0,0,.86.26c.91,0,1.25,0,1.39-.2a2.94,2.94,0,0,0-1.27-.93c-.33-.13-1-.48-1.28-.09Z"/><path class="cls-48" d="M48.15,31.15a2.76,2.76,0,0,0-.65-.36,3.4,3.4,0,0,0-1.14-.22.38.38,0,0,0-.16.12l0,0a.28.28,0,0,0,0,.13.34.34,0,0,1,.1,0,3,3,0,0,1,2.19,1h0a.67.67,0,0,0,.17-.06.4.4,0,0,0,.12-.1,2.87,2.87,0,0,0-.56-.54Z"/><path class="cls-43" d="M45.86,33.68a2,2,0,0,0,2.89.58,1.48,1.48,0,0,0,.41-.56,3,3,0,0,0-1.67-.47A3,3,0,0,0,45.86,33.68Z"/><path class="cls-49" d="M48.75,34.26a1.48,1.48,0,0,0,.41-.56,3,3,0,0,0-.94-.38c.18.34.13.74-.94.79s-1.1-.34-1-.63a2.38,2.38,0,0,0-.39.2A2,2,0,0,0,48.75,34.26Z"/><path class="cls-30" d="M45.55,32.88a3,3,0,0,0,.31.78,2,2,0,0,0,1.52.87,1.5,1.5,0,0,0,1.51-.66,1.62,1.62,0,0,0,.21-.74,1.84,1.84,0,0,0-.08-.79,2.25,2.25,0,0,0-1.17-1.29,4,4,0,0,0-1.78-.44c-.51,0-.85.06-.86,0a.62.62,0,0,1,.23-.07,2.36,2.36,0,0,1,.63-.09,3.9,3.9,0,0,1,1.89.36,2.54,2.54,0,0,1,1.36,1.4,2.15,2.15,0,0,1,.12.66,1.78,1.78,0,0,1,0,.26,2.15,2.15,0,0,1-.29.88,1.78,1.78,0,0,1-1.8.73,2.2,2.2,0,0,1-1.61-1A1.39,1.39,0,0,1,45.55,32.88Z"/><path class="cls-30" d="M48,36.3c0,.05-.25,0-.5,0A2.26,2.26,0,0,1,47,36s-.14-.22-.25-.44-.16-.46-.12-.48.19.16.32.36l.3.33a3.51,3.51,0,0,0,.31.27C47.75,36.15,48,36.26,48,36.3Z"/><path class="cls-30" d="M46,29.59s.06.18,0,.37-.14.35-.14.35l-.29.23c-.17.09-.35.13-.36.09s.11-.16.21-.27l.17-.25.19-.24C45.88,29.75,46,29.59,46,29.59Z"/></g></g></g></svg>