<svg xmlns="http://www.w3.org/2000/svg" viewBox="0 0 97.63 95.9"><defs><style>.cls-1{isolation:isolate;}.cls-2,.cls-3{fill:#88ac76;}.cls-3{opacity:0.34;}.cls-10,.cls-12,.cls-14,.cls-15,.cls-16,.cls-20,.cls-24,.cls-26,.cls-3,.cls-6,.cls-9{mix-blend-mode:multiply;}.cls-16,.cls-18,.cls-4,.cls-6{fill:#ebd0a6;}.cls-5{fill:#de9168;}.cls-12,.cls-6{opacity:0.45;}.cls-7{fill:#fff;}.cls-10,.cls-8,.cls-9{fill:#d3dbfd;}.cls-14,.cls-17,.cls-26,.cls-9{opacity:0.5;}.cls-11,.cls-12,.cls-13,.cls-24{fill:#3c1d91;}.cls-13,.cls-17,.cls-18,.cls-21,.cls-22,.cls-25,.cls-27{mix-blend-mode:screen;}.cls-16{opacity:0.62;}.cls-19,.cls-20,.cls-21{fill:#6f3a1e;}.cls-20{opacity:0.25;}.cls-22{fill:#f8e9d0;}.cls-23,.cls-25,.cls-26{fill:#a95913;}.cls-27{opacity:0.35;}.cls-28{fill:#5766be;opacity:0.2;}</style></defs><title>hands_upРесурс 8</title><g class="cls-1"><g id="Слой_2" data-name="Слой 2"><g id="OBJECTS"><path class="cls-2" d="M51.15,95.9H35.92l1.23-2.35a2.43,2.43,0,0,1,1.45-.22l.42.06a11.92,11.92,0,0,1,1.93.54h.64c1,0,1.93,0,2.85.1h0l.58,0h0a26.34,26.34,0,0,1,2.63.38l.69.16.3.07h0c.21.06.42.12.61.19l.29.1c.18.07.35.14.51.22h0a3.73,3.73,0,0,1,.63.36l.18.13.15.14A.59.59,0,0,1,51.15,95.9Z"/><path class="cls-3" d="M51.14,95.9h-13l-.35-1.76L38.91,94l.37,0c.55,0,1.11-.07,1.67-.08h.64c1,0,1.93,0,2.85.1h0l.58,0h0a26.34,26.34,0,0,1,2.63.38l.69.16.3.07h0l.61.19.29.1c.18.07.35.14.51.22h0a5.88,5.88,0,0,1,.63.36l.18.13.15.14Z"/><path class="cls-4" d="M6.83,12c-1.18-1.07-2.59-2-3.76-3C2.72,8.66-.78,5.69.16,5.15c.79-.45,2.12.79,2.12.79S-1.65.42,1.62,0,9.68,6,9.68,6,9.11,2.51,12.2,3.4c1.49.43-.7,2.62-.56,3.8.16,1.41.54,3.06-.41,4.28.25.46.49.92.73,1.38a23,23,0,0,1-3.31,1.4A8.3,8.3,0,0,0,6.83,12Z"/><path class="cls-5" d="M8.8,8.6a2.66,2.66,0,0,1,.81,1.19,1.87,1.87,0,0,1,.1.58A3.64,3.64,0,0,0,6.91,8,2.27,2.27,0,0,1,7.5,8,2.51,2.51,0,0,1,8.8,8.6Z"/><path class="cls-5" d="M5.57,6.11c-.86,1-1.51,2-1.51,2A8.69,8.69,0,0,1,7.17,4.25S6.42,5.07,5.57,6.11Z"/><path class="cls-5" d="M3.14,6.38a4,4,0,0,1,.7.84,4.19,4.19,0,0,1-.9-.62,4.3,4.3,0,0,1-.7-.83A4.18,4.18,0,0,1,3.14,6.38Z"/><path class="cls-5" d="M2.78,3.64A11.47,11.47,0,0,1,4.63,6.09S3.75,5,2.58,3.85.37,1.76.37,1.76A11.28,11.28,0,0,1,2.78,3.64Z"/><path class="cls-5" d="M4,2A10.94,10.94,0,0,1,5.87,4.6,28.63,28.63,0,0,0,3.75,2.25,30,30,0,0,0,1.4.12,10.78,10.78,0,0,1,4,2Z"/><path class="cls-6" d="M6.8,12c2.51.35,3.8-.15,4.45-1a5,5,0,0,1-4.47-.24c-1.48-1-.62-2.19.29-2.68s2.53,2.1,2.53,2.1a2.49,2.49,0,0,0-.12-1c-.14-.61-.74-.79-1.19-1.11s-.23-.9.35-1.17a2.28,2.28,0,0,1,2.11.1,2.12,2.12,0,0,1,1,1.18c0-.43-.12-.79-.15-1a5.22,5.22,0,0,1,.77-2.14c-.33.44-1.18,1.4-2.09,1.14s0-1.9.29-2.82C9.35,3.92,9.68,6,9.68,6s-3-4-5.94-5.47a19.83,19.83,0,0,1,2,2.22C6.4,3.67,5.52,6.38,3.5,6,2.1,5.7.92,3.13.32,1.55.4,3.08,1.8,5.25,2.18,5.8,2.77,6.38,3.39,7,3.59,7.19c.34.4.38,1.34-.58.59S.16,5.15.16,5.15C-1.22,5.94,6.8,12,6.8,12Z"/><path class="cls-7" d="M32.91,57.41c.55-.55-8.66-16.18-11-21.85s-8-24-8-24-5.68.38-8.1,3.74c0,0,7.64,21.95,9.45,25.29,1.13,2.09,9,17.36,11,24.07C30.28,77.56,30.05,60.32,32.91,57.41Z"/><path class="cls-8" d="M21.29,33.84c-.1-.25-.24-.57-.38-.9l0-.09-.07-.15c-.37-.82-.79-1.61-.79-1.61s-.37-.67-.81-1.38c0-.05-.07-.11-.11-.17-.24-.38-.48-.75-.68-1a1.75,1.75,0,0,0-.35-.44s.11.21.26.5l.61,1.07.23.41.62,1.16s.44.78.85,1.58l.57,1.1c.1.19.17.34.21.42h0s0,.06,0,.06A2.5,2.5,0,0,0,21.29,33.84Zm.11.84c-.35-.7-.75-1.37-.75-1.37s-.42-.66-.88-1.3c-.26-.37-.54-.74-.73-1a1.38,1.38,0,0,0-.24-.25,2.33,2.33,0,0,0,.22.39l.6.93c.41.66.8,1.33.8,1.33s.42.66.82,1.33.77,1.33.81,1.33A7.46,7.46,0,0,0,21.4,34.68Z"/><path class="cls-9" d="M28.31,54.63c-3.16,2.32-8.35-9-9.47-13-.81-2.9,2.88-2.51,5-2.09-.79-1.56-1.46-2.95-1.89-4-.66-1.6-1.59-4.22-2.58-7.14-.29,3.19-1,8.66-2.53,7.93-2.13-1-7.42-14.56-8.26-18.83a5.09,5.09,0,0,1,2.34-5.38,9.48,9.48,0,0,0-5.09,3.17s7.64,21.95,9.45,25.29c1.13,2.09,9,17.36,11,24.07,4,12.89,3.78-4.35,6.64-7.26.21-.21-1-2.71-2.81-6A4.91,4.91,0,0,1,28.31,54.63Z"/><path class="cls-7" d="M57.5,68.52a8.22,8.22,0,0,0,0,.86c0,.17,0,.35,0,.52a9.8,9.8,0,0,0,.61,3.26s0,.07,0,.11l-.09.31a.14.14,0,0,0,0,.06h0q-.6,1.93-1.11,3.9c-.18.65-.35,1.31-.5,2-.34,1.4-.65,2.81-.93,4.22-.22,1.11-.42,2.22-.59,3.33q-.2,1.2-.36,2.4c-.22,1.59-.38,3.19-.46,4.79a.76.76,0,0,1,0,.15c0,.44,0,.91,0,1.37v.13H31.71c-.06-.35-.1-.7-.15-1-.12-.74-.23-1.48-.34-2.23q-.46-3.06-.91-6.14c-.84-5.86-1.69-11.74-2.32-17.62h0c-.1-1-.2-1.91-.29-2.87-.12-1.29-.23-2.57-.28-3.86,0-.16,0-.31,0-.46,0-3.24,1.95-5.23,4.66-6.45h0a19.93,19.93,0,0,1,5.09-1.4h0l.23,0q1-.15,2-.24l.34,0h.11l.54,0,.41,0c1.35-.09,2.66-.12,3.86-.13H47l.34.05,1.37.25.38.08c2.7.52,7.35,1.54,9.86,2.79h0l.14.07h0a4.69,4.69,0,0,1,.55.32l.07,0s-.15.46-.38,1.23A44.16,44.16,0,0,0,57.5,68.52Z"/><path class="cls-9" d="M59.72,56.68s0,.07-.07.2-.19.61-.34,1.14a43,43,0,0,0-1.81,10.5,8.22,8.22,0,0,0,0,.86c0,.17,0,.35,0,.52A9.5,9.5,0,0,0,58.17,73l0,.13-.1.34a.84.84,0,0,0-.05.17,97.87,97.87,0,0,0-3.41,15.55c-.22,1.59-.38,3.19-.46,4.79,0,.12,0,.25,0,.39,0,.44,0,.91,0,1.37v.13H31.74c-.07-.43-.12-.86-.18-1.28-.2-1.31-.4-2.62-.59-3.92l-.66-4.45C29.48,80.48,28.65,74.7,28,68.91h0c-.11-1.05-.22-2.1-.32-3.15-.12-1.29-.23-2.57-.28-3.86a1.7,1.7,0,0,1,0-.22C27.35,58.32,29.24,56.28,32,55h0a19.89,19.89,0,0,1,5.33-1.48l.27,0c.6-.08,1.21-.16,1.82-.21l.23,0h0l.5,0,.26,0c1.58-.11,3.13-.15,4.51-.15h2l.14,0,.25,0c.28.05.72.12,1.26.23l.43.08c2.74.53,7.51,1.57,10,2.86h0l0,0A6,6,0,0,1,59.72,56.68Z"/><path class="cls-9" d="M31.71,95.9c-.06-.35-.1-.7-.15-1-.12-.74-.23-1.48-.34-2.23s-.19-1.34-.29-2l0,.08a11.41,11.41,0,0,0,4.63,5.2Z"/><path class="cls-9" d="M58.06,73.64h0q-.6,1.93-1.11,3.9c-.17.65-.34,1.31-.5,2-.34,1.4-.65,2.81-.93,4.22-.22,1.11-.42,2.22-.59,3.33q-.2,1.2-.36,2.4c-.22,1.59-.38,3.19-.46,4.79a.76.76,0,0,1,0,.15c0,.44,0,.91,0,1.37v.13H46.54l.83-.37a5.48,5.48,0,0,0,1.29-.86c4.79-4.1,6.82-17,7.53-23.86a0,0,0,0,1,0,0c0-.17,0-.32.05-.47v0c.22-2.27.29-3.75.26-3.82s.69,2.89,1.53,7c0,0,0,.07,0,.1S58.06,73.63,58.06,73.64Z"/><path class="cls-9" d="M48.58,59.71v0Z"/><path class="cls-10" d="M41.61,94.2a2.64,2.64,0,0,0,0-.28c0-.38,0-.74,0-1a3.24,3.24,0,0,0,0-.6,2.44,2.44,0,0,0,0,.6c0,.28,0,.64,0,1v.28c0,.69,0,1.37,0,1.7h.26C41.65,95.58,41.63,94.89,41.61,94.2Z"/><path class="cls-9" d="M45.91,82.76c-.54-6.87-1.46-13.73-2.56-20.53A5,5,0,0,0,45,60.65h0c.31-.44.5-.78.5-.78s0,0,0-.06h0a1.94,1.94,0,0,0-.37-1.18,4.31,4.31,0,0,0-2-1.72h0a1.33,1.33,0,0,0-.37-.09.64.64,0,0,0-.27,0,1.2,1.2,0,0,0-.48.24,9.23,9.23,0,0,0-1.93,2.38A4.13,4.13,0,0,0,40.57,61a2.8,2.8,0,0,0,1.21,1.2c0,.13-.11.86-.26,2-.61,4.7-2.1,16.33-2.47,20-.12,1.2-.28,2.4-.44,3.6,0,.36-.1.72-.13,1.08a9,9,0,0,0,.36,4.11c.06.15.11.31.18.47l.26.62a16.39,16.39,0,0,0,1,1.89H44A11.16,11.16,0,0,0,45,94.06h0C46.64,90.61,46.23,86.89,45.91,82.76Z"/><path class="cls-11" d="M45.52,83.86c0-.44-.07-.89-.11-1.34C44.88,75.64,44,68.78,42.86,62a4.58,4.58,0,0,0,1.49-1.35l.15-.21a2.14,2.14,0,0,0,.13-.19,2.21,2.21,0,0,0,.21-.33c.11-.17.17-.28.17-.28a1.55,1.55,0,0,0-.19-.93h0a2.68,2.68,0,0,0-.18-.33,1.51,1.51,0,0,0-.18-.26,3.25,3.25,0,0,0-.23-.29L44,57.53l-.15-.15-.21-.18h0a2.67,2.67,0,0,0-.41-.3h0a2.15,2.15,0,0,0-.77-.32l-.1,0a.79.79,0,0,0-.46.1c-1,.47-2.21,2.55-2.21,2.55A4.07,4.07,0,0,0,40,60.61a1.62,1.62,0,0,0,.1.18,2.92,2.92,0,0,0,.21.32,2.47,2.47,0,0,0,1,.81.2.2,0,0,1,0,.07.91.91,0,0,0,0,.27,4.22,4.22,0,0,1-.06.42.19.19,0,0,1,0,.08c0,.19-.05.41-.08.64S41,64,41,64.29s-.07.52-.11.81c-.07.57-.15,1.2-.24,1.87,0,.28-.07.58-.11.88-.71,5.48-1.68,13.19-2,16-.1,1.05-.24,2.08-.37,3.11,0,.17,0,.33-.07.49a10.49,10.49,0,0,0,.23,5.19c.08.22.16.44.26.66s.2.47.31.7a15.58,15.58,0,0,0,1,1.87h3.33c.12-.15.22-.3.33-.45s.18-.27.26-.41A.64.64,0,0,0,44,94.9c.09-.14.18-.29.26-.44l.23-.44h0a.08.08,0,0,1,0,0,9.49,9.49,0,0,0,.46-1.1,8.35,8.35,0,0,0,.3-1c0-.14.07-.28.1-.42a1.6,1.6,0,0,0,.05-.21c0-.07,0-.14,0-.21,0-.22.08-.43.11-.65s.09-.62.11-.93,0-.58,0-.88,0-.59,0-.89v-.37C45.7,86.21,45.62,85.05,45.52,83.86Z"/><path class="cls-12" d="M45.71,87.71c0,.3,0,.6,0,.89s0,.59,0,.88-.06.62-.11.93-.07.43-.11.65c0,.07,0,.14,0,.21a1.6,1.6,0,0,1-.05.21c0,.14-.06.28-.1.42a8.35,8.35,0,0,1-.3,1,11.63,11.63,0,0,1-.46,1.1.08.08,0,0,0,0,0h0l-.23.44c-.08.15-.17.3-.26.44a.64.64,0,0,1-.08.14c-.08.14-.17.27-.26.41s-.21.3-.33.45H40a15.58,15.58,0,0,1-1-1.87c-.11-.23-.22-.47-.31-.7s-.18-.44-.26-.66a10.49,10.49,0,0,1-.23-5.19c0-.16,0-.32.07-.49a16.07,16.07,0,0,0,.3,1.82c.79,3.47,2.62,5.36,4.65,1.21,2.43-5-.27-26.55-.92-26.94-.19-.11-.43.36-.69,1.08a37.34,37.34,0,0,0-1,3.69c0-.3.08-.6.11-.88.09-.67.17-1.3.24-1.87,0-.29.07-.56.11-.81s.08-.62.11-.89.06-.45.08-.64a.19.19,0,0,0,0-.08q.07-.49.09-.69a.2.2,0,0,0,0-.07,2.47,2.47,0,0,1-1-.81,2.92,2.92,0,0,1-.21-.32,1.62,1.62,0,0,1-.1-.18,3.74,3.74,0,0,0,.55.36,1.88,1.88,0,0,0,2.16,0,2.09,2.09,0,0,0,.58-1.61A7.08,7.08,0,0,0,43.15,58h0a5.27,5.27,0,0,0-.34-1.11l.8.35h0l.21.18.15.15.25.27a3.25,3.25,0,0,1,.23.29,1.51,1.51,0,0,1,.18.26,2.68,2.68,0,0,1,.18.33h0a1.55,1.55,0,0,1,.19.93s-.06.11-.17.28a2.21,2.21,0,0,1-.21.33,2.14,2.14,0,0,1-.13.19l-.15.21A4.58,4.58,0,0,1,42.86,62c1.1,6.8,2,13.66,2.55,20.54,0,.45.07.9.11,1.34C45.62,85.18,45.71,86.46,45.71,87.71Z"/><path class="cls-13" d="M41.57,59.09c.12-.3.38-.54.35-.6s-.42.07-.67.4a2.07,2.07,0,0,0-.35.75,2,2,0,0,0,.13.81c.16.39.49.63.54.57s-.14-.35-.17-.68a1.91,1.91,0,0,1,0-.63A1.8,1.8,0,0,1,41.57,59.09Zm-1.9,25.2a3.27,3.27,0,0,0-.32,1.19c-.11.6-.17,1.21-.17,1.21s0,.61,0,1.22a3.57,3.57,0,0,0,.17,1.22,4,4,0,0,0,.21-1.21c.06-.6.13-1.2.13-1.2s0-.6,0-1.21A4.4,4.4,0,0,0,39.67,84.29Zm2-18.77c-.15,0-1.21,8.85-1.21,8.85s-.82,8.88-.67,8.89S41,74.42,41,74.42,41.82,65.54,41.67,65.52Z"/><g class="cls-14"><path class="cls-8" d="M35.8,56.15c-.43,1-1.73,1.67-2.41,2.49s-1.5,2-2.18,3a.24.24,0,0,1-.44-.06,4.21,4.21,0,0,1,.95-4.41c.84-1,2.56-2.29,3.92-1.65a.46.46,0,0,1,.16.61Z"/></g><g class="cls-14"><path class="cls-8" d="M53.09,95.9H51.73a1,1,0,0,0,.08-.11A14.83,14.83,0,0,0,52.88,93a.33.33,0,0,1,.6.08A5.13,5.13,0,0,1,53.09,95.9Z"/></g><g class="cls-14"><path class="cls-8" d="M32.51,94.2c.35.58.67,1.17,1.06,1.7h-1a3.82,3.82,0,0,1-.36-1.63A.14.14,0,0,1,32.51,94.2Z"/></g><g class="cls-15"><path class="cls-8" d="M29.39,78.87a2.08,2.08,0,0,0,0-.41c0-.26-.07-.63-.12-1.08-.1-.89-.22-2.09-.33-3.28-.22-2.39-.3-4.78-.3-4.78s-.12-2.39-.05-4.79c0-1.19.11-2.39.19-3.28,0-.45.09-.82.11-1.08a2.61,2.61,0,0,0,0-.42,2.24,2.24,0,0,0-.08.41c0,.26-.1.63-.15,1.08-.11.89-.21,2.09-.28,3.29-.12,2.4,0,4.8,0,4.8s.11,2.4.38,4.79c.13,1.19.28,2.38.42,3.27.06.45.12.82.16,1.08A2.39,2.39,0,0,0,29.39,78.87Z"/></g><path class="cls-8" d="M37.34,66.54l-7.48-.28s.58,8.34,4,7.62S37.34,66.54,37.34,66.54Z"/><path class="cls-4" d="M47.81,49.84,47.24,54s-3,2.92-7.92-.13l.61-4.7S46.1,47.24,47.81,49.84Z"/><path class="cls-6" d="M39.52,52.34c4.2,4.86,8.5-2.7,6.17-1.41-2,1.09-4.95-.42-5.87-.93l0-.16.06-.5a.6.6,0,0,1,.21-.21c.3-.09,1-.26,1.76-.41s1.94-.1,2.84-.22a5.63,5.63,0,0,1,.92.1h0l.41.1h0l.39.13,0,0,.31.15.07,0a3.53,3.53,0,0,1,.32.21l0,0a1.64,1.64,0,0,1,.24.21l.07.07a3.25,3.25,0,0,1,.23.29h0L47.24,54s-3,2.92-7.92-.13Z"/><path class="cls-4" d="M32.28,30.36a2.1,2.1,0,0,0-2.84-.89c-2.07,1.13-1.66,8,1,8.13S32.76,30.26,32.28,30.36Z"/><path class="cls-6" d="M32.28,30.36a2.1,2.1,0,0,0-2.84-.89c-2.07,1.13-1.66,8,1,8.13S32.76,30.26,32.28,30.36Z"/><path class="cls-5" d="M29.38,35.46c0-.05.2,0,.44,0a.48.48,0,0,0,.3-.21.69.69,0,0,0,.06-.45.79.79,0,0,0-.22-.4c-.09-.11-.22-.16-.39-.32a.81.81,0,0,1-.19-.71.6.6,0,0,1,.1-.25.89.89,0,0,1,.16-.2,1,1,0,0,1,.27-.19,1,1,0,0,1,.2-.06h0s0,0,0,0v-.12a1,1,0,0,0,0-.17,2,2,0,0,0-.22-.74c-.22-.48-.6-.69-.58-.76s.47,0,.83.52a2.24,2.24,0,0,1,.4.87c0,.08,0,.16.05.24a1.86,1.86,0,0,1,0,.26c0,.22,0,.43,0,.58a1.69,1.69,0,0,0-.39,0,.25.25,0,0,0-.09,0,.49.49,0,0,0-.13.1.34.34,0,0,0-.06.09s0,0,0,0,.22.19.37.39a1.4,1.4,0,0,1,.29.76,1.13,1.13,0,0,1-.22.78.62.62,0,0,1-.53.22C29.52,35.67,29.36,35.5,29.38,35.46Z"/><path class="cls-16" d="M30.46,37.6c2.69.14,2.3-7.34,1.82-7.24a2.53,2.53,0,0,0-1.43-1.13A4.83,4.83,0,0,1,30.44,32s-.61-1.18-1-.84,0,2.18-.81,2.29c-.25,0-.4-.18-.48-.48C28.1,35.13,28.89,37.52,30.46,37.6Z"/><g class="cls-17"><path class="cls-18" d="M28.52,30.9c-.14.37-.13.75,0,.86s.42-.11.56-.48.13-.75,0-.86S28.67,30.53,28.52,30.9Z"/><path class="cls-18" d="M29.3,29.86a.31.31,0,0,0,.1.36.19.19,0,0,0,.3-.07.31.31,0,0,0-.1-.36A.2.2,0,0,0,29.3,29.86Z"/></g><path class="cls-4" d="M62.12,33.06c.72-6.05-1-16.11-13.73-17.27s-16,12.76-16,12.76a38.69,38.69,0,0,0-2,9.05c-.18,4,1.39,10,10.52,11.76s16.53-1.56,18.66-7.07a4.74,4.74,0,0,0,4.66-3.43C65.16,36.3,64,33.53,62.12,33.06Z"/><g class="cls-15"><path class="cls-6" d="M62.12,33.06a19.48,19.48,0,0,0-.24-6.17,15.68,15.68,0,0,0-1.71-4.54c1.58,3.25,1.52,7.93,1.18,10.75.15,0,.55,0,.81,0Z"/><path class="cls-6" d="M63.71,34.24a5.41,5.41,0,0,1,.07,3.67,4.73,4.73,0,0,1-4.66,3.42c-2.12,5.52-9.54,8.79-18.66,7.08-4.81-.91-7.51-3-9-5.39,1.3,2.75,4.06,5.32,9.5,6.34,9.12,1.72,16.53-1.56,18.66-7.07a4.74,4.74,0,0,0,4.66-3.43A5.25,5.25,0,0,0,63.71,34.24Z"/></g><path class="cls-19" d="M37.49,34.24c-.08,1.22-.7,2.16-1.38,2.11s-1.17-1.09-1.09-2.3.7-2.17,1.38-2.11S37.57,33,37.49,34.24Z"/><path class="cls-20" d="M37,32.24a3.83,3.83,0,0,1,.07,1c-.08,1.22-.7,2.17-1.38,2.11a.87.87,0,0,1-.55-.3c.15.75.53,1.29,1,1.33.68,0,1.3-.89,1.38-2.11A2.8,2.8,0,0,0,37,32.24Z"/><path class="cls-21" d="M35.29,33.68c-.06.42.06.79.28.82s.43-.26.49-.68S36,33,35.79,33,35.36,33.27,35.29,33.68Z"/><path class="cls-21" d="M36.23,32.64a.17.17,0,0,1-.17.16.17.17,0,0,1-.15-.18.16.16,0,0,1,.17-.16A.17.17,0,0,1,36.23,32.64Z"/><path class="cls-19" d="M51.89,36.51c-.24,1.19-1,2.05-1.64,1.91s-1-1.22-.78-2.41,1-2.06,1.64-1.92S52.13,35.31,51.89,36.51Z"/><path class="cls-20" d="M51.65,34.51a4.56,4.56,0,0,1-.07.8c-.24,1.19-1,2-1.64,1.92a.88.88,0,0,1-.54-.42c0,.84.33,1.51.85,1.61s1.4-.72,1.64-1.91A2.82,2.82,0,0,0,51.65,34.51Z"/><path class="cls-21" d="M49.89,35.64c-.12.4,0,.78.16.85s.47-.22.59-.62,0-.78-.17-.85S50,35.24,49.89,35.64Z"/><path class="cls-21" d="M51,34.72a.18.18,0,0,1-.19.14.17.17,0,0,1-.12-.2.16.16,0,0,1,.19-.14A.17.17,0,0,1,51,34.72Z"/><path class="cls-5" d="M62.2,40.1a.89.89,0,0,1-.44.72.64.64,0,0,1-.39.11.68.68,0,0,1-.45-.26,1.08,1.08,0,0,1-.23-.59A.79.79,0,0,1,61,39.4a2,2,0,0,1,.41-.23.7.7,0,0,0,.21-.21.85.85,0,0,0,.1-.56.44.44,0,0,0-.26-.32l-.11,0h-.13l-.06,0,0,0-.11.14a.49.49,0,0,1-.42.24.42.42,0,0,1-.23-.13.51.51,0,0,1-.11-.27,3.51,3.51,0,0,1,0-.79,5.21,5.21,0,0,1,.08-.55,3.33,3.33,0,0,1,.37-1,1.82,1.82,0,0,1,.59-.61c.42-.25.73-.13.72-.09s-.28.07-.59.36a2.24,2.24,0,0,0-.65,1.46,3.87,3.87,0,0,0,0,.48.92.92,0,0,0,0,.16c0,.06.07,0,.07,0h0l.09-.07L61,37.3a.88.88,0,0,1,.31,0,.76.76,0,0,1,.26.07.89.89,0,0,1,.24.17,1.19,1.19,0,0,1,.39.78A1.53,1.53,0,0,1,62,39.38a1,1,0,0,1-.42.36c-.16.06-.29.09-.36.13a.24.24,0,0,0-.1.19.62.62,0,0,0,.09.32.38.38,0,0,0,.48.16C62,40.4,62.16,40.06,62.2,40.1Z"/><path class="cls-18" d="M63.18,35.3c.24.29.54.4.67.23s0-.53-.21-.82-.55-.4-.67-.23S62.94,35,63.18,35.3Z"/><path class="cls-18" d="M62.29,33.89a.31.31,0,0,0,.1.36.19.19,0,0,0,.3-.07.33.33,0,0,0-.1-.36A.2.2,0,0,0,62.29,33.89Z"/><path class="cls-6" d="M44.26,39.08a4.94,4.94,0,0,1-3.73-1.51s-1.17.55.67,1.52C43.65,40.38,44.26,39.08,44.26,39.08Z"/><path class="cls-5" d="M43.09,39.49a5.79,5.79,0,0,1-.8-.07,4.88,4.88,0,0,1-1.59-.76,1.06,1.06,0,0,1-.46-.63.48.48,0,0,1,.29-.46,1.15,1.15,0,0,1,.47-.15h.19a2.64,2.64,0,0,1,.46,0,2.92,2.92,0,0,1,.53.15l.32.16a5.63,5.63,0,0,1,.65.53c0-.28.07-.59.1-.91,0-.17,0-.35,0-.54l.09-1.09a5,5,0,0,0,0-1.23,4.82,4.82,0,0,0-.29,1.19c-.06.34-.13.72-.19,1.09,0,.19-.07.37-.1.54a.16.16,0,0,1,0,.08l-.06-.06a2.72,2.72,0,0,0-.37-.2,2.81,2.81,0,0,0-.63-.22,2.66,2.66,0,0,0-.57-.06,2.07,2.07,0,0,0-.92.27,1.14,1.14,0,0,0-.35.37.9.9,0,0,0-.11.58,1.41,1.41,0,0,0,.69.89,4.65,4.65,0,0,0,1.76.65A1.17,1.17,0,0,0,43.09,39.49Z"/><path class="cls-22" d="M41.54,37.78c-.07.12.08.33.33.46s.51.16.57,0-.08-.32-.33-.46S41.6,37.67,41.54,37.78Z"/><path class="cls-6" d="M37,35.77a2,2,0,0,0-.26-.24,4.07,4.07,0,0,0-.57-.39,5.18,5.18,0,0,0-1-.46l-.15,0a4.52,4.52,0,0,0-.61-.15,4.17,4.17,0,0,0-1.74.07l-.21.06a1.82,1.82,0,0,0-1.22,1.11,1.78,1.78,0,0,0,.23,1.45,4.07,4.07,0,0,0,1.95,1.56,2.74,2.74,0,0,0,.4.15,4.68,4.68,0,0,0,1.34.24h0a2.94,2.94,0,0,0,2.12-.6,1.55,1.55,0,0,0,.47-.69A2.06,2.06,0,0,0,37,35.77ZM52,37.84a4.72,4.72,0,0,0-.53-.18,4.18,4.18,0,0,0-.72-.15,5.36,5.36,0,0,0-1,0l-.19,0a3.63,3.63,0,0,0-1.47.45,1.79,1.79,0,0,0-1,1.31c-.13,1,.71,1.88,2,2.36l.19.07h0a5.38,5.38,0,0,0,.94.21,4.87,4.87,0,0,0,.65.05,4.21,4.21,0,0,0,2.14-.52l.16-.1h0l0,0,0,0,0,0s0,0,0,0h0a1.65,1.65,0,0,0,.57-1,.22.22,0,0,0,0-.08C53.94,39.18,53.16,38.31,52,37.84Z"/><path class="cls-6" d="M57,23.56C46,30.62,34.65,24,34.65,24a15.47,15.47,0,0,0-2,3.62c1-3.11,4.91-12.8,15.71-11.81C61.16,17,62.84,27,62.12,33.06a2.46,2.46,0,0,1,.9.45,5.5,5.5,0,0,1-.87.6c-2.12.75-2.16,4.44-3.27,3.4s0-4.74,0-4.74C56.8,30.57,57,23.56,57,23.56Z"/><path class="cls-23" d="M62.65,33.13A7.31,7.31,0,0,0,66.25,27c.34-5.35-2.63-8-7.13-8.22,0,0-3.95-7.31-10.69-7.74s-9.11,5-11.71,4.4-3.33-1.55-3.33-1.55-.37,2.81.87,3.86a11.64,11.64,0,0,1-2.8-1.45,10,10,0,0,0,.85,5.75s-1.84,3-1.23,5.17a17.36,17.36,0,0,1,.66,3.17s1.95-5.79,3.41-7.42c0,0,11.4,6.63,22.35-.43,0,0-.19,7,1.88,9.22,0,0-1.1,3.69,0,4.73S60.53,33.88,62.65,33.13Z"/><path class="cls-11" d="M56.64,35l.65-.2,2.62-.8,1.48-.43.67-.19c.13,0,.49-.2.59-.14l.25.17a.66.66,0,0,0-.26-.7c-.18-.13-.39,0-.59,0L60.78,33l-4.35,1.09Z"/><path class="cls-24" d="M56.6,34.81l-.07-.32c1.62-.4,3.24-.8,4.86-1.22.29-.07,1.34-.49,1.53-.09a.77.77,0,0,1,0,.15.3.3,0,0,0-.16-.07l-.09-.06c-.1-.06-.46.1-.59.14l-.26.07-.17.05-.07,0-.17.05-.72.21-.5.15-.11,0-.15,0-1.71.52-.75.23h0l-.13,0-.65.2,0-.12Z"/><path class="cls-11" d="M44.9,33.59l.43-.74a5.72,5.72,0,0,0-4-.65l.24.83A5,5,0,0,1,44.9,33.59Z"/><path class="cls-24" d="M44.9,33.59A5,5,0,0,0,41.61,33l-.1-.37a5.71,5.71,0,0,1,3.57.62Z"/><path class="cls-13" d="M56.43,34.65S51,30.06,45.17,33.27c0,0-1.42,8.21,4.44,8.91S56.43,34.65,56.43,34.65Z"/><path class="cls-13" d="M48.35,32.2l2.5,10a5.16,5.16,0,0,1-1.24,0,3.85,3.85,0,0,1-.49-.08l-2.53-9.47A9.2,9.2,0,0,1,48.35,32.2Z"/><path class="cls-13" d="M52.44,32.58l1.89,7.55a5.86,5.86,0,0,1-1.4,1.32l-2.47-9.27A10.21,10.21,0,0,1,52.44,32.58Z"/><path class="cls-13" d="M45.05,34.41a10.75,10.75,0,0,1,.12-1.14c5.79-3.21,11.26,1.38,11.26,1.38s-.07.54-.26,1.35A10.41,10.41,0,0,1,45.05,34.41Z"/><path class="cls-11" d="M56.81,34.42l-.14-.12-.24-.18c-1.13-.83-6-4.06-11.23-1.35l-.21.11-.18.1,0,.16v0s0,.13-.05.31c-.13,1.07-.44,4.58,1.17,7a4.92,4.92,0,0,0,3.66,2.16l.24,0c5.43.45,6.78-6.41,7-7.73,0-.13,0-.21,0-.22l0-.24Zm-4,6.61a4.16,4.16,0,0,1-2.07.75,5,5,0,0,1-1.09,0l-.46-.07h0l-.18,0h0a4.05,4.05,0,0,1-2.45-1.7,9,9,0,0,1-1.11-5.23h0c0-.51.07-.91.1-1.14a8.39,8.39,0,0,1,1.17-.5,7.63,7.63,0,0,1,1.76-.42,8.82,8.82,0,0,1,2.12,0,9.64,9.64,0,0,1,2,.44h0A12.44,12.44,0,0,1,56,34.85a13,13,0,0,1-.28,1.33,10.65,10.65,0,0,1-1.52,3.46c-.11.15-.22.3-.34.44A4.94,4.94,0,0,1,52.82,41Z"/><path class="cls-24" d="M56.19,34.53a12.1,12.1,0,0,0-3.75-1.93h0l-.27-.09c-.2-.06-.41-.11-.61-.15L51,32.25l-.21,0h-.11l-.2,0-.17,0H50a8.82,8.82,0,0,0-1.61.08,7.86,7.86,0,0,0-1.76.45,7.63,7.63,0,0,0-1.17.54l-.17.1,0,.19c0,.05-.07.41-.11,1a9.56,9.56,0,0,0,1.14,5.74,4.46,4.46,0,0,0,1.87,1.58l.17.07a.49.49,0,0,0,.17.06,1.35,1.35,0,0,0,.34.11h0l.12,0,.18,0a1.93,1.93,0,0,0,.36.06h0l.12,0,.22,0h.63l.37,0h0a2.2,2.2,0,0,0,.37-.06,2.22,2.22,0,0,0,.37-.09l.09,0a4.62,4.62,0,0,0,.76-.3,4.39,4.39,0,0,0,.47-.27L53,41.4l.09-.06,0,0,0,0,0,0,0,0s0,0,0,0h0l0,0,.08-.07.29-.26a5.35,5.35,0,0,0,.62-.72h0A11,11,0,0,0,56.1,36h0a10.38,10.38,0,0,0,.22-1.13l0-.22Zm-2,5.11c-.11.15-.22.3-.34.44a4.94,4.94,0,0,1-1,1,4.16,4.16,0,0,1-2.07.75,5,5,0,0,1-1.09,0l-.46-.07h0l-.18,0h0a4.05,4.05,0,0,1-2.45-1.7,9,9,0,0,1-1.11-5.23h0c0-.51.07-.91.1-1.14a8.39,8.39,0,0,1,1.17-.5,7.63,7.63,0,0,1,1.76-.42,8.82,8.82,0,0,1,2.12,0,9.64,9.64,0,0,1,2,.44h0A12.44,12.44,0,0,1,56,34.85a13,13,0,0,1-.28,1.33A10.65,10.65,0,0,1,54.2,39.64Z"/><path class="cls-13" d="M41.45,32.59s-5.07-5-11.1-2.31c0,0-2.1,8.06,3.68,9.26S41.45,32.59,41.45,32.59Z"/><path class="cls-13" d="M33.6,29.49l1.67,10.16A5.44,5.44,0,0,1,34,39.54l-.48-.13-1.73-9.65A8.18,8.18,0,0,1,33.6,29.49Z"/><path class="cls-13" d="M37.64,30.2l1.26,7.68a5.83,5.83,0,0,1-1.5,1.2l-1.69-9.44A9.43,9.43,0,0,1,37.64,30.2Z"/><path class="cls-13" d="M30.13,31.41a10.42,10.42,0,0,1,.22-1.13c6-2.72,11.1,2.31,11.1,2.31a12.56,12.56,0,0,1-.37,1.32A10.4,10.4,0,0,1,30.13,31.41Z"/><path class="cls-11" d="M41.72,32.27l-.13-.12c-.73-.66-4.62-3.9-9.41-2.92h0l-.57.14h0a.76.76,0,0,0-.2.06h0l-.45.14c-.23.09-.47.18-.71.29L30,30l-.06.21s-.09.34-.17.8l0,.15a.77.77,0,0,1,0,.15A12.29,12.29,0,0,0,29.59,33a10.46,10.46,0,0,0,0,1.12h0a9.16,9.16,0,0,0,.16,1.36l.06.27h0a6.57,6.57,0,0,0,.66,1.76s0,0,0,0l.06.1A4.9,4.9,0,0,0,33.94,40l.24,0c5.23.88,7.18-5.46,7.57-7l.08-.33V32.6l0-.17Zm-6.53,7a5.25,5.25,0,0,1-1.08-.12,4.43,4.43,0,0,1-.65-.18,3.89,3.89,0,0,1-2.12-1.62,2.11,2.11,0,0,1-.18-.27,5.57,5.57,0,0,1-.52-1.26v0c0-.19-.09-.37-.12-.56h0a6.26,6.26,0,0,1-.12-1h0c0-.28,0-.56,0-.82a13.72,13.72,0,0,1,.1-1.4v0a.68.68,0,0,1,0-.15c.06-.51.14-.91.19-1.14l.19-.07a7.77,7.77,0,0,1,.85-.29l.1,0,.07,0h0l.22-.05a7.78,7.78,0,0,1,1.55-.21,8.51,8.51,0,0,1,2.11.18,10,10,0,0,1,1.94.61,12.6,12.6,0,0,1,3.28,2c-.07.27-.19.74-.39,1.31a10.55,10.55,0,0,1-1.79,3.32,5.26,5.26,0,0,1-1.5,1.28A4.23,4.23,0,0,1,35.19,39.23Z"/><path class="cls-24" d="M41.22,32.46a12,12,0,0,0-3.58-2.25l-.09,0L36.93,30l-.22-.07-.11,0-.17-.05h0l-.11,0-.12,0-.45-.09q-.41-.08-.84-.12a8.81,8.81,0,0,0-1.26,0,8.93,8.93,0,0,0-1.57.24h0l-.05,0-.09,0,0,0h0l-.15.05h0a5.51,5.51,0,0,0-.74.27l-.32.13-.17.08-.05.19s-.09.37-.17.87c0,0,0,0,0,.06h0s0,.06,0,.09-.05.35-.07.54h0c0,.18,0,.36-.06.56s0,.5,0,.76v.25c0,.27,0,.55,0,.84h0c0,.21.05.41.09.62a3.4,3.4,0,0,0,.09.46,5.82,5.82,0,0,0,.3,1,4.32,4.32,0,0,0,.32.69,1.64,1.64,0,0,0,.14.22,4.37,4.37,0,0,0,1.17,1.25l.2.14.22.12.22.12.23.1a3.82,3.82,0,0,0,.51.18,4.07,4.07,0,0,0,.5.13l.22,0h.11l.21,0h.1l.48,0,.43,0,.45-.07a3,3,0,0,0,.43-.1l.42-.14.38-.18.12-.07.06,0h0l.32-.21c.18-.13.36-.26.52-.4l.36-.34.21-.23A11.25,11.25,0,0,0,41,33.93a9,9,0,0,0,.3-1.1l0-.22Zm-2.4,4.92a5.26,5.26,0,0,1-1.5,1.28,4.23,4.23,0,0,1-2.13.57,5.25,5.25,0,0,1-1.08-.12,4.43,4.43,0,0,1-.65-.18,3.89,3.89,0,0,1-2.12-1.62,2.11,2.11,0,0,1-.18-.27,5.57,5.57,0,0,1-.52-1.26v0c0-.19-.09-.37-.12-.56h0a6.26,6.26,0,0,1-.12-1h0c0-.28,0-.56,0-.82a13.72,13.72,0,0,1,.1-1.4v0a.68.68,0,0,1,0-.15c.06-.51.14-.91.19-1.14l.19-.07a7.77,7.77,0,0,1,.85-.29l.1,0,.07,0h0l.22-.05a7.78,7.78,0,0,1,1.55-.21,8.51,8.51,0,0,1,2.11.18,10,10,0,0,1,1.94.61,12.6,12.6,0,0,1,3.28,2c-.07.27-.19.74-.39,1.31A10.55,10.55,0,0,1,38.82,37.38Z"/><path class="cls-23" d="M51.71,29.87c0,.1.42.06.74.15a8.78,8.78,0,0,1,1.12.56c.27.19.46.51.57.49s.11-.46-.13-.86a1.76,1.76,0,0,0-.4-.48,2,2,0,0,0-.23-.17,2.06,2.06,0,0,0-.29-.09,2.09,2.09,0,0,0-.62,0C52,29.5,51.66,29.77,51.71,29.87Z"/><path class="cls-23" d="M36.24,27.38c.07.09.43-.07.77-.15a1.56,1.56,0,0,1,.61-.06l.16,0a.93.93,0,0,1,.39.05,1.1,1.1,0,0,1,.37.2c.09.07.16.16.22.15s.09-.12.06-.3a1,1,0,0,0-.35-.54,1.5,1.5,0,0,0-.59-.3,1.58,1.58,0,0,0-.31,0,1.16,1.16,0,0,0-.28.07,2,2,0,0,0-.54.29C36.4,27,36.18,27.3,36.24,27.38Z"/><path class="cls-25" d="M33,27A.05.05,0,0,0,33,27s0,0,0,0a.1.1,0,0,1,0,0h-.06a1.13,1.13,0,0,1-.44,0,1,1,0,0,1-.26-.12L32,26.81a.83.83,0,0,1-.15-.13l-.15-.14a2.08,2.08,0,0,1-.26-.38c-.17-.3-.28-.63-.32-.63a1.49,1.49,0,0,0,.14.71,1.9,1.9,0,0,0,.25.45,1.36,1.36,0,0,0,.15.19l.2.14a.9.9,0,0,0,.22.1,1.07,1.07,0,0,0,.27.08.84.84,0,0,0,.45,0h.07a.19.19,0,0,0,.09,0s0,0,0,0h0s0,0,0,0h0Zm.88-1.09a1.14,1.14,0,0,1-.38-.07h0a.42.42,0,0,1-.14-.06h0l-.1-.05a1.7,1.7,0,0,1-.53-.44,2.45,2.45,0,0,1-.19-.25l0,0a1.5,1.5,0,0,1-.15-.24,4.75,4.75,0,0,1-.32-.64c-.1-.25-.21-.49-.27-.67a1.56,1.56,0,0,1-.05-.22h0c0-.06,0-.09,0-.09s-.05.1-.05.24a.38.38,0,0,0,0,.1,4.74,4.74,0,0,0,.19.71,4.25,4.25,0,0,0,.28.7,3.07,3.07,0,0,0,.17.3l.16.2.06.07a2.06,2.06,0,0,0,.63.44l.12.05h0l.13,0h0a1.79,1.79,0,0,0,.45,0c.21,0,.33-.1.33-.12S34.09,25.93,33.9,25.92Zm26.84,9.66-.1-.08h0A3.11,3.11,0,0,1,60.1,35a3.69,3.69,0,0,1-.53-.9h0s-.06-.15-.11-.29-.08-.24-.12-.38a3,3,0,0,1-.06-.32,4,4,0,0,1,0-.85v0a.84.84,0,0,0,0-.21,2.07,2.07,0,0,0-.2,1.09,2.21,2.21,0,0,0,0,.37,1.93,1.93,0,0,0,.09.38,1.1,1.1,0,0,0,.1.31.06.06,0,0,0,0,0,3.6,3.6,0,0,0,.64.93,2.89,2.89,0,0,0,.62.47h0l.1.06.2.07S60.83,35.65,60.74,35.58Zm.9-4.34s-.08.15-.15.36c0,0,0,0,0,0v0a1.36,1.36,0,0,1-.09.23A6.27,6.27,0,0,1,60.65,33l-.07.08a5.65,5.65,0,0,0-.42.41,1.39,1.39,0,0,0,.63-.35L61,33a3.42,3.42,0,0,0,.32-.37s.07-.12.15-.3h0a2.2,2.2,0,0,0,.13-.34A1.55,1.55,0,0,0,61.64,31.24ZM65.15,27a6.67,6.67,0,0,0-.16.81,4.87,4.87,0,0,1-.16.6,7.75,7.75,0,0,1-.56,1.32A7.88,7.88,0,0,1,63.52,31c-.42.57-1,1-1,1.08a4.52,4.52,0,0,0,1.12-1,7,7,0,0,0,.84-1.21s.1-.19.21-.47a6.71,6.71,0,0,0,.29-.92,4.79,4.79,0,0,0,.12-.71.07.07,0,0,1,0-.05s0-.06,0-.09A2,2,0,0,0,65.15,27ZM60.06,32a15.71,15.71,0,0,1-1-1.78,16.55,16.55,0,0,1-.71-1.89c-.08-.26-.13-.47-.17-.63h0c0-.15-.07-.24-.07-.24s0-.09,0-.25-.1-.37-.15-.64a16.24,16.24,0,0,1-.25-2c0-.18,0-.35,0-.52a13.92,13.92,0,0,1,0-1.5,8,8,0,0,0,.07-.93,1,1,0,0,0-.06.25,5.27,5.27,0,0,0-.11.66c0,.37-.09.83-.11,1.31a1,1,0,0,0,0,.17c0,.18,0,.37,0,.56a17.13,17.13,0,0,0,.15,1.74s0,.05,0,.07,0,.16,0,.23c0,.25.09.46.12.61s0,0,0,.05.05.25.05.25,0,.09.07.25.1.39.2.65a14.51,14.51,0,0,0,.77,1.89A13.22,13.22,0,0,0,60,32a5.65,5.65,0,0,0,.41.54,1.35,1.35,0,0,0,.17.19A8.1,8.1,0,0,0,60.06,32ZM34.93,23.29h0a2.51,2.51,0,0,1-.3-.06h0a2.18,2.18,0,0,1-.75-.35,3.23,3.23,0,0,1-.59-.57A3,3,0,0,1,33,22l-.22-.31c-.13-.19-.3-.46-.45-.73-.28-.48-.51-1-.59-1.09A5.25,5.25,0,0,0,32.17,21a7.55,7.55,0,0,0,.41.77c.12.21.21.34.21.34s.1.13.26.31a3.1,3.1,0,0,0,.68.57,2.11,2.11,0,0,0,.82.3h0a1.74,1.74,0,0,0,.33,0s.07,0,.07,0Zm3.19-.48c-.39-.2-.89-.48-1.38-.79-.32-.2-.64-.41-.91-.62h0c-.56-.41-1-.74-1-.74a12.59,12.59,0,0,1-1.69-1.55,7.6,7.6,0,0,1-.92-1.28c-.21-.36-.31-.63-.33-.63a2.65,2.65,0,0,0,.24.68A6.4,6.4,0,0,0,33,19.23a11.69,11.69,0,0,0,1.12,1.17c.33.29.56.47.56.47s.4.33,1,.72h0a10.39,10.39,0,0,0,1,.6,13.68,13.68,0,0,0,1.43.72,4.44,4.44,0,0,0,.69.25S38.49,23,38.12,22.81Zm7.8-9-.7.38-.67.41a4.41,4.41,0,0,0-.66.43,4.13,4.13,0,0,0,.75-.26c.37-.16.72-.35.72-.35s.34-.21.66-.45.63-.49.6-.52A3.64,3.64,0,0,0,45.92,13.77Zm-5.24,6-.52,0h0c-.38,0-.8-.08-1.22-.15s-.87-.15-1.24-.24h0l-.47-.14a5,5,0,0,1-.74-.3,3.43,3.43,0,0,1-.69-.38,4,4,0,0,1-1.16-1.26,9,9,0,0,1-.72-1.61c-.17-.44-.27-.75-.29-.75a6,6,0,0,0,.19.78,7.79,7.79,0,0,0,.65,1.67,4,4,0,0,0,1.91,1.8,6.16,6.16,0,0,0,.77.28l.35.1h0a10.87,10.87,0,0,0,1.41.24l.49,0a12.29,12.29,0,0,0,1.3.05,3.5,3.5,0,0,0,.81-.05A6,6,0,0,0,40.68,19.76Zm0-2.9c-.42,0-1,.06-1.51.05a8.89,8.89,0,0,1-1.49-.14,6,6,0,0,1-.66-.15,5,5,0,0,1-.64-.21,5.59,5.59,0,0,1-1.3-.7,4.46,4.46,0,0,1-1-1.07,2.85,2.85,0,0,1-.21-.32h0c-.1-.14-.14-.24-.15-.24a1,1,0,0,0,.05.17h0a2.56,2.56,0,0,0,.22.45,4.34,4.34,0,0,0,1,1.16,5.72,5.72,0,0,0,1.33.78,4.94,4.94,0,0,0,.66.24s.27.07.69.14a9,9,0,0,0,1.53.08A10.53,10.53,0,0,0,40.69,17a3,3,0,0,0,.67-.14A3.44,3.44,0,0,0,40.68,16.86Zm13.93,5-.47.24-.5.23-.25.1c-.32.14-.65.28-1,.4a16.53,16.53,0,0,1-2.33.63c-.32.07-.59.1-.78.13l-.3.05-.29,0c-.2,0-.47.07-.79.08a17.41,17.41,0,0,1-2.41,0,18.48,18.48,0,0,1-2.39-.36c-.59-.14-1-.25-1.07-.25a1.09,1.09,0,0,0,.28.11,6.39,6.39,0,0,0,.76.24,14.94,14.94,0,0,0,2.4.45,17.14,17.14,0,0,0,2.44,0c.34,0,.61,0,.81-.07l.3,0,.3-.05c.19,0,.47-.07.79-.15A16.34,16.34,0,0,0,52.47,23a16.68,16.68,0,0,0,2.19-1.06c.29-.16.51-.33.68-.43a1.18,1.18,0,0,0,.24-.19S55.17,21.55,54.61,21.85Zm1.67-2.76a2.09,2.09,0,0,0-1-.94,1.45,1.45,0,0,0-.66-.18s.3.16.56.35a3,3,0,0,1,.48.41,3.3,3.3,0,0,1,.44.46c.2.26.34.54.38.54A1.41,1.41,0,0,0,56.28,19.09ZM57.57,19a4.21,4.21,0,0,0-.16-.55,5.39,5.39,0,0,0-.41-.91,5.76,5.76,0,0,0-.37-.63,9,9,0,0,0-1.11-1.34c-.34-.33-.59-.53-.59-.53s-.24-.2-.63-.47a13,13,0,0,0-1.5-.87A16.12,16.12,0,0,0,51.21,13a4.1,4.1,0,0,0-.76-.22,5.9,5.9,0,0,0,.72.32c.43.18,1,.44,1.54.73a13.68,13.68,0,0,1,1.44.9c.38.28.61.48.61.48A9.13,9.13,0,0,1,56.47,17l.21.3a7.61,7.61,0,0,1,.63,1.17c.19.42.28.72.3.72A.79.79,0,0,0,57.57,19Zm1.72,3.86a3.2,3.2,0,0,0-.21-.6,3.14,3.14,0,0,0-.38-.5c-.22-.22-.49-.39-.51-.36s.19.24.36.49a7.59,7.59,0,0,1,.56,1,4,4,0,0,0,.2.57A1.12,1.12,0,0,0,59.29,22.83Zm3.46,3.22v0a7.07,7.07,0,0,0-.25-1.6c-.07-.21-.12-.39-.16-.51l-.07-.18h0s-.11-.27-.32-.67A7.81,7.81,0,0,0,61,21.73a4.74,4.74,0,0,0-1.24-1,1.14,1.14,0,0,0-.71-.19,2.66,2.66,0,0,1,.66.28,5.33,5.33,0,0,1,1.15,1.07,8.1,8.1,0,0,1,.86,1.31,5.52,5.52,0,0,1,.28.65l.08.18.17.49a7.77,7.77,0,0,1,.26,1.2c0,.11,0,.22,0,.34a7.31,7.31,0,0,1,0,1.58,6.62,6.62,0,0,0-.1.72s0-.07.07-.19a2.64,2.64,0,0,0,.13-.51,6,6,0,0,0,.13-1.48.43.43,0,0,0,0,0A.43.43,0,0,1,62.75,26.05Zm.37-4.26a4.62,4.62,0,0,0-.71-.87,4.37,4.37,0,0,0-.95-.6,2.32,2.32,0,0,0-.74-.21.59.59,0,0,0-.35.05s.14,0,.34.06a2.54,2.54,0,0,1,.67.27,4.34,4.34,0,0,1,.85.64,4.41,4.41,0,0,1,.74.77,10.08,10.08,0,0,1,.57.92A2.44,2.44,0,0,0,63.12,21.79Z"/><path class="cls-26" d="M66.18,27.63c-.29,1-.75,2.3-1.2,2.33-.23,0-.29-.23-.26-.56a6.34,6.34,0,0,1,.41-1.63.07.07,0,0,1,0-.05s0-.09,0-.11l0,0-.16.2a12.88,12.88,0,0,1-2.74,2.54,1.32,1.32,0,0,1-.72.22h0c-.81-.07-2.39-1.82-3.31-2.92h0c-.16-.18-.29-.35-.39-.48l-.07-.08c0,.18,0,.37.08.55s.07.44.12.66.09.43.14.64c.09.37.2.74.32,1.08.06.17.12.33.19.49a1.6,1.6,0,0,0,.1.23l.1.21s0,0,0,0l.12.21a2.7,2.7,0,0,0,.22.33,3.11,3.11,0,0,0,.23.28s-.05.15-.11.4v0c-.06.23-.13.52-.19.86,0,.13,0,.26-.07.39s0,.28,0,.42a.77.77,0,0,0,0,.15c0,.05,0,.09,0,.14v.08c0,.1,0,.21,0,.32a5.61,5.61,0,0,0,0,.58v0a.09.09,0,0,0,0,0,1.27,1.27,0,0,0,0,.28s0,0,0,.06a2.66,2.66,0,0,0,.08.33,1.34,1.34,0,0,0,.12.3,1.19,1.19,0,0,0,.23.31.39.39,0,0,0,.1.08.37.37,0,0,0,.15.08.25.25,0,0,0,.12,0l.1,0,0,0a.28.28,0,0,0,.12-.08,1.67,1.67,0,0,0,.12-.13l0,0a5.5,5.5,0,0,0,.43-.82l0-.09v0h0s0,0,0,0c.08-.18.17-.37.27-.56l.23-.4.09-.14s.06-.08.09-.13a3.15,3.15,0,0,1,.24-.3.1.1,0,0,1,0,0,2,2,0,0,1,.25-.25,1.55,1.55,0,0,1,.24-.19h0a1.28,1.28,0,0,1,.27-.16l.05,0h0a.61.61,0,0,1,.14-.07l.13-.07.1-.06h0s0,0,0,0l.18-.12.18-.13.19-.15.45-.38.3-.31c.1-.1.19-.21.29-.33s.25-.31.37-.49.17-.25.25-.38a4.79,4.79,0,0,0,.25-.45l0-.09s0,0,0,0,0,0,0,0,0,0,0,0,0,0,0,0,0,0,0,0h0l0-.05c0-.1.08-.21.13-.32s.13-.34.19-.52l.06-.21a4.92,4.92,0,0,0,.14-.55,6.25,6.25,0,0,0,.12-.65h0s0,0,0-.06S66.19,27.62,66.18,27.63Zm-26.8-7.82.76-.09h0c1.2-.13,2.26-.15,2.26-.15s-3.21-.7-3.65-1.18a.11.11,0,0,1,0-.15,5.37,5.37,0,0,1,1.51-.83l0,0,.05,0h0c.85-.36,1.81-.71,2.36-.88l-.46,0h0c-.94,0-2.35-.11-2.79-.63s.24-1.29.92-2.06l-.16.12-.53.39c-.39.28-.75.54-1.1.74a4.94,4.94,0,0,1-.66.32,1.86,1.86,0,0,1-.43.12,1.64,1.64,0,0,1-.38,0,2.1,2.1,0,0,1-.43,0l-.54-.14-.26-.08-.23-.07L35.24,15l-.05,0-.26-.12a.72.72,0,0,1-.2-.09,1.82,1.82,0,0,1-.37-.18c-.21-.11-.38-.22-.52-.31h0l-.1-.06h0a1.79,1.79,0,0,1-.35-.31s-.37,2.81.87,3.86a11.46,11.46,0,0,1-2.8-1.45,10,10,0,0,0,.84,5.75v0a.43.43,0,0,0,0,.07c0,.06-.09.16-.15.27l.21.23A4.05,4.05,0,0,1,32.5,25c0,.12,0,.25,0,.38a10.62,10.62,0,0,1-.3,1.51l-.06.22a2.56,2.56,0,0,1-.4.86.49.49,0,0,1-.4.15c.06.25.12.48.16.69a4,4,0,0,1,.09.42l0,.14h0a2.23,2.23,0,0,1,0,.23.15.15,0,0,1,0,.06l0,.12a.13.13,0,0,0,0,.06.51.51,0,0,0,0,.13c0,.05,0,.1,0,.14l.12-.25,0-.05,0,0,0-.05.25-.5,0-.06a.53.53,0,0,1,.06-.14.76.76,0,0,1,0-.11s0,0,0,0,.06-.19.1-.29a.14.14,0,0,0,0-.06.06.06,0,0,0,0,0h0c.07-.18.15-.37.22-.57l.22-.57c0-.09.08-.18.11-.27s0,0,0,0h0s0,0,0,0h0c.12-.32.26-.63.39-.94l0-.06h0a1,1,0,0,0,.07-.15l.16-.34c0-.11.1-.22.16-.33a.67.67,0,0,1,.06-.12l0-.06c.06-.14.13-.28.2-.41l.21-.38q.1-.2.21-.36c.11-.19.23-.36.34-.52l0,0h0a2.28,2.28,0,0,1,.22-.28l.06,0,.07,0,.09.05.27.14h0l.21.1c.31.15.71.34,1.2.54.24.1.5.21.79.31s.58.21.9.32l.83.26.2.06h0l2,.39s-5.55-3.44-4.92-4.52C37.19,20.27,38.25,20,39.38,19.81ZM65.25,22h0l0-.06a0,0,0,0,0,0,0A2.2,2.2,0,0,0,65,21.7c-.09-.14-.19-.27-.29-.4a5.22,5.22,0,0,0-.39-.43l-.18-.17-.37-.31a5.22,5.22,0,0,0-.54-.38l-.49-.28-.15-.07a4.25,4.25,0,0,0-.49-.21L62,19.38a5.8,5.8,0,0,0-.59-.19L60.74,19q-.45-.09-.93-.15t-.69-.06L59,18.58l-.06-.1a17,17,0,0,0-1.19-1.72c0,.11.05.22.07.33.13.76-.25.76-.8.42a2.64,2.64,0,0,1-.32-.22,17.37,17.37,0,0,1-1.84-1.65l0,0-.26-.27.4.49,0,0A10.3,10.3,0,0,1,56,17.38c.2.37-.31.36-1,.18h0c-.35-.1-.74-.21-1.14-.35a3.84,3.84,0,0,1-.6-.2c-.7-.25-1.33-.49-1.6-.6a12.55,12.55,0,0,1,3.13,2.31c1.26,1.3-.69,3.13-1.39,3.7l-.14.13c.08-.05.22-.14.39-.23l.5-.23a2.85,2.85,0,0,1,.52-.15,1.62,1.62,0,0,1,1.27.19c.68.47-1.07,1.62-2.53,2.48a5,5,0,0,0,.5-.18l.17-.07q.28-.11.57-.24a21,21,0,0,0,2.86-1.54s0,.48,0,1.22a1,1,0,0,0,0,.17c0,.11,0,.24,0,.37a2.53,2.53,0,0,1,.16-.33.92.92,0,0,1,.44-.47c1.13-.48,2.06,2.12,2.06,2.12s-.32-2.12.35-2.42h0a.12.12,0,0,1,.08,0c.53,0,1.44,1.61,1.89,2.47.11.2.19.37.23.46l0,.07a.35.35,0,0,0,0-.12.43.43,0,0,1,0-.05c-.1-.41-.34-1.45-.48-2.32h0c-.11-.7-.15-1.29,0-1.42.37-.31,1.71,1.39,1.87,1.58C64,23.63,63,21.27,63.39,21S64.61,21.53,65.25,22Z"/><g class="cls-27"><path class="cls-23" d="M64.81,22.23c.72,1.06,1.57,2.66,1.09,4a.25.25,0,0,1-.45,0,12.16,12.16,0,0,1-.5-1.69,8.73,8.73,0,0,0-.78-1.9c-.22-.37.39-.77.64-.41Z"/><path class="cls-23" d="M63.94,24.05a2.51,2.51,0,0,1,1,1.83c.06.64-.08,1.74-.89,1.86-1.46.21-1.14-2.63-.9-3.43a.55.55,0,0,1,.82-.26Z"/><path class="cls-23" d="M61.21,24.35c.48.27.72,1.16.81,1.68a3.68,3.68,0,0,1-.33,2.12.2.2,0,0,1-.39,0,18.63,18.63,0,0,1-.26-2,4.25,4.25,0,0,1,0-1.74.12.12,0,0,1,.18-.06Z"/><path class="cls-23" d="M59.05,24.74s0,.26,0,.31v.57a3.3,3.3,0,0,1-.16.93.22.22,0,0,1-.41,0A9.08,9.08,0,0,1,58,24.62l.22.34-.08-.07a.65.65,0,0,1,.25-1.16c.51-.1,1,.56.65,1Z"/><path class="cls-23" d="M54.44,17.3c-1.12-.05-2-.79-3-1.22a11.08,11.08,0,0,0-3.55-.74.57.57,0,0,1-.32-1c2-1.91,6.61-.58,7.65,1.88a.76.76,0,0,1-.74,1.07Z"/><path class="cls-23" d="M45.8,12.68a6.59,6.59,0,0,0-1,.55,3.69,3.69,0,0,1-1,.52c-.27.07-.39-.24-.28-.44.39-.75,1.5-.84,2.24-.78a.08.08,0,0,1,0,.15Z"/><path class="cls-23" d="M54.33,23.14c-2.2,1.86-5.9,2.55-8.71,2.36-.2,0-.22-.34,0-.36a25.27,25.27,0,0,0,4.14-.64c1.52-.43,2.89-1.17,4.38-1.66.18-.06.37.16.2.3Z"/><path class="cls-23" d="M54.21,20.75c-2.72,2.69-9.94,2.95-13,.86a.41.41,0,0,1,.16-.73c2.2-.2,4.35.31,6.56.1,2-.2,4-1.11,6-1.16.5,0,.58.64.29.93Z"/><path class="cls-23" d="M39.19,21.34a1.67,1.67,0,0,0-.49-.12.79.79,0,0,1-.5-.11.29.29,0,0,1,0-.45c.35-.29.93,0,1.25.22a.26.26,0,0,1-.24.46Z"/><path class="cls-23" d="M49.46,18.06a5.71,5.71,0,0,1-1.49.05,15.83,15.83,0,0,0-2.56.39,6.82,6.82,0,0,1-3.85.09.59.59,0,0,1-.27-.89c1.13-1.45,3.07-1.57,4.79-1.62,1.25,0,3.48-.18,3.74,1.46a.46.46,0,0,1-.36.52Z"/><path class="cls-23" d="M40.31,18.31a1.17,1.17,0,0,1-.48.12,2.36,2.36,0,0,1-.44-.11c-.16,0-.14-.27,0-.34s.25-.15.38-.2a1.14,1.14,0,0,1,.45,0c.26,0,.37.44.1.53Z"/></g><path class="cls-9" d="M47.6,51.87l-.1,0c.21.08-.54,1.61-.68,1.79a4.73,4.73,0,0,1-5,1.71,3.51,3.51,0,0,1-1.91-1.41,4,4,0,0,1-.36-2.76,12.91,12.91,0,0,0-2.73,3.74c-.54,1.27-.28,5.2,1.78,4.39,1-.41,2.16-2.25,3-3.2,0,0,2,4.42,2.81,4.57,1.48.29,3-1.71,3.58-2.77,1-1.73,1.38-4,0-5.62A1.93,1.93,0,0,0,47.6,51.87Z"/><path class="cls-7" d="M47.81,51.1a.33.33,0,0,0-.1-.06c.21.08-.54,1.61-.68,1.8a4.52,4.52,0,0,1-1.39,1.22,4.38,4.38,0,0,1-3.61.48,3.46,3.46,0,0,1-1.91-1.41,4,4,0,0,1-.35-2.76A12.68,12.68,0,0,0,37,54.12c-.54,1.26-.27,5.19,1.78,4.39,1-.41,2.17-2.26,3-3.21,0,0,2,4.42,2.81,4.58,1.48.28,3-1.72,3.58-2.78,1-1.73,1.38-4,0-5.62A1.66,1.66,0,0,0,47.81,51.1Z"/><path class="cls-9" d="M44.76,58.7c2.59-.36,2.08-4.54,2.08-4.54s-1.47,2.27-5,.85-2.24-4-2.08-4.64a4,4,0,0,0,.35,2.76A3.46,3.46,0,0,0,42,54.54a4.38,4.38,0,0,0,3.61-.48A4.52,4.52,0,0,0,47,52.84c.14-.19.89-1.72.68-1.8a.33.33,0,0,1,.1.06,1.66,1.66,0,0,1,.37.38c1.39,1.64,1,3.89,0,5.62-.62,1.06-2.1,3.06-3.58,2.78-.28-.06-.72-.66-1.17-1.41A2.07,2.07,0,0,0,44.76,58.7Z"/><path class="cls-9" d="M41.8,55.3c-.82,1-1.94,2.8-3,3.21-1.75.68-2.2-2.06-2-3.67a6.64,6.64,0,0,0,.87,2.79C38.69,58.82,41.8,55.3,41.8,55.3Z"/><path class="cls-24" d="M39.94,44.13a1.6,1.6,0,0,0,.68.73,2.71,2.71,0,0,0,1.86.13A3.22,3.22,0,0,0,45,42.82c-.79.39-1-.66-1.36-1.09A2.63,2.63,0,0,0,42,40.92l-.43-.05a1.57,1.57,0,0,0-1.2.6A2.68,2.68,0,0,0,39.94,44.13Z"/><path class="cls-7" d="M42,40.92l-.43-.05c-.45,0-1.19.27-1,.74.23.68,1.42.93,2,1.06.14,0,1.5,0,1.52.2C43.91,41.64,43.14,41.12,42,40.92Z"/><path class="cls-28" d="M42,40.92l-.43-.05c-.45,0-1.19.27-1,.74a.35.35,0,0,0,0,.08,2,2,0,0,1,2.15-.17c.71.44.63.89.45,1.18.42,0,.89.07.91.17C43.91,41.64,43.14,41.12,42,40.92Z"/><path class="cls-5" d="M45.27,42.79a1.64,1.64,0,0,0,.82.5.64.64,0,0,1-.33.09A1,1,0,0,1,45,43a1,1,0,0,1-.2-.83.67.67,0,0,1,.14-.31A1.7,1.7,0,0,0,45.27,42.79Z"/><path class="cls-5" d="M42.26,47.31c0,.08-.27.11-.53,0a1.35,1.35,0,0,1-.45-.3,1.47,1.47,0,0,1-.17-.51c0-.27,0-.52.14-.51s.16.21.28.37a1.37,1.37,0,0,0,.25.27A1.56,1.56,0,0,0,42,47C42.1,47.1,42.28,47.22,42.26,47.31Z"/><path class="cls-4" d="M89.25,21.78c1.36-.84,2.91-1.46,4.25-2.25.39-.23,4.39-2.5,3.56-3.2s-2.23.38-2.23.38S99.72,12,96.57,11s-9,4.36-9,4.36,1.2-3.3-2-3c-1.54.15.2,2.71-.15,3.85-.42,1.35-1.1,2.9-.39,4.27l-1,1.22a22.29,22.29,0,0,0,3,2A8.18,8.18,0,0,1,89.25,21.78Z"/><path class="cls-5" d="M87.93,18.12a2.57,2.57,0,0,0-1,1,2.2,2.2,0,0,0-.21.55,3.55,3.55,0,0,1,1.36-1.32,3.45,3.45,0,0,1,1.82-.46,1.74,1.74,0,0,0-.57-.11A2.53,2.53,0,0,0,87.93,18.12Z"/><path class="cls-5" d="M91.57,16.27c.65,1.19,1.13,2.19,1.13,2.19a8.8,8.8,0,0,0-.88-2.33,8.6,8.6,0,0,0-1.48-2S90.93,15.09,91.57,16.27Z"/><path class="cls-5" d="M93.91,17a3.84,3.84,0,0,0-.85.69,4,4,0,0,0,1.84-1.13A3.83,3.83,0,0,0,93.91,17Z"/><path class="cls-5" d="M94.76,14.36a11.48,11.48,0,0,0-2.26,2.06s1-.87,2.43-1.82S97.48,13,97.48,13A11.25,11.25,0,0,0,94.76,14.36Z"/><path class="cls-5" d="M93.91,12.56a11.05,11.05,0,0,0-2.36,2.17,29.84,29.84,0,0,1,2.52-1.92,28,28,0,0,1,2.7-1.65A10.79,10.79,0,0,0,93.91,12.56Z"/><path class="cls-6" d="M89.28,21.82c-2.54-.12-3.71-.85-4.2-1.76a5,5,0,0,0,4.44.58c1.64-.73,1-2,.2-2.68s-2.87,1.6-2.87,1.6a2.59,2.59,0,0,1,.3-.94c.24-.58.87-.65,1.37-.87.67-.3.4-.85-.13-1.22a2.28,2.28,0,0,0-2.08-.3,2.2,2.2,0,0,0-1.25,1c.13-.4.27-.75.34-1A5.32,5.32,0,0,0,85,14c.24.5.9,1.6,1.85,1.51s.32-1.87.23-2.82c1.14.75.43,2.71.43,2.71s3.74-3.4,6.85-4.28a19.17,19.17,0,0,0-2.33,1.83c-.87.8-.51,3.62,1.56,3.6,1.42,0,3.06-2.32,3.93-3.76-.35,1.49-2.13,3.36-2.6,3.83-.69.46-1.41.92-1.64,1.11-.42.32-.63,1.24.45.68s3.29-2.05,3.29-2.05C98.27,17.36,89.28,21.82,89.28,21.82Z"/><path class="cls-7" d="M56.6,61.93c.06-.32.13-.63.21-.94,1-4,4.22-7.13,6.76-10.28a106.86,106.86,0,0,0,6.5-8.51c3.35-5.14,12.31-22.1,12.31-22.1s5.51,1.42,7.27,5.18c0,0-11.56,20.15-14,23.1C74.2,50.23,63.7,63.79,60.41,70c-.71,1.34-3.41,6.57-4,2.53A31.21,31.21,0,0,1,56.6,61.93Z"/><path class="cls-8" d="M74.8,35.91l-.86.89-.13.14c-.56.61-1.06,1.21-1.06,1.21s-.55.71-1.07,1.45l-.06.08-.06.09c-.22.31-.42.61-.57.85a3.54,3.54,0,0,0-.28.5l.08-.07,0,0a0,0,0,0,1,0,0h0l.25-.32.75-1C72.38,39,73,38.32,73,38.32l.82-1h0l.29-.34.8-.94a3,3,0,0,0,.35-.45A3,3,0,0,0,74.8,35.91Zm-1.08,2.38c-.23.19-.57.5-.9.81-.56.54-1.1,1.11-1.1,1.11s-.51.59-1,1.21a10.82,10.82,0,0,0-.91,1.28c.05,0,.54-.59,1.05-1.16s1-1.15,1-1.15.51-.58,1-1.15l.76-.82a1.86,1.86,0,0,0,.28-.34A1.71,1.71,0,0,0,73.72,38.29Z"/><path class="cls-9" d="M89.65,25.26a7.19,7.19,0,0,0-.37-.67l-.16-.21a4,4,0,0,0-.3-.42,2.09,2.09,0,0,0-.2-.22,3.59,3.59,0,0,0-.32-.36,1.8,1.8,0,0,0-.2-.19l-.36-.34-.2-.15-.41-.33L87,22.26l-.47-.32-.11-.07-.52-.31-.06,0-.57-.31h0a5.06,5.06,0,0,1,1.3,5.71c-1.61,4-9.31,16.38-11.59,17-1.64.44-1.33-5.08-1-8.26l-.55,1-.06.1-.45.79-.17.3-.33.57-.18.32-.3.51-.19.32-.27.46-.18.3-.25.42-.18.29-.24.39-.14.23-.35.54v0c-.26.39-.57.85-.92,1.33-.53.76-1.08,1.51-1.64,2.24,2.13,0,5.78.29,4.46,3-1.84,3.72-9,13.88-11.7,11a4.84,4.84,0,0,1-1.16-3.5A14.63,14.63,0,0,0,56.81,61c-.08.31-.15.62-.21.94a26.21,26.21,0,0,0-.5,3.93c.13,2.34.07,5,.3,6.69C56.79,75,58,74,59,72.45c.41-.62.88-1.42,1.42-2.45.21-.39.44-.8.7-1.25.77-1.32,1.76-2.86,2.87-4.49.55-.81,1.13-1.65,1.72-2.49s1.2-1.7,1.81-2.54c.2-.29.41-.57.61-.84l1.21-1.65c1.79-2.43,3.47-4.64,4.68-6.21l.74-.94c.43-.56.76-1,1-1.21.45-.55,1.22-1.71,2.18-3.23L80,41.72l1.17-1.95c.59-1,1.2-2,1.8-3l.6-1c3.19-5.4,6.08-10.44,6.08-10.44Z"/><g class="cls-14"><path class="cls-8" d="M56.89,60.52A17,17,0,0,0,56,63.65c-.14.83-.18,1.35-.18,1.35a12,12,0,0,1,.08-1.36,13.21,13.21,0,0,1,.8-3.19,12.71,12.71,0,0,1,1.58-2.88c.5-.68.85-1.06.85-1.06s-.32.41-.77,1.11A16.8,16.8,0,0,0,56.89,60.52Z"/></g><g class="cls-14"><path class="cls-8" d="M55.54,64.5a20.3,20.3,0,0,0,.25,3.89s-.12-.42-.24-1.12a13.61,13.61,0,0,1-.21-2.78,14.07,14.07,0,0,1,.36-2.75c.17-.69.31-1.11.31-1.11A20.13,20.13,0,0,0,55.54,64.5Z"/></g></g></g></g></svg>