<svg xmlns="http://www.w3.org/2000/svg" viewBox="0 0 65.1 78.65"><defs><style>.cls-1{isolation:isolate;}.cls-2{fill:#f15e6b;}.cls-3{fill:#d65666;}.cls-13,.cls-3,.cls-9{opacity:0.45;}.cls-11,.cls-13,.cls-15,.cls-19,.cls-23,.cls-25,.cls-27,.cls-28,.cls-3,.cls-5,.cls-7,.cls-9{mix-blend-mode:multiply;}.cls-4{fill:#fff;}.cls-16,.cls-25,.cls-27,.cls-5,.cls-7{opacity:0.5;}.cls-6,.cls-7{fill:#d3dbfd;}.cls-10,.cls-23,.cls-27,.cls-28,.cls-8,.cls-9{fill:#3c1d91;}.cls-10,.cls-16,.cls-17,.cls-20,.cls-21,.cls-24,.cls-26{mix-blend-mode:screen;}.cls-12,.cls-13,.cls-15,.cls-17{fill:#ebd0a6;}.cls-14{fill:#de9168;}.cls-15{opacity:0.62;}.cls-18,.cls-19,.cls-20{fill:#6f3a1e;}.cls-19,.cls-28{opacity:0.25;}.cls-21{fill:#f8e9d0;}.cls-22,.cls-24,.cls-25{fill:#a95913;}.cls-26{opacity:0.35;}</style></defs><title>notebookРесурс 16</title><g class="cls-1"><g id="Слой_2" data-name="Слой 2"><g id="OBJECTS"><path class="cls-2" d="M62.54,78.65H22.42l0-.75c.12-2.31.29-5,.53-8.08.19-2.39.42-5,.7-7.77q.26-2.49.57-5.16c0-.21.05-.41.07-.62.15-1.19.3-2.42.46-3.66,0-.21.06-.41.1-.61a9.55,9.55,0,0,1,.21-1.09,0,0,0,0,1,0,0,0,0,0,0,1,0,0,15.8,15.8,0,0,1,3.5-7s0,0,0,0l0,0a6,6,0,0,1,.42-.46,18.19,18.19,0,0,1,6.22-4.27h0a19.92,19.92,0,0,1,2.12-.78h0a26.89,26.89,0,0,1,3.6-.83h.08l.37-.05h.1l.13,0c.63-.09,1.26-.16,1.89-.2h0a26.91,26.91,0,0,1,2.84,0h0c5.82.24,11.4,2.3,14.7,5.85.18.19.35.39.51.59s.25.3.37.46a6.37,6.37,0,0,1,.44.62c.13.19.25.39.37.6a10.12,10.12,0,0,1,.47.93,1.42,1.42,0,0,1,.08.18,5.83,5.83,0,0,1,.23.58C66.52,55,64.58,68.81,62.54,78.65Z"/><path class="cls-3" d="M62.54,78.65H59.22c.1-.45.2-.91.31-1.38.59-2.63,1.2-5.66,1.72-8.87h0c1.46-8.82,2.24-18.94,0-25.39v0c.18.19.35.39.51.59s.25.3.37.46a6.37,6.37,0,0,1,.44.62c.13.19.25.39.37.6a10.12,10.12,0,0,1,.47.93,1.42,1.42,0,0,1,.08.18,5.83,5.83,0,0,1,.23.58C66.52,55,64.58,68.81,62.54,78.65Z"/><path class="cls-4" d="M35.28,68.5a6.63,6.63,0,0,1-.41,1.91,4.8,4.8,0,0,1-.62,1.06,1.12,1.12,0,0,1-.16.22,16.39,16.39,0,0,1-5.92,4.12l0,0a42.11,42.11,0,0,1-5.68,2.07c-1,.29-2,.54-2.93.75H12.81a14.69,14.69,0,0,1-1.17-5.13s2-.54,4.67-1.36h0c1.19-.37,2.51-.8,3.82-1.27h0c1-.34,1.92-.7,2.83-1.07a22,22,0,0,0,4-2l0,0a2.67,2.67,0,0,0,1.23-1.42,8.14,8.14,0,0,0-.25-3,55.16,55.16,0,0,0-1.77-6.42h0a.25.25,0,0,0,0-.09c-.05-.18-.11-.35-.17-.52l-.06-.2h0c-.05-.16-.11-.3-.16-.46-.14-.42-.28-.85-.4-1.28a0,0,0,0,1,0,0l0-.11s0,0,0,0A15.13,15.13,0,0,1,24.88,52a8.37,8.37,0,0,1,.42-4.41h0a7.64,7.64,0,0,1,.34-.71l.12-.2a0,0,0,0,1,0,0,7.86,7.86,0,0,1,2.83-2.81A9.72,9.72,0,0,1,30.38,43s.11.38.31,1,.39,1.35.65,2.29c.6,2.13,1.38,5.07,2.09,8.19.32,1.39.62,2.81.89,4.22A40.36,40.36,0,0,1,35.28,68.5Z"/><g class="cls-5"><path class="cls-6" d="M32.48,67.59a4.31,4.31,0,0,0-1-.71,6.1,6.1,0,0,0-.82-.33c-.23-.07-.39-.1-.39-.1a3.1,3.1,0,0,0-.4,0,3,3,0,0,0-.85.1,2.26,2.26,0,0,0-.73.35.76.76,0,0,0-.23.27,3.24,3.24,0,0,0,.3-.2,2.3,2.3,0,0,1,.72-.28,3.2,3.2,0,0,1,.8,0l.37,0a3.13,3.13,0,0,1,.37.08,4.22,4.22,0,0,1,.79.28C31.94,67.26,32.46,67.61,32.48,67.59Z"/><path class="cls-6" d="M31.18,65.46a2.54,2.54,0,0,0-.89.1,5.75,5.75,0,0,0-.83.27,5.13,5.13,0,0,0-.72.45,2.28,2.28,0,0,0-.59.57s.34-.24.7-.45a6.62,6.62,0,0,1,.73-.37,6.63,6.63,0,0,1,.78-.33C30.76,65.57,31.19,65.49,31.18,65.46Z"/></g><path class="cls-4" d="M57.35,45s0,.08-.07.21h0c-.05.16-.13.42-.22.74a0,0,0,0,0,0,0c0,.07,0,.16-.07.24h0a44.09,44.09,0,0,0-1.85,10.38,8.22,8.22,0,0,0,0,.86c0,.17,0,.35,0,.52a9.8,9.8,0,0,0,.61,3.26s0,.07,0,.11-.08.25-.11.37h0q-.45,1.43-.84,2.88-.15.51-.27,1c-.18.65-.35,1.31-.5,2,0,.12-.07.25-.1.38v0h0c-.13.52-.25,1.05-.36,1.57-.24,1.07-.46,2.15-.66,3.23v0l-.09.45c-.26,1.42-.48,2.84-.67,4.26l-.15,1.16H28.55l-.42-2.82c-.06-.43-.13-.87-.19-1.31L27,67.8c-.44-3.2-.86-6.41-1.22-9.63-.05-.43-.09-.85-.14-1.28l-.06-.62c-.08-.7-.15-1.39-.21-2.09,0,0,0,0,0,0s0-.09,0-.14c-.1-1-.19-2.07-.24-3.11a0,0,0,0,1,0,0c0-.24,0-.49,0-.73s0-.31,0-.46a6.55,6.55,0,0,1,.72-3,0,0,0,0,1,0,0,7.08,7.08,0,0,1,2.84-2.85l0,0c.2-.12.42-.2.63-.31l.07,0,.21-.1.46-.2.36-.14h0a21.93,21.93,0,0,1,5.09-1.26l.46-.06.6-.07h.06l.2,0h0c2-.2,4.07-.25,5.84-.26h1.94l.09,0,.56.09h0l.74.14c2.76.51,8.87,1.77,11.29,3.34Z"/><path class="cls-7" d="M57.35,44.71s0,.07-.07.2-.05.18-.09.3-.14.45-.22.75c0,.08,0,.17-.08.27a42.59,42.59,0,0,0-1.76,10.32,8.22,8.22,0,0,0,0,.86c0,.17,0,.35,0,.52a9.5,9.5,0,0,0,.65,3.13l0,.13-.1.34c-.3,1-.58,1.95-.85,2.93s-.59,2.21-.85,3.33h0q-.6,2.49-1.05,5h0c0,.14,0,.27-.07.41-.24,1.34-.45,2.67-.63,4-.06.47-.12.93-.17,1.4H28.59c-.15-.94-.29-1.89-.42-2.84-.08-.51-.16-1-.23-1.53L27,67.78c-.44-3.22-.86-6.45-1.23-9.67,0-.41-.09-.82-.13-1.22,0-.21,0-.42-.07-.62-.07-.65-.13-1.3-.19-2a0,0,0,0,1,0,0c0-.17,0-.34-.05-.51-.09-1-.18-2-.23-2.92,0-.32,0-.63-.05-.94a1.7,1.7,0,0,1,0-.22,7.4,7.4,0,0,1,.26-2.11h0a7,7,0,0,1,3.77-4.26,19.94,19.94,0,0,1,6.58-1.84l.49-.06.38,0h.06l.18,0h0c2.11-.21,4.21-.26,6-.26h1.87l.31,0,.88.16C48.57,41.8,54.93,43.1,57.35,44.71Z"/><path class="cls-7" d="M55.69,61.67h0c-.29,1-.57,1.92-.83,2.89h0c-.1.34-.19.66-.28,1-.17.65-.34,1.31-.5,2,0,.12-.07.25-.1.38v0h0c-.13.52-.25,1.05-.36,1.57-.24,1.07-.46,2.15-.66,3.23v0l-.09.45c-.26,1.42-.48,2.84-.67,4.26l-.15,1.16H49.17a32.43,32.43,0,0,0,1.73-4.48,72,72,0,0,0,2.29-10.43h0c.16-1.06.3-2.07.41-3,.43-3.57.56-6.13.53-6.23s.69,2.89,1.53,7Z"/><path class="cls-7" d="M46.2,47.74v0Z"/><path class="cls-7" d="M43.77,77.76c0-.07,0-.14,0-.22h0a45.71,45.71,0,0,0-.24-6.73C43,63.92,42.08,57.06,41,50.26a3.15,3.15,0,0,0,.83-.59c.18-.18.35-.37.51-.55h0a9,9,0,0,0,.82-1.21,1.22,1.22,0,0,0,0-.27,4,4,0,0,0-2.32-2.71,0,0,0,0,1,0,0l-.09,0h0a1.31,1.31,0,0,0-.27-.06.85.85,0,0,0-.5.11,2.29,2.29,0,0,0-.48.33l-.39.39c-.11.12-.22.24-.32.37l0,0a13,13,0,0,0-1,1.42.32.32,0,0,0,0,.07A4.11,4.11,0,0,0,38.2,49a2.86,2.86,0,0,0,1.21,1.2c0,.13-.1.83-.24,1.9h0s0,0,0,0c-.61,4.66-2.12,16.38-2.49,20-.12,1.21-.28,2.4-.44,3.6,0,.23-.06.46-.1.69l0,.4h0a7,7,0,0,0-.07.9,8.81,8.81,0,0,0,0,.89h7.63C43.71,78.36,43.74,78.06,43.77,77.76Z"/><path class="cls-8" d="M43.13,78.65c0-.3.08-.59.11-.89h0c0-.28,0-.56.07-.84A51.8,51.8,0,0,0,43,70.55c-.53-6.87-1.45-13.73-2.55-20.54a3.7,3.7,0,0,0,1-.73q.22-.24.42-.48h0a7.21,7.21,0,0,0,.61-.87l.16-.27a1.32,1.32,0,0,0,0-.48,1.21,1.21,0,0,0,0-.18,0,0,0,0,0,0,0l0-.1a3.52,3.52,0,0,0-.66-1,1.54,1.54,0,0,0-.17-.19l-.21-.21-.23-.2h0c-.14-.11-.27-.21-.41-.3a0,0,0,0,1,0,0l-.06,0-.14-.09h0a1.9,1.9,0,0,0-.62-.21.69.69,0,0,0-.34,0,1.45,1.45,0,0,0-.39.2h0l-.06,0s0,0,0,0h0a6.68,6.68,0,0,0-1.31,1.49l0,.06c-.3.44-.5.79-.5.79a1.81,1.81,0,0,0,0,.32,2.89,2.89,0,0,0,.11.48,3.65,3.65,0,0,0,.23.62h0a2.38,2.38,0,0,0,.33.54,2,2,0,0,0,.19.22,2.74,2.74,0,0,0,.73.55s0,0,0,.09,0,.13,0,.22,0,.31-.07.53,0,.37-.08.59c-.11.89-.27,2.12-.45,3.56l-.06.46-.06.47c-.71,5.48-1.68,13.19-2,16-.08.77-.17,1.55-.28,2.32,0,.26-.06.53-.1.79h0l-.06.47a19.57,19.57,0,0,0-.2,2.25,6.63,6.63,0,0,0,0,.89Z"/><path class="cls-9" d="M36.68,78.65H35.55a6.63,6.63,0,0,1,0-.89,19.57,19.57,0,0,1,.2-2.25L35.8,75a16.23,16.23,0,0,0,.31,1.81h0a4.42,4.42,0,0,0,.14.52v0a3.58,3.58,0,0,0,.11.35A6.61,6.61,0,0,0,36.68,78.65Z"/><path class="cls-9" d="M43.31,76.91c0,.28,0,.56-.07.84h0c0,.3-.07.59-.11.89h-2.7c.11-.18.21-.38.32-.6s.09-.19.13-.29c2.21-5.48-.4-26.27-1.05-26.65-.18-.11-.41.32-.66,1h0a38.51,38.51,0,0,0-1,3.76l.06-.47.06-.46c.18-1.44.34-2.67.45-3.56,0-.22.06-.42.08-.59s.05-.39.07-.53,0-.16,0-.22,0-.07,0-.09a2.74,2.74,0,0,1-.73-.55,2,2,0,0,1-.19-.22,2.38,2.38,0,0,1-.33-.54,4.69,4.69,0,0,0,.54.35,1.88,1.88,0,0,0,2.16,0,1.43,1.43,0,0,0,.42-.62,2.46,2.46,0,0,0,.15-.78h0a7,7,0,0,0-.48-2.68s0,0,0-.05l.09,0,.71.31h0l.23.2.21.21a1.54,1.54,0,0,1,.17.19,3.52,3.52,0,0,1,.66,1l0,.1a0,0,0,0,1,0,0,1.21,1.21,0,0,1,0,.18,1.32,1.32,0,0,1,0,.48l-.16.27a7.21,7.21,0,0,1-.61.87h0q-.19.24-.42.48a3.7,3.7,0,0,1-1,.73c1.1,6.81,2,13.67,2.55,20.54A51.8,51.8,0,0,1,43.31,76.91Z"/><path class="cls-10" d="M39.3,53.56c-.15,0-1.21,8.84-1.21,8.84s-.82,8.88-.67,8.89,1.21-8.84,1.21-8.84S39.45,53.57,39.3,53.56Zm-2,18.76A3.62,3.62,0,0,0,37,73.51c-.11.6-.17,1.21-.17,1.21s0,.61,0,1.22A3.57,3.57,0,0,0,37,77.16,3.92,3.92,0,0,0,37.22,76c.06-.6.13-1.2.13-1.2s0-.6,0-1.2A3.89,3.89,0,0,0,37.29,72.32ZM39.2,47.13c.12-.31.38-.54.35-.61s-.42.07-.67.41a1.82,1.82,0,0,0-.35.74,2,2,0,0,0,.13.81c.15.39.49.63.54.58s-.14-.36-.17-.68a1.87,1.87,0,0,1,0-.63A1.76,1.76,0,0,1,39.2,47.13Z"/><g class="cls-5"><path class="cls-6" d="M33.42,44.18c-.42,1-1.72,1.68-2.4,2.49s-1.5,2-2.18,3a.25.25,0,0,1-.45-.06,4.19,4.19,0,0,1,1-4.4c.83-1,2.55-2.3,3.91-1.66a.45.45,0,0,1,.16.61Z"/></g><g class="cls-11"><path class="cls-6" d="M27,66.91a2.19,2.19,0,0,0,0-.42c0-.26-.07-.63-.11-1.08-.1-.89-.23-2.08-.34-3.27-.21-2.39-.29-4.78-.29-4.78s-.12-2.4,0-4.79c0-1.2.11-2.39.19-3.29,0-.45.08-.82.1-1.08a2.51,2.51,0,0,0,0-.41,2.77,2.77,0,0,0-.07.4c0,.26-.11.63-.16,1.08-.11.89-.21,2.09-.27,3.29-.12,2.4,0,4.81,0,4.81s.11,2.4.37,4.78c.14,1.2.29,2.39.42,3.28.06.44.13.81.17,1.07A2.24,2.24,0,0,0,27,66.91Z"/></g><path class="cls-6" d="M35,54.58l-7.48-.29s.57,8.34,4,7.62S35,54.58,35,54.58Z"/><path class="cls-12" d="M44.39,38.07l.37,4.19S42.44,45.77,37,43.87l-.44-4.71S42.14,35.9,44.39,38.07Z"/><path class="cls-13" d="M36.85,42.33c5.17,3.82,7.7-4.51,5.71-2.73-1.69,1.49-4.92.68-5.93.38v-.16l0-.51a.7.7,0,0,1,.16-.25,17.87,17.87,0,0,1,1.63-.78c.85-.27,1.87-.52,2.72-.85a7.39,7.39,0,0,1,.92-.1h.47l.41,0h.06l.33.08.07,0a2.06,2.06,0,0,1,.35.12l.05,0a1.91,1.91,0,0,1,.28.15l.08,0a2.17,2.17,0,0,1,.29.24h0l.37,4.19S42.44,45.77,37,43.87Z"/><path class="cls-12" d="M25,22.49a2.1,2.1,0,0,0-3-.25c-1.77,1.56.15,8.17,2.79,7.71S25.4,22.28,25,22.49Z"/><path class="cls-13" d="M25,22.49a2.1,2.1,0,0,0-3-.25c-1.77,1.56.15,8.17,2.79,7.71S25.4,22.28,25,22.49Z"/><path class="cls-14" d="M23.24,28.1c0-.05.2,0,.42-.12a.45.45,0,0,0,.25-.27.65.65,0,0,0,0-.45.77.77,0,0,0-.3-.34c-.11-.09-.25-.11-.45-.23a.77.77,0,0,1-.35-.64.78.78,0,0,1,.05-.28,1,1,0,0,1,.11-.23,1.15,1.15,0,0,1,.22-.23l.19-.12h0s0,0,0,0a.44.44,0,0,1,0-.12c0-.05,0-.11-.05-.17a2,2,0,0,0-.38-.67c-.32-.42-.74-.54-.74-.61s.47-.09.93.32a2.37,2.37,0,0,1,.58.77,2.14,2.14,0,0,1,.1.22,1.64,1.64,0,0,1,.07.25,5.46,5.46,0,0,1,.1.58,1.72,1.72,0,0,0-.38.07l-.09.06a.77.77,0,0,0-.09.13l-.05.1s0,0,0,0,.25.13.44.29a1.53,1.53,0,0,1,.45.68,1.11,1.11,0,0,1,0,.81.61.61,0,0,1-.47.33C23.42,28.28,23.24,28.14,23.24,28.1Z"/><path class="cls-15" d="M24.77,30c2.65-.45.63-7.67.18-7.46a2.53,2.53,0,0,0-1.65-.79,4.85,4.85,0,0,1,.2,2.76s-.85-1-1.17-.59.5,2.12-.28,2.41c-.24.09-.43-.08-.58-.36C21.92,28.06,23.22,30.22,24.77,30Z"/><g class="cls-16"><path class="cls-17" d="M21.4,23.84c-.06.39,0,.76.23.83s.38-.2.44-.59,0-.76-.23-.83S21.46,23.45,21.4,23.84Z"/><path class="cls-17" d="M21.93,22.66a.31.31,0,0,0,.18.32.18.18,0,0,0,.27-.13.3.3,0,0,0-.18-.33A.19.19,0,0,0,21.93,22.66Z"/></g><path class="cls-12" d="M54.65,18.54C54,12.48,50.16,3,37.45,4.72s-12.77,16-12.77,16A39,39,0,0,0,24.77,30c.7,3.92,3.57,9.49,12.85,9.15s15.78-5.16,16.64-11a4.73,4.73,0,0,0,3.79-4.37C58.33,21,56.54,18.6,54.65,18.54Z"/><g class="cls-11"><path class="cls-13" d="M54.65,18.54a19.63,19.63,0,0,0-1.59-6,16,16,0,0,0-2.67-4.05c2.26,2.82,3.22,7.4,3.51,10.22.17,0,.53-.15.79-.2Z"/><path class="cls-13" d="M56.46,19.34a5.44,5.44,0,0,1,.88,3.56,4.75,4.75,0,0,1-3.79,4.38c-.86,5.85-7.37,10.67-16.65,11C32,38.47,28.91,37,27,35c1.87,2.39,5.13,4.29,10.66,4.09,9.27-.33,15.78-5.16,16.64-11a4.73,4.73,0,0,0,3.79-4.37A5.24,5.24,0,0,0,56.46,19.34Z"/></g><path class="cls-18" d="M30.88,25.13c.19,1.2-.2,2.26-.88,2.36s-1.38-.81-1.57-2,.21-2.27.88-2.36S30.69,23.92,30.88,25.13Z"/><path class="cls-19" d="M29.92,23.29a4.15,4.15,0,0,1,.28.94c.19,1.2-.21,2.26-.88,2.36a1,1,0,0,1-.61-.18c.31.7.81,1.14,1.29,1.08.68-.1,1.07-1.16.88-2.36A2.78,2.78,0,0,0,29.92,23.29Z"/><path class="cls-20" d="M28.62,25.06c0,.42.23.75.45.74s.36-.35.33-.77-.23-.75-.44-.74S28.59,24.65,28.62,25.06Z"/><path class="cls-20" d="M29.3,23.84a.16.16,0,0,1-.13.19.18.18,0,0,1-.19-.14.18.18,0,0,1,.14-.2A.17.17,0,0,1,29.3,23.84Z"/><path class="cls-18" d="M45.43,24.16c0,1.22-.5,2.22-1.18,2.23S43,25.43,43,24.21,43.45,22,44.13,22,45.39,22.94,45.43,24.16Z"/><path class="cls-19" d="M44.75,22.26a4.06,4.06,0,0,1,.11.8c0,1.22-.49,2.22-1.18,2.23a.88.88,0,0,1-.62-.29c.2.82.66,1.4,1.19,1.39s1.21-1,1.18-2.23A2.85,2.85,0,0,0,44.75,22.26Z"/><path class="cls-20" d="M43.29,23.76c0,.41.13.77.34.79s.41-.31.44-.73-.13-.78-.35-.79S43.31,23.34,43.29,23.76Z"/><path class="cls-20" d="M44.12,22.62a.17.17,0,0,1-.15.18.18.18,0,0,1-.17-.17.17.17,0,0,1,.16-.17A.16.16,0,0,1,44.12,22.62Z"/><path class="cls-14" d="M56.28,25.4a.92.92,0,0,1-.27.8.68.68,0,0,1-.36.18.62.62,0,0,1-.49-.15,1,1,0,0,1-.36-.53.8.8,0,0,1,.1-.71,2.82,2.82,0,0,1,.35-.32.54.54,0,0,0,.16-.25.83.83,0,0,0,0-.57.4.4,0,0,0-.32-.25.27.27,0,0,0-.11,0l-.13,0-.06,0,0,0-.08.16c-.11.23-.22.3-.35.33a.4.4,0,0,1-.26-.08.6.6,0,0,1-.17-.23,3.43,3.43,0,0,1-.17-.78,4.89,4.89,0,0,1-.05-.55,3.6,3.6,0,0,1,.14-1.05,1.75,1.75,0,0,1,.45-.72c.35-.33.68-.29.68-.25s-.26.13-.5.48a2.3,2.3,0,0,0-.31,1.57c0,.16,0,.32.07.47a.91.91,0,0,0,0,.16c0,.06.06,0,.06-.05h0l.07-.08a.66.66,0,0,1,.17-.12.64.64,0,0,1,.3-.09,1,1,0,0,1,.27,0,1.12,1.12,0,0,1,.27.11,1.28,1.28,0,0,1,.55.68,1.6,1.6,0,0,1,0,1.12,1,1,0,0,1-.34.45,2.53,2.53,0,0,0-.32.21.19.19,0,0,0-.05.2.6.6,0,0,0,.16.29.37.37,0,0,0,.5.05C56.16,25.73,56.23,25.37,56.28,25.4Z"/><path class="cls-17" d="M56.18,20.49c.3.24.61.27.7.09s-.09-.53-.39-.76-.61-.27-.7-.08S55.87,20.26,56.18,20.49Z"/><path class="cls-17" d="M55,19.32a.3.3,0,0,0,.18.33.19.19,0,0,0,.27-.14.29.29,0,0,0-.18-.32A.18.18,0,0,0,55,19.32Z"/><path class="cls-13" d="M38.55,28.35a5,5,0,0,1-4-.65s-1,.8,1,1.33C38.25,29.75,38.55,28.35,38.55,28.35Z"/><path class="cls-14" d="M37.51,29s-.33.11-.81.11A5.15,5.15,0,0,1,35,28.73a1,1,0,0,1-.58-.51.47.47,0,0,1,.17-.52,1.22,1.22,0,0,1,.43-.25,1,1,0,0,1,.19-.05,2,2,0,0,1,.45-.07,2.18,2.18,0,0,1,.55,0,2.37,2.37,0,0,1,.34.08c.21.08.51.24.76.37,0-.28-.07-.58-.1-.9s-.05-.36-.08-.54c0-.37-.1-.75-.15-1.09a5.56,5.56,0,0,0-.24-1.2,4.54,4.54,0,0,0,0,1.23c0,.34,0,.72,0,1.1l0,.55c0,.05,0,.07,0,.08l-.07,0-.41-.12a2.8,2.8,0,0,0-.66-.07,2.26,2.26,0,0,0-.56.07,1,1,0,0,0-.25.08,1.74,1.74,0,0,0-.59.38,1.06,1.06,0,0,0-.27.44.92.92,0,0,0,0,.59,1.4,1.4,0,0,0,.87.71,4.61,4.61,0,0,0,1.87.25A1.27,1.27,0,0,0,37.51,29Z"/><path class="cls-21" d="M35.61,27.69c0,.13.16.29.43.37s.53,0,.56-.09-.15-.29-.42-.37S35.65,27.56,35.61,27.69Z"/><path class="cls-13" d="M48.15,27.19c-.14-.88-1.08-1.55-2.34-1.74a3.43,3.43,0,0,0-.56-.06,4.59,4.59,0,0,0-.74,0,4.82,4.82,0,0,0-1,.2l-.18,0a3.85,3.85,0,0,0-1.34.76h0a1.84,1.84,0,0,0-.69,1.51c.09.94,1.11,1.67,2.46,1.85l.23,0a5.24,5.24,0,0,0,1,0q.31,0,.63-.09a4,4,0,0,0,2-1,.24.24,0,0,0,.09-.08,1.76,1.76,0,0,0,.54-1.37S48.15,27.22,48.15,27.19ZM30.77,26.7a1.73,1.73,0,0,0-.3-.16h0a3.3,3.3,0,0,0-.64-.26,4.79,4.79,0,0,0-1.09-.22h-.16c-.21,0-.42,0-.62,0a4.13,4.13,0,0,0-1.69.44l-.18.1a1.66,1.66,0,0,0-.41,2.73,4.08,4.08,0,0,0,2.24,1.08,3.11,3.11,0,0,0,.44.06,4.68,4.68,0,0,0,1.36-.06,3,3,0,0,0,1.94-1,1.63,1.63,0,0,0,.3-.78A2.1,2.1,0,0,0,30.77,26.7Z"/><path class="cls-13" d="M47.55,10.41c-9.12,9.29-21.7,5.33-21.7,5.33a15.24,15.24,0,0,0-1.12,4c.27-3.26,2-13.57,12.72-15C50.16,3,54,12.48,54.65,18.54a2.49,2.49,0,0,1,1,.25,5.22,5.22,0,0,1-.72.77c-1.91,1.2-1.13,4.81-2.44,4s-1-4.62-1-4.62C48.91,17.29,47.55,10.41,47.55,10.41Z"/><path class="cls-22" d="M55.19,18.5a7.36,7.36,0,0,0,2.17-6.74C56.51,6.47,53,4.58,48.59,5.31c0,0-5.47-6.25-12.14-5.19S28.67,7,26,7s-3.59-.78-3.59-.78.26,2.82,1.7,3.57A11.64,11.64,0,0,1,21.06,9a10,10,0,0,0,2.09,5.42S22,17.7,23.09,19.73a17,17,0,0,1,1.35,2.94s.62-6.07,1.69-8c0,0,12.58,4,21.7-5.34,0,0,1.36,6.89,3.87,8.58,0,0-.27,3.84,1,4.61S53.28,19.69,55.19,18.5Z"/><path class="cls-8" d="M49.72,21.6l.59-.33c.79-.46,1.59-.91,2.39-1.36L54,19.16l.61-.33c.12-.06.44-.31.55-.26l.28.11a.66.66,0,0,0-.41-.63c-.21-.08-.38.07-.56.16l-1.17.6-4,2Z"/><path class="cls-23" d="M49.65,21.47l-.14-.29L54,18.91c.26-.13,1.2-.78,1.47-.42a.76.76,0,0,1,0,.15.23.23,0,0,0-.17,0l-.1,0c-.11-.05-.43.2-.55.26l-.23.13-.16.08-.07,0-.15.08-.65.37-.46.25-.1.06-.13.07-1.56.89-.68.38,0,0-.12.07-.59.33,0-.1Z"/><path class="cls-8" d="M38,22.86l.25-.82a5.67,5.67,0,0,0-4,.24l.42.75A4.93,4.93,0,0,1,38,22.86Z"/><path class="cls-23" d="M38,22.86a4.93,4.93,0,0,0-3.33.17l-.18-.33a5.69,5.69,0,0,1,3.62-.19Z"/><path class="cls-10" d="M49.45,21.34s-6.35-3.26-11.29,1.14c0,0,.43,8.32,6.3,7.72S49.45,21.34,49.45,21.34Z"/><path class="cls-10" d="M41,20.74l4.64,9.2a5.51,5.51,0,0,1-1.21.26l-.5,0-4.55-8.68A8.45,8.45,0,0,1,41,20.74Z"/><path class="cls-10" d="M45.1,20.21l3.51,7a5.85,5.85,0,0,1-1.07,1.59l-4.46-8.5A10.58,10.58,0,0,1,45.1,20.21Z"/><path class="cls-10" d="M38.3,23.62c-.11-.68-.14-1.14-.14-1.14,4.94-4.4,11.29-1.14,11.29-1.14s0,.56,0,1.38A10.4,10.4,0,0,1,38.3,23.62Z"/><path class="cls-8" d="M49.85,21.53c0-.14,0-.22,0-.23l0-.24,0,0L49.61,21l-.27-.13c-1.28-.56-6.81-2.63-11.26,1.17l-.17.14-.15.14v.21s0,.14,0,.32c.09,1.07.57,4.55,2.66,6.51a4.94,4.94,0,0,0,4,1.31l.24,0C50.13,29.85,50,22.88,49.85,21.53Zm-6.12,8.26A4,4,0,0,1,41,28.68a9,9,0,0,1-2.23-4.87c-.09-.5-.14-.9-.16-1.13a8.67,8.67,0,0,1,1-.75,7.8,7.8,0,0,1,1.62-.79,8.81,8.81,0,0,1,2.07-.47,10.58,10.58,0,0,1,2,0,12.54,12.54,0,0,1,3.74,1c0,.28,0,.78,0,1.38a10.61,10.61,0,0,1-.71,3.68h0c-.07.17-.15.33-.23.49a5.89,5.89,0,0,1-.81,1.18,4.29,4.29,0,0,1-1.86,1.18h0a4.85,4.85,0,0,1-1.06.22l-.46,0Z"/><path class="cls-23" d="M49.4,21.61l0-.23-.19-.09a12,12,0,0,0-4.08-1.06c-.11,0-.22,0-.34,0a9.5,9.5,0,0,0-1.19,0h-.33l-.16,0a8.31,8.31,0,0,0-2.05.51,7.9,7.9,0,0,0-1.61.82,9.12,9.12,0,0,0-1,.79l-.13.13v.19a9.14,9.14,0,0,0,.1.95h0A9.44,9.44,0,0,0,40.76,29,4.37,4.37,0,0,0,43,30.15a3.18,3.18,0,0,0,.43.06,4.35,4.35,0,0,0,.51,0l.52,0,.22,0,.15,0h0l.11,0,.24-.05h0a.86.86,0,0,0,.23-.06l.19-.06a4.41,4.41,0,0,0,.93-.43,2.9,2.9,0,0,0,.29-.19c.12-.09.24-.18.35-.28a2.39,2.39,0,0,0,.23-.22.46.46,0,0,0,.07-.07l0,0,.27-.31.08-.11.15-.21c.1-.15.2-.3.29-.46a4.44,4.44,0,0,0,.24-.49,11.4,11.4,0,0,0,.84-4.38A10.94,10.94,0,0,0,49.4,21.61Zm-1,5.08h0c-.07.17-.15.33-.23.49a5.89,5.89,0,0,1-.81,1.18,4.29,4.29,0,0,1-1.86,1.18h0a4.85,4.85,0,0,1-1.06.22l-.46,0h-.22A4,4,0,0,1,41,28.68a9,9,0,0,1-2.23-4.87c-.09-.5-.14-.9-.16-1.13a8.67,8.67,0,0,1,1-.75,7.8,7.8,0,0,1,1.62-.79,8.81,8.81,0,0,1,2.07-.47,10.58,10.58,0,0,1,2,0,12.54,12.54,0,0,1,3.74,1c0,.28,0,.78,0,1.38A10.61,10.61,0,0,1,48.38,26.69Z"/><path class="cls-10" d="M34.38,22.64s-6.05-3.78-11.34.19c0,0-.26,8.33,5.64,8.22S34.38,22.64,34.38,22.64Z"/><path class="cls-10" d="M26.05,21.34l3.86,9.55a5.9,5.9,0,0,1-1.23.16h-.5l-3.82-9A9.14,9.14,0,0,1,26.05,21.34Z"/><path class="cls-10" d="M30.14,21.15l2.92,7.21a5.75,5.75,0,0,1-1.19,1.5L28.13,21A10.84,10.84,0,0,1,30.14,21.15Z"/><path class="cls-10" d="M23.08,24c0-.69,0-1.15,0-1.15,5.29-4,11.34-.19,11.34-.19A10.42,10.42,0,0,1,34.31,24,10.39,10.39,0,0,1,23.08,24Z"/><path class="cls-8" d="M34.77,22.39l-.19-.12-.16-.09h0c-.91-.51-5.38-2.77-9.8-.77h0l-.51.26h0l-.18.11h0l-.4.24c-.21.14-.42.28-.63.44l-.16.12v.21c0,.05,0,.35,0,.82a.92.92,0,0,0,0,.16,1,1,0,0,0,0,.17,15.08,15.08,0,0,0,.2,1.64c.07.35.15.72.26,1.1h0A10.39,10.39,0,0,0,23.6,28c0,.09.08.17.13.25a6.23,6.23,0,0,0,1,1.57l0,0,.09.09a4.89,4.89,0,0,0,3.83,1.55h.24c5.28-.3,5.8-6.9,5.84-8.5,0-.21,0-.33,0-.34v-.24ZM28,30.58a4,4,0,0,1-2.42-1.1,2.72,2.72,0,0,1-.24-.24,5.4,5.4,0,0,1-.79-1.16h0a0,0,0,0,0,0,0c-.08-.16-.16-.31-.23-.47h0a9.85,9.85,0,0,1-.36-1v0c-.07-.26-.13-.53-.19-.79a11.78,11.78,0,0,1-.22-1.4h0a.76.76,0,0,1,0-.15c-.05-.5-.06-.91-.07-1.14l.17-.12a6.25,6.25,0,0,1,.77-.46.2.2,0,0,1,.09,0,.09.09,0,0,1,.06,0h0l.22-.11a7.93,7.93,0,0,1,1.47-.54,8.15,8.15,0,0,1,2.1-.28,10,10,0,0,1,2,.15A12.68,12.68,0,0,1,34,22.9a12,12,0,0,1-.09,1.35,10.89,10.89,0,0,1-1,3.65,5.42,5.42,0,0,1-1.17,1.56,4.21,4.21,0,0,1-1.95,1,5.15,5.15,0,0,1-1.08.13A5.07,5.07,0,0,1,28,30.58Z"/><path class="cls-23" d="M34.32,22.9v-.23l-.18-.11a11.87,11.87,0,0,0-4-1.41H30l-.11,0-.26,0-.22,0h-.27l-.72,0h-.31a8.36,8.36,0,0,0-3.57.93l0,0-.1.05h0l-.14.07h0a5.32,5.32,0,0,0-.67.42,2.83,2.83,0,0,0-.28.2l-.15.11v.2c0,.05,0,.38,0,.89V24a.31.31,0,0,1,0,.1c0,.17,0,.36.06.56h0a3.39,3.39,0,0,0,.07.52h0a7.39,7.39,0,0,0,.13.75l.06.26c.06.26.13.53.22.8s.13.38.21.57h0a4.28,4.28,0,0,0,.2.44,6,6,0,0,0,.5.89h0a6.51,6.51,0,0,0,.46.58,1.89,1.89,0,0,0,.2.2,4.33,4.33,0,0,0,1.8,1.1l.4.1.17,0a1.25,1.25,0,0,0,.19,0L28,31h1.28a0,0,0,0,1,0,0h0s0,0,0,0,0,0,0,0l.29,0,.1,0,.19,0,.19-.05.41-.14.35-.15a3.18,3.18,0,0,0,.4-.23,1.94,1.94,0,0,0,.33-.23,3.11,3.11,0,0,0,.28-.23l0,0c.1-.09.19-.19.29-.29a3.58,3.58,0,0,0,.26-.29l.07-.09a0,0,0,0,1,0,0l0-.05a2.48,2.48,0,0,0,.19-.26s0-.05.06-.08a1.4,1.4,0,0,1,.1-.16.22.22,0,0,1,.05-.08,0,0,0,0,1,0,0,0,0,0,0,0,0,0l.08-.12h0A11.6,11.6,0,0,0,34.27,24h0A11.12,11.12,0,0,0,34.32,22.9Zm-1.45,5a5.42,5.42,0,0,1-1.17,1.56,4.21,4.21,0,0,1-1.95,1,5.15,5.15,0,0,1-1.08.13,5.07,5.07,0,0,1-.68,0,4,4,0,0,1-2.42-1.1,2.72,2.72,0,0,1-.24-.24,5.4,5.4,0,0,1-.79-1.16h0a0,0,0,0,0,0,0c-.08-.16-.16-.31-.23-.47h0a9.85,9.85,0,0,1-.36-1v0c-.07-.26-.13-.53-.19-.79a11.78,11.78,0,0,1-.22-1.4h0a.76.76,0,0,1,0-.15c-.05-.5-.06-.91-.07-1.14l.17-.12a6.25,6.25,0,0,1,.77-.46.2.2,0,0,1,.09,0,.09.09,0,0,1,.06,0h0l.22-.11a7.93,7.93,0,0,1,1.47-.54,8.15,8.15,0,0,1,2.1-.28,10,10,0,0,1,2,.15A12.68,12.68,0,0,1,34,22.9a12,12,0,0,1-.09,1.35A10.89,10.89,0,0,1,32.87,27.9Z"/><path class="cls-22" d="M43.79,17.72c.07.09.42,0,.76,0a1.88,1.88,0,0,1,.61.13,1.76,1.76,0,0,1,.6.17c.31.13.56.4.66.35s0-.47-.31-.81a2,2,0,0,0-.49-.38l-.27-.12a1.5,1.5,0,0,0-.3,0,1.79,1.79,0,0,0-.61.11C44,17.3,43.72,17.64,43.79,17.72Z"/><path class="cls-22" d="M28.16,18.71c.08.07.4-.16.71-.32a1.6,1.6,0,0,1,.59-.19l.15-.06a.9.9,0,0,1,.39-.05,1.25,1.25,0,0,1,.4.12c.11.05.19.12.24.09s.07-.13,0-.3a1.05,1.05,0,0,0-.46-.45,1.44,1.44,0,0,0-.64-.16.87.87,0,0,0-.58.16,2.09,2.09,0,0,0-.46.4C28.22,18.27,28.07,18.64,28.16,18.71Z"/><path class="cls-24" d="M53.15,7.33a3.61,3.61,0,0,0-1.94-1.07,2.35,2.35,0,0,0-.78,0,.64.64,0,0,0-.33.12s.14,0,.34,0a2.21,2.21,0,0,1,.72.12,4.38,4.38,0,0,1,1,.43,4.44,4.44,0,0,1,.89.59c.41.33.72.77.76.77A2.44,2.44,0,0,0,53.15,7.33Zm.59,4.32a.43.43,0,0,0,0-.11,8,8,0,0,0-.6-1.51l-.27-.46-.1-.16,0,0c0-.05-.2-.27-.45-.57a7.68,7.68,0,0,0-1.2-1.08A5.2,5.2,0,0,0,49.64,7a1.33,1.33,0,0,0-.74,0,2.54,2.54,0,0,1,.71.13A5.23,5.23,0,0,1,51,7.89,7,7,0,0,1,52.09,9a5.46,5.46,0,0,1,.42.58,1.22,1.22,0,0,1,.12.15c.06.11.16.26.27.44a10.32,10.32,0,0,1,.51,1.09l.12.35a6.73,6.73,0,0,1,.31,1.55c0,.43,0,.72.06.72a.55.55,0,0,0,0-.2,3.87,3.87,0,0,0,0-.53A5.65,5.65,0,0,0,53.74,11.65Zm-4.1-2.47a2.75,2.75,0,0,0-.34-.53,3.14,3.14,0,0,0-.48-.4A1.21,1.21,0,0,0,48.24,8c0,.05.25.2.46.39a4,4,0,0,1,.4.43,2.76,2.76,0,0,1,.37.45,5.14,5.14,0,0,0,.33.51A1.39,1.39,0,0,0,49.64,9.18ZM47.11,5.8a4,4,0,0,0-.28-.5,6.92,6.92,0,0,0-.6-.8,6.17,6.17,0,0,0-.5-.53,8.38,8.38,0,0,0-1.38-1.06c-.4-.25-.69-.39-.69-.39s-.28-.14-.72-.32a12.57,12.57,0,0,0-1.65-.51,13.35,13.35,0,0,0-1.7-.3,4.07,4.07,0,0,0-.78,0,6.71,6.71,0,0,0,.76.16c.46.08,1.07.21,1.67.37a14.78,14.78,0,0,1,1.61.56c.42.18.69.33.69.33A9.21,9.21,0,0,1,45.6,4.11a2.83,2.83,0,0,1,.25.24h0a8.59,8.59,0,0,1,.89,1c.27.36.41.64.44.64S47.17,5.92,47.11,5.8Zm-1.23.4a3,3,0,0,0-.52-.45,3,3,0,0,0-.65-.25,1.25,1.25,0,0,0-.67,0s.32.09.62.22a3.61,3.61,0,0,1,.56.29,3.53,3.53,0,0,1,.53.36c.24.19.44.44.48.44A1.36,1.36,0,0,0,45.88,6.2Zm-1,3.06-.41.34-.35.26a1.86,1.86,0,0,1-.28.21h0c-.28.21-.58.42-.89.62a17.94,17.94,0,0,1-2.13,1.12c-.3.14-.56.23-.74.3l-.28.11-.28.1c-.19.06-.44.17-.76.25a17,17,0,0,1-2.34.54A18.65,18.65,0,0,1,34,13.3c-.66,0-1.1,0-1.1,0a1.14,1.14,0,0,0,.3.05,6.76,6.76,0,0,0,.8.06,14.91,14.91,0,0,0,2.43-.09,16.93,16.93,0,0,0,2.39-.49c.33-.08.59-.18.77-.24l.29-.09.29-.12c.18-.08.44-.17.74-.32A17.79,17.79,0,0,0,43,10.86a14.83,14.83,0,0,0,1.9-1.52h0c.24-.22.41-.43.55-.56l.2-.24S45.34,8.84,44.86,9.26Zm-14.7-1.8c-.39.12-.92.28-1.45.39A9.08,9.08,0,0,1,27.23,8c-.41,0-.68,0-.68,0a6,6,0,0,1-.67,0,5.84,5.84,0,0,1-1.43-.41,4.5,4.5,0,0,1-1.24-.8l-.27-.27h0c-.12-.13-.18-.21-.2-.21l.09.17a2.77,2.77,0,0,0,.32.39,4.37,4.37,0,0,0,1.23.91,5.51,5.51,0,0,0,1.47.47,6,6,0,0,0,.7.08,5.43,5.43,0,0,0,.7,0A8.87,8.87,0,0,0,28.75,8a11.82,11.82,0,0,0,1.45-.47,3.21,3.21,0,0,0,.63-.29S30.54,7.35,30.16,7.46Zm.65,2.83-.54.08c-.38.06-.8.1-1.22.13a10.79,10.79,0,0,1-1.26,0l-.51,0a5.21,5.21,0,0,1-.78-.12,4.14,4.14,0,0,1-.75-.22,4,4,0,0,1-1.42-1,9.1,9.1,0,0,1-1.06-1.41,7.4,7.4,0,0,0-.44-.68,4,4,0,0,0,.35.73,8.18,8.18,0,0,0,1,1.49,4.15,4.15,0,0,0,1.46,1.08,3.53,3.53,0,0,0,.79.25,5.18,5.18,0,0,0,.82.11h.37a12,12,0,0,0,1.43-.07l.48-.06s0,0,0,0a10.48,10.48,0,0,0,1.25-.23,3.83,3.83,0,0,0,.78-.23A7.54,7.54,0,0,0,30.81,10.29Zm3.79-7L34,3.82l-.57.55a3.63,3.63,0,0,0-.56.57,2.91,2.91,0,0,0,.68-.42c.32-.24.63-.5.63-.5s.28-.28.55-.59a2.67,2.67,0,0,0,.47-.64A3.3,3.3,0,0,0,34.6,3.3ZM29,13.84c-.42-.11-1-.28-1.52-.47-.36-.13-.71-.27-1-.41-.63-.27-1.09-.51-1.09-.51a11.71,11.71,0,0,1-2-1.14,6.94,6.94,0,0,1-1.18-1.05c-.28-.31-.44-.55-.47-.55a2.72,2.72,0,0,0,.39.62,6.89,6.89,0,0,0,1.15,1.14,10.48,10.48,0,0,0,1.34.88c.38.22.65.35.65.35s.47.23,1.11.47h0c.32.12.69.26,1.06.37a15.39,15.39,0,0,0,1.56.39,3,3,0,0,0,.72.09A6.94,6.94,0,0,0,29,13.84ZM26,15a2.29,2.29,0,0,1-.31,0h0a2.35,2.35,0,0,1-.81-.17,3.51,3.51,0,0,1-.7-.43,3.41,3.41,0,0,1-.29-.25l-.29-.26c-.16-.16-.38-.37-.59-.6-.41-.45-.78-1-.82-1a4.54,4.54,0,0,0,.67,1.07,8.53,8.53,0,0,0,.57.66c.16.17.28.28.28.28a3.43,3.43,0,0,0,.32.25,3.06,3.06,0,0,0,.79.4,2,2,0,0,0,.87.11h0A1.11,1.11,0,0,0,26,15h0L26,15ZM52.4,17.93a16.94,16.94,0,0,1-1.33-1.52A16.58,16.58,0,0,1,50,14.73c-.14-.24-.24-.45-.31-.59l-.12-.22-.11-.23c-.06-.15-.18-.35-.28-.6a15,15,0,0,1-.69-1.9c0-.17-.09-.33-.12-.5A11.46,11.46,0,0,1,48,9.22a7,7,0,0,0-.14-.92.89.89,0,0,0,0,.26,6,6,0,0,0,0,.67,12.25,12.25,0,0,0,.22,1.47l0,.13a.75.75,0,0,1,0,.16,2.21,2.21,0,0,0,.05.25c.14.54.31,1.07.47,1.53a.36.36,0,0,1,0,.09c0,.12.09.23.13.33s.19.43.25.57,0,0,0,0l.11.24.12.22c.08.14.18.36.33.59a15.59,15.59,0,0,0,1.18,1.68A13.65,13.65,0,0,0,52.33,18c.2.19.39.32.51.43a1.26,1.26,0,0,0,.21.14S52.78,18.31,52.4,17.93Zm4-5.28v0s0,0,0,0h0a1.94,1.94,0,0,0-.14-.58s0,.35,0,.81c0,.2,0,.41,0,.63A8.24,8.24,0,0,1,56,14.84a7.86,7.86,0,0,1-.46,1.35c-.29.63-.71,1.19-.71,1.26a4.08,4.08,0,0,0,.88-1.18,7,7,0,0,0,.56-1.36s.05-.2.09-.49a6.7,6.7,0,0,0,.09-1A6.3,6.3,0,0,0,56.42,12.65Zm-2.64,4.22a1.68,1.68,0,0,0-.06.43h0a2,2,0,0,1,0,.24,3.69,3.69,0,0,1-.2.64,3.62,3.62,0,0,1-.27.62l-.06.09h0c-.16.26-.34.45-.31.48s.31-.19.53-.48a1.88,1.88,0,0,0,.12-.18,2.69,2.69,0,0,0,.24-.44,2.31,2.31,0,0,0,.09-.32h0c0-.11,0-.25,0-.38A1.38,1.38,0,0,0,53.78,16.87Zm.08,4.44-.12,0h0a3.5,3.5,0,0,1-.63-.39,3.42,3.42,0,0,1-.72-.76h0s-.1-.13-.19-.27-.12-.21-.18-.34a2.71,2.71,0,0,1-.13-.3,3.32,3.32,0,0,1-.19-.85,0,0,0,0,1,0,0v-.12s0-.06,0-.06a2,2,0,0,0,0,1.08h0v0a3.38,3.38,0,0,0,.11.34,3.84,3.84,0,0,0,.17.35,1.84,1.84,0,0,0,.17.29.11.11,0,0,0,0,0A3.56,3.56,0,0,0,53,21a2.77,2.77,0,0,0,.71.33h0l.12,0c.12,0,.2,0,.2,0ZM25.55,17.8a1.57,1.57,0,0,1-.38,0h0l-.15,0-.12,0a2,2,0,0,1-.61-.31c-.15-.12-.24-.21-.24-.21h0L23.78,17a6.12,6.12,0,0,1-.44-.56c-.16-.22-.32-.43-.42-.6a.88.88,0,0,1-.09-.21c0-.05,0-.08,0-.08s0,.08,0,.22a.27.27,0,0,0,0,.12,4.25,4.25,0,0,0,.35.65,4.16,4.16,0,0,0,.42.62c.13.16.23.26.23.26a1.37,1.37,0,0,0,.21.16l.07,0a1.85,1.85,0,0,0,.71.29A.29.29,0,0,0,25,18h0a.3.3,0,0,0,.13,0h.05a1.45,1.45,0,0,0,.44-.07.57.57,0,0,0,.29-.18S25.74,17.76,25.55,17.8ZM24.88,19s0,0,0,0l0,0a.09.09,0,0,1-.06,0,1,1,0,0,1-.44.06,1.08,1.08,0,0,1-.27-.05l-.16-.06a1.18,1.18,0,0,1-.18-.1,1.06,1.06,0,0,1-.17-.1,1.9,1.9,0,0,1-.35-.31,6.45,6.45,0,0,0-.45-.54,1.61,1.61,0,0,0,.3.66,2.16,2.16,0,0,0,.34.38,1.5,1.5,0,0,0,.19.15,1.19,1.19,0,0,0,.23.09,1.28,1.28,0,0,0,.23.06,1.38,1.38,0,0,0,.29,0,1.09,1.09,0,0,0,.42-.12h0l0,0h0s.05,0,.07-.06a.14.14,0,0,0,0-.06.06.06,0,0,1,0,0h0A.06.06,0,0,0,24.88,19Z"/><path class="cls-25" d="M54.6,9.15c-.17-.24-1.73-2.3-1.36-2.63s1.31.23,2,.57a5.11,5.11,0,0,0-.48-.45l0,0-.25-.19a1.51,1.51,0,0,0-.26-.18L54,6.07l-.28-.15-.07,0h0a4.08,4.08,0,0,0-.42-.19L53,5.61a5.22,5.22,0,0,0-.56-.18,4.15,4.15,0,0,0-.61-.14h-.08c-.22,0-.44-.07-.67-.09s-.48,0-.72,0a10.94,10.94,0,0,0-1.77.15l0,0c-.06-.07-.21-.23-.44-.46L48,4.66l-.19-.18-.44-.4c-.16-.14-.34-.3-.53-.45h0c0,.11.1.2.14.3.3.71-.07.79-.69.58l-.37-.15h0a17.37,17.37,0,0,1-2.1-1.16l-.06,0c-.08-.05-.16-.11-.24-.15l.47.37a9.75,9.75,0,0,1,1.35,1.23c.28.32-.24.41-1,.39h0A11.35,11.35,0,0,1,43,4.9a2.84,2.84,0,0,1-.5-.06c-.71-.08-1.37-.18-1.68-.22a12.73,12.73,0,0,1,3.51,1.55c1.5,1,.07,3.13-.51,3.9h0a.92.92,0,0,0-.11.15l.4-.37.35-.26.47-.26h0a1.65,1.65,0,0,1,1.27-.08c.77.3-.74,1.87-2,3l.37-.24.38-.26.11-.08c.29-.2.57-.42.86-.64l.48-.4.47-.41c.32-.29.63-.59.94-.9,0,0,.09.43.25,1.1,0,.08.05.17.07.26l0,.13a.75.75,0,0,1,0,.16s0,0,0,.06a1.36,1.36,0,0,1,.09-.36,1,1,0,0,1,.33-.55c.93-.67,2.29,1.33,2.46,1.58-.09-.23-.73-2-.18-2.41h0a.2.2,0,0,1,.08,0h0c.51-.09,1.72,1.22,2.37,2,.15.18.27.32.33.41l.06.06-.08-.17c-.2-.39-.65-1.32-1-2.13l0,0c-.25-.65-.42-1.22-.3-1.37C52.71,7.63,54.42,9,54.6,9.15ZM27.35,12.08c.16-.52,1.13-1,2.19-1.45,0,0,0,0,0,0l.69-.25c1.14-.39,2.19-.64,2.19-.64s-3.25,0-3.81-.35h0a.11.11,0,0,1-.06-.14,5.61,5.61,0,0,1,1.3-1.15s0,0,0,0l0,0,0,0c.76-.54,1.64-1.11,2.14-1.4l-.47.13h0c-.91.22-2.29.4-2.83,0s0-1.34.46-2.24c-.25.29-.49.58-.73.84l-.23.25c-.14.16-.29.32-.44.46l-.19.18a1.56,1.56,0,0,1-.2.16l-.2.15-.15.1h0l-.28.14-.29.1A1.59,1.59,0,0,1,26,7h0c-.24,0-.46,0-.67,0a2.6,2.6,0,0,1-.4,0,1.09,1.09,0,0,1-.26,0l-.36-.05-.58-.11a5.94,5.94,0,0,1-.79-.24h0l-.11,0a1.93,1.93,0,0,1-.41-.23s.26,2.82,1.7,3.57A11.64,11.64,0,0,1,21.06,9a10,10,0,0,0,2.09,5.42s0,.15-.12.39l.26.18A4.18,4.18,0,0,1,24,17.23c0,.12,0,.24,0,.37a11.64,11.64,0,0,1,0,1.54,1.64,1.64,0,0,1,0,.23,2.38,2.38,0,0,1-.2.92.48.48,0,0,1-.35.24c.23.46.41.84.54,1.16a.25.25,0,0,0,0,.07s0,.11.06.15h0a.08.08,0,0,0,0,0l0,.05a.25.25,0,0,1,0,.07h0l0,0h0a1.78,1.78,0,0,1,.09.23s0,0,0,0l.06-.28a.14.14,0,0,0,0-.06h0a.14.14,0,0,0,0-.07h0c0-.16.09-.34.13-.53h0a.13.13,0,0,1,0-.06c0-.18.05-.37.08-.57a.38.38,0,0,1,0-.1v-.16s0,0,0,0,0,0,0,0a.78.78,0,0,1,0-.14q.07-.47.15-1l0-.23a.14.14,0,0,0,0-.06.06.06,0,0,1,0,0h0a.43.43,0,0,1,0-.11c0-.18.06-.37.1-.55s.05-.28.08-.42l0-.16c0-.2.08-.41.13-.61,0,0,0,0,0-.05l0-.09a.45.45,0,0,1,0-.11.17.17,0,0,1,0-.07c0-.15.07-.3.11-.45l.12-.41A7.94,7.94,0,0,1,26,15h0a.06.06,0,0,1,0,0c.05-.12.11-.22.16-.32l.07,0,.05,0,.66.16.58.13h0l.28.06.8.13.67.1.33,0,.35,0H30l1.06.08,2.08-.06S27,13.27,27.35,12.08Zm30.07.25c-.06,1-.23,2.43-.66,2.56-.21.06-.33-.15-.38-.47a7.67,7.67,0,0,1,0-1.77v0a.45.45,0,0,0,0-.08s0,0,0,0h0l-.11.22a12.79,12.79,0,0,1-2.11,3.09h0a1.39,1.39,0,0,1-.66.37h0c-.81.11-2.74-1.26-3.87-2.13l-.49-.38-.09-.07v0c.09.25.19.49.29.74s.33.76.51,1.11l.16.29a9.19,9.19,0,0,0,.57.93,5.76,5.76,0,0,0,.42.53,3.43,3.43,0,0,0,.33.33,4,4,0,0,0,.34.27s0,.12,0,.27v.12a0,0,0,0,0,0,0c0,.23,0,.54,0,.88h0c0,.13,0,.27,0,.41l0,.35s0,0,0,.06,0,.25,0,.38,0,.22.06.34a4.21,4.21,0,0,0,.12.51l0,.11a1.84,1.84,0,0,0,.09.25,2.92,2.92,0,0,0,.14.31s0,0,0,0,0,0,0,0,.07.12.11.17,0,0,0,0a1,1,0,0,0,.17.19l.1.09.1.07a.5.5,0,0,0,.45.08l0,0s0,0,0,0l.09-.1,0-.06.06-.13h0a6.84,6.84,0,0,0,.24-.91.43.43,0,0,0,0-.05s0,0,0,0h0c0-.11,0-.23.08-.35s0,0,0,0a2,2,0,0,1,.06-.23,2.68,2.68,0,0,1,.1-.35,1.52,1.52,0,0,1,.06-.2s0,0,0-.06l.09-.21c0-.09.08-.18.12-.27a2.53,2.53,0,0,1,.13-.22.16.16,0,0,1,0-.07l.16-.21a1.11,1.11,0,0,1,.2-.24l0,0h0l.17-.14a0,0,0,0,0,0,0,0,0,0,0,0,0,0h0a0,0,0,0,1,0,0l.11-.08.11-.1.09-.08a0,0,0,0,1,0,0l.32-.35.19-.23c.13-.18.27-.37.42-.6s.14-.23.21-.36a5.09,5.09,0,0,0,.3-.62,2.67,2.67,0,0,0,.14-.34,3.82,3.82,0,0,0,.13-.36A8,8,0,0,0,57.42,12.33Z"/><g class="cls-26"><path class="cls-22" d="M54.88,7.39c.94.87,2.12,2.25,1.95,3.64a.25.25,0,0,1-.43.12,11.08,11.08,0,0,1-.87-1.54,8.48,8.48,0,0,0-1.18-1.68c-.29-.32.21-.84.53-.54Z"/><path class="cls-22" d="M54.44,9.35a2.53,2.53,0,0,1,1.35,1.58c.2.61.31,1.71-.46,2-1.38.53-1.69-2.32-1.64-3.15a.56.56,0,0,1,.75-.44Z"/><path class="cls-22" d="M51.84,10.25c.53.16,1,1,1.16,1.46a3.73,3.73,0,0,1,.15,2.14.21.21,0,0,1-.39.06c-.24-.62-.51-1.23-.69-1.87a4.25,4.25,0,0,1-.39-1.69.12.12,0,0,1,.16-.1Z"/><path class="cls-22" d="M49.82,11.1a3.12,3.12,0,0,0,.07.31L50,12a3.79,3.79,0,0,1,.05.95.23.23,0,0,1-.4.11,8.58,8.58,0,0,1-.88-1.8l.29.28L49,11.45a.65.65,0,0,1,0-1.19c.48-.2,1.13.32.85.84Z"/><path class="cls-22" d="M43.68,4.87c-1.09.19-2.15-.33-3.23-.53a11,11,0,0,0-3.62.07.58.58,0,0,1-.53-.91c1.56-2.3,6.31-2,7.87.16a.76.76,0,0,1-.49,1.21Z"/><path class="cls-22" d="M34.24,2.26a6.23,6.23,0,0,0-.86.76,4.45,4.45,0,0,1-.84.73c-.25.12-.44-.16-.38-.37.22-.82,1.28-1.15,2-1.26.07,0,.13.1.06.14Z"/><path class="cls-22" d="M44.86,10.59c-1.73,2.3-5.19,3.78-8,4.21-.2,0-.29-.28-.09-.34a26.56,26.56,0,0,0,3.9-1.54c1.38-.75,2.56-1.78,3.9-2.58.17-.1.4.07.26.25Z"/><path class="cls-22" d="M44.23,8.28c-2.06,3.23-9,5.07-12.51,3.7a.41.41,0,0,1,0-.74c2.1-.68,4.32-.66,6.43-1.35,1.93-.64,3.65-2,5.59-2.45.49-.12.71.5.5.84Z"/><path class="cls-22" d="M29.7,12.17a1.4,1.4,0,0,0-.5,0,.92.92,0,0,1-.52,0,.28.28,0,0,1-.11-.43c.27-.36.91-.2,1.27-.07a.27.27,0,0,1-.14.51Z"/><path class="cls-22" d="M39,6.7a6,6,0,0,1-1.45.38A15.08,15.08,0,0,0,35.14,8,6.86,6.86,0,0,1,31.41,9a.6.6,0,0,1-.47-.81c.79-1.67,2.66-2.21,4.32-2.64,1.22-.31,3.36-.93,4,.6A.46.46,0,0,1,39,6.7Z"/><path class="cls-22" d="M30.12,9a1.35,1.35,0,0,1-.43.22,2.36,2.36,0,0,1-.46,0c-.17,0-.19-.22-.09-.32a2.88,2.88,0,0,1,.33-.28,1.29,1.29,0,0,1,.44-.11c.26,0,.46.36.21.51Z"/></g><path class="cls-7" d="M44.68,40.9l-.11,0c.22.06-.41,1.64-.53,1.84A4.31,4.31,0,0,1,42.76,44a4.38,4.38,0,0,1-3.56.78,3.55,3.55,0,0,1-2-1.24,4,4,0,0,1-.58-2.72,12.72,12.72,0,0,0-2.41,4c-.44,1.31.16,5.21,2.14,4.23,1-.5,2-2.43,2.71-3.44,0,0,2.38,4.23,3.18,4.32,1.5.16,2.81-2,3.34-3.07.85-1.8,1-4.08-.48-5.59A2.33,2.33,0,0,0,44.68,40.9Z"/><path class="cls-4" d="M44.82,40.11l-.1,0c.21.06-.41,1.64-.53,1.84a4.57,4.57,0,0,1-1.29,1.34,4.35,4.35,0,0,1-3.55.78,3.54,3.54,0,0,1-2-1.25,4,4,0,0,1-.58-2.72,12.88,12.88,0,0,0-2.41,4c-.44,1.31.16,5.21,2.14,4.23,1-.5,2-2.43,2.72-3.44,0,0,2.38,4.23,3.18,4.32,1.49.16,2.8-2,3.33-3.07.86-1.8,1-4.08-.48-5.6A1.93,1.93,0,0,0,44.82,40.11Z"/><path class="cls-7" d="M42.41,47.94c2.56-.57,1.7-4.69,1.7-4.69s-1.27,2.38-4.91,1.26-2.56-3.84-2.46-4.45a4,4,0,0,0,.58,2.72,3.54,3.54,0,0,0,2,1.25,4.35,4.35,0,0,0,3.55-.78,4.57,4.57,0,0,0,1.29-1.34c.12-.2.74-1.78.53-1.84l.1,0a1.93,1.93,0,0,1,.4.35c1.52,1.52,1.34,3.8.48,5.6-.53,1.11-1.84,3.23-3.33,3.07-.29,0-.78-.6-1.29-1.31A2,2,0,0,0,42.41,47.94Z"/><path class="cls-7" d="M39.19,44.81c-.75,1-1.71,2.94-2.72,3.44-1.68.83-2.37-1.87-2.26-3.49a6.7,6.7,0,0,0,1.1,2.71C36.38,48.57,39.19,44.81,39.19,44.81Z"/><path class="cls-8" d="M45.78,78.65H32.29a1.11,1.11,0,0,1,.16-.35,1.24,1.24,0,0,1,1-.54H44.6a1.19,1.19,0,0,1,1,.49,1,1,0,0,1,.11.17.51.51,0,0,1,.07.15A.13.13,0,0,1,45.78,78.65Z"/><path class="cls-27" d="M32.87,78.65h-.58a1.11,1.11,0,0,1,.16-.35A1.1,1.1,0,0,0,32.87,78.65Z"/><path class="cls-27" d="M45.78,78.65h-.67a1.12,1.12,0,0,0,.46-.4,1,1,0,0,1,.11.17.51.51,0,0,1,.07.15A.13.13,0,0,1,45.78,78.65Z"/><path class="cls-8" d="M28.59,78.65h7.78a1.62,1.62,0,0,0,0-.22l-.07-.67,0-.35v0l-.11-.93-.24-2.21-.62-5.74-1-9.52-.1-.89a1.63,1.63,0,0,0-.08-.37,2.52,2.52,0,0,0-.15-.34,1.32,1.32,0,0,0-.19-.29l0,0a1.36,1.36,0,0,0-.24-.24,1.05,1.05,0,0,0-.27-.2l-.06,0-.19-.1-.19-.08a1.38,1.38,0,0,0-.29-.08h0a1.34,1.34,0,0,0-.35,0H1.62A1.56,1.56,0,0,0,0,58.09L2.48,74.63,3,78.43a1.42,1.42,0,0,0,0,.22h25.5Z"/><path class="cls-28" d="M28.59,78.65h7.78a1.62,1.62,0,0,0,0-.22l-.07-.67,0-.35v0l-.11-.93-.24-2.21-.62-5.74-1-9.52-.1-.89a1.63,1.63,0,0,0-.08-.37,2.52,2.52,0,0,0-.15-.34,1.32,1.32,0,0,0-.19-.29l0,0a1.36,1.36,0,0,0-.24-.24,1.05,1.05,0,0,0-.27-.2l-.06,0-.19-.1-.19-.08a1.38,1.38,0,0,0-.29-.08h0a1.34,1.34,0,0,0-.35,0H1.62A1.56,1.56,0,0,0,0,58.09L2.48,74.63,3,78.43a1.42,1.42,0,0,0,0,.22h25.5Z"/><path class="cls-8" d="M28.59,78.65h5.84a1.52,1.52,0,0,0,.31-.89,1.93,1.93,0,0,0,0-.24l-.64-5.83L32.92,61.16l-.33-3a2,2,0,0,0-.4-.95,2,2,0,0,0-1-.28h-29A1.49,1.49,0,0,0,.64,58.63L3,74.48,3.51,78a2,2,0,0,0,.21.63H28.59Z"/><path class="cls-8" d="M36.37,78.65H34.5a1.45,1.45,0,0,0,.39-.89,1,1,0,0,0,0-.39l-.65-5.9L33.1,61l-.44-4a1.81,1.81,0,0,0-.24-.72h0a1.38,1.38,0,0,1,.29.08l.19.08.19.1.06,0a1.05,1.05,0,0,1,.27.2,1.36,1.36,0,0,1,.24.24l0,0a1.32,1.32,0,0,1,.19.29,2.52,2.52,0,0,1,.15.34,1.63,1.63,0,0,1,.08.37l.1.89,1,9.52.62,5.74.24,2.21.11.93v0l0,.35.07.67A1.62,1.62,0,0,1,36.37,78.65Z"/><path class="cls-27" d="M20.94,68a3.7,3.7,0,0,1-3.77,4.26A5.06,5.06,0,0,1,12.29,68a3.67,3.67,0,0,1,3.76-4.26A5,5,0,0,1,20.94,68Z"/><path class="cls-27" d="M28.59,78.65h7.78a1.62,1.62,0,0,0,0-.22l-.07-.67,0-.35v0l-.11-.93-.24-2.21-.62-5.74-1-9.52-.1-.89a1.63,1.63,0,0,0-.08-.37,2.52,2.52,0,0,0-.15-.34,1.32,1.32,0,0,0-.19-.29l0,0a1.36,1.36,0,0,0-.24-.24,1.05,1.05,0,0,0-.27-.2l-.06,0-.19-.1-.19-.08a1.38,1.38,0,0,0-.29-.08h0a1.34,1.34,0,0,0-.35,0H26.32a3,3,0,0,1-.11.4v0a.17.17,0,0,1,0,.1.12.12,0,0,1,0,.1q-.07.31-.18.63v0c-.06.2-.12.35-.2.55a.14.14,0,0,1,0,.06,15.61,15.61,0,0,1-2.08,3.88,21.56,21.56,0,0,1-3.57,3.84,34.89,34.89,0,0,1-6.76,4.47h0A59.64,59.64,0,0,1,3,74.48l-.51.15h0L3,78.43a1.42,1.42,0,0,0,0,.22h25.5Z"/><path class="cls-12" d="M28.76,78.65a.58.58,0,0,1,.07-.28c.1-.19.38-.23.78-.18l.33.06.24.06a10.5,10.5,0,0,1,1.11.34Z"/><path class="cls-13" d="M30.18,78.31l-.18.31,0,0H28.76a.58.58,0,0,1,.07-.28c.1-.19.38-.23.78-.18l.33.06Z"/><path class="cls-4" d="M61.22,72.72c0,.22,0,.44-.07.65s0,.33-.07.49-.07.34-.1.5-.07.29-.11.43-.07.24-.11.36a1.75,1.75,0,0,1-.12.32h0a7.32,7.32,0,0,1-1.11,1.79l-.28.33c-.14.16-.29.32-.44.47s-.28.28-.43.42l-.17.16H40.94c.71-.27,1.48-.57,2.27-.89h0l.54-.21h0a58.31,58.31,0,0,0,7.12-3.36c.46-.26.88-.53,1.26-.79.19-.14.38-.27.54-.4l.2-.15h0l.05,0c.13-.12.26-.23.36-.34l.14-.14h0c.07-.07.13-.15.19-.22l.16-.23.06-.1.12-.22a.86.86,0,0,0,.07-.21c0-.11,0-.22.05-.33s0-.08,0-.12,0-.14,0-.21v-.21a2,2,0,0,0,0-.25c0-.06,0-.12,0-.19v-.27s0,0,0-.07a.62.62,0,0,0,0-.13v0c0-.12,0-.25,0-.38V69c0-.1,0-.21,0-.31a1.5,1.5,0,0,0,0-.22c0-.11,0-.22,0-.34L54,68h0v0s0-.09,0-.13h0l0-.22a.06.06,0,0,0,0,0,.57.57,0,0,0,0-.18L53.83,67l0-.22c0-.13,0-.27-.08-.4l0-.21c0-.14-.06-.29-.08-.43a1.42,1.42,0,0,1,0-.2l-.09-.45a1.29,1.29,0,0,1,0-.19c0-.16-.07-.31-.1-.47s0-.11,0-.17-.07-.32-.11-.49h0l0-.14L53,63.05l0-.1c0-.21-.09-.41-.14-.61a0,0,0,0,0,0,0c-.21-.89-.43-1.76-.64-2.55-.08-.31-.16-.6-.23-.88s-.22-.77-.31-1.1v0h0l-.12-.39v0L51.46,57s0,0,0,0,0-.2-.08-.29,0,0,0,0-.05-.17-.07-.25a.06.06,0,0,1,0,0l0-.1,0-.09s0,0,0,0a1.55,1.55,0,0,0,0-.15h0a0,0,0,0,1,0,0h0v0a.73.73,0,0,0,0-.08s-.78-7.43,6.07-10.61a.18.18,0,0,1,.09,0h0l.2-.09.14.61s0,.06,0,.09c.38,1.65,1.33,6,2.17,10.9l0,.17.12.68.12.78a1.55,1.55,0,0,1,0,.21c.09.57.18,1.14.26,1.71s.13.91.19,1.36.1.71.14,1.06c.17,1.31.31,2.6.41,3.85,0,.2,0,.39.05.59,0,.44.06.88.08,1.31h0A32.25,32.25,0,0,1,61.22,72.72Z"/><g class="cls-5"><path class="cls-6" d="M53.73,49.51a2.27,2.27,0,0,0-.38.41,10.15,10.15,0,0,0-1.51,2.61,10.7,10.7,0,0,0-.47,1.74,8.77,8.77,0,0,0-.15,1.22,2.81,2.81,0,0,0,0,.56,2.49,2.49,0,0,0,.09-.55c0-.33.12-.77.22-1.2a13.09,13.09,0,0,1,.53-1.68A12.87,12.87,0,0,1,52.79,51c.22-.38.45-.76.64-1S53.74,49.52,53.73,49.51Z"/><path class="cls-6" d="M51,51.46a3.77,3.77,0,0,0-.28,1.06c-.08.54-.11,1.09-.11,1.09a9.72,9.72,0,0,0,.07,1.09,4.66,4.66,0,0,0,.23,1.07s0-.55-.06-1.09,0-1.07,0-1.07,0-.53,0-1.07S51,51.47,51,51.46Z"/><path class="cls-6" d="M55.05,47.72s.33-.32.66-.61.71-.54.71-.54a7,7,0,0,1,.72-.51c.38-.24.79-.43.78-.46a3,3,0,0,0-.86.31,6.44,6.44,0,0,0-.79.47,6.68,6.68,0,0,0-.67.61A2.59,2.59,0,0,0,55.05,47.72Z"/><path class="cls-6" d="M58.34,72.45a3.57,3.57,0,0,0-1-.73,4.72,4.72,0,0,0-.81-.34,3.28,3.28,0,0,0-.4-.08,2,2,0,0,0-.4,0,3,3,0,0,0-.88.14,2.49,2.49,0,0,0-.76.44.8.8,0,0,0-.25.31s.12-.1.31-.24a2.27,2.27,0,0,1,.75-.34,2.84,2.84,0,0,1,.83-.09,2.08,2.08,0,0,1,.37,0l.37.07a4,4,0,0,1,.8.27C57.8,72.12,58.32,72.48,58.34,72.45Z"/><path class="cls-6" d="M57.13,70.13a3.07,3.07,0,0,0-.92.16,6.85,6.85,0,0,0-.86.35,6,6,0,0,0-.76.54,2.46,2.46,0,0,0-.63.67s.36-.28.73-.54a6.89,6.89,0,0,1,.77-.46s.39-.22.81-.4S57.13,70.17,57.13,70.13Z"/></g><path class="cls-7" d="M61.22,72.72c0,.22,0,.44-.07.65s0,.33-.07.49-.07.34-.1.5-.07.29-.11.43-.07.24-.11.36a1.75,1.75,0,0,1-.12.32h0a7.32,7.32,0,0,1-1.11,1.79l-.28.33c-.14.16-.29.32-.44.47s-.28.28-.43.42l-.17.16H52.64c2.31-2.27,3.65-4.56,2.84-5.13a3.56,3.56,0,0,0-2.61-.29h0a5,5,0,0,0-.67.14c.19-.14.38-.27.54-.4l.13-.11.07-.05h0l0,0,0,0,.21-.18a3.9,3.9,0,0,0,.29-.28h0c.07-.07.13-.15.19-.22l.16-.23.06-.1.12-.22a.86.86,0,0,0,.07-.21c0-.11,0-.22.05-.33s0-.08,0-.12,0-.14,0-.21v-.21a2,2,0,0,0,0-.25c0-.06,0-.12,0-.19v-.27s0,0,0-.07a.62.62,0,0,0,0-.13v0c0-.12,0-.25,0-.38V69c0-.1,0-.21,0-.31a1.5,1.5,0,0,0,0-.22c0-.11,0-.22,0-.34L54,68h0v0s0-.09,0-.13h0l0-.22a.06.06,0,0,0,0,0,.57.57,0,0,0,0-.18L53.83,67l0-.22c0-.13,0-.27-.08-.4l0-.21c0-.14-.06-.29-.08-.43a1.42,1.42,0,0,1,0-.2l-.09-.45a1.29,1.29,0,0,1,0-.19c0-.16-.07-.31-.1-.47s0-.11,0-.17-.07-.32-.11-.49h0l0-.14L53,63.05l0-.1c0-.21-.09-.41-.14-.61a0,0,0,0,0,0,0c-.21-.89-.43-1.76-.64-2.55-.08-.31-.16-.6-.23-.88s-.22-.77-.31-1.1v0h0l-.12-.39v0L51.46,57s0,0,0,0,0-.2-.08-.29,0,0,0,0-.05-.17-.07-.25a.06.06,0,0,1,0,0l0-.1,0-.09s0,0,0,0a1.55,1.55,0,0,0,0-.15h0a0,0,0,0,1,0,0h0v0c0-.4.06-.79.1-1.14a10.64,10.64,0,0,1,.27-1.14c0-.17.1-.36.16-.55a14,14,0,0,1,.8-1.85c.06-.09.11-.19.17-.29s.19-.33.3-.49c.23-.34.46-.66.66-.91a7.73,7.73,0,0,1,.61-.69,14.58,14.58,0,0,0-1.74,5.42,24.44,24.44,0,0,0,1.13,6.46c.35,1.27.77,2.56,1.21,3.74a.42.42,0,0,1,0,.1h0c1.09,2.84,2.35,5,3.36,4.42,1.63-.89,1.7-8.07,1.59-12.33l0,.17.12.68.12.78a1.55,1.55,0,0,1,0,.21c.09.57.18,1.14.26,1.71s.13.91.19,1.36.1.71.14,1.06c.17,1.31.31,2.6.41,3.85,0,.2,0,.39.05.59,0,.44.06.88.08,1.31h0A32.25,32.25,0,0,1,61.22,72.72Z"/><path class="cls-14" d="M40.32,31.08s0,.3-.32.64a3.32,3.32,0,0,1-1.28.93,4.84,4.84,0,0,1-1.55.34,5.58,5.58,0,0,1-.71,0s-.29,0-.7-.09l-.71-.12a1.34,1.34,0,0,1-.87-.39.56.56,0,0,1,0-.62,2.51,2.51,0,0,1,.28-.33l.48-.52c.28-.3.49-.49.52-.46s-.1.26-.33.61l-.4.59a1.81,1.81,0,0,0-.19.3c0,.08,0,.11,0,.15a1.15,1.15,0,0,0,.61.16l.69.06.67,0s.27,0,.67,0a4.36,4.36,0,0,0,1.41-.18,3.45,3.45,0,0,0,1.25-.68C40.13,31.29,40.27,31.05,40.32,31.08Z"/><path class="cls-14" d="M41.56,31.59c0,.08-.3.09-.58,0a2.22,2.22,0,0,1-.53-.22,2.05,2.05,0,0,1-.36-.45c-.15-.25-.21-.52-.14-.56s.27.13.47.26.4.25.4.25.16.16.35.32S41.58,31.5,41.56,31.59Z"/><path class="cls-14" d="M39.28,33.85c0,.07-.21.37-.58.56a2.55,2.55,0,0,1-.78.24,2.68,2.68,0,0,1-.8-.18c-.39-.15-.67-.43-.62-.5s.39.05.73.07a3.08,3.08,0,0,0,.66,0,2.79,2.79,0,0,0,.66,0C38.89,33.94,39.22,33.79,39.28,33.85Z"/></g></g></g></svg>