<svg xmlns="http://www.w3.org/2000/svg" viewBox="0 0 147.76 197.66"><defs><style>.cls-1{isolation:isolate;}.cls-2{fill:#fff;}.cls-21,.cls-29,.cls-3,.cls-33,.cls-5{opacity:0.5;}.cls-11,.cls-12,.cls-14,.cls-16,.cls-18,.cls-20,.cls-24,.cls-26,.cls-28,.cls-29,.cls-3,.cls-33,.cls-5,.cls-9{mix-blend-mode:multiply;}.cls-12,.cls-4,.cls-5{fill:#d3dbfd;}.cls-6,.cls-7{fill:#294168;}.cls-6{opacity:0.6;}.cls-15,.cls-21,.cls-22,.cls-25,.cls-30,.cls-32,.cls-34,.cls-6{mix-blend-mode:screen;}.cls-8,.cls-9{fill:#88ac76;}.cls-9{opacity:0.34;}.cls-10,.cls-11{fill:#212f47;}.cls-11,.cls-14,.cls-18{opacity:0.45;}.cls-13,.cls-14,.cls-15,.cls-26{fill:#3c1d91;}.cls-17,.cls-18,.cls-20,.cls-22{fill:#ebd0a6;}.cls-19{fill:#de9168;}.cls-20{opacity:0.62;}.cls-23,.cls-24,.cls-25{fill:#6f3a1e;}.cls-24{opacity:0.25;}.cls-27,.cls-29{fill:#f15e6b;}.cls-28{fill:#501214;opacity:0.1;}.cls-30{fill:#f8e9d0;}.cls-31,.cls-32,.cls-33{fill:#a95913;}.cls-34{opacity:0.35;}</style></defs><title>regularРесурс 6</title><g class="cls-1"><g id="Слой_2" data-name="Слой 2"><g id="OBJECTS"><path class="cls-2" d="M147.76,169.34c0,.26,0,.53,0,.8s0,.54-.06.82-.05.55-.09.83-.08.56-.13.85-.1.58-.16.86-.13.58-.2.88-.15.58-.23.88c-.16.59-.35,1.19-.55,1.79L146,178c-.11.3-.23.61-.35.91-.21.54-.44,1.09-.69,1.64s-.45,1-.69,1.48-.58,1.16-.89,1.75l-.42.77c-.68,1.26-1.44,2.52-2.23,3.79-1.28,2-2.69,4.05-4.19,6.05-.29.4-.59.79-.9,1.18s-.39.51-.6.77q-.53.67-1.08,1.35H107.27c6-6.69,14.81-17.11,18.55-24.55.32-.65.61-1.27.84-1.87.07-.17.15-.35.2-.51a11.93,11.93,0,0,0,.6-2.1,3.68,3.68,0,0,0,.09-.63,3.89,3.89,0,0,0,0-1,3.19,3.19,0,0,0-.11-.71q-.1-.37-.27-.81c0-.09-.08-.19-.12-.28s-.16-.4-.26-.6-.12-.25-.18-.37-.19-.39-.3-.59-.15-.28-.23-.41-.22-.41-.35-.62l-.27-.44-.39-.64-.3-.46c-.15-.23-.29-.45-.45-.68L124,160c-.33-.49-.69-1-1.06-1.5-.11-.14-.22-.29-.32-.44s-.24-.31-.35-.47l-.3-.39c-.3-.41-.62-.83-.95-1.24l-.34-.44-.36-.46-.68-.85-.36-.44-.73-.89-.32-.39-.79-.95-.31-.36-.84-1-.26-.31-.92-1.06-.19-.22-1-1.16a.52.52,0,0,0-.1-.11l-2.25-2.52c-.36-.41-.72-.81-1.09-1.2-.49-.55-1-1.07-1.45-1.58h0l-.06,0h0l-.19-.21-.45-.48c-1-1-1.88-2-2.69-2.86l-.06-.06-.7-.74-.16-.16-.28-.29-.26-.27-.18-.19-.23-.24-.22-.23-.14-.14-.36-.37-.19-.2-.24-.24a1.7,1.7,0,0,0-.19-.19l-.08-.09-.21-.21,0,0-.15-.15a19.58,19.58,0,0,1-1-2.5.14.14,0,0,0,0-.06c-.1-.3-.19-.63-.29-1a.19.19,0,0,1,0-.08c0-.13-.08-.27-.11-.41s-.08-.28-.11-.43-.08-.3-.11-.45a1.06,1.06,0,0,1,0-.19c-.07-.29-.13-.58-.19-.89,0-.08,0-.16,0-.24-.07-.39-.14-.8-.2-1.22,0,0,0-.08,0-.12-.06-.44-.11-.88-.15-1.35v0l0-.32c0-.47-.06-1-.08-1.44v-.08c0-.43,0-.87,0-1.32,0-.14,0-.27,0-.41a1.62,1.62,0,0,1,0-.22c0-.55.05-1.11.11-1.68,0-.06,0-.12.21-1.61,0-.26.08-.51.13-.78l.09-.48c.15-.76.33-1.53.56-2.31s.45-1.46.73-2.2a30.28,30.28,0,0,1,2.34-4.86,34.89,34.89,0,0,1,3-4.27l.18-.22s1.08,1.31,2.9,3.57c2.27,2.84,5.69,7.17,9.56,12.31l.54.71.53.71c.06.08.12.15.17.23l.87,1.16.29.39.81,1.09.27.37,1,1.38a.35.35,0,0,0,0,.08l1.1,1.51.23.31.85,1.19.33.46.79,1.11.32.45c.33.45.65.91,1,1.37l.12.16c.36.52.73,1,1.09,1.57l.25.36.82,1.2c.12.16.23.33.34.49l.75,1.1.34.5.92,1.37.12.19,1,1.57.26.4.76,1.17.33.51.3.47c.53.82,1,1.63,1.53,2.44l.13.22.84,1.36.09.16.27.44.64,1.08.3.52c.21.34.4.69.6,1l.28.48c.24.44.49.87.72,1.29a1.62,1.62,0,0,1,.1.18c.24.43.48.86.7,1.28l.08.15.23.44c.18.33.35.66.52,1l.25.49.47.94c.07.16.15.31.23.46.19.4.38.8.56,1.2l.07.14c.2.44.4.87.58,1.3l.17.39c.12.3.25.59.36.88l.18.45c.11.28.22.56.32.83s.1.26.14.39c.14.38.26.74.38,1.1l0,.07c.09.29.18.57.25.85a1,1,0,0,1,0,.14c0,.13.07.25.1.38s0,.05,0,.08c.07.25.13.5.19.74s0,.25.08.37.09.47.13.7,0,.21,0,.31,0,.19,0,.28.05.44.07.65h0C147.74,168.49,147.76,168.91,147.76,169.34Z"/><g class="cls-3"><path class="cls-4" d="M138.74,163.9a10.19,10.19,0,0,0-3.27-.45,10.93,10.93,0,0,0-2.28.21,8,8,0,0,0-1,.26,7.24,7.24,0,0,0-1,.44,7.65,7.65,0,0,0-1.85,1.37,5.77,5.77,0,0,0-1.24,1.9,2.38,2.38,0,0,0-.22,1,7.68,7.68,0,0,0,.44-.9,6.51,6.51,0,0,1,1.33-1.69,8,8,0,0,1,1.8-1.18,7.49,7.49,0,0,1,.91-.36s.37-.14.95-.29a11.88,11.88,0,0,1,2.16-.33C137.09,163.78,138.72,164,138.74,163.9Z"/><path class="cls-4" d="M133.13,160.06a7.47,7.47,0,0,0-1.92,1.45,15.68,15.68,0,0,0-1.58,1.82,14.77,14.77,0,0,0-1.12,2.12,6.72,6.72,0,0,0-.65,2.29c.08,0,.49-1.08,1-2.1a18.67,18.67,0,0,1,1.24-2,17.16,17.16,0,0,1,1.39-1.86C132.29,160.91,133.19,160.13,133.13,160.06Z"/></g><path class="cls-5" d="M147.76,169.34c0,.26,0,.53,0,.8s0,.54-.06.82-.05.55-.09.83-.08.56-.13.85-.1.58-.16.86-.13.58-.2.88-.15.58-.23.88c-.16.59-.35,1.19-.55,1.79L146,178c-.11.3-.23.61-.35.91-.21.54-.44,1.09-.69,1.64s-.45,1-.69,1.48-.58,1.16-.89,1.75c-.11.21-.22.43-.34.64l-.08.13c-.68,1.26-1.44,2.52-2.23,3.79-1.28,2-2.69,4.05-4.19,6.05-.29.4-.59.79-.9,1.18s-.39.51-.6.77q-.53.67-1.08,1.35h-7c7.53-11.66,10.42-27.4,6.5-27.92-2.43-.33-5.2,1.35-7.58,3.37.32-.65.61-1.27.84-1.87a5.38,5.38,0,0,0,.2-.51,11.93,11.93,0,0,0,.6-2.1q.06-.33.09-.63a5.2,5.2,0,0,0,0-1,3.19,3.19,0,0,0-.11-.71q-.1-.37-.27-.81c0-.09-.08-.19-.12-.28s-.16-.4-.26-.6-.12-.25-.18-.37-.19-.39-.3-.59-.15-.28-.23-.41-.22-.41-.35-.62l-.27-.44-.39-.64-.3-.46c-.15-.23-.29-.45-.45-.68L124,160c-.18-.27-.38-.54-.57-.82-.09-.12-.17-.25-.27-.36l-.22-.32c-.11-.14-.22-.29-.32-.44s-.24-.31-.35-.47l-.3-.39-.3-.39-.36-.47-.29-.38-.34-.44-.36-.46-.68-.85-.36-.44-.73-.89-.32-.39-.79-.95-.31-.36-.84-1-.26-.31-.92-1.06-.19-.22-1-1.16a.52.52,0,0,0-.1-.11l-2.25-2.52c-.36-.41-.73-.81-1.09-1.2-.49-.55-1-1.07-1.45-1.58h0l-.06,0h0l-.19-.21-.45-.48c-1-1-1.88-2-2.69-2.86l-.06-.06-.7-.74-.16-.16-.28-.29-.26-.27-.18-.19-.23-.24-.22-.23-.14-.14-.36-.37-.19-.2-.24-.24-.19-.19-.08-.09-.21-.21,0,0c-.4-.92-.79-1.82-1.13-2.65a.14.14,0,0,0,0-.06c-.1-.3-.19-.63-.29-1a.19.19,0,0,1,0-.08s0,0,0,0l-.09-.36c0-.14-.08-.28-.11-.43a2.33,2.33,0,0,1-.07-.25.19.19,0,0,0,0-.08.5.5,0,0,1,0-.12,1.06,1.06,0,0,1,0-.19c-.07-.29-.13-.58-.19-.89,0-.08,0-.16,0-.24-.07-.39-.14-.8-.2-1.22,0,0,0-.08,0-.12-.06-.44-.11-.88-.15-1.35v0l0-.32c0-.47-.06-1-.08-1.44v-.08c0-.43,0-.87,0-1.32v-.27c0-.05,0-.09,0-.14a1.62,1.62,0,0,1,0-.22c0-.55.05-1.11.11-1.68,0-.06,0-.12.21-1.61.08-.45.15-.87.22-1.26.15-.76.33-1.53.56-2.31a44.54,44.54,0,0,0,1.19,10.61,28.28,28.28,0,0,0,1.33,3.84,18.69,18.69,0,0,0,1.68,2.89c1,1.43,2.24,3.09,3.71,4.86l.5.61.31.36.06.07c8.36,9.8,22,22.12,24.83,18,3.83-5.63-14.94-36.52-15.29-37l.37.07s0,0,0,0l.53.69.53.71c.06.08.12.15.17.23l.87,1.16.29.39.81,1.09.27.37,1,1.38a.35.35,0,0,0,0,.08l1.1,1.51.23.31.85,1.19.33.46.79,1.11.32.45c.33.45.65.91,1,1.37l.12.16c.36.52.73,1,1.09,1.57l.25.36.82,1.2c.12.16.23.33.34.49l.75,1.1.34.5.92,1.37.12.19,1,1.57.26.4.76,1.17.33.51.3.47.38.61c.11.17.22.34.32.51.28.44.56.88.83,1.32l.13.22.84,1.36.09.16.27.44.64,1.08.3.52c.21.34.4.69.6,1l.28.48c.24.44.49.87.72,1.29a1.62,1.62,0,0,1,.1.18c.24.43.48.86.7,1.28l.08.15.23.44c.18.33.35.66.52,1l.25.49.47.94c.07.16.15.31.23.46.19.4.38.8.56,1.2l.07.14c.2.44.4.87.58,1.3l.17.39c.12.3.25.59.36.88l.18.45c.11.28.22.56.32.83s.1.26.14.39c.14.38.26.74.38,1.1l0,.07c.09.29.18.57.25.85a1,1,0,0,1,0,.14.56.56,0,0,1,0,.12l.06.26s0,.05,0,.08c.07.25.13.5.19.74s0,.25.08.37.09.47.13.7,0,.21,0,.31,0,.19,0,.28.05.44.07.65h0C147.74,168.49,147.76,168.91,147.76,169.34Z"/><path class="cls-6" d="M130.67,172.14c0,.05-.34.1-.88.32a5.23,5.23,0,0,0-1.88,1.44c-1.3,1.48-2.33,4-3.69,6.38s-2.71,4.71-3.82,6.43-1.9,2.83-1.9,2.83a76,76,0,0,1-6.87,8.12h-1.22l.36-.39a81.3,81.3,0,0,0,6.71-8.44s.8-1.08,2-2.74,2.62-3.93,4-6.24l2-3.42a14.29,14.29,0,0,1,2.09-2.86,5.05,5.05,0,0,1,2.15-1.35A1.88,1.88,0,0,1,130.67,172.14Z"/><path class="cls-6" d="M103.22,117.7a43.6,43.6,0,0,0-.4,4.78c-.07,2.41.18,4.83,0,4.86a15.28,15.28,0,0,1-.88-4.84,33.41,33.41,0,0,1,0-4.94,35.94,35.94,0,0,1,1.06-4.83c.71-2.37,1.8-4.59,2-4.52s-.62,2.37-1.1,4.73A44.15,44.15,0,0,0,103.22,117.7Z"/><path class="cls-7" d="M79.3,197.66H97.87a3.19,3.19,0,0,0-.12-.63,4.06,4.06,0,0,0-.4-1,5,5,0,0,0-.33-.47,4.69,4.69,0,0,0-.48-.53,8,8,0,0,0-2.77-1.62,29,29,0,0,0-10-1.35h-.84c-1.23,0-2.49.1-3.76.21l-.54.05c-1.54.14-3.1.34-4.64.59-.46.06-.92.14-1.38.22-1.71.3-3.39.66-5,1.07a44.76,44.76,0,0,0-8.52,3h0l-.21.1-.62.33H79.3Z"/><path class="cls-8" d="M79.3,197.66H97.87a3.19,3.19,0,0,0-.12-.63,4.06,4.06,0,0,0-.4-1,5,5,0,0,0-.33-.47,4.69,4.69,0,0,0-.48-.53,8,8,0,0,0-2.77-1.62,29,29,0,0,0-10-1.35h-.84c-1.23,0-2.49.1-3.76.21l-.54.05c-1.54.14-3.1.34-4.64.59-.46.06-.92.14-1.38.22-1.71.3-3.39.66-5,1.07a44.76,44.76,0,0,0-8.52,3h0l-.21.1-.62.33H79.3Z"/><path class="cls-9" d="M79.3,197.66H97.87a3.19,3.19,0,0,0-.12-.63,4.06,4.06,0,0,0-.4-1,5,5,0,0,0-.33-.47,4.69,4.69,0,0,0-.48-.53,8,8,0,0,0-2.77-1.62,29,29,0,0,0-10-1.35h-.84c-1.23,0-2.49.1-3.76.21l-.54.05c-1.54.14-3.1.34-4.64.59-.46.06-.92.14-1.38.22-1.71.3-3.39.66-5,1.07a44.76,44.76,0,0,0-8.52,3h0l-.21.1-.62.33H79.3Z"/><path class="cls-10" d="M98.58,197.66H55.94l.72-.12h0l.18,0,1.2-.16.69-.08h0l.21,0h.1l1.48-.15.84-.08.33,0,1.61-.13,2.61-.19,1.77-.11c1.72-.11,3.49-.2,5.28-.28l.75,0H74l.82,0,.39,0,1.2,0,.7,0,1.42-.06h.69l1.31,0,.75,0h0l1.39,0,1.43,0h.33l1.53,0,3.05-.07h.51l1,0,.87,0,1,0,3.24,0h1.46a6.28,6.28,0,0,1,.55.6c.12.14.24.31.38.5A7,7,0,0,1,98.58,197.66Z"/><path class="cls-11" d="M98.58,197.66H55.94l.72-.12h0l.18,0,1.2-.16.69-.08h0l.2,0h.1l1.48-.15.84-.08.33,0,1.61-.13,2.61-.19,1.77-.11c1.72-.11,3.49-.2,5.28-.28l.77,0,.26,0,.82,0,.39,0,1.2,0,.7,0,1.42-.06h.69l1.31,0,.75,0h0l1.39,0,1.43,0h.33l1.53,0,3.05-.07h.51l1,0,.87,0,1,0,3.24,0h.65c.39.16.75.31,1.07.46l.29.13c.12.14.24.31.38.5A7,7,0,0,1,98.58,197.66Z"/><path class="cls-2" d="M111.59,114.7c0,.38,0,.76,0,1.15-.12,3-.38,6-.66,8.94-.42,4.47-.91,8.94-1.44,13.41q-.21,1.89-.45,3.78h0c-1.25,10.13-2.7,20.23-4.16,30.33-.46,3.19-1,6.38-1.42,9.57s-1,6.56-1.46,9.83c-.31,2-.45,4.14-1.38,5.94H50.17a7.67,7.67,0,0,1-.55-3.46c0-1.2.13-2.45.09-3.58v-.18a.56.56,0,0,0,0-.13c-.18-3.72-.56-7.43-1.06-11.12q-.93-6.94-2.33-13.87c-.15-.76-.31-1.53-.47-2.3s-.33-1.53-.5-2.3c-.34-1.53-.69-3.06-1.06-4.59-.91-3.81-1.93-7.6-3-11.34-.23-.75-.45-1.5-.68-2.25v0c-.08-.28-.16-.56-.25-.84a2.5,2.5,0,0,0,.09-.25.3.3,0,0,0,0-.08,27.1,27.1,0,0,0,1.45-9.83c0-.27,0-.55,0-.83,0-.68-.05-1.37-.1-2.06h0c-.67-10.84-4.36-22.63-5-24.56h0l-.09-.27.15-.1c5.61-3.63,19.77-6.56,26.18-7.75l1.73-.32h0l1.5-.25h3.85c4.24,0,9.19.12,14.18.62l.31,0,.24,0,.13,0c.45,0,.91.09,1.36.15h0l1.05.14c7.53,1,14.78,3.08,19.35,7.28A14.63,14.63,0,0,1,111.59,114.7Z"/><path class="cls-5" d="M111.59,114.7c0,.2,0,.39,0,.59-.12,3-.38,6-.66,8.94q-.66,7-1.5,13.9c-.14,1.26-.29,2.52-.45,3.79h0c-1.24,10-2.67,19.9-4.1,29.83-.5,3.44-1,6.88-1.51,10.32-.46,3-.91,6.06-1.37,9.08-.34,2.21-.48,4.59-1.7,6.5H50.53a5.7,5.7,0,0,1-.91-3.46c0-1.18.09-2.42.09-3.58v-.18a5.3,5.3,0,0,0,0-.69c-.18-3.72-.56-7.43-1.06-11.12a230.51,230.51,0,0,0-8-36.45c-.07-.25-.15-.5-.23-.75a.06.06,0,0,0,0,0,2.76,2.76,0,0,0-.08-.27,25.63,25.63,0,0,0,1.58-9.6c0-.27,0-.55,0-.83,0-.7,0-1.42-.07-2.14-.53-9.92-3.69-20.79-4.76-24.22l-.2-.65-.15-.46c5.6-3.74,20.34-6.75,26.64-7.91l2-.36.85-.15H69.8c4.34,0,9.46.11,14.61.63l.17,0,.28,0,.12,0c.3,0,.6.06.89.09l1.13.14C96.71,97,106,100,109.83,107A15.43,15.43,0,0,1,111.59,114.7Z"/><path class="cls-5" d="M103.45,181.89c-.49,3.28-1,6.56-1.46,9.83-.31,2-.45,4.14-1.38,5.94H50.17a7.67,7.67,0,0,1-.55-3.46c0-1.2.13-2.45.09-3.58v-.18a.56.56,0,0,0,0-.13c-.18-3.72-.56-7.43-1.06-11.12q-.93-6.94-2.33-13.87c-.15-.76-.31-1.53-.47-2.3s-.33-1.53-.5-2.3c-.34-1.53-.69-3.06-1.06-4.59q-1.4-5.72-3-11.34c-.23-.75-.45-1.5-.68-2.25v0c0-.11,0-.23.07-.34.09-.41.17-.82.25-1.22,1.82-8.94,3.29-15.08,3.29-15.08a25.38,25.38,0,0,0,.1,2.6c0,.46.07,1,.11,1.55l0,.32c.05.65.1,1.36.17,2.13l0,.34c1.43,15.83,6.63,53.77,20.73,60.44q1.13.53,2.25,1a38.43,38.43,0,0,0,6.15,2h0q.69.17,1.38.3c.64.11,1.28.22,1.91.29s1,.13,1.51.16l.49,0h.23l.49,0c.23,0,.46,0,.69,0A24.3,24.3,0,0,0,89,195.74h0a22.34,22.34,0,0,0,4.72-2.29,27.18,27.18,0,0,0,9.59-11.37Z"/><path class="cls-5" d="M62.54,110.23v-.13A.93.93,0,0,1,62.54,110.23Z"/><path class="cls-12" d="M78.56,197c0,.21,0,.44,0,.68h.5l0-.64c0-.36,0-.7,0-1h0c0-.86,0-1.44,0-1.44s0-.3,0-.79v-.05c0-.38,0-.86,0-1.41s0-1.4,0-2.14c0-1.1,0-2.2-.06-3a6.59,6.59,0,0,0-.11-1.37s0,.12-.06.34v.05c0,.24,0,.58-.08,1s0,.78,0,1.22-.05,1.18-.08,1.8-.05,1.52-.07,2.19l-.07,2.19s0,.59,0,1.47C78.55,196.32,78.56,196.64,78.56,197Z"/><path class="cls-5" d="M86,177.68c-.08-.82-.18-1.65-.3-2.5-.38-2.77-.74-5.55-1-8.34-.86-8.45-4.33-35.43-5.74-46.32-.33-2.58-.55-4.26-.59-4.57a6.44,6.44,0,0,0,2.8-2.79,9.28,9.28,0,0,0,1-3.39h0c0-.1,0-.15,0-.15a27.68,27.68,0,0,0-2.29-3.36l-.06-.08c-.22-.27-.45-.54-.68-.78h0a10.35,10.35,0,0,0-.89-.87,5.06,5.06,0,0,0-1.12-.78H77a2,2,0,0,0-1.11-.26,2.68,2.68,0,0,0-.64.15h0a.86.86,0,0,0-.21.07c-2.3.85-5.21,3.94-5.41,6.28h0a2.56,2.56,0,0,0,0,.62,19.66,19.66,0,0,0,1.91,2.81h0a12.69,12.69,0,0,0,1.18,1.27,7.55,7.55,0,0,0,1.9,1.38c-2.54,15.78-4.67,31.68-5.92,47.61-.85,10.89-2,20.55,3.87,29.5a27.27,27.27,0,0,0,2.25,3l.18.21.12.14,1,1.13H79.3c.16-.2.32-.4.47-.61s.53-.71.78-1.08a38.62,38.62,0,0,0,2.36-3.86,37,37,0,0,0,2.2-4.9A20.85,20.85,0,0,0,86,177.68Z"/><path class="cls-13" d="M86.79,174.61l-.15-1.08c-.31-2.42-.63-4.83-.87-7.26-.67-6.59-2.93-24.45-4.56-37.16-.11-.84-.21-1.66-.31-2.45-.07-.53-.14-1-.2-1.54,0-.21-.06-.41-.08-.62l-.15-1.2c0-.26-.07-.52-.1-.77s-.09-.65-.13-1-.06-.51-.09-.75l0-.21-.06-.48c0-.34-.09-.66-.13-1-.07-.56-.13-1.07-.19-1.51a.13.13,0,0,0,0-.06c0-.31-.08-.59-.11-.84a.62.62,0,0,1,0-.13c0-.2,0-.38-.07-.53-.05-.38-.09-.62-.1-.72a5.3,5.3,0,0,0,.62-.36s0,0,.06,0c.18-.12.35-.25.51-.38s0,0,0,0a5.39,5.39,0,0,0,.43-.39l.06-.07a2.73,2.73,0,0,0,.32-.37,6.85,6.85,0,0,0,.71-1l.18-.36a8.41,8.41,0,0,0,.56-1.43,9.73,9.73,0,0,0,.25-1.11,6.08,6.08,0,0,0,.09-.75s-.46-.82-1.18-1.86A15.82,15.82,0,0,0,79,103.63h0a.61.61,0,0,0-.16-.12l0,0a3.38,3.38,0,0,0-.87-.47,1.34,1.34,0,0,0-.27-.07,1.48,1.48,0,0,0-.55,0,3.61,3.61,0,0,0-.6.13s0,0,0,0,0,0,0,0,0,0,0,0a5.19,5.19,0,0,0-.85.38h0l-.35.2h0l-.13.08a8.28,8.28,0,0,0-1,.73c-.32.27-.64.56-.94.86l-.55.6,0,0-.27.33c-.09.11-.17.23-.25.34a3.71,3.71,0,0,0-.28.41,2.61,2.61,0,0,0-.17.28,5.7,5.7,0,0,0-.36.69c-.05.11-.1.23-.14.34s-.07.2-.1.29a2.68,2.68,0,0,0-.07.27,1.36,1.36,0,0,0,0,.17,2.51,2.51,0,0,0,0,.27,2.4,2.4,0,0,0,0,.71s.13.24.37.63h0a20,20,0,0,0,1.41,2h0c.3.37.63.75,1,1.11a8.16,8.16,0,0,0,2.23,1.7c-2.55,15.77-4.68,31.67-5.92,47.6-.86,11-2,20.82,4.1,29.86a30.83,30.83,0,0,0,2.2,2.86c.08.1.17.19.26.29h0l.62.7.73.84H80c.16-.19.32-.39.47-.59.29-.36.57-.74.84-1.12h0a38.64,38.64,0,0,0,2.44-3.85,37,37,0,0,0,2.51-5.47C87.72,182.57,87.35,178.74,86.79,174.61Z"/><path class="cls-14" d="M79.3,197.66H80c.16-.19.32-.39.47-.59.29-.36.57-.74.84-1.12h0a38.64,38.64,0,0,0,2.44-3.85,37,37,0,0,0,2.51-5.47c1.46-4.06,1.09-7.89.53-12-.05-.38-.09-.76-.14-1.13a.09.09,0,0,1,0,.05,34.2,34.2,0,0,1-.69,4.15c-1.82,8.06-6.09,12.44-10.78,2.81-5.63-11.57.61-61.53,2.13-62.44.43-.26,1,.81,1.58,2.47.83,2.35,1.71,5.91,2.33,8.59-.11-.84-.21-1.66-.31-2.45-.07-.53-.14-1-.2-1.54,0-.21-.06-.41-.08-.62l-.15-1.2c0-.26-.07-.52-.1-.77s-.09-.65-.13-1-.06-.51-.09-.75l0-.21-.06-.48c0-.34-.09-.66-.13-1-.07-.56-.13-1.07-.19-1.51a.13.13,0,0,0,0-.06c0-.31-.08-.59-.11-.84a.62.62,0,0,1,0-.13c0-.2,0-.38-.07-.53-.05-.38-.09-.62-.1-.72a5.3,5.3,0,0,0,.62-.36s0,0,.06,0c.18-.12.35-.25.51-.38s0,0,0,0a5.39,5.39,0,0,0,.43-.39l.06-.07a2.73,2.73,0,0,0,.32-.37,6.85,6.85,0,0,0,.71-1l.18-.36a8.47,8.47,0,0,1-1.27.83c-1.35.74-3.37,1.38-5,0a3.23,3.23,0,0,1-1-1.42h0a6.12,6.12,0,0,1-.35-1.8h0a16.67,16.67,0,0,1,1.1-6.23l0-.11Z"/><path class="cls-14" d="M75.93,103.58h0l-.22.09-1.67.74c-.32.27-.64.56-.94.86l-.55.6,0,0-.27.33c-.09.11-.17.23-.25.34a3.71,3.71,0,0,0-.28.41,2.61,2.61,0,0,0-.17.28,5.7,5.7,0,0,0-.36.69c-.05.11-.1.23-.14.34s-.07.2-.1.29a2.68,2.68,0,0,0-.07.27,1.36,1.36,0,0,0,0,.17,2.51,2.51,0,0,0,0,.27,2.4,2.4,0,0,0,0,.71s.13.24.37.63h0a20,20,0,0,0,1.41,2h0c.3.37.63.75,1,1.11a8.16,8.16,0,0,0,2.23,1.7c-2.55,15.77-4.68,31.67-5.92,47.6-.86,11-2,20.82,4.1,29.86a30.83,30.83,0,0,0,2.2,2.86c.08.1.17.19.26.29h0l.62.7.73.84h1.29Z"/><path class="cls-15" d="M81.35,144.21s-2.46-20.49-2.8-20.49,1.56,20.62,1.56,20.62,2.46,20.49,2.8,20.49S81.35,144.21,81.35,144.21Zm3,28.56s-.15-1.41-.39-2.8a7.76,7.76,0,0,0-.74-2.75,9.08,9.08,0,0,0-.14,2.83l0,2.79.3,2.78a9.33,9.33,0,0,0,.47,2.8,7.75,7.75,0,0,0,.42-2.82C84.33,174.19,84.32,172.77,84.32,172.77Zm-4-62.7a4.61,4.61,0,0,0-.8-1.72c-.6-.78-1.5-1.1-1.57-.94s.54.7.81,1.4a9.36,9.36,0,0,1,.41,2.9c-.08.76-.51,1.45-.4,1.58s.89-.43,1.25-1.34A4.48,4.48,0,0,0,80.33,110.07Z"/><g class="cls-3"><path class="cls-4" d="M92.17,102c1,2.24,4,3.88,5.58,5.78,1.79,2.15,3.47,4.67,5,7a.57.57,0,0,0,1-.14c1.41-3.79.36-7.13-2.22-10.2-1.93-2.31-5.92-5.33-9.07-3.84a1.05,1.05,0,0,0-.37,1.41Z"/></g><g class="cls-3"><path class="cls-4" d="M59.24,197.66H54.36a12.52,12.52,0,0,1-3.18-10.1c.13-.59,1.12-.77,1.37-.18.93,2.15,1.16,4.5,2.5,6.48a16.63,16.63,0,0,0,3.71,3.4s0,0,0,0l.08.06Z"/></g><g class="cls-3"><path class="cls-4" d="M100.38,190.35A10.42,10.42,0,0,1,98,196.7l-.27.33c-.18.22-.36.43-.55.63H93.35A15.45,15.45,0,0,0,95.6,196c.15-.14.3-.27.44-.42h0a5.08,5.08,0,0,0,.5-.54,31.12,31.12,0,0,0,3.23-4.89A.33.33,0,0,1,100.38,190.35Z"/></g><g class="cls-16"><path class="cls-4" d="M107,154.65a5.57,5.57,0,0,1,.06-1c.07-.61.16-1.47.28-2.51.23-2.07.52-4.83.77-7.6.5-5.53.69-11.07.69-11.07s.27-5.55.11-11.1c-.09-2.77-.26-5.54-.45-7.62-.07-1-.18-1.9-.23-2.5a5,5,0,0,1-.05-1,6.92,6.92,0,0,1,.18.94c.08.6.24,1.46.35,2.5.26,2.07.49,4.84.64,7.62.28,5.57.07,11.14.07,11.14s-.25,5.57-.87,11.1c-.31,2.76-.66,5.52-1,7.59-.15,1-.29,1.88-.39,2.49A5.27,5.27,0,0,1,107,154.65Z"/></g><path class="cls-17" d="M57.1,197.66H55.46a1.63,1.63,0,0,1,1.2-.12h0Z"/><path class="cls-2" d="M18.2,197.66c-.76-.74-1.5-1.48-2.24-2.23l-.12-.12c-.37-.39-.75-.78-1.12-1.18l-.28-.3c-.32-.33-.63-.67-.93-1-.8-.88-1.58-1.76-2.34-2.65-1-1.19-2-2.39-2.89-3.59l-.54-.72-.65-.9c-.13-.17-.24-.33-.35-.49l-.55-.79a48.63,48.63,0,0,1-3.47-5.87c-.14-.27-.27-.55-.39-.82q-.45-.94-.81-1.89c-.09-.23-.18-.46-.26-.68s-.2-.56-.29-.84a22.31,22.31,0,0,1-.76-3.11A15,15,0,0,1,0,167.75c0-.25,0-.51,0-.78,0,0,0-.08,0-.12,0-.21,0-.42.07-.63s0-.23.05-.34.06-.39.1-.59.06-.32.09-.48a3,3,0,0,1,.07-.32l.09-.42c0-.22.11-.44.17-.66a.07.07,0,0,1,0,0c.09-.36.2-.72.31-1.09s.23-.74.36-1.12a.24.24,0,0,1,0-.08l.15-.42c.1-.29.2-.58.31-.87L2,159.4c.16-.42.32-.84.5-1.27a.42.42,0,0,1,0-.1c.16-.4.33-.81.51-1.22.06-.14.12-.29.19-.43.13-.31.27-.62.41-.94.07-.16.14-.32.22-.48l.46-1c.06-.13.12-.27.19-.41q.33-.69.69-1.41l.07-.15c.21-.43.43-.86.66-1.3l.24-.46.53-1,.27-.5c.19-.37.39-.73.58-1.09l.23-.42L8.44,146l.17-.3.1-.17c.25-.45.5-.9.76-1.35s.42-.73.63-1.1l.27-.47.3-.5c.22-.38.44-.76.67-1.14l.24-.42c.31-.52.62-1,.94-1.56,0,0,.05-.09.08-.14.29-.46.57-.93.86-1.4l.29-.48.69-1.11.3-.48.75-1.2.22-.35,1-1.56.09-.14.89-1.39.28-.42.74-1.14.27-.41.83-1.27.15-.22,1-1.53.06-.09.93-1.38.2-.31c.27-.39.53-.78.8-1.16l.21-.32.89-1.3.56-.81.49-.72h0c6.35-9.19,11.42-15.85,11.42-15.85l.24.25s0,0,0,0a2.17,2.17,0,0,1,.26.27,28.56,28.56,0,0,1,6.49,11.25l.06.19c.12.4.23.8.34,1.2l.24,1,.09.38a.36.36,0,0,0,0,.11c.09.43.17.85.24,1.28s.15.91.21,1.36c.12.84.2,1.66.26,2.48s.09,1.84.09,2.73v.34a47.05,47.05,0,0,1-.4,5.66h0c0,.17,0,.35-.07.51s-.07.48-.11.7v0c-.08.47-.16.91-.24,1.33s-.11.58-.17.85c-.12.56-.24,1.06-.35,1.49,0,.18-.09.34-.13.5-.21.77-.35,1.2-.35,1.2s-.92.76-2.38,2.05l-.44.39,0,0c-5.89,5.18-18.92,17.25-20.3,23.5a2.36,2.36,0,0,0,0,.28,4.2,4.2,0,0,0,.15,1.61,5.73,5.73,0,0,0,.3.95,11.68,11.68,0,0,0,.79,1.72c.14.27.29.55.46.83h0c.21.38.45.76.7,1.15,5.29,8.12,17.86,19.94,24.84,26.22Z"/><g class="cls-3"><path class="cls-4" d="M43.93,116.41a5.29,5.29,0,0,1,.47,1.3,25.1,25.1,0,0,1,.63,3,26.36,26.36,0,0,1,.22,4.39,26.18,26.18,0,0,1-.7,4.35,23.45,23.45,0,0,1-.94,2.89,5.27,5.27,0,0,1-.6,1.24,8.45,8.45,0,0,1,.37-1.32c.25-.78.52-1.83.74-2.89a29,29,0,0,0,.51-4.3,29.74,29.74,0,0,0,0-4.32c-.11-1.08-.27-2.15-.43-2.95A9.2,9.2,0,0,1,43.93,116.41Z"/><path class="cls-4" d="M48.52,123.55a9.88,9.88,0,0,1-.47,2.63,24.92,24.92,0,0,1-.88,2.55,26.35,26.35,0,0,1-1.32,2.38,10,10,0,0,1-1.68,2.16c-.07-.05.67-1.18,1.29-2.36s1.13-2.41,1.13-2.41.58-1.19,1-2.44S48.43,123.53,48.52,123.55Z"/><path class="cls-4" d="M42.68,111.09a21.94,21.94,0,0,1-1-2,21.46,21.46,0,0,0-1.11-1.91,20.38,20.38,0,0,0-1.2-1.87c-.65-.9-1.42-1.73-1.36-1.79a7.28,7.28,0,0,1,1.72,1.54,16.7,16.7,0,0,1,1.39,1.82,16.92,16.92,0,0,1,1,2A6.88,6.88,0,0,1,42.68,111.09Z"/><path class="cls-4" d="M8.69,163.24a11.21,11.21,0,0,1,3.23-.62,12.07,12.07,0,0,1,2.3.07,10.44,10.44,0,0,1,1,.18,8.05,8.05,0,0,1,1,.36,7.7,7.7,0,0,1,1.94,1.2,5.6,5.6,0,0,1,1.36,1.74,2.05,2.05,0,0,1,.28.94,8,8,0,0,1-.5-.84,6.08,6.08,0,0,0-1.43-1.52,7.32,7.32,0,0,0-1.88-1,6.4,6.4,0,0,0-.93-.29s-.37-.11-1-.22a12.45,12.45,0,0,0-2.18-.18C10.33,163,8.71,163.33,8.69,163.24Z"/><path class="cls-4" d="M14,159.26a7,7,0,0,1,2,1.26,15.51,15.51,0,0,1,1.69,1.64,14.33,14.33,0,0,1,1.26,2,6.34,6.34,0,0,1,.8,2.14c-.09,0-.56-1-1.19-1.94a17.5,17.5,0,0,0-1.36-1.79,17.3,17.3,0,0,0-1.51-1.69C14.93,160,14,159.33,14,159.26Z"/></g><path class="cls-5" d="M43.74,137.21c0,.18-.09.35-.13.5-.21.77-.35,1.2-.35,1.2s-.92.76-2.38,2.05l-.44.39,0,0c-5.89,5.18-18.92,17.25-20.3,23.5a2.36,2.36,0,0,0,0,.28,3.61,3.61,0,0,0,0,.57v.15c0,.14.05.3.07.46s0,.28.08.43.13.47.22.72c0,.07,0,.15.08.23.11.3.25.63.41,1l.15.29.23.47c.14.27.29.55.46.83h0l.38.62c.11.18.22.36.34.54h0c-2.58-1.88-5.58-3.43-8.07-3-4.26.8.86,18.58,10.84,29.18h-7c-.76-.74-1.5-1.48-2.24-2.23l-.12-.12c-.37-.39-.75-.78-1.12-1.18l-.28-.3c-.32-.33-.63-.67-.93-1-.8-.88-1.58-1.76-2.34-2.65-1-1.19-2-2.39-2.89-3.59l-.54-.72-.65-.9c-.13-.17-.24-.33-.35-.49l-.55-.79a48.63,48.63,0,0,1-3.47-5.87c-.14-.27-.27-.55-.39-.82q-.45-.94-.81-1.89c-.09-.23-.18-.46-.26-.68s-.2-.56-.29-.84a20.08,20.08,0,0,1-.69-2.69c0-.14-.05-.28-.07-.42A15,15,0,0,1,0,167.75c0-.25,0-.51,0-.78,0,0,0-.08,0-.12l0-.3c0-.11,0-.22,0-.33s0-.23.05-.34,0-.23,0-.35a2,2,0,0,1,.05-.24c0-.16.06-.32.09-.48a3,3,0,0,1,.07-.32l.09-.42c0-.22.11-.44.17-.66a.07.07,0,0,1,0,0c.09-.36.2-.72.31-1.09l.12-.37c.07-.24.15-.5.24-.75a.24.24,0,0,1,0-.08l.15-.42c.1-.29.2-.58.31-.87L2,159.4c.16-.42.32-.84.5-1.27a.42.42,0,0,1,0-.1c.16-.4.33-.81.51-1.22.06-.14.12-.29.19-.43.13-.31.27-.62.41-.94.07-.16.14-.32.22-.48l.46-1c.06-.13.12-.27.19-.41q.33-.69.69-1.41l.07-.15c.21-.43.43-.86.66-1.3l.24-.46.53-1,.27-.5c.19-.37.39-.73.58-1.09l.23-.42L8.44,146l.17-.3.1-.17c.25-.45.5-.9.76-1.35.09-.16.18-.32.28-.48l.35-.62.27-.47.3-.5c.22-.38.44-.76.67-1.14l.24-.42c.31-.52.62-1,.94-1.56,0,0,.05-.09.08-.14.29-.46.57-.93.86-1.4l.29-.48.69-1.11.3-.48.75-1.2.22-.35,1-1.56.09-.14.89-1.39.28-.42.74-1.14.27-.41.83-1.27.15-.22,1-1.53.06-.09c.31-.46.62-.93.93-1.38l.2-.31c.27-.39.53-.78.8-1.16l.21-.32.89-1.3.06-.08c.16-.25.33-.49.5-.73l.49-.72h0l.36-.09c-.32.45-17.06,30.95-12.88,36.09s25.94-19.38,29.17-27h0a.11.11,0,0,0,0-.07,2.44,2.44,0,0,0,.1-.24,30.8,30.8,0,0,0,1.63-12.73l.06.19c.12.4.23.8.34,1.2l.24,1,.09.38a.36.36,0,0,0,0,.11c.09.43.17.85.24,1.28s.15.91.21,1.36c.12.84.2,1.66.26,2.48s.09,1.84.09,2.73v0c-.05.53-.12,1-.19,1.52a.14.14,0,0,1,0,.07c-.13.92-.3,1.74-.47,2.44,0,.11,0,.21-.08.31a7.64,7.64,0,0,0,.07,2.13,2,2,0,0,1,0,.24l.06.49v0c-.08.47-.16.91-.24,1.33s-.11.58-.17.85C44,136.28,43.85,136.78,43.74,137.21Z"/><path class="cls-6" d="M43.79,197.66H43c-.53-.4-1.13-.82-1.75-1.27-1-.74-2.07-1.58-3.1-2.45a73.34,73.34,0,0,1-7.6-7.5s-.86-1-2.08-2.58-2.76-3.7-4.22-5.89-2.7-4.52-4.1-5.86a5.4,5.4,0,0,0-2-1.25c-.55-.18-.9-.2-.9-.25a1.8,1.8,0,0,1,1,0,5.22,5.22,0,0,1,2.23,1.15,14.36,14.36,0,0,1,2.26,2.6L25,177.51c1.54,2.12,3.15,4.19,4.41,5.7s2.13,2.5,2.13,2.5a79.74,79.74,0,0,0,7.23,7.63c1,.89,2,1.76,2.94,2.54C42.42,196.49,43.18,197.06,43.79,197.66Z"/><path class="cls-6" d="M41.17,117.17a39.61,39.61,0,0,1,.7,4.53c.23,2.29.14,4.61.31,4.63s.58-2.3.58-4.66a31.87,31.87,0,0,0-.36-4.7A31.71,31.71,0,0,0,41,112.44a14.41,14.41,0,0,0-2.24-4.19c-.16.07.77,2.22,1.39,4.44A38.7,38.7,0,0,1,41.17,117.17Z"/><path class="cls-4" d="M88.59,126.08l17.34-.67s-1.34,19.33-9.34,17.67S88.59,126.08,88.59,126.08Z"/><path class="cls-17" d="M66,89.65l.49,9.75s6.44,7.31,18.33,1.22l-.5-11S70.46,84,66,89.65Z"/><path class="cls-18" d="M84.66,97c-10.64,10.42-19.12-7.89-14-4.46,4.35,2.9,11.51,0,13.72-1l0-.38,0-1.17a1.63,1.63,0,0,0-.44-.52,41.36,41.36,0,0,0-4-1.28c-2-.34-4.46-.6-6.52-1.07a15.13,15.13,0,0,0-2.14.06h-.08c-.32,0-.64.07-1,.13h-.06a9,9,0,0,0-.93.23l-.12,0c-.25.08-.5.17-.74.27l-.16.07a5.14,5.14,0,0,0-.77.41l-.09.06a5.39,5.39,0,0,0-.59.45l-.17.14a5.86,5.86,0,0,0-.59.63h0l.49,9.75s6.44,7.31,18.33,1.22Z"/><path class="cls-17" d="M105.64,47.66s2.78-4.12,6.73-1.51c4.56,3,2.28,18.79-3.94,18.59S104.54,47.34,105.64,47.66Z"/><path class="cls-18" d="M105.64,47.66s2.78-4.12,6.73-1.51c4.56,3,2.28,18.79-3.94,18.59S104.54,47.34,105.64,47.66Z"/><path class="cls-19" d="M111.35,60c0-.12-.46,0-1-.14a1,1,0,0,1-.65-.55,1.5,1.5,0,0,1,0-1,2,2,0,0,1,.57-.88c.24-.23.55-.31,1-.66a1.82,1.82,0,0,0,.6-1.59,2.54,2.54,0,0,0-.19-.62,2.23,2.23,0,0,0-.34-.48,2.11,2.11,0,0,0-.58-.48,1.77,1.77,0,0,0-.46-.2h0s0,0-.05,0a2.16,2.16,0,0,1,0-.27c0-.13,0-.27,0-.41a5.27,5.27,0,0,1,.65-1.67c.61-1.06,1.53-1.46,1.5-1.63s-1.09-.07-2,1a5.88,5.88,0,0,0-1.24,2.49,3.35,3.35,0,0,0-.09.6c0,.5,0,1,0,1.35a4.07,4.07,0,0,1,.89,0L110,55a1.58,1.58,0,0,1,.26.25,1.11,1.11,0,0,1,.13.22c0,.07.06,0,0,.09s-.53.38-.92.82a3.35,3.35,0,0,0-.82,1.7,2.55,2.55,0,0,0,.36,1.85,1.39,1.39,0,0,0,1.18.6C111,60.47,111.38,60.1,111.35,60Z"/><path class="cls-20" d="M108.43,64.74c-6.22-.2-3.89-17.4-2.79-17.08a5.85,5.85,0,0,1,3.52-2.32c-1,2.45.43,6.39.43,6.39s1.63-2.6,2.5-1.73-.46,5,1.42,5.44c.58.13,1-.33,1.21-1C114.36,59.49,112.07,64.86,108.43,64.74Z"/><g class="cls-21"><path class="cls-22" d="M114.21,49.64c.27.88.15,1.76-.25,2s-.95-.33-1.21-1.21-.15-1.76.26-2S114,48.76,114.21,49.64Z"/><path class="cls-22" d="M112.61,47.09a.71.71,0,0,1-.3.81.44.44,0,0,1-.67-.22.71.71,0,0,1,.31-.81A.43.43,0,0,1,112.61,47.09Z"/></g><path class="cls-17" d="M36.2,48.12c-.5-14.11,5.33-37,35.06-37.24,29.89-.21,34.42,32.58,34.42,32.58s3.11,12.06,2.75,21.28-5.15,22.93-26.56,25.12-37.89-6.8-41.74-20A11,11,0,0,1,30,61.09C28.54,55,31.86,48.85,36.2,48.12Z"/><g class="cls-16"><path class="cls-18" d="M36.2,48.12a45.42,45.42,0,0,1,1.73-14.21,36.85,36.85,0,0,1,4.84-10.15c-4.28,7.21-5,18-4.8,24.59a18.82,18.82,0,0,1-1.88-.21Z"/><path class="cls-18" d="M32.3,50.53A12.56,12.56,0,0,0,31.41,59a11,11,0,0,0,10.1,8.82C45.36,81,61.84,90,83.25,87.76c11.27-1.15,17.94-5.5,21.77-10.71-3.53,6.1-10.38,11.5-23.15,12.81-21.4,2.2-37.89-6.8-41.74-20A11,11,0,0,1,30,61.09,12.14,12.14,0,0,1,32.3,50.53Z"/></g><path class="cls-23" d="M92.86,55.62c0,2.83,1.19,5.13,2.77,5.14s2.91-2.29,3-5.12-1.19-5.13-2.77-5.13S92.91,52.79,92.86,55.62Z"/><path class="cls-24" d="M94.49,51.11a8.15,8.15,0,0,0-.34,2.23c-.05,2.83,1.19,5.12,2.77,5.13a2,2,0,0,0,1.33-.6c-.49,1.71-1.48,2.89-2.62,2.89-1.58,0-2.82-2.31-2.77-5.14A6.44,6.44,0,0,1,94.49,51.11Z"/><path class="cls-25" d="M98,54.76c.07,1-.28,1.79-.78,1.84s-1-.7-1-1.67.28-1.8.78-1.85S98,53.79,98,54.76Z"/><path class="cls-25" d="M96.08,52.17a.38.38,0,0,0,.36.39.39.39,0,0,0,.38-.39.38.38,0,0,0-.36-.4A.39.39,0,0,0,96.08,52.17Z"/><path class="cls-23" d="M59.16,58.06c.32,2.81,1.85,4.94,3.42,4.75s2.59-2.62,2.27-5.44S63,52.43,61.43,52.62,58.84,55.24,59.16,58.06Z"/><path class="cls-24" d="M60.1,53.49a8.28,8.28,0,0,0,0,1.86c.32,2.81,1.85,4.94,3.42,4.75a2,2,0,0,0,1.33-.87c-.2,2-1.07,3.43-2.28,3.58-1.57.19-3.1-1.94-3.42-4.75A6.59,6.59,0,0,1,60.1,53.49Z"/><path class="cls-25" d="M64,56.44c.19,1-.05,1.82-.54,1.93s-1-.58-1.23-1.53,0-1.82.54-1.93S63.76,55.49,64,56.44Z"/><path class="cls-25" d="M61.67,54.12a.39.39,0,0,0,.41.35A.39.39,0,0,0,62.4,54a.37.37,0,0,0-.41-.35A.39.39,0,0,0,61.67,54.12Z"/><path class="cls-19" d="M34.65,64.37a2,2,0,0,0,.87,1.75,1.54,1.54,0,0,0,.89.31,1.45,1.45,0,0,0,1.08-.5,2.57,2.57,0,0,0,.65-1.33A1.84,1.84,0,0,0,37.68,63a5.68,5.68,0,0,0-.91-.61,1.31,1.31,0,0,1-.44-.54,1.89,1.89,0,0,1-.12-1.3.93.93,0,0,1,.65-.69.89.89,0,0,1,.27-.07.69.69,0,0,1,.28,0,.52.52,0,0,1,.16.06l.08.06.23.33c.33.5.6.63.92.64a.79.79,0,0,0,.55-.25,1.23,1.23,0,0,0,.32-.6,8,8,0,0,0,.16-1.84,10.79,10.79,0,0,0-.08-1.26,7.16,7.16,0,0,0-.66-2.37,4.05,4.05,0,0,0-1.24-1.52c-.91-.65-1.67-.45-1.66-.35s.65.22,1.31.94a5.35,5.35,0,0,1,1.22,3.5,10.29,10.29,0,0,1,0,1.11c0,.37,0,.28-.06.37s-.15,0-.13-.09v0l-.2-.16a1.5,1.5,0,0,0-.41-.22,1.9,1.9,0,0,0-.72-.13,1.73,1.73,0,0,0-.62.11,2.28,2.28,0,0,0-.59.33,2.87,2.87,0,0,0-1,1.73,3.57,3.57,0,0,0,.4,2.57,2.37,2.37,0,0,0,.91.92A7,7,0,0,1,37,64a.45.45,0,0,1,.19.45,1.43,1.43,0,0,1-.26.71.87.87,0,0,1-1.14.28C35,65.09,34.75,64.29,34.65,64.37Z"/><path class="cls-22" d="M33.31,53.08c-.62.63-1.33.82-1.59.42s0-1.23.65-1.86,1.33-.82,1.59-.42S33.93,52.46,33.31,53.08Z"/><path class="cls-22" d="M35.64,50a.71.71,0,0,1-.31.81.43.43,0,0,1-.66-.22.71.71,0,0,1,.3-.81A.44.44,0,0,1,35.64,50Z"/><path class="cls-13" d="M72.77,70.59s9.09,6.76,16.3-.84c0,0,.56,9.33-6.44,10.23S72.07,74.35,72.77,70.59Z"/><path class="cls-26" d="M72.77,70.59s9.09,6.76,16.3-.84c0,0,.56,9.33-6.44,10.23S72.07,74.35,72.77,70.59Z"/><path class="cls-27" d="M85,79.27C83.14,76.6,75.87,75.33,73.52,75a8.54,8.54,0,0,0,9.11,5A6.65,6.65,0,0,0,85,79.27Z"/><path class="cls-19" d="M83,81.19c.16,0,.16.75,0,1.46a5.25,5.25,0,0,1-.54,1.41,3.7,3.7,0,0,1-1.27.93c-.74.35-1.55.18-1.52,0s.64-.33,1.06-.76a3.34,3.34,0,0,0,.71-.91,6.22,6.22,0,0,0,.74-1C82.51,81.77,82.82,81.15,83,81.19Z"/><path class="cls-2" d="M72.77,70.59a6.4,6.4,0,0,0,.1,2.52c2.35,2.51,5.77,4.66,10.11,3.33,2.42-.74,3.51-4.54,3.51-4.54l0,0C79.84,75.84,72.77,70.59,72.77,70.59Z"/><path class="cls-19" d="M73.36,69.31c.08,0,.12.43.06.87a2.33,2.33,0,0,1-.32.86,1.66,1.66,0,0,1-.83.5c-.5.13-.94-.19-.87-.26s.42,0,.73-.16a1.31,1.31,0,0,0,.47-.46,2,2,0,0,0,.39-.61C73.15,69.7,73.27,69.3,73.36,69.31Z"/><path class="cls-19" d="M90.61,70.28c.06.08-.39.36-.89.24a1.8,1.8,0,0,1-.86-.49,2.44,2.44,0,0,1-.36-.87c-.08-.45,0-.89,0-.89s.2.4.38.75a2.07,2.07,0,0,0,.41.61,1.49,1.49,0,0,0,.52.47C90.18,70.29,90.57,70.22,90.61,70.28Z"/><path class="cls-28" d="M72.77,70.59a6.4,6.4,0,0,0,.1,2.52,13.9,13.9,0,0,0,2.45,2.1c-1.39-1.41-1.7-2.69.5-1.6,3.43,1.68,8.7,0,10.31-.73a10.16,10.16,0,0,0,.36-1l0,0C79.84,75.84,72.77,70.59,72.77,70.59Z"/><path class="cls-19" d="M89.21,69.71c.06.05-.21.55-.8,1.16a8.79,8.79,0,0,1-2.57,1.77,11.32,11.32,0,0,1-3,.91,13.64,13.64,0,0,1-1.4.17s-.57,0-1.42,0a13.12,13.12,0,0,1-3.08-.59c-2.17-.72-4-2.12-3.83-2.27s2,1,4.07,1.41a12.41,12.41,0,0,0,2.88.29,12.64,12.64,0,0,0,1.31-.06s.53,0,1.32-.07a11.42,11.42,0,0,0,2.82-.58,10,10,0,0,0,2.58-1.32C88.74,70,89.13,69.65,89.21,69.71Z"/><path class="cls-29" d="M83.54,78c-.34.73-1.33,1.65-4.16.9-3.13-.83-4-2.63-4.22-3.63L73.52,75a8.54,8.54,0,0,0,9.11,5A6.65,6.65,0,0,0,85,79.27,4.91,4.91,0,0,0,83.54,78Z"/><path class="cls-18" d="M76.28,65.47s4,1,8.91-2.76c0,0,2.59,1.51-1.85,3.38C77.44,68.59,76.28,65.47,76.28,65.47Z"/><path class="cls-19" d="M78.89,66.66c0-.1.78.14,1.88,0a11.16,11.16,0,0,0,3.8-1.44,2.34,2.34,0,0,0,1.19-1.36,1.13,1.13,0,0,0-.57-1.13,2.74,2.74,0,0,0-1-.43,2.84,2.84,0,0,0-.45-.05,4.2,4.2,0,0,0-1.07,0,5.39,5.39,0,0,0-1.25.25,5.2,5.2,0,0,0-.76.3A16.46,16.46,0,0,0,79,63.84c0-.65,0-1.36-.06-2.1V57.93a11.84,11.84,0,0,1,.18-2.84,11.46,11.46,0,0,1,.43,2.81c.07.8.16,1.68.24,2.55,0,.43.08.86.11,1.27,0,.12,0,.17.06.19l.15-.13a6.92,6.92,0,0,1,.9-.4A6.14,6.14,0,0,1,82.5,61a5.44,5.44,0,0,1,1.31,0,3.8,3.8,0,0,1,.6.1,4,4,0,0,1,1.47.7,2.52,2.52,0,0,1,.76.92,2.13,2.13,0,0,1,.14,1.37A3.25,3.25,0,0,1,85,66a10.46,10.46,0,0,1-4.21,1.16A2.84,2.84,0,0,1,78.89,66.66Z"/><path class="cls-30" d="M82.82,63c.12.29-.26.74-.87,1s-1.19.26-1.32,0,.26-.73.87-1S82.69,62.73,82.82,63Z"/><path class="cls-18" d="M67.84,62.12a9,9,0,0,0-3.32-1.3h0l-.43-.07a11.28,11.28,0,0,0-2.42-.13,13.18,13.18,0,0,0-1.7.2,12,12,0,0,0-1.25.3c-2.83.87-4.8,2.71-4.83,4.78v.21a4.11,4.11,0,0,0,1.92,3.12,9.5,9.5,0,0,0,4.84,1.6h0a12.26,12.26,0,0,0,1.49,0,12.13,12.13,0,0,0,2.31-.33h0l.37-.1c3-.85,5.16-2.84,5.06-5.06A4.24,4.24,0,0,0,67.84,62.12ZM107,60.27a4.21,4.21,0,0,0-2.62-2.81,3.38,3.38,0,0,0-.44-.18,9.66,9.66,0,0,0-4-.47,8.86,8.86,0,0,0-1.42.21h0a2.29,2.29,0,0,0-.36.07,11.33,11.33,0,0,0-2.42.85,10,10,0,0,0-1.4.79c-.23.16-.44.32-.65.49-1.63,1.34-2.48,3.05-2.11,4.67a3.44,3.44,0,0,0,.93,1.67,7,7,0,0,0,4.79,1.81,11.24,11.24,0,0,0,3.16-.3,9.89,9.89,0,0,0,1-.28,9.33,9.33,0,0,0,4.78-3.21A4.08,4.08,0,0,0,107,60.27Z"/><path class="cls-18" d="M49.88,27.16c23.92,18.43,51.53,5.31,51.53,5.31,1.32,1.75,2.69,5.28,3.83,8.75-1.66-7.39-8.86-30.52-34-30.34C41.53,11.1,35.7,34,36.2,48.12A5.78,5.78,0,0,0,34,49a12.62,12.62,0,0,0,1.91,1.55c4.75,2.14,4.13,10.67,6.89,8.48s.92-10.93.92-10.93C49,43.4,49.88,27.16,49.88,27.16Z"/><path class="cls-31" d="M34.94,48.18s-7.34-4.44-7.13-14.76C28.07,21,35.44,15.54,45.87,15.8c0,0,10.56-16.11,26.2-15.8s20.07,13.37,26.2,12.44,8-2.93,8-2.93.3,6.55-2.76,8.74c0,0,4.6-1.25,6.74-2.81,0,0,.62,7.81-3.06,13.12,0,0,3.68,7.18,1.84,12.18a40.69,40.69,0,0,0-2.15,7.18s-3.37-13.74-6.44-17.8c0,0-27.61,13.12-51.53-5.31,0,0-.92,16.24-6.14,20.92,0,0,1.84,8.75-.92,10.94S39.7,50.32,34.94,48.18Z"/><path class="cls-13" d="M48.48,53.56S47.1,53,47,53l-5.91-2.35-3.34-1.29-1.5-.56c-.29-.11-1.1-.57-1.34-.44l-.61.35a1.55,1.55,0,0,1,.73-1.58c.45-.25.9,0,1.36.2l2.86,1Q44.2,50,49.12,51.66Z"/><path class="cls-26" d="M48.59,53.23l.25-.72q-5.52-1.86-11-3.76c-.65-.23-3-1.4-3.51-.5a1.9,1.9,0,0,0,0,.34.72.72,0,0,1,.39-.12l.22-.13c.24-.13,1.05.33,1.34.44l.58.21.39.15.17.06.36.14L39.4,50l1.14.44.25.1.33.12L45,52.17l1.69.66.06,0L47,53c.07,0,1.46.57,1.45.58l.09-.26Z"/><path class="cls-13" d="M75.87,52.69,75,50.88c.2-.1,5-2.35,9.26-.73L83.57,52C80.14,50.71,75.92,52.67,75.87,52.69Z"/><path class="cls-26" d="M75.87,52.69s4.27-2,7.7-.67l.31-.83c-3.48-1.07-7.19.24-8.37.73Z"/><path class="cls-15" d="M49,52.88s13.52-9.53,26.27-1c0,0,1.69,19.23-12,19.74S49,52.88,49,52.88Z"/><path class="cls-15" d="M68.16,48.81,60.45,71.4a13.17,13.17,0,0,0,2.87.22c.4,0,.78-.05,1.15-.1l7.67-21.39A20.4,20.4,0,0,0,68.16,48.81Z"/><path class="cls-15" d="M58.65,48.88,52.82,66a13.74,13.74,0,0,0,3,3.31L63.3,48.34A24.39,24.39,0,0,0,58.65,48.88Z"/><path class="cls-15" d="M75.36,54.54c0-1.61-.06-2.66-.06-2.66-12.75-8.53-26.27,1-26.27,1a31.18,31.18,0,0,0,.34,3.17C54.9,59.11,64.39,61.71,75.36,54.54Z"/><path class="cls-13" d="M76.26,52.53c0-.42,0-.68-.05-.74v-.13l0-.37L75.78,51l-.45-.29c-11.44-7.28-23.46-.76-26.21.93l-.59.38-.36.25-.08.05,0,.57s0,.19,0,.5c.23,3.08,2,19.21,14.65,19.21h.56a11.45,11.45,0,0,0,8.87-4.29C76.37,63.17,76.37,55,76.26,52.53Zm-11.77,18h0a10.88,10.88,0,0,1-1.16.1,11.37,11.37,0,0,1-2.52-.16,9.88,9.88,0,0,1-4.65-2.12,12.08,12.08,0,0,1-2.24-2.44c-.24-.34-.47-.7-.68-1.06a25,25,0,0,1-2.83-8.26c-.24-1.38-.34-2.5-.39-3.15A29.36,29.36,0,0,1,58.26,50a23.39,23.39,0,0,1,4.66-.64,20.26,20.26,0,0,1,4.91.4,19.2,19.2,0,0,1,4,1.29,20.65,20.65,0,0,1,2.6,1.4c0,.54,0,1.49,0,2.68-.12,3.29-.8,8.42-3.57,11.86a9.43,9.43,0,0,1-6,3.45A2,2,0,0,1,64.49,70.51Z"/><path class="cls-26" d="M75.11,52.43l0-.45-.36-.25a20.31,20.31,0,0,0-2.61-1.48,18.74,18.74,0,0,0-4-1.39,20.58,20.58,0,0,0-4.85-.51H62.9c-.72,0-1.43.09-2.11.17l-.68.1-.66.11-.81.17a27.6,27.6,0,0,0-9,3.76l-.4.29,0,.52s.05,1.08.28,2.65a26.29,26.29,0,0,0,3.33,9.79,15.57,15.57,0,0,0,1.11,1.55l.22.27.23.24h0c.16.18.32.35.49.52l0,0a6,6,0,0,0,.53.48l.32.26.11.08c.16.13.34.26.52.38a.1.1,0,0,0,.05,0l0,0c.18.12.36.24.55.35s.35.19.53.28a2.53,2.53,0,0,0,.37.18,8.76,8.76,0,0,0,.89.37h0l.1,0,.46.14c.34.1.69.18,1.06.25l.55.09.57.07.59,0a5,5,0,0,0,.55,0h.52c.33,0,.66,0,1-.07l.13,0h.09c.14,0,.28,0,.42-.06l.22,0a5.6,5.6,0,0,0,.59-.12,10.28,10.28,0,0,0,5.74-3.64c3.2-4,3.72-9.82,3.75-13h0C75.19,53.39,75.12,52.54,75.11,52.43ZM70.84,67a9.43,9.43,0,0,1-6,3.45,2,2,0,0,1-.35.05h0a10.88,10.88,0,0,1-1.16.1,11.37,11.37,0,0,1-2.52-.16,9.88,9.88,0,0,1-4.65-2.12,12.08,12.08,0,0,1-2.24-2.44c-.24-.34-.47-.7-.68-1.06a25,25,0,0,1-2.83-8.26c-.24-1.38-.34-2.5-.39-3.15A29.36,29.36,0,0,1,58.26,50a23.39,23.39,0,0,1,4.66-.64,20.26,20.26,0,0,1,4.91.4,19.2,19.2,0,0,1,4,1.29,20.65,20.65,0,0,1,2.6,1.4c0,.54,0,1.49,0,2.68C74.29,58.44,73.61,63.57,70.84,67Z"/><path class="cls-15" d="M84,51s12.67-10.62,26.09-3.18c0,0,3.28,19-10.3,20.67S84,51,84,51Z"/><path class="cls-15" d="M102.75,45.39,96.94,68.54a13.25,13.25,0,0,0,2.88,0c.39,0,.77-.12,1.13-.19l5.88-21.95A19.84,19.84,0,0,0,102.75,45.39Z"/><path class="cls-15" d="M93.28,46.25l-4.39,17.5a13.39,13.39,0,0,0,3.22,3.06l5.75-21.49A24.76,24.76,0,0,0,93.28,46.25Z"/><path class="cls-15" d="M110.4,50.5c-.1-1.6-.28-2.65-.28-2.65C96.7,40.41,84,51,84,51a26.51,26.51,0,0,0,.6,3.14C90.39,56.75,100.07,58.55,110.4,50.5Z"/><path class="cls-13" d="M111.31,50.31l0-.38c0-.12,0-.25,0-.36-.1-1.08-.21-1.78-.23-1.88l-.09-.49-.41-.23c-.53-.3-1.06-.56-1.59-.8-.34-.16-.68-.3-1-.44h0l-.47-.18h0c-.42-.16-.85-.3-1.27-.43h0l-.07,0C95.22,41.91,85.65,48.57,83.79,50l-.33.26-.41.35,0,.41,0,.15s0,.29.12.76c.6,3.6,3.89,18.68,16.14,17.66a5.32,5.32,0,0,0,.56-.06,11.41,11.41,0,0,0,8.32-4.78l.16-.23,0,0h0a15.34,15.34,0,0,0,1.86-3.95c.07-.2.13-.41.18-.61a22,22,0,0,0,.64-3.13c.12-.88.2-1.75.23-2.58h0A34.53,34.53,0,0,0,111.31,50.31ZM97.18,67.58a9.83,9.83,0,0,1-4.81-1.73,13.09,13.09,0,0,1-3.2-3.23,25.2,25.2,0,0,1-3.51-8c-.35-1.35-.55-2.46-.65-3.1a29.29,29.29,0,0,1,8-4.09,23.61,23.61,0,0,1,4.58-1,19.8,19.8,0,0,1,4.93,0,19.48,19.48,0,0,1,3.54.79,5,5,0,0,1,.51.16,0,0,0,0,1,0,0,1.27,1.27,0,0,1,.18.06l.22.07c.63.24,1.25.52,1.88.83h0l.43.22c.07.53.17,1.47.22,2.66,0,.11,0,.24,0,.36h0a28.23,28.23,0,0,1-.06,3.27c0,.61-.1,1.25-.19,1.89h0a21,21,0,0,1-.5,2.43h0c-.11.4-.24.8-.39,1.19v0a12.33,12.33,0,0,1-1.44,2.91c-.15.21-.3.42-.46.62a9.44,9.44,0,0,1-5.23,3.33,12.35,12.35,0,0,1-1.54.28A11.92,11.92,0,0,1,97.18,67.58Z"/><path class="cls-26" d="M110.24,50.84c0-.07,0-.14,0-.2s0-.1,0-.15h0c-.09-1.18-.22-1.95-.24-2.06L109.9,48l-.38-.21c-.24-.13-.47-.26-.71-.37-.56-.29-1.11-.54-1.66-.76h0l-.35-.14h-.05l-.06,0-.21-.08-.13,0a19.5,19.5,0,0,0-3.6-.89,20,20,0,0,0-4.88-.09h0a22.11,22.11,0,0,0-4.58.94,27.65,27.65,0,0,0-8.69,4.49l-.38.31.06.52a24.64,24.64,0,0,0,.49,2.62,26.24,26.24,0,0,0,4.15,9.49,8.27,8.27,0,0,0,.51.66c.2.23.4.46.61.68s.23.24.35.35l.41.38A2.19,2.19,0,0,0,91,66l.36.29.22.17.39.28.52.34.29.16.48.26.38.17a4.68,4.68,0,0,0,.45.19,3.66,3.66,0,0,0,.46.18,3.82,3.82,0,0,0,.48.15c.16,0,.32.09.49.12l.5.11a4.34,4.34,0,0,0,.52.09,4.52,4.52,0,0,0,.53.06l.55,0a8.85,8.85,0,0,0,1.36,0h.25l.52-.06h0l.55-.08.11,0h0l.15,0h.06l.24,0a2.34,2.34,0,0,0,.38-.09,1,1,0,0,0,.25-.06l.85-.26a10.22,10.22,0,0,0,4.77-3.48c.13-.17.25-.34.37-.52a11.65,11.65,0,0,0,.88-1.53,15,15,0,0,0,.88-2.21c.11-.35.21-.71.29-1.06s.22-.93.3-1.4c.12-.65.2-1.3.27-1.93h0c0-.2,0-.41,0-.61h0c0-.61.06-1.19.06-1.75s0-.87,0-1.28S110.26,51.24,110.24,50.84Zm-1.87,9.52v0a12.33,12.33,0,0,1-1.44,2.91c-.15.21-.3.42-.46.62a9.44,9.44,0,0,1-5.23,3.33,12.35,12.35,0,0,1-1.54.28,11.92,11.92,0,0,1-2.52,0,9.83,9.83,0,0,1-4.81-1.73,13.09,13.09,0,0,1-3.2-3.23,25.2,25.2,0,0,1-3.51-8c-.35-1.35-.55-2.46-.65-3.1a29.29,29.29,0,0,1,8-4.09,23.61,23.61,0,0,1,4.58-1,19.8,19.8,0,0,1,4.93,0,19.48,19.48,0,0,1,3.54.79,5,5,0,0,1,.51.16,0,0,0,0,1,0,0,1.27,1.27,0,0,1,.18.06l.22.07c.63.24,1.25.52,1.88.83h0l.43.22c.07.53.17,1.47.22,2.66,0,.11,0,.24,0,.36h0a28.23,28.23,0,0,1-.06,3.27c0,.61-.1,1.25-.19,1.89h0a21,21,0,0,1-.5,2.43h0C108.65,59.57,108.52,60,108.37,60.36Z"/><path class="cls-31" d="M60.85,42.76c-.12.22-1,.06-1.73.21a4.14,4.14,0,0,0-1.36.5,4,4,0,0,0-1.33.57c-.66.4-1.17,1.1-1.41,1s-.17-1.09.45-2a4.34,4.34,0,0,1,1-1,4.17,4.17,0,0,1,.58-.36,3.57,3.57,0,0,1,.67-.14,4.56,4.56,0,0,1,1.45.07C60.23,41.85,61,42.54,60.85,42.76Z"/><path class="cls-31" d="M97.06,40c-.17.2-1-.24-1.73-.5a4.07,4.07,0,0,0-1.42-.27,1.72,1.72,0,0,0-.36-.08,2.32,2.32,0,0,0-.9,0,2.5,2.5,0,0,0-.89.38c-.24.16-.4.34-.53.3s-.2-.29-.09-.69A2.32,2.32,0,0,1,92.05,38a3.26,3.26,0,0,1,1.41-.57,3.55,3.55,0,0,1,.73,0,4.62,4.62,0,0,1,1.84,1C96.77,39,97.23,39.83,97.06,40Z"/><path class="cls-32" d="M41.92,18.49a5,5,0,0,0-1.76.34A10.15,10.15,0,0,0,37.86,20,10.22,10.22,0,0,0,36,21.9a6,6,0,0,0-1.16,2.29c.1,0,.67-1.1,1.51-2a11.17,11.17,0,0,1,1.84-1.64,10.53,10.53,0,0,1,2.1-1.3,5.93,5.93,0,0,1,1.61-.51,6.75,6.75,0,0,0,.78-.08A1.47,1.47,0,0,0,41.92,18.49ZM44,20a11.61,11.61,0,0,0-3.06,2.15A16.92,16.92,0,0,0,38.52,25a16.5,16.5,0,0,0-.86,1.48l0,.06-.18.37c-.12.28-.28.67-.47,1.15a17.47,17.47,0,0,0-.89,3.64h0l0,.27a13.7,13.7,0,0,0,0,3.46,8.63,8.63,0,0,0,.21,1.21,1.52,1.52,0,0,0,.14.45c.06,0-.07-.68-.11-1.68a15.85,15.85,0,0,1,.22-3.65c0-.27.1-.54.16-.8a17.93,17.93,0,0,1,.83-2.71c.2-.45.37-.83.48-1.09l.22-.4A15.19,15.19,0,0,1,39,25.35a16.33,16.33,0,0,1,2.24-2.86,12.2,12.2,0,0,1,2.86-2.25,6.07,6.07,0,0,1,1.57-.52A2.9,2.9,0,0,0,44,20Zm2.28,2.6a7.07,7.07,0,0,0-1,1.08A6.63,6.63,0,0,0,44.7,25a2.83,2.83,0,0,0-.17,1.44,9.19,9.19,0,0,0,.58-1.27A7.81,7.81,0,0,1,45.82,24a8.27,8.27,0,0,1,.78-1.11c.44-.52,1-1,.93-1A2.87,2.87,0,0,0,46.28,22.62Zm19-18.69a34,34,0,0,0-3.81,1.22,29.1,29.1,0,0,0-3.63,1.71c-1,.54-1.56,1-1.56,1s-.61.41-1.45,1.12A19.76,19.76,0,0,0,52,11.81a16.06,16.06,0,0,0-1,1.38,15.15,15.15,0,0,0-1.12,2,11,11,0,0,0-.48,1.23,1.78,1.78,0,0,0-.12.49c.05,0,.31-.67.82-1.61a17.39,17.39,0,0,1,1.71-2.59c.17-.22.35-.44.53-.65a21.65,21.65,0,0,1,4.28-3.76s.58-.41,1.5-1a31.37,31.37,0,0,1,3.51-1.8C63,5,64.32,4.5,65.35,4.16a12.2,12.2,0,0,0,1.7-.6A9.63,9.63,0,0,0,65.28,3.93ZM54.83,15a6.85,6.85,0,0,0-1.4.77A7.42,7.42,0,0,0,52.37,17a3,3,0,0,0-.62,1.45c.08,0,.46-.63,1-1.18a8,8,0,0,1,1.1-1,8,8,0,0,1,1.2-.86c.63-.37,1.35-.6,1.35-.69A2.89,2.89,0,0,0,54.83,15ZM82,29.47a41.21,41.21,0,0,1-5.59.36,39.08,39.08,0,0,1-5.56-.48c-.76-.1-1.37-.26-1.81-.34l-.68-.14-.68-.16c-.43-.11-1.06-.22-1.78-.45a41.6,41.6,0,0,1-5.26-1.9c-.76-.35-1.51-.73-2.22-1.11l-.77-.42c-.23-.12-.45-.25-.66-.38-.46-.26-.88-.52-1.26-.77-1.28-.83-2.1-1.45-2.14-1.4a3.49,3.49,0,0,0,.53.47c.36.27.83.7,1.48,1.13l0,0a34.25,34.25,0,0,0,4.83,2.86,39,39,0,0,0,5.27,2c.74.25,1.37.37,1.8.5l.69.18.7.12c.45.07,1.07.23,1.84.31a39,39,0,0,0,5.65.36A36,36,0,0,0,82,29.71c.77-.12,1.38-.31,1.82-.41a3.8,3.8,0,0,0,.67-.2C84.48,29,83.48,29.25,82,29.47Zm23.16-19.16h0c-.14.2-.32.44-.53.71A10.67,10.67,0,0,1,102,13.28a12.66,12.66,0,0,1-3.15,1.38,15.55,15.55,0,0,1-1.52.35,15.14,15.14,0,0,1-1.55.22,21.64,21.64,0,0,1-3.46,0c-1.27-.09-2.53-.27-3.47-.42a9.75,9.75,0,0,0-1.58-.22,8.3,8.3,0,0,0,1.53.46,30,30,0,0,0,3.48.62,20.84,20.84,0,0,0,3.55.1c1-.07,1.62-.19,1.62-.19A12.66,12.66,0,0,0,99,15.21a12.42,12.42,0,0,0,3.22-1.56,9.92,9.92,0,0,0,2.55-2.48,6.64,6.64,0,0,0,.59-1h0c.12-.25.18-.4.16-.41A2.8,2.8,0,0,0,105.13,10.31Zm-.36,3a20.5,20.5,0,0,1-2,3.58,9.16,9.16,0,0,1-4.59,3.44,12.47,12.47,0,0,1-1.76.53c-.34.08-.73.16-1.14.23-.88.15-1.89.26-2.91.33s-2,.1-2.92.1c-.43,0-.83,0-1.19,0a16.82,16.82,0,0,0-1.88,0,9.74,9.74,0,0,0,1.87.28c.82.08,1.84.13,2.92.13h0c.4,0,.8,0,1.21,0a27.46,27.46,0,0,0,3.32-.28h0l.82-.15A14.21,14.21,0,0,0,98.41,21a9.42,9.42,0,0,0,1.74-.84,9.6,9.6,0,0,0,3-2.94A18.85,18.85,0,0,0,105,13.44a13.61,13.61,0,0,0,.58-1.78A11.89,11.89,0,0,0,104.77,13.35ZM80.34,8.8,78.87,7.72l-1.53-1a8.27,8.27,0,0,0-1.56-1,6.09,6.09,0,0,0,1.29,1.33c.7.62,1.44,1.17,1.44,1.17s.78.51,1.6.94a6.06,6.06,0,0,0,1.71.75A8.48,8.48,0,0,0,80.34,8.8Zm27.76,9.92a17.11,17.11,0,0,1-2.37,2.79,29.61,29.61,0,0,1-4.22,3.26s-1,.69-2.33,1.51h0c-.67.41-1.44.86-2.23,1.26-1.18.63-2.4,1.18-3.33,1.56a14.57,14.57,0,0,0-1.55.67,7.61,7.61,0,0,0,1.63-.44,31.11,31.11,0,0,0,3.45-1.39c.82-.38,1.62-.8,2.32-1.2,1.4-.78,2.4-1.45,2.4-1.45s.57-.38,1.38-1a25,25,0,0,0,2.8-2.47,14.89,14.89,0,0,0,2.26-3,6.17,6.17,0,0,0,.69-1.53S108.64,17.92,108.1,18.72Zm.78,4.78c-.1,0-.76,1.26-1.57,2.43-.41.59-.84,1.17-1.18,1.58s-.57.68-.57.68-.22.28-.58.66a6.79,6.79,0,0,1-1.49,1.21,5.15,5.15,0,0,1-1.79.67h-.09c-.33.05-.58.06-.71.07s-.09,0-.09,0,0,0,.15.07a2.81,2.81,0,0,0,.76.06h0a4.79,4.79,0,0,0,2-.52,6.71,6.71,0,0,0,1.68-1.19c.41-.38.66-.66.66-.66s.23-.29.55-.74.73-1.06,1.09-1.69A10.15,10.15,0,0,0,108.88,23.5ZM48.63,24.59c0-.64-.1-1.18-.13-1.55a2.13,2.13,0,0,0-.1-.59s0,.87,0,2.15c0,1-.06,2.18-.19,3.45,0,.4-.09.81-.14,1.22a36.06,36.06,0,0,1-1,4.57c-.15.62-.35,1.11-.45,1.47s-.18.55-.18.55l-.19.55h0c-.14.35-.28.86-.54,1.44a35.18,35.18,0,0,1-2,4.22A37.45,37.45,0,0,1,41.16,46c-.77,1-1.33,1.68-1.29,1.71a2.26,2.26,0,0,0,.44-.4c.25-.28.64-.65,1-1.15a31.47,31.47,0,0,0,2.77-3.85,35.24,35.24,0,0,0,2.15-4.22c.27-.59.43-1.11.57-1.46s.21-.56.21-.56.07-.2.17-.56l0-.11h0c.1-.35.26-.82.39-1.39.06-.24.13-.49.18-.76a.19.19,0,0,0,0-.07.17.17,0,0,0,0-.07,36,36,0,0,0,.64-3.77c0-.42.07-.84.1-1.25V28s0,0,0,0A27.8,27.8,0,0,0,48.63,24.59ZM33.35,43a17.79,17.79,0,0,1-1.5-2.95,18.13,18.13,0,0,1-1-3.15,13,13,0,0,1-.24-1.41c-.14-1.07-.16-1.9-.22-1.91A4.67,4.67,0,0,0,30.24,35v.16A13.36,13.36,0,0,0,30.39,37a14.73,14.73,0,0,0,.5,2.18c.2.68.38,1.13.38,1.13a16.68,16.68,0,0,0,1.72,3,9.58,9.58,0,0,0,2.39,2.41C35.44,45.61,34.25,44.42,33.35,43Zm6.38,5.46h0l-.15-.19A8.6,8.6,0,0,1,38.76,47a8.89,8.89,0,0,1-.66-1.41c-.07-.19-.12-.37-.17-.55a3.77,3.77,0,0,0-.28-1,3.35,3.35,0,0,0,0,1.66,6.47,6.47,0,0,0,.25.9v0c.15.37.29.63.29.63a8.31,8.31,0,0,0,.67.93c.12.14.24.27.37.4a3.36,3.36,0,0,0,1.37.92A9.77,9.77,0,0,0,39.73,48.47ZM43,46.21s0,.18,0,.46a8.71,8.71,0,0,1-.17,2,5.33,5.33,0,0,1-.21.74,7.1,7.1,0,0,1-.32.84c-.16.36-.3.61-.33.68h0v0a8.75,8.75,0,0,1-1.41,2A8,8,0,0,1,39.15,54h0l-.26.17c-.23.15-.37.24-.37.27s.19,0,.47-.11l.24-.11h0a6,6,0,0,0,1.52-1,8.22,8.22,0,0,0,1.66-2,.46.46,0,0,1,0-.08h0c.05-.12.17-.37.29-.71s.19-.55.27-.87a7,7,0,0,0,.15-.82s0-.07,0-.1A4.78,4.78,0,0,0,43,46.21Zm65.42-15.12s0,.08-.05.22h0a2.53,2.53,0,0,1-.16.5c-.16.41-.47,1-.75,1.5a15.62,15.62,0,0,1-.85,1.42c-.19.28-.36.47-.42.55l0,0a4.78,4.78,0,0,1-.48.55,4.45,4.45,0,0,1-1.3.91l-.26.1h0a1.46,1.46,0,0,1-.34.1l-.08,0a3.13,3.13,0,0,1-.88.09c-.45,0-.74-.13-.76-.08a1.38,1.38,0,0,0,.73.32,2.9,2.9,0,0,0,1,0h0l.09,0h0a1.7,1.7,0,0,0,.31-.06h0l.3-.09a4.48,4.48,0,0,0,1.54-.9l.14-.13c.27-.26.43-.45.43-.45a7,7,0,0,0,.45-.66,12.43,12.43,0,0,0,.77-1.55,12.59,12.59,0,0,0,.59-1.62c0-.08,0-.16,0-.22C108.48,31.31,108.4,31.08,108.37,31.09Zm.83,5.64a15.12,15.12,0,0,0-.86,1.39,4.63,4.63,0,0,1-.69.82,3,3,0,0,1-.36.3,2.75,2.75,0,0,1-.38.28,3.69,3.69,0,0,1-.35.19,2.35,2.35,0,0,1-.6.2,2.27,2.27,0,0,1-1,0,.26.26,0,0,1-.14,0,.22.22,0,0,1-.1-.09c0-.08,0-.09,0-.09a.1.1,0,0,0-.11.08s0,0,0,0,0,0,0,0a.52.52,0,0,1,.06.16l0,0a.47.47,0,0,0,.21.15l0,0,.12.05a2.36,2.36,0,0,0,1,.14,2.68,2.68,0,0,0,.64-.12,3,3,0,0,0,.54-.21,3.14,3.14,0,0,0,.48-.29,3.81,3.81,0,0,0,.39-.39,4.47,4.47,0,0,0,.65-1A3.46,3.46,0,0,0,109.2,36.73Z"/><path class="cls-33" d="M52.59,24.08a3.8,3.8,0,0,1,3-.18,8.22,8.22,0,0,1,1.36.55c.24.13.46.25.66.38a12.53,12.53,0,0,1,1.19.83c-.09-.1-.24-.23-.42-.41-1.53-1.51-5.63-6.08-2.47-8.84a28.94,28.94,0,0,1,7.82-4.77c-.54.16-2.24.68-4.13,1.17h0a9,9,0,0,1-1,.26l-.11,0c-1,.24-2,.45-2.79.58h0c-1.76.29-3,.24-2.42-.59a22.73,22.73,0,0,1,2.79-3.36c.55-.56,1-1,1.34-1.31l-1,.88h0a40.11,40.11,0,0,1-4.55,3.44,6.7,6.7,0,0,1-.81.45c-1.34.68-2.21.62-1.75-1.11.06-.25.14-.49.21-.74a41.74,41.74,0,0,0-3.13,3.8l-.2.28-.27.39c-.56,0-1.1,0-1.64,0l-.6,0h-.25l-.24,0-.72.07c-.24,0-.47.05-.7.09h-.08l-.65.11c-.39.06-.78.14-1.16.23s-.66.17-1,.27a15.59,15.59,0,0,0-1.85.67l-.88.41a15.56,15.56,0,0,0-1.63,1,14.6,14.6,0,0,0-1.83,1.5A13.81,13.81,0,0,0,31.1,22c1.55-1,3.85-2.39,4.49-2,1,.65-2.15,6.19-2.32,6.49.21-.22,3.84-4.14,4.65-3.32.32.32.1,1.72-.29,3.33-.48,1.94-1.21,4.18-1.54,5.16h0c-.09.26-.15.43-.16.48l.13-.21.63-1c1.21-1.9,3.58-5.33,4.8-5.33h0a.35.35,0,0,1,.2,0h0c1.41.78.45,5.12.35,5.61.28-.58,2.79-5.71,5.15-4.45a2.33,2.33,0,0,1,.94,1.14,7.07,7.07,0,0,1,.3.82l.06-.49c0-.11,0-.22,0-.31V28s0,0,0,0a.13.13,0,0,0,0-.06s0,0,0,0c0-.27.05-.51.08-.75s0-.37,0-.54c0,0,0,0,0-.06,0-.22,0-.41.05-.59s0-.3,0-.42,0-.18,0-.25l0-.46c.77.6,1.55,1.16,2.33,1.68.24.18.49.34.74.5s.44.29.66.42l.93.58,1.13.65,1.06.58,1.22.62,1.22.58C54.94,28.19,50.92,25,52.59,24.08Zm54.83,18.21a6,6,0,0,1-.76-2.06c0-.16-.07-.34-.1-.52a26.55,26.55,0,0,1-.4-3.54c0-.29,0-.59,0-.88,0-2.43.22-4.69.91-5.38l.52-.49c-.23-.54-.4-.86-.4-.86,3.69-5.31,3.07-13.12,3.07-13.12-2.15,1.57-6.75,2.81-6.75,2.81,3.07-2.18,2.76-8.74,2.76-8.74a4.44,4.44,0,0,1-.87.65h0l-.25.14h0a11.39,11.39,0,0,1-1.06.54l-.31.13c-.18.08-.37.16-.58.23l-.56.2-.9.28c-.41.12-.86.24-1.34.34l-.48.11c-.5.1-1,.2-1.62.29a4.46,4.46,0,0,1-.63.05l-.51,0a4.78,4.78,0,0,1-1-.23,1.76,1.76,0,0,1-.3-.1,6.85,6.85,0,0,1-1-.5c-.15-.08-.29-.17-.44-.27a5.77,5.77,0,0,1-.54-.37,6.64,6.64,0,0,1-.56-.41c-.37-.28-.75-.59-1.14-.92C91.49,9.08,90.78,8.45,90,7.8c1.42,1.91,2.67,4.09,1.77,5-1.1,1.09-4.32,1.11-6.5.92h0c-.41,0-.78-.08-1.09-.13,1.27.5,3.56,1.58,5.5,2.61l0,0h0l.06,0a12.19,12.19,0,0,1,3.27,2.16.28.28,0,0,1-.11.35c-1.12,1-8.64,2-8.64,2s2.43.24,5.17.77l1.72.36h0c2.59.61,5,1.47,5.6,2.62C98.05,27.16,84.55,34,84.55,34l4.78-.52c.82-.16,1.61-.34,2.35-.51l.06,0c1.11-.27,2.14-.55,3.06-.82l1-.31.84-.28.1,0,.57-.19c.73-.26,1.34-.49,1.82-.68a2.58,2.58,0,0,1,.31-.13h0l.29-.12.63-.28h0c.15.21.31.44.47.69l.06.1c.16.27.33.56.49.88.07.13.14.26.2.4.24.47.47,1,.7,1.52.11.27.23.54.34.82s.21.52.32.79h0a.14.14,0,0,0,0,.06.33.33,0,0,0,0,.06l.57,1.56c0,.12.08.24.13.36l.24.7c.12.36.23.72.35,1.07s.14.43.2.64c0,0,0,0,0,0a.52.52,0,0,1,.06.16,2.25,2.25,0,0,1,.08.24c.08.27.16.53.25.79s.16.51.23.76c0,.08,0,.16.07.24s.13.44.19.65l0,0c0,.19.1.38.16.57l0,.1s0,0,0,0h0v0a.08.08,0,0,0,0,0l.06.24.09.27c0,.17.09.33.13.49s.09.32.13.47a.06.06,0,0,1,0,0,0,0,0,0,1,0,0h0l0,.08.47,1.18h0l.06.14s0,0,0,.06a0,0,0,0,0,0,0l0,.12.25.61c0-.1,0-.21.07-.33a2.46,2.46,0,0,0,.07-.29h0l0-.13c0-.09,0-.19.07-.29a.93.93,0,0,1,0-.13h0c0-.16.09-.33.14-.52h0c0-.14.08-.29.13-.44s.09-.31.14-.48a3.58,3.58,0,0,0,.11-.35q.22-.71.51-1.56h0A1.2,1.2,0,0,1,107.42,42.29ZM47.26,35.38h0c-.27.29-.6.64-1,1h0c-2.33,2.36-6.33,6.12-8.22,6.12h0a3.29,3.29,0,0,1-1.63-.64h0c-2.19-1.46-4.81-5-5.8-6.39L30.24,35a.28.28,0,0,0-.06-.08l.06.22v0a17.8,17.8,0,0,1,.65,4c0,.77-.19,1.32-.72,1.24-1-.16-1.86-3.35-2.33-5.66A18.94,18.94,0,0,0,28.26,38l.09.38.09.37c0,.21.11.41.17.6.12.4.25.77.39,1.14l.21.54c.1.23.2.46.31.68s.29.59.44.86a18.27,18.27,0,0,0,1.26,2l.32.42a17.26,17.26,0,0,0,1.26,1.43l.49.47a12.26,12.26,0,0,0,1.14.95h0l.21.15h0l.29.19.34.17h0l.38.23a6.74,6.74,0,0,1,2,2.24c.12.2.23.4.34.61s.25.5.35.75.11.24.16.35c.2.48.38,1,.55,1.41h0l0,.08c0,.07,0,.15.08.22s.15.4.22.59.07.19.11.28l0,.08c.06.15.12.3.18.43a2.68,2.68,0,0,0,.16.34,1.71,1.71,0,0,0,.14.27s0,0,0,0,0,0,0,0a0,0,0,0,1,0,0l0,.07a2.13,2.13,0,0,0,.27.35l.09.08a.57.57,0,0,0,.16.11.78.78,0,0,0,.21.09L41,57a1.32,1.32,0,0,0,.81-.36,2.2,2.2,0,0,0,.27-.26h0l.12-.14a1.5,1.5,0,0,0,.18-.24l.21-.37a3.48,3.48,0,0,0,.21-.48,6.36,6.36,0,0,0,.2-.66c.05-.22.1-.44.14-.67,0,0,0,0,0-.05,0-.23.07-.46.09-.7s0-.42,0-.64,0-.61,0-.92h0c0-.29,0-.58,0-.87s0-.65-.05-1v0c0-.16,0-.33,0-.49s0-.33,0-.49c-.08-.79-.19-1.49-.27-2s-.17-.93-.17-.93a3.78,3.78,0,0,0,.4-.4,3.58,3.58,0,0,0,.26-.29c.12-.13.22-.26.33-.4s.21-.28.31-.43a3.17,3.17,0,0,0,.23-.36l.23-.37c.13-.22.26-.45.38-.69s.25-.48.36-.74.23-.5.34-.77.2-.49.3-.74c.21-.56.41-1.14.59-1.74.09-.29.18-.58.26-.87l.24-.88c.16-.61.31-1.24.44-1.85C47.37,35.26,47.33,35.31,47.26,35.38Z"/><g class="cls-34"><path class="cls-31" d="M32.09,22.58c-1.87,2.31-4.15,5.85-3.3,9a.57.57,0,0,0,1,.13,24.65,24.65,0,0,0,1.48-3.81,20.44,20.44,0,0,1,2.19-4.23c.57-.82-.76-1.87-1.4-1.08Z"/><path class="cls-31" d="M33.73,27a5.77,5.77,0,0,0-2.59,4c-.27,1.47-.15,4.05,1.7,4.47,3.34.77,3.14-5.86,2.75-7.75A1.28,1.28,0,0,0,33.73,27Z"/><path class="cls-31" d="M40,28.18c-1.16.53-1.89,2.53-2.19,3.72a8.77,8.77,0,0,0,.34,5,.48.48,0,0,0,.91,0c.35-1.49.78-3,1-4.51.16-1.18.74-2.87.35-4a.28.28,0,0,0-.41-.17Z"/><path class="cls-31" d="M44.89,29.49a5.59,5.59,0,0,1-.06.73l-.08,1.31a8,8,0,0,0,.19,2.18.52.52,0,0,0,.94.13,20.51,20.51,0,0,0,1.44-4.41l-.57.74L47,30a1.52,1.52,0,0,0-.36-2.74c-1.17-.32-2.51,1.1-1.7,2.2Z"/><path class="cls-31" d="M57,13.21c2.58.1,4.85-1.44,7.25-2.23a25.3,25.3,0,0,1,8.34-1,1.33,1.33,0,0,0,.93-2.24c-4.32-4.79-15.14-2.62-18,2.88A1.75,1.75,0,0,0,57,13.21Z"/><path class="cls-31" d="M77.84,4.21a15.52,15.52,0,0,1,2.22,1.47,9.36,9.36,0,0,0,2.16,1.39c.61.21.94-.49.74-1-.77-1.81-3.3-2.24-5-2.25a.19.19,0,0,0-.09.35Z"/><path class="cls-31" d="M56.12,26.72c4.71,4.73,13.13,7,19.64,7.13.46,0,.59-.74.11-.83a56.47,56.47,0,0,1-9.44-2.28C63,29.46,60,27.48,56.63,26.06c-.41-.17-.88.3-.51.66Z"/><path class="cls-31" d="M56.84,21.22C62.6,28,79.23,30,86.73,25.72A1,1,0,0,0,86.51,24c-5-.88-10.11-.12-15.18-1-4.64-.84-9-3.32-13.63-3.83-1.15-.12-1.47,1.37-.86,2.09Z"/><path class="cls-31" d="M91.42,25.5a3.8,3.8,0,0,1,1.15-.19,1.94,1.94,0,0,0,1.19-.16.67.67,0,0,0,.13-1c-.74-.74-2.16-.15-2.94.26a.62.62,0,0,0,.47,1.12Z"/><path class="cls-31" d="M68.33,15.92a13.25,13.25,0,0,0,3.45.41,37.77,37.77,0,0,1,5.83,1.4c2.92.81,5.86,1.84,8.87.94a1.37,1.37,0,0,0,.81-2C85,13.1,80.49,12.44,76.52,12c-2.88-.32-8-1.08-8.91,2.65a1.07,1.07,0,0,0,.72,1.27Z"/><path class="cls-31" d="M89.43,18.28a2.85,2.85,0,0,0,1.07.37,6.12,6.12,0,0,0,1-.18c.39-.06.38-.58.1-.77a5.71,5.71,0,0,0-.84-.54,2.78,2.78,0,0,0-1-.1c-.6,0-1,1-.33,1.22Z"/></g><path class="cls-5" d="M66.08,94.38a1.22,1.22,0,0,1,.24-.1c-.5.14,1,3.81,1.23,4.27a10.37,10.37,0,0,0,3,3.1,10.14,10.14,0,0,0,8.25,1.81,8.14,8.14,0,0,0,4.68-2.88,9.27,9.27,0,0,0,1.35-6.31,29.61,29.61,0,0,1,5.58,9.18c1,3-.36,12.06-5,9.79-2.34-1.15-4.55-5.63-6.28-8,0,0-5.53,9.82-7.38,10-3.47.37-6.5-4.53-7.72-7.11-2-4.18-2.42-9.46,1.1-13A5.3,5.3,0,0,1,66.08,94.38Z"/><path class="cls-2" d="M65.75,92.55a.82.82,0,0,1,.24-.1c-.5.14,1,3.81,1.22,4.27a10.4,10.4,0,0,0,3,3.1c2.32,1.62,5.44,2.6,8.24,1.8a8.15,8.15,0,0,0,4.69-2.88,9.23,9.23,0,0,0,1.34-6.3,29.59,29.59,0,0,1,5.59,9.17c1,3-.37,12.06-5,9.8-2.35-1.16-4.56-5.63-6.29-8,0,0-5.52,9.82-7.38,10-3.46.37-6.5-4.54-7.72-7.11-2-4.19-2.41-9.46,1.1-13A4.94,4.94,0,0,1,65.75,92.55Z"/><path class="cls-5" d="M71.33,110.69c-5.92-1.31-3.93-10.88-3.93-10.88s2.95,5.54,11.37,2.93,5.94-8.89,5.7-10.3a9.23,9.23,0,0,1-1.34,6.3,8.15,8.15,0,0,1-4.69,2.88c-2.8.8-5.92-.18-8.24-1.8a10.4,10.4,0,0,1-3-3.1c-.27-.46-1.72-4.13-1.22-4.27a.82.82,0,0,0-.24.1,4.94,4.94,0,0,0-.94.81c-3.51,3.52-3.08,8.79-1.1,13,1.22,2.57,4.26,7.48,7.72,7.11.67-.08,1.8-1.38,3-3A4.78,4.78,0,0,1,71.33,110.69Z"/><path class="cls-5" d="M78.81,103.43c1.73,2.35,3.94,6.82,6.29,8,3.91,1.92,5.49-4.32,5.25-8.1-.61,2.56-1.46,5.16-2.55,6.28C85.32,112.14,78.81,103.43,78.81,103.43Z"/></g></g></g></svg>