<svg xmlns="http://www.w3.org/2000/svg" viewBox="0 0 83.28 146.35"><defs><style>.cls-1{isolation:isolate;}.cls-2{fill:#d4ecd4;}.cls-11,.cls-13,.cls-14,.cls-15,.cls-17,.cls-19,.cls-2,.cls-21,.cls-25,.cls-29,.cls-31,.cls-37,.cls-39,.cls-4,.cls-40,.cls-5,.cls-7,.cls-8{mix-blend-mode:multiply;}.cls-15,.cls-16,.cls-29,.cls-3,.cls-39,.cls-40{fill:#3c1d91;}.cls-33,.cls-4,.cls-5,.cls-9{fill:#212f47;}.cls-15,.cls-19,.cls-35,.cls-4,.cls-7,.cls-8{opacity:0.45;}.cls-5{opacity:0.15;}.cls-6{fill:#f15e6b;}.cls-7{fill:#d65666;}.cls-10{fill:#fff;}.cls-11,.cls-13,.cls-22,.cls-31,.cls-39{opacity:0.5;}.cls-12,.cls-13,.cls-14{fill:#d3dbfd;}.cls-16,.cls-22,.cls-23,.cls-26,.cls-27,.cls-30,.cls-32,.cls-33,.cls-34,.cls-38{mix-blend-mode:screen;}.cls-18,.cls-19,.cls-21,.cls-23{fill:#ebd0a6;}.cls-20{fill:#de9168;}.cls-21{opacity:0.62;}.cls-24,.cls-25,.cls-26{fill:#6f3a1e;}.cls-25,.cls-40{opacity:0.25;}.cls-27{fill:#f8e9d0;}.cls-28,.cls-30,.cls-31{fill:#a95913;}.cls-32{opacity:0.35;}.cls-36,.cls-37,.cls-38{fill:#88ac76;}.cls-37{opacity:0.34;}</style></defs><title>sitРесурс 2</title><g class="cls-1"><g id="Слой_2" data-name="Слой 2"><g id="OBJECTS"><ellipse class="cls-2" cx="42.56" cy="137.75" rx="39.59" ry="8.61"/><rect class="cls-3" x="50.27" y="105.93" width="2.3" height="11.87"/><rect class="cls-4" x="50.27" y="105.93" width="2.3" height="11.87"/><rect class="cls-3" x="48.74" y="113.84" width="4.98" height="13.06"/><rect class="cls-5" x="48.74" y="113.84" width="4.98" height="13.06"/><rect class="cls-5" x="50.23" y="113.84" width="2.14" height="13.06"/><ellipse class="cls-3" cx="51.39" cy="101.32" rx="9.05" ry="5.06"/><path class="cls-4" d="M59.9,100.07a3.05,3.05,0,0,0,0-.52c-1.29-1.92-4.59-3.28-8.46-3.28-5,0-9,2.26-9,5a3.07,3.07,0,0,0,0,.53c1.28,1.91,4.58,3.28,8.46,3.28C55.85,105.13,59.9,102.87,59.9,100.07Z"/><path class="cls-6" d="M31.16,101.09c1.31.88,14,3.94,23.15,2.62S74,100.22,77,96.29s.87-6.12.87-6.12,8.74-29.7,3.93-43.24S45.58,32.51,43,52.61a290.71,290.71,0,0,0-2.63,34.07s-24.29,4-22.27,8.74C20.68,101.53,31.16,101.09,31.16,101.09Z"/><path class="cls-7" d="M81.83,46.93a11.24,11.24,0,0,0-2.47-4l0,0c4.8,13.54-3.94,43.24-3.94,43.24s2.19,2.19-.87,6.12S61,98.47,51.86,99.78,30,98,28.7,97.16c0,0-6.66.28-10.69-2.71a1.41,1.41,0,0,0,0,1c2.62,6.11,13.1,5.67,13.1,5.67,1.31.88,14,3.94,23.15,2.62S74,100.22,77,96.29s.87-6.12.87-6.12S86.64,60.47,81.83,46.93Z"/><path class="cls-7" d="M54.31,103.71C63.49,102.4,74,100.22,77,96.29c1.86-2.4,1.78-4.14,1.43-5.14-1.42-1.39-5.9-4.7-16.17-4.31-7.75.29-14.8-3.23-21.84-5-.11,3.11-.12,4.85-.12,4.85s-24.29,4-22.27,8.74c2.62,6.11,13.1,5.67,13.1,5.67C32.47,102,45.14,105,54.31,103.71Z"/><path class="cls-7" d="M76.1,89.32a7.56,7.56,0,0,1-1.53,3C71.51,96.29,61,98.47,51.86,99.78a35.48,35.48,0,0,1-5.62.32,22.31,22.31,0,0,1-.33,3.82,41,41,0,0,0,8.4-.21C63.49,102.4,74,100.22,77,96.29c1.72-2.21,1.78-3.87,1.5-4.9A12,12,0,0,0,76.1,89.32Z"/><polygon class="cls-3" points="47.04 133.44 47.04 127.12 55.49 127.12 55.49 133.44 56.49 133.44 56.49 126.12 46.04 126.12 46.04 133.44 47.04 133.44"/><ellipse class="cls-3" cx="46.5" cy="133.25" rx="1.51" ry="1.98"/><path class="cls-3" d="M57.24,133.25a1.57,1.57,0,1,1-1.51-2A1.8,1.8,0,0,1,57.24,133.25Z"/><g class="cls-8"><polygon class="cls-9" points="47.04 133.44 47.04 127.12 55.49 127.12 55.49 133.44 56.49 133.44 56.49 126.12 46.04 126.12 46.04 133.44 47.04 133.44"/><ellipse class="cls-9" cx="46.5" cy="133.25" rx="1.51" ry="1.98"/><path class="cls-9" d="M57.24,133.25a1.57,1.57,0,1,1-1.51-2A1.8,1.8,0,0,1,57.24,133.25Z"/></g><polygon class="cls-3" points="42.95 133.44 42.95 127.62 59.58 127.62 59.58 133.44 61.58 133.44 61.58 125.62 40.95 125.62 40.95 133.44 42.95 133.44"/><path class="cls-3" d="M62.88,134.75c0,1.51-.93,2.73-2.08,2.73s-2.09-1.22-2.09-2.73S59.65,132,60.8,132,62.88,133.24,62.88,134.75Z"/><ellipse class="cls-3" cx="42.09" cy="134.22" rx="2.08" ry="2.73"/><path class="cls-10" d="M48.56,43S55.3,65.06,53,70.41,37,79.6,31.29,79.43c0,0-1.64-3.84-1.47-5.91,0,0,16-4.23,16.6-7.16a8.57,8.57,0,0,0-.25-3A63.53,63.53,0,0,0,44,55.6c-1-2.94-1.63-6-.15-8.73A8.53,8.53,0,0,1,48.56,43Z"/><g class="cls-11"><path class="cls-12" d="M50.65,67.59a3.87,3.87,0,0,0-1-.71,5.54,5.54,0,0,0-.81-.33c-.23-.07-.39-.1-.39-.1a3.1,3.1,0,0,0-.4,0,2.93,2.93,0,0,0-.85.1,2.07,2.07,0,0,0-.73.35c-.17.14-.25.26-.23.27s.11-.09.29-.2a2.4,2.4,0,0,1,.72-.28,3.28,3.28,0,0,1,.81,0,3.34,3.34,0,0,1,.36,0,3.13,3.13,0,0,1,.37.08,4.22,4.22,0,0,1,.79.28C50.11,67.26,50.63,67.61,50.65,67.59Z"/><path class="cls-12" d="M49.35,65.46a2.5,2.5,0,0,0-.88.1,5.75,5.75,0,0,0-.83.27,4.93,4.93,0,0,0-.73.45,2.15,2.15,0,0,0-.58.57s.34-.24.69-.45a6.3,6.3,0,0,1,.74-.37,7,7,0,0,1,.77-.33C48.93,65.57,49.36,65.49,49.35,65.46Z"/></g><path class="cls-10" d="M62.77,41.32S72.42,42.88,75.53,45c0,0-3.74,11.16-1.56,16.35a101.05,101.05,0,0,0-3.6,16.18c-.22,1.59-.38,3.19-.46,4.8s.57,3.61-1.41,4c-1.34.29-2.68.59-4,.83a38.85,38.85,0,0,1-11.23.58c-1.6-.2-3.56-.39-4.75-1.55-.91-.88-1-2.14-1.13-3.29q-.64-4.19-1.24-8.37c-1-6.82-2-13.65-2.62-20.51-.12-1.28-.23-2.57-.28-3.86C42.84,41.19,56.23,41.32,62.77,41.32Z"/><path class="cls-13" d="M62.77,41.08s9.65,1.56,12.76,3.63c0,0-3.74,11.16-1.56,16.35a101.41,101.41,0,0,0-3.6,16.19c-.22,1.59-.38,3.19-.46,4.8s.57,3.61-1.41,4c-1.34.29-2.68.59-4,.83a38.85,38.85,0,0,1-11.23.58c-1.6-.2-3.56-.39-4.75-1.55-.91-.88-1-2.14-1.13-3.29q-.64-4.18-1.24-8.38c-1-6.81-2-13.64-2.62-20.5-.12-1.28-.23-2.57-.28-3.86C42.84,41,56.23,41.08,62.77,41.08Z"/><path class="cls-13" d="M47.36,82.9c-.22-1.42-.42-2.83-.63-4.24,3.3,7,9.91,8,16.44,4.9,7.68-3.63,9.24-28.76,9.14-29.07,0,0,.7,3,1.55,7.19a100.11,100.11,0,0,0-3.49,15.81c-.22,1.59-.38,3.19-.46,4.8s.57,3.61-1.41,4c-1.34.29-2.68.59-4,.83a38.85,38.85,0,0,1-11.23.58c-1.6-.2-3.56-.39-4.75-1.55C47.58,85.31,47.53,84.05,47.36,82.9Z"/><path class="cls-13" d="M64.38,47.74v-.06S64.38,47.71,64.38,47.74Z"/><path class="cls-14" d="M57.36,80.93c0,.35,0,.83,0,1.3l.06,1.89V86a8.09,8.09,0,0,0,.08,1.29c.06.35.16.56.14.57a1.23,1.23,0,0,1-.24-.55,6.57,6.57,0,0,1-.18-1.3l-.06-1.89,0-1.9,0-1.3a2.31,2.31,0,0,1,0-.59A2.57,2.57,0,0,1,57.36,80.93Z"/><path class="cls-13" d="M54.41,75.76c.16-1.2.32-2.39.44-3.6.46-4.51,2.64-21.26,2.73-21.95a3.44,3.44,0,0,1-1.65-2.74s1.58-2.77,2.68-2.65,2.88,1.93,2.7,3.08a6.38,6.38,0,0,1-2.15,2.36c1.1,6.8,2,13.67,2.55,20.54.41,5.27,1,9.87-2.72,14.11l-.9,1c-.07.09-.16.19-.28.18a.38.38,0,0,1-.26-.17,16.68,16.68,0,0,1-2.91-5A10.49,10.49,0,0,1,54.41,75.76Z"/><path class="cls-3" d="M53.91,75.51c.17-1.19.32-2.39.45-3.59.46-4.52,2.64-21.27,2.73-22a3.41,3.41,0,0,1-1.65-2.74s1.57-2.77,2.68-2.65,2.87,1.93,2.7,3.08A6.44,6.44,0,0,1,58.66,50c1.1,6.81,2,13.67,2.56,20.54.41,5.27,1,9.87-2.72,14.11l-.9,1c-.08.08-.17.18-.28.18a.45.45,0,0,1-.27-.18,16.68,16.68,0,0,1-2.91-5A10.49,10.49,0,0,1,53.91,75.51Z"/><path class="cls-15" d="M53.91,75.51c0-.16.05-.32.07-.48.49,4.51,2.6,7.86,5,3S58.67,51.51,58,51.11c-.45-.27-1.24,2.8-1.69,4.77.41-3.21.73-5.67.77-5.92a2.75,2.75,0,0,1-1.26-1.32c.39.31,1.71,1.2,2.7.37,1.19-1,.2-3.94.07-4.14l.82.36a3.24,3.24,0,0,1,1.4,2.42A6.44,6.44,0,0,1,58.66,50c1.1,6.81,2,13.67,2.56,20.54.41,5.27,1,9.87-2.72,14.11l-.9,1c-.08.08-.17.18-.28.18a.45.45,0,0,1-.27-.18,16.68,16.68,0,0,1-2.91-5A10.49,10.49,0,0,1,53.91,75.51Z"/><path class="cls-16" d="M56.26,62.4s1.06-8.86,1.21-8.84-.67,8.9-.67,8.9-1.06,8.85-1.21,8.84S56.26,62.4,56.26,62.4ZM55.19,77.16a4.07,4.07,0,0,0,.2-1.21c.07-.6.13-1.2.13-1.2s0-.6,0-1.2a3.93,3.93,0,0,0-.06-1.22,3.11,3.11,0,0,0-.32,1.18c-.1.6-.17,1.21-.17,1.21s0,.61,0,1.22A3.21,3.21,0,0,0,55.19,77.16Zm2.18-28.1c.05-.06-.14-.36-.17-.68a1.87,1.87,0,0,1,0-.63,1.91,1.91,0,0,1,.14-.62c.11-.31.38-.54.34-.61s-.42.07-.67.41a1.38,1.38,0,0,0-.22,1.55C57,48.87,57.32,49.12,57.37,49.06Z"/><g class="cls-11"><path class="cls-12" d="M51.6,44.18c-.43,1-1.73,1.68-2.41,2.49s-1.5,2-2.18,3a.24.24,0,0,1-.44-.06,4.19,4.19,0,0,1,1-4.4c.84-1,2.56-2.3,3.92-1.66a.46.46,0,0,1,.16.61Z"/></g><g class="cls-11"><path class="cls-12" d="M69.28,81.1c.4,1.84-1,5.36-3.3,5.14-.32,0-.57-.44-.28-.69a10.45,10.45,0,0,0,1.91-1.73A15.48,15.48,0,0,0,68.69,81a.33.33,0,0,1,.59.07Z"/></g><g class="cls-11"><path class="cls-12" d="M48.32,82.23a10,10,0,0,0,1.8,2.53,20.22,20.22,0,0,0,2.61,1.66.28.28,0,0,1-.14.52c-2.24.15-4.59-2.45-4.54-4.64a.15.15,0,0,1,.27-.07Z"/></g><g class="cls-17"><path class="cls-12" d="M45.19,66.91s0-.15,0-.42L45,65.41c-.1-.89-.22-2.08-.33-3.27-.22-2.39-.3-4.78-.3-4.78s-.12-2.4,0-4.79c0-1.2.11-2.39.19-3.29,0-.45.08-.82.1-1.08a2.08,2.08,0,0,0,0-.41,2,2,0,0,0-.08.4c0,.26-.1.63-.15,1.08-.11.89-.22,2.09-.28,3.29-.12,2.4,0,4.81,0,4.81s.11,2.4.38,4.78c.13,1.2.28,2.39.42,3.28.06.44.12.81.16,1.07A2.75,2.75,0,0,0,45.19,66.91Z"/></g><path class="cls-12" d="M53.14,54.58l-7.48-.29s.58,8.34,4,7.62S53.14,54.58,53.14,54.58Z"/><path class="cls-18" d="M62.56,38.07l.37,4.19s-2.32,3.51-7.76,1.61l-.44-4.71S60.32,35.9,62.56,38.07Z"/><path class="cls-19" d="M55,42.33c5.17,3.82,7.7-4.51,5.7-2.73-1.68,1.49-4.92.68-5.92.38l0-.16,0-.51a.67.67,0,0,1,.15-.25c.28-.15.87-.46,1.63-.78s1.87-.52,2.72-.85a7.39,7.39,0,0,1,.92-.1h.48l.41,0h0l.33.08.08,0a2.06,2.06,0,0,1,.35.12l0,0a1.51,1.51,0,0,1,.28.15l.08,0a2.17,2.17,0,0,1,.29.24h0l.37,4.19s-2.32,3.51-7.76,1.61Z"/><path class="cls-18" d="M43.12,22.49a2.09,2.09,0,0,0-3-.25C38.38,23.8,40.3,30.41,43,30S43.57,22.28,43.12,22.49Z"/><path class="cls-19" d="M43.12,22.49a2.09,2.09,0,0,0-3-.25C38.38,23.8,40.3,30.41,43,30S43.57,22.28,43.12,22.49Z"/><path class="cls-20" d="M41.42,28.1c0-.05.2,0,.42-.12a.45.45,0,0,0,.25-.27.65.65,0,0,0-.05-.45.75.75,0,0,0-.29-.34c-.12-.09-.26-.11-.45-.23a.77.77,0,0,1-.35-.64,1.05,1.05,0,0,1,0-.28.86.86,0,0,1,.12-.23.77.77,0,0,1,.22-.23l.18-.12h0s0,0,0,0,0-.07,0-.12a1.54,1.54,0,0,0-.05-.17,2,2,0,0,0-.38-.67c-.32-.42-.74-.54-.73-.61s.46-.09.93.32a2.37,2.37,0,0,1,.58.77,2,2,0,0,1,.09.22,1.48,1.48,0,0,1,.08.25c0,.21.07.42.09.58a2,2,0,0,0-.38.07l-.08.06a.5.5,0,0,0-.1.13.24.24,0,0,0,0,.1s0,0,0,0,.25.13.44.29a1.38,1.38,0,0,1,.45.68,1.07,1.07,0,0,1,0,.81.61.61,0,0,1-.47.33C41.6,28.28,41.41,28.14,41.42,28.1Z"/><path class="cls-21" d="M43,30c2.64-.45.62-7.67.17-7.46a2.52,2.52,0,0,0-1.64-.79,4.85,4.85,0,0,1,.2,2.76s-.86-1-1.18-.59.5,2.12-.28,2.41c-.24.09-.43-.08-.58-.36C40.1,28.06,41.4,30.22,43,30Z"/><g class="cls-22"><path class="cls-23" d="M39.58,23.84c-.06.39,0,.76.22.83s.39-.2.45-.59,0-.76-.23-.83S39.63,23.45,39.58,23.84Z"/><path class="cls-23" d="M40.11,22.66a.28.28,0,0,0,.18.32.18.18,0,0,0,.27-.13.33.33,0,0,0-.18-.33A.19.19,0,0,0,40.11,22.66Z"/></g><path class="cls-18" d="M72.82,18.54C72.19,12.48,68.34,3,55.62,4.72s-12.76,16-12.76,16A38.4,38.4,0,0,0,43,30c.7,3.92,3.56,9.49,12.84,9.15s15.79-5.16,16.65-11a4.73,4.73,0,0,0,3.79-4.37C76.5,21,74.72,18.6,72.82,18.54Z"/><g class="cls-17"><path class="cls-19" d="M72.82,18.54a19.63,19.63,0,0,0-1.59-6,15.48,15.48,0,0,0-2.67-4.05c2.26,2.82,3.23,7.4,3.52,10.22.16,0,.53-.15.79-.2Z"/><path class="cls-19" d="M74.63,19.34a5.38,5.38,0,0,1,.88,3.56,4.75,4.75,0,0,1-3.79,4.38c-.86,5.85-7.36,10.67-16.64,11-4.89.18-8-1.29-9.95-3.28C47,37.4,50.26,39.3,55.79,39.1c9.28-.33,15.79-5.16,16.65-11a4.73,4.73,0,0,0,3.79-4.37A5.25,5.25,0,0,0,74.63,19.34Z"/></g><path class="cls-24" d="M49.06,25.13c.19,1.2-.21,2.26-.88,2.36s-1.38-.81-1.57-2,.2-2.27.88-2.36S48.86,23.92,49.06,25.13Z"/><path class="cls-25" d="M48.09,23.29a3.33,3.33,0,0,1,.28.94c.19,1.2-.2,2.26-.88,2.36a1,1,0,0,1-.61-.18c.32.7.81,1.14,1.3,1.08.67-.1,1.07-1.16.88-2.36A2.83,2.83,0,0,0,48.09,23.29Z"/><path class="cls-26" d="M46.79,25.06c0,.42.23.75.45.74s.37-.35.34-.77-.23-.75-.45-.74S46.76,24.65,46.79,25.06Z"/><path class="cls-26" d="M47.47,23.84a.16.16,0,0,1-.13.19.17.17,0,0,1-.05-.34A.17.17,0,0,1,47.47,23.84Z"/><path class="cls-24" d="M63.6,24.16c0,1.22-.49,2.22-1.18,2.23s-1.26-1-1.29-2.18S61.63,22,62.31,22,63.57,22.94,63.6,24.16Z"/><path class="cls-25" d="M62.93,22.26a4.06,4.06,0,0,1,.11.8c0,1.22-.5,2.22-1.18,2.23a.84.84,0,0,1-.62-.29c.2.82.66,1.4,1.18,1.39.69,0,1.21-1,1.18-2.23A2.84,2.84,0,0,0,62.93,22.26Z"/><path class="cls-26" d="M61.46,23.76c0,.41.13.77.35.79s.41-.31.43-.73-.13-.78-.35-.79S61.48,23.34,61.46,23.76Z"/><path class="cls-26" d="M62.29,22.62a.16.16,0,0,1-.15.18.17.17,0,0,1-.16-.17.16.16,0,1,1,.31,0Z"/><path class="cls-20" d="M74.45,25.4a.88.88,0,0,1-.27.8.68.68,0,0,1-.36.18.63.63,0,0,1-.49-.15A1.11,1.11,0,0,1,73,25.7a.8.8,0,0,1,.1-.71,2.75,2.75,0,0,1,.36-.32.53.53,0,0,0,.15-.25.84.84,0,0,0,0-.57.41.41,0,0,0-.32-.25.35.35,0,0,0-.12,0,.27.27,0,0,0-.12,0l-.06,0,0,0-.07.16c-.12.23-.22.3-.36.33a.36.36,0,0,1-.25-.08.6.6,0,0,1-.17-.23,3.48,3.48,0,0,1-.18-.78,4.91,4.91,0,0,1,0-.55A3,3,0,0,1,72,21.47a1.84,1.84,0,0,1,.44-.72c.35-.33.69-.29.69-.25s-.27.13-.51.48a2.3,2.3,0,0,0-.31,1.57c0,.16,0,.32.08.47s0,.12,0,.16.06,0,0-.05h0l.07-.08.17-.12a.64.64,0,0,1,.3-.09,1,1,0,0,1,.27,0,1.12,1.12,0,0,1,.27.11,1.23,1.23,0,0,1,.55.68,1.55,1.55,0,0,1,0,1.12,1,1,0,0,1-.33.45c-.15.1-.27.14-.32.21s-.07.1-.06.2a.6.6,0,0,0,.16.29.37.37,0,0,0,.5.05C74.33,25.73,74.4,25.37,74.45,25.4Z"/><path class="cls-23" d="M74.35,20.49c.3.24.62.27.7.09s-.08-.53-.38-.76-.62-.27-.71-.08S74.05,20.26,74.35,20.49Z"/><path class="cls-23" d="M73.17,19.32a.33.33,0,0,0,.18.33.19.19,0,0,0,.27-.14.3.3,0,0,0-.17-.32A.19.19,0,0,0,73.17,19.32Z"/><path class="cls-19" d="M56.73,28.35a5,5,0,0,1-4-.65s-1,.8,1,1.33C56.42,29.75,56.73,28.35,56.73,28.35Z"/><path class="cls-20" d="M55.68,29a7.71,7.71,0,0,1-.8.11,5.09,5.09,0,0,1-1.71-.39,1,1,0,0,1-.59-.51.49.49,0,0,1,.17-.52,1.42,1.42,0,0,1,.43-.25,1,1,0,0,1,.19-.05,2,2,0,0,1,.45-.07,2.16,2.16,0,0,1,.55,0,2.49,2.49,0,0,1,.35.08c.21.08.5.24.75.37,0-.28-.06-.58-.1-.9s0-.36-.07-.54c0-.37-.11-.75-.16-1.09a4.92,4.92,0,0,0-.24-1.2,5.1,5.1,0,0,0,0,1.23c0,.34,0,.72,0,1.1L55,27C55,27,55,27,55,27l-.08,0-.4-.12a2.88,2.88,0,0,0-.67-.07,2.37,2.37,0,0,0-.56.07A1,1,0,0,0,53,27a1.84,1.84,0,0,0-.59.38,1.05,1.05,0,0,0-.26.44.86.86,0,0,0,0,.59,1.39,1.39,0,0,0,.86.71,4.63,4.63,0,0,0,1.87.25A1.23,1.23,0,0,0,55.68,29Z"/><path class="cls-27" d="M53.79,27.69c0,.13.15.29.43.37s.52,0,.56-.09-.16-.29-.43-.37S53.82,27.56,53.79,27.69Z"/><path class="cls-19" d="M62.68,25.4c1.91-.17,3.55.67,3.66,1.89S65,29.63,63.09,29.8s-3.54-.67-3.65-1.88S60.78,25.58,62.68,25.4ZM43.3,28c-.1,1.22,1.34,2.34,3.22,2.51s3.5-.67,3.6-1.88-1.33-2.34-3.21-2.52S43.41,26.74,43.3,28Z"/><path class="cls-19" d="M65.73,10.41C56.6,19.7,44,15.74,44,15.74a15.28,15.28,0,0,0-1.11,4c.27-3.26,2-13.57,12.71-15C68.34,3,72.19,12.48,72.82,18.54a2.41,2.41,0,0,1,1,.25,5.22,5.22,0,0,1-.72.77c-1.9,1.2-1.13,4.81-2.44,4s-1-4.62-1-4.62C67.09,17.29,65.73,10.41,65.73,10.41Z"/><path class="cls-28" d="M73.36,18.5a7.36,7.36,0,0,0,2.17-6.74c-.85-5.29-4.33-7.18-8.77-6.45,0,0-5.47-6.25-12.13-5.19S46.85,7,44.17,7s-3.59-.78-3.59-.78.26,2.82,1.7,3.57A11.64,11.64,0,0,1,39.23,9a10,10,0,0,0,2.1,5.42s-1.15,3.29-.06,5.32a17.29,17.29,0,0,1,1.34,2.94s.62-6.07,1.69-8c0,0,12.58,4,21.71-5.34,0,0,1.36,6.89,3.86,8.58,0,0-.26,3.84,1,4.61S71.45,19.69,73.36,18.5Z"/><path class="cls-3" d="M67.9,21.6l.58-.33,2.39-1.36,1.35-.75.61-.33c.11-.06.43-.31.54-.26l.28.11a.66.66,0,0,0-.4-.63c-.21-.08-.39.07-.57.16l-1.17.6-4,2Z"/><path class="cls-29" d="M67.83,21.47l-.15-.29q2.25-1.12,4.48-2.27c.26-.13,1.2-.78,1.47-.42a.77.77,0,0,1,0,.15.26.26,0,0,0-.18,0l-.1,0c-.11-.05-.43.2-.54.26l-.24.13-.16.08-.06,0-.15.08-.66.37-.46.25-.1.06-.13.07-1.56.89-.68.38,0,0-.12.07-.58.33-.06-.1Z"/><path class="cls-3" d="M56.14,22.86,56.4,22a5.68,5.68,0,0,0-4,.24l.41.75A4.93,4.93,0,0,1,56.14,22.86Z"/><path class="cls-29" d="M56.14,22.86a4.93,4.93,0,0,0-3.33.17l-.18-.33a5.69,5.69,0,0,1,3.62-.19Z"/><path class="cls-16" d="M67.62,21.34s-6.34-3.26-11.28,1.14c0,0,.42,8.32,6.29,7.72S67.62,21.34,67.62,21.34Z"/><path class="cls-16" d="M59.2,20.74l4.64,9.2a5.51,5.51,0,0,1-1.21.26l-.49,0-4.56-8.68A8.75,8.75,0,0,1,59.2,20.74Z"/><path class="cls-16" d="M63.27,20.21l3.51,7a5.85,5.85,0,0,1-1.07,1.59l-4.45-8.5A10.48,10.48,0,0,1,63.27,20.21Z"/><path class="cls-16" d="M56.47,23.62a10.86,10.86,0,0,1-.13-1.14c4.94-4.4,11.28-1.14,11.28-1.14a11.66,11.66,0,0,1,0,1.38A10.4,10.4,0,0,1,56.47,23.62Z"/><path class="cls-3" d="M62.68,30.63a5,5,0,0,1-4-1.31C56.2,27,56,22.68,55.94,22.49v-.21l.15-.13c5.07-4.53,11.64-1.23,11.7-1.19l.21.1,0,.25c0,.08.84,8.46-5.09,9.29Zm-5.93-7.95c.08.87.5,4.23,2.39,6a4.22,4.22,0,0,0,3.45,1.09c4.91-.48,4.75-6.77,4.66-8.13C66.14,21.15,60.92,19.13,56.75,22.68Z"/><path class="cls-29" d="M62.66,30.2l.22,0c5.47-.76,4.7-8.48,4.69-8.56l0-.23-.19-.09c-.06,0-6.11-3.07-10.78,1.09l-.14.13v.19c0,.17.24,4.19,2.48,6.3A4.53,4.53,0,0,0,62.66,30.2Zm-.07-.43a4.22,4.22,0,0,1-3.45-1.09c-1.89-1.77-2.31-5.13-2.39-6,4.17-3.55,9.39-1.53,10.5-1C67.34,23,67.5,29.29,62.59,29.77Z"/><path class="cls-16" d="M52.56,22.64s-6.05-3.78-11.34.19c0,0-.27,8.33,5.63,8.22S52.56,22.64,52.56,22.64Z"/><path class="cls-16" d="M44.22,21.34l3.86,9.55a5.81,5.81,0,0,1-1.23.16h-.5l-3.81-9A9,9,0,0,1,44.22,21.34Z"/><path class="cls-16" d="M48.32,21.15l2.92,7.21a5.79,5.79,0,0,1-1.2,1.5L46.31,21A10.9,10.9,0,0,1,48.32,21.15Z"/><path class="cls-16" d="M41.26,24a9.78,9.78,0,0,1,0-1.15c5.29-4,11.34-.19,11.34-.19A13.16,13.16,0,0,1,52.49,24,10.39,10.39,0,0,1,41.26,24Z"/><path class="cls-3" d="M46.86,31.48a5,5,0,0,1-3.92-1.63c-2.24-2.48-2.12-6.85-2.12-7V22.6l.16-.12c5.43-4.09,11.7-.25,11.76-.21l.2.12v.24c0,.09.13,8.51-5.85,8.84Zm-5.25-8.41c0,.88.16,4.25,1.89,6.17a4.18,4.18,0,0,0,3.34,1.38c4.94-.08,5.3-6.35,5.32-7.72C51.1,22.32,46.06,19.87,41.61,23.07Z"/><path class="cls-29" d="M46.88,31.05h.22c5.51-.3,5.39-8.06,5.39-8.14v-.23l-.18-.11c-.06,0-5.84-3.57-10.84.2l-.15.11v.2c0,.17-.11,4.19,1.95,6.48A4.57,4.57,0,0,0,46.88,31.05Zm0-.43a4.18,4.18,0,0,1-3.34-1.38c-1.73-1.92-1.88-5.29-1.89-6.17,4.45-3.2,9.49-.75,10.55-.17C52.14,24.27,51.78,30.54,46.84,30.62Z"/><path class="cls-28" d="M62,17.72c.06.09.42,0,.75,0a1.79,1.79,0,0,1,.61.13,1.76,1.76,0,0,1,.6.17c.31.13.57.4.67.35s0-.47-.31-.81a2.07,2.07,0,0,0-.5-.38,2,2,0,0,0-.27-.12,1.43,1.43,0,0,0-.29,0,1.81,1.81,0,0,0-.62.11C62.18,17.3,61.89,17.64,62,17.72Z"/><path class="cls-28" d="M46.33,18.71c.09.07.4-.16.71-.32a1.6,1.6,0,0,1,.59-.19l.15-.06a.93.93,0,0,1,.39-.05,1.17,1.17,0,0,1,.4.12c.11.05.19.12.25.09s.06-.13,0-.3a1,1,0,0,0-.46-.45,1.43,1.43,0,0,0-.63-.16,1.57,1.57,0,0,0-.32,0,1.68,1.68,0,0,0-.26.13,1.89,1.89,0,0,0-.46.4C46.4,18.27,46.25,18.64,46.33,18.71Z"/><path class="cls-30" d="M71.19,7.47a4.76,4.76,0,0,0-.88-.59,4.6,4.6,0,0,0-1-.43,2.45,2.45,0,0,0-.71-.12c-.2,0-.34,0-.34,0a.59.59,0,0,1,.33-.12,2.32,2.32,0,0,1,.77,0,4.2,4.2,0,0,1,1.06.37,4.39,4.39,0,0,1,.88.69,2.69,2.69,0,0,1,.64.91S71.61,7.81,71.19,7.47ZM70.8,9.72l.28.44a8.46,8.46,0,0,1,.63,1.43A7.31,7.31,0,0,1,72,13.14c0,.43,0,.72,0,.72s0-.07,0-.19a4,4,0,0,0,0-.53,6.22,6.22,0,0,0-.23-1.6,7.42,7.42,0,0,0-.6-1.51L71,9.57l-.11-.17s-.17-.24-.46-.58a7.25,7.25,0,0,0-1.2-1.08A5.07,5.07,0,0,0,67.81,7a1.29,1.29,0,0,0-.73,0,3.05,3.05,0,0,1,.7.13,5.44,5.44,0,0,1,1.36.79A7.8,7.8,0,0,1,70.26,9c.27.34.43.58.43.58ZM67.48,8.65a2.94,2.94,0,0,0-.49-.4A1.25,1.25,0,0,0,66.41,8s.25.19.47.39a3.36,3.36,0,0,1,.39.43,2.76,2.76,0,0,1,.37.45c.17.24.29.52.33.51a1.09,1.09,0,0,0-.16-.6A2.86,2.86,0,0,0,67.48,8.65ZM63.77,4.11a7.57,7.57,0,0,1,1.15,1.25c.28.38.43.65.45.64s0-.08-.08-.2A4,4,0,0,0,65,5.3,7,7,0,0,0,63.9,4a8.78,8.78,0,0,0-1.37-1.06c-.41-.25-.69-.39-.69-.39s-.28-.14-.73-.32a12.57,12.57,0,0,0-1.65-.51,13.35,13.35,0,0,0-1.7-.3,5.38,5.38,0,0,0-.78,0,6.62,6.62,0,0,0,.77.16c.46.08,1.07.21,1.66.37A14.06,14.06,0,0,1,61,2.43c.43.19.7.33.7.33A9.27,9.27,0,0,1,63.77,4.11ZM63.39,6a3.07,3.07,0,0,1,.53.35c.25.2.45.46.48.44s-.11-.32-.35-.58a3,3,0,0,0-.52-.45,2.69,2.69,0,0,0-.64-.24,1.35,1.35,0,0,0-.68,0s.32.09.62.22A3.22,3.22,0,0,1,63.39,6Zm-12.34,7.3a1.14,1.14,0,0,0,.3.05c.19,0,.47.06.8.07a16.44,16.44,0,0,0,2.44-.1A15.63,15.63,0,0,0,57,12.82c.32-.08.58-.18.77-.24l.29-.09.28-.12c.18-.08.44-.17.74-.32a16.5,16.5,0,0,0,2.13-1.19A15.16,15.16,0,0,0,63.1,9.34a7.09,7.09,0,0,0,.56-.57,1.72,1.72,0,0,0,.2-.23s-.33.29-.83.72a17.48,17.48,0,0,1-1.94,1.44A16.57,16.57,0,0,1,59,11.82c-.3.14-.56.23-.74.3l-.28.11-.28.1c-.18.06-.43.17-.75.26a19,19,0,0,1-2.35.53,17,17,0,0,1-2.41.18C51.49,13.3,51.05,13.27,51.05,13.29ZM48.37,7.56A3.63,3.63,0,0,0,49,7.28a3.83,3.83,0,0,0-.66.18c-.4.12-.92.28-1.46.39A8.82,8.82,0,0,1,45.4,8c-.41,0-.68,0-.68,0s-.27,0-.67-.06a6,6,0,0,1-1.42-.4,4.66,4.66,0,0,1-1.25-.81c-.29-.28-.46-.51-.48-.49l.1.17a2.58,2.58,0,0,0,.31.39,4.29,4.29,0,0,0,1.24.91A5.46,5.46,0,0,0,44,8.22a5.12,5.12,0,0,0,.7.09s.28,0,.7,0A10,10,0,0,0,46.93,8,11.53,11.53,0,0,0,48.37,7.56Zm-1.13,3.13a13.31,13.31,0,0,0,1.76-.3,3.35,3.35,0,0,0,.78-.23,8,8,0,0,0-.8.13c-.48.08-1.12.17-1.76.21a10.29,10.29,0,0,1-1.76,0,5.22,5.22,0,0,1-.79-.12,4.14,4.14,0,0,1-.75-.22,3.93,3.93,0,0,1-1.41-1,8.5,8.5,0,0,1-1.06-1.41A5.63,5.63,0,0,0,41,7.09a4.16,4.16,0,0,0,.36.73,8.08,8.08,0,0,0,1,1.49,4.18,4.18,0,0,0,1.47,1.08,3.53,3.53,0,0,0,.79.25,5,5,0,0,0,.82.11A11.39,11.39,0,0,0,47.24,10.69Zm6.14-7.9a3.7,3.7,0,0,0-.61.51l-.59.52-.57.55a4.06,4.06,0,0,0-.56.57,2.71,2.71,0,0,0,.69-.42c.32-.24.62-.5.62-.5s.29-.28.55-.58A2.84,2.84,0,0,0,53.38,2.79Zm-10,9.91a17.44,17.44,0,0,0,2.18.85,12.54,12.54,0,0,0,1.55.39,3.06,3.06,0,0,0,.73.09,6.09,6.09,0,0,0-.7-.19c-.42-.11-1-.27-1.52-.47a18.91,18.91,0,0,1-2.12-.91,12.64,12.64,0,0,1-2-1.15,7.27,7.27,0,0,1-1.17-1c-.29-.33-.45-.57-.47-.56a2.57,2.57,0,0,0,.39.62,6.44,6.44,0,0,0,1.14,1.14,11.88,11.88,0,0,0,1.34.89ZM42.92,15a2.17,2.17,0,0,0,.88.1.83.83,0,0,0,.38-.11,2.9,2.9,0,0,0-.39,0,2.38,2.38,0,0,1-.8-.18,3.33,3.33,0,0,1-.71-.43,3.41,3.41,0,0,1-.29-.25l-.28-.26a8.44,8.44,0,0,1-.6-.6c-.42-.46-.78-1-.81-1A3.87,3.87,0,0,0,41,13.42a8.61,8.61,0,0,0,.56.66l.28.28a3.43,3.43,0,0,0,.32.25A3.07,3.07,0,0,0,42.92,15ZM66.1,9.23a15.07,15.07,0,0,0,.34,2,17.19,17.19,0,0,0,.64,1.95c.1.26.21.47.28.62l.1.23.13.22c.08.15.18.36.33.59a15.37,15.37,0,0,0,1.17,1.68A14.69,14.69,0,0,0,70.5,18a6,6,0,0,0,.52.43l.2.15a7.06,7.06,0,0,0-.65-.66,16.94,16.94,0,0,1-1.33-1.52,16.58,16.58,0,0,1-1.11-1.68c-.14-.24-.23-.45-.31-.59l-.12-.22-.11-.23c-.06-.14-.17-.35-.28-.6a16.86,16.86,0,0,1-.68-1.9,14.07,14.07,0,0,1-.42-2c-.08-.55-.11-.92-.13-.92a1.11,1.11,0,0,0,0,.26C66.08,8.72,66.07,9,66.1,9.23Zm7.63,7c-.3.65-.74,1.23-.71,1.26a4.22,4.22,0,0,0,.88-1.17,7.22,7.22,0,0,0,.56-1.37,7,7,0,0,0,.18-1.47A4.49,4.49,0,0,0,74.45,12s.06.73,0,1.44a7.7,7.7,0,0,1-.25,1.41A7.42,7.42,0,0,1,73.73,16.19Zm-2.19,2.73a3,3,0,0,0,.37-.63,3.33,3.33,0,0,0,.13-.71,1.29,1.29,0,0,0-.09-.71s0,.35-.1.68a3.11,3.11,0,0,1-.2.65,3.72,3.72,0,0,1-.27.61c-.16.3-.39.55-.37.58S71.32,19.21,71.54,18.92Zm-1.72-.79a2.05,2.05,0,0,0,.05,1.11,3.54,3.54,0,0,0,.47,1,3.56,3.56,0,0,0,.83.76,2.24,2.24,0,0,0,1,.39,8.6,8.6,0,0,1-.93-.55,4.17,4.17,0,0,1-1.23-1.68A8.47,8.47,0,0,1,69.82,18.13Zm-27.54-.48a2,2,0,0,0,.71.29,1.45,1.45,0,0,0,.76,0,.66.66,0,0,0,.3-.18s-.13,0-.32.08a1.5,1.5,0,0,1-.69,0,2,2,0,0,1-.62-.31l-.23-.21A2.39,2.39,0,0,1,42,17a6.06,6.06,0,0,1-.45-.56c-.15-.22-.32-.43-.41-.59s-.11-.3-.13-.3,0,.14,0,.34a7.29,7.29,0,0,0,.35.66,5.79,5.79,0,0,0,.42.61c.13.16.23.26.23.26A2.37,2.37,0,0,0,42.28,17.65Zm-1,1a1.83,1.83,0,0,0,.34.38,1,1,0,0,0,.19.15.94.94,0,0,0,.22.09,1.22,1.22,0,0,0,.52.07,1,1,0,0,0,.49-.16.19.19,0,0,0,.11-.16.06.06,0,0,0-.06,0s0,0,0,0,0,.06-.1.08a.87.87,0,0,1-.44.06,1.29,1.29,0,0,1-.43-.11,1.18,1.18,0,0,1-.18-.1,1.06,1.06,0,0,1-.17-.1,1.87,1.87,0,0,1-.34-.31C41.17,18.32,41,18,41,18A1.61,1.61,0,0,0,41.25,18.69Z"/><path class="cls-31" d="M61.29,2.77l-.07,0Zm1.08,9.52A20.31,20.31,0,0,0,66,9.34s.14.7.41,1.71a1.34,1.34,0,0,1,.41-.91c1-.72,2.48,1.62,2.48,1.62s-.79-2-.2-2.45S72,11.74,72,11.74,70.29,8.42,70.6,8s2.19,1.14,2.19,1.14S71,6.87,71.41,6.53s1.31.22,2,.57c-1.62-1.7-4-2.24-6.69-1.79A17.75,17.75,0,0,0,65,3.61c0,.11.09.21.13.31.81,1.91-3.23-.77-3.8-1.15a12.54,12.54,0,0,1,2.15,1.82c.78.9-4.64,0-4.64,0a12,12,0,0,1,3.7,1.59c1.84,1.2-.72,4.17-.72,4.17s1.37-1.57,2.6-1.09C65.15,9.55,63.62,11.14,62.37,12.29Zm-21,2.12s0,.15-.12.4l.25.17c.73.56,1,4.43.58,5.31a.52.52,0,0,1-.36.24,19.11,19.11,0,0,1,.84,1.86c.06-.28.15-.63.25-1,.24-1.9.78-5.33,1.53-6.68a22.67,22.67,0,0,0,5,.79l2.07-.06s-6.18-2.14-5.8-3.33,5.12-2.35,5.12-2.35-4.08,0-3.88-.49a16,16,0,0,1,3.51-2.6c-.83.24-2.68.6-3.31.12-.44-.33,0-1.34.46-2.24C46.23,5.88,45.35,7,44.17,7c-2.68,0-3.59-.78-3.59-.78s.26,2.82,1.7,3.57A11.64,11.64,0,0,1,39.23,9,10,10,0,0,0,41.33,14.41Zm25.92-.72c.88.71,3.48,2.71,4.45,2.58,1.17-.16,2.91-3.73,2.91-3.73s-.35,2.56.33,2.35c.43-.13.59-1.54.66-2.56a7.3,7.3,0,0,1-2.24,6.17c-1.91,1.19-1.13,4.8-2.44,4s-1-4.61-1-4.61C68.77,17.17,67.89,15.42,67.25,13.69Z"/><g class="cls-32"><path class="cls-28" d="M73.06,7.39C74,8.26,75.18,9.64,75,11a.25.25,0,0,1-.43.12,11,11,0,0,1-.86-1.54,9,9,0,0,0-1.19-1.68c-.29-.32.22-.84.54-.54Z"/><path class="cls-28" d="M72.62,9.35A2.54,2.54,0,0,1,74,10.93c.2.61.31,1.71-.46,2-1.38.53-1.69-2.32-1.63-3.15a.55.55,0,0,1,.75-.44Z"/><path class="cls-28" d="M70,10.25c.53.16,1,1,1.16,1.46a3.73,3.73,0,0,1,.14,2.14.2.2,0,0,1-.38.06c-.24-.62-.51-1.23-.7-1.87a4.25,4.25,0,0,1-.39-1.69.13.13,0,0,1,.17-.1Z"/><path class="cls-28" d="M68,11.1a2.73,2.73,0,0,0,.06.31l.12.55a3.79,3.79,0,0,1,0,.95.23.23,0,0,1-.4.11,9.06,9.06,0,0,1-.87-1.8l.28.28-.09-.05a.65.65,0,0,1,0-1.19c.48-.2,1.14.32.86.84Z"/><path class="cls-28" d="M61.86,4.87c-1.1.19-2.16-.33-3.23-.53A11.06,11.06,0,0,0,55,4.41a.58.58,0,0,1-.53-.91c1.56-2.3,6.32-2,7.87.16a.76.76,0,0,1-.48,1.21Z"/><path class="cls-28" d="M52.41,2.26a6.88,6.88,0,0,0-.86.76,3.9,3.9,0,0,1-.84.73c-.25.12-.43-.16-.37-.37.22-.82,1.27-1.15,2-1.26.08,0,.13.1.06.14Z"/><path class="cls-28" d="M63,10.59c-1.74,2.3-5.2,3.78-8,4.21-.2,0-.3-.28-.1-.34a25.7,25.7,0,0,0,3.9-1.54c1.39-.75,2.57-1.78,3.91-2.58.16-.1.39.07.26.25Z"/><path class="cls-28" d="M62.4,8.28c-2.06,3.23-9,5.07-12.51,3.7a.41.41,0,0,1,0-.74c2.1-.68,4.31-.66,6.42-1.35,1.93-.64,3.65-2,5.6-2.45.48-.12.71.5.49.84Z"/><path class="cls-28" d="M47.88,12.17a1.46,1.46,0,0,0-.51,0,.89.89,0,0,1-.51,0,.28.28,0,0,1-.12-.43c.27-.36.91-.2,1.27-.07a.27.27,0,0,1-.13.51Z"/><path class="cls-28" d="M57.17,6.7a5.84,5.84,0,0,1-1.45.38A15.46,15.46,0,0,0,53.31,8,6.86,6.86,0,0,1,49.58,9a.59.59,0,0,1-.46-.81c.78-1.67,2.65-2.21,4.32-2.64,1.21-.31,3.35-.93,4,.6a.46.46,0,0,1-.23.59Z"/><path class="cls-28" d="M48.3,9a1.51,1.51,0,0,1-.44.22,2.26,2.26,0,0,1-.45,0c-.17,0-.2-.22-.09-.32a2.14,2.14,0,0,1,.32-.28,1.36,1.36,0,0,1,.44-.11c.26,0,.47.36.22.51Z"/></g><path class="cls-13" d="M62.85,40.9l-.1,0c.21.06-.41,1.64-.53,1.84a4.76,4.76,0,0,1-4.84,2.12,3.58,3.58,0,0,1-2-1.24,4,4,0,0,1-.58-2.72,12.72,12.72,0,0,0-2.41,4c-.44,1.31.16,5.21,2.14,4.23,1-.5,2-2.43,2.72-3.44,0,0,2.38,4.23,3.18,4.32,1.49.16,2.8-2,3.33-3.07.86-1.8,1-4.08-.48-5.59A2.33,2.33,0,0,0,62.85,40.9Z"/><path class="cls-10" d="M63,40.11l-.11,0c.22.06-.41,1.64-.53,1.84a4.67,4.67,0,0,1-1.28,1.34,4.38,4.38,0,0,1-3.56.78,3.52,3.52,0,0,1-2-1.25,4,4,0,0,1-.58-2.72,12.69,12.69,0,0,0-2.41,4c-.44,1.31.15,5.21,2.14,4.23,1-.5,2-2.43,2.71-3.44,0,0,2.38,4.23,3.18,4.32,1.5.16,2.81-2,3.33-3.07.86-1.8,1.05-4.08-.47-5.6A1.93,1.93,0,0,0,63,40.11Z"/><path class="cls-13" d="M60.59,47.94c2.55-.57,1.69-4.69,1.69-4.69s-1.27,2.38-4.9,1.26-2.56-3.84-2.46-4.45a4,4,0,0,0,.58,2.72,3.52,3.52,0,0,0,2,1.25,4.38,4.38,0,0,0,3.56-.78,4.67,4.67,0,0,0,1.28-1.34c.12-.2.75-1.78.53-1.84l.11,0a1.93,1.93,0,0,1,.4.35c1.52,1.52,1.33,3.8.47,5.6-.52,1.11-1.83,3.23-3.33,3.07-.28,0-.77-.6-1.28-1.31A2,2,0,0,0,60.59,47.94Z"/><path class="cls-13" d="M57.36,44.81c-.75,1-1.7,2.94-2.71,3.44-1.69.83-2.37-1.87-2.27-3.49a6.85,6.85,0,0,0,1.1,2.71C54.55,48.57,57.36,44.81,57.36,44.81Z"/><path class="cls-3" d="M12.49,116s-9-6.75-12.12-3.2,14.82,8,14.82,8l2.2-4Z"/><path class="cls-33" d="M.57,112.59c-.07.07-.14.13-.2.2-3.14,3.54,14.82,8,14.82,8l.55-1C15.6,119.74.4,116,.57,112.59Z"/><path class="cls-33" d="M9,114.62a2.79,2.79,0,0,1-.09.65c-.09.32-.29.62-.26.65s.31-.23.47-.59a2.51,2.51,0,0,0,.21-.74,2.14,2.14,0,0,0-.12-.72h0l-.28-.15A1.83,1.83,0,0,1,9,114,2.71,2.71,0,0,1,9,114.62Z"/><path class="cls-33" d="M10,114.69A3.1,3.1,0,0,1,10,116c-.09.32-.3.61-.28.64s.33-.21.49-.57a2.09,2.09,0,0,0,.2-.75,1.86,1.86,0,0,0-.17-.7.91.91,0,0,0-.09-.17l-.34-.2A2.1,2.1,0,0,1,10,114.69Z"/><path class="cls-33" d="M11.29,115.53a1.91,1.91,0,0,1,0,.58c0,.3-.18.6-.15.62s.27-.24.37-.59a2,2,0,0,0,.08-.7l0-.08-.39-.27A2.52,2.52,0,0,1,11.29,115.53Z"/><path class="cls-33" d="M13.14,119.77A51.33,51.33,0,0,1,3.92,116c-2.73-1.46-3.54-2.41-3.76-2.94a1.36,1.36,0,0,0,.27,1.6C4.17,117.37,13.14,119.77,13.14,119.77Z"/><g class="cls-34"><path class="cls-9" d="M5.57,113s-.51-.17-1-.24a5.66,5.66,0,0,0-1,0,7.78,7.78,0,0,0-1,.06c-.53.06-1,.19-1.06.15a3.51,3.51,0,0,1,1-.34,6.71,6.71,0,0,1,1.08-.14,5.18,5.18,0,0,1,1.08.13A2.33,2.33,0,0,1,5.57,113Z"/></g><g class="cls-34"><path class="cls-9" d="M6.93,113.42c0,.07-.35,0-.35,0s-.27-.19-.24-.26.35,0,.35,0S7,113.36,6.93,113.42Z"/></g><g class="cls-35"><path class="cls-4" d="M17.39,116.73l-4.17-.63c.58.62,1.91,2.23.2,2.16-2.11-.09-9.59-3.12-11.3-4.68-1.1-1-.23-1.55.54-1.81a3.27,3.27,0,0,0-2.17.89h0l.08-.08c-.17,3.36,15,7.15,15.17,7.18Z"/></g><path class="cls-3" d="M35.11,137.48s-11.21.53-11.37,5.27,16.51-3.31,16.51-3.31l-.89-4.52Z"/><path class="cls-33" d="M23.77,142.47a2.48,2.48,0,0,0,0,.27c-.16,4.74,16.51-3.3,16.51-3.3L40,138.32C39.9,138.38,25.78,145.16,23.77,142.47Z"/><path class="cls-33" d="M31.53,138.66a3,3,0,0,1,.34.56c.14.31.18.67.23.67a1.26,1.26,0,0,0,0-.75,2.54,2.54,0,0,0-.32-.7,2.36,2.36,0,0,0-.54-.48h0l-.32.06a1,1,0,0,1,.21.16A2.77,2.77,0,0,1,31.53,138.66Z"/><path class="cls-33" d="M32.35,138.08a2,2,0,0,1,.44.44,2.28,2.28,0,0,1,.34.55c.14.3.16.66.2.67a1.07,1.07,0,0,0,0-.75,2,2,0,0,0-.33-.7,1.81,1.81,0,0,0-.57-.44l-.18-.07-.39.06A2.35,2.35,0,0,1,32.35,138.08Z"/><path class="cls-33" d="M33.9,137.89a2.06,2.06,0,0,1,.38.43c.17.26.24.58.29.57a1,1,0,0,0-.1-.69,2.22,2.22,0,0,0-.39-.59l-.06-.05-.48.05A2.21,2.21,0,0,1,33.9,137.89Z"/><path class="cls-33" d="M38,140a51.15,51.15,0,0,1-9.5,3c-3,.61-4.26.4-4.77.13A1.36,1.36,0,0,0,25,144.16C29.59,143.84,38,140,38,140Z"/><g class="cls-34"><path class="cls-9" d="M27.86,139.56s-.5.2-.95.48a5.8,5.8,0,0,0-.83.62,8.91,8.91,0,0,0-.77.71c-.36.39-.68.82-.71.8a3.55,3.55,0,0,1,.56-.92,6.87,6.87,0,0,1,.74-.8,5.11,5.11,0,0,1,.92-.58A2.61,2.61,0,0,1,27.86,139.56Z"/></g><g class="cls-34"><path class="cls-9" d="M29.19,139.05c0,.07-.28.21-.28.21s-.33,0-.35,0,.28-.21.28-.21S29.17,139,29.19,139.05Z"/></g><g class="cls-35"><path class="cls-4" d="M39.36,134.92l-3.61,2.17c.83.11,2.89.5,1.53,1.54-1.68,1.28-9.38,3.72-11.69,3.61-1.48-.07-1.16-1.05-.74-1.74a3.22,3.22,0,0,0-1.1,2.07h0a.34.34,0,0,1,0-.1c2,2.69,16.13-4.09,16.26-4.15Z"/></g><path class="cls-3" d="M67.8,85.51s1.26,7.84-1.88,10.66-12.86,3.45-21,.63S29.53,96.17,31.1,105s7.84,22.9,9.1,31.05c0,0-5.65,2.51-8.79-.31,0,0-15.37-38-6-44.86s21.65-4.71,24.47-5.65S62.47,81.12,67.8,85.51Z"/><path class="cls-36" d="M67.8,85.51s1.26,7.84-1.88,10.66-12.86,3.45-21,.63S29.53,96.17,31.1,105s7.84,22.9,9.1,31.05c0,0-5.65,2.51-8.79-.31,0,0-15.37-38-6-44.86s21.65-4.71,24.47-5.65S62.47,81.12,67.8,85.51Z"/><path class="cls-37" d="M67.8,85.51s1.26,7.84-1.88,10.66-12.86,3.45-21,.63S29.53,96.17,31.1,105s7.84,22.9,9.1,31.05c0,0-5.65,2.51-8.79-.31,0,0-15.37-38-6-44.86s21.65-4.71,24.47-5.65S62.47,81.12,67.8,85.51Z"/><path class="cls-37" d="M67.8,85.51s1.26,7.84-1.88,10.66-12.86,3.45-21,.63S29.53,96.17,31.1,105s7.84,22.9,9.1,31.05c0,0-5.65,2.51-8.79-.31,0,0-15.37-38-6-44.86s21.65-4.71,24.47-5.65S62.47,81.12,67.8,85.51Z"/><path class="cls-36" d="M54.63,98.7c-2.85-1.14-5.58-3.29-8.46-5.12-3.33-2.12-8-4.91-12.1-3.93-7.25,1.72-12.84,17-15.86,27.29,0,0-5.65,1.49-7.31-2,0,0,6.71-29,20.87-33.37,7-2.13,14.67-1.24,21.66.32a81.59,81.59,0,0,1,9.07,2.6c1.09.39,2.19.8,3.26,1.25.71.3,2.93.52,3.2.87a1.15,1.15,0,0,1,.2.63c.4,3.33-.77,7.7-3.55,9.86A10.9,10.9,0,0,1,54.63,98.7Z"/><path class="cls-37" d="M34.07,89.65c4.14-1,8.77,1.81,12.1,3.93,2.88,1.83,5.61,4,8.46,5.12a10.9,10.9,0,0,0,11-1.63c2.78-2.16,4-6.53,3.55-9.86a1.15,1.15,0,0,0-.2-.63c-.27-.35-2.49-.57-3.2-.87-1.07-.45-2.17-.86-3.26-1.25-.77-.27-1.55-.53-2.32-.77,1.38,2.08.91,8-3.65,8.71-4.88.81-21.11-5.84-24.69-5.52s-7.79,4.22-9.9,3.9c-.39-.06-.49-.37-.43-.83-7.16,10-10.61,25-10.61,25,1.66,3.52,7.31,2,7.31,2C21.23,106.68,26.82,91.37,34.07,89.65Z"/><path class="cls-36" d="M44.77,96.76c-.47-.16-1.16-1.34-1.5-1.71-.52-.59-1.05-1.17-1.6-1.74A36.9,36.9,0,0,0,38.07,90a6.37,6.37,0,0,0-3.42-1.71c-1.49-.17-3-.57-4.46-.09a18.54,18.54,0,0,0-4.74,2.69c-9.41,6.9,6,44.86,6,44.86,3.14,2.82,8.79.31,8.79.31-1.26-8.15-7.53-22.27-9.1-31S36.67,94,44.77,96.76Z"/><path class="cls-37" d="M44.77,96.76c-.47-.16-1.16-1.34-1.5-1.71-.52-.59-1.05-1.17-1.6-1.74A36.9,36.9,0,0,0,38.07,90a6.37,6.37,0,0,0-3.42-1.71c-1.49-.17-3-.57-4.46-.09a18.54,18.54,0,0,0-4.74,2.69c-9.41,6.9,6,44.86,6,44.86,3.14,2.82,8.79.31,8.79.31-1.26-8.15-7.53-22.27-9.1-31S36.67,94,44.77,96.76Z"/><path class="cls-37" d="M31.1,105c-1.56-8.74,5.57-10.95,13.67-8.2-.52-.18-1.28-1.47-1.66-1.89-.58-.65-1.17-1.29-1.78-1.91a31.82,31.82,0,0,0-3.81-3.44c-2-1.48-5.52-2.19-7.82-1.15l-.55.27c1-.12,4.87-.39,5.29,2.3.49,3.08-3.41,3.25-4.71,7s.81,11-2.76,11.69c-1.54.28-2.93-1.25-4-3.09,1.95,13.13,8.45,29.18,8.45,29.18,3.14,2.82,8.79.31,8.79.31C38.94,127.86,32.67,113.74,31.1,105Z"/><g class="cls-8"><path class="cls-37" d="M32.67,88.12s-.67.07-1.64.32a11.61,11.61,0,0,0-3.33,1.4,14.64,14.64,0,0,0-2.82,2.26,8,8,0,0,0-1,1.27s-.09.13-.23.37a6.8,6.8,0,0,0-.52,1.05,10.56,10.56,0,0,0-.69,3.51c-.08,2.65.44,5.31.32,5.32a9.89,9.89,0,0,1-.37-1.63A22.29,22.29,0,0,1,22,98.3a10.81,10.81,0,0,1,.59-3.71,6.59,6.59,0,0,1,.53-1.14c.15-.27.24-.41.24-.41a8,8,0,0,1,1.11-1.33,14.17,14.17,0,0,1,3-2.23A11,11,0,0,1,31,88.21a8.61,8.61,0,0,1,1.22-.13A1.63,1.63,0,0,1,32.67,88.12Z"/></g><path class="cls-38" d="M23.23,99.43a6.59,6.59,0,0,1,.14-2.78,10.84,10.84,0,0,1,1-2.64,11.13,11.13,0,0,1,1.77-2.19,6.45,6.45,0,0,1,2.34-1.52c0,.07-1.13.8-2,1.82a11.89,11.89,0,0,0-1.56,2.19,11.44,11.44,0,0,0-1.1,2.45C23.36,98.05,23.31,99.43,23.23,99.43Zm1,2.61s-.28-.91-.44-.88-.15,1-.15,1,.28.91.45.89S24.27,102,24.27,102Zm11-19.41a21.29,21.29,0,0,0-2.6.26,11.07,11.07,0,0,0-2.55.73,7.89,7.89,0,0,0-1.08.54c-.2-.19-5.82,4.91-5.71,5s5.89-4.74,6-4.51a7.77,7.77,0,0,1,1-.55,11.16,11.16,0,0,1,2.4-.82c1.82-.4,3.72-.54,3.71-.64A4.88,4.88,0,0,0,35.29,82.63Zm5-1.06a8.51,8.51,0,0,0-.86,0,6.8,6.8,0,0,0-.83.18c-.41.12-.8.29-.78.37a9.3,9.3,0,0,0,1.66,0,10,10,0,0,0,1.64-.3C41.07,81.73,40.66,81.62,40.24,81.57Z"/><path class="cls-3" d="M62.77,80.26H51.65A1.25,1.25,0,0,1,50.41,79h0a1.25,1.25,0,0,1,1.24-1.24H62.77A1.25,1.25,0,0,1,64,79h0A1.25,1.25,0,0,1,62.77,80.26Z"/><path class="cls-39" d="M63.75,78.25a1.27,1.27,0,0,1-1,.54H51.6a1.24,1.24,0,0,1-1-.48,1.21,1.21,0,0,0-.22.7,1.25,1.25,0,0,0,1.24,1.25H62.77a1.24,1.24,0,0,0,1-2Z"/><path class="cls-3" d="M52.91,80.26H23.3a2.2,2.2,0,0,1-2.09-1.83l-3-20.34a1.56,1.56,0,0,1,1.6-1.82H50.24a2.13,2.13,0,0,1,2.08,1.82l2.21,20.34A1.61,1.61,0,0,1,52.91,80.26Z"/><path class="cls-40" d="M52.91,80.26H23.3a2.2,2.2,0,0,1-2.09-1.83l-3-20.34a1.56,1.56,0,0,1,1.6-1.82H50.24a2.13,2.13,0,0,1,2.08,1.82l2.21,20.34A1.61,1.61,0,0,1,52.91,80.26Z"/><path class="cls-3" d="M49.36,56.89h-29a1.49,1.49,0,0,0-1.53,1.74L21.68,78a2,2,0,0,0,.43.94,1.93,1.93,0,0,0,1,.29H51.36a1.54,1.54,0,0,0,1.55-1.74l-2.15-19.4a1.87,1.87,0,0,0-.4-.95A2,2,0,0,0,49.36,56.89Z"/><path class="cls-3" d="M50.59,56.3a1.91,1.91,0,0,1,.24.73l2.25,20.34a1.61,1.61,0,0,1-1.63,1.82H21.82a2,2,0,0,1-.35,0,2.21,2.21,0,0,0,1.83,1.1H52.91a1.61,1.61,0,0,0,1.62-1.83L52.32,58.09A2.13,2.13,0,0,0,50.59,56.3Z"/><path class="cls-39" d="M39.11,68a3.69,3.69,0,0,1-3.77,4.26A5.07,5.07,0,0,1,30.46,68a3.67,3.67,0,0,1,3.77-4.26A5,5,0,0,1,39.11,68Z"/><path class="cls-39" d="M54.53,78.43,52.32,58.09a2.13,2.13,0,0,0-2.08-1.82H44.5C42.12,67.09,28,72.51,20.65,74.63l.56,3.8a2.2,2.2,0,0,0,2.09,1.83H52.91A1.61,1.61,0,0,0,54.53,78.43Z"/><path class="cls-18" d="M55.8,84.4a15,15,0,0,1-8.34-.67c-4-1.69-5.1-3.39-5.1-3.39l6.21-.07s-2-1-1.57-1.89,5.43,1.56,5.43,1.56l2.1.72Z"/><path class="cls-20" d="M49,80.44c-.71-.29-1.27-.59-1.27-.59a4.21,4.21,0,0,0,2.58,1.06S49.74,80.73,49,80.44Z"/><path class="cls-20" d="M44.89,81.88a10,10,0,0,0,2,.64c.51.11.83.15.83.15A16.32,16.32,0,0,1,45,81.73a16.08,16.08,0,0,1-2.5-1.4s.24.21.66.52A10,10,0,0,0,44.89,81.88Z"/><path class="cls-20" d="M43.73,81.8a7,7,0,0,0,1.69,1,17.57,17.57,0,0,1-3-2.41A7,7,0,0,0,43.73,81.8Z"/><path class="cls-19" d="M47.46,83.73c-4-1.69-5.1-3.39-5.1-3.39l6.21-.07s-2-1-1.57-1.89c.14-.28.67-.24,1.35-.07a1.57,1.57,0,0,1-.18.31c-.63.92,1.13,2,1.13,2s-4.72-.42-5,.56,5.42,3.45,7.88,2.26.46-3,.73-3.15l.21-.08,1.41.48,1.08,3.74A14.32,14.32,0,0,1,47.46,83.73Z"/><path class="cls-10" d="M75.66,45.07s5.74,24.31,3.16,30.41S61.89,86.6,56.09,86.7c0,0-1.48-4.2-1.2-6.53,0,0,16.64-5.57,17.36-8.87s-3-15.47-3-15.47S68.49,48.18,75.66,45.07Z"/><g class="cls-11"><path class="cls-12" d="M71.9,49.51a2.8,2.8,0,0,0-.38.41,9.66,9.66,0,0,0-.7,1,10.87,10.87,0,0,0-.81,1.6,12,12,0,0,0-.47,1.74,10.6,10.6,0,0,0-.15,1.22,2.36,2.36,0,0,0,0,.56,3.51,3.51,0,0,0,.09-.55,12.06,12.06,0,0,1,.22-1.2,11.5,11.5,0,0,1,.53-1.68A13.72,13.72,0,0,1,71,51c.22-.38.45-.76.64-1A2.59,2.59,0,0,0,71.9,49.51Z"/><path class="cls-12" d="M69.12,51.46a4,4,0,0,0-.27,1.06,6.65,6.65,0,0,0,0,2.18A3.71,3.71,0,0,0,69,55.77s0-.55-.06-1.09,0-1.07,0-1.07,0-.53,0-1.07S69.15,51.47,69.12,51.46Z"/><path class="cls-12" d="M73.22,47.72s.33-.32.67-.61a8,8,0,0,1,.7-.54,7.83,7.83,0,0,1,.73-.51c.38-.24.78-.43.77-.46a3,3,0,0,0-.85.31,6.44,6.44,0,0,0-.79.47,7.48,7.48,0,0,0-.68.61A2.85,2.85,0,0,0,73.22,47.72Z"/><path class="cls-12" d="M76.51,72.45a3.61,3.61,0,0,0-1-.73,4.48,4.48,0,0,0-.82-.34,3.37,3.37,0,0,0-.39-.08,2,2,0,0,0-.41,0,2.91,2.91,0,0,0-.87.14,2.44,2.44,0,0,0-.77.44.8.8,0,0,0-.25.31,2.87,2.87,0,0,0,.31-.24,2.33,2.33,0,0,1,.76-.34,2.74,2.74,0,0,1,.82-.09,2,2,0,0,1,.37,0l.38.07a4.11,4.11,0,0,1,.79.27C76,72.12,76.49,72.48,76.51,72.45Z"/><path class="cls-12" d="M75.3,70.13a3,3,0,0,0-.91.16,6.62,6.62,0,0,0-.87.35,6.91,6.91,0,0,0-.76.54,2.67,2.67,0,0,0-.63.67s.36-.28.73-.54a7.57,7.57,0,0,1,.78-.46s.39-.22.81-.4S75.31,70.17,75.3,70.13Z"/></g><path class="cls-13" d="M78.82,75.47c.08-.2.16-.43.23-.67,1-3.64.08-11.46-1.07-18.17.11,4.26,0,11.48-1.58,12.37-2.32,1.27-6-11.61-5.76-14.74a15.22,15.22,0,0,1,1.74-5.43c-.22.23-.42.46-.61.7l-.66.91a11.83,11.83,0,0,0-1.7,4.32c0,.37-.07.76-.09,1.16v0h0l0,.15v0s0,.12.06.19v0c0,.08,0,.16.07.25v0l.09.29V57l.09.33,0,0c0,.12.07.25.11.39v0c.34,1.19.77,2.81,1.19,4.54v0l.15.61,0,.1.12.54a.74.74,0,0,0,0,.14c0,.17.07.34.11.5l0,.17c0,.16.07.31.1.47s0,.13,0,.2l.09.44c0,.07,0,.14,0,.2s0,.29.08.43,0,.14,0,.21,0,.27.07.4A1.43,1.43,0,0,0,72,67l.06.38,0,.22c0,.12,0,.24.05.36l0,.23c0,.11,0,.22,0,.33l0,.22,0,.31c0,.07,0,.14,0,.21s0,.2,0,.29,0,.14,0,.2,0,.19,0,.28v.43a1,1,0,0,1,0,.17,2.11,2.11,0,0,1,0,.25.49.49,0,0,1,0,.12,2.88,2.88,0,0,1,0,.33,1.45,1.45,0,0,1-.19.43l-.06.11a2.84,2.84,0,0,1-.36.45h0a4.92,4.92,0,0,1-.52.48l-.1.09c-.21.17-.43.34-.68.51a4.32,4.32,0,0,1,3.33.14c1.8,1.27-7.07,11.1-13.68,10.2-4.25-.58-4-2.7-3.37-4.14l-1.44.5h0l-.1,0-.07,0-.08,0c-.28,2.33,1.2,6.53,1.2,6.53,3.08,0,8.57-1.5,13.43-3.75,4.29-2,8.08-4.62,9.3-7.47Z"/><path class="cls-20" d="M58.49,31.08s0,.3-.31.64a3.4,3.4,0,0,1-1.28.93,5,5,0,0,1-1.55.34,5.76,5.76,0,0,1-.72,0s-.28,0-.7-.09l-.7-.12a1.39,1.39,0,0,1-.88-.39.54.54,0,0,1,0-.62,2.52,2.52,0,0,1,.27-.33l.48-.52c.29-.3.49-.49.53-.46s-.11.26-.34.61l-.39.59a1.94,1.94,0,0,0-.2.3.13.13,0,0,0,0,.15,1.17,1.17,0,0,0,.61.16l.7.06.67,0a6.37,6.37,0,0,0,.66,0,4.33,4.33,0,0,0,1.41-.18A3.58,3.58,0,0,0,58,31.55C58.3,31.29,58.45,31.05,58.49,31.08Z"/><path class="cls-20" d="M59.73,31.59c0,.08-.3.09-.58,0a2.22,2.22,0,0,1-.53-.22,2.44,2.44,0,0,1-.36-.45c-.14-.25-.21-.52-.13-.56s.26.13.46.26a4.27,4.27,0,0,0,.41.25s.16.16.35.32S59.75,31.5,59.73,31.59Z"/><path class="cls-20" d="M57.45,33.85c.06.07-.21.37-.58.56a2.55,2.55,0,0,1-.78.24,2.68,2.68,0,0,1-.8-.18c-.38-.15-.67-.43-.62-.5s.39.05.73.07a3.21,3.21,0,0,0,.67,0,2.79,2.79,0,0,0,.66,0C57.07,33.94,57.39,33.79,57.45,33.85Z"/></g></g></g></svg>