<svg xmlns="http://www.w3.org/2000/svg" viewBox="0 0 65.98 84.38"><defs><style>.cls-1{isolation:isolate;}.cls-2{fill:#fff;}.cls-19,.cls-28,.cls-3,.cls-33,.cls-5{opacity:0.5;}.cls-10,.cls-12,.cls-14,.cls-16,.cls-18,.cls-22,.cls-26,.cls-28,.cls-3,.cls-31,.cls-32,.cls-33,.cls-35,.cls-36,.cls-5,.cls-9{mix-blend-mode:multiply;}.cls-10,.cls-4,.cls-5{fill:#d3dbfd;}.cls-6,.cls-7{fill:#294168;}.cls-31,.cls-6{opacity:0.6;}.cls-13,.cls-19,.cls-20,.cls-23,.cls-24,.cls-27,.cls-29,.cls-34,.cls-6{mix-blend-mode:screen;}.cls-8,.cls-9{fill:#88ac76;}.cls-9{opacity:0.34;}.cls-11,.cls-12,.cls-13,.cls-26,.cls-32,.cls-33,.cls-34{fill:#3c1d91;}.cls-12,.cls-16,.cls-35{opacity:0.45;}.cls-15,.cls-16,.cls-18,.cls-20,.cls-36{fill:#ebd0a6;}.cls-17{fill:#de9168;}.cls-18{opacity:0.62;}.cls-21,.cls-22,.cls-23{fill:#6f3a1e;}.cls-22,.cls-32{opacity:0.25;}.cls-24{fill:#f8e9d0;}.cls-25,.cls-27,.cls-28{fill:#a95913;}.cls-29{opacity:0.35;}.cls-30,.cls-31{fill:#f15e6b;}.cls-34{opacity:0.3;}</style></defs><title>speechРесурс 10</title><g class="cls-1"><g id="Слой_2" data-name="Слой 2"><g id="OBJECTS"><path class="cls-2" d="M33.21,52.71c0,.24,0,.47,0,.69v0c0,.27,0,.53,0,.78s0,.28-.05.41,0,.11,0,.17a.13.13,0,0,0,0,.06l-.09.52a.52.52,0,0,1,0,.11c0,.08,0,.17,0,.26s0,.17,0,.25a0,0,0,0,0,0,0l-.12.45s0,0,0,.06-.09.29-.13.42v0c-.09.28-.18.51-.25.69s-.17.39-.17.39l-.08.08-.08.09,0,0-.08.09a.47.47,0,0,0-.1.1l-.09.09-.15.15-.06.07-.09.09L31.3,59l0,0,0,0-.23.24-.07.07,0,0h0l-.26.27h0s0,0,0,0l-.06.06h0l-.3.33-.3.31q-.16.2-.36.39l-.14.15-.18.2-.09.09,0,0h0c-.21.22-.42.44-.63.68s-.29.31-.44.48l0,0h0a.52.52,0,0,0-.1.11s0,0,0,0-.19.21-.29.32l-.35.39a2.55,2.55,0,0,1-.23.24.1.1,0,0,1,0,.05l-.27.31h0l-.09.09h0l-.08.08-.08.1-.39.46-.12.13-.36.43-.13.15-.34.41a2.09,2.09,0,0,0-.14.17l-.32.39-.15.19c-.12.15-.25.3-.36.46h0a.39.39,0,0,0-.08.1l-.36.47-.07.09-.35.46-.06.08c-.08.11-.16.21-.23.32l-.15.21,0,.06-.17.24-.14.21a1.1,1.1,0,0,0-.09.14h0l-.1.15-.09.15q-.16.24-.3.48s0,0,0,0-.1.18-.15.27a1.62,1.62,0,0,0-.1.18c-.05.08-.09.17-.13.25a1.19,1.19,0,0,0-.08.16c0,.09-.08.17-.11.26a.61.61,0,0,0-.05.12.06.06,0,0,0,0,0h0c0,.11-.07.21-.1.31a1.54,1.54,0,0,0-.05.31c0,.05,0,.1,0,.15a.93.93,0,0,0,0,.23v0a.28.28,0,0,0,0,.09,4.29,4.29,0,0,0,.21.84,4.85,4.85,0,0,0,.21.56c.09.23.2.46.32.7,1.45,2.9,4.68,6.84,7.2,9.7H17.67l-.18-.24c-.18-.23-.36-.46-.52-.69s-.47-.64-.7-1-.55-.82-.81-1.23c-.05-.08-.11-.17-.15-.25-.16-.24-.3-.48-.43-.72s-.28-.49-.41-.73-.3-.56-.44-.84-.27-.55-.39-.83-.19-.43-.27-.64-.17-.43-.25-.64c-.15-.41-.27-.83-.38-1.24,0-.16-.08-.32-.11-.48s-.07-.35-.1-.52,0-.25,0-.37,0-.24,0-.36a8.22,8.22,0,0,1,0-1.11h0a.13.13,0,0,1,0-.06c0-.11,0-.22,0-.34a.68.68,0,0,0,0-.14q0-.14.06-.3l0-.15s0,0,0-.07l.06-.25a.83.83,0,0,0,0-.15c0-.16.09-.32.14-.48l0,0c0-.15.1-.31.16-.47l.06-.17c0-.12.09-.24.14-.36a1.89,1.89,0,0,0,.06-.18h0c0-.13.11-.26.16-.38s0-.12.07-.17,0,0,0,0h0c.07-.18.15-.35.23-.53l0-.07c.06-.13.12-.26.19-.39l.06-.12.1-.2.2-.41a.25.25,0,0,1,0-.07.91.91,0,0,1,.07-.14c.07-.14.15-.28.22-.43l.1-.18.33-.62,0-.08.31-.56.12-.2.26-.45L16,64.1l.28-.47.09-.16h0a0,0,0,0,1,0,0l.4-.65.06-.1.36-.57.14-.22.24-.38.05-.08c.05-.08.1-.15.14-.23l.33-.5.11-.17.27-.41v0l.17-.25a.35.35,0,0,0,0-.08l.4-.59a1.64,1.64,0,0,0,.14-.22l0,0,.3-.43a.33.33,0,0,0,.06-.1.76.76,0,0,0,.08-.11h0l.36-.51.11-.16.47-.67,0-.07.42-.6c0-.06.09-.12.13-.19l.34-.48.15-.2.37-.51.09-.13.48-.66,0,0,.44-.59.12-.16.35-.48.12-.16c.13-.17.25-.34.38-.5a.86.86,0,0,1,.07-.1l0-.06.42-.55c1.68-2.22,3.16-4.1,4.14-5.32L30,44.62l.07.09a15.46,15.46,0,0,1,1.29,1.84,13.37,13.37,0,0,1,1,2.1c.12.32.23.64.32,1s.17.65.23,1a0,0,0,0,1,0,0h0c0,.09,0,.18.05.28,0,.28.09.6.14.94v0C33.19,52.14,33.21,52.43,33.21,52.71Z"/><g class="cls-3"><path class="cls-4" d="M16.31,70.71a4.64,4.64,0,0,1,1.41-.19,4.84,4.84,0,0,1,1,.09,3.21,3.21,0,0,1,.44.11,3.64,3.64,0,0,1,.42.19,3.31,3.31,0,0,1,.79.59,2.37,2.37,0,0,1,.54.82,1,1,0,0,1,.09.44s-.07-.17-.19-.39a2.47,2.47,0,0,0-.57-.73,3,3,0,0,0-.78-.51,3.26,3.26,0,0,0-.39-.16,3.84,3.84,0,0,0-.41-.12,4.57,4.57,0,0,0-.93-.14C17,70.66,16.32,70.75,16.31,70.71Z"/><path class="cls-4" d="M18.73,69.06a3,3,0,0,1,.83.62,5.87,5.87,0,0,1,.68.79,6,6,0,0,1,.49.91,3.27,3.27,0,0,1,.28,1s-.21-.47-.46-.91a7,7,0,0,0-.53-.84,7.49,7.49,0,0,0-.6-.81C19.09,69.43,18.71,69.09,18.73,69.06Z"/></g><path class="cls-5" d="M33.21,52.71c0,.24,0,.47,0,.69v0c0,.22,0,.42,0,.62a.61.61,0,0,1,0,.14v0c0,.14,0,.28,0,.41s0,.11,0,.17a.13.13,0,0,0,0,.06l-.09.52a.52.52,0,0,1,0,.11c0,.08,0,.17,0,.26s0,.17,0,.25a0,0,0,0,0,0,0l-.12.45s0,0,0,.06-.09.29-.13.42v0l-.29.69-.21.47-.08.09,0,0-.08.09a.47.47,0,0,0-.1.1l-.09.09-.15.15-.06.07-.09.09L31.3,59l0,0,0,0-.23.24-.07.07,0,0h0l-.26.27h0s0,0,0,0l-.06.06-.31.33-.3.31q-.16.2-.36.39l-.14.15-.18.2-.09.09,0,0h0c-.21.22-.42.44-.63.68s-.29.31-.44.48l0,0h0a.52.52,0,0,0-.1.11s0,0,0,0a4.51,4.51,0,0,0-.37.39h0l-.25.28-.24.27a.1.1,0,0,1,0,.05l-.27.31h0l-.09.09h0l-.08.08-.08.1-.39.46-.12.13-.36.43-.13.15-.34.41a2.09,2.09,0,0,0-.14.17l-.32.39-.15.19-.3.36-.07.1a.39.39,0,0,0-.08.1l-.28.35-.08.12-.07.09-.26.33-.09.13-.06.08c-.08.11-.16.21-.23.32l-.15.21,0,.06-.17.24-.14.21a1.1,1.1,0,0,0-.09.14h0l-.1.15-.09.15,0,0L22,70c0,.06-.07.11-.09.16s0,0,0,0-.1.18-.15.27a1.62,1.62,0,0,0-.1.18c-.05.08-.09.17-.13.25a1.19,1.19,0,0,0-.08.16c0,.09-.08.17-.11.26a.61.61,0,0,0-.05.12.06.06,0,0,0,0,0h0c0,.11-.07.21-.1.31a1.54,1.54,0,0,0-.05.31c0,.05,0,.1,0,.15a1.85,1.85,0,0,0,0,.23v0a.28.28,0,0,0,0,.09,4.29,4.29,0,0,0,.21.84,4.85,4.85,0,0,0,.21.56c.09.23.2.46.32.7a4.73,4.73,0,0,0-3.27-1.45c-1.59.21-.58,6.25,2.26,11.15H17.67l-.18-.24c-.18-.23-.36-.46-.52-.69s-.47-.64-.7-1-.55-.82-.81-1.23c-.05-.08-.11-.17-.15-.25-.16-.24-.3-.48-.43-.72s-.28-.49-.41-.73-.3-.56-.44-.84-.27-.55-.39-.83-.19-.43-.27-.64-.17-.43-.25-.64c-.15-.41-.27-.83-.38-1.24,0-.16-.08-.32-.11-.48s-.07-.35-.1-.52,0-.25,0-.37,0-.24,0-.36a8.22,8.22,0,0,1,0-1.11h0a.13.13,0,0,1,0-.06c0-.11,0-.22,0-.34a.68.68,0,0,0,0-.14q0-.14.06-.3l0-.15s0,0,0-.07l.06-.25a.83.83,0,0,0,0-.15c0-.16.09-.32.14-.48l0,0c0-.15.1-.31.16-.47l.06-.17c0-.12.09-.24.14-.36a1.89,1.89,0,0,0,.06-.18h0c0-.13.11-.26.16-.38s0-.12.07-.17,0,0,0,0h0c.07-.18.15-.35.23-.53l0-.07c.06-.13.12-.26.19-.39l.06-.12.1-.2.2-.41a.25.25,0,0,1,0-.07.91.91,0,0,1,.07-.14c.07-.14.15-.28.22-.43l.1-.18.33-.62,0-.08.31-.56.12-.2.26-.45L16,64.1l.28-.47.09-.16h0a0,0,0,0,1,0,0l.4-.65.06-.1.36-.57.14-.22.24-.38.05-.08c.05-.08.1-.15.14-.23l.33-.5.11-.17.27-.41v0l.17-.25a.35.35,0,0,0,0-.08l.4-.59a1.64,1.64,0,0,0,.14-.22l0,0,.3-.43a.33.33,0,0,0,.06-.1.41.41,0,0,0,.07-.11h0l.36-.51.11-.16.47-.67,0-.07.42-.6c0-.06.09-.12.13-.19l.34-.48.15-.2.37-.51.09-.13.48-.66,0,0,.44-.59.12-.16.35-.48.12-.16c.13-.17.25-.34.38-.5a.86.86,0,0,1,.07-.1l0-.06.42-.55.16,0c-.07.1-2,3.25-3.78,6.76-.2.39-.39.78-.58,1.18-.12.24-.24.49-.35.73l0,.08c-.1.2-.19.38-.28.58v0l-.18.41c-.09.19-.17.38-.25.57h0c-.24.56-.46,1.11-.64,1.63,0,.11-.08.22-.12.33l0,.1h0s0,0,0,0a6.55,6.55,0,0,0-.5,3.13,1.41,1.41,0,0,0,.17.41.92.92,0,0,0,1.05.31,3.81,3.81,0,0,0,1.25-.48L21,67a26.64,26.64,0,0,0,4.2-3.38c.46-.43.91-.88,1.34-1.33s.64-.64.94-1h0l0,0c.13-.14.26-.28.37-.42s.29-.3.43-.46l.24-.27c.14-.16.27-.32.41-.47s0,0,0,0l.09-.11,0,0,.23-.27c.22-.27.43-.53.62-.79.38-.46.7-.9,1-1.3a8.68,8.68,0,0,0,.73-1.26,11.15,11.15,0,0,0,.57-1.65,18.67,18.67,0,0,0,.52-4.58c.09.33.17.65.23,1a0,0,0,0,1,0,0h0c0,.09,0,.18.05.28,0,.28.09.6.14.94v0c0,.25,0,.48,0,.72C33.2,52.61,33.21,52.66,33.21,52.71Z"/><path class="cls-6" d="M27.73,84.38h-.57a31.72,31.72,0,0,1-2.11-2.6s-.34-.49-.82-1.23-1.09-1.74-1.65-2.77A20.07,20.07,0,0,0,21,75a2.28,2.28,0,0,0-.8-.62,3.68,3.68,0,0,1-.38-.13s.15,0,.41,0a2.22,2.22,0,0,1,.93.58,6.5,6.5,0,0,1,.9,1.24l.87,1.47c.6,1,1.24,2,1.73,2.69s.85,1.19.85,1.19A36.55,36.55,0,0,0,27.73,84.38Z"/><path class="cls-6" d="M31.64,50.78a18.65,18.65,0,0,1,.17,2.06c0,1-.08,2.09,0,2.1a6.74,6.74,0,0,0,.38-2.09,14.5,14.5,0,0,0,0-2.13,14.12,14.12,0,0,0-.46-2.08,6.25,6.25,0,0,0-.84-2c-.07,0,.27,1,.47,2A17.56,17.56,0,0,1,31.64,50.78Z"/><path class="cls-7" d="M48.94,84.38H34.32a1.37,1.37,0,0,1,.2-.22,3.5,3.5,0,0,1,1.19-.7,12.66,12.66,0,0,1,4.34-.58h.36c.53,0,1.07,0,1.62.08l.16,0h.07c.66.06,1.33.14,2,.24l.58.11c.75.13,1.48.28,2.17.46S48.34,84.17,48.94,84.38Z"/><path class="cls-8" d="M48.94,84.38H34.32a1.37,1.37,0,0,1,.2-.22,3.5,3.5,0,0,1,1.19-.7,12.66,12.66,0,0,1,4.34-.58h.36c.53,0,1.07,0,1.62.08l.16,0h.07c.66.06,1.33.14,2,.24l.58.11c.75.13,1.48.28,2.17.46S48.34,84.17,48.94,84.38Z"/><path class="cls-9" d="M48.94,84.38H34.32a1.37,1.37,0,0,1,.2-.22,3.5,3.5,0,0,1,1.19-.7,12.66,12.66,0,0,1,4.34-.58h.36c.53,0,1.07,0,1.62.08l.16,0h.07c.66.06,1.33.14,2,.24l.58.11c.75.13,1.48.28,2.17.46S48.34,84.17,48.94,84.38Z"/><path class="cls-2" d="M60.34,44.77s-.24.72-.57,1.88h0a42.79,42.79,0,0,0-1.66,9.72c0,.29,0,.58,0,.86s0,.35,0,.52A9.79,9.79,0,0,0,58.74,61s0,.07,0,.11-.08.25-.11.37h0c-.2.64-.39,1.29-.57,1.94s-.37,1.3-.54,2-.31,1.19-.45,1.78c0,0,0,0,0,0s0,0,0,0c-.16.65-.32,1.29-.46,1.94s-.26,1.16-.38,1.74c0,.07,0,.14,0,.22h0c-.06.33-.13.66-.19,1h0c-.28,1.43-.52,2.86-.72,4.3-.05.29-.09.59-.13.88-.13,1-.25,2-.33,3q-.08.91-.12,1.83a.76.76,0,0,0,0,.15v0c0,.19,0,.39,0,.6s0,.56,0,.83v.06a1.69,1.69,0,0,1,0,.23c0,.12,0,.24,0,.35H32.44c-.13-.55-.18-1.11-.27-1.66l-.63-4.25c-.2-1.37-.41-2.75-.61-4.13l0-.23v0l-.24-1.63-.15-1-.3-2.09c0-.14,0-.27-.06-.4a.88.88,0,0,0,0-.17v0c-.08-.6-.17-1.2-.25-1.79-.26-1.91-.51-3.81-.74-5.72h0c-.06-.37-.1-.74-.14-1.11a4.43,4.43,0,0,1-.06-.51,1.11,1.11,0,0,1,0-.17c-.06-.44-.11-.87-.15-1.3q-.25-2.16-.45-4.32c-.12-1.28-.23-2.57-.29-3.86,0-.15,0-.3,0-.45v-.12a6.31,6.31,0,0,1,2.09-4.7c2-1.81,5.1-2.7,8.35-3.14l.45-.06.61-.07h.28c2.15-.21,4.29-.26,6.12-.26h1.66l.65.11h0l.73.14c2.51.46,7.81,1.55,10.57,2.93a6.13,6.13,0,0,1,.73.41Z"/><path class="cls-5" d="M60.34,44.53v0l-.06.16c-.09.31-.3,1-.55,1.9a41.41,41.41,0,0,0-1.61,9.75c0,.29,0,.58,0,.86s0,.35,0,.52a9.49,9.49,0,0,0,.65,3.12l0,.13-.1.34q-.86,2.81-1.55,5.69s0,0,0,0c-.33,1.34-.63,2.66-.9,4a0,0,0,0,1,0,0c-.06.32-.12.63-.17.94-.29,1.48-.53,3-.74,4.43l-.09.62c-.14,1.06-.26,2.13-.35,3.2,0,.53-.08,1.07-.1,1.6,0,.12,0,.25,0,.39v0c0,.19,0,.39,0,.6s0,.56,0,.83v.06a1.69,1.69,0,0,1,0,.23c0,.12,0,.24,0,.35H32.51a15.27,15.27,0,0,1-.34-1.91c-.2-1.3-.39-2.61-.59-3.92-.22-1.48-.44-3-.65-4.45a2,2,0,0,0,0-.24.06.06,0,0,1,0-.06c-.07-.45-.13-.9-.2-1.35s-.1-.66-.14-1c-.1-.69-.2-1.39-.31-2.09a2.27,2.27,0,0,0,0-.35,1,1,0,0,0,0-.24L29.92,67q-.41-2.87-.76-5.75c-.05-.36-.09-.72-.13-1.08,0-.18-.05-.36-.07-.55a.53.53,0,0,1,0-.13h0c-.06-.43-.11-.86-.15-1.3q-.27-2.28-.48-4.56c-.12-1.29-.23-2.57-.29-3.86a1.48,1.48,0,0,1,0-.21v-.12a6.55,6.55,0,0,1,.78-3.26c1.63-3,5.65-4.3,9.84-4.85l.47-.06h0l.39,0h.25c2.22-.22,4.43-.26,6.3-.27h1.53L48,41l.88.16C51.56,41.62,57.92,42.92,60.34,44.53Z"/><path class="cls-5" d="M37.57,84.38H32.44c-.13-.55-.18-1.11-.27-1.66l-.63-4.25,0,.08a11.72,11.72,0,0,0,4.13,4.91A9.46,9.46,0,0,0,37.57,84.38Z"/><path class="cls-5" d="M58.67,61.49h0c-.2.64-.39,1.29-.57,1.94s-.37,1.3-.54,2-.31,1.19-.45,1.78c0,0,0,0,0,0s0,0,0,0c-.16.65-.32,1.29-.46,1.94s-.26,1.16-.38,1.74c0,.07,0,.14,0,.22h0c-.06.33-.13.66-.19,1h0c-.28,1.43-.52,2.86-.72,4.3-.05.29-.09.59-.13.88-.13,1-.25,2-.33,3q-.08.91-.12,1.83a.76.76,0,0,0,0,.15v0c0,.19,0,.39,0,.6s0,.56,0,.83v.06a1.69,1.69,0,0,1,0,.23c0,.12,0,.24,0,.35H45.38c.54-.16,1.08-.35,1.63-.57.32-.13.65-.28,1-.43,1.66-.78,3-2.57,4.17-4.9.37-.76.72-1.59,1-2.46a48.78,48.78,0,0,0,1.8-6.2c.66-2.87,1.13-5.76,1.46-8.27h0c.54-4.09.7-7.12.67-7.23s.68,2.89,1.52,7Z"/><path class="cls-5" d="M49.19,47.56V47.5A.35.35,0,0,1,49.19,47.56Z"/><path class="cls-10" d="M42.26,83c0-.29,0-.62,0-1,0,0,0-.1,0-.15v0c0-.41,0-.82,0-1.13a2.57,2.57,0,0,0-.06-.59,3.06,3.06,0,0,0,0,.59c0,.35,0,.83,0,1.3s0,.63,0,.92c0,.56,0,1,0,1s0,.16,0,.43h.24c0-.27,0-.44,0-.44S42.28,83.54,42.26,83Z"/><path class="cls-5" d="M46.75,73.83c0-1-.13-2-.21-3,0,0,0,0,0,0a1.1,1.1,0,0,1,0-.18c-.28-3.62-.67-7.23-1.13-10.83-.42-3.25-.9-6.49-1.42-9.71a3.08,3.08,0,0,0,.82-.6,5.12,5.12,0,0,0,.51-.54h0a9,9,0,0,0,.82-1.21.82.82,0,0,0,0-.27,4,4,0,0,0-2.32-2.71h0l-.08,0h0l-.28-.06a.85.85,0,0,0-.5.11,2.36,2.36,0,0,0-.48.34,3.3,3.3,0,0,0-.38.37s0,0,0,0a2.73,2.73,0,0,0-.23.25.94.94,0,0,0-.09.12,11.54,11.54,0,0,0-1,1.45.28.28,0,0,0,0,.06,3.87,3.87,0,0,0,.42,1.46h0A2.7,2.7,0,0,0,42.39,50c0,.13-.12.87-.26,2s-.31,2.38-.5,3.9c-.06.43-.11.87-.17,1.32v0c-.07.55-.15,1.11-.22,1.68s-.13,1-.19,1.56h0c-.09.62-.17,1.25-.25,1.87-.19,1.59-.39,3.17-.56,4.59,0,0,0,0,0,.06-.07.61-.14,1.19-.21,1.73l-.06.59c-.1.81-.18,1.52-.24,2.09,0,.19,0,.37-.06.53s0,.31,0,.47c-.11,1-.25,2.09-.39,3.13,0,.36-.1.72-.13,1.08a9,9,0,0,0,.36,4.11,15.26,15.26,0,0,0,1,2.12,14,14,0,0,0,.9,1.49h2.78a11.16,11.16,0,0,0,.75-1C46.79,80.4,47,77.26,46.75,73.83Z"/><path class="cls-11" d="M46.25,73.35c-.06-1-.14-2-.22-3,0,0,0-.07,0-.1q-.1-1.38-.24-2.76-.26-2.76-.59-5.52c-.1-.86-.21-1.72-.32-2.57a1.23,1.23,0,0,0,0-.19h0c-.1-.78-.21-1.57-.32-2.35-.17-1.2-.34-2.39-.52-3.58s-.35-2.31-.54-3.46a3.75,3.75,0,0,0,1-.73,6.1,6.1,0,0,0,.42-.49,9.25,9.25,0,0,0,.61-.87c.11-.17.16-.27.16-.27a1.38,1.38,0,0,0-.09-.68,1.22,1.22,0,0,0-.07-.17,2.49,2.49,0,0,0-.16-.33l0,0a3,3,0,0,0-.21-.33l-.2-.25-.27-.29-.19-.18-.19-.17a3.85,3.85,0,0,0-.43-.31h0l-.06,0-.16-.09h0a1.4,1.4,0,0,0-.27-.14H43.2a1.31,1.31,0,0,0-.27-.06.5.5,0,0,0-.21,0,.31.31,0,0,0-.13,0,1.45,1.45,0,0,0-.39.2h0s0,0,0,0l-.08.06,0,0a7.22,7.22,0,0,0-1.29,1.46v0c-.32.46-.53.82-.53.82s0,.12,0,.32a2.89,2.89,0,0,0,.11.48,3,3,0,0,0,.24.62,1.62,1.62,0,0,0,.1.18A3.87,3.87,0,0,0,41,49c.09.11.2.23.31.34a3.11,3.11,0,0,0,.28.23,2.63,2.63,0,0,0,.33.2s0,0,0,.09,0,.13,0,.22l-.14,1c0,.16,0,.32-.06.5s0,.08,0,.12c0,.2,0,.41-.08.64q-.09.72-.21,1.59c0,.18,0,.36-.07.55s-.06.51-.1.78h0c0,.11,0,.21,0,.32v.06a.91.91,0,0,1,0,.23h0c-.14,1.15-.3,2.39-.46,3.65L40.46,61h0c-.07.58-.15,1.16-.22,1.73-.16,1.32-.32,2.6-.46,3.8l-.06.46c-.08.63-.15,1.23-.21,1.79,0,.2,0,.4-.07.59-.1.82-.18,1.53-.24,2.09l0,.28c0,.24-.05.48-.08.72-.09.8-.19,1.6-.3,2.39h0c0,.17,0,.32-.06.48A10.38,10.38,0,0,0,39,80.52c.07.2.14.39.23.59s.05.12.07.17.16.38.25.56.19.4.29.59.16.3.25.45.27.48.42.72.29.46.45.69l.06.09h2.41a10.78,10.78,0,0,0,.87-1.14c.1-.15.2-.3.29-.46l.31-.52c.12-.24.24-.47.34-.7s.2-.46.29-.7a3.52,3.52,0,0,0,.15-.42,12.31,12.31,0,0,0,.43-1.69c0-.28.09-.57.13-.86l.06-.58c0-.3,0-.6.05-.91A28.48,28.48,0,0,0,46.25,73.35Z"/><path class="cls-12" d="M46.31,76.4c0,.31,0,.61-.05.91l-.06.58c0,.29-.08.58-.13.86a11,11,0,0,1-.43,1.69,3.52,3.52,0,0,1-.15.42c-.09.24-.18.47-.29.7s-.22.46-.34.7l-.31.52c-.09.16-.19.31-.29.46a10.78,10.78,0,0,1-.87,1.14H41l-.06-.09c-.16-.23-.3-.46-.45-.69s-.29-.48-.42-.72-.17-.3-.25-.45-.2-.39-.29-.59-.17-.37-.25-.56,0-.11-.07-.17-.16-.39-.23-.59a10.38,10.38,0,0,1-.23-5.19c0-.16,0-.31.06-.48a15.89,15.89,0,0,0,.3,1.81c.59,2.6,1.78,4.31,3.18,3.26a5.64,5.64,0,0,0,1.47-2,17.15,17.15,0,0,0,1-6.05c0-.12,0-.24,0-.37,0-.67,0-1.38,0-2.09,0-.18,0-.35,0-.53,0,0,0,0,0,0,0-.61,0-1.22,0-1.84-.09-2.69-.31-5.49-.56-8h0s0,0,0,0h0c-.45-4.43-1-7.89-1.29-8s-.43.36-.69,1.09c-.32.92-.66,2.24-.91,3.33h0c0,.1-.05.19-.07.28,0-.11,0-.21,0-.32h0c0-.27.07-.53.1-.78s0-.37.07-.55q.12-.87.21-1.59c0-.23.06-.44.08-.64,0,0,0-.08,0-.12s0-.34.06-.5l.14-1c0-.09,0-.17,0-.22s0-.07,0-.09a2.63,2.63,0,0,1-.33-.2,3.11,3.11,0,0,1-.28-.23c-.11-.11-.22-.23-.31-.34a3.87,3.87,0,0,1-.24-.37,1.62,1.62,0,0,1-.1-.18,3.64,3.64,0,0,0,.54.35h0a1.89,1.89,0,0,0,2.17,0,1.33,1.33,0,0,0,.41-.62,2.52,2.52,0,0,0,.15-.79,6.79,6.79,0,0,0-.48-2.68.08.08,0,0,0,0-.05l.09,0,.73.32.19.17.19.18.27.29.2.25a3,3,0,0,1,.21.33l0,0a2.49,2.49,0,0,1,.16.33,1.22,1.22,0,0,1,.07.17,1.38,1.38,0,0,1,.09.68s-.05.1-.16.27a9.25,9.25,0,0,1-.61.87,6.1,6.1,0,0,1-.42.49,3.75,3.75,0,0,1-1,.73c.19,1.15.37,2.31.54,3.46s.35,2.38.52,3.58c.11.78.22,1.57.32,2.35h0a1.23,1.23,0,0,1,0,.19c.11.85.22,1.71.32,2.57q.33,2.76.59,5.52.13,1.38.24,2.76s0,.07,0,.1c.08,1,.16,2,.22,3A28.48,28.48,0,0,1,46.31,76.4Z"/><path class="cls-13" d="M42.28,53.38a22.73,22.73,0,0,0-.45,2.82h0c-.18,1.34-.38,2.92-.53,4.12h0c-.14,1.1-.23,1.88-.23,1.88h0c0,.19-.23,2.53-.42,4.75,0,.16,0,.31,0,.47h0c0,.46-.07.9-.1,1.31,0,.21,0,.4,0,.59a11,11,0,0,0-.06,1.75,12,12,0,0,0,.31-1.75c0-.19,0-.38.08-.59s.08-.63.13-1h0c0-.26.07-.53.1-.81.3-2.3.59-4.71.59-4.71s0-.15,0-.4.09-1.07.17-1.86c.09-1,.19-2.27.28-3.4h0A28.33,28.33,0,0,0,42.28,53.38Zm-2,19.07c0-.19,0-.3,0-.31s-.08.12-.13.31S40,73,40,73.33c-.1.6-.17,1.21-.17,1.21s0,.61,0,1.22A3.21,3.21,0,0,0,40,77a4.07,4.07,0,0,0,.2-1.21c.07-.6.13-1.2.13-1.2s0-.6,0-1.21A8.78,8.78,0,0,0,40.33,72.45ZM42.19,47c.12-.31.38-.54.35-.61s-.42.07-.68.41a1.89,1.89,0,0,0-.34.74,1.91,1.91,0,0,0,.12.81c.16.39.5.63.54.58S42,48.52,42,48.2a2,2,0,0,1,0-.64A1.88,1.88,0,0,1,42.19,47Z"/><g class="cls-3"><path class="cls-4" d="M36.41,44C36,45,34.68,45.67,34,46.49s-1.5,2-2.18,3a.24.24,0,0,1-.44-.06A4.21,4.21,0,0,1,32.33,45c.83-1,2.56-2.29,3.92-1.65a.47.47,0,0,1,.16.61Z"/></g><g class="cls-3"><path class="cls-4" d="M53.4,84.38H51.74a4,4,0,0,0,.68-.74,15.58,15.58,0,0,0,1.08-2.8c.11-.25.53-.17.59.08A5.35,5.35,0,0,1,53.4,84.38Z"/></g><g class="cls-3"><path class="cls-4" d="M34.73,84.38H33.56a4.16,4.16,0,0,1-.7-2.26.15.15,0,0,1,.27-.07,13,13,0,0,0,1.39,2.11A1.1,1.1,0,0,0,34.73,84.38Z"/></g><g class="cls-14"><path class="cls-4" d="M30,66.72a2.51,2.51,0,0,0,0-.41l-.12-1.08c-.1-.89-.23-2.08-.33-3.28-.22-2.38-.3-4.78-.3-4.78s-.12-2.39,0-4.78c0-1.2.11-2.4.19-3.29,0-.45.08-.82.1-1.08a2.08,2.08,0,0,0,0-.41,1.78,1.78,0,0,0-.08.4c0,.26-.1.63-.15,1.08-.12.89-.22,2.09-.28,3.29-.12,2.4,0,4.8,0,4.8s.11,2.4.38,4.79c.13,1.19.28,2.38.41,3.27l.17,1.08C30,66.58,30,66.73,30,66.72Z"/></g><path class="cls-4" d="M38,54.39l-7.48-.28s.58,8.34,4,7.62S38,54.39,38,54.39Z"/><path class="cls-15" d="M47.7,38.68l-.22,4.2s-2.78,3.16-7.9.53l.21-4.73S45.77,36.23,47.7,38.68Z"/><path class="cls-16" d="M39.65,41.86c4.59,4.5,8.24-3.4,6-1.92-1.87,1.25-5,0-5.92-.44v-.16l0-.51a.77.77,0,0,1,.19-.22c.3-.11.93-.34,1.72-.55s1.93-.26,2.82-.46a5.63,5.63,0,0,1,.92,0h0l.42.06h0a2.6,2.6,0,0,1,.4.1h.05l.32.12.07,0a1.74,1.74,0,0,1,.33.18l0,0,.26.2.07.06a2.23,2.23,0,0,1,.26.27h0l-.22,4.2s-2.78,3.16-7.9.53Z"/><path class="cls-15" d="M30.59,20.56a2.09,2.09,0,0,0-2.9-.65c-2,1.3-1,8.11,1.7,8S31.07,20.42,30.59,20.56Z"/><path class="cls-16" d="M30.59,20.56a2.09,2.09,0,0,0-2.9-.65c-2,1.3-1,8.11,1.7,8S31.07,20.42,30.59,20.56Z"/><path class="cls-17" d="M28.13,25.89c0-.05.2,0,.43-.06a.46.46,0,0,0,.29-.24.69.69,0,0,0,0-.45.82.82,0,0,0-.25-.38c-.1-.1-.23-.13-.41-.28a.79.79,0,0,1-.26-.69,1.25,1.25,0,0,1,.08-.27,1,1,0,0,1,.15-.21.78.78,0,0,1,.25-.2l.19-.09h0l0,0a.83.83,0,0,0,0-.12,1.1,1.1,0,0,0,0-.18,2.45,2.45,0,0,0-.28-.72c-.26-.46-.66-.63-.65-.7s.47,0,.88.44a2.47,2.47,0,0,1,.47.84l.06.23a1.43,1.43,0,0,1,0,.26c0,.22,0,.43,0,.59a1.59,1.59,0,0,0-.39,0,.19.19,0,0,0-.09,0,.68.68,0,0,0-.12.11.21.21,0,0,0,0,.1s0,0,0,0,.23.17.4.36a1.39,1.39,0,0,1,.35.73,1.08,1.08,0,0,1-.15.8.6.6,0,0,1-.51.25C28.29,26.09,28.12,25.93,28.13,25.89Z"/><path class="cls-18" d="M29.39,27.93c2.68-.08,1.68-7.51,1.2-7.37a2.51,2.51,0,0,0-1.52-1,4.83,4.83,0,0,1-.18,2.76s-.71-1.12-1.08-.75.2,2.18-.61,2.35c-.25.06-.42-.14-.52-.44C26.83,25.67,27.82,28,29.39,27.93Z"/><g class="cls-19"><path class="cls-20" d="M26.89,21.42c-.11.38-.06.76.12.85s.4-.15.52-.53.06-.76-.11-.85S27,21,26.89,21.42Z"/><path class="cls-20" d="M27.58,20.32a.3.3,0,0,0,.14.34.18.18,0,0,0,.28-.09.3.3,0,0,0-.13-.35A.19.19,0,0,0,27.58,20.32Z"/></g><path class="cls-15" d="M60.56,20.76c.21-6.09-2.31-16-15.13-16.06S30.58,18.75,30.58,18.75a39,39,0,0,0-1.19,9.18c.15,4,2.22,9.89,11.46,10.84s16.35-2.93,18-8.61a4.73,4.73,0,0,0,4.35-3.8C63.86,23.74,62.43,21.08,60.56,20.76Z"/><g class="cls-14"><path class="cls-16" d="M60.56,20.76a19.78,19.78,0,0,0-.76-6.13,15.93,15.93,0,0,0-2.08-4.38c1.85,3.11,2.17,7.78,2.07,10.61a7.65,7.65,0,0,0,.81-.09Z"/><path class="cls-16" d="M62.24,21.8a5.47,5.47,0,0,1,.38,3.65,4.74,4.74,0,0,1-4.36,3.81c-1.66,5.67-8.77,9.55-18,8.6-4.86-.49-7.74-2.37-9.39-4.62,1.52,2.64,4.48,5,10,5.53,9.23.95,16.35-2.93,18-8.61a4.73,4.73,0,0,0,4.35-3.8A5.26,5.26,0,0,0,62.24,21.8Z"/></g><path class="cls-21" d="M36.11,24c0,1.22-.52,2.21-1.2,2.21s-1.25-1-1.28-2.2.52-2.22,1.2-2.22S36.08,22.78,36.11,24Z"/><path class="cls-22" d="M35.41,22.05a3.65,3.65,0,0,1,.14,1c0,1.22-.51,2.21-1.19,2.22a.86.86,0,0,1-.58-.26c.21.73.64,1.24,1.13,1.24.68,0,1.22-1,1.2-2.21A2.81,2.81,0,0,0,35.41,22.05Z"/><path class="cls-23" d="M33.87,23.62c0,.42.13.78.34.8s.42-.3.45-.72-.13-.78-.34-.8S33.9,23.21,33.87,23.62Z"/><path class="cls-23" d="M34.72,22.51a.16.16,0,1,1-.32,0,.16.16,0,0,1,.16-.17A.17.17,0,0,1,34.72,22.51Z"/><path class="cls-21" d="M50.65,25.05c-.14,1.21-.8,2.13-1.48,2.05s-1.11-1.13-1-2.35.8-2.13,1.48-2.05S50.78,23.84,50.65,25.05Z"/><path class="cls-22" d="M50.24,23.08a3.56,3.56,0,0,1,0,.8c-.14,1.21-.8,2.13-1.48,2.05a.91.91,0,0,1-.57-.37c.08.84.46,1.48,1,1.54.68.08,1.34-.84,1.48-2.05A2.8,2.8,0,0,0,50.24,23.08Z"/><path class="cls-23" d="M48.58,24.35c-.08.41,0,.79.24.83s.44-.25.53-.66,0-.78-.24-.83S48.66,23.94,48.58,24.35Z"/><path class="cls-23" d="M49.56,23.35a.16.16,0,0,1-.17.15.17.17,0,0,1-.14-.19.17.17,0,0,1,.18-.15A.16.16,0,0,1,49.56,23.35Z"/><path class="cls-17" d="M61.22,27.77a.9.9,0,0,1-.38.76.67.67,0,0,1-.38.13.59.59,0,0,1-.46-.22,1,1,0,0,1-.28-.57.77.77,0,0,1,.2-.69,1.72,1.72,0,0,1,.39-.26.65.65,0,0,0,.19-.24.86.86,0,0,0,0-.56.42.42,0,0,0-.28-.3l-.12,0H60l-.07,0,0,0-.1.15a.49.49,0,0,1-.4.27.37.37,0,0,1-.24-.11.53.53,0,0,1-.13-.26,3.13,3.13,0,0,1-.07-.79,5.21,5.21,0,0,1,0-.55,3.09,3.09,0,0,1,.29-1,1.69,1.69,0,0,1,.53-.65c.39-.28.72-.2.72-.15s-.28.09-.57.4a2.31,2.31,0,0,0-.52,1.51,3.85,3.85,0,0,0,0,.48c0,.16,0,.12,0,.16s.07,0,.06,0h0l.08-.07a.76.76,0,0,1,.18-.09.77.77,0,0,1,.31-.06.94.94,0,0,1,.27.05.85.85,0,0,1,.25.15,1.21,1.21,0,0,1,.45.74,1.6,1.6,0,0,1-.17,1.11,1.1,1.1,0,0,1-.4.4,2.26,2.26,0,0,0-.34.16.18.18,0,0,0-.08.19.58.58,0,0,0,.11.31.37.37,0,0,0,.49.12C61.06,28.08,61.18,27.74,61.22,27.77Z"/><path class="cls-20" d="M61.8,22.9c.27.27.57.35.69.18s0-.53-.29-.8-.57-.35-.68-.18S61.53,22.63,61.8,22.9Z"/><path class="cls-20" d="M60.8,21.58a.28.28,0,0,0,.13.34.18.18,0,0,0,.28-.09.3.3,0,0,0-.13-.35A.18.18,0,0,0,60.8,21.58Z"/><path class="cls-16" d="M43.26,28.25a5,5,0,0,1-3.85-1.2s-1.11.66.8,1.47C42.76,29.59,43.26,28.25,43.26,28.25Z"/><path class="cls-17" d="M42.13,28.76a7.33,7.33,0,0,1-.81,0,4.78,4.78,0,0,1-1.64-.62,1,1,0,0,1-.51-.59.49.49,0,0,1,.24-.49,1.23,1.23,0,0,1,.46-.18l.2,0a1.91,1.91,0,0,1,.45,0,2.69,2.69,0,0,1,.55.1l.32.13c.2.11.47.31.7.47q0-.42,0-.9V25A4.91,4.91,0,0,0,42,23.77,5.2,5.2,0,0,0,41.85,25c0,.34-.06.73-.1,1.1l0,.55c0,.05,0,.07,0,.08l-.07-.05a2.58,2.58,0,0,0-.38-.18,3.57,3.57,0,0,0-.65-.16,2.47,2.47,0,0,0-.57,0,1.15,1.15,0,0,0-.25,0,1.88,1.88,0,0,0-.64.3,1.2,1.2,0,0,0-.33.4.91.91,0,0,0-.06.59,1.4,1.4,0,0,0,.76.82,4.39,4.39,0,0,0,1.82.5A1.21,1.21,0,0,0,42.13,28.76Z"/><path class="cls-24" d="M40.44,27.19c0,.12.11.31.37.43s.52.11.57,0-.11-.32-.37-.43S40.49,27.07,40.44,27.19Z"/><path class="cls-16" d="M50.85,26.37a4.43,4.43,0,0,0-.55-.13,4.29,4.29,0,0,0-.73-.09,5.17,5.17,0,0,0-1,.05l-.18,0h0a3.72,3.72,0,0,0-1.42.58A1.77,1.77,0,0,0,46,28.2c0,.95.86,1.81,2.18,2.18l.15,0h0a6.05,6.05,0,0,0,1,.14,4.68,4.68,0,0,0,.65,0,4.08,4.08,0,0,0,2.09-.69l.18-.14a1.75,1.75,0,0,0,.65-1.21v-.09C52.92,27.54,52.07,26.74,50.85,26.37Zm-15.07-.82-.28-.21a3.88,3.88,0,0,0-.6-.34,4.82,4.82,0,0,0-1-.37l-.15,0a4.58,4.58,0,0,0-.62-.08,4,4,0,0,0-1.73.19h0l-.19.07A1.84,1.84,0,0,0,30,26a1.75,1.75,0,0,0,.36,1.43,4.06,4.06,0,0,0,2.06,1.39,3.31,3.31,0,0,0,.42.12,5,5,0,0,0,1.36.13,3,3,0,0,0,2.07-.79,1.48,1.48,0,0,0,.4-.72A2.09,2.09,0,0,0,35.78,25.55Z"/><path class="cls-16" d="M54.65,11.72C44.33,19.67,32.42,14,32.42,14a15.46,15.46,0,0,0-1.66,3.77C31.48,14.6,34.59,4.62,45.43,4.7c12.82.09,15.34,10,15.13,16.06a2.58,2.58,0,0,1,.93.38,4.72,4.72,0,0,1-.82.66c-2.05.93-1.78,4.61-3,3.66s-.4-4.71-.4-4.71C55.05,18.73,54.65,11.72,54.65,11.72Z"/><path class="cls-25" d="M61.09,20.79a7.34,7.34,0,0,0,3.08-6.37c-.11-5.37-3.29-7.71-7.79-7.6,0,0-4.55-6.95-11.3-6.82S36.42,5.77,33.77,5.37,30.33,4.1,30.33,4.1s-.13,2.83,1.19,3.77a11.27,11.27,0,0,1-2.91-1.21,10,10,0,0,0,1.32,5.66s-1.59,3.1-.79,5.26a17.35,17.35,0,0,1,.92,3.09s1.46-5.92,2.78-7.68c0,0,11.91,5.66,22.23-2.29,0,0,.4,7,2.65,9,0,0-.79,3.77.4,4.72S59,21.71,61.09,20.79Z"/><path class="cls-11" d="M55.25,23.11l.63-.25,2.55-1,1.44-.56.65-.25c.12,0,.47-.24.57-.18l.27.15a.68.68,0,0,0-.32-.69c-.19-.1-.39,0-.58.09l-1.24.43L55,22.29Z"/><path class="cls-26" d="M55.21,23l-.11-.31L59.85,21c.28-.09,1.29-.6,1.51-.21a.38.38,0,0,1,0,.15.29.29,0,0,0-.17-.06l-.1-.05c-.1-.06-.45.14-.57.18l-.25.1-.17.06-.07,0-.16.06-.7.27-.49.19-.11,0-.14.06c-.56.21-1.11.44-1.67.66l-.72.28,0,0-.13.05-.63.25,0-.11Z"/><path class="cls-11" d="M43.44,22.73l.37-.78a5.74,5.74,0,0,0-4-.31l.31.8A5,5,0,0,1,43.44,22.73Z"/><path class="cls-26" d="M43.44,22.73a5,5,0,0,0-3.32-.29L40,22.09a5.68,5.68,0,0,1,3.61.31Z"/><path class="cls-13" d="M55,22.82s-5.84-4.12-11.34-.44c0,0-.73,8.3,5.17,8.52S55,22.82,55,22.82Z"/><path class="cls-13" d="M46.76,21.06l3.33,9.74a5.42,5.42,0,0,1-1.24.1l-.49,0-3.31-9.23A8.37,8.37,0,0,1,46.76,21.06Z"/><path class="cls-13" d="M50.87,21.09l2.51,7.37a5.82,5.82,0,0,1-1.28,1.43l-3.24-9A10.65,10.65,0,0,1,50.87,21.09Z"/><path class="cls-13" d="M43.66,23.53a11,11,0,0,1,0-1.15c5.5-3.68,11.34.44,11.34.44a12.34,12.34,0,0,1-.15,1.36A10.4,10.4,0,0,1,43.66,23.53Z"/><path class="cls-11" d="M55.38,22.56l-.15-.11L55,22.29c-1.18-.73-6.36-3.54-11.3-.39a2.12,2.12,0,0,0-.2.12l-.17.11v.21s0,.14,0,.32c0,1.08-.05,4.59,1.75,6.82a4.92,4.92,0,0,0,3.82,1.85h.24c5.43,0,6.22-6.91,6.31-8.27h0a1.49,1.49,0,0,0,0-.22v-.24ZM52,29.47a4.21,4.21,0,0,1-2,.93,5.35,5.35,0,0,1-1.08.07l-.5,0h0l-.14,0h0a4.08,4.08,0,0,1-2.58-1.49,9,9,0,0,1-1.54-5.12h0c0-.51,0-.91,0-1.14A8.83,8.83,0,0,1,45.19,22a8.61,8.61,0,0,1,1.72-.56A9.14,9.14,0,0,1,49,21.3a9.74,9.74,0,0,1,2,.28,12.23,12.23,0,0,1,3.57,1.47c0,.28-.07.77-.17,1.36A10.89,10.89,0,0,1,53.22,28l-.29.45A5.32,5.32,0,0,1,52,29.47Z"/><path class="cls-26" d="M54.77,22.72a11.73,11.73,0,0,0-3.89-1.61L50.53,21a5.4,5.4,0,0,0-.58-.09H49.9c-.33,0-.68-.06-1-.07a9,9,0,0,0-2.09.22,7.48,7.48,0,0,0-1.71.61,8,8,0,0,0-1.13.63l-.16.1v.2a7.33,7.33,0,0,0,0,1,9.43,9.43,0,0,0,1.62,5.62,4.38,4.38,0,0,0,2.47,1.56,3,3,0,0,0,.41.08h.36l.28,0h.22l.37,0a0,0,0,0,0,0,0h.09s0,0,0,0l.48-.07.43-.1.07,0a4.66,4.66,0,0,0,.79-.32l.37-.22a2.62,2.62,0,0,0,.34-.24l0,0,.12-.1.17-.15.23-.23.07-.07L53,29s0,0,0,0a.36.36,0,0,1,.07-.1,1,1,0,0,1,.08-.11c.08-.11.15-.23.22-.34h0a11.38,11.38,0,0,0,1.45-4.23,11.38,11.38,0,0,0,.12-1.14v-.22ZM53.22,28l-.29.45a5.32,5.32,0,0,1-1,1,4.21,4.21,0,0,1-2,.93,5.35,5.35,0,0,1-1.08.07l-.5,0h0l-.14,0h0a4.08,4.08,0,0,1-2.58-1.49,9,9,0,0,1-1.54-5.12h0c0-.51,0-.91,0-1.14A8.83,8.83,0,0,1,45.19,22a8.61,8.61,0,0,1,1.72-.56A9.14,9.14,0,0,1,49,21.3a9.74,9.74,0,0,1,2,.28,12.23,12.23,0,0,1,3.57,1.47c0,.28-.07.77-.17,1.36A10.89,10.89,0,0,1,53.22,28Z"/><path class="cls-13" d="M39.92,22s-5.47-4.58-11.26-1.37c0,0-1.41,8.21,4.45,8.91S39.92,22,39.92,22Z"/><path class="cls-13" d="M31.84,19.58l2.51,10a5.73,5.73,0,0,1-1.24,0l-.49-.08L30.08,20A9.2,9.2,0,0,1,31.84,19.58Z"/><path class="cls-13" d="M35.93,20l1.89,7.55a5.63,5.63,0,0,1-1.39,1.32L34,19.55A12,12,0,0,1,35.93,20Z"/><path class="cls-13" d="M28.54,21.79a10.75,10.75,0,0,1,.12-1.14C34.45,17.44,39.92,22,39.92,22s-.07.55-.26,1.35A10.42,10.42,0,0,1,28.54,21.79Z"/><path class="cls-11" d="M40.17,21.68,40,21.57c-.83-.64-5-3.49-9.61-2.11h0c-.18.05-.37.11-.55.18l-.2.08h0l-.42.18c-.23.11-.46.22-.69.35l-.18.1,0,.21a7.11,7.11,0,0,0-.09.81h0a.78.78,0,0,0,0,.16.81.81,0,0,0,0,.16,14.87,14.87,0,0,0,0,1.67h0a8.64,8.64,0,0,0,.1,1.1,9.54,9.54,0,0,0,.28,1.35,2.76,2.76,0,0,0,.08.27,6.61,6.61,0,0,0,.8,1.7s0,0,0,0l.07.09A4.9,4.9,0,0,0,33.06,30l.24,0c5.28.44,6.7-6.06,7-7.61h0l.05-.32V22l0-.18ZM36.32,28.4a4.2,4.2,0,0,1-2.08.75,4.92,4.92,0,0,1-1.08,0,6.66,6.66,0,0,1-.67-.12,4,4,0,0,1-2.25-1.43l-.2-.27A5.05,5.05,0,0,1,29.42,26a4.51,4.51,0,0,1-.17-.52,7.4,7.4,0,0,1-.22-1,7.65,7.65,0,0,1-.08-.81,14,14,0,0,1,0-1.42h0v-.15c0-.51.07-.92.1-1.15l.2-.1c.27-.14.54-.25.81-.36h0l.09,0,.07,0h0l.22-.07h0A7.71,7.71,0,0,1,32,20a9.37,9.37,0,0,1,2.12,0,9.9,9.9,0,0,1,2,.44h0a12.18,12.18,0,0,1,3.43,1.77,12.38,12.38,0,0,1-.27,1.33A10.87,10.87,0,0,1,37.7,27,5.36,5.36,0,0,1,36.32,28.4Z"/><path class="cls-26" d="M39.68,21.91A11.73,11.73,0,0,0,35.94,20c-.24-.08-.48-.14-.73-.21s-.51-.11-.78-.15L34,19.57h0l-.34,0h-.13a9,9,0,0,0-1.63.08,7.7,7.7,0,0,0-1.56.38l-.05,0-.1,0h0a.47.47,0,0,0-.15.06,5.76,5.76,0,0,0-.72.33,2.2,2.2,0,0,0-.31.15l-.16.09,0,.2c0,.05-.06.38-.11.88v.08s0,.07,0,.1c0,.18,0,.38,0,.59s0,.33,0,.5a6.51,6.51,0,0,0,0,.75h0a2.45,2.45,0,0,0,0,.27,6.07,6.07,0,0,0,.12.84h0a4,4,0,0,0,.12.58A4,4,0,0,0,29,26a3.21,3.21,0,0,0,.38.79v.17a4.7,4.7,0,0,0,.37.65,1.84,1.84,0,0,0,.17.22,4.22,4.22,0,0,0,1.84,1.43,0,0,0,0,1,0,0l.32.11a3.07,3.07,0,0,0,.52.14h.06l.22,0h0l.1,0,.11,0,.22,0h.1a0,0,0,0,0,0,0H34l.33,0h0a2.2,2.2,0,0,0,.37-.06,2.22,2.22,0,0,0,.37-.09l.09,0a4.62,4.62,0,0,0,.76-.3,2.78,2.78,0,0,0,.47-.28,1.14,1.14,0,0,0,.23-.15l.05,0s0,0,0,0h0l0,0a3.73,3.73,0,0,0,.36-.32h0a3.83,3.83,0,0,0,.28-.29,3.76,3.76,0,0,0,.25-.31l.1-.12A11.13,11.13,0,0,0,39.6,23.4h0a10.5,10.5,0,0,0,.22-1.12l0-.23Zm-2,5.1a5.36,5.36,0,0,1-1.38,1.39,4.2,4.2,0,0,1-2.08.75,4.92,4.92,0,0,1-1.08,0,6.66,6.66,0,0,1-.67-.12,4,4,0,0,1-2.25-1.43l-.2-.27A5.05,5.05,0,0,1,29.42,26a4.51,4.51,0,0,1-.17-.52,7.4,7.4,0,0,1-.22-1,7.65,7.65,0,0,1-.08-.81,14,14,0,0,1,0-1.42h0v-.15c0-.51.07-.92.1-1.15l.2-.1c.27-.14.54-.25.81-.36h0l.09,0,.07,0h0l.22-.07h0A7.71,7.71,0,0,1,32,20a9.37,9.37,0,0,1,2.12,0,9.9,9.9,0,0,1,2,.44h0a12.18,12.18,0,0,1,3.43,1.77,12.38,12.38,0,0,1-.27,1.33A10.87,10.87,0,0,1,37.7,27Z"/><path class="cls-25" d="M49.92,18.45c0,.1.42,0,.74.09a1.65,1.65,0,0,1,.59.21,1.69,1.69,0,0,1,.57.25c.29.17.51.48.61.44s.07-.47-.19-.84a2.36,2.36,0,0,0-.44-.45,1.67,1.67,0,0,0-.25-.15,1.6,1.6,0,0,0-.29-.06,1.9,1.9,0,0,0-.62,0C50.19,18.06,49.86,18.36,49.92,18.45Z"/><path class="cls-25" d="M34.29,17.27c.08.08.42-.11.75-.22a1.54,1.54,0,0,1,.61-.11.5.5,0,0,1,.16,0,1,1,0,0,1,.39,0,1.1,1.1,0,0,1,.38.17c.1.07.18.14.23.13s.09-.13,0-.3a1.08,1.08,0,0,0-.39-.51,1.55,1.55,0,0,0-.61-.25,1.52,1.52,0,0,0-.32,0,2,2,0,0,0-.28.1,2.1,2.1,0,0,0-.51.33C34.42,16.84,34.22,17.19,34.29,17.27Z"/><path class="cls-27" d="M60.62,9.45a4.48,4.48,0,0,0-.78-.81,4.53,4.53,0,0,0-1-.52A2.49,2.49,0,0,0,58.09,8c-.22,0-.35.06-.35.08s.14,0,.34,0a2.73,2.73,0,0,1,.69.22,4.73,4.73,0,0,1,.91.56,4.56,4.56,0,0,1,.79.71c.36.38.61.86.65.86A2.52,2.52,0,0,0,60.62,9.45Zm0,4.36a.28.28,0,0,0,0-.09v0a7.48,7.48,0,0,0-.38-1.58c-.09-.2-.16-.38-.2-.49l-.08-.18h0a7,7,0,0,0-.38-.64,7.67,7.67,0,0,0-1-1.24,4.88,4.88,0,0,0-1.32-.92,1.19,1.19,0,0,0-.72-.13,2.44,2.44,0,0,1,.67.22,5.4,5.4,0,0,1,1.24,1,7.32,7.32,0,0,1,1,1.24,4.65,4.65,0,0,1,.34.62l.1.18c0,.11.12.28.21.47a9.34,9.34,0,0,1,.36,1.18l.06.33a7.52,7.52,0,0,1,.1,1.58,6.9,6.9,0,0,0,0,.72.62.62,0,0,0,.06-.19,3.63,3.63,0,0,0,.09-.52A5.77,5.77,0,0,0,60.61,13.81Zm-3.72-3a2.88,2.88,0,0,0-.26-.58,3,3,0,0,0-.43-.46,1.22,1.22,0,0,0-.54-.32s.22.23.41.45a4.47,4.47,0,0,1,.34.48,3.53,3.53,0,0,1,.3.5,4.2,4.2,0,0,0,.25.55A1.19,1.19,0,0,0,56.89,10.8Zm-2-3.7a3.37,3.37,0,0,0-.2-.53,6.69,6.69,0,0,0-.49-.88,7.28,7.28,0,0,0-.42-.6,10.29,10.29,0,0,0-1.22-1.24c-.37-.3-.63-.48-.63-.48s-.26-.18-.67-.41a11.67,11.67,0,0,0-1.57-.74A14.56,14.56,0,0,0,48,1.69a4,4,0,0,0-.77-.15,6.07,6.07,0,0,0,.74.25c.44.15,1,.36,1.6.61a13.09,13.09,0,0,1,1.51.77c.4.24.65.42.65.42a9.53,9.53,0,0,1,1.85,1.63l.22.27a8,8,0,0,1,.74,1.12c.22.41.34.7.36.7S54.9,7.23,54.85,7.1Zm-1.27.23a2.79,2.79,0,0,0-.46-.52,2.76,2.76,0,0,0-.6-.33,1.27,1.27,0,0,0-.67-.13s.31.13.59.3A3.25,3.25,0,0,1,53,7a3.25,3.25,0,0,1,.48.42c.22.24.37.51.41.51A1.23,1.23,0,0,0,53.58,7.33Zm-1.44,2.88-.44.29-.26.14-.14.08,0,0L51,10.9c-.31.16-.63.32-1,.47a17.26,17.26,0,0,1-2.26.82c-.32.1-.59.15-.77.2l-.3.07-.29.06c-.19,0-.46.1-.78.14a17.57,17.57,0,0,1-2.4.21,16.85,16.85,0,0,1-2.41-.16c-.59-.08-1-.16-1.08-.16a1.48,1.48,0,0,0,.28.09c.19,0,.45.13.78.18a15,15,0,0,0,2.43.24,16,16,0,0,0,2.44-.15c.33,0,.6-.11.79-.13l.3-.06.3-.08c.19-.05.46-.1.78-.21a16.67,16.67,0,0,0,2.27-.89,14.16,14.16,0,0,0,2.07-1.22l0,0c.28-.18.48-.37.64-.49s.22-.18.22-.2S52.67,9.87,52.14,10.21ZM37.84,6.4c-.41.07-1,.15-1.5.19a10.26,10.26,0,0,1-1.49,0,5.79,5.79,0,0,1-.67-.1,5.86,5.86,0,0,1-.66-.15,5.66,5.66,0,0,1-1.35-.59,4.58,4.58,0,0,1-1.12-1l-.23-.31c-.1-.15-.16-.24-.18-.24a1.5,1.5,0,0,0,.07.17s0,0,0,0a2.83,2.83,0,0,0,.24.42,4.5,4.5,0,0,0,1.1,1.07,5.91,5.91,0,0,0,2.07.85s.28,0,.7.08a9,9,0,0,0,1.53,0,13.75,13.75,0,0,0,1.5-.27,3.54,3.54,0,0,0,.66-.2A4.88,4.88,0,0,0,37.84,6.4Zm.24,2.89h-.53c-.38,0-.81,0-1.24,0s-.87-.08-1.25-.14L34.57,9a5.41,5.41,0,0,1-.76-.23,3.81,3.81,0,0,1-.72-.32A4.16,4.16,0,0,1,31.82,7.3,9.34,9.34,0,0,1,31,5.76c-.17-.36-.29-.63-.34-.71a5.31,5.31,0,0,0,.24.75,8,8,0,0,0,.8,1.61A4.08,4.08,0,0,0,33,8.68a3.82,3.82,0,0,0,.75.36,6,6,0,0,0,.8.22l.36.07h0c.43.06.92.1,1.42.12h.53a11.57,11.57,0,0,0,1.26-.06,4.25,4.25,0,0,0,.81-.12A7.5,7.5,0,0,0,38.08,9.29ZM42.8,2.9l-.65.43-.64.46a3.73,3.73,0,0,0-.64.49A2.67,2.67,0,0,0,41.61,4c.35-.19.69-.41.69-.41s.32-.24.62-.5a3.1,3.1,0,0,0,.56-.58A3.16,3.16,0,0,0,42.8,2.9Zm-7,9.66c-.4-.17-.93-.41-1.44-.68-.34-.17-.67-.36-1-.54-.59-.36-1-.66-1-.66a12.63,12.63,0,0,1-1.82-1.4,6.94,6.94,0,0,1-1-1.2c-.24-.34-.37-.6-.39-.6a2.83,2.83,0,0,0,.3.65,6.08,6.08,0,0,0,1,1.28,10.82,10.82,0,0,0,1.21,1.07c.35.27.59.43.59.43s.44.29,1.05.62h0c.3.17.64.34,1,.51a12.2,12.2,0,0,0,1.49.6,4.21,4.21,0,0,0,.69.19A5.37,5.37,0,0,0,35.79,12.56Zm-3.14.73a1.51,1.51,0,0,1-.31,0h0a2.27,2.27,0,0,1-.78-.29,3.2,3.2,0,0,1-.64-.52,3.8,3.8,0,0,1-.25-.29l-.25-.29c-.14-.18-.33-.43-.5-.68-.35-.5-.64-1-.68-1a4.12,4.12,0,0,0,.51,1.15c.16.27.34.54.47.73l.24.32s.11.12.29.28a3,3,0,0,0,.72.52,2.06,2.06,0,0,0,.85.22h0a1,1,0,0,0,.33,0h0l0,0Zm25.76,6.55a17.77,17.77,0,0,1-1.11-1.69,16,16,0,0,1-.86-1.82c-.11-.25-.17-.47-.23-.62v0c0-.14-.07-.22-.07-.22l-.08-.24c0-.15-.13-.37-.2-.63a17.27,17.27,0,0,1-.41-2l-.06-.53a11.75,11.75,0,0,1-.08-1.49c0-.55,0-.92,0-.92a1.08,1.08,0,0,0,0,.25c0,.16,0,.39-.06.67a12.52,12.52,0,0,0,0,1.48v0c0,.17,0,.35,0,.52a13.53,13.53,0,0,0,.26,1.57,2,2,0,0,0,.05.24c0,.07,0,.14,0,.2.06.25.13.46.17.6l0,.05c0,.16.07.25.07.25l.09.24c.06.15.13.37.25.63a15,15,0,0,0,.93,1.82,14.14,14.14,0,0,0,1.19,1.66,6.66,6.66,0,0,0,.45.5c.11.1.17.17.19.17A7.1,7.1,0,0,0,58.41,19.84Zm4.66-5.35a7.66,7.66,0,0,0-.1.83,4.42,4.42,0,0,1-.1.6,7.71,7.71,0,0,1-.44,1.36,7.06,7.06,0,0,1-.65,1.27c-.37.59-.87,1.1-.87,1.15a4.58,4.58,0,0,0,1-1,7.48,7.48,0,0,0,.74-1.27,4.33,4.33,0,0,0,.16-.48,6.38,6.38,0,0,0,.22-.95,4.75,4.75,0,0,0,.07-.81v-.06A1.82,1.82,0,0,0,63.07,14.49ZM59.93,19a2.19,2.19,0,0,0-.13.46,1.72,1.72,0,0,1-.07.21,3.51,3.51,0,0,1-.28.6,4.17,4.17,0,0,1-.35.58l-.07.08c-.19.23-.41.41-.38.44a1.47,1.47,0,0,0,.59-.4l.16-.17a3,3,0,0,0,.29-.4,1.24,1.24,0,0,0,.11-.22h0v0a3.26,3.26,0,0,0,.11-.4A1.44,1.44,0,0,0,59.93,19Zm-.53,4.41-.11-.07h0a3.6,3.6,0,0,1-.57-.47,3.93,3.93,0,0,1-.6-.86h0l-.15-.3c0-.1-.09-.23-.13-.36a1.58,1.58,0,0,1-.09-.31,3.87,3.87,0,0,1-.08-.89.54.54,0,0,0,0-.18,2,2,0,0,0-.11,1v0h0a.22.22,0,0,0,0,.08,2,2,0,0,0,.07.35,2.74,2.74,0,0,0,.11.37,2,2,0,0,0,.13.32l0,0a3.67,3.67,0,0,0,.71.87,3.91,3.91,0,0,0,.65.42h0l.1.05.19.05S59.48,23.45,59.4,23.39ZM31.84,16a1.23,1.23,0,0,1-.37,0h0a.44.44,0,0,1-.15-.05l-.11,0a1.83,1.83,0,0,1-.57-.39,2.51,2.51,0,0,1-.2-.24l0,0A1.65,1.65,0,0,1,30.2,15c-.11-.16-.24-.38-.37-.62s-.25-.47-.32-.64a1.06,1.06,0,0,1-.07-.22h0c0-.05,0-.09,0-.09a.27.27,0,0,0,0,.2h0a.34.34,0,0,0,0,.14,4.63,4.63,0,0,0,.25.7,4.5,4.5,0,0,0,.33.66,2.84,2.84,0,0,0,.2.29,1.56,1.56,0,0,0,.18.19l.06.06a2,2,0,0,0,.67.39.5.5,0,0,0,.13,0,.32.32,0,0,0,.14,0s0,0,0,0a1.36,1.36,0,0,0,.45,0,.56.56,0,0,0,.31-.14S32,16,31.84,16ZM31,17.12s0,0,0,0,0,0,0,0a.07.07,0,0,1-.06,0h0a.93.93,0,0,1-.44,0,1.71,1.71,0,0,1-.27-.09l-.14-.08-.17-.12-.15-.13a2.24,2.24,0,0,1-.3-.35,4.08,4.08,0,0,0-.37-.6,1.6,1.6,0,0,0,.2.69,1.89,1.89,0,0,0,.29.43,1.1,1.1,0,0,0,.17.17,1.23,1.23,0,0,0,.2.13l.23.09.28.05a1.2,1.2,0,0,0,.44-.06l.05,0h0a.27.27,0,0,0,.1-.08.14.14,0,0,1,0-.06v0S31,17.12,31,17.12Z"/><path class="cls-28" d="M62.74,9.5h0a1,1,0,0,0-.08-.11l0,0a4.82,4.82,0,0,0-.36-.43l-.08-.08a.86.86,0,0,0-.13-.14l-.13-.12a3.88,3.88,0,0,0-.31-.26,2,2,0,0,0-.33-.24,5,5,0,0,0-.45-.29l-.4-.2-.23-.11-.51-.2h0c-.23-.08-.46-.14-.7-.2l-.13,0-.59-.11h0c-.25,0-.5-.06-.76-.08s-.52,0-.79,0h-.31a16.85,16.85,0,0,0-1.55-1.93l.09.32c.2.75-.18.77-.76.48l-.35-.2a17.17,17.17,0,0,1-2-1.52l-.36-.31.53.52a0,0,0,0,1,0,0A10.69,10.69,0,0,1,53.2,5.64c.23.36-.3.38-1.07.26h0c-.41-.07-.9-.17-1.37-.29l-.13,0c-.88-.23-1.7-.48-1.95-.55A12,12,0,0,1,52,7.08c1.38,1.19-.42,3.18-1.06,3.82l-.13.13.4-.28,0,0,.14-.08.26-.14a3.27,3.27,0,0,1,.47-.18,1.62,1.62,0,0,1,1.31.07c.72.4-1,1.77-2.41,2.73a19.81,19.81,0,0,0,3-1.7,5,5,0,0,0,.47-.33,6.55,6.55,0,0,0,.53-.39s0,.11,0,.3,0,.22,0,.36,0,.45.08.73v0c0,.11,0,.22,0,.33a3,3,0,0,1,.13-.36,1,1,0,0,1,.4-.49c1-.53,2.08,1.63,2.22,1.91-.06-.28-.44-2.08.16-2.41h0a.14.14,0,0,1,.09,0c.52,0,1.56,1.49,2.09,2.31.12.18.21.33.26.42l0,.07-.06-.16v0c-.14-.42-.46-1.4-.66-2.25h0c-.17-.68-.26-1.27-.12-1.41.36-.36,2,1.44,2,1.44s-1.43-2.52-1-2.81S62.06,9,62.74,9.5Zm-25.91,0,.72-.16h0C38.74,9.07,39.8,9,39.8,9s-3.23-.44-3.72-.88h0C36,8,36,8,36,7.94A5.24,5.24,0,0,1,37.46,7h0l0,0h0c.83-.44,1.79-.9,2.34-1.12l-.44.05h0C38.44,6,37,6,36.57,5.52s.15-1.3.73-2.13A17.44,17.44,0,0,1,35.44,4.9L35.2,5l-.19.1-.18.08-.32.11h0l-.23,0-.22,0-.28,0a8.32,8.32,0,0,1-3-.92l-.1,0-.22-.16a.85.85,0,0,1-.17-.14,5.13,5.13,0,0,0,0,.52,1.41,1.41,0,0,0,0,.2c0,.1,0,.21,0,.33s0,.24.05.37a4.61,4.61,0,0,0,.16.79,2,2,0,0,0,.08.26,2,2,0,0,0,.1.26,1.75,1.75,0,0,0,.11.24,2.6,2.6,0,0,0,.28.45c.06.06.11.13.18.19a.8.8,0,0,0,.17.15l-.15,0s0,0,0,0l-.25-.08-.45-.14-.52-.19-.54-.22-.12-.06-.4-.19a3.7,3.7,0,0,1-.44-.28,10.06,10.06,0,0,0,1.32,5.66s-.07.14-.17.37l.23.21a4.17,4.17,0,0,1,.39,2.32c0,.12,0,.25,0,.38a11.47,11.47,0,0,1-.18,1.53,1.85,1.85,0,0,1,0,.23,2.36,2.36,0,0,1-.32.88.49.49,0,0,1-.39.18c0,.09.06.17.08.25l.1.3c.08.26.15.48.2.68a1,1,0,0,1,0,.14s0,0,0,0,0,0,0,.06h0c0,.06,0,.12,0,.17h0a.06.06,0,0,0,0,0,.83.83,0,0,0,0,.15.5.5,0,0,0,0,.12h0l.1-.25h0s0,0,0,0h0v0l0-.05h0l.2-.51,0-.07a.88.88,0,0,1,.05-.15,1.21,1.21,0,0,1,.05-.18.24.24,0,0,1,0-.08,0,0,0,0,1,0,0s0-.06,0-.09l0-.1v0c0-.08.05-.17.08-.26v0c.09-.3.18-.63.29-1a2.58,2.58,0,0,1,.08-.26.14.14,0,0,1,0-.06v0c0-.1.07-.21.11-.31s.06-.21.1-.32.1-.28.14-.42l.05-.14.15-.41.09-.24,0-.08a12.1,12.1,0,0,1,.78-1.71.82.82,0,0,1,.12-.2l0,0a2.08,2.08,0,0,1,.19-.29l0,0h0l.05,0h0l.15.06.21.09.25.09h0l.25.1.29.1,0,0,.5.17.08,0,.32.1.18.06,1.2.33.52.12.11,0,.53.11,2.06.22s-5.82-3-5.28-4.09C34.65,10.09,35.71,9.72,36.83,9.46Zm26.32,8c-.22,0-.3-.19-.31-.52a7.83,7.83,0,0,1,.29-1.76.2.2,0,0,0,0-.07h0l-.16.23a12.43,12.43,0,0,1-2.5,2.75,1.34,1.34,0,0,1-.7.28h0c-.82,0-2.56-1.64-3.55-2.64v0l-.42-.43a.1.1,0,0,0-.06,0,0,0,0,0,0,0,0c0,.2.08.41.14.62l0,.13c0,.17.09.34.14.51s.06.21.1.32.07.24.12.36a3.94,3.94,0,0,0,.18.48l.06.15.18.42s0,0,0,0l.11.21c.05.1.1.2.16.3l.18.28c.08.12.17.24.26.35a3.47,3.47,0,0,0,.32.34s0,.15-.07.39,0,.24-.06.38,0,.24-.05.37,0,0,0,.06v0h0c0,.15,0,.3,0,.47s0,.28,0,.42,0,.26,0,.39,0,.28,0,.41a5.61,5.61,0,0,0,.06.59,3.05,3.05,0,0,0,.15.56.87.87,0,0,0,.07.17,0,0,0,0,0,0,0,.34.34,0,0,0,.06.12l.07.11a1.26,1.26,0,0,0,.22.24.55.55,0,0,0,.35.15l.12,0h0a.48.48,0,0,0,.11-.09l.12-.14s0,0,0,0a0,0,0,0,1,0,0s0,0,0-.05a.8.8,0,0,0,.08-.16l.09-.2c.06-.14.12-.3.18-.47a.36.36,0,0,1,0-.09.08.08,0,0,1,0-.05s0,0,0,0l0-.08c.06-.16.12-.32.19-.49a5.24,5.24,0,0,1,.23-.48c.06-.11.12-.22.19-.33a1.37,1.37,0,0,1,.13-.2s0,0,0,0l.18-.23a1.21,1.21,0,0,1,.16-.16l.12-.11.18-.14.15-.1s0,0,0,0a0,0,0,0,0,0,0h0l.13-.07.13-.09h0l.07-.06a5.9,5.9,0,0,0,.76-.67,6.83,6.83,0,0,0,.53-.61,9.24,9.24,0,0,0,.54-.8,9,9,0,0,0,.48-1c.07-.18.14-.37.2-.57s.11-.4.16-.61.08-.44.12-.68.05-.48.06-.73C64,16,63.6,17.37,63.15,17.43Z"/><g class="cls-29"><path class="cls-25" d="M62.33,9.74c.8,1,1.79,2.53,1.42,3.88a.24.24,0,0,1-.44.06A10.63,10.63,0,0,1,62.67,12a8.53,8.53,0,0,0-1-1.82c-.24-.36.33-.81.61-.47Z"/><path class="cls-25" d="M61.62,11.63a2.53,2.53,0,0,1,1.12,1.74c.11.64.06,1.75-.74,1.93-1.44.33-1.35-2.53-1.18-3.34a.55.55,0,0,1,.8-.33Z"/><path class="cls-25" d="M58.92,12.16c.5.23.82,1.09.95,1.6a3.84,3.84,0,0,1-.15,2.15.2.2,0,0,1-.39,0c-.15-.65-.34-1.29-.43-1.95a4.47,4.47,0,0,1-.16-1.73.12.12,0,0,1,.18-.07Z"/><path class="cls-25" d="M56.8,12.72a2.11,2.11,0,0,0,0,.32c0,.19,0,.37,0,.56a3.78,3.78,0,0,1-.09,1,.22.22,0,0,1-.4,0,8.45,8.45,0,0,1-.62-1.9L56,13,55.92,13a.66.66,0,0,1,.15-1.19c.5-.14,1.08.48.73,1Z"/><path class="cls-25" d="M51.58,5.7c-1.11,0-2.09-.62-3.12-1a10.72,10.72,0,0,0-3.6-.44.57.57,0,0,1-.4-1C46.32,1.27,51,2.2,52.23,4.57a.76.76,0,0,1-.65,1.13Z"/><path class="cls-25" d="M42.59,1.82a6.11,6.11,0,0,0-1,.63,4.21,4.21,0,0,1-.93.6c-.26.09-.41-.21-.32-.41.33-.78,1.42-1,2.17-1a.08.08,0,0,1,0,.15Z"/><path class="cls-25" d="M52,11.53c-2,2-5.67,3-8.47,3.07-.2,0-.26-.32-.05-.35a24.65,24.65,0,0,0,4.07-1c1.48-.55,2.79-1.41,4.23-2,.18-.07.38.13.22.29Z"/><path class="cls-25" d="M51.65,9.15c-2.49,2.92-9.66,3.78-12.9,1.95a.41.41,0,0,1,.1-.74C41,10,43.21,10.3,45.4,9.91c2-.37,3.88-1.44,5.88-1.65.49-.06.63.59.37.89Z"/><path class="cls-25" d="M36.73,11a1.74,1.74,0,0,0-.5-.08.81.81,0,0,1-.51-.07.3.3,0,0,1-.06-.45c.32-.31.93-.06,1.27.12a.26.26,0,0,1-.2.48Z"/><path class="cls-25" d="M46.69,6.87a6.14,6.14,0,0,1-1.49.18,15.54,15.54,0,0,0-2.51.6,6.91,6.91,0,0,1-3.83.41.6.6,0,0,1-.35-.87c1-1.54,2.94-1.82,4.65-2C44.4,5,46.61,4.71,47,6.32a.46.46,0,0,1-.31.55Z"/><path class="cls-25" d="M37.59,7.89a1.31,1.31,0,0,1-.47.16A2.26,2.26,0,0,1,36.68,8c-.17,0-.16-.25,0-.33A2.06,2.06,0,0,1,37,7.41a1.07,1.07,0,0,1,.44,0c.26,0,.41.41.15.53Z"/></g><path class="cls-5" d="M47.66,40.72l-.1,0c.21.06-.41,1.64-.53,1.84a4.57,4.57,0,0,1-1.29,1.34,4.37,4.37,0,0,1-3.56.78,3.55,3.55,0,0,1-2-1.25,4,4,0,0,1-.58-2.72,12.88,12.88,0,0,0-2.41,4c-.44,1.31.16,5.21,2.14,4.23,1-.5,2-2.43,2.71-3.44,0,0,2.39,4.23,3.19,4.32,1.49.16,2.8-2,3.33-3.07.85-1.8,1-4.08-.48-5.6A1.93,1.93,0,0,0,47.66,40.72Z"/><path class="cls-2" d="M47.8,39.93a.31.31,0,0,0-.1,0c.22.07-.41,1.65-.53,1.85a4.57,4.57,0,0,1-1.29,1.34,4.34,4.34,0,0,1-3.55.77,3.45,3.45,0,0,1-2-1.24,4,4,0,0,1-.58-2.72,12.69,12.69,0,0,0-2.41,4c-.44,1.3.15,5.2,2.14,4.23,1-.5,2-2.43,2.71-3.45,0,0,2.38,4.24,3.18,4.33,1.5.16,2.81-2,3.33-3.07.86-1.81,1-4.08-.47-5.6A1.76,1.76,0,0,0,47.8,39.93Z"/><path class="cls-5" d="M45.4,47.76c2.55-.57,1.69-4.7,1.69-4.7s-1.27,2.39-4.9,1.27-2.57-3.84-2.46-4.45a4,4,0,0,0,.58,2.72,3.45,3.45,0,0,0,2,1.24,4.34,4.34,0,0,0,3.55-.77,4.57,4.57,0,0,0,1.29-1.34c.12-.2.75-1.78.53-1.85a.31.31,0,0,1,.1,0,1.76,1.76,0,0,1,.41.35c1.52,1.52,1.33,3.79.47,5.6C48.16,47,46.85,49.11,45.35,49c-.28,0-.77-.6-1.28-1.31A2.08,2.08,0,0,0,45.4,47.76Z"/><path class="cls-5" d="M42.17,44.62c-.75,1-1.7,3-2.71,3.45-1.69.83-2.37-1.87-2.27-3.5a6.58,6.58,0,0,0,1.1,2.71C39.36,48.38,42.17,44.62,42.17,44.62Z"/><path class="cls-26" d="M38.19,30.45a8.47,8.47,0,0,1,6.18.73S45,34,41.1,33.73,38.19,30.45,38.19,30.45Z"/><path class="cls-2" d="M41.17,31.76a4.72,4.72,0,0,0,3.2-.66,9.24,9.24,0,0,0-5.78-.79C38.54,30.61,38.57,31.56,41.17,31.76Z"/><path class="cls-30" d="M44.1,32.73A5.76,5.76,0,0,0,42,32.36a4.09,4.09,0,0,0-2.81.81,4.28,4.28,0,0,0,2,.56C42.88,33.87,43.71,33.34,44.1,32.73Z"/><path class="cls-5" d="M44.37,31.1a9.24,9.24,0,0,0-5.78-.79.79.79,0,0,0,.18.64c0-.31.28-.77,2-.65,2,.15,2.42.91,2.22,1.37A3.6,3.6,0,0,0,44.37,31.1Z"/><path class="cls-31" d="M41.55,33.21c-1.53,0-1.68-.29-1.59-.54a2.17,2.17,0,0,0-.82.5,4.28,4.28,0,0,0,2,.56c1.78.14,2.61-.39,3-1a5.42,5.42,0,0,0-1.22-.31C43.28,32.75,43.24,33.19,41.55,33.21Z"/><path class="cls-17" d="M45.26,31.29a19.81,19.81,0,0,1-1.92-.59,9.16,9.16,0,0,0-1.92-.38,10.54,10.54,0,0,0-2-.05c-1,.06-2,.24-2,.17a7.28,7.28,0,0,1,2-.5,9.66,9.66,0,0,1,2-.09s.26,0,.64.11a10,10,0,0,1,1.34.42A8.1,8.1,0,0,1,45.26,31.29Z"/><path class="cls-17" d="M41,35.62c0,.07-.27.12-.53,0a1,1,0,0,1-.4-.39,1,1,0,0,1,0-.57c.08-.28.3-.44.35-.39s-.05.24,0,.44a.69.69,0,0,0,.11.33.64.64,0,0,0,.17.31C40.83,35.48,41,35.56,41,35.62Z"/><path class="cls-11" d="M20.29,61.71c-.35,1.53-2.18,2.3-4.09,1.71S13,61.11,13.37,59.58s2.19-2.3,4.1-1.71S20.64,60.18,20.29,61.71Z"/><path class="cls-12" d="M20.29,61.71c-.35,1.53-2.18,2.3-4.09,1.71S13,61.11,13.37,59.58s2.19-2.3,4.1-1.71S20.64,60.18,20.29,61.71Z"/><path class="cls-12" d="M16.77,61.35A4,4,0,0,1,14,58.53a2.26,2.26,0,0,0-.58,1c-.35,1.53.92,3.25,2.83,3.84s3.74-.18,4.09-1.71a2.34,2.34,0,0,0,0-1A3.48,3.48,0,0,1,16.77,61.35Z"/><path class="cls-11" d="M11.77,68.1a.77.77,0,0,1-.67-.69C10.53,64.72,9.75,60,11,58.74s3.63,0,4.1.23a1.15,1.15,0,0,1,.37,1.28c-.15.49-.56.73-.91.52-.86-.5-2.28-.94-2.73-.47-.27.52,0,3.66.63,6.55A1.07,1.07,0,0,1,12,68.06.43.43,0,0,1,11.77,68.1Z"/><path class="cls-32" d="M15.07,59a7.82,7.82,0,0,0-.77-.38c.29.33.5.69.4.95-.26.66-2.1-.3-2.8-.22s-.57,4.28-1,4.8c-.13.19-.31-.11-.48-.55.15,1.37.41,2.76.64,3.84a.77.77,0,0,0,.67.69.43.43,0,0,0,.19,0,1.07,1.07,0,0,0,.47-1.21c-.61-2.89-.9-6-.63-6.55.45-.47,1.87,0,2.73.47.35.21.76,0,.91-.52A1.15,1.15,0,0,0,15.07,59Z"/><path class="cls-11" d="M28.37,61.71c-.35,1.53-2.19,2.3-4.1,1.71s-3.17-2.31-2.82-3.84,2.18-2.3,4.09-1.71S28.72,60.18,28.37,61.71Z"/><path class="cls-12" d="M28.37,61.71c-.35,1.53-2.19,2.3-4.1,1.71s-3.17-2.31-2.82-3.84,2.18-2.3,4.09-1.71S28.72,60.18,28.37,61.71Z"/><path class="cls-12" d="M24.85,61.35A4,4,0,0,1,22,58.53a2.18,2.18,0,0,0-.58,1c-.35,1.53.91,3.25,2.82,3.84s3.75-.18,4.1-1.71a2.51,2.51,0,0,0,0-1A3.45,3.45,0,0,1,24.85,61.35Z"/><path class="cls-11" d="M19.84,68.1a.77.77,0,0,1-.67-.69c-.57-2.69-1.34-7.39-.12-8.67s3.63,0,4.09.23a1.14,1.14,0,0,1,.37,1.28c-.15.49-.55.73-.91.52-.85-.5-2.27-.94-2.72-.47-.28.52,0,3.66.63,6.55A1.07,1.07,0,0,1,20,68.06.48.48,0,0,1,19.84,68.1Z"/><path class="cls-32" d="M23.14,59a7.34,7.34,0,0,0-.76-.38c.29.33.49.69.39.95-.25.66-2.1-.3-2.8-.22s-.57,4.28-.95,4.8c-.14.19-.31-.11-.49-.55.16,1.37.42,2.76.64,3.84a.77.77,0,0,0,.67.69.48.48,0,0,0,.2,0,1.07,1.07,0,0,0,.47-1.21c-.62-2.89-.91-6-.63-6.55.45-.47,1.87,0,2.72.47.36.21.76,0,.91-.52A1.14,1.14,0,0,0,23.14,59Z"/><path class="cls-11" d="M36.44,61.71c-.35,1.53-2.18,2.3-4.09,1.71s-3.18-2.31-2.83-3.84,2.19-2.3,4.1-1.71S36.79,60.18,36.44,61.71Z"/><path class="cls-12" d="M36.44,61.71c-.35,1.53-2.18,2.3-4.09,1.71s-3.18-2.31-2.83-3.84,2.19-2.3,4.1-1.71S36.79,60.18,36.44,61.71Z"/><path class="cls-12" d="M32.92,61.35a4,4,0,0,1-2.82-2.82,2.26,2.26,0,0,0-.58,1c-.35,1.53.92,3.25,2.83,3.84s3.74-.18,4.09-1.71a2.34,2.34,0,0,0,0-1A3.48,3.48,0,0,1,32.92,61.35Z"/><path class="cls-11" d="M27.92,68.1a.77.77,0,0,1-.67-.69c-.57-2.69-1.35-7.39-.13-8.67s3.63,0,4.1.23a1.15,1.15,0,0,1,.37,1.28c-.15.49-.56.73-.91.52-.86-.5-2.28-.94-2.73-.47-.27.52,0,3.66.63,6.55a1.07,1.07,0,0,1-.47,1.21A.43.43,0,0,1,27.92,68.1Z"/><path class="cls-32" d="M31.22,59a7.82,7.82,0,0,0-.77-.38c.29.33.5.69.4.95-.26.66-2.1-.3-2.8-.22s-.57,4.28-1,4.8c-.13.19-.31-.11-.48-.55.15,1.37.41,2.76.64,3.84a.77.77,0,0,0,.67.69.43.43,0,0,0,.19,0,1.07,1.07,0,0,0,.47-1.21c-.61-2.89-.9-6-.63-6.55.45-.47,1.87,0,2.73.47.35.21.76,0,.91-.52A1.15,1.15,0,0,0,31.22,59Z"/><polygon class="cls-11" points="42.54 68.77 42.53 69.36 42.52 69.55 42.47 71.45 42.45 72.45 42.27 79.92 42.22 81.88 42.22 81.9 42.19 82.99 42.16 84.38 3.22 84.38 3.07 78.33 2.93 72.45 2.91 71.45 2.85 69.36 2.84 68.77 42.54 68.77"/><polygon class="cls-33" points="42.54 68.77 42.53 69.36 42.52 69.55 42.47 71.45 42.45 72.45 42.27 79.92 42.22 81.88 42.22 81.9 42.19 82.99 42.16 84.38 30.13 84.38 30.13 68.77 42.54 68.77"/><polygon class="cls-34" points="8.09 84.38 3.22 84.38 3.07 78.33 8.09 84.38"/><path class="cls-33" d="M31.42,84.38H30.13V68.94l0,0,0,.05.34.35.19.2c0,.07,0,.73.07,1.89,0,.3,0,.63,0,1s0,.86.07,1.35a.06.06,0,0,0,0,.06,1.62,1.62,0,0,0,0,.22v0C31,76.68,31.18,80.21,31.42,84.38Z"/><polygon class="cls-33" points="42.45 72.45 2.93 72.45 2.84 68.77 42.54 68.77 42.45 72.45"/><rect class="cls-11" y="66.98" width="45.37" height="4.48"/><rect class="cls-33" y="69.36" width="45.37" height="2.09"/><path class="cls-15" d="M39.18,63.28A6.07,6.07,0,0,1,35.7,61s-2,1-2.71-.77-.43-2.88.83-3.51c0,0,0-1.46,1.18-1.62a1.8,1.8,0,0,1,1.58-1.67s-4.78-4.55-4.08-5.15,4.19,2.56,6.4,4.51,4.69,5.79,4.76,7S39.18,63.28,39.18,63.28Z"/><path class="cls-17" d="M35.13,59.85a2.32,2.32,0,0,1,.59.84,1.92,1.92,0,0,1,.14.4s-.46-.46-1-1-1-.92-1-.92a2.52,2.52,0,0,1,.41.1A2.57,2.57,0,0,1,35.13,59.85Z"/><path class="cls-17" d="M34.26,59.88a.65.65,0,0,1,.46,0,.66.66,0,0,1-.28.36.62.62,0,0,1-.46,0A.62.62,0,0,1,34.26,59.88Z"/><path class="cls-17" d="M34.33,56.61a.81.81,0,0,1,.6.54l-.22,0-.46-.1-.46-.1-.22,0A.77.77,0,0,1,34.33,56.61Z"/><path class="cls-17" d="M35.81,54.91a1,1,0,0,1,.69.67l-.25-.11c-.15-.06-.34-.12-.54-.18s-.4-.1-.56-.12l-.27,0A.94.94,0,0,1,35.81,54.91Z"/><path class="cls-17" d="M37.32,53.48a3,3,0,0,1,.78.72,3.06,3.06,0,0,1-1-.37,2.72,2.72,0,0,0-.59-.3.49.49,0,0,0-.28,0,.42.42,0,0,1,.28-.19A1.12,1.12,0,0,1,37.32,53.48Z"/><g class="cls-35"><path class="cls-36" d="M41.33,58.81c-1.18,2-4.42,1.57-6.18.52a6.15,6.15,0,0,1-2.07-2.06c-.59.67-.6,1.63-.09,3C33.67,62,35.7,61,35.7,61a6.07,6.07,0,0,0,3.48,2.28S43.73,61,43.66,59.8c-.06-.93-1.51-3.37-3.17-5.35C41.34,56.27,41.81,58,41.33,58.81Z"/><path class="cls-36" d="M37.86,53.85s-3.57-3.76-5.09-5.63a.38.38,0,0,0-.27.06c-.7.6,4.08,5.15,4.08,5.15l-.11,0C37.12,53.62,37.86,53.85,37.86,53.85Z"/></g><path class="cls-2" d="M57.74,45.12s2.59-3.63,6.3,4.47c3.11,6.8,2.73,27.52-3,31.64S38.27,64.77,38.27,64.77s.2-4.07,6.21-5.92L57.34,72.29C58.66,72.88,53.58,52.89,57.74,45.12Z"/><g class="cls-3"><path class="cls-4" d="M58.41,74.07a5.89,5.89,0,0,1,.08,2.23,12,12,0,0,0-.29-2.18,4.11,4.11,0,0,0-.54-1.43,1.75,1.75,0,0,0-.44-.46,1.37,1.37,0,0,1,.53.39A3.26,3.26,0,0,1,58.41,74.07Z"/><path class="cls-4" d="M58.86,73.61a4.07,4.07,0,0,1,.46,1.61,10.43,10.43,0,0,0-.65-1.5,2.67,2.67,0,0,0-.66-.91.71.71,0,0,0-.44-.15.7.7,0,0,1,.49.06A2,2,0,0,1,58.86,73.61Z"/></g><path class="cls-5" d="M64,49.59c-3.71-8.1-6.3-4.47-6.3-4.47a8.58,8.58,0,0,0-.42.92,4.76,4.76,0,0,1,2.21.49c4.47,2,5.75,24.1,2.71,25.74-1.89,1-3.79-1.56-5-3.66.3,2.37.44,3.85.06,3.68l-1.69-1.77c.41,1.58,1.28,4.83-.11,5.8C53.74,77.56,47,72.11,43.26,67c-2.7-3.69-.48-6.59.9-8-5.68,1.9-5.89,5.81-5.89,5.81S55.31,85.35,61,81.23,67.15,56.39,64,49.59Z"/></g></g></g></svg>