<svg xmlns="http://www.w3.org/2000/svg" viewBox="0 0 64.79 83.32"><defs><style>.cls-1{isolation:isolate;}.cls-2{fill:#f15e6b;}.cls-3,.cls-32,.cls-4{fill:#d65666;}.cls-10,.cls-14,.cls-15,.cls-17,.cls-20,.cls-22,.cls-28,.cls-3,.cls-31,.cls-34,.cls-4,.cls-5,.cls-8{mix-blend-mode:multiply;}.cls-17,.cls-20,.cls-4{opacity:0.45;}.cls-6{fill:#e27975;}.cls-7{fill:#fff;}.cls-10,.cls-23,.cls-28,.cls-8{opacity:0.5;}.cls-10,.cls-15,.cls-9{fill:#d3dbfd;}.cls-11,.cls-12{fill:#294168;}.cls-11{opacity:0.6;}.cls-11,.cls-18,.cls-23,.cls-24,.cls-25,.cls-27,.cls-29{mix-blend-mode:screen;}.cls-13,.cls-14{fill:#88ac76;}.cls-14{opacity:0.34;}.cls-16,.cls-17,.cls-18,.cls-31{fill:#3c1d91;}.cls-19,.cls-20,.cls-22,.cls-24{fill:#ebd0a6;}.cls-21{fill:#de9168;}.cls-22{opacity:0.62;}.cls-25{fill:#f8e9d0;}.cls-26,.cls-27,.cls-28{fill:#a95913;}.cls-29{opacity:0.35;}.cls-30{fill:#6f3a1e;}.cls-33,.cls-34{fill:#f2cb55;}</style></defs><title>supermanРесурс 15</title><g class="cls-1"><g id="Слой_2" data-name="Слой 2"><g id="OBJECTS"><path class="cls-2" d="M64.79,83.05H10.07a50.7,50.7,0,0,1,0-5.37c0-.22,0-.43.05-.65s0-.66.08-1a73.16,73.16,0,0,1,1.36-8.86h0c.23-1.09.48-2.16.75-3.22a93.32,93.32,0,0,1,3.48-10.88h0l0,0c.27-.68.53-1.3.79-1.92a0,0,0,0,0,0,0c.06-.15.12-.3.19-.45h0c.58-1.35,1.15-2.53,1.69-3.54h0a1.3,1.3,0,0,1,.08-.17l.28-.52a2.53,2.53,0,0,0,.13-.22q.3-.53.57-1l.34-.51a5.56,5.56,0,0,1,.76-.9h0l.22-.18.08,0,.29-.15.4-.15c.25-.08.54-.16.86-.24l.51-.11.69-.13c.53-.09,1.11-.18,1.74-.26l.34,0,.36,0,1-.1h.11l.43,0h0l1.45-.11h.07l1.05-.07.58,0L32,42l.82,0h0l1.76,0h2.17c1.11,0,2.17.05,3.14.12H40c.64,0,1.24.11,1.78.18h0l.21,0h.07a5.78,5.78,0,0,1,2.55.77h0a.28.28,0,0,1,.09.07s0,.08.1.23l.33.74c.21.48.5,1.12.86,1.91l.13.28c.06.15.14.31.21.48l.23.5a2.53,2.53,0,0,0,.14.29,3,3,0,0,0,.19.41.16.16,0,0,0,0,.09c.1.23.21.46.32.7L49,52.43c.25.55.52,1.12.8,1.7,1.11,2.37,2.36,5,3.7,7.72l.78,1.59c.54,1.1,1.1,2.22,1.66,3.33l1.17,2.3.08.15.49,1a1.71,1.71,0,0,1,.12.23c1.36,2.61,2.73,5.18,4.1,7.6h0C62.85,79.8,63.83,81.49,64.79,83.05Z"/><path class="cls-3" d="M57.54,83.05H10.07a50.7,50.7,0,0,1,0-5.37c0-.22,0-.43.05-.65s0-.66.08-1a73.16,73.16,0,0,1,1.36-8.86h0c.23-1.09.48-2.16.75-3.22a93.32,93.32,0,0,1,3.48-10.88h0l0,0c.27-.68.53-1.3.79-1.92a0,0,0,0,0,0,0c.06-.15.12-.3.19-.45h0c.58-1.35,1.15-2.53,1.69-3.54h0a1.3,1.3,0,0,1,.08-.17l.28-.52a2.53,2.53,0,0,0,.13-.22q.3-.53.57-1l.34-.51a5.56,5.56,0,0,1,.76-.9h0l.22-.18.08,0,.29-.15.4-.15c.25-.08.54-.16.86-.24l.51-.11.69-.13c.53-.09,1.11-.18,1.74-.26l.34,0,.36,0,1-.1h.11l.44,0h0l1.44-.12h.07l1.05-.07.58,0L32,42l.82,0h0l1.76,0h.14l.09.06.27.18a18.56,18.56,0,0,1,1.64,1.15l.18.15c.64.5,1.25,1,1.83,1.58l.44.42.29.3.45.44.19.2.73.8.3.35.59.69.2.25.14.18c.35.44.68.88,1,1.29s.72,1,1,1.48l.19.29.09.13s0,0,0,0,.07.12.11.17h0l0,.06h0l.1.16c.16.26.29.49.4.69,0,0,0,.1.09.16v0c.08.16.16.35.25.57a.3.3,0,0,0,0,.08.1.1,0,0,1,0,0c.06.14.12.3.18.47v0a.09.09,0,0,1,0,.07l.15.38s0,0,0,0v0l0,.06c.17.46.36,1,.56,1.55,0,.11.08.23.11.34v0h0s0,0,0,0l1.35,3.78c.14.36.27.73.41,1.11l.54,1.47.06.16c.37,1,.77,2,1.19,3.09.09.24.19.48.29.72l.19.48.3.76c.8,2,1.69,4.08,2.68,6.26h0l.3.66.15.34c.08.18.16.35.25.53s.16.36.25.54c.52,1.13,1.08,2.29,1.67,3.45,0,0,0,.1.08.16.26.53.53,1.06.8,1.59Z"/><path class="cls-4" d="M57.54,83.05H30.27s0,0,0,0c-.16-.33-.31-.64-.46-.93h0l-.18-.35q-.44-.87-.84-1.53a4.3,4.3,0,0,0-1.51-1.78l-.06,0a.56.56,0,0,0-.61.19,2.11,2.11,0,0,0-.36.86v0a15.44,15.44,0,0,0-.16,3.44.57.57,0,0,0,0,.13H14.84c-.06-.35-.12-.68-.18-1-.62-3.36-1.18-5.59-1.61-5.78S12.33,77,12,78.64c-.07.31-.13.64-.2,1h0l-.12.69c-.14.82-.27,1.73-.41,2.7H10.07a50.7,50.7,0,0,1,0-5.37c0-.22,0-.43.05-.65s0-.66.08-1a73.16,73.16,0,0,1,1.36-8.86h0c.23-1.09.48-2.16.75-3.22a93.32,93.32,0,0,1,3.48-10.88h0l0,0c.27-.68.53-1.3.79-1.92a0,0,0,0,0,0,0c.06-.15.12-.3.19-.45h0c.58-1.35,1.15-2.53,1.69-3.54h0a1.3,1.3,0,0,1,.08-.17l.28-.52a2.53,2.53,0,0,0,.13-.22q.3-.53.57-1l.34-.51a5.56,5.56,0,0,1,.76-.9h0l.22-.18.08,0,.29-.15.4-.15c.25-.08.54-.16.86-.24l.51-.11.69-.13c.53-.09,1.11-.18,1.74-.26l.34,0,.36,0,1-.1h.11l.44,0h0l1.44-.12h.07l1.05-.07.58,0L32,42l.82,0h0l1.76,0h.14l.09.06.27.18a18.56,18.56,0,0,1,1.64,1.15l.18.15c.64.5,1.25,1,1.83,1.58l.44.42.29.3.45.44.19.2.73.8.3.35.59.69.2.25.14.18c.35.44.68.88,1,1.29s.72,1,1,1.48l.19.29.09.13s0,0,0,0,.07.12.11.17h0l0,.06h0l.1.16c.16.26.29.49.4.69,0,0,0,.1.09.16v0c.08.16.16.35.25.57a.3.3,0,0,0,0,.08.1.1,0,0,1,0,0c.06.14.12.3.18.47v0a.09.09,0,0,1,0,.07l.15.38s0,0,0,0v0l0,.06c.17.46.36,1,.56,1.55,0,.11.08.23.11.34v0h0s0,0,0,0l1.35,3.78c.14.36.27.73.41,1.11l.54,1.47.06.16c.37,1,.77,2,1.19,3.09.09.24.19.48.29.72l.19.48.3.76c.8,2,1.69,4.08,2.68,6.26h0l.3.66.15.34c.08.18.16.35.25.53s.16.36.25.54c.52,1.13,1.08,2.29,1.67,3.45,0,0,0,.1.08.16.26.53.53,1.06.8,1.59Z"/><g class="cls-5"><path class="cls-6" d="M45.44,83.05h-.33c-.51-1.24-1-2.4-1.43-3.43l-.94-2.27h0s0,0,0,0c-.16-.4-.31-.75-.43-1.06l-.38-1a2.54,2.54,0,0,1-.11-.34s.07.11.17.32l.44.93.35.78h0l0,.06,1.11,2.5Z"/></g><g class="cls-5"><path class="cls-6" d="M16.51,83.05H16l-.06-2a50.62,50.62,0,0,1,.63-10.51,18.93,18.93,0,0,1,.9-3.15l0-.06s0-.09.05-.13c.16-.39.3-.69.4-.88a1.91,1.91,0,0,1,.17-.29c0,.06-.19.48-.45,1.22,0,.11-.08.24-.13.37a.25.25,0,0,1,0,.07,20.68,20.68,0,0,0-.71,2.89A52.71,52.71,0,0,0,16.42,81C16.44,81.71,16.48,82.39,16.51,83.05Z"/></g><g class="cls-5"><path class="cls-6" d="M49.55,83.05h-.34c0-.33-.08-.68-.12-1,0-.2-.05-.4-.08-.6s-.07-.57-.11-.85,0-.34-.07-.51c-.4-2.76-.94-5.33-.94-5.33s-.52-2.92-1.25-5.79c-.36-1.44-.76-2.87-1.07-3.94-.06-.2-.11-.39-.16-.56h0a0,0,0,0,1,0,0l0-.11h0a4.34,4.34,0,0,1-.27-1.09,3.53,3.53,0,0,1,.35.79,1,1,0,0,1,0,.1h0c.09.23.2.51.31.81.38,1,.84,2.47,1.26,3.9.84,2.86,1.44,5.79,1.44,5.79s.44,2.38.73,5c0,.29.07.58.1.88s0,.33,0,.49,0,.43.06.65C49.49,82.13,49.52,82.6,49.55,83.05Z"/></g><path class="cls-4" d="M64.79,83.05H57.55L57,82c-.27-.53-.54-1.06-.8-1.59,0-.06-.06-.11-.08-.16C55.55,79.11,55,78,54.46,76.82c-.09-.18-.17-.36-.25-.54L54,75.74l-.16-.33-.3-.66h0c-1-2.18-1.88-4.29-2.68-6.26l-.3-.76-.19-.48c-.1-.24-.2-.48-.29-.72-.42-1.08-.82-2.11-1.19-3.09a1.42,1.42,0,0,0,0-.16h0l-.54-1.47c-.14-.38-.27-.75-.41-1.11L46.5,56.91v0h0c0-.13-.08-.24-.12-.36-.2-.57-.39-1.09-.56-1.55l0-.08s0,0,0,0l-.15-.38a.09.09,0,0,0,0-.07v0c-.06-.17-.12-.33-.18-.47a.1.1,0,0,0,0,0,.3.3,0,0,1,0-.08c-.09-.22-.17-.41-.25-.57v0c0-.06-.06-.11-.09-.16-.11-.2-.24-.43-.4-.69l-.1-.16h0l0-.06h0s-.07-.11-.11-.17,0,0,0,0l-.09-.13-.19-.29c-.29-.45-.63-.95-1-1.48a3.14,3.14,0,0,1,2.23-1.08,6.21,6.21,0,0,1,.64-.08l.42,0h.38a.06.06,0,0,1,.06,0h.49L49,52.43c.25.55.52,1.12.8,1.7,1.11,2.37,2.36,5,3.7,7.72.25.53.51,1,.78,1.59.54,1.1,1.1,2.22,1.66,3.33l1.17,2.3.07.15h0l.49,1a1.71,1.71,0,0,1,.12.23c1.36,2.61,2.73,5.18,4.1,7.6h0C62.85,79.8,63.83,81.49,64.79,83.05Z"/><path class="cls-7" d="M20.78,52.55v.16c0,.23,0,.46,0,.68v0c0,.21,0,.42,0,.62a.61.61,0,0,0,0,.14h0c0,.2,0,.39-.07.59,0,0,0,0,0,.05,0,.18-.05.36-.08.52a.52.52,0,0,0,0,.11c0,.18-.07.35-.11.51s0,0,0,0-.08.31-.11.45a.14.14,0,0,0,0,.06c0,.15-.09.29-.13.42l0,0a6.81,6.81,0,0,1-.41,1.06l-.06.06s0,0,0,0,0,0,0,0l-.05,0,0,0-.08.08-.1.11-.05,0,0,0-.15.16-.06.06-.09.09-.11.12L18.8,59c-.1.09-.2.2-.3.31l-.31.32,0,0L17,60.93h0l-.17.17,0,0a.08.08,0,0,1,0,0h0l0,0h0l-.17.17c-.6.65-1.24,1.37-1.9,2.11l-.05.05-.43.5-.09.1-.39.45-.12.14-.4.48a.28.28,0,0,0-.09.1l-.34.41-.14.16-.32.39-.15.19-.29.37-.16.2-.08.1h0l-.19.24-.16.2L11,68l-.15.2-.24.33-.15.2-.21.31-.14.2-.19.29-.13.2L9.61,70l-.12.19-.15.26-.1.18c0,.09-.09.17-.13.26A1.09,1.09,0,0,1,9,71l-.11.27a.61.61,0,0,1-.05.12,2.91,2.91,0,0,0-.12.35,1.43,1.43,0,0,0,0,.22,2.17,2.17,0,0,0,0,.51,0,0,0,0,1,0,0c0,.08,0,.16,0,.25a.43.43,0,0,1,0,0,2.57,2.57,0,0,0,.11.44,8.52,8.52,0,0,0,.59,1.43c.22.43.48.89.77,1.37.5.83,1.11,1.7,1.76,2.59.84,1.14,1.76,2.3,2.67,3.4l.86,1H4.26l-.39-.56c-.19-.27-.37-.55-.55-.82s-.19-.29-.28-.43l-.3-.48c-.15-.25-.3-.5-.44-.75L2,79.55c-.25-.46-.48-.91-.69-1.36-.05-.1-.09-.21-.14-.31s-.09-.21-.13-.31-.21-.5-.3-.75a1.8,1.8,0,0,1-.08-.21c-.15-.42-.27-.83-.38-1.23,0-.1,0-.2-.07-.3s-.09-.4-.12-.6a4.44,4.44,0,0,1-.08-.61,6.24,6.24,0,0,1,0-1.36,2.6,2.6,0,0,1,0-.26,2.7,2.7,0,0,1,0-.28l0-.18a.5.5,0,0,1,0-.12.94.94,0,0,0,0-.16c0-.1.05-.21.08-.32a.57.57,0,0,1,0-.14c0-.16.09-.32.14-.48v0c0-.16.1-.32.16-.48l.06-.17.14-.36c0-.06,0-.12.08-.19s.1-.25.16-.38a1.22,1.22,0,0,1,.07-.17c.08-.18.16-.37.25-.56l0-.06.21-.44c0-.09.08-.18.13-.27l.2-.41.11-.21a1.09,1.09,0,0,1,.08-.15l.28-.53c.09-.18.19-.37.3-.56l0-.07.13-.23L3.07,65a2.12,2.12,0,0,1,.11-.21l.26-.44.13-.23.28-.46L4,63.44l.08-.13c.21-.36.44-.72.67-1.09l.06-.1.14-.22.29-.47.15-.22c.1-.17.21-.34.32-.5l.12-.18.44-.67.06-.08c.1-.16.21-.32.32-.48L6.84,59l.32-.48.15-.21.35-.52.11-.15c.16-.23.32-.45.47-.68l0-.07.42-.59.14-.19.34-.48.14-.2.37-.51.1-.14c.16-.22.32-.43.47-.65l0,0,.43-.6.12-.16c.12-.16.24-.31.35-.47l.13-.17.37-.5a.86.86,0,0,0,.07-.1l.43-.56,0,0h0c1.67-2.22,3.15-4.1,4.13-5.32l1.24-1.53.08.1a15.34,15.34,0,0,1,1.19,1.68l.1.17a7.31,7.31,0,0,1,.42.77h0A11.31,11.31,0,0,1,20,48.65a2.79,2.79,0,0,1,.14.37s0,0,0,0c.06.18.12.36.17.53a9.65,9.65,0,0,1,.24,1l.1.58q0,.31.09.66l0,.36C20.77,52.32,20.77,52.44,20.78,52.55Z"/><g class="cls-8"><path class="cls-9" d="M3.9,70.71a4.48,4.48,0,0,1,1.4-.19,4.84,4.84,0,0,1,1,.09,3.21,3.21,0,0,1,.44.11,3.64,3.64,0,0,1,.42.19,3.31,3.31,0,0,1,.79.59,2.37,2.37,0,0,1,.54.82,1,1,0,0,1,.09.44s-.07-.17-.19-.39a2.47,2.47,0,0,0-.57-.73A3,3,0,0,0,7,71.13,3.26,3.26,0,0,0,6.64,71a3.84,3.84,0,0,0-.41-.12,4.57,4.57,0,0,0-.93-.14C4.6,70.66,3.9,70.75,3.9,70.71Z"/><path class="cls-9" d="M6.31,69.06a3,3,0,0,1,.83.62,5.87,5.87,0,0,1,.68.79,6,6,0,0,1,.49.91,3.27,3.27,0,0,1,.28,1s-.21-.47-.46-.91a7,7,0,0,0-.53-.84,7.49,7.49,0,0,0-.6-.81C6.67,69.43,6.29,69.09,6.31,69.06Z"/></g><path class="cls-10" d="M20.78,52.55v.16c0,.23,0,.46,0,.68v0c0,.21,0,.42,0,.62a.61.61,0,0,0,0,.14h0c0,.2,0,.39-.07.59,0,0,0,0,0,.05,0,.18-.05.36-.08.52a.52.52,0,0,0,0,.11c0,.18-.07.35-.11.51s0,0,0,0-.08.31-.11.45a.14.14,0,0,0,0,.06c0,.15-.09.29-.13.42l0,0c-.14.35-.3.73-.47,1.12,0,0,0,0,0,0s0,0,0,0l-.05,0,0,0-.08.08-.1.11-.05,0,0,0-.15.16-.06.06-.09.09-.11.12L18.8,59a2.66,2.66,0,0,0-.23.24.23.23,0,0,0-.07.07l-.31.32,0,0L17,60.93h0l-.16.18-.05,0a.08.08,0,0,1,0,0h0l0,0h0l-.17.17c-.6.65-1.24,1.37-1.9,2.11l-.05.05-.43.5-.09.1-.39.45-.12.14-.36.42,0,.06a.28.28,0,0,0-.09.1l-.34.41-.14.16-.32.39-.15.19-.29.37-.16.2-.08.1h0l-.19.24-.16.2L11,68l-.15.2-.24.33-.15.2-.21.31-.14.2-.19.29-.13.2L9.61,70l-.12.19-.15.26-.1.18c0,.09-.09.17-.13.26A1.09,1.09,0,0,1,9,71l-.11.27a.61.61,0,0,1-.05.12,2.91,2.91,0,0,0-.12.35,1.43,1.43,0,0,0,0,.22v.08a3.08,3.08,0,0,0,0,.43,0,0,0,0,1,0,0c0,.08,0,.16,0,.25a.43.43,0,0,1,0,0c0,.14.07.29.11.44a8.52,8.52,0,0,0,.59,1.43,4.71,4.71,0,0,0-3.27-1.45c-1.45.19-.74,5.22,1.55,9.82H4.27l.19.27-.2-.27-.39-.56c-.19-.27-.37-.55-.55-.82s-.19-.29-.28-.43l-.3-.48c-.15-.25-.3-.5-.44-.75L2,79.55c-.25-.46-.48-.91-.69-1.36-.05-.1-.09-.21-.14-.31s-.09-.21-.13-.31-.21-.5-.3-.75a1.8,1.8,0,0,1-.08-.21c-.15-.42-.27-.83-.38-1.23,0-.1,0-.2-.07-.3s-.09-.4-.12-.6a4.44,4.44,0,0,1-.08-.61,6.24,6.24,0,0,1,0-1.36,2.6,2.6,0,0,1,0-.26.76.76,0,0,1,0-.15l0-.13,0-.18a.5.5,0,0,1,0-.12.94.94,0,0,0,0-.16c0-.1.05-.21.08-.32a.57.57,0,0,1,0-.14c0-.16.09-.32.14-.48v0c0-.16.1-.32.16-.48l.06-.17.14-.36c0-.06,0-.12.08-.19s.1-.25.16-.38a1.22,1.22,0,0,1,.07-.17c.08-.18.16-.37.25-.56l0-.06.21-.44,0-.08.1-.19.2-.41.11-.21a1.09,1.09,0,0,1,.08-.15c0-.09.09-.19.14-.28a1.74,1.74,0,0,0,.1-.19l0-.06c.09-.18.19-.37.3-.56l0-.07.13-.23L3.07,65a2.12,2.12,0,0,1,.11-.21l.26-.44.13-.23.28-.46L4,63.44l.08-.13.31-.53.06-.09.3-.47.06-.1.14-.22.29-.47.15-.22c.1-.17.21-.34.32-.5l.12-.18.44-.67.06-.08c.1-.16.21-.32.32-.48a.75.75,0,0,1,.07-.12L6.84,59l.32-.48.15-.21.35-.52.11-.15c.16-.23.32-.45.47-.68l0-.07.42-.59.14-.19.34-.48.14-.2.37-.51.1-.14c.16-.22.32-.43.47-.65l0,0,.43-.6.12-.16c.12-.16.24-.31.35-.47l.13-.17.37-.5a.86.86,0,0,0,.07-.1l.43-.56,0,0h0l.16,0c-.16.19-8.25,13.52-6.6,15.95.8,1.18,3.65-.75,6.54-3.42a52.81,52.81,0,0,0,4.17-4.34l0,0,.13-.15.23-.27c.63-.77,1.18-1.48,1.6-2.1a8.46,8.46,0,0,0,.72-1.25,11.56,11.56,0,0,0,.57-1.65,18.63,18.63,0,0,0,.52-4.58,9.65,9.65,0,0,1,.24,1l.1.58q0,.31.09.66l0,.36C20.77,52.32,20.77,52.44,20.78,52.55Z"/><path class="cls-11" d="M13.06,81.46s.46.68,1.16,1.59h-.61c-.61-.75-1-1.28-1-1.28s-.34-.48-.82-1.22l-.13-.2c-.45-.71-1-1.64-1.52-2.58l-.05-.09A19.22,19.22,0,0,0,8.56,75a2.27,2.27,0,0,0-.81-.62c-.23-.1-.38-.11-.38-.14a.85.85,0,0,1,.42,0,2.26,2.26,0,0,1,.92.58,6,6,0,0,1,.9,1.23c.18.29.36.6.54.92l.33.56c.45.72.9,1.44,1.31,2.06,0,0,0,0,0,0,.16.22.3.43.43.62C12.71,81,13.06,81.46,13.06,81.46Z"/><path class="cls-11" d="M19.22,50.78a18.65,18.65,0,0,1,.17,2.06c0,1-.08,2.09,0,2.1a6.74,6.74,0,0,0,.38-2.09,14.5,14.5,0,0,0,0-2.13,14.12,14.12,0,0,0-.46-2.08,6.25,6.25,0,0,0-.84-2c-.07,0,.27,1,.47,2A17.56,17.56,0,0,1,19.22,50.78Z"/><path class="cls-12" d="M24.88,83.05c.38-.06.78-.1,1.2-.13s1,0,1.53,0H28q.8,0,1.62.09l.23,0,.43,0,.16,0Z"/><path class="cls-13" d="M24.88,83.05c.38-.06.78-.1,1.2-.13s1,0,1.53,0H28q.8,0,1.62.09l.23,0,.43,0,.16,0Z"/><path class="cls-14" d="M24.88,83.05c.38-.06.78-.1,1.2-.13s1,0,1.53,0H28q.8,0,1.62.09l.23,0,.43,0,.16,0Z"/><path class="cls-7" d="M47.91,44.77l0,.14c-.12.39-.49,1.58-.9,3.19-.05.23-.11.46-.17.71a43.1,43.1,0,0,0-1,6.07v0c0,.21,0,.41,0,.62s0,.18,0,.27v0a1.29,1.29,0,0,0,0,.28,2.44,2.44,0,0,0,0,.27,8.22,8.22,0,0,0,0,.86c0,.17,0,.35,0,.52a10,10,0,0,0,.6,3.24h0s0,.07,0,.11-.08.25-.11.37c-.14.43-.26.87-.39,1.31s-.25.86-.37,1.29l-.09.32c-.09.32-.18.65-.26,1-.18.65-.34,1.31-.5,2s-.32,1.32-.46,2c-.57,2.55-1,5.12-1.39,7.69,0,.09,0,.19,0,.28a0,0,0,0,1,0,0h0c-.2,1.58-.36,3.16-.44,4.75a1,1,0,0,1,0,.17c0,.25,0,.51,0,.78H19.79c0-.12,0-.23-.05-.34l-.63-4.23h0c-.2-1.38-.41-2.75-.61-4.13-.32-2.21-.64-4.42-.94-6.64,0-.1,0-.2,0-.3q-.42-3.06-.8-6.14h0c-.07-.55-.14-1.09-.2-1.63q-.35-2.9-.62-5.79c0-.25-.05-.5-.07-.75h0c-.09-1-.17-2.06-.22-3.09,0-.15,0-.3,0-.45a6.34,6.34,0,0,1,2.1-4.82,7.6,7.6,0,0,1,.76-.62,8.92,8.92,0,0,1,.89-.56l.15-.08a11.78,11.78,0,0,1,1.19-.56l.21-.08a14.65,14.65,0,0,1,1.54-.52,27.64,27.64,0,0,1,3.6-.73l.46-.06h0l.59-.07h.28a60.59,60.59,0,0,1,6.12-.26h1.66l.65.11h0l.74.14c.86.16,2.05.39,3.35.68l.1,0h0c.61.13,1.24.28,1.87.45l.16,0c1,.24,1.91.52,2.79.81l.57.2a12.09,12.09,0,0,1,2.43,1.13Z"/><path class="cls-10" d="M47.91,44.53s0,.07-.07.2-.05.18-.09.3c-.18.58-.49,1.64-.82,3-.07.25-.13.52-.2.8a40.8,40.8,0,0,0-1,6c0,.21,0,.43,0,.64s0,.2,0,.3v0a1.29,1.29,0,0,0,0,.28,2.44,2.44,0,0,0,0,.27,8.22,8.22,0,0,0,0,.86c0,.17,0,.35,0,.52a9.5,9.5,0,0,0,.65,3.13.56.56,0,0,1,0,.12h0c0,.11-.07.22-.1.33-.27.88-.53,1.76-.77,2.65,0,.1-.06.2-.08.3h0A97.07,97.07,0,0,0,42.76,77h0s0,.06,0,.09l0,.23c-.2,1.52-.34,3-.42,4.57,0,.13,0,.27,0,.41l0,.78H19.82c0-.2-.05-.39-.08-.58-.2-1.31-.39-2.61-.59-3.92-.22-1.48-.44-3-.65-4.45q-.46-3.22-.92-6.47c0-.09,0-.19,0-.29q-.42-3-.81-6.11h0c-.06-.55-.13-1.09-.2-1.63-.23-2-.45-4-.64-6,0-.18,0-.36-.05-.55-.1-1.1-.19-2.2-.24-3.3a1.48,1.48,0,0,1,0-.21,6.72,6.72,0,0,1,.78-3.39,6.91,6.91,0,0,1,2.25-2.41l0,0a7,7,0,0,1,.7-.4s0,0,0,0a12.59,12.59,0,0,1,1.33-.64l.17-.07a11.67,11.67,0,0,1,1.22-.42,25.47,25.47,0,0,1,4.12-.86l.49-.06h0l.38,0h.24c2.22-.22,4.43-.26,6.3-.27h1.54l.35.05.89.16c1,.18,2.36.45,3.88.8,0,0,0,0,0,0l1.5.37h0l.2,0,.07,0c.87.23,1.75.48,2.56.74h0l.42.14h0A13.3,13.3,0,0,1,47.91,44.53Z"/><path class="cls-10" d="M19.79,83.05c0-.12,0-.23-.05-.34l-.63-4.24,0,.08a12.1,12.1,0,0,0,3.56,4.5Z"/><path class="cls-10" d="M46.25,61.49q-.41,1.3-.75,2.61a2,2,0,0,0-.09.33q-.15.48-.27,1c-.18.65-.34,1.31-.5,2s-.32,1.32-.46,2c-.57,2.55-1,5.12-1.39,7.69,0,.09,0,.19,0,.28a.06.06,0,0,1,0,0c-.2,1.58-.36,3.16-.44,4.75a1,1,0,0,1,0,.17c0,.25,0,.51,0,.78H36.14c5.65-3.62,7.76-19.14,8.36-25.75h0a.76.76,0,0,1,0-.15c0-.33.05-.64.07-.92a.71.71,0,0,0,0-.14c0-.23,0-.44,0-.63h0a11.35,11.35,0,0,0,0-1.14s.63,2.66,1.42,6.52c0,.17.07.34.11.52Z"/><path class="cls-10" d="M36.77,47.56V47.5S36.77,47.53,36.77,47.56Z"/><path class="cls-15" d="M29.8,82.1V82c0-.47,0-.94-.06-1.3a2.68,2.68,0,0,0-.06-.59,4,4,0,0,0,0,.59c0,.28,0,.63,0,1,0,.1,0,.2,0,.3,0,.32,0,.65,0,.93v.08h.23V83C29.82,82.72,29.81,82.41,29.8,82.1Z"/><path class="cls-10" d="M34.1,70.61c-.38-4.83-1-9.65-1.63-14.45h0s0,0,0,0l-.15-1-.06-.43c-.07-.49-.15-1-.22-1.45a.36.36,0,0,0,0-.11c-.15-1-.31-2-.47-3a3.15,3.15,0,0,0,.83-.59c.18-.18.35-.37.51-.55h0a9,9,0,0,0,.82-1.21,1.13,1.13,0,0,0,0-.26,4,4,0,0,0-2.33-2.72h0l0,0h0s0,0,0,0a1.31,1.31,0,0,0-.27-.06.93.93,0,0,0-.5.11,3.24,3.24,0,0,0-.49.33,4.68,4.68,0,0,0-.38.39c-.11.12-.22.24-.32.37s0,0,0,0a11.47,11.47,0,0,0-1,1.42.28.28,0,0,0,0,.06,3.79,3.79,0,0,0,.43,1.47A2.82,2.82,0,0,0,30,50c0,.13-.11.85-.25,2-.08.64-.18,1.41-.3,2.27,0,.35-.09.72-.14,1.1v0q-.11.78-.21,1.62v0c0,.25-.07.5-.1.75s-.07.55-.1.83c-.65,5.08-1.38,11-1.63,13.38-.13,1.2-.28,2.4-.45,3.59-.05.36-.09.72-.13,1.08h0a11.47,11.47,0,0,0-.06,1.94A7.64,7.64,0,0,0,27,80.76a15.26,15.26,0,0,0,1,2.12l.09.17h4.54C34.93,79.28,34.46,75.2,34.1,70.61Z"/><path class="cls-16" d="M33.6,70.36q-.14-1.68-.3-3.36c-.11-1.22-.24-2.45-.38-3.67s-.25-2.18-.39-3.26c-.15-1.26-.32-2.51-.5-3.76v-.05c-.05-.31-.09-.62-.13-.92L31.84,55h0l-.21-1.38a.5.5,0,0,0,0-.12c-.18-1.21-.37-2.42-.56-3.62a3.7,3.7,0,0,0,1-.73l.07-.07.33-.38,0,0h0a7.21,7.21,0,0,0,.61-.87l.16-.27a1.26,1.26,0,0,0-.06-.6.56.56,0,0,0,0-.12.61.61,0,0,0-.05-.12,3.37,3.37,0,0,0-.47-.78,3.27,3.27,0,0,0-.5-.55l-.27-.24a3.28,3.28,0,0,0-.44-.32h0l0,0a0,0,0,0,0,0,0l-.16-.09h0a1.8,1.8,0,0,0-.28-.14h0s0,0,0,0,0,0,0,0,0,0,0,0h0a1.23,1.23,0,0,0-.25,0,.38.38,0,0,0-.21,0l-.12,0a1.45,1.45,0,0,0-.39.2h0l-.07,0a6.33,6.33,0,0,0-1.32,1.5l-.06.07c-.31.44-.5.78-.5.78a1.67,1.67,0,0,0,0,.31h0a2.89,2.89,0,0,0,.11.48,3.26,3.26,0,0,0,.24.62,1.62,1.62,0,0,0,.1.18,2.2,2.2,0,0,0,.21.32.79.79,0,0,0,.12.15l.13.15a1.55,1.55,0,0,0,.27.24,2.62,2.62,0,0,0,.43.27s0,0,0,.09,0,.13,0,.22l0,.24s0,.09,0,.14c-.05.39-.12.92-.2,1.57,0,.26-.07.55-.11.85s-.09.71-.14,1.1a2.17,2.17,0,0,1,0,.25v0c0,.25-.06.5-.1.77a.38.38,0,0,1,0,.1c0,.18-.05.38-.07.57-.05.37-.1.76-.15,1.15v0c0,.29-.07.59-.11.88l-.09.72c-.64,5-1.37,10.86-1.61,13.24-.1,1-.24,2.07-.38,3.11h0c0,.16,0,.31-.06.48a12.47,12.47,0,0,0-.06,4.13v0a4.7,4.7,0,0,0,.12.51,5,5,0,0,0,.16.51c.08.22.16.44.26.66.18.44.39.88.62,1.32l.21.37.09.18H32c.1-.15.19-.3.28-.45s.16-.27.23-.41l.06-.1c.06-.14.13-.26.19-.4a4.17,4.17,0,0,0,.19-.44c.13-.3.24-.61.34-.92,0-.15.1-.31.14-.46a4.05,4.05,0,0,0,.12-.47c0-.22.1-.44.14-.66A16.54,16.54,0,0,0,33.85,77c0-.14,0-.28,0-.42A49.59,49.59,0,0,0,33.6,70.36Z"/><path class="cls-17" d="M33.87,76.58c0,.14,0,.28,0,.42a16.54,16.54,0,0,1-.21,1.74c0,.22-.09.44-.14.66a4.05,4.05,0,0,1-.12.47c0,.15-.09.31-.14.46a6.38,6.38,0,0,1-.34.92,4.17,4.17,0,0,1-.19.44c-.06.14-.13.26-.19.4l-.06.1c-.07.14-.15.28-.23.41s-.18.3-.28.45H27.71l-.09-.18h0l-.2-.37c-.23-.44-.44-.88-.62-1.32-.1-.22-.18-.44-.26-.66a5,5,0,0,1-.16-.51,4.7,4.7,0,0,1-.12-.51v0a12.47,12.47,0,0,1,.06-4.13c0-.17,0-.32.06-.48a15.71,15.71,0,0,0,.3,1.8h0a10.31,10.31,0,0,0,.55,1.75c.42,1,.95,1.67,1.57,1.8s1.62-.48,2.53-2.34c1.66-3.41.94-14.51.1-21.35a.43.43,0,0,0,0-.05c0-.27-.06-.52-.1-.77h0c0-.12,0-.23,0-.34-.07-.47-.13-.91-.19-1.32,0,0,0-.08,0-.11a11,11,0,0,0-.67-3c-.18-.11-.42.35-.67,1.06s-.45,1.43-.66,2.24c-.07.29-.14.58-.2.86l0,.08q-.06.29-.12.54c0-.19.05-.39.07-.57a.38.38,0,0,0,0-.1c0-.27.07-.52.1-.77a0,0,0,0,1,0,0l0-.25c.05-.39.1-.75.14-1.1s.08-.59.11-.85c.08-.65.15-1.18.2-1.57,0-.05,0-.1,0-.14l0-.24c0-.09,0-.16,0-.22s0-.07,0-.09A2.62,2.62,0,0,1,29,49.5a1.55,1.55,0,0,1-.27-.24l-.13-.15a.79.79,0,0,1-.12-.15,2.2,2.2,0,0,1-.21-.32,1.62,1.62,0,0,1-.1-.18,3.85,3.85,0,0,0,.55.35,1.88,1.88,0,0,0,2.16,0,1.33,1.33,0,0,0,.41-.62,2.17,2.17,0,0,0,.16-.78A7.15,7.15,0,0,0,31,44.73s0,0,0,0l.09,0,.73.33.27.24a5.17,5.17,0,0,1,.5.55,3.37,3.37,0,0,1,.47.78.61.61,0,0,1,.05.12.56.56,0,0,1,0,.12,1.26,1.26,0,0,1,.06.6l-.16.27a7.21,7.21,0,0,1-.61.87h0l0,0-.33.38-.07.07a3.7,3.7,0,0,1-1,.73c.19,1.2.38,2.41.56,3.62a.5.5,0,0,1,0,.12l.21,1.38h0l.06.39c0,.3.08.61.13.92v.05c.18,1.25.35,2.5.5,3.76.14,1.08.27,2.17.39,3.26s.27,2.45.38,3.67.21,2.24.3,3.36A49.59,49.59,0,0,1,33.87,76.58Z"/><path class="cls-18" d="M29.86,53.37a4.35,4.35,0,0,0-.19.94c0,.24-.08.52-.12.84h0c0,.05,0,.09,0,.14-.07.51-.15,1.09-.22,1.69a0,0,0,0,0,0,0l-.09.7-.12.89c-.24,1.91-.44,3.6-.44,3.6s-.82,8.88-.68,8.9,1.21-8.84,1.21-8.84.17-1.76.34-3.72c0-.32.05-.64.08-1s0-.43,0-.64a0,0,0,0,1,0,0l0-.42s0-.09,0-.13c0-.46.07-.89.09-1.28,0-.05,0-.09,0-.13h0c0-.22,0-.4,0-.58A4.57,4.57,0,0,0,29.86,53.37Zm-2,18.77a3.62,3.62,0,0,0-.31,1.19c-.11.6-.17,1.2-.17,1.2s0,.62,0,1.23A3.64,3.64,0,0,0,27.57,77a3.82,3.82,0,0,0,.21-1.2c.06-.6.13-1.2.13-1.2s0-.61,0-1.21A3.84,3.84,0,0,0,27.85,72.14Zm1.91-25.2c.12-.3.38-.54.35-.61s-.42.08-.68.41a1.89,1.89,0,0,0-.34.74,2,2,0,0,0,.13.81c.15.4.49.64.54.58s-.14-.35-.17-.68a2,2,0,0,1,0-.63A1.91,1.91,0,0,1,29.76,46.94Z"/><g class="cls-8"><path class="cls-9" d="M24,44c-.43,1-1.73,1.67-2.41,2.49s-1.5,2-2.18,3a.24.24,0,0,1-.44-.06A4.21,4.21,0,0,1,19.91,45c.83-1,2.56-2.29,3.92-1.65A.47.47,0,0,1,24,44Z"/></g><g class="cls-8"><path class="cls-9" d="M41.52,83.05H40.31c.32-.71.45-1.48.76-2.21a.32.32,0,0,1,.59.08A4.66,4.66,0,0,1,41.52,83.05Z"/></g><g class="cls-8"><path class="cls-9" d="M20.7,82.05l.59,1h-.74a3.29,3.29,0,0,1-.11-.93A.14.14,0,0,1,20.7,82.05Z"/></g><g class="cls-5"><path class="cls-9" d="M17.58,66.72s0-.15,0-.41-.07-.63-.12-1.08c-.1-.89-.23-2.08-.33-3.28-.22-2.38-.3-4.78-.3-4.78s-.12-2.39-.05-4.78c0-1.2.11-2.4.19-3.29,0-.45.08-.82.1-1.08a2.08,2.08,0,0,0,0-.41A1.78,1.78,0,0,0,17,48c0,.26-.1.63-.15,1.08-.12.89-.22,2.09-.28,3.29-.12,2.4,0,4.8,0,4.8s.11,2.4.38,4.79c.13,1.19.28,2.38.41,3.27l.17,1.08A2.09,2.09,0,0,0,17.58,66.72Z"/></g><path class="cls-7" d="M63.75,72.37a7.19,7.19,0,0,1-.13,1.36l-.06.28a8.43,8.43,0,0,1-.25.92c0,.14-.09.27-.14.41-.16.41-.34.83-.54,1.25-.07.15-.14.29-.22.43l-.26.5-.29.5h0c-.15.26-.32.51-.49.77l-.54.8q-.31.45-.66.9c-.39.52-.81,1-1.24,1.54-.29.34-.58.67-.89,1H45.75c1-.92,2-1.94,3.08-3l.41-.43a48.75,48.75,0,0,0,4.27-4.88h0q.3-.4.54-.78a1.76,1.76,0,0,0,.14-.23c.06-.09.12-.18.17-.27l.13-.23.14-.26c0-.07.07-.13.1-.2l0-.08c0-.11.09-.22.13-.33a1,1,0,0,1,0-.1L55,72l0-.13a1.63,1.63,0,0,0,0-.69c-.44-2-3.61-5.34-6.27-7.86h0c-.94-.9-1.82-1.69-2.48-2.27h0l-.2-.17-1-.89a15.12,15.12,0,0,1-.44-1.81q0-.24-.09-.51a2.87,2.87,0,0,1,0-.31h0a2.07,2.07,0,0,0,0-.22h0a21.54,21.54,0,0,1-.17-2.43v-.14a15.94,15.94,0,0,1,.15-2.25c0-.05,0-.1,0-.14h0c0-.15,0-.29.07-.43s.06-.33.1-.49,0-.06,0-.08v0c0-.2.09-.4.14-.6s.1-.38.16-.57v0c.1-.31.21-.63.33-.94a12.38,12.38,0,0,1,1.08-2.11A11.22,11.22,0,0,1,47.75,45l.11-.12.12-.13s2.18,2.88,4.93,6.84a.94.94,0,0,0,.09.12c.1.16.22.33.34.5l0,0,.39.56.09.13c.11.17.22.34.34.51l.09.13.4.6s0,0,0,0l.44.66.07.1.36.55.11.17c.11.17.22.33.32.5l.12.18.39.6,0,.06.43.67.09.15.33.52a2.39,2.39,0,0,0,.13.21c.09.16.19.32.29.48l.13.2.37.61a.21.21,0,0,0,0,.06c.13.22.26.45.4.67l.1.18.29.49a2.53,2.53,0,0,1,.13.22l.27.47.12.2.33.59,0,.07.36.65.1.18.25.47a2.26,2.26,0,0,1,.11.22l.24.44a1.24,1.24,0,0,0,.1.2c.1.19.19.38.28.56l0,.07c.11.2.2.41.3.61l.08.17c.07.15.14.29.2.43a2,2,0,0,0,.1.21c.06.13.12.27.17.4l.09.19c.07.18.15.35.22.53,0,0,0,0,0,0s.13.33.2.49a.14.14,0,0,0,0,.06l.06.16c0,.13.09.25.13.37l.06.19c0,.12.08.24.12.35s0,.11.05.16.09.32.13.47v0c0,.16.08.32.11.47l0,.14.06.31a.77.77,0,0,1,0,.15c0,.1,0,.2,0,.29a.62.62,0,0,1,0,.13C63.74,72.11,63.74,72.24,63.75,72.37Z"/><g class="cls-8"><path class="cls-9" d="M44.8,50.22a2.19,2.19,0,0,0-.21.56,10.64,10.64,0,0,0-.26,1.28,11.51,11.51,0,0,0-.1,1.9,11.29,11.29,0,0,0,.3,1.87,11.64,11.64,0,0,0,.4,1.25,3.71,3.71,0,0,0,.26.54,2.61,2.61,0,0,0-.16-.57c-.1-.34-.22-.8-.31-1.25a14.54,14.54,0,0,1-.2-3.72,11.74,11.74,0,0,1,.18-1.27A4.38,4.38,0,0,0,44.8,50.22Z"/><path class="cls-9" d="M42.82,53.3a3.79,3.79,0,0,0,.2,1.14,9.48,9.48,0,0,0,.38,1.1,10.47,10.47,0,0,0,.57,1,4.82,4.82,0,0,0,.72.93s-.28-.51-.55-1-.49-1-.49-1-.25-.51-.45-1S42.86,53.3,42.82,53.3Z"/><path class="cls-9" d="M45.34,47.93a7.9,7.9,0,0,0,.41-.87,9.41,9.41,0,0,1,.48-.82,8,8,0,0,1,.52-.81c.28-.39.61-.75.58-.77a3.07,3.07,0,0,0-.74.66,7.24,7.24,0,0,0-.6.79,7.55,7.55,0,0,0-.41.88A2.66,2.66,0,0,0,45.34,47.93Z"/><path class="cls-9" d="M60,70.43a4.81,4.81,0,0,0-1.39-.27,5.2,5.2,0,0,0-1,0,3.16,3.16,0,0,0-.45.08s-.18,0-.43.15a3.51,3.51,0,0,0-.83.52,2.42,2.42,0,0,0-.59.75.94.94,0,0,0-.12.41s.08-.15.21-.36a2.7,2.7,0,0,1,.62-.66,3.44,3.44,0,0,1,.81-.44,2.67,2.67,0,0,1,.4-.12l.42-.1a5.07,5.07,0,0,1,.94-.08C59.3,70.34,60,70.47,60,70.43Z"/><path class="cls-9" d="M57.69,68.71a2.91,2.91,0,0,0-.86.55,6.38,6.38,0,0,0-.73.7,5.74,5.74,0,0,0-.55.85,2.92,2.92,0,0,0-.34.92s.24-.43.51-.84a7.68,7.68,0,0,1,.59-.77,7.77,7.77,0,0,1,.65-.73C57.31,69,57.71,68.74,57.69,68.71Z"/></g><path class="cls-10" d="M63.75,72.37a7.19,7.19,0,0,1-.13,1.36l-.06.28a8.43,8.43,0,0,1-.25.92c0,.14-.09.27-.14.41-.16.41-.34.83-.54,1.25-.07.15-.14.29-.22.43l-.26.5-.3.49c-.15.27-.31.53-.48.79l-.54.8q-.31.45-.66.9c-.39.52-.81,1-1.24,1.54-.29.34-.58.67-.89,1h-3.4a23,23,0,0,0,1.57-2.62c1.94-3.79,2.6-7.51,1.33-7.75A5.06,5.06,0,0,0,54.05,74a1.76,1.76,0,0,0,.14-.23c.06-.09.12-.18.17-.27l.13-.23.14-.26c0-.07.07-.13.1-.2l0-.08c0-.11.09-.22.13-.33a1,1,0,0,1,0-.1L55,72l0-.13a1.15,1.15,0,0,0,0-.26.37.37,0,0,0,0-.11,1.67,1.67,0,0,0,0-.32c-.44-2-3.61-5.34-6.27-7.86h0c-.94-.9-1.82-1.69-2.48-2.27h0l-.2-.17-1-.89a15.12,15.12,0,0,1-.44-1.81q0-.24-.09-.51l0-.22a.31.31,0,0,1,0-.1,3,3,0,0,0,0-.93.74.74,0,0,0,0-.14A10.15,10.15,0,0,1,44.34,55v0c0-.14,0-.28-.05-.43h0a15.94,15.94,0,0,1,.15-2.25c0-.05,0-.1,0-.14h0c0-.15,0-.29.07-.43s.06-.33.1-.49,0-.06,0-.08v0c0-.2.09-.4.14-.6s.1-.38.16-.57v0a14.94,14.94,0,0,0,.13,3.32v0a11.4,11.4,0,0,0,.56,2.13l.06.14a0,0,0,0,0,0,0,9.51,9.51,0,0,0,.74,1.33v0h0c1.93,3,6.46,8.09,9.39,9.89,1.1.69,2,.91,2.41.38,1.81-2.22-5.41-15.38-5.55-15.57l.16,0a.94.94,0,0,0,.09.12c.1.16.22.33.34.5l0,0,.39.56.09.13c.11.17.22.34.34.51l.09.13.4.6s0,0,0,0l.44.66.07.1.36.55.11.17c.11.17.22.33.32.5l.12.18.39.6,0,.06.43.67.09.15.33.52a2.39,2.39,0,0,0,.13.21c.09.16.19.32.29.48l.13.2.37.61a.21.21,0,0,0,0,.06c.13.22.26.45.4.67l.1.18.29.49a2.53,2.53,0,0,1,.13.22l.27.47.12.2.33.59,0,.07.36.65.1.18.25.47a2.26,2.26,0,0,1,.11.22l.24.44a1.24,1.24,0,0,0,.1.2c.1.19.19.38.28.56l0,.07c.11.2.2.41.3.61l.08.17c.07.15.14.29.2.43a2,2,0,0,0,.1.21c.06.13.12.27.17.4l.09.19c.07.18.15.35.22.53,0,0,0,0,0,0s.13.33.2.49a.14.14,0,0,0,0,.06l.06.16c0,.13.09.25.13.37l.06.19c0,.12.08.24.12.35s0,.11.05.16.09.32.13.47v0c0,.16.08.32.11.47l0,.14.06.31a.77.77,0,0,1,0,.15c0,.1,0,.2,0,.29a.62.62,0,0,1,0,.13C63.74,72.11,63.74,72.24,63.75,72.37Z"/><path class="cls-11" d="M56.29,73.6s-.15,0-.38.11a2.32,2.32,0,0,0-.85.54A8.1,8.1,0,0,0,54,75.74a0,0,0,0,0,0,0c-.21.34-.43.69-.67,1-.63.94-1.29,1.86-1.82,2.54s-.9,1.11-.9,1.11-.44.51-1.13,1.22l-.35.37c-.33.33-.69.67-1.08,1h-.6c.6-.57,1.15-1.14,1.6-1.63.14-.15.27-.29.37-.42.48-.53.77-.88.77-.88s.38-.43.92-1.08,1.24-1.55,1.9-2.46l.84-1.17.13-.18a5.46,5.46,0,0,1,1-1.12,2.22,2.22,0,0,1,1-.5A.82.82,0,0,1,56.29,73.6Z"/><path class="cls-11" d="M46,50.55a17.17,17.17,0,0,0-.31,2c-.09,1,0,2-.13,2a6,6,0,0,1-.25-2,13.16,13.16,0,0,1,.16-2,13.37,13.37,0,0,1,.59-2,6,6,0,0,1,1-1.81c.07,0-.34,1-.6,1.92A17.32,17.32,0,0,0,46,50.55Z"/><path class="cls-9" d="M25.53,54.39l-7.48-.28s.58,8.34,4,7.62S25.53,54.39,25.53,54.39Z"/><path class="cls-19" d="M35.28,38.68l-.22,4.2s-2.77,3.16-7.9.53l.21-4.73S33.35,36.23,35.28,38.68Z"/><path class="cls-20" d="M27.23,41.86c4.59,4.5,8.24-3.4,6-1.92-1.87,1.25-5,0-5.92-.44v-.16l0-.51a.77.77,0,0,1,.19-.22c.3-.11.93-.34,1.72-.55s1.93-.26,2.82-.46a5.63,5.63,0,0,1,.92,0h0l.42.06h0a2.6,2.6,0,0,1,.4.1h0l.32.12.07,0a1.74,1.74,0,0,1,.33.18l0,0,.26.2.07.06a2.23,2.23,0,0,1,.26.27h0l-.22,4.2s-2.77,3.16-7.9.53Z"/><path class="cls-19" d="M18.17,20.56a2.09,2.09,0,0,0-2.9-.65c-2,1.3-1,8.11,1.7,8S18.65,20.42,18.17,20.56Z"/><path class="cls-20" d="M18.17,20.56a2.09,2.09,0,0,0-2.9-.65c-2,1.3-1,8.11,1.7,8S18.65,20.42,18.17,20.56Z"/><path class="cls-21" d="M15.71,25.89c0-.05.2,0,.43-.06a.46.46,0,0,0,.29-.24.69.69,0,0,0,0-.45.82.82,0,0,0-.25-.38c-.1-.1-.23-.13-.41-.28a.79.79,0,0,1-.26-.69,1.25,1.25,0,0,1,.08-.27,1,1,0,0,1,.15-.21.78.78,0,0,1,.25-.2l.2-.09h0l0,0a.83.83,0,0,0,0-.12,1.1,1.1,0,0,0,0-.18,2.45,2.45,0,0,0-.28-.72c-.26-.46-.66-.63-.65-.7s.47,0,.88.44a2.47,2.47,0,0,1,.47.84l.06.23a1.43,1.43,0,0,1,0,.26c0,.22,0,.43,0,.59a1.59,1.59,0,0,0-.39,0l-.09,0a.68.68,0,0,0-.12.11l-.05.1s0,0,0,0,.23.17.4.36a1.39,1.39,0,0,1,.35.73,1.08,1.08,0,0,1-.15.8.6.6,0,0,1-.51.25C15.87,26.09,15.7,25.93,15.71,25.89Z"/><path class="cls-22" d="M17,27.93c2.68-.08,1.68-7.51,1.2-7.37a2.51,2.51,0,0,0-1.51-1,4.89,4.89,0,0,1-.19,2.76s-.71-1.12-1.08-.75.2,2.18-.61,2.35c-.25.06-.42-.14-.52-.44C14.41,25.67,15.4,28,17,27.93Z"/><g class="cls-23"><path class="cls-24" d="M14.48,21.42c-.12.38-.07.76.11.85s.4-.15.52-.53.06-.76-.11-.85S14.59,21,14.48,21.42Z"/><path class="cls-24" d="M15.16,20.32a.3.3,0,0,0,.14.34.18.18,0,0,0,.28-.09.3.3,0,0,0-.13-.35A.19.19,0,0,0,15.16,20.32Z"/></g><path class="cls-19" d="M48.14,20.76c.21-6.09-2.31-16-15.13-16.06S18.16,18.75,18.16,18.75A39,39,0,0,0,17,27.93c.15,4,2.22,9.89,11.46,10.84s16.35-2.93,18-8.61a4.73,4.73,0,0,0,4.35-3.8C51.44,23.74,50,21.08,48.14,20.76Z"/><g class="cls-5"><path class="cls-20" d="M48.14,20.76a19.48,19.48,0,0,0-.76-6.13,15.65,15.65,0,0,0-2.08-4.38c1.85,3.11,2.17,7.78,2.07,10.61a7.65,7.65,0,0,0,.81-.09Z"/><path class="cls-20" d="M49.82,21.8a5.47,5.47,0,0,1,.38,3.65,4.74,4.74,0,0,1-4.36,3.81c-1.66,5.67-8.77,9.55-18,8.6-4.86-.49-7.73-2.37-9.39-4.62,1.52,2.64,4.48,5,10,5.53,9.23.95,16.35-2.93,18-8.61a4.73,4.73,0,0,0,4.35-3.8A5.26,5.26,0,0,0,49.82,21.8Z"/></g><path class="cls-21" d="M48.8,27.77a.9.9,0,0,1-.38.76.67.67,0,0,1-.38.13.59.59,0,0,1-.46-.22,1,1,0,0,1-.28-.57.77.77,0,0,1,.2-.69,1.72,1.72,0,0,1,.39-.26.65.65,0,0,0,.19-.24.86.86,0,0,0,.05-.56.42.42,0,0,0-.28-.3.4.4,0,0,0-.12,0h-.12l-.07,0,0,0-.1.15a.49.49,0,0,1-.4.27.37.37,0,0,1-.24-.11.53.53,0,0,1-.13-.26,3.13,3.13,0,0,1-.07-.79,5.21,5.21,0,0,1,0-.55,3.09,3.09,0,0,1,.29-1,1.69,1.69,0,0,1,.53-.65c.39-.28.72-.2.72-.15s-.28.09-.57.4a2.31,2.31,0,0,0-.52,1.51,3.85,3.85,0,0,0,0,.48c0,.16,0,.12,0,.16s.07,0,.06,0h0l.08-.07a.76.76,0,0,1,.18-.09.77.77,0,0,1,.31-.06.94.94,0,0,1,.27.05.85.85,0,0,1,.25.15,1.21,1.21,0,0,1,.45.74,1.6,1.6,0,0,1-.17,1.11,1.1,1.1,0,0,1-.4.4,2.26,2.26,0,0,0-.34.16.18.18,0,0,0-.08.19.58.58,0,0,0,.11.31.37.37,0,0,0,.49.12C48.64,28.08,48.76,27.74,48.8,27.77Z"/><path class="cls-24" d="M49.38,22.9c.27.27.57.35.69.18s0-.53-.28-.8-.58-.35-.69-.18S49.11,22.63,49.38,22.9Z"/><path class="cls-24" d="M48.38,21.58a.28.28,0,0,0,.13.34.18.18,0,0,0,.28-.09.3.3,0,0,0-.13-.35A.18.18,0,0,0,48.38,21.58Z"/><path class="cls-20" d="M30.84,28.25A5,5,0,0,1,27,27.05s-1.11.66.8,1.47C30.34,29.59,30.84,28.25,30.84,28.25Z"/><path class="cls-21" d="M29.71,28.76a7.33,7.33,0,0,1-.81,0,4.78,4.78,0,0,1-1.64-.62,1,1,0,0,1-.51-.59.49.49,0,0,1,.24-.49,1.23,1.23,0,0,1,.46-.18l.2,0a1.91,1.91,0,0,1,.45,0,2.69,2.69,0,0,1,.55.1l.32.13c.2.11.47.31.7.47l0-.9V25a4.91,4.91,0,0,0-.08-1.22A5.2,5.2,0,0,0,29.43,25l-.1,1.1,0,.55c0,.05,0,.07,0,.08l-.07-.05a2.58,2.58,0,0,0-.38-.18,3.57,3.57,0,0,0-.65-.16,2.47,2.47,0,0,0-.57,0,1.15,1.15,0,0,0-.25,0,1.88,1.88,0,0,0-.64.3,1.33,1.33,0,0,0-.33.4.91.91,0,0,0-.06.59,1.4,1.4,0,0,0,.76.82,4.39,4.39,0,0,0,1.82.5A1.21,1.21,0,0,0,29.71,28.76Z"/><path class="cls-25" d="M28,27.19c-.05.12.11.31.37.43s.52.11.57,0-.11-.32-.37-.43S28.07,27.07,28,27.19Z"/><path class="cls-20" d="M40.69,28.26a2.32,2.32,0,0,0-1.59-1.71s0,0,0,0l-.35-.13a4.05,4.05,0,0,0-.5-.12,5,5,0,0,0-1-.11,5.41,5.41,0,0,0-1.3.13,3.8,3.8,0,0,0-.51.15,3,3,0,0,0-.41.18,3,3,0,0,0-.64.42,1.72,1.72,0,0,0-.65,1.25c0,.85.72,1.6,1.81,2a5.12,5.12,0,0,0,1.61.28h.46s0,0,.05,0A4.61,4.61,0,0,0,39.59,30a3,3,0,0,0,.55-.4l.07-.07a.69.69,0,0,0,.11-.13,1.59,1.59,0,0,0,.39-1A.65.65,0,0,0,40.69,28.26ZM23.12,25.7l-.1-.07a3.91,3.91,0,0,0-.41-.2h0a4.77,4.77,0,0,0-2-.46h-.34a2.32,2.32,0,0,0-.46,0,3.57,3.57,0,0,0-.91.24l-.27.13a1.76,1.76,0,0,0-.93,1.17,1.57,1.57,0,0,0,.13,1A3.5,3.5,0,0,0,20,29.22l.13.05.14,0,.39.1a5.61,5.61,0,0,0,1.13.11,3.41,3.41,0,0,0,2.09-.67,1.71,1.71,0,0,0,.48-.63,1.4,1.4,0,0,0,.09-.29A2.27,2.27,0,0,0,23.12,25.7Z"/><path class="cls-20" d="M42.23,11.72C31.91,19.67,20,14,20,14a15.12,15.12,0,0,0-1.65,3.77C19.06,14.6,22.17,4.62,33,4.7c12.82.09,15.34,10,15.13,16.06a2.58,2.58,0,0,1,.93.38,4.72,4.72,0,0,1-.82.66c-2,.93-1.78,4.61-3,3.66s-.4-4.71-.4-4.71C42.63,18.73,42.23,11.72,42.23,11.72Z"/><path class="cls-26" d="M48.67,20.79a7.34,7.34,0,0,0,3.08-6.37c-.11-5.37-3.29-7.71-7.79-7.6,0,0-4.55-6.95-11.3-6.82S24,5.77,21.35,5.37,17.91,4.1,17.91,4.1s-.13,2.83,1.19,3.77a11.27,11.27,0,0,1-2.91-1.21,10,10,0,0,0,1.32,5.66s-1.59,3.1-.79,5.26a17.35,17.35,0,0,1,.92,3.09S19.1,14.75,20.42,13c0,0,11.91,5.66,22.24-2.29,0,0,.39,7,2.64,9,0,0-.79,3.77.4,4.72S46.62,21.71,48.67,20.79Z"/><path class="cls-26" d="M37.5,18.45c0,.1.42,0,.75.09a1.65,1.65,0,0,1,.58.21,1.69,1.69,0,0,1,.57.25c.29.17.51.48.61.44s.07-.47-.19-.84a2.36,2.36,0,0,0-.44-.45,1.67,1.67,0,0,0-.25-.15,1.6,1.6,0,0,0-.29-.06,1.91,1.91,0,0,0-.62,0C37.77,18.06,37.44,18.36,37.5,18.45Z"/><path class="cls-26" d="M21.87,17.27c.08.08.42-.11.75-.22a1.54,1.54,0,0,1,.61-.11.5.5,0,0,1,.16,0,1,1,0,0,1,.39,0,1.1,1.1,0,0,1,.38.17c.1.07.18.14.23.13s.09-.13,0-.3A1.08,1.08,0,0,0,24,16.4a1.55,1.55,0,0,0-.61-.25,1.52,1.52,0,0,0-.32,0,2,2,0,0,0-.28.1,2.1,2.1,0,0,0-.51.33C22,16.84,21.8,17.19,21.87,17.27Z"/><path class="cls-27" d="M48.2,9.44a4.5,4.5,0,0,0-.79-.8,4.15,4.15,0,0,0-1-.52A2,2,0,0,0,45.66,8a.67.67,0,0,0-.34.07,1.74,1.74,0,0,0,.33,0,2.59,2.59,0,0,1,.7.23,4.7,4.7,0,0,1,.9.55,5.46,5.46,0,0,1,.8.71c.35.39.6.87.65.87A2.7,2.7,0,0,0,48.2,9.44Zm0,4.37a.28.28,0,0,0,0-.09v0a7.81,7.81,0,0,0-.39-1.57l-.2-.5-.07-.14s0,0,0,0a6.46,6.46,0,0,0-.37-.64,7,7,0,0,0-1.05-1.24,5.17,5.17,0,0,0-1.32-.93A1.29,1.29,0,0,0,44,8.5a2.87,2.87,0,0,1,.68.23A5.3,5.3,0,0,1,46,9.7a7.51,7.51,0,0,1,1,1.23c.22.37.34.63.34.63l.09.17.21.48a6.43,6.43,0,0,1,.35,1.16,2,2,0,0,1,.08.35,6.73,6.73,0,0,1,.09,1.57c0,.44-.07.72,0,.73a.63.63,0,0,0,.06-.2,3.39,3.39,0,0,0,.09-.52A5.65,5.65,0,0,0,48.19,13.81Zm-3.73-3a2.66,2.66,0,0,0-.26-.57,2.92,2.92,0,0,0-.42-.47,1.26,1.26,0,0,0-.54-.31,5.07,5.07,0,0,0,.4.45,3.58,3.58,0,0,1,.34.48,3.8,3.8,0,0,1,.3.49c.14.27.22.55.25.55A1.08,1.08,0,0,0,44.46,10.79Zm-2-3.7a4.06,4.06,0,0,0-.21-.53,5.3,5.3,0,0,0-.49-.87,5.9,5.9,0,0,0-.42-.6,8.46,8.46,0,0,0-1.22-1.24c-.36-.3-.62-.48-.62-.48s-.27-.18-.68-.42a12.15,12.15,0,0,0-1.56-.73,13.39,13.39,0,0,0-1.65-.53,3.62,3.62,0,0,0-.76-.16,7.45,7.45,0,0,0,.73.26c.45.15,1,.36,1.6.6a14.11,14.11,0,0,1,1.52.78c.39.24.64.42.64.42a9.28,9.28,0,0,1,1.85,1.62,1.93,1.93,0,0,1,.22.28,7.28,7.28,0,0,1,.75,1.12c.22.4.33.69.35.69A.65.65,0,0,0,42.43,7.09Zm-1.28.23a2.79,2.79,0,0,0-.46-.52,3.34,3.34,0,0,0-.6-.33,1.39,1.39,0,0,0-.67-.13,6.46,6.46,0,0,0,.59.3,3.65,3.65,0,0,1,.52.37,4.05,4.05,0,0,1,.47.43c.21.22.37.5.42.5A1.33,1.33,0,0,0,41.15,7.32Zm-1.44,2.89c-.16.11-.35.22-.55.34a4.68,4.68,0,0,0-.46.27l-.17.09-.94.46a18.85,18.85,0,0,1-2.26.82c-.31.09-.59.14-.77.19l-.29.07-.3.06c-.19,0-.45.1-.78.15a17.57,17.57,0,0,1-2.4.21,18.57,18.57,0,0,1-2.41-.16c-.65-.09-1.08-.19-1.09-.16l.29.09c.19,0,.46.12.79.17a15.84,15.84,0,0,0,2.42.25,17.3,17.3,0,0,0,2.44-.16c.33,0,.6-.1.79-.13l.31,0,.29-.08c.19-.06.46-.11.78-.22a15.82,15.82,0,0,0,2.28-.88,15.23,15.23,0,0,0,2.08-1.24h0c.28-.19.49-.37.64-.49l.22-.19A9.76,9.76,0,0,0,39.71,10.21ZM25.41,6.4c-.41.07-.95.14-1.49.18a8.14,8.14,0,0,1-1.5,0c-.4,0-.67-.09-.67-.09a6,6,0,0,1-.65-.15,5.4,5.4,0,0,1-1.36-.6,4.38,4.38,0,0,1-1.12-1l-.22-.29h0a1.43,1.43,0,0,0-.19-.25,1.32,1.32,0,0,0,.07.18s0,0,0,0a3,3,0,0,0,.25.41,4,4,0,0,0,1.1,1.07A5.48,5.48,0,0,0,21,6.56a4.85,4.85,0,0,0,.68.17,4.77,4.77,0,0,0,.7.08,9,9,0,0,0,1.53,0,11.39,11.39,0,0,0,1.5-.27,3.71,3.71,0,0,0,.67-.19A3.48,3.48,0,0,0,25.41,6.4Zm.25,2.89h-.54c-.38,0-.81,0-1.24-.05s-.87-.08-1.25-.14L22.14,9a5.41,5.41,0,0,1-.76-.23,3.81,3.81,0,0,1-.72-.32A3.87,3.87,0,0,1,19.4,7.3a8.82,8.82,0,0,1-.86-1.55c-.2-.42-.32-.72-.34-.72a4.68,4.68,0,0,0,.25.76,7.71,7.71,0,0,0,.79,1.62,4.22,4.22,0,0,0,1.3,1.27,4.71,4.71,0,0,0,.75.36,5.46,5.46,0,0,0,.8.22l.35.06h0c.42.06.92.1,1.42.12h.54a11.5,11.5,0,0,0,1.25-.06,3.45,3.45,0,0,0,.81-.12S26.14,9.28,25.66,9.29Zm4.72-6.4-.66.43-.64.47a4.16,4.16,0,0,0-.63.48A2.36,2.36,0,0,0,29.18,4c.36-.19.69-.4.69-.4s.32-.24.62-.51.59-.55.56-.58A6.14,6.14,0,0,0,30.38,2.89Zm-7,9.66c-.4-.17-.93-.4-1.44-.67-.34-.17-.67-.36-1-.54h0c-.58-.36-1-.66-1-.66a12.28,12.28,0,0,1-1.82-1.41,7,7,0,0,1-1-1.2c-.24-.35-.37-.61-.39-.61a2.68,2.68,0,0,0,.3.67,6.43,6.43,0,0,0,1,1.28,9.84,9.84,0,0,0,1.21,1.06c.35.27.59.43.59.43s.43.29,1,.63h0c.3.17.65.35,1,.52a14,14,0,0,0,1.48.6,4.43,4.43,0,0,0,.7.19A6.21,6.21,0,0,0,23.36,12.55Zm-3.14.74h0l-.3,0h0a2.08,2.08,0,0,1-.78-.29,3.14,3.14,0,0,1-.64-.52l-.25-.28-.24-.3a7.5,7.5,0,0,1-.51-.68c-.35-.51-.64-1-.68-1a4.41,4.41,0,0,0,.52,1.15,6.21,6.21,0,0,0,.47.73c.14.2.24.32.24.32a3.74,3.74,0,0,0,.28.29,3,3,0,0,0,.72.51,2.17,2.17,0,0,0,.86.23,2.06,2.06,0,0,0,.33,0h0l.05,0ZM46,19.84a14.59,14.59,0,0,1-1.11-1.69A15.31,15.31,0,0,1,44,16.33c-.1-.25-.17-.48-.23-.63h0l-.08-.22-.08-.24c0-.16-.12-.37-.19-.64a14.53,14.53,0,0,1-.42-2L43,12.1c-.05-.55-.08-1.07-.08-1.49a6.38,6.38,0,0,0,0-.93,1.08,1.08,0,0,0,0,.25c0,.16,0,.39-.06.67a12.47,12.47,0,0,0,0,1.48v0a.76.76,0,0,1,0,.15l0,.39a14.14,14.14,0,0,0,.24,1.45.51.51,0,0,0,0,.13s0,0,0,.08.06.25.09.36.12.45.16.6,0,0,0,.05.07.24.07.24l.1.24c.06.15.13.38.24.63a15.86,15.86,0,0,0,.93,1.83,13.93,13.93,0,0,0,1.2,1.65,6.66,6.66,0,0,0,.45.5,1.27,1.27,0,0,0,.17.17A7.13,7.13,0,0,0,46,19.84Zm4.66-5.35a7.66,7.66,0,0,0-.1.83,4.42,4.42,0,0,1-.1.6A7.62,7.62,0,0,1,50,17.28a7.42,7.42,0,0,1-.64,1.27c-.38.6-.88,1.1-.88,1.15a4.18,4.18,0,0,0,1-1,6.67,6.67,0,0,0,.74-1.28s.08-.2.17-.5a6.08,6.08,0,0,0,.22-.93,5.4,5.4,0,0,0,.06-.77h0v-.06A2.16,2.16,0,0,0,50.65,14.49ZM47.5,19s-.06.18-.12.4v0a2.17,2.17,0,0,1-.07.24,3.45,3.45,0,0,1-.29.61,3.39,3.39,0,0,1-.35.57,3,3,0,0,1-.36.4.42.42,0,0,0-.09.13,1.08,1.08,0,0,0,.41-.24l.18-.16a3.52,3.52,0,0,0,.45-.57l.13-.21v-.1c0-.11.07-.25.1-.38A1.29,1.29,0,0,0,47.5,19ZM47,23.38l-.11-.07a2.88,2.88,0,0,1-.57-.47,3.26,3.26,0,0,1-.52-.69,1.57,1.57,0,0,1-.09-.17.52.52,0,0,1-.06-.12,1.68,1.68,0,0,1-.16-.35A3.07,3.07,0,0,1,45.3,21a3.61,3.61,0,0,1-.08-.81v0c0-.14,0-.23,0-.23a2.1,2.1,0,0,0-.1,1.05V21a2.22,2.22,0,0,0,.13.55,2.55,2.55,0,0,0,.13.37l.07.16.08.14h0a3.53,3.53,0,0,0,.62.73,2.73,2.73,0,0,0,.66.43h0l.1.05a.7.7,0,0,0,.19,0A.54.54,0,0,0,47,23.38ZM19.42,16A1.4,1.4,0,0,1,19,16h0a.39.39,0,0,1-.14,0,.28.28,0,0,1-.12,0,1.74,1.74,0,0,1-.56-.39,1.63,1.63,0,0,1-.21-.23v0L17.77,15a5.19,5.19,0,0,1-.36-.61,6.68,6.68,0,0,1-.33-.65A1.94,1.94,0,0,1,17,13.5q0-.09,0-.09s0,.09,0,.23h0a.34.34,0,0,0,0,.1,5.47,5.47,0,0,0,.25.7,5.92,5.92,0,0,0,.34.67,2.15,2.15,0,0,0,.19.29l.19.2.05.05a1.87,1.87,0,0,0,.67.38l.13,0,.14,0h0a1.35,1.35,0,0,0,.45,0c.2-.05.31-.12.31-.15S19.61,16,19.42,16Zm-.83,1.11s0,0,0,0a.08.08,0,0,1,0,0,.08.08,0,0,1-.06,0h0a.93.93,0,0,1-.44,0l-.26-.08L17.62,17a.9.9,0,0,1-.16-.12,1.07,1.07,0,0,1-.16-.12,3,3,0,0,1-.3-.36c-.19-.28-.33-.6-.37-.6a1.56,1.56,0,0,0,.21.7,2.46,2.46,0,0,0,.28.43l.17.17a1.27,1.27,0,0,0,.21.12.79.79,0,0,0,.23.09.81.81,0,0,0,.27,0,.89.89,0,0,0,.44-.06l.06,0h0l.08,0h0s0,0,0,0,0,0,0,0v0A.06.06,0,0,0,18.59,17.11Z"/><path class="cls-28" d="M48.39,8.66c.28-.19,1.27.4,1.94.84a4.65,4.65,0,0,0-.49-.59l-.08-.08-.13-.14-.13-.12-.1-.09a3.61,3.61,0,0,0-.3-.25L48.71,8l-.38-.23,0,0-.42-.21-.5-.2h0L47,7.18l-.47-.13a5.67,5.67,0,0,0-.62-.12l-.14,0-.52,0-.22,0c-.23,0-.46,0-.7,0H44s-.16-.24-.46-.63l-.34-.43L43,5.5,42.47,5a.46.46,0,0,1-.07-.07c0,.11.07.22.09.33.2.75-.18.77-.76.48l-.35-.2a18.13,18.13,0,0,1-1.92-1.44.08.08,0,0,0,0,0L39,3.66l.57.56a9,9,0,0,1,1.18,1.42c.23.36-.29.38-1.05.25-.37-.06-.79-.15-1.21-.25l-.08,0-.22,0h-.06c-.86-.23-1.65-.47-1.9-.54a12.26,12.26,0,0,1,3.37,2.06c1.38,1.2-.46,3.21-1.09,3.83a.57.57,0,0,0-.11.11l.28-.2a4.68,4.68,0,0,1,.46-.27,4.16,4.16,0,0,1,.6-.25h0a1.66,1.66,0,0,1,1.29.08c.72.41-1,1.77-2.42,2.74q.8-.36,1.59-.81c.27-.15.54-.32.81-.49l.62-.4.23-.16.76-.56s0,.11,0,.3,0,.22,0,.36,0,.44.08.72v0a.76.76,0,0,1,0,.15.59.59,0,0,1,0,.14s0,0,0,.06A2.84,2.84,0,0,1,43,12.1a1,1,0,0,1,.41-.49c1-.54,2.08,1.63,2.22,1.91-.06-.28-.45-2.09.15-2.42h0a.11.11,0,0,1,.08,0h0c.53,0,1.55,1.48,2.07,2.3.13.19.22.35.28.44l0,0a.58.58,0,0,0,0-.13c-.13-.4-.45-1.38-.66-2.24,0,0,0,0,0,0-.16-.68-.26-1.28-.12-1.42.36-.36,2,1.44,2,1.44S48,8.94,48.39,8.66Zm-24,.79h0l.71-.15c1.2-.23,2.26-.34,2.26-.34s-3.29-.44-3.74-.87c-.05-.05-.07-.1,0-.15A5.07,5.07,0,0,1,25,7h0l0,0,0,0h0c.81-.44,1.8-.88,2.33-1.1L27,5.91h0C26,6,24.61,6,24.14,5.51s.15-1.31.74-2.13A18.15,18.15,0,0,1,23,4.92l0,0c-.09.06-.2.11-.29.16a0,0,0,0,1,0,0,2.83,2.83,0,0,1-.55.21l-.23,0-.22,0a1.46,1.46,0,0,1-.29,0l-.47-.08-.4-.08-.43-.11L19.69,5l-.31-.1-.53-.2a4.6,4.6,0,0,1-.45-.23l-.06,0s0,0-.05,0l-.22-.16a.85.85,0,0,1-.17-.14,5.13,5.13,0,0,0,0,.52,1.41,1.41,0,0,0,0,.2c0,.1,0,.21,0,.33s0,.24,0,.37a4.61,4.61,0,0,0,.16.79,2,2,0,0,0,.08.26,2,2,0,0,0,.1.26,1.75,1.75,0,0,0,.11.24,2.6,2.6,0,0,0,.28.45c.06.06.11.13.18.19a.8.8,0,0,0,.17.15l-.15,0s0,0,0,0l-.25-.08-.26-.08-.31-.11-.33-.12-.42-.17-.06,0-.33-.15L16.79,7l-.17-.08-.16-.09-.28-.18a10,10,0,0,0,1.33,5.66l-.05.1-.11.24,0,0a2.62,2.62,0,0,1,.23.21,4.15,4.15,0,0,1,.4,2.32c0,.13,0,.26,0,.39a11.32,11.32,0,0,1-.18,1.52c0,.07,0,.15,0,.22a2.6,2.6,0,0,1-.33.89.53.53,0,0,1-.39.18c.13.37.23.69.31,1l.1.35,0,.12a0,0,0,0,1,0,0h0v0c0,.12.06.22.08.31v0h0a.07.07,0,0,0,0,0h0s0,0,0,.06h0a.25.25,0,0,1,0-.07h0a.13.13,0,0,1,0-.07h0a.77.77,0,0,1,.06-.15h0l.14-.34c0-.1.08-.2.12-.31s0,0,0,0l.09-.32c0-.09.05-.18.07-.27a.09.09,0,0,0,0-.05s0,0,0-.05c.13-.44.27-.93.43-1.44h0s0,0,0,0,0,0,0,0v0h0v0s0,0,0,0l.18-.57.15-.43L19,16a.49.49,0,0,0,.06-.17l.15-.4.06-.13a.61.61,0,0,1,.05-.12l.12-.33.13-.31,0-.05s0,0,0,0l.09-.21.16-.32,0-.06.25-.46,0,0h0v0h0a2.23,2.23,0,0,1,.2-.3l.11,0,.18.08.48.19h0l.21.08.11,0,.39.14.34.11.28.09c.51.16,1.1.33,1.76.49l.32.07.33.07.24.05h0l2.05.22s-5.83-3-5.29-4.1C22.22,10.09,23.28,9.71,24.4,9.45Zm26.33,8c-.23,0-.31-.2-.31-.55a7.49,7.49,0,0,1,.28-1.7h0l0-.11,0,0-.15.21A12.53,12.53,0,0,1,48,18.08a1.47,1.47,0,0,1-.69.27h0c-.82,0-2.55-1.64-3.55-2.65h0l-.43-.43a.1.1,0,0,0-.06,0,0,0,0,0,0,0,0c0,.2.09.41.14.62l0,.13.18.62.24.73.18.46h0a6.44,6.44,0,0,0,.3.65c.09.15.17.3.26.44l.15.23.17.22a1.63,1.63,0,0,0,.17.2l.18.18-.08.43v0l-.06.36c0,.1,0,.21,0,.32s0,.07,0,.11V21c0,.2,0,.4-.06.62s0,.27,0,.41,0,.26,0,.38a5.3,5.3,0,0,0,.09.91l.06.26a1.84,1.84,0,0,0,.09.25s0,0,0,0a1,1,0,0,0,.1.21,1.11,1.11,0,0,0,.29.35.84.84,0,0,0,.19.12.37.37,0,0,0,.25,0h0l.07,0h0l.07-.06.12-.14s0,0,0,0a5.63,5.63,0,0,0,.38-.89l0-.1a5.91,5.91,0,0,1,1.08-2l0,0a.34.34,0,0,1,.09-.08l.09-.08,0,0,.06,0a.66.66,0,0,1,.17-.12.19.19,0,0,1,.1-.05s0,0,0,0l.14-.08.07-.05.21-.15.16-.13a5.35,5.35,0,0,0,.53-.49,1.84,1.84,0,0,0,.23-.25,2,2,0,0,0,.19-.22c.12-.14.24-.3.36-.47l.25-.38s0,0,0-.06a5,5,0,0,0,.25-.46l.12-.25c0-.09.08-.18.11-.27a4.09,4.09,0,0,0,.18-.49c0-.05,0-.1,0-.14a4.74,4.74,0,0,0,.15-.57c0-.11.05-.22.07-.33s0-.23.05-.35,0-.48.06-.73C51.53,16,51.17,17.36,50.73,17.43Z"/><g class="cls-29"><path class="cls-26" d="M49.91,9.74c.8,1,1.79,2.53,1.42,3.88a.24.24,0,0,1-.44.06A10.63,10.63,0,0,1,50.25,12a8.53,8.53,0,0,0-1-1.82c-.24-.36.33-.81.61-.47Z"/><path class="cls-26" d="M49.2,11.63a2.53,2.53,0,0,1,1.12,1.74c.11.64.06,1.75-.74,1.93-1.44.33-1.35-2.53-1.18-3.34a.55.55,0,0,1,.8-.33Z"/><path class="cls-26" d="M46.5,12.16c.5.23.82,1.09,1,1.6a3.84,3.84,0,0,1-.15,2.15.2.2,0,0,1-.39,0c-.15-.65-.34-1.29-.43-1.95a4.47,4.47,0,0,1-.16-1.73.12.12,0,0,1,.18-.07Z"/><path class="cls-26" d="M44.38,12.72a2.11,2.11,0,0,0,0,.32l0,.56a3.78,3.78,0,0,1-.09,1,.22.22,0,0,1-.4,0,8.45,8.45,0,0,1-.62-1.9l.24.32L43.5,13a.66.66,0,0,1,.15-1.19c.5-.14,1.08.48.73,1Z"/><path class="cls-26" d="M39.16,5.7c-1.11,0-2.09-.62-3.12-1a10.72,10.72,0,0,0-3.6-.44.57.57,0,0,1-.4-1c1.86-2.06,6.53-1.13,7.77,1.24a.76.76,0,0,1-.65,1.13Z"/><path class="cls-26" d="M30.17,1.82a6.11,6.11,0,0,0-1,.63,4.21,4.21,0,0,1-.93.6c-.26.09-.41-.21-.32-.41.33-.78,1.42-1,2.17-1a.08.08,0,0,1,0,.15Z"/><path class="cls-26" d="M39.54,11.53c-2,2-5.67,3-8.47,3.07-.2,0-.26-.32-.05-.35a24.65,24.65,0,0,0,4.07-1c1.48-.55,2.79-1.41,4.23-2,.18-.07.38.13.22.29Z"/><path class="cls-26" d="M39.23,9.15c-2.49,2.92-9.66,3.78-12.9,1.95a.41.41,0,0,1,.1-.74C28.6,10,30.79,10.3,33,9.91c2-.37,3.88-1.44,5.88-1.65.49-.06.63.59.37.89Z"/><path class="cls-26" d="M24.31,11a1.74,1.74,0,0,0-.5-.08.81.81,0,0,1-.51-.07.3.3,0,0,1-.06-.45c.32-.31.93-.06,1.27.12a.26.26,0,0,1-.2.48Z"/><path class="cls-26" d="M34.27,6.87a6.14,6.14,0,0,1-1.49.18,15.54,15.54,0,0,0-2.51.6,6.91,6.91,0,0,1-3.83.41.6.6,0,0,1-.35-.87c1-1.54,2.94-1.82,4.65-2C32,5,34.19,4.71,34.58,6.32a.46.46,0,0,1-.31.55Z"/><path class="cls-26" d="M25.17,7.89a1.31,1.31,0,0,1-.47.16A2.26,2.26,0,0,1,24.26,8c-.17,0-.16-.25-.05-.33a2.06,2.06,0,0,1,.37-.23,1.09,1.09,0,0,1,.44,0c.26,0,.41.41.15.53Z"/></g><path class="cls-10" d="M35.24,40.72l-.1,0c.21.06-.41,1.64-.53,1.84a4.57,4.57,0,0,1-1.29,1.34,4.37,4.37,0,0,1-3.56.78,3.55,3.55,0,0,1-2-1.25,4,4,0,0,1-.58-2.72,12.88,12.88,0,0,0-2.41,4c-.44,1.31.16,5.2,2.14,4.23,1-.5,2-2.43,2.71-3.44,0,0,2.39,4.23,3.19,4.32,1.49.16,2.8-2,3.33-3.07.85-1.8,1-4.08-.48-5.6A1.93,1.93,0,0,0,35.24,40.72Z"/><path class="cls-7" d="M35.38,39.93l-.1,0c.22.07-.41,1.65-.53,1.85a4.57,4.57,0,0,1-1.29,1.34,4.34,4.34,0,0,1-3.55.77,3.45,3.45,0,0,1-2-1.24,4,4,0,0,1-.58-2.72,12.69,12.69,0,0,0-2.41,4c-.44,1.3.15,5.2,2.14,4.23,1-.5,2-2.43,2.71-3.45,0,0,2.38,4.24,3.18,4.33,1.5.16,2.81-2,3.33-3.07.86-1.81,1.05-4.08-.47-5.6A1.76,1.76,0,0,0,35.38,39.93Z"/><path class="cls-10" d="M33,47.76c2.55-.57,1.69-4.7,1.69-4.7s-1.27,2.39-4.9,1.27-2.56-3.84-2.46-4.45a4,4,0,0,0,.58,2.72,3.45,3.45,0,0,0,2,1.24,4.34,4.34,0,0,0,3.55-.77,4.57,4.57,0,0,0,1.29-1.34c.12-.2.75-1.78.53-1.85l.1,0a1.76,1.76,0,0,1,.41.35c1.52,1.52,1.33,3.79.47,5.6C35.74,47,34.43,49.11,32.93,49c-.28,0-.77-.6-1.28-1.31A2.08,2.08,0,0,0,33,47.76Z"/><path class="cls-10" d="M29.75,44.62c-.75,1-1.7,3-2.71,3.45-1.69.83-2.37-1.87-2.27-3.5a6.58,6.58,0,0,0,1.1,2.71C26.94,48.38,29.75,44.62,29.75,44.62Z"/><path class="cls-30" d="M39.49,25.24a2.74,2.74,0,0,1-.77,1.85,3.07,3.07,0,0,1-1.21.81A3.85,3.85,0,0,1,37,28a.69.69,0,0,1-.19,0,2,2,0,0,1-.7-.12,1.67,1.67,0,0,1-1-1.12,2.15,2.15,0,0,1,0-.79,5.56,5.56,0,0,1,.19-.64c.18-.34.31-.54.34-.52s-.4,1-.07,1.81a1.19,1.19,0,0,0,.79.71,1.35,1.35,0,0,0,.5,0,1.89,1.89,0,0,0,.53,0,2.74,2.74,0,0,0,1.06-.58C39.12,26.18,39.39,25.2,39.49,25.24Z"/><path class="cls-30" d="M24.25,23.52a2.72,2.72,0,0,1-.77,1.85,3.21,3.21,0,0,1-1.21.82l-.49.11h-.19a1.87,1.87,0,0,1-.7-.13,1.65,1.65,0,0,1-1-1.12,1.94,1.94,0,0,1,0-.79,3.13,3.13,0,0,1,.19-.63c.17-.34.3-.55.34-.53s-.41,1-.07,1.82a1.2,1.2,0,0,0,.78.71,1.52,1.52,0,0,0,.51,0,1.82,1.82,0,0,0,.52-.05,2.64,2.64,0,0,0,1.06-.57C23.88,24.47,24.15,23.49,24.25,23.52Z"/><path class="cls-16" d="M42.77,23.35s.6-.24.63-.26l2.55-1,1.44-.55.65-.25c.12-.05.47-.24.57-.19l.27.15a.68.68,0,0,0-.32-.68c-.19-.1-.39,0-.58.09l-1.24.43-4.25,1.45Z"/><path class="cls-31" d="M42.72,23.2l-.1-.31c1.58-.53,3.17-1.07,4.75-1.62.28-.1,1.29-.61,1.51-.21a.65.65,0,0,1,0,.14.29.29,0,0,0-.17-.05l-.1-.06c-.1-.05-.45.14-.57.19l-.25.1-.17.06-.07,0-.16.06c-.24.08-.47.18-.7.27L46.2,22l-.11,0-.14,0-1.67.66-.72.29h0l-.13.05s-.63.25-.63.26l0-.11Z"/><path class="cls-16" d="M31,23l.37-.78a5.74,5.74,0,0,0-4-.32l.3.81A4.94,4.94,0,0,1,31,23Z"/><path class="cls-31" d="M31,23a4.94,4.94,0,0,0-3.32-.29l-.13-.36a5.74,5.74,0,0,1,3.61.32Z"/><path class="cls-18" d="M42.53,23.05s-5.83-4.11-11.33-.43c0,0-.73,8.3,5.17,8.52S42.53,23.05,42.53,23.05Z"/><path class="cls-18" d="M34.28,21.3,37.61,31a6.11,6.11,0,0,1-1.24.1l-.5-.05-3.31-9.22A8.46,8.46,0,0,1,34.28,21.3Z"/><path class="cls-18" d="M38.38,21.33l2.52,7.36a5.82,5.82,0,0,1-1.28,1.43l-3.24-9A10.43,10.43,0,0,1,38.38,21.33Z"/><path class="cls-18" d="M31.18,23.77a10.86,10.86,0,0,1,0-1.15c5.5-3.68,11.33.43,11.33.43a10.79,10.79,0,0,1-.14,1.37A10.4,10.4,0,0,1,31.18,23.77Z"/><path class="cls-16" d="M42.89,22.79l-.14-.1-.26-.17c-1.2-.74-6.37-3.53-11.3-.39a2.12,2.12,0,0,0-.2.12l-.17.11v.21s0,.14,0,.32c0,1.08-.05,4.59,1.75,6.82a4.92,4.92,0,0,0,3.82,1.85h.24c5.44,0,6.22-7,6.32-8.29a1.6,1.6,0,0,0,0-.22v-.24Zm-3.42,6.92a4.28,4.28,0,0,1-1.76.87s0,0-.05,0l-.2.05a4.75,4.75,0,0,1-1.08.07,4.9,4.9,0,0,1-.67-.07h0a4,4,0,0,1-2.58-1.49A9,9,0,0,1,31.58,24h0c0-.5,0-.91,0-1.14a8.83,8.83,0,0,1,1.12-.61,9.25,9.25,0,0,1,1.72-.55,8.62,8.62,0,0,1,2.12-.17,10.49,10.49,0,0,1,2,.27,12.53,12.53,0,0,1,3.57,1.47A12.33,12.33,0,0,1,42,24.65a10.85,10.85,0,0,1-1.22,3.56l0,.05A5.15,5.15,0,0,1,39.47,29.71Z"/><path class="cls-31" d="M42.28,23A11.77,11.77,0,0,0,39,21.48l-.4-.1-.2,0a0,0,0,0,0,0,0l-.27-.06H38a5.4,5.4,0,0,0-.58-.09h-.31a2.73,2.73,0,0,0-.41,0h-.36l-.76,0c-.21,0-.43,0-.66.07s-.45.08-.67.14a7,7,0,0,0-1.71.6,8,8,0,0,0-1.13.63l-.16.11v.19a7.33,7.33,0,0,0,0,1,9.42,9.42,0,0,0,1.62,5.62,4.54,4.54,0,0,0,1.71,1.32l.34.13.35.1.15,0,.32.06.13,0,.52,0h.22l.33,0h.15A4.46,4.46,0,0,0,37.6,31L38,31l.26-.08h.06l.2-.08a2.87,2.87,0,0,0,.4-.18l.37-.22a2.71,2.71,0,0,0,.35-.24l0,0,.24-.2.06-.06.22-.22.07-.07a.69.69,0,0,0,.11-.13.46.46,0,0,1,.07-.07s0,0,0,0l.21-.26,0-.06c.08-.11.15-.23.22-.34h0a11.1,11.1,0,0,0,1.45-4.22c.1-.68.12-1.13.12-1.15v-.22Zm-1.55,5.25,0,.05a5.15,5.15,0,0,1-1.22,1.45,4.28,4.28,0,0,1-1.76.87s0,0-.05,0l-.2.05a4.75,4.75,0,0,1-1.08.07,4.9,4.9,0,0,1-.67-.07h0a4,4,0,0,1-2.58-1.49A9,9,0,0,1,31.58,24h0c0-.5,0-.91,0-1.14a8.83,8.83,0,0,1,1.12-.61,9.25,9.25,0,0,1,1.72-.55,8.62,8.62,0,0,1,2.12-.17,10.49,10.49,0,0,1,2,.27,12.53,12.53,0,0,1,3.57,1.47A12.33,12.33,0,0,1,42,24.65,10.85,10.85,0,0,1,40.73,28.21Z"/><path class="cls-18" d="M27.44,22.26S22,17.67,16.18,20.88c0,0-1.42,8.21,4.44,8.92S27.44,22.26,27.44,22.26Z"/><path class="cls-18" d="M19.36,19.82l2.5,10a5.74,5.74,0,0,1-1.24,0l-.49-.08L17.6,20.25A9,9,0,0,1,19.36,19.82Z"/><path class="cls-18" d="M23.44,20.19l1.9,7.55A5.82,5.82,0,0,1,24,29.06l-2.48-9.27A10.73,10.73,0,0,1,23.44,20.19Z"/><path class="cls-18" d="M16.06,22a10.77,10.77,0,0,1,.12-1.15c5.79-3.21,11.26,1.38,11.26,1.38s-.07.55-.26,1.35A10.42,10.42,0,0,1,16.06,22Z"/><path class="cls-16" d="M27.68,21.91l-.14-.11c-.81-.61-4.93-3.49-9.61-2.11h0l0,0a3.1,3.1,0,0,0-.4.13h0c-.21.07-.43.16-.64.25s-.52.25-.78.39l-.18.09,0,.22s0,.23-.08.55c0,.05,0,.1,0,.16s0,.09,0,.14a16.73,16.73,0,0,0,0,1.83c0,.29,0,.57.06.88h0A9.7,9.7,0,0,0,16,25.85a1.42,1.42,0,0,0,.05.22,6.38,6.38,0,0,0,.82,1.85.64.64,0,0,0,.08.14.86.86,0,0,0,.07.1,4.92,4.92,0,0,0,3.59,2.06l.24,0c5.3.43,6.71-6.09,7-7.63l0-.32v-.06h0v-.17Zm-3.85,6.73a4.16,4.16,0,0,1-2.07.75,5,5,0,0,1-1.09,0l-.4-.06-.14,0a.53.53,0,0,1-.12,0h0a4,4,0,0,1-2.33-1.54,1.67,1.67,0,0,1-.12-.16A4.86,4.86,0,0,1,17,26.4v0a3.83,3.83,0,0,1-.22-.65,8.81,8.81,0,0,1-.26-1.4q0-.34-.06-.66c0-.5,0-1,0-1.35,0,0,0,0,0-.06h0a.49.49,0,0,0,0-.12c0-.42.06-.76.09-1l.23-.11a6.68,6.68,0,0,1,.88-.38l.07,0h0l.4-.13a8.09,8.09,0,0,1,1.33-.28,9.37,9.37,0,0,1,2.12,0,9.9,9.9,0,0,1,2,.44A12.29,12.29,0,0,1,27,22.45c0,.28-.13.76-.27,1.34a10.87,10.87,0,0,1-1.52,3.46,6,6,0,0,1-.85,1A3.49,3.49,0,0,1,23.83,28.64Z"/><path class="cls-31" d="M27.19,22.14a12.09,12.09,0,0,0-3.75-1.94l-.13,0-.14,0L22.64,20h-.23s0,0,0,0h0l-.29-.05h-.15l-.27,0-.2,0-.17,0-.16,0H21a9,9,0,0,0-1.63.08,7.55,7.55,0,0,0-1.49.37h0l-.05,0-.06,0h0l-.12.05h-.05a5.27,5.27,0,0,0-.78.34,3,3,0,0,0-.36.18l-.16.09,0,.19s0,.26-.08.61a.77.77,0,0,1,0,.15,1.41,1.41,0,0,1,0,.2c0,.08,0,.17,0,.26h0c0,.22,0,.45,0,.71s0,.53,0,.83a.33.33,0,0,0,0,.1c0,.25,0,.51.08.77s.1.61.17.91l.09.36a7.19,7.19,0,0,0,.5,1.26,5.48,5.48,0,0,0,.31.52l0,.06a4.41,4.41,0,0,0,1.83,1.52l.17.07.17.06a1.35,1.35,0,0,0,.34.11h0l.12,0,.18,0a1.93,1.93,0,0,0,.36.06h0l.12,0,.23,0H22l.25,0a2.59,2.59,0,0,0,.4-.09l.19-.06.14-.05.37-.15a5.42,5.42,0,0,0,.48-.26l.11-.07L24,29l.16-.11.06,0a1.25,1.25,0,0,0,.19-.15l.21-.19c.13-.12.26-.26.39-.4l0,0,.08-.1a.94.94,0,0,1,.09-.12.12.12,0,0,1,.05-.05s0,0,0,0,0,0,0,0h0a11.17,11.17,0,0,0,1.78-4.1h0a10.5,10.5,0,0,0,.22-1.12l0-.23Zm-2,5.11a6,6,0,0,1-.85,1,3.49,3.49,0,0,1-.53.42,4.16,4.16,0,0,1-2.07.75,5,5,0,0,1-1.09,0l-.4-.06-.14,0a.53.53,0,0,1-.12,0h0a4,4,0,0,1-2.33-1.54,1.67,1.67,0,0,1-.12-.16A4.86,4.86,0,0,1,17,26.4v0a3.83,3.83,0,0,1-.22-.65,8.81,8.81,0,0,1-.26-1.4q0-.34-.06-.66c0-.5,0-1,0-1.35,0,0,0,0,0-.06h0a.49.49,0,0,0,0-.12c0-.42.06-.76.09-1l.23-.11a6.68,6.68,0,0,1,.88-.38l.07,0h0l.4-.13a8.09,8.09,0,0,1,1.33-.28,9.37,9.37,0,0,1,2.12,0,9.9,9.9,0,0,1,2,.44A12.29,12.29,0,0,1,27,22.45c0,.28-.13.76-.27,1.34A10.87,10.87,0,0,1,25.21,27.25Z"/><path class="cls-21" d="M31.7,30.21a1.07,1.07,0,0,1,.07.68,2.44,2.44,0,0,1-.67,1.38,2.77,2.77,0,0,1-1.36.78,2.73,2.73,0,0,1-.71.1,2.78,2.78,0,0,1-.72-.1A2.25,2.25,0,0,1,27,32.17a2,2,0,0,1-.36-1.5c.08-.42.25-.65.28-.63s0,.27,0,.65a2,2,0,0,0,.47,1.21,1.85,1.85,0,0,0,1.1.59,2.51,2.51,0,0,0,.58,0,2.68,2.68,0,0,0,.6,0A2.42,2.42,0,0,0,30.79,32a2.39,2.39,0,0,0,.74-1.11C31.64,30.48,31.65,30.22,31.7,30.21Z"/><path class="cls-21" d="M30,34.4c.08,0-.08.38-.44.51a1,1,0,0,1-.51.06.9.9,0,0,1-.25,0,.84.84,0,0,1-.19-.16,1,1,0,0,1-.27-.43c-.13-.36,0-.7.11-.67s.12.3.28.47a1.62,1.62,0,0,0,.73.35C29.74,34.5,30,34.35,30,34.4Z"/><path class="cls-2" d="M22.42,42.23s1,9.73,6.81,13.19c0,0,9.29-6.92,10.7-13.4a5.29,5.29,0,0,1,5.51,1.62S39.82,55.2,29.12,57c0,0-8.1-1.3-10.7-13.08C18.42,44,20.37,41.58,22.42,42.23Z"/><path class="cls-4" d="M35.1,54.26c-2,.2,3.36-4.69,3.36-4.69s-4,3.52-5.35,3.52c-.28,0-.31-.28-.19-.69a46.47,46.47,0,0,1-3.54,3,10.72,10.72,0,0,1-3.3-3.2c.12.61.15,1,0,1.12-.71.41-3.87-4.79-3.87-4.79s2.24,4.94,1.78,5.2c-.24.14-1.39-1.16-2.41-2.41,3.35,5,7.69,5.7,7.69,5.7a18.88,18.88,0,0,0,7.93-3.47A8.61,8.61,0,0,1,35.1,54.26Z"/><g class="cls-5"><path class="cls-32" d="M37.3,50.37a10.31,10.31,0,0,1-1.62,2c-.89.91-1.87,1.72-1.87,1.72s-1,.77-2.11,1.42a10.73,10.73,0,0,1-2.27,1.13c0-.06,1.06-.68,2.09-1.4s2-1.52,2-1.52,1-.75,1.94-1.59S37.25,50.33,37.3,50.37Z"/><path class="cls-32" d="M39.42,47.09a7.72,7.72,0,0,1,.72-1.2c.36-.58.67-1.2.67-1.2s.35-.58.66-1.21a9.26,9.26,0,0,1,.61-1.25,3.63,3.63,0,0,1-.31,1.38,12.26,12.26,0,0,1-.55,1.31,11.31,11.31,0,0,1-.81,1.17A4.37,4.37,0,0,1,39.42,47.09Z"/><path class="cls-32" d="M37.79,50.35a17.67,17.67,0,0,1,1.65-1.64C40.28,47.91,41,47,41,47a15.07,15.07,0,0,0,1.44-1.78c.65-.95,1.05-2,1.12-2a6.23,6.23,0,0,1-.84,2.18,13.53,13.53,0,0,1-1.37,1.92A21.14,21.14,0,0,1,39.67,49,12.34,12.34,0,0,1,37.79,50.35Z"/><path class="cls-32" d="M27.86,55.9a7.21,7.21,0,0,1-1.7-1.29A14.92,14.92,0,0,1,24.71,53a15.55,15.55,0,0,1-1.13-1.82,7.23,7.23,0,0,1-.78-2c.06,0,.51.93,1.07,1.82s1.21,1.71,1.21,1.71.61.85,1.31,1.63S27.9,55.85,27.86,55.9Z"/><path class="cls-32" d="M22.2,48.27a4.84,4.84,0,0,1-.8-1.37,11.3,11.3,0,0,1-.52-1.51,12,12,0,0,1-.2-1.58,4.74,4.74,0,0,1,.11-1.59A12.75,12.75,0,0,1,21,43.77a15,15,0,0,0,.33,1.52,13.6,13.6,0,0,0,.38,1.49A14.52,14.52,0,0,1,22.2,48.27Z"/><path class="cls-32" d="M20.19,46.84a7,7,0,0,1-.81-3.55A9.12,9.12,0,0,1,20,45,9.23,9.23,0,0,1,20.19,46.84Z"/></g><path class="cls-33" d="M31.25,56.42a2.2,2.2,0,1,1-2.19-2.2A2.19,2.19,0,0,1,31.25,56.42Z"/><path class="cls-34" d="M30.85,55.16a2.12,2.12,0,0,1,0,.44,2.18,2.18,0,0,1-4,1.26,2.19,2.19,0,1,0,3.94-1.7Z"/><g class="cls-23"><path class="cls-2" d="M40.3,43.83a8.61,8.61,0,0,1-1,2.28A24.35,24.35,0,0,1,38,48.24s-.76,1-1.62,1.89S34.82,52,34.76,52a6.12,6.12,0,0,1,1.29-2.13c.77-1,1.46-2,1.46-2s.75-1,1.43-2A24.16,24.16,0,0,1,40.3,43.83Z"/><path class="cls-2" d="M40.57,46.45c-.07-.06.14-.45.34-.85l.39-.78.5-.72c.24-.37.49-.74.57-.71s0,.48-.18.91a8.82,8.82,0,0,1-.35.84,8.2,8.2,0,0,1-.57.71C41,46.2,40.64,46.5,40.57,46.45Z"/><path class="cls-2" d="M42.43,47.74a4.92,4.92,0,0,1-1,1.46,15.55,15.55,0,0,1-1.29,1.26,16.1,16.1,0,0,1-1.52,1,4.88,4.88,0,0,1-1.67.69,10.37,10.37,0,0,1,1.43-1.07C39,50.54,39.7,50,39.7,50s.7-.51,1.37-1.09A9.37,9.37,0,0,1,42.43,47.74Z"/><path class="cls-2" d="M23.82,52.89a3.68,3.68,0,0,1-1.44-1.68,19.77,19.77,0,0,1-.9-2A37.62,37.62,0,0,1,20.26,45a38.41,38.41,0,0,1,1.8,4s.32,1.05.72,2A12.25,12.25,0,0,0,23.82,52.89Z"/><path class="cls-2" d="M23.38,49.26c-.07.05-.41-.39-.68-.87a9.19,9.19,0,0,1-.49-1A10.26,10.26,0,0,1,22,46.32a2.32,2.32,0,0,1,0-1.12c.09,0,.25.51.43,1s.39,1,.39,1,.14.51.3,1S23.46,49.22,23.38,49.26Z"/></g></g></g></g></svg>