<svg xmlns="http://www.w3.org/2000/svg" viewBox="0 0 58.83 85.03"><defs><style>.cls-1{isolation:isolate;}.cls-2{fill:#fff;}.cls-14,.cls-3,.cls-9{fill:#d3dbfd;}.cls-13,.cls-20,.cls-29,.cls-3,.cls-32{opacity:0.5;}.cls-11,.cls-13,.cls-15,.cls-17,.cls-19,.cls-23,.cls-27,.cls-29,.cls-3,.cls-31,.cls-33,.cls-6,.cls-8,.cls-9{mix-blend-mode:multiply;}.cls-32,.cls-4{fill:#294168;}.cls-5,.cls-6{fill:#88ac76;}.cls-6{opacity:0.34;}.cls-7,.cls-8{fill:#212f47;}.cls-11,.cls-17,.cls-8{opacity:0.45;}.cls-10,.cls-11,.cls-12,.cls-27{fill:#3c1d91;}.cls-12,.cls-20,.cls-21,.cls-24,.cls-25,.cls-28,.cls-30,.cls-32{mix-blend-mode:screen;}.cls-16,.cls-17,.cls-19,.cls-21{fill:#ebd0a6;}.cls-18{fill:#de9168;}.cls-19{opacity:0.62;}.cls-22,.cls-23,.cls-24{fill:#6f3a1e;}.cls-23,.cls-31{opacity:0.25;}.cls-25{fill:#f8e9d0;}.cls-26,.cls-28,.cls-29{fill:#a95913;}.cls-30{opacity:0.35;}.cls-31{fill:#e28c89;}.cls-33{opacity:0.72;}</style></defs><title>thinkРесурс 9</title><g class="cls-1"><g id="Слой_2" data-name="Слой 2"><g id="OBJECTS"><path class="cls-2" d="M51.75,72.7s3,3,5.81-.19.59-21.36-3.64-26.57S50.27,69.85,51.75,72.7Z"/><path class="cls-3" d="M51.75,72.7s3,3,5.81-.19.59-21.36-3.64-26.57S50.27,69.85,51.75,72.7Z"/><path class="cls-4" d="M32.24,85a20,20,0,0,1,3.5-1.21c.69-.17,1.42-.33,2.16-.46l.6-.1c.67-.11,1.34-.19,2-.25l.23,0c.55,0,1.1-.08,1.63-.09h.36a12.85,12.85,0,0,1,4.33.58,3.56,3.56,0,0,1,1.18.71,1.1,1.1,0,0,1,.21.22l.15.21a1.52,1.52,0,0,1,.16.42H42.22c-.3,0-.6,0-.92,0h0A1.43,1.43,0,0,1,41,85Z"/><path class="cls-5" d="M32.24,85a20,20,0,0,1,3.5-1.21c.69-.17,1.42-.33,2.16-.46l.6-.1c.67-.11,1.34-.19,2-.25l.23,0c.55,0,1.1-.08,1.63-.09h.36a12.85,12.85,0,0,1,4.33.58,3.56,3.56,0,0,1,1.18.71,1.1,1.1,0,0,1,.21.22l.15.21a1.52,1.52,0,0,1,.16.42H42.22c-.3,0-.6,0-.92,0h0A1.43,1.43,0,0,1,41,85Z"/><path class="cls-6" d="M48.75,85H42.22c-.3,0-.6,0-.92,0h0A1.43,1.43,0,0,1,41,85H32.24a20,20,0,0,1,3.5-1.21c.69-.17,1.42-.33,2.16-.46l.6-.1c.67-.11,1.34-.19,2-.25l.23,0c.55,0,1.1-.08,1.63-.09h.36a12.85,12.85,0,0,1,4.33.58,3.56,3.56,0,0,1,1.18.71,1.1,1.1,0,0,1,.21.22l.15.21A1.52,1.52,0,0,1,48.75,85Z"/><path class="cls-7" d="M49,85H42.22c-.3,0-.6,0-.92,0h0A1.43,1.43,0,0,1,41,85H32.89l1-.09L35,84.84l1.32-.08.65,0,1.09,0h.44l.35,0,.58,0h.41l.62,0h.24l.62,0h.71l.6,0,2.17,0h.35l.76,0h2.54a1.54,1.54,0,0,1,.24.27l.16.2s0,0,0,0h0l.06.1Z"/><path class="cls-8" d="M49,85H42.22c-.3,0-.6,0-.92,0h0A1.43,1.43,0,0,1,41,85H32.89l1-.09L35,84.84l1.32-.08.65,0,1.09,0,.29,0h.15l.35,0,.58,0h.11l.3,0,.62,0h.24l.62,0h.71l.6,0,2.17,0h.35l.76,0h2.19l.47.2.12.06.16.2s0,0,0,0a.86.86,0,0,1,.07.1Z"/><path class="cls-2" d="M54.73,50c-.06,1.29-.17,2.57-.29,3.86q-.31,3.28-.71,6.57h0c-.09.68-.17,1.34-.26,2q-.42,3.32-.89,6.62l-.51,3.6c0,.1,0,.19,0,.29l-.12.85c0,.18,0,.36-.08.54-.2,1.38-.41,2.75-.61,4.13h0l-.63,4.23c-.05.29-.08.58-.13.88,0,.15,0,.29-.07.44a4.93,4.93,0,0,1-.26,1l0,0H42.22c-.3,0-.6,0-.92,0h0A1.43,1.43,0,0,1,41,85H28.13A12.19,12.19,0,0,1,28,82.1c0-.4-.05-.8-.07-1.2s-.06-.8-.1-1.2-.08-.8-.13-1.2l-.15-1.19A100.12,100.12,0,0,0,24,61.12c-.1-.25-.19-.52-.28-.79s-.17-.55-.24-.84c-.13-.48-.25-1-.35-1.5,0,0,0-.06,0-.09,0-.19-.08-.39-.11-.59s-.09-.56-.13-.85-.08-.55-.11-.82-.07-.6-.1-.91-.07-.75-.1-1.12-.06-.83-.09-1.24c-.14-2.55-.12-4.89-.08-6.28,0-.14,0-.27,0-.39,0-.41,0-.7,0-.84a.62.62,0,0,0,0-.09C24.8,43.18,31,41.9,33.78,41.38l.74-.13h0l.65-.11h1.66c1.31,0,2.78,0,4.3.11l1.82.15h.28l.38,0h0l.2,0h0l.45.06a26.86,26.86,0,0,1,3,.58,11.06,11.06,0,0,1,6,3.24A6.48,6.48,0,0,1,54.73,50Z"/><path class="cls-3" d="M54.73,50c-.06,1.29-.17,2.57-.29,3.86q-.31,3.28-.71,6.57h0c-.09.68-.17,1.34-.26,2q-.42,3.32-.89,6.62l-.51,3.6c0,.1,0,.19,0,.29l-.12.85c0,.18,0,.36-.08.54-.2,1.38-.41,2.75-.61,4.13h0l-.63,4.23c-.05.29-.08.58-.13.88,0,.15,0,.29-.07.44a4.93,4.93,0,0,1-.26,1l0,0H42.22c-.3,0-.6,0-.92,0h0A1.43,1.43,0,0,1,41,85H28.13A12.19,12.19,0,0,1,28,82.1c0-.4-.05-.8-.07-1.2s-.06-.8-.1-1.2-.08-.8-.13-1.2l-.15-1.19A100.12,100.12,0,0,0,24,61.12c-.1-.25-.19-.52-.28-.79s-.17-.55-.24-.84c-.13-.48-.25-1-.35-1.5,0,0,0-.06,0-.09,0-.19-.08-.39-.11-.59s-.09-.56-.13-.85-.08-.55-.11-.82-.07-.6-.1-.91-.07-.75-.1-1.12-.06-.83-.09-1.24c-.14-2.55-.12-4.89-.08-6.28,0-.14,0-.27,0-.39,0-.41,0-.7,0-.84a.62.62,0,0,0,0-.09C24.8,43.18,31,41.9,33.78,41.38l.74-.13h0l.65-.11h1.66c1.31,0,2.78,0,4.3.11l1.82.15h.28l.38,0h0l.2,0h0l.45.06a26.86,26.86,0,0,1,3,.58,11.06,11.06,0,0,1,6,3.24A6.48,6.48,0,0,1,54.73,50Z"/><path class="cls-3" d="M28.13,85A12.19,12.19,0,0,1,28,82.1c0-.4-.05-.8-.07-1.2s-.06-.8-.1-1.2-.08-.8-.13-1.2l-.15-1.19A100.12,100.12,0,0,0,24,61.12c-.1-.25-.19-.52-.28-.79s-.17-.55-.24-.84c-.13-.48-.25-1-.35-1.5,0,0,0-.06,0-.09,0-.19-.08-.39-.11-.59s-.09-.56-.13-.85-.08-.55-.11-.82-.07-.6-.1-.91-.07-.75-.1-1.12a5.49,5.49,0,0,1,3.1.69,19.55,19.55,0,0,0,.11,2c.48,6.09,2.62,24,9,27.07q.48.23,1,.42a17.09,17.09,0,0,0,2.63.85h0l.61.13h0c.28,0,.55.1.82.13h0l.64.06a.86.86,0,0,0,.22,0H28.13Z"/><path class="cls-3" d="M51.22,78.48l-.63,4.23c-.05.29-.08.58-.13.88,0,.15,0,.29-.07.44a4.93,4.93,0,0,1-.26,1,0,0,0,0,0,0,0h-7.9A10.72,10.72,0,0,0,45,84.45h0a9,9,0,0,0,2-1A11.84,11.84,0,0,0,51.22,78.48Z"/><path class="cls-3" d="M33.56,47.56V47.5A.18.18,0,0,1,33.56,47.56Z"/><path class="cls-9" d="M40.73,83c0-.28,0-.6,0-.92,0-.48,0-1,0-1.31a2.8,2.8,0,0,0,0-.59,2.72,2.72,0,0,0-.06.6c0,.35,0,.82-.06,1.3,0,.33,0,.65,0,.94,0,.55,0,1,0,1s0,.25,0,.63V85h.22c0-.16,0-.31,0-.44,0-.37,0-.62,0-.62S40.74,83.52,40.73,83Z"/><path class="cls-3" d="M43.67,76.66c0-.36-.08-.71-.13-1.08q-.26-1.8-.45-3.6c-.37-3.66-1.88-15.37-2.49-20h0v0c-.14-1.07-.22-1.77-.24-1.9a2.44,2.44,0,0,0,.49-.32,2.94,2.94,0,0,0,.72-.88A3.79,3.79,0,0,0,42,47.35a.28.28,0,0,0,0-.06,13.71,13.71,0,0,0-.93-1.37,0,0,0,0,1,0,0,4,4,0,0,0-.37-.45,4.6,4.6,0,0,0-.39-.38,2.83,2.83,0,0,0-.48-.34h0a.91.91,0,0,0-.35-.09h0a.3.3,0,0,0-.13,0,1.2,1.2,0,0,0-.24.06h0l-.12,0a0,0,0,0,0,0,0,1.45,1.45,0,0,0-.29.13,4,4,0,0,0-2,2.58,1.13,1.13,0,0,0,0,.26,9,9,0,0,0,.82,1.21h0c.15.18.32.37.5.55a3.15,3.15,0,0,0,.83.59c-1.1,6.81-2,13.67-2.56,20.54-.37,4.7-.85,8.87,1.67,12.73a12.08,12.08,0,0,0,1,1.29l.08.1,0,.06h0l.18.22H41l.34-.47a17.11,17.11,0,0,0,1-1.66,16.33,16.33,0,0,0,1-2.11A9.18,9.18,0,0,0,43.67,76.66Z"/><path class="cls-10" d="M44,75.33,44,74.85h0c-.14-1-.28-2.07-.38-3.11-.29-2.84-1.26-10.55-2-16,0-.31-.08-.61-.11-.9h0a.77.77,0,0,1,0-.15c-.07-.54-.14-1.06-.2-1.53s-.11-.85-.16-1.21c0-.16,0-.31-.05-.44,0-.33-.08-.61-.11-.85s0-.2,0-.29,0-.17,0-.24,0-.18,0-.24,0-.05,0-.07a0,0,0,0,0,0,0,2.26,2.26,0,0,0,.42-.26l.27-.24a2.62,2.62,0,0,0,.22-.25,3.56,3.56,0,0,0,.58-1.17,0,0,0,0,0,0,0,3.81,3.81,0,0,0,.1-.45c0-.2,0-.32,0-.32l-.15-.24h0c-.09-.14-.2-.32-.35-.53L42,46.19a6.33,6.33,0,0,0-1.32-1.5l-.07,0h0a1.69,1.69,0,0,0-.38-.19.27.27,0,0,0-.12,0,.57.57,0,0,0-.22,0l-.28.06h-.06l-.06,0-.22.11h-.05l-.13.08-.07,0a0,0,0,0,0,0,0,2.31,2.31,0,0,0-.28.19l-.15.12a3.64,3.64,0,0,0-.53.51l-.24.28-.13.18a1.58,1.58,0,0,0-.15.24,1.1,1.1,0,0,0-.14.26,1.78,1.78,0,0,0-.12.29,1.4,1.4,0,0,0-.08.66l.16.27a7.21,7.21,0,0,0,.61.87v0c.1.13.22.26.34.39l.07.07.12.12.2.18a2.92,2.92,0,0,0,.64.44c-1.09,6.8-2,13.66-2.55,20.53-.24,3.09-.53,6,0,8.65,0,.17.07.33.11.49s.08.32.13.48.11.37.17.55l.14.39a9.57,9.57,0,0,0,.41.94,9.27,9.27,0,0,0,.51.92c.09.16.19.31.29.46s.13.19.19.28c.23.32.48.64.76,1l.11.12h0l.27.31h0l.07.09H41a1.43,1.43,0,0,0,.29,0h0l.35-.48h0q.28-.39.54-.81a9,9,0,0,0,.5-.85l.21-.37c.23-.44.44-.88.62-1.32.1-.22.18-.44.26-.66A10.5,10.5,0,0,0,44,75.33Z"/><path class="cls-11" d="M43.8,80.52c-.08.22-.16.44-.26.66-.18.44-.39.88-.62,1.32l-.2.37h0a9,9,0,0,1-.5.85q-.26.42-.54.81h0l-.35.48h0A1.43,1.43,0,0,1,41,85H39.91l-.07-.09h0l-.27-.31h0l-.11-.12c-.28-.32-.53-.64-.76-1-.06-.09-.13-.18-.19-.28s-.2-.3-.29-.46a9.27,9.27,0,0,1-.51-.92,9.57,9.57,0,0,1-.41-.94l-.14-.39c-.06-.18-.12-.36-.17-.55s-.09-.32-.13-.48-.07-.32-.11-.49c-.54-2.69-.25-5.56,0-8.65.54-6.87,1.46-13.73,2.55-20.53a2.92,2.92,0,0,1-.64-.44l-.2-.18-.12-.12L38.25,49c-.12-.13-.24-.26-.34-.39v0a7.21,7.21,0,0,1-.61-.87l-.16-.27a1.4,1.4,0,0,1,.08-.66,1.78,1.78,0,0,1,.12-.29,1.1,1.1,0,0,1,.14-.26,1.58,1.58,0,0,1,.15-.24l.13-.18.24-.28a3.64,3.64,0,0,1,.53-.51l.17-.07.57-.26.09,0,0,0A7.46,7.46,0,0,0,39,46.05a5.6,5.6,0,0,0-.1,1.36,2.52,2.52,0,0,0,.15.79,1.33,1.33,0,0,0,.41.62,1.36,1.36,0,0,0,.34.21,1.55,1.55,0,0,0,.94.11,2.71,2.71,0,0,0,.88-.32,3.74,3.74,0,0,0,.55-.36,3.28,3.28,0,0,1-.34.55,2.62,2.62,0,0,1-.22.25l-.27.24a2.26,2.26,0,0,1-.42.26,0,0,0,0,1,0,0s0,0,0,.07,0,.14,0,.24,0,.15,0,.24,0,.19,0,.29.06.52.11.85c0,.13,0,.28.05.44,0,.36.1.77.16,1.21s.13,1,.2,1.53c0,0,0,.09,0,.14h0c0,.29.07.59.11.9-.16-.71-.37-1.56-.58-2.35a.25.25,0,0,1,0-.07c-.14-.5-.28-1-.42-1.36l0-.08c-.24-.63-.46-1-.63-.91-.66.39-3.35,21.94-.92,26.94,2,4.15,3.86,2.26,4.65-1.21a15.89,15.89,0,0,0,.3-1.81l.06.48A10.5,10.5,0,0,1,43.8,80.52Z"/><path class="cls-12" d="M41.24,47.49a2,2,0,0,0-.34-.75c-.26-.33-.65-.47-.68-.4s.23.3.35.6a2,2,0,0,1,.14.62,1.76,1.76,0,0,1,0,.63,2.5,2.5,0,0,1-.16.57h0s0,.08,0,.1h0a1,1,0,0,0,.5-.58A2,2,0,0,0,41.24,47.49ZM43,74.54s-.06-.61-.17-1.21a3.62,3.62,0,0,0-.31-1.19,3.84,3.84,0,0,0-.07,1.22c0,.61,0,1.21,0,1.21s.07.6.13,1.2a3.82,3.82,0,0,0,.21,1.2,3.64,3.64,0,0,0,.18-1.21C43,75.15,43,74.54,43,74.54ZM41.68,62.21s-1.06-8.84-1.21-8.84.68,8.9.68,8.9,1.06,8.84,1.21,8.84S41.68,62.21,41.68,62.21Z"/><g class="cls-13"><path class="cls-14" d="M46.35,44c.42,1,1.72,1.67,2.4,2.49s1.5,2,2.18,3a.25.25,0,0,0,.45-.06,4.21,4.21,0,0,0-1-4.41c-.83-1-2.55-2.29-3.91-1.65a.45.45,0,0,0-.16.61Z"/></g><g class="cls-13"><path class="cls-14" d="M31.83,85h-2a5.41,5.41,0,0,1-1.13-4.09.32.32,0,0,1,.59-.08,15.2,15.2,0,0,0,1.08,2.79A6.09,6.09,0,0,0,31.83,85Z"/></g><g class="cls-13"><path class="cls-14" d="M49.89,82.12a4.37,4.37,0,0,1-1,2.73s0,0,0,0l-.12.15H47.28a5.46,5.46,0,0,0,.55-.43l.19-.19a1.51,1.51,0,0,0,.21-.23,12.46,12.46,0,0,0,1.4-2.11A.14.14,0,0,1,49.89,82.12Z"/></g><g class="cls-15"><path class="cls-14" d="M52.76,66.72a2.08,2.08,0,0,1,0-.41c0-.26.07-.63.11-1.08.1-.89.23-2.08.34-3.28.21-2.38.29-4.78.29-4.78s.12-2.39,0-4.78c0-1.2-.11-2.4-.19-3.29,0-.45-.08-.82-.1-1.08a2.51,2.51,0,0,1,0-.41,2.43,2.43,0,0,1,.07.4c0,.26.11.63.16,1.08.11.89.21,2.09.27,3.29.12,2.4,0,4.8,0,4.8s-.11,2.4-.37,4.79c-.14,1.19-.29,2.38-.42,3.27-.06.45-.13.82-.17,1.08A1.78,1.78,0,0,1,52.76,66.72Z"/></g><path class="cls-14" d="M44.8,54.39l7.48-.28s-.57,8.34-4,7.62S44.8,54.39,44.8,54.39Z"/><path class="cls-16" d="M35.06,38.68l.21,4.2s2.78,3.16,7.91.53L43,38.68S37,36.23,35.06,38.68Z"/><path class="cls-17" d="M43.11,41.86c-4.6,4.5-8.25-3.4-6-1.92,1.88,1.25,5,0,5.92-.44v-.16l0-.51a.77.77,0,0,0-.19-.22c-.29-.11-.93-.34-1.72-.55s-1.93-.26-2.81-.46a5.73,5.73,0,0,0-.93,0h0l-.41.06h0a2.6,2.6,0,0,0-.4.1H36.4l-.32.12L36,38a1.74,1.74,0,0,0-.33.18l0,0-.26.2-.07.06a1.6,1.6,0,0,0-.25.27h0l.21,4.2s2.78,3.16,7.91.53Z"/><path class="cls-16" d="M52.16,20.56a2.1,2.1,0,0,1,2.9-.65c2,1.3,1,8.11-1.7,8S51.69,20.42,52.16,20.56Z"/><path class="cls-17" d="M52.16,20.56a2.1,2.1,0,0,1,2.9-.65c2,1.3,1,8.11-1.7,8S51.69,20.42,52.16,20.56Z"/><path class="cls-18" d="M54.62,25.89c0-.05-.2,0-.43-.06a.46.46,0,0,1-.29-.24.76.76,0,0,1,0-.45.9.9,0,0,1,.25-.38c.1-.1.24-.13.42-.28a.82.82,0,0,0,.17-1,1.11,1.11,0,0,0-.14-.21,1.09,1.09,0,0,0-.25-.2l-.2-.09s0,0,0,0l0,0s0-.07,0-.12,0-.12,0-.18a2.45,2.45,0,0,1,.28-.72c.27-.46.66-.63.65-.7s-.47,0-.87.44a2.33,2.33,0,0,0-.48.84l-.06.23c0,.09,0,.13,0,.26s0,.43,0,.59a1.5,1.5,0,0,1,.38,0,.31.31,0,0,1,.1,0l.11.11a.46.46,0,0,1,.06.1s0,0,0,0-.23.17-.4.36a1.47,1.47,0,0,0-.35.73,1.13,1.13,0,0,0,.15.8.6.6,0,0,0,.51.25C54.47,26.09,54.63,25.93,54.62,25.89Z"/><path class="cls-19" d="M53.36,27.93c-2.68-.08-1.67-7.51-1.2-7.37a2.51,2.51,0,0,1,1.52-1,4.83,4.83,0,0,0,.18,2.76s.71-1.12,1.08-.75-.2,2.18.61,2.35c.26.06.42-.14.53-.44C55.92,25.67,54.93,28,53.36,27.93Z"/><g class="cls-20"><path class="cls-21" d="M55.86,21.42c.11.38.06.76-.11.85s-.41-.15-.52-.53-.07-.76.11-.85S55.74,21,55.86,21.42Z"/><path class="cls-21" d="M55.17,20.32a.31.31,0,0,1-.13.34.19.19,0,0,1-.29-.09.31.31,0,0,1,.13-.35A.19.19,0,0,1,55.17,20.32Z"/></g><path class="cls-16" d="M22.2,20.76C22,14.67,24.5,4.79,37.33,4.7S52.17,18.75,52.17,18.75a38.45,38.45,0,0,1,1.19,9.18c-.15,4-2.22,9.89-11.45,10.84s-16.35-2.93-18-8.61a4.74,4.74,0,0,1-4.36-3.8C18.9,23.74,20.33,21.08,22.2,20.76Z"/><g class="cls-15"><path class="cls-17" d="M22.2,20.76A19.46,19.46,0,0,1,23,14.63,15.67,15.67,0,0,1,25,10.25C23.19,13.36,22.86,18,23,20.86a7.94,7.94,0,0,1-.81-.09Z"/><path class="cls-17" d="M20.52,21.8a5.41,5.41,0,0,0-.39,3.65,4.74,4.74,0,0,0,4.36,3.81c1.66,5.67,8.77,9.55,18,8.6,4.86-.49,7.74-2.37,9.39-4.62-1.52,2.64-4.48,5-10,5.53-9.24.95-16.35-2.93-18-8.61a4.74,4.74,0,0,1-4.36-3.8A5.23,5.23,0,0,1,20.52,21.8Z"/></g><path class="cls-22" d="M46.65,24c0,1.22.51,2.21,1.19,2.21s1.26-1,1.28-2.2-.52-2.22-1.2-2.22S46.67,22.78,46.65,24Z"/><path class="cls-23" d="M47.35,22.05a3.64,3.64,0,0,0-.15,1c0,1.22.51,2.21,1.2,2.22A.86.86,0,0,0,49,25c-.21.73-.64,1.24-1.13,1.24-.68,0-1.22-1-1.19-2.21A2.77,2.77,0,0,1,47.35,22.05Z"/><path class="cls-24" d="M48.88,23.62c0,.42-.13.78-.34.8s-.41-.3-.44-.72.12-.78.34-.8S48.85,23.21,48.88,23.62Z"/><path class="cls-24" d="M48,22.51a.16.16,0,1,0,.32,0,.16.16,0,0,0-.15-.17A.18.18,0,0,0,48,22.51Z"/><path class="cls-22" d="M32.11,25.05c.13,1.21.79,2.13,1.47,2.05s1.12-1.13,1-2.35-.8-2.13-1.48-2.05S32,23.83,32.11,25.05Z"/><path class="cls-23" d="M32.51,23.08a4.27,4.27,0,0,0,0,.8c.14,1.21.8,2.13,1.48,2.05a.91.91,0,0,0,.57-.37c-.08.84-.46,1.48-1,1.54-.68.08-1.34-.84-1.47-2.05A2.8,2.8,0,0,1,32.51,23.08Z"/><path class="cls-24" d="M34.17,24.35c.08.41,0,.79-.23.83s-.45-.25-.53-.66,0-.78.23-.83S34.09,23.94,34.17,24.35Z"/><path class="cls-24" d="M33.19,23.35a.17.17,0,0,0,.18.15.17.17,0,1,0-.18-.15Z"/><path class="cls-18" d="M21.53,27.77a.9.9,0,0,0,.38.76.67.67,0,0,0,.38.13.61.61,0,0,0,.47-.22,1.18,1.18,0,0,0,.28-.57.8.8,0,0,0-.2-.69,2,2,0,0,0-.4-.26.55.55,0,0,1-.18-.24.81.81,0,0,1-.06-.56.42.42,0,0,1,.29-.3l.11,0h.12l.07,0,0,0,.1.15c.15.21.26.26.4.27a.35.35,0,0,0,.24-.11.54.54,0,0,0,.14-.26,3.68,3.68,0,0,0,.07-.79c0-.18,0-.36,0-.55a3.08,3.08,0,0,0-.28-1,1.8,1.8,0,0,0-.54-.65c-.39-.28-.72-.2-.71-.15s.28.09.56.4a2.26,2.26,0,0,1,.52,1.51,3.84,3.84,0,0,1,0,.48c0,.16,0,.12,0,.16s-.07,0-.06,0h0l-.09-.07a.76.76,0,0,0-.18-.09.74.74,0,0,0-.31-.06.94.94,0,0,0-.27.05,1,1,0,0,0-.25.15,1.21,1.21,0,0,0-.45.74,1.6,1.6,0,0,0,.17,1.11,1.18,1.18,0,0,0,.4.4,2.26,2.26,0,0,1,.34.16.21.21,0,0,1,.09.19.59.59,0,0,1-.12.31.37.37,0,0,1-.49.12C21.69,28.08,21.57,27.74,21.53,27.77Z"/><path class="cls-21" d="M21,22.9c-.26.27-.57.35-.68.18s0-.53.28-.8.57-.35.68-.18S21.22,22.63,21,22.9Z"/><path class="cls-21" d="M22,21.58a.31.31,0,0,1-.13.34.19.19,0,0,1-.29-.09.3.3,0,0,1,.13-.35A.19.19,0,0,1,22,21.58Z"/><path class="cls-17" d="M39.49,28.25a5,5,0,0,0,3.85-1.2s1.12.66-.8,1.47C40,29.59,39.49,28.25,39.49,28.25Z"/><path class="cls-18" d="M40.62,28.76a7.33,7.33,0,0,0,.81,0,4.71,4.71,0,0,0,1.64-.62,1,1,0,0,0,.51-.59.49.49,0,0,0-.24-.49,1.17,1.17,0,0,0-.46-.18l-.19,0a2,2,0,0,0-.46,0,2.5,2.5,0,0,0-.54.1l-.33.13c-.2.11-.47.31-.7.47,0-.28,0-.58,0-.9v-.55c0-.37,0-.75,0-1.1a4.66,4.66,0,0,1,.07-1.22A4.64,4.64,0,0,1,40.9,25c0,.34.07.73.1,1.1,0,.19,0,.37,0,.55s0,.07,0,.08,0,0,.06-.05a2.26,2.26,0,0,1,.39-.18,3.39,3.39,0,0,1,.65-.16,2.4,2.4,0,0,1,.56,0,1.27,1.27,0,0,1,.26,0,2.07,2.07,0,0,1,.64.3,1.18,1.18,0,0,1,.32.4.91.91,0,0,1,.06.59,1.35,1.35,0,0,1-.76.82,4.39,4.39,0,0,1-1.81.5A1.25,1.25,0,0,1,40.62,28.76Z"/><path class="cls-25" d="M42.31,27.19c.06.12-.11.31-.37.43s-.52.11-.57,0,.11-.32.37-.43S42.26,27.07,42.31,27.19Z"/><path class="cls-17" d="M52.74,26a1.86,1.86,0,0,0-1.13-1.22l-.19-.07h0a4,4,0,0,0-1.74-.19,4.44,4.44,0,0,0-.61.08l-.15,0a4.73,4.73,0,0,0-1,.37h0a3.6,3.6,0,0,0-.61.35,1.78,1.78,0,0,0-.27.21h0a2.08,2.08,0,0,0-.91,2,1.48,1.48,0,0,0,.4.72,3,3,0,0,0,2.08.78,4.87,4.87,0,0,0,1.35-.13,3,3,0,0,0,.43-.12,4.07,4.07,0,0,0,2.06-1.38A1.75,1.75,0,0,0,52.74,26Zm-16.88.8a3.93,3.93,0,0,0-1.43-.57h0l-.18,0a5.08,5.08,0,0,0-1-.05,4.4,4.4,0,0,0-.74.09,4.27,4.27,0,0,0-.54.13c-1.22.37-2.07,1.17-2.08,2.06v.09a1.82,1.82,0,0,0,.83,1.35,4.14,4.14,0,0,0,2.08.68h0a4.53,4.53,0,0,0,.64,0,6.18,6.18,0,0,0,1-.14l.19-.05c1.31-.37,2.22-1.23,2.17-2.18A1.85,1.85,0,0,0,35.86,26.8Z"/><path class="cls-17" d="M28.1,11.72C38.42,19.67,50.33,14,50.33,14A15.09,15.09,0,0,1,52,17.78C51.27,14.6,48.16,4.62,37.33,4.7,24.5,4.79,22,14.67,22.2,20.76a2.55,2.55,0,0,0-.94.38,5.22,5.22,0,0,0,.82.66c2.05.93,1.79,4.61,3,3.66s.39-4.71.39-4.71C27.7,18.73,28.1,11.72,28.1,11.72Z"/><path class="cls-26" d="M21.66,20.79a7.34,7.34,0,0,1-3.08-6.37c.11-5.37,3.29-7.71,7.79-7.6,0,0,4.56-6.95,11.31-6.82S46.33,5.77,49,5.37,52.43,4.1,52.43,4.1s.13,2.83-1.2,3.77a11.43,11.43,0,0,0,2.92-1.21,10,10,0,0,1-1.33,5.66s1.59,3.1.8,5.26a17,17,0,0,0-.93,3.09S51.23,14.75,49.91,13c0,0-11.91,5.66-22.23-2.29,0,0-.4,7-2.65,9,0,0,.79,3.77-.4,4.72S23.71,21.71,21.66,20.79Z"/><path class="cls-10" d="M27.5,23.11l-.63-.25-2.55-1-1.44-.56L22.23,21c-.12,0-.47-.24-.57-.18l-.27.15a.68.68,0,0,1,.32-.69c.19-.1.39,0,.58.09l1.24.43,4.25,1.45Z"/><path class="cls-27" d="M27.55,23l.1-.31L22.9,21c-.28-.09-1.29-.6-1.51-.21a.65.65,0,0,0,0,.14.38.38,0,0,1,.17-.05l.1-.05c.1-.06.45.14.57.18l.25.1.17.06.07,0,.16.06.7.27.49.19.11,0,.14.06c.56.21,1.11.44,1.67.66l.73.28,0,0,.13.05.63.25,0-.11Z"/><path class="cls-10" d="M39.32,22.73,39,22a5.7,5.7,0,0,1,4-.31l-.3.8A4.94,4.94,0,0,0,39.32,22.73Z"/><path class="cls-27" d="M39.32,22.73a4.94,4.94,0,0,1,3.32-.29l.13-.35a5.68,5.68,0,0,0-3.61.31Z"/><path class="cls-12" d="M27.74,22.82s5.83-4.12,11.33-.44c0,0,.73,8.3-5.17,8.52S27.74,22.82,27.74,22.82Z"/><path class="cls-12" d="M36,21.06,32.66,30.8a5.52,5.52,0,0,0,1.24.1l.5,0,3.31-9.23A8.46,8.46,0,0,0,36,21.06Z"/><path class="cls-12" d="M31.89,21.09l-2.52,7.37a5.82,5.82,0,0,0,1.28,1.43l3.24-9A10.54,10.54,0,0,0,31.89,21.09Z"/><path class="cls-12" d="M39.09,23.53a11,11,0,0,0,0-1.15c-5.5-3.68-11.33.44-11.33.44a13.67,13.67,0,0,0,.14,1.36A10.4,10.4,0,0,0,39.09,23.53Z"/><path class="cls-10" d="M39.48,22.66c0-.18,0-.29,0-.32v-.05l0-.16L39.28,22l-.18-.12h0c-4.93-3.14-10.1-.34-11.31.4h0a1.78,1.78,0,0,0-.25.16l-.15.1h0l0,0v.25s0,.09,0,.22c.1,1.34.88,8.28,6.32,8.28h.24a4.93,4.93,0,0,0,3.83-1.85C39.54,27.25,39.53,23.74,39.48,22.66Zm-5.59,7.8a4.8,4.8,0,0,1-1.09-.07,4.21,4.21,0,0,1-2-.92,5.32,5.32,0,0,1-1-1l-.3-.46a10.58,10.58,0,0,1-1.21-3.56,12,12,0,0,1-.17-1.36,12.23,12.23,0,0,1,3.57-1.47,9.74,9.74,0,0,1,2-.28,8.62,8.62,0,0,1,2.12.17,9.25,9.25,0,0,1,1.72.55,8.83,8.83,0,0,1,1.12.61c0,.23,0,.64,0,1.15a9.18,9.18,0,0,1-1.54,5.13,4.05,4.05,0,0,1-2.58,1.48l-.18,0Z"/><path class="cls-27" d="M39,22.62l0-.2-.15-.1a8.08,8.08,0,0,0-1.13-.64,7.76,7.76,0,0,0-1.71-.6,8.64,8.64,0,0,0-1.48-.21h-.62l-.47,0a5.54,5.54,0,0,0-.6.06,5.4,5.4,0,0,0-.58.09l-.35.08A11.73,11.73,0,0,0,28,22.72l-.18.12v.23a11.38,11.38,0,0,0,.12,1.14,11.07,11.07,0,0,0,1.44,4.22h0a2.92,2.92,0,0,0,.21.32c.12.16.24.32.36.46l.33.35,0,0,0,0h0l.06.05.24.2.14.1a4.67,4.67,0,0,0,.6.38l0,0,.37.16a3.12,3.12,0,0,0,.43.15,3.28,3.28,0,0,0,.45.11,5.1,5.1,0,0,0,1,.09h.23l.52,0h.12a3,3,0,0,0,.41-.08,4.38,4.38,0,0,0,2.47-1.57A9.44,9.44,0,0,0,39,23.58C39,23,39,22.67,39,22.62Zm-1.84,6.29a4.05,4.05,0,0,1-2.58,1.48l-.18,0-.5,0a4.8,4.8,0,0,1-1.09-.07,4.21,4.21,0,0,1-2-.92,5.32,5.32,0,0,1-1-1l-.3-.46a10.58,10.58,0,0,1-1.21-3.56,12,12,0,0,1-.17-1.36,12.23,12.23,0,0,1,3.57-1.47,9.74,9.74,0,0,1,2-.28,8.62,8.62,0,0,1,2.12.17,9.25,9.25,0,0,1,1.72.55,8.83,8.83,0,0,1,1.12.61c0,.23,0,.64,0,1.15A9.18,9.18,0,0,1,37.15,28.91Z"/><path class="cls-12" d="M42.83,22s5.47-4.58,11.26-1.37c0,0,1.42,8.21-4.44,8.91S42.83,22,42.83,22Z"/><path class="cls-12" d="M50.91,19.58l-2.5,10a5.74,5.74,0,0,0,1.24,0l.49-.08L52.67,20A9,9,0,0,0,50.91,19.58Z"/><path class="cls-12" d="M46.83,20l-1.9,7.55a5.63,5.63,0,0,0,1.39,1.32l2.48-9.27A11.64,11.64,0,0,0,46.83,20Z"/><path class="cls-12" d="M54.21,21.79a10.75,10.75,0,0,0-.12-1.14C48.3,17.44,42.83,22,42.83,22s.07.55.26,1.35A10.42,10.42,0,0,0,54.21,21.79Z"/><path class="cls-10" d="M54.6,21.71a1,1,0,0,0,0-.17c0-.05,0-.1,0-.15h0c0-.46-.09-.76-.1-.81l0-.21-.18-.1c-.23-.13-.46-.24-.69-.35l-.43-.18h0l-.21-.07q-.27-.11-.54-.18h0s0,0,0,0c-4.68-1.39-8.81,1.5-9.62,2.1l-.14.11-.18.15,0,.18v.06s0,.13.05.33c.26,1.56,1.68,8.06,7,7.62l.24,0a4.93,4.93,0,0,0,3.59-2.07l.07-.09a6.51,6.51,0,0,0,.81-1.73,2.58,2.58,0,0,0,.08-.26,9.54,9.54,0,0,0,.28-1.35h0c0-.39.08-.75.1-1.11A14.5,14.5,0,0,0,54.6,21.71Zm-1.88,5.6a2.69,2.69,0,0,1-.2.27A4.06,4.06,0,0,1,50.27,29a4.67,4.67,0,0,1-.67.13,4.92,4.92,0,0,1-1.08,0,4.34,4.34,0,0,1-2.09-.75A5.52,5.52,0,0,1,45.06,27a10.7,10.7,0,0,1-1.52-3.45,13,13,0,0,1-.28-1.33,12.44,12.44,0,0,1,3.44-1.77,9.9,9.9,0,0,1,2-.44,9.38,9.38,0,0,1,2.12,0,8,8,0,0,1,1.53.34h0l.22.07.08,0,.08,0a7.3,7.3,0,0,1,.82.36l.19.09c0,.23.08.63.1,1.14h0a.66.66,0,0,1,0,.14v0a13.39,13.39,0,0,1,0,1.39c0,.26,0,.51-.07.78h0a8.51,8.51,0,0,1-.24,1.09h0a2.14,2.14,0,0,1-.17.46v.05A4.89,4.89,0,0,1,52.72,27.31Z"/><path class="cls-27" d="M54.17,22.5c0-.2,0-.4,0-.57a.28.28,0,0,1,0-.09v-.07c0-.51-.1-.84-.11-.88l0-.2-.16-.09a2.2,2.2,0,0,0-.31-.15,5.76,5.76,0,0,0-.72-.33.47.47,0,0,0-.15-.06h0l-.09,0-.05,0a7.83,7.83,0,0,0-1.57-.39,8.82,8.82,0,0,0-1.61-.08H49l-.18,0h-.07l-.24,0h-.05l-.16,0-.5.09-.08,0-.3.07-.3.08-.27.08a12,12,0,0,0-3.76,1.94l-.16.14,0,.22a10.78,10.78,0,0,0,.22,1.14,11.59,11.59,0,0,0,1.64,3.91,1.09,1.09,0,0,1,.13.17v0s0,0,0,0l0,0,.06.07.05.07a1.19,1.19,0,0,1,.15.18l.22.23.18.18,0,0,0,0,.1.09,0,0s0,.05.08.06h0a2.07,2.07,0,0,0,.25.19h0l.11.08a5.39,5.39,0,0,0,.52.3l.31.13.27.1.22.07.16,0,.17,0H48l.38,0,.2,0h0a0,0,0,0,1,0,0h.75l.17,0h.08a3.86,3.86,0,0,0,.49-.09h0a2.24,2.24,0,0,0,.37-.1l.17-.05h0l.2-.07.18-.08a1.42,1.42,0,0,0,.25-.12l.24-.13a4.47,4.47,0,0,0,1.22-1.12,1.77,1.77,0,0,0,.16-.22l.29-.42,0-.07,0-.06v-.1a6.49,6.49,0,0,0,.38-1h0a4,4,0,0,0,.13-.46h0c0-.2.1-.39.13-.59a8.22,8.22,0,0,0,.11-.83h0a2.45,2.45,0,0,0,0-.27,6.51,6.51,0,0,0,0-.75C54.18,22.85,54.18,22.67,54.17,22.5ZM53.33,26v.05a4.89,4.89,0,0,1-.61,1.26,2.69,2.69,0,0,1-.2.27A4.06,4.06,0,0,1,50.27,29a4.67,4.67,0,0,1-.67.13,4.92,4.92,0,0,1-1.08,0,4.34,4.34,0,0,1-2.09-.75A5.52,5.52,0,0,1,45.06,27a10.7,10.7,0,0,1-1.52-3.45,13,13,0,0,1-.28-1.33,12.44,12.44,0,0,1,3.44-1.77,9.9,9.9,0,0,1,2-.44,9.38,9.38,0,0,1,2.12,0,8,8,0,0,1,1.53.34h0l.22.07.08,0,.08,0a7.3,7.3,0,0,1,.82.36l.19.09c0,.23.08.63.1,1.14h0a.66.66,0,0,1,0,.14v0a13.39,13.39,0,0,1,0,1.39c0,.26,0,.51-.07.78h0a8.51,8.51,0,0,1-.24,1.09h0A2.14,2.14,0,0,1,53.33,26Z"/><path class="cls-26" d="M32.84,18.45c-.06.1-.43,0-.75.09a1.65,1.65,0,0,0-.59.21,1.78,1.78,0,0,0-.57.25c-.29.17-.51.48-.61.44s-.07-.47.2-.84a2.06,2.06,0,0,1,.43-.45A1.67,1.67,0,0,1,31.2,18a1.6,1.6,0,0,1,.29-.06,2,2,0,0,1,.63,0C32.57,18.06,32.9,18.35,32.84,18.45Z"/><path class="cls-26" d="M45.86,18.52c0-.11.44,0,.78,0a1.7,1.7,0,0,0,.62-.06.67.67,0,0,0,.16,0,1.06,1.06,0,0,0,.37-.12.87.87,0,0,0,.33-.26c.08-.09.13-.18.19-.19s.11.11.11.28a1,1,0,0,1-.24.6,1.46,1.46,0,0,1-.52.4,1.22,1.22,0,0,1-.3.1,1.34,1.34,0,0,1-.3,0,2,2,0,0,1-.58-.18C46.1,18.89,45.81,18.61,45.86,18.52Z"/><path class="cls-28" d="M53.7,15.85a4.36,4.36,0,0,0-.37.59,2.37,2.37,0,0,1-.3.36l-.16.13-.16.12-.15.08a2,2,0,0,1-.26.09,1.07,1.07,0,0,1-.44,0h0l-.06,0a.08.08,0,0,1,0,0s0,0,0,0a0,0,0,0,0,0,0v0h0a.13.13,0,0,0,0,.08h0a.19.19,0,0,0,.09,0h0l.05,0h0a.89.89,0,0,0,.44.08,1.18,1.18,0,0,0,.27-.06,1.23,1.23,0,0,0,.23-.09,1.27,1.27,0,0,0,.21-.12,1.1,1.1,0,0,0,.17-.17,2.13,2.13,0,0,0,.28-.43A1.54,1.54,0,0,0,53.7,15.85Zm-.36-2.44s0,0,0,.09a1.5,1.5,0,0,1-.06.22,5.71,5.71,0,0,1-.33.65,6.44,6.44,0,0,1-.36.62l-.19.24h0a2,2,0,0,1-.21.24,1.9,1.9,0,0,1-.56.39l-.11,0h0l-.14,0h0a1.26,1.26,0,0,1-.38,0,2.16,2.16,0,0,0-.32,0s.11.09.31.14a1.35,1.35,0,0,0,.45,0,0,0,0,0,0,0,0,.35.35,0,0,0,.14,0,.31.31,0,0,0,.13,0,2,2,0,0,0,.67-.39l.05-.05.19-.2a2.84,2.84,0,0,0,.2-.29,7,7,0,0,0,.33-.67,5.47,5.47,0,0,0,.25-.7.38.38,0,0,0,0-.1h0C53.39,13.5,53.36,13.41,53.34,13.41ZM25.12,19.93s0,.09,0,.23v0A3.61,3.61,0,0,1,25,21a1.68,1.68,0,0,1-.09.32v0c0,.12-.09.23-.13.32h0a1.35,1.35,0,0,1-.15.28h0l-.06.11a3.53,3.53,0,0,1-.55.75,2.88,2.88,0,0,1-.57.47h0a.41.41,0,0,0-.11.07c-.1.06-.16.1-.16.12a.5.5,0,0,0,.2-.06l.1,0h0a3,3,0,0,0,.66-.42,3.47,3.47,0,0,0,.71-.87l0,0,.11-.25a.08.08,0,0,1,0-.05,2.9,2.9,0,0,0,.11-.38c0-.06,0-.12.05-.18a1,1,0,0,1,0-.17V21A2.16,2.16,0,0,0,25.12,19.93Zm-1.39,1-.07-.09a3.39,3.39,0,0,1-.35-.57,3.45,3.45,0,0,1-.29-.61A2.17,2.17,0,0,1,23,19.4v0c-.06-.22-.09-.4-.12-.4a1.29,1.29,0,0,0,0,.71c0,.14.07.27.1.38v.1h0a1.44,1.44,0,0,0,.12.2,3,3,0,0,0,.29.4l.16.17a1.4,1.4,0,0,0,.59.4A5.42,5.42,0,0,0,23.73,20.91ZM21,18.55a7.42,7.42,0,0,1-.64-1.27s-.12-.27-.25-.65a0,0,0,0,1,0,0v0s0-.09-.05-.14-.1-.34-.14-.53a4.42,4.42,0,0,1-.1-.6,7.66,7.66,0,0,0-.1-.83,2.16,2.16,0,0,0-.05.62v.06h0a5.54,5.54,0,0,0,.06.78,3.88,3.88,0,0,0,.14.63l.06.23h0l0,.05c.09.3.17.5.17.5a6.67,6.67,0,0,0,.74,1.28,4.58,4.58,0,0,0,1,1C21.85,19.65,21.35,19.15,21,18.55Zm6.6-7.94c0-.28-.05-.51-.06-.67a1.11,1.11,0,0,0,0-.26,6.54,6.54,0,0,0,0,.93c0,.42,0,.94-.08,1.49l0,.26,0,.26c0,.29-.09.58-.15.85s-.06.32-.1.46h0L27,14.3h0a2,2,0,0,1-.08.29c-.06.26-.15.48-.19.63l-.08.24s0,.08-.07.22,0,0,0,0-.13.37-.23.62a15.31,15.31,0,0,1-.87,1.82,14.59,14.59,0,0,1-1.11,1.69,7.13,7.13,0,0,0-.54.73A1.27,1.27,0,0,0,24,20.4c.11-.12.28-.28.46-.49s.24-.3.38-.48c.26-.35.54-.75.8-1.17,0,0,0,0,0,0a15.52,15.52,0,0,0,.92-1.81c.11-.25.18-.47.24-.62s.1-.24.1-.24,0-.09.07-.25,0,0,0-.05.11-.36.16-.6.06-.23.09-.36,0-.05,0-.08a.41.41,0,0,1,0-.16h0l.06-.28a.31.31,0,0,1,0-.08c.05-.33.11-.68.15-1,0-.07,0-.15,0-.22s0-.2,0-.3v-.05A12.33,12.33,0,0,0,27.57,10.61Zm25.31.57a7.77,7.77,0,0,1-.51.69c-.14.18-.24.29-.24.29l-.25.28a3.22,3.22,0,0,1-.64.53,2.5,2.5,0,0,1-.78.29h0l-.32,0s0,0,0,0l.05,0h0a.9.9,0,0,0,.33,0,2,2,0,0,0,.86-.23,2.77,2.77,0,0,0,.72-.51,2.37,2.37,0,0,0,.28-.29,3.06,3.06,0,0,0,.24-.31,8.5,8.5,0,0,0,.47-.73,4.74,4.74,0,0,0,.52-1.15S53.23,10.68,52.88,11.18Zm.34-3.11a7,7,0,0,1-1,1.21,12.63,12.63,0,0,1-1.82,1.4s-.42.3-1,.65h0c-.29.17-.62.36-1,.54a15.7,15.7,0,0,1-1.44.67,6.21,6.21,0,0,0-.66.29,4.48,4.48,0,0,0,.7-.19,15,15,0,0,0,1.49-.6c.36-.16.7-.34,1-.51.6-.34,1-.63,1-.63l.59-.43a10,10,0,0,0,1.21-1.07,6.43,6.43,0,0,0,1-1.28,2.53,2.53,0,0,0,.3-.67S53.46,7.73,53.22,8.07Zm-12-4.28-.64-.46L40,2.89a3.81,3.81,0,0,0-.67-.42s.25.31.56.57.62.51.62.51a7.33,7.33,0,0,0,.69.4,2.11,2.11,0,0,0,.73.32A4.16,4.16,0,0,0,41.25,3.79Zm10.54,2a8.76,8.76,0,0,1-.86,1.54,3.87,3.87,0,0,1-1.26,1.16,4.4,4.4,0,0,1-.72.33,6.6,6.6,0,0,1-.76.22l-.49.1h0a11.38,11.38,0,0,1-1.24.15c-.43,0-.85,0-1.24,0h-.54a7.3,7.3,0,0,0-.81,0,5.54,5.54,0,0,0,.81.12c.35,0,.81.06,1.29.06h.5a11.87,11.87,0,0,0,1.42-.13h0l.35-.06A5.46,5.46,0,0,0,49,9a3.82,3.82,0,0,0,.75-.36,4.11,4.11,0,0,0,1.3-1.27,7.89,7.89,0,0,0,.79-1.61A4.64,4.64,0,0,0,52.13,5S52,5.32,51.79,5.76Zm.15-1.32h0a2.25,2.25,0,0,1-.22.3,4.6,4.6,0,0,1-1.12,1,5.72,5.72,0,0,1-1.36.59,6,6,0,0,1-.65.15,6.3,6.3,0,0,1-.67.1,9.24,9.24,0,0,1-1.5,0,13.53,13.53,0,0,1-1.49-.18,4.73,4.73,0,0,0-.69-.09,3.23,3.23,0,0,0,.67.2,13.51,13.51,0,0,0,1.5.26,8.15,8.15,0,0,0,1.53.05c.42,0,.7-.08.7-.08a5.66,5.66,0,0,0,.68-.18,5.78,5.78,0,0,0,1.38-.67,4.33,4.33,0,0,0,1.1-1.07A1.7,1.7,0,0,0,52,4.39h0a1.5,1.5,0,0,0,.07-.17S52,4.31,51.94,4.44ZM42,12.71a17,17,0,0,1-2.41.16,17.57,17.57,0,0,1-2.4-.21,7.83,7.83,0,0,1-.78-.15l-.3-.06-.29-.07c-.18-.05-.46-.09-.77-.19a18.85,18.85,0,0,1-2.26-.82l-.94-.46-.17-.09-.13-.08-.36-.21-.52-.32c-.54-.35-.88-.6-.93-.6a1.59,1.59,0,0,0,.23.2,6.79,6.79,0,0,0,.64.49,16,16,0,0,0,2.1,1.24,16.67,16.67,0,0,0,2.27.89c.32.1.59.16.78.21l.29.08.31,0c.19,0,.46.1.79.13a17.3,17.3,0,0,0,2.44.16A15.84,15.84,0,0,0,42,12.81c.33-.05.6-.13.79-.17a1.06,1.06,0,0,0,.28-.09C43,12.55,42.54,12.63,42,12.71ZM30.24,6.47a3.07,3.07,0,0,0-.6.34,2.94,2.94,0,0,0-.46.51,1.31,1.31,0,0,0-.27.63c.05,0,.2-.27.42-.51A3.25,3.25,0,0,1,29.81,7a2.66,2.66,0,0,1,.51-.37c.28-.17.59-.27.59-.3A1.21,1.21,0,0,0,30.24,6.47Zm4.51-4.78a15.35,15.35,0,0,0-1.65.53A12.1,12.1,0,0,0,31.54,3c-.41.23-.68.41-.68.41s-.26.18-.62.48A9,9,0,0,0,29,5.09a7.28,7.28,0,0,0-.42.6,5.3,5.3,0,0,0-.49.87,4.7,4.7,0,0,0-.21.53.65.65,0,0,0,0,.21s.13-.29.36-.69A7.15,7.15,0,0,1,29,5.49a3,3,0,0,1,.22-.28A9.28,9.28,0,0,1,31,3.59s.25-.18.64-.42a12.56,12.56,0,0,1,1.52-.77c.57-.25,1.15-.46,1.6-.61a7.45,7.45,0,0,0,.73-.26A4.65,4.65,0,0,0,34.75,1.69Zm-8.2,8.07a2.64,2.64,0,0,0-.42.46,2.6,2.6,0,0,0-.26.58,1.08,1.08,0,0,0-.07.62s.12-.29.25-.55a3.53,3.53,0,0,1,.3-.5,4.47,4.47,0,0,1,.34-.48,5.07,5.07,0,0,0,.4-.45A1.22,1.22,0,0,0,26.55,9.76Zm-1-1.13a5.17,5.17,0,0,0-1.32.93A7,7,0,0,0,23.2,10.8a6.46,6.46,0,0,0-.37.64l0,.05-.07.13-.2.5a8.18,8.18,0,0,0-.39,1.57v0a.28.28,0,0,0,0,.09,4.82,4.82,0,0,0,0,.65v.18a6.14,6.14,0,0,0,0,.66,3.81,3.81,0,0,0,.09.53.13.13,0,0,1,0,.06c0,.08,0,.13.05.13a.62.62,0,0,0,0-.18h0c0-.13,0-.3,0-.53a5.32,5.32,0,0,1,0-.8,1.09,1.09,0,0,0,0-.18c0-.2,0-.4.08-.6a2,2,0,0,1,.08-.35,6.69,6.69,0,0,1,.35-1.16l.21-.47.09-.18s.12-.26.34-.63a8,8,0,0,1,1-1.23,5.3,5.3,0,0,1,1.23-1,3.56,3.56,0,0,1,.68-.23A1.29,1.29,0,0,0,25.57,8.63ZM24.67,8a2.27,2.27,0,0,0-.76.15,4.15,4.15,0,0,0-1,.52,4.26,4.26,0,0,0-.78.8,2.63,2.63,0,0,0-.51,1c.05,0,.3-.48.65-.86a4.84,4.84,0,0,1,.8-.71A4.48,4.48,0,0,1,24,8.3a2.23,2.23,0,0,1,.7-.22c.19,0,.33,0,.33,0A.64.64,0,0,0,24.67,8Z"/><path class="cls-29" d="M27,15.26l-.42.43c-1,1-2.74,2.66-3.56,2.66h0a1.47,1.47,0,0,1-.69-.27,9.63,9.63,0,0,1-1.82-1.84l0,0c-.28-.35-.5-.66-.65-.87l-.15-.21,0,0,0,.11h0a8.67,8.67,0,0,1,.26,1.36,2.46,2.46,0,0,1,0,.26s0,0,0,0v.07c0,.35-.08.59-.31.55a.28.28,0,0,1-.13-.07h0a.62.62,0,0,1-.18-.23h0l0-.05A8.31,8.31,0,0,1,18.6,15c0,.25,0,.5.06.73s0,.23.05.35.05.22.07.33a2.82,2.82,0,0,0,.07.31l.07.25s0,0,0,0,0,.05,0,.08a2,2,0,0,0,.08.22,2.15,2.15,0,0,0,.1.27,0,0,0,0,0,0,0,.2.2,0,0,0,0,.08,3.45,3.45,0,0,0,.14.34.14.14,0,0,0,0,.06h0s0,0,0,0a.09.09,0,0,1,0,.06s0,0,0,0,.07.14.11.2l.11.19.24.37c.08.12.16.24.24.34l.28.35.34.36a3.06,3.06,0,0,0,.39.36l.31.26.08.06h0l.13.09.13.07h0l.11.07L22,21a2.43,2.43,0,0,1,.25.2,3.07,3.07,0,0,1,.25.26,3.55,3.55,0,0,1,.23.31l.12.2.16.29c.07.14.14.28.2.43a1.11,1.11,0,0,1,.07.16c.06.15.11.3.17.44a0,0,0,0,0,0,0h0l0,.09a7.25,7.25,0,0,0,.36.84,0,0,0,0,0,0,0,.78.78,0,0,0,.16.22.23.23,0,0,0,.1.07l.06,0,.1,0a.58.58,0,0,0,.35-.15,2.93,2.93,0,0,0,.65-2.23c0-.13,0-.25,0-.37v-.2a1.8,1.8,0,0,1,0-.22c0-.09,0-.17,0-.25s0-.1,0-.14V21a.38.38,0,0,1,0-.1c0-.11,0-.2,0-.3s0-.26-.06-.37v0L25,19.73l.18-.18.17-.19,0,0h0l.1-.13.11-.15v0s0,0,0,0h0l.13-.2h0l0,0a5,5,0,0,0,.25-.46c.08-.16.15-.32.22-.49s.15-.37.22-.57a.56.56,0,0,1,0-.12c.05-.15.09-.3.14-.46h0c.09-.26.16-.52.23-.78s.07-.3.11-.44,0,0,0-.05l0-.13s0,0,0-.06ZM52.6,17.35c0-.07,0-.15,0-.22a11.32,11.32,0,0,1-.18-1.52c0-.13,0-.25,0-.38a4.19,4.19,0,0,1,.4-2.33l.23-.21,0,0c0-.1-.08-.18-.11-.24a.69.69,0,0,0,0-.1,10,10,0,0,0,1.33-5.66l-.36.23a9.46,9.46,0,0,1-1.21.54l-.33.12L52,7.62l-.78.24a.8.8,0,0,0,.17-.15c.07-.06.12-.13.18-.19a2.6,2.6,0,0,0,.28-.45A1.75,1.75,0,0,0,52,6.83a2,2,0,0,0,.1-.26,2,2,0,0,0,.08-.26,4.61,4.61,0,0,0,.16-.79c0-.13,0-.25,0-.37s0-.23,0-.33a1.41,1.41,0,0,0,0-.2,5.13,5.13,0,0,0,0-.52,2.38,2.38,0,0,1-.38.28h0l-.1.05h0a4.6,4.6,0,0,1-.45.23,3.69,3.69,0,0,1-.48.19L50.75,5,50.48,5l-.3.08-.33.08-.4.08L49,5.36a1.46,1.46,0,0,1-.29,0l-.22,0-.23,0a2.83,2.83,0,0,1-.55-.21,0,0,0,0,1,0,0c-.09,0-.2-.1-.29-.16l0,0a18.15,18.15,0,0,1-1.9-1.54c.59.82,1.13,1.75.74,2.13s-1.87.48-2.81.4h0l-.48-.06c.55.22,1.52.68,2.36,1.12h.06a5.94,5.94,0,0,1,1.42.94s0,.1,0,.15h0C46.19,8.53,43,9,43,9s1.06.1,2.25.33h0l.75.16c1.11.26,2.16.63,2.39,1.12.54,1.14-5.29,4.1-5.29,4.1l2-.22h0l.24-.05.33-.07.32-.07c.66-.16,1.25-.33,1.76-.49l.28-.09.34-.11.39-.14.11,0,.21-.08h0l.48-.19L49.8,13l.11,0a2.23,2.23,0,0,1,.2.3h0l0,0,.12.22.12.22a9.12,9.12,0,0,1,.41.88c.07.16.13.32.19.49l0,.06,0,.07a.36.36,0,0,0,0,.09l0,.05v0s0,0,0,.06a.14.14,0,0,0,0,.06l.09.25a1.42,1.42,0,0,0,0,.16h0a.88.88,0,0,0,.05.15c.09.25.17.52.26.78l.09.26v0l0,.08h0c0,.08.05.16.07.23q.16.53.3,1l0,.09a.08.08,0,0,1,0,0,.08.08,0,0,0,0,.05.29.29,0,0,0,0,.09c0,.05,0,.1,0,.14a.29.29,0,0,0,0,.09s0,0,0,.06a1.46,1.46,0,0,1,.05.2,1.42,1.42,0,0,1,0,.16l0,.07c.07.18.13.35.2.5v0l0,.05a0,0,0,0,1,0,0,.17.17,0,0,1,0,.05l.1.25h0a.13.13,0,0,0,0-.06s0,0,0-.06a.57.57,0,0,0,0-.14s0,0,0-.06,0-.11,0-.17h0l.06-.23c0-.12.07-.25.12-.4s.16-.52.27-.83a.5.5,0,0,1-.39-.18A2.6,2.6,0,0,1,52.6,17.35Zm-23.33-7a1.66,1.66,0,0,1,1.29-.09,3.69,3.69,0,0,1,.58.23l.36.21.13.08.28.2a.57.57,0,0,0-.11-.11c-.63-.62-2.47-2.62-1.09-3.83A12.26,12.26,0,0,1,34.08,5c-.25.07-1.08.33-2,.55a.23.23,0,0,1-.11,0c-.48.12-1,.24-1.39.3h0c-.76.12-1.27.1-1-.26a9.5,9.5,0,0,1,1.21-1.45l.54-.53L30.92,4s0,0-.05,0A18.13,18.13,0,0,1,29,5.49l-.35.2c-.58.29-1,.27-.76-.48a3,3,0,0,1,.09-.32.46.46,0,0,1-.07.07l-.48.55-.12.14-.43.54c-.3.39-.46.63-.46.63H26c-.26,0-.51,0-.76,0h0l-.6.06c-.2,0-.4.06-.6.11l-.25.05-.12,0h0l-.08,0h-.09l-.08,0-.11,0-.32.1-.42.17a2.64,2.64,0,0,0-.38.18,5.09,5.09,0,0,0-.71.42,2.43,2.43,0,0,0-.32.24l-.32.26a4,4,0,0,0-.29.29,5.46,5.46,0,0,0-.53.64c.67-.45,1.66-1,1.94-.85s-1,2.8-1,2.8S22.59,9.67,23,10c.14.14,0,.73-.12,1.41l0,.05c-.21.85-.53,1.83-.66,2.23a.46.46,0,0,0,0,.13l0,0c.06-.09.15-.25.28-.44.52-.82,1.54-2.3,2.07-2.3h0a.11.11,0,0,1,.08,0h0c.34.19.36.84.31,1.42h0l0,.26c0,.2-.06.38-.09.51l0,.22.15-.29.28-.48c.09-.14.19-.29.3-.43h0c.42-.54,1-1,1.48-.7a1,1,0,0,1,.41.49c0,.1.08.2.12.32v0l0-.26v-.05c0-.28.06-.52.08-.72s0-.26,0-.36,0-.3,0-.3c.33.25.66.5,1,.72l.62.4c.27.17.54.34.81.49q.79.45,1.59.81C30.29,12.16,28.55,10.79,29.27,10.39Z"/><g class="cls-30"><path class="cls-26" d="M20.43,9.74c-.81,1-1.79,2.53-1.43,3.88a.25.25,0,0,0,.45.06A13.11,13.11,0,0,0,20.09,12,9,9,0,0,1,21,10.21c.25-.36-.33-.81-.6-.47Z"/><path class="cls-26" d="M21.13,11.63A2.48,2.48,0,0,0,20,13.37c-.12.64-.07,1.75.73,1.93,1.44.33,1.35-2.53,1.19-3.34a.56.56,0,0,0-.81-.33Z"/><path class="cls-26" d="M23.83,12.16c-.5.23-.81,1.09-.95,1.6A3.84,3.84,0,0,0,23,15.91c.06.18.35.2.39,0A18.86,18.86,0,0,0,23.85,14,4.12,4.12,0,0,0,24,12.23a.12.12,0,0,0-.18-.07Z"/><path class="cls-26" d="M26,12.72s0,.26,0,.32l0,.56a3.36,3.36,0,0,0,.08,1c0,.19.32.21.41,0A9,9,0,0,0,27,12.7l-.25.32.09-.06a.66.66,0,0,0-.16-1.19c-.5-.14-1.08.48-.73,1Z"/><path class="cls-26" d="M31.17,5.7c1.11,0,2.09-.62,3.13-1a10.63,10.63,0,0,1,3.59-.44.58.58,0,0,0,.41-1c-1.87-2.06-6.54-1.13-7.78,1.24a.76.76,0,0,0,.65,1.13Z"/><path class="cls-26" d="M40.16,1.82a5.68,5.68,0,0,1,1,.63,4.05,4.05,0,0,0,.94.6c.26.09.4-.21.32-.41-.34-.78-1.43-1-2.18-1a.08.08,0,0,0,0,.15Z"/><path class="cls-26" d="M30.79,11.53c2,2,5.67,3,8.48,3.07.2,0,.25-.32,0-.35a24.77,24.77,0,0,1-4.08-1c-1.48-.55-2.79-1.41-4.23-2-.17-.07-.38.13-.22.29Z"/><path class="cls-26" d="M31.1,9.15c2.49,2.92,9.66,3.78,12.9,1.95a.41.41,0,0,0-.09-.74c-2.18-.39-4.37-.06-6.55-.45-2-.37-3.89-1.44-5.88-1.65-.5-.06-.64.59-.38.89Z"/><path class="cls-26" d="M46,11a1.74,1.74,0,0,1,.5-.08.81.81,0,0,0,.51-.07.29.29,0,0,0,.06-.45c-.32-.31-.93-.06-1.27.12A.26.26,0,0,0,46,11Z"/><path class="cls-26" d="M36.06,6.87a6.2,6.2,0,0,0,1.49.18,15.65,15.65,0,0,1,2.52.6,6.88,6.88,0,0,0,3.82.41.6.6,0,0,0,.35-.87c-1-1.54-2.93-1.82-4.64-2-1.25-.14-3.45-.47-3.85,1.14a.46.46,0,0,0,.31.55Z"/><path class="cls-26" d="M45.17,7.89a1.26,1.26,0,0,0,.46.16A2.51,2.51,0,0,0,46.08,8c.16,0,.16-.25,0-.33a2,2,0,0,0-.36-.23,1.14,1.14,0,0,0-.45,0c-.26,0-.41.41-.14.53Z"/></g><path class="cls-3" d="M35.09,40.72l.11,0c-.22.06.41,1.64.53,1.84A4.54,4.54,0,0,0,37,43.86a4.38,4.38,0,0,0,3.56.78,3.52,3.52,0,0,0,2-1.25,4,4,0,0,0,.58-2.72,12.88,12.88,0,0,1,2.41,4c.44,1.31-.16,5.2-2.14,4.23-1-.5-2-2.43-2.71-3.44,0,0-2.38,4.23-3.18,4.32-1.5.16-2.81-2-3.34-3.07-.85-1.8-1-4.08.48-5.6A1.93,1.93,0,0,1,35.09,40.72Z"/><path class="cls-2" d="M35,39.93l.1,0c-.21.07.41,1.65.53,1.85a4.57,4.57,0,0,0,1.29,1.34,4.34,4.34,0,0,0,3.55.77,3.48,3.48,0,0,0,2-1.24A4,4,0,0,0,43,39.88a12.88,12.88,0,0,1,2.41,4c.44,1.3-.16,5.2-2.14,4.23-1-.5-2-2.43-2.72-3.45,0,0-2.38,4.24-3.18,4.33-1.49.16-2.8-2-3.33-3.07-.86-1.81-1-4.08.48-5.6A1.93,1.93,0,0,1,35,39.93Z"/><path class="cls-3" d="M37.36,47.76c-2.56-.57-1.7-4.7-1.7-4.7s1.27,2.39,4.91,1.27,2.56-3.84,2.46-4.45a4,4,0,0,1-.58,2.72,3.48,3.48,0,0,1-2,1.24,4.34,4.34,0,0,1-3.55-.77,4.57,4.57,0,0,1-1.29-1.34c-.12-.2-.74-1.78-.53-1.85l-.1,0a1.93,1.93,0,0,0-.4.35c-1.52,1.52-1.34,3.79-.48,5.6C34.6,47,35.91,49.11,37.4,49c.29,0,.78-.6,1.29-1.31A2.09,2.09,0,0,1,37.36,47.76Z"/><path class="cls-3" d="M40.58,44.62c.75,1,1.7,3,2.72,3.45,1.68.83,2.37-1.87,2.26-3.5a6.58,6.58,0,0,1-1.1,2.71C43.39,48.38,40.58,44.62,40.58,44.62Z"/><path class="cls-16" d="M20.71,24.51c1-.52,1.69-1.26,2.69-1.73.62-.29,6.24-3.72,5.44-4.47s-3.34.76-3.34.76,5.12-5.49,1.81-6.73-8,5.28-8,5.28.26-3.34-2-3.29c-1.67,0,.05,2.88-.4,4.06-.53,1.42-1.35,3-.67,4.51-.37.42-.75.83-1.12,1.24a24.79,24.79,0,0,0,3.1,2.29A8.52,8.52,0,0,1,20.71,24.51Z"/><path class="cls-18" d="M23.67,14.21a10.2,10.2,0,0,1,2-1.45,7.9,7.9,0,0,1,.91-.45,24.38,24.38,0,0,0-2.64,2.17A23.63,23.63,0,0,0,21.61,17s.17-.35.5-.88A10.23,10.23,0,0,1,23.67,14.21Z"/><path class="cls-18" d="M25.5,15.11a10.43,10.43,0,0,1,2.65-1.76s-1.13.87-2.4,2-2.26,2.18-2.26,2.18A10.27,10.27,0,0,1,25.5,15.11Z"/><path class="cls-18" d="M26,18.69a3.16,3.16,0,0,1,1.19-.33,6.37,6.37,0,0,1-1,.66,7,7,0,0,1-1.12.44A3,3,0,0,1,26,18.69Z"/><path class="cls-18" d="M19,17.37a5.41,5.41,0,0,1,1.28-1.06,13.39,13.39,0,0,1-1,1.31,13.24,13.24,0,0,1-1.16,1.16A5.24,5.24,0,0,1,19,17.37Z"/><path class="cls-17" d="M25.5,19.07s5.12-5.49,1.81-6.73c-2.58-1-6,2.76-7.4,4.46a38.11,38.11,0,0,1,4-3.67,2.72,2.72,0,0,1,3.45.5c1.09,1.32-2.54,5.76-2.67,5.85s3.53-1.32,3.49-.68S24.83,22,21.06,22.88s-3.12.36-4.08-.32c-.57-.41-.68-1.65-.66-2.6a3.89,3.89,0,0,0-.08,2.94c-.37.42-.75.83-1.12,1.24a24.79,24.79,0,0,0,3.1,2.29,8.52,8.52,0,0,1,2.49-1.92c1-.52,1.69-1.26,2.69-1.73.62-.29,6.24-3.72,5.44-4.47S25.5,19.07,25.5,19.07Z"/><path class="cls-31" d="M18.48,18.21a8.53,8.53,0,0,0,.8-.77c0-.62-.05-2.67-1.46-3.05C18.88,15.48,18.56,18.05,18.48,18.21Z"/><path class="cls-2" d="M25.56,48.79c.62,2.83,1.59,7.7-1.27,9-4.24,1.89-22.56-9-24.17-15.23S14.18,21,14.18,21s6,3.64,5.68,8l-11,11.54c-.06,2.11,6.57,3.79,7.93,4.24,3.26,1.07,5-.47,7,.29,1.24.48,1.51,2.34,1.8,3.59Z"/><path class="cls-3" d="M14.18,21l-.59.59h0C15.53,23,17.93,27,17.19,29c-.85,2.28-9.1,11.81-13.58,11.74C1.44,40.65,1,39.24,1,37.74H1a12.42,12.42,0,0,0-.86,2.42c0,.07,0,.15,0,.22v0c0,.12,0,.24,0,.35a.15.15,0,0,0,0,.07l0,.26c0,.1,0,.2,0,.29v.38A1.62,1.62,0,0,1,0,42a3.45,3.45,0,0,0,.1.56c.05.21.13.41.2.62,2.57,6.34,19.87,16.44,24,14.61,2.86-1.28,1.89-6.15,1.27-9l0-.12-.12-.56c-.1,0-.21.17-.32.44-.23.54-.27,1.14-.52,1.68-1.5,3.21-5.07,2.9-7.88,1.7-7.58-3.25-6.07-7.51-5.25-9-.25-.12-.5-.24-.73-.37l-.07,0c-.23-.13-.45-.26-.65-.39h0c-.71-.48-1.18-1-1.16-1.58L19.86,29a4.28,4.28,0,0,0,0-.8c-.38-4-5.68-7.18-5.68-7.18Z"/><path class="cls-32" d="M23.91,46.59a2.09,2.09,0,0,0-1.16-.83l-.37-.06a1.93,1.93,0,0,0-1,.18,1.19,1.19,0,0,0-.44.33,2.78,2.78,0,0,1,1.47-.12,1.4,1.4,0,0,1,.28.06,2.78,2.78,0,0,1,1.48,1A1.53,1.53,0,0,0,23.91,46.59ZM14.82,23.23a.57.57,0,0,0-.38-.21.47.47,0,0,0,.43.64A.59.59,0,0,0,14.82,23.23Z"/><g class="cls-33"><path class="cls-14" d="M8.44,42.2a4.4,4.4,0,0,1-1,1.55s.26-.78.61-1.69.67-1.67.67-1.67A4.53,4.53,0,0,1,8.44,42.2Z"/><path class="cls-14" d="M9.1,42.75a3.73,3.73,0,0,1-.37,1.4,3.57,3.57,0,0,1-.31.51,11.65,11.65,0,0,0,.28-1.93,11.72,11.72,0,0,0,0-1.95,2.81,2.81,0,0,1,.24.54A3.71,3.71,0,0,1,9.1,42.75Z"/></g><path class="cls-16" d="M49.4,37.21a2.76,2.76,0,0,1-.13,2.26,1.08,1.08,0,0,1,.51.14c1,.62,1,2.75,0,2.28a4.82,4.82,0,0,0-1.9-.33A14.48,14.48,0,0,1,46.4,43s-3.06,2.32-4.76-.09S43,38.45,43.05,38s-1.38-.48-1.93-.74-.1-2.12,2.21-2.47,3.17.61,3.17.61-.76-1.24-.1-1.53S48.28,34.75,49.4,37.21Z"/><path class="cls-18" d="M49.45,39h0s0-.06,0-.06,0,.09,0,.21a1.54,1.54,0,0,1-.2.41,4.33,4.33,0,0,1-.3.37l-.14.17a9.21,9.21,0,0,0-.74,1.2h0a3.22,3.22,0,0,0,.41-.42l0,0,.49-.59.12-.19a3.5,3.5,0,0,0,.26-.42.75.75,0,0,0,.06-.13.83.83,0,0,0,.09-.36A.54.54,0,0,0,49.45,39Zm-2.58-2.1-.18-.21s0,0,0,0a1.27,1.27,0,0,1-.1-.12l0-.06-.33-.33a7.72,7.72,0,0,0-.82-.68,4,4,0,0,0-1-.45,2.16,2.16,0,0,0-1.05-.12,9.94,9.94,0,0,1,1,.29,4.66,4.66,0,0,1,.88.49,7.74,7.74,0,0,1,.83.6l.6.5.17.12,0,0a0,0,0,0,1,0,0A.08.08,0,0,0,46.87,36.88Zm1.2.35A1.28,1.28,0,0,0,48,37h0c-.1-.18-.2-.33-.27-.44h0l-.12-.16a6,6,0,0,0-.7-.69,2.93,2.93,0,0,0-.82-.53s.07.09.18.18h0c.13.12.32.29.5.47a8.2,8.2,0,0,1,.63.72l.08.1a4.84,4.84,0,0,1,.35.46h0a2.14,2.14,0,0,1,.13.19,2.21,2.21,0,0,1,.25.59c0,.17,0,.29.06.29s.05-.12,0-.31A1.86,1.86,0,0,0,48.07,37.23Zm-4-1.17a5.82,5.82,0,0,0-1-.31,4.29,4.29,0,0,0-1.09,0,1.12,1.12,0,0,0-.68.32.48.48,0,0,0-.17.3s.1-.11.23-.23a1.14,1.14,0,0,1,.64-.21A4.7,4.7,0,0,1,43,36a6.82,6.82,0,0,1,1,.23c.47.14.92.33,1,.33A4.08,4.08,0,0,0,44,36.06Z"/><path class="cls-17" d="M47.41,34.62c-.64,0,.58,2.76.66,2.88s-1.54-2.27-2-2.14.79,1.57.79,1.57-2.31-1.66-2.56-1.32,2,1.83,2,1.83c-.48-.27-3.59-1.73-3.84-1s2,1.37,2,1.37-1,.52-1,2.79c-.05,1.8,2.32,2,3.39,2L46.4,43a6.28,6.28,0,0,1-1.55.8,11.8,11.8,0,0,1-2.35-.09,2.57,2.57,0,0,1-.86-.8C39.94,40.47,43,38.45,43.05,38s-1.38-.48-1.93-.74-.1-2.12,2.21-2.47,3.17.61,3.17.61-.76-1.24-.1-1.53c.42-.19,1.06.21,1.76,1.14A1.6,1.6,0,0,0,47.41,34.62Z"/><path class="cls-17" d="M50.52,41.3l-.2-.24A1.42,1.42,0,0,0,48,41.3a13.21,13.21,0,0,0,.89-1.4c.16-.31.45-1,.71-1.61a3.69,3.69,0,0,1-.31,1.18,1.08,1.08,0,0,1,.51.14A2,2,0,0,1,50.52,41.3Z"/><path class="cls-31" d="M48,41.3l-.07.09Z"/><path class="cls-3" d="M51.76,73.8a.75.75,0,0,0,.15,0C52.45,70,53,66.24,53.47,62.45,51,55.36,46.91,43.92,46.91,43.92a27.78,27.78,0,0,0-4.36-.35,21.7,21.7,0,0,0-3.92,1.18C41.53,56.7,47.72,73.39,51.76,73.8Z"/><path class="cls-2" d="M39.22,43.67a22.37,22.37,0,0,1,3.92-1.19,27.32,27.32,0,0,1,4.36.36s7.87,21.81,8.26,23.85-.89,6.29-3.41,6C48.31,72.31,42.12,55.62,39.22,43.67Z"/><path class="cls-3" d="M55.81,67.1h0a2.55,2.55,0,0,0-.05-.41c0-.05,0-.11,0-.19a.14.14,0,0,0,0-.06,1.24,1.24,0,0,0,0-.16c0-.08,0-.18-.08-.28a.93.93,0,0,0,0-.13c-.11-.38-.26-.85-.44-1.41a0,0,0,0,0,0,0c-.08-.22-.16-.46-.24-.71s-.1-.33-.16-.49-.06-.19-.1-.29c-.11-.35-.24-.72-.37-1.1,0-.16-.11-.33-.17-.5.35,3.16.38,6.63-1.1,7.59a.75.75,0,0,1-.37.13A2.09,2.09,0,0,1,51,68.21c-1.39-1.4-3-4.33-4.49-7.61,0,0,0,0,0,0h0c-.47-1-.92-2.11-1.34-3.18,0,0,0,0,0,0a42.85,42.85,0,0,1-2.75-9.28c0-.08,0-.15,0-.23v0q0-.31,0-.6a2.75,2.75,0,0,1,0-.41h0a1.21,1.21,0,0,1,0-.19,4.66,4.66,0,0,1,1-2.64,1.43,1.43,0,0,1,.15-.18l.2-.21a4.77,4.77,0,0,1,1-.73,1.27,1.27,0,0,1,.23-.12l.34-.16-.17,0-.27,0h-.45a10.93,10.93,0,0,0-1.27,0H43l-.13,0-.2,0-.23.05-.42.11h0l-.41.12-.81.26-.31.11-.15,0-1.12.41c0,.1.05.19.07.29s.08.34.13.51a0,0,0,0,0,0,0,.29.29,0,0,0,0,.09s0,.05,0,.07l0,.06s0,0,0,0c.1.4.2.8.31,1.2l.19.73c.09.34.19.69.29,1s.2.7.3,1h0l0,.11c0,.08,0,.17.08.26s.1.37.16.56a.14.14,0,0,0,0,.06c.17.57.34,1.14.52,1.71s.35,1.15.54,1.72c.13.4.26.81.4,1.22.81,2.43,1.68,4.82,2.58,7,.14.34.27.67.41,1,.54,1.29,1.09,2.5,1.64,3.61q.23.46.45.9l.46.86.46.8c.15.26.3.51.45.74l.51.78.16.21a6.77,6.77,0,0,0,.44.58,5.34,5.34,0,0,0,.43.5,5.75,5.75,0,0,0,.42.43l.29.25.16.12a.94.94,0,0,0,.18.12l.13.08.16.1h0a1.63,1.63,0,0,0,.4.15,1.4,1.4,0,0,0,.28.06h.23a1.5,1.5,0,0,0,.37,0,1.61,1.61,0,0,0,.36-.1,2.49,2.49,0,0,0,.33-.16l0,0,.27-.19.29-.27a3.74,3.74,0,0,0,.51-.66c.08-.12.15-.25.22-.38s.14-.27.2-.41.11-.28.17-.42,0,0,0,0v0l0,0s0,0,0,0a0,0,0,0,0,0,0,5.2,5.2,0,0,0,.22-.77c0-.13.06-.26.09-.4a5,5,0,0,0,.1-.64v-.08a3.8,3.8,0,0,0,0-.46v-.08C55.83,67.38,55.82,67.24,55.81,67.1Z"/><g class="cls-15"><path class="cls-14" d="M55.36,66.66a13,13,0,0,1,.11,2.47,10,10,0,0,1-.11,1,34.5,34.5,0,0,0-1-6.82s.17.35.39.94A12.09,12.09,0,0,1,55.36,66.66Z"/><path class="cls-14" d="M54.48,63.72s-.08.16-.08.16-.13.1-.15.08.08-.16.08-.16S54.46,63.7,54.48,63.72Z"/><path class="cls-14" d="M55.66,66.58a10.35,10.35,0,0,1,.5,2.8s-.35-1.22-.82-2.7S54.46,64,54.46,64A10.68,10.68,0,0,1,55.66,66.58Z"/></g><path class="cls-18" d="M40.23,32.55a2.81,2.81,0,0,1,1.4-1.08c.43-.15.84-.27,1.15-.35l.21-.06h0s0,0,0,0,.05,0,0-.05a5.52,5.52,0,0,1-.66-.76A2.26,2.26,0,0,1,41.82,29c.07,0,.36.55.83,1a3.9,3.9,0,0,0,.78.65c.43.29,1,.58,1.18.68l-.86.2-2,.37C41,32.07,40.29,32.65,40.23,32.55Z"/><path class="cls-18" d="M43,32c.08,0,.27.24.3.59a1.68,1.68,0,0,1-.08.68,1.8,1.8,0,0,1-.47.51c-.28.2-.62.23-.64.15s.2-.25.33-.47a1.63,1.63,0,0,0,.21-.45,1.66,1.66,0,0,0,.21-.45C42.91,32.3,42.89,32,43,32Z"/><path class="cls-18" d="M39.73,33.09c0,.08-.28.09-.5-.08a.92.92,0,0,1-.31-.43,1,1,0,0,1,.12-.53c.14-.23.38-.33.43-.25s0,.24,0,.39a.62.62,0,0,0,.07.26.55.55,0,0,0,0,.27C39.61,32.87,39.75,33,39.73,33.09Z"/></g></g></g></svg>