<svg xmlns="http://www.w3.org/2000/svg" viewBox="0 0 68.3 83.53"><defs><style>.cls-1{isolation:isolate;}.cls-19,.cls-2,.cls-21,.cls-4{fill:#ebd0a6;}.cls-3{fill:#de9168;}.cls-15,.cls-4{opacity:0.45;}.cls-13,.cls-14,.cls-15,.cls-17,.cls-19,.cls-23,.cls-28,.cls-30,.cls-4,.cls-6,.cls-8{mix-blend-mode:multiply;}.cls-5{fill:#fff;}.cls-20,.cls-28,.cls-6,.cls-8{opacity:0.5;}.cls-14,.cls-7,.cls-8{fill:#d3dbfd;}.cls-16,.cls-18,.cls-20,.cls-21,.cls-24,.cls-25,.cls-27,.cls-29,.cls-9{mix-blend-mode:screen;}.cls-10,.cls-15,.cls-16,.cls-30{fill:#3c1d91;}.cls-11,.cls-18{fill:#294168;}.cls-12,.cls-13{fill:#88ac76;}.cls-13{opacity:0.34;}.cls-18{opacity:0.6;}.cls-19{opacity:0.62;}.cls-22,.cls-23,.cls-24{fill:#6f3a1e;}.cls-23{opacity:0.25;}.cls-25{fill:#f8e9d0;}.cls-26,.cls-27,.cls-28{fill:#a95913;}.cls-29{opacity:0.35;}</style></defs><title>winkРесурс 14</title><g class="cls-1"><g id="Слой_2" data-name="Слой 2"><g id="OBJECTS"><path class="cls-2" d="M59,41.88c-.11-.55-.22-1.11-.35-1.67A4.24,4.24,0,0,1,59,36.78c.38-.53,1.1-1.15,1.16-1.85s-.45-1-.22-1.68a1,1,0,0,1,.83-.68,1.2,1.2,0,0,1,.86.53,5.13,5.13,0,0,1,.76,2.53c.8-.38,3.81-1.43,3.52.45a2.18,2.18,0,0,1,1.68,1.84,1.72,1.72,0,0,0,.06.34,2.25,2.25,0,0,0,.24.36,1.35,1.35,0,0,1,.18,1.22c0,.08.12.22.14.31.33,1.35-1.13,2.44-2.1,3s-2.69,1.47-4,1.12c-.32.37-.65.73-1,1.09-.19.2-.48.69-.78.7s-.65-.47-.75-.7a2.19,2.19,0,0,1-.14-.56C59.37,43.84,59.21,42.86,59,41.88Z"/><path class="cls-3" d="M61.84,39.51a3.69,3.69,0,0,0,.09-1.75A3.63,3.63,0,0,0,61.7,37a2.19,2.19,0,0,1,.4.67,2.83,2.83,0,0,1,.09,1.9A2.24,2.24,0,0,1,61,41.06a1.25,1.25,0,0,1-.58.1l-.2,0a1.23,1.23,0,0,0,.69-.23A2.46,2.46,0,0,0,61.84,39.51Z"/><path class="cls-3" d="M62.15,36.31a6.87,6.87,0,0,0,.25-1l.09-.43a2.7,2.7,0,0,1,0,1.52,1.67,1.67,0,0,1-.71.83,2.24,2.24,0,0,1-.39.21A5.15,5.15,0,0,0,62.15,36.31Z"/><path class="cls-3" d="M65,42.49a1.1,1.1,0,0,1,.38-.85.91.91,0,0,1,.33-.18,1.33,1.33,0,0,0-.19.3,1.71,1.71,0,0,0-.16.73,1.15,1.15,0,0,0,.2.69.47.47,0,0,0,.28.17.41.41,0,0,1-.39,0A.94.94,0,0,1,65,42.49Z"/><path class="cls-3" d="M66,41.16a4.77,4.77,0,0,0,1.65-1,4.33,4.33,0,0,0,.54-.64,2.93,2.93,0,0,1-.41.75,3.46,3.46,0,0,1-1.66,1.26,1.59,1.59,0,0,1-1.21.06.73.73,0,0,1-.4-.43.63.63,0,0,1,.06-.49,1.18,1.18,0,0,1,.43-.47.59.59,0,0,1,.21-.09.57.57,0,0,0-.18.13,1.49,1.49,0,0,0-.3.5.44.44,0,0,0,.3.57A1.51,1.51,0,0,0,66,41.16Z"/><path class="cls-3" d="M65.34,39.57a12,12,0,0,0,1.74-1,2.27,2.27,0,0,0,.56-.62,1.8,1.8,0,0,1-.44.75,6.13,6.13,0,0,1-1.71,1.22,1.36,1.36,0,0,1-1.21.14,1,1,0,0,1-.34-1.63,1,1,0,0,0-.09.79.86.86,0,0,0,.54.56A1.2,1.2,0,0,0,65.34,39.57Z"/><path class="cls-3" d="M63.89,38.22a4.12,4.12,0,0,0,1.9-1.84,2.06,2.06,0,0,0,.14-.8,1.4,1.4,0,0,0,0-.3,1.31,1.31,0,0,1,.1.29,2,2,0,0,1,0,.87,3.72,3.72,0,0,1-1.88,2.09,1.2,1.2,0,0,1-.88.21.8.8,0,0,1-.58-.67,1.72,1.72,0,0,1,.54-1.2A4.63,4.63,0,0,1,64,36.1a6.18,6.18,0,0,0-.73.88A1.59,1.59,0,0,0,62.93,38a.46.46,0,0,0,.34.37A.92.92,0,0,0,63.89,38.22Z"/><path class="cls-3" d="M63.32,40.73a2.2,2.2,0,0,1,.78.66,1.63,1.63,0,0,1,.22.37,6.81,6.81,0,0,0-1.17-.71,7.32,7.32,0,0,0-1.26-.5,1.54,1.54,0,0,1,.42,0A2.1,2.1,0,0,1,63.32,40.73Z"/><path class="cls-4" d="M68.29,40.59a1.5,1.5,0,0,0,0-.42v0c0-.06-.1-.16-.13-.24a.09.09,0,0,1,0-.07,1.4,1.4,0,0,0,.06-.28v0l0,0h0a0,0,0,0,1,0,0v0a3.52,3.52,0,0,1-2.47,1.71h0c-.35,0-.6-.06-.63-.3-.07-.56,2-1.62,3.06-2.1a.34.34,0,0,0-.06-.12l-.07-.12a2.71,2.71,0,0,1-.24-.35,1.8,1.8,0,0,1-.06-.32v0a1.3,1.3,0,0,0-.07-.33s0-.05,0-.07a.36.36,0,0,0,0-.09,1.87,1.87,0,0,0-.15-.32l0,0a1.37,1.37,0,0,0-.15-.21,2.49,2.49,0,0,0-.44-.42L66,36.11l-.06,0a2.35,2.35,0,0,1-.22.45.05.05,0,0,1,0,0,1.74,1.74,0,0,1-.11.18l-.14.2c-.12.14-.24.28-.36.4l-.26.23a1.48,1.48,0,0,1-.29.22.71.71,0,0,1-.14.1l-.18.11c-.57.3-1.1.35-1.3,0a.32.32,0,0,1,0-.34,0,0,0,0,1,0,0c.37-.72,2.22-1.85,2.89-2.24A1.21,1.21,0,0,0,64.77,35h-.23a5.21,5.21,0,0,0-1.39.3l0,0-.37.16,0,0,0,0,0,0-.18.11a.28.28,0,0,0,0-.09v0a.61.61,0,0,0,0-.13v-.06a1.48,1.48,0,0,0,0-.21.13.13,0,0,0,0-.06,1.43,1.43,0,0,0,0-.22l0,0a.89.89,0,0,0-.08-.17,0,0,0,0,1,0,0v0l0,0A7.81,7.81,0,0,1,60.9,37s.73,1.13-.74,2.66c-.69.71-1.21.44-1.59,0,0,.09,0,.18,0,.27l0,.12,0,.17a.24.24,0,0,1,0,.08,8.32,8.32,0,0,0,.29.94l-.08.06.12.58c.07.4.15.8.22,1.2s.13.8.19,1.2h0l.09.55a1.92,1.92,0,0,0,.11.46,8.16,8.16,0,0,0,.69.6l.18.16.13,0a0,0,0,0,1,0,0L61,45.6l0-.06,0,0h0l.88-1,.18-.2a3,3,0,0,0,1.36,0,2.47,2.47,0,0,0,.29-.06l.43-.13.16-.06s0,0,.06,0l.19-.08a.13.13,0,0,0,.08,0,11.49,11.49,0,0,0,1.41-.74l.12-.07h0a3.44,3.44,0,0,1-.3-.41C65.57,42,67.42,41,68.29,40.59ZM66.4,36.86c1.86,1.37-2.09,2.91-2.17,2.48S65.52,37.45,66.4,36.86Z"/><path class="cls-5" d="M47.34,46.38s7.71,18.79,10.5,18.24S58,44.86,58,44.86s5-2.6,8.41,0c0,0,2.35,28.51-5.25,29.93s-18.84-16-18.84-16S46.7,46,47.34,46.38Z"/><g class="cls-6"><path class="cls-7" d="M58,66a6.49,6.49,0,0,0,.14,2.25,14.21,14.21,0,0,1,.47-4.43A6.66,6.66,0,0,0,58,66Z"/><path class="cls-7" d="M57.32,65.9a3.92,3.92,0,0,0,0,2,6.46,6.46,0,0,1,1-3.76,3.45,3.45,0,0,0-.38.45A3.84,3.84,0,0,0,57.32,65.9Z"/></g><path class="cls-8" d="M42.41,58.63l.06-.09,0,0,.14-.2,0-.09.22-.33h0a79.5,79.5,0,0,1,4.7-6.58h0c.51,4.86,2.43,12,5.8,14.47,2.17,1.62,2.58-.58,2.44-2.33.08.08.16.17.24.24l.08.08.21.2.1.09.25.2.2.13.13.07.16.08.11,0,.18,0h.34C60.63,64,58,44.86,58,44.86a12,12,0,0,1,3.56-1.08l.51,0h.11a10.28,10.28,0,0,1,1.11,0h0l-.09,0c-1.64.11-5.59,3.29-3.79,10.24S58.37,71.14,60.74,72.6c1.5.92,3.1-.67,4.09-2l-.1.25-.16.4c-.09.21-.19.4-.28.6s-.12.25-.19.37-.14.24-.21.36l-.13.2a1.3,1.3,0,0,1-.1.15,3.3,3.3,0,0,1-.22.3,1.34,1.34,0,0,0-.11.14l-.15.18-.24.24a4,4,0,0,1-.31.27l-.23.17-.15.09-.23.13-.21.11a2.72,2.72,0,0,1-.63.2h0C54.64,76,45.48,63.38,43,59.74c-.42-.61-.65-1-.65-1Z"/><g class="cls-9"><path class="cls-10" d="M64.73,65.46A8.46,8.46,0,0,0,65,63.93c.16-.93.32-2.17.46-3.41.27-2.48.39-5,.39-5s.06-2.5,0-5c0-1.25-.12-2.5-.21-3.43a10.27,10.27,0,0,0-.19-1.55,10.51,10.51,0,0,0,0,1.56c0,.94,0,2.18,0,3.43,0,2.49-.13,5-.13,5s-.06,2.49-.23,5c-.1,1.24-.21,2.48-.28,3.41A12,12,0,0,0,64.73,65.46Z"/></g><g class="cls-9"><path class="cls-10" d="M63.18,71.12c.07,0,.4-.44.67-1a11.63,11.63,0,0,0,.46-1.07,9.79,9.79,0,0,0,.22-1.15,2.51,2.51,0,0,0,0-1.17,4.7,4.7,0,0,0-.37,1.09c-.17.54-.36,1.07-.36,1.07s-.14.54-.31,1.08A4.59,4.59,0,0,0,63.18,71.12Z"/></g><path class="cls-11" d="M30.38,83.53c.31-.07.63-.13.95-.18l.58-.11c.67-.1,1.34-.18,2-.24l.23,0c.55,0,1.09-.07,1.62-.08h.36a12.66,12.66,0,0,1,4.34.58l.17.07Z"/><path class="cls-12" d="M30.38,83.53c.31-.07.63-.13.95-.18l.58-.11c.67-.1,1.34-.18,2-.24l.23,0c.55,0,1.09-.07,1.62-.08h.36a12.66,12.66,0,0,1,4.34.58l.17.07Z"/><path class="cls-13" d="M30.38,83.53c.31-.07.63-.13.95-.18l.58-.11c.67-.1,1.34-.18,2-.24l.23,0c.55,0,1.09-.07,1.62-.08h.36a12.66,12.66,0,0,1,4.34.58l.17.07Z"/><path class="cls-5" d="M48.15,49.53c0,.15,0,.3,0,.45,0,1.11-.14,2.24-.25,3.34v0c0,.17,0,.33,0,.5q-.51,5.4-1.24,10.77h0c-.43,3.24-.9,6.48-1.37,9.72-.2,1.38-.41,2.76-.61,4.13L44,82.72l-.12.81H21.42c0-.21,0-.41,0-.62s0-.41,0-.6a1.27,1.27,0,0,0,0-.2c-.07-1.61-.24-3.21-.45-4.8-.28-2-.62-4.09-1-6.12-.14-.68-.29-1.36-.44-2-.28-1.25-.58-2.51-.91-3.75-.17-.66-.35-1.31-.54-2s-.37-1.3-.57-1.94c0-.12-.07-.25-.11-.37s0-.07,0-.11a.08.08,0,0,0,0-.05A10.2,10.2,0,0,0,18,57.75c0-.17,0-.34,0-.51s0-.56,0-.85a5.72,5.72,0,0,0,0-.58c0-.1,0-.2,0-.31a48.51,48.51,0,0,0-2.14-10.58l-.05-.14.07,0c2.42-1.58,8.54-2.84,11.3-3.35l.75-.14.64-.11h1.66c1.83,0,4,.05,6.12.26h.28l.6.07h0l.45.06c4.69.63,9.14,2.22,10.2,6.16,0,0,0,0,0,0a7.51,7.51,0,0,1,.21,1.3C48.14,49.21,48.15,49.37,48.15,49.53Z"/><path class="cls-8" d="M48.15,49.53a1.48,1.48,0,0,1,0,.21c0,1.18-.15,2.35-.26,3.52l0,.34c-.34,3.67-.78,7.33-1.27,11-.42,3.18-.88,6.35-1.34,9.52-.21,1.48-.43,3-.65,4.44-.2,1.32-.39,2.63-.59,3.94,0,.34-.1.7-.16,1H21.4c0-.21,0-.41,0-.62s0-.41,0-.6,0-.3,0-.44c-.07-1.61-.24-3.21-.45-4.8a101.2,101.2,0,0,0-3.46-15.72c0-.11-.06-.22-.1-.33s0,0,0,0l0-.12A9.55,9.55,0,0,0,18,57.75c0-.17,0-.34,0-.51s0-.56,0-.85a5.72,5.72,0,0,0,0-.58c0-.11,0-.23,0-.34a47.41,47.41,0,0,0-2-10.42c0-.13-.08-.23-.1-.31l-.07-.21c2.42-1.61,8.78-2.91,11.5-3.41l.89-.16.36-.06h1.53c1.87,0,4.08.05,6.3.27h.25l.38,0h0l.48.06C42.48,42,47.21,43.62,48,48v0a5.83,5.83,0,0,1,.11,1C48.14,49.21,48.15,49.37,48.15,49.53Z"/><path class="cls-8" d="M21.42,83.53c0-.41,0-.83,0-1.22a1.27,1.27,0,0,0,0-.2c-.07-1.61-.24-3.21-.45-4.8-.28-2-.62-4.09-1-6.12-.14-.68-.28-1.36-.44-2-.28-1.25-.58-2.51-.91-3.75-.17-.66-.35-1.31-.54-2s-.37-1.3-.57-1.94l0-.15c0-.19.08-.37.11-.55.79-3.85,1.41-6.49,1.41-6.49a11.35,11.35,0,0,0,.05,1.14h0c0,.19,0,.41,0,.65a.49.49,0,0,0,0,.12c0,.28,0,.59.07.92a.76.76,0,0,1,0,.15c.62,6.83,2.86,23.21,9,26.08l.34.15Z"/><path class="cls-8" d="M44.63,78.47,44,82.72l-.12.81H40.34l.12-.07a11.69,11.69,0,0,0,4.13-4.92A.25.25,0,0,0,44.63,78.47Z"/><path class="cls-8" d="M27,47.56v0Z"/><path class="cls-14" d="M34.13,82.05c0-.47,0-1,0-1.3a3.06,3.06,0,0,0,0-.59,2.57,2.57,0,0,0-.06.59c0,.35,0,.83-.06,1.3s0,.66,0,1,0,.39,0,.53h.25V83C34.13,82.68,34.13,82.37,34.13,82.05Z"/><path class="cls-8" d="M37.08,76.67c0-.36-.08-.72-.13-1.09-.16-1.2-.32-2.39-.44-3.6-.37-3.64-1.86-15.24-2.47-20-.14-1.13-.24-1.87-.26-2A2.7,2.7,0,0,0,35,48.82h0a3.87,3.87,0,0,0,.42-1.46.28.28,0,0,0,0-.06,11.54,11.54,0,0,0-1-1.45,3.68,3.68,0,0,0-.32-.37s0,0,0,0-.25-.25-.37-.37a2.41,2.41,0,0,0-.49-.34.93.93,0,0,0-.5-.11l-.28.06h0l-.08,0h0a4,4,0,0,0-2.32,2.71.82.82,0,0,0,0,.27,9,9,0,0,0,.82,1.21h0a5.12,5.12,0,0,0,.51.54,3.08,3.08,0,0,0,.82.6c-1.1,6.8-2,13.67-2.55,20.54-.37,4.7-.86,8.88,1.68,12.73a1.74,1.74,0,0,0,.11.18h4c.13-.21.25-.42.36-.64a15.26,15.26,0,0,0,1-2.12A9,9,0,0,0,37.08,76.67Z"/><path class="cls-10" d="M37.44,75.33l-.06-.47h0c-.14-1-.28-2.07-.38-3.11-.29-2.86-1.27-10.61-2-16.1q-.09-.72-.18-1.38l-.09-.72c-.14-1.07-.25-2-.34-2.63,0-.1,0-.2,0-.3s-.05-.38-.07-.52,0-.18,0-.24,0-.05,0-.07a2,2,0,0,0,.45-.29,1.07,1.07,0,0,0,.16-.14,2.78,2.78,0,0,0,.55-.7l.1-.19a3,3,0,0,0,.24-.62,2.89,2.89,0,0,0,.11-.48c0-.2,0-.32,0-.32a9.62,9.62,0,0,0-.52-.81,7.19,7.19,0,0,0-1.31-1.49s0,0,0,0l0,0L34,44.65h0a1.45,1.45,0,0,0-.39-.2.31.31,0,0,0-.13,0,.5.5,0,0,0-.21,0,1.31,1.31,0,0,0-.27.06h-.08a1.82,1.82,0,0,0-.28.14h0l-.16.09-.06,0h0a3.85,3.85,0,0,0-.43.31,4.14,4.14,0,0,0-1.31,1.74,1.42,1.42,0,0,0-.09.68l.16.27a9.25,9.25,0,0,0,.61.87,4.57,4.57,0,0,0,.42.49,3.75,3.75,0,0,0,1,.73c-1.1,6.81-2,13.67-2.56,20.54-.37,4.76-.86,9,1.77,12.87.06.1.13.19.2.29h3.64c.13-.21.26-.43.37-.65a15.1,15.1,0,0,0,1.09-2.36A10.38,10.38,0,0,0,37.44,75.33Z"/><path class="cls-15" d="M37.21,80.52a15.1,15.1,0,0,1-1.09,2.36c-.11.22-.24.44-.37.65H32.11c-.07-.1-.14-.19-.2-.29-2.63-3.9-2.14-8.11-1.77-12.87.54-6.87,1.46-13.73,2.56-20.54a3.75,3.75,0,0,1-1-.73,4.57,4.57,0,0,1-.42-.49,9.25,9.25,0,0,1-.61-.87l-.16-.27a1.42,1.42,0,0,1,.09-.68,4.14,4.14,0,0,1,1.31-1.74l.73-.32.09,0s0,0,0,.05a6.89,6.89,0,0,0-.48,2.68,2.52,2.52,0,0,0,.15.79,1.33,1.33,0,0,0,.41.62,1.89,1.89,0,0,0,2.17,0h0a3.64,3.64,0,0,0,.54-.35l-.1.19a2.78,2.78,0,0,1-.55.7,1.07,1.07,0,0,1-.16.14,2,2,0,0,1-.45.29s0,0,0,.07,0,.13,0,.24,0,.31.07.52,0,.2,0,.3c.09.66.2,1.56.34,2.63l.09.72q.09.66.18,1.38C34.76,54.5,34.39,53,34,52c-.26-.73-.5-1.2-.69-1.09-.66.4-3.35,21.95-.92,26.94,2,4.15,3.86,2.27,4.65-1.2a16.27,16.27,0,0,0,.3-1.81l.06.47A10.38,10.38,0,0,1,37.21,80.52Z"/><path class="cls-16" d="M35.1,62.22S34,53.38,33.89,53.38s.67,8.9.67,8.9,1.06,8.84,1.21,8.84S35.1,62.22,35.1,62.22Zm1.11,11.11a3.51,3.51,0,0,0-.32-1.19,4,4,0,0,0-.06,1.23c0,.6,0,1.2,0,1.2s.06.6.13,1.2a4.07,4.07,0,0,0,.2,1.21,3.21,3.21,0,0,0,.18-1.22c0-.61,0-1.22,0-1.22S36.31,73.93,36.21,73.33ZM34.65,47.49a1.89,1.89,0,0,0-.34-.74c-.26-.34-.65-.48-.68-.41s.23.3.35.61a1.91,1.91,0,0,1,.14.62,1.87,1.87,0,0,1,0,.63c0,.32-.22.62-.17.68s.38-.19.54-.58A1.91,1.91,0,0,0,34.65,47.49Z"/><g class="cls-6"><path class="cls-7" d="M39.76,44c.43,1,1.72,1.67,2.41,2.49s1.5,2,2.18,3a.24.24,0,0,0,.44-.06A4.21,4.21,0,0,0,43.84,45c-.84-1-2.56-2.29-3.92-1.65a.46.46,0,0,0-.16.61Z"/></g><g class="cls-6"><path class="cls-7" d="M23.68,83.53H22.37a5,5,0,0,1-.29-2.61.33.33,0,0,1,.59-.07A18,18,0,0,0,23.68,83.53Z"/></g><g class="cls-6"><path class="cls-7" d="M43.31,82.12A3.75,3.75,0,0,1,43,83.53h-.9c.32-.47.6-1,.9-1.48A.15.15,0,0,1,43.31,82.12Z"/></g><g class="cls-17"><path class="cls-7" d="M46.17,66.72a2.08,2.08,0,0,1,0-.41l.12-1.08c.1-.89.22-2.08.33-3.28.22-2.38.3-4.78.3-4.78s.12-2.39,0-4.78c0-1.2-.11-2.4-.2-3.29,0-.45-.08-.82-.1-1.08a2.51,2.51,0,0,1,0-.41,1.78,1.78,0,0,1,.08.4c0,.26.1.63.15,1.08.11.89.21,2.09.28,3.29.12,2.4,0,4.8,0,4.8s-.11,2.4-.38,4.79c-.13,1.19-.28,2.38-.42,3.27-.06.45-.12.82-.17,1.08A1.78,1.78,0,0,1,46.17,66.72Z"/></g><path class="cls-5" d="M19.1,58.13c-.11.6-.23,1.08-.32,1.39a.5.5,0,0,1,0,.13l-.08.28-1,.87-.19.17,0,0c-2.54,2.24-8.16,7.44-8.75,10.14a1.66,1.66,0,0,0,0,.32s0,.07,0,.11a.82.82,0,0,0,0,.26.69.69,0,0,0,0,.13c0,.1.06.2.1.31l0,.09s0,.07,0,.11.09.2.14.31a3.51,3.51,0,0,0,.22.43l0,0,.13.23c0,.09.1.18.16.27s.09.15.15.23c1.85,2.85,5.78,6.75,8.8,9.56H6.14c-.21-.22-.41-.43-.6-.65s-.49-.55-.72-.83c-.44-.51-.86-1-1.25-1.55a25.49,25.49,0,0,1-1.78-2.64c-.15-.25-.29-.5-.41-.75s-.19-.34-.27-.51c-.2-.42-.38-.84-.54-1.25,0-.14-.09-.28-.14-.42a10,10,0,0,1-.29-1.1s0-.07,0-.1A4,4,0,0,1,0,73.14a4.44,4.44,0,0,1,0-.63v-.13c0-.13,0-.26,0-.39s0-.09,0-.13,0-.19,0-.29a.77.77,0,0,0,0-.15l.06-.31,0-.14c0-.16.07-.31.11-.47s0,0,0,0,.08-.31.13-.47a1,1,0,0,0,0-.16l.12-.36.06-.18c0-.12.09-.25.14-.37l.06-.17c.06-.18.14-.36.21-.55l0,0c.07-.17.14-.35.22-.52a1.08,1.08,0,0,1,.08-.19l.18-.41.09-.2c.07-.14.13-.29.2-.43a1.42,1.42,0,0,0,.08-.18l.3-.61,0-.06L2.56,65l.1-.2c.07-.15.15-.3.23-.45A2.12,2.12,0,0,0,3,64.16l.26-.47.09-.18.36-.65a.3.3,0,0,0,0-.08l.33-.58L4.2,62l.27-.46c0-.08.09-.15.13-.22l.29-.5L5.38,60l0,0,0-.06c.13-.2.25-.4.37-.6a2.39,2.39,0,0,0,.13-.21l.3-.48a2.39,2.39,0,0,1,.13-.21l.32-.51.1-.15.43-.68,0-.06.39-.6.12-.18.32-.49.22-.33L8.55,55l.06-.1.44-.66a.05.05,0,0,0,0,0l.41-.6.27-.39L9.91,53l.09-.14.15-.22.26-.37.43-.63c2.74-4,4.92-6.83,4.92-6.83l.12.13a.49.49,0,0,1,.12.13,12.27,12.27,0,0,1,2.78,4.82s0,0,0,0c.06.19.11.38.16.57s.09.36.14.55,0,.16,0,.24.06.26.08.4c.07.39.12.78.16,1.16s.06.71.07,1.06c0,.2,0,.41,0,.61v.15a21.54,21.54,0,0,1-.17,2.43,2.23,2.23,0,0,0,0,.23,3.06,3.06,0,0,1,0,.32Z"/><g class="cls-6"><path class="cls-7" d="M19,50.22a2.45,2.45,0,0,1,.2.56,10.51,10.51,0,0,1,.27,1.28,11.51,11.51,0,0,1,.1,1.9,11.29,11.29,0,0,1-.3,1.87,9.66,9.66,0,0,1-.41,1.25,2.22,2.22,0,0,1-.26.54,3.57,3.57,0,0,1,.16-.57A11.86,11.86,0,0,0,19,55.8a12.49,12.49,0,0,0,.22-1.86,12.41,12.41,0,0,0,0-1.86,11.74,11.74,0,0,0-.18-1.27A3,3,0,0,1,19,50.22Z"/><path class="cls-7" d="M20.93,53.3a4.2,4.2,0,0,1-.2,1.14c-.16.56-.38,1.1-.38,1.1s-.26.53-.57,1a4.66,4.66,0,0,1-.73.93s.29-.51.56-1,.49-1,.49-1a11.09,11.09,0,0,0,.44-1C20.74,53.85,20.89,53.3,20.93,53.3Z"/><path class="cls-7" d="M18.41,47.93a9.22,9.22,0,0,1-.42-.87,8.07,8.07,0,0,0-.47-.82,8,8,0,0,0-.52-.81c-.28-.39-.61-.75-.59-.77a2.88,2.88,0,0,1,.74.66,7.24,7.24,0,0,1,.6.79,6.79,6.79,0,0,1,.42.88A2.94,2.94,0,0,1,18.41,47.93Z"/><path class="cls-7" d="M3.75,70.43a4.81,4.81,0,0,1,1.39-.27,5.2,5.2,0,0,1,1,0,3.16,3.16,0,0,1,.45.08,3.87,3.87,0,0,1,.42.16,3.2,3.2,0,0,1,.84.51,2.42,2.42,0,0,1,.59.75.94.94,0,0,1,.12.41s-.08-.15-.22-.36a2.52,2.52,0,0,0-.62-.66,3.39,3.39,0,0,0-.8-.44,2.57,2.57,0,0,0-.41-.12s-.16,0-.41-.1a5.15,5.15,0,0,0-.94-.08C4.45,70.34,3.76,70.47,3.75,70.43Z"/><path class="cls-7" d="M6.05,68.71a3,3,0,0,1,.87.55,6.38,6.38,0,0,1,.73.7,6.17,6.17,0,0,1,.54.85,2.8,2.8,0,0,1,.35.92S8.3,71.3,8,70.89a7.68,7.68,0,0,0-.59-.77,7.77,7.77,0,0,0-.65-.73C6.44,69,6,68.74,6.05,68.71Z"/></g><path class="cls-8" d="M19.1,58.13c-.11.6-.23,1.08-.32,1.39a.5.5,0,0,1,0,.13l-.08.28-1,.87-.19.17,0,0c-2.54,2.24-8.16,7.44-8.75,10.14a1.66,1.66,0,0,0,0,.32s0,.07,0,.11,0,.17,0,.26a.69.69,0,0,0,0,.13c0,.1.06.2.1.31l0,.09s0,.07,0,.11.09.21.14.31a1.74,1.74,0,0,0,.1.19l.12.24,0,0,.13.23c0,.09.1.18.16.27s.09.15.15.23a5.1,5.1,0,0,0-3.5-1.28C4.58,73,6.11,79,9.43,83.53H6.14c-.21-.22-.41-.43-.6-.65s-.49-.55-.72-.83c-.44-.51-.86-1-1.25-1.55a25.49,25.49,0,0,1-1.78-2.64c-.15-.25-.29-.5-.41-.75s-.19-.34-.27-.51c-.2-.42-.39-.84-.54-1.25,0-.14-.09-.28-.14-.42a10,10,0,0,1-.29-1.1s0-.07,0-.1A4,4,0,0,1,0,73.14a4.44,4.44,0,0,1,0-.63v-.13c0-.13,0-.26,0-.39s0-.09,0-.13,0-.19,0-.29a.77.77,0,0,0,0-.15l.06-.31,0-.14c0-.16.07-.31.11-.47s0,0,0,0,.08-.31.13-.47a1,1,0,0,0,0-.16l.12-.36.06-.18c0-.12.09-.25.14-.37l.06-.17c.06-.18.14-.36.21-.55l0,0c.07-.17.14-.35.22-.52a1.08,1.08,0,0,1,.08-.19l.18-.41.09-.2c.07-.14.13-.29.2-.43a1.42,1.42,0,0,0,.08-.18l.3-.61,0-.06L2.56,65l.1-.2c.07-.15.15-.3.23-.45A2.12,2.12,0,0,0,3,64.16l.26-.47.09-.18.36-.65a.3.3,0,0,0,0-.08l.33-.58L4.2,62l.27-.46c0-.08.09-.15.13-.22l.29-.5L5,60.64c.12-.22.25-.43.38-.65l0,0,0-.06c.13-.2.25-.4.37-.6a2.39,2.39,0,0,0,.13-.21l.3-.48a2.39,2.39,0,0,1,.13-.21l.32-.51.1-.15.43-.68,0-.06.39-.6.12-.18.32-.49a1.74,1.74,0,0,0,.11-.18l.11-.15L8.55,55l.06-.1.44-.66a.05.05,0,0,0,0,0l.41-.6a.57.57,0,0,0,.08-.13l.19-.26L9.91,53l.09-.14.15-.22.23-.34,0,0,.43-.63.16,0c-.14.2-7.37,13.36-5.56,15.57S16.63,58.8,18,55.5a0,0,0,0,0,0,0l0-.11a13.32,13.32,0,0,0,.7-5.49s0,0,0,0c.06.19.11.38.16.57s.09.36.14.55,0,.16,0,.24.06.26.08.4c.07.39.12.78.16,1.16s.06.71.07,1.06c0,.2,0,.41,0,.61h0l-.06.5s0,.1,0,.15c-.06.41-.14.77-.21,1.08a1,1,0,0,0,0,.14,3.39,3.39,0,0,0,0,.91.41.41,0,0,0,0,.11,1.79,1.79,0,0,0,0,.23Z"/><path class="cls-18" d="M16.84,83.53h-.57a32.85,32.85,0,0,1-3.1-3.09s-.37-.44-.9-1.11-1.19-1.6-1.82-2.55a18.07,18.07,0,0,0-1.77-2.52,2.17,2.17,0,0,0-.84-.54c-.24-.08-.39-.09-.39-.11a.86.86,0,0,1,.42,0,2.3,2.3,0,0,1,1,.49,5.79,5.79,0,0,1,1,1.13l1,1.35c.67.91,1.36,1.8,1.9,2.46s.92,1.07.92,1.07a34,34,0,0,0,3.12,3.29Z"/><path class="cls-18" d="M17.76,50.55a18.53,18.53,0,0,1,.3,2c.1,1,.06,2,.14,2a6.17,6.17,0,0,0,.24-2,13.91,13.91,0,0,0-.15-2,13.37,13.37,0,0,0-.59-2,6,6,0,0,0-1-1.81c-.07,0,.33,1,.6,1.92A17.32,17.32,0,0,1,17.76,50.55Z"/><path class="cls-7" d="M38.22,54.39l7.48-.28s-.58,8.34-4,7.62S38.22,54.39,38.22,54.39Z"/><path class="cls-2" d="M28.47,38.68l.21,4.2s2.78,3.16,7.91.53l-.21-4.73S30.39,36.23,28.47,38.68Z"/><path class="cls-4" d="M36.52,41.86c-4.59,4.5-8.25-3.4-6-1.92,1.88,1.25,5,0,5.92-.44v-.16l0-.51a.55.55,0,0,0-.19-.22,17.27,17.27,0,0,0-1.72-.55c-.88-.15-1.92-.26-2.81-.46a5.78,5.78,0,0,0-.93,0h0l-.41.06h0a2.73,2.73,0,0,0-.41.1h-.05l-.32.12-.07,0a2.68,2.68,0,0,0-.33.18l0,0a2.43,2.43,0,0,0-.25.2l-.08.06a3.32,3.32,0,0,0-.25.27h0l.21,4.2s2.78,3.16,7.91.53Z"/><path class="cls-2" d="M45.57,20.56a2.11,2.11,0,0,1,2.91-.65c2,1.3,1,8.11-1.7,8S45.1,20.42,45.57,20.56Z"/><path class="cls-4" d="M45.57,20.56a2.11,2.11,0,0,1,2.91-.65c2,1.3,1,8.11-1.7,8S45.1,20.42,45.57,20.56Z"/><path class="cls-3" d="M48,25.89c0-.05-.2,0-.44-.06a.44.44,0,0,1-.28-.24.63.63,0,0,1,0-.45.82.82,0,0,1,.25-.38c.1-.1.23-.13.41-.28a.79.79,0,0,0,.26-.69c0-.19-.09-.27-.08-.27a2,2,0,0,0-.15-.21,1.09,1.09,0,0,0-.25-.2l-.2-.09h0s0,0,0,0,0-.07,0-.12l0-.18a2.2,2.2,0,0,1,.28-.72c.26-.46.66-.63.64-.7s-.47,0-.87.44a2.47,2.47,0,0,0-.47.84,1.12,1.12,0,0,0-.06.23.89.89,0,0,0,0,.26c0,.22,0,.43,0,.59a1.59,1.59,0,0,1,.39,0l.09,0a.56.56,0,0,1,.11.11.46.46,0,0,1,.06.1s0,0,0,0-.23.17-.39.36a1.4,1.4,0,0,0-.36.73,1.13,1.13,0,0,0,.16.8.59.59,0,0,0,.51.25C47.88,26.09,48.05,25.93,48,25.89Z"/><path class="cls-19" d="M46.78,27.93c-2.69-.08-1.68-7.51-1.21-7.37a2.55,2.55,0,0,1,1.52-1,4.8,4.8,0,0,0,.19,2.76s.7-1.12,1.08-.75-.2,2.18.61,2.35c.25.06.41-.14.52-.44C49.34,25.67,48.35,28,46.78,27.93Z"/><g class="cls-20"><path class="cls-21" d="M49.27,21.42c.12.38.07.76-.11.85s-.41-.15-.52-.53-.06-.76.11-.85S49.16,21,49.27,21.42Z"/><path class="cls-21" d="M48.58,20.32a.28.28,0,0,1-.13.34.19.19,0,0,1-.29-.09.32.32,0,0,1,.13-.35A.19.19,0,0,1,48.58,20.32Z"/></g><path class="cls-2" d="M15.61,20.76c-.21-6.09,2.31-16,15.13-16.06S45.59,18.75,45.59,18.75a39,39,0,0,1,1.19,9.18c-.16,4-2.22,9.89-11.46,10.84s-16.35-2.93-18-8.61A4.72,4.72,0,0,1,13,26.36C12.31,23.74,13.74,21.08,15.61,20.76Z"/><g class="cls-17"><path class="cls-4" d="M15.61,20.76a19.75,19.75,0,0,1,.75-6.13,16,16,0,0,1,2.09-4.38C16.6,13.36,16.28,18,16.38,20.86a7.65,7.65,0,0,1-.81-.09Z"/><path class="cls-4" d="M13.93,21.8a5.41,5.41,0,0,0-.38,3.65,4.74,4.74,0,0,0,4.36,3.81c1.66,5.67,8.77,9.55,18,8.6,4.87-.49,7.74-2.37,9.4-4.62-1.53,2.64-4.48,5-10,5.53-9.24.95-16.35-2.93-18-8.61A4.72,4.72,0,0,1,13,26.36,5.23,5.23,0,0,1,13.93,21.8Z"/></g><path class="cls-22" d="M40.06,24c0,1.22.51,2.21,1.2,2.21s1.25-1,1.27-2.2-.51-2.22-1.19-2.22S40.08,22.78,40.06,24Z"/><path class="cls-23" d="M40.76,22.05a3.65,3.65,0,0,0-.14,1c0,1.22.51,2.21,1.19,2.22a.88.88,0,0,0,.58-.26c-.22.73-.64,1.24-1.13,1.24-.69,0-1.22-1-1.2-2.21A2.81,2.81,0,0,1,40.76,22.05Z"/><path class="cls-24" d="M42.29,23.62c0,.42-.12.78-.34.8s-.41-.3-.44-.72.13-.78.34-.8S42.26,23.21,42.29,23.62Z"/><path class="cls-24" d="M41.45,22.51a.17.17,0,0,0,.16.17.17.17,0,0,0,.16-.17.16.16,0,1,0-.32,0Z"/><path class="cls-3" d="M15,27.77a.87.87,0,0,0,.37.76.67.67,0,0,0,.38.13.6.6,0,0,0,.47-.22,1.1,1.1,0,0,0,.28-.57.77.77,0,0,0-.2-.69,1.72,1.72,0,0,0-.39-.26.65.65,0,0,1-.19-.24.8.8,0,0,1-.05-.56.4.4,0,0,1,.28-.3l.11,0h.13l.06,0,0,0,.1.15a.49.49,0,0,0,.4.27.33.33,0,0,0,.23-.11.47.47,0,0,0,.14-.26,3.13,3.13,0,0,0,.07-.79,5.21,5.21,0,0,0,0-.55,3.35,3.35,0,0,0-.29-1,1.79,1.79,0,0,0-.53-.65c-.4-.28-.72-.2-.72-.15s.28.09.56.4a2.26,2.26,0,0,1,.53,1.51c0,.16,0,.32,0,.48s0,.12,0,.16-.06,0-.06,0h0l-.08-.07a.76.76,0,0,0-.18-.09A.8.8,0,0,0,16,25a.85.85,0,0,0-.53.2,1.2,1.2,0,0,0-.44.74,1.55,1.55,0,0,0,.17,1.11,1.15,1.15,0,0,0,.39.4,2.49,2.49,0,0,1,.35.16.2.2,0,0,1,.08.19.58.58,0,0,1-.11.31.38.38,0,0,1-.5.12C15.11,28.08,15,27.74,15,27.77Z"/><path class="cls-21" d="M14.37,22.9c-.27.27-.58.35-.69.18s0-.53.28-.8.58-.35.69-.18S14.64,22.63,14.37,22.9Z"/><path class="cls-21" d="M15.37,21.58a.28.28,0,0,1-.13.34.19.19,0,0,1-.29-.09.32.32,0,0,1,.13-.35A.19.19,0,0,1,15.37,21.58Z"/><path class="cls-4" d="M32.91,28.25a4.94,4.94,0,0,0,3.84-1.2s1.12.66-.8,1.47C33.41,29.59,32.91,28.25,32.91,28.25Z"/><path class="cls-3" d="M34,28.76a7.57,7.57,0,0,0,.82,0,4.78,4.78,0,0,0,1.64-.62,1,1,0,0,0,.51-.59.49.49,0,0,0-.25-.49,1.2,1.2,0,0,0-.45-.18l-.2,0a2,2,0,0,0-.46,0,2.61,2.61,0,0,0-.54.1l-.32.13a7.8,7.8,0,0,0-.7.47l0-.9V25a4.91,4.91,0,0,1,.08-1.22A5.58,5.58,0,0,1,34.31,25c0,.34.07.73.11,1.1l0,.55c0,.05,0,.07,0,.08l.07-.05a2.58,2.58,0,0,1,.38-.18,3.57,3.57,0,0,1,.65-.16,2.37,2.37,0,0,1,.56,0,1.19,1.19,0,0,1,.26,0,1.88,1.88,0,0,1,.64.3,1.33,1.33,0,0,1,.33.4.91.91,0,0,1,0,.59,1.36,1.36,0,0,1-.75.82,4.39,4.39,0,0,1-1.82.5A1.28,1.28,0,0,1,34,28.76Z"/><path class="cls-25" d="M35.73,27.19c.05.12-.12.31-.38.43s-.51.11-.56,0,.11-.32.37-.43S35.67,27.07,35.73,27.19Z"/><path class="cls-4" d="M26.6,26.15l-.42,0a4.42,4.42,0,0,0-1.19.3h0c-1.07.43-1.78,1.2-1.74,2,.06,1.21,1.65,2.13,3.57,2s3.41-1.15,3.35-2.37S28.51,26.06,26.6,26.15ZM46.15,26A1.86,1.86,0,0,0,45,24.78a4.36,4.36,0,0,0-2.55-.18l-.15,0a4.82,4.82,0,0,0-1,.37,4.25,4.25,0,0,0-.88.55,2.1,2.1,0,0,0-.91,2c.27,1.19,2,1.81,3.83,1.38a4.23,4.23,0,0,0,2.48-1.51A1.75,1.75,0,0,0,46.15,26Z"/><path class="cls-4" d="M21.52,11.72C31.84,19.67,43.75,14,43.75,14a15.12,15.12,0,0,1,1.65,3.77C44.69,14.6,41.58,4.62,30.74,4.7c-12.82.09-15.34,10-15.13,16.06a2.51,2.51,0,0,0-.93.38,4.72,4.72,0,0,0,.82.66c2.05.93,1.78,4.61,3,3.66s.4-4.71.4-4.71C21.12,18.73,21.52,11.72,21.52,11.72Z"/><path class="cls-26" d="M15.07,20.79A7.32,7.32,0,0,1,12,14.42c.1-5.37,3.29-7.71,7.79-7.6,0,0,4.55-6.95,11.3-6.82S39.75,5.77,42.4,5.37,45.84,4.1,45.84,4.1,46,6.93,44.65,7.87a11.42,11.42,0,0,0,2.91-1.21,10,10,0,0,1-1.32,5.66s1.59,3.1.79,5.26a18.25,18.25,0,0,0-.93,3.09S44.65,14.75,43.33,13c0,0-11.92,5.66-22.24-2.29,0,0-.39,7-2.64,9,0,0,.79,3.77-.4,4.72S17.13,21.71,15.07,20.79Z"/><path class="cls-26" d="M26.25,18.45c-.05.1-.42,0-.75.09a1.65,1.65,0,0,0-.58.21,1.78,1.78,0,0,0-.58.25c-.28.17-.5.48-.61.44s-.07-.47.2-.84a2.36,2.36,0,0,1,.44-.45,1.67,1.67,0,0,1,.25-.15,1.38,1.38,0,0,1,.29-.06,1.91,1.91,0,0,1,.62,0C26,18.06,26.31,18.36,26.25,18.45Z"/><path class="cls-26" d="M41.87,17.27c-.07.08-.42-.11-.74-.22a1.58,1.58,0,0,0-.62-.11.39.39,0,0,0-.15,0,1,1,0,0,0-.39,0,1,1,0,0,0-.38.17c-.11.07-.18.14-.24.13s-.08-.13,0-.3a1,1,0,0,1,.39-.51,1.49,1.49,0,0,1,.61-.25,1.42,1.42,0,0,1,.31,0,2,2,0,0,1,.28.1,2.15,2.15,0,0,1,.52.33C41.75,16.84,42,17.19,41.87,17.27Z"/><path class="cls-27" d="M18.08,8a2,2,0,0,0-.75.15,4.26,4.26,0,0,0-1,.51,4.48,4.48,0,0,0-.78.81,2.46,2.46,0,0,0-.5,1s.28-.47.65-.87a4.56,4.56,0,0,1,.79-.71,4.73,4.73,0,0,1,.91-.56,2.73,2.73,0,0,1,.69-.22c.2,0,.33,0,.34,0S18.3,8,18.08,8Zm1.59.52a.93.93,0,0,0-.34,0h-.06l-.07,0h0a1,1,0,0,0-.2.07l-.07,0a2.7,2.7,0,0,0-.63.38,4.78,4.78,0,0,0-.62.51,6.91,6.91,0,0,0-1,1.24,6.24,6.24,0,0,0-.38.63h0l-.08.18c0,.11-.1.27-.19.46v0a7.54,7.54,0,0,0-.23.75h0a7,7,0,0,0-.15.82v0a.28.28,0,0,0,0,.09,5.77,5.77,0,0,0,0,1.5,3.39,3.39,0,0,0,.09.52.62.62,0,0,0,.06.19,6.9,6.9,0,0,0-.05-.72,7.52,7.52,0,0,1,.1-1.58l.06-.33a9.34,9.34,0,0,1,.36-1.18c.09-.19.16-.36.21-.47l.1-.17a3.52,3.52,0,0,1,.19-.38v0l.14-.23a7.32,7.32,0,0,1,1-1.24l0,0a5.88,5.88,0,0,1,1.1-.88L19,8.73l0,0h0l.21-.1h.06a1.36,1.36,0,0,1,.33-.07l0,0Zm.72,1a2.29,2.29,0,0,0-.42.29l-.07.07a1.94,1.94,0,0,0-.29.31l0,0h0l0,0a2.64,2.64,0,0,0-.22.47.49.49,0,0,0,0,.11,1.19,1.19,0,0,0-.07.62,2.5,2.5,0,0,0,.2-.44l.05-.11a3.22,3.22,0,0,1,.21-.35s0,0,0,0l0,0,.08-.11a2.08,2.08,0,0,1,.19-.28l.14-.19c.14-.17.31-.32.37-.4s0,0,0-.05S20.46,9.45,20.39,9.47ZM28.16,1.7a14.34,14.34,0,0,0-1.64.52A13,13,0,0,0,25,3c-.41.23-.67.41-.67.41s-.26.18-.63.49a9.46,9.46,0,0,0-1.22,1.23c-.16.2-.3.41-.43.61l-.09.13c-.11.19-.21.38-.3.55v0a1.19,1.19,0,0,0-.08.16c-.06.14-.11.26-.15.37a1.42,1.42,0,0,0-.05.16,1,1,0,0,0-.06.2s.1-.19.21-.4h0c.05-.08.1-.18.15-.28l.15-.27s0,0,0,0c.11-.18.23-.37.37-.56l.18-.24.24-.29A9.28,9.28,0,0,1,24.43,3.6s.25-.18.65-.42a11.61,11.61,0,0,1,1.51-.78,16.9,16.9,0,0,1,1.6-.6,7.15,7.15,0,0,0,.74-.26A3.64,3.64,0,0,0,28.16,1.7ZM23.65,6.48a2.76,2.76,0,0,0-.6.33l0,0h0a2.85,2.85,0,0,0-.41.48,1.23,1.23,0,0,0-.26.62s.2-.28.41-.51l.1-.1A4.54,4.54,0,0,1,23.22,7a3.25,3.25,0,0,1,.51-.37,6.46,6.46,0,0,0,.59-.3A1.27,1.27,0,0,0,23.65,6.48Zm12.48,6.11-.77.12a16.85,16.85,0,0,1-2.41.16,17.57,17.57,0,0,1-2.4-.21l-.39-.06-.39-.08h-.05l-.24,0-.13,0-.17,0c-.18-.05-.45-.1-.77-.2s-.75-.23-1.18-.38h0c-.35-.13-.71-.28-1.07-.44l-.51-.25-.45-.22-.27-.15-.05,0-.14-.08-.26-.14-.34-.22-.1-.06L23.77,10c-.38-.25-.63-.43-.66-.43s.08.09.22.21l.4.31.2.14,0,0,0,0a14.75,14.75,0,0,0,1.58,1l.49.25c.36.17.73.32,1.08.46s.84.32,1.19.42.59.16.78.21l.12,0,.18.05.19,0h0l.07,0,.33.06.46.07a16,16,0,0,0,2.44.15,14.89,14.89,0,0,0,2.43-.24,6.68,6.68,0,0,0,.78-.18,1.94,1.94,0,0,0,.29-.08S36.33,12.56,36.13,12.59Zm9.22-8.14-.21.29,0,0a2.74,2.74,0,0,1-.29.31l0,.06a3.47,3.47,0,0,1-.29.25,3.36,3.36,0,0,1-.49.35l-.14.08a5.17,5.17,0,0,1-1.21.51,4,4,0,0,1-.66.15l-.16,0c-.12,0-.29,0-.51.07a10.26,10.26,0,0,1-1.49,0l-.17,0c-.49,0-1-.11-1.33-.16l-.45-.07a.67.67,0,0,0-.23,0,.75.75,0,0,0,.21.08l.45.12a13.16,13.16,0,0,0,1.3.25l.2,0a9,9,0,0,0,1.53,0l.42,0,.28,0a5.66,5.66,0,0,0,.68-.18,4.74,4.74,0,0,0,1.06-.47l.33-.2a3.84,3.84,0,0,0,.54-.44,3.19,3.19,0,0,0,.26-.26L45,5.13a3.09,3.09,0,0,0,.25-.31l0,0a1.81,1.81,0,0,0,.22-.39,0,0,0,0,1,0,0,1.32,1.32,0,0,0,.07-.18S45.45,4.3,45.35,4.45Zm0,.89h0l0,.07-.16.34a9,9,0,0,1-.85,1.54,2.69,2.69,0,0,1-.26.33h0a3.57,3.57,0,0,1-.92.78l-.08.05a3.81,3.81,0,0,1-.72.32A5.41,5.41,0,0,1,41.6,9l-.42.09h-.07c-.38.06-.81.11-1.25.14s-.63,0-.93,0h-.84a6.4,6.4,0,0,0-.82,0,3.45,3.45,0,0,0,.81.12c.24,0,.51,0,.81,0h1a12.17,12.17,0,0,0,1.25-.1l.17,0h0l.36-.07a6,6,0,0,0,.8-.22,3.5,3.5,0,0,0,.6-.28h0l.14-.08A4.08,4.08,0,0,0,44.5,7.41l0,0A7.2,7.2,0,0,0,45.22,6a1.8,1.8,0,0,0,.08-.21c.05-.13.09-.24.12-.34l0-.08c0-.16.08-.28.09-.33A3.21,3.21,0,0,0,45.39,5.34ZM34.66,3.8,34,3.33l-.65-.43a3.69,3.69,0,0,0-.68-.43,3.1,3.1,0,0,0,.56.58c.3.26.62.5.62.5s.34.22.69.41a2.67,2.67,0,0,0,.74.32A4.7,4.7,0,0,0,34.66,3.8Zm12,4.28a5.8,5.8,0,0,1-.59.75c-.13.15-.28.3-.43.45l0,0-.06.06h0l-.42.36a12.72,12.72,0,0,1-1.3.95s-.42.3-1,.65l-.48.28-.48.26c-.51.27-1,.51-1.44.68l-.08,0a4.29,4.29,0,0,0-.57.25,2.73,2.73,0,0,0,.54-.13l.15-.05a12.41,12.41,0,0,0,1.49-.61l.31-.15.68-.36h0c.61-.33,1.05-.62,1.05-.62s.24-.16.59-.43c.14-.11.3-.23.46-.37s.3-.25.45-.4l.07-.07.23-.22L46,9.15a6.24,6.24,0,0,0,.72-1,2.83,2.83,0,0,0,.3-.65S46.87,7.74,46.63,8.08Zm-.34,3.11c-.17.25-.36.5-.5.68l-.25.29a3.8,3.8,0,0,1-.25.29,3.2,3.2,0,0,1-.64.52l-.2.11a2.54,2.54,0,0,1-.58.18h0l-.19,0h-.16l0,0h.05a1.19,1.19,0,0,0,.29,0h0a1.35,1.35,0,0,0,.33,0,1.79,1.79,0,0,0,.52-.18,3,3,0,0,0,.72-.51c.18-.17.29-.29.29-.29s.1-.12.24-.32.31-.46.47-.73A4,4,0,0,0,47,10.14S46.65,10.68,46.29,11.19ZM21,10.61c0-.28,0-.51-.06-.67a1.08,1.08,0,0,0,0-.25s0,.37,0,.92a11.75,11.75,0,0,1-.08,1.49,2,2,0,0,1,0,.23c0,.1,0,.2,0,.3s0,.22-.05.33h0c0,.2-.06.39-.1.58-.08.39-.16.75-.25,1s-.15.48-.2.63-.08.24-.08.24L20,15.7h0c-.06.15-.12.37-.23.62a16.88,16.88,0,0,1-.86,1.83,17.51,17.51,0,0,1-1.11,1.68,8.58,8.58,0,0,0-.56.74s.08-.07.19-.17a6.66,6.66,0,0,0,.45-.5A14.14,14.14,0,0,0,19,18.25,14.34,14.34,0,0,0,20,16.43c.12-.26.19-.48.25-.63l.09-.24s0-.09.07-.25l0-.05c0-.14.11-.35.17-.6,0-.06,0-.13.05-.2a2,2,0,0,0,.05-.24.51.51,0,0,0,0-.13,1.27,1.27,0,0,0,.06-.28c0-.17.07-.36.1-.55v0h0v-.05c0-.17,0-.35.07-.52v0c0-.17,0-.34,0-.5v0A12.47,12.47,0,0,0,21,10.61Zm-6.59,8a8.26,8.26,0,0,1-.65-1.28,7.78,7.78,0,0,1-.44-1.35,5,5,0,0,1-.1-.62,7.68,7.68,0,0,0-.1-.82,1.76,1.76,0,0,0-.06.6v.06a4.75,4.75,0,0,0,.07.81,6.38,6.38,0,0,0,.22.95,4.33,4.33,0,0,0,.16.48,7.48,7.48,0,0,0,.74,1.27,4.71,4.71,0,0,0,1,1.05C15.26,19.65,14.76,19.14,14.39,18.56Zm2.68,2.27a4.4,4.4,0,0,1-.35-.57,3.85,3.85,0,0,1-.28-.61,1.72,1.72,0,0,1-.07-.21,2.19,2.19,0,0,0-.13-.46,1.59,1.59,0,0,0,0,.72,3.26,3.26,0,0,0,.11.4v0h0a1.24,1.24,0,0,0,.11.22,3.1,3.1,0,0,0,.45.57,1.47,1.47,0,0,0,.59.4S17.28,21.1,17.07,20.83Zm1.46-.89a.54.54,0,0,0,0,.18A3.59,3.59,0,0,1,18.07,22a3.91,3.91,0,0,1-.61.86,4.4,4.4,0,0,1-.57.48h0l-.11.06a.9.9,0,0,0-.16.12s.08,0,.21,0l.1,0h0a2.36,2.36,0,0,0,.65-.42,3.67,3.67,0,0,0,.71-.87A3.49,3.49,0,0,0,18.63,21a.25.25,0,0,0,0-.08h0v0A2,2,0,0,0,18.53,19.94Zm28.22-6.52s0,0,0,.08h0a1.06,1.06,0,0,1-.07.22c-.07.17-.2.41-.32.64A5.34,5.34,0,0,1,46,15a1.65,1.65,0,0,1-.18.23l0,0a1.58,1.58,0,0,1-.2.24,1.83,1.83,0,0,1-.57.39l-.11,0a.44.44,0,0,1-.15.05h0a1.23,1.23,0,0,1-.37,0c-.2,0-.32-.06-.33,0a.56.56,0,0,0,.31.14,1.12,1.12,0,0,0,.45,0h.05l.13,0h0l.13,0a2,2,0,0,0,.67-.39l.06-.06a1.56,1.56,0,0,0,.18-.19,3.42,3.42,0,0,0,.2-.28,4.65,4.65,0,0,0,.33-.67,4.63,4.63,0,0,0,.25-.7.34.34,0,0,0,0-.14h0C46.79,13.49,46.76,13.41,46.75,13.42Zm.36,2.43s-.18.32-.37.6a1.81,1.81,0,0,1-.3.35,1.12,1.12,0,0,1-.15.13.9.9,0,0,1-.16.12.8.8,0,0,1-.16.08,1.14,1.14,0,0,1-.26.09.93.93,0,0,1-.44,0h0a.11.11,0,0,1-.06,0,.08.08,0,0,1,0,0s0,0,0,0,0,0,0,0v0a.14.14,0,0,1,0,.06.27.27,0,0,0,.1.08h0l0,0h0a.87.87,0,0,0,.43.06l.28-.05.23-.09a1.23,1.23,0,0,0,.2-.13,1.1,1.1,0,0,0,.17-.17,2,2,0,0,0,.49-1.12Z"/><path class="cls-28" d="M26.65,5.28l-1.1.3-.13,0-.07,0h-.09a0,0,0,0,0,0,0s0,0,0,0h0c-.4.11-.8.19-1.14.25h0a6,6,0,0,1-.73.07.69.69,0,0,1-.22,0h0c-.14,0-.18-.14-.08-.29l.09-.14a13,13,0,0,1,1.16-1.35,0,0,0,0,1,0,0l.48-.47L24.35,4a18.2,18.2,0,0,1-2,1.52c-.12.07-.23.14-.34.19-.58.28-.95.26-.75-.49l.09-.32c-.39.43-.71.81-1,1.12l-.27.36q-.16.21-.24.33h0l-.07.11h-.31c-.27,0-.53,0-.79,0s-.51,0-.76.08h0L17.33,7l-.13,0c-.24.06-.47.12-.7.2h0l-.51.2-.23.11-.4.2a5,5,0,0,0-.45.29l-.3.21,0,0a2.36,2.36,0,0,0-.34.3.13.13,0,0,0-.07.06l-.07.07,0,0a2.37,2.37,0,0,0-.27.28,1.39,1.39,0,0,0-.15.19l-.07.09h0a1,1,0,0,0-.13.16h0c.68-.44,1.65-1,1.92-.84.43.29-1,2.81-1,2.81s1.65-1.8,2-1.44c.11.11.08.48,0,1,0,.14-.06.29-.1.45h0c0,.13-.06.27-.09.41h0c-.06.19-.11.37-.16.56h0c0,.1-.07.19-.1.29v0l-.06.17c-.1.33-.19.61-.25.78v0l-.06.16.05-.07c0-.09.14-.24.26-.42.53-.82,1.57-2.33,2.09-2.31a.14.14,0,0,1,.09,0h0c.6.33.22,2.13.16,2.41a4.79,4.79,0,0,1,1.46-1.86.85.85,0,0,1,.36-.12h0a.62.62,0,0,1,.37.08.18.18,0,0,1,.07.05,1,1,0,0,1,.33.44,3,3,0,0,1,.13.36c0-.11,0-.22,0-.33v0c0-.28.06-.52.08-.72s0-.26,0-.36,0-.3,0-.3l.48.35h0l.05,0,.47.33.48.31.48.3c.35.21.69.41,1,.59s.59.3.89.43l.12.06L25,13a15.82,15.82,0,0,1-1.8-1.4c-.58-.55-.88-1-.5-1.25a1.21,1.21,0,0,1,.61-.16h0a.83.83,0,0,1,.35,0h0a.07.07,0,0,0,.06,0l.21.05a3.27,3.27,0,0,1,.47.18l.26.14.14.08.05,0,.4.28-.13-.13a8.05,8.05,0,0,1-.56-.62,5.53,5.53,0,0,1-.63-.9,1.71,1.71,0,0,1,.13-2.3c.32-.28.65-.53,1-.76h0l.37-.25.68-.4h0c.25-.15.49-.26.68-.36s.52-.23.63-.27ZM46,17.36a1.89,1.89,0,0,1-.05-.23,13.24,13.24,0,0,1-.17-1.53c0-.12,0-.25,0-.38a4.13,4.13,0,0,1,.39-2.31l.23-.22c-.1-.23-.17-.37-.17-.37a10,10,0,0,0,1.32-5.66,1.53,1.53,0,0,1-.25.16,2,2,0,0,1-.25.14l0,0-.09,0a.8.8,0,0,1-.16.08l-.31.14-.37.15-.4.15-.07,0-.33.11-.63.19a1.14,1.14,0,0,0,.17-.15l.1-.11a1.3,1.3,0,0,0,.18-.23,2.61,2.61,0,0,0,.17-.28h0a2.21,2.21,0,0,0,.16-.35h0a2.42,2.42,0,0,0,.12-.35,1,1,0,0,0,.06-.23h0v0c0-.11,0-.21.07-.32a3.53,3.53,0,0,0,.06-.42,1.52,1.52,0,0,0,0-.21.17.17,0,0,0,0-.07V5a3.25,3.25,0,0,0,0-.42,5.13,5.13,0,0,0,0-.52,2,2,0,0,1-.38.29,0,0,0,0,0,0,0l-.1,0c-.11.06-.24.14-.4.21s-.35.15-.56.22h0a.11.11,0,0,1-.07,0h0L44.08,5l-.36.11h0l-.29.07-.32.07c-.21,0-.44.09-.69.13a1.46,1.46,0,0,1-.29,0l-.21,0a1,1,0,0,1-.24,0l-.23-.07-.23-.1-.05,0a3.84,3.84,0,0,1-.39-.22l-.2-.13a.08.08,0,0,1,0,0h0l-.3-.22L40,4.38h0l-.23-.2L39.58,4l-.71-.62c.15.23.31.44.45.67l.2.38h0a1.64,1.64,0,0,1,.16.41.64.64,0,0,1-.08.66A2.62,2.62,0,0,1,38,5.94a8,8,0,0,1-1.22,0h-.19l-.26,0,.18.08c.36.15.84.37,1.34.61l.82.43h0a.41.41,0,0,1,.11.07c.25.12.47.25.67.37a2.25,2.25,0,0,1,.7.53s0,.1,0,.15h0a3,3,0,0,1-.93.36h0c-.59.15-1.33.28-1.9.38l-.36.05L36.37,9s.33,0,.82.1.93.14,1.47.24l.25,0,.43.1A8.34,8.34,0,0,1,41,10a1.52,1.52,0,0,1,.8.61c.2.42-.48,1.09-1.4,1.77-.57.42-1.22.83-1.83,1.19l-.42.25h0a4.49,4.49,0,0,1-.42.24c-.7.39-1.2.65-1.2.65l2-.23h0l.53-.11.11,0,.2-.05h0l.13,0,.36-.09.15,0,.63-.18h0l.15,0,.89-.28.06,0,.39-.14.11,0,.21-.08h0l.48-.19.18-.08.05,0h.06a2.2,2.2,0,0,1,.19.3h0a0,0,0,0,1,0,0h0v0a1,1,0,0,1,.1.17,1.28,1.28,0,0,1,.11.2,14.68,14.68,0,0,1,.67,1.51l0,.08.09.24.15.41,0,.15.14.41c0,.11.07.21.1.32s.08.21.11.31v0a.14.14,0,0,1,0,.06,2.58,2.58,0,0,1,.08.26c.11.33.2.66.29,1v0a1.55,1.55,0,0,0,.07.23s0,0,0,.06a1.09,1.09,0,0,1,0,.17s0,0,0,0a.24.24,0,0,1,0,.08,1.21,1.21,0,0,1,0,.18.88.88,0,0,1,.05.15l.27.67.11.3h0a.5.5,0,0,0,0-.12l.1-.38.18-.64c0-.12.08-.25.13-.38s.09-.29.14-.44a.55.55,0,0,1-.39-.18A2.35,2.35,0,0,1,46,17.36Zm-25.63-2.1L20,15.7h0c-1,1-2.73,2.64-3.55,2.64h0a1.34,1.34,0,0,1-.7-.28,12.4,12.4,0,0,1-2.5-2.76L13,15.09h0a.2.2,0,0,0,0,.07,7.63,7.63,0,0,1,.29,1.76c0,.33-.09.56-.31.53-.44-.07-.79-1.37-1-2.36a5.41,5.41,0,0,0,.05.59c0,.05,0,.09,0,.13s0,.2.05.3l.06.29v0s0,0,0,.05,0,.05,0,.07.09.34.14.5.11.33.17.49a6.51,6.51,0,0,0,.41.88c.07.13.15.26.23.38s.15.24.23.35.29.38.42.54l.28.3a6.32,6.32,0,0,0,.49.46l.2.16.28.2.13.07h0l0,0h0l.21.15.07.05.1.08s0,0,0,0a.12.12,0,0,1,0,.05l.15.16h0a3.45,3.45,0,0,1,.41.59c.06.11.11.21.16.32l.15.32c.07.18.14.36.2.53v0s0,0,0,0a0,0,0,0,1,0,0v0h0l0,.09.19.48a2,2,0,0,0,.17.36s0,0,0,0a.44.44,0,0,0,.08.11.34.34,0,0,0,.08.09.27.27,0,0,0,.08.07h0l0,0a.27.27,0,0,0,.12,0,.58.58,0,0,0,.35-.15c.68-.53.71-2,.62-3.16a1.5,1.5,0,0,0,0-.22.41.41,0,0,0,0-.11h0v0s0,0,0-.06,0-.25-.05-.37,0-.27-.06-.38-.07-.39-.07-.39a3.47,3.47,0,0,0,.32-.34c.09-.11.18-.23.26-.35l.18-.28a2.85,2.85,0,0,0,.16-.3l.11-.21c.09-.19.17-.38.25-.59a3.94,3.94,0,0,0,.18-.48c.05-.12.08-.24.12-.36a3,3,0,0,0,.1-.32c.05-.17.1-.34.14-.51l0-.13c.06-.21.1-.42.15-.62,0,0,0,0,0-.06Z"/><g class="cls-29"><path class="cls-26" d="M13.84,9.74c-.81,1-1.79,2.53-1.42,3.88a.24.24,0,0,0,.44.06A10.63,10.63,0,0,0,13.5,12a9,9,0,0,1,.94-1.82c.25-.36-.32-.81-.6-.47Z"/><path class="cls-26" d="M14.55,11.63a2.53,2.53,0,0,0-1.12,1.74c-.11.64-.07,1.75.73,1.93,1.44.33,1.36-2.53,1.19-3.34a.55.55,0,0,0-.8-.33Z"/><path class="cls-26" d="M17.25,12.16c-.51.23-.82,1.09-.95,1.6a3.76,3.76,0,0,0,.15,2.15.2.2,0,0,0,.39,0c.15-.65.34-1.29.43-1.95a4.28,4.28,0,0,0,.15-1.73.11.11,0,0,0-.17-.07Z"/><path class="cls-26" d="M19.37,12.72s0,.26,0,.32l0,.56a3.78,3.78,0,0,0,.08,1,.23.23,0,0,0,.41,0,8.45,8.45,0,0,0,.62-1.9l-.24.32.08-.06a.66.66,0,0,0-.15-1.19c-.51-.14-1.09.48-.73,1Z"/><path class="cls-26" d="M24.58,5.7c1.12,0,2.09-.62,3.13-1a10.72,10.72,0,0,1,3.6-.44.58.58,0,0,0,.4-1c-1.86-2.06-6.53-1.13-7.77,1.24a.76.76,0,0,0,.64,1.13Z"/><path class="cls-26" d="M33.58,1.82a6.61,6.61,0,0,1,1,.63,3.8,3.8,0,0,0,.93.6c.26.09.41-.21.32-.41-.33-.78-1.43-1-2.17-1a.08.08,0,0,0,0,.15Z"/><path class="cls-26" d="M24.21,11.53c2,2,5.66,3,8.47,3.07.2,0,.26-.32,0-.35a24.65,24.65,0,0,1-4.07-1c-1.48-.55-2.79-1.41-4.23-2-.18-.07-.38.13-.22.29Z"/><path class="cls-26" d="M24.52,9.15c2.48,2.92,9.66,3.78,12.9,1.95a.41.41,0,0,0-.1-.74C35.15,10,33,10.3,30.77,9.91c-2-.37-3.89-1.44-5.88-1.65-.5-.06-.64.59-.37.89Z"/><path class="cls-26" d="M39.44,11a1.64,1.64,0,0,1,.5-.08.82.82,0,0,0,.51-.07.29.29,0,0,0,0-.45c-.32-.31-.93-.06-1.26.12a.26.26,0,0,0,.2.48Z"/><path class="cls-26" d="M29.48,6.87A6.14,6.14,0,0,0,31,7.05a15.54,15.54,0,0,1,2.51.6,6.91,6.91,0,0,0,3.83.41.61.61,0,0,0,.35-.87c-1-1.54-2.94-1.82-4.65-2-1.24-.14-3.45-.47-3.84,1.14a.46.46,0,0,0,.31.55Z"/><path class="cls-26" d="M38.58,7.89a1.33,1.33,0,0,0,.46.16A2.23,2.23,0,0,0,39.49,8c.17,0,.16-.25,0-.33a1.69,1.69,0,0,0-.36-.23,1.14,1.14,0,0,0-.45,0c-.26,0-.41.41-.14.53Z"/></g><path class="cls-10" d="M19.82,7.8l-.43.52-1.76,2.11-1,1.19-.44.54c-.08.11-.38.38-.36.49l.06.3a.65.65,0,0,1-.54-.51c-.05-.22.13-.36.26-.53.27-.34.53-.69.79-1q1.37-1.78,2.7-3.58Z"/><path class="cls-30" d="M19.71,7.72l-.27-.2q-1.5,2-3,4c-.18.24-1,1.05-.68,1.38l.14,0a.38.38,0,0,1,0-.18l0-.11c0-.11.28-.38.36-.49l.17-.2a1.71,1.71,0,0,1,.11-.14l.05-.06.11-.14.47-.57c.11-.14.22-.28.34-.41l.07-.09.09-.12,1.15-1.38.5-.6,0,0,.09-.11.43-.52-.09-.07Z"/><path class="cls-10" d="M30.77,7.51l-.37-.78a5.78,5.78,0,0,1,4-.32l-.31.81A5,5,0,0,0,30.77,7.51Z"/><path class="cls-30" d="M30.77,7.51a5,5,0,0,1,3.32-.29l.14-.36a5.74,5.74,0,0,0-3.61.32Z"/><path class="cls-16" d="M19.19,7.59S25,3.48,30.52,7.16c0,0,.73,8.3-5.16,8.52S19.19,7.59,19.19,7.59Z"/><path class="cls-16" d="M27.45,5.84l-3.33,9.74a6.05,6.05,0,0,0,1.24.1l.49,0,3.31-9.23A8.37,8.37,0,0,0,27.45,5.84Z"/><path class="cls-16" d="M23.34,5.87l-2.51,7.36a6,6,0,0,0,1.27,1.44l3.25-9A10.64,10.64,0,0,0,23.34,5.87Z"/><path class="cls-16" d="M30.55,8.31c0-.7,0-1.15,0-1.15-5.5-3.68-11.33.43-11.33.43A12.36,12.36,0,0,0,19.34,9,10.4,10.4,0,0,0,30.55,8.31Z"/><path class="cls-10" d="M30.94,7.44c0-.18,0-.29,0-.32V6.91l-.17-.12-.18-.12h0A9,9,0,0,0,29.29,6a8.8,8.8,0,0,0-2.42-.7l-.22,0-.22,0h0l-.25,0h0A10,10,0,0,0,24,5.34c-.31,0-.6.1-.89.16s-.62.16-.9.25l-.25.08a14.62,14.62,0,0,0-2,.87h0l-.2.11a5.92,5.92,0,0,0-.68.41l-.19.14v.36c0,.11,0,.31.06.56a3.21,3.21,0,0,0,.05.39.45.45,0,0,0,0,.11s0,.05,0,.08h0c0,.19.06.4.1.62s.16.77.28,1.2c0,.09.05.19.09.29s.14.45.22.68l.06.15A9.88,9.88,0,0,0,20.21,13v0l.08.14a3.87,3.87,0,0,0,.27.43l.16.24s0,0,0,0a5.58,5.58,0,0,0,.49.6,5.06,5.06,0,0,0,3.9,1.7h.24a5,5,0,0,0,2.89-1,4,4,0,0,0,.78-.7l.16-.18a.76.76,0,0,0,.08-.11,5,5,0,0,0,.38-.56,5.34,5.34,0,0,0,.39-.75,2.56,2.56,0,0,0,.11-.24,7.09,7.09,0,0,0,.26-.73,11.14,11.14,0,0,0,.41-1.95A15,15,0,0,0,30.94,7.44ZM26,15.18a4.74,4.74,0,0,1-.67.07,5.35,5.35,0,0,1-1.08-.07,4.21,4.21,0,0,1-2-.93,5.48,5.48,0,0,1-.88-.92c-.13-.18-.26-.37-.38-.57a.83.83,0,0,0-.07-.13l0,0c0-.09-.09-.18-.13-.27a6.68,6.68,0,0,1-.31-.67,10.51,10.51,0,0,1-.5-1.57l-.06-.26c0-.23-.09-.44-.13-.64s-.05-.29-.07-.42,0-.17,0-.24v0c0-.17,0-.32-.05-.45a2,2,0,0,1,0-.22l.14-.08a12.16,12.16,0,0,1,1.63-.81l.1,0h0a12.78,12.78,0,0,1,1.4-.46h0l.29-.08h0a10.38,10.38,0,0,1,2-.27h.29a8.94,8.94,0,0,1,1.83.18A8.53,8.53,0,0,1,29,6.81a8.83,8.83,0,0,1,1.12.61c0,.23,0,.63,0,1.14h0c0,.35,0,.75-.09,1.17a10.68,10.68,0,0,1-.43,2,4.71,4.71,0,0,1-.27.71,2.56,2.56,0,0,1-.11.24,5.38,5.38,0,0,1-.38.66l-.26.36-.19.21a2.27,2.27,0,0,1-.31.31,3.63,3.63,0,0,1-.9.6h0a4,4,0,0,1-1.17.37Z"/><path class="cls-30" d="M30.44,7.4V7.2l-.16-.1L30.1,7a6.2,6.2,0,0,0-.93-.52s0,0,0,0a8.42,8.42,0,0,0-3-.8l-.81,0h-.09a0,0,0,0,0,0,0s0,0,0,0h0a5.25,5.25,0,0,0-.56,0h-.16l-.16,0h0l-.29,0-.28,0-.36.08-.24.05-.69.18c-.22.07-.43.14-.63.22l-.17.07A10.53,10.53,0,0,0,19.44,7.5h0l-.15.12v.22s0,.22,0,.56h0s0,.07,0,.11a.17.17,0,0,0,0,.07c0,.12,0,.25.05.39s0,0,0,.08h0c.05.31.12.67.21,1.06,0,.11.05.22.08.34q.14.51.33,1c0,.09.06.16.08.24h0c.12.29.25.58.39.86a3.3,3.3,0,0,0,.18.32c0,.08.09.16.14.24s0,0,0,0h0v0l.05.07,0,0a1,1,0,0,0,.08.11.36.36,0,0,1,.07.1l.06.08.05.07,0,.06,0,0,.06.07.21.24.07.07.23.23.17.15.12.1,0,0,.37.25h0l0,0h0l.07,0,.11.06h0l.17.09.21.1a4.21,4.21,0,0,0,1,.29,2.32,2.32,0,0,0,.38.06l.12,0h.25l.24,0h.22l.52,0h0a4,4,0,0,0,.5-.09A4.31,4.31,0,0,0,27.72,15h0a4,4,0,0,0,.82-.66,3.71,3.71,0,0,0,.27-.29l0,0a4.4,4.4,0,0,0,.36-.52,5.49,5.49,0,0,0,.39-.71,2.56,2.56,0,0,0,.11-.24c.1-.24.18-.48.26-.72a10.6,10.6,0,0,0,.4-2,11.7,11.7,0,0,0,.09-1.46A7.33,7.33,0,0,0,30.44,7.4Zm-.3,1.17c0,.35,0,.75-.09,1.17a10.68,10.68,0,0,1-.43,2,4.71,4.71,0,0,1-.27.71,2.56,2.56,0,0,1-.11.24,5.38,5.38,0,0,1-.38.66l-.26.36-.19.21a2.27,2.27,0,0,1-.31.31,3.63,3.63,0,0,1-.9.6h0a4,4,0,0,1-1.17.37h0a4.74,4.74,0,0,1-.67.07,5.35,5.35,0,0,1-1.08-.07,4.21,4.21,0,0,1-2-.93,5.48,5.48,0,0,1-.88-.92c-.13-.18-.26-.37-.38-.57a.83.83,0,0,0-.07-.13l0,0c0-.09-.09-.18-.13-.27a6.68,6.68,0,0,1-.31-.67,10.51,10.51,0,0,1-.5-1.57l-.06-.26c0-.23-.09-.44-.13-.64s-.05-.29-.07-.42,0-.17,0-.24v0c0-.17,0-.32-.05-.45a2,2,0,0,1,0-.22l.14-.08a12.16,12.16,0,0,1,1.63-.81l.1,0h0a12.78,12.78,0,0,1,1.4-.46h0l.29-.08h0a10.38,10.38,0,0,1,2-.27h.29a8.94,8.94,0,0,1,1.83.18A8.53,8.53,0,0,1,29,6.81a8.83,8.83,0,0,1,1.12.61c0,.23,0,.63,0,1.14Z"/><path class="cls-16" d="M34.29,6.8s5.47-4.59,11.26-1.38c0,0,1.41,8.21-4.45,8.92S34.29,6.8,34.29,6.8Z"/><path class="cls-16" d="M42.37,4.36l-2.51,10a5.73,5.73,0,0,0,1.24,0l.49-.08,2.54-9.47A9.2,9.2,0,0,0,42.37,4.36Z"/><path class="cls-16" d="M38.28,4.73l-1.89,7.55a5.82,5.82,0,0,0,1.39,1.32l2.48-9.27A10.84,10.84,0,0,0,38.28,4.73Z"/><path class="cls-16" d="M45.67,6.57c-.05-.7-.12-1.15-.12-1.15C39.76,2.21,34.29,6.8,34.29,6.8a11.16,11.16,0,0,0,.26,1.35A10.43,10.43,0,0,0,45.67,6.57Z"/><path class="cls-10" d="M45.94,5.35l0-.21L45.72,5c-.16-.09-.33-.18-.49-.25l-.09,0L45,4.66A9.14,9.14,0,0,0,39.58,4l-.26,0a12.35,12.35,0,0,0-3.73,1.38l-.27.15h0a10,10,0,0,0-1.12.76L34,6.46l-.17.14,0,.18v.07s0,.13.05.32h0l.12.64a15.48,15.48,0,0,0,.72,2.34,9.89,9.89,0,0,0,.78,1.61,7.43,7.43,0,0,0,.56.82l0,.05A6.14,6.14,0,0,0,37.68,14a4.71,4.71,0,0,0,.84.42h0a5.14,5.14,0,0,0,2.37.32l.24,0a5.07,5.07,0,0,0,2.62-1,1.68,1.68,0,0,0,.21-.18,1.75,1.75,0,0,0,.24-.23,2.55,2.55,0,0,0,.23-.24,4.17,4.17,0,0,0,.36-.47A8,8,0,0,0,46,9.15a3.11,3.11,0,0,1,0-.32c0-.51.06-1,.06-1.44A14.33,14.33,0,0,0,45.94,5.35Zm-4.89,8.56-.33,0h0a4.3,4.3,0,0,1-.72,0,4.13,4.13,0,0,1-1.44-.38,3.68,3.68,0,0,1-.64-.37,5.36,5.36,0,0,1-1.38-1.39l-.16-.23a9.43,9.43,0,0,1-.72-1.37A12.9,12.9,0,0,1,35,8.33c0-.1-.05-.2-.07-.29-.1-.45-.17-.81-.2-1a11.83,11.83,0,0,1,1.62-1l.15-.07a.2.2,0,0,1,.08,0l.07,0a12.76,12.76,0,0,1,1.51-.62h0a9.66,9.66,0,0,1,1.52-.37,3.4,3.4,0,0,1,.46-.07l.37,0h0a9.25,9.25,0,0,1,1.74,0,7.62,7.62,0,0,1,1.44.32h0l.3.1a4.52,4.52,0,0,1,.47.18l.16.07c.18.08.36.16.54.26a.09.09,0,0,0,0,0c0,.07,0,.15,0,.25s.05.51.07.85V7.1c0,.19,0,.37,0,.58a11.8,11.8,0,0,1-.21,2.06,2.49,2.49,0,0,1-.09.37,6,6,0,0,1-.83,2,3.67,3.67,0,0,1-.57.67h0a1.94,1.94,0,0,1-.26.23h0a4.09,4.09,0,0,1-1.58.77A6.66,6.66,0,0,1,41.05,13.91Z"/><path class="cls-30" d="M45.59,6.63a2,2,0,0,0,0-.25,6.71,6.71,0,0,0-.08-.71l0-.2h0l-.06,0-.07,0a3.37,3.37,0,0,0-.38-.19.31.31,0,0,0-.13-.06,3.31,3.31,0,0,0-.47-.22h0l-.18-.07a7.72,7.72,0,0,0-1.76-.45,9,9,0,0,0-1.63-.08H40.6l-.34,0h0a.83.83,0,0,0-.22,0h0l-.21,0h0l-.26,0c-.22,0-.43.08-.64.13l-.61.18a11.19,11.19,0,0,0-2.12.88h0l-.26.14a9.9,9.9,0,0,0-1.35.9l-.16.13,0,.23s0,.36.16.9l.06.22h0a12.32,12.32,0,0,0,.63,2,10,10,0,0,0,.75,1.5c.12.2.26.4.4.59l.31.39L37,13h0a3.73,3.73,0,0,0,.36.32l.06,0,0,0,.08.07a1.82,1.82,0,0,0,.23.15,2.14,2.14,0,0,0,.32.2h0l.13.07a2.59,2.59,0,0,0,.38.17,2.83,2.83,0,0,0,.41.14,1.89,1.89,0,0,0,.34.09h0a3.25,3.25,0,0,0,.45.06h0l.29,0h.58s0,0,0,0h.1l.22,0,.11,0,.1,0h0l.22,0h.06a3.07,3.07,0,0,0,.52-.14l.32-.11.07,0a4.47,4.47,0,0,0,1-.64h0s0,0,.05,0l.18-.15a4.3,4.3,0,0,0,.67-.79,6.66,6.66,0,0,0,1-2.64,1.91,1.91,0,0,0,.06-.33h0a11.64,11.64,0,0,0,.12-1.8C45.63,7.22,45.61,6.9,45.59,6.63ZM45,10.11a6,6,0,0,1-.83,2,3.67,3.67,0,0,1-.57.67h0a1.94,1.94,0,0,1-.26.23h0a4.09,4.09,0,0,1-1.58.77,6.66,6.66,0,0,1-.67.12l-.33,0h0a4.3,4.3,0,0,1-.72,0,4.13,4.13,0,0,1-1.44-.38,3.68,3.68,0,0,1-.64-.37,5.36,5.36,0,0,1-1.38-1.39l-.16-.23a9.43,9.43,0,0,1-.72-1.37A12.9,12.9,0,0,1,35,8.33c0-.1-.05-.2-.07-.29-.1-.45-.17-.81-.2-1a11.83,11.83,0,0,1,1.62-1l.15-.07a.2.2,0,0,1,.08,0l.07,0a12.76,12.76,0,0,1,1.51-.62h0a9.66,9.66,0,0,1,1.52-.37,3.4,3.4,0,0,1,.46-.07l.37,0h0a9.25,9.25,0,0,1,1.74,0,7.62,7.62,0,0,1,1.44.32h0l.3.1a4.52,4.52,0,0,1,.47.18l.16.07c.18.08.36.16.54.26a.09.09,0,0,0,0,0c0,.07,0,.15,0,.25s.05.51.07.85V7.1c0,.19,0,.37,0,.58a11.8,11.8,0,0,1-.21,2.06A2.49,2.49,0,0,1,45,10.11Z"/><path class="cls-8" d="M28.51,40.72l.1,0c-.21.06.41,1.64.53,1.84a4.57,4.57,0,0,0,1.29,1.34,4.35,4.35,0,0,0,3.55.78,3.54,3.54,0,0,0,2-1.25,4,4,0,0,0,.58-2.72,12.85,12.85,0,0,1,2.4,4c.45,1.31-.15,5.21-2.13,4.23-1-.5-2-2.43-2.72-3.44,0,0-2.38,4.23-3.18,4.32-1.49.16-2.8-2-3.33-3.07-.86-1.8-1-4.08.47-5.6A2,2,0,0,1,28.51,40.72Z"/><path class="cls-5" d="M28.36,39.93l.11,0c-.22.07.41,1.65.53,1.85a4.54,4.54,0,0,0,1.28,1.34,4.38,4.38,0,0,0,3.56.77,3.45,3.45,0,0,0,2-1.24,4,4,0,0,0,.58-2.72,12.88,12.88,0,0,1,2.41,4c.44,1.3-.16,5.2-2.14,4.23-1-.5-2-2.43-2.71-3.45,0,0-2.38,4.24-3.18,4.33-1.5.16-2.81-2-3.34-3.07-.85-1.81-1-4.08.48-5.6A1.93,1.93,0,0,1,28.36,39.93Z"/><path class="cls-8" d="M30.77,47.76c-2.55-.57-1.7-4.7-1.7-4.7s1.28,2.39,4.91,1.27,2.56-3.84,2.46-4.45a4,4,0,0,1-.58,2.72,3.45,3.45,0,0,1-2,1.24,4.38,4.38,0,0,1-3.56-.77A4.54,4.54,0,0,1,29,41.73c-.12-.2-.75-1.78-.53-1.85l-.11,0a1.93,1.93,0,0,0-.4.35c-1.52,1.52-1.33,3.79-.48,5.6C28,47,29.32,49.11,30.82,49c.28,0,.77-.6,1.28-1.31A2.08,2.08,0,0,1,30.77,47.76Z"/><path class="cls-8" d="M34,44.62c.74,1,1.7,3,2.71,3.45,1.69.83,2.37-1.87,2.27-3.5a6.72,6.72,0,0,1-1.1,2.71C36.81,48.38,34,44.62,34,44.62Z"/><path class="cls-22" d="M24.65,26.88a3.15,3.15,0,0,1,1.91-1.19,4.26,4.26,0,0,1,1.69-.08c.11,0,.27.05.32.05h0s0,0,0,0h0l-.06-.11-.16-.27a2.8,2.8,0,0,0-1.26-1,3.07,3.07,0,0,0-1.67-.15c-.46.09-.75.25-.78.21s.23-.27.72-.44a3,3,0,0,1,1.87,0,3.52,3.52,0,0,1,2.16,2.12s0,.08.27.8L29,26.44c-.16-.06-.35-.15-.54-.21l-.32-.09a4.18,4.18,0,0,0-1.51,0A6.31,6.31,0,0,0,24.65,26.88Z"/><path class="cls-30" d="M30,29.58s4.8,3.4,8.9-.38c0,0-1.13,4.62-4.18,4.89C31.37,34.39,30,29.58,30,29.58Z"/><path class="cls-5" d="M30.08,29.64l.09.06.12.07.11.07.18.09.14.08.22.11.16.07.27.12.18.08.32.12.19.06.36.11.2.05.4.1.2,0,.45.07h.18l.5,0h.09a5.94,5.94,0,0,0,1.88-.27l.14,0c.16-.05.32-.13.49-.2l.26-.11a5.05,5.05,0,0,0,.45-.25c.07-.05.15-.08.23-.13-.13.08-.25.52-.33.66a5.13,5.13,0,0,1-.49.7c-.33.37-.93.5-1.22.88-.17.22-.11.31,0,.56a4.7,4.7,0,0,0,.4.75,3.16,3.16,0,0,1-1.55.57c-3,.27-4.39-3.5-4.67-4.34,0-.07,0-.16-.05-.17l.05,0Z"/><path class="cls-8" d="M30.08,29.64l.09.06.12.07.11.07.18.09.14.08.22.11.16.07.27.12.18.08.32.12.19.06.36.11.2.05.4.1.2,0,.45.07h.18l.5,0h.09a5.94,5.94,0,0,0,1.88-.27l.14,0c.16-.05.32-.13.49-.2l.26-.11a5.05,5.05,0,0,0,.45-.25c.07-.05.15-.08.23-.13-.13.08-.25.52-.33.66a5.13,5.13,0,0,1-.49.7,2,2,0,0,1-.47.34c0-.05.71-.78.22-.65a9.6,9.6,0,0,1-4.53.19s.5,1.3,3.56,1c0,0-.58,1.12-3.65-.05a3,3,0,0,0,3.95,1.21c.05.09.09.16.1.15a3.16,3.16,0,0,1-1.55.57c-3,.27-4.39-3.5-4.67-4.34,0-.07,0-.16-.05-.17l.05,0Z"/><path class="cls-3" d="M30.31,28.8c.06,0,.07.34,0,.66A1.91,1.91,0,0,1,30,30a1.39,1.39,0,0,1-.52.26c-.28.06-.54,0-.54-.1s.24-.14.43-.28a2.21,2.21,0,0,0,.34-.32,1.74,1.74,0,0,0,.33-.33C30.14,29.05,30.24,28.79,30.31,28.8Z"/><path class="cls-3" d="M39,29a2,2,0,0,1-.52.68,4.85,4.85,0,0,1-1.47,1,6.15,6.15,0,0,1-1.66.46,5,5,0,0,1-1.54,0,13.36,13.36,0,0,1-1.67-.32,5.68,5.68,0,0,1-1.59-.67,1.87,1.87,0,0,1-.62-.56s.28.17.69.36a6.24,6.24,0,0,0,1.59.47,12.39,12.39,0,0,0,1.63.2,6.09,6.09,0,0,0,.74,0,5.9,5.9,0,0,0,.73,0,5.74,5.74,0,0,0,1.59-.32,5.59,5.59,0,0,0,1.48-.81C38.72,29.2,38.94,29,39,29Z"/><path class="cls-3" d="M36.39,35.08c.06,0,0,.4-.12.74a2.34,2.34,0,0,1-.4.6,1.83,1.83,0,0,1-.58.29c-.32.09-.62,0-.62-.06s.27-.16.5-.32a2.07,2.07,0,0,0,.42-.36,2.54,2.54,0,0,0,.41-.39C36.19,35.36,36.33,35.06,36.39,35.08Z"/></g></g></g></svg>