<svg xmlns="http://www.w3.org/2000/svg" viewBox="0 0 102.37 84.92"><defs><style>.cls-1{isolation:isolate;}.cls-2{fill:#fff;}.cls-14,.cls-3,.cls-9{fill:#d3dbfd;}.cls-13,.cls-20,.cls-25,.cls-3{opacity:0.5;}.cls-11,.cls-13,.cls-15,.cls-17,.cls-19,.cls-25,.cls-27,.cls-28,.cls-3,.cls-6,.cls-8,.cls-9{mix-blend-mode:multiply;}.cls-4{fill:#294168;}.cls-5,.cls-6{fill:#88ac76;}.cls-6{opacity:0.34;}.cls-7,.cls-8{fill:#212f47;}.cls-11,.cls-17,.cls-8{opacity:0.45;}.cls-10,.cls-11,.cls-12,.cls-27{fill:#3c1d91;}.cls-12,.cls-20,.cls-21,.cls-22,.cls-24,.cls-26{mix-blend-mode:screen;}.cls-16,.cls-17,.cls-19,.cls-21{fill:#ebd0a6;}.cls-18{fill:#de9168;}.cls-19{opacity:0.62;}.cls-22{fill:#f8e9d0;}.cls-23,.cls-24,.cls-25{fill:#a95913;}.cls-26{opacity:0.35;}.cls-28{fill:#e28c89;opacity:0.25;}.cls-29{fill:#6f3a1e;}</style></defs><title>without_glassesРесурс 7</title><g class="cls-1"><g id="Слой_2" data-name="Слой 2"><g id="OBJECTS"><path class="cls-2" d="M67.82,44.4S67,45,65.25,48.74C62.86,53.85,72,68,78.09,69.21S97.7,54.64,97.7,54.64s-2.5-5.1-6.6-4.52L79.81,61.59C77.29,61.82,71.81,45.55,67.82,44.4Z"/><path class="cls-3" d="M92.71,50.18a3.54,3.54,0,0,1,2.14,3c-.08,3-12.15,12.73-14.21,11.37-1.68-1.12.78-4.43,1.72-5.58l-2.55,2.59c-.4,0-.87-.34-1.38-1-.85.73-1.82,1.55-2.33,1.93-1,.77-3.93.25-7.1-6.58a18.6,18.6,0,0,1-1.63-10.53,11.6,11.6,0,0,0-2.18,3.44C62.8,54,72,68,78.09,69.21S97.7,54.64,97.7,54.64,95.84,50.86,92.71,50.18Z"/><path class="cls-4" d="M64.21,84.9H55.3s0,0,0,0l-.1,0H48a21.43,21.43,0,0,1,3.26-1.09c.7-.18,1.43-.33,2.17-.46l.59-.11c.66-.1,1.34-.18,2-.24l.23,0c.55,0,1.09-.07,1.61-.08h.37a12.6,12.6,0,0,1,4.33.58,3.36,3.36,0,0,1,1.19.71,1.1,1.1,0,0,1,.21.22,1.43,1.43,0,0,1,.14.2A1.23,1.23,0,0,1,64.21,84.9Z"/><path class="cls-5" d="M64.21,84.9H55.3s0,0,0,0l-.1,0H48a21.43,21.43,0,0,1,3.26-1.09c.7-.18,1.43-.33,2.17-.46l.59-.11c.66-.1,1.34-.18,2-.24l.23,0c.55,0,1.09-.07,1.61-.08h.37a12.6,12.6,0,0,1,4.33.58,3.36,3.36,0,0,1,1.19.71,1.1,1.1,0,0,1,.21.22,1.43,1.43,0,0,1,.14.2A1.23,1.23,0,0,1,64.21,84.9Z"/><path class="cls-6" d="M64.21,84.9H55.3s0,0,0,0l-.1,0H48a21.43,21.43,0,0,1,3.26-1.09c.7-.18,1.43-.33,2.17-.46l.59-.11c.66-.1,1.34-.18,2-.24l.23,0c.55,0,1.09-.07,1.61-.08h.37a12.6,12.6,0,0,1,4.33.58,3.36,3.36,0,0,1,1.19.71,1.1,1.1,0,0,1,.21.22,1.43,1.43,0,0,1,.14.2A1.23,1.23,0,0,1,64.21,84.9Z"/><path class="cls-7" d="M64.38,84.9H55.3s0,0,0,0l-.1,0H49.76l1.53-.1.39,0h.17l.63,0,1.42-.07h0l.46,0,.57,0h1.27l.62,0h.32l2.5-.07h1.28l1.79,0h.78a.56.56,0,0,1,.13,0H64a2.63,2.63,0,0,1,.24.26l.16.21h0S64.38,84.89,64.38,84.9Z"/><path class="cls-8" d="M64.38,84.9H55.3s0,0,0,0l-.1,0H49.76l1.53-.1.39,0h.17l.63,0,1.42-.07h0l.46,0,.57,0a.48.48,0,0,1,.12,0l.32,0h.83l.62,0h.32l2.5-.07.84,0h.44l1.79,0h.91l.44.19.13.06.16.21h0S64.38,84.89,64.38,84.9Z"/><path class="cls-2" d="M70.22,49.52c0,.15,0,.3,0,.46,0,1.29-.16,2.58-.28,3.86-.1,1.11-.22,2.21-.34,3.32h0c-.15,1.39-.32,2.8-.49,4.19h0s0,.05,0,.08c-.54,4.3-1.15,8.6-1.77,12.89q-.43,3-.89,6l-.36,2.38a12.33,12.33,0,0,1-.41,2.18H55.3s0,0,0,0l-.1,0H43.58a1.74,1.74,0,0,1,0-.22,1,1,0,0,1,0-.17c0-.14,0-.28,0-.42s0-.2,0-.3c0-.51.05-1.05.05-1.54a.66.66,0,0,1,0-.14c-.08-1.61-.24-3.21-.46-4.8-.12-.89-.25-1.78-.4-2.67s-.32-1.87-.51-2.81c-.29-1.49-.61-3-1-4.46-.15-.66-.32-1.32-.5-2q-.51-2-1.11-3.9c0-.12-.07-.25-.11-.37s0-.07,0-.11a2.32,2.32,0,0,0,.13-.37s0,0,0,0a1.4,1.4,0,0,0,.09-.29A9.49,9.49,0,0,0,40.09,58c0-.08,0-.17,0-.26s0-.32,0-.49a8,8,0,0,0,0-.85c0-.29,0-.58,0-.88C40,54.65,40,53.8,39.82,53v0a53.75,53.75,0,0,0-1.89-8.11l0,0,.07,0c2.42-1.58,8.54-2.84,11.29-3.35l.75-.14h0l.63-.11h1.67c1.83,0,4,.05,6.12.26h.28l.59.07h0l.45.06c3.07.41,6,1.23,8,2.85A6.28,6.28,0,0,1,70.2,49,3.85,3.85,0,0,1,70.22,49.52Z"/><path class="cls-3" d="M70.22,49.52a1.7,1.7,0,0,1,0,.22c0,1.29-.16,2.58-.28,3.86s-.23,2.35-.36,3.52h0c-.16,1.4-.32,2.8-.49,4.2a.19.19,0,0,0,0,.08h0c-.53,4.24-1.14,8.46-1.75,12.68-.22,1.48-.43,3-.66,4.44-.19,1.32-.39,2.63-.59,3.94a8.74,8.74,0,0,1-.53,2.42H55.3s0,0,0,0l-.1,0H43.66a3,3,0,0,1-.17-.81c0-.1,0-.2,0-.3,0-.51.05-1.05.05-1.54,0-.13,0-.26,0-.38-.08-1.61-.24-3.21-.46-4.8A98.94,98.94,0,0,0,39.6,61.35c0-.11-.06-.22-.1-.33l0-.1s0,0,0,0a1.43,1.43,0,0,0,.08-.22,0,0,0,0,0,0,0,9.21,9.21,0,0,0,.52-2.35c0-.1,0-.2,0-.3s0-.17,0-.26,0-.32,0-.49a8,8,0,0,0,0-.85c0-.29,0-.58,0-.88,0-.88-.13-1.78-.25-2.67h0a53.49,53.49,0,0,0-1.86-8,0,0,0,0,1,0,0l-.07-.21c2.42-1.61,8.79-2.91,11.5-3.41L50.3,41l.35-.06h1.54c1.87,0,4.08.05,6.3.27h.25l.37,0h0l.49.06c3.35.44,6.6,1.35,8.59,3.25,0,0,0,0,0,0a6.25,6.25,0,0,1,2,4.48A3.85,3.85,0,0,1,70.22,49.52Z"/><path class="cls-3" d="M55.21,84.9H43.58a1.74,1.74,0,0,1,0-.22,1,1,0,0,1,0-.17c0-.14,0-.28,0-.42s0-.2,0-.3c0-.51.05-1.05.05-1.54a.66.66,0,0,1,0-.14c-.08-1.61-.24-3.21-.46-4.8-.12-.89-.25-1.78-.4-2.67s-.32-1.87-.51-2.81c-.29-1.49-.61-3-1-4.46-.16-.66-.33-1.32-.5-2q-.51-2-1.11-3.9l0-.15c.07-.35.14-.68.21-1h0c0-.07,0-.14,0-.21.72-3.48,1.28-5.81,1.28-5.81s0,1.15.17,2.86c0,.06,0,.11,0,.17.62,6.86,2.87,23.17,8.94,26l1,.43a17.9,17.9,0,0,0,2.67.85h0l.58.13h0Z"/><path class="cls-3" d="M66.7,78.47l-.27,1.87-.36,2.38a12.33,12.33,0,0,1-.41,2.18h-7a8.72,8.72,0,0,0,1.83-.44h0a10.11,10.11,0,0,0,2-1,11.69,11.69,0,0,0,4.13-4.92A.25.25,0,0,0,66.7,78.47Z"/><path class="cls-3" d="M49.06,47.56v0Z"/><path class="cls-9" d="M56.22,83c0-.29,0-.6,0-.92s0-1,0-1.3a2.31,2.31,0,0,0,0-.59,3.52,3.52,0,0,0-.06.59c0,.35,0,.83,0,1.3s0,.66,0,1c0,.54,0,.94,0,.94s0,.26,0,.64v.32h.23c0-.12,0-.23,0-.33,0-.37,0-.62,0-.62S56.23,83.53,56.22,83Z"/><path class="cls-3" d="M59.15,76.67c0-.36-.08-.72-.13-1.09-.16-1.2-.32-2.39-.44-3.6-.37-3.64-1.86-15.25-2.47-20-.15-1.13-.24-1.86-.26-2a2.7,2.7,0,0,0,1.21-1.2,4.11,4.11,0,0,0,.43-1.46.32.32,0,0,0,0-.07,13,13,0,0,0-1-1.45c-.1-.13-.21-.25-.32-.37a4.6,4.6,0,0,0-.39-.38,2.36,2.36,0,0,0-.48-.34.93.93,0,0,0-.5-.11,1.31,1.31,0,0,0-.27.06h0l-.08,0a0,0,0,0,1,0,0,4,4,0,0,0-2.32,2.72.76.76,0,0,0,0,.26,9,9,0,0,0,.82,1.21h0a6.27,6.27,0,0,0,.5.54,3.19,3.19,0,0,0,.83.6c-1.1,6.8-2,13.67-2.56,20.54-.37,4.7-.85,8.87,1.68,12.73a12.08,12.08,0,0,0,1,1.29l.07.09.05.06h0a.48.48,0,0,0,.09.11h.62l.1,0s0,0,0,0h1.27c.09-.11.17-.23.26-.35a17.39,17.39,0,0,0,1-1.66,14.17,14.17,0,0,0,1-2.12A9,9,0,0,0,59.15,76.67Z"/><path class="cls-10" d="M59.52,75.33c0-.16,0-.32-.07-.48-.13-1-.27-2.07-.37-3.11-.29-2.85-1.26-10.56-2-16C57,55.1,57,54.53,56.89,54a.28.28,0,0,1,0-.09c0-.25-.06-.48-.09-.71-.12-.9-.22-1.67-.29-2.25,0-.11,0-.22,0-.33a.17.17,0,0,1,0-.07l0-.23c0-.05,0-.1,0-.15a1.29,1.29,0,0,0,0-.23s0-.06,0-.08a.2.2,0,0,1,0-.07,2,2,0,0,0,.45-.29,1.07,1.07,0,0,0,.16-.14,2.78,2.78,0,0,0,.55-.7l.1-.19a3.57,3.57,0,0,0,.23-.61,3.22,3.22,0,0,0,.11-.49c0-.2,0-.32,0-.32s-.19-.34-.49-.78a7,7,0,0,0-1.37-1.56h0l-.06,0h0a1.45,1.45,0,0,0-.39-.2.31.31,0,0,0-.13,0,.5.5,0,0,0-.21,0l-.28.06h0a2.2,2.2,0,0,0-.31.15h0l-.16.09-.06,0a0,0,0,0,1,0,0,3.77,3.77,0,0,0-.42.31h0l-.23.2-.21.21a3.62,3.62,0,0,0-.6.78,1.3,1.3,0,0,0-.11.19,1.32,1.32,0,0,0-.15.35.82.82,0,0,0-.06.19,1.23,1.23,0,0,0,0,.5l.16.27c.13.21.34.53.6.87h0a6.2,6.2,0,0,0,.43.48,3.7,3.7,0,0,0,1,.73c-1.1,6.81-2,13.67-2.55,20.54-.38,4.76-.87,9,1.77,12.87a11.7,11.7,0,0,0,.95,1.24l.11.13h0l.24.28h1.58l.27-.36a15.55,15.55,0,0,0,1.05-1.66,15.1,15.1,0,0,0,1.09-2.36A10.49,10.49,0,0,0,59.52,75.33Z"/><path class="cls-11" d="M59.29,80.52a15.1,15.1,0,0,1-1.09,2.36,15.55,15.55,0,0,1-1.05,1.66l-.27.36H55.3l-.24-.28h0l-.11-.13A11.7,11.7,0,0,1,54,83.24c-2.64-3.9-2.15-8.11-1.77-12.87.53-6.87,1.45-13.73,2.55-20.54a3.7,3.7,0,0,1-1-.73,6.2,6.2,0,0,1-.43-.48h0c-.26-.34-.47-.66-.6-.87l-.16-.27a1.23,1.23,0,0,1,0-.5.82.82,0,0,1,.06-.19,1.32,1.32,0,0,1,.15-.35,1.3,1.3,0,0,1,.11-.19,3.62,3.62,0,0,1,.6-.78l.21-.21.23-.2h0c.33-.16.59-.27.72-.32l.09,0s0,0,0,.05a7,7,0,0,0-.48,2.68h0a2.21,2.21,0,0,0,.16.78,1.33,1.33,0,0,0,.41.62,1.88,1.88,0,0,0,2.16,0,3.74,3.74,0,0,0,.55-.36l-.1.19a2.78,2.78,0,0,1-.55.7,1.07,1.07,0,0,1-.16.14,2,2,0,0,1-.45.29.2.2,0,0,0,0,.07c0,.09,0,.25.06.46l0,.23a.17.17,0,0,0,0,.07c0,.11,0,.22,0,.33.07.58.17,1.35.29,2.25,0,.23.06.47.09.71a.28.28,0,0,0,0,.09c.07.54.14,1.11.22,1.71a37.34,37.34,0,0,0-1-3.69c-.26-.72-.5-1.19-.69-1.08-.65.4-3.35,21.95-.92,26.94,2,4.15,3.86,2.27,4.65-1.2a16.07,16.07,0,0,0,.3-1.82c0,.16,0,.32.07.48A10.49,10.49,0,0,1,59.29,80.52Z"/><path class="cls-12" d="M57.17,62.22S56.11,53.38,56,53.38s.67,8.9.67,8.9,1.06,8.84,1.21,8.84S57.17,62.22,57.17,62.22Zm1.28,12.32s-.06-.61-.17-1.21A3.27,3.27,0,0,0,58,72.14a4.45,4.45,0,0,0-.06,1.23c0,.6,0,1.2,0,1.2s.07.6.13,1.2A3.92,3.92,0,0,0,58.25,77a3.57,3.57,0,0,0,.17-1.22C58.46,75.15,58.45,74.54,58.45,74.54ZM56.73,47.49a2,2,0,0,0-.35-.74c-.25-.34-.64-.48-.67-.41s.23.3.35.61a1.76,1.76,0,0,1,.13.62,1.87,1.87,0,0,1,0,.63c0,.32-.22.62-.17.68s.38-.19.54-.58A2,2,0,0,0,56.73,47.49Z"/><g class="cls-13"><path class="cls-14" d="M61.84,44c.43,1,1.72,1.67,2.41,2.49s1.49,2,2.18,3a.24.24,0,0,0,.44-.06,4.23,4.23,0,0,0-1-4.41c-.84-1-2.56-2.29-3.92-1.65a.46.46,0,0,0-.16.61Z"/></g><g class="cls-13"><path class="cls-14" d="M47.16,84.9h-2a5.47,5.47,0,0,1-1-4c.06-.25.49-.33.6-.07a14.74,14.74,0,0,0,1.07,2.79A5.52,5.52,0,0,0,47.16,84.9Z"/></g><g class="cls-13"><path class="cls-14" d="M65.38,82.12a4.44,4.44,0,0,1-1,2.74h0s0,0,0,0H62.92c.14-.1.27-.21.4-.32l.18-.18h0a1.1,1.1,0,0,0,.21-.22,13.89,13.89,0,0,0,1.4-2.12A.14.14,0,0,1,65.38,82.12Z"/></g><g class="cls-15"><path class="cls-14" d="M68.25,66.72a2.08,2.08,0,0,1,0-.41l.12-1.08c.1-.89.22-2.08.33-3.28.22-2.38.3-4.78.3-4.78s.12-2.39,0-4.78c0-1.2-.12-2.4-.2-3.29,0-.45-.08-.82-.1-1.08a2.51,2.51,0,0,1,0-.41,1.78,1.78,0,0,1,.08.4c0,.26.1.63.15,1.08.11.89.21,2.09.28,3.29.12,2.4,0,4.8,0,4.8s-.11,2.4-.38,4.79c-.13,1.19-.29,2.38-.42,3.27-.06.45-.12.82-.17,1.08A1.78,1.78,0,0,1,68.25,66.72Z"/></g><path class="cls-14" d="M60.3,54.39l7.48-.28s-.58,8.34-4,7.62S60.3,54.39,60.3,54.39Z"/><path class="cls-16" d="M50.55,38.68l.21,4.2s2.78,3.16,7.91.53l-.21-4.73S52.47,36.23,50.55,38.68Z"/><path class="cls-17" d="M58.6,41.86c-4.59,4.5-8.25-3.4-6-1.92,1.88,1.25,5,0,5.92-.44v-.16l0-.51a.64.64,0,0,0-.19-.22,17.27,17.27,0,0,0-1.72-.55c-.88-.15-1.92-.26-2.81-.46a5.75,5.75,0,0,0-.93,0h0l-.41.06h0a2.92,2.92,0,0,0-.4.1h0l-.32.12-.07,0a2.68,2.68,0,0,0-.33.18l0,0a2.43,2.43,0,0,0-.25.2l-.08.06a2.16,2.16,0,0,0-.25.27h0l.21,4.2s2.78,3.16,7.91.53Z"/><path class="cls-16" d="M67.65,20.56a2.1,2.1,0,0,1,2.9-.65c2,1.3,1,8.11-1.69,8S67.18,20.42,67.65,20.56Z"/><path class="cls-17" d="M67.65,20.56a2.1,2.1,0,0,1,2.9-.65c2,1.3,1,8.11-1.69,8S67.18,20.42,67.65,20.56Z"/><path class="cls-18" d="M70.12,25.89c0-.05-.2,0-.44-.06a.44.44,0,0,1-.28-.24.63.63,0,0,1,0-.45.82.82,0,0,1,.25-.38c.1-.1.23-.13.41-.28a.82.82,0,0,0,.26-.69.91.91,0,0,0-.09-.27,1.11,1.11,0,0,0-.14-.21,1.09,1.09,0,0,0-.25-.2l-.2-.09h0l0,0s0-.07,0-.12l0-.18a2,2,0,0,1,.28-.72c.26-.46.66-.63.64-.7s-.47,0-.87.44a2.47,2.47,0,0,0-.47.84c0,.08,0,.16-.07.23a1.56,1.56,0,0,0,0,.26c0,.22,0,.43,0,.59a1.47,1.47,0,0,1,.38,0l.1,0a.56.56,0,0,1,.11.11.46.46,0,0,1,.06.1s0,0,0,0-.23.17-.4.36a1.47,1.47,0,0,0-.35.73,1.09,1.09,0,0,0,.16.8.58.58,0,0,0,.51.25C70,26.09,70.13,25.93,70.12,25.89Z"/><path class="cls-19" d="M68.86,27.93c-2.69-.08-1.68-7.51-1.21-7.37a2.55,2.55,0,0,1,1.52-1,4.83,4.83,0,0,0,.18,2.76s.71-1.12,1.09-.75-.2,2.18.61,2.35c.25.06.41-.14.52-.44C71.42,25.67,70.43,28,68.86,27.93Z"/><g class="cls-20"><path class="cls-21" d="M71.35,21.42c.11.38.06.76-.11.85s-.41-.15-.52-.53-.06-.76.11-.85S71.24,21,71.35,21.42Z"/><path class="cls-21" d="M70.66,20.32a.31.31,0,0,1-.13.34.19.19,0,0,1-.29-.09.32.32,0,0,1,.13-.35A.19.19,0,0,1,70.66,20.32Z"/></g><path class="cls-16" d="M37.69,20.76c-.21-6.09,2.3-16,15.13-16.06S67.67,18.75,67.67,18.75a39,39,0,0,1,1.19,9.18c-.16,4-2.23,9.89-11.46,10.84s-16.35-2.93-18-8.61A4.74,4.74,0,0,1,35,26.36C34.39,23.74,35.82,21.08,37.69,20.76Z"/><g class="cls-15"><path class="cls-17" d="M37.69,20.76a19.75,19.75,0,0,1,.75-6.13,15.67,15.67,0,0,1,2.09-4.38c-1.85,3.11-2.17,7.78-2.07,10.61a7.65,7.65,0,0,1-.81-.09Z"/><path class="cls-17" d="M36,21.8a5.41,5.41,0,0,0-.38,3.65A4.73,4.73,0,0,0,40,29.26c1.66,5.67,8.78,9.55,18,8.6,4.87-.49,7.74-2.37,9.4-4.62-1.53,2.64-4.49,5-10,5.53-9.24.95-16.35-2.93-18-8.61A4.74,4.74,0,0,1,35,26.36,5.26,5.26,0,0,1,36,21.8Z"/></g><path class="cls-18" d="M37,27.77a.9.9,0,0,0,.38.76.67.67,0,0,0,.38.13.61.61,0,0,0,.47-.22,1.1,1.1,0,0,0,.28-.57.77.77,0,0,0-.2-.69,2.32,2.32,0,0,0-.39-.26.65.65,0,0,1-.19-.24.8.8,0,0,1,0-.56.4.4,0,0,1,.28-.3l.11,0h.13l.06,0,0,0,.1.15c.14.21.25.26.39.27a.35.35,0,0,0,.24-.11.47.47,0,0,0,.14-.26,3.68,3.68,0,0,0,.07-.79,5.21,5.21,0,0,0,0-.55,3.35,3.35,0,0,0-.29-1,1.71,1.71,0,0,0-.54-.65c-.39-.28-.72-.2-.71-.15s.28.09.56.4a2.26,2.26,0,0,1,.53,1.51c0,.16,0,.32,0,.48s0,.12,0,.16-.06,0-.06,0h0l-.08-.07a1,1,0,0,0-.18-.09.8.8,0,0,0-.31-.06.84.84,0,0,0-.27.05,1,1,0,0,0-.26.15,1.25,1.25,0,0,0-.45.74,1.6,1.6,0,0,0,.18,1.11,1.07,1.07,0,0,0,.39.4,2.49,2.49,0,0,1,.35.16.2.2,0,0,1,.08.19.59.59,0,0,1-.12.31.37.37,0,0,1-.49.12C37.19,28.08,37.07,27.74,37,27.77Z"/><path class="cls-21" d="M36.45,22.9c-.27.27-.58.35-.69.18s0-.53.28-.8.57-.35.69-.18S36.71,22.63,36.45,22.9Z"/><path class="cls-21" d="M37.45,21.58a.31.31,0,0,1-.13.34.19.19,0,0,1-.29-.09.32.32,0,0,1,.13-.35A.19.19,0,0,1,37.45,21.58Z"/><path class="cls-18" d="M53.73,29.9a.63.63,0,0,1,0,.38,1,1,0,0,1-.14.37.67.67,0,0,1-.36.21c-.21.06-.4-.08-.37-.11s.18,0,.31-.07a.55.55,0,0,0,.21-.19,1.1,1.1,0,0,0,.17-.27C53.63,30.07,53.69,29.9,53.73,29.9Z"/><path class="cls-17" d="M55,28.25a4.94,4.94,0,0,0,3.84-1.2s1.12.66-.8,1.47C55.48,29.59,55,28.25,55,28.25Z"/><path class="cls-18" d="M56.11,28.76a7.4,7.4,0,0,0,.81,0,4.71,4.71,0,0,0,1.64-.62,1,1,0,0,0,.52-.59.51.51,0,0,0-.25-.49,1.17,1.17,0,0,0-.46-.18l-.19,0a2,2,0,0,0-.46,0,2.61,2.61,0,0,0-.54.1l-.33.13c-.2.11-.46.31-.7.47,0-.28,0-.58,0-.9V25a6,6,0,0,1,.07-1.22A4.64,4.64,0,0,1,56.39,25c0,.34.07.73.1,1.1,0,.19,0,.37,0,.55a.16.16,0,0,0,0,.08l.07-.05a2.58,2.58,0,0,1,.38-.18,3.57,3.57,0,0,1,.65-.16,2.4,2.4,0,0,1,.56,0,1.27,1.27,0,0,1,.26,0,2,2,0,0,1,.64.3,1.18,1.18,0,0,1,.32.4.85.85,0,0,1,.06.59,1.35,1.35,0,0,1-.76.82,4.35,4.35,0,0,1-1.81.5A1.28,1.28,0,0,1,56.11,28.76Z"/><path class="cls-22" d="M57.81,27.19c0,.12-.12.31-.38.43s-.51.11-.57,0,.12-.32.38-.43S57.75,27.07,57.81,27.19Z"/><path class="cls-17" d="M50.72,26.48a3.82,3.82,0,0,0-.51-.18h0a5,5,0,0,0-1.53-.15,3.77,3.77,0,0,0-.77.1,4.27,4.27,0,0,0-.54.13c-1.24.39-2.09,1.23-2,2.14,0,1.22,1.65,2.14,3.56,2.05s3.42-1.15,3.36-2.37A2.14,2.14,0,0,0,50.72,26.48ZM68.22,26a1.84,1.84,0,0,0-1.13-1.22,3.9,3.9,0,0,0-1.63-.28,3.35,3.35,0,0,0-.54,0,4.85,4.85,0,0,0-1.68.51,3.21,3.21,0,0,0-.57.35,2.21,2.21,0,0,0-1.12,2.16c.27,1.19,2,1.81,3.83,1.38a4.29,4.29,0,0,0,2.49-1.51A1.78,1.78,0,0,0,68.22,26Z"/><path class="cls-17" d="M43.59,11.72C53.92,19.67,65.83,14,65.83,14a15.12,15.12,0,0,1,1.65,3.77C66.76,14.6,63.66,4.62,52.82,4.7c-12.83.09-15.34,10-15.13,16.06a2.62,2.62,0,0,0-.94.38,5.22,5.22,0,0,0,.82.66c2.06.93,1.79,4.61,3,3.66s.4-4.71.4-4.71C43.2,18.73,43.59,11.72,43.59,11.72Z"/><path class="cls-23" d="M37.15,20.79a7.34,7.34,0,0,1-3.08-6.37c.11-5.37,3.3-7.71,7.8-7.6,0,0,4.55-6.95,11.3-6.82s8.66,5.77,11.3,5.37S67.92,4.1,67.92,4.1s.13,2.83-1.19,3.77a11.42,11.42,0,0,0,2.91-1.21,10.06,10.06,0,0,1-1.32,5.66s1.58,3.1.79,5.26a18.25,18.25,0,0,0-.93,3.09S66.73,14.75,65.4,13c0,0-11.91,5.66-22.23-2.29,0,0-.4,7-2.65,9,0,0,.8,3.77-.39,4.72S39.2,21.71,37.15,20.79Z"/><path class="cls-23" d="M48.33,18.45c0,.1-.42,0-.75.09a1.76,1.76,0,0,0-.59.21,1.78,1.78,0,0,0-.57.25c-.28.17-.5.48-.61.44s-.07-.47.2-.84a2.1,2.1,0,0,1,.44-.45A1.67,1.67,0,0,1,46.7,18a1.37,1.37,0,0,1,.28-.06,2,2,0,0,1,.63,0C48.06,18.06,48.39,18.36,48.33,18.45Z"/><path class="cls-23" d="M64,17.27c-.07.08-.42-.11-.75-.22a1.54,1.54,0,0,0-.61-.11.39.39,0,0,0-.15,0,1,1,0,0,0-.39,0,1.07,1.07,0,0,0-.39.17c-.1.07-.17.14-.23.13s-.08-.13,0-.3a1,1,0,0,1,.39-.51,1.44,1.44,0,0,1,.61-.25,1.42,1.42,0,0,1,.31,0,2,2,0,0,1,.28.1,2.1,2.1,0,0,1,.51.33C63.82,16.84,64,17.19,64,17.27Z"/><path class="cls-24" d="M40.16,8a2,2,0,0,0-.76.15,4.53,4.53,0,0,0-1,.51,4.48,4.48,0,0,0-.78.81,2.46,2.46,0,0,0-.5,1s.29-.47.65-.87a4.43,4.43,0,0,1,.8-.71,4.48,4.48,0,0,1,.9-.56,2.86,2.86,0,0,1,.69-.22c.2,0,.34,0,.34,0A.57.57,0,0,0,40.16,8Zm.9.66a4.61,4.61,0,0,0-1.33.93,7.35,7.35,0,0,0-1,1.24,7.24,7.24,0,0,0-.37.63h0s0,0,0,.05a.14.14,0,0,1,0,.06.43.43,0,0,0,0,.07l-.2.49a7.44,7.44,0,0,0-.39,1.58v0a.28.28,0,0,0,0,.09,5.77,5.77,0,0,0,0,1.5c0,.22.07.4.09.52a.62.62,0,0,0,.06.19,5.31,5.31,0,0,0,0-.72,6.84,6.84,0,0,1,.09-1.58,2.21,2.21,0,0,1,.08-.35,7,7,0,0,1,.35-1.16c.08-.19.16-.36.21-.47l.09-.17s.12-.26.34-.63a7.43,7.43,0,0,1,1-1.24,5.37,5.37,0,0,1,1.23-1,2.55,2.55,0,0,1,.68-.22A1.18,1.18,0,0,0,41.06,8.64Zm1,1.12a3,3,0,0,0-.43.46,3.19,3.19,0,0,0-.25.58,1.26,1.26,0,0,0-.08.62,5.26,5.26,0,0,0,.26-.55,4.38,4.38,0,0,1,.3-.5,2.9,2.9,0,0,1,.34-.47c.17-.22.4-.4.4-.45S42.28,9.55,42,9.76Zm8.19-8.07c-.45.12-1,.31-1.64.53A13.59,13.59,0,0,0,47,3c-.42.23-.68.41-.68.41s-.26.18-.62.49a8.35,8.35,0,0,0-1.22,1.23,5.68,5.68,0,0,0-.43.61,5.18,5.18,0,0,0-.48.87,4.06,4.06,0,0,0-.21.53c0,.13-.06.2,0,.21s.13-.29.35-.7a6.51,6.51,0,0,1,.73-1.1c.07-.1.16-.19.24-.29A9.38,9.38,0,0,1,46.5,3.6s.25-.18.65-.42a12.49,12.49,0,0,1,1.52-.78,15.84,15.84,0,0,1,1.59-.6A7.15,7.15,0,0,0,51,1.54,4.11,4.11,0,0,0,50.23,1.69Zm-4.5,4.79a2.69,2.69,0,0,0-.61.33,3,3,0,0,0-.45.52A1.3,1.3,0,0,0,44.4,8s.21-.28.42-.51A3.63,3.63,0,0,1,45.29,7a3.65,3.65,0,0,1,.52-.37,5.67,5.67,0,0,0,.58-.3A1.25,1.25,0,0,0,45.73,6.48Zm11.7,6.23a16.8,16.8,0,0,1-2.4.16,17.43,17.43,0,0,1-2.4-.21c-.33,0-.6-.11-.78-.14l-.3-.06-.29-.07c-.19-.05-.46-.1-.77-.2a17.35,17.35,0,0,1-2.27-.82c-.33-.16-.66-.32-1-.49L47,10.75l-.29-.17q-.33-.18-.6-.36c-.53-.35-.88-.61-.92-.61a1.59,1.59,0,0,0,.23.2,8,8,0,0,0,.63.49l0,0a15.72,15.72,0,0,0,2.07,1.23,18.59,18.59,0,0,0,2.28.88c.32.11.59.16.78.21l.29.08.3.06c.2,0,.47.09.8.13a16,16,0,0,0,2.44.15,14.87,14.87,0,0,0,2.42-.24,6.22,6.22,0,0,0,.78-.18,2.44,2.44,0,0,0,.3-.08A10.6,10.6,0,0,0,57.43,12.71Zm10-8.27h0l-.23.31a4.55,4.55,0,0,1-1.12,1,5.34,5.34,0,0,1-1.36.59,4,4,0,0,1-.65.15,6.3,6.3,0,0,1-.67.1,10.4,10.4,0,0,1-1.5,0c-.54,0-1.09-.12-1.49-.18a4.13,4.13,0,0,0-.69-.1,3.25,3.25,0,0,0,.66.2,12,12,0,0,0,1.5.27,9.14,9.14,0,0,0,1.54,0,6.88,6.88,0,0,0,.69-.08,5.66,5.66,0,0,0,.68-.18,5,5,0,0,0,1.39-.67,4.17,4.17,0,0,0,1.1-1.07,2.87,2.87,0,0,0,.26-.43h0a.46.46,0,0,0,.06-.16A1.51,1.51,0,0,0,67.44,4.44Zm-.17,1.32a9,9,0,0,1-.85,1.54,3.93,3.93,0,0,1-2,1.49,6,6,0,0,1-.76.23l-.49.1h0c-.37.06-.81.11-1.25.14s-.82.05-1.19.05h-.58a6.23,6.23,0,0,0-.81,0,3.42,3.42,0,0,0,.8.12,11.76,11.76,0,0,0,1.27.06h.52c.5,0,1-.06,1.42-.12h0l.36-.07a5.46,5.46,0,0,0,.8-.22,3.82,3.82,0,0,0,.75-.36,4.1,4.1,0,0,0,1.3-1.27,8.17,8.17,0,0,0,.79-1.61A5.47,5.47,0,0,0,67.62,5S67.47,5.34,67.27,5.76Zm-10.53-2-.64-.47-.66-.43a4.24,4.24,0,0,0-.67-.43s.25.31.55.58.62.5.62.5.34.22.69.41a2.8,2.8,0,0,0,.74.32A4.16,4.16,0,0,0,56.74,3.8Zm12,4.28a8,8,0,0,1-1,1.2,12.89,12.89,0,0,1-1.82,1.41s-.43.3-1,.65c-.29.18-.61.37-.95.54-.51.27-1,.51-1.44.68a5.86,5.86,0,0,0-.66.28,3.54,3.54,0,0,0,.69-.18A12.41,12.41,0,0,0,64,12.05c.35-.17.69-.34,1-.52h0c.61-.33,1-.62,1-.62s.24-.16.59-.43a10.77,10.77,0,0,0,1.21-1.06,6.88,6.88,0,0,0,1-1.29,2.52,2.52,0,0,0,.29-.64C69,7.55,68.91,7.78,68.71,8.08Zm-.34,3.11c-.18.25-.36.5-.51.68a3.41,3.41,0,0,1-.25.29,3.8,3.8,0,0,1-.25.29,2.94,2.94,0,0,1-.64.52,2.3,2.3,0,0,1-.77.29h0c-.15,0-.25,0-.31,0h0l0,0h0a1,1,0,0,0,.34,0,2,2,0,0,0,.85-.22,3.1,3.1,0,0,0,.73-.51,3.74,3.74,0,0,0,.28-.29s.1-.12.24-.32.31-.46.47-.73a4.57,4.57,0,0,0,.52-1.15S68.71,10.69,68.37,11.19Zm-25.32-.58c0-.28,0-.51,0-.67a.79.79,0,0,0,0-.25s0,.37,0,.92,0,1-.08,1.5l-.06.52a17.12,17.12,0,0,1-.42,2c-.07.27-.15.48-.2.63s-.07.24-.07.24,0,.09-.09.24h0c-.05.15-.12.36-.23.61a15.17,15.17,0,0,1-.86,1.83,15.8,15.8,0,0,1-1.11,1.68c-.32.43-.56.72-.56.74a.89.89,0,0,0,.19-.17,6.66,6.66,0,0,0,.45-.5,14.12,14.12,0,0,0,1.2-1.66A15.59,15.59,0,0,0,42,16.43c.12-.26.19-.48.25-.63s.09-.24.09-.24l.08-.25,0-.05c0-.14.11-.35.16-.6s.07-.28.1-.44a1.55,1.55,0,0,0,0-.21s0-.06,0-.09l0-.2c.07-.34.13-.7.18-1.07a1.85,1.85,0,0,0,0-.23.28.28,0,0,1,0-.09c0-.06,0-.12,0-.18a.13.13,0,0,0,0-.06A10.53,10.53,0,0,0,43.05,10.61Zm-6.59,8a8.26,8.26,0,0,1-.65-1.28,7.78,7.78,0,0,1-.44-1.35,5,5,0,0,1-.1-.62,7.68,7.68,0,0,0-.1-.82,2.06,2.06,0,0,0-.05.61v.07h0a5.65,5.65,0,0,0,.06.78,6.38,6.38,0,0,0,.22.95c.09.29.16.48.16.48a7.48,7.48,0,0,0,.74,1.27,4.44,4.44,0,0,0,1,1.05C37.34,19.66,36.84,19.15,36.46,18.56Zm2.69,2.27a3.27,3.27,0,0,1-.35-.58,3.16,3.16,0,0,1-.29-.6,1.72,1.72,0,0,1-.07-.21,4.3,4.3,0,0,0-.12-.46,1.32,1.32,0,0,0,0,.72,2,2,0,0,0,.1.37v.06c.07.15.13.25.13.25A3.1,3.1,0,0,0,39,21a1.34,1.34,0,0,0,.59.4C39.6,21.3,39.34,21.09,39.15,20.83Zm1.45-.89a.54.54,0,0,0,0,.18,3.34,3.34,0,0,1-.07.89,3.73,3.73,0,0,1-.38,1,3.55,3.55,0,0,1-.61.86,3.71,3.71,0,0,1-.57.47l-.11.07a.9.9,0,0,0-.16.12s.08,0,.21,0l.1,0h0a2.69,2.69,0,0,0,.65-.43,3.57,3.57,0,0,0,.72-.87A3.82,3.82,0,0,0,40.71,21V21h0A1.83,1.83,0,0,0,40.6,19.94Zm28.23-6.52s0,0,0,.08h0a.92.92,0,0,1-.06.22c-.07.17-.21.41-.33.64A4.22,4.22,0,0,1,68,15a1.65,1.65,0,0,1-.18.23v0a2.26,2.26,0,0,1-.21.24,1.9,1.9,0,0,1-.56.39l-.11,0h0l-.14,0h0a1.33,1.33,0,0,1-.38,0c-.19,0-.32-.06-.33,0a.59.59,0,0,0,.32.14,1.26,1.26,0,0,0,.44,0h.06l.12,0h0l.13,0a2.1,2.1,0,0,0,.66-.39l.06-.06.19-.19a2.44,2.44,0,0,0,.19-.28,6.92,6.92,0,0,0,.34-.67,6.06,6.06,0,0,0,.25-.7.25.25,0,0,0,0-.12C68.87,13.5,68.84,13.41,68.83,13.42Zm.35,2.43s-.17.32-.37.6a1.8,1.8,0,0,1-.29.35.86.86,0,0,1-.16.13.9.9,0,0,1-.16.12.53.53,0,0,1-.15.08,1.14,1.14,0,0,1-.26.09.93.93,0,0,1-.44,0h0l-.06,0a.1.1,0,0,1,0,0s0,0,0,0a0,0,0,0,0,0,.05,0,0,0,0,1,0,0l0,.05a.31.31,0,0,0,.09.07h.08a.87.87,0,0,0,.43.06l.28-.05.23-.09a1.83,1.83,0,0,0,.21-.13L68.7,17a1.88,1.88,0,0,0,.28-.43A1.46,1.46,0,0,0,69.18,15.85Z"/><path class="cls-25" d="M44.76,10.39a1.62,1.62,0,0,1,1.31-.07,3.61,3.61,0,0,1,.63.26l.29.17.4.28-.14-.15c-.67-.66-2.4-2.62-1-3.8a12,12,0,0,1,3.37-2c-.25.07-1.07.32-2,.55l-.22,0c-.45.11-.91.21-1.29.27h0c-.76.12-1.27.1-1-.26a10.66,10.66,0,0,1,1.24-1.49,0,0,0,0,1,0,0l.47-.45L46.41,4a17.58,17.58,0,0,1-2,1.51c-.12.07-.23.14-.34.19-.58.28-1,.26-.76-.49l.09-.31L43.35,5l-.48.55L42.48,6c-.4.51-.62.84-.62.84h-.31c-.27,0-.53,0-.79,0l-.57.06-.14,0H40L39.42,7h0a.58.58,0,0,0-.18,0c-.22,0-.43.11-.64.18h0l-.51.2-.12,0-.47.24-.1.06a1.82,1.82,0,0,0-.23.15,2.82,2.82,0,0,0-.36.24l0,0a4.33,4.33,0,0,0-.47.4c-.1.1-.2.2-.29.31l-.24.26-.21.28c.67-.44,1.66-1,1.94-.85s-1,2.81-1,2.81,1.65-1.8,2-1.44c.14.14,0,.73-.12,1.42,0,0,0,0,0,.05a.14.14,0,0,1,0,.06c-.19.82-.49,1.74-.63,2.14v0l-.06.16.05-.07c0-.09.15-.25.28-.44.52-.82,1.55-2.31,2.07-2.29h0a.14.14,0,0,1,.09,0h0c.59.33.21,2.13.15,2.41.14-.28,1.21-2.44,2.22-1.91a1,1,0,0,1,.41.5,2.37,2.37,0,0,1,.13.32h0a.28.28,0,0,1,0-.09c0-.06,0-.12,0-.18a.13.13,0,0,0,0-.06c0-.28.06-.52.08-.72s0-.26,0-.36,0-.3,0-.3l1,.72.62.4c.46.29.92.56,1.39.8s.67.34,1,.49C45.78,12.16,44,10.8,44.76,10.39Zm23.33,7c0-.07,0-.15,0-.23a11.47,11.47,0,0,1-.18-1.53c0-.13,0-.26,0-.38a4.09,4.09,0,0,1,.4-2.31c0-.06.13-.13.22-.22-.1-.23-.17-.37-.17-.37a10,10,0,0,0,1.32-5.66,2.38,2.38,0,0,1-.39.25,3.2,3.2,0,0,1-.37.19l-.57.24a1.17,1.17,0,0,1-.24.09,12.4,12.4,0,0,1-1.32.44.8.8,0,0,0,.17-.15,1.62,1.62,0,0,0,.18-.19,1.52,1.52,0,0,0,.22-.34,2.43,2.43,0,0,0,.22-.46.88.88,0,0,0,0-.15,5.46,5.46,0,0,0,.2-.77c0-.17.06-.34.08-.5a3.93,3.93,0,0,0,0-.46,1.41,1.41,0,0,0,0-.2c0-.33,0-.55,0-.55a.85.85,0,0,1-.17.14l-.1.07-.1.07h0l-.1.05h0l-.2.11L67,4.68l-.24.11h0a4.61,4.61,0,0,1-.53.19l-.67.18L65,5.27l-.56.1-.27,0a.9.9,0,0,1-.23,0,1,1,0,0,1-.24,0,2.94,2.94,0,0,1-.92-.43,1.67,1.67,0,0,1-.24-.16,4.22,4.22,0,0,1-.36-.27l-.12-.1-.37-.31-.4-.34-.27-.23a.86.86,0,0,0-.14-.13v0c.62.82,1.14,1.75.76,2.14s-1.91.48-2.85.38h0l-.44-.05c.53.21,1.47.65,2.28,1.08h.05a5.86,5.86,0,0,1,1.51,1s0,.1,0,.16h0c-.52.44-3.72.87-3.72.87s1.1.11,2.3.34l.68.15h0c1.11.27,2.16.63,2.39,1.13.54,1.13-5.28,4.1-5.28,4.1l2.06-.23.53-.11.11,0,.88-.21.8-.23h0c.35-.1.67-.21,1-.3l.39-.14.11,0,.21-.08h0l.48-.19.18-.08L65.4,13a2.2,2.2,0,0,1,.19.3h0a0,0,0,0,1,0,0,.82.82,0,0,1,.12.2,12.1,12.1,0,0,1,.78,1.71l0,.08.24.65,0,.15c.13.35.24.7.35,1.05a0,0,0,0,1,0,0l0,.05c.06.18.11.37.17.55v0q.11.32.18.6l.09.29a.06.06,0,0,0,0,0,.43.43,0,0,0,0,.05.19.19,0,0,1,0,.07c.06.19.11.36.15.53,0,0,0,0,0,0,.1.24.19.46.26.65s.08.22.12.32c0-.11.06-.26.11-.45l0-.05h0l.18-.63c0-.09,0-.18.09-.28s.06-.19.1-.3,0-.16.07-.24a.53.53,0,0,1-.38-.18A2.6,2.6,0,0,1,68.09,17.36Zm-25.62-2.1-.44.46c-1,1-2.73,2.63-3.54,2.63h0a1.51,1.51,0,0,1-.69-.27h0a12.26,12.26,0,0,1-2.51-2.76,1.5,1.5,0,0,1-.15-.21l0,0,0,.11h0a7.79,7.79,0,0,1,.28,1.73c0,.33-.09.56-.31.53-.45-.07-.8-1.38-1-2.38v0c0,.17,0,.33,0,.49v0a2.34,2.34,0,0,0,0,.26c0,.14,0,.29.07.42s0,.14,0,.21a2.83,2.83,0,0,1,.09.37,0,0,0,0,1,0,0s0,0,0,0v0s0,0,0,0l0,.08c.06.18.12.35.19.52l.11.27.12.25c.09.17.17.33.26.48s.18.29.27.42.19.26.28.38a5.87,5.87,0,0,0,.55.62,4,4,0,0,0,.39.36,4.52,4.52,0,0,0,.53.41l.13.07h0a1.67,1.67,0,0,1,.28.18l.11.08a1.29,1.29,0,0,1,.17.16,3.16,3.16,0,0,1,.37.45,2.38,2.38,0,0,1,.18.3A8.3,8.3,0,0,1,39,23.32h0s0,0,0,0,0,0,0,0a.06.06,0,0,0,0,0l.09.25.09.23a2,2,0,0,0,.17.36s0,0,0,0a.44.44,0,0,0,.08.11.34.34,0,0,0,.08.09.27.27,0,0,0,.08.07h0l0,0a.27.27,0,0,0,.12,0,.58.58,0,0,0,.35-.15.91.91,0,0,0,.17-.17,1.07,1.07,0,0,0,.15-.22,1.83,1.83,0,0,0,.18-.48l.09-.37c0-.21,0-.44.06-.67s0-.65,0-1c0-.1,0-.19,0-.29a1.8,1.8,0,0,1,0-.22,0,0,0,0,0,0,0V21h0l0-.22,0-.25,0-.19,0-.19c0-.24-.07-.39-.07-.39a3.47,3.47,0,0,0,.32-.34c.09-.11.18-.23.26-.35l.18-.28c.06-.1.11-.2.16-.3l.11-.21a6.14,6.14,0,0,0,.25-.59,3.94,3.94,0,0,0,.18-.48c.08-.21.15-.43.21-.65,0-.06,0-.11.05-.16s.09-.34.14-.51.11-.46.16-.68Z"/><g class="cls-26"><path class="cls-23" d="M35.92,9.74c-.81,1-1.79,2.53-1.42,3.88a.24.24,0,0,0,.44.06A10.63,10.63,0,0,0,35.58,12a9,9,0,0,1,.94-1.82c.25-.36-.33-.81-.6-.47Z"/><path class="cls-23" d="M36.63,11.63a2.53,2.53,0,0,0-1.12,1.74c-.12.64-.07,1.75.73,1.93,1.44.33,1.36-2.53,1.19-3.34a.55.55,0,0,0-.8-.33Z"/><path class="cls-23" d="M39.32,12.16c-.5.23-.81,1.09-.94,1.6a3.76,3.76,0,0,0,.15,2.15.2.2,0,0,0,.39,0c.15-.65.33-1.29.43-1.95a4.28,4.28,0,0,0,.15-1.73.12.12,0,0,0-.18-.07Z"/><path class="cls-23" d="M41.44,12.72s0,.26,0,.32l0,.56a3.78,3.78,0,0,0,.08,1,.23.23,0,0,0,.41,0,9,9,0,0,0,.62-1.9l-.24.32.08-.06a.66.66,0,0,0-.16-1.19c-.5-.14-1.08.48-.73,1Z"/><path class="cls-23" d="M46.66,5.7c1.12,0,2.09-.62,3.13-1a10.72,10.72,0,0,1,3.6-.44.58.58,0,0,0,.4-1C51.93,1.27,47.26,2.2,46,4.57a.76.76,0,0,0,.64,1.13Z"/><path class="cls-23" d="M55.66,1.82a6.61,6.61,0,0,1,1,.63,3.8,3.8,0,0,0,.93.6c.26.09.41-.21.32-.41-.33-.78-1.43-1-2.17-1a.08.08,0,0,0,0,.15Z"/><path class="cls-23" d="M46.29,11.53c2,2,5.66,3,8.47,3.07.2,0,.25-.32.05-.35a25,25,0,0,1-4.08-1c-1.48-.55-2.78-1.41-4.22-2-.18-.07-.38.13-.22.29Z"/><path class="cls-23" d="M46.6,9.15c2.48,2.92,9.66,3.78,12.89,1.95a.41.41,0,0,0-.09-.74C57.22,10,55,10.3,52.85,9.91,50.85,9.54,49,8.47,47,8.26c-.5-.06-.64.59-.37.89Z"/><path class="cls-23" d="M61.52,11a1.64,1.64,0,0,1,.5-.08.82.82,0,0,0,.51-.07.29.29,0,0,0,0-.45c-.32-.31-.93-.06-1.26.12a.26.26,0,0,0,.2.48Z"/><path class="cls-23" d="M51.56,6.87A6.06,6.06,0,0,0,53,7.05a15.4,15.4,0,0,1,2.52.6,6.89,6.89,0,0,0,3.82.41.59.59,0,0,0,.35-.87c-1-1.54-2.93-1.82-4.64-2-1.24-.14-3.45-.47-3.84,1.14a.45.45,0,0,0,.31.55Z"/><path class="cls-23" d="M60.66,7.89a1.26,1.26,0,0,0,.46.16A2.23,2.23,0,0,0,61.57,8c.16,0,.16-.25,0-.33a1.69,1.69,0,0,0-.36-.23,1.14,1.14,0,0,0-.45,0c-.26,0-.41.41-.14.53Z"/></g><path class="cls-3" d="M50.59,40.72l.1,0c-.22.06.41,1.64.53,1.84a4.57,4.57,0,0,0,1.29,1.34,4.35,4.35,0,0,0,3.55.78,3.52,3.52,0,0,0,2-1.25,3.9,3.9,0,0,0,.58-2.72,12.69,12.69,0,0,1,2.41,4c.44,1.31-.15,5.2-2.14,4.23-1-.5-2-2.43-2.71-3.44,0,0-2.38,4.23-3.18,4.32-1.5.16-2.81-2-3.33-3.07-.86-1.8-1-4.08.47-5.6A1.76,1.76,0,0,1,50.59,40.72Z"/><path class="cls-2" d="M50.44,39.93l.1,0c-.21.07.42,1.65.53,1.85a4.57,4.57,0,0,0,1.29,1.34,4.37,4.37,0,0,0,3.56.77,3.48,3.48,0,0,0,2-1.24,4,4,0,0,0,.58-2.72,12.88,12.88,0,0,1,2.41,4c.44,1.3-.16,5.2-2.14,4.23-1-.5-2-2.43-2.71-3.45,0,0-2.39,4.24-3.19,4.33-1.49.16-2.8-2-3.33-3.07-.85-1.81-1-4.08.48-5.6A1.93,1.93,0,0,1,50.44,39.93Z"/><path class="cls-3" d="M52.85,47.76c-2.56-.57-1.7-4.7-1.7-4.7s1.28,2.39,4.91,1.27,2.56-3.84,2.46-4.45a4,4,0,0,1-.58,2.72,3.48,3.48,0,0,1-2,1.24,4.37,4.37,0,0,1-3.56-.77,4.57,4.57,0,0,1-1.29-1.34c-.11-.2-.74-1.78-.53-1.85l-.1,0a1.93,1.93,0,0,0-.4.35c-1.52,1.52-1.33,3.79-.48,5.6C50.09,47,51.4,49.11,52.89,49c.29,0,.78-.6,1.29-1.31A2.08,2.08,0,0,1,52.85,47.76Z"/><path class="cls-3" d="M56.08,44.62c.74,1,1.7,3,2.71,3.45,1.69.83,2.37-1.87,2.26-3.5A6.58,6.58,0,0,1,60,47.28C58.88,48.38,56.08,44.62,56.08,44.62Z"/><path class="cls-16" d="M9.08,52.2c-1.42-.74-3-1.24-4.41-1.92C4.26,50.07.11,48.12.88,47.35s2.25.21,2.25.21S-2.1,43.24,1,42s9.33,3.67,9.33,3.67-1.45-3.2,1.76-3.14c1.56,0,0,2.71.45,3.82.52,1.32,1.31,2.81.71,4.23l1.06,1.15A23.25,23.25,0,0,1,11.43,54,7.76,7.76,0,0,0,9.08,52.2Z"/><path class="cls-18" d="M10.12,48.44a2.56,2.56,0,0,1,1.08.94,2,2,0,0,1,.25.54A3.49,3.49,0,0,0,10,48.71a3.55,3.55,0,0,0-1.86-.33,2,2,0,0,1,.57-.15A2.5,2.5,0,0,1,10.12,48.44Z"/><path class="cls-18" d="M6.35,46.88c-.56,1.23-1,2.27-1,2.27a8.8,8.8,0,0,1,2-4.49S6.9,45.65,6.35,46.88Z"/><path class="cls-18" d="M4.07,47.77a4,4,0,0,1,.9.62,4.17,4.17,0,0,1-1-.36,4.36,4.36,0,0,1-.89-.62A3.72,3.72,0,0,1,4.07,47.77Z"/><path class="cls-18" d="M3,45.21A11.31,11.31,0,0,1,5.43,47.1s-1.11-.79-2.56-1.64S.21,44,.21,44A11.32,11.32,0,0,1,3,45.21Z"/><path class="cls-18" d="M3.74,43.36a10.87,10.87,0,0,1,2.51,2,28,28,0,0,0-2.66-1.73A30.64,30.64,0,0,0,.78,42.17,11,11,0,0,1,3.74,43.36Z"/><path class="cls-17" d="M9.06,52.23c2.51-.31,3.63-1.13,4-2.07a5,5,0,0,1-4.38.92c-1.69-.61-1.16-2-.41-2.66s3,1.38,3,1.38a2.7,2.7,0,0,0-.37-.92c-.29-.55-.92-.58-1.44-.76-.69-.25-.46-.82,0-1.23a2.28,2.28,0,0,1,2.05-.45,2.16,2.16,0,0,1,1.32.87c-.16-.4-.33-.73-.41-1a5.13,5.13,0,0,1,.18-2.27c-.2.51-.77,1.66-1.72,1.64s-.47-1.84-.45-2.79c-1.08.84-.22,2.74-.22,2.74s-4-3.12-7.16-3.75a19,19,0,0,1,2.46,1.64c.93.73.78,3.58-1.28,3.71-1.42.1-3.22-2.08-4.21-3.45C.57,45.29,2.49,47,3,47.45c.73.41,1.48.82,1.72,1,.44.29.72,1.19-.4.72S.88,47.35.88,47.35C-.25,48.47,9.06,52.23,9.06,52.23Z"/><path class="cls-2" d="M38.2,44.62s2.3,1,4.09,4.86c2.45,5.3-6.95,20-13.15,21.23S9.07,55.6,9.07,55.6s2.55-5.29,6.75-4.69L27.38,62.8C30,63,35.24,46.62,38.2,44.62Z"/><path class="cls-3" d="M14.17,51A3.65,3.65,0,0,0,12,54.12c.08,3.1,12.44,13.2,14.55,11.78,1.72-1.16-.79-4.58-1.76-5.78l2.61,2.68c.41,0,.89-.34,1.42-1,.87.76,1.85,1.6,2.37,2,1.06.8,4,.26,7.28-6.82A19.62,19.62,0,0,0,40.12,46a12.22,12.22,0,0,1,2.23,3.57c2.45,5.31-7,19.89-13.21,21.11S9.07,55.6,9.07,55.6,11,51.68,14.17,51Z"/><path class="cls-10" d="M76.17,32.53s-.4-.51-.43-.53L74,29.86c-.4-.49-1.07-1.67-1.78-1.76a.68.68,0,0,0-.34.08,11,11,0,0,0-2,1.17.48.48,0,0,1-.31.13c-.2,0-.29-.28-.21-.46a1,1,0,0,1,.44-.38,9.23,9.23,0,0,1,2.46-1.21c.76-.11,1.13.63,1.59,1.17q1.48,1.68,3,3.35Z"/><path class="cls-27" d="M76.28,32.43l.24-.22-3.33-3.76c-.19-.22-.82-1.16-1.21-.93a.54.54,0,0,0-.07.13.31.31,0,0,1,.18,0h.11c.11,0,.32.35.41.45l.17.21.11.13,0,.06.11.13.47.58.34.41.07.09.1.12,1.12,1.4.49.6,0,0,.08.11s.43.52.43.53l.08-.08Z"/><path class="cls-10" d="M100.24,43.89l-.42-.53L98.1,41.23c-.39-.49-1.06-1.67-1.78-1.76a.71.71,0,0,0-.34.08,10.57,10.57,0,0,0-2,1.17.5.5,0,0,1-.32.13c-.19,0-.28-.28-.2-.46a.87.87,0,0,1,.44-.38,9.17,9.17,0,0,1,2.45-1.21c.76-.11,1.13.63,1.6,1.16,1,1.13,2,2.24,3,3.36Z"/><path class="cls-27" d="M100.35,43.79l.25-.21q-1.68-1.87-3.33-3.76c-.2-.22-.83-1.16-1.21-.93A.54.54,0,0,0,96,39a.27.27,0,0,1,.17,0h.11c.12,0,.33.35.41.45l.17.2.12.14,0,.06a1.47,1.47,0,0,0,.1.13l.48.58.33.41.07.09.1.12c.38.46.75.93,1.12,1.39l.49.61,0,0,.09.1s.43.53.42.53l.09-.07Z"/><path class="cls-10" d="M86.63,38l.06-.86a5.7,5.7,0,0,1,3.64,1.7l-.67.55A5,5,0,0,0,86.63,38Z"/><path class="cls-27" d="M86.63,38a5,5,0,0,1,3,1.39l.29-.25a5.72,5.72,0,0,0-3.29-1.51Z"/><path class="cls-12" d="M76.52,32.39s7.1-.7,10.07,5.21c0,0-3.46,7.58-8.7,4.86S76.52,32.39,76.52,32.39Z"/><path class="cls-12" d="M84.56,34.93l-7.7,6.84a5.77,5.77,0,0,0,1,.69l.45.21,7.43-6.39A8.8,8.8,0,0,0,84.56,34.93Z"/><path class="cls-12" d="M81,32.94,75.16,38.1a5.8,5.8,0,0,0,.4,1.88l7.28-6.26A10.1,10.1,0,0,0,81,32.94Z"/><path class="cls-12" d="M86,38.62a11.1,11.1,0,0,0,.55-1c-3-5.91-10.07-5.21-10.07-5.21A11.92,11.92,0,0,0,76,33.65,10.41,10.41,0,0,0,86,38.62Z"/><path class="cls-10" d="M87,37.39a1.28,1.28,0,0,0-.11-.2C84.1,32,78.19,31.9,76.8,32h-.3l-.18,0h0l-.12.22-.1.19c-.55,1.17-3.34,7.63,1.41,10.33l.21.11a4.94,4.94,0,0,0,4.25.28c2.65-1,4.38-4.11,4.88-5.07l.14-.29,0,0,.07-.14ZM75.89,39.7a5.38,5.38,0,0,1-.36-1.94,10.63,10.63,0,0,1,.7-3.69h0a12.46,12.46,0,0,1,.52-1.26,12.78,12.78,0,0,1,3.84.48,10.37,10.37,0,0,1,1.88.75,9.24,9.24,0,0,1,1.76,1.19,8.28,8.28,0,0,1,1.22,1.34,9.47,9.47,0,0,1,.68,1.08c-.11.21-.3.57-.57,1a9.06,9.06,0,0,1-3.87,3.69,4,4,0,0,1-3,0,4.67,4.67,0,0,1-.62-.27,5.71,5.71,0,0,1-.91-.59A4.31,4.31,0,0,1,75.89,39.7Z"/><path class="cls-27" d="M86.39,37.43A8.52,8.52,0,0,0,84.53,35a8.41,8.41,0,0,0-1.71-1.22l-.22-.12-.08,0h0l-.09,0h0l0,0,0,0-.06,0c-.43-.18-.83-.34-1.25-.47a11.61,11.61,0,0,0-4.2-.52l-.21,0-.1.2A10.15,10.15,0,0,0,76,33.71a12.19,12.19,0,0,0-.84,3.55c0,.28,0,.55,0,.83a2.83,2.83,0,0,0,0,.29h0a1.37,1.37,0,0,1,0,.19c0,.05,0,.09,0,.14s0,.21,0,.32h0a0,0,0,0,1,0,0c0,.1,0,.2.07.3v0a.78.78,0,0,0,.05.14.83.83,0,0,0,0,.15v0l.06.13s0,.1,0,.14h0c0,.07.05.13.07.19a1.42,1.42,0,0,0,.08.18,3.07,3.07,0,0,0,.17.31l.2.3c.07.09.14.19.22.28a1.79,1.79,0,0,0,.23.25,1.7,1.7,0,0,0,.19.19h0l0,0,.06,0,.12.1.34.26.07,0a2.61,2.61,0,0,0,.28.17,1.18,1.18,0,0,0,.19.11h0l.3.14.16.07.13.06a5,5,0,0,0,.51.16,4.45,4.45,0,0,0,2.79-.18A9.48,9.48,0,0,0,86,38.62c.27-.48.43-.8.45-.85l.08-.18Zm-.83,1.21a9.06,9.06,0,0,1-3.87,3.69,4,4,0,0,1-3,0,4.67,4.67,0,0,1-.62-.27,5.71,5.71,0,0,1-.91-.59,4.31,4.31,0,0,1-1.29-1.79,5.38,5.38,0,0,1-.36-1.94,10.63,10.63,0,0,1,.7-3.69h0a12.46,12.46,0,0,1,.52-1.26,12.78,12.78,0,0,1,3.84.48,10.37,10.37,0,0,1,1.88.75,9.24,9.24,0,0,1,1.76,1.19,8.28,8.28,0,0,1,1.22,1.34,9.47,9.47,0,0,1,.68,1.08C86,37.85,85.83,38.21,85.56,38.64Z"/><path class="cls-12" d="M90,39.14s7-1.28,10.47,4.37c0,0-2.82,7.84-8.27,5.56S90,39.14,90,39.14Z"/><path class="cls-12" d="M98.27,41l-7.11,7.45a5.33,5.33,0,0,0,1.08.61l.47.17,6.88-7A9,9,0,0,0,98.27,41Z"/><path class="cls-12" d="M94.53,39.32,89.16,45a5.69,5.69,0,0,0,.56,1.84L96.45,40A10,10,0,0,0,94.53,39.32Z"/><path class="cls-12" d="M100.05,44.56c.3-.62.46-1.05.46-1.05C97.06,37.86,90,39.14,90,39.14s-.21.51-.44,1.31A10.42,10.42,0,0,0,100.05,44.56Z"/><path class="cls-10" d="M100.88,43.32l0-.06a9.13,9.13,0,0,0-2.3-2.56,7.61,7.61,0,0,0-1.18-.76h0a4.75,4.75,0,0,0-.55-.28l-.15-.07h0l-.19-.08a8.77,8.77,0,0,0-1-.37h0a13.19,13.19,0,0,0-5.22-.43l-.18,0-.22,0-.07.16,0,.06-.12.31C89,40.78,87,47.15,91.85,49.37l.22.1a6.66,6.66,0,0,0,.67.23,4.8,4.8,0,0,0,2.49.09,5.13,5.13,0,0,0,1.09-.4,8.67,8.67,0,0,0,3.27-3.2.61.61,0,0,0,.07-.1h0c.13-.21.26-.42.37-.62,0,0,0,0,0,0l.09-.16a13,13,0,0,0,.74-1.62v0h0l.06-.16Zm-9.42,4.83A4.16,4.16,0,0,1,90,46.48a5.41,5.41,0,0,1-.51-1.9h0a10.64,10.64,0,0,1,.38-3.73h0a13.57,13.57,0,0,1,.42-1.3,12.23,12.23,0,0,1,3.86.17l.16,0c.27.06.55.13.84.22a7,7,0,0,1,.93.34A8.08,8.08,0,0,1,98,41.34a7,7,0,0,1,.63.51l0,0a6.09,6.09,0,0,1,.65.69,7.25,7.25,0,0,1,.68.87l.1.15,0,.05c-.06.14-.15.35-.27.59h0c0,.1-.1.2-.15.32a.05.05,0,0,0,0,0s0,0,0,0l0,.06s0,0,0,0l-.18.31h0l-.13.23a2.39,2.39,0,0,1-.13.21.41.41,0,0,1,0,.09,6.31,6.31,0,0,1-.44.66.44.44,0,0,1-.08.11A7,7,0,0,1,96,48.63a4.12,4.12,0,0,1-3,.26h0a3.78,3.78,0,0,1-.62-.21A4.76,4.76,0,0,1,91.46,48.15Z"/><path class="cls-27" d="M100.3,43.34l0-.05c-.07-.1-.13-.2-.21-.3l0,0a5.56,5.56,0,0,0-.5-.67,6.72,6.72,0,0,0-1-1h0c-.11-.1-.21-.19-.33-.28a6.42,6.42,0,0,0-.6-.42l-.11-.07h0a6.86,6.86,0,0,0-.87-.49l-.22-.1-.36-.15-.12,0-.23-.08h0a2.53,2.53,0,0,0-.36-.12L95,39.44h-.06l-.06,0h0l-.35-.08a11.86,11.86,0,0,0-4.22-.16l-.21,0-.09.21a10.46,10.46,0,0,0-.37,1.08h0a11.49,11.49,0,0,0-.47,4.44s0,0,0,0a0,0,0,0,1,0,0c0,.19.06.38.1.56a.94.94,0,0,1,0,.16.75.75,0,0,0,0,.16,5.52,5.52,0,0,0,.18.53l.09.2.08.16a2.61,2.61,0,0,0,.24.43,1.91,1.91,0,0,0,.22.3,2.17,2.17,0,0,0,.24.29,4.11,4.11,0,0,0,.29.3c.1.09.21.19.33.28l.35.24s0,0,0,0l.26.15.08,0h0s0,0,0,0L92,49l.2.09h0l.26.1.23.08.14,0a4.24,4.24,0,0,0,2.47,0,4,4,0,0,0,.81-.31,7.49,7.49,0,0,0,2.66-2.42l0,0c.16-.23.31-.46.45-.68l0-.05a1.62,1.62,0,0,0,.1-.18.35.35,0,0,0,0-.08c.11-.19.21-.37.29-.54l0,0a.31.31,0,0,1,0-.1v0h0c0-.08.07-.16.11-.23.14-.3.24-.54.3-.69l.07-.19.07-.19Zm-.54.88h0c0,.1-.1.2-.15.32a.05.05,0,0,0,0,0s0,0,0,0l0,.06s0,0,0,0l-.18.31h0l-.13.23a2.39,2.39,0,0,1-.13.21.41.41,0,0,1,0,.09,6.31,6.31,0,0,1-.44.66.44.44,0,0,1-.08.11A7,7,0,0,1,96,48.63a4.12,4.12,0,0,1-3,.26h0a3.78,3.78,0,0,1-.62-.21,4.76,4.76,0,0,1-1-.52A4.16,4.16,0,0,1,90,46.48a5.41,5.41,0,0,1-.51-1.9h0a10.64,10.64,0,0,1,.38-3.73h0a13.57,13.57,0,0,1,.42-1.3,12.23,12.23,0,0,1,3.86.17l.16,0c.27.06.55.13.84.22a7,7,0,0,1,.93.34A8.08,8.08,0,0,1,98,41.34a7,7,0,0,1,.63.51l0,0a6.09,6.09,0,0,1,.65.69,7.25,7.25,0,0,1,.68.87l.1.15,0,.05C100,43.77,99.88,44,99.76,44.22Z"/><path class="cls-16" d="M102.27,47.44a2.86,2.86,0,0,1-.76,2.25A1.06,1.06,0,0,1,102,50c.81.89.26,3.06-.66,2.3a5.06,5.06,0,0,0-1.81-.84,15.51,15.51,0,0,1-1.87,1S93.92,54,92.89,51.12,95.5,47,95.68,46.58s-1.25-.85-1.74-1.25.5-2.18,2.92-1.92,3,1.47,3,1.47-.42-1.46.33-1.58S101.84,44.66,102.27,47.44Z"/><path class="cls-18" d="M97.2,44.85l-.1-.07a1.07,1.07,0,0,0-.19-.13h0c-.35-.22-.63-.37-.63-.37a4.08,4.08,0,0,0-.84-.26h0l-.23,0a1.21,1.21,0,0,0-.75.12l0,0c-.18.11-.25.23-.25.26s.13-.09.3-.17l.15-.05a1.14,1.14,0,0,1,.55,0l.1,0a4.55,4.55,0,0,1,.9.32l.13.06a6,6,0,0,1,.68.36l.14.08a10.52,10.52,0,0,0,.92.6A3.76,3.76,0,0,0,97.2,44.85Zm3.73,2.27a5.82,5.82,0,0,0-.2-.76h0a2.17,2.17,0,0,0-.08-.22,6.14,6.14,0,0,0-.5-.87h0c-.08-.12-.17-.24-.25-.34h0a.12.12,0,0,1,0,0,2.85,2.85,0,0,0-.22-.24,0,0,0,0,1,0,0l-.13-.1s0,0,.06.13l0,.05.07.1v0l.12.2a.25.25,0,0,1,0,.07,2.82,2.82,0,0,1,.18.29l.06.11a6.45,6.45,0,0,1,.36.78,6.12,6.12,0,0,1,.35.92,2.08,2.08,0,0,1,.09.66,1.51,1.51,0,0,0,0,.32.68.68,0,0,0,.12-.31A1.88,1.88,0,0,0,100.93,47.12Zm-1.27-1h0l0,0,0,0-.17-.32h0a.21.21,0,0,0,0-.06.47.47,0,0,0,0-.1c0-.08-.1-.16-.14-.24a7.28,7.28,0,0,0-.43-.59l-.06-.07a4.06,4.06,0,0,0-.8-.68l0,0a2.05,2.05,0,0,0-1-.4,7.37,7.37,0,0,1,.91.55h0a5,5,0,0,1,.65.63l.08.1a7.47,7.47,0,0,1,.56.69.76.76,0,0,1,.11.14,1.63,1.63,0,0,1,.11.17l0,.05c.08.12.16.23.22.33l0,0a.62.62,0,0,0,.09.12.64.64,0,0,1,.1.13l0,0h0A1.19,1.19,0,0,0,99.66,46.09Zm2.14,3.08s0,.09-.1.2a1.17,1.17,0,0,1-.32.36,3.2,3.2,0,0,1-.4.3l-.19.13a11.24,11.24,0,0,0-1.08,1h0a3.38,3.38,0,0,0,.49-.3l.72-.5.17-.15a3.82,3.82,0,0,0,.38-.35.64.64,0,0,0,.1-.13.77.77,0,0,0,.18-.33.5.5,0,0,0,0-.14h0s0,0,0,0S101.81,49.17,101.8,49.17Z"/><path class="cls-17" d="M101,44.3c-.64-.19-.19,2.94-.15,3.09s-.91-2.71-1.37-2.69.34,1.79.34,1.79-1.84-2.29-2.19-2,1.47,2.37,1.47,2.37c-.4-.39-3.11-2.7-3.58-2s1.62,1.92,1.62,1.92S96,47,95.31,49.32c-.56,1.8,1.77,2.63,2.84,2.9-.31.17-.51.26-.51.26a6.31,6.31,0,0,1-1.78.39,11.85,11.85,0,0,1-2.33-.71,2.79,2.79,0,0,1-.64-1c-1-2.89,2.61-4.13,2.79-4.54s-1.25-.85-1.74-1.25.5-2.18,2.92-1.92,3,1.47,3,1.47-.42-1.46.33-1.58c.48-.07,1,.49,1.44,1.62A1.69,1.69,0,0,0,101,44.3Z"/><path class="cls-17" d="M102.25,51.88a2.55,2.55,0,0,0-.13-.29,1.48,1.48,0,0,0-2.42-.39A15.11,15.11,0,0,0,101,50c.25-.28.73-.88,1.16-1.45a3.56,3.56,0,0,1-.64,1.11A1.06,1.06,0,0,1,102,50,2,2,0,0,1,102.25,51.88Z"/><path class="cls-28" d="M99.7,51.2l-.09.08Z"/><path class="cls-18" d="M59.77,29.67a4.06,4.06,0,0,1-.38-.2,3.4,3.4,0,0,1-.52-.43c-.19-.2-.32-.38-.4-.46s0,0-.06,0,0,0,0,.07a1.7,1.7,0,0,0,.27.58,3.2,3.2,0,0,0,.51.55,3.78,3.78,0,0,0,.32.24l.11.07a8.79,8.79,0,0,1-1,.57,3.06,3.06,0,0,1-.67.23,4.54,4.54,0,0,1-.66.14,10.73,10.73,0,0,1-1.54,0,6.43,6.43,0,0,1-1.53-.25l-.53-.2c-.09,0-.14-.05-.15,0s0,.07.1.13a2.39,2.39,0,0,0,.49.33,4.76,4.76,0,0,0,1.57.47,8.82,8.82,0,0,0,1.64.1,4.11,4.11,0,0,0,.77-.1,3.77,3.77,0,0,0,.76-.32,10.42,10.42,0,0,0,1.67-1.2A6.19,6.19,0,0,1,59.77,29.67ZM58.14,32c0,.07.41.21.37.29s-.26.41-.28.41a6.35,6.35,0,0,1-.24.63c-.14.31-.31.62-.24.68s.36-.16.61-.44a3.81,3.81,0,0,0,.44-.6,6.11,6.11,0,0,0,.25-.93C58.42,31.84,58.15,32,58.14,32Zm.53,3.38a1.33,1.33,0,0,0-.42-.54c-.27-.21-.61-.23-.62-.15s.19.24.3.45a1,1,0,0,1,.14.42,1,1,0,0,1,.11.42c0,.24-.07.49,0,.55s.33-.14.44-.47A1.29,1.29,0,0,0,58.67,35.42Z"/><path class="cls-29" d="M65.4,22.56a2.89,2.89,0,0,1,.08,1.87,1.82,1.82,0,0,1-.87,1.1,2,2,0,0,1-.65.2,2.59,2.59,0,0,1-.64-.08A3,3,0,0,1,62.13,25a2.72,2.72,0,0,1-1-1.56c.09,0,.55.75,1.3,1.2a2.78,2.78,0,0,0,1,.42,1.81,1.81,0,0,0,.48,0,1.17,1.17,0,0,0,.44-.09,1.4,1.4,0,0,0,.71-.73A15.21,15.21,0,0,0,65.4,22.56Z"/><path class="cls-29" d="M50.86,24.11A2.78,2.78,0,0,1,51,26a1.85,1.85,0,0,1-.88,1.11,1.77,1.77,0,0,1-.64.19,2.64,2.64,0,0,1-.65-.08,2.91,2.91,0,0,1-1.19-.62,2.67,2.67,0,0,1-1-1.55c.08-.05.54.74,1.29,1.19a2.78,2.78,0,0,0,1,.42,2.19,2.19,0,0,0,.48,0,1.28,1.28,0,0,0,1.15-.83A12.74,12.74,0,0,0,50.86,24.11Z"/></g></g></g></svg>