<svg xmlns="http://www.w3.org/2000/svg" viewBox="0 0 62.11 77.97"><defs><style>.cls-1{isolation:isolate;}.cls-2,.cls-3{fill:#6f3a1e;}.cls-3{opacity:0.3;}.cls-10,.cls-12,.cls-14,.cls-15,.cls-20,.cls-22,.cls-24,.cls-25,.cls-3,.cls-7,.cls-8{mix-blend-mode:multiply;}.cls-10,.cls-12,.cls-14,.cls-20,.cls-21,.cls-27,.cls-4{opacity:0.5;}.cls-18,.cls-21,.cls-23,.cls-27,.cls-28,.cls-4,.cls-5{mix-blend-mode:screen;}.cls-5,.cls-8{opacity:0.45;}.cls-22,.cls-23,.cls-6,.cls-8{fill:#e5b678;}.cls-9{fill:#fff;}.cls-11,.cls-27{fill:#294168;}.cls-12,.cls-25,.cls-26{fill:#d3dbfd;}.cls-13,.cls-14{fill:#2b5788;}.cls-15,.cls-19,.cls-20,.cls-21,.cls-28{fill:#f15e6b;}.cls-16{fill:#e5e5ff;}.cls-17{fill:#5766be;opacity:0.2;}.cls-18{fill:#4e3b71;opacity:0.6;}.cls-24{opacity:0.34;}</style></defs><title>callРесурс 7</title><g class="cls-1"><g id="Слой_2" data-name="Слой 2"><g id="OBJECTS"><path class="cls-2" d="M4.53,21.25s1,24.54,6,31.44,22.78,9,31.15.59,6.61-33.65,6.17-34.53S16.28,7.73,4.53,21.25Z"/><path class="cls-3" d="M13.89,37.2c-.22-2.4-.54-8.73-1.1-10.36a18.52,18.52,0,0,0-2-3.94s-3.86-.59-6.23-1c.08,1.41.3,5.12.77,9.56.12-.23.27-.38.46-.36.85.08,2.7,6.17,2.7,6.17s-.7-5.47.31-5.47S10.41,34,10.41,34s.46-1.62,1.62-.77C12.82,33.8,13.56,36,13.89,37.2Z"/><path class="cls-3" d="M13.89,37.2a4,4,0,0,0,.13.94C14.09,38.18,14,37.79,13.89,37.2Z"/><path class="cls-3" d="M46.27,37c-.07.39-.12.64-.12.64S46.21,37.34,46.27,37Z"/><path class="cls-3" d="M47.87,18.75c0-.05-.13-.12-.31-.21-.76.77-1.64,1.1-2.06.33a1.22,1.22,0,0,1,0-1.13c-1.49-.5-3.59-1.1-6.07-1.66L16.17,36.54s.12,7.39-.9,8.6-4-5.17-4-5.17,3.13,9,2.11,10S10,47.84,10,47.84s1.39,3.37.6,3.49c-.39.06-1.58-2.3-2.66-4.65a19.92,19.92,0,0,0,2.57,6,11,11,0,0,0,3,2.71,15.37,15.37,0,0,0,1.88.13c2.38,0,17.28-.76,24.57-.76a14.55,14.55,0,0,0,1.74-1.49,18,18,0,0,0,3.95-6.86c-3.81,4.74-5.2,3.56-5.56,2.08s2.23-5.65,2.23-5.65-3,3-3.55,1.8,6.37-9.79,7.21-10c.6-.13.44,1.38.29,2.29.27-1.41.93-4.61,1.39-4.52.16,0,.26.84.33,2C48.71,26.48,48.1,19.22,47.87,18.75Z"/><g class="cls-4"><path class="cls-2" d="M10.82,45.16a2.19,2.19,0,0,1-.18-.38c-.1-.24-.25-.59-.41-1-.33-.84-.72-2-1.09-3.13C8.41,38.34,7.88,36,7.88,36s-.51-2.36-.81-4.75c-.15-1.2-.26-2.4-.32-3.3,0-.45,0-.83,0-1.09a2.26,2.26,0,0,1,0-.42,2.5,2.5,0,0,1,.06.41c0,.26.06.64.11,1.09.09.89.24,2.09.41,3.28.35,2.38.89,4.72.89,4.72s.49,2.35,1.17,4.66c.34,1.15.71,2.3,1,3.15l.36,1A2.67,2.67,0,0,1,10.82,45.16Z"/></g><g class="cls-4"><path class="cls-2" d="M15,47.89a1.13,1.13,0,0,1-.16-.22c-.1-.14-.24-.34-.39-.59-.31-.5-.7-1.17-1.07-1.86C12.62,43.84,12,42.38,12,42.38a26.94,26.94,0,0,1-.9-3c-.17-.76-.31-1.53-.38-2.11,0-.29,0-.54-.06-.71a1.38,1.38,0,0,1,0-.27,6.15,6.15,0,0,1,.19,1c.1.57.27,1.33.47,2.08a29,29,0,0,0,1,2.94s.53,1.45,1.22,2.85c.34.7.69,1.39,1,1.9A7,7,0,0,1,15,47.89Z"/></g><g class="cls-4"><path class="cls-2" d="M20.5,45.5a10.53,10.53,0,0,1-.08-1.18c0-.59-.1-1.18-.1-1.18s0-.58-.09-1.17a8.75,8.75,0,0,1-.11-1.17,4.9,4.9,0,0,1,.32,1.14c.11.59.18,1.18.18,1.18s0,.6,0,1.19A4.86,4.86,0,0,1,20.5,45.5Z"/></g><g class="cls-4"><path class="cls-2" d="M42.23,46.05a1.6,1.6,0,0,1,.16-.31c.1-.2.26-.46.44-.8.36-.66.82-1.55,1.24-2.46s.78-1.85,1-2.56.41-1.19.41-1.19.16-.47.38-1.19.47-1.69.68-2.67.37-2,.47-2.73c.05-.37.08-.68.11-.9a1.66,1.66,0,0,1,.06-.34,1.48,1.48,0,0,1,0,.34c0,.22,0,.54-.06.92-.06.75-.19,1.75-.37,2.75s-.42,2-.63,2.7-.35,1.22-.35,1.22-.17.48-.44,1.19-.66,1.64-1.1,2.55-.93,1.79-1.33,2.43c-.19.33-.37.59-.49.77A1.75,1.75,0,0,1,42.23,46.05Z"/></g><g class="cls-4"><path class="cls-2" d="M40.18,45.39s.57-.5,1-1.09A7.47,7.47,0,0,0,42,43a7.64,7.64,0,0,0,.57-1.37c.22-.72.26-1.47.3-1.47a4.06,4.06,0,0,1-.09,1.52,5.47,5.47,0,0,1-1.4,2.71A4,4,0,0,1,40.18,45.39Z"/></g><g class="cls-4"><path class="cls-2" d="M39.11,42.79s-.09.29-.25.55-.34.49-.34.49-.21.21-.44.4-.48.35-.51.32.17-.25.36-.47l.36-.45.4-.42C38.89,43,39.08,42.77,39.11,42.79Z"/></g><g class="cls-4"><path class="cls-2" d="M45.14,45.6a6.23,6.23,0,0,1-.28,1.72,9.75,9.75,0,0,1-.41,1.14c-.14.3-.25.49-.25.49s-.12.19-.31.46a9.16,9.16,0,0,1-.77.93,9,9,0,0,1-1.26,1.19s.56-.66,1.1-1.33a8.73,8.73,0,0,0,.7-1c.18-.27.28-.45.28-.45s.11-.18.26-.47a9.5,9.5,0,0,0,.46-1.07C45,46.45,45.1,45.59,45.14,45.6Z"/></g><g class="cls-5"><path class="cls-2" d="M6.28,35.92c.3,3.38.7,7.79,2.88,10.53.15.19.51,0,.5-.21a31.17,31.17,0,0,0-1.27-4.87c-.47-1.85-.94-3.68-1.27-5.56-.08-.47-.89-.37-.84.11Z"/></g><g class="cls-5"><path class="cls-2" d="M9,34.83A1.31,1.31,0,0,0,8.77,36a2.75,2.75,0,0,0,.51,1.33c.22.25.59,0,.61-.26a4.51,4.51,0,0,0-.28-1.3,1.47,1.47,0,0,0-.6-1Z"/></g><g class="cls-5"><path class="cls-2" d="M10.36,39.23A7.79,7.79,0,0,0,11,42c0,.09.18,0,.16-.07-.19-.93-.51-1.82-.72-2.75,0,0-.05,0-.05,0Z"/></g><g class="cls-5"><path class="cls-2" d="M11.76,34.29a4,4,0,0,0,.13,2.26,12.29,12.29,0,0,0,.84,2.85c.06.13.25.06.25-.07a11.35,11.35,0,0,0-.29-2.79c-.18-.75-.2-1.73-.78-2.27a.11.11,0,0,0-.15,0Z"/></g><g class="cls-5"><path class="cls-2" d="M45.33,36.92a2,2,0,0,0-.6.85,2.77,2.77,0,0,0-.19,1.14A.25.25,0,0,0,45,39a4.38,4.38,0,0,0,.38-1,2.19,2.19,0,0,0,.14-.5c0-.17,0-.36,0-.54a.09.09,0,0,0-.16-.06Z"/></g><g class="cls-5"><path class="cls-2" d="M46.85,37.28c-1.64,3.2-3.21,6.56-4.61,9.86-.14.35.26.77.57.44A16,16,0,0,0,47,37.31a.06.06,0,0,0-.12,0Z"/></g><g class="cls-4"><path class="cls-2" d="M11.38,50.53a10.67,10.67,0,0,1-.88-1.44,12.05,12.05,0,0,1-.62-1.58A10.74,10.74,0,0,1,10.77,49,12,12,0,0,1,11.38,50.53Z"/></g><path class="cls-6" d="M52.47,36.34s3.12-10.73,1.37-10.5C52.84,26,52.48,28,52.48,28s-.16-7.52-3.34-5.67S45.93,33,45.93,33s-1.79-3.45-3.93-.58c-1,1.39,2.35,1.84,3,3S47.45,41.36,52.47,36.34Z"/><g class="cls-7"><path class="cls-6" d="M48.45,34.7a2.83,2.83,0,0,0,.08,1.59,2.07,2.07,0,0,0,.29.58,4.06,4.06,0,0,1,.94-3.95,2.39,2.39,0,0,0-.53.39A3,3,0,0,0,48.45,34.7Z"/><path class="cls-6" d="M49.68,30.32c1.45.35,2.63.7,2.63.7a9.35,9.35,0,0,0-2.56-1A9.6,9.6,0,0,0,47,29.75S48.23,30,49.68,30.32Z"/><path class="cls-6" d="M52,28.93a4.46,4.46,0,0,0-.07,1.21A4.82,4.82,0,0,0,52.33,29a4.38,4.38,0,0,0,.07-1.2A4.44,4.44,0,0,0,52,28.93Z"/><path class="cls-6" d="M50.51,26.27a12.6,12.6,0,0,0,0,3.4s.08-1.52.33-3.36.58-3.32.58-3.32A12.53,12.53,0,0,0,50.51,26.27Z"/><path class="cls-6" d="M48.41,25.64a12.14,12.14,0,0,0,0,3.56,32.91,32.91,0,0,1,.32-3.51,32.16,32.16,0,0,1,.68-3.45A12.26,12.26,0,0,0,48.41,25.64Z"/></g><path class="cls-8" d="M52.47,36.34c-2,2-3.47,2.42-4.57,2.15a5.63,5.63,0,0,0,3.8-3.23c.63-1.89-.91-2.34-2-2.16s-.86,3.56-.86,3.56a2.74,2.74,0,0,1-.54-.95c-.28-.63.13-1.2.32-1.78.26-.76-.39-1-1.09-.8a2.58,2.58,0,0,0-1.8,1.5,2.46,2.46,0,0,0-.15,1.75c-.23-.41-.41-.78-.54-1-.32-.56-1.31-.95-2.1-1.38.58.17,2,.45,2.61-.4s-1.28-1.66-2.12-2.28c1.47-.38,2.53,1.66,2.53,1.66s0-5.62,1.66-8.83a21.73,21.73,0,0,0-.27,3.28c0,1.3,2.57,3.11,4.11,1.39,1-1.18.39-4.25-.12-6,.95,1.4,1.13,4.26,1.17,5-.14.91-.31,1.85-.33,2.17,0,.59.54,1.44.9.14s.79-4.24.79-4.24C55.59,25.61,52.47,36.34,52.47,36.34Z"/><path class="cls-9" d="M36.72,45.44S51.06,59,53.5,57.51s-7.74-18.08-7.74-18.08,5-4.71,9.11-3.41c0,0,11.88,26,5.21,29.93s-21.8-9-21.8-9S36,45.27,36.72,45.44Z"/><g class="cls-10"><path class="cls-11" d="M54.07,58.75A6.72,6.72,0,0,0,55,60.82a13.68,13.68,0,0,1-.7-2.12,14.69,14.69,0,0,1-.36-2.21A6.92,6.92,0,0,0,54.07,58.75Z"/><path class="cls-11" d="M53.44,58.89a3.87,3.87,0,0,0,.37,1.38,2.68,2.68,0,0,0,.29.52,5.87,5.87,0,0,1-.46-1.92,6.12,6.12,0,0,1,.14-2,3.42,3.42,0,0,0-.2.56A4,4,0,0,0,53.44,58.89Z"/></g><path class="cls-12" d="M36.72,45.44s.85.81,2.17,2c1.94,4.42,6.49,11.33,10.82,12.64,2.62.8,2.23-1.46,1.5-3.06,1,.53,1.85.75,2.29.49,2.44-1.47-7.74-18.08-7.74-18.08a16.21,16.21,0,0,1,5.82-3.38l-.08,0c-1.51.66-4.14,5-.09,10.92s4.79,16.46,7.52,17c1.72.36,2.69-1.68,3.18-3.23,0,2.42-.59,4.3-2,5.15-6.67,3.9-21.8-9-21.8-9S36,45.27,36.72,45.44Z"/><rect class="cls-13" x="40.6" y="18" width="9.83" height="17.61" rx="2" ry="2" transform="matrix(0.92, -0.38, 0.38, 0.92, -6.78, 19.36)"/><path class="cls-14" d="M52.65,31.22,47.47,18.64a2,2,0,0,0-2-1.22,2.07,2.07,0,0,1,.69.85l5.18,12.59a2,2,0,0,1-1.09,2.61l-5.39,2.22a2.17,2.17,0,0,1-.56.13,2,2,0,0,0,1.93.23l5.39-2.22A2,2,0,0,0,52.65,31.22Z"/><path class="cls-15" d="M47.63,32.24a1,1,0,0,0-.29,0h0l-.09,0a1,1,0,0,0-.56.46.79.79,0,0,0-.09.55.89.89,0,0,0,1.09.66.9.9,0,0,0,.74-1A.87.87,0,0,0,47.63,32.24Z"/><path class="cls-16" d="M48.23,32.88a.94.94,0,0,1-1.84.37.94.94,0,0,1,1.84-.37Z"/><path class="cls-17" d="M47.73,32.48a.6.6,0,0,0-.09-.22.94.94,0,0,0-.5,0,.9.9,0,0,0-.75,1,.74.74,0,0,0,.1.22,1,1,0,0,0,.5.05A.9.9,0,0,0,47.73,32.48Z"/><rect class="cls-16" x="41.04" y="19.31" width="7.1" height="12.97" rx="1.47" ry="1.47" transform="translate(-6.47 18.93) rotate(-22.39)"/><path class="cls-18" d="M47.08,22.51,46,19.81a1.46,1.46,0,0,0-1.91-.8L40.19,20.6a1.46,1.46,0,0,0-.79,1.91l2.36,5.75A6.28,6.28,0,0,0,47.08,22.51Z"/><path class="cls-19" d="M43.35,62.74q0,.33,0,.63c0,.21,0,.41-.08.61a4.31,4.31,0,0,1-.11.49,8.18,8.18,0,0,1-.67,1.72c-.19.35-.4.7-.62,1h0l-.22.35,0,0c-.23.34-.48.68-.73,1s-.3.44-.42.66a5.12,5.12,0,0,0-.27.52,10.33,10.33,0,0,0-.62,1.63l0,.1c-.08.28-.15.57-.22.86l0,.14c0,.17-.08.32-.11.49h0c-.16.78-.27,1.58-.4,2.36s-.23,1.32-.33,2H22.05v-.07c0-.28,0-.57,0-.85l-.1-1.13c0-.32-.07-.64-.11-1s-.09-.68-.14-1c0-.11,0-.22-.05-.33-.12-.82-.27-1.63-.42-2.44l-.09-.48c-.2-1.08-.42-2.16-.63-3.24,0-.15-.07-.32-.11-.49a1.16,1.16,0,0,0,0-.18c0-.12-.05-.24-.08-.37v0q-.06-.27-.15-.57L20,65c0-.13-.07-.26-.1-.39a2.5,2.5,0,0,1-.07-.26L19.74,64c0-.09,0-.17-.07-.25s-.11-.37-.16-.56l-.06-.21c-.06-.21-.12-.42-.19-.64s-.07-.22-.1-.33l-.12-.4-.12-.39c0-.12-.07-.24-.11-.37s-.09-.28-.13-.41-.06-.22-.1-.33-.09-.31-.14-.47a1.87,1.87,0,0,1-.07-.22c-.07-.22-.14-.44-.2-.67,0,0,0,0,0,0a.05.05,0,0,1,0,0h0a1.42,1.42,0,0,1-.07-.22.84.84,0,0,1-.05-.17h0c-.09-.28-.18-.56-.26-.83-.15-.45-.29-.9-.43-1.34h0c-.06-.18-.11-.36-.17-.54s-.13-.44-.19-.65c-.94-3-1.64-5.4-1.53-5.94a.75.75,0,0,1,.23-.36c1.35-1.42,8.14-3.93,8.14-3.93l.3,0h0l.31,0,.37,0,1-.1c1.57-.13,3.81-.28,5.83-.27H32c2,0,3.65.21,4.3.72a5.16,5.16,0,0,1,1,1.13l0,.05c1.34,1.94,2.14,5,2.87,6.81.17.42.34.83.53,1.25h0A38.74,38.74,0,0,1,43,60h0c0,.12.06.24.08.36l.06.28h0c0,.12,0,.24.07.36s0,0,0,.07c.05.33.1.67.13,1S43.35,62.53,43.35,62.74Z"/><path class="cls-20" d="M43.35,62.74q0,.33,0,.63c0,.21,0,.41-.08.61a4.31,4.31,0,0,1-.11.49,8.18,8.18,0,0,1-.67,1.72c-.19.35-.4.7-.62,1h0l-.22.35,0,0c-.23.34-.48.68-.73,1s-.3.44-.42.66-.19.35-.27.52a10.33,10.33,0,0,0-.62,1.63l0,.1c-.08.28-.15.57-.22.86l0,.14c0,.16-.07.33-.1.5h0a6.53,6.53,0,0,0-3.32-1.76l-.22,0a4.51,4.51,0,0,0-.53-.09c-4.18-.52-9.75-.7-10.27,1.74a7,7,0,0,0-.07,2.17l.57-.37c-.08.83-.15,1.67-.16,2.5a1.33,1.33,0,0,1,0,.19H22.05v-.07c0-.28,0-.56,0-.85s-.05-.75-.1-1.13-.07-.64-.11-1-.09-.68-.14-1c0-.11,0-.22-.05-.33-.12-.82-.27-1.63-.42-2.44l-.09-.48c-.1-.54-.21-1.08-.32-1.62s-.21-1.08-.31-1.62c0-.15-.07-.32-.11-.49a1.16,1.16,0,0,0,0-.18c0-.12-.05-.24-.08-.37v0l-.06-.2-.09-.37L20,65c0-.13-.07-.26-.1-.39a2.5,2.5,0,0,1-.07-.26L19.74,64c0-.09,0-.17-.07-.25s-.11-.37-.16-.56l-.06-.21c-.06-.21-.12-.42-.19-.64s-.07-.22-.1-.33l-.12-.4-.12-.39c0-.12-.07-.24-.11-.37s-.09-.28-.13-.41-.06-.22-.1-.33-.09-.31-.14-.47a1.87,1.87,0,0,1-.07-.22l-.21-.67s0,0,0,0,0,0,0-.05-.05-.15-.08-.22a1.09,1.09,0,0,0,0-.17h0c-.09-.28-.18-.56-.26-.83-.15-.45-.29-.9-.43-1.34h0c-.06-.18-.11-.36-.17-.54s-.13-.42-.2-.63v0a18.19,18.19,0,0,1,.94-2.07,4.74,4.74,0,0,1,1-1.39c.15.54.39,1.33.71,2.27h0c0,.12.08.24.13.36.15.42.31.87.49,1.34.38,1,.82,2,1.33,3a19.36,19.36,0,0,0,2.18,3.42c3.31,4,6.45,4.52,11.15,3.31.46-.12.89-.22,1.29-.29l.15,0c3.5-.66,4.45.16,5.53-1.08a7.34,7.34,0,0,0,1-3.19c0-.16.06-.33.08-.49,0,.12.06.24.08.36a2.74,2.74,0,0,1,.05.28h0c0,.12,0,.24.07.36s0,0,0,.07c.05.33.1.67.13,1S43.35,62.53,43.35,62.74Z"/><path class="cls-6" d="M24.36,41.11s-.54,5.45,1.61,6.41,4.56,1,5.36-1.29,0-5.44,0-5.44S24.63,39.82,24.36,41.11Z"/><path class="cls-8" d="M30.34,47.6c-3.46-.53-5.58-4.5-4.44-3.92s4.56.12,5.79-.07a14,14,0,0,0-.36-2.82s-6.7-1-7,.32c0,0-.54,5.45,1.61,6.41C27.52,48.21,29.22,48.4,30.34,47.6Z"/><path class="cls-12" d="M29.71,48.34s3.23,3,3.85,1.36a.38.38,0,0,0,0-.1,26.06,26.06,0,0,0-1.9-4.67,2.73,2.73,0,0,1-2.36,2.38,4.5,4.5,0,0,1-4.62-2.7c-.23,1.17.69,3.59,2.5,6.78C27.69,51.5,28.61,51.2,29.71,48.34Z"/><path class="cls-9" d="M24.34,43.18c-.05-.39-1.3,3.87,2.43,7.6,0,0,1.24,1.37,2.86-2.86,0,0,3.24,3,3.86,1.37s-1.8-5.68-1.8-5.68.18,2.91-2.44,3.28A4.51,4.51,0,0,1,24.34,43.18Z"/><path class="cls-12" d="M33.49,48.75c-.62,1.62-3.86-1.37-3.86-1.37-1.62,4.23-2.86,2.86-2.86,2.86A8.69,8.69,0,0,1,24.1,44.4a8.52,8.52,0,0,0,2.67,6.38s1.24,1.37,2.86-2.86c0,0,3.24,3,3.86,1.37a2,2,0,0,0,.08-.9A1.35,1.35,0,0,1,33.49,48.75Z"/><g class="cls-4"><path class="cls-21" d="M41.7,59.69a4.46,4.46,0,0,1-.2-.87A14.34,14.34,0,0,0,41,57c-.23-.67-.5-1.33-.7-1.82l-.33-.83s-1.87-5.4-1.71-5.46S40.5,54.1,40.5,54.1l.29.84c.17.51.4,1.19.59,1.89a11,11,0,0,1,.36,2A2.11,2.11,0,0,1,41.7,59.69Z"/><path class="cls-21" d="M41.8,62.33c-.16,0-.19-.82-.19-.82s.24-.76.41-.74.19.82.19.82S42,62.36,41.8,62.33Z"/><path class="cls-21" d="M38.34,76.16a8.67,8.67,0,0,1-.18,1.25h-.6a9.33,9.33,0,0,0,.36-1.3,13.22,13.22,0,0,1,.27-1.63A3.83,3.83,0,0,1,38.34,76.16Z"/></g><g class="cls-10"><path class="cls-19" d="M31.77,68.94a11.52,11.52,0,0,1-1.69.14,10.91,10.91,0,0,1-1.67-.17c-.23,0-.41-.1-.55-.12l-.2-.05-.2-.06c-.13,0-.32-.07-.53-.15a9.55,9.55,0,0,1-3-1.59,4.84,4.84,0,0,0-.61-.48,3.41,3.41,0,0,0,.54.57,8.83,8.83,0,0,0,1.38,1,10.62,10.62,0,0,0,1.57.73c.21.09.41.13.54.18l.21.06.21,0a5,5,0,0,0,.56.11,9.94,9.94,0,0,0,1.72.11,9.71,9.71,0,0,0,1.71-.23,3.11,3.11,0,0,0,.74-.25S32.22,68.87,31.77,68.94Z"/><path class="cls-19" d="M41.33,67.58c-.36.22-.73.41-.73.41s-.36.22-.73.41a5.18,5.18,0,0,0-.76.38,2.21,2.21,0,0,0,.84-.19,6.89,6.89,0,0,0,.8-.34,5.89,5.89,0,0,0,.7-.5,2.18,2.18,0,0,0,.6-.62A5,5,0,0,0,41.33,67.58Z"/><path class="cls-19" d="M36.4,65.85q0,.2,0,.36v.1c0,.27,0,.65-.06,1.1-.05.91-.18,2.12-.37,3.32l-.09.58c-.17,1-.37,2-.55,2.71s-.38,1.47-.38,1.47-.17.59-.45,1.45l-.16.47H34c.07-.19.13-.38.18-.55.27-.87.43-1.45.43-1.45s.18-.58.4-1.46.42-1.69.6-2.68c0-.19.07-.38.1-.57.22-1.19.37-2.4.47-3.3,0-.13,0-.24,0-.36,0,.15-.08.25-.1.33a.34.34,0,0,1,0,.08,2.56,2.56,0,0,1,.07-.42,7.77,7.77,0,0,0,.11-1.18,6.46,6.46,0,0,0-.06-1,8.69,8.69,0,0,0-.28-1.44,1.38,1.38,0,0,0-.08-.27,6.7,6.7,0,0,0-.24-.76A21.65,21.65,0,0,0,34,59.1l-.71-1.22-.12-.21s-.34-.57-.79-1.45c-.19-.37-.4-.8-.61-1.27A21.78,21.78,0,0,1,31,52.88a26.73,26.73,0,0,1-1-3.5c-.08-.37-.14-.7-.18-1a2.07,2.07,0,0,1,0-.22,1.41,1.41,0,0,1,0-.18h0a.28.28,0,0,0,0-.09c0-.08,0-.13,0-.16a.42.42,0,0,1,.05.14h0s0,.1,0,.16,0,.08,0,.12.05.2.08.32.12.52.19.84a30.61,30.61,0,0,0,1.08,3.45,22.55,22.55,0,0,0,.92,2.14c.19.42.39.81.57,1.15.47.87.81,1.44.81,1.44l.15.27L34.28,59a21,21,0,0,1,1.54,3.3c.1.28.19.57.26.85a1.14,1.14,0,0,1,.06.25,8.11,8.11,0,0,1,.23,1.41A6.67,6.67,0,0,1,36.4,65.85Z"/></g><g class="cls-4"><path class="cls-19" d="M37.54,63.4a7.39,7.39,0,0,1-1.2,0,6.49,6.49,0,0,0-2.56.34,14.05,14.05,0,0,1-2.58.76,5.53,5.53,0,0,1-1.27.07l-.35,0a4.8,4.8,0,0,1-.89-.25,8.68,8.68,0,0,1-2.33-1.4,10.87,10.87,0,0,1-2-1.79A2.38,2.38,0,0,1,23.78,60s.25.42.75.93a13.84,13.84,0,0,0,2.08,1.6,8.92,8.92,0,0,0,2.26,1.22,3.73,3.73,0,0,0,.8.18,2.33,2.33,0,0,0,.31,0,5.08,5.08,0,0,0,1.14,0,15.42,15.42,0,0,0,2.54-.62,6.57,6.57,0,0,1,1.44-.24,8.09,8.09,0,0,1,1.26.08A4,4,0,0,1,37.54,63.4Z"/></g><path class="cls-6" d="M44.43,21.77A2.34,2.34,0,0,1,47.67,21c2.19,1.45,1.1,9-1.89,8.94S43.91,21.61,44.43,21.77Z"/><path class="cls-8" d="M44.43,21.77A2.34,2.34,0,0,1,47.67,21c2.19,1.45,1.1,9-1.89,8.94S43.91,21.61,44.43,21.77Z"/><path class="cls-22" d="M47.18,27.71c0-.06-.22,0-.48-.08a.46.46,0,0,1-.32-.26.77.77,0,0,1,0-.5.88.88,0,0,1,.27-.43c.12-.11.27-.15.46-.31a.88.88,0,0,0,.29-.77,1,1,0,0,0-.09-.29,1.26,1.26,0,0,0-.16-.24,1.43,1.43,0,0,0-.28-.23,1.45,1.45,0,0,0-.22-.09h0s0,0,0,0,0-.08,0-.13a1.36,1.36,0,0,1,0-.2,2.21,2.21,0,0,1,.32-.8c.29-.51.73-.71.71-.79s-.52,0-1,.5a2.7,2.7,0,0,0-.53.94l-.07.25c0,.09,0,.15,0,.29s0,.48,0,.65a2.54,2.54,0,0,1,.43,0l.11.05a.46.46,0,0,1,.12.13.38.38,0,0,1,.07.1s0,0,0,0-.25.18-.44.39a1.58,1.58,0,0,0-.39.82,1.14,1.14,0,0,0,.17.88.63.63,0,0,0,.57.29C47,27.92,47.19,27.75,47.18,27.71Z"/><path class="cls-8" d="M45.78,30c-3-.1-1.87-8.37-1.35-8.21a2.82,2.82,0,0,1,1.7-1.12,5.36,5.36,0,0,0,.2,3.07s.79-1.25,1.21-.83-.23,2.42.68,2.62c.28.06.46-.16.58-.49C48.63,27.45,47.53,30,45.78,30Z"/><g class="cls-4"><path class="cls-23" d="M48.56,22.72c.12.42.07.84-.13,1s-.45-.16-.58-.59-.07-.85.13-.95S48.43,22.29,48.56,22.72Z"/><path class="cls-23" d="M47.79,21.49a.36.36,0,0,1-.15.39.21.21,0,0,1-.32-.11.33.33,0,0,1,.15-.38A.21.21,0,0,1,47.79,21.49Z"/></g><path class="cls-6" d="M11.05,22C10.81,15.2,13.61,4.19,27.9,4.08S44.45,19.75,44.45,19.75A43.19,43.19,0,0,1,45.78,30C45.6,34.41,43.3,41,33,42.06s-18.22-3.27-20.07-9.6a5.26,5.26,0,0,1-4.85-4.24C7.37,25.3,9,22.34,11.05,22Z"/><g class="cls-7"><path class="cls-8" d="M11.05,22a21.61,21.61,0,0,1,.83-6.83,17.59,17.59,0,0,1,2.33-4.88c-2.06,3.46-2.42,8.66-2.31,11.82-.18,0-.61-.09-.9-.1Z"/><path class="cls-8" d="M9.17,23.14a6.07,6.07,0,0,0-.42,4.07,5.26,5.26,0,0,0,4.85,4.24c1.85,6.33,9.78,10.65,20.07,9.6,5.42-.56,8.62-2.65,10.47-5.15-1.7,2.93-5,5.53-11.13,6.16-10.29,1-18.22-3.27-20.07-9.6a5.26,5.26,0,0,1-4.85-4.24A5.85,5.85,0,0,1,9.17,23.14Z"/></g><g class="cls-7"><path class="cls-6" d="M10.3,29.8a1,1,0,0,0,.42.84.77.77,0,0,0,.43.15.7.7,0,0,0,.52-.24,1.24,1.24,0,0,0,.31-.64.9.9,0,0,0-.22-.78,3.21,3.21,0,0,0-.44-.29.61.61,0,0,1-.21-.26.92.92,0,0,1-.06-.62.46.46,0,0,1,.32-.33.27.27,0,0,1,.12,0h.14l.08,0,0,0,.11.16c.16.24.29.3.45.31a.42.42,0,0,0,.26-.12.63.63,0,0,0,.16-.29,4,4,0,0,0,.07-.88c0-.21,0-.41,0-.62a3.7,3.7,0,0,0-.32-1.13,2,2,0,0,0-.6-.73c-.44-.32-.8-.22-.79-.17s.31.1.62.45a2.52,2.52,0,0,1,.59,1.68c0,.18,0,.36,0,.54s0,.13,0,.17-.07,0-.07,0h0l-.09-.08a1,1,0,0,0-.21-.1.74.74,0,0,0-.34-.06.79.79,0,0,0-.3.05.93.93,0,0,0-.28.16,1.39,1.39,0,0,0-.5.83A1.75,1.75,0,0,0,10.62,29a1.24,1.24,0,0,0,.44.44,2.31,2.31,0,0,1,.38.18.2.2,0,0,1,.09.22.64.64,0,0,1-.12.34.42.42,0,0,1-.55.13C10.48,30.15,10.35,29.76,10.3,29.8Z"/></g><path class="cls-23" d="M9.66,24.37c-.3.31-.64.4-.76.2s0-.59.31-.89.64-.39.76-.2S10,24.07,9.66,24.37Z"/><path class="cls-23" d="M10.78,22.9a.33.33,0,0,1-.15.38.21.21,0,0,1-.32-.1.34.34,0,0,1,.15-.39A.21.21,0,0,1,10.78,22.9Z"/><path class="cls-8" d="M30.26,30.66a5.49,5.49,0,0,0,4.33-1.18s1.22.78-1,1.6C30.76,32.18,30.26,30.66,30.26,30.66Z"/><g class="cls-7"><path class="cls-6" d="M31.5,31.27a5.9,5.9,0,0,0,.9,0,5.41,5.41,0,0,0,1.85-.63,1.13,1.13,0,0,0,.6-.63.57.57,0,0,0-.26-.56,1.5,1.5,0,0,0-.5-.22,1,1,0,0,0-.21,0,2.28,2.28,0,0,0-.51,0,3.1,3.1,0,0,0-.61.09,3.44,3.44,0,0,0-.37.14,7.54,7.54,0,0,0-.8.49c0-.31,0-.65,0-1,0-.19,0-.4,0-.61,0-.41,0-.84.05-1.22a5.61,5.61,0,0,1,.13-1.36A5.75,5.75,0,0,1,32,27.08c0,.38,0,.81.07,1.23l0,.61c0,.06,0,.08,0,.09l.07-.06.44-.18a3.51,3.51,0,0,1,.73-.15,2.78,2.78,0,0,1,.63,0,1.87,1.87,0,0,1,.28.06,1.94,1.94,0,0,1,.7.36,1.35,1.35,0,0,1,.35.45,1.09,1.09,0,0,1,0,.67,1.52,1.52,0,0,1-.88.88,4.86,4.86,0,0,1-2,.48A1.31,1.31,0,0,1,31.5,31.27Z"/></g><path class="cls-23" d="M33.45,29.59c0,.14-.14.35-.44.47s-.58.1-.63,0,.14-.35.43-.46S33.39,29.45,33.45,29.59Z"/><path class="cls-8" d="M27.32,31.11c0,1.36-1.72,2.48-3.87,2.51s-3.92-1.06-3.93-2.42,1.72-2.48,3.87-2.51S27.3,29.75,27.32,31.11Z"/><path class="cls-8" d="M45,29.11c.26,1.33-1.22,2.74-3.31,3.15s-4-.35-4.26-1.69,1.23-2.74,3.32-3.15S44.77,27.77,45,29.11Z"/><path class="cls-2" d="M24,20.44c0,.08-.37.11-.69.25a2.43,2.43,0,0,0-.57.33,2.56,2.56,0,0,0-.56.35c-.26.22-.46.53-.54.5s0-.42.22-.77a2.44,2.44,0,0,1,.57-.6,2.58,2.58,0,0,1,.79-.23C23.62,20.23,24,20.36,24,20.44Z"/><path class="cls-2" d="M40.84,20.36c-.08,0-.32-.25-.63-.43a2.79,2.79,0,0,0-.64-.28,2.45,2.45,0,0,0-.64-.22,1.48,1.48,0,0,0-.47,0c-.13,0-.22.05-.25,0s0-.13.15-.24a1.17,1.17,0,0,1,.57-.2,2.15,2.15,0,0,1,.86.08,2.37,2.37,0,0,1,.69.51C40.78,19.92,40.91,20.33,40.84,20.36Z"/><path class="cls-8" d="M44.45,19.75S42.27,4,27.9,4.08,10.81,15.2,11.05,22c-1.59.27-2.89,2.05-3.11,4.18,1.65-.44,3.47-2.34,4-2.91.24,1.6,1.15,7.11,1.84,11.2A12.07,12.07,0,0,0,16.67,38c.19-4.24.56-12.22.75-15.35a16.73,16.73,0,0,0,3-1.89,35.43,35.43,0,0,0,8.16-8.56s8.94,4.53,14.35,3.64c0,0,2,5,2,7l.12-.13C44.77,21,44.45,19.75,44.45,19.75Z"/><path class="cls-2" d="M32.67.39C26.15-1.07,23.05,2,23.05,2S15.73-.73,10.25,4.91c0,0-5,1.67-5.7,13.86-.63,11.2,5.79,4.56,6.84,3.41.39,2.65,2.63,16,2.63,16l2,1.5s.61-13.74.87-18.08a17.44,17.44,0,0,0,3-1.9,35.51,35.51,0,0,0,8.16-8.55S37,15.63,42.4,14.74c0,0,2,5,2,7,0,0,1.43-1.81,3.24-.73C47.67,21,49.23,4.1,32.67.39Z"/><path class="cls-3" d="M23.82,15.92l-.27.2c-.68.5-1.47,1.05-2.29,1.58h0c-2.72,1.77-5.79,3.4-6.44,2.95-1-.71.39-3.34.52-3.58a33.72,33.72,0,0,1-3.43,3.21c-.28.22-.57.43-.85.61-1.31.89-2.6,1.4-3.33.71a3.3,3.3,0,0,1-.5-2.82,17.49,17.49,0,0,1,.86-3.17l0-.09,0-.09c.23-.65.47-1.23.66-1.67-.29.58-.71,1.38-1.16,2.09h0c-.64,1-1.38,1.85-1.94,1.62S5.14,15.14,5.34,13c-.06.26-.12.53-.18.82s-.11.56-.15.85c-.11.61-.2,1.27-.27,2,0,.34-.07.69-.1,1.05s-.06.73-.08,1.11c0,.73,0,1.38,0,2,0,.17,0,.33,0,.49a6.39,6.39,0,0,0,0,.64c0,.12,0,.24,0,.35a6,6,0,0,0,.12.68c0,.1,0,.2.07.3s.09.31.14.45H5a1.86,1.86,0,0,0,.1.25,1.51,1.51,0,0,0,.11.22,1.75,1.75,0,0,0,.16.27,2,2,0,0,0,.22.27,1.12,1.12,0,0,0,.2.18l0,0a1.56,1.56,0,0,0,.28.16l.15.06a.67.67,0,0,0,.19,0l.09,0h.28l.28,0h.09l.22,0,.19-.06L7.82,25h.06l.1-.05.28-.14h0a4.91,4.91,0,0,0,.44-.25l.11-.07,0,0A11.54,11.54,0,0,0,10,23.54l.35-.31.36-.35,0,0c.29-.28.51-.52.65-.67,0,.1,0,.21,0,.34s.06.39.1.63a.06.06,0,0,0,0,0c0,.13,0,.26.06.41a0,0,0,0,0,0,0c0,.2.07.42.1.65a2,2,0,0,0,0,.24v0a1.72,1.72,0,0,1,0,.24h0c.11.63.22,1.33.34,2.07a.68.68,0,0,1,0,.14.06.06,0,0,1,0,0,0,0,0,0,0,0,0h0c.06.35.12.7.17,1.06.11.66.23,1.35.34,2,0,.22.07.45.11.67v-.58c0-.45,0-.88,0-1.32v0c0-.14,0-.25,0-.38v0a9.87,9.87,0,0,1,.1-1v0a2.2,2.2,0,0,1,.46-1.31c.51-.41.77.6.93,1.6v.1c.11.85.13,1.68.13,1.68a22.39,22.39,0,0,1,.14-2.35V27.1c.15-1.05.41-2.05.92-2,.24,0,.42.48.54,1.16v0a9.19,9.19,0,0,1,.14,1v.07c.13,1.2.17,2.65.18,3.82l0-.7c0-.44,0-.88.07-1.32l0-.77c0-.46,0-.92.07-1.37,0-.29,0-.57,0-.84s0-.71.05-1,0-.67,0-1l0-.62c0-.19,0-.38,0-.55s0-.38,0-.55l0-.49c0-.15,0-.29,0-.43a17.44,17.44,0,0,0,3-1.9l1-.81h0l.93-.8c.33-.28.64-.56.94-.84l.56-.54.06-.05.52-.52.65-.66.07-.07.16-.18L25,15C24.66,15.27,24.27,15.59,23.82,15.92ZM9,13.25l-.15.34.18-.38Z"/><path class="cls-3" d="M30.39,10.67a4.46,4.46,0,0,1,3.24.07s-5.92-4.16-4.72-5.49a13.46,13.46,0,0,1,3.87-2.47s-3.31-.07-5,1.06c0,0-2.62-.1-.4-1.5,0,0-2.1-.41-2.31-1.53a6.89,6.89,0,0,0-2,1.23,13.48,13.48,0,0,0-7.89-.15,3.2,3.2,0,0,1,2.47.54c1.06,1.12-2,4.27-2,4.27s3.87-1.88,4.65-1.53-3.95,4.16-3.95,4.16S21.79,6.8,22,7.5s-1.9,2.82-1.9,2.82,6.27-4.09,5.42.92a13.92,13.92,0,0,1-2.17,5.43,31.72,31.72,0,0,0,4.7-5.56,47.2,47.2,0,0,0,6.27,2.52C32.3,12.66,29.45,11.14,30.39,10.67Z"/><g class="cls-4"><path class="cls-2" d="M17,21s.09-.09.26-.22l.73-.54c.61-.45,1.42-1,2.22-1.65s1.57-1.23,2.14-1.72.93-.83.93-.83A25.83,25.83,0,0,0,26,13.12a21.65,21.65,0,0,0,1.58-2.25l.47-.78a1.45,1.45,0,0,1,.18-.29,1.14,1.14,0,0,1-.13.32c-.09.2-.23.48-.41.81a20.61,20.61,0,0,1-1.52,2.32,24.81,24.81,0,0,1-2.72,3s-.38.34-1,.82-1.38,1.1-2.2,1.68S18.64,19.88,18,20.29l-.76.5A1.54,1.54,0,0,1,17,21Z"/></g><g class="cls-4"><path class="cls-2" d="M16.75,21.37a3,3,0,0,1-.91.71,6.13,6.13,0,0,1-1.06.45,6.22,6.22,0,0,1-1.14.14,2.84,2.84,0,0,1-1.13-.16s.56,0,1.11-.05a6,6,0,0,0,1.08-.23,6.17,6.17,0,0,0,1.05-.35C16.26,21.66,16.72,21.34,16.75,21.37Z"/></g><g class="cls-4"><path class="cls-2" d="M23.08,8.05a1.29,1.29,0,0,1,.35-.56,3.38,3.38,0,0,1,.5-.45,4.12,4.12,0,0,1,.62-.26,1.28,1.28,0,0,1,.66-.06,4,4,0,0,1-.59.26,4.41,4.41,0,0,0-.53.32,4.32,4.32,0,0,0-.51.34C23.33,7.84,23.12,8.08,23.08,8.05Z"/></g><g class="cls-4"><path class="cls-2" d="M13.88,13.11a1,1,0,0,1,.09-.29,6.74,6.74,0,0,1,.31-.73,9.54,9.54,0,0,1,1.37-2,12.61,12.61,0,0,1,1.79-1.66c.53-.4.9-.63.9-.63s.37-.24,1-.55a24.22,24.22,0,0,1,2.19-1,9.43,9.43,0,0,1,2.31-.74,2,2,0,0,1,.8.08.73.73,0,0,1,.27.15,2.13,2.13,0,0,0-1.06-.11,9.53,9.53,0,0,0-2.24.82c-.79.36-1.57.75-2.14,1.08s-.93.56-.93.56-.37.23-.9.61a12.09,12.09,0,0,0-1.79,1.57,10,10,0,0,0-1.42,1.91C14.06,12.71,13.9,13.12,13.88,13.11Z"/></g><g class="cls-4"><path class="cls-2" d="M6.28,26.21s.27-.23.69-.56,1-.77,1.52-1.23c1.07-.93,2.06-1.94,2.06-1.94s1-1,1.94-2.08c.46-.54.9-1.09,1.23-1.51a5.31,5.31,0,0,1,.56-.7,5.71,5.71,0,0,1-.47.76c-.29.45-.72,1-1.16,1.59-.88,1.12-1.89,2.15-1.89,2.15s-1,1-2.14,1.89c-.56.45-1.13.87-1.58,1.17A4.12,4.12,0,0,1,6.28,26.21Z"/></g><g class="cls-4"><path class="cls-2" d="M8.73,22.07a6.82,6.82,0,0,1-.71,1L7.3,24,6.54,25a8.07,8.07,0,0,1-.79.94,5.56,5.56,0,0,1,.61-1.07c.34-.51.7-1,.7-1s.39-.48.8-.93A5.28,5.28,0,0,1,8.73,22.07Z"/></g><g class="cls-4"><path class="cls-2" d="M13.43,8.41a1.69,1.69,0,0,1-.25.3c-.17.17-.41.43-.69.74-.58.61-1.35,1.43-2.05,2.3a17.65,17.65,0,0,0-1.73,2.53,11.45,11.45,0,0,0-.6,1.25s-.23.5-.51,1.29S7,18.69,6.71,19.77s-.61,2.16-.84,3l-.29,1a1.5,1.5,0,0,1-.13.36,2.47,2.47,0,0,1,.07-.38l.24-1c.2-.82.47-1.9.75-3s.56-2.18.83-3,.49-1.32.49-1.32a12.82,12.82,0,0,1,.64-1.27,16.9,16.9,0,0,1,1.81-2.53C11,10.75,11.8,10,12.4,9.36l.74-.7Z"/></g><g class="cls-4"><path class="cls-2" d="M15.23,7.15a3.47,3.47,0,0,1,.43-.45c.26-.26.63-.59,1-.92s.77-.62,1.08-.84.52-.35.52-.35a9.48,9.48,0,0,1,1.82-.82,4.91,4.91,0,0,1,2-.26,2.66,2.66,0,0,1-.6.11A7.2,7.2,0,0,0,20.15,4a9.77,9.77,0,0,0-1.74.88A15.71,15.71,0,0,0,16.8,6C16,6.55,15.26,7.18,15.23,7.15Z"/></g><g class="cls-4"><path class="cls-2" d="M8.35,9.81s-.35.74-.68,1.48-.61,1.49-.61,1.49-.31.75-.56,1.52-.45,1.56-.5,1.55a7.88,7.88,0,0,1,.29-1.61c.21-.79.49-1.57.49-1.57s.31-.76.7-1.48A7.77,7.77,0,0,1,8.35,9.81Z"/></g><g class="cls-4"><path class="cls-2" d="M15.22,42.8c-.09,0,.45-10.44.45-10.44s.67-10.42.75-10.41S16,32.38,16,32.38,15.3,42.8,15.22,42.8Z"/></g><g class="cls-4"><path class="cls-2" d="M13.63,39.73a2.46,2.46,0,0,1,0-.37c0-.24,0-.57-.06-1,0-.81-.13-1.89-.21-3-.17-2.16-.43-4.3-.43-4.3s-.21-2.15-.5-4.29c-.15-1.07-.31-2.14-.44-2.94-.06-.41-.11-.74-.15-1a1.71,1.71,0,0,1,0-.37,1.56,1.56,0,0,1,.09.36c.06.23.13.56.21,1,.16.79.35,1.86.53,2.92.35,2.14.59,4.29.59,4.29s.22,2.16.34,4.32c.06,1.08.1,2.16.11,3,0,.4,0,.74,0,1A1.61,1.61,0,0,1,13.63,39.73Z"/></g><g class="cls-4"><path class="cls-2" d="M14.4,30.19a16.72,16.72,0,0,1,0-1.71l0-1.7s0-.85,0-1.7a16.72,16.72,0,0,1,0-1.71,9.65,9.65,0,0,1,.19,1.7c.06.85.08,1.71.08,1.71s0,.85,0,1.71A11.07,11.07,0,0,1,14.4,30.19Z"/></g><g class="cls-4"><path class="cls-2" d="M29.1,1.71a5.82,5.82,0,0,1-.88.29,7.47,7.47,0,0,0-.84.34,8.79,8.79,0,0,0-.82.39c-.4.22-.77.49-.79.46a2.38,2.38,0,0,1,.68-.64,5.4,5.4,0,0,1,.81-.48,6.09,6.09,0,0,1,.91-.28A2.51,2.51,0,0,1,29.1,1.71Z"/></g><g class="cls-4"><path class="cls-2" d="M36,3.05a7.61,7.61,0,0,1-.76-.1,11.83,11.83,0,0,0-1.68-.11A12.61,12.61,0,0,0,31.92,3c-.46.07-.75.14-.75.14s-.3.06-.74.18a12.67,12.67,0,0,0-1.59.55,14,14,0,0,0-1.48.8,5.25,5.25,0,0,1-.66.4,4,4,0,0,1,.59-.5,10.37,10.37,0,0,1,1.46-.89A12.75,12.75,0,0,1,30.35,3l.75-.2s.31-.07.78-.13a10.46,10.46,0,0,1,3.41.12A2.93,2.93,0,0,1,36,3.05Z"/></g><g class="cls-4"><path class="cls-2" d="M46,13.08a2.29,2.29,0,0,1-.34.22,7.36,7.36,0,0,1-.94.47,11.22,11.22,0,0,1-3.13.76,17.86,17.86,0,0,1-3.21,0c-.88-.08-1.45-.17-1.45-.17s-.58-.09-1.44-.26a24.46,24.46,0,0,1-3.11-.81,11.66,11.66,0,0,1-2.83-1.52c-.36-.25-.65-.47-.85-.63a1.67,1.67,0,0,1-.3-.26,2.37,2.37,0,0,1,.34.21l.88.58a11.66,11.66,0,0,0,2.83,1.41,23,23,0,0,0,3.09.74C36.43,14,37,14,37,14s.57.1,1.43.19a18,18,0,0,0,3.18.08,11.27,11.27,0,0,0,3.09-.65C45.51,13.36,46,13.05,46,13.08Z"/></g><g class="cls-4"><path class="cls-2" d="M46.79,16.39a2.77,2.77,0,0,1-1.26.32,4.72,4.72,0,0,1-1.31-.15A4.68,4.68,0,0,1,43,16a2.78,2.78,0,0,1-.88-1,11.47,11.47,0,0,0,1,.77,4.64,4.64,0,0,0,1.14.48,4.93,4.93,0,0,0,1.23.22A12.1,12.1,0,0,0,46.79,16.39Z"/></g><g class="cls-4"><path class="cls-2" d="M45.64,20.56a4.46,4.46,0,0,1-.35-.73c-.17-.36-.37-.7-.37-.7s-.17-.36-.36-.71a4.6,4.6,0,0,1-.4-.7s.33.26.57.58a7.91,7.91,0,0,1,.46.69,7,7,0,0,1,.29.76A2.13,2.13,0,0,1,45.64,20.56Z"/></g><g class="cls-4"><path class="cls-2" d="M37.81,5.23s-.72-.11-1.43-.1A8.24,8.24,0,0,0,35,5.25a8.53,8.53,0,0,0-1.38.33c-.68.22-1.31.58-1.33.55a3.85,3.85,0,0,1,1.25-.75A7.42,7.42,0,0,1,34.91,5a7.42,7.42,0,0,1,1.48,0A4.28,4.28,0,0,1,37.81,5.23Z"/></g><g class="cls-4"><path class="cls-2" d="M40.29,12.12a.91.91,0,0,1-.27,0c-.17,0-.42,0-.71,0a17.33,17.33,0,0,1-2.13-.24,19.54,19.54,0,0,1-3-.78l-.25-.1c-.16-.06-.38-.14-.65-.26a19.07,19.07,0,0,1-1.93-1,14.27,14.27,0,0,1-1.79-1.17A1.42,1.42,0,0,1,29,7.84a2.4,2.4,0,0,0,.66.68A18.53,18.53,0,0,0,31.44,9.6a19,19,0,0,0,1.92.88l.66.25.24.09a21.1,21.1,0,0,0,3,.85c.75.16,1.52.28,2.09.34S40.29,12.1,40.29,12.12Z"/></g><g class="cls-4"><path class="cls-2" d="M45.71,10.75s-.61-.35-1.24-.65a12.29,12.29,0,0,0-1.28-.52,12.81,12.81,0,0,0-1.31-.44c-.68-.19-1.37-.28-1.37-.33a4.79,4.79,0,0,1,1.41.12,11.47,11.47,0,0,1,1.38.36,10.25,10.25,0,0,1,1.27.62A4.51,4.51,0,0,1,45.71,10.75Z"/></g><path class="cls-3" d="M45.41,18.45c-.58-1.09,1.66-1.73,1.66-1.73a6,6,0,0,1-2.24-.7c-1.48-.71,1-2.44,1.09-2.64l-3.6,1-.16.36.24,0s2,5,2,7c0,0,1.43-1.81,3.24-.73a18,18,0,0,0,0-2.34C46.83,19.09,45.76,19.12,45.41,18.45Z"/><g class="cls-5"><path class="cls-2" d="M16.39,19.48c1.51.4,3.24-1.14,4.35-2,1.34-1.07,2.71-2.17,2.82-4a.51.51,0,0,0-.63-.48c-1.61.3-2.6,1.55-3.79,2.56-1,.86-2.87,1.83-3.19,3.17a.64.64,0,0,0,.44.77Z"/></g><g class="cls-5"><path class="cls-2" d="M16.56,16.16a1.82,1.82,0,0,0,1-.42,2.86,2.86,0,0,0,.82-.77c.12-.16-.08-.39-.26-.33a2.94,2.94,0,0,0-1,.54,1.76,1.76,0,0,0-.7.78.15.15,0,0,0,.15.2Z"/></g><g class="cls-5"><path class="cls-2" d="M11.08,20c1.19-1.71,2.44-3.39,3.73-5,1.09-1.36,2.37-2.54,3.42-3.92.25-.33-.16-.76-.51-.66-1.9.51-3.18,2.23-4.34,3.73a17.49,17.49,0,0,0-3,5.55.41.41,0,0,0,.74.32Z"/></g><g class="cls-5"><path class="cls-2" d="M9.56,16.76c.35-.19.41-.76.57-1.1s.46-.82.62-1.27a.23.23,0,0,0-.38-.22,3.73,3.73,0,0,0-.74,1.28c-.15.36-.46.89-.25,1.26a.13.13,0,0,0,.18.05Z"/></g><g class="cls-5"><path class="cls-2" d="M11.84,12.54c1.06-.45,1.93-1.7,2.71-2.52s2-1.7,2.47-2.82c.05-.12-.09-.22-.19-.19-1.18.28-2.18,1.47-3,2.31s-2,2-2.13,3.11c0,.05,0,.14.12.11Z"/></g><g class="cls-5"><path class="cls-2" d="M7.4,13.83c1.22-1.58,2.32-3.24,3.68-4.72s3.16-2.34,4.1-4a.64.64,0,0,0-.54-1C12.51,4.43,11,6.32,9.72,7.91A12.15,12.15,0,0,0,7.09,13.7a.18.18,0,0,0,.31.13Z"/></g><g class="cls-5"><path class="cls-2" d="M8.14,8.23l.63-.76c.07-.08,0-.21-.13-.12L8,8.07c-.1.11.07.27.16.16Z"/></g><g class="cls-5"><path class="cls-2" d="M15.14,29.31a17.61,17.61,0,0,0-.38,6.51c0,.23.4.33.44.06a17.7,17.7,0,0,0,.07-6.57c0-.07-.11-.06-.13,0Z"/></g><g class="cls-5"><path class="cls-2" d="M32.5,11.24c.8,1.41,2.39,1.8,3.89,2.08a14.12,14.12,0,0,0,6.59,0,.43.43,0,0,0-.11-.84c-3.57-.22-6.95.31-10.28-1.37-.06,0-.13,0-.09.09Z"/></g><g class="cls-5"><path class="cls-2" d="M30.09,5.29a14.07,14.07,0,0,0,2.41-.76c.14-.07,0-.29-.11-.25a12.58,12.58,0,0,0-2.33.93s0,.09,0,.08Z"/></g><g class="cls-5"><path class="cls-2" d="M33.91,4a21.45,21.45,0,0,0,2.66.31A6.16,6.16,0,0,0,39,4.45a.18.18,0,0,0,0-.33,4.5,4.5,0,0,0-2.59-.5A6.75,6.75,0,0,0,33.9,4a0,0,0,0,0,0,0Z"/></g><g class="cls-5"><path class="cls-2" d="M32.84,8.33c1,1.14,3,1.59,4.41,2a10.91,10.91,0,0,0,4.92.62.57.57,0,0,0,.13-1,18.3,18.3,0,0,0-4.57-1.31c-1.48-.34-3.13-1.08-4.64-.92a.36.36,0,0,0-.25.61Z"/></g><g class="cls-5"><path class="cls-2" d="M38.44,7.13c.29.33.79.33,1.2.4a3.83,3.83,0,0,0,1.35,0,.16.16,0,0,0,0-.29,3.73,3.73,0,0,0-1.31-.34A2,2,0,0,0,38.45,7a.1.1,0,0,0,0,.15Z"/></g><g class="cls-5"><path class="cls-2" d="M29.39,2.32a3.32,3.32,0,0,0,1.37-.27c.55-.13,1-.35,1.59-.52.1,0,.12-.2,0-.22a4.18,4.18,0,0,0-1.69,0A2.41,2.41,0,0,0,29.24,2a.25.25,0,0,0,.15.36Z"/></g><path class="cls-9" d="M19.78,54a6.06,6.06,0,0,1-.15,1.37,8.26,8.26,0,0,1-.85,2.31l-.11.18v0l-.52.7h0c-1.82,2.48-7.82,10.77-9,13.71a1.57,1.57,0,0,0-.11.61H9A.13.13,0,0,0,9,73c.08,1.25,1.46,2.84,3.26,4.4H1.39a6.65,6.65,0,0,0,.36.56c-.13-.18-.26-.37-.37-.56a2.53,2.53,0,0,1-.13-.22c-.08-.13-.16-.26-.23-.39l-.3-.59a8.34,8.34,0,0,1-.61-1.87A2.38,2.38,0,0,1,.05,74a5.67,5.67,0,0,1,.09-2c0-.21.1-.42.17-.64s.08-.29.13-.44a27.24,27.24,0,0,1,2-4.44c.24-.44.49-.89.75-1.34l.4-.68c.54-.91,1.12-1.82,1.73-2.73h0c2-2.95,4.13-5.84,6-8.16,2.39-3,4.21-5.09,4.21-5.09l.18.08A8.82,8.82,0,0,1,17.91,50a5.33,5.33,0,0,1,1.73,2.82v0A5,5,0,0,1,19.78,54Z"/><g class="cls-24"><path class="cls-25" d="M18.9,52a6.36,6.36,0,0,1,.26,1.76,10.34,10.34,0,0,1-.1,1.79,10.45,10.45,0,0,1-.47,1.72,6.13,6.13,0,0,1-.81,1.59s.36-.82.61-1.66A14.95,14.95,0,0,0,19,53.73C19,52.85,18.86,52,18.9,52Z"/><g class="cls-7"><path class="cls-26" d="M20.09,55.09s.05.22-.06.8A5.59,5.59,0,0,1,19.68,57,5.29,5.29,0,0,1,19,58a2.89,2.89,0,0,1-.9.74s.4-.41.73-.87a5.92,5.92,0,0,0,.55-1,5.47,5.47,0,0,0,.42-1C20,55.3,20.05,55.09,20.09,55.09Z"/></g><path class="cls-25" d="M4.29,72.62A2.5,2.5,0,0,1,5.43,72a4.16,4.16,0,0,1,1.34-.15,3.92,3.92,0,0,1,1.28.37,2.56,2.56,0,0,1,1,.84A8.26,8.26,0,0,0,8,72.38a3.69,3.69,0,0,0-.84-.23l-.39,0-.39,0a4.75,4.75,0,0,0-.86.09A6.45,6.45,0,0,0,4.29,72.62Z"/><path class="cls-25" d="M6,74.19a2.63,2.63,0,0,1,.6-.68,2.57,2.57,0,0,1,.52-.36A2,2,0,0,1,7.42,73a2.51,2.51,0,0,1,.3,0,1.52,1.52,0,0,1,.65.07,1.16,1.16,0,0,1,.55.35c.11.13.14.25.12.26s-.08-.08-.21-.18a1.2,1.2,0,0,0-.51-.23,1.5,1.5,0,0,0-.56,0,1.25,1.25,0,0,0-.24.07l-.25.09a3.37,3.37,0,0,0-.51.28A7.13,7.13,0,0,1,6,74.19Z"/></g><path class="cls-12" d="M19.65,53.66h0a10.3,10.3,0,0,1-.19,1.74,12.13,12.13,0,0,1-.71,2.3c0,.08-.06.15-.08.18v0l-.52.7h0c-1.82,2.48-7.82,10.77-9,13.71a1.57,1.57,0,0,0-.11.61H9A.13.13,0,0,0,9,73c.08,1.25,1.46,2.84,3.26,4.4h-1.5C8.69,75.89,6.64,74.78,5.33,75c-1.11.15-1.73,1.16-2.06,2.45H1.38a2.53,2.53,0,0,1-.13-.22c-.08-.13-.16-.26-.23-.39l-.3-.59a8.34,8.34,0,0,1-.61-1.87A2.38,2.38,0,0,1,.05,74a5.67,5.67,0,0,1,.09-2c0-.21.1-.42.17-.64s.08-.29.13-.44a27.24,27.24,0,0,1,2-4.44c.24-.44.49-.89.75-1.34l.4-.68c.54-.91,1.12-1.82,1.73-2.73-.5,3-1,7.44.33,8.32,2,1.32,9.13-8.89,11.25-13a2.12,2.12,0,0,0,.11-.21,5,5,0,0,0,.33-.82h0a3.62,3.62,0,0,0,.17-.56,13.84,13.84,0,0,0,.41-2.7,21.71,21.71,0,0,0,0-2.79c0-.58-.1-1.07-.16-1.45a6.62,6.62,0,0,1,1.89,4.27v0A7.66,7.66,0,0,1,19.65,53.66Z"/><path class="cls-27" d="M17.42,50.15a1.84,1.84,0,0,0-.15-.51,1.54,1.54,0,0,0-.4-.35c-.23-.15-.49-.2-.52-.12s.12.24.23.43a2.56,2.56,0,0,1,.18.36,2.93,2.93,0,0,1,.26.33c.12.17.21.39.29.38S17.46,50.42,17.42,50.15Z"/><path class="cls-2" d="M25.14,29.09a1.89,1.89,0,0,0,1.43-.62,2.34,2.34,0,0,0,.53-1.29,2.8,2.8,0,0,0-.08-1,2.3,2.3,0,0,0-.12-.37,2,2,0,0,1,.24.32,2.75,2.75,0,0,1,.36,1.07,2.48,2.48,0,0,1-.39,1.69,2.34,2.34,0,0,1-2,1,3.59,3.59,0,0,1-2-.63,4.24,4.24,0,0,1-1.21-1.17,2.07,2.07,0,0,1-.4-1,1.2,1.2,0,0,1,0-.4,1.41,1.41,0,0,0,.1.37,2.33,2.33,0,0,0,.58.83A4.65,4.65,0,0,0,25.14,29.09Z"/><path class="cls-2" d="M27.66,29a2.91,2.91,0,0,0,.47.16,1.19,1.19,0,0,0,.24,0,.6.6,0,0,1-.21.17.85.85,0,0,1-.65,0,.79.79,0,0,1-.45-.47.62.62,0,0,1,0-.27l.19.15A2.57,2.57,0,0,0,27.66,29Z"/><path class="cls-2" d="M28.19,28a1,1,0,0,0,.5-.17.48.48,0,0,0,.16-.21.45.45,0,0,1,0,.32.72.72,0,0,1-.64.46,1.15,1.15,0,0,1-.91-.48S27.79,28,28.19,28Z"/><path class="cls-2" d="M40.53,27.77A1.89,1.89,0,0,0,42,27.15a2.27,2.27,0,0,0,.53-1.29,2.59,2.59,0,0,0-.08-1,2.3,2.3,0,0,0-.12-.37,2,2,0,0,1,.24.32,2.65,2.65,0,0,1,.36,1.07,2.51,2.51,0,0,1-.39,1.7,2.36,2.36,0,0,1-2,1,3.59,3.59,0,0,1-2-.63,4.22,4.22,0,0,1-1.21-1.16,2.31,2.31,0,0,1-.4-1.06,1.25,1.25,0,0,1,0-.4,1.41,1.41,0,0,0,.1.37,2.25,2.25,0,0,0,.59.83A4.6,4.6,0,0,0,40.53,27.77Z"/><path class="cls-2" d="M43.05,27.69a2.79,2.79,0,0,0,.47.15,1.27,1.27,0,0,0,.24,0,.6.6,0,0,1-.21.17.76.76,0,0,1-.65,0,.79.79,0,0,1-.45-.47.62.62,0,0,1,0-.27,1.08,1.08,0,0,0,.2.15A3.35,3.35,0,0,0,43.05,27.69Z"/><path class="cls-2" d="M43.58,26.63a1,1,0,0,0,.5-.17.48.48,0,0,0,.16-.21.41.41,0,0,1,0,.32.72.72,0,0,1-.64.46,1.15,1.15,0,0,1-.91-.48A8.43,8.43,0,0,0,43.58,26.63Z"/><path class="cls-8" d="M36.61,36.39a4.78,4.78,0,0,0,.16-1.56c-.14-.22-.26-.43-.39-.61s-.17-.23-.25-.33L36,33.74c-.11-.13-.22-.24-.32-.34l0,0a1.37,1.37,0,0,0-2.35.29c-2.06-2-4,2.25-4,2.25l0,.05v0A5.22,5.22,0,0,0,34,38.47a2.67,2.67,0,0,0,2.65-2.08Z"/><path class="cls-19" d="M29.54,35.54a5.22,5.22,0,0,0,4.64,2.55c3.18-.15,2.81-3.63,2.81-3.63S34.78,32.78,29.54,35.54Z"/><path class="cls-20" d="M37,34.46s-2.21-1.68-7.45,1.08a5.47,5.47,0,0,0,2.25,2.06c-.41-.46-.94-1.27.05-1.61a12.74,12.74,0,0,1,3.86-.34s.44-.74.93-.15a1.25,1.25,0,0,1,.21.51A4.54,4.54,0,0,0,37,34.46Z"/><path class="cls-2" d="M30.73,35A3.67,3.67,0,0,0,34,36.76c2.26-.11,2-2.58,2-2.58a1.71,1.71,0,0,0-.33-.17A9.24,9.24,0,0,0,30.73,35Z"/><path class="cls-19" d="M29.54,35.54s2-4.22,4-2.26c0,0,1.28-2.55,3.43,1.18C37,34.46,34.35,33.08,29.54,35.54Z"/><path class="cls-20" d="M29.54,35.54s2-4.22,4-2.26c0,0,1.28-2.55,3.43,1.18C37,34.46,34.35,33.08,29.54,35.54Z"/><path class="cls-9" d="M31.52,34.65a.1.1,0,0,0-.05,0c-.11.1.69,1,2.53.66S35.69,34,35.69,34A8.44,8.44,0,0,0,31.52,34.65Z"/><path class="cls-20" d="M37,34.46a5.17,5.17,0,0,0-1.41-1.73c.4.55.74,1.16,0,1-1.32-.34-3.37.59-4.3.39-.34-.07-.47-.21-.51-.36a8.14,8.14,0,0,0-1.2,1.82C34.35,33.08,37,34.46,37,34.46Z"/><path class="cls-28" d="M34,37.33c0,.21-.32.37-.71.37s-.71-.16-.71-.37.32-.36.71-.36S34,37.13,34,37.33Z"/></g></g></g></svg>