<svg xmlns="http://www.w3.org/2000/svg" viewBox="0 0 76.81 81.31"><defs><style>.cls-1{isolation:isolate;}.cls-2,.cls-3{fill:#6f3a1e;}.cls-3{opacity:0.3;}.cls-10,.cls-13,.cls-15,.cls-17,.cls-19,.cls-22,.cls-23,.cls-3,.cls-7,.cls-8{mix-blend-mode:multiply;}.cls-10,.cls-15,.cls-16,.cls-17,.cls-4{opacity:0.5;}.cls-16,.cls-20,.cls-21,.cls-4,.cls-5{mix-blend-mode:screen;}.cls-23,.cls-5,.cls-8{opacity:0.45;}.cls-19,.cls-20,.cls-6,.cls-8{fill:#e5b678;}.cls-9{fill:#fff;}.cls-10,.cls-18,.cls-22{fill:#d3dbfd;}.cls-11{fill:#294168;}.cls-12,.cls-13,.cls-23{fill:#88ac76;}.cls-13{opacity:0.35;}.cls-14,.cls-15,.cls-16,.cls-21{fill:#f15e6b;}</style></defs><title>cashРесурс 6</title><g class="cls-1"><g id="Слой_2" data-name="Слой 2"><g id="OBJECTS"><path class="cls-2" d="M0,21.25s1,24.54,6,31.44,22.78,9,31.15.59,6.62-33.65,6.17-34.53S11.77,7.73,0,21.25Z"/><path class="cls-3" d="M9.38,37.2c-.22-2.4-.53-8.73-1.09-10.36a18.31,18.31,0,0,0-2-3.94s-3.86-.59-6.22-1c.07,1.41.29,5.12.76,9.56.13-.23.28-.38.46-.36.85.08,2.7,6.17,2.7,6.17s-.69-5.47.31-5.47S5.9,34,5.9,34s.46-1.62,1.62-.77C8.31,33.8,9.06,36,9.38,37.2Z"/><path class="cls-3" d="M9.38,37.2a3.22,3.22,0,0,0,.14.94C9.59,38.18,9.53,37.79,9.38,37.2Z"/><path class="cls-3" d="M41.76,37c-.07.4-.11.65-.11.65S41.7,37.34,41.76,37Z"/><path class="cls-3" d="M43.36,18.75c0-.05-.13-.12-.31-.21-.76.77-1.64,1.1-2.06.33a1.22,1.22,0,0,1,0-1.13c-1.49-.5-3.58-1.1-6.07-1.66L11.67,36.54s.12,7.39-.91,8.6S6.8,40,6.8,40s3.12,9,2.1,10-3.36-2.16-3.36-2.16,1.38,3.37.6,3.49c-.4.06-1.59-2.3-2.67-4.65a19.92,19.92,0,0,0,2.57,6A11,11,0,0,0,9,55.4a15.08,15.08,0,0,0,1.87.13c2.38,0,17.28-.76,24.57-.76a14.55,14.55,0,0,0,1.74-1.49,17.89,17.89,0,0,0,4-6.86c-3.8,4.74-5.2,3.56-5.56,2.08s2.23-5.65,2.23-5.65-3,3-3.55,1.8,6.37-9.79,7.21-10c.6-.13.44,1.38.29,2.28.27-1.4.93-4.6,1.4-4.51.15,0,.25.84.32,2C44.2,26.48,43.6,19.22,43.36,18.75Z"/><g class="cls-4"><path class="cls-2" d="M6.31,45.16a3.75,3.75,0,0,1-.18-.38c-.1-.24-.25-.59-.4-1-.33-.84-.73-2-1.1-3.13C3.9,38.34,3.37,36,3.37,36s-.51-2.36-.81-4.75c-.15-1.2-.26-2.4-.32-3.3,0-.45,0-.83-.05-1.09a2.26,2.26,0,0,1,0-.42,2.5,2.5,0,0,1,.06.41c0,.26.07.64.11,1.09.09.89.24,2.09.41,3.28.36,2.38.89,4.72.89,4.72s.5,2.35,1.17,4.66c.34,1.15.71,2.3,1,3.15l.35,1A1.71,1.71,0,0,1,6.31,45.16Z"/></g><g class="cls-4"><path class="cls-2" d="M10.46,47.89a1.13,1.13,0,0,1-.16-.22c-.1-.14-.23-.34-.39-.59-.31-.5-.7-1.17-1.06-1.86a29.86,29.86,0,0,1-1.31-2.84,25.82,25.82,0,0,1-.91-3,19.72,19.72,0,0,1-.37-2.11,6,6,0,0,1-.07-.71,1,1,0,0,1,0-.27,9.7,9.7,0,0,1,.18,1c.1.57.27,1.33.47,2.08a29,29,0,0,0,1,2.94S8.36,43.72,9,45.12c.34.7.7,1.39,1,1.9A7.69,7.69,0,0,1,10.46,47.89Z"/></g><g class="cls-4"><path class="cls-2" d="M16,45.5a7.64,7.64,0,0,1-.09-1.18c0-.59-.1-1.18-.1-1.18s0-.58-.09-1.17a8.71,8.71,0,0,1-.11-1.18,4.71,4.71,0,0,1,.32,1.15c.12.59.18,1.18.18,1.18s0,.6,0,1.19A4.58,4.58,0,0,1,16,45.5Z"/></g><g class="cls-4"><path class="cls-2" d="M37.72,46.05a1.6,1.6,0,0,1,.16-.31c.1-.2.27-.46.44-.8.37-.66.82-1.55,1.24-2.46s.79-1.85,1-2.56.4-1.19.4-1.19.16-.47.38-1.19.47-1.69.68-2.67.37-2,.47-2.73c.06-.37.08-.68.11-.9a1.66,1.66,0,0,1,.06-.34,1.48,1.48,0,0,1,0,.34c0,.22,0,.54-.06.92-.06.75-.19,1.75-.37,2.75s-.42,2-.62,2.7-.36,1.22-.36,1.22-.16.48-.43,1.19-.67,1.64-1.11,2.55-.93,1.79-1.33,2.43c-.19.33-.37.59-.49.77A1.24,1.24,0,0,1,37.72,46.05Z"/></g><g class="cls-4"><path class="cls-2" d="M35.67,45.39s.57-.5,1-1.09A7.82,7.82,0,0,0,37.48,43a6.89,6.89,0,0,0,.57-1.37c.22-.72.26-1.47.31-1.47a4.19,4.19,0,0,1-.1,1.52,5.47,5.47,0,0,1-1.4,2.71A4,4,0,0,1,35.67,45.39Z"/></g><g class="cls-4"><path class="cls-2" d="M34.6,42.79s-.09.29-.25.55a5.33,5.33,0,0,1-.34.49s-.21.21-.44.4-.48.35-.51.32.17-.25.36-.47l.36-.45.4-.42C34.38,43,34.57,42.77,34.6,42.79Z"/></g><g class="cls-4"><path class="cls-2" d="M40.63,45.6a5.82,5.82,0,0,1-.28,1.72,8.21,8.21,0,0,1-.41,1.14c-.14.3-.25.49-.25.49a5.45,5.45,0,0,1-.31.46,10.47,10.47,0,0,1-.76.93,9.38,9.38,0,0,1-1.27,1.19s.56-.66,1.11-1.33a10,10,0,0,0,.69-1c.18-.27.28-.45.28-.45s.11-.18.26-.47a8,8,0,0,0,.46-1.07C40.44,46.45,40.59,45.59,40.63,45.6Z"/></g><g class="cls-5"><path class="cls-2" d="M1.77,35.92c.3,3.38.71,7.79,2.88,10.53a.3.3,0,0,0,.5-.21,30.1,30.1,0,0,0-1.27-4.87c-.47-1.85-.94-3.68-1.27-5.56a.43.43,0,0,0-.84.11Z"/></g><g class="cls-5"><path class="cls-2" d="M4.45,34.83A1.31,1.31,0,0,0,4.26,36a2.75,2.75,0,0,0,.51,1.33c.22.25.59,0,.61-.26a3.94,3.94,0,0,0-.28-1.3,1.47,1.47,0,0,0-.6-1Z"/></g><g class="cls-5"><path class="cls-2" d="M5.85,39.23A8,8,0,0,0,6.46,42c0,.09.18,0,.16-.07-.19-.93-.51-1.82-.72-2.75,0,0-.05,0-.05,0Z"/></g><g class="cls-5"><path class="cls-2" d="M7.26,34.29a4.07,4.07,0,0,0,.12,2.26,12.79,12.79,0,0,0,.84,2.85c.06.13.25.06.26-.07a11.36,11.36,0,0,0-.3-2.79C8,35.79,8,34.81,7.4,34.27c0,0-.12,0-.14,0Z"/></g><g class="cls-5"><path class="cls-2" d="M40.83,36.92a1.82,1.82,0,0,0-.6.85,2.62,2.62,0,0,0-.2,1.14.25.25,0,0,0,.46.12,4,4,0,0,0,.38-1,2.19,2.19,0,0,0,.14-.5A5,5,0,0,0,41,37a.09.09,0,0,0-.15-.06Z"/></g><g class="cls-5"><path class="cls-2" d="M42.34,37.28c-1.64,3.2-3.21,6.56-4.6,9.86-.15.35.26.77.56.44a15.93,15.93,0,0,0,4.17-10.27.07.07,0,0,0-.13,0Z"/></g><g class="cls-4"><path class="cls-2" d="M6.87,50.53A11.8,11.8,0,0,1,6,49.09a10.76,10.76,0,0,1-.61-1.58A11.8,11.8,0,0,1,6.26,49,10.76,10.76,0,0,1,6.87,50.53Z"/></g><path class="cls-6" d="M60.39,57.09c1.45-.1,3,.06,4.35,0,.42,0,4.57-.14,4.2-1s-2-.62-2-.62,5.88-1.67,3.77-3.76-9.07-.3-9.07-.3,2.34-2.09-.36-3.17c-1.31-.52-1,2.2-1.72,3S57.52,53,57.52,54.33l-1.29.56a20.31,20.31,0,0,0,1.58,2.8A7.59,7.59,0,0,1,60.39,57.09Z"/><g class="cls-7"><path class="cls-6" d="M60.85,53.67a2.27,2.27,0,0,0-1.23.39,1.63,1.63,0,0,0-.4.34,3.29,3.29,0,0,1,1.64-.47,3.24,3.24,0,0,1,1.66.39A2,2,0,0,0,62.1,54,2.39,2.39,0,0,0,60.85,53.67Z"/><path class="cls-6" d="M64.55,53.73c0,1.2,0,2.18,0,2.18a7.51,7.51,0,0,0,.27-2.19,7.82,7.82,0,0,0-.36-2.17S64.52,52.53,64.55,53.73Z"/><path class="cls-6" d="M66.13,55.25a3.79,3.79,0,0,0-1,.2,3.79,3.79,0,0,0,1,.06,3.66,3.66,0,0,0,1-.19A3.93,3.93,0,0,0,66.13,55.25Z"/><path class="cls-6" d="M67.91,53.54a10.76,10.76,0,0,0-2.68.69s1.21-.25,2.71-.43,2.74-.23,2.74-.23A10.32,10.32,0,0,0,67.91,53.54Z"/><path class="cls-6" d="M68,51.78a10,10,0,0,0-2.8.73A28.6,28.6,0,0,1,68,52a27.9,27.9,0,0,1,2.86-.18A10.36,10.36,0,0,0,68,51.78Z"/></g><path class="cls-8" d="M60.4,57.13c-2-1.14-2.63-2.2-2.65-3.11a4.61,4.61,0,0,0,3.33,2.29c1.62.1,1.66-1.18,1.28-2s-3,.06-3,.06.07-.16.64-.61,1-.15,1.46-.11c.66,0,.68-.51.41-1a2.09,2.09,0,0,0-1.56-1.09,2,2,0,0,0-1.4.25c.27-.27.53-.48.68-.63a4.47,4.47,0,0,0,.64-1.92c0,.49.06,1.63.86,2s1-1.34,1.36-2.12c.6,1.07-.78,2.31-.78,2.31s4.42-1.13,7.29-.53a18.78,18.78,0,0,0-2.63.47c-1,.27-1.92,2.64-.25,3.47,1.15.58,3.43-.56,4.73-1.32a9.74,9.74,0,0,1-3.69,1.93c-.75.07-1.52.14-1.78.19-.47.08-1,.71.08.72s3.5-.25,3.5-.25C69.48,57.35,60.4,57.13,60.4,57.13Z"/><path class="cls-9" d="M32.09,44.84S28.71,42.51,28,50.68c-.55,6.85,6.28,24.63,12.52,26.4s20.95-17.4,20.95-17.4-1.48-5.8-5.77-5.26L42.62,69C40,69.12,38.12,50.25,32.09,44.84Z"/><path class="cls-10" d="M58.6,55.12a4.15,4.15,0,0,0-1.31-.61,4.16,4.16,0,0,1,1.32,3.24c-.2,3.76-13.13,15.44-15.21,13.62-.76-.67-.65-1.84-.2-3.06l-.58.64c-.59,0-1.13-.88-1.7-2.38-.82.79-1.68,1.6-2.15,2-1.1.91-4.11.13-7.12-8.63A28,28,0,0,1,30.38,46.6,14.61,14.61,0,0,0,28,50.67h0c-.55,6.85,6.28,24.63,12.52,26.4a4,4,0,0,0,2,0,12.42,12.42,0,0,0,3.95-2c.56-.38,1.14-.81,1.71-1.28,6.38-5.08,13.33-14.14,13.33-14.14A13.63,13.63,0,0,0,58.6,55.12Z"/><path class="cls-11" d="M17.85,81.3a13.8,13.8,0,0,1,1.66-1l.1-.06c.25-.13.51-.26.79-.38a3.52,3.52,0,0,1,.39-.16l.46-.17.2-.07.47-.15.28-.08.21,0L23,79h.07a10.34,10.34,0,0,1,2.18-.14l.34,0h.11l.48.06a10.15,10.15,0,0,1,2.59.68l.2.09A12.05,12.05,0,0,1,31.28,81l.48.33Z"/><path class="cls-11" d="M31.78,81.31h0S31.78,81.3,31.78,81.31Z"/><path class="cls-12" d="M17.85,81.3a13.8,13.8,0,0,1,1.66-1l.1-.06c.25-.13.51-.26.79-.38a3.52,3.52,0,0,1,.39-.16l.46-.17.2-.07.47-.15.28-.08.21,0L23,79h.07a10.34,10.34,0,0,1,2.18-.14l.34,0h.11l.48.06a10.15,10.15,0,0,1,2.59.68l.2.09A12.05,12.05,0,0,1,31.28,81l.48.33Z"/><path class="cls-12" d="M31.78,81.31h0S31.78,81.3,31.78,81.31Z"/><path class="cls-13" d="M17.85,81.3a13.8,13.8,0,0,1,1.66-1l.1-.06c.25-.13.51-.26.79-.38a3.52,3.52,0,0,1,.39-.16l.46-.17.2-.07.47-.15.28-.08.21,0L23,79h.07l1.35.85c.45.3,1,.78.77,1.28a.91.91,0,0,1-.09.17Z"/><path class="cls-13" d="M31.76,81.3H17.85a13.8,13.8,0,0,1,1.66-1l.1-.06c.25-.13.51-.26.79-.38a3.52,3.52,0,0,1,.39-.16l.46-.17.2-.07.47-.15.28-.08.21,0L23,79h.07a10.34,10.34,0,0,1,2.18-.14l.34,0h.11l.48.06a11.87,11.87,0,0,1,2.58.71l.21.09A13.37,13.37,0,0,1,31.28,81Z"/><path class="cls-14" d="M37.33,67.24s0,0,0,0-.14.22-.21.34a0,0,0,0,1,0,0c-.16.25-.34.5-.53.77l-.2.28a7.39,7.39,0,0,0-.42.66,5.08,5.08,0,0,0-.33.66,6.81,6.81,0,0,0-.31.74c-.09.25-.17.49-.24.74l0,.11a2.33,2.33,0,0,0-.07.25q-.09.3-.15.6c0,.12-.06.24-.08.36l-.06.28c-.15.79-.27,1.58-.4,2.36a18.06,18.06,0,0,0-.45,5.87H17.08a12.34,12.34,0,0,0,.47-3.54,30.31,30.31,0,0,0-.39-4.39c-.14-.92-.3-1.85-.48-2.77l-.09-.48c-.1-.54-.21-1.08-.32-1.61s-.21-1.08-.31-1.62c0-.16-.07-.32-.1-.5a.85.85,0,0,1,0-.17l-.09-.37c0-.07,0-.15-.05-.22l-.09-.37a1.82,1.82,0,0,1-.07-.25c0-.12-.07-.25-.1-.38s-.05-.17-.07-.26L15.23,64a2.5,2.5,0,0,0-.07-.26h0c0-.07,0-.14-.07-.22v0l0,0h0a2.17,2.17,0,0,0-.07-.24l-.06-.21c-.06-.22-.13-.44-.2-.66a1.58,1.58,0,0,0-.09-.31l-.12-.41c0-.12-.07-.25-.11-.38h0l-.12-.36c0-.14-.08-.28-.13-.42s-.06-.21-.1-.32-.09-.31-.14-.47l-.07-.22-.3-.95v0h0l-.06-.17c-.09-.28-.18-.56-.26-.83-.19-.59-.37-1.17-.55-1.74a.75.75,0,0,0,0-.16c-.06-.21-.13-.42-.19-.63-.93-3-1.64-5.41-1.53-6a.81.81,0,0,1,.23-.37l0,0a6.83,6.83,0,0,1,1.4-.94l.06,0,.25-.13.22-.11a66.73,66.73,0,0,1,6.18-2.66l.29,0h0l.32,0,.36,0,1.05-.09c1.56-.14,3.79-.29,5.82-.28h.33a13.94,13.94,0,0,1,3.6.38h0a2.17,2.17,0,0,1,.7.34c2,1.58,3,5.72,3.95,8,.17.42.34.83.53,1.25h0A38.7,38.7,0,0,1,38.46,60q.12.51.21,1s0,0,0,.06c.06.34.1.68.13,1A7.8,7.8,0,0,1,37.33,67.24Z"/><path class="cls-15" d="M37.33,67.24s0,0,0,0-.14.22-.21.34a0,0,0,0,1,0,0c-.16.25-.34.5-.53.77l-.2.28a7.39,7.39,0,0,0-.42.66,11.51,11.51,0,0,0-.64,1.4c-.09.25-.17.49-.24.74l0,.11a2.33,2.33,0,0,0-.07.25q-.09.3-.15.6s0,.1,0,.15,0,.14,0,.21l-.06.28a6.53,6.53,0,0,0-3.32-1.76l-.22,0a4.51,4.51,0,0,0-.53-.09c-4.18-.52-9.76-.7-10.28,1.74a7.06,7.06,0,0,0-.06,2.17l.56-.37c-.08.83-.15,1.67-.15,2.5a17.13,17.13,0,0,0,.78,2.2c.13.3.26.57.39.82a8.7,8.7,0,0,0,.72,1.06H17.08a12.34,12.34,0,0,0,.47-3.54,30.31,30.31,0,0,0-.39-4.39l-.06-.32c-.12-.82-.27-1.63-.42-2.45l-.09-.48c-.1-.54-.21-1.08-.32-1.61s-.21-1.08-.31-1.62c0-.16-.07-.32-.1-.5a.85.85,0,0,1,0-.17l-.09-.37c0-.07,0-.15-.05-.22l-.09-.37a1.82,1.82,0,0,1-.07-.25c0-.12-.07-.25-.1-.38s-.05-.17-.07-.26L15.23,64a2.5,2.5,0,0,0-.07-.26h0c0-.07,0-.14-.07-.22v0l0,0h0a2.17,2.17,0,0,0-.07-.24l-.06-.21c-.06-.22-.13-.44-.2-.66a1.58,1.58,0,0,0-.09-.31l-.12-.41c0-.12-.07-.25-.11-.38h0l-.12-.36c0-.14-.08-.28-.13-.42s-.06-.21-.1-.32-.09-.31-.14-.47l-.07-.22-.3-.95v0h0l-.06-.17c-.09-.28-.18-.56-.26-.83-.19-.59-.37-1.17-.55-1.74,0-.06,0-.11,0-.16h0c-.06-.21-.13-.42-.19-.63a19.67,19.67,0,0,1,.88-2A6.92,6.92,0,0,1,14,51.84a.81.81,0,0,1,.12-.14,2.27,2.27,0,0,1,.31-.31c.19.69.52,1.79,1,3.08v0c.06.17.13.33.2.5h0c0,.12.09.24.14.37s.1.26.16.39c.33.85.73,1.73,1.17,2.6a19.07,19.07,0,0,0,2.18,3.41c3.3,4,6.44,4.53,11.14,3.31.33-.09.64-.16.94-.22l.36-.07a.35.35,0,0,1,.14,0,14.65,14.65,0,0,1,1.7-.24c2.15-.19,2.95.18,3.83-.83A8.59,8.59,0,0,0,38.46,60q.12.51.21,1s0,0,0,.06c.06.34.1.68.13,1A7.8,7.8,0,0,1,37.33,67.24Z"/><path class="cls-6" d="M19.85,41.11s-.54,5.45,1.61,6.41,4.56,1,5.36-1.29,0-5.44,0-5.44S20.12,39.82,19.85,41.11Z"/><path class="cls-8" d="M25.83,47.6c-3.45-.53-5.58-4.5-4.43-3.92s4.55.12,5.78-.07a14,14,0,0,0-.36-2.82s-6.7-1-7,.32c0,0-.54,5.45,1.61,6.41C23,48.21,24.71,48.4,25.83,47.6Z"/><path class="cls-10" d="M25.2,48.34s3.23,3,3.86,1.36c0,0,0-.07,0-.1a26.06,26.06,0,0,0-1.9-4.67,2.73,2.73,0,0,1-2.36,2.38,4.49,4.49,0,0,1-4.61-2.7c-.24,1.17.69,3.59,2.49,6.78C23.18,51.5,24.11,51.2,25.2,48.34Z"/><path class="cls-9" d="M19.83,43.18c0-.39-1.3,3.87,2.43,7.6,0,0,1.25,1.37,2.86-2.86,0,0,3.24,3,3.86,1.37s-1.8-5.68-1.8-5.68.18,2.91-2.43,3.28A4.52,4.52,0,0,1,19.83,43.18Z"/><path class="cls-10" d="M29,48.75c-.62,1.62-3.86-1.37-3.86-1.37-1.61,4.23-2.86,2.86-2.86,2.86a8.69,8.69,0,0,1-2.67-5.84,8.55,8.55,0,0,0,2.67,6.38s1.25,1.37,2.86-2.86c0,0,3.24,3,3.86,1.37a2.17,2.17,0,0,0,.09-.91A1.82,1.82,0,0,1,29,48.75Z"/><g class="cls-4"><path class="cls-16" d="M37.2,59.69a3.72,3.72,0,0,1-.2-.87A14.52,14.52,0,0,0,36.46,57c-.23-.67-.5-1.33-.7-1.82l-.33-.83s-1.86-5.4-1.71-5.46S36,54.1,36,54.1l.29.84c.17.51.4,1.19.59,1.89a11,11,0,0,1,.36,2A2.48,2.48,0,0,1,37.2,59.69Z"/><path class="cls-16" d="M37.3,62.33c-.17,0-.2-.82-.2-.82s.24-.76.41-.74.19.82.19.82S37.46,62.36,37.3,62.33Z"/><path class="cls-16" d="M31.66,80.63c-.06,0,.41-.73.74-1.47A10.46,10.46,0,0,0,33,77.65a10,10,0,0,0,.44-1.55,14.57,14.57,0,0,1,.28-1.62,3.83,3.83,0,0,1,.15,1.68,9.28,9.28,0,0,1-.3,1.68,8.42,8.42,0,0,1-.75,1.52A3.85,3.85,0,0,1,31.66,80.63Z"/></g><g class="cls-17"><path class="cls-14" d="M18.8,79.13a4.08,4.08,0,0,1-.37-.66,5.19,5.19,0,0,0-.29-.72,1.73,1.73,0,0,0,.09.79,4,4,0,0,0,.31.75,3.7,3.7,0,0,0,.51.61,1.57,1.57,0,0,0,.66.44s-.27-.29-.5-.58A4.3,4.3,0,0,1,18.8,79.13Z"/><path class="cls-14" d="M27.26,68.94a11.52,11.52,0,0,1-1.69.14,10.91,10.91,0,0,1-1.67-.17c-.23,0-.41-.1-.54-.12l-.21-.05-.2-.06c-.13,0-.32-.07-.53-.15a10.53,10.53,0,0,1-1.55-.66,11.3,11.3,0,0,1-1.42-.93,6.66,6.66,0,0,0-.6-.48,2.67,2.67,0,0,0,.53.57,9.33,9.33,0,0,0,1.38,1,10.62,10.62,0,0,0,1.57.73c.22.09.41.13.54.18l.21.06.21,0c.14,0,.33.08.56.11a10,10,0,0,0,1.73.11,9.58,9.58,0,0,0,1.7-.23,2.9,2.9,0,0,0,.74-.25S27.71,68.87,27.26,68.94Z"/><path class="cls-14" d="M33.5,77.76s0,.44-.08.87a4.08,4.08,0,0,1-.22.82,4.14,4.14,0,0,1-.34.78c-.2.37-.5.69-.48.73a1.78,1.78,0,0,0,.66-.62,3.39,3.39,0,0,0,.44-.79,4.1,4.1,0,0,0,.16-.9A1.78,1.78,0,0,0,33.5,77.76Z"/><path class="cls-14" d="M36.82,67.58c-.36.22-.73.41-.73.41s-.35.22-.73.41a5.87,5.87,0,0,0-.76.38,2.18,2.18,0,0,0,.84-.19,6.89,6.89,0,0,0,.8-.34,5.89,5.89,0,0,0,.7-.5,2.18,2.18,0,0,0,.6-.62A5,5,0,0,0,36.82,67.58Z"/><path class="cls-14" d="M31.89,65.85c0,.07,0,.14,0,.2s0,.11,0,.16v.1c0,.27,0,.64-.05,1.1-.06.91-.19,2.12-.37,3.32l-.09.58c-.18,1-.38,2-.56,2.7s-.38,1.48-.38,1.48-.16.58-.45,1.45-.63,1.75-1,2.78v0a3.59,3.59,0,0,0-.12.35c-.13.4-.24.81-.34,1.2h-.18c.09-.42.19-.85.32-1.27,0-.12.07-.25.11-.37s0,0,0,0c.31-1,.66-2,.89-2.78s.43-1.45.43-1.45.18-.57.4-1.45.42-1.69.61-2.68c0-.19.07-.38.1-.57.21-1.2.37-2.4.46-3.3a2.38,2.38,0,0,0,0-.36,2.25,2.25,0,0,1-.1.33.19.19,0,0,1,0,.1s0-.19.08-.44a7.77,7.77,0,0,0,.11-1.18v0a7.53,7.53,0,0,0-.05-1,11.25,11.25,0,0,0-.28-1.43c0-.09-.05-.19-.08-.28q-.11-.37-.24-.75a22.12,22.12,0,0,0-1.59-3.23l-.37-.64c-.14-.25-.26-.44-.34-.58l-.12-.21s-.33-.57-.79-1.45c-.19-.38-.4-.81-.61-1.28-.29-.64-.58-1.34-.84-2.06a26.73,26.73,0,0,1-1-3.5c-.08-.37-.13-.69-.17-1a2.23,2.23,0,0,1,0-.23c0-.07,0-.14,0-.19s0-.06,0-.09h0a.82.82,0,0,1,0-.14.28.28,0,0,1,0,.13h0s0,.09,0,.15l0,.13c0,.09,0,.2.07.32s.12.52.19.84a30.61,30.61,0,0,0,1.08,3.45c.29.75.6,1.48.91,2.13.21.43.41.82.59,1.16.32.61.58,1.06.71,1.28l.09.15.16.28c.14.25.36.66.65,1.16a21.87,21.87,0,0,1,1.55,3.3c.1.28.18.57.26.85l.06.25a9,9,0,0,1,.22,1.4A6.79,6.79,0,0,1,31.89,65.85Z"/></g><g class="cls-4"><path class="cls-14" d="M33,63.4a7.53,7.53,0,0,1-1.21,0,6.45,6.45,0,0,0-2.55.34,14.37,14.37,0,0,1-2.59.76,5.44,5.44,0,0,1-1.26.07l-.35,0a4.67,4.67,0,0,1-.9-.25,8.84,8.84,0,0,1-2.33-1.4,11.21,11.21,0,0,1-2-1.79A2.38,2.38,0,0,1,19.27,60c.05,0,.26.42.76.93a13.22,13.22,0,0,0,2.07,1.6,9.09,9.09,0,0,0,2.26,1.22,3.86,3.86,0,0,0,.8.18,2.33,2.33,0,0,0,.31,0,5.16,5.16,0,0,0,1.15,0,15.57,15.57,0,0,0,2.53-.62,6.57,6.57,0,0,1,1.44-.24,7.93,7.93,0,0,1,1.26.08A4.22,4.22,0,0,1,33,63.4Z"/></g><path class="cls-9" d="M15.44,55.39c0,.24,0,.49,0,.74s0,.5,0,.76,0,.67,0,1a.41.41,0,0,0,0,.11c0,.35,0,.7,0,1.06v0c0,.11,0,.23,0,.34h0v.17c0,.11,0,.21,0,.32,0,.46-.05.92-.08,1.38,0,.3,0,.6-.05.9l-.09,1.22v0c0,.2,0,.41-.05.61s0,.11,0,.16v.07l-.09,1.07c0,.49-.09,1-.13,1.46-.07.67-.13,1.33-.19,2,0,.43-.09.85-.13,1.27s-.09.81-.13,1.21l0,.27c0,.25-.05.49-.08.73s-.06.48-.08.71-.09.69-.12,1c-.13,1.17-.26,2.15-.35,2.89,0,0,0,.09,0,.14,0,.21,0,.4-.06.56a.13.13,0,0,0,0,.06s0,.1,0,.14v0a1.29,1.29,0,0,0,0,.25,31.41,31.41,0,0,1-.72,3.23H4.89L5,81c.05-.13.1-.26.14-.38a.42.42,0,0,0,0-.1c0-.1.08-.19.11-.28l.12-.32,0-.09.11-.27s0,0,0,0,0-.16.08-.23a.14.14,0,0,0,0-.06l0-.08,0-.07a.64.64,0,0,1,0-.07.06.06,0,0,0,0,0s0,0,0,0,0,0,0-.06l0,0a.93.93,0,0,0,0-.13.4.4,0,0,0,0-.13s0,0,0,0l0-.14s0,0,0-.08,0-.13,0-.2H6a2,2,0,0,0,0-.26.28.28,0,0,0,0-.09,1.87,1.87,0,0,0,0-.25c0-.12,0-.26,0-.4v0c0-.13,0-.26,0-.4s0-.07,0-.11,0-.23,0-.34,0-.08,0-.12,0-.31,0-.48v0c0-.16,0-.32,0-.49a.49.49,0,0,0,0-.12,1.23,1.23,0,0,0,0-.19c0-.25,0-.52.08-.79s0-.4,0-.61c0-.49.09-1,.14-1.54,0-.25.05-.5.07-.76v0c.46-5.15,1-11.73,1.65-16.09h0a16.11,16.11,0,0,1,1-4.44,7.88,7.88,0,0,1,1.76-2l0,0,.41-.3a5.88,5.88,0,0,1,.51-.35l.48-.29.05,0v0l.25-.13a8.28,8.28,0,0,1,1-.45,1.69,1.69,0,0,1,.37.42l.15.26a4,4,0,0,1,.39,1c0,.13.07.27.11.41a16.71,16.71,0,0,1,.36,2.35c0,.54.08,1.13.11,1.75a2.72,2.72,0,0,0,0,.28v0c0,.11,0,.22,0,.34s0,.45,0,.68v0C15.43,54.78,15.44,55.08,15.44,55.39Z"/><path class="cls-10" d="M15.44,55.39c0,.24,0,.49,0,.74s0,.5,0,.76,0,.67,0,1a.2.2,0,0,0,0,.11h0c0,.35,0,.7,0,1.06v0c0,.11,0,.23,0,.34h0v.12c0,.12,0,.25,0,.37,0,.46-.05.92-.08,1.38,0,.3,0,.6-.05.9l-.09,1.22v0c0,.2,0,.41-.05.61s0,.11,0,.16l-.09,1.14c0,.49-.09,1-.13,1.46-.07.67-.13,1.33-.19,2,0,.43-.09.85-.13,1.27s-.09.81-.13,1.21l0,.27c0,.25-.06.49-.08.73s-.06.48-.08.71-.09.69-.12,1c-.06.5-.12,1-.17,1.39h0l-.18,1.49s0,.09,0,.14,0,.29,0,.41,0,.07,0,.1,0,0,0,0a.13.13,0,0,0,0,.06s0,.06,0,.09v.08a1.29,1.29,0,0,0,0,.25,31.41,31.41,0,0,1-.72,3.23H9.39a1.76,1.76,0,0,0-.45-.66C7.64,79.48,6.22,80,5,81c.05-.13.1-.26.14-.38a.42.42,0,0,0,0-.1c0-.1.08-.19.11-.28l0-.07.09-.25,0-.09.11-.27s0,0,0,0,0-.16.08-.23a.14.14,0,0,0,0-.06l0-.08,0-.07a.64.64,0,0,1,0-.07.06.06,0,0,0,0,0s0,0,0,0,0,0,0-.06l0,0a.93.93,0,0,0,0-.13.4.4,0,0,0,0-.13s0,0,0,0l0-.14s0,0,0,0v0H6l0-.2H6a2,2,0,0,0,0-.26.28.28,0,0,0,0-.09,1.87,1.87,0,0,0,0-.25s0,0,0-.08l0-.32v0c0-.13,0-.26,0-.4s0-.07,0-.11,0-.23,0-.34,0-.08,0-.12,0-.31,0-.48v0c0-.16,0-.32,0-.49a.49.49,0,0,0,0-.12,1.23,1.23,0,0,0,0-.19l0-.26a.37.37,0,0,1,0-.11c0-.14,0-.28,0-.42s0-.4,0-.61,0-.11,0-.17,0-.07,0-.1,0-.36,0-.55a.41.41,0,0,1,0-.11c0-.2,0-.4,0-.61s.05-.5.07-.76a16.91,16.91,0,0,0,1.38,4.87C9.72,79,12.8,72.13,13.38,63q.16-2.59.18-4.59v0h0c0-.31,0-.61,0-.89,0-.74,0-1.42,0-2,0-1-.11-1.84-.2-2.55-.45-3.69-1.38-4-1.39-4.21s-.2-.33-.34-.5c.17-.13.34-.24.51-.35l.53-.31.46-.24a3.67,3.67,0,0,1,1.18.06l.15.26a5,5,0,0,1,.39,1c0,.13.07.27.11.41a20.27,20.27,0,0,1,.36,2.35c0,.54.08,1.13.11,1.75a2.72,2.72,0,0,0,0,.28v0a.09.09,0,0,1,0,0v.29c0,.22,0,.45,0,.68v0C15.43,54.78,15.44,55.08,15.44,55.39Z"/><g class="cls-7"><path class="cls-18" d="M9.18,77.92a7.66,7.66,0,0,1-1,.22,8.49,8.49,0,0,0-.92.3,8.39,8.39,0,0,0-.9.34c-.44.21-.86.47-.88.44a2.7,2.7,0,0,1,.78-.62,5.9,5.9,0,0,1,.9-.45,7,7,0,0,1,1-.22A2.75,2.75,0,0,1,9.18,77.92Z"/><path class="cls-18" d="M7.7,77.46s-.22.21-.48.36a5.12,5.12,0,0,1-.53.28s-.28.1-.57.17a1.4,1.4,0,0,1-.6.07s.26-.15.53-.27l.53-.24.55-.2A2.05,2.05,0,0,1,7.7,77.46Z"/><path class="cls-18" d="M15,64.56a8.09,8.09,0,0,1,0-1.13c0-.67.06-1.57,0-2.47,0-1.8-.21-3.58-.21-3.58s-.15-1.79-.48-3.56c-.16-.88-.36-1.76-.52-2.42a8.32,8.32,0,0,1-.25-1.09,1,1,0,0,1,.11.28c.06.19.16.46.25.78.2.65.43,1.53.62,2.41a35.32,35.32,0,0,1,.57,3.57s.16,1.8.13,3.61c0,.91-.08,1.81-.15,2.48,0,.34-.07.62-.1.81A1.16,1.16,0,0,1,15,64.56Z"/><path class="cls-18" d="M15.28,59.51s.17-.8.27-1.6a13.39,13.39,0,0,0,.09-1.6,11.44,11.44,0,0,0-.05-1.61c-.07-.81-.26-1.6-.22-1.61a5.83,5.83,0,0,1,.44,1.58A12.84,12.84,0,0,1,16,56.31,11.91,11.91,0,0,1,15.76,58,5.51,5.51,0,0,1,15.28,59.51Z"/></g><path class="cls-6" d="M39.93,21.77A2.33,2.33,0,0,1,43.16,21c2.2,1.45,1.1,9-1.89,8.94S39.4,21.61,39.93,21.77Z"/><path class="cls-8" d="M39.93,21.77A2.33,2.33,0,0,1,43.16,21c2.2,1.45,1.1,9-1.89,8.94S39.4,21.61,39.93,21.77Z"/><path class="cls-19" d="M42.67,27.71c0-.06-.22,0-.48-.08a.46.46,0,0,1-.32-.26.77.77,0,0,1,0-.5.9.9,0,0,1,.28-.43c.11-.11.26-.15.46-.31a.87.87,0,0,0,.28-.77.7.7,0,0,0-.09-.29.83.83,0,0,0-.16-.24,1.18,1.18,0,0,0-.28-.23,1.12,1.12,0,0,0-.22-.09h0s0,0,0,0a1.09,1.09,0,0,0,0-.13.69.69,0,0,1,0-.2,2.38,2.38,0,0,1,.31-.8c.29-.51.73-.71.72-.79s-.53,0-1,.5a2.68,2.68,0,0,0-.52.94,2.33,2.33,0,0,0-.07.25,1.55,1.55,0,0,0,0,.29c0,.24,0,.48,0,.65a2.72,2.72,0,0,1,.43,0,.31.31,0,0,1,.1.05.79.79,0,0,1,.13.13.46.46,0,0,1,.06.1s0,0,0,0a5.4,5.4,0,0,0-.45.39,1.58,1.58,0,0,0-.39.82,1.23,1.23,0,0,0,.17.88.64.64,0,0,0,.57.29C42.5,27.92,42.68,27.75,42.67,27.71Z"/><path class="cls-8" d="M41.27,30c-3-.1-1.87-8.37-1.34-8.21a2.78,2.78,0,0,1,1.69-1.12,5.36,5.36,0,0,0,.2,3.07s.79-1.25,1.21-.83-.22,2.42.68,2.62c.28.06.46-.16.58-.49C44.12,27.45,43,30,41.27,30Z"/><g class="cls-4"><path class="cls-20" d="M44.05,22.72c.12.42.07.84-.12,1s-.46-.16-.58-.59-.08-.85.12-.95S43.92,22.29,44.05,22.72Z"/><path class="cls-20" d="M43.28,21.49a.34.34,0,0,1-.15.39.21.21,0,0,1-.32-.11.33.33,0,0,1,.15-.38A.21.21,0,0,1,43.28,21.49Z"/></g><path class="cls-6" d="M6.54,22C6.3,15.2,9.1,4.19,23.4,4.08S39.94,19.75,39.94,19.75A43.19,43.19,0,0,1,41.27,30c-.17,4.43-2.48,11-12.77,12.08s-18.22-3.27-20.07-9.6a5.26,5.26,0,0,1-4.85-4.24C2.86,25.3,4.45,22.34,6.54,22Z"/><g class="cls-7"><path class="cls-8" d="M6.54,22a21.9,21.9,0,0,1,.83-6.83A17.46,17.46,0,0,1,9.7,10.28C7.64,13.74,7.28,18.94,7.39,22.1c-.18,0-.61-.09-.9-.1Z"/><path class="cls-8" d="M4.66,23.14a6.07,6.07,0,0,0-.42,4.07,5.26,5.26,0,0,0,4.85,4.24c1.85,6.33,9.78,10.65,20.07,9.6,5.42-.56,8.63-2.65,10.47-5.15-1.7,2.93-5,5.53-11.13,6.16-10.29,1-18.22-3.27-20.07-9.6a5.26,5.26,0,0,1-4.85-4.24A5.85,5.85,0,0,1,4.66,23.14Z"/></g><g class="cls-7"><path class="cls-6" d="M5.8,29.8a.94.94,0,0,0,.42.84.71.71,0,0,0,.42.15.68.68,0,0,0,.52-.24,1.17,1.17,0,0,0,.31-.64.88.88,0,0,0-.22-.78,3.21,3.21,0,0,0-.44-.29.69.69,0,0,1-.21-.26.91.91,0,0,1,0-.62.44.44,0,0,1,.31-.33.28.28,0,0,1,.13,0h.13l.08,0,0,0,.11.16c.16.24.29.3.44.31A.46.46,0,0,0,8.06,28a.62.62,0,0,0,.15-.29,4,4,0,0,0,.08-.88c0-.21,0-.41,0-.62a3.44,3.44,0,0,0-.32-1.13,1.87,1.87,0,0,0-.6-.73c-.43-.32-.8-.22-.79-.17s.31.1.63.45a2.57,2.57,0,0,1,.58,1.68,4.87,4.87,0,0,1,0,.54c0,.17,0,.13,0,.17s-.07,0-.07,0h0l-.09-.08a1.24,1.24,0,0,0-.2-.1,1,1,0,0,0-.65,0,.93.93,0,0,0-.28.16,1.39,1.39,0,0,0-.5.83A1.75,1.75,0,0,0,6.11,29a1.24,1.24,0,0,0,.44.44,3.07,3.07,0,0,1,.39.18.24.24,0,0,1,.09.22.75.75,0,0,1-.13.34.42.42,0,0,1-.55.13C6,30.15,5.84,29.76,5.8,29.8Z"/></g><path class="cls-20" d="M5.15,24.37c-.3.31-.64.4-.76.2s0-.59.31-.89.64-.39.76-.2S5.45,24.07,5.15,24.37Z"/><path class="cls-20" d="M6.27,22.9a.33.33,0,0,1-.15.38.21.21,0,0,1-.32-.1A.36.36,0,0,1,6,22.79.21.21,0,0,1,6.27,22.9Z"/><path class="cls-8" d="M25.75,30.66a5.52,5.52,0,0,0,4.34-1.18s1.21.78-.95,1.6C26.26,32.18,25.75,30.66,25.75,30.66Z"/><g class="cls-7"><path class="cls-6" d="M27,31.27a6,6,0,0,0,.9,0,5.34,5.34,0,0,0,1.85-.63,1.1,1.1,0,0,0,.6-.63.56.56,0,0,0-.25-.56,1.54,1.54,0,0,0-.51-.22,1,1,0,0,0-.21,0,2.28,2.28,0,0,0-.51,0,3.21,3.21,0,0,0-.61.09,3.44,3.44,0,0,0-.37.14,6.59,6.59,0,0,0-.79.49v-1c0-.19,0-.4,0-.61,0-.41,0-.84.05-1.22a6.28,6.28,0,0,1,.13-1.36,5.19,5.19,0,0,1,.16,1.36c0,.38.05.81.07,1.23l0,.61c0,.06,0,.08,0,.09l.08-.06.43-.18a3.51,3.51,0,0,1,.73-.15,2.78,2.78,0,0,1,.63,0,1.87,1.87,0,0,1,.28.06,1.94,1.94,0,0,1,.7.36,1.35,1.35,0,0,1,.35.45,1.09,1.09,0,0,1,0,.67,1.52,1.52,0,0,1-.88.88,4.86,4.86,0,0,1-2,.48A1.31,1.31,0,0,1,27,31.27Z"/></g><path class="cls-20" d="M28.94,29.59c0,.14-.14.35-.43.47s-.58.1-.64,0,.14-.35.43-.46S28.88,29.45,28.94,29.59Z"/><path class="cls-8" d="M22.46,30.9c0,1.36-1.72,2.48-3.87,2.51S14.67,32.35,14.66,31s1.72-2.49,3.87-2.51S22.44,29.54,22.46,30.9Z"/><path class="cls-8" d="M40.52,29.11c.26,1.33-1.22,2.74-3.31,3.15s-4-.35-4.25-1.69,1.22-2.74,3.31-3.15S40.26,27.77,40.52,29.11Z"/><path class="cls-8" d="M32.75,33.27h-.56a2.88,2.88,0,0,0-2.36,1.25s-.25-1-4.67-.25a4.31,4.31,0,0,1-2.23-.15c-.2-.08-.12-.32-.3-.41s-.35-.58-.55-.61.15.91.18,1a4.58,4.58,0,0,0,.84,1.34,5.91,5.91,0,0,0,3.64,2.12,3.68,3.68,0,0,0,2.84-.53,1.67,1.67,0,0,0,.23-.23,1.7,1.7,0,0,0,.32-.5,1.14,1.14,0,0,0,.09-.26,1.65,1.65,0,0,0,0-.85A3.47,3.47,0,0,0,32.75,33.27Z"/><path class="cls-14" d="M30.05,34a18.37,18.37,0,0,0-2.4.27.47.47,0,0,1-.53-.23,8.08,8.08,0,0,1-5.18-1c.79,1.44,2.41,3.7,4.95,4,3.77.48,3.81-2.26,3.35-2.65A.71.71,0,0,1,30.05,34Z"/><path class="cls-15" d="M30.05,34l-.85.07c.08.11.15.17.21.14.37-.19,1.12,0,.83,1.19s-2.79,2.13-4.67,1-.81-1.76-.81-1.76l-.53-.68A6,6,0,0,1,21.94,33c.79,1.44,2.41,3.7,4.95,4,3.77.48,3.81-2.26,3.35-2.65A.71.71,0,0,1,30.05,34Z"/><path class="cls-14" d="M22.21,33.48a13.5,13.5,0,0,0,7.06,1.43c3.1-.43,3.63-2.18,3.63-2.18S30.66,32.65,30,34c0,0-.25-1-4.68-.24C23.57,34.06,23,33.39,22.21,33.48Z"/><path class="cls-21" d="M27.65,36.19c0,.2-.32.33-.67.3s-.63-.2-.61-.39.31-.33.66-.3S27.66,36,27.65,36.19Z"/><path class="cls-15" d="M22.21,33.48a13.5,13.5,0,0,0,7.06,1.43c3.1-.43,3.63-2.18,3.63-2.18S30.66,32.65,30,34c0,0-.25-1-4.68-.24C23.57,34.06,23,33.39,22.21,33.48Z"/><path class="cls-15" d="M32.35,32.75c-.18.71-1.61,2.07-4.12,1.73-1.59-.22-2.08-.56-2.2-.83-.22,0-.46.06-.72.11-1.74.3-2.27-.37-3.1-.28a13.5,13.5,0,0,0,7.06,1.43c3.1-.43,3.63-2.18,3.63-2.18A4.48,4.48,0,0,0,32.35,32.75Z"/><path class="cls-2" d="M19.48,20.44c0,.08-.38.11-.69.25a2.37,2.37,0,0,0-.58.33,2.56,2.56,0,0,0-.56.35c-.26.22-.45.53-.53.5s0-.42.21-.77a2.44,2.44,0,0,1,.57-.6,2.58,2.58,0,0,1,.79-.23C19.11,20.23,19.49,20.36,19.48,20.44Z"/><path class="cls-2" d="M36.33,20.36c-.07,0-.32-.25-.63-.43a2.63,2.63,0,0,0-.63-.28,2.43,2.43,0,0,0-.65-.22,1.48,1.48,0,0,0-.47,0c-.13,0-.22.05-.25,0s0-.13.15-.24a1.21,1.21,0,0,1,.57-.2,2.22,2.22,0,0,1,.87.08,2.51,2.51,0,0,1,.69.51C36.27,19.92,36.41,20.33,36.33,20.36Z"/><path class="cls-8" d="M39.94,19.75S37.77,4,23.4,4.08,6.3,15.2,6.54,22C5,22.26,3.65,24,3.44,26.17c1.64-.44,3.46-2.34,4-2.91.24,1.6,1.15,7.11,1.84,11.2A12.07,12.07,0,0,0,12.16,38c.2-4.24.57-12.22.75-15.35a16.73,16.73,0,0,0,3-1.89,35.43,35.43,0,0,0,8.16-8.56S33,16.71,38.43,15.82c0,0,2,5,2,7l.11-.13C40.26,21,39.94,19.75,39.94,19.75Z"/><path class="cls-2" d="M28.16.39C21.65-1.07,18.54,2,18.54,2S11.22-.73,5.75,4.91c0,0-5,1.67-5.71,13.86C-.59,30,5.83,23.33,6.88,22.18c.4,2.65,2.64,16,2.64,16l2,1.5s.62-13.74.87-18.08a17.44,17.44,0,0,0,3-1.9,35.43,35.43,0,0,0,8.16-8.56s9,4.53,14.35,3.64c0,0,2,5,2,7,0,0,1.42-1.81,3.23-.73C43.16,21,44.72,4.1,28.16.39Z"/><path class="cls-3" d="M19.31,15.92l-.27.2c-.68.5-1.47,1.05-2.29,1.58h0c-2.72,1.77-5.79,3.4-6.44,2.95-1-.71.39-3.34.52-3.58a33.72,33.72,0,0,1-3.43,3.21c-.28.22-.57.43-.85.62-1.31.89-2.59,1.39-3.32.7a3.23,3.23,0,0,1-.5-2.82,16.68,16.68,0,0,1,.85-3.17l0-.09,0-.09c.22-.62.45-1.18.63-1.6-.29.57-.68,1.32-1.11,2l0,0c-.65,1-1.38,1.84-1.94,1.61S.63,15.12.84,12.94l0,.08v0c-.06.25-.11.5-.16.76C.54,14.36.44,15,.35,15.59c0,.33-.09.67-.12,1s-.07.7-.1,1.06-.06.73-.08,1.11c0,.73,0,1.38,0,2,0,.16,0,.31,0,.46v0a6.39,6.39,0,0,0,0,.64c0,.13,0,.25,0,.37l.06.36q0,.16.06.3c0,.1,0,.2.07.3a2.76,2.76,0,0,0,.08.27,3,3,0,0,0,.43.92,1.09,1.09,0,0,0,.13.17,2,2,0,0,0,.19.21,1.56,1.56,0,0,0,.27.2l.14.07.15.06.19,0h0a2,2,0,0,0,.55,0,1.54,1.54,0,0,0,.3,0l.09,0,.22-.06L3.31,25h.06l.1-.05.28-.14h0l.45-.25.09-.06,0,0a11.12,11.12,0,0,0,1.14-.88c.12-.1.24-.2.35-.31s.25-.23.36-.34l0,0,.38-.39a3,3,0,0,0,.26-.28c0,.1,0,.21,0,.34s.06.39.1.63,0,.29.07.45a0,0,0,0,1,0,0c0,.2.07.42.1.65a.13.13,0,0,1,0,.06l0,.17a0,0,0,0,1,0,0s0,.06,0,.1l0,.15h0c0,.27.09.55.14.84a.77.77,0,0,1,0,.15c.06.34.12.7.18,1.07l0,.17h0c0,.35.11.71.17,1.08h0c0,.09,0,.18,0,.27.07.45.15.91.23,1.38s.11.7.17,1.05v-.66c0-.44,0-.88,0-1.3h0c0-.12,0-.22,0-.33v0c0-.37.06-.71.1-1h0a2.24,2.24,0,0,1,.46-1.32c.52-.4.79.58.93,1.6v.05c.11.87.13,1.74.13,1.74a22.39,22.39,0,0,1,.14-2.35V27.1c.15-1.05.41-2.05.92-2,.24,0,.41.45.54,1.08v.06c.06.3.11.64.15,1,0,0,0,0,0,0,.12,1.18.16,2.64.17,3.83,0-.43,0-.86.07-1.29L12,28.47c0-.47.05-.95.07-1.41,0-.29,0-.57,0-.84,0-.47,0-.94.07-1.38,0-.11,0-.22,0-.33,0-.54,0-1,.07-1.5,0-.19,0-.36,0-.53,0-.34,0-.65,0-.92a16.72,16.72,0,0,0,3-1.9c.35-.27.69-.54,1-.81s.65-.53.95-.8l.87-.78.63-.6L19,16.5l.4-.4c.36-.36.69-.71,1-1C20.11,15.31,19.74,15.6,19.31,15.92Z"/><path class="cls-3" d="M25.88,10.67a4.46,4.46,0,0,1,3.24.07S23.2,6.58,24.4,5.25a13.46,13.46,0,0,1,3.88-2.47s-3.32-.07-5,1.06c0,0-2.62-.1-.39-1.5,0,0-2.11-.41-2.32-1.53a6.89,6.89,0,0,0-2,1.23,13.48,13.48,0,0,0-7.89-.15,3.2,3.2,0,0,1,2.47.54c1.06,1.12-2,4.27-2,4.27S15,4.82,15.8,5.17s-4,4.16-4,4.16S17.28,6.8,17.49,7.5s-1.9,2.82-1.9,2.82,6.27-4.09,5.43.92a13.91,13.91,0,0,1-2.18,5.43,31.53,31.53,0,0,0,4.7-5.57,46.42,46.42,0,0,0,6.27,2.53C27.79,12.66,25,11.14,25.88,10.67Z"/><g class="cls-4"><path class="cls-2" d="M12.44,21s.09-.09.27-.22l.73-.54c.6-.45,1.41-1,2.21-1.65s1.57-1.23,2.14-1.72.93-.83.93-.83a25.42,25.42,0,0,0,2.77-2.88,23.29,23.29,0,0,0,1.58-2.25l.46-.78a1.19,1.19,0,0,1,.19-.29,1.76,1.76,0,0,1-.13.32c-.1.2-.24.48-.42.81a18.15,18.15,0,0,1-1.52,2.32,24.81,24.81,0,0,1-2.72,3s-.38.34-1,.82-1.38,1.1-2.19,1.68-1.65,1.16-2.28,1.57l-.76.5A1.54,1.54,0,0,1,12.44,21Z"/></g><g class="cls-4"><path class="cls-2" d="M12.24,21.37a2.89,2.89,0,0,1-.9.71,6.13,6.13,0,0,1-1.06.45,6.41,6.41,0,0,1-1.15.14A2.84,2.84,0,0,1,8,22.51s.57,0,1.12-.05a6.27,6.27,0,0,0,1.08-.23,6.22,6.22,0,0,0,1-.35C11.75,21.66,12.21,21.34,12.24,21.37Z"/></g><g class="cls-4"><path class="cls-2" d="M18.58,8.05s.12-.31.34-.56a3.38,3.38,0,0,1,.5-.45A4.12,4.12,0,0,1,20,6.78a1.28,1.28,0,0,1,.66-.06,3.23,3.23,0,0,1-.58.26,4.1,4.1,0,0,0-.54.32,4.32,4.32,0,0,0-.51.34C18.82,7.84,18.61,8.08,18.58,8.05Z"/></g><g class="cls-4"><path class="cls-2" d="M9.37,13.11a1,1,0,0,1,.09-.29,5.45,5.45,0,0,1,.32-.73,8.83,8.83,0,0,1,1.37-2,12.06,12.06,0,0,1,1.78-1.66c.53-.4.9-.63.9-.63s.38-.24,1-.55a24.22,24.22,0,0,1,2.19-1,9.43,9.43,0,0,1,2.31-.74,2,2,0,0,1,.8.08c.19.07.28.14.27.15a2.1,2.1,0,0,0-1.06-.11,9.48,9.48,0,0,0-2.23.82,23.44,23.44,0,0,0-2.14,1.08c-.57.32-.93.56-.93.56s-.38.23-.9.61a12.65,12.65,0,0,0-1.8,1.57,10,10,0,0,0-1.42,1.91C9.56,12.71,9.4,13.12,9.37,13.11Z"/></g><g class="cls-4"><path class="cls-2" d="M1.77,26.21s.27-.23.69-.56,1-.77,1.52-1.23C5.06,23.49,6,22.48,6,22.48s1-1,1.94-2.08c.46-.54.91-1.09,1.23-1.51a6.53,6.53,0,0,1,.56-.7,6.24,6.24,0,0,1-.46.76c-.3.45-.72,1-1.16,1.59-.89,1.12-1.89,2.15-1.89,2.15s-1,1-2.15,1.89c-.56.45-1.13.87-1.58,1.17A4.12,4.12,0,0,1,1.77,26.21Z"/></g><g class="cls-4"><path class="cls-2" d="M4.22,22.07a6.35,6.35,0,0,1-.7,1l-.73,1L2,25a7.09,7.09,0,0,1-.79.94,5.93,5.93,0,0,1,.62-1.07c.33-.51.69-1,.69-1s.39-.48.8-.93A5.28,5.28,0,0,1,4.22,22.07Z"/></g><g class="cls-4"><path class="cls-2" d="M8.93,8.41l-.25.3L8,9.45c-.58.61-1.35,1.43-2.05,2.3a17.51,17.51,0,0,0-1.72,2.53,13.11,13.11,0,0,0-.61,1.25s-.23.5-.51,1.29-.58,1.87-.89,2.95-.61,2.16-.84,3l-.29,1a1.5,1.5,0,0,1-.13.36A2.47,2.47,0,0,1,1,23.7l.24-1c.2-.82.48-1.9.75-3s.56-2.18.83-3,.49-1.32.49-1.32A12.82,12.82,0,0,1,4,14.14a17.65,17.65,0,0,1,1.81-2.53C6.5,10.75,7.29,10,7.89,9.36l.74-.7A1.85,1.85,0,0,1,8.93,8.41Z"/></g><g class="cls-4"><path class="cls-2" d="M10.73,7.15a2.41,2.41,0,0,1,.42-.45c.27-.26.63-.59,1-.92s.77-.62,1.07-.84.52-.35.52-.35a9.48,9.48,0,0,1,1.82-.82,4.94,4.94,0,0,1,2-.26,3,3,0,0,1-.61.11A7.42,7.42,0,0,0,15.64,4a9.48,9.48,0,0,0-1.73.88A16.49,16.49,0,0,0,12.29,6C11.51,6.55,10.76,7.18,10.73,7.15Z"/></g><g class="cls-4"><path class="cls-2" d="M3.84,9.81s-.35.74-.68,1.48-.61,1.49-.61,1.49-.31.75-.56,1.52-.45,1.56-.49,1.55a7.16,7.16,0,0,1,.29-1.61c.2-.79.48-1.57.48-1.57s.31-.76.7-1.48A7.77,7.77,0,0,1,3.84,9.81Z"/></g><g class="cls-4"><path class="cls-2" d="M10.71,42.8c-.09,0,.45-10.44.45-10.44s.67-10.42.75-10.41-.45,10.43-.45,10.43S10.79,42.8,10.71,42.8Z"/></g><g class="cls-4"><path class="cls-2" d="M9.13,39.73a1.2,1.2,0,0,1-.05-.37c0-.24,0-.57-.06-1,0-.81-.12-1.89-.21-3-.17-2.16-.42-4.3-.42-4.3S8.17,29,7.88,26.83c-.15-1.07-.31-2.14-.43-2.94l-.15-1a1.47,1.47,0,0,1,0-.37,1.84,1.84,0,0,1,.1.36c0,.23.12.56.2,1,.16.79.35,1.86.53,2.92.35,2.14.6,4.29.6,4.29s.22,2.16.33,4.32c.06,1.08.1,2.16.12,3,0,.4,0,.74,0,1A2.21,2.21,0,0,1,9.13,39.73Z"/></g><g class="cls-4"><path class="cls-2" d="M9.9,30.19a12.88,12.88,0,0,1-.05-1.71c0-.85,0-1.7,0-1.7v-1.7a12.87,12.87,0,0,1,0-1.71,10.89,10.89,0,0,1,.19,1.7c.05.85.08,1.71.08,1.71s0,.85-.06,1.71A10.37,10.37,0,0,1,9.9,30.19Z"/></g><g class="cls-4"><path class="cls-2" d="M24.59,1.71a5.39,5.39,0,0,1-.88.29,6.89,6.89,0,0,0-.83.34,8.79,8.79,0,0,0-.82.39,7.65,7.65,0,0,1-.8.46,2.38,2.38,0,0,1,.68-.64,6,6,0,0,1,.81-.48,6.58,6.58,0,0,1,.91-.28A2.51,2.51,0,0,1,24.59,1.71Z"/></g><g class="cls-4"><path class="cls-2" d="M31.53,3.05a7.58,7.58,0,0,1-.77-.1,11.83,11.83,0,0,0-1.68-.11A12.61,12.61,0,0,0,27.41,3c-.45.07-.75.14-.75.14s-.3.06-.74.18a12.58,12.58,0,0,0-1.58.55,13.26,13.26,0,0,0-1.49.8,5.25,5.25,0,0,1-.66.4,4,4,0,0,1,.59-.5,10.53,10.53,0,0,1,1.47-.89A12.1,12.1,0,0,1,25.84,3c.45-.13.76-.2.76-.2s.3-.07.77-.13a11.14,11.14,0,0,1,1.71-.08,10.89,10.89,0,0,1,1.7.2A3.11,3.11,0,0,1,31.53,3.05Z"/></g><g class="cls-4"><path class="cls-2" d="M41.52,13.08a1.75,1.75,0,0,1-.34.22,7.36,7.36,0,0,1-.94.47,11.23,11.23,0,0,1-3.12.76,18,18,0,0,1-3.22,0c-.87-.08-1.45-.17-1.45-.17s-.58-.09-1.44-.26a24.9,24.9,0,0,1-3.11-.81,11.66,11.66,0,0,1-2.83-1.52c-.35-.25-.64-.47-.84-.63a1.57,1.57,0,0,1-.31-.26,1.85,1.85,0,0,1,.34.21l.88.58A11.85,11.85,0,0,0,28,13.06a22.72,22.72,0,0,0,3.1.74c.85.16,1.42.24,1.42.24s.57.1,1.44.19a17.85,17.85,0,0,0,3.17.08,11.34,11.34,0,0,0,3.1-.65C41,13.36,41.5,13.05,41.52,13.08Z"/></g><g class="cls-4"><path class="cls-2" d="M42.28,16.39a2.72,2.72,0,0,1-1.26.32,4.79,4.79,0,0,1-1.31-.15A4.68,4.68,0,0,1,38.53,16a2.78,2.78,0,0,1-.88-1s.46.45,1,.77a4.63,4.63,0,0,0,1.15.48,4.79,4.79,0,0,0,1.22.22A11.8,11.8,0,0,0,42.28,16.39Z"/></g><g class="cls-4"><path class="cls-2" d="M41.13,20.56a4.46,4.46,0,0,1-.35-.73c-.17-.36-.37-.7-.37-.7s-.16-.36-.36-.71a3.44,3.44,0,0,1-.39-.7s.32.26.57.58.45.69.45.69.17.37.3.76A2.24,2.24,0,0,1,41.13,20.56Z"/></g><g class="cls-4"><path class="cls-2" d="M33.3,5.23s-.72-.11-1.43-.1a8.24,8.24,0,0,0-1.42.12,8.79,8.79,0,0,0-1.38.33c-.68.22-1.31.58-1.33.55A3.85,3.85,0,0,1,29,5.38,7.41,7.41,0,0,1,30.41,5a7.29,7.29,0,0,1,1.47,0A4.12,4.12,0,0,1,33.3,5.23Z"/></g><g class="cls-4"><path class="cls-2" d="M35.78,12.12a.85.85,0,0,1-.27,0c-.17,0-.41,0-.71,0a17.19,17.19,0,0,1-2.12-.24,19.17,19.17,0,0,1-3-.78l-.25-.1-.66-.26a18,18,0,0,1-1.92-1A13.74,13.74,0,0,1,25,8.61a1.56,1.56,0,0,1-.59-.77,2.59,2.59,0,0,0,.66.68A18.53,18.53,0,0,0,26.93,9.6a19.06,19.06,0,0,0,1.93.88l.65.25.25.09a20.73,20.73,0,0,0,3,.85c.75.16,1.52.28,2.09.34S35.78,12.1,35.78,12.12Z"/></g><g class="cls-4"><path class="cls-2" d="M41.21,10.75s-.62-.35-1.25-.65a12.29,12.29,0,0,0-1.28-.52,12.81,12.81,0,0,0-1.31-.44C36.7,9,36,8.86,36,8.81a4.8,4.8,0,0,1,1.41.12,11.64,11.64,0,0,1,1.37.36,10.25,10.25,0,0,1,1.27.62A4.92,4.92,0,0,1,41.21,10.75Z"/></g><path class="cls-3" d="M40.9,18.45c-.58-1.09,1.67-1.73,1.67-1.73a6,6,0,0,1-2.25-.7c-1.48-.71,1-2.44,1.09-2.64l-3.59,1-.17.36.24,0s2,5,2,7c0,0,1.42-1.81,3.23-.73a19,19,0,0,0,0-2.34C42.33,19.09,41.25,19.12,40.9,18.45Z"/><g class="cls-5"><path class="cls-2" d="M11.88,19.48c1.51.4,3.25-1.14,4.35-2,1.34-1.07,2.71-2.17,2.82-4a.51.51,0,0,0-.63-.48c-1.61.3-2.6,1.55-3.79,2.56-1,.86-2.87,1.83-3.19,3.17a.64.64,0,0,0,.44.77Z"/></g><g class="cls-5"><path class="cls-2" d="M12.05,16.16a1.82,1.82,0,0,0,1-.42,2.73,2.73,0,0,0,.82-.77c.12-.16-.08-.39-.26-.33a2.94,2.94,0,0,0-1,.54,1.76,1.76,0,0,0-.7.78.15.15,0,0,0,.15.2Z"/></g><g class="cls-5"><path class="cls-2" d="M6.57,20c1.2-1.71,2.44-3.39,3.73-5,1.09-1.36,2.37-2.54,3.42-3.92.25-.33-.16-.76-.5-.66-1.91.51-3.19,2.23-4.35,3.73a17.49,17.49,0,0,0-3,5.55.41.41,0,0,0,.74.32Z"/></g><g class="cls-5"><path class="cls-2" d="M5.06,16.76c.34-.19.4-.76.56-1.1s.46-.82.62-1.27c.08-.22-.23-.37-.38-.22a3.73,3.73,0,0,0-.74,1.28c-.14.36-.46.89-.25,1.26a.14.14,0,0,0,.19.05Z"/></g><g class="cls-5"><path class="cls-2" d="M7.33,12.54C8.39,12.09,9.26,10.84,10,10s2-1.7,2.47-2.82c.05-.12-.09-.22-.19-.19-1.18.28-2.18,1.47-3,2.31s-2,2-2.12,3.11c0,.05,0,.14.11.11Z"/></g><g class="cls-5"><path class="cls-2" d="M2.89,13.83c1.23-1.58,2.32-3.24,3.68-4.72s3.16-2.35,4.1-4a.64.64,0,0,0-.54-1C8,4.43,6.46,6.32,5.21,7.91A12.25,12.25,0,0,0,2.58,13.7a.18.18,0,0,0,.31.13Z"/></g><g class="cls-5"><path class="cls-2" d="M3.63,8.23l.63-.76c.08-.08,0-.21-.13-.12l-.66.72c-.1.11.07.27.16.16Z"/></g><g class="cls-5"><path class="cls-2" d="M10.64,29.31a17.61,17.61,0,0,0-.39,6.51c0,.23.4.33.44.06a17.92,17.92,0,0,0,.08-6.57.07.07,0,0,0-.13,0Z"/></g><g class="cls-5"><path class="cls-2" d="M28,11.24c.8,1.41,2.39,1.8,3.9,2.08a14.07,14.07,0,0,0,6.58,0,.43.43,0,0,0-.11-.84c-3.57-.22-6.95.31-10.28-1.37-.06,0-.13,0-.09.09Z"/></g><g class="cls-5"><path class="cls-2" d="M25.59,5.29A14.25,14.25,0,0,0,28,4.53c.14-.07,0-.29-.1-.25a12.4,12.4,0,0,0-2.34.93c-.05,0,0,.09,0,.08Z"/></g><g class="cls-5"><path class="cls-2" d="M29.4,4a21.39,21.39,0,0,0,2.67.31,6.1,6.1,0,0,0,2.4.12.18.18,0,0,0,0-.33,4.5,4.5,0,0,0-2.59-.5A6.75,6.75,0,0,0,29.39,4s0,0,0,0Z"/></g><g class="cls-5"><path class="cls-2" d="M28.33,8.33c1.06,1.14,3,1.59,4.42,2a10.85,10.85,0,0,0,4.91.62.57.57,0,0,0,.14-1,18.49,18.49,0,0,0-4.58-1.31c-1.47-.34-3.12-1.08-4.64-.92a.36.36,0,0,0-.25.61Z"/></g><g class="cls-5"><path class="cls-2" d="M33.93,7.13c.29.33.79.33,1.2.4a3.83,3.83,0,0,0,1.35,0,.16.16,0,0,0,0-.29,3.68,3.68,0,0,0-1.3-.34A2,2,0,0,0,34,7a.1.1,0,0,0,0,.15Z"/></g><g class="cls-5"><path class="cls-2" d="M24.88,2.32a3.32,3.32,0,0,0,1.37-.27c.55-.13,1.06-.35,1.59-.52.1,0,.12-.2,0-.22a4.18,4.18,0,0,0-1.69,0A2.41,2.41,0,0,0,24.73,2a.25.25,0,0,0,.15.36Z"/></g><path class="cls-22" d="M43,70.22a2.83,2.83,0,0,0-.11-.31h0a2.85,2.85,0,0,0-.46-.75A2.26,2.26,0,0,0,42,68.8a4.29,4.29,0,0,1,.87,3.09,2.68,2.68,0,0,0,.16-.94h0A2.73,2.73,0,0,0,43,70.22Zm-.9-1.1a3.72,3.72,0,0,0-.14-.5,8.35,8.35,0,0,1,0,1.84,8,8,0,0,1-.4,1.83,3.55,3.55,0,0,0,.26-.5,4.67,4.67,0,0,0,.34-1.31A4.75,4.75,0,0,0,42.07,69.12Z"/><path class="cls-2" d="M36.07,24.21a3.18,3.18,0,0,1,1.61.9,3,3,0,0,1,.48.62l.05.08v.08l0,.12a.32.32,0,0,0,.17-.05,2.12,2.12,0,0,0,.31-.21,5.48,5.48,0,0,0,.53-.46c.29-.27.43-.43.43-.43a3.12,3.12,0,0,1-.25.56,4.71,4.71,0,0,1-.41.63,2.49,2.49,0,0,1-.35.4,7,7,0,0,1-.63.52l-.25-.39-.15-.22-.07-.11,0-.06a4.55,4.55,0,0,0-.45-.42,3,3,0,0,0-1.21-.58,2.62,2.62,0,0,0-2.63,1.3,4,4,0,0,0-.5,1c-.09.24-.13.39-.13.39a2,2,0,0,1,0-.42,3.4,3.4,0,0,1,.2-1.15,3.44,3.44,0,0,1,1-1.49A2.68,2.68,0,0,1,36.07,24.21Z"/><path class="cls-2" d="M19,25.25a3.16,3.16,0,0,0-1.5,1.08,3.76,3.76,0,0,0-.4.68l0,.09v.19s-.1,0-.17,0a2.1,2.1,0,0,1-.33-.17c-.24-.14-.43-.28-.59-.39-.31-.24-.47-.38-.47-.38a3.71,3.71,0,0,0,.32.53,4.8,4.8,0,0,0,.47.57,3.18,3.18,0,0,0,.4.35,5.65,5.65,0,0,0,.7.45l.19-.42.12-.24.06-.12,0-.06a3.35,3.35,0,0,1,.39-.47,2.78,2.78,0,0,1,1.13-.72,2.62,2.62,0,0,1,2.77,1,4.17,4.17,0,0,1,.61.89c.12.23.18.37.18.37a2.19,2.19,0,0,0,0-.42,3.43,3.43,0,0,0-.34-1.11,3.38,3.38,0,0,0-1.19-1.36A2.7,2.7,0,0,0,19,25.25Z"/><path class="cls-12" d="M55.18,51.2l6.22,4.45s11-.89,15.41-7.26l-.44-3.06-6.23-1.39L61.3,47.55l-6.6.59A10.18,10.18,0,0,0,55.18,51.2Z"/><path class="cls-23" d="M55.18,51.2l6.22,4.45s11-.89,15.41-7.26l-.44-3.06-6.23-1.39L61.3,47.55l-6.6.59A10.18,10.18,0,0,0,55.18,51.2Z"/><path class="cls-23" d="M60.92,52.57l-5.59-4.49-.63.06a10.18,10.18,0,0,0,.48,3.06l6.22,4.45V55.5Z"/><path class="cls-12" d="M54.7,48.12l6.22,4.45s11-.89,15.41-7.26l-6.67-4.45S68.18,45.9,54.7,48.12Z"/><path class="cls-23" d="M56.67,48.06l5.43,3.8s9-.81,12.57-6.25l-5.3-3.39S67.19,45.82,56.67,48.06Z"/><path class="cls-12" d="M57.3,51.08c1.3,1,2.29,1.86,2.29,1.86s-1.11-.71-2.41-1.7-2.29-1.86-2.29-1.86S56,50.1,57.3,51.08Z"/><path class="cls-12" d="M56.65,51.66a16.33,16.33,0,0,1,1.48,1.16,17.6,17.6,0,0,1-1.59-1,16.33,16.33,0,0,1-1.48-1.16A18.76,18.76,0,0,1,56.65,51.66Z"/><path class="cls-12" d="M59.53,51.9a10.79,10.79,0,0,1,1.22,1A12.41,12.41,0,0,1,58.2,51.1,11.3,11.3,0,0,1,59.53,51.9Z"/><path class="cls-12" d="M59.93,53.64a5.75,5.75,0,0,1,.9.63,6.57,6.57,0,0,1-1-.46,6.41,6.41,0,0,1-.9-.63A6.11,6.11,0,0,1,59.93,53.64Z"/><path class="cls-12" d="M65.29,52.36c2.39-.58,4.28-1.24,4.28-1.24a25.24,25.24,0,0,1-4.24,1.44,26,26,0,0,1-4.41.69S62.9,53,65.29,52.36Z"/><path class="cls-12" d="M72.76,50A14.43,14.43,0,0,1,70,51.59a12.46,12.46,0,0,1-1.22.48s.46-.19,1.18-.57a19.18,19.18,0,0,0,2.66-1.7A19.4,19.4,0,0,0,75,47.69c.55-.59.87-1,.87-1s-.28.42-.8,1A14,14,0,0,1,72.76,50Z"/><path class="cls-12" d="M64.25,53.56a19.86,19.86,0,0,1,1.93-.63s-.81.41-1.86.82a6,6,0,0,1-1.4.37,2.37,2.37,0,0,1-.6,0,3.29,3.29,0,0,0,.59-.1A9.77,9.77,0,0,0,64.25,53.56Z"/><path class="cls-12" d="M69.09,52.85c2.64-1.29,4.81-2.28,4.81-2.28l-1.37.74c-.85.45-2,1.09-3.36,1.72a13.06,13.06,0,0,1-3.58,1.17,6.37,6.37,0,0,1-1.56.08,7.06,7.06,0,0,0,1.54-.18A16.25,16.25,0,0,0,69.09,52.85Z"/><path class="cls-12" d="M75.63,48.64a6.46,6.46,0,0,1-.81.78,6,6,0,0,1,1.47-1.69A7.33,7.33,0,0,1,75.63,48.64Z"/><path class="cls-12" d="M70,45.72l-.27-.45-.93.54a1.65,1.65,0,0,0-2.14-.22,2,2,0,0,0-.91,2.13,1.39,1.39,0,0,1-.62,1.47,1,1,0,0,1-1.42-.33,2,2,0,0,1-.21-1.29l-.72.19A2.05,2.05,0,0,0,63,49.12l-.4.23-.29.17-.25.14.13.23.14.23.26-.15h0l.69-.4a1.76,1.76,0,0,0,2.25.23,2,2,0,0,0,1-2.12c0-.83.05-1.24.54-1.52a.85.85,0,0,1,1.24.3,1.65,1.65,0,0,1,.22,1.11l.72-.18a1.91,1.91,0,0,0-.22-1.14Z"/></g></g></g></svg>