<svg xmlns="http://www.w3.org/2000/svg" viewBox="0 0 72.37 82.16"><defs><style>.cls-1{isolation:isolate;}.cls-2,.cls-22,.cls-23,.cls-24,.cls-3{fill:#6f3a1e;}.cls-3{opacity:0.3;}.cls-12,.cls-15,.cls-17,.cls-19,.cls-20,.cls-22,.cls-23,.cls-3,.cls-7,.cls-8{mix-blend-mode:multiply;}.cls-11,.cls-12,.cls-17,.cls-18,.cls-19,.cls-22,.cls-4{opacity:0.5;}.cls-11,.cls-18,.cls-21,.cls-24,.cls-25,.cls-4,.cls-5{mix-blend-mode:screen;}.cls-5,.cls-8{opacity:0.45;}.cls-20,.cls-21,.cls-6,.cls-8{fill:#e5b678;}.cls-11,.cls-9{fill:#294168;}.cls-10{fill:#fff;}.cls-12,.cls-13{fill:#d3dbfd;}.cls-14,.cls-15{fill:#88ac76;}.cls-15{opacity:0.35;}.cls-16,.cls-17,.cls-18,.cls-25{fill:#f15e6b;}.cls-23{opacity:0.25;}</style></defs><title>fearРесурс 11</title><g class="cls-1"><g id="Слой_2" data-name="Слой 2"><g id="OBJECTS"><path class="cls-2" d="M72.35,21.25s-1,24.54-6,31.44-22.78,9-31.15.59S28.57,19.63,29,18.75,60.6,7.73,72.35,21.25Z"/><path class="cls-3" d="M63,37.2c.22-2.4.54-8.73,1.1-10.36a18.52,18.52,0,0,1,2-3.94s3.86-.59,6.23-1c-.08,1.41-.3,5.12-.77,9.56-.12-.23-.27-.38-.46-.36-.85.08-2.7,6.17-2.7,6.17s.69-5.47-.31-5.47S66.47,34,66.47,34s-.46-1.62-1.62-.77C64.06,33.8,63.32,36,63,37.2Z"/><path class="cls-3" d="M63,37.2a4,4,0,0,1-.13.94C62.79,38.18,62.85,37.79,63,37.2Z"/><path class="cls-3" d="M30.61,37c.07.4.12.65.12.65S30.67,37.34,30.61,37Z"/><path class="cls-3" d="M29,18.75c0-.05.13-.12.31-.21.76.77,1.64,1.1,2.06.33a1.22,1.22,0,0,0,0-1.13c1.49-.5,3.58-1.1,6.07-1.66L60.71,36.54s-.12,7.39.9,8.6,4-5.17,4-5.17-3.12,9-2.1,10,3.37-2.16,3.37-2.16-1.39,3.37-.6,3.49c.39.06,1.58-2.3,2.66-4.65a19.92,19.92,0,0,1-2.57,6,11,11,0,0,1-3,2.71,15.37,15.37,0,0,1-1.88.13c-2.38,0-17.28-.76-24.57-.76a14.55,14.55,0,0,1-1.74-1.49,18,18,0,0,1-3.95-6.86C35,51.16,36.43,50,36.79,48.5s-2.23-5.65-2.23-5.65,3,3,3.55,1.8-6.37-9.79-7.21-10c-.6-.13-.44,1.38-.29,2.28-.27-1.4-.93-4.6-1.39-4.51-.16,0-.26.84-.33,2C28.17,26.48,28.78,19.22,29,18.75Z"/><g class="cls-4"><path class="cls-2" d="M66.06,45.16a2.19,2.19,0,0,0,.18-.38c.1-.24.25-.59.41-1,.33-.84.72-2,1.09-3.13C68.47,38.34,69,36,69,36s.51-2.36.81-4.75c.15-1.2.26-2.4.32-3.3,0-.45,0-.83.05-1.09a2.26,2.26,0,0,0,0-.42,2.5,2.5,0,0,0-.06.41c0,.26-.06.64-.11,1.09-.09.89-.24,2.09-.41,3.28-.35,2.38-.89,4.72-.89,4.72s-.49,2.35-1.17,4.66c-.34,1.15-.71,2.3-1,3.15l-.36,1A2.67,2.67,0,0,0,66.06,45.16Z"/></g><g class="cls-4"><path class="cls-2" d="M61.91,47.89a1.13,1.13,0,0,0,.16-.22c.1-.14.24-.34.39-.59.31-.5.7-1.17,1.07-1.86.73-1.38,1.3-2.84,1.3-2.84a25.82,25.82,0,0,0,.91-3c.17-.76.31-1.53.38-2.11,0-.29,0-.54.06-.71s0-.27,0-.27a9.7,9.7,0,0,0-.18,1c-.1.57-.27,1.33-.47,2.08a29,29,0,0,1-1,2.94s-.53,1.45-1.22,2.85c-.34.7-.69,1.39-1,1.9A7,7,0,0,0,61.91,47.89Z"/></g><g class="cls-4"><path class="cls-2" d="M56.38,45.5a10.53,10.53,0,0,0,.08-1.18c0-.59.1-1.18.1-1.18s0-.58.09-1.17a8.71,8.71,0,0,0,.11-1.18,5.27,5.27,0,0,0-.32,1.15c-.11.59-.18,1.18-.18,1.18s0,.6,0,1.19A4.36,4.36,0,0,0,56.38,45.5Z"/></g><g class="cls-4"><path class="cls-2" d="M34.65,46.05a1.6,1.6,0,0,0-.16-.31c-.1-.2-.26-.46-.44-.8-.36-.66-.82-1.55-1.24-2.46s-.78-1.85-1-2.56-.41-1.19-.41-1.19-.16-.47-.38-1.19-.47-1.69-.68-2.67-.37-2-.47-2.73c-.05-.37-.08-.68-.11-.9a1.66,1.66,0,0,0-.06-.34,1.48,1.48,0,0,0,0,.34c0,.22,0,.54.06.92.06.75.19,1.75.37,2.75s.42,2,.63,2.7.35,1.22.35,1.22.17.48.44,1.19.66,1.64,1.1,2.55S33.55,44.36,34,45c.19.33.37.59.49.77A1.75,1.75,0,0,0,34.65,46.05Z"/></g><g class="cls-4"><path class="cls-2" d="M36.7,45.39s-.57-.5-1-1.09A7.47,7.47,0,0,1,34.89,43a7.64,7.64,0,0,1-.57-1.37c-.22-.72-.26-1.47-.3-1.47a4.06,4.06,0,0,0,.09,1.52,5.47,5.47,0,0,0,1.4,2.71A4,4,0,0,0,36.7,45.39Z"/></g><g class="cls-4"><path class="cls-2" d="M37.77,42.79s.09.29.25.55.34.49.34.49.21.21.44.4.48.35.51.32-.17-.25-.36-.47l-.36-.45-.4-.42C38,43,37.8,42.77,37.77,42.79Z"/></g><g class="cls-4"><path class="cls-2" d="M31.74,45.6A6.23,6.23,0,0,0,32,47.32a9.75,9.75,0,0,0,.41,1.14c.14.3.25.49.25.49s.12.19.31.46a9.16,9.16,0,0,0,.77.93A9,9,0,0,0,35,51.53s-.56-.66-1.1-1.33a8.73,8.73,0,0,1-.7-1c-.18-.27-.28-.45-.28-.45s-.11-.18-.26-.47a9.5,9.5,0,0,1-.46-1.07C31.93,46.45,31.78,45.59,31.74,45.6Z"/></g><g class="cls-5"><path class="cls-2" d="M70.6,35.92c-.3,3.38-.7,7.79-2.88,10.53-.15.19-.51,0-.5-.21a31.17,31.17,0,0,1,1.27-4.87c.47-1.85.94-3.68,1.27-5.56.08-.47.89-.37.84.11Z"/></g><g class="cls-5"><path class="cls-2" d="M67.92,34.83a1.31,1.31,0,0,1,.19,1.2,2.75,2.75,0,0,1-.51,1.33c-.22.25-.59,0-.61-.26a4.51,4.51,0,0,1,.28-1.3,1.47,1.47,0,0,1,.6-1Z"/></g><g class="cls-5"><path class="cls-2" d="M66.52,39.23A7.79,7.79,0,0,1,65.91,42c0,.09-.18,0-.16-.07.19-.93.51-1.82.72-2.75,0,0,0,0,0,0Z"/></g><g class="cls-5"><path class="cls-2" d="M65.12,34.29A4,4,0,0,1,65,36.55a12.29,12.29,0,0,1-.84,2.85c-.06.13-.25.06-.25-.07a11.35,11.35,0,0,1,.29-2.79c.18-.75.2-1.73.78-2.27a.11.11,0,0,1,.15,0Z"/></g><g class="cls-5"><path class="cls-2" d="M31.55,36.92a2,2,0,0,1,.6.85,2.77,2.77,0,0,1,.19,1.14.25.25,0,0,1-.46.12,4.38,4.38,0,0,1-.38-1,2.19,2.19,0,0,1-.14-.5c0-.17,0-.36,0-.54a.09.09,0,0,1,.16-.06Z"/></g><g class="cls-5"><path class="cls-2" d="M30,37.28c1.64,3.2,3.21,6.56,4.61,9.86.14.35-.26.77-.57.44a16,16,0,0,1-4.16-10.27.06.06,0,0,1,.12,0Z"/></g><g class="cls-4"><path class="cls-2" d="M65.5,50.53a10.67,10.67,0,0,0,.88-1.44A12.05,12.05,0,0,0,67,47.51,10.74,10.74,0,0,0,66.11,49,12,12,0,0,0,65.5,50.53Z"/></g><path class="cls-6" d="M11.43,68.76,9.9,68.18s.48-3.55-1.53-4.74c-.62-.37-1.37-.64-2-1.07-.34-.25-.67-.67-1.08-.59-.69.15-.65,1.15-.37,1.62C4.11,63,.7,63,1.45,64.73A2.32,2.32,0,0,0,.22,67.05a1.45,1.45,0,0,1,0,.36,1.32,1.32,0,0,1-.15.42,1.44,1.44,0,0,0,.14,1.29c.05.08-.07.27-.06.36C.18,70.94,2,71.67,3.09,72s3.13.8,4.35.11l2.12,1.41S12.64,69.41,11.43,68.76Z"/><g class="cls-7"><path class="cls-6" d="M6.53,67.16A3.8,3.8,0,0,1,6,65.4a3.32,3.32,0,0,1,0-.79,2.38,2.38,0,0,0-.24.78,3,3,0,0,0,.4,2,2.37,2.37,0,0,0,1.64,1.15,1.41,1.41,0,0,0,.61,0,1,1,0,0,0,.2-.09,1.35,1.35,0,0,1-.77,0A2.71,2.71,0,0,1,6.53,67.16Z"/><path class="cls-6" d="M5.39,64a6.63,6.63,0,0,1-.5-.91l-.21-.41a2.77,2.77,0,0,0,.39,1.54,1.8,1.8,0,0,0,.95.67,4.17,4.17,0,0,0,.45.11A5.53,5.53,0,0,1,5.39,64Z"/><path class="cls-6" d="M4.11,71a1.13,1.13,0,0,0-.61-.77.84.84,0,0,0-.38-.1,1.23,1.23,0,0,1,.27.25,1.75,1.75,0,0,1,.35.71,1.16,1.16,0,0,1,0,.75.4.4,0,0,1-.23.24A.38.38,0,0,0,3.86,72,1,1,0,0,0,4.11,71Z"/><path class="cls-6" d="M2.77,69.91A4.78,4.78,0,0,1,.1,68.78a3,3,0,0,0,.61.66,3.71,3.71,0,0,0,2,.85A1.72,1.72,0,0,0,4,70a.75.75,0,0,0,.29-.54A.68.68,0,0,0,4.09,69a1.31,1.31,0,0,0-.56-.37.53.53,0,0,0-.25,0,.67.67,0,0,1,.22.08,1.4,1.4,0,0,1,.44.44.46.46,0,0,1-.16.66A1.61,1.61,0,0,1,2.77,69.91Z"/><path class="cls-6" d="M3,68.13a11.82,11.82,0,0,1-2-.59,2.37,2.37,0,0,1-.74-.48,2,2,0,0,0,.64.65,6.7,6.7,0,0,0,2.06.8,1.52,1.52,0,0,0,1.28-.17,1.1,1.1,0,0,0,.41-1,1.08,1.08,0,0,0-.49-.78,1.15,1.15,0,0,1,.3.79.92.92,0,0,1-.41.71A1.3,1.3,0,0,1,3,68.13Z"/><path class="cls-6" d="M4.11,66.38A4.35,4.35,0,0,1,1.7,65a2,2,0,0,1-.35-.78,1.92,1.92,0,0,1,0-.32,1.14,1.14,0,0,0,0,.32,1.88,1.88,0,0,0,.25.88A3.93,3.93,0,0,0,4,66.74a1.25,1.25,0,0,0,1,0,.82.82,0,0,0,.41-.83,1.79,1.79,0,0,0-.86-1.09,4.86,4.86,0,0,0-1.09-.56,6.74,6.74,0,0,1,1,.71,1.74,1.74,0,0,1,.66,1,.5.5,0,0,1-.26.47A.92.92,0,0,1,4.11,66.38Z"/><path class="cls-6" d="M5.35,68.78a2.47,2.47,0,0,0-.64.88,2,2,0,0,0-.12.43,7.78,7.78,0,0,1,1-1,8.44,8.44,0,0,1,1.15-.84,2.28,2.28,0,0,0-1.4.55Z"/></g><path class="cls-8" d="M11.42,68.76l-.76-.29-.77-.29a.42.42,0,0,1,0-.07s0-.08,0-.13a7.09,7.09,0,0,0,0-1.19,2.11,2.11,0,0,0,0-.25v-.08s0,0,0,0c-.27.58-.73,1-1.61.44-1.9-1.18-1.44-2.51-1.44-2.51a8.33,8.33,0,0,1-2-2.14,1.06,1.06,0,0,0,0,.19,1.56,1.56,0,0,0,0,.43h0q0,.15.06.27a1.33,1.33,0,0,0,.1.24l-.12,0-.1,0h0a2.48,2.48,0,0,0-.54-.1H3.72a3.37,3.37,0,0,0-.55,0l-.26,0H2.82l-.28,0h0l-.31.08a2.36,2.36,0,0,0-.28.12h0a1.64,1.64,0,0,0-.22.14.86.86,0,0,0-.28.4c.79.23,3,.9,3.52,1.53l0,0a.39.39,0,0,1,.11.35c-.13.41-.73.49-1.44.28l-.06,0A2.72,2.72,0,0,1,3,66a1,1,0,0,1-.23-.12l-.23-.13a3.85,3.85,0,0,1-1.06-1l-.05,0-.65.52,0,0q-.1.14-.21.3A3,3,0,0,0,.34,66v0a1.66,1.66,0,0,0-.11.38l0,.16a1.77,1.77,0,0,0,0,.23,2.45,2.45,0,0,0,0,.27,0,0,0,0,0,0,0,1.32,1.32,0,0,1,0,.34,1.77,1.77,0,0,1-.15.42,2.29,2.29,0,0,0-.07.28c1.16.22,3.59.76,3.67,1.34,0,.25-.2.41-.55.48H3.07a3.68,3.68,0,0,1-3-1.15h0l0,0a1.38,1.38,0,0,0,.14.3c.06.08-.06.26-.06.35a1.64,1.64,0,0,0,.08.46c1,.2,3.13.72,2.91,1.55A4.83,4.83,0,0,1,3,72l.13,0c1.25.39,3.13.81,4.35.12l1.67,1.11.45.29s.63-.85,1.21-1.84l.18-.32.17-.32c.06-.11.11-.22.16-.33s.19-.42.26-.61a2.33,2.33,0,0,0,.1-.32.14.14,0,0,0,0-.06,1.62,1.62,0,0,0,0-.2C11.74,69.18,11.67,68.9,11.42,68.76ZM1.19,65.65c1.05.37,2.83,1.51,2.86,2S-.35,67.53,1.19,65.65Z"/><path class="cls-9" d="M45.09,49.72c.15.82-.36,1.88-.7,3Q43.27,56.6,42,60.38c-1.89,5.4-4,11.57-7.84,16.05-6,6.95-25-2.11-25-2.11a9,9,0,0,1,3-7.41s14.27,5.84,16.42,2.42,3.52-7.31,5-11.06c1.41-3.51,2.2-7,5.59-9.05a5.36,5.36,0,0,1,4.56-.77C44.61,48.75,45,49.18,45.09,49.72Z"/><path class="cls-10" d="M45.09,49.72c.15.82-.36,1.88-.7,3Q43.27,56.6,42,60.38c-1.89,5.4-4,11.57-7.84,16.05-6,6.95-25-2.11-25-2.11a9,9,0,0,1,3-7.41s14.27,5.84,16.42,2.42,3.52-7.31,5-11.06C35,54.76,37.3,46.83,40.68,44.75c1.43-.88,1.5,3.18,3,3.7C44.61,48.75,45,49.18,45.09,49.72Z"/><path class="cls-11" d="M24.23,78c-.51-.07-1.17-.27-1.84-.44l-2.68-.72L17,76.29a18.61,18.61,0,0,0-2.75-.51,14.83,14.83,0,0,0,2.61,1c1.32.41,2.67.77,2.67.77s1.36.29,2.74.53a11.11,11.11,0,0,0,1.93.25,1.42,1.42,0,0,0,.89-.18S24.74,78.11,24.23,78Z"/><path class="cls-12" d="M9.12,74.24a1.34,1.34,0,0,0,0-.19v-.37h0a9.88,9.88,0,0,1,.14-1.62v0c0-.2.08-.41.13-.63l0-.06a6.93,6.93,0,0,1,.2-.71.55.55,0,0,1,.32.28c.63,1.49,13.13,7.41,15,3.65a3.94,3.94,0,0,0,0-4.16h0c.32,0,.63,0,.93,0h.05a5.18,5.18,0,0,0,1.52-.26l.06,0a2.19,2.19,0,0,0,.57-.29h0c1.08,1.45,4.81,5.4,8.41-2.9a146.11,146.11,0,0,1,8.64-17.21h0c.15.82-.36,1.88-.7,3q-1.1,3.75-2.39,7.45c-2,5.87-4.86,12.69-7.89,16.22-6,6.95-25-2.11-25-2.11v-.07Z"/><g class="cls-7"><path class="cls-13" d="M28.46,71.92a2.46,2.46,0,0,0,1,1,2.14,2.14,0,0,0,.57.19,2.52,2.52,0,0,1-.51-.28,3.2,3.2,0,0,1-.91-1,3.36,3.36,0,0,1-.42-1.31,3.2,3.2,0,0,1,0-.6,2.42,2.42,0,0,0-.1.61A2.63,2.63,0,0,0,28.46,71.92Z"/><path class="cls-13" d="M27.46,72a2.31,2.31,0,0,0,.47,1,1.75,1.75,0,0,0,.33.31,3.16,3.16,0,0,1-.6-1.38,3.51,3.51,0,0,1,.05-1.56,2.1,2.1,0,0,0-.19.45A2.41,2.41,0,0,0,27.46,72Z"/><path class="cls-13" d="M39.75,57.36c1,2.38,2,4.25,2,4.25s-.75-2-1.78-4.35l-1.36-3a3.87,3.87,0,0,1-.32-1.33,3.65,3.65,0,0,0,.23,1.37C38.77,55.1,39.24,56.17,39.75,57.36Z"/><path class="cls-13" d="M39.53,59.45A11.87,11.87,0,0,0,41.25,61L39.69,59.3l-1.56-1.66A11.59,11.59,0,0,0,39.53,59.45Z"/></g><path class="cls-14" d="M55.38,82H39.74l.23-.2a.18.18,0,0,0,.07,0A11.53,11.53,0,0,1,41.09,81a13,13,0,0,1,2.28-1.25l.2-.09a10.52,10.52,0,0,1,2.9-.72l.17,0h.14l.31,0a10.65,10.65,0,0,1,3.84.56,11.85,11.85,0,0,1,1.83.78l.11,0A14.41,14.41,0,0,1,55.38,82Z"/><path class="cls-15" d="M54.8,82H47.32c-.26-.09-.52-.19-.77-.3a1.19,1.19,0,0,1-.67-.55c-.21-.5.34-1,.83-1.28L48.17,79a12.63,12.63,0,0,1,2.63.71A15.08,15.08,0,0,1,54.8,82Z"/><path class="cls-15" d="M55.38,82H39.74l.23-.2a.18.18,0,0,0,.07,0c.36-.27.71-.53,1.05-.76a13.83,13.83,0,0,1,2.29-1.22l.2-.08a11.68,11.68,0,0,1,2.89-.76l.17,0h.14l.31,0a10.65,10.65,0,0,1,3.84.56,11.85,11.85,0,0,1,1.83.78l.11,0A14.41,14.41,0,0,1,55.38,82Z"/><path class="cls-16" d="M59.92,54.85c-.06.21-.13.43-.19.65s-.18.55-.26.82-.22.71-.34,1.07c-.05.18-.11.36-.17.54v0l-.09.27-.36,1.15c0,.07,0,.15-.07.23s-.09.31-.14.46-.07.22-.1.33-.09.27-.13.41-.08.25-.11.37l-.12.39-.12.4c0,.11-.07.22-.1.33a1.27,1.27,0,0,0-.06.18h0a.49.49,0,0,1,0,.11v0h0c0,.09-.05.18-.08.26h0v0l-.06.21c0,.19-.11.37-.16.56s-.05.16-.07.25l-.12.42a2.5,2.5,0,0,1-.07.26c0,.13-.07.26-.1.39l-.06.24-.09.37-.06.23c0,.12-.06.24-.08.36a1.16,1.16,0,0,0,0,.18l-.06.25c0,.09,0,.17-.05.24-.1.54-.2,1.08-.31,1.62-.14.7-.28,1.4-.41,2.1s-.3,1.62-.42,2.44c0,.11,0,.22-.05.33a30.62,30.62,0,0,0-.4,4.4,11.76,11.76,0,0,0,.69,4.2,1.34,1.34,0,0,1,.07.18l-.2-.18h-17c.6-2,.08-4.26-.29-6.54-.13-.78-.25-1.57-.41-2.36a4,4,0,0,0-.1-.5l0-.14a.14.14,0,0,0,0-.06c0-.26-.12-.52-.19-.77h0s0,0,0,0l0-.13c0-.11-.07-.23-.11-.34s-.09-.25-.13-.37-.09-.24-.14-.36a1.54,1.54,0,0,0-.08-.19,7.6,7.6,0,0,0-.37-.76c-.07-.13-.15-.26-.23-.38s-.16-.26-.25-.38l-.24-.32h0l-.46-.68,0,0c-.09-.13-.17-.26-.25-.39h0a7.78,7.78,0,0,1-1.48-5.14c0-.34.08-.68.13-1a.2.2,0,0,0,0-.07c.06-.34.13-.68.21-1a38.2,38.2,0,0,1,2.19-5.88c.18-.42.36-.84.53-1.26.26-.65.53-1.45.83-2.31.74-2.12,1.67-4.55,3.12-5.68a1.81,1.81,0,0,1,.44-.24h0a11.88,11.88,0,0,1,3.82-.47h.33c2,0,4.25.14,5.82.28h0l1,.1.38,0,.31,0h0l.3,0S56.25,45.8,58.69,47l.05,0,.29.15a14.76,14.76,0,0,1,1.55.88c.5.33.82.64.87.88C61.56,49.46,60.86,51.88,59.92,54.85Z"/><path class="cls-17" d="M59.93,54.87c-.07.21-.13.42-.2.63s-.18.55-.26.82-.22.71-.34,1.07c-.05.18-.11.36-.17.54v0l-.09.27-.36,1.15c0,.07,0,.15-.07.23s-.09.31-.14.46-.07.22-.1.33-.09.27-.13.41-.08.25-.11.37l-.12.39-.12.4c0,.11-.07.22-.1.33l-.06.21h0a.69.69,0,0,0,0,.1h0c0,.09-.05.18-.08.26h0v0l-.06.21c0,.19-.11.37-.16.56s-.05.16-.07.25l-.12.42a2.5,2.5,0,0,1-.07.26c0,.13-.07.26-.1.39l-.06.24-.09.37-.06.23c0,.12-.06.24-.08.36a1.16,1.16,0,0,0,0,.18l-.06.25c0,.09,0,.17-.05.24-.1.54-.2,1.08-.31,1.62-.14.7-.28,1.4-.41,2.1s-.3,1.62-.42,2.44c0,.11,0,.22-.05.33a30.62,30.62,0,0,0-.4,4.4,11.76,11.76,0,0,0,.69,4.2,1.34,1.34,0,0,1,.07.18l-.2-.18H49.24a12.06,12.06,0,0,0,1.29-1.74c.09-.17.18-.34.27-.53s.09-.19.13-.29a15.73,15.73,0,0,0,.78-2.2c0-.83-.08-1.67-.16-2.5l.57.38a7.11,7.11,0,0,0-.07-2.18c-.52-2.43-6.09-2.26-10.27-1.74a4.51,4.51,0,0,0-.53.09l-.22,0a6.5,6.5,0,0,0-3.33,1.77c0-.17-.06-.33-.1-.5l0-.14a.14.14,0,0,0,0-.06c-.06-.26-.12-.52-.19-.77h0s0,0,0,0l0-.1s0,0,0,0-.07-.24-.1-.35-.09-.25-.13-.37-.09-.24-.14-.36a1.54,1.54,0,0,0-.08-.19,7.6,7.6,0,0,0-.37-.76c-.07-.13-.15-.26-.23-.38s-.16-.26-.25-.38l-.24-.33-.48-.7c-.09-.13-.17-.26-.25-.39h0a7.78,7.78,0,0,1-1.48-5.14c0-.34.08-.68.13-1a.2.2,0,0,0,0-.07c.06-.34.13-.68.21-1A8.53,8.53,0,0,0,35,63.69c.68.78,1.31.75,2.56.78a16,16,0,0,1,2.79.27h.05l.13,0,.15,0c.4.07.83.17,1.29.29,4.7,1.22,7.84.69,11.15-3.31a18.77,18.77,0,0,0,2.17-3.42c.48-.94.9-1.9,1.26-2.81a1.34,1.34,0,0,0,.07-.18c.07-.18.14-.35.2-.52s.12-.32.17-.47c.46-1.25.78-2.32,1-3a2.51,2.51,0,0,1,.25.23.76.76,0,0,1,.11.14,6.17,6.17,0,0,1,.72,1.1,17.47,17.47,0,0,1,.9,2Z"/><path class="cls-6" d="M52.52,41.11s.54,5.45-1.61,6.41-4.56,1-5.36-1.29,0-5.44,0-5.44S52.25,39.82,52.52,41.11Z"/><path class="cls-8" d="M46.54,47.6c3.46-.53,5.58-4.5,4.44-3.92s-4.56.12-5.79-.07a14,14,0,0,1,.36-2.82s6.7-1,7,.32c0,0,.54,5.45-1.61,6.41C49.36,48.21,47.66,48.4,46.54,47.6Z"/><path class="cls-12" d="M47.17,48.34s-3.23,3-3.85,1.36a.38.38,0,0,1,0-.1,26.06,26.06,0,0,1,1.9-4.67,2.73,2.73,0,0,0,2.36,2.38,4.5,4.5,0,0,0,4.62-2.7c.23,1.17-.69,3.59-2.5,6.78C49.19,51.5,48.27,51.2,47.17,48.34Z"/><path class="cls-10" d="M52.54,43.18c.05-.39,1.3,3.87-2.43,7.6,0,0-1.24,1.37-2.86-2.86,0,0-3.24,3-3.86,1.37s1.8-5.68,1.8-5.68-.18,2.91,2.44,3.28A4.51,4.51,0,0,0,52.54,43.18Z"/><path class="cls-12" d="M43.39,48.75c.62,1.62,3.86-1.37,3.86-1.37,1.62,4.23,2.86,2.86,2.86,2.86a8.69,8.69,0,0,0,2.67-5.84,8.55,8.55,0,0,1-2.67,6.38s-1.24,1.37-2.86-2.86c0,0-3.24,3-3.86,1.37a2,2,0,0,1-.08-.91A1.34,1.34,0,0,0,43.39,48.75Z"/><g class="cls-4"><path class="cls-18" d="M35.18,59.69a4.46,4.46,0,0,0,.2-.87A14.34,14.34,0,0,1,35.91,57c.23-.67.5-1.33.7-1.82l.33-.83s1.87-5.4,1.71-5.46-2.27,5.25-2.27,5.25l-.29.84c-.17.51-.4,1.19-.59,1.89a11,11,0,0,0-.36,2A2.11,2.11,0,0,0,35.18,59.69Z"/><path class="cls-18" d="M35.08,62.33c.16,0,.19-.82.19-.82s-.24-.76-.41-.74-.19.82-.19.82S34.91,62.36,35.08,62.33Z"/><path class="cls-18" d="M40.71,80.63c.06,0-.41-.73-.74-1.47a10.46,10.46,0,0,1-.56-1.51A10,10,0,0,1,39,76.1a14.57,14.57,0,0,0-.28-1.62,3.83,3.83,0,0,0-.15,1.68,9.28,9.28,0,0,0,.3,1.68,8.42,8.42,0,0,0,.75,1.52A3.85,3.85,0,0,0,40.71,80.63Z"/></g><g class="cls-19"><path class="cls-16" d="M53.58,79.13a4.5,4.5,0,0,0,.36-.66c.16-.34.25-.72.29-.72a1.73,1.73,0,0,1-.09.79,4,4,0,0,1-.31.75,3.7,3.7,0,0,1-.51.61,1.57,1.57,0,0,1-.66.44s.27-.29.5-.58A4.92,4.92,0,0,0,53.58,79.13Z"/><path class="cls-16" d="M45.11,68.94a11.52,11.52,0,0,0,1.69.14,10.91,10.91,0,0,0,1.67-.17c.23,0,.41-.1.55-.12l.2-.05.2-.06c.13,0,.32-.07.53-.15a9.55,9.55,0,0,0,3-1.59,4.84,4.84,0,0,1,.61-.48A3.41,3.41,0,0,1,53,67a8.83,8.83,0,0,1-1.38,1,10.62,10.62,0,0,1-1.57.73c-.22.09-.41.13-.54.18l-.21.06-.21,0a5,5,0,0,1-.56.11,9.94,9.94,0,0,1-1.72.11,9.71,9.71,0,0,1-1.71-.23,3.11,3.11,0,0,1-.74-.25S44.66,68.87,45.11,68.94Z"/><path class="cls-16" d="M38.87,77.76s0,.44.08.87a4.08,4.08,0,0,0,.22.82,4.14,4.14,0,0,0,.34.78c.21.37.51.69.48.73a1.78,1.78,0,0,1-.66-.62,3.39,3.39,0,0,1-.44-.79,3.76,3.76,0,0,1-.15-.9A1.84,1.84,0,0,1,38.87,77.76Z"/><path class="cls-16" d="M35.55,67.58c.36.22.73.41.73.41s.36.22.73.41a5.18,5.18,0,0,1,.76.38,2.21,2.21,0,0,1-.84-.19,6.89,6.89,0,0,1-.8-.34,5.89,5.89,0,0,1-.7-.5,2.18,2.18,0,0,1-.6-.62A5,5,0,0,1,35.55,67.58Z"/><path class="cls-16" d="M47.17,47.76s0,.08,0,.16a.28.28,0,0,0,0,.09h0a1.41,1.41,0,0,1,0,.18,2.07,2.07,0,0,1,0,.22c0,.26-.1.59-.18,1a26.73,26.73,0,0,1-1,3.5A21.78,21.78,0,0,1,45.07,55c-.21.47-.42.9-.61,1.27-.45.88-.79,1.46-.79,1.46l-.12.2c-.13.24-.39.67-.71,1.22s-.81,1.44-1.2,2.31h0v0c-.13.28-.25.57-.36.86,0,0,0,0,0,0a1,1,0,0,0,0,.16,4.06,4.06,0,0,0-.19.59,2.29,2.29,0,0,0-.08.28,8.69,8.69,0,0,0-.28,1.44,6.46,6.46,0,0,0-.06,1A7.77,7.77,0,0,0,40.71,67a3.79,3.79,0,0,1,.07.42l0-.08c0-.08-.06-.18-.1-.33,0,.12,0,.23,0,.36.1.91.25,2.11.47,3.3,0,.19.07.38.1.57.18,1,.41,1.94.6,2.68s.4,1.46.4,1.46.16.58.43,1.45.59,1.75.89,2.77a.08.08,0,0,1,0,0c0,.12.08.25.11.37A14.6,14.6,0,0,1,44.14,82H44a15.74,15.74,0,0,0-.48-1.88c0-.12-.07-.24-.11-.35a0,0,0,0,1,0,0c-.33-1-.7-2-1-2.78S42,75.49,42,75.49s-.17-.59-.38-1.47-.38-1.7-.55-2.71l-.09-.58c-.19-1.2-.32-2.41-.37-3.32,0-.45,0-.83-.06-1.1v-.1l0-.35a6.79,6.79,0,0,1,0-1.09c0-.16,0-.33.05-.51l0-.17c0-.24.09-.48.15-.73a1.14,1.14,0,0,1,.06-.25h0c.07-.28.16-.56.26-.84s.27-.74.43-1.09l0-.07c.19-.45.4-.87.6-1.25h0c.16-.32.32-.62.47-.89l.66-1.16c.1-.17.15-.27.15-.27s.34-.57.81-1.44c.18-.34.38-.73.58-1.15.31-.65.63-1.38.91-2.13a31.94,31.94,0,0,0,1.08-3.45c.07-.33.14-.62.19-.85l.08-.32s0-.09,0-.12,0-.12,0-.16h0A.42.42,0,0,1,47.17,47.76Z"/></g><g class="cls-4"><path class="cls-16" d="M39.34,63.4a7.39,7.39,0,0,0,1.2,0,6.49,6.49,0,0,1,2.56.34,14.05,14.05,0,0,0,2.58.76,5.53,5.53,0,0,0,1.27.07l.35,0a4.8,4.8,0,0,0,.89-.25,8.68,8.68,0,0,0,2.33-1.4,10.87,10.87,0,0,0,2-1.79A2.38,2.38,0,0,0,53.1,60c-.05,0-.25.42-.75.93a13.84,13.84,0,0,1-2.08,1.6A8.92,8.92,0,0,1,48,63.73a3.73,3.73,0,0,1-.8.18,2.33,2.33,0,0,1-.31,0,5.08,5.08,0,0,1-1.14,0,15.42,15.42,0,0,1-2.54-.62,6.57,6.57,0,0,0-1.44-.24,8.09,8.09,0,0,0-1.26.08A4,4,0,0,0,39.34,63.4Z"/></g><path class="cls-6" d="M32.45,21.77A2.34,2.34,0,0,0,29.21,21c-2.19,1.45-1.1,9,1.89,8.94S33,21.61,32.45,21.77Z"/><path class="cls-8" d="M32.45,21.77A2.34,2.34,0,0,0,29.21,21c-2.19,1.45-1.1,9,1.89,8.94S33,21.61,32.45,21.77Z"/><path class="cls-20" d="M29.7,27.71c0-.06.22,0,.48-.08a.46.46,0,0,0,.32-.26.77.77,0,0,0,0-.5.88.88,0,0,0-.27-.43c-.12-.11-.27-.15-.46-.31a.88.88,0,0,1-.29-.77,1,1,0,0,1,.09-.29,1.26,1.26,0,0,1,.16-.24A1.43,1.43,0,0,1,30,24.6a1.45,1.45,0,0,1,.22-.09h0s0,0,0,0,0-.08,0-.13a1.36,1.36,0,0,0,0-.2,2.21,2.21,0,0,0-.32-.8c-.29-.51-.73-.71-.71-.79s.52,0,1,.5a2.7,2.7,0,0,1,.53.94l.07.25c0,.09,0,.15,0,.29s0,.48,0,.65a2.54,2.54,0,0,0-.43,0l-.11.05a.46.46,0,0,0-.12.13.38.38,0,0,0-.07.1s0,0,0,0,.25.18.44.39a1.58,1.58,0,0,1,.39.82,1.18,1.18,0,0,1-.17.88.63.63,0,0,1-.57.29C29.87,27.92,29.69,27.75,29.7,27.71Z"/><path class="cls-8" d="M31.1,30c3-.1,1.87-8.37,1.35-8.21a2.82,2.82,0,0,0-1.7-1.12,5.36,5.36,0,0,1-.2,3.07s-.79-1.25-1.21-.83.23,2.42-.68,2.62c-.28.06-.46-.16-.58-.49C28.25,27.45,29.35,30,31.1,30Z"/><g class="cls-4"><path class="cls-21" d="M28.32,22.72c-.12.42-.07.84.13,1s.45-.16.58-.59.07-.85-.13-.95S28.45,22.29,28.32,22.72Z"/><path class="cls-21" d="M29.09,21.49a.34.34,0,0,0,.15.39.21.21,0,0,0,.32-.11.33.33,0,0,0-.15-.38A.21.21,0,0,0,29.09,21.49Z"/></g><path class="cls-6" d="M65.9,21.86C66.14,15.07,63.33,4.06,49,4S32.49,19.61,32.49,19.61a43.54,43.54,0,0,0-1.32,10.24c.17,4.43,2.48,11,12.77,12.07S62.16,38.66,64,32.33a5.26,5.26,0,0,0,4.85-4.24C69.58,25.17,68,22.21,65.9,21.86Z"/><g class="cls-7"><path class="cls-8" d="M65.83,22A21.61,21.61,0,0,0,65,15.16a17.46,17.46,0,0,0-2.33-4.88c2.06,3.46,2.42,8.66,2.31,11.82.18,0,.61-.09.9-.1Z"/><path class="cls-8" d="M67.71,23.14a6.07,6.07,0,0,1,.42,4.07,5.26,5.26,0,0,1-4.85,4.24c-1.85,6.33-9.78,10.65-20.07,9.6-5.42-.56-8.62-2.65-10.47-5.15,1.7,2.93,5,5.53,11.13,6.16,10.29,1,18.22-3.27,20.07-9.6a5.26,5.26,0,0,0,4.85-4.24A5.85,5.85,0,0,0,67.71,23.14Z"/></g><g class="cls-7"><path class="cls-6" d="M66.58,29.8a1,1,0,0,1-.42.84.77.77,0,0,1-.43.15.7.7,0,0,1-.52-.24,1.24,1.24,0,0,1-.31-.64.9.9,0,0,1,.22-.78,3.21,3.21,0,0,1,.44-.29.61.61,0,0,0,.21-.26.92.92,0,0,0,.06-.62.46.46,0,0,0-.32-.33.27.27,0,0,0-.12,0h-.14l-.08,0,0,0-.11.16c-.16.24-.29.3-.45.31a.42.42,0,0,1-.26-.12.63.63,0,0,1-.16-.29,4,4,0,0,1-.07-.88c0-.21,0-.41,0-.62a3.7,3.7,0,0,1,.32-1.13,2,2,0,0,1,.6-.73c.44-.32.8-.22.79-.17s-.31.1-.62.45a2.52,2.52,0,0,0-.59,1.68c0,.18,0,.36,0,.54s0,.13,0,.17.07,0,.07,0h0l.09-.08a1,1,0,0,1,.21-.1.74.74,0,0,1,.34-.06.79.79,0,0,1,.3.05A.93.93,0,0,1,66,27a1.39,1.39,0,0,1,.5.83A1.75,1.75,0,0,1,66.26,29a1.24,1.24,0,0,1-.44.44,2.31,2.31,0,0,0-.38.18.2.2,0,0,0-.09.22.64.64,0,0,0,.12.34.42.42,0,0,0,.55.13C66.4,30.15,66.53,29.76,66.58,29.8Z"/></g><path class="cls-21" d="M67.22,24.37c.3.31.64.4.76.2s0-.59-.31-.89-.64-.39-.76-.2S66.92,24.07,67.22,24.37Z"/><path class="cls-21" d="M66.1,22.9a.33.33,0,0,0,.15.38.21.21,0,0,0,.32-.1.34.34,0,0,0-.15-.39A.21.21,0,0,0,66.1,22.9Z"/><path class="cls-2" d="M54.22,27.76s.23.11.49.08a1,1,0,0,0,.85-.5c.15-.21.21-.46.17-.47s-.16.18-.33.33a2,2,0,0,1-.36.24,1.64,1.64,0,0,1-.38.19C54.46,27.71,54.22,27.72,54.22,27.76Z"/><path class="cls-2" d="M53.73,28.26s.21.21.5.28a1.94,1.94,0,0,0,.58.06,1.79,1.79,0,0,0,.55-.2c.26-.15.44-.38.41-.4s-.25.12-.5.2a1.89,1.89,0,0,1-.5.1,2.12,2.12,0,0,1-.51,0C54,28.32,53.75,28.22,53.73,28.26Z"/><path class="cls-2" d="M35.17,25.18s-.13.22-.09.46a1,1,0,0,0,.2.46,1.09,1.09,0,0,0,.44.23c.25.06.48,0,.47-.07s-.23,0-.4-.14a.8.8,0,0,1-.29-.23,1,1,0,0,1-.22-.3C35.2,25.41,35.21,25.19,35.17,25.18Z"/><path class="cls-2" d="M34.71,26.14s0,.3.14.54a1.14,1.14,0,0,0,.44.4,1.18,1.18,0,0,0,.58.05c.3,0,.52-.24.5-.27s-.27.08-.51.06a1,1,0,0,1-.45-.12,1,1,0,0,1-.4-.25C34.84,26.38,34.75,26.13,34.71,26.14Z"/><path class="cls-2" d="M38.59,25.59c0,1.36-.57,2.47-1.33,2.47s-1.4-1.1-1.43-2.46.58-2.46,1.34-2.47S38.56,24.23,38.59,25.59Z"/><path class="cls-22" d="M38.59,25.59c0,1.36-.57,2.47-1.33,2.47s-1.4-1.1-1.43-2.46.58-2.46,1.34-2.47S38.56,24.23,38.59,25.59Z"/><path class="cls-23" d="M37.81,23.42A4.52,4.52,0,0,1,38,24.49C38,25.85,37.4,27,36.64,27a.94.94,0,0,1-.64-.29c.23.82.71,1.39,1.26,1.39.76,0,1.35-1.11,1.33-2.47A3.15,3.15,0,0,0,37.81,23.42Z"/><path class="cls-24" d="M36.1,25.18c0,.46.14.86.38.88s.46-.33.49-.8-.14-.86-.38-.89S36.13,24.71,36.1,25.18Z"/><path class="cls-24" d="M37,23.93a.17.17,0,0,1-.17.19.18.18,0,0,1-.18-.19.18.18,0,0,1,.17-.19A.19.19,0,0,1,37,23.93Z"/><path class="cls-2" d="M54.79,26.76c-.15,1.36-.89,2.38-1.64,2.29s-1.24-1.26-1.09-2.62.89-2.37,1.64-2.28S54.94,25.41,54.79,26.76Z"/><path class="cls-22" d="M54.79,26.76c-.15,1.36-.89,2.38-1.64,2.29s-1.24-1.26-1.09-2.62.89-2.37,1.64-2.28S54.94,25.41,54.79,26.76Z"/><path class="cls-23" d="M54.34,24.57a4.41,4.41,0,0,1,0,.89c-.16,1.35-.89,2.38-1.65,2.29a1,1,0,0,1-.64-.42c.1.94.52,1.65,1.1,1.72.75.09,1.49-.93,1.64-2.29A3.17,3.17,0,0,0,54.34,24.57Z"/><path class="cls-24" d="M52.49,26c-.09.46,0,.87.26.92s.5-.27.59-.73,0-.88-.26-.93S52.58,25.53,52.49,26Z"/><path class="cls-24" d="M53.59,24.87a.19.19,0,0,1-.2.17.19.19,0,0,1-.16-.21.19.19,0,0,1,.2-.17A.18.18,0,0,1,53.59,24.87Z"/><path class="cls-8" d="M46.62,30.66a5.49,5.49,0,0,1-4.33-1.18s-1.22.78,1,1.6C46.12,32.18,46.62,30.66,46.62,30.66Z"/><g class="cls-7"><path class="cls-6" d="M45.38,31.27a5.9,5.9,0,0,1-.9,0,5.41,5.41,0,0,1-1.85-.63A1.13,1.13,0,0,1,42,30a.57.57,0,0,1,.26-.56,1.5,1.5,0,0,1,.5-.22,1,1,0,0,1,.21,0,2.28,2.28,0,0,1,.51,0,3.1,3.1,0,0,1,.61.09,3.44,3.44,0,0,1,.37.14,7.54,7.54,0,0,1,.8.49c0-.31,0-.65,0-1,0-.19,0-.4,0-.61,0-.41,0-.84,0-1.22a5.61,5.61,0,0,0-.13-1.36,5.75,5.75,0,0,0-.16,1.36c0,.38-.05.81-.07,1.23l0,.61c0,.06,0,.08,0,.09L44.72,29l-.44-.18a3.51,3.51,0,0,0-.73-.15,2.78,2.78,0,0,0-.63,0,1.87,1.87,0,0,0-.28.06,1.94,1.94,0,0,0-.7.36,1.35,1.35,0,0,0-.35.45,1.09,1.09,0,0,0,0,.67,1.52,1.52,0,0,0,.88.88,4.86,4.86,0,0,0,2,.48A1.31,1.31,0,0,0,45.38,31.27Z"/></g><path class="cls-21" d="M43.43,29.59c0,.14.14.35.44.47s.57.1.63,0-.14-.35-.43-.46S43.49,29.45,43.43,29.59Z"/><path class="cls-8" d="M49.91,30.9c0,1.36,1.72,2.48,3.88,2.51S57.7,32.35,57.71,31,56,28.5,53.84,28.48,49.93,29.54,49.91,30.9Z"/><path class="cls-8" d="M31.85,29.11c-.26,1.33,1.22,2.74,3.31,3.15s4-.35,4.26-1.69-1.23-2.74-3.32-3.15S32.11,27.77,31.85,29.11Z"/><path class="cls-8" d="M32.43,19.75S34.61,4,49,4.08,66.07,15.2,65.83,22c1.59.27,2.89,2.05,3.11,4.18-1.65-.44-3.47-2.34-4-2.91-.24,1.6-1.15,7.11-1.84,11.2A12.07,12.07,0,0,1,60.21,38c-.19-4.24-.56-12.22-.75-15.35a16.73,16.73,0,0,1-3-1.89,35.43,35.43,0,0,1-8.16-8.56s-8.94,4.53-14.35,3.64c0,0-2,5-2,7l-.12-.13C32.11,21,32.43,19.75,32.43,19.75Z"/><path class="cls-2" d="M44.21.39C50.73-1.07,53.83,2,53.83,2s7.32-2.77,12.8,2.87c0,0,5,1.67,5.7,13.86.63,11.2-5.79,4.56-6.84,3.41-.39,2.65-2.63,16-2.63,16l-2,1.5S60.26,25.9,60,21.56a17.44,17.44,0,0,1-3-1.9,35.43,35.43,0,0,1-8.16-8.56s-8.94,4.53-14.35,3.64c0,0-2,5-2,7,0,0-1.43-1.81-3.24-.73C29.21,21,27.65,4.1,44.21.39Z"/><path class="cls-3" d="M72.33,18.78c0-.38,0-.76-.08-1.12L72.19,17l0-.24c0-.22,0-.43-.07-.63s0-.36-.07-.53c-.07-.48-.14-.95-.22-1.39,0-.22-.09-.44-.13-.65s-.09-.42-.14-.62c.21,2.18.24,4.31-.35,4.56s-1.3-.62-2-1.65a.36.36,0,0,1,0-.07,18,18,0,0,1-1.13-2c.19.44.43,1,.66,1.67l0,.09,0,.09a17.49,17.49,0,0,1,.86,3.17,3.3,3.3,0,0,1-.5,2.82c-.72.68-2,.2-3.26-.66a.18.18,0,0,1-.07-.05c-.28-.18-.57-.39-.85-.61a33.72,33.72,0,0,1-3.43-3.21c.13.24,1.53,2.87.52,3.58-.65.45-3.72-1.18-6.44-2.95h0c-.82-.53-1.61-1.08-2.29-1.58l-.26-.2h0c-.43-.31-.8-.6-1.1-.85.3.33.63.68,1,1l.4.4.18.17.63.6.87.78c.3.27.62.53.95.8s.66.54,1,.81a16.85,16.85,0,0,0,3,1.9c0,.27,0,.58,0,.92,0,.17,0,.34,0,.53,0,.46.05,1,.07,1.5,0,.11,0,.23,0,.34,0,.44,0,.9.07,1.37a1.7,1.7,0,0,1,0,.22c0,.34,0,.69,0,1s0,.71.05,1.06l.06,1.29c0,.45.05.9.07,1.34,0-1.18.05-2.65.18-3.84v-.09a8.42,8.42,0,0,1,.14-1v0c.13-.64.3-1.06.54-1.09.51-.05.76.91.91,1.94a.66.66,0,0,1,0,.15,22.39,22.39,0,0,1,.14,2.35s0-.81.13-1.65v0c.14-1,.4-2.12.93-1.71a2.2,2.2,0,0,1,.46,1.31v0a9.87,9.87,0,0,1,.1,1v0c0,.12,0,.24,0,.37h0c0,.43,0,.86,0,1.3h0a0,0,0,0,1,0,0c0,.19,0,.36,0,.54v0c0-.22.07-.45.11-.67s.08-.45.11-.67.07-.45.11-.67l.12-.69c.06-.36.12-.71.17-1.06h0l0-.19c.06-.36.12-.72.18-1.06a.77.77,0,0,1,0-.15c0-.29.1-.58.14-.85l0-.16s0-.07,0-.1l0-.18s0,0,0,0a.13.13,0,0,1,0-.06c0-.23.07-.45.1-.65a0,0,0,0,1,0,0,3.12,3.12,0,0,0,.06-.41c0-.14,0-.27.06-.39s0-.24.06-.34,0-.2,0-.28c.14.15.36.39.65.67l0,0,.36.35.34.3a11.54,11.54,0,0,0,1.15.87l0,0,.1,0a2.76,2.76,0,0,0,.44.25h0l.11,0h0l.24.11h0l.28.1.13,0,.07,0h.06l.24.05.32,0h.27l.09,0a.67.67,0,0,0,.19,0A1.51,1.51,0,0,0,71,25l.07,0,.07-.05a2.25,2.25,0,0,0,.24-.21,1.6,1.6,0,0,0,.22-.28,2.26,2.26,0,0,0,.16-.26l.15-.32a2,2,0,0,0,.1-.26,7,7,0,0,0,.28-1.26c0-.13,0-.27.05-.41h0c0-.2,0-.41,0-.63v0c0-.14,0-.29,0-.45C72.38,20.16,72.37,19.51,72.33,18.78Zm-4.49-5.53,0,0,.18.38Z"/><path class="cls-3" d="M46.49,10.67a4.46,4.46,0,0,0-3.24.07S49.17,6.58,48,5.25A13.46,13.46,0,0,0,44.1,2.78s3.31-.07,5,1.06c0,0,2.62-.1.4-1.5,0,0,2.1-.41,2.31-1.53a6.89,6.89,0,0,1,2,1.23,13.48,13.48,0,0,1,7.89-.15,3.2,3.2,0,0,0-2.47.54c-1.06,1.12,2,4.27,2,4.27s-3.87-1.88-4.65-1.53,4,4.16,4,4.16S55.09,6.8,54.88,7.5s1.9,2.82,1.9,2.82-6.27-4.09-5.42.92a13.92,13.92,0,0,0,2.17,5.43,31.53,31.53,0,0,1-4.7-5.57,46.42,46.42,0,0,1-6.27,2.53C44.58,12.66,47.43,11.14,46.49,10.67Z"/><g class="cls-4"><path class="cls-2" d="M59.93,21s-.09-.09-.26-.22l-.73-.54c-.61-.45-1.42-1-2.22-1.65s-1.57-1.23-2.14-1.72-.93-.83-.93-.83a24.85,24.85,0,0,1-2.76-2.88,21.65,21.65,0,0,1-1.58-2.25c-.2-.32-.36-.59-.47-.78a1.45,1.45,0,0,0-.18-.29,1.14,1.14,0,0,0,.13.32c.09.2.23.48.41.81a20.61,20.61,0,0,0,1.52,2.32,24.81,24.81,0,0,0,2.72,3s.38.34,1,.82,1.38,1.1,2.2,1.68,1.64,1.16,2.27,1.57l.76.5A1.54,1.54,0,0,0,59.93,21Z"/></g><g class="cls-4"><path class="cls-2" d="M60.13,21.37a3,3,0,0,0,.9.71,6.41,6.41,0,0,0,1.07.45,6.22,6.22,0,0,0,1.14.14,2.84,2.84,0,0,0,1.13-.16s-.56,0-1.11-.05a6,6,0,0,1-1.08-.23,6.17,6.17,0,0,1-1-.35C60.62,21.66,60.16,21.34,60.13,21.37Z"/></g><g class="cls-4"><path class="cls-2" d="M53.8,8.05a1.29,1.29,0,0,0-.35-.56A3.38,3.38,0,0,0,53,7a4.12,4.12,0,0,0-.62-.26,1.28,1.28,0,0,0-.66-.06,4,4,0,0,0,.59.26,4.41,4.41,0,0,1,.53.32,4.32,4.32,0,0,1,.51.34C53.55,7.84,53.76,8.08,53.8,8.05Z"/></g><g class="cls-4"><path class="cls-2" d="M63,13.11a1,1,0,0,0-.09-.29,6.74,6.74,0,0,0-.31-.73,9.54,9.54,0,0,0-1.37-2,12.61,12.61,0,0,0-1.79-1.66c-.53-.4-.9-.63-.9-.63s-.38-.24-1-.55a24.22,24.22,0,0,0-2.19-1,9.43,9.43,0,0,0-2.31-.74,2,2,0,0,0-.8.08A.73.73,0,0,0,52,5.7a2.13,2.13,0,0,1,1.06-.11,9.53,9.53,0,0,1,2.24.82c.79.36,1.57.75,2.14,1.08s.93.56.93.56.37.23.9.61a12.09,12.09,0,0,1,1.79,1.57,10,10,0,0,1,1.42,1.91C62.82,12.71,63,13.12,63,13.11Z"/></g><g class="cls-4"><path class="cls-2" d="M70.6,26.21s-.27-.23-.69-.56-1-.77-1.52-1.23c-1.07-.93-2.06-1.94-2.06-1.94s-1-1-1.94-2.08c-.46-.54-.9-1.09-1.23-1.51a5.31,5.31,0,0,0-.56-.7,5.71,5.71,0,0,0,.47.76c.29.45.72,1,1.16,1.59.88,1.12,1.89,2.15,1.89,2.15s1,1,2.14,1.89c.56.45,1.13.87,1.58,1.17A4.12,4.12,0,0,0,70.6,26.21Z"/></g><g class="cls-4"><path class="cls-2" d="M68.15,22.07a6.82,6.82,0,0,0,.71,1l.72,1,.76.95a8.07,8.07,0,0,0,.79.94,5.56,5.56,0,0,0-.61-1.07c-.34-.51-.7-1-.7-1s-.39-.48-.8-.93A5.28,5.28,0,0,0,68.15,22.07Z"/></g><g class="cls-4"><path class="cls-2" d="M63.45,8.41a1.69,1.69,0,0,0,.25.3c.17.17.41.43.69.74.58.61,1.35,1.43,2,2.3a17.65,17.65,0,0,1,1.73,2.53,11.45,11.45,0,0,1,.6,1.25s.23.5.51,1.29.59,1.87.89,2.95.61,2.16.84,3l.29,1a1.5,1.5,0,0,0,.13.36,2.47,2.47,0,0,0-.07-.38l-.24-1c-.2-.82-.47-1.9-.75-3s-.56-2.18-.83-3-.49-1.32-.49-1.32a12.82,12.82,0,0,0-.64-1.27,16.9,16.9,0,0,0-1.81-2.53c-.73-.86-1.52-1.66-2.12-2.25l-.74-.7Z"/></g><g class="cls-4"><path class="cls-2" d="M61.65,7.15a3.47,3.47,0,0,0-.43-.45c-.26-.26-.63-.59-1-.92s-.77-.62-1.08-.84-.52-.35-.52-.35a9.48,9.48,0,0,0-1.82-.82,4.91,4.91,0,0,0-2-.26,2.66,2.66,0,0,0,.6.11A7.2,7.2,0,0,1,56.73,4a9.77,9.77,0,0,1,1.74.88A15.71,15.71,0,0,1,60.08,6C60.86,6.55,61.62,7.18,61.65,7.15Z"/></g><g class="cls-4"><path class="cls-2" d="M68.53,9.81s.35.74.68,1.48.61,1.49.61,1.49.31.75.56,1.52.45,1.56.49,1.55a6.83,6.83,0,0,0-.28-1.61c-.21-.79-.49-1.57-.49-1.57s-.31-.76-.7-1.48A7.77,7.77,0,0,0,68.53,9.81Z"/></g><g class="cls-4"><path class="cls-2" d="M61.66,42.8c.09,0-.45-10.44-.45-10.44S60.54,21.94,60.46,22s.45,10.43.45,10.43S61.58,42.8,61.66,42.8Z"/></g><g class="cls-4"><path class="cls-2" d="M63.25,39.73a2.46,2.46,0,0,0,0-.37c0-.24,0-.57.06-1,0-.81.13-1.89.21-3,.17-2.16.43-4.3.43-4.3s.21-2.15.5-4.29c.15-1.07.31-2.14.44-2.94.06-.41.11-.74.15-1a1.71,1.71,0,0,0,0-.37,1.56,1.56,0,0,0-.09.36c-.06.23-.13.56-.21,1-.16.79-.35,1.86-.53,2.92-.35,2.14-.59,4.29-.59,4.29s-.22,2.16-.34,4.32c-.06,1.08-.1,2.16-.11,3,0,.4,0,.74,0,1A1.61,1.61,0,0,0,63.25,39.73Z"/></g><g class="cls-4"><path class="cls-2" d="M62.48,30.19a16.72,16.72,0,0,0,0-1.71l0-1.7v-1.7a16.72,16.72,0,0,0,0-1.71,9.65,9.65,0,0,0-.19,1.7c-.06.85-.08,1.71-.08,1.71s0,.85.05,1.71A8.78,8.78,0,0,0,62.48,30.19Z"/></g><g class="cls-4"><path class="cls-2" d="M47.78,1.71a5.82,5.82,0,0,0,.88.29,7.47,7.47,0,0,1,.84.34,8.79,8.79,0,0,1,.82.39c.4.22.77.49.79.46a2.38,2.38,0,0,0-.68-.64,5.4,5.4,0,0,0-.81-.48,6.09,6.09,0,0,0-.91-.28A2.51,2.51,0,0,0,47.78,1.71Z"/></g><g class="cls-4"><path class="cls-2" d="M40.85,3.05a7.61,7.61,0,0,0,.76-.1,11.83,11.83,0,0,1,1.68-.11A12.61,12.61,0,0,1,45,3c.46.07.75.14.75.14s.3.06.74.18A12.67,12.67,0,0,1,48,3.86a14,14,0,0,1,1.48.8,5.25,5.25,0,0,0,.66.4,4,4,0,0,0-.59-.5,10.37,10.37,0,0,0-1.46-.89A12.75,12.75,0,0,0,46.53,3l-.75-.2s-.31-.07-.78-.13a10.46,10.46,0,0,0-3.41.12A2.93,2.93,0,0,0,40.85,3.05Z"/></g><g class="cls-4"><path class="cls-2" d="M30.85,13.08a2.29,2.29,0,0,0,.34.22,7.36,7.36,0,0,0,.94.47,11.22,11.22,0,0,0,3.13.76,17.86,17.86,0,0,0,3.21,0c.88-.08,1.45-.17,1.45-.17s.58-.09,1.44-.26a24.46,24.46,0,0,0,3.11-.81,11.66,11.66,0,0,0,2.83-1.52c.36-.25.65-.47.85-.63a1.67,1.67,0,0,0,.3-.26,2.37,2.37,0,0,0-.34.21l-.88.58a11.66,11.66,0,0,1-2.83,1.41,23,23,0,0,1-3.09.74c-.86.16-1.43.24-1.43.24s-.57.1-1.43.19a18,18,0,0,1-3.18.08,11.27,11.27,0,0,1-3.09-.65C31.37,13.36,30.87,13.05,30.85,13.08Z"/></g><g class="cls-4"><path class="cls-2" d="M30.09,16.39a2.77,2.77,0,0,0,1.26.32,4.72,4.72,0,0,0,1.31-.15A4.68,4.68,0,0,0,33.84,16a2.78,2.78,0,0,0,.88-1,11.47,11.47,0,0,1-1,.77,4.64,4.64,0,0,1-1.14.48,4.93,4.93,0,0,1-1.23.22A12.1,12.1,0,0,1,30.09,16.39Z"/></g><g class="cls-4"><path class="cls-2" d="M31.24,20.56a4.46,4.46,0,0,0,.35-.73c.17-.36.37-.7.37-.7s.17-.36.36-.71a4.6,4.6,0,0,0,.4-.7s-.33.26-.57.58a7.91,7.91,0,0,0-.46.69,7,7,0,0,0-.29.76A2.13,2.13,0,0,0,31.24,20.56Z"/></g><g class="cls-4"><path class="cls-2" d="M39.07,5.23s.72-.11,1.43-.1a8.24,8.24,0,0,1,1.42.12,8.53,8.53,0,0,1,1.38.33c.68.22,1.31.58,1.33.55a3.85,3.85,0,0,0-1.25-.75A7.42,7.42,0,0,0,42,5a7.42,7.42,0,0,0-1.48,0A4.28,4.28,0,0,0,39.07,5.23Z"/></g><g class="cls-4"><path class="cls-2" d="M36.59,12.12a.91.91,0,0,0,.27,0c.17,0,.42,0,.71,0a17,17,0,0,0,2.12-.24,19.47,19.47,0,0,0,3-.78L43,11l.65-.26a19.07,19.07,0,0,0,1.93-1,14.27,14.27,0,0,0,1.79-1.17,1.42,1.42,0,0,0,.59-.77,2.4,2.4,0,0,1-.66.68A18.53,18.53,0,0,1,45.44,9.6a19,19,0,0,1-1.92.88l-.66.25-.24.09a21.1,21.1,0,0,1-3,.85c-.75.16-1.52.28-2.09.34S36.59,12.1,36.59,12.12Z"/></g><g class="cls-4"><path class="cls-2" d="M31.17,10.75s.61-.35,1.24-.65a12.29,12.29,0,0,1,1.28-.52A12.81,12.81,0,0,1,35,9.14c.67-.19,1.37-.28,1.37-.33A4.78,4.78,0,0,0,35,8.93a11.47,11.47,0,0,0-1.38.36,10.25,10.25,0,0,0-1.27.62A4.51,4.51,0,0,0,31.17,10.75Z"/></g><path class="cls-3" d="M31.47,18.45c.58-1.09-1.66-1.73-1.66-1.73a6,6,0,0,0,2.24-.7c1.48-.71-1-2.44-1.09-2.64l3.6,1,.16.36-.24,0s-2,5-2,7c0,0-1.43-1.81-3.24-.73a18,18,0,0,1,0-2.34C30.05,19.09,31.12,19.12,31.47,18.45Z"/><g class="cls-5"><path class="cls-2" d="M60.49,19.48c-1.51.4-3.25-1.14-4.35-2-1.34-1.07-2.71-2.17-2.82-4A.51.51,0,0,1,54,13c1.61.3,2.6,1.55,3.79,2.56,1,.86,2.87,1.83,3.19,3.17a.64.64,0,0,1-.44.77Z"/></g><g class="cls-5"><path class="cls-2" d="M60.32,16.16a1.82,1.82,0,0,1-1-.42,2.86,2.86,0,0,1-.82-.77c-.12-.16.08-.39.26-.33a2.94,2.94,0,0,1,1,.54,1.76,1.76,0,0,1,.7.78.15.15,0,0,1-.15.2Z"/></g><g class="cls-5"><path class="cls-2" d="M65.8,20c-1.19-1.71-2.44-3.39-3.73-5C61,13.58,59.7,12.4,58.65,11c-.25-.33.16-.76.51-.66,1.9.51,3.18,2.23,4.34,3.73a17.49,17.49,0,0,1,3,5.55.41.41,0,0,1-.74.32Z"/></g><g class="cls-5"><path class="cls-2" d="M67.32,16.76c-.35-.19-.41-.76-.57-1.1s-.46-.82-.62-1.27a.23.23,0,0,1,.38-.22,3.73,3.73,0,0,1,.74,1.28c.15.36.46.89.25,1.26a.13.13,0,0,1-.18.05Z"/></g><g class="cls-5"><path class="cls-2" d="M65,12.54c-1.06-.45-1.93-1.7-2.71-2.52s-2-1.7-2.47-2.82c0-.12.09-.22.19-.19,1.18.28,2.18,1.47,3,2.31s2,2,2.13,3.11c0,.05,0,.14-.12.11Z"/></g><g class="cls-5"><path class="cls-2" d="M69.48,13.83c-1.22-1.58-2.32-3.24-3.68-4.72s-3.16-2.35-4.1-4a.64.64,0,0,1,.54-1c2.13.25,3.67,2.14,4.92,3.73a12.15,12.15,0,0,1,2.63,5.79.18.18,0,0,1-.31.13Z"/></g><g class="cls-5"><path class="cls-2" d="M68.74,8.23l-.63-.76c-.07-.08,0-.21.13-.12l.66.72c.1.11-.07.27-.16.16Z"/></g><g class="cls-5"><path class="cls-2" d="M61.74,29.31a17.61,17.61,0,0,1,.38,6.51c0,.23-.4.33-.44.06a17.7,17.7,0,0,1-.07-6.57c0-.07.11-.06.13,0Z"/></g><g class="cls-5"><path class="cls-2" d="M44.38,11.24c-.8,1.41-2.39,1.8-3.89,2.08a14.12,14.12,0,0,1-6.59,0,.43.43,0,0,1,.11-.84c3.57-.22,7,.31,10.28-1.37.06,0,.13,0,.09.09Z"/></g><g class="cls-5"><path class="cls-2" d="M46.79,5.29a14.07,14.07,0,0,1-2.41-.76c-.14-.07,0-.29.11-.25a12.58,12.58,0,0,1,2.33.93s0,.09,0,.08Z"/></g><g class="cls-5"><path class="cls-2" d="M43,4a21.45,21.45,0,0,1-2.66.31,6.16,6.16,0,0,1-2.41.12.18.18,0,0,1,0-.33,4.5,4.5,0,0,1,2.59-.5A6.75,6.75,0,0,1,43,4a0,0,0,0,1,0,0Z"/></g><g class="cls-5"><path class="cls-2" d="M44,8.33c-1,1.14-3,1.59-4.41,2a10.91,10.91,0,0,1-4.92.62.57.57,0,0,1-.13-1,18.3,18.3,0,0,1,4.57-1.31c1.48-.34,3.13-1.08,4.64-.92a.36.36,0,0,1,.25.61Z"/></g><g class="cls-5"><path class="cls-2" d="M38.44,7.13c-.29.33-.79.33-1.2.4a3.83,3.83,0,0,1-1.35,0,.16.16,0,0,1,0-.29,3.73,3.73,0,0,1,1.31-.34A2,2,0,0,1,38.43,7a.1.1,0,0,1,0,.15Z"/></g><g class="cls-5"><path class="cls-2" d="M47.49,2.32a3.32,3.32,0,0,1-1.37-.27c-.55-.13-1-.35-1.59-.52-.1,0-.12-.2,0-.22a4.18,4.18,0,0,1,1.69,0A2.41,2.41,0,0,1,47.64,2a.25.25,0,0,1-.15.36Z"/></g><g class="cls-7"><path class="cls-2" d="M54.06,23a7,7,0,0,0,1.12.4l.52.12a1.76,1.76,0,0,1-.53.18,2.19,2.19,0,0,1-1.36-.16,2.34,2.34,0,0,1-1-.93,1.71,1.71,0,0,1-.2-.53l.42.33A8.36,8.36,0,0,0,54.06,23Z"/><path class="cls-2" d="M36.9,20.34a1.72,1.72,0,0,1,1.51.08l-.41.13c-.24.08-.55.21-.87.34s-.62.27-.84.39l-.38.21A1.68,1.68,0,0,1,36.9,20.34Z"/></g><g class="cls-7"><path class="cls-6" d="M42.47,38.71a1.06,1.06,0,0,0,.33.62,1.12,1.12,0,0,0,.27.18.65.65,0,0,1-.32-.09.93.93,0,0,1-.48-.68,1,1,0,0,1,.24-.78.47.47,0,0,1,.18-.17c.07,0,.09,0,.09,0s-.13,0-.18.21A1.12,1.12,0,0,0,42.47,38.71Z"/></g><path class="cls-16" d="M47.86,36.7s-1.49-5.62-5-4.29a1.52,1.52,0,0,0-1.8-.1,1.5,1.5,0,0,0-.65,1,.77.77,0,0,0,.06.47A2.22,2.22,0,0,1,40.49,35a2.29,2.29,0,0,1-.26.9,17.25,17.25,0,0,1,2.49-.15,12.42,12.42,0,0,1,4.71.8Z"/><path class="cls-17" d="M47.86,36.7s-1.49-5.62-5-4.29a1.52,1.52,0,0,0-1.8-.1,1.5,1.5,0,0,0-.65,1,.77.77,0,0,0,.06.47A2.22,2.22,0,0,1,40.49,35a2.29,2.29,0,0,1-.26.9,17.25,17.25,0,0,1,2.49-.15,12.42,12.42,0,0,1,4.71.8Z"/><path class="cls-17" d="M47.86,36.7s-1.49-5.62-5-4.29a1.52,1.52,0,0,0-1.8-.1,1.5,1.5,0,0,0-.65,1,.77.77,0,0,0,.06.47A2.22,2.22,0,0,1,40.49,35a2.29,2.29,0,0,1-.26.9,17.25,17.25,0,0,1,2.49-.15,12.42,12.42,0,0,1,4.71.8Z"/><path class="cls-17" d="M46.68,34.07c0,.46-.68-.08-1.19-.34A8,8,0,0,0,42.56,33a6.41,6.41,0,0,0-1.77.49c-.24.06-.31-.24-.33-.51a1.58,1.58,0,0,0-.09.31.77.77,0,0,0,.06.47A2.22,2.22,0,0,1,40.49,35a2.29,2.29,0,0,1-.26.9,17.25,17.25,0,0,1,2.49-.15,12.42,12.42,0,0,1,4.71.8l.43.2A10.14,10.14,0,0,0,46.68,34.07Z"/><path class="cls-2" d="M40.63,35.86l.71-.11.27,0h0l.58-.05a13.21,13.21,0,0,1,2.74.09h0l.21,0,.34.07.15,0,.42.11a5,5,0,0,1,.51.16l0,0a7.56,7.56,0,0,1,.71.3,5.36,5.36,0,0,0-3.44-3,3.62,3.62,0,0,0-2.45.13c-.67.37-.61,1-.72,1.58C40.74,35.41,40.69,35.64,40.63,35.86Z"/><path class="cls-16" d="M40.4,35.78a.69.69,0,0,0-.37.38c-.34.91,1.82,1,2.28,1.08a12.16,12.16,0,0,0,5.57-.58l-.14-.07A9.3,9.3,0,0,0,45,35.7a12.77,12.77,0,0,0-4-.07A2.23,2.23,0,0,0,40.4,35.78Z"/><path class="cls-17" d="M47.74,36.59a8.6,8.6,0,0,0-1.85-.7c.17.4.15,1.26-2.89,1-2.42-.23-2.77-.7-2.69-1a.68.68,0,0,0-.28.32c-.34.91,1.82,1,2.28,1.08a12.16,12.16,0,0,0,5.57-.58Z"/><path class="cls-25" d="M44.75,36.15c0,.16-.28.28-.61.28s-.6-.12-.6-.28.27-.28.6-.28S44.75,36,44.75,36.15Z"/><path class="cls-10" d="M42,34.71c.91.31,3.37.53,4.12-.05A4.49,4.49,0,0,0,44,33.48a3.62,3.62,0,0,0-2.45.13,1.6,1.6,0,0,0-.28.22A1.09,1.09,0,0,0,42,34.71Z"/><path class="cls-12" d="M44,33.48a3.62,3.62,0,0,0-2.45.13,1.6,1.6,0,0,0-.28.22,1.8,1.8,0,0,0,.06.22,4.15,4.15,0,0,1,3.5.08c1.06.64-.32.8-1.41.84a4.7,4.7,0,0,0,2.71-.31A4.49,4.49,0,0,0,44,33.48Z"/><path class="cls-10" d="M68.23,80.55c.17.43.37.91.6,1.43H60.67c-.59-2-1-3.46-1.07-4,0-.07,0-.15,0-.25s0-.05,0-.08,0-.06,0-.09,0-.07,0-.11,0-.06,0-.1c-.08-.5-.19-1.19-.32-2h0c-.07-.46-.15-1-.23-1.52-.06-.36-.11-.74-.17-1.14-.12-.79-.24-1.64-.36-2.54-.06-.44-.12-.9-.19-1.37-.12-.93-.24-1.9-.36-2.89l-.09-.75c0-.06,0-.12,0-.18,0-.31-.07-.62-.11-.94h0v-.06a2.91,2.91,0,0,1,0-.31c0-.31-.06-.62-.1-.93h0v0c-.1-1-.19-2-.27-2.94a.22.22,0,0,1,0-.08c0-.07,0-.14,0-.21h0c0-.1,0-.19,0-.28a.06.06,0,0,0,0,0h0c0-.24,0-.49-.05-.73l0-.32a1.21,1.21,0,0,0,0-.19l-.06-1.06L57,56c0-.2,0-.39,0-.59s0-.68,0-1,0-.72,0-1.07h0a2,2,0,0,1,0-.25.81.81,0,0,1,0-.22c0-.2,0-.4,0-.59a20.83,20.83,0,0,1,.32-3.3c0-.12.05-.23.08-.34l.09-.35.09-.27a3,3,0,0,1,.33-.72,1.75,1.75,0,0,1,.36-.43s.17.05.44.16l.05,0,.33.15.47.23a5.65,5.65,0,0,1,.53.29,2.29,2.29,0,0,1,.29.18l.23.16a8.17,8.17,0,0,1,2.29,2.23A16.48,16.48,0,0,1,64.1,54.9c.76,4.33,1.51,10.75,2.12,15.79v0l0,.25c0,.36.08.7.13,1,0,0,0,0,0,.08a.41.41,0,0,0,0,.11c0,.18,0,.37.07.55a.38.38,0,0,0,0,.1c0,.41.1.81.15,1.19,0,0,0,.07,0,.11l.06.45c0,.22,0,.43.08.63s0,.32.07.48,0,.07,0,.11,0,.23,0,.34,0,.07,0,.11l.06.4c0,.13,0,.25.05.37s0,.15,0,.23a.44.44,0,0,1,0,.1s0,.06,0,.08,0,.19,0,.27v0a1.62,1.62,0,0,1,0,.19,0,0,0,0,1,0,0,.13.13,0,0,1,0,.06.74.74,0,0,1,0,.14v0s0,.1,0,.14l0,.12,0,0a.14.14,0,0,1,0,.07s0,0,0,0l0,.06,0,.08a1.12,1.12,0,0,0,0,.13l.09.23v0a3.35,3.35,0,0,0,.15.35h0a2.44,2.44,0,0,1,.1.24l0,.08q.06.12.12.27l0,.1,0,0c0,.11.09.21.13.32Z"/><path class="cls-12" d="M68.09,80.23l.14.32h0c-1.24-.93-2.66-1.4-3.92-.2A2.7,2.7,0,0,0,63.63,82h-3c-.59-2-1-3.46-1.07-4,0-.07,0-.15,0-.25s0-.05,0-.08,0-.06,0-.09,0-.07,0-.11,0-.06,0-.1c-.08-.5-.19-1.19-.32-2h0c-.07-.46-.15-1-.23-1.52-.06-.36-.11-.74-.17-1.14-.12-.79-.24-1.64-.36-2.54-.06-.44-.12-.9-.19-1.37-.12-.93-.24-1.9-.36-2.89l-.09-.75c0-.06,0-.12,0-.18,0-.26-.06-.53-.1-.8a.66.66,0,0,0,0-.14h0c0-.12,0-.25,0-.37,0-.31-.06-.62-.1-.93h0v0c-.1-1-.19-2-.27-2.94a.22.22,0,0,1,0-.08c0-.07,0-.14,0-.21h0l0-.32h0c0-.24,0-.49-.05-.73s0-.22,0-.32,0-.13,0-.19l-.06-1.06L57,56c0-.2,0-.39,0-.59s0-.68,0-1,0-.72,0-1.07h0v-.24h0a1.62,1.62,0,0,1,0-.22c0-.2,0-.4,0-.59a20.83,20.83,0,0,1,.32-3.3c0-.12.05-.23.08-.34l.09-.35.09-.27a3,3,0,0,1,.33-.72,3.48,3.48,0,0,1,1.14-.1h0l.47.23a5.65,5.65,0,0,1,.53.29,2.29,2.29,0,0,1,.29.18l.24.15h0v0a1.19,1.19,0,0,0-.31.49c0,.16-.93.55-1.25,4.33-.06.73-.1,1.59-.11,2.61,0,.6,0,1.27,0,2,0,.15,0,.31,0,.47v0c0,1.41.16,3,.34,4.92.87,9.1,4.17,15.87,5.7,12.75a16.8,16.8,0,0,0,1.22-4.91l0,.25c0,.36.08.7.13,1,0,0,0,0,0,.08a.41.41,0,0,0,0,.11c0,.18,0,.37.07.55a.38.38,0,0,0,0,.1c0,.41.1.81.15,1.19,0,0,0,.07,0,.11l.06.45s0,.08,0,.12l.06.49v0c0,.16,0,.32.07.48s0,.07,0,.11,0,.23,0,.34,0,.07,0,.11l.06.4c0,.13,0,.25.05.37s0,.06,0,.08a.77.77,0,0,1,0,.15.44.44,0,0,1,0,.1s0,.06,0,.08,0,.19,0,.27v0a1.62,1.62,0,0,1,0,.19,0,0,0,0,1,0,0,.13.13,0,0,1,0,.06.74.74,0,0,1,0,.14v0s0,.1,0,.14l0,.12,0,0a.14.14,0,0,1,0,.07h0s0,0,0,0l0,.06,0,.08,0,.07s0,0,0,.06l.09.23v0h0c0,.09.07.18.11.27l0,.08h0a2.44,2.44,0,0,1,.1.24l0,.08q.06.12.12.27l0,.1Z"/><g class="cls-7"><path class="cls-13" d="M64,77.64s.49.08,1,.19a14.73,14.73,0,0,1,1.84.58c.45.19.87.44.89.41a2.71,2.71,0,0,0-.8-.6A6.18,6.18,0,0,0,66,77.8a5.82,5.82,0,0,0-1-.18A2.64,2.64,0,0,0,64,77.64Z"/><path class="cls-13" d="M65.43,77.13s.23.21.49.35.54.26.54.26.29.09.58.15a1.4,1.4,0,0,0,.6,0s-.27-.14-.54-.26l-.53-.22L66,77.28C65.73,77.19,65.45,77.09,65.43,77.13Z"/><path class="cls-13" d="M57.7,64.47a10.46,10.46,0,0,0-.08-1.12c0-.68-.1-1.57-.12-2.47,0-1.8.09-3.59.09-3.59s.1-1.79.37-3.57c.14-.89.3-1.77.44-2.43a11.23,11.23,0,0,0,.22-1.11,1.21,1.21,0,0,0-.11.29c0,.19-.14.46-.22.79-.18.65-.38,1.53-.54,2.42-.33,1.78-.46,3.59-.46,3.59s-.1,1.81,0,3.62c0,.9.14,1.8.23,2.47,0,.34.09.61.12.81A1.06,1.06,0,0,0,57.7,64.47Z"/><path class="cls-13" d="M57.28,59.43s-.2-.79-.32-1.59a12.22,12.22,0,0,1-.14-1.6,13.48,13.48,0,0,1,0-1.61c0-.8.22-1.6.17-1.61a6.15,6.15,0,0,0-.38,1.59,11.91,11.91,0,0,0-.09,1.64,12.68,12.68,0,0,0,.24,1.63A5.66,5.66,0,0,0,57.28,59.43Z"/></g></g></g></g></svg>