<svg xmlns="http://www.w3.org/2000/svg" viewBox="0 0 100.51 82.57"><defs><style>.cls-1{isolation:isolate;}.cls-2,.cls-3{fill:#6f3a1e;}.cls-3{opacity:0.3;}.cls-12,.cls-15,.cls-17,.cls-19,.cls-20,.cls-22,.cls-3,.cls-7,.cls-8{mix-blend-mode:multiply;}.cls-11,.cls-12,.cls-17,.cls-18,.cls-19,.cls-4{opacity:0.5;}.cls-11,.cls-18,.cls-21,.cls-23,.cls-4,.cls-5{mix-blend-mode:screen;}.cls-5,.cls-8{opacity:0.45;}.cls-20,.cls-21,.cls-22,.cls-6,.cls-8{fill:#e5b678;}.cls-11,.cls-9{fill:#294168;}.cls-10{fill:#fff;}.cls-12,.cls-13{fill:#d3dbfd;}.cls-14,.cls-15{fill:#88ac76;}.cls-15{opacity:0.35;}.cls-16,.cls-17,.cls-18,.cls-23{fill:#f15e6b;}.cls-22{opacity:0.25;}</style></defs><title>frendlyРесурс 13</title><g class="cls-1"><g id="Слой_2" data-name="Слой 2"><g id="OBJECTS"><path class="cls-2" d="M27.46,21.25s1,24.54,6,31.44,22.77,9,31.15.59,6.61-33.65,6.17-34.53S39.22,7.73,27.46,21.25Z"/><path class="cls-3" d="M36.82,37.2c-.21-2.4-.53-8.73-1.09-10.36a18.52,18.52,0,0,0-2-3.94s-3.86-.59-6.23-1c.08,1.41.29,5.12.77,9.56.12-.23.27-.38.46-.36.85.08,2.7,6.17,2.7,6.17s-.7-5.47.31-5.47S33.35,34,33.35,34s.46-1.62,1.62-.77C35.76,33.8,36.5,36,36.82,37.2Z"/><path class="cls-3" d="M36.82,37.2a3.67,3.67,0,0,0,.14.94C37,38.18,37,37.79,36.82,37.2Z"/><path class="cls-3" d="M69.21,37c-.07.39-.12.64-.12.64S69.15,37.34,69.21,37Z"/><path class="cls-3" d="M70.81,18.75c0-.05-.13-.12-.31-.21-.76.77-1.64,1.1-2.06.33a1.19,1.19,0,0,1,0-1.13c-1.49-.5-3.59-1.1-6.08-1.66L39.11,36.54s.12,7.39-.9,8.6-4-5.17-4-5.17,3.13,9,2.11,10S33,47.84,33,47.84s1.38,3.37.6,3.49c-.39.06-1.58-2.3-2.66-4.65a19.92,19.92,0,0,0,2.57,6,11,11,0,0,0,3,2.71,15.37,15.37,0,0,0,1.88.13c2.37,0,17.27-.76,24.57-.76a15.38,15.38,0,0,0,1.74-1.49,18,18,0,0,0,4-6.86C64.78,51.16,63.38,50,63,48.5s2.22-5.65,2.22-5.65-3,3-3.54,1.8,6.37-9.79,7.21-10c.59-.13.43,1.38.29,2.29.27-1.41.92-4.61,1.39-4.52.16,0,.26.84.33,2C71.64,26.48,71,19.22,70.81,18.75Z"/><g class="cls-4"><path class="cls-2" d="M33.76,45.16a2.19,2.19,0,0,1-.18-.38c-.1-.24-.25-.59-.41-1-.33-.84-.73-2-1.09-3.13-.74-2.3-1.27-4.66-1.27-4.66s-.5-2.36-.8-4.75c-.15-1.2-.27-2.4-.32-3.3,0-.45,0-.83-.05-1.09a2.26,2.26,0,0,1,0-.42,2.5,2.5,0,0,1,.06.41c0,.26.06.64.11,1.09.09.89.23,2.09.41,3.28.35,2.38.89,4.72.89,4.72s.49,2.35,1.17,4.66c.34,1.15.71,2.3,1,3.15l.36,1A2.67,2.67,0,0,1,33.76,45.16Z"/></g><g class="cls-4"><path class="cls-2" d="M37.91,47.89a1.44,1.44,0,0,1-.17-.22c-.09-.14-.23-.34-.38-.59-.31-.5-.7-1.17-1.07-1.86C35.56,43.84,35,42.38,35,42.38a26.94,26.94,0,0,1-.9-3,20,20,0,0,1-.38-2.11c0-.29-.05-.54-.06-.71a.8.8,0,0,1,0-.27,8,8,0,0,1,.19,1c.1.57.27,1.33.46,2.08a29,29,0,0,0,1,2.94s.54,1.45,1.22,2.85c.34.7.7,1.39,1,1.9A7,7,0,0,1,37.91,47.89Z"/></g><g class="cls-4"><path class="cls-2" d="M43.44,45.5a8.37,8.37,0,0,1-.08-1.18c0-.59-.1-1.18-.1-1.18s0-.58-.1-1.17a7.88,7.88,0,0,1-.1-1.17,4.9,4.9,0,0,1,.32,1.14c.11.59.18,1.18.18,1.18s0,.6,0,1.19A4.86,4.86,0,0,1,43.44,45.5Z"/></g><g class="cls-4"><path class="cls-2" d="M65.17,46.05a1.88,1.88,0,0,1,.15-.31c.11-.2.27-.46.45-.8.36-.66.82-1.55,1.24-2.46s.78-1.85,1-2.56.41-1.19.41-1.19.16-.47.37-1.19.47-1.69.69-2.67.37-2,.46-2.73c.06-.37.09-.68.12-.9a1.66,1.66,0,0,1,.06-.34,1.48,1.48,0,0,1,0,.34c0,.22,0,.54-.06.92-.06.75-.2,1.75-.37,2.75s-.42,2-.63,2.7-.36,1.22-.36,1.22-.16.48-.43,1.19-.66,1.64-1.1,2.55-.93,1.79-1.33,2.43c-.19.33-.37.59-.49.77A1.75,1.75,0,0,1,65.17,46.05Z"/></g><g class="cls-4"><path class="cls-2" d="M63.11,45.39s.57-.5,1-1.09A7.47,7.47,0,0,0,64.93,43a7.64,7.64,0,0,0,.57-1.37c.22-.72.26-1.47.3-1.47a4.06,4.06,0,0,1-.09,1.52,6.91,6.91,0,0,1-.51,1.46,6.65,6.65,0,0,1-.9,1.25A3.74,3.74,0,0,1,63.11,45.39Z"/></g><g class="cls-4"><path class="cls-2" d="M62.05,42.79a1.45,1.45,0,0,1-.25.55c-.16.25-.34.49-.34.49s-.21.21-.44.4-.49.35-.51.32.17-.25.36-.47l.36-.45.4-.42C61.82,43,62,42.77,62.05,42.79Z"/></g><g class="cls-4"><path class="cls-2" d="M68.08,45.6a6.23,6.23,0,0,1-.28,1.72,8.14,8.14,0,0,1-.42,1.14,3.94,3.94,0,0,1-.25.49s-.11.19-.3.46a9.16,9.16,0,0,1-.77.93,8.22,8.22,0,0,1-1.27,1.19s.57-.66,1.11-1.33a10.29,10.29,0,0,0,.7-1c.17-.27.27-.45.27-.45a4.3,4.3,0,0,0,.26-.47,9.4,9.4,0,0,0,.47-1.07C67.88,46.45,68,45.59,68.08,45.6Z"/></g><g class="cls-5"><path class="cls-2" d="M29.22,35.92c.3,3.38.7,7.79,2.87,10.53a.3.3,0,0,0,.5-.21,29.1,29.1,0,0,0-1.27-4.87c-.46-1.85-.93-3.68-1.26-5.56-.09-.47-.89-.37-.84.11Z"/></g><g class="cls-5"><path class="cls-2" d="M31.9,34.83a1.31,1.31,0,0,0-.19,1.2,2.84,2.84,0,0,0,.5,1.33.37.37,0,0,0,.62-.26,4.22,4.22,0,0,0-.29-1.3,1.42,1.42,0,0,0-.59-1Z"/></g><g class="cls-5"><path class="cls-2" d="M33.3,39.23A7.79,7.79,0,0,0,33.91,42c0,.09.18,0,.16-.07-.19-.93-.51-1.82-.73-2.75,0,0,0,0,0,0Z"/></g><g class="cls-5"><path class="cls-2" d="M34.7,34.29a4,4,0,0,0,.13,2.26,12.29,12.29,0,0,0,.84,2.85c0,.13.25.06.25-.07a11.35,11.35,0,0,0-.29-2.79c-.18-.75-.2-1.73-.79-2.27a.1.1,0,0,0-.14,0Z"/></g><g class="cls-5"><path class="cls-2" d="M68.27,36.92a1.89,1.89,0,0,0-.6.85,2.61,2.61,0,0,0-.19,1.14.25.25,0,0,0,.46.12,4.38,4.38,0,0,0,.38-1,2.85,2.85,0,0,0,.14-.5c0-.17,0-.36,0-.54a.09.09,0,0,0-.16-.06Z"/></g><g class="cls-5"><path class="cls-2" d="M69.78,37.28c-1.63,3.2-3.2,6.56-4.6,9.86-.14.35.26.77.57.44a16,16,0,0,0,4.16-10.27.07.07,0,0,0-.13,0Z"/></g><g class="cls-4"><path class="cls-2" d="M34.32,50.53a10.74,10.74,0,0,1-.89-1.44,12,12,0,0,1-.61-1.58A10.67,10.67,0,0,1,33.7,49,12.05,12.05,0,0,1,34.32,50.53Z"/></g><path class="cls-6" d="M95.43,62.61c.84-.38,4.25-.56,3.54,1.24a2.3,2.3,0,0,1,1.29,2.28,1.53,1.53,0,0,0,0,.37,1.74,1.74,0,0,0,.16.41,1.49,1.49,0,0,1-.1,1.3c0,.08.07.26.07.35,0,1.46-1.73,2.24-2.86,2.62s-3.11.89-4.35.23l-2.08,1.46s-3.18-4.06-2-4.74l1.52-.62s0-2,0-2.14c.2-1.44,1-2.09,1.78-3.19a2.88,2.88,0,0,0,.42-.84,5,5,0,0,0,.13-.86,1.42,1.42,0,0,0-.06-.68,1.66,1.66,0,0,1-.18-.35.53.53,0,0,1,.16-.44,1.23,1.23,0,0,1,1-.35,1.93,1.93,0,0,1,1.62,1.48C95.67,60.63,96,62.34,95.43,62.61Z"/><g class="cls-7"><path class="cls-6" d="M94,66.4a3.86,3.86,0,0,0,.49-1.76,3.25,3.25,0,0,0-.07-.8,2.34,2.34,0,0,1,.26.78,3,3,0,0,1-.35,2,2.38,2.38,0,0,1-1.61,1.2,1.44,1.44,0,0,1-.61,0,.78.78,0,0,1-.2-.08,1.37,1.37,0,0,0,.77-.07A2.63,2.63,0,0,0,94,66.4Z"/><path class="cls-6" d="M95,63.2a5.8,5.8,0,0,0,.47-.93c.13-.25.2-.41.2-.41a2.75,2.75,0,0,1-.35,1.55,1.82,1.82,0,0,1-.93.69,3.29,3.29,0,0,1-.45.12A5.17,5.17,0,0,0,95,63.2Z"/><path class="cls-6" d="M96.47,70.2a1.18,1.18,0,0,1,.59-.78.82.82,0,0,1,.39-.11,1.5,1.5,0,0,0-.27.26,1.74,1.74,0,0,0-.34.71,1.22,1.22,0,0,0,0,.75.46.46,0,0,0,.24.24.41.41,0,0,1-.38-.12A1,1,0,0,1,96.47,70.2Z"/><path class="cls-6" d="M97.79,69.06a4.64,4.64,0,0,0,1.93-.68,4,4,0,0,0,.7-.52,3.11,3.11,0,0,1-.59.68,3.69,3.69,0,0,1-2,.9,1.72,1.72,0,0,1-1.25-.22.79.79,0,0,1-.31-.53.77.77,0,0,1,.17-.5,1.35,1.35,0,0,1,.56-.38.62.62,0,0,1,.24,0,.59.59,0,0,0-.22.09,1.49,1.49,0,0,0-.42.44.46.46,0,0,0,.17.66A1.59,1.59,0,0,0,97.79,69.06Z"/><path class="cls-6" d="M97.53,67.29a12.05,12.05,0,0,0,2-.65,2.26,2.26,0,0,0,.72-.5,1.91,1.91,0,0,1-.63.67,6.58,6.58,0,0,1-2,.85,1.45,1.45,0,0,1-1.28-.14,1.09,1.09,0,0,1-.44-1,1.07,1.07,0,0,1,.47-.79,1.08,1.08,0,0,0-.27.79.87.87,0,0,0,.42.7A1.31,1.31,0,0,0,97.53,67.29Z"/><path class="cls-6" d="M96.36,65.56a4.32,4.32,0,0,0,2.37-1.44,2,2,0,0,0,.33-.79,1.27,1.27,0,0,0,0-.32,1.39,1.39,0,0,1,0,.33,2,2,0,0,1-.23.88,3.91,3.91,0,0,1-2.41,1.7,1.2,1.2,0,0,1-1,0,.82.82,0,0,1-.44-.81A1.81,1.81,0,0,1,95.92,64,5,5,0,0,1,97,63.42a6.73,6.73,0,0,0-1,.73,1.74,1.74,0,0,0-.63,1,.5.5,0,0,0,.27.46A.91.91,0,0,0,96.36,65.56Z"/><path class="cls-6" d="M95.18,68a2.42,2.42,0,0,1,.66.86,1.76,1.76,0,0,1,.13.43,7.87,7.87,0,0,0-1-1,8,8,0,0,0-1.18-.8,2,2,0,0,1,.44,0A2.36,2.36,0,0,1,95.18,68Z"/></g><path class="cls-8" d="M100.41,67.87l0,0a3.56,3.56,0,0,1-2.9,1.18h-.06c-.36,0-.59-.21-.56-.45,0-.59,2.48-1.19,3.63-1.44,0-.09,0-.19-.08-.28a1.74,1.74,0,0,1-.16-.41.61.61,0,0,1,0-.14v0a.41.41,0,0,0,0-.11.06.06,0,0,0,0,0h0v0a1.55,1.55,0,0,0,0-.43s0-.06,0-.1h0a2.25,2.25,0,0,0-.09-.35s0,0,0,0a2,2,0,0,0-.2-.42.64.64,0,0,0-.08-.14,1.55,1.55,0,0,0-.19-.24l-.66-.5h0l0,0a3.16,3.16,0,0,1-.37.45h0l0,0a2.71,2.71,0,0,1-.47.41L97.8,65a4,4,0,0,1-1,.47h0c-.66.17-1.21.1-1.34-.29a.36.36,0,0,1,.11-.36,0,0,0,0,1,0,0c.54-.65,2.71-1.38,3.49-1.62a.88.88,0,0,0-.17-.28.71.71,0,0,0-.13-.12l-.16-.1h0l-.26-.11L98,62.44l-.36,0a7.06,7.06,0,0,0-.8,0h-.24l-.27,0h-.06l-.2,0-.18,0h0l-.11,0-.08,0-.18.06,0,0a1.45,1.45,0,0,0,.13-.4l.09.15,0-.09h0s0,0,0,0a.29.29,0,0,0,0-.09.5.5,0,0,0,0-.12,2.41,2.41,0,0,0,0-.54,1.49,1.49,0,0,0,0-.21.85.85,0,0,0,0-.23,1.46,1.46,0,0,0,0-.22,4.76,4.76,0,0,0-.16-.67,2.65,2.65,0,0,0-.18-.42,2.35,2.35,0,0,0-.24-.37,2.81,2.81,0,0,1,.06,2.71c-.11.16-1.59,1.55-1.59,1.6s.5,1.32-1.38,2.55c-.83.55-1.3.19-1.58-.36,0,.64,0,1.66,0,1.66l-.18.07-.29.12-.29.12-.33.14-.43.17a.6.6,0,0,0-.27.56s0,.09,0,.13a.43.43,0,0,0,0,.11c0,.07,0,.15,0,.23a6.94,6.94,0,0,0,.74,1.59l.18.31c.06.08.11.17.16.25s.2.31.3.45l.16.23c.29.42.53.74.61.85l0,0,.43-.3,1.65-1.16a2.54,2.54,0,0,0,.6.22h.06l.4.07a6,6,0,0,0,1.58-.08l.37-.07.7-.18c.23-.06.44-.13.64-.2l.13,0h0a3.58,3.58,0,0,1-.21-.49c-.24-.82,1.89-1.4,2.88-1.62,0,0,0,0,0,0v0l0-.16a1.64,1.64,0,0,0,0-.23,1.43,1.43,0,0,0-.06-.21l0,0v0a.06.06,0,0,1,0-.07,1,1,0,0,0,.07-.15.42.42,0,0,0,0-.1s0,0,0,0,0,0,0,0l0,0Zm-1.16-3.12c1.59,1.84-2.83,2.5-2.81,2S98.21,65.15,99.25,64.75Z"/><path class="cls-9" d="M55,50c-.13.83.41,1.87.78,3,.81,2.53,1.69,5.06,2.64,7.55,2,5.36,4.28,11.47,8.24,15.84,6.16,6.8,24.92-2.74,24.92-2.74s.4-4.59-3.16-7.34c0,0-14.12,6.2-16.36,2.84s-3.71-7.21-5.31-10.92c-1.51-3.47-2.39-6.91-5.82-8.91a5.43,5.43,0,0,0-4.59-.65C55.41,49,55,49.43,55,50Z"/><path class="cls-10" d="M55,50c-.13.83.41,1.87.78,3,.81,2.53,1.69,5.06,2.64,7.55,2,5.36,4.28,11.47,8.24,15.84,6.16,6.8,24.92-2.74,24.92-2.74s.4-4.59-3.16-7.34c0,0-14.12,6.2-16.36,2.84s-3.71-7.21-5.31-10.92c-1.51-3.47-4-11.35-7.47-13.34-1.45-.84-1.42,3.22-2.94,3.78C55.41,49,55,49.43,55,50Z"/><path class="cls-11" d="M83.73,75.8,81,76.46l-2.65.79a16.27,16.27,0,0,1-1.83.48c-.5.09-.86,0-.86.09a1.56,1.56,0,0,0,.9.16,12.76,12.76,0,0,0,1.92-.3c1.37-.28,2.73-.61,2.73-.61s1.33-.4,2.65-.84a15.06,15.06,0,0,0,2.58-1A16.44,16.44,0,0,0,83.73,75.8Z"/><path class="cls-12" d="M91.55,73.55V73h0a10.7,10.7,0,0,0-.18-1.62v0q-.06-.3-.15-.63v-.06c-.07-.23-.14-.46-.22-.7a.51.51,0,0,0-.31.28c-.6,1.51-12.94,7.75-14.9,4a4,4,0,0,1-.1-4.16h0c-.33,0-.64,0-.93,0h0a5.44,5.44,0,0,1-1.54-.22l-.05,0a2.58,2.58,0,0,1-.58-.27h0c-1,1.47-4.66,5.51-8.48-2.69A146.5,146.5,0,0,0,55,50h0c-.13.83.41,1.87.78,3,.8,2.48,1.65,4.94,2.58,7.39,2.19,5.81,5.18,12.56,8.3,16,6.16,6.8,24.92-2.74,24.92-2.74v-.08Z"/><g class="cls-7"><path class="cls-13" d="M72.16,71.73a2.56,2.56,0,0,1-1,1,1.79,1.79,0,0,1-.56.21,2.91,2.91,0,0,0,.5-.3,3,3,0,0,0,.88-1,3.18,3.18,0,0,0,.39-1.32,2.94,2.94,0,0,0,0-.6,2.18,2.18,0,0,1,.12.6A2.69,2.69,0,0,1,72.16,71.73Z"/><path class="cls-13" d="M73.16,71.76a2.19,2.19,0,0,1-.45,1,1.78,1.78,0,0,1-.32.33,3.28,3.28,0,0,0,.57-1.4,3.69,3.69,0,0,0-.09-1.56,2.41,2.41,0,0,1,.2.45A2.59,2.59,0,0,1,73.16,71.76Z"/><path class="cls-13" d="M60.5,57.47c-1,2.4-1.86,4.3-1.86,4.3s.69-2,1.66-4.39l1.28-3.06A4,4,0,0,0,61.87,53a3.83,3.83,0,0,1-.19,1.38C61.42,55.18,61,56.26,60.5,57.47Z"/><path class="cls-13" d="M60.77,59.55a11.59,11.59,0,0,1-1.69,1.55l1.53-1.69,1.51-1.7A11.92,11.92,0,0,1,60.77,59.55Z"/></g><path class="cls-9" d="M43.81,82.57l.09-.09.07-.07.19-.18.07-.06h0A13.84,13.84,0,0,1,47,80.26l.1-.06c.25-.13.51-.26.79-.38a3.52,3.52,0,0,1,.39-.16l.46-.17.2-.07h0l.07,0,.4-.12.28-.08.21,0,.62-.13h.07a10.34,10.34,0,0,1,2.18-.14l.34,0h.11l.48.06a10.15,10.15,0,0,1,2.59.68l.21.09A12.57,12.57,0,0,1,58.72,81c.17.11.35.23.52.36a11,11,0,0,1,1.06.83c.16.13.31.26.47.41Z"/><path class="cls-14" d="M43.81,82.57l.09-.09.07-.07.19-.18.07-.06h0A13.84,13.84,0,0,1,47,80.26l.1-.06c.25-.13.51-.26.79-.38a3.52,3.52,0,0,1,.39-.16l.46-.17.2-.07h0l.07,0,.4-.12.28-.08.21,0,.62-.13h.07a10.34,10.34,0,0,1,2.18-.14l.34,0h.11l.48.06a10.15,10.15,0,0,1,2.59.68l.21.09A12.57,12.57,0,0,1,58.72,81c.17.11.35.23.52.36a11,11,0,0,1,1.06.83c.16.13.31.26.47.41Z"/><path class="cls-15" d="M43.81,82.57l.09-.09.07-.07.19-.18.07-.06h0A13.84,13.84,0,0,1,47,80.26l.1-.06c.25-.13.51-.26.79-.38a3.52,3.52,0,0,1,.39-.16l.46-.17.2-.07.07,0,.4-.12.28-.08.21,0,.62-.13h.07c.45.28.91.56,1.35.85s1,.77.77,1.28a1.14,1.14,0,0,1-.62.54,12.08,12.08,0,0,1-1.3.51l-1.18.39Z"/><path class="cls-15" d="M60.3,82.16c.16.13.31.26.47.41h-17l.09-.09.07-.07.19-.18.07-.06h0A13.84,13.84,0,0,1,47,80.26l.1-.06c.25-.13.51-.26.79-.38a3.52,3.52,0,0,1,.39-.16l.46-.17.2-.07h0l.07,0,.4-.12.28-.08.21,0,.62-.13h.07a10.34,10.34,0,0,1,2.18-.14l.34,0h.11l.48.06a11.87,11.87,0,0,1,2.58.71l.21.09A13.37,13.37,0,0,1,58.72,81c.17.11.35.23.52.36A13.28,13.28,0,0,1,60.3,82.16Z"/><path class="cls-16" d="M64.76,67.25h0l-.25.39a.61.61,0,0,0-.07.1l-.64.91q-.22.33-.42.66A6.53,6.53,0,0,0,63,70a2.14,2.14,0,0,0-.12.28,1.39,1.39,0,0,0-.12.28,1.21,1.21,0,0,0,0,.14h0a10.06,10.06,0,0,0-.37,1.18l-.12.52c0,.12-.06.24-.08.36l-.06.28c-.15.79-.27,1.58-.4,2.36-.41,2.51-1,5-.07,7.14H44.05c.07-.13.12-.27.18-.4h0A11.55,11.55,0,0,0,45,77.77a30.49,30.49,0,0,0-.4-4.4c-.14-.92-.3-1.85-.48-2.77-.13-.7-.27-1.4-.4-2.1-.11-.53-.22-1.07-.32-1.61,0-.16-.06-.32-.1-.5l0-.17-.09-.37c0-.07,0-.15-.05-.23L43,65.26c0-.08,0-.16-.07-.25s-.06-.25-.1-.38a2.5,2.5,0,0,0-.07-.26l-.12-.43c0-.08,0-.16-.07-.25s-.1-.37-.16-.55l-.06-.21-.18-.64c0-.11-.07-.22-.1-.33l0-.13a.49.49,0,0,0,0-.11s0,0,0,0a1,1,0,0,0-.05-.16c0-.12-.07-.25-.11-.38h0l-.21-.68,0-.1c0-.11-.07-.21-.1-.32l-.15-.47c0-.07,0-.15-.07-.23l-.3-1h0c-.11-.33-.22-.67-.32-1-.19-.59-.37-1.17-.55-1.74a.75.75,0,0,0-.05-.16c-.06-.21-.13-.42-.19-.63-.93-3-1.64-5.41-1.53-6,.07-.32.61-.74,1.39-1.2a59.26,59.26,0,0,1,7-3.09l.29,0h0l.32,0,.37,0,1-.1c1.56-.13,3.79-.28,5.82-.27h.33c2,0,3.65.21,4.31.72,1.39,1.08,2.3,3.37,3,5.43.34.94.64,1.84.92,2.55.17.42.35.84.53,1.26A39.22,39.22,0,0,1,65.9,60c0,.17.08.34.11.51s.07.33.1.51a.13.13,0,0,1,0,.06c.06.34.1.67.13,1A7.83,7.83,0,0,1,64.76,67.25Z"/><path class="cls-17" d="M64.76,67.26l-.25.39a.61.61,0,0,0-.07.1l-.64.91q-.22.33-.42.66c-.13.23-.24.46-.35.7s-.16.38-.23.57l-.06.13h0a10.06,10.06,0,0,0-.37,1.18l-.12.52a.83.83,0,0,1,0,.15c0,.07,0,.14,0,.21l-.06.28a6.53,6.53,0,0,0-3.32-1.76l-.23,0a4.34,4.34,0,0,0-.52-.09c-4.18-.53-9.75-.7-10.28,1.74a7,7,0,0,0-.06,2.17l.57-.37c-.08.83-.15,1.66-.16,2.5a15.59,15.59,0,0,0,.78,2.19h0c.13.29.27.56.4.81a10.93,10.93,0,0,0,1.45,2q.16.19.36.39H44.05c.07-.13.12-.27.18-.4h0A11.55,11.55,0,0,0,45,77.77a30.49,30.49,0,0,0-.4-4.4l-.06-.32c-.12-.82-.26-1.64-.42-2.45s-.27-1.4-.4-2.1c-.11-.53-.22-1.07-.32-1.61,0-.16-.06-.32-.1-.5l0-.17-.09-.37c0-.07,0-.15-.05-.23L43,65.26c0-.08,0-.16-.07-.25s-.06-.25-.1-.38a2.5,2.5,0,0,0-.07-.26l-.12-.43c0-.08,0-.16-.07-.25s-.1-.37-.16-.55l-.06-.21-.18-.64c0-.11-.07-.22-.1-.33l0-.13a.49.49,0,0,0,0-.11s0,0,0,0a1,1,0,0,0-.05-.16c0-.12-.07-.25-.11-.38h0l-.12-.36-.09-.32,0-.1c0-.11-.07-.21-.1-.32l-.15-.47c0-.07,0-.15-.07-.23l-.3-1h0c-.11-.33-.22-.67-.32-1-.19-.59-.37-1.17-.55-1.74,0-.06,0-.11,0-.16h0c-.06-.21-.13-.42-.19-.63a9.12,9.12,0,0,1,2-3.47c.06.24.15.52.24.85.25.82.61,1.89,1.06,3.06l0,.07a32,32,0,0,0,1.33,3,19.07,19.07,0,0,0,2.18,3.41c3.31,4,6.44,4.53,11.14,3.31.47-.12.9-.22,1.3-.29l.14,0c.23-.05.46-.08.67-.11H60a20.78,20.78,0,0,1,2.84-.2,2.28,2.28,0,0,0,2-.75A8.45,8.45,0,0,0,65.9,60c0,.17.08.34.11.51s.07.33.1.51a.13.13,0,0,1,0,.06c.06.34.1.67.13,1A7.86,7.86,0,0,1,64.76,67.26Z"/><path class="cls-6" d="M47.3,41.11s-.54,5.45,1.61,6.41,4.55,1,5.36-1.29a11.34,11.34,0,0,0,0-5.44S47.56,39.82,47.3,41.11Z"/><path class="cls-8" d="M53.28,47.6c-3.46-.53-5.59-4.5-4.44-3.92s4.56.12,5.78-.07a14.41,14.41,0,0,0-.35-2.82s-6.71-1-7,.32c0,0-.54,5.45,1.61,6.41C50.46,48.21,52.16,48.4,53.28,47.6Z"/><path class="cls-12" d="M52.64,48.34s3.24,3,3.86,1.36a.38.38,0,0,0,0-.1,25.36,25.36,0,0,0-1.91-4.67,2.72,2.72,0,0,1-2.35,2.38,4.5,4.5,0,0,1-4.62-2.7c-.23,1.17.69,3.59,2.5,6.78C50.63,51.5,51.55,51.2,52.64,48.34Z"/><path class="cls-10" d="M47.28,43.18c-.06-.39-1.31,3.87,2.43,7.6,0,0,1.24,1.37,2.86-2.86,0,0,3.24,3,3.86,1.37s-1.81-5.68-1.81-5.68.18,2.91-2.43,3.28A4.51,4.51,0,0,1,47.28,43.18Z"/><path class="cls-12" d="M56.43,48.75c-.62,1.62-3.86-1.37-3.86-1.37-1.62,4.23-2.86,2.86-2.86,2.86A8.64,8.64,0,0,1,47,44.4a8.52,8.52,0,0,0,2.67,6.38s1.24,1.37,2.86-2.86c0,0,3.24,3,3.86,1.37a2.15,2.15,0,0,0,.08-.9A1.35,1.35,0,0,1,56.43,48.75Z"/><g class="cls-4"><path class="cls-18" d="M64.64,59.69a4.46,4.46,0,0,1-.2-.87A16.13,16.13,0,0,0,63.91,57c-.24-.67-.5-1.33-.7-1.82s-.34-.83-.34-.83-1.86-5.4-1.7-5.46,2.27,5.25,2.27,5.25l.29.84c.17.51.4,1.19.58,1.89a11,11,0,0,1,.36,2A2.24,2.24,0,0,1,64.64,59.69Z"/><path class="cls-18" d="M64.74,62.33c-.16,0-.19-.82-.19-.82s.24-.76.4-.74.2.82.2.82S64.91,62.36,64.74,62.33Z"/><path class="cls-18" d="M59.11,80.63a14,14,0,0,1,.74-1.47,12.07,12.07,0,0,0,.56-1.51,11.5,11.5,0,0,0,.44-1.55c.17-.79.19-1.61.27-1.62a3.66,3.66,0,0,1,.15,1.68A8.78,8.78,0,0,1,61,77.84a8.86,8.86,0,0,1-.76,1.52A3.76,3.76,0,0,1,59.11,80.63Z"/></g><g class="cls-19"><path class="cls-16" d="M46.24,79.13a4.5,4.5,0,0,1-.36-.66c-.16-.34-.25-.72-.29-.72a1.59,1.59,0,0,0,.09.79,3.62,3.62,0,0,0,.3.75,4.08,4.08,0,0,0,.52.61,1.57,1.57,0,0,0,.66.44s-.27-.29-.5-.58A4.92,4.92,0,0,1,46.24,79.13Z"/><path class="cls-16" d="M54.7,68.94a11.37,11.37,0,0,1-1.68.14,11,11,0,0,1-1.68-.17l-.54-.12-.2-.05-.2-.06c-.13,0-.32-.07-.54-.15a11.52,11.52,0,0,1-1.55-.66,11.12,11.12,0,0,1-1.41-.93,4.84,4.84,0,0,0-.61-.48,3.58,3.58,0,0,0,.53.57,9.47,9.47,0,0,0,1.39,1,10.55,10.55,0,0,0,1.56.73c.22.09.42.13.55.18l.2.06.22,0a5,5,0,0,0,.56.11,9.81,9.81,0,0,0,1.72.11,9.71,9.71,0,0,0,1.71-.23,3.34,3.34,0,0,0,.74-.25S55.16,68.87,54.7,68.94Z"/><path class="cls-16" d="M61,77.76s0,.44-.08.87a5,5,0,0,1-.22.82,5.08,5.08,0,0,1-.34.78c-.21.37-.51.69-.48.73a1.86,1.86,0,0,0,.66-.62,3.89,3.89,0,0,0,.44-.79,3.76,3.76,0,0,0,.15-.9A1.84,1.84,0,0,0,61,77.76Z"/><path class="cls-16" d="M64.26,67.58c-.35.22-.72.41-.72.41s-.36.22-.73.41a5.18,5.18,0,0,0-.76.38,2.21,2.21,0,0,0,.84-.19,6.33,6.33,0,0,0,.79-.34,5.57,5.57,0,0,0,.71-.5,2.57,2.57,0,0,0,.6-.62A5.39,5.39,0,0,0,64.26,67.58Z"/><path class="cls-16" d="M59.33,65.85l0,.36v.1c0,.26,0,.64,0,1.1-.06.91-.19,2.12-.37,3.32l-.09.58c-.17,1-.38,2-.56,2.7s-.37,1.47-.37,1.47-.17.59-.46,1.46-.62,1.76-.95,2.78c0,0,0,0,0,0s-.07.23-.11.34a16.07,16.07,0,0,0-.59,2.48h-.15A16.24,16.24,0,0,1,56.12,80c0-.12.07-.25.11-.37s0,0,0,0c.31-1,.66-2,.9-2.78s.43-1.45.43-1.45.17-.58.4-1.46.4-1.68.59-2.67c0-.19.08-.39.11-.58.21-1.19.37-2.39.46-3.29a2.38,2.38,0,0,0,0-.36c0,.14-.07.25-.09.32a.3.3,0,0,1,0,.1s0-.18.08-.43a6.76,6.76,0,0,0,.11-1.18,8,8,0,0,0-.05-1.06,11.6,11.6,0,0,0-.28-1.43,1.72,1.72,0,0,0-.08-.28,7.24,7.24,0,0,0-.24-.75A22.12,22.12,0,0,0,57,59.1l-.71-1.22-.12-.21s-.33-.57-.79-1.45c-.19-.38-.4-.81-.61-1.28-.29-.64-.58-1.35-.83-2.07a28,28,0,0,1-1-3.49c-.08-.37-.13-.7-.17-1a2.07,2.07,0,0,1,0-.22,1.37,1.37,0,0,1,0-.19s0-.06,0-.09h0c0-.07,0-.13,0-.15a.93.93,0,0,1,.05.14h0l0,.16,0,.12c0,.09,0,.19.07.31s.13.52.2.85a27.48,27.48,0,0,0,1.08,3.45c.28.75.6,1.48.91,2.13.2.43.4.82.58,1.16.46.87.8,1.43.8,1.43l.16.28L57.21,59a21.87,21.87,0,0,1,1.55,3.3c.1.28.18.57.26.85,0,.09,0,.18,0,.26a8.05,8.05,0,0,1,.23,1.39A5.8,5.8,0,0,1,59.33,65.85Z"/></g><g class="cls-4"><path class="cls-16" d="M60.48,63.4a7.51,7.51,0,0,1-1.21,0,6.45,6.45,0,0,0-2.55.34,14.28,14.28,0,0,1-2.58.76,5.53,5.53,0,0,1-1.27.07l-.35,0a4.6,4.6,0,0,1-.89-.25,8.88,8.88,0,0,1-2.34-1.4,11.57,11.57,0,0,1-2-1.79A2.42,2.42,0,0,1,46.72,60s.25.42.75.93a13.71,13.71,0,0,0,2.07,1.6,9,9,0,0,0,2.27,1.22,3.6,3.6,0,0,0,.8.18,2.2,2.2,0,0,0,.31,0,5.08,5.08,0,0,0,1.14,0,15.42,15.42,0,0,0,2.54-.62A6.57,6.57,0,0,1,58,63.06a7.88,7.88,0,0,1,1.25.08A4,4,0,0,1,60.48,63.4Z"/></g><path class="cls-6" d="M67.37,21.77A2.34,2.34,0,0,1,70.61,21c2.19,1.45,1.09,9-1.9,8.94S66.84,21.61,67.37,21.77Z"/><path class="cls-8" d="M67.37,21.77A2.34,2.34,0,0,1,70.61,21c2.19,1.45,1.09,9-1.9,8.94S66.84,21.61,67.37,21.77Z"/><path class="cls-20" d="M70.12,27.71c0-.06-.23,0-.49-.08a.47.47,0,0,1-.31-.26.71.71,0,0,1,0-.5,1,1,0,0,1,.28-.43c.12-.11.26-.15.46-.31a.88.88,0,0,0,.29-.77,1,1,0,0,0-.09-.29,1.26,1.26,0,0,0-.16-.24,1.81,1.81,0,0,0-.28-.23,1.45,1.45,0,0,0-.22-.09h0s0,0,0,0,0-.08,0-.13l0-.2a2.38,2.38,0,0,1,.31-.8c.3-.51.74-.71.72-.79s-.52,0-1,.5a2.55,2.55,0,0,0-.53.94l-.07.25a1.68,1.68,0,0,0,0,.29c0,.24,0,.48,0,.65a2.72,2.72,0,0,1,.43,0l.11.05a.46.46,0,0,1,.12.13c.06.07.06.1.06.1s0,0,0,0a5.85,5.85,0,0,0-.44.39,1.67,1.67,0,0,0-.4.82,1.18,1.18,0,0,0,.18.88.62.62,0,0,0,.56.29C69.94,27.92,70.13,27.75,70.12,27.71Z"/><path class="cls-8" d="M68.71,30c-3-.1-1.87-8.37-1.34-8.21a2.78,2.78,0,0,1,1.69-1.12,5.42,5.42,0,0,0,.21,3.07s.79-1.25,1.2-.83-.22,2.42.69,2.62c.28.06.46-.16.58-.49C71.57,27.45,70.46,30,68.71,30Z"/><g class="cls-4"><path class="cls-21" d="M71.49,22.72c.13.42.07.84-.12,1s-.45-.16-.58-.59-.07-.85.12-.95S71.37,22.29,71.49,22.72Z"/><path class="cls-21" d="M70.73,21.49a.36.36,0,0,1-.15.39.21.21,0,0,1-.32-.11.34.34,0,0,1,.14-.38A.22.22,0,0,1,70.73,21.49Z"/></g><path class="cls-6" d="M34,22c-.24-6.79,2.57-17.8,16.86-17.91S67.39,19.75,67.39,19.75A43.42,43.42,0,0,1,68.71,30C68.54,34.41,66.24,41,56,42.06s-18.22-3.27-20.07-9.6A5.27,5.27,0,0,1,31,28.22C30.3,25.3,31.9,22.34,34,22Z"/><g class="cls-7"><path class="cls-8" d="M34,22a21.93,21.93,0,0,1,.84-6.83,17.32,17.32,0,0,1,2.33-4.88c-2.06,3.46-2.43,8.66-2.31,11.82-.18,0-.61-.09-.9-.1Z"/><path class="cls-22" d="M32.11,23.14a6,6,0,0,0-.42,4.07,5.26,5.26,0,0,0,4.85,4.24c1.85,6.33,9.78,10.65,20.07,9.6,5.42-.56,8.62-2.65,10.47-5.15-1.7,2.93-5,5.53-11.13,6.16-10.3,1-18.22-3.27-20.07-9.6A5.27,5.27,0,0,1,31,28.22,5.88,5.88,0,0,1,32.11,23.14Z"/></g><g class="cls-7"><path class="cls-6" d="M33.24,29.8a1,1,0,0,0,.42.84.74.74,0,0,0,.43.15.7.7,0,0,0,.52-.24,1.33,1.33,0,0,0,.31-.64.9.9,0,0,0-.22-.78,4,4,0,0,0-.44-.29.61.61,0,0,1-.21-.26A.92.92,0,0,1,34,28a.46.46,0,0,1,.32-.33.27.27,0,0,1,.12,0h.14l.07,0s0,0,0,0l.11.16c.16.24.29.3.45.31A.44.44,0,0,0,35.5,28a.73.73,0,0,0,.16-.29,4,4,0,0,0,.07-.88,4.3,4.3,0,0,0,0-.62,3.43,3.43,0,0,0-.31-1.13,2.06,2.06,0,0,0-.6-.73c-.44-.32-.8-.22-.8-.17s.31.1.63.45a2.52,2.52,0,0,1,.59,1.68c0,.18,0,.36,0,.54a.54.54,0,0,1,0,.17c0,.08-.08,0-.07,0h0L35,26.9a.75.75,0,0,0-.2-.1.76.76,0,0,0-.34-.06.79.79,0,0,0-.3.05,1,1,0,0,0-.29.16,1.49,1.49,0,0,0-.5.83,1.8,1.8,0,0,0,.2,1.24,1.16,1.16,0,0,0,.44.44,2.31,2.31,0,0,1,.38.18.2.2,0,0,1,.09.22.64.64,0,0,1-.12.34.42.42,0,0,1-.55.13C33.42,30.15,33.29,29.76,33.24,29.8Z"/></g><path class="cls-21" d="M32.6,24.37c-.3.31-.64.4-.77.2s0-.59.32-.89.64-.39.76-.2S32.9,24.07,32.6,24.37Z"/><path class="cls-21" d="M33.72,22.9a.34.34,0,0,1-.15.38.21.21,0,0,1-.32-.1.34.34,0,0,1,.15-.39A.21.21,0,0,1,33.72,22.9Z"/><path class="cls-8" d="M53.2,30.66a5.49,5.49,0,0,0,4.33-1.18s1.22.78-1,1.6C53.7,32.18,53.2,30.66,53.2,30.66Z"/><g class="cls-7"><path class="cls-6" d="M54.43,31.27a6.09,6.09,0,0,0,.91,0,5.48,5.48,0,0,0,1.85-.63,1.08,1.08,0,0,0,.59-.63.55.55,0,0,0-.25-.56,1.59,1.59,0,0,0-.5-.22,1.08,1.08,0,0,0-.22,0,2.2,2.2,0,0,0-.51,0,2.57,2.57,0,0,0-.6.1,2.05,2.05,0,0,0-.37.13,6.66,6.66,0,0,0-.8.49v-1c0-.19,0-.4,0-.61,0-.41,0-.84,0-1.22a5.61,5.61,0,0,1,.13-1.36,5.75,5.75,0,0,1,.16,1.36c0,.38,0,.81.07,1.23l0,.61C55,29,55,29,55,29L55.1,29l.44-.18a3.27,3.27,0,0,1,.73-.15,2.83,2.83,0,0,1,.63,0,1.87,1.87,0,0,1,.28.06,2,2,0,0,1,.7.36,1.35,1.35,0,0,1,.35.45,1.09,1.09,0,0,1,0,.67,1.58,1.58,0,0,1-.88.88,4.86,4.86,0,0,1-2,.48A1.38,1.38,0,0,1,54.43,31.27Z"/></g><path class="cls-21" d="M56.38,29.59c.06.14-.13.35-.43.47s-.58.1-.63,0,.14-.35.43-.46S56.33,29.45,56.38,29.59Z"/><path class="cls-8" d="M49.9,30.9c0,1.36-1.72,2.48-3.87,2.51S42.12,32.35,42.11,31,43.82,28.5,46,28.48,49.89,29.54,49.9,30.9Z"/><path class="cls-8" d="M68,29.11c.26,1.33-1.23,2.74-3.32,3.15s-4-.35-4.25-1.69,1.23-2.74,3.32-3.15S67.71,27.77,68,29.11Z"/><path class="cls-2" d="M46.92,20.44c0,.08-.37.11-.69.25a2.2,2.2,0,0,0-.57.33,2.56,2.56,0,0,0-.56.35c-.26.22-.46.53-.54.5s0-.42.22-.77a2.44,2.44,0,0,1,.57-.6,2.58,2.58,0,0,1,.79-.23C46.55,20.23,46.94,20.36,46.92,20.44Z"/><path class="cls-2" d="M63.78,20.36c-.08,0-.33-.25-.63-.43a2.79,2.79,0,0,0-.64-.28,2.45,2.45,0,0,0-.64-.22,1.48,1.48,0,0,0-.47,0c-.13,0-.23.05-.26,0s0-.13.16-.24a1.17,1.17,0,0,1,.57-.2,2.19,2.19,0,0,1,.86.08,2.37,2.37,0,0,1,.69.51C63.72,19.92,63.85,20.33,63.78,20.36Z"/><path class="cls-8" d="M67.39,19.75S65.21,4,50.84,4.08,33.74,15.2,34,22c-1.58.27-2.88,2.05-3.1,4.18,1.64-.44,3.47-2.34,4-2.91.24,1.6,1.16,7.11,1.84,11.2A12,12,0,0,0,39.61,38c.19-4.24.56-12.22.74-15.35a16.06,16.06,0,0,0,3-1.89,35.17,35.17,0,0,0,8.16-8.56s8.95,4.53,14.36,3.64c0,0,2,5,2,7l.12-.13C67.7,21,67.39,19.75,67.39,19.75Z"/><path class="cls-2" d="M55.61.39C49.09-1.07,46,2,46,2S38.67-.73,33.19,4.91c0,0-5,1.67-5.7,13.86-.63,11.2,5.79,4.56,6.84,3.41.39,2.65,2.63,16,2.63,16l2,1.5s.62-13.74.88-18.08a17.44,17.44,0,0,0,3-1.9A35.51,35.51,0,0,0,51,11.11s8.94,4.52,14.35,3.63c0,0,2,5,2,7,0,0,1.43-1.81,3.24-.73C70.61,21,72.17,4.1,55.61.39Z"/><path class="cls-3" d="M47.91,15h0c-.31.27-.7.58-1.15.91-.09.08-.2.15-.3.23l-.08.07-.07.06c-.62.42-1.33.9-2,1.37l0,0c-2.73,1.77-5.82,3.42-6.47,3-1-.71.39-3.33.52-3.57a33.52,33.52,0,0,1-3.42,3.2c-.28.22-.57.43-.85.62h0c-1.31.89-2.59,1.39-3.32.71a3.23,3.23,0,0,1-.5-2.82A16.39,16.39,0,0,1,31,15.65l.05-.12.08-.2c.2-.59.42-1.11.59-1.52a20.49,20.49,0,0,1-1.12,2l0,0c-.65,1-1.38,1.84-1.94,1.61s-.56-2.36-.36-4.54l0,.12-.15.73c-.06.29-.11.58-.16.89a5.4,5.4,0,0,0-.09.58c0,.24-.08.48-.11.74,0,.05,0,.1,0,.16q-.09.72-.15,1.5c0,.36-.06.73-.08,1.11,0,.73,0,1.38,0,2,0,.15,0,.3,0,.44v.05c0,.22,0,.44.05.64v0s0,.05,0,.07a2.19,2.19,0,0,0,0,.27c0,.23.07.45.11.65s0,.2.07.3,0,.18.08.27l.09.25.09.22a3.14,3.14,0,0,0,.25.45,1.09,1.09,0,0,0,.13.17.27.27,0,0,0,.07.08,1.74,1.74,0,0,0,.43.35,1.15,1.15,0,0,0,.23.1h0l.2.05.18,0h.18l.34,0,.25,0,.22-.06.05,0h0a2,2,0,0,0,.22-.09l0,0a.52.52,0,0,0,.16-.06l.19-.09h0a4.91,4.91,0,0,0,.44-.25l.07,0s0,0,0,0l.05,0a10.19,10.19,0,0,0,1.15-.87l.34-.31.37-.34,0,0,.2-.2.18-.18.26-.28c0,.16.06.37.09.61s0,.26.06.4.05.26.07.41.07.44.11.68h0a1.52,1.52,0,0,1,0,.21h0a0,0,0,0,1,0,0c0,.08,0,.16,0,.25h0c.06.31.11.64.16,1s.12.7.18,1.06l0,.19v0c.06.35.12.7.19,1.06l.09.59v0l.06.34.18,1.06c0,.22.07.45.11.67v-.57c0-.46,0-.91,0-1.36v0c0-.13,0-.28,0-.41h0c0-.35.06-.67.1-1h0a2.3,2.3,0,0,1,.47-1.32c.51-.4.78.57.92,1.59v.06c.11.87.13,1.74.13,1.74a20.92,20.92,0,0,1,.13-2.17.49.49,0,0,0,0-.12c.13-1.11.39-2.2.92-2.15.24,0,.42.46.55,1.08v.06c0,.3.1.65.14,1h0c.13,1.2.16,2.67.17,3.87,0-.73.07-1.45.11-2.18,0-.34,0-.69.05-1s0-.68,0-1c0-.06,0-.12,0-.18,0-.35,0-.69.05-1l0-.59c0-.24,0-.48,0-.7s0-.18,0-.26l0-.61q0-.3,0-.57c0-.19,0-.36,0-.53s0-.13,0-.2,0-.26,0-.38,0-.23,0-.34a17.44,17.44,0,0,0,3-1.9c.35-.27.69-.54,1-.81l.7-.59.52-.46c.43-.38.84-.76,1.22-1.13l.06-.05.52-.52.06-.06c.1-.09.19-.19.28-.28.24-.24.46-.48.67-.71l0,0,0,0Z"/><path class="cls-3" d="M53.33,10.67a4.46,4.46,0,0,1,3.24.07s-5.92-4.16-4.72-5.49a13.33,13.33,0,0,1,3.87-2.47s-3.31-.07-5,1.06c0,0-2.63-.1-.4-1.5,0,0-2.1-.41-2.32-1.53A6.73,6.73,0,0,0,46,2a13.52,13.52,0,0,0-7.9-.15,3.22,3.22,0,0,1,2.48.54c1.06,1.12-2,4.27-2,4.27s3.87-1.88,4.65-1.53-4,4.16-4,4.16S44.73,6.8,44.94,7.5,43,10.32,43,10.32s6.28-4.09,5.43.92a13.76,13.76,0,0,1-2.18,5.43A31.56,31.56,0,0,0,51,11.11a47.2,47.2,0,0,0,6.27,2.52C55.23,12.66,52.39,11.14,53.33,10.67Z"/><g class="cls-4"><path class="cls-2" d="M39.88,21a2.26,2.26,0,0,1,.27-.22l.73-.54c.61-.45,1.42-1,2.22-1.65s1.57-1.23,2.14-1.72.93-.83.93-.83a25.83,25.83,0,0,0,2.76-2.88,21.65,21.65,0,0,0,1.58-2.25l.47-.78a1.45,1.45,0,0,1,.18-.29,1.76,1.76,0,0,1-.13.32c-.09.2-.23.48-.42.81a19.12,19.12,0,0,1-1.51,2.32,24.43,24.43,0,0,1-2.73,3s-.37.34-.95.82-1.38,1.1-2.2,1.68S41.58,19.88,41,20.29l-.76.5A1.19,1.19,0,0,1,39.88,21Z"/></g><g class="cls-4"><path class="cls-2" d="M39.68,21.37a2.75,2.75,0,0,1-.9.71,6.13,6.13,0,0,1-1.06.45,6.39,6.39,0,0,1-1.14.14,3,3,0,0,1-1.14-.16s.57,0,1.12-.05a6,6,0,0,0,1.08-.23,6.17,6.17,0,0,0,1-.35C39.2,21.66,39.66,21.34,39.68,21.37Z"/></g><g class="cls-4"><path class="cls-2" d="M46,8.05a1.29,1.29,0,0,1,.35-.56,3.38,3.38,0,0,1,.5-.45,3.2,3.2,0,0,1,.62-.25,1.22,1.22,0,0,1,.66-.07,4,4,0,0,1-.59.26A4.41,4.41,0,0,0,47,7.3a5,5,0,0,0-.52.34C46.27,7.84,46.06,8.08,46,8.05Z"/></g><g class="cls-4"><path class="cls-2" d="M36.82,13.11a1.19,1.19,0,0,1,.08-.29c.07-.18.18-.44.32-.73a9.54,9.54,0,0,1,1.37-2,11.62,11.62,0,0,1,1.79-1.66c.53-.4.9-.63.9-.63s.37-.24,1-.55a23,23,0,0,1,2.19-1,9.43,9.43,0,0,1,2.31-.74,2.07,2.07,0,0,1,.8.08.73.73,0,0,1,.27.15,2.13,2.13,0,0,0-1.06-.11,9.53,9.53,0,0,0-2.24.82c-.79.36-1.57.75-2.14,1.08s-.93.56-.93.56-.37.23-.9.61a12.09,12.09,0,0,0-1.79,1.57,10.52,10.52,0,0,0-1.43,1.91C37,12.71,36.84,13.12,36.82,13.11Z"/></g><g class="cls-4"><path class="cls-2" d="M29.22,26.21a7.22,7.22,0,0,1,.69-.56c.42-.32,1-.77,1.51-1.23,1.08-.93,2.07-1.94,2.07-1.94s1-1,1.94-2.08c.46-.54.9-1.09,1.23-1.51a7.49,7.49,0,0,1,.55-.7,4.12,4.12,0,0,1-.46.76c-.3.45-.72,1-1.16,1.59-.88,1.12-1.89,2.15-1.89,2.15s-1,1-2.14,1.89c-.56.45-1.14.87-1.58,1.17A4.54,4.54,0,0,1,29.22,26.21Z"/></g><g class="cls-4"><path class="cls-2" d="M31.67,22.07a6.82,6.82,0,0,1-.71,1l-.72,1s-.38.48-.77.95a8.58,8.58,0,0,1-.78.94,5,5,0,0,1,.61-1.07c.34-.51.7-1,.7-1s.39-.48.8-.93A5.28,5.28,0,0,1,31.67,22.07Z"/></g><g class="cls-4"><path class="cls-2" d="M36.37,8.41a1.69,1.69,0,0,1-.25.3l-.7.74c-.57.61-1.34,1.43-2,2.3a17.65,17.65,0,0,0-1.73,2.53,11.45,11.45,0,0,0-.6,1.25,13,13,0,0,0-.51,1.29c-.28.79-.59,1.87-.89,2.95s-.61,2.16-.84,3l-.29,1a2.38,2.38,0,0,1-.13.36,1.51,1.51,0,0,1,.07-.38c.05-.24.14-.58.23-1,.21-.82.48-1.9.75-3s.57-2.18.84-3,.49-1.32.49-1.32a12.82,12.82,0,0,1,.64-1.27,17.51,17.51,0,0,1,1.8-2.53c.73-.86,1.53-1.66,2.13-2.25l.74-.7Z"/></g><g class="cls-4"><path class="cls-2" d="M38.17,7.15a3.47,3.47,0,0,1,.43-.45c.26-.26.63-.59,1-.92s.77-.62,1.08-.84.51-.35.51-.35A9.39,9.39,0,0,1,43,3.77a4.9,4.9,0,0,1,2-.26,2.83,2.83,0,0,1-.6.11A7,7,0,0,0,43.09,4a9.77,9.77,0,0,0-1.74.88A15.71,15.71,0,0,0,39.74,6C39,6.55,38.2,7.19,38.17,7.15Z"/></g><g class="cls-4"><path class="cls-2" d="M31.29,9.81s-.35.74-.68,1.48S30,12.78,30,12.78s-.31.75-.56,1.52-.46,1.56-.5,1.55a7.88,7.88,0,0,1,.29-1.61c.2-.79.49-1.57.49-1.57s.31-.76.7-1.48A7.17,7.17,0,0,1,31.29,9.81Z"/></g><g class="cls-4"><path class="cls-2" d="M38.15,42.8c-.08,0,.46-10.44.46-10.44s.67-10.42.75-10.41-.45,10.43-.45,10.43S38.24,42.8,38.15,42.8Z"/></g><g class="cls-4"><path class="cls-2" d="M36.57,39.73a2.46,2.46,0,0,1,0-.37c0-.24,0-.57-.07-1,0-.81-.12-1.89-.2-3-.17-2.16-.43-4.3-.43-4.3s-.21-2.15-.51-4.29c-.14-1.07-.3-2.14-.43-2.94l-.15-1a2.52,2.52,0,0,1,0-.37,1.39,1.39,0,0,1,.1.36c.05.23.13.56.21,1,.16.79.35,1.86.52,2.92.35,2.14.6,4.29.6,4.29s.22,2.16.34,4.32c.06,1.08.1,2.16.11,3,0,.4,0,.74,0,1A1.61,1.61,0,0,1,36.57,39.73Z"/></g><g class="cls-4"><path class="cls-2" d="M37.34,30.19a15.2,15.2,0,0,1-.05-1.71l0-1.7s0-.85,0-1.7a16.72,16.72,0,0,1,0-1.71,10.89,10.89,0,0,1,.19,1.7c.06.85.08,1.71.08,1.71s0,.85-.05,1.71A11.07,11.07,0,0,1,37.34,30.19Z"/></g><g class="cls-4"><path class="cls-2" d="M52,1.71a6.32,6.32,0,0,1-.88.29,7.47,7.47,0,0,0-.84.34,8.79,8.79,0,0,0-.82.39,7.65,7.65,0,0,1-.8.46,2.5,2.5,0,0,1,.69-.64,5.4,5.4,0,0,1,.81-.48,6.2,6.2,0,0,1,.9-.28A2.57,2.57,0,0,1,52,1.71Z"/></g><g class="cls-4"><path class="cls-2" d="M59,3.05a7.61,7.61,0,0,1-.76-.1,11.83,11.83,0,0,0-1.68-.11A12.61,12.61,0,0,0,54.85,3c-.45.07-.74.14-.74.14s-.3.06-.74.18A10.36,10.36,0,0,0,50.3,4.66a6.26,6.26,0,0,1-.66.4,4,4,0,0,1,.59-.5,10.37,10.37,0,0,1,1.46-.89A12.18,12.18,0,0,1,53.29,3l.75-.2s.31-.07.77-.13a11.28,11.28,0,0,1,1.72-.08,11,11,0,0,1,1.7.2A2.93,2.93,0,0,1,59,3.05Z"/></g><g class="cls-4"><path class="cls-2" d="M69,13.08a2.29,2.29,0,0,1-.34.22,7.61,7.61,0,0,1-.95.47,11.05,11.05,0,0,1-3.12.76,17.85,17.85,0,0,1-3.21,0c-.88-.08-1.46-.17-1.46-.17s-.57-.09-1.43-.26a24,24,0,0,1-3.11-.81,11.66,11.66,0,0,1-2.83-1.52c-.36-.25-.65-.47-.85-.63l-.31-.26a2.1,2.1,0,0,1,.35.21l.87.58a11.93,11.93,0,0,0,2.84,1.41,22.61,22.61,0,0,0,3.09.74c.86.16,1.43.24,1.43.24s.57.1,1.43.19a17.85,17.85,0,0,0,3.17.08,11.26,11.26,0,0,0,3.1-.65C68.45,13.36,69,13.05,69,13.08Z"/></g><g class="cls-4"><path class="cls-2" d="M69.73,16.39a2.82,2.82,0,0,1-1.26.32,4.82,4.82,0,0,1-1.32-.15A4.53,4.53,0,0,1,66,16a2.87,2.87,0,0,1-.89-1s.46.45,1,.77a4.48,4.48,0,0,0,1.14.48,4.79,4.79,0,0,0,1.22.22A12.44,12.44,0,0,0,69.73,16.39Z"/></g><g class="cls-4"><path class="cls-2" d="M68.58,20.56a3.46,3.46,0,0,1-.36-.73c-.17-.36-.36-.7-.36-.7s-.17-.36-.37-.71a5.11,5.11,0,0,1-.39-.7s.32.26.57.58a6.67,6.67,0,0,1,.45.69,6.07,6.07,0,0,1,.3.76A2.13,2.13,0,0,1,68.58,20.56Z"/></g><g class="cls-4"><path class="cls-2" d="M60.75,5.23s-.72-.11-1.44-.1a8.2,8.2,0,0,0-1.41.12,8.78,8.78,0,0,0-1.39.33c-.68.22-1.3.58-1.33.55a4,4,0,0,1,1.26-.75,5.77,5.77,0,0,1,2.88-.47A4.29,4.29,0,0,1,60.75,5.23Z"/></g><g class="cls-4"><path class="cls-2" d="M63.22,12.12a.76.76,0,0,1-.26,0c-.17,0-.42,0-.71,0a17.33,17.33,0,0,1-2.13-.24,19.54,19.54,0,0,1-3-.78l-.25-.1c-.16-.06-.39-.14-.65-.26a18.08,18.08,0,0,1-1.93-1,14.45,14.45,0,0,1-1.8-1.17,1.56,1.56,0,0,1-.59-.77,2.76,2.76,0,0,0,.67.68A18.27,18.27,0,0,0,54.37,9.6a20.11,20.11,0,0,0,1.93.88l.65.25.25.09a21.21,21.21,0,0,0,3,.85c.76.16,1.52.28,2.1.34A9.44,9.44,0,0,1,63.22,12.12Z"/></g><g class="cls-4"><path class="cls-2" d="M68.65,10.75s-.61-.35-1.24-.65a13.37,13.37,0,0,0-1.28-.52,12.5,12.5,0,0,0-1.32-.44c-.67-.19-1.36-.28-1.36-.33a4.8,4.8,0,0,1,1.41.12,11,11,0,0,1,1.37.36,10,10,0,0,1,1.28.62A4.51,4.51,0,0,1,68.65,10.75Z"/></g><path class="cls-3" d="M68.34,18.45C67.77,17.36,70,16.72,70,16.72a6,6,0,0,1-2.24-.7c-1.48-.71,1-2.44,1.09-2.64l-3.6,1-.16.36.24,0s2,5,2,7c0,0,1.43-1.81,3.24-.73a18,18,0,0,0,0-2.34C69.77,19.09,68.7,19.12,68.34,18.45Z"/><g class="cls-5"><path class="cls-2" d="M39.33,19.48c1.51.4,3.24-1.14,4.35-2,1.33-1.07,2.71-2.17,2.81-4a.5.5,0,0,0-.62-.48c-1.61.3-2.6,1.55-3.79,2.56-1,.86-2.88,1.83-3.19,3.17a.64.64,0,0,0,.44.77Z"/></g><g class="cls-5"><path class="cls-2" d="M39.5,16.16a1.82,1.82,0,0,0,1-.42A2.7,2.7,0,0,0,41.3,15c.13-.16-.07-.39-.25-.33a2.94,2.94,0,0,0-1,.54,1.84,1.84,0,0,0-.71.78.16.16,0,0,0,.16.2Z"/></g><g class="cls-5"><path class="cls-2" d="M34,20c1.19-1.71,2.44-3.39,3.73-5,1.08-1.36,2.37-2.54,3.42-3.92.25-.33-.16-.76-.51-.66-1.9.51-3.18,2.23-4.34,3.73a17.49,17.49,0,0,0-3,5.55c-.15.47.49.68.74.32Z"/></g><g class="cls-5"><path class="cls-2" d="M32.5,16.76c.35-.19.41-.76.56-1.1a12.41,12.41,0,0,0,.62-1.27c.08-.22-.22-.37-.37-.22a3.73,3.73,0,0,0-.74,1.28c-.15.36-.47.89-.25,1.26a.12.12,0,0,0,.18.05Z"/></g><g class="cls-5"><path class="cls-2" d="M34.77,12.54c1.06-.45,1.93-1.7,2.72-2.52s2-1.7,2.47-2.82c0-.12-.09-.22-.2-.19-1.17.28-2.17,1.47-3,2.31s-2,2-2.13,3.11c0,.05,0,.14.11.11Z"/></g><g class="cls-5"><path class="cls-2" d="M30.33,13.83c1.23-1.58,2.32-3.24,3.69-4.72s3.16-2.34,4.1-4a.64.64,0,0,0-.55-1c-2.12.25-3.66,2.14-4.91,3.73A12.15,12.15,0,0,0,30,13.7a.18.18,0,0,0,.3.13Z"/></g><g class="cls-5"><path class="cls-2" d="M31.08,8.23l.63-.76c.07-.08-.05-.21-.13-.12l-.66.72c-.1.11.06.27.16.16Z"/></g><g class="cls-5"><path class="cls-2" d="M38.08,29.31a17.61,17.61,0,0,0-.39,6.51c0,.23.41.33.45.06a17.7,17.7,0,0,0,.07-6.57c0-.07-.11-.06-.13,0Z"/></g><g class="cls-5"><path class="cls-2" d="M55.43,11.24c.81,1.41,2.39,1.8,3.9,2.08a14.12,14.12,0,0,0,6.59,0,.43.43,0,0,0-.12-.84c-3.57-.22-6.95.31-10.27-1.37a.07.07,0,0,0-.1.09Z"/></g><g class="cls-5"><path class="cls-2" d="M53,5.29a14.25,14.25,0,0,0,2.4-.76c.15-.07,0-.29-.1-.25A12.31,12.31,0,0,0,53,5.21s0,.09,0,.08Z"/></g><g class="cls-5"><path class="cls-2" d="M56.84,4a21.83,21.83,0,0,0,2.67.31,6.15,6.15,0,0,0,2.41.12.18.18,0,0,0,0-.33,4.5,4.5,0,0,0-2.59-.5A6.75,6.75,0,0,0,56.84,4s0,0,0,0Z"/></g><g class="cls-5"><path class="cls-2" d="M55.77,8.33c1.06,1.14,3,1.59,4.42,2a10.91,10.91,0,0,0,4.92.62.57.57,0,0,0,.13-1,18.54,18.54,0,0,0-4.57-1.31C59.19,8.3,57.54,7.56,56,7.72a.36.36,0,0,0-.26.61Z"/></g><g class="cls-5"><path class="cls-2" d="M61.37,7.13c.29.33.8.33,1.21.4a3.82,3.82,0,0,0,1.35,0,.16.16,0,0,0,0-.29,3.63,3.63,0,0,0-1.3-.34A2,2,0,0,0,61.39,7a.1.1,0,0,0,0,.15Z"/></g><g class="cls-5"><path class="cls-2" d="M52.33,2.32a3.32,3.32,0,0,0,1.37-.27c.55-.13,1-.35,1.59-.52.1,0,.12-.2,0-.22a4.18,4.18,0,0,0-1.69,0A2.41,2.41,0,0,0,52.18,2a.25.25,0,0,0,.15.36Z"/></g><path class="cls-6" d="M10.82,60.22c-1.44-.1-2.94.05-4.35,0-.41,0-4.57-.15-4.19-1.05.31-.75,1.94-.61,1.94-.61S-1.66,56.87.46,54.79s9.07-.31,9.07-.31-2.34-2.09.36-3.17c1.31-.52,1,2.21,1.72,2.95.9.89,2.09,1.83,2.09,3.2L15,58a19.38,19.38,0,0,1-1.59,2.8A7.11,7.11,0,0,0,10.82,60.22Z"/><g class="cls-7"><path class="cls-6" d="M10.36,56.79a2.39,2.39,0,0,1,1.24.39,2.13,2.13,0,0,1,.4.35,3.24,3.24,0,0,0-1.64-.48,3.19,3.19,0,0,0-1.66.4,1.69,1.69,0,0,1,.41-.33A2.39,2.39,0,0,1,10.36,56.79Z"/><path class="cls-6" d="M6.67,56.85c0,1.2,0,2.19,0,2.19a7.32,7.32,0,0,1-.26-2.19,7.52,7.52,0,0,1,.36-2.18S6.69,55.66,6.67,56.85Z"/><path class="cls-6" d="M5.09,58.38a3.54,3.54,0,0,1,1,.19,4,4,0,0,1-1,.07,4.38,4.38,0,0,1-1-.19A3.48,3.48,0,0,1,5.09,58.38Z"/><path class="cls-6" d="M3.3,56.67A10.36,10.36,0,0,1,6,57.35s-1.21-.25-2.71-.43S.54,56.69.54,56.69A10.5,10.5,0,0,1,3.3,56.67Z"/><path class="cls-6" d="M3.25,54.91A10.22,10.22,0,0,1,6,55.63a26.56,26.56,0,0,0-2.82-.46A25,25,0,0,0,.36,55,9.92,9.92,0,0,1,3.25,54.91Z"/></g><path class="cls-8" d="M10.82,60.26c2-1.14,2.63-2.2,2.64-3.12a4.57,4.57,0,0,1-3.33,2.29c-1.62.1-1.65-1.18-1.28-2s3,.07,3,.07-.07-.17-.63-.62-1-.14-1.47-.11c-.65,0-.67-.5-.4-1a2.07,2.07,0,0,1,1.55-1.09,1.94,1.94,0,0,1,1.41.24c-.28-.26-.53-.48-.68-.63A4.56,4.56,0,0,1,11,52.35c0,.49-.06,1.62-.85,1.94s-1-1.33-1.36-2.12c-.61,1.07.78,2.31.78,2.31S5.1,53.36,2.24,54a17.42,17.42,0,0,1,2.63.47c1,.26,1.91,2.63.25,3.47C4,58.48,1.69,57.34.39,56.57A9.71,9.71,0,0,0,4.07,58.5c.75.08,1.52.14,1.78.19.47.09,1,.72-.08.73s-3.49-.26-3.49-.26C1.73,60.47,10.82,60.26,10.82,60.26Z"/><path class="cls-10" d="M39.13,48s3.38-2.32,4,5.84c.56,6.85-6.27,24.64-12.51,26.4S9.71,62.8,9.71,62.8s1.48-5.8,5.76-5.26L28.6,72.07C31.22,72.24,33.1,53.37,39.13,48Z"/><path class="cls-12" d="M41.94,48.82c.77,3.1-.46,8.69-2.37,14.24-3,8.76-6,9.55-7.12,8.63-.48-.4-1.33-1.21-2.15-2-.06.14-.11.27-.16.4s-.05.11-.07.16-.09.22-.14.32a1.42,1.42,0,0,0-.08.18l-.13.25-.1.18-.12.2-.11.15-.11.15-.12.12-.11.1-.14.08-.08.05a.63.63,0,0,1-.23,0L28,71.43c.45,1.22.57,2.4-.19,3.06-2.08,1.82-15-9.86-15.22-13.62a4.21,4.21,0,0,1,1.32-3.23h0a3.91,3.91,0,0,0-.68.24l0,0a4.42,4.42,0,0,0-.6.34A13.54,13.54,0,0,0,9.71,62.8s.1.14.29.37l0,0c.09.13.21.28.36.46h0l.44.55.1.13.51.62.08.1.66.8.15.17.6.71.21.25c.53.61,1.1,1.27,1.71,1.95.08.09.16.19.25.28l.74.82.23.25c.33.35.66.71,1,1.06l.16.17.87.89.29.3.88.87.2.19c.35.34.7.68,1.06,1l.26.24.84.74.31.27q.54.47,1.08.9l.87.67.85.61c.32.22.64.42.95.61L26,79l.65.36.32.16c.21.1.41.19.62.27l.27.11a7.56,7.56,0,0,0,.85.27,4.69,4.69,0,0,0,.62.1l.18,0a3.23,3.23,0,0,0,.44,0h.17a3.33,3.33,0,0,0,.55-.1c6.24-1.76,13.07-19.55,12.51-26.4A11.45,11.45,0,0,0,41.94,48.82Z"/><g class="cls-7"><path class="cls-13" d="M29.65,74.13a7.18,7.18,0,0,1,0,1.76c-.06.45-.11.72-.11.72v-.72a12.37,12.37,0,0,0-.08-1.73,4.66,4.66,0,0,0-.52-1.63,2.8,2.8,0,0,0-.41-.58,2.42,2.42,0,0,1,.5.53A3.82,3.82,0,0,1,29.65,74.13Z"/><path class="cls-13" d="M30.24,72.84A2.37,2.37,0,0,1,30.76,74a2.09,2.09,0,0,1,0,.5,3,3,0,0,0-.7-1.49,3,3,0,0,0-1.36-.92,1.72,1.72,0,0,1,.49.1A2.4,2.4,0,0,1,30.24,72.84Z"/></g><path class="cls-2" d="M63.35,25a3.26,3.26,0,0,1,1.62.9,4.32,4.32,0,0,1,.48.62l0,.08v.08l0,.12a.29.29,0,0,0,.16-.05A1.69,1.69,0,0,0,66,26.5a5.74,5.74,0,0,0,.54-.46c.28-.27.42-.43.42-.43a3.12,3.12,0,0,1-.25.56,3.75,3.75,0,0,1-.4.63,3.42,3.42,0,0,1-.36.4,7,7,0,0,1-.63.52l-.25-.39-.15-.22L64.86,27l0-.06a4.63,4.63,0,0,0-.45-.42,3,3,0,0,0-1.21-.58,2.63,2.63,0,0,0-2.63,1.3,4.46,4.46,0,0,0-.5,1c-.09.24-.13.39-.13.39a3.53,3.53,0,0,1,0-.42,3.4,3.4,0,0,1,.2-1.15,3.44,3.44,0,0,1,1-1.49A2.69,2.69,0,0,1,63.35,25Z"/><path class="cls-2" d="M46.23,26a3.16,3.16,0,0,0-1.5,1.09,4,4,0,0,0-.4.67l0,.09v.07l0,.13s-.1,0-.16,0a2.12,2.12,0,0,1-.34-.17c-.23-.14-.43-.28-.58-.39a5.25,5.25,0,0,1-.48-.38,3.71,3.71,0,0,0,.32.53,5,5,0,0,0,.48.57,2.59,2.59,0,0,0,.4.36,5.92,5.92,0,0,0,.69.44l.2-.42.12-.24L45,28.2l0-.06a4.22,4.22,0,0,1,.39-.47A3,3,0,0,1,46.54,27a2.63,2.63,0,0,1,2.78,1,4.06,4.06,0,0,1,.6.89,2.67,2.67,0,0,1,.18.37,2.19,2.19,0,0,0,0-.42,3.2,3.2,0,0,0-.34-1.11,3.3,3.3,0,0,0-1.19-1.35A2.66,2.66,0,0,0,46.23,26Z"/><path class="cls-22" d="M59.44,34.59a2.17,2.17,0,0,1-.34-.22c-.11-.09-.22-.18-.31-.27a1.42,1.42,0,0,1-.13-.17.62.62,0,0,0,.06.61l0,0V34.5h0s-.2-.08-.44-.55a.71.71,0,0,0-.15-.22l0-.07-.05,0h0l0,0a.56.56,0,0,0-.45-.12.86.86,0,0,0-.31.12c-.06,0-.47.33-.43.4a1,1,0,0,0-.63-.45h0a1,1,0,0,0-.38,0,3.68,3.68,0,0,0-1.23.39l-.36.2h0l-.74.45a6.8,6.8,0,0,1-.81.4,2.76,2.76,0,0,0-.27.09h0l0,0a.59.59,0,0,0,0-.61l-.13.13a1.89,1.89,0,0,0-.23.25,2.38,2.38,0,0,0-.17.31l-.08.16a.66.66,0,0,0,.49-.16,1.55,1.55,0,0,0,.15.33l.05.08a4,4,0,0,0,.28.37l.09.1a3.7,3.7,0,0,0,.28.28,1.07,1.07,0,0,0,.16.14,4.47,4.47,0,0,0,.41.32,1.64,1.64,0,0,0,.22.14l.31.19a3.11,3.11,0,0,0,2.17.44,2.84,2.84,0,0,0,1.8-1.57h0a5.5,5.5,0,0,0,.45-1.24l.11-.09.08.09a.62.62,0,0,0,.78,0A1.07,1.07,0,0,1,59.44,34.59Z"/><path class="cls-16" d="M52.38,34.82s.28-.11.3-.12a6.46,6.46,0,0,0,.82-.39,5.56,5.56,0,0,1,2.32-1.05,1.19,1.19,0,0,1,.42,0,1.08,1.08,0,0,1,.63.45c0-.07.36-.36.42-.4a.69.69,0,0,1,1.06.34c.23.47.43.55.43.55s-.39,2.54-2.28,3S52.6,35.71,52.38,34.82Z"/><path class="cls-17" d="M58.35,33.67a.69.69,0,0,0-1.06-.34c-.06,0-.47.33-.42.4a1.08,1.08,0,0,0-.63-.45,1.19,1.19,0,0,0-.42,0,5.56,5.56,0,0,0-2.32,1.05,6.46,6.46,0,0,1-.82.39s-.31.09-.3.12v0a7.5,7.5,0,0,0,4,.35,4.38,4.38,0,0,0,2.4-.88.35.35,0,0,0,0-.1S58.58,34.14,58.35,33.67Z"/><g class="cls-7"><path class="cls-6" d="M52.13,34.51a1.89,1.89,0,0,1,.23-.25l.13-.13a.57.57,0,0,1,0,.62.61.61,0,0,1-.57.23l.08-.16A1.84,1.84,0,0,1,52.13,34.51Z"/><path class="cls-6" d="M55.75,35.06a7.22,7.22,0,0,0,2.42-.46,6.83,6.83,0,0,0,.66-.36l.25-.14-.21.19a4.9,4.9,0,0,1-.61.49,5.5,5.5,0,0,1-2.49.68,8.29,8.29,0,0,1-2.55-.31,3.66,3.66,0,0,1-1-.41,6.42,6.42,0,0,0,1,.22A15.42,15.42,0,0,0,55.75,35.06Z"/><path class="cls-6" d="M59.18,34.09a2.77,2.77,0,0,0,.34.22,1.37,1.37,0,0,0,.2.09.63.63,0,0,1-1-.75,1.42,1.42,0,0,0,.13.17A2.7,2.7,0,0,0,59.18,34.09Z"/></g><path class="cls-17" d="M56.36,35.2a4.38,4.38,0,0,0,2.4-.88.35.35,0,0,0,0-.1s-.2-.08-.43-.55a.94.94,0,0,0-.26-.32c.14.56-.41,1.18-2.35,1.25-1.3,0-1.52-.4-1.5-.75-.26.15-.51.3-.74.46a6.46,6.46,0,0,1-.82.39s-.31.09-.3.12v0A7.5,7.5,0,0,0,56.36,35.2Z"/><path class="cls-17" d="M58.35,33.67a0,0,0,0,0,0,0h0A0,0,0,0,1,58.35,33.67Z"/><path class="cls-17" d="M56.36,35.2a7.5,7.5,0,0,1-4-.35v0a4.39,4.39,0,0,0,2.17,2.07c-.43-.41-1.12-1.15-.64-1.27.66-.16,1.68.23,3.22-.21.85-.24,1.13-.07,1.17.23a4.91,4.91,0,0,0,.46-1.32A4.42,4.42,0,0,1,56.36,35.2Z"/><path class="cls-23" d="M56,36.34c0,.17-.25.32-.57.32s-.58-.15-.58-.32.26-.33.58-.33S56,36.16,56,36.34Z"/></g></g></g></svg>