<svg xmlns="http://www.w3.org/2000/svg" viewBox="0 0 73.77 195.17"><defs><style>.cls-1{isolation:isolate;}.cls-2{fill:#d4ecd4;}.cls-11,.cls-12,.cls-15,.cls-19,.cls-2,.cls-21,.cls-23,.cls-24,.cls-25,.cls-30,.cls-31,.cls-32,.cls-34,.cls-35,.cls-36,.cls-4,.cls-8,.cls-9{mix-blend-mode:multiply;}.cls-24,.cls-25,.cls-26,.cls-3,.cls-4{fill:#6f3a1e;}.cls-4{opacity:0.3;}.cls-11,.cls-12,.cls-15,.cls-16,.cls-24,.cls-33,.cls-34,.cls-37,.cls-5{opacity:0.5;}.cls-16,.cls-20,.cls-22,.cls-26,.cls-27,.cls-29,.cls-33,.cls-37,.cls-5,.cls-6{mix-blend-mode:screen;}.cls-31,.cls-32,.cls-6,.cls-9{opacity:0.45;}.cls-22,.cls-34,.cls-7,.cls-8,.cls-9{fill:#e5b678;}.cls-10{fill:#fff;}.cls-11,.cls-13,.cls-36{fill:#d3dbfd;}.cls-14,.cls-15,.cls-16,.cls-27{fill:#f15e6b;}.cls-17,.cls-21,.cls-37{fill:#294168;}.cls-18,.cls-19{fill:#88ac76;}.cls-19{opacity:0.35;}.cls-21,.cls-25{opacity:0.25;}.cls-28,.cls-29,.cls-31,.cls-33{fill:#3f4349;}.cls-30{fill:#89c5c2;}.cls-35{opacity:0.34;}</style></defs><title>full_regularРесурс 1</title><g class="cls-1"><g id="Слой_2" data-name="Слой 2"><g id="OBJECTS"><ellipse class="cls-2" cx="36.89" cy="184.49" rx="36.89" ry="10.67"/><path class="cls-3" d="M11.7,21.25s1,24.54,6,31.44,22.78,9,31.15.59,6.62-33.65,6.18-34.53S23.45,7.73,11.7,21.25Z"/><path class="cls-4" d="M21.06,37.2c-.22-2.4-.53-8.73-1.09-10.36a18.31,18.31,0,0,0-2-3.94s-3.86-.59-6.22-1c.07,1.41.29,5.12.76,9.56.13-.23.28-.38.46-.36.85.08,2.7,6.17,2.7,6.17S15,31.76,16,31.76,17.58,34,17.58,34s.46-1.62,1.62-.77C20,33.8,20.74,36,21.06,37.2Z"/><path class="cls-4" d="M21.06,37.2a3.22,3.22,0,0,0,.14.94C21.27,38.18,21.21,37.79,21.06,37.2Z"/><path class="cls-4" d="M53.45,37c-.08.4-.12.65-.12.65Z"/><path class="cls-4" d="M55.05,18.75a.93.93,0,0,0-.32-.21c-.76.77-1.64,1.1-2.06.33a1.22,1.22,0,0,1,0-1.13,62.45,62.45,0,0,0-6.07-1.66L23.35,36.54s.12,7.39-.91,8.6-4-5.17-4-5.17,3.12,9,2.1,10-3.36-2.16-3.36-2.16,1.38,3.37.6,3.49c-.4.06-1.59-2.3-2.67-4.65a19.92,19.92,0,0,0,2.57,6,11,11,0,0,0,3,2.71,15.11,15.11,0,0,0,1.88.13c2.37,0,17.27-.76,24.57-.76a15.28,15.28,0,0,0,1.73-1.49,17.89,17.89,0,0,0,4-6.86C49,51.16,47.62,50,47.27,48.5s2.22-5.65,2.22-5.65-3,3-3.55,1.8,6.37-9.79,7.21-10c.6-.13.44,1.38.3,2.28.26-1.4.92-4.6,1.39-4.51.15,0,.26.84.32,2C55.88,26.48,55.28,19.22,55.05,18.75Z"/><g class="cls-5"><path class="cls-3" d="M18,45.16a2.87,2.87,0,0,1-.17-.38c-.11-.24-.26-.59-.41-1-.33-.84-.73-2-1.1-3.13-.73-2.3-1.26-4.66-1.26-4.66s-.51-2.36-.81-4.75c-.14-1.2-.26-2.4-.31-3.3,0-.45,0-.83-.06-1.09a2.26,2.26,0,0,1,0-.42,1.62,1.62,0,0,1,.06.41c0,.26.07.64.11,1.09.09.89.24,2.09.41,3.28.36,2.38.89,4.72.89,4.72s.5,2.35,1.18,4.66c.34,1.15.7,2.3,1,3.15.14.42.27.78.35,1A1.71,1.71,0,0,1,18,45.16Z"/></g><g class="cls-5"><path class="cls-3" d="M22.14,47.89a2,2,0,0,1-.16-.22c-.1-.14-.23-.34-.39-.59-.31-.5-.7-1.17-1.06-1.86a29.86,29.86,0,0,1-1.31-2.84,25.82,25.82,0,0,1-.91-3,19.72,19.72,0,0,1-.37-2.11c0-.29-.05-.54-.07-.71a1,1,0,0,1,0-.27,9.7,9.7,0,0,1,.18,1c.1.57.27,1.33.47,2.08a29,29,0,0,0,1,2.94s.54,1.45,1.22,2.85c.34.7.7,1.39,1,1.9A7.69,7.69,0,0,1,22.14,47.89Z"/></g><g class="cls-5"><path class="cls-3" d="M27.68,45.5a7.64,7.64,0,0,1-.09-1.18c0-.59-.1-1.18-.1-1.18s0-.58-.09-1.17a8.71,8.71,0,0,1-.11-1.18,4.71,4.71,0,0,1,.32,1.15c.12.59.18,1.18.18,1.18s0,.6,0,1.19A4.86,4.86,0,0,1,27.68,45.5Z"/></g><g class="cls-5"><path class="cls-3" d="M49.4,46.05a3,3,0,0,1,.16-.31c.1-.2.27-.46.44-.8.37-.66.82-1.55,1.24-2.46s.79-1.85,1-2.56.4-1.19.4-1.19.16-.47.38-1.19.47-1.69.68-2.67.37-2,.47-2.73c.06-.37.08-.68.11-.9a1.66,1.66,0,0,1,.06-.34,1.48,1.48,0,0,1,0,.34c0,.22,0,.54-.05.92-.07.75-.2,1.75-.38,2.75s-.42,2-.62,2.7S53,38.83,53,38.83s-.16.48-.43,1.19-.67,1.64-1.1,2.55S50.5,44.36,50.1,45c-.19.33-.37.59-.49.77A1.24,1.24,0,0,1,49.4,46.05Z"/></g><g class="cls-5"><path class="cls-3" d="M47.35,45.39s.57-.5,1-1.09A8.32,8.32,0,0,0,49.17,43a7.2,7.2,0,0,0,.56-1.37C50,41,50,40.2,50,40.2a4.19,4.19,0,0,1-.1,1.52,5.47,5.47,0,0,1-1.4,2.71A4,4,0,0,1,47.35,45.39Z"/></g><g class="cls-5"><path class="cls-3" d="M46.28,42.79s-.09.29-.25.55a5.33,5.33,0,0,1-.34.49s-.21.21-.44.4-.48.35-.51.32.17-.25.36-.47l.37-.45.39-.42C46.06,43,46.25,42.77,46.28,42.79Z"/></g><g class="cls-5"><path class="cls-3" d="M52.31,45.6A5.82,5.82,0,0,1,52,47.32a7.09,7.09,0,0,1-.41,1.14c-.14.3-.25.49-.25.49a5.45,5.45,0,0,1-.31.46,10.47,10.47,0,0,1-.76.93A8.76,8.76,0,0,1,49,51.53s.56-.66,1.11-1.33c.27-.33.52-.68.7-1s.27-.45.27-.45.11-.18.26-.47a8,8,0,0,0,.46-1.07C52.12,46.45,52.27,45.59,52.31,45.6Z"/></g><g class="cls-6"><path class="cls-3" d="M13.45,35.92c.3,3.38.71,7.79,2.88,10.53a.3.3,0,0,0,.5-.21,30.1,30.1,0,0,0-1.27-4.87c-.46-1.85-.94-3.68-1.27-5.56a.43.43,0,0,0-.84.11Z"/></g><g class="cls-6"><path class="cls-3" d="M16.13,34.83a1.34,1.34,0,0,0-.19,1.2,2.75,2.75,0,0,0,.51,1.33c.22.25.59,0,.61-.26a3.94,3.94,0,0,0-.28-1.3,1.46,1.46,0,0,0-.59-1Z"/></g><g class="cls-6"><path class="cls-3" d="M17.53,39.23A8,8,0,0,0,18.14,42c.05.09.19,0,.17-.07-.2-.93-.52-1.82-.73-2.75,0,0,0,0,0,0Z"/></g><g class="cls-6"><path class="cls-3" d="M18.94,34.29a4,4,0,0,0,.13,2.26,12.26,12.26,0,0,0,.83,2.85c.06.13.26.06.26-.07a11.36,11.36,0,0,0-.3-2.79c-.18-.75-.2-1.73-.78-2.27,0,0-.12,0-.14,0Z"/></g><g class="cls-6"><path class="cls-3" d="M52.51,36.92a1.89,1.89,0,0,0-.6.85,2.62,2.62,0,0,0-.2,1.14.25.25,0,0,0,.46.12,4,4,0,0,0,.38-1,2.19,2.19,0,0,0,.14-.5,3.32,3.32,0,0,0,0-.54.09.09,0,0,0-.15-.06Z"/></g><g class="cls-6"><path class="cls-3" d="M54,37.28c-1.64,3.2-3.2,6.56-4.6,9.86-.15.35.26.77.56.44a15.93,15.93,0,0,0,4.17-10.27.07.07,0,0,0-.13,0Z"/></g><g class="cls-5"><path class="cls-3" d="M18.55,50.53a11.8,11.8,0,0,1-.88-1.44,10.76,10.76,0,0,1-.61-1.58A11.8,11.8,0,0,1,17.94,49,10.76,10.76,0,0,1,18.55,50.53Z"/></g><path class="cls-7" d="M55.07,105c.13.29.27,4.57,1.68,4.43s.49-2.49,1.06-2.86,3.29,6.39,4.37,6.23,1.06-4.15,1.07-5c0,0,.7,1,1.07.7s-2.51-5.07-4.08-6.83S54.56,103.86,55.07,105Z"/><path class="cls-8" d="M61,106.82a9.4,9.4,0,0,1,.65,1.44c.29.74.55,1.49.55,1.49s.05.19.14.47.19.66.27,1.06a2.38,2.38,0,0,1,0,1.1c-.07.3-.25.45-.26.43a1,1,0,0,0,.17-.45,2.37,2.37,0,0,0-.07-1c-.09-.38-.23-.75-.32-1l-.15-.47s-.23-.75-.48-1.5S61,106.83,61,106.82Zm1.43,1.08c.16.7.28,1.41.28,1.41l.09.44a8,8,0,0,1,.12,1,3.26,3.26,0,0,1-.08,1,3.4,3.4,0,0,0-.11.43,1.08,1.08,0,0,0,.2-.41,3.22,3.22,0,0,0,.16-1,9,9,0,0,0-.07-1l-.07-.45s-.15-.72-.36-1.42a7.06,7.06,0,0,0-.5-1.36S62.26,107.19,62.42,107.9Zm.06-1.73c.16.34.29.7.29.7a6.8,6.8,0,0,1,.26.71,6.52,6.52,0,0,0,.21.73,2.29,2.29,0,0,0-.05-.77,5.6,5.6,0,0,0-.2-.76,6,6,0,0,0-.37-.69,1.92,1.92,0,0,0-.49-.61A7,7,0,0,0,62.48,106.17Z"/><path class="cls-9" d="M64.32,108.5c.07,0,0-.27-.1-.58-.6-.2-1.56-1.8-1.6-1.83s.81,3.78-.09,4.69-2.53-2.6-3.46-3.55-1.26-.64-1.26-.64c.58-.36,3.29,6.39,4.37,6.23s1.06-4.15,1.07-5C63.25,107.8,64,108.81,64.32,108.5Z"/><path class="cls-9" d="M56.75,109.45c.76-.08.84-.78.85-1.48a1.17,1.17,0,0,1-.55.64c-.83.4-2.31-3.47-.2-3.5,1.56,0,3.27-1.73,4.06-2.62-.23-.31-.46-.59-.67-.82-1.56-1.77-5.68,2.19-5.17,3.35C55.2,105.31,55.34,109.59,56.75,109.45Z"/><path class="cls-10" d="M43.25,44.61a12.89,12.89,0,0,1,4.47,4c1.62,2.55,3.07,26.26,3.73,28.18s9.79,24.61,9.79,24.61-3.5,4.84-6.71,3.58S44.09,79.09,43.75,76.21,39.78,47.33,43.25,44.61Z"/><path class="cls-11" d="M43.25,44.61a12.89,12.89,0,0,1,4.47,4c1.62,2.55,3.07,26.26,3.73,28.18s9.79,24.61,9.79,24.61-3.5,4.84-6.71,3.58S44.09,79.09,43.75,76.21,39.78,47.33,43.25,44.61Z"/><path class="cls-11" d="M61.18,101.26l-.06-.15c0-.1-.1-.23-.16-.39l-.13-.32c-.08-.21-.18-.45-.29-.72l-.14-.34-.33-.84c-.07-.18-.15-.36-.22-.55l-.34-.84,0-.1-.21-.52v0L59,95.89c0,2.26-.12,5.6-1.87,5.66-2.66.09-9.38-18.87-7.62-20.44.9-.8,2.73.43,4.31,1.82l-.44-1.11,0-.08c-.07-.16-.13-.32-.19-.47v0c-.06-.16-.13-.32-.19-.47l0-.06-.55-1.39h0l-.15-.38,0-.09-.11-.27,0-.1L52,78.19v0l-.12-.32,0,0-.08-.23,0-.09a.88.88,0,0,1-.05-.15l0-.07,0-.14,0-.06,0-.11,0,0a.56.56,0,0,1,0-.12.36.36,0,0,1,0-.11v-.05a.36.36,0,0,1,0-.11l0-.06a.5.5,0,0,0,0-.12v-.09l0-.14V76l0-.17v-.09l0-.21v-.08q0-.31-.09-.69v0c0-.11,0-.23,0-.35v-.08c0-.11,0-.22,0-.33v-.1c0-.11,0-.23,0-.34v-.1c0-.12,0-.25,0-.37V73c0-.14,0-.29-.05-.44v0C50.11,65,49,50.57,47.72,48.61a9.06,9.06,0,0,0-.61-.84l-.26-.31-.07-.08-.26-.28L46.44,47c-.08-.09-.17-.17-.26-.26l-.07-.07-.27-.25-.07-.06-.28-.24,0,0a16.06,16.06,0,0,0-1.41-1l0,0L43.84,45l-.05,0-.15-.09,0,0-.11-.07,0,0-.08-.05,0,0,0,0h0c-3.47,2.72.16,28.71.5,31.6S51.32,103.72,54.53,105s6.71-3.58,6.71-3.58Z"/><path class="cls-10" d="M59.11,98.68c-.16.06-3.5-7.47-3.5-7.47L55.13,90c-.29-.72-.67-1.68-1-2.65a25.35,25.35,0,0,1-.88-2.71A5.28,5.28,0,0,1,53,83.39a6.75,6.75,0,0,1,.46,1.21c.25.72.63,1.67,1,2.61L56.17,91S59.26,98.61,59.11,98.68Z"/><g class="cls-12"><path class="cls-13" d="M51.59,77.77a3.62,3.62,0,0,1-.67-.82,10.5,10.5,0,0,1-.54-.92A9,9,0,0,1,50,75a3.54,3.54,0,0,1-.22-1,8.34,8.34,0,0,1,.42,1c.2.48.44.94.44.94s.21.48.45.94A8.34,8.34,0,0,1,51.59,77.77Z"/></g><path class="cls-14" d="M16,172.23l-.12.17c-.61.92-3.38,5.11-3.06,5.87s3.6-4.63,3.6-4.63"/><path class="cls-15" d="M16,172.23l-.12.17c-.61.92-3.38,5.11-3.06,5.87s3.6-4.63,3.6-4.63"/><path class="cls-7" d="M36.83,122.88l1.68,14.19s-8.68.67-20.52,32.57c-.41,1.11-1.75,1.88-2.25,2.94a14.61,14.61,0,0,0-.87,8.47c.26,1.19,3,5.35,3.62,2.64,1-4.45.65-6,1.26-9.17.45-2.37,1.37-3.22,2.85-5.16,3.28-4.29,6.61-8.54,9.88-12.84,3.8-5,7.66-10,11.92-14.61,4-4.31,4.16-14.07,7.34-22.66S49.28,95.17,36.83,122.88Z"/><path class="cls-9" d="M36.83,122.88l1.68,14.19s-8.68.67-20.52,32.57c-.41,1.11-1.75,1.88-2.25,2.94a14.61,14.61,0,0,0-.87,8.47c.26,1.19,3,5.35,3.62,2.64,1-4.45.65-6,1.26-9.17.45-2.37,1.37-3.22,2.85-5.16,3.28-4.29,6.61-8.54,9.88-12.84,3.8-5,7.66-10,11.92-14.61,4-4.31,4.16-14.07,7.34-22.66S49.28,95.17,36.83,122.88Z"/><path class="cls-9" d="M52.39,111.57c-.51.09-1,.19-1.56.31-1.32,1.23-5.19,1-9.07,1.6a73.63,73.63,0,0,0-4.93,9.4l1.68,14.19h0a6.61,6.61,0,0,0-3.11,1.68l-.26.21a24.2,24.2,0,0,0-2.8,2.83l-.35.43c-.24.29-.49.6-.74.93s-.5.66-.76,1a73.71,73.71,0,0,0-6.21,10.61c-.16.33-.33.67-.49,1C22,159.6,20,164.16,18,169.64a2.93,2.93,0,0,1-.19.4,5.62,5.62,0,0,1-.57.74c-.21.24-.45.46-.67.7a5.73,5.73,0,0,0-.6.72,2.88,2.88,0,0,0-.22.38,8.78,8.78,0,0,0-.38.94,9.4,9.4,0,0,0-.31,1c-.05.2-.09.41-.13.62s-.12.63-.17,1c0,0,0,.08,0,.13a16.1,16.1,0,0,0-.14,2.19h0c0,.56,0,1.1.1,1.62.05.35.1.68.17,1A7,7,0,0,0,16,183.12c.09.13.19.26.28.37l.15.18.3.32a1.9,1.9,0,0,0,1,.6.57.57,0,0,0,.56-.31,1.87,1.87,0,0,0,.22-.59c.06-.3.12-.58.17-.85,0-.1,0-.18.05-.27s.07-.36.1-.52,0-.2.05-.29.05-.3.07-.44a2.89,2.89,0,0,0,0-.29l.06-.39,0-.26c0-.13,0-.25.05-.37l0-.25c0-.12,0-.24,0-.36a1.49,1.49,0,0,1,0-.21l0-.41c0-.05,0-.1,0-.14s0-.36,0-.54a1.36,1.36,0,0,1-1.42.21c-2.3-1.19,1.36-10.74,5.91-19.87S35.43,141,39.17,140.63c2.49-.22,3.21,1.88,3.41,3.3.6-.68,1.2-1.35,1.82-2,4-4.31,4.16-14.07,7.34-22.66A15.21,15.21,0,0,0,52.39,111.57Z"/><path class="cls-14" d="M19.21,179c-.46,2.09-1.47,2.19-2.31,1-2.21-3,.83-9.78.83-9.78l-.05-.07a21.19,21.19,0,0,0-1.94,2.37,14.61,14.61,0,0,0-.87,8.47c.26,1.19,3,5.35,3.62,2.64A36.83,36.83,0,0,0,19.21,179Z"/><path class="cls-7" d="M43.38,137.07a.46.46,0,0,1-.77-.52.46.46,0,0,1,.77.52Z"/><path class="cls-7" d="M43.63,139.44a.83.83,0,0,1-1.15.21.82.82,0,0,1,.93-1.36A.83.83,0,0,1,43.63,139.44Z"/><g class="cls-5"><path class="cls-16" d="M17.62,183.17c-.05.07-.71-.44-1.2-1.12a6.88,6.88,0,0,1-.79-1.45,7.21,7.21,0,0,1-.26-1.64,3.17,3.17,0,0,1,.26-1.61c.08,0,0,.8.16,1.57a8.4,8.4,0,0,0,.41,1.48,8.16,8.16,0,0,0,.58,1.43C17.15,182.51,17.67,183.11,17.62,183.17Z"/></g><path class="cls-15" d="M14.87,181.05c.25,1.12,2.71,4.87,3.49,3-.85.74-2-.64-2.8-2.59-1.14-2.9.09-8,.36-8.14s.18,2.07.14,2.8c0,.1,0,.17,0,.2l.09-.14a21.45,21.45,0,0,1,1.6-5.95l-.05-.07a21.19,21.19,0,0,0-1.94,2.37A14.61,14.61,0,0,0,14.87,181.05Z"/><path class="cls-7" d="M27.38,127.06s4.92,9.07,6.58,11.46a40.77,40.77,0,0,0-.9,11.16c.47,5.29,9.8,27,10.89,29,0,0,.33,1.35.78,3,.66,2.46,1.58,5.63,2.15,6.4,1,1.29-.41-5-.41-5s3.3,4.46,4.81,4.68,6.31-1.23,6.37-2.22S54,187.17,48,178.41c-1.7-2.49-6.55-37.83-5.93-41.12s-2.53-16.64-3.31-18.21S24.22,116,27.38,127.06Z"/><path class="cls-9" d="M44.75,181.85c.08.3.17.61.26.93a1.21,1.21,0,0,0,.05.18c.08.29.16.59.25.88l0,.07c.53.47,1.06.91,1.55,1.31v-.06c0-.08,0-.16,0-.24a1.55,1.55,0,0,1,0-.21c0-.08,0-.15,0-.23s0-.15,0-.22a1.77,1.77,0,0,1,0-.2q0-.17-.06-.3l0-.12a1.29,1.29,0,0,0,0-.19v-.06l0-.15v-.08h0l.07.09.05.06.07.09.07.1.1.12.11.14.1.14.15.18a1.34,1.34,0,0,0,.11.14l.28.34.11.14.2.23.15.18.19.22.16.18.2.22.17.18.21.22.16.17.27.26.17.16.29.26a.81.81,0,0,0,.14.12l.21.18.15.11.13.08c.53.1,1.27.21,2.11.3l.17,0,.18,0,.4-.08.19,0,.33-.08.2-.06.29-.07.2-.06.32-.1.16-.05.45-.16.13,0,.32-.12.15-.07.27-.12.13-.06.29-.15.07,0c.11-.06.2-.13.29-.19a.18.18,0,0,0,.07-.05,1.26,1.26,0,0,0,.17-.13l.07-.07.1-.12,0-.06a.44.44,0,0,0,.06-.17.31.31,0,0,0,0-.1v0l-.05-.06h0l-.09,0h0l-.11,0h0l-.16,0c-.21,0-.49,0-.82-.09h0c-.21,0-.45-.08-.71-.15h0l-.39-.12h0c-.14-.05-.29-.1-.44-.17l-.06,0-.42-.2-.07,0-.5-.27-.05,0q-.24-.14-.48-.3l-.1-.07-.57-.41h0a1.64,1.64,0,0,1-.8.33c-3,.48-6.48-5.55-10-14.08s-7.39-22.41-4-27.14c2-2.81,3.57-2,4.51-.95l0-.44,0-.28c0-.31,0-.6,0-.88,0-.08,0-.16,0-.24s0-.41,0-.59a1.34,1.34,0,0,0,0-.21c0-.24,0-.46,0-.65v-.1c0-.16,0-.3,0-.43a.49.49,0,0,1,0-.12,3.25,3.25,0,0,1,0-.36,2.73,2.73,0,0,0,.06-.45s0-.08,0-.13,0-.3,0-.47v-.09c0-.19,0-.41,0-.63a.91.91,0,0,1,0-.17c0-.19,0-.38,0-.58s0-.11,0-.16c0-.25,0-.51-.08-.77a1.1,1.1,0,0,0,0-.18c0-.22,0-.45-.08-.68l0-.22c0-.29-.08-.58-.13-.87l0-.11c0-.27-.08-.54-.13-.81,0-.09,0-.17,0-.26,0-.29-.1-.59-.16-.9v0l-.18-.95a2.38,2.38,0,0,1-.05-.26c0-.27-.11-.54-.16-.81l0-.15c-.07-.32-.14-.63-.2-1,0-.07,0-.13,0-.2,0-.26-.11-.52-.17-.78a1.42,1.42,0,0,0,0-.2c-.07-.3-.14-.6-.2-.89l0-.15q-.09-.39-.18-.75a1.16,1.16,0,0,0,0-.18c-.07-.28-.14-.56-.2-.82a26.92,26.92,0,0,0-1.08-3.61c-.77-1.57-14.51-3.11-11.35,8,0,0,1,1.78,2.18,4a22.74,22.74,0,0,1,1.23,2.2c1,1.77,2,3.51,2.73,4.63l.44.67h0a44,44,0,0,0-.83,5.3c-.08.91-.15,1.87-.17,2.86,0,.66,0,1.33,0,2,0,.34,0,.67.07,1a3.81,3.81,0,0,0,.07.54,13.66,13.66,0,0,0,.28,1.35c.06.25.13.52.2.79.16.56.33,1.16.53,1.79s.42,1.31.66,2,.5,1.43.77,2.19q.21.55.42,1.14c3,8.09,7.25,17.92,8,19.23,0,0,.24,1,.61,2.42,0,.2.1.4.16.61Z"/><path class="cls-14" d="M53.82,184.35c.34.67-.19.86-2.43.39-3.26-.7-7.44-6-7.44-6s.33,1.35.78,3c.66,2.46,1.58,5.63,2.15,6.4,1,1.29-.41-5-.41-5s3.3,4.46,4.81,4.68,6.31-1.23,6.37-2.22C57.69,185,56.29,185.73,53.82,184.35Z"/><path class="cls-7" d="M38,135.73a.46.46,0,0,1-.33.57.48.48,0,0,1-.57-.33.47.47,0,0,1,.33-.57A.46.46,0,0,1,38,135.73Z"/><circle class="cls-7" cx="39.13" cy="137.28" r="0.83" transform="translate(-6.96 2.18) rotate(-2.93)"/><g class="cls-5"><path class="cls-16" d="M54.94,186.43a3.2,3.2,0,0,1-1.63.19,7.06,7.06,0,0,1-1.62-.34,6.53,6.53,0,0,1-1.42-.86,3.2,3.2,0,0,1-1.07-1.24c.07-.06.64.5,1.31.89a7.6,7.6,0,0,0,1.4.65,7.94,7.94,0,0,0,1.46.48C54.13,186.36,54.92,186.35,54.94,186.43Z"/></g><path class="cls-15" d="M57.21,185.32c-.3.68-1.85,1.92-4.65,1.88-3.27,0-6.12-5.31-6.12-5.31,5,4.78,7.56,3.54,7.77,3.19.08-.15,0-.37-.12-.59l-.27-.14c.34.67-.19.86-2.43.39-3.26-.7-7.44-6-7.44-6s.33,1.35.78,3c.66,2.46,1.58,5.63,2.15,6.4,1,1.29-.41-5-.41-5s3.3,4.46,4.81,4.68,6.31-1.23,6.37-2.22C57.66,185.41,57.51,185.36,57.21,185.32Z"/><path class="cls-17" d="M28,82.57A18.63,18.63,0,0,0,22,95.07c-.32,7.69,1.29,22.75,2.89,30.77l3.85,2.24,1-7.69L32.21,129s12.5,4.17,20.51-3.2c0,0,2.89-32.38-6.73-42.31S28,82.57,28,82.57Z"/><path class="cls-18" d="M28,82.57A18.63,18.63,0,0,0,22,95.07c-.32,7.69,1.29,22.75,2.89,30.77l3.85,2.24,1-7.69L32.21,129s12.5,4.17,20.51-3.2c0,0,2.89-32.38-6.73-42.31S28,82.57,28,82.57Z"/><path class="cls-19" d="M52.74,125.68v-.17h0c0-.15,0-.33,0-.56v0c0-.1,0-.22,0-.34v0c0-.41.06-.91.09-1.48v0a128.94,128.94,0,0,0-.5-21.24v-.07c0-.36-.09-.73-.14-1.1.41,10.93-.69,24.33-8.84,24.42-7.21.09-13-8.73-14.08-14.8-.82-4.71-2-9.43-1.86-14.24.09-2.76.5-7,2.12-9.92h0l.07-.18,0-.09a6.73,6.73,0,0,1,2.68-2.69c1.23-.62,2.61-.87,3.84-1.46a1.16,1.16,0,0,0,.63-.54c.19-.51-.32-1-.78-1.28s-.89-.57-1.34-.85A13.13,13.13,0,0,0,28,82.57a17.61,17.61,0,0,0-2.57,2.86h0a18.7,18.7,0,0,0-2,3.45l0,.06-.21.5-.06.14L23,90l-.07.19c-.05.14-.1.27-.14.41s-.05.16-.08.24l-.12.39c0,.09-.05.18-.07.26s-.07.26-.1.4l-.06.28-.09.4a2.74,2.74,0,0,0-.05.28c0,.14-.05.29-.07.43s0,.18-.05.28,0,.32,0,.48l0,.24c0,.25,0,.49-.05.75-.32,7.69,1.29,22.75,2.89,30.77l3.85,2.24,1-7.69L32.21,129a27.88,27.88,0,0,0,8,1.17,19.66,19.66,0,0,0,9.29-2.12,15.25,15.25,0,0,0,3.18-2.25s0,0,0-.14Z"/><g class="cls-20"><path class="cls-18" d="M52,108.85a10.77,10.77,0,0,1-.24-1.61c-.11-1-.28-2.25-.46-3.53-.37-2.57-.88-5.11-.88-5.11S50,96,49.4,93.51c-.29-1.26-.59-2.52-.83-3.47a10.22,10.22,0,0,1-.36-1.59A8.87,8.87,0,0,1,48.79,90c.31.92.68,2.17,1,3.43C50.5,95.93,51,98.49,51,98.49s.45,2.57.71,5.16c.13,1.3.23,2.6.27,3.57A8.42,8.42,0,0,1,52,108.85Z"/><path class="cls-18" d="M51.58,122.15a21.82,21.82,0,0,1,.16-2.77c.09-1.38.11-2.76.11-2.76s.1-1.37.13-2.75a24.94,24.94,0,0,1,.08-2.78,12.54,12.54,0,0,1,.34,2.77c.08,1.39.05,2.79.05,2.79s-.09,1.39-.29,2.77A13.09,13.09,0,0,1,51.58,122.15Z"/><path class="cls-18" d="M27.5,125.54s-.08-.11-.25-.24-.48-.21-.84-.43a1,1,0,0,1-.43-.54,6,6,0,0,1-.16-.71c-.1-.48-.19-1-.29-1.5L24.77,118s-1.2-8.21-1-8.23S25.37,118,25.37,118l.58,4.11c.07.51.13,1,.2,1.51a5.62,5.62,0,0,0,.1.67.81.81,0,0,0,.3.44,8.55,8.55,0,0,1,.78.53C27.5,125.39,27.51,125.54,27.5,125.54Z"/><path class="cls-18" d="M44.07,128.39a5.85,5.85,0,0,1-1.34.26,25.22,25.22,0,0,1-3,.18,27.82,27.82,0,0,1-4.33-.33s-.54-.1-1.34-.29l-.63-.17a2.79,2.79,0,0,1-.39-.12.83.83,0,0,1-.38-.34,4.19,4.19,0,0,1-.27-.8L32.2,126c-.27-1-.55-2.09-.74-2.88a6,6,0,0,1-.27-1.32,6.29,6.29,0,0,1,.49,1.26c.27.76.6,1.79.93,2.82.09.25.17.51.25.76a3.35,3.35,0,0,0,.24.67c.07.13.23.17.47.22l.64.14c.78.15,1.31.23,1.31.23a30.55,30.55,0,0,0,4.24.5,29.16,29.16,0,0,0,3,0A8.54,8.54,0,0,1,44.07,128.39Z"/></g><path class="cls-19" d="M45.59,83.12h0a13.8,13.8,0,0,0-8.18-4.23c-5.5-.48-9.37,3.68-9.37,3.68a16.68,16.68,0,0,0-2.16,2.33c2.28.71,5.92,1.74,8.13,1.6A10.4,10.4,0,0,0,40.43,84,4.74,4.74,0,0,0,43.6,85.8a13.93,13.93,0,0,0,3.76,0A5.85,5.85,0,0,1,45.59,83.12Z"/><path class="cls-14" d="M50.49,62.1c-.27-3.26-1.87-6.25-3.07-9.24-.91-2.26-1.92-6.4-4-8S31,44.62,31,44.62s-8.11,3-8.37,4.29,4.17,13.4,5,18c.4,2.15.88,4.31,1.19,6.48.57,3.94.88,7.72-1.65,11a19,19,0,0,0,6.92,1,10.35,10.35,0,0,0,6.41-2.54,4.76,4.76,0,0,0,3.18,1.84,13.93,13.93,0,0,0,3.76,0c-2.94-2.6-2.06-5.9-1.51-9.29.38-2.32.69-4.8,2.1-6.77S50.71,64.74,50.49,62.1Z"/><path class="cls-15" d="M50.49,62.1c0-.35-.08-.68-.13-1V61c-.06-.35-.13-.68-.21-1a8.59,8.59,0,0,1-1.07,3.69c-1.22,1.39-2.27.17-7,1.39s-7.84.7-11.15-3.31c-2.66-3.22-4.3-8.46-4.84-10.38a9.12,9.12,0,0,0-2,3.47l1.42,4.5.07.23.14.47.1.32c0,.14.09.28.13.42s.08.25.11.37l.12.38.12.41c0,.11.07.22.1.33s.13.43.19.64l.06.21.16.55c0,.09.05.17.07.25l.12.43c0,.08,0,.17.07.26s.07.26.1.38l.06.25.09.36.06.23c0,.13.06.25.08.37a1,1,0,0,1,0,.17c0,.18.08.34.11.5.1.54.2,1.08.31,1.61.14.7.28,1.4.41,2.1s.3,1.63.42,2.44c0,.11,0,.22,0,.33h0c.57,3.94.88,7.72-1.65,11a19,19,0,0,0,6.92,1,10.73,10.73,0,0,0,5.55-1.86,5.07,5.07,0,0,1-.95.14,7.49,7.49,0,0,1-2.4-.24,13.69,13.69,0,0,1-2.78-3.25,14.65,14.65,0,0,1-1.18-3c0-.84.08-1.67.16-2.5l-.57.37A7,7,0,0,1,32,72.92c.52-2.44,6.09-2.27,10.27-1.74a6.79,6.79,0,0,1,4.08,1.89h0c0-.16.06-.33.1-.49l0-.15c.07-.29.14-.57.22-.85l0-.11A9.12,9.12,0,0,1,48,68.66C49.56,66.54,50.71,64.74,50.49,62.1Z"/><path class="cls-11" d="M40.89,83.35a5,5,0,0,0,.33-.55,3.5,3.5,0,0,1-.49.37Z"/><path class="cls-21" d="M38.63,84.5h.07l.09,0Z"/><path class="cls-7" d="M31.53,41.11s-.53,5.45,1.61,6.41,4.56,1,5.36-1.29,0-5.44,0-5.44S31.8,39.82,31.53,41.11Z"/><path class="cls-9" d="M37.51,47.6c-3.45-.53-5.58-4.5-4.43-3.92s4.55.12,5.78-.07a14,14,0,0,0-.36-2.82s-6.7-1-7,.32c0,0-.53,5.45,1.61,6.41C34.7,48.21,36.39,48.4,37.51,47.6Z"/><path class="cls-11" d="M36.88,48.34s3.24,3,3.86,1.36c0,0,0-.07,0-.1a26.06,26.06,0,0,0-1.9-4.67,2.73,2.73,0,0,1-2.36,2.38,4.49,4.49,0,0,1-4.61-2.7c-.24,1.17.69,3.59,2.49,6.78C34.86,51.5,35.79,51.2,36.88,48.34Z"/><path class="cls-10" d="M31.51,43.18c-.05-.39-1.3,3.87,2.43,7.6,0,0,1.25,1.37,2.87-2.86,0,0,3.23,3,3.85,1.37s-1.8-5.68-1.8-5.68.18,2.91-2.43,3.28A4.52,4.52,0,0,1,31.51,43.18Z"/><path class="cls-11" d="M40.66,48.75c-.62,1.61-3.85-1.37-3.85-1.37-1.62,4.23-2.87,2.86-2.87,2.86a8.69,8.69,0,0,1-2.67-5.84,8.55,8.55,0,0,0,2.67,6.38s1.25,1.37,2.87-2.86c0,0,3.23,3,3.85,1.37a2,2,0,0,0,.09-.91A1.82,1.82,0,0,1,40.66,48.75Z"/><g class="cls-5"><path class="cls-16" d="M48.88,59.69a3.72,3.72,0,0,1-.2-.87A14.52,14.52,0,0,0,48.14,57c-.23-.67-.5-1.33-.7-1.82l-.33-.83s-1.86-5.4-1.71-5.46,2.27,5.25,2.27,5.25l.29.84c.17.51.4,1.19.59,1.89a11,11,0,0,1,.36,2A2.48,2.48,0,0,1,48.88,59.69Z"/><path class="cls-16" d="M49,62.33c-.17,0-.2-.82-.2-.82s.24-.76.41-.74.19.82.19.82S49.14,62.36,49,62.33Z"/><path class="cls-16" d="M43.34,80.63c-.06,0,.41-.73.74-1.47a10.46,10.46,0,0,0,.56-1.51,10.75,10.75,0,0,0,.45-1.55,13.27,13.27,0,0,1,.27-1.62,3.83,3.83,0,0,1,.15,1.68,8.78,8.78,0,0,1-.29,1.68,8.86,8.86,0,0,1-.76,1.52A3.74,3.74,0,0,1,43.34,80.63Z"/></g><g class="cls-12"><path class="cls-14" d="M30.48,79.13a5.18,5.18,0,0,1-.37-.66c-.15-.34-.24-.72-.28-.72a1.53,1.53,0,0,0,.08.79,4,4,0,0,0,.31.75,3.48,3.48,0,0,0,.52.61c.29.28.63.48.66.44a7.37,7.37,0,0,0-.51-.58A4.3,4.3,0,0,1,30.48,79.13Z"/><path class="cls-14" d="M38.94,68.94a11.52,11.52,0,0,1-1.69.14,10.91,10.91,0,0,1-1.67-.17c-.23,0-.41-.1-.54-.12l-.21-.05-.2-.06c-.13,0-.32-.07-.53-.15a9.36,9.36,0,0,1-3-1.59,7.56,7.56,0,0,0-.61-.48,3.06,3.06,0,0,0,.53.57,9.33,9.33,0,0,0,1.38,1,10.62,10.62,0,0,0,1.57.73c.22.09.41.13.54.18l.21.06.21,0c.14,0,.33.08.56.11a10,10,0,0,0,1.73.11,9.45,9.45,0,0,0,1.7-.23,2.9,2.9,0,0,0,.74-.25S39.4,68.87,38.94,68.94Z"/><path class="cls-14" d="M45.18,77.76s0,.44-.07.87a6.7,6.7,0,0,1-.56,1.6c-.21.37-.51.69-.48.73a1.87,1.87,0,0,0,.65-.62,3.39,3.39,0,0,0,.44-.79,4.1,4.1,0,0,0,.16-.9A1.78,1.78,0,0,0,45.18,77.76Z"/><path class="cls-14" d="M48.5,67.58c-.36.22-.73.41-.73.41s-.35.22-.73.41a5.87,5.87,0,0,0-.76.38,2.18,2.18,0,0,0,.84-.19,6.89,6.89,0,0,0,.8-.34,5.89,5.89,0,0,0,.7-.5,2.18,2.18,0,0,0,.6-.62A5.63,5.63,0,0,0,48.5,67.58Z"/><path class="cls-14" d="M41.45,59c-.49-.86-.81-1.44-.81-1.44s-.34-.56-.81-1.43a29.17,29.17,0,0,1-1.49-3.29,31.26,31.26,0,0,1-1.08-3.45c-.11-.48-.2-.88-.27-1.16a2.41,2.41,0,0,0-.11-.44,3,3,0,0,0,0,.45c0,.28.12.69.22,1.18a26.21,26.21,0,0,0,1,3.49,27.44,27.44,0,0,0,1.45,3.35c.45.88.79,1.45.79,1.45l.83,1.42a21.8,21.8,0,0,1,1.58,3.24,9.81,9.81,0,0,1,.66,3.52A7.91,7.91,0,0,1,43.34,67a2.73,2.73,0,0,0-.08.44s0,0,0-.11.06-.18.1-.32a.13.13,0,0,1,0-.06l0,.42c-.1.9-.25,2.1-.47,3.29s-.47,2.38-.7,3.25-.4,1.46-.4,1.46-.16.59-.43,1.45-.68,2-1,3.18a13.33,13.33,0,0,0-.59,3.3,1.09,1.09,0,0,0,0,.18l.12-.08v-.1a15.05,15.05,0,0,1,.68-3.24c.36-1.15.79-2.29,1.08-3.15s.45-1.46.45-1.46.17-.58.38-1.47.46-2.08.64-3.28.32-2.41.37-3.32c0-.46.05-.84.06-1.1v-.1l0-.36A9.55,9.55,0,0,0,43,62.26,21,21,0,0,0,41.45,59Z"/></g><g class="cls-5"><path class="cls-14" d="M44.72,63.4a7.53,7.53,0,0,1-1.21,0,6.45,6.45,0,0,0-2.55.34,14.37,14.37,0,0,1-2.59.76,5.44,5.44,0,0,1-1.26.07l-.35,0a4.87,4.87,0,0,1-.9-.25,8.84,8.84,0,0,1-2.33-1.4,11.21,11.21,0,0,1-2-1.79A2.18,2.18,0,0,1,31,60s.25.42.75.93a13.22,13.22,0,0,0,2.07,1.6A9.09,9.09,0,0,0,36,63.73a3.86,3.86,0,0,0,.8.18,2.33,2.33,0,0,0,.31,0,5.16,5.16,0,0,0,1.15,0,15.57,15.57,0,0,0,2.53-.62,6.67,6.67,0,0,1,1.44-.24,7.93,7.93,0,0,1,1.26.08A4.22,4.22,0,0,1,44.72,63.4Z"/></g><path class="cls-7" d="M51.61,21.77A2.33,2.33,0,0,1,54.84,21c2.2,1.45,1.1,9-1.89,8.94S51.08,21.61,51.61,21.77Z"/><path class="cls-9" d="M51.61,21.77A2.33,2.33,0,0,1,54.84,21c2.2,1.45,1.1,9-1.89,8.94S51.08,21.61,51.61,21.77Z"/><path class="cls-8" d="M54.35,27.7c0-.05-.22,0-.48-.07a.46.46,0,0,1-.32-.26.77.77,0,0,1,0-.5.9.9,0,0,1,.28-.43c.11-.11.26-.15.46-.31a.87.87,0,0,0,.28-.77c0-.22-.09-.3-.09-.29a.83.83,0,0,0-.16-.24A1.18,1.18,0,0,0,54,24.6a.91.91,0,0,0-.22-.09h0s0,0,0,0a1.09,1.09,0,0,0,0-.13,1.38,1.38,0,0,1,0-.2,2.38,2.38,0,0,1,.31-.8c.29-.51.73-.71.72-.79s-.53,0-1,.5a2.68,2.68,0,0,0-.52.94,2.33,2.33,0,0,0-.07.25,1.06,1.06,0,0,0,0,.29c0,.24,0,.48,0,.65a2.72,2.72,0,0,1,.43,0,.31.31,0,0,1,.1.05.79.79,0,0,1,.13.13.46.46,0,0,1,.06.1s0,0,0,0-.26.18-.45.39a1.58,1.58,0,0,0-.39.81,1.24,1.24,0,0,0,.17.89.64.64,0,0,0,.57.29C54.18,27.92,54.37,27.75,54.35,27.7Z"/><path class="cls-9" d="M53,30c-3-.1-1.87-8.37-1.34-8.21a2.78,2.78,0,0,1,1.69-1.12,5.36,5.36,0,0,0,.2,3.07s.79-1.25,1.21-.83-.22,2.42.68,2.62c.28.06.46-.16.58-.49C55.8,27.45,54.7,30,53,30Z"/><g class="cls-5"><path class="cls-22" d="M55.73,22.72c.13.42.07.84-.12,1s-.46-.16-.58-.59-.07-.85.12-.95S55.6,22.29,55.73,22.72Z"/><path class="cls-22" d="M55,21.49a.34.34,0,0,1-.15.39.21.21,0,0,1-.32-.11.33.33,0,0,1,.15-.38A.21.21,0,0,1,55,21.49Z"/></g><path class="cls-7" d="M18.22,22C18,15.2,20.79,4.19,35.08,4.08S51.62,19.75,51.62,19.75A43.19,43.19,0,0,1,53,30c-.17,4.43-2.48,11-12.77,12.08S22,38.79,20.11,32.46a5.26,5.26,0,0,1-4.85-4.24C14.54,25.3,16.14,22.34,18.22,22Z"/><g class="cls-23"><path class="cls-9" d="M18.22,22a21.63,21.63,0,0,1,.84-6.83,17.44,17.44,0,0,1,2.32-4.88C19.32,13.74,19,18.94,19.07,22.1c-.17,0-.61-.09-.9-.1Z"/><path class="cls-9" d="M16.35,23.14a6,6,0,0,0-.43,4.07,5.26,5.26,0,0,0,4.85,4.24c1.85,6.33,9.78,10.65,20.07,9.6,5.42-.56,8.63-2.65,10.47-5.15-1.7,2.93-5,5.53-11.13,6.16-10.29,1-18.22-3.27-20.07-9.6a5.26,5.26,0,0,1-4.85-4.24A5.82,5.82,0,0,1,16.35,23.14Z"/></g><g class="cls-23"><path class="cls-7" d="M17.48,29.8a.94.94,0,0,0,.42.84.71.71,0,0,0,.42.15.68.68,0,0,0,.52-.24,1.17,1.17,0,0,0,.31-.64.88.88,0,0,0-.22-.78,3.21,3.21,0,0,0-.44-.29.67.67,0,0,1-.2-.26.87.87,0,0,1-.06-.62.44.44,0,0,1,.31-.33.36.36,0,0,1,.13,0h.14l.07,0,0,0,.11.16c.16.24.29.3.44.31a.44.44,0,0,0,.27-.12.62.62,0,0,0,.15-.29,4,4,0,0,0,.08-.88c0-.21,0-.41,0-.62a3.44,3.44,0,0,0-.32-1.13,2,2,0,0,0-.59-.73c-.44-.32-.81-.22-.8-.17s.31.1.63.45a2.57,2.57,0,0,1,.58,1.68,4.87,4.87,0,0,1,0,.54c0,.17,0,.13,0,.17s-.07,0-.06,0h0l-.09-.08-.2-.1a1,1,0,0,0-.65,0,.93.93,0,0,0-.28.16,1.39,1.39,0,0,0-.5.83A1.75,1.75,0,0,0,17.79,29a1.24,1.24,0,0,0,.44.44,2.13,2.13,0,0,1,.39.18.24.24,0,0,1,.09.22.75.75,0,0,1-.13.34.42.42,0,0,1-.55.13C17.66,30.15,17.53,29.76,17.48,29.8Z"/></g><path class="cls-22" d="M16.83,24.37c-.29.31-.64.39-.76.2s0-.59.31-.89.64-.39.77-.2S17.13,24.07,16.83,24.37Z"/><path class="cls-22" d="M18,22.9a.34.34,0,0,1-.14.38.22.22,0,0,1-.33-.1.36.36,0,0,1,.15-.39A.21.21,0,0,1,18,22.9Z"/><path class="cls-3" d="M29.84,27.76s-.24.11-.49.08a1.44,1.44,0,0,1-.49-.14,1.68,1.68,0,0,1-.37-.36c-.15-.21-.2-.46-.16-.47s.15.18.32.33a2.41,2.41,0,0,0,.36.24,1.64,1.64,0,0,0,.38.19C29.6,27.71,29.83,27.72,29.84,27.76Z"/><path class="cls-3" d="M30.32,28.26s-.21.21-.49.28a2,2,0,0,1-.59.06,2.31,2.31,0,0,1-.55-.2c-.25-.15-.44-.38-.41-.4s.25.12.5.2a1.89,1.89,0,0,0,.5.1,2.12,2.12,0,0,0,.51,0C30.05,28.32,30.3,28.22,30.32,28.26Z"/><path class="cls-3" d="M48.88,25.18s.14.22.09.46a1,1,0,0,1-.2.46,1,1,0,0,1-.44.23c-.24.06-.48,0-.46-.07s.22,0,.39-.14a.8.8,0,0,0,.29-.23,1,1,0,0,0,.22-.3C48.85,25.41,48.84,25.19,48.88,25.18Z"/><path class="cls-3" d="M49.34,26.14s0,.3-.13.54a.92.92,0,0,1-1,.45c-.3,0-.52-.24-.49-.27a4.61,4.61,0,0,0,.51.06,1.51,1.51,0,0,0,.84-.37C49.22,26.38,49.3,26.13,49.34,26.14Z"/><path class="cls-3" d="M45.46,25.59c0,1.36.58,2.47,1.34,2.47s1.39-1.1,1.42-2.46-.57-2.46-1.33-2.47S45.49,24.23,45.46,25.59Z"/><path class="cls-24" d="M45.46,25.59c0,1.36.58,2.47,1.34,2.47s1.39-1.1,1.42-2.46-.57-2.46-1.33-2.47S45.49,24.23,45.46,25.59Z"/><path class="cls-25" d="M46.24,23.42a4.52,4.52,0,0,0-.16,1.07c0,1.36.57,2.47,1.34,2.47a1,1,0,0,0,.64-.29c-.24.82-.72,1.39-1.26,1.39-.76,0-1.36-1.11-1.34-2.47A3.15,3.15,0,0,1,46.24,23.42Z"/><path class="cls-26" d="M48,25.18c0,.46-.14.86-.38.88s-.46-.33-.49-.8.14-.86.38-.89S47.92,24.71,48,25.18Z"/><path class="cls-26" d="M47,23.93a.18.18,0,0,0,.18.19.2.2,0,0,0,.18-.19.18.18,0,1,0-.36,0Z"/><path class="cls-3" d="M29.26,26.76c.15,1.36.89,2.38,1.65,2.29s1.24-1.26,1.09-2.62-.89-2.37-1.65-2.28S29.11,25.41,29.26,26.76Z"/><path class="cls-24" d="M29.26,26.76c.15,1.36.89,2.38,1.65,2.29s1.24-1.26,1.09-2.62-.89-2.37-1.65-2.28S29.11,25.41,29.26,26.76Z"/><path class="cls-25" d="M29.71,24.57a3.8,3.8,0,0,0,0,.89c.15,1.35.88,2.38,1.64,2.29a1,1,0,0,0,.64-.42c-.1.94-.51,1.65-1.1,1.72-.75.09-1.49-.93-1.64-2.29A3.17,3.17,0,0,1,29.71,24.57Z"/><path class="cls-26" d="M31.56,26c.09.46,0,.87-.26.92s-.5-.27-.59-.73,0-.88.26-.93S31.47,25.53,31.56,26Z"/><path class="cls-26" d="M30.47,24.87a.19.19,0,0,0,.2.17.19.19,0,0,0,.15-.21.18.18,0,0,0-.2-.17A.18.18,0,0,0,30.47,24.87Z"/><path class="cls-9" d="M37.44,30.66a5.49,5.49,0,0,0,4.33-1.18s1.21.78-1,1.6C37.94,32.18,37.44,30.66,37.44,30.66Z"/><g class="cls-23"><path class="cls-7" d="M38.67,31.27a6,6,0,0,0,.9,0,5.46,5.46,0,0,0,1.86-.63A1.11,1.11,0,0,0,42,30a.56.56,0,0,0-.25-.56,1.59,1.59,0,0,0-.5-.22,1.08,1.08,0,0,0-.22,0,2.2,2.2,0,0,0-.51,0,3.21,3.21,0,0,0-.61.09,3.44,3.44,0,0,0-.37.14,6.59,6.59,0,0,0-.79.49v-1c0-.19,0-.4,0-.61,0-.41,0-.84.05-1.22A6.28,6.28,0,0,1,39,25.72a5.19,5.19,0,0,1,.16,1.36c0,.38,0,.81.07,1.23l0,.61c0,.06,0,.08,0,.09l.08-.06.43-.18a3.51,3.51,0,0,1,.73-.15,2.78,2.78,0,0,1,.63,0,2.11,2.11,0,0,1,.29.06,2,2,0,0,1,.69.36,1.35,1.35,0,0,1,.35.45,1,1,0,0,1,0,.67,1.52,1.52,0,0,1-.88.88,4.86,4.86,0,0,1-2,.48A1.31,1.31,0,0,1,38.67,31.27Z"/></g><path class="cls-22" d="M40.62,29.59c.05.14-.14.35-.43.47s-.58.1-.64,0,.14-.35.43-.46S40.56,29.45,40.62,29.59Z"/><path class="cls-9" d="M34.14,30.9c0,1.36-1.72,2.48-3.87,2.51S26.36,32.35,26.34,31s1.72-2.49,3.87-2.51S34.12,29.54,34.14,30.9Z"/><path class="cls-9" d="M52.2,29.11c.26,1.33-1.22,2.74-3.31,3.15s-4-.35-4.25-1.69,1.22-2.74,3.31-3.15S51.94,27.77,52.2,29.11Z"/><path class="cls-9" d="M43.58,32.89h-.5a3.21,3.21,0,0,0-2.26.87s-.21-.62-3.81-.24l-.65.07-.3,0a5,5,0,0,1-.76,0,4.51,4.51,0,0,1-.58-.06,5.09,5.09,0,0,0-1.33-.18h0a6.57,6.57,0,0,0,4.79,3.94,5.26,5.26,0,0,0,2.4-.09,2.38,2.38,0,0,0,.53-.27,1.22,1.22,0,0,0,.44-.51.67.67,0,0,0,0-.79c-.3-.22-.18-1.08-.1-1.52a4.88,4.88,0,0,0,1.32-.52,1.92,1.92,0,0,0,.83-.78Z"/><path class="cls-14" d="M41.12,34a12,12,0,0,1-1.7.08h0l-.25.05c-1.92.25-3.58-.41-5.45-.65a.24.24,0,0,1-.09,0,6.47,6.47,0,0,0,4.06,3.35c3.77.79,4-2,3.6-2.46A.72.72,0,0,1,41.12,34Z"/><path class="cls-15" d="M41.12,34l-.79.07a.15.15,0,0,0,.12,0c.38-.16,1.12.13.74,1.29s-3,2-4.8.61-.68-1.87-.68-1.87-.08-.14-.21-.33c-.59-.13-1.18-.25-1.8-.33a.24.24,0,0,1-.09,0,6.47,6.47,0,0,0,4.06,3.35c3.77.79,4-2,3.6-2.46A.72.72,0,0,1,41.12,34Z"/><path class="cls-14" d="M33.26,33.28a13.91,13.91,0,0,0,7.28,1.47c3.2-.44,3.75-2.24,3.75-2.24s-2.32-.08-3,1.31c0,0-.26-1-4.82-.25C34.66,33.87,34.12,33.18,33.26,33.28Z"/><path class="cls-15" d="M33.26,33.28a13.91,13.91,0,0,0,7.28,1.47c3.2-.44,3.75-2.24,3.75-2.24s-2.32-.08-3,1.31c0,0-.26-1-4.82-.25C34.66,33.87,34.12,33.18,33.26,33.28Z"/><path class="cls-15" d="M43.72,32.53c-.2.72-1.67,2.14-4.25,1.78-1.64-.22-2.14-.58-2.27-.86l-.74.12c-1.8.3-2.34-.39-3.2-.29a13.91,13.91,0,0,0,7.28,1.47c3.2-.44,3.75-2.24,3.75-2.24A4.8,4.8,0,0,0,43.72,32.53Z"/><path class="cls-27" d="M38.5,36c0,.19-.34.31-.7.25s-.62-.26-.58-.45.34-.31.69-.26S38.53,35.77,38.5,36Z"/><path class="cls-3" d="M31.16,20.44c0,.08-.38.11-.69.25a2.37,2.37,0,0,0-.58.33,2.63,2.63,0,0,0-.55.35c-.27.22-.46.53-.54.5s0-.42.21-.77a2.44,2.44,0,0,1,.57-.6,2.58,2.58,0,0,1,.79-.23C30.79,20.23,31.18,20.36,31.16,20.44Z"/><path class="cls-3" d="M48,20.36c-.07,0-.32-.25-.63-.43a2.63,2.63,0,0,0-.63-.28,2.43,2.43,0,0,0-.65-.22,1.48,1.48,0,0,0-.47,0c-.13,0-.22.05-.25,0s0-.13.15-.24a1.21,1.21,0,0,1,.57-.2,2.22,2.22,0,0,1,.87.08,2.51,2.51,0,0,1,.69.51C48,19.92,48.09,20.33,48,20.36Z"/><path class="cls-9" d="M51.62,19.75S49.45,4,35.08,4.08,18,15.2,18.22,22c-1.59.27-2.89,2.05-3.1,4.18,1.64-.44,3.46-2.34,4-2.91.24,1.6,1.15,7.11,1.84,11.2A12.07,12.07,0,0,0,23.84,38c.2-4.24.57-12.22.75-15.35a16.73,16.73,0,0,0,3-1.89,35.43,35.43,0,0,0,8.16-8.56s9,4.53,14.35,3.64c0,0,2,5,2,7l.11-.13C51.94,21,51.62,19.75,51.62,19.75Z"/><path class="cls-3" d="M39.84.39C33.33-1.07,30.22,2,30.22,2S22.9-.73,17.43,4.91c0,0-5,1.67-5.71,13.86-.63,11.2,5.79,4.56,6.84,3.41.4,2.65,2.64,16,2.64,16l2,1.5s.62-13.74.87-18.08a17.44,17.44,0,0,0,3-1.9,35.43,35.43,0,0,0,8.16-8.56s9,4.53,14.35,3.64c0,0,2,5,2,7,0,0,1.42-1.81,3.23-.73C54.84,21,56.4,4.1,39.84.39Z"/><path class="cls-4" d="M16.36,12.94s-.11.25-.3.64C16.24,13.18,16.36,12.94,16.36,12.94ZM22,20.65c-1.06-.74.53-3.59.53-3.59s-5.71,6.34-7.62,4.55c-1.54-1.46.4-6.28,1.18-8-.65,1.35-2.2,4.31-3.19,3.9-.59-.25-.56-2.38-.35-4.56a34,34,0,0,0-.8,5.85c-.63,11.2,5.79,4.56,6.84,3.41.19,1.28.82,5.07,1.41,8.63,0-1.94.09-4.24.62-4.66.95-.74,1.06,3.39,1.06,3.39s0-4.55,1.06-4.45c.7.08.84,3.7.86,6.12.17-3.71.37-7.66.48-9.65a17.44,17.44,0,0,0,3-1.9A40.72,40.72,0,0,0,32.2,15C29.91,17,23,21.37,22,20.65Z"/><path class="cls-4" d="M37.56,10.67a4.46,4.46,0,0,1,3.24.07s-5.92-4.16-4.72-5.49A13.46,13.46,0,0,1,40,2.78s-3.32-.07-5,1.06c0,0-2.62-.1-.39-1.5,0,0-2.11-.41-2.32-1.53a6.89,6.89,0,0,0-2,1.23,13.48,13.48,0,0,0-7.89-.15,3.2,3.2,0,0,1,2.47.54c1.06,1.12-2,4.27-2,4.27s3.88-1.88,4.65-1.53-3.95,4.16-3.95,4.16S29,6.8,29.17,7.5s-1.9,2.82-1.9,2.82,6.27-4.09,5.43.92a13.91,13.91,0,0,1-2.18,5.43,31.53,31.53,0,0,0,4.7-5.57,46.42,46.42,0,0,0,6.27,2.53C39.47,12.66,36.63,11.14,37.56,10.67Z"/><g class="cls-5"><path class="cls-3" d="M24.12,21s.09-.09.27-.22l.73-.54c.6-.45,1.41-1,2.21-1.65s1.58-1.23,2.14-1.72.94-.83.94-.83a25.83,25.83,0,0,0,2.76-2.88,23.29,23.29,0,0,0,1.58-2.25l.46-.78a1.19,1.19,0,0,1,.19-.29,1.76,1.76,0,0,1-.13.32c-.1.2-.24.48-.42.81a19.12,19.12,0,0,1-1.51,2.32,24.43,24.43,0,0,1-2.73,3s-.37.34-1,.82-1.38,1.1-2.19,1.68-1.65,1.16-2.28,1.57l-.76.5A1.26,1.26,0,0,1,24.12,21Z"/></g><g class="cls-5"><path class="cls-3" d="M23.92,21.37a2.75,2.75,0,0,1-.9.71,6.13,6.13,0,0,1-1.06.45,6.41,6.41,0,0,1-1.15.14,2.84,2.84,0,0,1-1.13-.16s.57,0,1.12-.05a6.27,6.27,0,0,0,1.08-.23,5.91,5.91,0,0,0,1-.35C23.43,21.66,23.89,21.34,23.92,21.37Z"/></g><g class="cls-5"><path class="cls-3" d="M30.26,8.05s.12-.31.34-.56A4.06,4.06,0,0,1,31.1,7a4.12,4.12,0,0,1,.62-.26,1.28,1.28,0,0,1,.66-.06A3.23,3.23,0,0,1,31.8,7a5.07,5.07,0,0,0-.54.32,4.32,4.32,0,0,0-.51.34C30.5,7.84,30.29,8.08,30.26,8.05Z"/></g><g class="cls-5"><path class="cls-3" d="M21.05,13.11a1.76,1.76,0,0,1,.09-.29,5.45,5.45,0,0,1,.32-.73,9.17,9.17,0,0,1,1.37-2,12.06,12.06,0,0,1,1.78-1.66c.53-.4.91-.63.91-.63s.37-.24.95-.55a24.22,24.22,0,0,1,2.19-1A9.43,9.43,0,0,1,31,5.47a2,2,0,0,1,.8.08c.19.07.28.14.27.15A2.1,2.1,0,0,0,31,5.59a9.48,9.48,0,0,0-2.23.82,23.44,23.44,0,0,0-2.14,1.08c-.57.32-.93.56-.93.56s-.38.23-.9.61A12.65,12.65,0,0,0,23,10.23a10,10,0,0,0-1.42,1.91C21.24,12.71,21.08,13.12,21.05,13.11Z"/></g><g class="cls-5"><path class="cls-3" d="M13.45,26.21s.27-.23.69-.56,1-.77,1.52-1.23c1.08-.93,2.06-1.94,2.06-1.94s1-1,1.94-2.08c.46-.54.91-1.09,1.23-1.51a6.53,6.53,0,0,1,.56-.7A5,5,0,0,1,21,19c-.3.45-.72,1-1.16,1.59-.89,1.12-1.89,2.15-1.89,2.15s-1,1-2.14,1.89c-.57.45-1.14.87-1.59,1.17A4.12,4.12,0,0,1,13.45,26.21Z"/></g><g class="cls-5"><path class="cls-3" d="M15.91,22.07a7.86,7.86,0,0,1-.71,1l-.73,1-.76.95a7.09,7.09,0,0,1-.79.94,5.93,5.93,0,0,1,.62-1.07c.33-.51.69-1,.69-1s.39-.48.8-.93A4.77,4.77,0,0,1,15.91,22.07Z"/></g><g class="cls-5"><path class="cls-3" d="M20.61,8.41a2.57,2.57,0,0,1-.25.3l-.7.74c-.58.61-1.34,1.43-2.05,2.3a17.51,17.51,0,0,0-1.72,2.53,13.11,13.11,0,0,0-.61,1.25s-.23.5-.51,1.29-.58,1.87-.88,2.95l-.85,3-.29,1a1.5,1.5,0,0,1-.13.36,2.47,2.47,0,0,1,.07-.38l.24-1c.2-.82.48-1.9.75-3s.56-2.18.83-3,.49-1.32.49-1.32a11.88,11.88,0,0,1,.65-1.27,16.77,16.77,0,0,1,1.8-2.53c.73-.86,1.52-1.66,2.13-2.25l.73-.7A1.85,1.85,0,0,1,20.61,8.41Z"/></g><g class="cls-5"><path class="cls-3" d="M22.41,7.15a2.41,2.41,0,0,1,.42-.45c.27-.26.63-.59,1-.92s.77-.62,1.07-.84.52-.35.52-.35a9.48,9.48,0,0,1,1.82-.82,4.94,4.94,0,0,1,2-.26,3,3,0,0,1-.61.11A7.42,7.42,0,0,0,27.32,4a9.48,9.48,0,0,0-1.73.88A16.49,16.49,0,0,0,24,6C23.19,6.55,22.44,7.18,22.41,7.15Z"/></g><g class="cls-5"><path class="cls-3" d="M15.52,9.81s-.35.74-.68,1.48-.61,1.49-.61,1.49-.31.75-.56,1.52-.45,1.56-.49,1.55a7.16,7.16,0,0,1,.29-1.61c.2-.79.48-1.57.48-1.57s.31-.76.7-1.48A7.77,7.77,0,0,1,15.52,9.81Z"/></g><g class="cls-5"><path class="cls-3" d="M22.39,42.8c-.08,0,.45-10.44.45-10.44s.67-10.42.75-10.41-.45,10.43-.45,10.43S22.47,42.8,22.39,42.8Z"/></g><g class="cls-5"><path class="cls-3" d="M20.81,39.73a1.76,1.76,0,0,1,0-.37c0-.24,0-.57-.06-1-.05-.81-.12-1.89-.21-3-.17-2.16-.42-4.3-.42-4.3s-.22-2.15-.51-4.29c-.15-1.07-.31-2.14-.43-2.94-.07-.41-.12-.74-.15-1a1.47,1.47,0,0,1,0-.37,1.84,1.84,0,0,1,.1.36c.05.23.12.56.2,1,.16.79.35,1.86.53,2.92.35,2.14.6,4.29.6,4.29s.22,2.16.33,4.32c.06,1.08.1,2.16.12,3,0,.4,0,.74,0,1A2.21,2.21,0,0,1,20.81,39.73Z"/></g><g class="cls-5"><path class="cls-3" d="M21.58,30.19a15.2,15.2,0,0,1,0-1.71l0-1.7v-1.7a12.87,12.87,0,0,1,0-1.71,10.89,10.89,0,0,1,.19,1.7c.05.85.08,1.71.08,1.71s0,.85-.06,1.71A10.37,10.37,0,0,1,21.58,30.19Z"/></g><g class="cls-5"><path class="cls-3" d="M36.27,1.71A5.49,5.49,0,0,1,35.4,2a6.64,6.64,0,0,0-.84.34,8.79,8.79,0,0,0-.82.39,7.65,7.65,0,0,1-.8.46,2.38,2.38,0,0,1,.68-.64,5.79,5.79,0,0,1,.82-.48,6.2,6.2,0,0,1,.9-.28A2.51,2.51,0,0,1,36.27,1.71Z"/></g><g class="cls-5"><path class="cls-3" d="M43.21,3.05a7.58,7.58,0,0,1-.77-.1,11.83,11.83,0,0,0-1.68-.11A11.12,11.12,0,0,0,39.09,3c-.45.07-.75.14-.75.14s-.3.06-.74.18A12.58,12.58,0,0,0,36,3.86a13.26,13.26,0,0,0-1.49.8,5.25,5.25,0,0,1-.66.4,4,4,0,0,1,.59-.5,10.53,10.53,0,0,1,1.47-.89A12.1,12.1,0,0,1,37.52,3c.45-.13.76-.2.76-.2s.3-.07.77-.13a11.14,11.14,0,0,1,1.71-.08,10.74,10.74,0,0,1,1.7.2A3.11,3.11,0,0,1,43.21,3.05Z"/></g><g class="cls-5"><path class="cls-3" d="M53.2,13.08a1.84,1.84,0,0,1-.33.22,8.39,8.39,0,0,1-.95.47,11.14,11.14,0,0,1-3.12.76,18,18,0,0,1-3.22,0c-.87-.08-1.45-.17-1.45-.17s-.58-.09-1.44-.26a24.9,24.9,0,0,1-3.11-.81,11.66,11.66,0,0,1-2.83-1.52c-.35-.25-.64-.47-.84-.63a2.11,2.11,0,0,1-.31-.26,1.85,1.85,0,0,1,.34.21l.88.58a11.85,11.85,0,0,0,2.83,1.41,22.72,22.72,0,0,0,3.1.74c.85.16,1.43.24,1.43.24s.57.1,1.43.19a17.85,17.85,0,0,0,3.17.08,11.34,11.34,0,0,0,3.1-.65C52.69,13.36,53.19,13.05,53.2,13.08Z"/></g><g class="cls-5"><path class="cls-3" d="M54,16.39a2.72,2.72,0,0,1-1.26.32,4.79,4.79,0,0,1-1.31-.15A4.68,4.68,0,0,1,50.21,16a2.78,2.78,0,0,1-.88-1s.46.45,1,.77a4.63,4.63,0,0,0,1.15.48,4.79,4.79,0,0,0,1.22.22A11.8,11.8,0,0,0,54,16.39Z"/></g><g class="cls-5"><path class="cls-3" d="M52.81,20.56a4.46,4.46,0,0,1-.35-.73c-.17-.36-.37-.7-.37-.7s-.16-.36-.36-.71a4.11,4.11,0,0,1-.39-.7s.32.26.57.58a6.67,6.67,0,0,1,.45.69,6.07,6.07,0,0,1,.3.76A2.24,2.24,0,0,1,52.81,20.56Z"/></g><g class="cls-5"><path class="cls-3" d="M45,5.23s-.72-.11-1.44-.1a8.24,8.24,0,0,0-1.42.12,8.79,8.79,0,0,0-1.38.33c-.68.22-1.31.58-1.33.55a3.85,3.85,0,0,1,1.25-.75A7.41,7.41,0,0,1,42.09,5a7.29,7.29,0,0,1,1.47,0A4.29,4.29,0,0,1,45,5.23Z"/></g><g class="cls-5"><path class="cls-3" d="M47.46,12.12a.85.85,0,0,1-.27,0c-.17,0-.41,0-.7,0a17.12,17.12,0,0,1-2.13-.24,19.54,19.54,0,0,1-3-.78l-.25-.1-.66-.26a19,19,0,0,1-1.92-1,13.74,13.74,0,0,1-1.8-1.17,1.56,1.56,0,0,1-.59-.77,2.82,2.82,0,0,0,.66.68A18.53,18.53,0,0,0,38.61,9.6a19.06,19.06,0,0,0,1.93.88l.65.25.25.09a20.73,20.73,0,0,0,3,.85,21,21,0,0,0,2.1.34C47.07,12.07,47.46,12.1,47.46,12.12Z"/></g><g class="cls-5"><path class="cls-3" d="M52.89,10.75s-.62-.35-1.24-.65a13,13,0,0,0-1.29-.52,12.81,12.81,0,0,0-1.31-.44c-.67-.19-1.37-.28-1.36-.33a4.8,4.8,0,0,1,1.41.12,11,11,0,0,1,1.37.36,10.78,10.78,0,0,1,1.28.62A5,5,0,0,1,52.89,10.75Z"/></g><path class="cls-4" d="M52.58,18.45c-.58-1.09,1.67-1.73,1.67-1.73A6,6,0,0,1,52,16c-1.47-.71,1-2.44,1.09-2.64l-3.59,1-.17.36a1.75,1.75,0,0,0,.24,0s2,5,2,7c0,0,1.42-1.81,3.23-.73a19,19,0,0,0,0-2.34C54,19.09,52.93,19.12,52.58,18.45Z"/><g class="cls-6"><path class="cls-3" d="M23.56,19.48c1.51.4,3.25-1.14,4.35-2,1.34-1.07,2.71-2.17,2.82-4A.51.51,0,0,0,30.1,13c-1.61.3-2.6,1.55-3.79,2.56-1,.86-2.87,1.83-3.19,3.17a.64.64,0,0,0,.44.77Z"/></g><g class="cls-6"><path class="cls-3" d="M23.73,16.16a1.79,1.79,0,0,0,1-.42,2.73,2.73,0,0,0,.82-.77c.12-.16-.08-.39-.25-.33a3,3,0,0,0-1,.54,1.76,1.76,0,0,0-.7.78.16.16,0,0,0,.15.2Z"/></g><g class="cls-6"><path class="cls-3" d="M18.26,20c1.19-1.71,2.43-3.39,3.72-5,1.09-1.36,2.38-2.54,3.43-3.92.24-.33-.17-.76-.51-.66-1.91.51-3.19,2.23-4.35,3.73a17.49,17.49,0,0,0-3,5.55c-.14.47.49.68.75.32Z"/></g><g class="cls-6"><path class="cls-3" d="M16.74,16.76c.34-.19.4-.76.56-1.1s.46-.82.62-1.27c.08-.22-.23-.37-.38-.22a3.9,3.9,0,0,0-.74,1.28c-.14.36-.46.89-.25,1.26a.14.14,0,0,0,.19.05Z"/></g><g class="cls-6"><path class="cls-3" d="M19,12.54c1.06-.45,1.93-1.7,2.71-2.52s2-1.7,2.47-2.82c0-.12-.09-.22-.19-.19-1.18.28-2.18,1.47-3,2.31s-2,2-2.12,3.11c0,.05,0,.14.11.11Z"/></g><g class="cls-6"><path class="cls-3" d="M14.57,13.83c1.23-1.58,2.32-3.24,3.68-4.72s3.16-2.35,4.1-4a.64.64,0,0,0-.54-1c-2.13.25-3.67,2.14-4.92,3.73a12.25,12.25,0,0,0-2.63,5.79.18.18,0,0,0,.31.13Z"/></g><g class="cls-6"><path class="cls-3" d="M15.31,8.23l.63-.76c.08-.08,0-.21-.12-.12l-.67.72c-.1.11.07.27.16.16Z"/></g><g class="cls-6"><path class="cls-3" d="M22.32,29.31a17.61,17.61,0,0,0-.39,6.51c0,.23.4.33.44.06a17.92,17.92,0,0,0,.08-6.57.07.07,0,0,0-.13,0Z"/></g><g class="cls-6"><path class="cls-3" d="M39.67,11.24c.8,1.41,2.39,1.8,3.9,2.08a14.07,14.07,0,0,0,6.58,0,.43.43,0,0,0-.11-.84c-3.57-.22-6.95.31-10.28-1.37-.06,0-.13,0-.09.09Z"/></g><g class="cls-6"><path class="cls-3" d="M37.27,5.29a14.25,14.25,0,0,0,2.4-.76c.14-.07,0-.29-.1-.25a12.4,12.4,0,0,0-2.34.93s0,.09,0,.08Z"/></g><g class="cls-6"><path class="cls-3" d="M41.08,4a21.61,21.61,0,0,0,2.67.31,6.1,6.1,0,0,0,2.4.12.18.18,0,0,0,0-.33,4.48,4.48,0,0,0-2.59-.5A6.78,6.78,0,0,0,41.07,4s0,0,0,0Z"/></g><g class="cls-6"><path class="cls-3" d="M40,8.33c1.06,1.14,3,1.59,4.42,2a10.85,10.85,0,0,0,4.91.62.57.57,0,0,0,.14-1A18.49,18.49,0,0,0,44.9,8.64c-1.47-.34-3.12-1.08-4.64-.92a.36.36,0,0,0-.25.61Z"/></g><g class="cls-6"><path class="cls-3" d="M45.61,7.13c.29.33.79.33,1.2.4a3.83,3.83,0,0,0,1.35,0,.16.16,0,0,0,0-.29,3.68,3.68,0,0,0-1.3-.34A2,2,0,0,0,45.63,7a.1.1,0,0,0,0,.15Z"/></g><g class="cls-6"><path class="cls-3" d="M36.56,2.32a3.32,3.32,0,0,0,1.37-.27c.55-.13,1.06-.35,1.6-.52.09,0,.11-.2,0-.22a4.23,4.23,0,0,0-1.7,0A2.41,2.41,0,0,0,36.41,2a.25.25,0,0,0,.15.36Z"/></g><path class="cls-19" d="M46,83.53c-9.61-9.94-18-1-18-1A18.63,18.63,0,0,0,22,95.07c0,1,0,2.18,0,3.43l6.78,6.61a1.74,1.74,0,0,0,.27.22,1.72,1.72,0,0,0,2.15-.25L48.55,87.21A15.31,15.31,0,0,0,46,83.53Z"/><rect class="cls-28" x="20.98" y="65.12" width="24.5" height="35.64" rx="1.71" ry="1.71" transform="translate(67.33 0.35) rotate(44.27)"/><path class="cls-29" d="M13.18,86.68,35.67,63.61a1.72,1.72,0,0,1,2.42,0L53.19,78.3a1.73,1.73,0,0,1,.48.9,1.72,1.72,0,0,0-.45-1.66L38.12,62.82a1.73,1.73,0,0,0-2.42,0L13.21,85.92a1.74,1.74,0,0,0-.45,1.52A1.69,1.69,0,0,1,13.18,86.68Z"/><path class="cls-30" d="M53.42,77.78A1.7,1.7,0,0,1,53,79.37L30.49,102.44a1.73,1.73,0,0,1-2.42,0L13,87.75a1.16,1.16,0,0,1-.2-.24,1.64,1.64,0,0,0,.46.83l15.1,14.72a1.72,1.72,0,0,0,2.42,0L53.25,80A1.73,1.73,0,0,0,53.42,77.78Z"/><path class="cls-31" d="M53.7,78.43A50.54,50.54,0,0,1,35.49,86.2a43.41,43.41,0,0,1-21.86-.7l-.42.42a1.73,1.73,0,0,0,0,2.42l15.1,14.72a1.72,1.72,0,0,0,2.42,0L53.25,80A1.72,1.72,0,0,0,53.7,78.43Z"/><g class="cls-32"><path class="cls-33" d="M33.81,91.85A5.3,5.3,0,0,0,35,90.22,2.31,2.31,0,0,0,35.22,89s.08.19.2.41a1.92,1.92,0,0,0,.32.43.5.5,0,0,0,.64.16h0a.64.64,0,0,0,.22-.24.36.36,0,0,0,0-.11,1.12,1.12,0,0,0,.07-.29.76.76,0,0,0,0-.15,2,2,0,0,0,0-.42.76.76,0,0,0,0-.15c0-.22-.09-.45-.16-.71h0a11.73,11.73,0,0,0-1-2.28,2.14,2.14,0,0,0-.75-.8h0a3.21,3.21,0,0,0-.45-.24l-.07,0-.1,0a.38.38,0,0,0-.11-.11.91.91,0,0,0-.33-.14,1,1,0,0,0,.14-.4,1.44,1.44,0,0,0,0-.46v0a2.17,2.17,0,0,0-.19-.41v0a2.63,2.63,0,0,0-.29-.37h0a2.28,2.28,0,0,0-.34-.29h0c-.4-.25-.81-.25-.92.26a5.34,5.34,0,0,1-.88,1.71,13.78,13.78,0,0,0-1.66.23,4.23,4.23,0,0,0,.05-.63,65.69,65.69,0,0,1-8.67-5.76l-5.57,5.71a60.72,60.72,0,0,0,7.26,4.8h0l0,0,.51.28.12.07.53.29,0,0,.5.26h0l.76.39,0,0,.24.12h0l.22.11a8.44,8.44,0,0,0,1.25-.92c1.27,1.64,3.94.73,4.26.91s-.44,1.38-.57,2S32.15,93.48,33.81,91.85Z"/></g><path class="cls-7" d="M35.43,84.77a2.74,2.74,0,0,0-1.88-1.25,1,1,0,0,0,.19-.49c.09-1.15-1.57-2.47-1.82-1.35A4.88,4.88,0,0,1,31,83.39a13.7,13.7,0,0,0-2,.31s-3.68,1-2.78,3.85S30.6,89.13,31,89.33s-.44,1.39-.57,2S32,92.66,33.69,91s1.41-2.89,1.41-2.89.53,1.35,1.16,1S36.71,87.13,35.43,84.77Z"/><path class="cls-34" d="M33.29,88.69a3.73,3.73,0,0,1-.17,1,5.87,5.87,0,0,1-.37,1,4.08,4.08,0,0,1-.65.86,1.15,1.15,0,0,1-.66.36.54.54,0,0,1-.34,0s.14,0,.32,0a1.12,1.12,0,0,0,.55-.38,4.43,4.43,0,0,0,.55-.86,6.23,6.23,0,0,0,.43-.94C33.13,89.19,33.25,88.68,33.29,88.69Zm1.8-1a4.27,4.27,0,0,0-.48-1.89,2,2,0,0,0-.41-.54c-.15-.13-.26-.17-.27-.16s.08.09.2.23a1.89,1.89,0,0,1,.31.55,5.5,5.5,0,0,1,.27.9,6.48,6.48,0,0,1,.2.93c.07.47.07,1,.11,1A2.61,2.61,0,0,0,35.09,87.7Zm-.92.28a8.53,8.53,0,0,1,0,1A4.82,4.82,0,0,1,34,90a6.31,6.31,0,0,1-.37,1,2,2,0,0,0,.54-.9,4.49,4.49,0,0,0,.22-1,7,7,0,0,0,0-1.05,4.3,4.3,0,0,0-.22-1A6.9,6.9,0,0,0,34.17,88Zm-.24-4.42a1.23,1.23,0,0,0-.48-.18c-.18,0-.36,0-.49,0h-.22a9.47,9.47,0,0,0-1.4.13,9.47,9.47,0,0,0,1.4.13H33l.48,0a1.37,1.37,0,0,1,.44.09c.12,0,.18.1.2.09S34.05,83.64,33.93,83.56Z"/><path class="cls-9" d="M36.29,87.9c-.37.52-1.84-2.11-1.89-2.25s.88,2.59.52,2.85-.78-1.56-.78-1.56,0,2.83-.48,2.82-.27-2.67-.27-2.67c-.07.54-.77,3.89-1.53,3.64s.11-2.41.11-2.41-1,.46-2.85-.84c-1.46-1-.2-3,.45-3.89L29,83.7a5.91,5.91,0,0,0-1.57.76,11.38,11.38,0,0,0-1.33,1.92,2.57,2.57,0,0,0,.12,1.17c.9,2.8,4.34,1.58,4.71,1.78s-.44,1.39-.57,2S32,92.66,33.69,91s1.41-2.89,1.41-2.89.53,1.35,1.16,1c.4-.23.47-1,.15-2.08A1.6,1.6,0,0,1,36.29,87.9Z"/><path class="cls-9" d="M32.84,81.43a2.64,2.64,0,0,1,.07.3c.27,1.6-1.17,1.72-1.59,1.72a13.41,13.41,0,0,1,1.64.13c.35,0,1.06.23,1.71.4a3.39,3.39,0,0,0-1.12-.46,1,1,0,0,0,.19-.49A1.92,1.92,0,0,0,32.84,81.43Z"/><path class="cls-34" d="M31.32,83.45h0Z"/><path class="cls-10" d="M23.34,48.2S10.21,63.69,8.45,72s17,17.34,17,17.34,3.9-2.17,4-6.35c0,0-13.35-7.31-12-10.82s9.27-14.6,9.27-14.6S30.61,51.25,23.34,48.2Z"/><g class="cls-35"><path class="cls-36" d="M26.83,51.64a6.07,6.07,0,0,1,.29,1.75,10.29,10.29,0,0,1-.06,1.79,11,11,0,0,1-.44,1.73,5.83,5.83,0,0,1-.78,1.6s.34-.82.58-1.66a12.47,12.47,0,0,0,.34-1.72,11.56,11.56,0,0,0,.15-1.74C26.92,52.52,26.79,51.64,26.83,51.64Z"/><g class="cls-23"><path class="cls-13" d="M28.08,54.73s.05.22,0,.8a4,4,0,0,1-1,2.1,2.76,2.76,0,0,1-.88.75s.39-.41.71-.88a6.33,6.33,0,0,0,.54-1,6.06,6.06,0,0,0,.39-1C28,54.94,28,54.74,28.08,54.73Z"/></g><path class="cls-36" d="M12.61,72.55a2.47,2.47,0,0,1,1.13-.68,4.27,4.27,0,0,1,1.33-.18,4.14,4.14,0,0,1,1.29.36,2.49,2.49,0,0,1,1,.82,7.79,7.79,0,0,0-1.12-.63,4.89,4.89,0,0,0-.84-.21l-.39,0h-.39a4.06,4.06,0,0,0-.86.1A6.29,6.29,0,0,0,12.61,72.55Z"/><path class="cls-36" d="M14.38,74.09A2.47,2.47,0,0,1,15,73.4a2.65,2.65,0,0,1,.52-.37,1.52,1.52,0,0,1,.27-.13,1.38,1.38,0,0,1,.29-.06,1.71,1.71,0,0,1,.66,0,1.23,1.23,0,0,1,.55.34c.11.14.15.25.13.26s-.09-.08-.21-.17a1.17,1.17,0,0,0-.52-.22,1.48,1.48,0,0,0-.56,0,1.25,1.25,0,0,0-.24.07l-.25.09a3.14,3.14,0,0,0-.5.3A6.76,6.76,0,0,1,14.38,74.09Z"/></g><path class="cls-11" d="M22.45,87.75c1.79,1,3,1.59,3,1.59s3.9-2.17,4-6.35c0,0-13.35-7.31-12-10.82s9.27-14.6,9.27-14.6,2.67-5.68-1.08-9.34c.33,1.72.52,6-.61,8.33-1.91,4-9.08,14.69-11.12,13.4-1.34-.86-.92-5.37-.48-8.33-2.35,3.69-4.35,7.47-5,10.37-.54,2.51.8,5.09,2.93,7.46.11-2.13.64-4.33,2.31-4.59,3.32-.51,11.64,7.19,13,8.93C27.59,85,25,86.85,22.45,87.75Z"/><path class="cls-37" d="M25.32,49.84a1.92,1.92,0,0,0-.16-.51,1.76,1.76,0,0,0-.41-.34c-.23-.14-.49-.19-.53-.12s.13.25.24.43a2.74,2.74,0,0,1,.2.36l.26.32c.12.18.21.39.3.39S25.36,50.11,25.32,49.84Z"/></g></g></g></svg>