<svg xmlns="http://www.w3.org/2000/svg" viewBox="0 0 118.35 189.64"><defs><style>.cls-1{isolation:isolate;}.cls-2{fill:#d4ecd4;}.cls-13,.cls-14,.cls-16,.cls-17,.cls-19,.cls-2,.cls-22,.cls-26,.cls-27,.cls-28,.cls-29,.cls-34,.cls-4,.cls-5,.cls-6,.cls-9{mix-blend-mode:multiply;}.cls-3,.cls-4,.cls-5{fill:#c83634;}.cls-27,.cls-4{opacity:0.25;}.cls-10,.cls-13,.cls-19,.cls-20,.cls-22,.cls-23,.cls-28,.cls-5{opacity:0.5;}.cls-10,.cls-11,.cls-20,.cls-23,.cls-30,.cls-31,.cls-33,.cls-7{mix-blend-mode:screen;}.cls-8,.cls-9{fill:#6f3a1e;}.cls-9{opacity:0.3;}.cls-11,.cls-14,.cls-33{opacity:0.45;}.cls-12,.cls-13,.cls-14,.cls-29,.cls-30{fill:#e5b678;}.cls-15{fill:#fff;}.cls-16{opacity:0.34;}.cls-17,.cls-18,.cls-19{fill:#d3dbfd;}.cls-20,.cls-24,.cls-27{fill:#294168;}.cls-21,.cls-22,.cls-23,.cls-31{fill:#f15e6b;}.cls-25,.cls-26{fill:#88ac76;}.cls-26{opacity:0.35;}.cls-32,.cls-33,.cls-34{fill:#ffce4c;}</style></defs><title>full_supermanРесурс 2</title><g class="cls-1"><g id="Слой_2" data-name="Слой 2"><g id="OBJECTS"><ellipse class="cls-2" cx="56.43" cy="178.97" rx="56.43" ry="10.67"/><path class="cls-3" d="M38.56,44.4S52.78,56.45,65,84.69s43.65,65.38,53.33,70.71a28.51,28.51,0,0,1-14.57,3.18c-6.2-.38-15.65-3-17.43,3.54s3.56,9.48-4.54,13-15-8.89-22.71-7.71-5.73,6.72-10.67,9.29-9.48-11.06-19-8.5-4.89,3.8-13.51,6,.48-1.26.48-1.26S9.92,63.17,19,51.71,38.56,44.4,38.56,44.4Z"/><path class="cls-4" d="M87.18,133.53c0,1.34,12.73,18.18,22.61,24.71a28.15,28.15,0,0,0,8.56-2.84c-9.68-5.33-41.08-42.46-53.33-70.71A140.58,140.58,0,0,0,46.55,53.14c-1.32,7.38-.47,21.59,9.36,41.59,0,0-3-7.81,1.26-9.82s9.27,15.61,11.68,20.26,6.18,13,9.84,15.13-2.14-10.47-2.14-11.47,17.37,24.42,20.9,29S87.24,131.8,87.18,133.53Z"/><path class="cls-5" d="M81.81,175.16c8.1-3.56,2.77-6.52,4.54-13,1.07-3.91,4.91-4.53,9.14-4.33A149.72,149.72,0,0,1,80.9,140.47C52.46,101.53,46.84,66,46,63.68S39.78,46.29,28.91,49,19,80.34,18,89.59c-.59,6-1.78,39.36-2.64,62.35.53,12.56,1,21.09,1,21.09s-1,.37-2,.8a1.26,1.26,0,0,1-.05.33l.86.3.68-.17c8.62-2.25,4-3.48,13.51-6s14,11.06,19,8.5,3-8.1,10.67-9.29S73.71,178.71,81.81,175.16Z"/><path class="cls-5" d="M80.9,140.47C52.46,101.53,46.84,66,46,63.68S39.78,46.29,28.91,49,19,80.34,18,89.59c-.59,6-1.78,39.36-2.64,62.35.53,12.56,1,21.09,1,21.09s-1,.37-2,.8a1.26,1.26,0,0,1-.05.33l.86.3.68-.17a17.3,17.3,0,0,0,5.24-2,68.12,68.12,0,0,0,6-17.12c1.84-10.29,0-39.67,2.57-40.59s3.12,15.06,3.49,17.81,2.57,17.08,4,25c.77,4.13,2.14,10.21,3.72,15.47,2.77,2.64,5.05,5.14,7.42,3.91,2.12-1.11,3-2.76,3.85-4.38-.54-6.54-4.06-34.55-6.54-45.3C43,115.12,40.05,91.61,42.07,89s7.53,22.22,8.26,25.35,5.14,25,9.73,37.28c2.68,7.16,8.21,15.87,12.36,21.9,3,1.84,6.11,3,9.39,1.59,7.71-3.39,3.26-6.23,4.34-12.12-3.69-5.81-8.2-12.87-11.58-18-6.79-10.29-22.22-42.61-20-43,1.89-.32,15.8,32.65,34.89,49.17C86.68,148.06,83.83,144.49,80.9,140.47Z"/><g class="cls-6"><path class="cls-3" d="M63.19,111.38a216.91,216.91,0,0,0,11.42,19.44c2,2.86,3.79,5.6,5.67,8.05.92,1.23,1.78,2.45,2.67,3.57l2.57,3.21c1.6,2.07,3.19,3.83,4.54,5.41.69.79,1.31,1.53,1.9,2.19L93.62,155l3.1,3.33-3.14-3.29-1.69-1.76c-.6-.66-1.23-1.4-1.92-2.17-1.37-1.57-3-3.32-4.61-5.38l-2.6-3.19c-.9-1.11-1.77-2.32-2.7-3.55-1.9-2.44-3.75-5.17-5.73-8a204.1,204.1,0,0,1-11.49-19.45,203.6,203.6,0,0,1-9.08-20.63c-1.16-3.26-2.3-6.35-3.17-9.31-.45-1.47-.93-2.88-1.31-4.26s-.74-2.7-1.08-4c-.73-2.52-1.2-4.84-1.68-6.86-.23-1-.46-2-.64-2.83s-.32-1.68-.45-2.4c-.55-2.88-.85-4.47-.85-4.47s.32,1.59.91,4.46c.14.72.3,1.51.48,2.39s.43,1.81.67,2.82c.51,2,1,4.33,1.75,6.84.36,1.26.73,2.58,1.11,4s.88,2.78,1.35,4.25c.89,2.95,2,6,3.22,9.28A217.61,217.61,0,0,0,63.19,111.38Z"/><path class="cls-3" d="M75.77,147.07c2.53,4.59,4.6,8.86,6,12S84,164.15,84,164.15l-2.39-5c-1.5-3.08-3.65-7.3-6.18-11.88s-5-8.63-6.75-11.54l-3-4.68s1.24,1.71,3.13,4.57S73.24,142.49,75.77,147.07Z"/><path class="cls-3" d="M61.12,127.46c3,6.32,5.29,11.52,5.29,11.52s-2.62-5-5.65-11.34-5.29-11.5-5.29-11.5S58.1,121.16,61.12,127.46Z"/><path class="cls-3" d="M57.57,143.85c1.29,3.73,2.68,7.21,4,10.33s2.73,5.88,4,8.15,2.23,4.1,3,5.33l1.15,1.93-1.2-1.89c-.78-1.22-1.84-3-3.1-5.27s-2.65-5-4.08-8.11-2.82-6.6-4.11-10.34-2.28-7.34-3.08-10.66-1.37-6.34-1.75-8.89-.66-4.62-.79-6.06-.22-2.22-.22-2.22l.28,2.22c.17,1.43.48,3.49.92,6s1.07,5.54,1.88,8.84S56.31,140.14,57.57,143.85Z"/><path class="cls-3" d="M48.78,139.69c1.37,8.22,2.19,15.71,2.65,21.14.22,2.72.38,4.92.46,6.44l.14,2.36s-.07-.84-.2-2.36-.32-3.71-.6-6.42c-.55-5.42-1.48-12.89-2.84-21.1s-2.91-15.54-4.14-20.84c-.62-2.65-1.14-4.79-1.51-6.26s-.58-2.29-.58-2.29l.64,2.27c.41,1.47,1,3.59,1.64,6.23C45.77,124.14,47.41,131.49,48.78,139.69Z"/><path class="cls-3" d="M52.44,99.36c2.27,8.31,4.11,15,4.11,15s-2.23-6.6-4.49-14.92-3.68-15.11-3.68-15.11Z"/><path class="cls-3" d="M34.78,143.5c.66,4.35,1.47,8.46,2.31,12.18s1.75,7,2.59,9.78c.4,1.38.82,2.62,1.17,3.71s.66,2,.94,2.78c.53,1.52.83,2.36.83,2.36L41.73,172c-.29-.75-.64-1.68-1-2.76s-.82-2.31-1.24-3.69c-.89-2.75-1.82-6.05-2.73-9.76s-1.72-7.84-2.37-12.2-1-8.53-1.27-12.33-.28-7.24-.22-10.12c0-1.44.07-2.74.11-3.88s.09-2.13.15-2.93l.17-2.5s0,.89-.11,2.5c0,.8-.08,1.79-.09,2.93s-.06,2.44,0,3.88c0,2.88.11,6.3.35,10.1S34.15,139.16,34.78,143.5Z"/><path class="cls-3" d="M28.82,143.17a98.2,98.2,0,0,1-1.12,10,71.16,71.16,0,0,1-1.83,8c-.29,1.13-.66,2.13-.95,3s-.57,1.63-.82,2.24c-.48,1.21-.74,1.89-.74,1.89s.24-.68.69-1.91c.23-.62.49-1.37.75-2.26s.61-1.89.88-3a79,79,0,0,0,1.69-8c.46-3,.84-6.43,1.05-10,.4-7.1.2-13.56,0-18.22s-.37-7.56-.37-7.56.27,2.88.57,7.55A156.3,156.3,0,0,1,28.82,143.17Z"/><path class="cls-3" d="M39.9,155.76c.76,3,1.53,5.69,2.12,7.63s1,3.13,1,3.13-.48-1.16-1.17-3.07-1.56-4.58-2.32-7.6-1.26-5.76-1.55-7.77-.43-3.25-.43-3.25.24,1.23.62,3.22S39.15,152.76,39.9,155.76Z"/><path class="cls-3" d="M18,89.59c-.4,6.76-.54,12.87-.57,17.3s0,7.16,0,7.16-.15-2.73-.22-7.16,0-10.56.37-17.32,1.08-12.83,1.66-17.21c.28-2.19.44-4,.47-5.21s0-1.92,0-1.92.06.68.06,1.92-.11,3-.34,5.23C19,76.78,18.43,82.86,18,89.59Z"/></g><g class="cls-6"><path class="cls-3" d="M69.21,105a102.32,102.32,0,0,0,5.12,9.81,26.84,26.84,0,0,0,2.9,3.83,11.2,11.2,0,0,0,1.58,1.46,2.05,2.05,0,0,0,.91.35.89.89,0,0,0,.43-.08l.12-.08-.07-.14c-2.2-4.66-3.57-7.53-3.57-7.53l3.75,7.44a1.58,1.58,0,0,1,.14.29,1.88,1.88,0,0,1-.28.2,1,1,0,0,1-.54.11,2.16,2.16,0,0,1-1-.36A10.94,10.94,0,0,1,77,118.82a25.9,25.9,0,0,1-3-3.83,92.23,92.23,0,0,1-5.2-9.82,148.57,148.57,0,0,1-7.29-18.73C60.79,84,60.24,82,59.87,80.58l-.56-2.16.62,2.14c.41,1.38,1,3.38,1.82,5.81A171.57,171.57,0,0,0,69.21,105Z"/><path class="cls-3" d="M95.09,144.37a84,84,0,0,1-7.9-10.11l-.35-.52-.22-.34-.1-.16c0-.05-.09-.11,0-.07.25.07.49.15.7.23a5.11,5.11,0,0,1,.47.2,6,6,0,0,1,1.39.94,6.07,6.07,0,0,1,.71.78l.21.3-.22-.29a6.57,6.57,0,0,0-.75-.74,6,6,0,0,0-1.39-.88l-.47-.18-.31-.09s.11.17.15.24l.34.47A104.85,104.85,0,0,0,104.53,153c1.24,1.07,2.27,1.91,3,2.48l1.11.88-1.15-.83c-.73-.54-1.8-1.34-3.07-2.37A85.05,85.05,0,0,1,95.09,144.37Z"/></g><g class="cls-7"><path class="cls-3" d="M64.6,110.46c2.11,4,4.23,7.59,5.84,10.1s2.66,4,2.66,4-1.14-1.46-2.83-3.93A97.54,97.54,0,0,1,59.46,100c-1.06-2.8-1.61-4.56-1.61-4.56s.65,1.73,1.8,4.48S62.49,106.43,64.6,110.46Z"/><path class="cls-3" d="M75.8,120.17a36.75,36.75,0,0,0,3.74,4.2,2.1,2.1,0,0,0,2.15.48,1.17,1.17,0,0,0,.67-.71,2,2,0,0,0,0-1,12.44,12.44,0,0,0-.95-3c-.31-.66-.52-1-.52-1a8.35,8.35,0,0,1,.58,1,12.13,12.13,0,0,1,1.09,2.93,2.19,2.19,0,0,1,0,1.08,1.42,1.42,0,0,1-.79.89,2.11,2.11,0,0,1-1.27.13,3,3,0,0,1-1.19-.6,32.39,32.39,0,0,1-3.86-4.21,42.83,42.83,0,0,1-5.31-8.82c-.55-1.2-.92-2.2-1.18-2.89l-.37-1.08.43,1.05c.29.68.71,1.66,1.3,2.83A50,50,0,0,0,75.8,120.17Z"/><path class="cls-3" d="M87.88,138c-.64-1.11-1.21-2.2-1.68-3.21-.24-.5-.47-1-.65-1.44a2.25,2.25,0,0,1-.15-1.41,1.1,1.1,0,0,1,1.62-.81,3,3,0,0,1,.63.37,3.55,3.55,0,0,0-.66-.32,1.15,1.15,0,0,0-.8,0,1.11,1.11,0,0,0-.6.81c-.17.8.43,1.68.91,2.67s1.09,2.05,1.73,3.15c1.27,2.21,2.55,4.13,3.52,5.49s1.61,2.18,1.61,2.18-.72-.75-1.77-2.06A44.88,44.88,0,0,1,87.88,138Z"/><path class="cls-3" d="M88.5,146.28c3.08,3.92,5.78,6.94,5.78,6.94s-.74-.69-1.88-1.87-2.66-2.86-4.21-4.83-2.82-3.84-3.7-5.22S83.12,139,83.12,139,85.42,142.37,88.5,146.28Z"/></g><path class="cls-3" d="M71.62,136.66c2.67,4.43,5.21,8.36,7.09,11.18l3.07,4.53s-1.28-1.66-3.24-4.42-4.58-6.64-7.26-11.08-4.88-8.55-6.4-11.57-2.4-4.93-2.4-4.93l2.57,4.84C66.67,128.18,69,132.25,71.62,136.66Z"/><path class="cls-3" d="M84.8,156.13a21.41,21.41,0,0,1,1.42,2.54,21.68,21.68,0,0,1-3.17-4.87A20.44,20.44,0,0,1,84.8,156.13Z"/><path class="cls-3" d="M53.45,137.2c1.57,6,3.31,11.3,4.7,15.11.69,1.9,1.27,3.43,1.69,4.48l.65,1.64-.71-1.61c-.45-1-1.08-2.56-1.82-4.44a136.28,136.28,0,0,1-8-30.59c-.28-2-.48-3.63-.59-4.75l-.17-1.75s.08.62.24,1.74.39,2.74.72,4.73C50.81,125.75,51.89,131.24,53.45,137.2Z"/><path class="cls-3" d="M62.87,161a22.77,22.77,0,0,1,1.06,2.75,22,22,0,0,1-2.48-5.32A22.29,22.29,0,0,1,62.87,161Z"/><path class="cls-3" d="M31,140.78a65.89,65.89,0,0,1-.3,8.81s.06-3.94-.1-8.79-.45-8.77-.45-8.77A66.67,66.67,0,0,1,31,140.78Z"/><path class="cls-3" d="M28.74,161.09a33,33,0,0,1-2.42,6.48c-.8,1.58-1.4,2.5-1.4,2.5s.51-1,1.22-2.58a43,43,0,0,0,2.21-6.5l2-9.53s-.16,1.08-.4,2.83S29.3,158.44,28.74,161.09Z"/><path class="cls-8" d="M56.93,21.25s-1,24.54-6,31.44-22.78,9-31.15.59-6.62-33.65-6.18-34.53S45.18,7.73,56.93,21.25Z"/><path class="cls-9" d="M47.57,37.2c.22-2.4.53-8.73,1.09-10.36a18.31,18.31,0,0,1,2-3.94s3.86-.59,6.22-1c-.07,1.41-.29,5.12-.76,9.56-.13-.23-.28-.38-.46-.36-.85.08-2.7,6.17-2.7,6.17s.69-5.47-.31-5.47S51.05,34,51.05,34s-.46-1.62-1.62-.77C48.64,33.8,47.89,36,47.57,37.2Z"/><path class="cls-9" d="M47.57,37.2a3.67,3.67,0,0,1-.14.94C47.36,38.18,47.42,37.79,47.57,37.2Z"/><path class="cls-9" d="M15.18,37c.08.39.12.64.12.64S15.24,37.34,15.18,37Z"/><path class="cls-9" d="M13.58,18.75a.93.93,0,0,1,.32-.21c.76.77,1.64,1.1,2.06.33a1.25,1.25,0,0,0,0-1.13,62.45,62.45,0,0,1,6.07-1.66L45.28,36.54s-.12,7.39.9,8.6,4-5.17,4-5.17S47,49,48.05,50s3.36-2.16,3.36-2.16-1.38,3.37-.6,3.49c.4.06,1.58-2.3,2.67-4.65a19.92,19.92,0,0,1-2.57,6,11,11,0,0,1-3,2.71,15.24,15.24,0,0,1-1.88.13c-2.37,0-17.27-.76-24.57-.76a15.28,15.28,0,0,1-1.73-1.49,17.89,17.89,0,0,1-4-6.86c3.8,4.74,5.2,3.56,5.55,2.08s-2.22-5.65-2.22-5.65,3,3,3.55,1.8-6.37-9.79-7.22-10c-.59-.13-.43,1.38-.29,2.29-.26-1.41-.92-4.61-1.39-4.52-.15,0-.26.84-.32,2C12.75,26.48,13.35,19.22,13.58,18.75Z"/><g class="cls-10"><path class="cls-8" d="M50.64,45.16a2.87,2.87,0,0,0,.17-.38c.1-.24.26-.59.41-1,.33-.84.73-2,1.1-3.13.73-2.3,1.26-4.66,1.26-4.66s.51-2.36.81-4.75c.14-1.2.26-2.4.31-3.3,0-.45,0-.83.06-1.09a1.72,1.72,0,0,0,0-.42,2.06,2.06,0,0,0,0,.41c0,.26-.07.64-.11,1.09-.09.89-.24,2.09-.41,3.28-.36,2.38-.89,4.72-.89,4.72s-.5,2.35-1.18,4.66c-.34,1.15-.7,2.3-1,3.15-.14.42-.27.78-.35,1A1.71,1.71,0,0,0,50.64,45.16Z"/></g><g class="cls-10"><path class="cls-8" d="M46.49,47.89a2,2,0,0,0,.16-.22c.09-.14.23-.34.38-.59.32-.5.7-1.17,1.07-1.86a29.86,29.86,0,0,0,1.31-2.84,25.82,25.82,0,0,0,.91-3,19.72,19.72,0,0,0,.37-2.11c0-.29.05-.54.07-.71a1,1,0,0,0,0-.27,9.7,9.7,0,0,0-.18,1c-.11.57-.27,1.33-.47,2.08a29,29,0,0,1-1,2.94s-.54,1.45-1.22,2.85c-.34.7-.7,1.39-1,1.9A7.69,7.69,0,0,0,46.49,47.89Z"/></g><g class="cls-10"><path class="cls-8" d="M41,45.5A9.38,9.38,0,0,0,41,44.32c0-.59.1-1.18.1-1.18s0-.58.09-1.17a8.75,8.75,0,0,0,.11-1.17A4.4,4.4,0,0,0,41,41.94c-.12.59-.18,1.18-.18,1.18s0,.6,0,1.19A4.86,4.86,0,0,0,41,45.5Z"/></g><g class="cls-10"><path class="cls-8" d="M19.22,46.05a1.2,1.2,0,0,0-.15-.31c-.1-.2-.27-.46-.44-.8-.37-.66-.82-1.55-1.24-2.46s-.79-1.85-1-2.56-.4-1.19-.4-1.19-.16-.47-.38-1.19-.47-1.69-.68-2.67-.37-2-.47-2.73c-.06-.37-.08-.68-.11-.9s-.05-.34-.07-.34a3,3,0,0,0,0,.34c0,.22,0,.54.06.92.07.75.2,1.75.38,2.75s.42,2,.62,2.7.36,1.22.36,1.22.16.48.43,1.19.67,1.64,1.1,2.55.94,1.79,1.34,2.43c.19.33.37.59.49.77A2.35,2.35,0,0,0,19.22,46.05Z"/></g><g class="cls-10"><path class="cls-8" d="M21.28,45.39s-.57-.5-1-1.09A7.47,7.47,0,0,1,19.46,43a7.64,7.64,0,0,1-.57-1.37c-.21-.72-.25-1.47-.3-1.47a4.19,4.19,0,0,0,.1,1.52,6.91,6.91,0,0,0,.51,1.46,6.34,6.34,0,0,0,.89,1.25A4,4,0,0,0,21.28,45.39Z"/></g><g class="cls-10"><path class="cls-8" d="M22.34,42.79a1.56,1.56,0,0,0,.26.55,5.33,5.33,0,0,0,.34.49s.21.21.44.4.48.35.51.32-.18-.25-.36-.47l-.37-.45-.39-.42C22.57,43,22.38,42.77,22.34,42.79Z"/></g><g class="cls-10"><path class="cls-8" d="M16.32,45.6a5.82,5.82,0,0,0,.28,1.72A7.09,7.09,0,0,0,17,48.46c.14.3.25.49.25.49s.11.19.3.46a10.73,10.73,0,0,0,.77.93,8.76,8.76,0,0,0,1.27,1.19s-.56-.66-1.11-1.33c-.27-.33-.52-.68-.7-1s-.27-.45-.27-.45-.11-.18-.26-.47a8,8,0,0,1-.46-1.07C16.51,46.45,16.36,45.59,16.32,45.6Z"/></g><g class="cls-11"><path class="cls-8" d="M55.18,35.92c-.3,3.38-.71,7.79-2.88,10.53a.3.3,0,0,1-.5-.21,30.1,30.1,0,0,1,1.27-4.87c.46-1.85.94-3.68,1.27-5.56a.43.43,0,0,1,.84.11Z"/></g><g class="cls-11"><path class="cls-8" d="M52.5,34.83a1.34,1.34,0,0,1,.19,1.2,2.75,2.75,0,0,1-.51,1.33c-.22.25-.59,0-.62-.26a4.22,4.22,0,0,1,.29-1.3,1.46,1.46,0,0,1,.59-1Z"/></g><g class="cls-11"><path class="cls-8" d="M51.09,39.23a8,8,0,0,1-.6,2.81c-.05.09-.19,0-.17-.07.2-.93.52-1.82.73-2.75,0,0,.05,0,0,0Z"/></g><g class="cls-11"><path class="cls-8" d="M49.69,34.29a4,4,0,0,1-.13,2.26,11.82,11.82,0,0,1-.84,2.85c0,.13-.25.06-.25-.07a11.36,11.36,0,0,1,.3-2.79c.18-.75.19-1.73.78-2.27,0,0,.12,0,.14,0Z"/></g><g class="cls-11"><path class="cls-8" d="M16.12,36.92a1.89,1.89,0,0,1,.6.85,2.62,2.62,0,0,1,.2,1.14.25.25,0,0,1-.46.12,4,4,0,0,1-.38-1,2.19,2.19,0,0,1-.14-.5A3.32,3.32,0,0,1,16,37a.09.09,0,0,1,.15-.06Z"/></g><g class="cls-11"><path class="cls-8" d="M14.61,37.28c1.64,3.2,3.2,6.56,4.6,9.86.15.35-.26.77-.56.44a15.93,15.93,0,0,1-4.17-10.27.07.07,0,0,1,.13,0Z"/></g><g class="cls-10"><path class="cls-8" d="M50.08,50.53A11.8,11.8,0,0,0,51,49.09a10.76,10.76,0,0,0,.61-1.58A11.8,11.8,0,0,0,50.69,49,10.76,10.76,0,0,0,50.08,50.53Z"/></g><path class="cls-12" d="M28.05,84.11a2.82,2.82,0,0,0-1.59-1.7,1,1,0,0,0,.32-.44c.37-1.11-1-2.82-1.52-1.77A5,5,0,0,1,24,81.68a14.27,14.27,0,0,0-2.1-.17s-4,.14-3.77,3.14,4,2.61,4.34,2.9-.8,1.27-1.07,1.82,1.32,1.74,3.4.52,2.15-2.52,2.15-2.52.2,1.47.93,1.27S28.77,86.76,28.05,84.11Z"/><path class="cls-13" d="M24.92,87.47a3.78,3.78,0,0,1-.43,1,6.31,6.31,0,0,1-.62.91,4.16,4.16,0,0,1-.87.69,1.25,1.25,0,0,1-.76.2c-.22,0-.34-.12-.33-.13s.14,0,.33,0a1.14,1.14,0,0,0,.66-.24,4.75,4.75,0,0,0,.77-.72,6.07,6.07,0,0,0,.66-.83C24.63,87.93,24.88,87.46,24.92,87.47ZM27,86.93a6.29,6.29,0,0,0,.11-1,5.33,5.33,0,0,0-.13-1,2.1,2.1,0,0,0-.29-.64c-.11-.15-.22-.23-.23-.21s.07.1.15.27a2,2,0,0,1,.18.62,5.86,5.86,0,0,1,0,1,7.56,7.56,0,0,1,0,1c0,.49-.16,1-.12,1A2.74,2.74,0,0,0,27,86.93Zm-1,0a8.29,8.29,0,0,1-.27,1,4.84,4.84,0,0,1-.38,1,8.82,8.82,0,0,1-.61.86A2.21,2.21,0,0,0,25.5,89a4.31,4.31,0,0,0,.48-1,6.83,6.83,0,0,0,.2-1.06,4.71,4.71,0,0,0,0-1.07A7.88,7.88,0,0,0,26,87Zm.85-4.43a1.3,1.3,0,0,0-.44-.29c-.18-.07-.36-.12-.49-.16L25.69,82a9.93,9.93,0,0,0-1.45-.21,9.88,9.88,0,0,0,1.39.47l.22,0,.48.1a1.58,1.58,0,0,1,.43.19c.11.08.16.15.18.14A.34.34,0,0,0,26.84,82.55Z"/><path class="cls-14" d="M28.16,87.42c-.51.42-1.35-2.54-1.37-2.69s.26,2.78-.17,3-.4-1.74-.4-1.74-.76,2.8-1.19,2.68.39-2.7.39-2.7c-.21.51-1.74,3.67-2.45,3.23s.71-2.36.71-2.36S22.55,87,21,85.27c-1.23-1.38.55-3.06,1.41-3.74l-.56,0a6.33,6.33,0,0,0-1.78.37,11.89,11.89,0,0,0-1.82,1.58,2.6,2.6,0,0,0-.17,1.19c.22,3,4,2.61,4.34,2.9s-.8,1.27-1.07,1.82,1.32,1.74,3.4.52,2.15-2.52,2.15-2.52.2,1.47.93,1.27c.45-.13.71-.85.65-2A1.65,1.65,0,0,1,28.16,87.42Z"/><path class="cls-14" d="M26.26,80.17v.32a1.48,1.48,0,0,1-2,1.32,14.23,14.23,0,0,1,1.63.52c.34.14,1,.49,1.64.81a3.9,3.9,0,0,0-1-.73,1,1,0,0,0,.32-.44A2,2,0,0,0,26.26,80.17Z"/><path class="cls-13" d="M24.22,81.81l-.12,0Z"/><path class="cls-15" d="M24.84,45s-17.13,12.18-21,20,13,21.29,13,21.29S21.31,85,22.42,80.9c0,0-11.72-10.47-9.48-13.62s13-12.23,13-12.23S31.45,49.73,24.84,45Z"/><g class="cls-16"><path class="cls-17" d="M27.52,49.2A5.75,5.75,0,0,1,27.39,51a11.07,11.07,0,0,1-.51,1.76A11,11,0,0,1,26,54.38a6.8,6.8,0,0,1-1.18,1.4s.54-.73,1-1.52A15.68,15.68,0,0,0,27.17,51C27.4,50.1,27.48,49.2,27.52,49.2Z"/><g class="cls-6"><path class="cls-18" d="M28,52.57c.05,0,0,.23-.24.78a5.88,5.88,0,0,1-.61,1,5.88,5.88,0,0,1-.89.81,2.91,2.91,0,0,1-1.08.53s.5-.32.94-.7a5.89,5.89,0,0,0,.78-.84,6.12,6.12,0,0,0,.66-.93C27.86,52.76,28,52.57,28,52.57Z"/></g><path class="cls-17" d="M8,66.49a2.62,2.62,0,0,1,1.32-.4,4.53,4.53,0,0,1,1.39.15,4.29,4.29,0,0,1,1.22.66A2.53,2.53,0,0,1,12.73,68a7.45,7.45,0,0,0-1-.89,4.69,4.69,0,0,0-.8-.41,3.56,3.56,0,0,0-.39-.13l-.39-.11a4.41,4.41,0,0,0-.89-.11A7.77,7.77,0,0,0,8,66.49Z"/><path class="cls-17" d="M9.37,68.44a2.72,2.72,0,0,1,.76-.54,3.35,3.35,0,0,1,.62-.25l.3-.06a1.52,1.52,0,0,1,.32,0,1.6,1.6,0,0,1,.64.21,1.14,1.14,0,0,1,.48.47c.08.16.09.28.07.29s-.07-.1-.18-.23a1.24,1.24,0,0,0-.47-.34,1.62,1.62,0,0,0-.57-.12,1.11,1.11,0,0,0-.26,0,1.62,1.62,0,0,0-.27,0,3.58,3.58,0,0,0-.58.17A6.38,6.38,0,0,1,9.37,68.44Z"/></g><path class="cls-19" d="M14.18,83.92c1.56,1.44,2.65,2.31,2.65,2.31S21.31,85,22.42,80.9c0,0-11.72-10.47-9.48-13.62s13-12.23,13-12.23,4.1-5,1.21-9.52c-.09,1.79-.95,6-2.68,8.11C21.55,57.11,11.64,66,9.9,64.23c-1.15-1.17.39-5.53,1.57-8.37C8.18,59,5.21,62.21,3.87,64.94,2.72,67.3,3.44,70.18,5,73c.64-2.08,1.71-4.14,3.47-4,3.49.3,10,9.94,10.94,12C20.06,82.45,16.94,83.64,14.18,83.92Z"/><path class="cls-20" d="M26.44,47.06a1.79,1.79,0,0,0,0-.55,1.9,1.9,0,0,0-.33-.44c-.2-.19-.45-.3-.5-.23s.06.27.13.48a3.39,3.39,0,0,1,.11.4,3.78,3.78,0,0,1,.18.38c.08.2.13.44.21.45S26.41,47.33,26.44,47.06Z"/><path class="cls-5" d="M62.48,167.73a7.58,7.58,0,0,1-.78-1.06,2.43,2.43,0,0,1-.26-.6c-.26-.91-.51-1.79-.77-2.65-.07-.23-.14-.46-.2-.68l-.67-2.19c0-.11-.07-.22-.1-.33-.25-.8-.5-1.56-.75-2.32l-.19-.58-.62-1.81-.15-.42c-.24-.7-.49-1.37-.73-2-.06-.15-.11-.3-.17-.46l-.3-.79c-.14-.36-.27-.71-.41-1.05-.25-.65-.51-1.28-.76-1.88-.08-.2-.16-.39-.25-.58-.17-.4-.33-.8-.5-1.18l-.29-.64-.45-1-.3-.62c-.14-.31-.29-.61-.43-.91l-.29-.57-.44-.85-.26-.5-.47-.85-.21-.39-.66-1.13-.34-.54c-.35-.55-.68-1.07-1-1.53l-.32-.45-.14-.19-.4-.53-.26-.34q-.2-.26-.39-.48a3.11,3.11,0,0,0-.23-.28l-.4-.46-.19-.21c-.19-.2-.37-.39-.55-.56h0a2.72,2.72,0,0,0-.24-.24l-.09-.08-.52-.47-.06-.05-.52-.4-.13-.09c-.13-.1-.26-.18-.37-.25l-.09-.05a4,4,0,0,0-.37-.22l-.08,0-.24-.11-.07,0-.21-.08h0l-.12,0h-.06l1.09-5.4.26-.15c.4-2,.8-4.45,1.17-7.1q.13-1,.27-2c.18-1.37.34-2.79.5-4.22a133,133,0,0,0,.94-17.41c0-.25,0-.5-.05-.74,0-.08,0-.16,0-.24s0-.23,0-.35,0-.07,0-.11v0c0-.1,0-.19,0-.29s-.05-.28-.07-.42l-.06-.29,0-.18a1.36,1.36,0,0,1,0-.17v0c0-.09,0-.18-.07-.28s-.06-.26-.1-.39a2.5,2.5,0,0,0-.07-.26l0-.12-.06-.19,0-.09c0-.07,0-.15-.07-.23s-.09-.28-.14-.41a1.59,1.59,0,0,1-.07-.2l0-.07-.09-.22-.06-.15a.78.78,0,0,0,0-.14c-.07-.17-.14-.34-.22-.5l0-.06,0,0L46,88.73l-.16-.32c-.12-.23-.25-.46-.38-.68a2.53,2.53,0,0,0-.13-.22c-.14-.24-.28-.46-.43-.68a1,1,0,0,1-.08-.14c-.16-.23-.32-.46-.48-.67l0,0h0l-.09-.12c-.09-.13-.19-.25-.29-.38l0,0h0l-.06-.07-.13-.16L43.56,85l-.11-.14-.17-.19-.26-.3-.16-.17L42.74,84l-.13-.14-.11-.1-.11-.12-.12-.12-.06-.06-.11-.1L42,83.31l0,0a.6.6,0,0,1-.08-.08l0,0h0l-.05,0,0,0h0L41.68,83l0,0h0l0,0-.06-.06,0,0-.09-.08h0a10.43,10.43,0,0,1-.63-2.36A12.82,12.82,0,0,1,40.62,79a19.57,19.57,0,0,1,.11-2.85c0-.49.1-1,.17-1.47,0-.24.07-.49.1-.73,0-.08,0-.15,0-.23s0-.07,0-.1c.12-.81.26-1.63.42-2.44s.27-1.4.4-2.1c.11-.54.22-1.08.32-1.62,0-.15.06-.32.1-.49s0-.12,0-.19l.09-.35c0-.06,0-.12,0-.19v0l.09-.36h0a1.82,1.82,0,0,0,.07-.25c0-.12.06-.24.1-.37s0-.18.07-.27.07-.25.11-.38,0-.2.08-.3l.15-.51v0l.05-.18c0-.05,0-.11,0-.16s.09-.32.14-.48l.12-.4c0-.11.07-.22.1-.34s.07-.22.1-.33l0-.06.12-.37,0-.18c0-.08.05-.16.07-.24l.1-.3c.05-.18.11-.36.16-.54l0-.05.05-.18L45,57.69c.53-1.69,1-3.32,1.45-4.69a82.92,82.92,0,0,0-6.7-7.5l-.89-.33-.3,0V45h0c0-.22,0-.4-.05-.57A15.33,15.33,0,0,0,31,43.93c0,.08,0,.15,0,.22h0v.2a1.07,1.07,0,0,1,0-.2s-.13.21-.31.55a16.11,16.11,0,0,0-3.22.29c-.42.18-.85.38-1.28.6-1.9,1.69-2.88,5.63-3.76,7.82a53.61,53.61,0,0,0-2.71,7.15h0c0,.14-.06.28-.09.43s-.08.36-.11.54a.06.06,0,0,0,0,0v.07c-.06.33-.1.67-.13,1h0a6.21,6.21,0,0,0,0,1,6.54,6.54,0,0,0,.09.89,9,9,0,0,0,1.41,3.3c-.12-.08-.2-.13-.22-.11a2.13,2.13,0,0,0,.49.52c.22.33.45.66.7,1a7.56,7.56,0,0,1,.44.71c.07.12.13.25.2.38l.16.33c.08.18.15.37.22.55l.06.15c.08.23.15.46.22.69l0,.1c.08.29.16.57.22.86,0,0,0,.09,0,.14s.07.33.1.5h0c.15.78.27,1.58.4,2.36.55,3.38,1.43,6.68-1.51,9.28l.43,0c-2.84,3.77-4.4,9.7-5.24,15.9v0c0,.12,0,.25,0,.37s-.05.36-.07.53l0,.2v.06c0,.2-.05.39-.07.59s-.07.6-.1.9,0,.48-.07.72c-.06.71-.12,1.41-.17,2.11l0,.39c0,.33,0,.67-.07,1l0,.63c0,.33,0,.65-.05,1l0,.66,0,.94c0,.22,0,.43,0,.65s0,.61,0,.91,0,.42,0,.63,0,.6,0,.89v1.89c0,.65,0,1.29,0,1.9v.32c0,.27,0,.53,0,.78s0,.33,0,.49l0,.7c0,.17,0,.34,0,.5l0,.61c0,.17,0,.33,0,.5s0,.36,0,.53,0,.31,0,.47l0,.46v.12c0,.09,0,.16,0,.25l0,.5c0,.1,0,.19,0,.28s0,.29,0,.41v.08a3,3,0,0,0,0,.31c-.22,1.11-.37,2.21-.47,3.21v0c0,.26-.05.51-.07.76v.07c0,.23,0,.45,0,.66,0,0,0,.08,0,.11,0,.2,0,.4,0,.58s0,.09,0,.13c0,.23,0,.44,0,.64.15,6.27-.28,12.59-.73,18.84-.08,1.14-.15,2.28-.23,3.42.5,11.49,1,19.15,1,19.15s-9.09,3.51-.48,1.26c.62-.16,1.17-.32,1.66-.47,0-.14,0-.27.05-.36a3.19,3.19,0,0,0,.07-.54s0-.11,0-.16,0-.38,0-.57h0a11.06,11.06,0,0,1,0-1.63.86.86,0,0,1,0-.16s0,0,0,0a2.5,2.5,0,0,1,.12-.45c.54-1.4,1-2.74,1.5-4,.17-.47.35-1,.51-1.4h0c0-.13.09-.25.13-.38.26-.75.52-1.49.76-2.22h0l.18-.55h0c.1-.3.19-.6.29-.9s.21-.64.31-1h0l.12-.38h0c.23-.71.44-1.4.63-2.08h0c.44-1.49.83-2.89,1.16-4.22l0-.07v0c.06-.21.11-.42.16-.63h0c0-.21.1-.41.14-.62s.11-.41.15-.61.11-.46.16-.69h0V150a49.93,49.93,0,0,0,1.42-11.8v0h0c0-.33,0-.65,0-1v0h0c-.26-4.1-1.44-5.32-1.44-5.32l.58-1.65.2,0,.31.07.88.15.18,0,1,.13.27,0,.79.05.29,0c.61,0,1.22,0,1.8,0h.26l.52,0,.31,0,.45,0,.31,0,.42,0,.3,0,.39-.05.29,0,.36-.05.28,0,.33-.06.25,0h.06a14.9,14.9,0,0,0,2.46,6c3.86,4.93,7.3,10.26,10.68,15.53,2.91,4.55,5.88,9.06,8.79,13.61.56.87,1,1.54,1.41,2.2.27-.06.53-.12.83-.17A7.92,7.92,0,0,1,62.48,167.73Z"/><path class="cls-21" d="M16.5,172.61l0,.21c-.14,1.1-.85,6.07-1.58,6.43s.36-5.86.36-5.86"/><path class="cls-22" d="M16.5,172.61l0,.21c-.14,1.1-.85,6.07-1.58,6.43s.36-5.86.36-5.86"/><path class="cls-12" d="M27.82,117.34l-9.73.74c-2.14,3.91-2.94,9.9-2.86,13,.15,6.27-.28,12.6-.73,18.84-.38,5.39-.7,10.78-1.08,16.17-.17,2.43-.05,3.68-1.27,5.75-1.64,2.79-2.9,3.74-5.12,7.72-1.36,2.41,3.47,1.13,4.46.41a14.7,14.7,0,0,0,5-6.93c.32-1.13-.17-2.59.25-3.69,12.22-31.76,6.16-38,6.16-38Z"/><path class="cls-14" d="M24.35,138.06c0-.11,0-.21,0-.32v-.11c0-.21,0-.41,0-.61s0-.18,0-.26v-.11c0-.21,0-.41-.05-.6l0-.28c0-.27-.06-.54-.1-.78s-.05-.31-.08-.46-.09-.47-.14-.68c0,0,0-.06,0-.08-.06-.23-.12-.44-.18-.64,0,0,0,0,0-.07l0-.08-.14-.41a.69.69,0,0,1,0-.1c-.06-.15-.12-.28-.17-.39l0,0,0-.06-.13-.23h0l0-.05a1.76,1.76,0,0,0-.12-.2l0,0-.07-.1h0l0,0h0l3.83-10.8H19c-1.11,2-2.32,2.71-3.11,4a31.59,31.59,0,0,0-.68,6.57,24.66,24.66,0,0,1,0,2.72c1.09-.93,3-2,4.74-.22,2.58,2.73,2.39,13.69-.24,23.54s-6.2,19.43-8.71,18.81a1.41,1.41,0,0,1-.93-1.1l0,.05h0l-.28.38,0,.05-.1.13-.19.26,0,0-.06.09-.05.06c-.07.09-.13.19-.2.29s-.09.13-.14.2H9l-.21.3,0,.05-.12.19-.22.32-.05.09-.11.16c-.07.12-.15.24-.23.36s-.09.16-.14.24l0,0-.24.41-.17.28-.42.73v0a1.72,1.72,0,0,0-.17.37.29.29,0,0,0,0,.09.62.62,0,0,0,0,.18.87.87,0,0,0,0,.23v0s0,.05,0,.07a.55.55,0,0,0,.18.22.71.71,0,0,0,.23.12l.1,0,.2,0h.73l.22,0,.25,0h.08l.46-.09.6-.16.15,0a8.24,8.24,0,0,0,1-.38l.1,0,.33-.19.43-.36a12.88,12.88,0,0,0,1.05-.95l.2-.21.44-.49.34-.42c.12-.14.23-.29.34-.43l.34-.47.09-.13.25-.38.25-.41h0a13.66,13.66,0,0,0,.73-1.42l.15-.31a9.77,9.77,0,0,0,.33-.95,2.14,2.14,0,0,0,.08-.44,5.71,5.71,0,0,0,0-.93v0h0c0-.3,0-.61,0-.91h0v0c0-.14,0-.28,0-.42a3.13,3.13,0,0,1,.17-.93c.34-.89.67-1.75,1-2.6l.24-.65.26-.72.53-1.48c0-.09.06-.18.1-.27.27-.8.54-1.57.79-2.33l.18-.56c.1-.3.2-.59.29-.89s.21-.65.31-1l.13-.4c.22-.71.43-1.4.63-2.08,0-.15.09-.3.13-.46.39-1.34.74-2.62,1-3.83v0c.05-.22.1-.42.15-.62l.15-.61c.05-.21.1-.43.15-.63l.15-.68c.07-.31.14-.62.2-.92l0-.15c.05-.23.09-.46.14-.68l.06-.32c0-.22.09-.44.13-.66s.08-.43.11-.64.11-.62.16-.92l.09-.57c.05-.33.09-.64.13-1l.06-.46.09-.79c0-.16,0-.33.05-.48v0c0-.44.07-.87.1-1.28s.05-.8.06-1.18,0-.53,0-.79Z"/><path class="cls-21" d="M9.57,175.56c-1,1.87-.34,2.62,1,2.31,3.64-.79,5.85-7.88,5.85-7.88l.08,0a22,22,0,0,1-.11,3.06,14.7,14.7,0,0,1-5,6.93c-1,.72-5.82,2-4.46-.41A37.36,37.36,0,0,1,9.57,175.56Z"/><path class="cls-12" d="M19.2,128.12a.46.46,0,1,0,.92.11.46.46,0,1,0-.92-.11Z"/><path class="cls-12" d="M17.44,129.73a.84.84,0,0,0,.73.92.82.82,0,0,0,.91-.73.81.81,0,0,0-.72-.91A.83.83,0,0,0,17.44,129.73Z"/><g class="cls-10"><path class="cls-23" d="M8,179.73a3.21,3.21,0,0,0,1.64,0,6.74,6.74,0,0,0,1.56-.57,7.16,7.16,0,0,0,1.28-1.05,3.26,3.26,0,0,0,.87-1.38c-.07-.05-.56.58-1.17,1.07a7.55,7.55,0,0,1-1.28.84,7.6,7.6,0,0,1-1.38.68C8.81,179.55,8,179.65,8,179.73Z"/></g><path class="cls-22" d="M11.49,180c-.93.67-5.25,1.85-4.64,0,.15,1.12,2,.87,3.81-.09,2.78-1.42,5.21-6,5.12-6.35s-1.51,1.44-1.95,2l-.12.16,0-.16A21.58,21.58,0,0,0,16.47,170l.08,0a22,22,0,0,1-.11,3.06A14.7,14.7,0,0,1,11.49,180Z"/><path class="cls-21" d="M62,168.27l.11.18c.53,1,2.94,5.37,2.57,6.1s-3.21-4.91-3.21-4.91"/><path class="cls-22" d="M62,168.27l.11.18c.53,1,2.94,5.37,2.57,6.1s-3.21-4.91-3.21-4.91"/><path class="cls-12" d="M60.23,165.53C51,132.77,42.44,131.38,42.44,131.38l2.33-11.81-12.44,1.24c.87,6.09,1.35,11.73,3.85,14.92,3.87,4.93,7.3,10.26,10.68,15.54,2.91,4.54,5.88,9,8.8,13.6,1.31,2.06,2.16,3,2.42,5.37.35,3.22-.09,4.73.5,9.25.37,2.75,3.47-1.17,3.82-2.34a14.6,14.6,0,0,0-.17-8.51C61.82,167.54,60.55,166.67,60.23,165.53Z"/><path class="cls-14" d="M62.54,169.6a9.78,9.78,0,0,0-.31-1,2.09,2.09,0,0,0-.19-.4,6.32,6.32,0,0,0-.54-.77c-.2-.25-.41-.49-.61-.75a4.68,4.68,0,0,1-.5-.78,2.05,2.05,0,0,1-.16-.41c-1.58-5.63-3.14-10.34-4.65-14.27l-.4-1a73.21,73.21,0,0,0-5.32-11.08c-.23-.39-.46-.75-.68-1.09s-.44-.68-.66-1l-.32-.45a23.86,23.86,0,0,0-2.55-3l-.25-.24a6.71,6.71,0,0,0-3-1.93h0l2.4-11.82-12.51,1.25c.87,6.09,1.35,11.73,3.85,14.92.56.71,1.1,1.43,1.65,2.16.31-1.4,1.2-3.44,3.67-3,3.7.65,10.1,9.54,13.88,19s6.65,19.29,4.26,20.29a1.38,1.38,0,0,1-1.4-.33v.68c0,.14,0,.27,0,.41v.21c0,.12,0,.24,0,.37a2.18,2.18,0,0,0,0,.25c0,.12,0,.24,0,.37s0,.18,0,.27,0,.26,0,.39a2.83,2.83,0,0,0,0,.29l0,.44,0,.29c0,.17,0,.35.05.53l0,.27c0,.28.06.57.1.87a2.08,2.08,0,0,0,.17.6.59.59,0,0,0,.53.36,1.84,1.84,0,0,0,1-.52l.33-.29.16-.17c.11-.11.21-.22.31-.34a6.93,6.93,0,0,0,1.27-2,9.35,9.35,0,0,0,.25-1,13.38,13.38,0,0,0,.24-1.6h0a16,16,0,0,0,0-2.19v-.14c0-.32,0-.64-.09-.95s-.05-.43-.09-.63C62.7,170.29,62.62,169.94,62.54,169.6Z"/><path class="cls-21" d="M58.24,174.78c.29,2.11,1.29,2.3,2.23,1.22,2.44-2.81,0-9.81,0-9.81l.05-.07a21,21,0,0,1,1.74,2.52,14.6,14.6,0,0,1,.17,8.51c-.35,1.17-3.45,5.09-3.82,2.34A40.24,40.24,0,0,1,58.24,174.78Z"/><path class="cls-12" d="M37.59,131a.47.47,0,0,0,.64.17.46.46,0,0,0,.17-.63.47.47,0,0,0-.81.46Z"/><path class="cls-12" d="M37.15,133.33a.83.83,0,0,0,1.13.3.82.82,0,1,0-1.13-.3Z"/><g class="cls-10"><path class="cls-23" d="M59.49,179a3.15,3.15,0,0,0,1.28-1,6.91,6.91,0,0,0,.91-1.39,6.48,6.48,0,0,0,.4-1.61A3.17,3.17,0,0,0,62,173.4c-.08,0-.09.8-.29,1.55a7.44,7.44,0,0,1-.53,1.45,7.78,7.78,0,0,1-.7,1.37C60,178.43,59.44,179,59.49,179Z"/></g><path class="cls-22" d="M62.4,177.15c-.33,1.1-3.1,4.63-3.72,2.76.78.81,2.08-.47,3-2.35,1.37-2.8.56-7.95.31-8.15s-.35,2.06-.37,2.78v.2l-.08-.14a21,21,0,0,0-1.1-6.06l.05-.07a21,21,0,0,1,1.74,2.52A14.6,14.6,0,0,1,62.4,177.15Z"/><path class="cls-24" d="M40.58,82.57a18.63,18.63,0,0,1,6.09,12.5c.33,7.69-1.28,22.75-2.88,30.77l-3.85,2.24-1-7.69L36.42,129s-12.5,4.17-20.52-3.2c0,0-2.88-32.38,6.74-42.31S40.58,82.57,40.58,82.57Z"/><path class="cls-25" d="M40.58,82.57a18.63,18.63,0,0,1,6.09,12.5c.33,7.69-1.28,22.75-2.88,30.77l-3.85,2.24-1-7.69L36.42,129s-12.5,4.17-20.52-3.2c0,0-2.88-32.38,6.74-42.31S40.58,82.57,40.58,82.57Z"/><path class="cls-26" d="M15.89,125.68v-.17h0c0-.15,0-.33,0-.56v0c0-.1,0-.22,0-.34v0c0-.41-.06-.91-.09-1.48v0a128.94,128.94,0,0,1,.5-21.24v-.07c0-.36.09-.73.14-1.1C16,111.55,17.06,125,25.21,125c7.21.09,13-8.73,14.08-14.8.81-4.71,2-9.43,1.86-14.24-.09-2.76-.5-7-2.13-9.92h0a1.34,1.34,0,0,1-.07-.18.32.32,0,0,1,0-.09,6.7,6.7,0,0,0-2.69-2.69c-1.22-.62-2.6-.87-3.83-1.46a1.13,1.13,0,0,1-.63-.54c-.19-.51.32-1,.78-1.28s.89-.57,1.34-.85a13.07,13.07,0,0,1,6.73,3.57,17.36,17.36,0,0,1,2.58,2.86h0a19.28,19.28,0,0,1,2,3.45l0,.06.21.5.06.14.17.45.07.19c.05.14.1.27.14.41s0,.16.08.24.08.26.11.39.05.18.08.26.07.26.1.4l.06.28.09.4a2.74,2.74,0,0,1,0,.28c0,.14,0,.29.07.43a2.36,2.36,0,0,1,0,.28c0,.16,0,.32.06.48l0,.24c0,.25,0,.49,0,.75.33,7.69-1.28,22.75-2.88,30.77l-3.85,2.24-1-7.69L36.42,129a27.88,27.88,0,0,1-8,1.17,19.66,19.66,0,0,1-9.29-2.12,15.57,15.57,0,0,1-3.19-2.25s0,0,0-.14Z"/><g class="cls-7"><path class="cls-25" d="M16.64,108.85a10.77,10.77,0,0,0,.24-1.61c.11-1,.28-2.25.46-3.53.37-2.57.88-5.11.88-5.11s.44-2.56,1-5.09c.29-1.26.59-2.52.83-3.47a10.22,10.22,0,0,0,.36-1.59A8.87,8.87,0,0,0,19.84,90c-.31.92-.68,2.17-1,3.43-.69,2.52-1.19,5.08-1.19,5.08s-.45,2.57-.71,5.16c-.13,1.3-.23,2.6-.28,3.57A8.84,8.84,0,0,0,16.64,108.85Z"/><path class="cls-25" d="M17.05,122.15a21.82,21.82,0,0,0-.16-2.77c-.09-1.38-.11-2.76-.11-2.76s-.1-1.37-.13-2.75a24.94,24.94,0,0,0-.08-2.78,12.54,12.54,0,0,0-.34,2.77c-.08,1.39-.05,2.79-.05,2.79s.09,1.39.29,2.77A13.09,13.09,0,0,0,17.05,122.15Z"/><path class="cls-25" d="M41.13,125.54s.08-.11.25-.24.48-.21.84-.43a1,1,0,0,0,.43-.54,6,6,0,0,0,.16-.71c.1-.48.19-1,.29-1.5l.76-4.08s1.2-8.21,1-8.23S43.26,118,43.26,118l-.58,4.11c-.07.51-.14,1-.2,1.51a5.62,5.62,0,0,1-.1.67.81.81,0,0,1-.3.44,8.55,8.55,0,0,0-.78.53C41.13,125.39,41.12,125.54,41.13,125.54Z"/><path class="cls-25" d="M24.56,128.39a5.85,5.85,0,0,0,1.34.26,25.18,25.18,0,0,0,3,.18,27.87,27.87,0,0,0,4.34-.33s.54-.1,1.34-.29l.63-.17a3.26,3.26,0,0,0,.39-.12.83.83,0,0,0,.38-.34,4.19,4.19,0,0,0,.27-.8l.2-.78c.28-1,.56-2.09.75-2.88a6,6,0,0,0,.27-1.32,6.29,6.29,0,0,0-.49,1.26c-.27.76-.6,1.79-.93,2.82l-.25.76a3.35,3.35,0,0,1-.24.67c-.07.13-.24.17-.47.22l-.64.14c-.78.15-1.31.23-1.31.23a30.56,30.56,0,0,1-4.25.5c-1.07.06-2.14,0-2.95,0A7.87,7.87,0,0,0,24.56,128.39Z"/></g><path class="cls-26" d="M23,83.12h0a13.8,13.8,0,0,1,8.18-4.23c5.5-.48,9.36,3.68,9.36,3.68a16.32,16.32,0,0,1,2.17,2.33c-2.28.71-5.92,1.74-8.13,1.6A10.4,10.4,0,0,1,28.2,84,4.74,4.74,0,0,1,25,85.8a13.93,13.93,0,0,1-3.76,0A5.93,5.93,0,0,0,23,83.12Z"/><path class="cls-21" d="M18.14,62.1c.27-3.26,1.87-6.25,3.07-9.24.91-2.26,1.91-6.4,3.95-8s12.49-.25,12.49-.25,8.12,3,8.38,4.29-4.17,13.4-5,18c-.41,2.15-.88,4.31-1.19,6.48-.57,3.94-.88,7.72,1.65,11a19,19,0,0,1-6.92,1,10.35,10.35,0,0,1-6.41-2.54,4.76,4.76,0,0,1-3.18,1.84,13.93,13.93,0,0,1-3.76,0c2.94-2.6,2.06-5.9,1.5-9.29-.37-2.32-.68-4.8-2.09-6.77S17.92,64.74,18.14,62.1Z"/><path class="cls-22" d="M18.14,62.1c0-.35.08-.68.13-1,0,0,0,0,0-.06.06-.35.13-.68.21-1a8.59,8.59,0,0,0,1.07,3.69c1.22,1.39,2.27.17,7,1.39s7.84.7,11.15-3.31c2.66-3.22,4.3-8.46,4.84-10.38a9.12,9.12,0,0,1,2,3.47l-1.42,4.5a2,2,0,0,1-.07.23l-.14.47-.1.32c-.05.14-.09.28-.13.42s-.08.25-.11.37l-.12.38L42.3,62c0,.11-.07.22-.1.33s-.13.43-.19.64l-.06.21-.16.55c0,.09,0,.17-.07.25l-.12.43a2.5,2.5,0,0,1-.07.26c0,.13-.07.26-.1.38l-.06.25c0,.12-.07.24-.09.36l-.06.23c0,.13-.06.25-.08.37a1,1,0,0,0,0,.17c0,.18-.08.34-.11.5-.1.54-.2,1.08-.31,1.61-.14.7-.28,1.4-.41,2.1S40,72.23,39.85,73c0,.11,0,.22-.05.33h0c-.57,3.94-.88,7.72,1.65,11a19,19,0,0,1-6.92,1A10.73,10.73,0,0,1,29,83.58a5.07,5.07,0,0,0,.95.14,7.49,7.49,0,0,0,2.4-.24,13.69,13.69,0,0,0,2.78-3.25,14.11,14.11,0,0,0,1.17-3c0-.84-.07-1.67-.15-2.5l.57.37a7,7,0,0,0-.07-2.17c-.52-2.44-6.09-2.27-10.27-1.74a6.79,6.79,0,0,0-4.08,1.89h0c0-.16-.06-.33-.1-.49l0-.15c-.07-.29-.14-.57-.22-.85l0-.11a9.35,9.35,0,0,0-1.31-2.81C19.07,66.54,17.92,64.74,18.14,62.1Z"/><path class="cls-19" d="M27.74,83.35a5,5,0,0,1-.33-.55,3.5,3.5,0,0,0,.49.37Z"/><path class="cls-27" d="M30,84.5h-.08l-.08,0Z"/><path class="cls-12" d="M37.1,41.11s.53,5.45-1.61,6.41-4.56,1-5.37-1.29a11.34,11.34,0,0,1,0-5.44S36.83,39.82,37.1,41.11Z"/><path class="cls-14" d="M31.12,47.6c3.45-.53,5.58-4.5,4.43-3.92s-4.55.12-5.78-.07a14.41,14.41,0,0,1,.35-2.82s6.71-1,7,.32c0,0,.53,5.45-1.61,6.41C33.93,48.21,32.24,48.4,31.12,47.6Z"/><path class="cls-19" d="M31.75,48.34s-3.24,3-3.86,1.36l0-.1a26.08,26.08,0,0,1,1.91-4.67,2.73,2.73,0,0,0,2.36,2.38,4.49,4.49,0,0,0,4.61-2.7c.23,1.17-.69,3.59-2.49,6.78C33.77,51.5,32.84,51.2,31.75,48.34Z"/><path class="cls-15" d="M37.12,43.18c.05-.39,1.3,3.87-2.43,7.6,0,0-1.25,1.37-2.87-2.86,0,0-3.23,3-3.85,1.37s1.8-5.68,1.8-5.68-.18,2.91,2.43,3.28A4.52,4.52,0,0,0,37.12,43.18Z"/><path class="cls-19" d="M28,48.75c.62,1.62,3.85-1.37,3.85-1.37,1.62,4.23,2.87,2.86,2.87,2.86a8.62,8.62,0,0,0,2.66-5.84,8.54,8.54,0,0,1-2.66,6.38s-1.25,1.37-2.87-2.86c0,0-3.23,3-3.85,1.37a2,2,0,0,1-.09-.9A1.36,1.36,0,0,0,28,48.75Z"/><g class="cls-10"><path class="cls-23" d="M19.75,59.69a3.72,3.72,0,0,0,.2-.87A14.52,14.52,0,0,1,20.49,57c.23-.67.5-1.33.7-1.82l.33-.83s1.86-5.4,1.7-5.46S21,54.1,21,54.1l-.28.84c-.17.51-.41,1.19-.59,1.89a11,11,0,0,0-.36,2A2.24,2.24,0,0,0,19.75,59.69Z"/><path class="cls-23" d="M19.65,62.33c.17,0,.19-.82.19-.82s-.23-.76-.4-.74-.19.82-.19.82S19.49,62.36,19.65,62.33Z"/><path class="cls-23" d="M25.29,80.63c.06,0-.41-.73-.75-1.47A11.15,11.15,0,0,1,24,77.65a10.75,10.75,0,0,1-.45-1.55,13.27,13.27,0,0,0-.27-1.62,3.83,3.83,0,0,0-.15,1.68,8.78,8.78,0,0,0,.29,1.68,8.86,8.86,0,0,0,.76,1.52A3.74,3.74,0,0,0,25.29,80.63Z"/></g><g class="cls-28"><path class="cls-21" d="M38.15,79.13a5.18,5.18,0,0,0,.37-.66c.15-.34.24-.72.28-.72a1.66,1.66,0,0,1-.08.79,4,4,0,0,1-.31.75,3.48,3.48,0,0,1-.52.61c-.29.28-.63.48-.66.44a7.37,7.37,0,0,1,.51-.58A4.3,4.3,0,0,0,38.15,79.13Z"/><path class="cls-21" d="M29.69,68.94a11.49,11.49,0,0,0,1.68.14,10.91,10.91,0,0,0,1.68-.17c.23,0,.41-.1.54-.12l.21-.05.2-.06c.13,0,.31-.07.53-.15a11,11,0,0,0,1.55-.66,10.45,10.45,0,0,0,1.41-.93,5.89,5.89,0,0,1,.61-.48,3.58,3.58,0,0,1-.53.57,9.33,9.33,0,0,1-1.38,1,10.62,10.62,0,0,1-1.57.73c-.22.09-.41.13-.54.18l-.21.06-.21,0c-.14,0-.33.08-.56.11a10,10,0,0,1-1.73.11,9.45,9.45,0,0,1-1.7-.23,3.32,3.32,0,0,1-.75-.25S29.23,68.87,29.69,68.94Z"/><path class="cls-21" d="M23.45,77.76s0,.44.07.87a6.7,6.7,0,0,0,.56,1.6c.21.37.51.69.48.73a1.87,1.87,0,0,1-.65-.62,3.66,3.66,0,0,1-.45-.79,3.76,3.76,0,0,1-.15-.9A1.78,1.78,0,0,1,23.45,77.76Z"/><path class="cls-21" d="M20.13,67.58c.36.22.73.41.73.41s.35.22.73.41a5.87,5.87,0,0,1,.76.38,2.21,2.21,0,0,1-.85-.19,7.22,7.22,0,0,1-.79-.34,5.89,5.89,0,0,1-.7-.5,2.18,2.18,0,0,1-.6-.62A5.63,5.63,0,0,1,20.13,67.58Z"/><path class="cls-21" d="M27.18,59,28,57.52s.34-.56.81-1.43a31.07,31.07,0,0,0,1.49-3.29,31.26,31.26,0,0,0,1.08-3.45c.11-.48.2-.88.27-1.16a2.41,2.41,0,0,1,.11-.44,3,3,0,0,1-.05.45c-.05.28-.12.69-.22,1.18a26.21,26.21,0,0,1-1,3.49A27.44,27.44,0,0,1,29,56.22c-.46.88-.79,1.45-.79,1.45l-.83,1.42a21.8,21.8,0,0,0-1.58,3.24,9.81,9.81,0,0,0-.66,3.52A7.91,7.91,0,0,0,25.29,67a2.73,2.73,0,0,1,.08.44s0,0,0-.11-.06-.18-.1-.32a.13.13,0,0,0,0-.06l0,.42c.1.9.25,2.1.47,3.29s.47,2.38.7,3.25.4,1.46.4,1.46.16.59.43,1.45.67,2,1,3.18a13.33,13.33,0,0,1,.59,3.3,1.09,1.09,0,0,1,0,.18l-.12-.08v-.1a15.05,15.05,0,0,0-.68-3.24c-.36-1.15-.79-2.29-1.08-3.15s-.45-1.46-.45-1.46-.17-.58-.38-1.47-.46-2.08-.65-3.28-.31-2.41-.37-3.32c0-.46,0-.84-.05-1.1v-.1l0-.36a9.55,9.55,0,0,1,.58-3.59A21,21,0,0,1,27.18,59Z"/></g><g class="cls-10"><path class="cls-21" d="M23.91,63.4a7.53,7.53,0,0,0,1.21,0,6.45,6.45,0,0,1,2.55.34,14.14,14.14,0,0,0,2.59.76,5.44,5.44,0,0,0,1.26.07l.35,0a4.87,4.87,0,0,0,.9-.25,8.84,8.84,0,0,0,2.33-1.4,11.21,11.21,0,0,0,2-1.79A2.18,2.18,0,0,0,37.67,60s-.25.42-.75.93a13.71,13.71,0,0,1-2.07,1.6,9.09,9.09,0,0,1-2.26,1.22,3.86,3.86,0,0,1-.8.18,2.33,2.33,0,0,1-.31,0,5.16,5.16,0,0,1-1.15,0,15.33,15.33,0,0,1-2.53-.62,6.77,6.77,0,0,0-1.44-.24,7.93,7.93,0,0,0-1.26.08A4.22,4.22,0,0,0,23.91,63.4Z"/></g><path class="cls-12" d="M35.69,85.6a2.72,2.72,0,0,1,1.8-1.36,1,1,0,0,1-.22-.48c-.16-1.14,1.43-2.55,1.74-1.45A5.11,5.11,0,0,0,40,84a14,14,0,0,1,2,.2s3.74.83,3,3.68-4.25,1.82-4.61,2.05.52,1.36.69,1.94-1.56,1.44-3.31-.09-1.57-2.81-1.57-2.81-.45,1.38-1.1,1.06S34.54,88,35.69,85.6Z"/><path class="cls-13" d="M38.44,90.36a6.44,6.44,0,0,0,.48.91,4,4,0,0,0,.6.83,1.17,1.17,0,0,0,.57.35c.18,0,.32,0,.32,0a.58.58,0,0,1-.33.07,1.21,1.21,0,0,1-.69-.32,3.94,3.94,0,0,1-.69-.83,5.65,5.65,0,0,1-.43-1,3.75,3.75,0,0,1-.23-1S38.23,89.88,38.44,90.36Zm-2.13-.89s0-.49.06-1a8.34,8.34,0,0,1,.14-.93,5.94,5.94,0,0,1,.22-.92,1.9,1.9,0,0,1,.29-.57c.1-.14.19-.22.18-.24s-.12,0-.26.17a1.89,1.89,0,0,0-.38.57,5.5,5.5,0,0,0-.3.94,6,6,0,0,0-.07,1A3.08,3.08,0,0,0,36.31,89.47Zm.78-1.78a4.18,4.18,0,0,0-.15,1,6.35,6.35,0,0,0,0,1,4.44,4.44,0,0,0,.28,1,2,2,0,0,0,.59.87,6.34,6.34,0,0,1-.42-.93,4.91,4.91,0,0,1-.2-1,8.32,8.32,0,0,1-.07-1A6.91,6.91,0,0,0,37.09,87.69ZM37,84.49s.08,0,.19-.1a1.14,1.14,0,0,1,.44-.11,4,4,0,0,1,.48,0h.21a9.66,9.66,0,0,0,1.4-.21,9.53,9.53,0,0,0-1.41,0l-.22,0c-.13,0-.31,0-.49.07a1.09,1.09,0,0,0-.46.21C37,84.4,37,84.48,37,84.49Z"/><path class="cls-14" d="M35,88.78c.4.49,1.72-2.22,1.76-2.37s-.73,2.64-.36,2.88.69-1.6.69-1.6.22,2.82.64,2.79.12-2.68.12-2.68c.1.53,1,3.84,1.73,3.55s-.24-2.41-.24-2.41,1,.41,2.79-1c1.41-1.12,0-3-.67-3.85l.54.08a5.94,5.94,0,0,1,1.61.66,12,12,0,0,1,1.44,1.84,2.66,2.66,0,0,1,0,1.18c-.74,2.84-4.25,1.82-4.61,2.05s.52,1.36.69,1.94-1.56,1.44-3.31-.09-1.57-2.81-1.57-2.81-.45,1.38-1.1,1.06c-.41-.2-.53-.94-.27-2.06A1.73,1.73,0,0,0,35,88.78Z"/><path class="cls-14" d="M38.07,82.11a2.87,2.87,0,0,0,0,.31C37.84,84,39.29,84.07,39.71,84a15.16,15.16,0,0,0-1.63.23c-.35.07-1,.29-1.69.49a3.6,3.6,0,0,1,1.1-.52,1,1,0,0,1-.22-.48A1.93,1.93,0,0,1,38.07,82.11Z"/><path class="cls-13" d="M39.71,84h0Z"/><path class="cls-15" d="M45.66,48.39s14,14.72,16.23,22.92-16,18.28-16,18.28-4-2-4.32-6.11c0,0,12.91-8.06,11.36-11.49S42.84,58,42.84,58,38.58,51.85,45.66,48.39Z"/><g class="cls-16"><path class="cls-17" d="M42.37,52a6.16,6.16,0,0,0-.19,1.76,10.92,10.92,0,0,0,.17,1.79,10.72,10.72,0,0,0,.54,1.7,6.16,6.16,0,0,0,.86,1.55s-.38-.8-.67-1.63a11.9,11.9,0,0,1-.44-1.68,13.49,13.49,0,0,1-.25-1.73C42.33,52.91,42.42,52,42.37,52Z"/><g class="cls-6"><path class="cls-18" d="M41.3,55.19s0,.22.1.79a5,5,0,0,0,.39,1.11,5.47,5.47,0,0,0,.7.94,2.84,2.84,0,0,0,.92.7s-.42-.4-.76-.84a5.51,5.51,0,0,1-.59-1,6.32,6.32,0,0,1-.46-1C41.43,55.39,41.35,55.19,41.3,55.19Z"/></g><path class="cls-17" d="M57.77,72.09a2.59,2.59,0,0,0-1.17-.61,4,4,0,0,0-1.34-.1,3.91,3.91,0,0,0-1.27.43,2.4,2.4,0,0,0-1,.87A7.94,7.94,0,0,1,54.08,72a3.87,3.87,0,0,1,.83-.26,2.88,2.88,0,0,1,.39-.06l.39,0a4.46,4.46,0,0,1,.86,0A8.9,8.9,0,0,1,57.77,72.09Z"/><path class="cls-17" d="M56.09,73.73a2.58,2.58,0,0,0-.63-.65,2.54,2.54,0,0,0-.53-.35l-.28-.11a1.78,1.78,0,0,0-.95,0,1.26,1.26,0,0,0-.53.37c-.11.14-.13.26-.11.27s.08-.09.2-.19a1.28,1.28,0,0,1,.51-.25,1.8,1.8,0,0,1,.56,0l.24.06a1.59,1.59,0,0,1,.25.08,2.79,2.79,0,0,1,.52.26A5.21,5.21,0,0,0,56.09,73.73Z"/></g><path class="cls-19" d="M48.8,87.83c-1.72,1.11-2.91,1.76-2.91,1.76s-4-2-4.32-6.11c0,0,12.91-8.06,11.36-11.49S42.84,58,42.84,58s-3-5.53.55-9.4c-.23,1.74-.18,6,1.09,8.29C46.6,60.69,54.38,71,56.34,69.58c1.29-.93.61-5.41,0-8.34,2.55,3.55,4.77,7.2,5.55,10.07.68,2.48-.52,5.12-2.51,7.61-.23-2.12-.88-4.29-2.56-4.45-3.35-.32-11.21,7.85-12.45,9.66C43.52,85.38,46.25,87.07,48.8,87.83Z"/><path class="cls-20" d="M43.91,50.67c.09,0,.17-.22.28-.4a2.48,2.48,0,0,1,.24-.34,3,3,0,0,1,.18-.37c.1-.19.25-.37.21-.44s-.3,0-.52.14a2,2,0,0,0-.39.37,1.8,1.8,0,0,0-.13.52C43.76,50.41,43.83,50.67,43.91,50.67Z"/><path class="cls-12" d="M28.05,84.11a2.82,2.82,0,0,0-1.59-1.7,1,1,0,0,0,.32-.44c.37-1.11-1-2.82-1.52-1.77A5,5,0,0,1,24,81.68a14.27,14.27,0,0,0-2.1-.17s-4,.14-3.77,3.14,4,2.61,4.34,2.9-.8,1.27-1.07,1.82,1.32,1.74,3.4.52,2.15-2.52,2.15-2.52.2,1.47.93,1.27S28.77,86.76,28.05,84.11Z"/><path class="cls-13" d="M24.92,87.47a3.78,3.78,0,0,1-.43,1,6.31,6.31,0,0,1-.62.91,4.16,4.16,0,0,1-.87.69,1.25,1.25,0,0,1-.76.2c-.22,0-.34-.12-.33-.13s.14,0,.33,0a1.14,1.14,0,0,0,.66-.24,4.75,4.75,0,0,0,.77-.72,6.07,6.07,0,0,0,.66-.83C24.63,87.93,24.88,87.46,24.92,87.47ZM27,86.93a6.29,6.29,0,0,0,.11-1,5.33,5.33,0,0,0-.13-1,2.1,2.1,0,0,0-.29-.64c-.11-.15-.22-.23-.23-.21s.07.1.15.27a2,2,0,0,1,.18.62,5.86,5.86,0,0,1,0,1,7.56,7.56,0,0,1,0,1c0,.49-.16,1-.12,1A2.74,2.74,0,0,0,27,86.93Zm-1,0a8.29,8.29,0,0,1-.27,1,4.84,4.84,0,0,1-.38,1,8.82,8.82,0,0,1-.61.86A2.21,2.21,0,0,0,25.5,89a4.31,4.31,0,0,0,.48-1,6.83,6.83,0,0,0,.2-1.06,4.71,4.71,0,0,0,0-1.07A7.88,7.88,0,0,0,26,87Zm.85-4.43a1.3,1.3,0,0,0-.44-.29c-.18-.07-.36-.12-.49-.16L25.69,82a9.93,9.93,0,0,0-1.45-.21,9.88,9.88,0,0,0,1.39.47l.22,0,.48.1a1.58,1.58,0,0,1,.43.19c.11.08.16.15.18.14A.34.34,0,0,0,26.84,82.55Z"/><path class="cls-14" d="M28.16,87.42c-.51.42-1.35-2.54-1.37-2.69s.26,2.78-.17,3-.4-1.74-.4-1.74-.76,2.8-1.19,2.68.39-2.7.39-2.7c-.21.51-1.74,3.67-2.45,3.23s.71-2.36.71-2.36S22.55,87,21,85.27c-1.23-1.38.55-3.06,1.41-3.74l-.56,0a6.33,6.33,0,0,0-1.78.37,11.89,11.89,0,0,0-1.82,1.58,2.6,2.6,0,0,0-.17,1.19c.22,3,4,2.61,4.34,2.9s-.8,1.27-1.07,1.82,1.32,1.74,3.4.52,2.15-2.52,2.15-2.52.2,1.47.93,1.27c.45-.13.71-.85.65-2A1.65,1.65,0,0,1,28.16,87.42Z"/><path class="cls-14" d="M26.26,80.17v.32a1.48,1.48,0,0,1-2,1.32,14.23,14.23,0,0,1,1.63.52c.34.14,1,.49,1.64.81a3.9,3.9,0,0,0-1-.73,1,1,0,0,0,.32-.44A2,2,0,0,0,26.26,80.17Z"/><path class="cls-13" d="M24.22,81.81l-.12,0Z"/><path class="cls-15" d="M15.72,73.94H5.54c3.84,6.31,11.29,12.29,11.29,12.29S21.31,85,22.42,80.9A70.43,70.43,0,0,1,15.72,73.94Z"/><path class="cls-19" d="M15.72,73.94H14.54A43.91,43.91,0,0,1,19.42,81c.64,1.42-2.48,2.61-5.24,2.89,1.56,1.44,2.65,2.31,2.65,2.31S21.31,85,22.42,80.9A70.43,70.43,0,0,1,15.72,73.94Z"/><path class="cls-12" d="M17,21.77A2.33,2.33,0,0,0,13.79,21c-2.2,1.45-1.1,9,1.89,8.94S17.55,21.61,17,21.77Z"/><path class="cls-14" d="M17,21.77A2.33,2.33,0,0,0,13.79,21c-2.2,1.45-1.1,9,1.89,8.94S17.55,21.61,17,21.77Z"/><path class="cls-29" d="M14.28,27.71c0-.06.22,0,.48-.08a.48.48,0,0,0,.32-.26.77.77,0,0,0,0-.5,1,1,0,0,0-.28-.43c-.11-.11-.26-.15-.46-.31a.87.87,0,0,1-.28-.77c0-.22.09-.3.09-.29a.83.83,0,0,1,.16-.24,1.18,1.18,0,0,1,.28-.23.91.91,0,0,1,.22-.09h0s0,0,0,0a1.09,1.09,0,0,1,0-.13l0-.2a2.38,2.38,0,0,0-.31-.8c-.29-.51-.73-.71-.72-.79s.53,0,1,.5a2.68,2.68,0,0,1,.52.94,2.33,2.33,0,0,1,.07.25,1.06,1.06,0,0,1,0,.29c0,.24,0,.48,0,.65a2.72,2.72,0,0,0-.43,0,.31.31,0,0,0-.1.05.79.79,0,0,0-.13.13.46.46,0,0,0-.06.1s0,0,0,0,.26.18.45.39a1.58,1.58,0,0,1,.39.82,1.23,1.23,0,0,1-.17.88.64.64,0,0,1-.57.29C14.45,27.92,14.26,27.75,14.28,27.71Z"/><path class="cls-14" d="M15.68,30c3-.1,1.87-8.37,1.34-8.21a2.78,2.78,0,0,0-1.69-1.12,5.33,5.33,0,0,1-.21,3.07s-.78-1.25-1.2-.83.22,2.42-.68,2.62c-.28.06-.46-.16-.58-.49C12.83,27.45,13.93,30,15.68,30Z"/><g class="cls-10"><path class="cls-30" d="M12.9,22.72c-.13.42-.07.84.12,1s.46-.16.58-.59.07-.85-.12-.95S13,22.29,12.9,22.72Z"/><path class="cls-30" d="M13.67,21.49a.34.34,0,0,0,.15.39.21.21,0,0,0,.32-.11.34.34,0,0,0-.15-.38A.21.21,0,0,0,13.67,21.49Z"/></g><path class="cls-12" d="M50.41,22c.24-6.79-2.57-17.8-16.86-17.91S17,19.75,17,19.75A43.42,43.42,0,0,0,15.68,30c.17,4.43,2.48,11,12.77,12.08s18.22-3.27,20.07-9.6a5.26,5.26,0,0,0,4.85-4.24C54.09,25.3,52.49,22.34,50.41,22Z"/><g class="cls-6"><path class="cls-14" d="M50.41,22a21.63,21.63,0,0,0-.84-6.83,17.57,17.57,0,0,0-2.32-4.88c2.06,3.46,2.42,8.66,2.31,11.82.17,0,.61-.09.9-.1Z"/><path class="cls-14" d="M52.28,23.14a6,6,0,0,1,.43,4.07,5.27,5.27,0,0,1-4.86,4.24C46,37.78,38.08,42.1,27.79,41.05c-5.42-.56-8.63-2.65-10.47-5.15,1.7,2.93,5,5.53,11.13,6.16,10.29,1,18.22-3.27,20.07-9.6a5.26,5.26,0,0,0,4.85-4.24A5.82,5.82,0,0,0,52.28,23.14Z"/></g><g class="cls-6"><path class="cls-12" d="M51.15,29.8a1,1,0,0,1-.42.84.74.74,0,0,1-.42.15.68.68,0,0,1-.52-.24,1.17,1.17,0,0,1-.31-.64.88.88,0,0,1,.22-.78,4,4,0,0,1,.43-.29.61.61,0,0,0,.21-.26A.87.87,0,0,0,50.4,28a.44.44,0,0,0-.31-.33.36.36,0,0,0-.13,0h-.14l-.07,0,0,0-.11.16c-.16.24-.29.3-.44.31a.44.44,0,0,1-.27-.12.62.62,0,0,1-.15-.29,4,4,0,0,1-.08-.88,4.3,4.3,0,0,1,0-.62A3.44,3.44,0,0,1,49,25.09a2,2,0,0,1,.59-.73c.44-.32.81-.22.8-.17s-.31.1-.63.45a2.57,2.57,0,0,0-.58,1.68,4.87,4.87,0,0,0,0,.54c0,.17,0,.13,0,.17s.07,0,.06,0h0l.09-.08a1.24,1.24,0,0,1,.2-.1,1,1,0,0,1,.65,0,.93.93,0,0,1,.28.16,1.39,1.39,0,0,1,.5.83A1.75,1.75,0,0,1,50.84,29a1.24,1.24,0,0,1-.44.44,2.13,2.13,0,0,0-.39.18.24.24,0,0,0-.09.22.75.75,0,0,0,.13.34.42.42,0,0,0,.55.13C51,30.15,51.1,29.76,51.15,29.8Z"/></g><path class="cls-30" d="M51.8,24.37c.29.31.64.4.76.2s0-.59-.31-.89-.64-.39-.77-.2S51.5,24.07,51.8,24.37Z"/><path class="cls-30" d="M50.68,22.9a.34.34,0,0,0,.14.38.21.21,0,0,0,.32-.1.34.34,0,0,0-.14-.39A.21.21,0,0,0,50.68,22.9Z"/><path class="cls-14" d="M31.19,30.66a5.49,5.49,0,0,1-4.33-1.18s-1.22.78.95,1.6C30.69,32.18,31.19,30.66,31.19,30.66Z"/><g class="cls-6"><path class="cls-12" d="M30,31.27a6,6,0,0,1-.9,0,5.46,5.46,0,0,1-1.86-.63,1.11,1.11,0,0,1-.59-.63.56.56,0,0,1,.25-.56,1.59,1.59,0,0,1,.5-.22,1.08,1.08,0,0,1,.22,0,2.2,2.2,0,0,1,.51,0,3.21,3.21,0,0,1,.61.09,3.44,3.44,0,0,1,.37.14,7.48,7.48,0,0,1,.79.49c0-.31,0-.65,0-1,0-.19,0-.4,0-.61,0-.41,0-.84-.05-1.22a6.28,6.28,0,0,0-.13-1.36,5.19,5.19,0,0,0-.16,1.36c0,.38-.05.81-.07,1.23l0,.61c0,.06,0,.08,0,.09L29.29,29l-.43-.18a3.51,3.51,0,0,0-.73-.15,2.78,2.78,0,0,0-.63,0,2.11,2.11,0,0,0-.29.06,1.91,1.91,0,0,0-.69.36,1.24,1.24,0,0,0-.35.45,1,1,0,0,0,0,.67,1.52,1.52,0,0,0,.88.88,4.86,4.86,0,0,0,2,.48A1.31,1.31,0,0,0,30,31.27Z"/></g><path class="cls-30" d="M28,29.59c-.06.14.14.35.43.47s.58.1.64,0-.14-.35-.44-.46S28.07,29.45,28,29.59Z"/><path class="cls-14" d="M34.49,30.9c0,1.36,1.72,2.48,3.87,2.51s3.91-1.06,3.93-2.42-1.72-2.49-3.87-2.51S34.5,29.54,34.49,30.9Z"/><path class="cls-14" d="M16.43,29.11c-.26,1.33,1.22,2.74,3.31,3.15s4-.35,4.25-1.69-1.22-2.74-3.31-3.15S16.68,27.77,16.43,29.11Z"/><path class="cls-8" d="M37.47,20.44c0,.08.38.11.69.25a2.37,2.37,0,0,1,.58.33,2.63,2.63,0,0,1,.55.35c.27.22.46.53.54.5s0-.42-.21-.77a2.44,2.44,0,0,0-.57-.6,2.58,2.58,0,0,0-.79-.23C37.84,20.23,37.45,20.36,37.47,20.44Z"/><path class="cls-8" d="M20.62,20.36c.07,0,.32-.25.63-.43a2.63,2.63,0,0,1,.63-.28,2.43,2.43,0,0,1,.65-.22,1.48,1.48,0,0,1,.47,0c.13,0,.22.05.25,0s0-.13-.15-.24a1.21,1.21,0,0,0-.57-.2,2.22,2.22,0,0,0-.87.08,2.51,2.51,0,0,0-.69.51C20.67,19.92,20.54,20.33,20.62,20.36Z"/><path class="cls-14" d="M17,19.75S19.18,4,33.55,4.08,50.65,15.2,50.41,22c1.59.27,2.89,2.05,3.1,4.18-1.64-.44-3.46-2.34-4-2.91-.24,1.6-1.15,7.11-1.84,11.2A12.07,12.07,0,0,1,44.79,38c-.2-4.24-.57-12.22-.75-15.35a16.73,16.73,0,0,1-3-1.89,35.43,35.43,0,0,1-8.16-8.56s-8.95,4.53-14.35,3.64c0,0-2,5-2,7l-.11-.13C16.69,21,17,19.75,17,19.75Z"/><path class="cls-8" d="M28.79.39C35.3-1.07,38.41,2,38.41,2S45.73-.73,51.2,4.91c0,0,5,1.67,5.7,13.86.64,11.2-5.79,4.56-6.83,3.41-.4,2.65-2.64,16-2.64,16l-2,1.5s-.62-13.74-.87-18.08a17.44,17.44,0,0,1-3-1.9,35.25,35.25,0,0,1-8.16-8.55s-8.95,4.52-14.35,3.63c0,0-2,5-2,7,0,0-1.42-1.81-3.23-.73C13.79,21,12.23,4.1,28.79.39Z"/><path class="cls-9" d="M52.57,13.58c-.19-.39-.3-.64-.3-.64S52.39,13.18,52.57,13.58ZM36.43,15a40.72,40.72,0,0,0,5.14,4.71,17.44,17.44,0,0,0,3,1.9c.11,2,.31,5.94.48,9.65,0-2.42.16-6,.86-6.12C47,25,47,29.54,47,29.54s.11-4.13,1.06-3.39c.53.42.63,2.72.62,4.66.59-3.56,1.22-7.35,1.41-8.63,1,1.15,7.47,7.79,6.83-3.41a34.13,34.13,0,0,0-.79-5.85c.21,2.18.24,4.31-.35,4.56-1,.41-2.55-2.55-3.19-3.9.78,1.75,2.72,6.57,1.18,8-1.91,1.79-7.62-4.55-7.62-4.55s1.59,2.85.53,3.59S38.72,17,36.43,15Z"/><path class="cls-9" d="M31.07,10.67a4.46,4.46,0,0,0-3.24.07s5.92-4.16,4.72-5.49a13.46,13.46,0,0,0-3.88-2.47s3.31-.07,5,1.06c0,0,2.62-.1.39-1.5,0,0,2.11-.41,2.32-1.53a6.89,6.89,0,0,1,2,1.23,13.48,13.48,0,0,1,7.89-.15,3.2,3.2,0,0,0-2.47.54c-1.06,1.12,2,4.27,2,4.27s-3.88-1.88-4.65-1.53,3.94,4.16,3.94,4.16S39.67,6.8,39.46,7.5s1.9,2.82,1.9,2.82-6.27-4.09-5.43.92a13.91,13.91,0,0,0,2.18,5.43,31.72,31.72,0,0,1-4.7-5.56,47.2,47.2,0,0,1-6.27,2.52C29.16,12.66,32,11.14,31.07,10.67Z"/><g class="cls-10"><path class="cls-8" d="M44.51,21s-.09-.09-.27-.22l-.73-.54c-.6-.45-1.42-1-2.21-1.65s-1.58-1.23-2.14-1.72-.94-.83-.94-.83a25.83,25.83,0,0,1-2.76-2.88,21.65,21.65,0,0,1-1.58-2.25l-.46-.78a1.19,1.19,0,0,0-.19-.29,1.76,1.76,0,0,0,.13.32c.1.2.24.48.42.81a19.12,19.12,0,0,0,1.51,2.32,24.43,24.43,0,0,0,2.73,3s.37.34,1,.82,1.38,1.1,2.19,1.68,1.65,1.16,2.28,1.57l.76.5A1.07,1.07,0,0,0,44.51,21Z"/></g><g class="cls-10"><path class="cls-8" d="M44.71,21.37a2.75,2.75,0,0,0,.9.71,6.13,6.13,0,0,0,1.06.45,6.41,6.41,0,0,0,1.15.14A2.84,2.84,0,0,0,49,22.51s-.57,0-1.12-.05a6.27,6.27,0,0,1-1.08-.23,5.91,5.91,0,0,1-1-.35C45.2,21.66,44.74,21.34,44.71,21.37Z"/></g><g class="cls-10"><path class="cls-8" d="M38.37,8.05s-.12-.31-.34-.56A3.77,3.77,0,0,0,37.52,7a3.28,3.28,0,0,0-.61-.25,1.22,1.22,0,0,0-.66-.07,3.23,3.23,0,0,0,.58.26,4.41,4.41,0,0,1,.53.32,5,5,0,0,1,.52.34C38.13,7.84,38.34,8.08,38.37,8.05Z"/></g><g class="cls-10"><path class="cls-8" d="M47.58,13.11a1.76,1.76,0,0,0-.09-.29,5.45,5.45,0,0,0-.32-.73,9.17,9.17,0,0,0-1.37-2A12.06,12.06,0,0,0,44,8.43c-.53-.4-.91-.63-.91-.63s-.37-.24-1-.55a24.22,24.22,0,0,0-2.19-1,9.57,9.57,0,0,0-2.31-.74,2,2,0,0,0-.8.08c-.19.07-.28.14-.27.15a2.1,2.1,0,0,1,1.06-.11,9.48,9.48,0,0,1,2.23.82A23.44,23.44,0,0,1,42,7.49c.57.32.93.56.93.56s.37.23.9.61a12.65,12.65,0,0,1,1.8,1.57,10.43,10.43,0,0,1,1.42,1.91C47.39,12.71,47.55,13.12,47.58,13.11Z"/></g><g class="cls-10"><path class="cls-8" d="M55.18,26.21a8.51,8.51,0,0,0-.7-.56c-.42-.32-1-.77-1.51-1.23-1.08-.93-2.06-1.94-2.06-1.94s-1-1-1.94-2.08c-.46-.54-.91-1.09-1.23-1.51a6.53,6.53,0,0,0-.56-.7,5,5,0,0,0,.46.76c.3.45.72,1,1.16,1.59.89,1.12,1.89,2.15,1.89,2.15s1,1,2.14,1.89c.56.45,1.14.87,1.59,1.17A4.12,4.12,0,0,0,55.18,26.21Z"/></g><g class="cls-10"><path class="cls-8" d="M52.72,22.07a7.86,7.86,0,0,0,.71,1l.73,1,.76.95a7.09,7.09,0,0,0,.79.94,5.93,5.93,0,0,0-.62-1.07c-.33-.51-.7-1-.7-1s-.38-.48-.79-.93A4.77,4.77,0,0,0,52.72,22.07Z"/></g><g class="cls-10"><path class="cls-8" d="M48,8.41a2.57,2.57,0,0,0,.25.3l.7.74c.58.61,1.34,1.43,2,2.3a17.65,17.65,0,0,1,1.73,2.53,13.11,13.11,0,0,1,.61,1.25s.23.5.51,1.29.58,1.87.88,2.95l.85,3,.29,1a1.5,1.5,0,0,0,.13.36,2.47,2.47,0,0,0-.07-.38l-.24-1c-.2-.82-.48-1.9-.75-3s-.56-2.18-.83-3-.5-1.32-.5-1.32A10.55,10.55,0,0,0,53,14.14a17.51,17.51,0,0,0-1.8-2.53c-.73-.86-1.52-1.66-2.13-2.25l-.73-.7A1.85,1.85,0,0,0,48,8.41Z"/></g><g class="cls-10"><path class="cls-8" d="M46.22,7.15a2.94,2.94,0,0,0-.42-.45c-.27-.26-.63-.59-1-.92s-.77-.62-1.07-.84-.52-.35-.52-.35a9.48,9.48,0,0,0-1.82-.82,4.94,4.94,0,0,0-2-.26,3,3,0,0,0,.61.11A7.42,7.42,0,0,1,41.31,4,9.48,9.48,0,0,1,43,4.85,16.49,16.49,0,0,1,44.66,6C45.44,6.55,46.19,7.18,46.22,7.15Z"/></g><g class="cls-10"><path class="cls-8" d="M53.11,9.81s.35.74.68,1.48.6,1.49.6,1.49.31.75.57,1.52.45,1.56.49,1.55a7.16,7.16,0,0,0-.29-1.61c-.2-.79-.48-1.57-.48-1.57s-.32-.76-.7-1.48A7.77,7.77,0,0,0,53.11,9.81Z"/></g><g class="cls-10"><path class="cls-8" d="M46.24,42.8c.08,0-.45-10.44-.45-10.44S45.12,21.94,45,22s.46,10.43.46,10.43S46.16,42.8,46.24,42.8Z"/></g><g class="cls-10"><path class="cls-8" d="M47.82,39.73a1.76,1.76,0,0,0,0-.37c0-.24,0-.57.06-1,0-.81.12-1.89.21-3,.17-2.16.42-4.3.42-4.3s.21-2.15.51-4.29c.15-1.07.31-2.14.43-2.94.06-.4.12-.74.15-1a2.52,2.52,0,0,0,0-.37,1.39,1.39,0,0,0-.1.36c-.05.23-.12.56-.2,1-.16.79-.36,1.86-.53,2.92-.35,2.14-.6,4.29-.6,4.29s-.22,2.16-.34,4.32c-.05,1.08-.09,2.16-.11,3,0,.4,0,.74,0,1A2.21,2.21,0,0,0,47.82,39.73Z"/></g><g class="cls-10"><path class="cls-8" d="M47.05,30.19a15.2,15.2,0,0,0,.05-1.71l0-1.7v-1.7a12.87,12.87,0,0,0,0-1.71,10.89,10.89,0,0,0-.19,1.7c-.06.85-.08,1.71-.08,1.71s0,.85.06,1.71A10.37,10.37,0,0,0,47.05,30.19Z"/></g><g class="cls-10"><path class="cls-8" d="M32.35,1.71a6.32,6.32,0,0,0,.88.29,6.64,6.64,0,0,1,.84.34,8.79,8.79,0,0,1,.82.39,7.65,7.65,0,0,0,.8.46A2.34,2.34,0,0,0,35,2.55a5.4,5.4,0,0,0-.81-.48,6.2,6.2,0,0,0-.9-.28A2.56,2.56,0,0,0,32.35,1.71Z"/></g><g class="cls-10"><path class="cls-8" d="M25.42,3.05a7.58,7.58,0,0,0,.77-.1,11.72,11.72,0,0,1,1.68-.11A12.61,12.61,0,0,1,29.54,3c.45.07.75.14.75.14s.3.06.74.18a12.58,12.58,0,0,1,1.58.55,13.26,13.26,0,0,1,1.49.8,5.25,5.25,0,0,0,.66.4,3.83,3.83,0,0,0-.6-.5,9.82,9.82,0,0,0-1.46-.89A12.1,12.1,0,0,0,31.11,3c-.45-.13-.76-.2-.76-.2s-.31-.07-.77-.13a11.21,11.21,0,0,0-1.71-.08,10.74,10.74,0,0,0-1.7.2A3.11,3.11,0,0,0,25.42,3.05Z"/></g><g class="cls-10"><path class="cls-8" d="M15.43,13.08a1.45,1.45,0,0,0,.33.22,8.39,8.39,0,0,0,1,.47,11.14,11.14,0,0,0,3.12.76,18,18,0,0,0,3.22,0c.87-.08,1.45-.17,1.45-.17s.58-.09,1.44-.26a24.36,24.36,0,0,0,3.1-.81,11.56,11.56,0,0,0,2.84-1.52c.35-.25.64-.47.84-.63l.31-.26a1.85,1.85,0,0,0-.34.21l-.88.58A11.74,11.74,0,0,1,29,13.06a22.27,22.27,0,0,1-3.09.74C25,14,24.45,14,24.45,14s-.57.1-1.43.19a17.85,17.85,0,0,1-3.17.08,11.34,11.34,0,0,1-3.1-.65C15.94,13.36,15.44,13.05,15.43,13.08Z"/></g><g class="cls-10"><path class="cls-8" d="M14.67,16.39a2.72,2.72,0,0,0,1.26.32,4.79,4.79,0,0,0,1.31-.15A4.68,4.68,0,0,0,18.42,16a2.91,2.91,0,0,0,.88-1s-.46.45-1,.77a4.63,4.63,0,0,1-1.15.48,4.79,4.79,0,0,1-1.22.22A11.8,11.8,0,0,1,14.67,16.39Z"/></g><g class="cls-10"><path class="cls-8" d="M15.82,20.56a4.46,4.46,0,0,0,.35-.73c.17-.36.37-.7.37-.7s.16-.36.36-.71a4.11,4.11,0,0,0,.39-.7s-.32.26-.57.58a6.67,6.67,0,0,0-.45.69,6.07,6.07,0,0,0-.3.76A2.24,2.24,0,0,0,15.82,20.56Z"/></g><g class="cls-10"><path class="cls-8" d="M23.64,5.23s.72-.11,1.44-.1a8.24,8.24,0,0,1,1.42.12,8.79,8.79,0,0,1,1.38.33c.68.22,1.31.58,1.33.55A4,4,0,0,0,28,5.38,7.41,7.41,0,0,0,26.54,5a7.29,7.29,0,0,0-1.47,0A4.29,4.29,0,0,0,23.64,5.23Z"/></g><g class="cls-10"><path class="cls-8" d="M21.17,12.12a.85.85,0,0,0,.27,0c.17,0,.41,0,.7,0a17.12,17.12,0,0,0,2.13-.24,19.54,19.54,0,0,0,3-.78l.25-.1c.16-.06.39-.14.66-.26a19,19,0,0,0,1.92-1,13.74,13.74,0,0,0,1.8-1.17,1.56,1.56,0,0,0,.59-.77,2.82,2.82,0,0,1-.66.68A18.53,18.53,0,0,1,30,9.6a19.06,19.06,0,0,1-1.93.88l-.65.25-.25.09a20.73,20.73,0,0,1-3,.85,21,21,0,0,1-2.1.34C21.56,12.07,21.17,12.1,21.17,12.12Z"/></g><g class="cls-10"><path class="cls-8" d="M15.74,10.75s.62-.35,1.24-.65a13,13,0,0,1,1.29-.52,12.81,12.81,0,0,1,1.31-.44c.67-.19,1.36-.28,1.36-.33a4.8,4.8,0,0,0-1.41.12,11,11,0,0,0-1.37.36,10.78,10.78,0,0,0-1.28.62A5,5,0,0,0,15.74,10.75Z"/></g><path class="cls-9" d="M16.05,18.45c.58-1.09-1.67-1.73-1.67-1.73a6,6,0,0,0,2.25-.7c1.47-.71-1-2.44-1.09-2.64l3.59,1,.16.36a1.6,1.6,0,0,1-.23,0s-2,5-2,7c0,0-1.42-1.81-3.23-.73a19,19,0,0,1,0-2.34C14.62,19.09,15.7,19.12,16.05,18.45Z"/><g class="cls-11"><path class="cls-8" d="M45.07,19.48c-1.51.4-3.25-1.14-4.35-2-1.34-1.07-2.71-2.17-2.82-4a.51.51,0,0,1,.63-.48c1.61.3,2.6,1.55,3.79,2.56,1,.86,2.87,1.83,3.19,3.17a.64.64,0,0,1-.44.77Z"/></g><g class="cls-11"><path class="cls-8" d="M44.9,16.16a1.79,1.79,0,0,1-1-.42,2.73,2.73,0,0,1-.82-.77c-.12-.16.08-.39.25-.33a3,3,0,0,1,1,.54,1.76,1.76,0,0,1,.7.78.16.16,0,0,1-.15.2Z"/></g><g class="cls-11"><path class="cls-8" d="M50.37,20c-1.19-1.71-2.43-3.39-3.73-5-1.08-1.36-2.37-2.54-3.42-3.92-.25-.33.17-.76.51-.66,1.91.51,3.19,2.23,4.34,3.73a17.52,17.52,0,0,1,3,5.55c.14.47-.49.68-.75.32Z"/></g><g class="cls-11"><path class="cls-8" d="M51.89,16.76c-.35-.19-.4-.76-.56-1.1s-.46-.82-.62-1.27c-.08-.22.22-.37.38-.22a3.9,3.9,0,0,1,.74,1.28c.14.36.46.89.25,1.26a.14.14,0,0,1-.19.05Z"/></g><g class="cls-11"><path class="cls-8" d="M49.62,12.54c-1.06-.45-1.93-1.7-2.71-2.52s-2-1.7-2.47-2.82c0-.12.09-.22.19-.19,1.17.28,2.17,1.47,3,2.31s2,2,2.12,3.11c0,.05,0,.14-.11.11Z"/></g><g class="cls-11"><path class="cls-8" d="M54.06,13.83c-1.23-1.58-2.32-3.24-3.69-4.72s-3.15-2.34-4.09-4a.64.64,0,0,1,.54-1c2.12.25,3.67,2.14,4.92,3.73a12.35,12.35,0,0,1,2.63,5.79.18.18,0,0,1-.31.13Z"/></g><g class="cls-11"><path class="cls-8" d="M53.32,8.23l-.63-.76c-.08-.08,0-.21.12-.12l.67.72c.1.11-.07.27-.16.16Z"/></g><g class="cls-11"><path class="cls-8" d="M46.31,29.31a17.61,17.61,0,0,1,.39,6.51c0,.23-.4.33-.44.06a17.92,17.92,0,0,1-.08-6.57.07.07,0,0,1,.13,0Z"/></g><g class="cls-11"><path class="cls-8" d="M29,11.24c-.8,1.41-2.39,1.8-3.9,2.08a14.07,14.07,0,0,1-6.58,0,.43.43,0,0,1,.11-.84c3.57-.22,7,.31,10.28-1.37a.07.07,0,0,1,.09.09Z"/></g><g class="cls-11"><path class="cls-8" d="M31.36,5.29A14.25,14.25,0,0,1,29,4.53c-.14-.07,0-.29.1-.25a12.4,12.4,0,0,1,2.34.93c.05,0,0,.09,0,.08Z"/></g><g class="cls-11"><path class="cls-8" d="M27.55,4a21.61,21.61,0,0,1-2.67.31,6.1,6.1,0,0,1-2.4.12.19.19,0,0,1-.05-.33A4.51,4.51,0,0,1,25,3.62,6.72,6.72,0,0,1,27.55,4s0,0,0,0Z"/></g><g class="cls-11"><path class="cls-8" d="M28.62,8.33c-1.06,1.14-3,1.59-4.42,2a10.85,10.85,0,0,1-4.91.62.57.57,0,0,1-.14-1,18.49,18.49,0,0,1,4.58-1.31c1.47-.34,3.12-1.08,4.63-.92a.36.36,0,0,1,.26.61Z"/></g><g class="cls-11"><path class="cls-8" d="M23,7.13c-.29.33-.79.33-1.2.4a3.83,3.83,0,0,1-1.35,0,.16.16,0,0,1,0-.29,3.68,3.68,0,0,1,1.3-.34A2,2,0,0,1,23,7a.1.1,0,0,1,0,.15Z"/></g><g class="cls-11"><path class="cls-8" d="M32.07,2.32a3.32,3.32,0,0,1-1.37-.27c-.55-.13-1.06-.35-1.6-.52-.09,0-.11-.2,0-.22a4.23,4.23,0,0,1,1.7,0A2.41,2.41,0,0,1,32.22,2a.25.25,0,0,1-.15.36Z"/></g><path class="cls-8" d="M21,24.7a3.24,3.24,0,0,0-1.62.89,4.39,4.39,0,0,0-.48.63l0,.08v.07l0,.12s-.1,0-.16,0a1.84,1.84,0,0,1-.31-.22,5.81,5.81,0,0,1-.54-.45,5.9,5.9,0,0,1-.42-.44,3.35,3.35,0,0,0,.25.57,3.72,3.72,0,0,0,.4.62,2.32,2.32,0,0,0,.36.4,4.85,4.85,0,0,0,.63.52l.25-.39.14-.21.08-.12,0-.05a3.71,3.71,0,0,1,.45-.43,3,3,0,0,1,1.21-.58A2.66,2.66,0,0,1,23.78,27a4.43,4.43,0,0,1,.5.95c.09.25.13.39.13.39a3.53,3.53,0,0,0,0-.42,3.67,3.67,0,0,0-.2-1.15,3.5,3.5,0,0,0-1-1.48A2.66,2.66,0,0,0,21,24.7Z"/><path class="cls-8" d="M38.07,25.74a3.21,3.21,0,0,1,1.5,1.08,4,4,0,0,1,.4.68l0,.08v.2s.11,0,.17,0a2.34,2.34,0,0,0,.34-.18,5.77,5.77,0,0,0,.58-.39c.31-.23.48-.38.48-.38a3.71,3.71,0,0,1-.32.53,4.29,4.29,0,0,1-.48.58,2.64,2.64,0,0,1-.4.35c-.2.14-.44.3-.69.44l-.2-.42-.12-.23-.06-.13,0-.05a4.31,4.31,0,0,0-.39-.48,3,3,0,0,0-1.13-.72,2.66,2.66,0,0,0-2.78,1,4.56,4.56,0,0,0-.61.88,3.28,3.28,0,0,0-.17.37,2.11,2.11,0,0,1,0-.41,3.24,3.24,0,0,1,.34-1.12A3.36,3.36,0,0,1,35.76,26,2.63,2.63,0,0,1,38.07,25.74Z"/><path class="cls-14" d="M24.22,32.2h.3l.21,0h0a3.08,3.08,0,0,1,2.33,1.16s.25-.76,4-.16l.68.12.31,0a5.86,5.86,0,0,0,.79.05,5,5,0,0,0,.61-.06,4.81,4.81,0,0,1,1.4-.18l-.05,0c0,.13-1.56,4.18-5.18,4.7a4.47,4.47,0,0,1-2.5-.2,2.26,2.26,0,0,1-.55-.35,1.61,1.61,0,0,1-.44-.64,1,1,0,0,1,.09-1c.32-.26.23-1.33.16-1.88A4.81,4.81,0,0,1,25,33.19a2.35,2.35,0,0,1-.84-1Z"/><path class="cls-21" d="M26.56,33.16c.06.69.08,1.66-.21,1.93-.45.42-.29,3.23,3.51,2.58,2.9-.5,4.5-3.52,5.09-4.92A12,12,0,0,1,26.56,33.16Z"/><path class="cls-22" d="M33.15,33.38c-.65.83-1.24,1.7-1.24,1.7s1.11.55-.74,1.84-4.43.39-4.77-.78.4-1.44.78-1.26c.21.09.46-.66.49-1.42a10.06,10.06,0,0,1-1.11-.3c.06.69.08,1.66-.21,1.93-.45.42-.29,3.23,3.51,2.58,2.9-.5,4.5-3.52,5.09-4.92A9.61,9.61,0,0,1,33.15,33.38Z"/><path class="cls-15" d="M26.92,33.26a.57.57,0,0,0,0,.13c0,.78-.11,1.63.6,2.18a3.45,3.45,0,0,0,2.75.4A6,6,0,0,0,34,33.13,12.14,12.14,0,0,1,26.92,33.26Z"/><path class="cls-31" d="M29.06,36.84c0,.19.33.32.69.28s.62-.24.6-.44-.33-.32-.69-.28S29,36.64,29.06,36.84Z"/><path class="cls-19" d="M26.93,33.6c0,.17,0,.35,0,.52a7.48,7.48,0,0,0,3.66.42s0,.33-.2.41-1.66.2-1.66.2a3.68,3.68,0,0,0,1.9.08,3,3,0,0,1-3.2.25l.09.09a3.45,3.45,0,0,0,2.75.4A6,6,0,0,0,34,33.13a12.18,12.18,0,0,1-6.77.22A1.5,1.5,0,0,0,26.93,33.6Z"/><path class="cls-21" d="M35,33a13.85,13.85,0,0,1-7.33,1.22C24.47,33.63,24,31.8,24,31.8s2.32,0,3,1.42c0,0,.3-1,4.83-.08C33.55,33.51,34.12,32.84,35,33Z"/><path class="cls-22" d="M35,33a13.85,13.85,0,0,1-7.33,1.22C24.47,33.63,24,31.8,24,31.8s2.32,0,3,1.42c0,0,.3-1,4.83-.08C33.55,33.51,34.12,32.84,35,33Z"/><path class="cls-22" d="M24.55,31.85c.17.73,1.59,2.19,4.19,1.93,1.64-.17,2.16-.5,2.29-.78l.74.14c1.78.37,2.35-.3,3.21-.18a13.85,13.85,0,0,1-7.33,1.22C24.47,33.63,24,31.8,24,31.8A4.34,4.34,0,0,1,24.55,31.85Z"/><path class="cls-22" d="M40.41,45.71c-3,1.16-9.8,9.75-10.41,9.79s-3.69-9.33-2.24-11a5,5,0,0,0-1.1-.17,3.56,3.56,0,0,0-1.5.51,6.12,6.12,0,0,0-1.36,1.62c.49,2.54,2.26,10.13,6,10.51,4.22.42,12-8.58,15.45-8.89A30.56,30.56,0,0,0,40.41,45.71Z"/><path class="cls-3" d="M23.26,45.22S24.9,56.1,29.42,56.55s13.12-9.88,16.11-8.81c0,0-2.3-2.48-4.87-2.61s-10.39,9.88-11,9.92-3.7-9.32-2.24-11C27.37,44.09,24.54,43.24,23.26,45.22Z"/><path class="cls-22" d="M31.92,57.32a2.5,2.5,0,1,1-2.5-2.5A2.5,2.5,0,0,1,31.92,57.32Z"/><g class="cls-6"><g class="cls-28"><path class="cls-3" d="M33.19,52.7a33.05,33.05,0,0,1,2.68-2.42l-2.54,2.56-2.56,2.53A34.37,34.37,0,0,1,33.19,52.7Z"/></g><g class="cls-28"><path class="cls-3" d="M35.52,52.17A15.37,15.37,0,0,1,37.27,51a7.2,7.2,0,0,1,.83-.42l.39-.14a5.62,5.62,0,0,1,.55-.15l-.3.35-.2.22-.36.35c-.23.21-.44.37-.61.5-.35.26-.55.38-.55.38s.19-.13.52-.41c.17-.14.36-.31.58-.53s.23-.23.34-.36l.16-.19.07-.09-.16.06a2.87,2.87,0,0,0-.37.15,7,7,0,0,0-.8.43c-.55.33-1.13.75-1.73,1.19C32.82,54.4,30.48,56,30.48,56S32.7,54.24,35.52,52.17Z"/></g><g class="cls-28"><path class="cls-3" d="M41.26,45.87a9.24,9.24,0,0,0-.94.35l-.4.17s.13-.11.35-.26a3.44,3.44,0,0,1,.94-.45,2.24,2.24,0,0,1,1-.06,1.6,1.6,0,0,1,.41.14A3.08,3.08,0,0,0,41.26,45.87Z"/></g><g class="cls-28"><path class="cls-3" d="M43.09,46.32a2.76,2.76,0,0,0-.55.1.71.71,0,0,1,1.1-.08A2.16,2.16,0,0,0,43.09,46.32Z"/></g><g class="cls-28"><path class="cls-3" d="M27,53.89a4.71,4.71,0,0,1-.64-1.07s.38.42.8.94.74,1,.74,1A4.37,4.37,0,0,1,27,53.89Z"/></g><g class="cls-28"><path class="cls-3" d="M26.94,52.08A12.67,12.67,0,0,1,26,49a25,25,0,0,0,1.12,3,27,27,0,0,0,1.46,2.81A13,13,0,0,1,26.94,52.08Z"/></g><g class="cls-28"><path class="cls-3" d="M24.33,45.61c0,.39.06.75.09,1l0,.43a3.5,3.5,0,0,1-.15-.41,4,4,0,0,1-.19-1,2.32,2.32,0,0,1,.18-1,1.3,1.3,0,0,1,.21-.37A3.35,3.35,0,0,0,24.33,45.61Z"/></g><g class="cls-28"><path class="cls-3" d="M25.4,45.61c.09.74.17,1.34.17,1.34a4.29,4.29,0,0,1-.37-1.31,4.44,4.44,0,0,1,.05-1.37S25.32,44.88,25.4,45.61Z"/></g></g><path class="cls-5" d="M39.46,45.53l.95.18c.75.11.92,1.36.92,1.36s1.18-.2,2.06-.29c.36,0,.77.36.86,1a2,2,0,0,1,1.28-.06s-2.3-2.48-4.87-2.61A2.31,2.31,0,0,0,39.46,45.53Z"/><path class="cls-5" d="M25.58,44.71c.58-.87,1.44.15,1.47.19a1.64,1.64,0,0,1,.32-.81s-2.83-.85-4.11,1.13l.11.63A3.15,3.15,0,0,1,25.58,44.71Z"/><path class="cls-5" d="M29.42,56.55c2.48.25,6.18-2.74,9.51-5.32a.77.77,0,0,0-.19-.6c-.92-.87-4.21,2.94-5,2.64-.43-.16.33-1.13,1.12-2C34,52.09,33,53,32.66,53s-.08-.58.24-1.32a26,26,0,0,1-3.29,3.39c-.35,0-1.34-2.51-2-5.18a3.62,3.62,0,0,1-.06,1.63c-.4.39-1.87-2.76-2-3s.79,2.75,0,3.15c-.26.13-.57-.22-.88-.73C25.68,53.59,27.2,56.33,29.42,56.55Z"/><path class="cls-5" d="M36.21,49.93s-.68.63-1.34,1.35C35.6,50.58,36.21,49.93,36.21,49.93Z"/><path class="cls-32" d="M31.53,56.92a2.5,2.5,0,1,1-2.5-2.5A2.5,2.5,0,0,1,31.53,56.92Z"/><path class="cls-33" d="M30.25,54.75a2.48,2.48,0,0,1-3.71,2s0,.09,0,.13a2.5,2.5,0,1,0,3.72-2.17Z"/><path class="cls-34" d="M31,55.45a2.36,2.36,0,0,1,.13.75,2.5,2.5,0,0,1-4.52,1.47A2.5,2.5,0,1,0,31,55.45Z"/></g></g></g></svg>