<svg xmlns="http://www.w3.org/2000/svg" viewBox="0 0 98.04 194.83"><defs><style>.cls-1{isolation:isolate;}.cls-2{fill:#d4ecd4;}.cls-10,.cls-12,.cls-15,.cls-17,.cls-2,.cls-21,.cls-23,.cls-24,.cls-25,.cls-27,.cls-28,.cls-31,.cls-33,.cls-34,.cls-4,.cls-8,.cls-9{mix-blend-mode:multiply;}.cls-27,.cls-28,.cls-29,.cls-3,.cls-4{fill:#6f3a1e;}.cls-4{opacity:0.3;}.cls-12,.cls-13,.cls-15,.cls-18,.cls-24,.cls-27,.cls-31,.cls-5{opacity:0.5;}.cls-13,.cls-18,.cls-22,.cls-26,.cls-29,.cls-30,.cls-35,.cls-5,.cls-6{mix-blend-mode:screen;}.cls-17,.cls-33,.cls-6{opacity:0.45;}.cls-7{fill:#fff;}.cls-8{opacity:0.34;}.cls-11,.cls-12,.cls-9{fill:#d3dbfd;}.cls-13,.cls-19,.cls-23{fill:#294168;}.cls-14,.cls-15,.cls-18,.cls-30{fill:#f15e6b;}.cls-16,.cls-17,.cls-25,.cls-26,.cls-31{fill:#e5b678;}.cls-20,.cls-21{fill:#88ac76;}.cls-21,.cls-35{opacity:0.35;}.cls-23,.cls-28,.cls-34{opacity:0.25;}.cls-32,.cls-33,.cls-34,.cls-35{fill:#3f4349;}</style></defs><title>full_speechРесурс 3</title><g class="cls-1"><g id="Слой_2" data-name="Слой 2"><g id="OBJECTS"><ellipse class="cls-2" cx="49.02" cy="183" rx="49.02" ry="11.82"/><path class="cls-3" d="M86.65,21.25s-1,24.54-6,31.44-22.77,9-31.15.59S42.86,19.63,43.3,18.75,74.89,7.73,86.65,21.25Z"/><path class="cls-4" d="M77.29,37.2c.21-2.4.53-8.73,1.09-10.36a18.52,18.52,0,0,1,2-3.94s3.86-.59,6.23-1c-.08,1.41-.29,5.12-.77,9.56-.12-.23-.27-.38-.46-.36-.85.08-2.7,6.17-2.7,6.17s.7-5.47-.31-5.47S80.76,34,80.76,34s-.46-1.62-1.62-.77C78.35,33.8,77.61,36,77.29,37.2Z"/><path class="cls-4" d="M77.29,37.2a3.67,3.67,0,0,1-.14.94C77.08,38.18,77.14,37.79,77.29,37.2Z"/><path class="cls-4" d="M44.9,37c.07.39.12.64.12.64S45,37.34,44.9,37Z"/><path class="cls-4" d="M43.3,18.75c0-.05.13-.12.31-.21.76.77,1.64,1.1,2.06.33a1.19,1.19,0,0,0,0-1.13c1.49-.5,3.59-1.1,6.08-1.66L75,36.54s-.12,7.39.9,8.6,4-5.17,4-5.17-3.13,9-2.11,10,3.37-2.16,3.37-2.16-1.38,3.37-.6,3.49c.39.06,1.58-2.3,2.66-4.65a19.92,19.92,0,0,1-2.57,6,11,11,0,0,1-3,2.71,15.37,15.37,0,0,1-1.88.13c-2.37,0-17.27-.76-24.57-.76a15.38,15.38,0,0,1-1.74-1.49,18,18,0,0,1-3.95-6.86c3.81,4.74,5.21,3.56,5.56,2.08s-2.22-5.65-2.22-5.65,3,3,3.54,1.8-6.37-9.79-7.21-10c-.59-.13-.44,1.38-.29,2.29-.27-1.41-.92-4.61-1.39-4.52-.16,0-.26.84-.33,2C42.47,26.48,43.07,19.22,43.3,18.75Z"/><g class="cls-5"><path class="cls-3" d="M80.35,45.16a2.19,2.19,0,0,0,.18-.38c.1-.24.25-.59.41-1,.33-.84.73-2,1.09-3.13C82.77,38.34,83.3,36,83.3,36s.5-2.36.8-4.75c.15-1.2.26-2.4.32-3.3,0-.45,0-.83,0-1.09a2.26,2.26,0,0,0,0-.42,2.5,2.5,0,0,0-.06.41c0,.26-.06.64-.11,1.09-.09.89-.24,2.09-.41,3.28-.35,2.38-.89,4.72-.89,4.72s-.49,2.35-1.17,4.66c-.34,1.15-.71,2.3-1,3.15l-.36,1A2.67,2.67,0,0,0,80.35,45.16Z"/></g><g class="cls-5"><path class="cls-3" d="M76.2,47.89a1.44,1.44,0,0,0,.17-.22c.09-.14.23-.34.38-.59.31-.5.7-1.17,1.07-1.86.73-1.38,1.31-2.84,1.31-2.84a26.94,26.94,0,0,0,.9-3c.17-.76.31-1.53.38-2.11,0-.29,0-.54.06-.71a.8.8,0,0,0,0-.27,8,8,0,0,0-.19,1c-.1.57-.27,1.33-.46,2.08a29,29,0,0,1-1,2.94s-.54,1.45-1.22,2.85c-.34.7-.7,1.39-1,1.9A7,7,0,0,0,76.2,47.89Z"/></g><g class="cls-5"><path class="cls-3" d="M70.67,45.5a8.37,8.37,0,0,0,.08-1.18c0-.59.1-1.18.1-1.18s0-.58.09-1.17a8.75,8.75,0,0,0,.11-1.17,4.9,4.9,0,0,0-.32,1.14c-.11.59-.18,1.18-.18,1.18s0,.6,0,1.19A4.86,4.86,0,0,0,70.67,45.5Z"/></g><g class="cls-5"><path class="cls-3" d="M48.94,46.05a1.88,1.88,0,0,0-.15-.31c-.11-.2-.27-.46-.45-.8-.36-.66-.82-1.55-1.24-2.46s-.78-1.85-1-2.56-.41-1.19-.41-1.19-.16-.47-.38-1.19-.46-1.69-.68-2.67-.37-2-.46-2.73c-.06-.37-.09-.68-.12-.9A1.66,1.66,0,0,0,44,30.9a1.48,1.48,0,0,0,0,.34c0,.22,0,.54.06.92.06.75.2,1.75.37,2.75s.42,2,.63,2.7.36,1.22.36,1.22.16.48.43,1.19.66,1.64,1.1,2.55.93,1.79,1.33,2.43c.19.33.37.59.49.77A1.75,1.75,0,0,0,48.94,46.05Z"/></g><g class="cls-5"><path class="cls-3" d="M51,45.39s-.56-.5-1-1.09A7.47,7.47,0,0,1,49.18,43a7.64,7.64,0,0,1-.57-1.37c-.22-.72-.26-1.47-.3-1.47a4.06,4.06,0,0,0,.09,1.52,6.91,6.91,0,0,0,.51,1.46,6.65,6.65,0,0,0,.9,1.25A3.89,3.89,0,0,0,51,45.39Z"/></g><g class="cls-5"><path class="cls-3" d="M52.06,42.79a1.45,1.45,0,0,0,.25.55c.16.25.34.49.34.49s.21.21.44.4.49.35.51.32-.17-.25-.36-.47l-.36-.45-.4-.42C52.28,43,52.1,42.77,52.06,42.79Z"/></g><g class="cls-5"><path class="cls-3" d="M46,45.6a6.23,6.23,0,0,0,.28,1.72,8.14,8.14,0,0,0,.42,1.14A3.94,3.94,0,0,0,47,49s.11.19.3.46a9.16,9.16,0,0,0,.77.93,8.22,8.22,0,0,0,1.27,1.19s-.57-.66-1.11-1.33a10.29,10.29,0,0,1-.7-1c-.17-.27-.27-.45-.27-.45a4.3,4.3,0,0,1-.26-.47,9.4,9.4,0,0,1-.47-1.07C46.23,46.45,46.07,45.59,46,45.6Z"/></g><g class="cls-6"><path class="cls-3" d="M84.89,35.92c-.3,3.38-.7,7.79-2.87,10.53a.3.3,0,0,1-.5-.21,29.1,29.1,0,0,1,1.27-4.87c.46-1.85.93-3.68,1.26-5.56.09-.47.89-.37.84.11Z"/></g><g class="cls-6"><path class="cls-3" d="M82.21,34.83A1.31,1.31,0,0,1,82.4,36a2.84,2.84,0,0,1-.5,1.33.37.37,0,0,1-.62-.26,4.22,4.22,0,0,1,.29-1.3,1.42,1.42,0,0,1,.59-1Z"/></g><g class="cls-6"><path class="cls-3" d="M80.81,39.23A7.79,7.79,0,0,1,80.2,42c0,.09-.18,0-.16-.07.19-.93.51-1.82.73-2.75,0,0,0,0,0,0Z"/></g><g class="cls-6"><path class="cls-3" d="M79.41,34.29a4,4,0,0,1-.13,2.26,12.29,12.29,0,0,1-.84,2.85c0,.13-.25.06-.25-.07a11.35,11.35,0,0,1,.29-2.79c.18-.75.2-1.73.79-2.27a.1.1,0,0,1,.14,0Z"/></g><g class="cls-6"><path class="cls-3" d="M45.84,36.92a1.89,1.89,0,0,1,.6.85,2.61,2.61,0,0,1,.19,1.14.25.25,0,0,1-.46.12,4.38,4.38,0,0,1-.38-1,2.85,2.85,0,0,1-.14-.5c0-.17,0-.36,0-.54a.09.09,0,0,1,.16-.06Z"/></g><g class="cls-6"><path class="cls-3" d="M44.32,37.28c1.64,3.2,3.21,6.56,4.61,9.86.14.35-.26.77-.57.44A16,16,0,0,1,44.2,37.31a.06.06,0,0,1,.12,0Z"/></g><g class="cls-5"><path class="cls-3" d="M79.79,50.53a10.74,10.74,0,0,0,.89-1.44,12,12,0,0,0,.61-1.58A10.67,10.67,0,0,0,80.41,49,12.05,12.05,0,0,0,79.79,50.53Z"/></g><path class="cls-7" d="M45.15,68.24a2.18,2.18,0,0,1,.09-.23C47.1,64.75,56.57,55,56.57,55s4.81-5.67-1.93-9.77c0,0-15.28,13.37-18.26,21.33a5.41,5.41,0,0,0-.33,1.73Z"/><g class="cls-8"><path class="cls-9" d="M57.58,49.1a6.3,6.3,0,0,1,0,1.78,11.43,11.43,0,0,1-.32,1.76,10.56,10.56,0,0,1-.7,1.65,6,6,0,0,1-1,1.46s.45-.76.81-1.56a14.61,14.61,0,0,0,1-3.34C57.54,50,57.54,49.1,57.58,49.1Z"/><g class="cls-10"><path class="cls-11" d="M58.36,52.35s0,.22-.17.78a5.47,5.47,0,0,1-.49,1.06,5.64,5.64,0,0,1-.78.88,3,3,0,0,1-1,.61s.45-.36.83-.77a6.11,6.11,0,0,0,.68-.88,6.35,6.35,0,0,0,.54-1C58.22,52.54,58.32,52.34,58.36,52.35Z"/></g><path class="cls-9" d="M42.53,67.41l.38.08.38.09a3.89,3.89,0,0,1,.8.33,2.89,2.89,0,0,1,.48.33h.21a3,3,0,0,0-.58-.51A4.25,4.25,0,0,0,43,67.19a4.07,4.07,0,0,0-1.35,0,2.57,2.57,0,0,0-1.22.5,7.67,7.67,0,0,1,1.25-.29A4.78,4.78,0,0,1,42.53,67.41Z"/></g><path class="cls-12" d="M45.15,68.24a2.18,2.18,0,0,1,.09-.23C47.1,64.75,56.57,55,56.57,55s3.48-5.22.32-9.4c.07,1.75-.37,6-1.84,8.15-2.47,3.64-11.16,13.18-13,11.6-1.2-1-.12-5.44.76-8.31-2.87,3.3-5.41,6.74-6.45,9.52a5.41,5.41,0,0,0-.33,1.73Z"/><path class="cls-13" d="M56.35,47.1a1.66,1.66,0,0,0-.08-.53,1.77,1.77,0,0,0-.35-.4c-.21-.17-.46-.26-.5-.19s.08.26.17.46a3.07,3.07,0,0,1,.13.39,2.3,2.3,0,0,1,.21.35c.1.19.16.42.25.42S56.35,47.37,56.35,47.1Z"/><path class="cls-14" d="M92.78,169.79l.12.17c.61.92,3.38,5.11,3.06,5.87s-3.6-4.63-3.6-4.63"/><path class="cls-15" d="M92.78,169.79l.12.17c.61.92,3.38,5.11,3.06,5.87s-3.6-4.63-3.6-4.63"/><path class="cls-16" d="M71.92,120.44l-1.68,14.19s8.68.67,20.52,32.57c.41,1.11,1.75,1.88,2.25,2.94a14.61,14.61,0,0,1,.87,8.47c-.26,1.19-3,5.35-3.62,2.64-1-4.45-.65-6-1.26-9.17-.45-2.37-1.37-3.22-2.85-5.16-3.28-4.29-6.61-8.54-9.88-12.84-3.8-5-7.66-10-11.92-14.61-4-4.31-4.16-14.07-7.34-22.66S59.48,92.73,71.92,120.44Z"/><path class="cls-17" d="M56.36,109.13c.51.09,1,.19,1.56.32,1.32,1.22,5.19,1,9.08,1.59a75.07,75.07,0,0,1,4.92,9.4l-1.68,14.19h0a6.74,6.74,0,0,1,3.11,1.68l.26.21a24.2,24.2,0,0,1,2.8,2.83l.35.43c.24.29.49.6.74.93s.5.67.77,1a74.75,74.75,0,0,1,6.2,10.61c.16.33.33.67.49,1,1.82,3.79,3.77,8.35,5.8,13.83a2.93,2.93,0,0,0,.19.4,5.62,5.62,0,0,0,.57.74c.22.24.45.47.67.7a5.73,5.73,0,0,1,.6.72,2.88,2.88,0,0,1,.22.38,8.78,8.78,0,0,1,.38.94,9.4,9.4,0,0,1,.31,1c0,.2.09.41.14.62s.11.63.16.95c0,0,0,.08,0,.13a16.21,16.21,0,0,1,.14,2.19h0c0,.56,0,1.11-.1,1.62,0,.35-.1.68-.17,1a7,7,0,0,1-1.11,2.07,3.58,3.58,0,0,1-.28.37l-.15.18-.3.32a1.84,1.84,0,0,1-1,.6.57.57,0,0,1-.56-.31,1.87,1.87,0,0,1-.22-.59c-.06-.3-.12-.58-.17-.85,0-.1,0-.18,0-.27s-.07-.36-.1-.52,0-.2,0-.29,0-.3-.07-.44,0-.19,0-.28l-.06-.4,0-.26c0-.13,0-.25,0-.37l0-.25,0-.36,0-.21,0-.41,0-.14c0-.18,0-.36,0-.54a1.36,1.36,0,0,0,1.42.21c2.3-1.19-1.36-10.74-5.9-19.87s-11.66-17.46-15.4-17.81c-2.49-.22-3.21,1.88-3.41,3.3-.6-.68-1.2-1.35-1.82-2-4-4.31-4.16-14.07-7.34-22.66A15.21,15.21,0,0,1,56.36,109.13Z"/><path class="cls-14" d="M89.54,176.58c.46,2.09,1.47,2.19,2.31,1,2.21-3-.82-9.78-.82-9.78a.28.28,0,0,1,0-.07c.56.83,1.53,1.5,1.94,2.37a14.61,14.61,0,0,1,.87,8.47c-.26,1.19-3,5.35-3.62,2.64A38.46,38.46,0,0,1,89.54,176.58Z"/><path class="cls-16" d="M65.37,134.63a.46.46,0,0,0,.77-.52.46.46,0,0,0-.77.52Z"/><path class="cls-16" d="M65.13,137a.82.82,0,1,0,.21-1.15A.82.82,0,0,0,65.13,137Z"/><g class="cls-5"><path class="cls-18" d="M91.13,180.73c.06.07.71-.44,1.2-1.12a6.88,6.88,0,0,0,.79-1.45,7.21,7.21,0,0,0,.26-1.64,3.17,3.17,0,0,0-.26-1.61c-.08,0,0,.8-.16,1.57a7.52,7.52,0,0,1-.41,1.48,8.16,8.16,0,0,1-.58,1.43C91.6,180.08,91.08,180.67,91.13,180.73Z"/></g><path class="cls-15" d="M93.88,178.61c-.25,1.12-2.71,4.87-3.49,3,.85.74,2-.64,2.8-2.58,1.14-2.91-.09-8-.36-8.15s-.18,2.07-.14,2.8c0,.1,0,.17,0,.2l-.09-.14A21.61,21.61,0,0,0,91,167.84a.28.28,0,0,1,0-.07c.56.83,1.53,1.5,1.94,2.37A14.61,14.61,0,0,1,93.88,178.61Z"/><path class="cls-16" d="M58.88,120.39s-2.39,10-3.36,12.77A41,41,0,0,1,59.3,143.7c.93,5.23-2.4,28.67-2.94,30.89,0,0,0,1.38,0,3.13,0,2.54-.06,5.84-.41,6.73-.6,1.5-.91-4.93-.91-4.93s-2,5.17-3.42,5.77-6.41.46-6.73-.48,4,.54,7.46-9.49c1-2.84-3.54-38.22-5-41.23s-1.9-16.73-1.56-18.44S59.42,115.28,58.88,120.39Z"/><path class="cls-17" d="M49.4,181.34a1.78,1.78,0,0,0,.87.11c3-.32,4.81-7.06,5.93-16.19S57.48,141.7,53,138c-2.67-2.2-4-1-4.6.25a24,24,0,0,0-1-4.18c-1.47-3-1.9-16.73-1.56-18.44.14-.75,2.71-.92,5.53-.45,2.26,2.55,4.56,6,6.74,8.38-.79,3.18-2,7.85-2.59,9.58A41,41,0,0,1,59.3,143.7c.93,5.23-2.4,28.67-2.94,30.89,0,0,0,1.38,0,3.13,0,.71,0,1.47,0,2.22-.4.6-.79,1.17-1.16,1.68-.09-1.11-.14-2.1-.14-2.1a24.81,24.81,0,0,1-2.74,5.21c-.49.23-1.18.54-2,.84-2,.23-5.18,0-5.43-.76S46.87,184.71,49.4,181.34Z"/><path class="cls-14" d="M48.31,182.59c-.16.73.4.78,2.44-.26,3-1.52,5.61-7.74,5.61-7.74s0,1.38,0,3.13c0,2.54-.06,5.84-.41,6.73-.6,1.5-.91-4.93-.91-4.93s-2,5.17-3.42,5.77-6.41.46-6.73-.48C44.74,184.24,46.28,184.56,48.31,182.59Z"/><circle class="cls-16" cx="51.39" cy="131.51" r="0.46"/><circle class="cls-16" cx="50.21" cy="133.32" r="0.83"/><g class="cls-5"><path class="cls-18" d="M47.77,184.89a3.16,3.16,0,0,0,1.62-.25,6.54,6.54,0,0,0,1.48-.74A7.26,7.26,0,0,0,52,182.7a3.36,3.36,0,0,0,.7-1.48c-.08,0-.49.65-1,1.2a7.58,7.58,0,0,1-1.18,1,7.65,7.65,0,0,1-1.29.84C48.53,184.61,47.76,184.81,47.77,184.89Z"/></g><path class="cls-15" d="M45.29,184.41c.47.58,2.28,1.37,5,.6,3.14-.91,4.52-6.72,4.52-6.72-3.57,5.91-6.38,5.39-6.67,5.1-.12-.12-.1-.35,0-.59l.22-.21c-.16.73.4.78,2.44-.26,3-1.52,5.61-7.74,5.61-7.74s0,1.38,0,3.13c0,2.54-.06,5.84-.41,6.73-.6,1.5-.91-4.93-.91-4.93s-2,5.17-3.42,5.77-6.41.46-6.73-.48C44.87,184.62,45,184.53,45.29,184.41Z"/><path class="cls-19" d="M70.3,82.57a18.63,18.63,0,0,1,6.09,12.5c.32,7.69-1.28,22.75-2.88,30.77l-3.85,2.24-1-7.69L66.13,129s-12.5,4.17-20.51-3.2c0,0-2.88-32.38,6.73-42.31S70.3,82.57,70.3,82.57Z"/><path class="cls-20" d="M70.3,82.57a18.63,18.63,0,0,1,6.09,12.5c.32,7.69-1.28,22.75-2.88,30.77l-3.85,2.24-1-7.69L66.13,129s-12.5,4.17-20.51-3.2c0,0-2.88-32.38,6.73-42.31S70.3,82.57,70.3,82.57Z"/><path class="cls-21" d="M45.61,125.68l0-.17h0c0-.15,0-.33,0-.56v0c0-.1,0-.22,0-.34v0c0-.41-.06-.91-.09-1.48v0a131.23,131.23,0,0,1,.5-21.24v-.07c.05-.36.09-.73.14-1.1-.41,10.93.7,24.33,8.85,24.42,7.2.09,13-8.73,14.08-14.8.81-4.71,2-9.43,1.86-14.24-.09-2.76-.51-7-2.13-9.92h0a1.34,1.34,0,0,0-.07-.18.32.32,0,0,0,0-.09,6.67,6.67,0,0,0-2.68-2.69c-1.22-.62-2.6-.87-3.84-1.46a1.14,1.14,0,0,1-.62-.54c-.19-.51.32-1,.77-1.28s.9-.57,1.35-.85a13.07,13.07,0,0,1,6.73,3.57,17.61,17.61,0,0,1,2.57,2.86h0a19.89,19.89,0,0,1,2,3.45l0,.06c.08.17.15.33.22.5a1.21,1.21,0,0,1,0,.14l.18.45a1.46,1.46,0,0,0,.07.19c0,.14.09.27.14.41s0,.16.07.24l.12.39c0,.09,0,.18.07.26s.07.26.1.4a2.29,2.29,0,0,1,.07.28c0,.13.06.26.08.4l.06.28c0,.14,0,.29.07.43s0,.18,0,.28l.06.48a1.94,1.94,0,0,0,0,.24c0,.25,0,.49,0,.75.32,7.69-1.28,22.75-2.88,30.77l-3.85,2.24-1-7.69L66.13,129a27.77,27.77,0,0,1-8,1.17,19.7,19.7,0,0,1-9.3-2.12,15.25,15.25,0,0,1-3.18-2.25s0,0,0-.14Z"/><g class="cls-22"><path class="cls-20" d="M46.35,108.85a8.29,8.29,0,0,0,.24-1.61c.12-1,.28-2.25.47-3.53.37-2.57.88-5.11.88-5.11s.43-2.56,1-5.09c.28-1.26.59-2.52.83-3.47a9.42,9.42,0,0,0,.35-1.59A8.87,8.87,0,0,0,49.55,90c-.31.92-.68,2.17-1,3.43-.68,2.52-1.18,5.08-1.18,5.08s-.45,2.57-.72,5.16c-.13,1.3-.23,2.6-.27,3.57A9.56,9.56,0,0,0,46.35,108.85Z"/><path class="cls-20" d="M46.77,122.15a27.14,27.14,0,0,0-.16-2.77c-.09-1.38-.12-2.76-.12-2.76s-.09-1.37-.12-2.75a23.65,23.65,0,0,0-.09-2.78,13.27,13.27,0,0,0-.34,2.77c-.08,1.39,0,2.79,0,2.79s.09,1.39.29,2.77A12.75,12.75,0,0,0,46.77,122.15Z"/><path class="cls-20" d="M70.85,125.54s.07-.11.25-.24.47-.21.83-.43a1,1,0,0,0,.44-.54,6,6,0,0,0,.16-.71c.09-.48.19-1,.29-1.5.38-2,.75-4.08.75-4.08s1.2-8.21,1-8.23S73,118,73,118l-.58,4.11c-.07.51-.14,1-.2,1.51,0,.24-.06.48-.11.67a.8.8,0,0,1-.29.44,8.55,8.55,0,0,0-.78.53C70.84,125.39,70.83,125.54,70.85,125.54Z"/><path class="cls-20" d="M54.28,128.39a5.52,5.52,0,0,0,1.33.26,25.36,25.36,0,0,0,3,.18,27.87,27.87,0,0,0,4.34-.33s.54-.1,1.33-.29l.64-.17a2.69,2.69,0,0,0,.38-.12.85.85,0,0,0,.39-.34,4.09,4.09,0,0,0,.26-.8l.21-.78c.28-1,.55-2.09.75-2.88a6.85,6.85,0,0,0,.27-1.32,5.92,5.92,0,0,0-.5,1.26c-.26.76-.6,1.79-.93,2.82l-.24.76a4,4,0,0,1-.25.67c-.07.13-.23.17-.47.22l-.63.14c-.79.15-1.31.23-1.31.23a30.56,30.56,0,0,1-4.25.5c-1.07.06-2.14,0-2.95,0A7.83,7.83,0,0,0,54.28,128.39Z"/></g><path class="cls-21" d="M52.75,83.12h0a13.82,13.82,0,0,1,8.19-4.23c5.5-.48,9.36,3.68,9.36,3.68a16.32,16.32,0,0,1,2.17,2.33c-2.28.71-5.92,1.74-8.14,1.6A10.35,10.35,0,0,1,57.92,84a4.76,4.76,0,0,1-3.18,1.84,13.93,13.93,0,0,1-3.76,0A5.77,5.77,0,0,0,52.75,83.12Z"/><path class="cls-14" d="M47.86,62.1c.27-3.26,1.86-6.25,3.06-9.24.91-2.26,1.92-6.4,3.95-8s12.5-.25,12.5-.25,8.11,3,8.38,4.29-4.17,13.4-5,18c-.41,2.15-.88,4.31-1.2,6.48-.57,3.94-.88,7.72,1.66,11a19,19,0,0,1-6.92,1,10.4,10.4,0,0,1-6.42-2.54,4.76,4.76,0,0,1-3.18,1.84,13.93,13.93,0,0,1-3.76,0c2.94-2.6,2.06-5.9,1.51-9.29-.38-2.32-.68-4.8-2.09-6.77S47.64,64.74,47.86,62.1Z"/><path class="cls-15" d="M47.86,62.1c0-.35.07-.68.13-1A.13.13,0,0,1,48,61c.06-.35.13-.68.21-1a8.45,8.45,0,0,0,1.07,3.69c1.22,1.39,2.26.17,7,1.39s7.83.7,11.14-3.31c2.67-3.22,4.31-8.46,4.84-10.38a9.12,9.12,0,0,1,2,3.47c-.44,1.43-.93,3-1.41,4.5,0,.08,0,.15-.07.23l-.15.47-.1.32-.12.42-.12.37c0,.13-.08.26-.11.38s-.09.27-.13.41-.06.22-.1.33l-.18.64-.06.21c-.06.18-.11.37-.16.55s-.05.17-.07.25l-.12.43a2.5,2.5,0,0,0-.07.26c0,.13-.07.26-.1.38s-.05.17-.07.25l-.09.36c0,.08,0,.16,0,.23l-.09.37,0,.17c0,.18-.07.34-.1.5-.1.54-.21,1.08-.32,1.61-.13.7-.27,1.4-.4,2.1s-.3,1.63-.42,2.44l-.06.33h0c-.57,3.94-.88,7.72,1.66,11a19,19,0,0,1-6.92,1,10.77,10.77,0,0,1-5.56-1.86,5.07,5.07,0,0,0,1,.14,7.55,7.55,0,0,0,2.41-.24,13.38,13.38,0,0,0,2.77-3.25,14.65,14.65,0,0,0,1.18-3c0-.84-.08-1.67-.16-2.5l.57.37a7,7,0,0,0-.06-2.17c-.53-2.44-6.1-2.27-10.28-1.74A6.75,6.75,0,0,0,52,73.07h0c0-.16-.07-.33-.1-.49a.83.83,0,0,1,0-.15c-.06-.29-.14-.57-.22-.85l0-.11a9.33,9.33,0,0,0-1.3-2.81C48.79,66.54,47.64,64.74,47.86,62.1Z"/><path class="cls-12" d="M57.46,83.35a3.08,3.08,0,0,1-.33-.55,3,3,0,0,0,.49.37Z"/><path class="cls-23" d="M59.72,84.5h-.08l-.09,0Z"/><path class="cls-16" d="M66.81,41.11s.54,5.45-1.61,6.41-4.56,1-5.36-1.29a11.34,11.34,0,0,1,0-5.44S66.54,39.82,66.81,41.11Z"/><path class="cls-17" d="M60.83,47.6c3.46-.53,5.59-4.5,4.44-3.92s-4.56.12-5.78-.07a14.41,14.41,0,0,1,.35-2.82s6.7-1,7,.32c0,0,.54,5.45-1.61,6.41C63.65,48.21,62,48.4,60.83,47.6Z"/><path class="cls-12" d="M61.46,48.34s-3.23,3-3.85,1.36a.38.38,0,0,1,0-.1,25.36,25.36,0,0,1,1.91-4.67,2.72,2.72,0,0,0,2.35,2.38,4.5,4.5,0,0,0,4.62-2.7c.23,1.17-.69,3.59-2.5,6.78C63.48,51.5,62.56,51.2,61.46,48.34Z"/><path class="cls-7" d="M66.83,43.18c.06-.39,1.31,3.87-2.43,7.6,0,0-1.24,1.37-2.86-2.86,0,0-3.24,3-3.86,1.37s1.81-5.68,1.81-5.68-.18,2.91,2.43,3.28A4.51,4.51,0,0,0,66.83,43.18Z"/><path class="cls-12" d="M57.68,48.75c.62,1.62,3.86-1.37,3.86-1.37,1.62,4.23,2.86,2.86,2.86,2.86a8.64,8.64,0,0,0,2.67-5.84,8.52,8.52,0,0,1-2.67,6.38s-1.24,1.37-2.86-2.86c0,0-3.24,3-3.86,1.37a2.15,2.15,0,0,1-.08-.9A1.35,1.35,0,0,0,57.68,48.75Z"/><g class="cls-5"><path class="cls-18" d="M49.47,59.69a4.46,4.46,0,0,0,.2-.87A16.13,16.13,0,0,1,50.2,57c.24-.67.5-1.33.7-1.82l.34-.83s1.86-5.4,1.7-5.46-2.27,5.25-2.27,5.25l-.29.84c-.17.51-.4,1.19-.59,1.89a11.83,11.83,0,0,0-.35,2A2.24,2.24,0,0,0,49.47,59.69Z"/><path class="cls-18" d="M49.37,62.33c.16,0,.19-.82.19-.82s-.24-.76-.4-.74-.2.82-.2.82S49.2,62.36,49.37,62.33Z"/><path class="cls-18" d="M55,80.63a14,14,0,0,0-.74-1.47,10.46,10.46,0,0,1-.56-1.51,11.5,11.5,0,0,1-.44-1.55c-.17-.79-.19-1.61-.27-1.62a3.66,3.66,0,0,0-.15,1.68,8.78,8.78,0,0,0,.29,1.68,8.86,8.86,0,0,0,.76,1.52A3.76,3.76,0,0,0,55,80.63Z"/></g><g class="cls-24"><path class="cls-14" d="M67.87,79.13a4.5,4.5,0,0,0,.36-.66c.16-.34.25-.72.29-.72a1.59,1.59,0,0,1-.09.79,4.39,4.39,0,0,1-.3.75,4.08,4.08,0,0,1-.52.61,1.57,1.57,0,0,1-.66.44s.27-.29.5-.58A4.92,4.92,0,0,0,67.87,79.13Z"/><path class="cls-14" d="M59.41,68.94a11.37,11.37,0,0,0,1.68.14,11.19,11.19,0,0,0,1.68-.17l.54-.12.2-.05.2-.06c.13,0,.32-.07.54-.15a11.52,11.52,0,0,0,1.55-.66,11.12,11.12,0,0,0,1.41-.93,4.84,4.84,0,0,1,.61-.48,3.41,3.41,0,0,1-.54.57,8.83,8.83,0,0,1-1.38,1,10.55,10.55,0,0,1-1.56.73c-.22.09-.42.13-.55.18l-.2.06-.22,0a5,5,0,0,1-.56.11,9.81,9.81,0,0,1-1.72.11,9.71,9.71,0,0,1-1.71-.23,3.11,3.11,0,0,1-.74-.25S59,68.87,59.41,68.94Z"/><path class="cls-14" d="M53.16,77.76s0,.44.08.87a4.08,4.08,0,0,0,.22.82,5.08,5.08,0,0,0,.34.78c.21.37.51.69.48.73a1.78,1.78,0,0,1-.66-.62,3.89,3.89,0,0,1-.44-.79,3.76,3.76,0,0,1-.15-.9A1.84,1.84,0,0,1,53.16,77.76Z"/><path class="cls-14" d="M49.85,67.58c.35.22.72.41.72.41s.36.22.73.41a5.18,5.18,0,0,1,.76.38,2.21,2.21,0,0,1-.84-.19,6.33,6.33,0,0,1-.79-.34,5.57,5.57,0,0,1-.71-.5,2.57,2.57,0,0,1-.6-.62A5.39,5.39,0,0,1,49.85,67.58Z"/><path class="cls-14" d="M56.9,59l.81-1.44s.34-.56.8-1.43A29.17,29.17,0,0,0,60,52.8a27.48,27.48,0,0,0,1.08-3.45c.11-.48.21-.88.27-1.16a2.41,2.41,0,0,1,.11-.44,3,3,0,0,1-.05.45c0,.28-.11.69-.21,1.18a28,28,0,0,1-1,3.49,29.18,29.18,0,0,1-1.44,3.35c-.46.88-.79,1.45-.79,1.45l-.83,1.42a22.8,22.8,0,0,0-1.59,3.24,9.78,9.78,0,0,0-.65,3.52A7.91,7.91,0,0,0,55,67c.05.28.09.44.08.44s0,0-.05-.11S55,67.18,55,67s0,0,0-.06l0,.42c.09.9.25,2.1.46,3.29s.48,2.38.7,3.25.4,1.46.4,1.46.16.59.43,1.45.68,2,1,3.18a14.33,14.33,0,0,1,.59,3.3v.18l-.11-.08s0-.06,0-.1a14.47,14.47,0,0,0-.68-3.24c-.36-1.15-.79-2.29-1.07-3.15s-.45-1.46-.45-1.46-.17-.58-.38-1.47-.47-2.08-.65-3.28-.31-2.41-.37-3.32c0-.46,0-.84,0-1.1v-.1l0-.36a9.53,9.53,0,0,1,.57-3.59A21.87,21.87,0,0,1,56.9,59Z"/></g><g class="cls-5"><path class="cls-14" d="M53.63,63.4a7.51,7.51,0,0,0,1.21,0,6.45,6.45,0,0,1,2.55.34,14.28,14.28,0,0,0,2.58.76,5.53,5.53,0,0,0,1.27.07l.35,0a4.6,4.6,0,0,0,.89-.25,8.88,8.88,0,0,0,2.34-1.4,11.57,11.57,0,0,0,2-1.79A2.42,2.42,0,0,0,67.39,60s-.25.42-.75.93a13.71,13.71,0,0,1-2.07,1.6,9,9,0,0,1-2.27,1.22,3.73,3.73,0,0,1-.8.18,2.2,2.2,0,0,1-.31,0,5.08,5.08,0,0,1-1.14,0,15.42,15.42,0,0,1-2.54-.62,6.57,6.57,0,0,0-1.44-.24,7.88,7.88,0,0,0-1.25.08A4,4,0,0,0,53.63,63.4Z"/></g><path class="cls-16" d="M46.74,21.77A2.34,2.34,0,0,0,43.5,21c-2.19,1.45-1.09,9,1.9,8.94S47.27,21.61,46.74,21.77Z"/><path class="cls-17" d="M46.74,21.77A2.34,2.34,0,0,0,43.5,21c-2.19,1.45-1.09,9,1.9,8.94S47.27,21.61,46.74,21.77Z"/><path class="cls-25" d="M44,27.71c0-.06.23,0,.49-.08a.47.47,0,0,0,.31-.26.66.66,0,0,0,0-.5.88.88,0,0,0-.27-.43c-.12-.11-.26-.15-.46-.31a.88.88,0,0,1-.29-.77,1,1,0,0,1,.09-.29,1.26,1.26,0,0,1,.16-.24,1.81,1.81,0,0,1,.28-.23,1.45,1.45,0,0,1,.22-.09h0s0,0,0,0,0-.08,0-.13l0-.2a2.38,2.38,0,0,0-.31-.8c-.3-.51-.74-.71-.72-.79s.52,0,1,.5A2.7,2.7,0,0,1,45,24l.07.25c0,.09,0,.15,0,.29s0,.48,0,.65a2.63,2.63,0,0,0-.43,0l-.11.05a.46.46,0,0,0-.12.13c-.06.07-.06.1-.06.1s0,0,0,0a5.85,5.85,0,0,1,.44.39,1.67,1.67,0,0,1,.4.82,1.18,1.18,0,0,1-.18.88.62.62,0,0,1-.56.29C44.17,27.92,44,27.75,44,27.71Z"/><path class="cls-17" d="M45.4,30c3-.1,1.87-8.37,1.34-8.21a2.82,2.82,0,0,0-1.69-1.12,5.42,5.42,0,0,1-.21,3.07s-.79-1.25-1.21-.83.23,2.42-.68,2.62c-.28.06-.46-.16-.58-.49C42.54,27.45,43.64,30,45.4,30Z"/><g class="cls-5"><path class="cls-26" d="M42.62,22.72c-.13.42-.08.84.12,1s.45-.16.58-.59.07-.85-.12-.95S42.74,22.29,42.62,22.72Z"/><path class="cls-26" d="M43.38,21.49a.36.36,0,0,0,.15.39.21.21,0,0,0,.32-.11.34.34,0,0,0-.14-.38A.22.22,0,0,0,43.38,21.49Z"/></g><path class="cls-16" d="M80.13,22c.23-6.79-2.57-17.8-16.86-17.91S46.72,19.75,46.72,19.75A42.85,42.85,0,0,0,45.4,30c.17,4.43,2.47,11,12.76,12.08s18.22-3.27,20.07-9.6a5.27,5.27,0,0,0,4.86-4.24C83.8,25.3,82.21,22.34,80.13,22Z"/><g class="cls-10"><path class="cls-17" d="M80.13,22a21.93,21.93,0,0,0-.84-6.83A17.59,17.59,0,0,0,77,10.28c2.06,3.46,2.42,8.66,2.31,11.82.18,0,.61-.09.9-.1Z"/><path class="cls-17" d="M82,23.14a6,6,0,0,1,.42,4.07,5.26,5.26,0,0,1-4.85,4.24c-1.85,6.33-9.78,10.65-20.07,9.6C52.08,40.49,48.88,38.4,47,35.9c1.7,2.93,5,5.53,11.13,6.16,10.3,1,18.22-3.27,20.07-9.6a5.27,5.27,0,0,0,4.86-4.24A5.88,5.88,0,0,0,82,23.14Z"/></g><g class="cls-10"><path class="cls-16" d="M80.87,29.8a1,1,0,0,1-.42.84.74.74,0,0,1-.43.15.7.7,0,0,1-.52-.24,1.33,1.33,0,0,1-.31-.64.9.9,0,0,1,.22-.78,4,4,0,0,1,.44-.29.61.61,0,0,0,.21-.26.92.92,0,0,0,.06-.62.46.46,0,0,0-.32-.33.27.27,0,0,0-.12,0h-.14l-.07,0s0,0,0,0l-.11.16c-.16.24-.29.3-.45.31a.42.42,0,0,1-.26-.12.73.73,0,0,1-.16-.29,4,4,0,0,1-.07-.88c0-.21,0-.41,0-.62a3.7,3.7,0,0,1,.32-1.13,2,2,0,0,1,.6-.73c.44-.32.8-.22.8-.17s-.32.1-.63.45a2.52,2.52,0,0,0-.59,1.68c0,.18,0,.36,0,.54A.54.54,0,0,0,79,27c0,.08.08,0,.07,0h0l.1-.08a.75.75,0,0,1,.2-.1.76.76,0,0,1,.34-.06.79.79,0,0,1,.3.05,1,1,0,0,1,.29.16,1.44,1.44,0,0,1,.49.83A1.75,1.75,0,0,1,80.55,29a1.24,1.24,0,0,1-.44.44,2.31,2.31,0,0,0-.38.18.2.2,0,0,0-.09.22.64.64,0,0,0,.12.34.42.42,0,0,0,.55.13C80.69,30.15,80.82,29.76,80.87,29.8Z"/></g><path class="cls-26" d="M81.51,24.37c.3.31.64.4.77.2s0-.59-.32-.89-.64-.39-.76-.2S81.21,24.07,81.51,24.37Z"/><path class="cls-26" d="M80.39,22.9a.33.33,0,0,0,.15.38.21.21,0,0,0,.32-.1.34.34,0,0,0-.15-.39A.21.21,0,0,0,80.39,22.9Z"/><path class="cls-3" d="M68.51,27.76s.23.11.49.08a1,1,0,0,0,.85-.5c.16-.21.21-.46.17-.47s-.16.18-.33.33a2.08,2.08,0,0,1-.35.24,1.86,1.86,0,0,1-.39.19C68.75,27.71,68.52,27.72,68.51,27.76Z"/><path class="cls-3" d="M68,28.26s.21.21.5.28a1.94,1.94,0,0,0,.58.06,1.79,1.79,0,0,0,.55-.2c.26-.15.44-.38.41-.4s-.25.12-.5.2a1.82,1.82,0,0,1-.5.1,2,2,0,0,1-.5,0C68.3,28.32,68,28.22,68,28.26Z"/><path class="cls-3" d="M49.46,25.18s-.13.22-.09.46a1,1,0,0,0,.2.46,1.09,1.09,0,0,0,.44.23c.25.06.48,0,.47-.07s-.22,0-.4-.14a.8.8,0,0,1-.29-.23.84.84,0,0,1-.21-.3C49.49,25.41,49.5,25.19,49.46,25.18Z"/><path class="cls-3" d="M49,26.14s0,.3.14.54a1.14,1.14,0,0,0,.44.4,1.2,1.2,0,0,0,.59.05c.29,0,.51-.24.49-.27s-.27.08-.51.06a1,1,0,0,1-.45-.12,1,1,0,0,1-.39-.25C49.13,26.38,49,26.13,49,26.14Z"/><path class="cls-3" d="M52.88,25.59c0,1.36-.57,2.47-1.33,2.47s-1.4-1.1-1.42-2.46.57-2.46,1.33-2.47S52.86,24.23,52.88,25.59Z"/><path class="cls-27" d="M52.88,25.59c0,1.36-.57,2.47-1.33,2.47s-1.4-1.1-1.42-2.46.57-2.46,1.33-2.47S52.86,24.23,52.88,25.59Z"/><path class="cls-28" d="M52.1,23.42a4.06,4.06,0,0,1,.16,1.07c0,1.36-.57,2.47-1.33,2.47a.94.94,0,0,1-.64-.29c.24.82.71,1.39,1.26,1.39.76,0,1.36-1.11,1.33-2.47A3.11,3.11,0,0,0,52.1,23.42Z"/><path class="cls-29" d="M50.39,25.18c0,.46.14.86.38.88s.46-.33.49-.8-.13-.86-.38-.89S50.42,24.71,50.39,25.18Z"/><path class="cls-29" d="M51.33,23.93a.17.17,0,0,1-.17.19.18.18,0,0,1-.18-.19.18.18,0,0,1,.17-.19A.19.19,0,0,1,51.33,23.93Z"/><path class="cls-3" d="M69.08,26.76c-.15,1.36-.89,2.38-1.64,2.29s-1.24-1.26-1.09-2.61.89-2.38,1.64-2.29S69.24,25.41,69.08,26.76Z"/><path class="cls-27" d="M69.08,26.76c-.15,1.36-.89,2.38-1.64,2.29s-1.24-1.26-1.09-2.61.89-2.38,1.64-2.29S69.24,25.41,69.08,26.76Z"/><path class="cls-28" d="M68.63,24.57a4.41,4.41,0,0,1,0,.89c-.15,1.35-.89,2.38-1.64,2.29a1,1,0,0,1-.64-.42c.09.94.51,1.65,1.09,1.72.75.09,1.49-.93,1.64-2.29A3.06,3.06,0,0,0,68.63,24.57Z"/><path class="cls-29" d="M66.78,26c-.09.46,0,.87.26.92s.5-.27.59-.73,0-.88-.26-.93S66.87,25.53,66.78,26Z"/><path class="cls-29" d="M67.88,24.87a.19.19,0,0,1-.2.17.18.18,0,0,1-.15-.21.18.18,0,0,1,.19-.17A.18.18,0,0,1,67.88,24.87Z"/><path class="cls-17" d="M60.91,30.66a5.49,5.49,0,0,1-4.33-1.18s-1.22.78,1,1.6C60.41,32.18,60.91,30.66,60.91,30.66Z"/><g class="cls-10"><path class="cls-16" d="M59.68,31.27a6.2,6.2,0,0,1-.91,0,5.48,5.48,0,0,1-1.85-.63,1.08,1.08,0,0,1-.59-.63.55.55,0,0,1,.25-.56,1.5,1.5,0,0,1,.5-.22,1,1,0,0,1,.21,0,2.28,2.28,0,0,1,.51,0,3.1,3.1,0,0,1,.61.09,3.44,3.44,0,0,1,.37.14,6.66,6.66,0,0,1,.8.49c0-.31,0-.65,0-1,0-.19,0-.4,0-.61,0-.41,0-.84,0-1.22a5.61,5.61,0,0,0-.13-1.36,5.75,5.75,0,0,0-.16,1.36c0,.38,0,.81-.07,1.23l0,.61c0,.06,0,.08,0,.09L59,29l-.44-.18a3.39,3.39,0,0,0-.73-.15,2.83,2.83,0,0,0-.63,0,1.87,1.87,0,0,0-.28.06,1.94,1.94,0,0,0-.7.36,1.35,1.35,0,0,0-.35.45,1.09,1.09,0,0,0,0,.67,1.58,1.58,0,0,0,.88.88,4.86,4.86,0,0,0,2,.48A1.38,1.38,0,0,0,59.68,31.27Z"/></g><path class="cls-26" d="M57.73,29.59c-.06.14.13.35.43.47s.58.1.63,0-.14-.35-.43-.46S57.78,29.45,57.73,29.59Z"/><path class="cls-17" d="M64.21,30.9c0,1.36,1.71,2.48,3.87,2.51S72,32.35,72,31s-1.71-2.49-3.87-2.51S64.22,29.54,64.21,30.9Z"/><path class="cls-17" d="M46.14,29.11c-.26,1.33,1.23,2.74,3.32,3.15s4-.35,4.25-1.69-1.23-2.74-3.32-3.15S46.4,27.77,46.14,29.11Z"/><path class="cls-17" d="M54.31,32.89h.3l.21,0h0a2.86,2.86,0,0,1,2.36,1.28s.23-.91,4-.35l.68.1.31,0A4.39,4.39,0,0,0,63,34a3.38,3.38,0,0,0,.61-.1A4.42,4.42,0,0,1,65,33.66l0,0c0,.16-1.41,5-5,5.81a3.84,3.84,0,0,1-2.51-.13,2.17,2.17,0,0,1-.56-.4,2.06,2.06,0,0,1-.46-.75,1.34,1.34,0,0,1,.05-1.17c.31-.33.19-1.6.1-2.25A4.52,4.52,0,0,1,55.14,34a2.68,2.68,0,0,1-.87-1.15Z"/><path class="cls-14" d="M65,33.3s-1.4,5-5.17,5.81-4-2-3.6-2.45,0-2.63,0-2.63S61.5,35.11,65,33.3Z"/><path class="cls-15" d="M56.32,34s.43.09,1.12.17c.26.88-.06,2.34-.34,2.22s-1.13.13-.74,1.29,3,2,4.79.61.68-1.87.68-1.87a27.38,27.38,0,0,1,1.87-2.62A9.11,9.11,0,0,0,65,33.3s-1.4,5-5.17,5.81-4-2-3.6-2.45S56.32,34,56.32,34Z"/><path class="cls-3" d="M56.67,34s.3.09.79.18l.31.06h0c.2,0,.42.07.66.09a11.64,11.64,0,0,0,3.12,0h0l.24,0,.39-.07.17,0,.49-.13c.19,0,.39-.12.59-.19l.06,0a6.86,6.86,0,0,0,.83-.38c-.77,1.54-2.1,3.42-4.15,3.87a3.48,3.48,0,0,1-2.77-.3c-.73-.53-.61-1.37-.68-2.16C56.76,34.63,56.72,34.33,56.67,34Z"/><path class="cls-7" d="M57.67,35.8A2.26,2.26,0,0,1,56.88,34c.25.07.49.13.75.18l.68.12a10.92,10.92,0,0,0,4,0l.17,0,.47-.13.43-.14a5.32,5.32,0,0,1-3,2.12A3.31,3.31,0,0,1,57.67,35.8Z"/><path class="cls-12" d="M59.16,36.24c2.37-.62,4.17-2.05,2.57-1.49a9.89,9.89,0,0,1-4.66.25,3.79,3.79,0,0,1-.19-1c.25.07.49.13.75.18l.68.12a10.92,10.92,0,0,0,4,0l.17,0,.47-.13.43-.14a5.32,5.32,0,0,1-3,2.12A4.83,4.83,0,0,1,59.16,36.24Z"/><path class="cls-14" d="M65.09,33.28a13.91,13.91,0,0,1-7.28,1.47c-3.2-.44-3.75-2.24-3.75-2.24s2.31-.08,3,1.31c0,0,.25-1,4.81-.25C63.68,33.87,64.22,33.18,65.09,33.28Z"/><path class="cls-15" d="M65.09,33.28a13.91,13.91,0,0,1-7.28,1.47c-3.2-.44-3.75-2.24-3.75-2.24s2.31-.08,3,1.31c0,0,.25-1,4.81-.25C63.68,33.87,64.22,33.18,65.09,33.28Z"/><path class="cls-15" d="M54.63,32.53c.19.72,1.66,2.14,4.25,1.78,1.63-.22,2.14-.58,2.26-.86l.74.12c1.8.3,2.34-.39,3.21-.29a13.91,13.91,0,0,1-7.28,1.47c-3.2-.44-3.75-2.24-3.75-2.24A4.8,4.8,0,0,1,54.63,32.53Z"/><path class="cls-30" d="M59,38.31c0,.2.34.31.7.26s.62-.26.59-.46-.35-.31-.7-.25S59,38.12,59,38.31Z"/><path class="cls-3" d="M67.19,20.44c0,.08.37.11.69.25a2.43,2.43,0,0,1,.57.33,2.56,2.56,0,0,1,.56.35c.26.22.46.53.54.5s0-.42-.22-.77a2.44,2.44,0,0,0-.57-.6,2.58,2.58,0,0,0-.79-.23C67.56,20.23,67.17,20.36,67.19,20.44Z"/><path class="cls-3" d="M50.33,20.36c.08,0,.33-.25.63-.43a2.79,2.79,0,0,1,.64-.28,2.45,2.45,0,0,1,.64-.22,1.48,1.48,0,0,1,.47,0c.13,0,.23.05.26,0s0-.13-.16-.24a1.17,1.17,0,0,0-.57-.2,2.15,2.15,0,0,0-.86.08,2.37,2.37,0,0,0-.69.51C50.39,19.92,50.26,20.33,50.33,20.36Z"/><path class="cls-17" d="M46.72,19.75S48.9,4,63.27,4.08,80.36,15.2,80.13,22c1.58.27,2.88,2.05,3.1,4.18-1.64-.44-3.47-2.34-4-2.91-.23,1.6-1.15,7.11-1.83,11.2A12,12,0,0,1,74.5,38c-.19-4.24-.56-12.22-.75-15.35a16.73,16.73,0,0,1-3-1.89,35.24,35.24,0,0,1-8.15-8.56s-9,4.53-14.36,3.64c0,0-2,5-2,7l-.12-.13C46.41,21,46.72,19.75,46.72,19.75Z"/><path class="cls-3" d="M58.5.39C65-1.07,68.12,2,68.12,2s7.32-2.77,12.8,2.87c0,0,5,1.67,5.7,13.86.63,11.2-5.79,4.56-6.84,3.41-.39,2.65-2.63,16-2.63,16l-2,1.5s-.62-13.74-.88-18.08a17.44,17.44,0,0,1-3-1.9,35.51,35.51,0,0,1-8.16-8.55s-8.94,4.52-14.35,3.63c0,0-2,5-2,7,0,0-1.43-1.81-3.24-.73C43.5,21,41.94,4.1,58.5.39Z"/><path class="cls-4" d="M82.28,13.58c-.19-.39-.3-.64-.3-.64S82.1,13.18,82.28,13.58ZM66.14,15a42.16,42.16,0,0,0,5.14,4.71,17.44,17.44,0,0,0,3,1.9c.12,2,.31,5.94.49,9.65,0-2.42.15-6,.86-6.12,1.06-.1,1.06,4.45,1.06,4.45s.1-4.13,1-3.39c.54.42.64,2.72.62,4.66.6-3.56,1.22-7.35,1.41-8.63,1,1.15,7.47,7.79,6.84-3.41a35.15,35.15,0,0,0-.79-5.85c.2,2.18.24,4.31-.36,4.56-1,.41-2.54-2.55-3.19-3.9.78,1.75,2.73,6.57,1.18,8-1.9,1.79-7.61-4.55-7.61-4.55s1.59,2.85.53,3.59S68.44,17,66.14,15Z"/><path class="cls-4" d="M60.78,10.67a4.46,4.46,0,0,0-3.24.07s5.92-4.16,4.72-5.49a13.33,13.33,0,0,0-3.87-2.47s3.31-.07,5,1.06c0,0,2.63-.1.4-1.5,0,0,2.1-.41,2.32-1.53a6.73,6.73,0,0,1,2,1.23A13.52,13.52,0,0,1,76,1.89a3.21,3.21,0,0,0-2.48.54c-1.06,1.12,2,4.27,2,4.27s-3.87-1.88-4.65-1.53,4,4.16,4,4.16S69.38,6.8,69.17,7.5s1.9,2.82,1.9,2.82-6.27-4.09-5.42.92a13.76,13.76,0,0,0,2.18,5.43,31.56,31.56,0,0,1-4.71-5.56,47.2,47.2,0,0,1-6.27,2.52C58.88,12.66,61.72,11.14,60.78,10.67Z"/><g class="cls-5"><path class="cls-3" d="M74.23,21a2.26,2.26,0,0,0-.27-.22l-.73-.54c-.61-.45-1.42-1-2.22-1.65s-1.57-1.23-2.14-1.72-.93-.83-.93-.83a25.83,25.83,0,0,1-2.76-2.88,21.65,21.65,0,0,1-1.58-2.25c-.2-.32-.36-.59-.47-.78A1.45,1.45,0,0,0,63,9.8a1.76,1.76,0,0,0,.13.32c.09.2.23.48.42.81A19.12,19.12,0,0,0,65,13.25a24.43,24.43,0,0,0,2.73,3s.37.34,1,.82,1.38,1.1,2.2,1.68,1.64,1.16,2.27,1.57l.76.5A1.19,1.19,0,0,0,74.23,21Z"/></g><g class="cls-5"><path class="cls-3" d="M74.42,21.37a3,3,0,0,0,.91.71,6.13,6.13,0,0,0,1.06.45,6.39,6.39,0,0,0,1.14.14,3,3,0,0,0,1.14-.16s-.57,0-1.12-.05a6,6,0,0,1-1.08-.23,6.17,6.17,0,0,1-1-.35C74.91,21.66,74.45,21.34,74.42,21.37Z"/></g><g class="cls-5"><path class="cls-3" d="M68.09,8.05a1.29,1.29,0,0,0-.35-.56,3.38,3.38,0,0,0-.5-.45,3.2,3.2,0,0,0-.62-.25A1.22,1.22,0,0,0,66,6.72a4,4,0,0,0,.59.26,4.41,4.41,0,0,1,.53.32,4.32,4.32,0,0,1,.51.34C67.84,7.84,68.05,8.08,68.09,8.05Z"/></g><g class="cls-5"><path class="cls-3" d="M77.29,13.11a1.19,1.19,0,0,0-.08-.29c-.07-.18-.18-.44-.32-.73a9.54,9.54,0,0,0-1.37-2,12.61,12.61,0,0,0-1.79-1.66c-.53-.4-.9-.63-.9-.63s-.37-.24-1-.55a24.22,24.22,0,0,0-2.19-1,9.43,9.43,0,0,0-2.31-.74,2.07,2.07,0,0,0-.8.08.73.73,0,0,0-.27.15,2.13,2.13,0,0,1,1.06-.11,9.53,9.53,0,0,1,2.24.82c.79.36,1.57.75,2.14,1.08s.93.56.93.56.37.23.9.61a12.09,12.09,0,0,1,1.79,1.57,10,10,0,0,1,1.42,1.91C77.11,12.71,77.27,13.12,77.29,13.11Z"/></g><g class="cls-5"><path class="cls-3" d="M84.89,26.21a7.22,7.22,0,0,0-.69-.56c-.42-.32-1-.77-1.51-1.23-1.08-.93-2.07-1.94-2.07-1.94s-1-1-1.94-2.08c-.46-.54-.9-1.09-1.23-1.51a7.49,7.49,0,0,0-.55-.7,4.12,4.12,0,0,0,.46.76c.3.45.72,1,1.16,1.59.88,1.12,1.89,2.15,1.89,2.15s1,1,2.14,1.89c.56.45,1.14.87,1.58,1.17A4.54,4.54,0,0,0,84.89,26.21Z"/></g><g class="cls-5"><path class="cls-3" d="M82.44,22.07a6.82,6.82,0,0,0,.71,1l.72,1,.77.95a8.58,8.58,0,0,0,.78.94,5,5,0,0,0-.61-1.07c-.34-.51-.7-1-.7-1s-.39-.48-.8-.93A5.28,5.28,0,0,0,82.44,22.07Z"/></g><g class="cls-5"><path class="cls-3" d="M77.74,8.41a1.69,1.69,0,0,0,.25.3l.7.74c.57.61,1.34,1.43,2,2.3a17.65,17.65,0,0,1,1.73,2.53,11.45,11.45,0,0,1,.6,1.25,13,13,0,0,1,.51,1.29c.28.79.59,1.87.89,2.95s.61,2.16.84,3l.29,1a2.38,2.38,0,0,0,.13.36,1.51,1.51,0,0,0-.07-.38c-.06-.24-.14-.58-.23-1-.21-.82-.48-1.9-.76-3s-.56-2.18-.83-3-.49-1.32-.49-1.32a12.82,12.82,0,0,0-.64-1.27,16.9,16.9,0,0,0-1.81-2.53c-.72-.86-1.52-1.66-2.12-2.25L78,8.66Z"/></g><g class="cls-5"><path class="cls-3" d="M75.94,7.15a3.47,3.47,0,0,0-.43-.45c-.26-.26-.63-.59-1-.92s-.77-.62-1.08-.84-.52-.35-.52-.35a9.14,9.14,0,0,0-1.82-.82,4.9,4.9,0,0,0-2-.26,2.83,2.83,0,0,0,.6.11A7,7,0,0,1,71,4a9.77,9.77,0,0,1,1.74.88A15.71,15.71,0,0,1,74.37,6C75.15,6.55,75.91,7.18,75.94,7.15Z"/></g><g class="cls-5"><path class="cls-3" d="M82.82,9.81s.35.74.68,1.48.61,1.49.61,1.49.31.75.56,1.52.45,1.56.5,1.55a7.88,7.88,0,0,0-.29-1.61c-.21-.79-.49-1.57-.49-1.57s-.31-.76-.7-1.48A7.17,7.17,0,0,0,82.82,9.81Z"/></g><g class="cls-5"><path class="cls-3" d="M76,42.8c.08,0-.46-10.44-.46-10.44S74.83,21.94,74.75,22s.45,10.43.45,10.43S75.87,42.8,76,42.8Z"/></g><g class="cls-5"><path class="cls-3" d="M77.54,39.73a2.46,2.46,0,0,0,0-.37c0-.24,0-.57.06-1,0-.81.13-1.89.21-3,.17-2.16.43-4.3.43-4.3s.21-2.15.51-4.29c.14-1.07.3-2.14.43-2.94l.15-1c0-.24,0-.37,0-.37a1.8,1.8,0,0,0-.09.36c0,.23-.13.56-.21,1-.16.79-.35,1.86-.53,2.92-.34,2.14-.59,4.29-.59,4.29s-.22,2.16-.34,4.32c-.06,1.08-.1,2.16-.11,3,0,.4,0,.74,0,1A1.61,1.61,0,0,0,77.54,39.73Z"/></g><g class="cls-5"><path class="cls-3" d="M76.77,30.19a15.2,15.2,0,0,0,0-1.71l0-1.7v-1.7a16.72,16.72,0,0,0,0-1.71,9.65,9.65,0,0,0-.19,1.7c-.06.85-.08,1.71-.08,1.71s0,.85,0,1.71A11.07,11.07,0,0,0,76.77,30.19Z"/></g><g class="cls-5"><path class="cls-3" d="M62.07,1.71A6.32,6.32,0,0,0,63,2a7.47,7.47,0,0,1,.84.34,8.79,8.79,0,0,1,.82.39,7.65,7.65,0,0,0,.8.46,2.5,2.5,0,0,0-.69-.64,5.4,5.4,0,0,0-.81-.48,6.2,6.2,0,0,0-.9-.28A2.57,2.57,0,0,0,62.07,1.71Z"/></g><g class="cls-5"><path class="cls-3" d="M55.14,3.05A7.61,7.61,0,0,0,55.9,3a11.83,11.83,0,0,1,1.68-.11A12.77,12.77,0,0,1,59.26,3c.45.07.74.14.74.14s.3.06.74.18a12.67,12.67,0,0,1,1.59.55,13,13,0,0,1,1.48.8,6.26,6.26,0,0,0,.66.4,4,4,0,0,0-.59-.5,10.37,10.37,0,0,0-1.46-.89A12.18,12.18,0,0,0,60.82,3l-.75-.2s-.31-.07-.77-.13a11.28,11.28,0,0,0-1.72-.08,11,11,0,0,0-1.7.2A2.93,2.93,0,0,0,55.14,3.05Z"/></g><g class="cls-5"><path class="cls-3" d="M45.14,13.08a2.29,2.29,0,0,0,.34.22,7,7,0,0,0,1,.47,11.05,11.05,0,0,0,3.12.76,17.85,17.85,0,0,0,3.21,0c.88-.08,1.46-.17,1.46-.17s.57-.09,1.43-.26a24,24,0,0,0,3.11-.81,11.66,11.66,0,0,0,2.83-1.52c.36-.25.65-.47.85-.63a1.67,1.67,0,0,0,.3-.26,2.37,2.37,0,0,0-.34.21l-.87.58a11.93,11.93,0,0,1-2.84,1.41,22.61,22.61,0,0,1-3.09.74c-.86.16-1.43.24-1.43.24s-.57.1-1.43.19a17.85,17.85,0,0,1-3.17.08,11.26,11.26,0,0,1-3.1-.65C45.66,13.36,45.16,13.05,45.14,13.08Z"/></g><g class="cls-5"><path class="cls-3" d="M44.38,16.39a2.82,2.82,0,0,0,1.26.32A4.72,4.72,0,0,0,47,16.56,4.51,4.51,0,0,0,48.13,16,2.87,2.87,0,0,0,49,15s-.46.45-1,.77a4.64,4.64,0,0,1-1.14.48,4.79,4.79,0,0,1-1.22.22A12.44,12.44,0,0,1,44.38,16.39Z"/></g><g class="cls-5"><path class="cls-3" d="M45.53,20.56a5,5,0,0,0,.36-.73c.16-.36.36-.7.36-.7s.17-.36.37-.71a5.11,5.11,0,0,0,.39-.7s-.32.26-.57.58A6.67,6.67,0,0,0,46,19a6.07,6.07,0,0,0-.3.76A2.13,2.13,0,0,0,45.53,20.56Z"/></g><g class="cls-5"><path class="cls-3" d="M53.36,5.23s.72-.11,1.44-.1a8.2,8.2,0,0,1,1.41.12,8.78,8.78,0,0,1,1.39.33c.68.22,1.3.58,1.33.55a4.11,4.11,0,0,0-1.26-.75,5.77,5.77,0,0,0-2.88-.47A4.29,4.29,0,0,0,53.36,5.23Z"/></g><g class="cls-5"><path class="cls-3" d="M50.89,12.12a.76.76,0,0,0,.26,0c.17,0,.42,0,.71,0A17.33,17.33,0,0,0,54,11.88a19.54,19.54,0,0,0,3-.78l.25-.1c.16-.06.39-.14.65-.26a19.07,19.07,0,0,0,1.93-1,14.27,14.27,0,0,0,1.79-1.17,1.42,1.42,0,0,0,.59-.77,2.4,2.4,0,0,1-.66.68A18.27,18.27,0,0,1,59.74,9.6a20.11,20.11,0,0,1-1.93.88l-.65.25-.25.09a21.21,21.21,0,0,1-3,.85c-.76.16-1.52.28-2.1.34A9.44,9.44,0,0,0,50.89,12.12Z"/></g><g class="cls-5"><path class="cls-3" d="M45.46,10.75s.61-.35,1.24-.65A13.37,13.37,0,0,1,48,9.58a12.5,12.5,0,0,1,1.32-.44c.67-.19,1.36-.28,1.36-.33a4.79,4.79,0,0,0-1.41.12,11,11,0,0,0-1.37.36,10,10,0,0,0-1.28.62A4.51,4.51,0,0,0,45.46,10.75Z"/></g><path class="cls-4" d="M45.77,18.45c.57-1.09-1.67-1.73-1.67-1.73a6,6,0,0,0,2.24-.7c1.48-.71-1-2.44-1.09-2.64l3.6,1,.16.36-.24,0s-2,5-2,7c0,0-1.43-1.81-3.24-.73a18,18,0,0,1,0-2.34C44.34,19.09,45.41,19.12,45.77,18.45Z"/><g class="cls-6"><path class="cls-3" d="M74.78,19.48c-1.51.4-3.24-1.14-4.35-2-1.34-1.07-2.71-2.17-2.82-4a.51.51,0,0,1,.63-.48c1.61.3,2.6,1.55,3.79,2.56,1,.86,2.88,1.83,3.19,3.17a.64.64,0,0,1-.44.77Z"/></g><g class="cls-6"><path class="cls-3" d="M74.61,16.16a1.82,1.82,0,0,1-1-.42A2.86,2.86,0,0,1,72.8,15c-.12-.16.08-.39.26-.33a2.94,2.94,0,0,1,1,.54,1.84,1.84,0,0,1,.71.78.16.16,0,0,1-.16.2Z"/></g><g class="cls-6"><path class="cls-3" d="M80.09,20c-1.19-1.71-2.44-3.39-3.73-5C75.28,13.58,74,12.4,72.94,11c-.25-.33.16-.76.51-.66,1.9.51,3.18,2.23,4.34,3.73a17.49,17.49,0,0,1,3,5.55.41.41,0,0,1-.74.32Z"/></g><g class="cls-6"><path class="cls-3" d="M81.61,16.76c-.35-.19-.41-.76-.56-1.1a12.41,12.41,0,0,1-.62-1.27c-.08-.22.22-.37.37-.22a3.73,3.73,0,0,1,.74,1.28c.15.36.47.89.25,1.26a.13.13,0,0,1-.18.05Z"/></g><g class="cls-6"><path class="cls-3" d="M79.34,12.54c-1.06-.45-1.94-1.7-2.72-2.52s-2-1.7-2.47-2.82c-.05-.12.09-.22.2-.19,1.17.28,2.17,1.47,3,2.31s2,2,2.13,3.11c0,.05,0,.14-.11.11Z"/></g><g class="cls-6"><path class="cls-3" d="M83.78,13.83c-1.23-1.58-2.32-3.24-3.69-4.72s-3.16-2.34-4.1-4a.64.64,0,0,1,.55-1c2.12.25,3.66,2.14,4.91,3.73a12.15,12.15,0,0,1,2.63,5.79.18.18,0,0,1-.3.13Z"/></g><g class="cls-6"><path class="cls-3" d="M83,8.23l-.63-.76c-.07-.08,0-.21.13-.12l.66.72c.1.11-.06.27-.16.16Z"/></g><g class="cls-6"><path class="cls-3" d="M76,29.31a17.61,17.61,0,0,1,.39,6.51c0,.23-.41.33-.45.06a17.7,17.7,0,0,1-.07-6.57c0-.07.11-.06.13,0Z"/></g><g class="cls-6"><path class="cls-3" d="M58.68,11.24c-.81,1.41-2.4,1.8-3.9,2.08a14.12,14.12,0,0,1-6.59,0,.43.43,0,0,1,.12-.84c3.57-.22,6.95.31,10.27-1.37a.07.07,0,0,1,.1.09Z"/></g><g class="cls-6"><path class="cls-3" d="M61.08,5.29a14.07,14.07,0,0,1-2.41-.76c-.14-.07,0-.29.11-.25a12.58,12.58,0,0,1,2.33.93s0,.09,0,.08Z"/></g><g class="cls-6"><path class="cls-3" d="M57.26,4a21.45,21.45,0,0,1-2.66.31,6.15,6.15,0,0,1-2.41.12.18.18,0,0,1,0-.33,4.5,4.5,0,0,1,2.59-.5A6.75,6.75,0,0,1,57.27,4a0,0,0,0,1,0,0Z"/></g><g class="cls-6"><path class="cls-3" d="M58.34,8.33c-1.06,1.14-3,1.59-4.42,2A10.91,10.91,0,0,1,49,11a.57.57,0,0,1-.13-1,18.54,18.54,0,0,1,4.57-1.31c1.48-.34,3.13-1.08,4.64-.92a.36.36,0,0,1,.26.61Z"/></g><g class="cls-6"><path class="cls-3" d="M52.74,7.13a2,2,0,0,1-1.21.4,3.83,3.83,0,0,1-1.35,0,.16.16,0,0,1,0-.29,3.73,3.73,0,0,1,1.31-.34A2,2,0,0,1,52.72,7a.11.11,0,0,1,0,.15Z"/></g><g class="cls-6"><path class="cls-3" d="M61.78,2.32a3.32,3.32,0,0,1-1.37-.27c-.55-.13-1-.35-1.59-.52-.1,0-.12-.2,0-.22a4.18,4.18,0,0,1,1.69,0A2.41,2.41,0,0,1,61.93,2a.25.25,0,0,1-.15.36Z"/></g><path class="cls-16" d="M50.1,77.34A2.69,2.69,0,0,1,52.33,77a1,1,0,0,1,0-.53c.4-1.08,2.46-1.59,2.22-.47a5,5,0,0,0,.09,1.92A15.14,15.14,0,0,1,56.36,79s2.92,2.47.94,4.65-4.61-.36-5-.32-.17,1.44-.3,2-2,.56-2.88-1.61S49,80.53,49,80.53s-1,1-1.47.43S48,79,50.1,77.34Z"/><path class="cls-31" d="M50.33,82.83a6.07,6.07,0,0,0,0,1,4.2,4.2,0,0,0,.14,1,1.19,1.19,0,0,0,.35.58c.14.11.27.15.27.17s-.15,0-.33-.09a1.16,1.16,0,0,1-.46-.6,4.34,4.34,0,0,1-.23-1.05,5.46,5.46,0,0,1,.08-1.07,3.64,3.64,0,0,1,.28-1S50.36,82.31,50.33,82.83Zm-1.47-1.78s.23-.42.49-.82a7.11,7.11,0,0,1,.56-.76,6.52,6.52,0,0,1,.62-.71,2,2,0,0,1,.52-.37c.16-.08.27-.11.27-.12s-.13,0-.31,0a2,2,0,0,0-.6.32,5.22,5.22,0,0,0-.7.69,5.84,5.84,0,0,0-.52.83A2.45,2.45,0,0,0,48.86,81.05Zm1.51-1.21a4.09,4.09,0,0,0-.61.84,6,6,0,0,0-.49.94,4.2,4.2,0,0,0-.23,1,2,2,0,0,0,.12,1,7.37,7.37,0,0,1,.06-1,4.23,4.23,0,0,1,.29-1,9.48,9.48,0,0,1,.4-.94A6.6,6.6,0,0,0,50.37,79.84ZM51.75,77s.1,0,.22,0a1.18,1.18,0,0,1,.44.11,4.1,4.1,0,0,1,.42.21l.2.09a10,10,0,0,0,1.33.47,8.84,8.84,0,0,0-1.23-.7l-.2-.08a3,3,0,0,0-.46-.16,1.15,1.15,0,0,0-.51,0A.36.36,0,0,0,51.75,77Z"/><path class="cls-17" d="M48,79.83c.13.62,2.56-1.17,2.66-1.27s-1.87,2-1.65,2.38,1.35-1.1,1.35-1.1-1.12,2.6-.72,2.77S51,80.29,51,80.29c-.15.52-.9,3.86-.11,3.94s.9-2.24.9-2.24.72.84,2.94.41c1.76-.33,1.44-2.68,1.2-3.72l.44.32a6.08,6.08,0,0,1,1.11,1.34,10.68,10.68,0,0,1,.42,2.3,2.59,2.59,0,0,1-.59,1c-2,2.18-4.61-.36-5-.32s-.17,1.44-.3,2-2,.56-2.88-1.61S49,80.53,49,80.53s-1,1-1.47.43c-.27-.37,0-1.07.73-1.95A1.72,1.72,0,0,0,48,79.83Z"/><path class="cls-17" d="M53.83,75.36l-.18.24a1.42,1.42,0,0,0,.73,2.23,12.48,12.48,0,0,0-1.55-.56c-.34-.1-1.06-.23-1.72-.35a3.61,3.61,0,0,1,1.22,0,1,1,0,0,1,0-.53A1.94,1.94,0,0,1,53.83,75.36Z"/><path class="cls-31" d="M54.38,77.83l.11,0Z"/><path class="cls-7" d="M76.21,49s5.57,19.53,3.73,27.83-22.66,8.76-22.66,8.76-2.64-3.59-1-7.42c0,0,15.18-1.14,15.4-4.9s-2.41-17.12-2.41-17.12S68.33,48.79,76.21,49Z"/><g class="cls-8"><path class="cls-9" d="M71.62,50.71a6,6,0,0,0-1,1.48,11.73,11.73,0,0,0-.68,1.65,10.75,10.75,0,0,0-.31,1.76,6.1,6.1,0,0,0,0,1.78s0-.89.17-1.75a13.23,13.23,0,0,1,.39-1.71,13.72,13.72,0,0,1,.58-1.64C71.17,51.48,71.65,50.74,71.62,50.71Z"/><g class="cls-10"><path class="cls-11" d="M69.2,53s-.14.17-.29.74a4,4,0,0,0,0,2.32,3,3,0,0,0,.49,1.05s-.19-.55-.28-1.1a5.46,5.46,0,0,1-.09-1.11,6.44,6.44,0,0,1,.07-1.11C69.21,53.25,69.24,53,69.2,53Z"/></g><path class="cls-9" d="M75.93,75.63a2.5,2.5,0,0,0-.75-1.08A4.14,4.14,0,0,0,74,73.84a4,4,0,0,0-1.32-.22,2.62,2.62,0,0,0-1.28.32,6.75,6.75,0,0,1,1.27-.1,3.72,3.72,0,0,1,.85.15c.23.07.37.13.37.13s.15,0,.37.15a4.07,4.07,0,0,1,.74.44A8,8,0,0,1,75.93,75.63Z"/><path class="cls-9" d="M73.68,76.3a2.74,2.74,0,0,0-.25-.87,3.08,3.08,0,0,0-.31-.55,2.83,2.83,0,0,0-.2-.23,2.4,2.4,0,0,0-.24-.18,2,2,0,0,0-.62-.22,1.18,1.18,0,0,0-.64.09c-.16.07-.24.17-.23.18s.11,0,.27-.07a1.18,1.18,0,0,1,.56,0,1.87,1.87,0,0,1,.51.25,1.94,1.94,0,0,1,.19.16,2.47,2.47,0,0,1,.18.18,2.84,2.84,0,0,1,.34.48A4.48,4.48,0,0,0,73.68,76.3Z"/></g><path class="cls-12" d="M60.68,85.4c-2,.18-3.4.21-3.4.21s-2.64-3.59-1-7.42c0,0,15.18-1.14,15.4-4.9s-2.41-17.12-2.41-17.12-.08-6.28,4.85-8.06c-1,1.43-2.94,5.22-2.89,7.84.1,4.4,2.2,17.13,4.59,16.79,1.57-.22,3-4.5,3.88-7.39.61,4.33.87,8.6.23,11.5-.55,2.51-2.83,4.3-5.75,5.58.78-2,1.21-4.21-.2-5.13C71.17,75.46,60.41,79,58.48,80.07,57.14,80.78,58.77,83.55,60.68,85.4Z"/><path class="cls-13" d="M73.61,50.22c.07,0,.25-.12.43-.22s.37-.19.37-.19a3.71,3.71,0,0,1,.33-.25c.18-.12.39-.2.39-.29s-.26-.14-.52-.11a1.65,1.65,0,0,0-.52.14,1.77,1.77,0,0,0-.35.4C73.59,49.93,73.54,50.18,73.61,50.22Z"/><path class="cls-32" d="M31.89,63c-.41,1.79-2.56,2.69-4.8,2s-3.71-2.71-3.3-4.5,2.55-2.69,4.79-2S32.3,61.19,31.89,63Z"/><path class="cls-33" d="M31.89,63c-.41,1.79-2.56,2.69-4.8,2s-3.71-2.71-3.3-4.5,2.55-2.69,4.79-2S32.3,61.19,31.89,63Z"/><path class="cls-33" d="M27.76,62.55a4.7,4.7,0,0,1-3.3-3.3,2.65,2.65,0,0,0-.67,1.23c-.41,1.79,1.07,3.81,3.3,4.5s4.39-.21,4.8-2a2.86,2.86,0,0,0,0-1.2A4,4,0,0,1,27.76,62.55Z"/><path class="cls-32" d="M21.9,70.46c-.35,0-.67-.32-.78-.81C20.45,66.5,19.55,61,21,59.5s4.26,0,4.8.27a1.35,1.35,0,0,1,.43,1.5c-.17.58-.65.85-1.06.61-1-.59-2.67-1.11-3.19-.56-.32.61,0,4.29.73,7.68a1.25,1.25,0,0,1-.55,1.42A.59.59,0,0,1,21.9,70.46Z"/><path class="cls-34" d="M25.77,59.77c-.15-.08-.48-.26-.89-.44.33.38.57.8.46,1.11-.3.77-2.46-.35-3.28-.26s-.67,5-1.12,5.62c-.16.22-.37-.12-.57-.65.18,1.61.49,3.24.75,4.5.11.49.43.81.78.81a.59.59,0,0,0,.23,0A1.25,1.25,0,0,0,22.68,69c-.72-3.39-1.05-7.07-.73-7.68.52-.55,2.19,0,3.19.56.41.24.89,0,1.06-.61A1.35,1.35,0,0,0,25.77,59.77Z"/><path class="cls-32" d="M41.34,63c-.41,1.79-2.55,2.69-4.79,2s-3.72-2.71-3.31-4.5,2.56-2.69,4.79-2S41.75,61.19,41.34,63Z"/><path class="cls-33" d="M41.34,63c-.41,1.79-2.55,2.69-4.79,2s-3.72-2.71-3.31-4.5,2.56-2.69,4.79-2S41.75,61.19,41.34,63Z"/><path class="cls-33" d="M37.22,62.55a4.66,4.66,0,0,1-3.3-3.3,2.58,2.58,0,0,0-.68,1.23c-.41,1.79,1.07,3.81,3.31,4.5s4.38-.21,4.79-2a2.86,2.86,0,0,0,0-1.2A4,4,0,0,1,37.22,62.55Z"/><path class="cls-32" d="M31.36,70.46a.9.9,0,0,1-.78-.81C29.91,66.5,29,61,30.43,59.5s4.25,0,4.79.27a1.35,1.35,0,0,1,.44,1.5c-.18.58-.66.85-1.07.61-1-.59-2.66-1.11-3.19-.56-.32.61,0,4.29.74,7.68a1.27,1.27,0,0,1-.55,1.42A.66.66,0,0,1,31.36,70.46Z"/><path class="cls-34" d="M35.22,59.77c-.15-.08-.47-.26-.89-.44.34.38.58.8.46,1.11-.3.77-2.46-.35-3.28-.26s-.67,5-1.11,5.62c-.16.22-.37-.12-.57-.65.18,1.61.48,3.24.75,4.5a.9.9,0,0,0,.78.81.66.66,0,0,0,.23,0A1.27,1.27,0,0,0,32.14,69c-.72-3.39-1.06-7.07-.74-7.68.53-.55,2.19,0,3.19.56.41.24.89,0,1.07-.61A1.35,1.35,0,0,0,35.22,59.77Z"/><path class="cls-32" d="M50.79,63c-.41,1.79-2.55,2.69-4.79,2s-3.71-2.71-3.3-4.5,2.55-2.69,4.79-2S51.2,61.19,50.79,63Z"/><path class="cls-33" d="M50.79,63c-.41,1.79-2.55,2.69-4.79,2s-3.71-2.71-3.3-4.5,2.55-2.69,4.79-2S51.2,61.19,50.79,63Z"/><path class="cls-33" d="M46.67,62.55a4.7,4.7,0,0,1-3.3-3.3,2.65,2.65,0,0,0-.67,1.23c-.41,1.79,1.07,3.81,3.3,4.5s4.39-.21,4.79-2a2.7,2.7,0,0,0,0-1.2A4,4,0,0,1,46.67,62.55Z"/><path class="cls-32" d="M40.81,70.46c-.35,0-.67-.32-.78-.81-.67-3.15-1.57-8.65-.15-10.15s4.26,0,4.8.27a1.35,1.35,0,0,1,.43,1.5c-.17.58-.65.85-1.06.61-1-.59-2.67-1.11-3.19-.56-.33.61,0,4.29.73,7.68A1.27,1.27,0,0,1,41,70.42.59.59,0,0,1,40.81,70.46Z"/><path class="cls-34" d="M44.68,59.77c-.15-.08-.48-.26-.9-.44.34.38.58.8.46,1.11-.29.77-2.45-.35-3.27-.26s-.67,5-1.12,5.62c-.16.22-.37-.12-.57-.65.18,1.61.48,3.24.75,4.5.11.49.43.81.78.81a.59.59,0,0,0,.23,0A1.27,1.27,0,0,0,41.59,69c-.72-3.39-1.06-7.07-.73-7.68.52-.55,2.19,0,3.19.56.41.24.89,0,1.06-.61A1.35,1.35,0,0,0,44.68,59.77Z"/><polygon class="cls-32" points="43.66 88.47 72.75 88.18 73.03 80.93 53.75 68.11 6.64 68.64 6.73 77.34 43.66 88.47"/><polygon class="cls-34" points="6.72 76.1 6.73 77.34 43.66 88.47 72.7 88.18 53.75 75.58 6.72 76.1"/><polygon class="cls-32" points="10.6 77.38 6.37 184.91 52.87 191.84 74.48 182.93 69.78 88.28 52.5 76.83 10.6 77.38"/><polygon class="cls-33" points="52.9 191.83 74.48 182.93 69.78 88.28 52.58 76.89 52.9 191.83"/><polygon class="cls-33" points="54.12 68.36 53.75 75.58 72.7 88.18 72.02 88.19 72.02 88.19 72.75 88.18 73.03 80.93 54.12 68.36"/><path class="cls-35" d="M12.38,79.4c0,.64-3.65,103.68-3.65,103.68l42.72,6.65s-26.83-16.1-31.77-42.28S12.38,79.4,12.38,79.4Z"/><path class="cls-35" d="M7.48,70.08v5.53l45.06-.83S11.21,75.2,7.48,70.08Z"/><path class="cls-35" d="M30.4,78.82l20.65-.43.12,82.6s-2.7-77-4.05-78.79S30.4,78.82,30.4,78.82Z"/></g></g></g></svg>