<svg xmlns="http://www.w3.org/2000/svg" viewBox="0 0 110.38 191.81"><defs><style>.cls-1{isolation:isolate;}.cls-2{fill:#d4ecd4;}.cls-10,.cls-12,.cls-16,.cls-19,.cls-2,.cls-21,.cls-22,.cls-23,.cls-25,.cls-26,.cls-4,.cls-6{mix-blend-mode:multiply;}.cls-28,.cls-3,.cls-4,.cls-8{fill:#f15e6b;}.cls-15,.cls-16,.cls-22,.cls-25,.cls-4,.cls-7,.cls-8{opacity:0.5;}.cls-23,.cls-24,.cls-5,.cls-6{fill:#e5b678;}.cls-11,.cls-29,.cls-6{opacity:0.45;}.cls-11,.cls-15,.cls-20,.cls-24,.cls-27,.cls-28,.cls-7,.cls-8{mix-blend-mode:screen;}.cls-10,.cls-25,.cls-26,.cls-27,.cls-9{fill:#6f3a1e;}.cls-10{opacity:0.3;}.cls-13,.cls-15,.cls-21{fill:#294168;}.cls-14{fill:#fff;}.cls-16,.cls-17{fill:#d3dbfd;}.cls-18,.cls-19{fill:#88ac76;}.cls-19{opacity:0.35;}.cls-21,.cls-26,.cls-31{opacity:0.25;}.cls-30{fill:#a95913;}.cls-31,.cls-32{fill:#bd4c6b;}</style></defs><title>full_fearРесурс 4</title><g class="cls-1"><g id="Слой_2" data-name="Слой 2"><g id="OBJECTS"><ellipse class="cls-2" cx="62.67" cy="181.14" rx="36.89" ry="10.67"/><path class="cls-3" d="M43.82,174.81s0,.08,0,.21c.25,1.08,1.34,6,.77,6.58S42.92,176,42.92,176"/><path class="cls-4" d="M43.82,174.81s0,.08,0,.21c.25,1.08,1.34,6,.77,6.58S42.92,176,42.92,176"/><path class="cls-5" d="M44.83,115.47l-9.55,18.46s7.87,3.72,7.57,37.75c0,1.18,1,2.38,1,3.55a14.61,14.61,0,0,1-2.21,8.22c-.66,1-4.73,3.92-4.31,1.18.68-4.5,1.53-5.84,2.09-9,.42-2.38-.14-3.5-.83-5.84-1.53-5.18-3.13-10.33-4.66-15.51-1.77-6-3.58-12.09-5.92-17.9-2.19-5.45,1.12-14.64,1.21-23.8S43.07,85.14,44.83,115.47Z"/><path class="cls-6" d="M31.4,105.16c.45.26.9.55,1.35.85.79,1.61,4.51,2.74,7.91,4.72.56,2.73,5.44-.63,1.25,10.54l-6.63,12.66h0a6.67,6.67,0,0,1,2.31,2.68l.17.29a23.94,23.94,0,0,1,1.6,3.64l.18.53c.12.36.24.73.36,1.12s.23.81.35,1.24a73.57,73.57,0,0,1,2,12.13c0,.37.07.74.1,1.13.35,4.19.54,9.14.49,15a2.18,2.18,0,0,0,0,.44,4.76,4.76,0,0,0,.26.89c.12.3.25.6.38.89a6.21,6.21,0,0,1,.3.89,2.13,2.13,0,0,1,.07.44,8.23,8.23,0,0,1,0,1c0,.35,0,.71-.08,1.07,0,.21-.06.42-.1.63s-.11.63-.18.94l0,.13a16.38,16.38,0,0,1-.66,2.09h0a14.39,14.39,0,0,1-.67,1.48c-.17.31-.34.6-.52.87A6.85,6.85,0,0,1,39.92,185l-.4.25-.19.11-.4.19a1.84,1.84,0,0,1-1.15.2.56.56,0,0,1-.41-.48,1.92,1.92,0,0,1,0-.63c0-.3.09-.59.14-.86,0-.1,0-.18,0-.27s.07-.36.1-.52l.06-.29.09-.44.06-.28.09-.38.06-.27.09-.35.06-.25.09-.35.06-.2c0-.14.07-.27.11-.4l0-.14c.05-.17.09-.34.14-.51a1.4,1.4,0,0,0,1.26.7c2.57-.29,2.55-10.52,1.56-20.67s-4.66-20.47-8-22.12c-2.25-1.11-3.67.6-4.36,1.86-.32-.85-.64-1.69-1-2.53-2.19-5.45,1.12-14.64,1.21-23.8A15.39,15.39,0,0,1,31.4,105.16Z"/><path class="cls-3" d="M38.36,180c-.31,2.11.6,2.56,1.79,1.79,3.13-2,2.72-9.43,2.72-9.43l.06-.05a19.86,19.86,0,0,1,1,2.91,14.61,14.61,0,0,1-2.21,8.22c-.66,1-4.73,3.92-4.31,1.18A37.74,37.74,0,0,1,38.36,180Z"/><path class="cls-5" d="M30.74,132.2a.46.46,0,1,0,.34-.56A.46.46,0,0,0,30.74,132.2Z"/><path class="cls-5" d="M29.66,134.32a.82.82,0,1,0,.61-1A.83.83,0,0,0,29.66,134.32Z"/><g class="cls-7"><path class="cls-8" d="M38.37,184.45a3.18,3.18,0,0,0,1.52-.62,6.7,6.7,0,0,0,1.26-1.07,7.42,7.42,0,0,0,.83-1.44,3.26,3.26,0,0,0,.33-1.6c-.09,0-.32.74-.72,1.41a7.7,7.7,0,0,1-.91,1.24,7.65,7.65,0,0,1-1,1.12C39.05,184,38.34,184.38,38.37,184.45Z"/></g><path class="cls-4" d="M41.69,183.45c-.62,1-4.26,3.58-4.34,1.61.53,1,2.13.13,3.54-1.42,2.09-2.31,2.75-7.48,2.56-7.74s-.9,1.87-1.12,2.57l-.06.19,0-.16a21.31,21.31,0,0,0,.64-6.13l.06-.05a19.86,19.86,0,0,1,1,2.91A14.61,14.61,0,0,1,41.69,183.45Z"/><path class="cls-3" d="M88.67,159.91l.15.15c.79.77,4.36,4.3,4.21,5.1s-4.48-3.78-4.48-3.78"/><path class="cls-4" d="M88.67,159.91l.15.15c.79.77,4.36,4.3,4.21,5.1s-4.48-3.78-4.48-3.78"/><path class="cls-5" d="M57.31,109.52l2,20.68s8.64-1.14,26.84,27.6c.63,1,2.1,1.48,2.82,2.41a14.69,14.69,0,0,1,2.6,8.11c0,1.21-1.85,5.86-3,3.33-1.86-4.16-1.88-5.73-3.14-8.71-.93-2.22-2-2.86-3.86-4.45-4.09-3.52-8.23-7-12.33-10.51-4.74-4.08-9.57-8.2-14.69-11.82-4.8-3.38-7-12.9-11.89-20.64S39.38,85,57.31,109.52Z"/><path class="cls-6" d="M40.44,108.14c.52,0,1.05,0,1.59,0,1.55.92,5.28-.15,9.21-.33,1.95,2,4.23-3.48,6.77,8.17l1.3,14.23h0a6.64,6.64,0,0,1,3.39,1l.31.16a24.22,24.22,0,0,1,3.32,2.18l.43.35c.3.23.6.48.92.75l1,.85a73.57,73.57,0,0,1,8.28,9.09l.69.89c2.57,3.34,5.41,7.39,8.54,12.33a1.93,1.93,0,0,0,.28.36,4.59,4.59,0,0,0,.7.6l.8.54a7.3,7.3,0,0,1,.74.58q.17.17.3.33c.19.26.38.54.56.84s.35.61.51.93l.27.58c.12.29.24.59.35.89a.93.93,0,0,1,0,.13,14.75,14.75,0,0,1,.59,2.11h0a15.27,15.27,0,0,1,.24,1.61c0,.34,0,.68,0,1a6.88,6.88,0,0,1-.65,2.25,4.09,4.09,0,0,1-.2.42l-.11.21c-.07.13-.15.25-.22.37a1.92,1.92,0,0,1-.86.8.58.58,0,0,1-.61-.19,1.8,1.8,0,0,1-.34-.53l-.35-.8c0-.09-.07-.17-.1-.25s-.14-.33-.2-.49-.08-.19-.11-.28-.11-.27-.16-.41-.07-.18-.1-.27-.09-.25-.14-.37l-.09-.25-.12-.35a2.25,2.25,0,0,0-.08-.24l-.11-.35c0-.06,0-.13-.07-.2l-.12-.39,0-.14c-.05-.17-.1-.34-.16-.51a1.4,1.4,0,0,0,1.44-.09c2-1.64-3.56-10.22-9.9-18.21s-15-14.67-18.76-14.22c-2.49.29-2.75,2.5-2.65,3.93l-2.2-1.6c-4.8-3.38-7-12.9-11.89-20.64A15.23,15.23,0,0,1,40.44,108.14Z"/><path class="cls-3" d="M86.9,167.23c.89,2,1.9,1.84,2.48.54,1.54-3.39-2.83-9.39-2.83-9.39l0-.08a21,21,0,0,1,2.4,1.91,14.69,14.69,0,0,1,2.6,8.11c0,1.21-1.85,5.86-3,3.33A39.69,39.69,0,0,1,86.9,167.23Z"/><path class="cls-5" d="M54.56,131.22a.46.46,0,1,0,0-.66A.46.46,0,0,0,54.56,131.22Z"/><path class="cls-5" d="M54.8,133.58a.82.82,0,0,0,1.17,0,.83.83,0,0,0,0-1.17.83.83,0,0,0-1.14,1.2Z"/><g class="cls-7"><path class="cls-8" d="M89.33,171a3.23,3.23,0,0,0,.93-1.34,4.81,4.81,0,0,0,.39-3.25,3,3,0,0,0-.59-1.52c-.08,0,.14.8.17,1.57a8,8,0,0,1-.09,1.54,7.42,7.42,0,0,1-.28,1.51C89.65,170.22,89.26,170.91,89.33,171Z"/></g><path class="cls-4" d="M91.57,168.32c0,1.14-1.64,5.32-2.78,3.7,1,.55,1.86-1,2.21-3.11.51-3.07-1.75-7.77-2-7.89s.26,2.07.45,2.77l.06.19-.12-.11a21.46,21.46,0,0,0-2.79-5.49l0-.08a21,21,0,0,1,2.4,1.91A14.69,14.69,0,0,1,91.57,168.32Z"/><path class="cls-9" d="M72.35,21.25s-1,24.54-6,31.44-22.78,9-31.15.59S28.57,19.63,29,18.75,60.6,7.73,72.35,21.25Z"/><path class="cls-10" d="M63,37.2c.22-2.4.54-8.73,1.1-10.36a18.52,18.52,0,0,1,2-3.94s3.86-.59,6.23-1c-.08,1.41-.3,5.12-.77,9.56-.12-.23-.27-.38-.46-.36-.85.08-2.7,6.17-2.7,6.17s.69-5.47-.31-5.47S66.47,34,66.47,34s-.46-1.62-1.62-.77C64.06,33.8,63.32,36,63,37.2Z"/><path class="cls-10" d="M63,37.2a4,4,0,0,1-.13.94C62.79,38.18,62.85,37.79,63,37.2Z"/><path class="cls-10" d="M30.61,37c.07.4.12.65.12.65S30.67,37.34,30.61,37Z"/><path class="cls-10" d="M29,18.75c0-.05.13-.12.31-.21.76.77,1.64,1.1,2.06.33a1.22,1.22,0,0,0,0-1.13c1.49-.5,3.58-1.1,6.07-1.66L60.71,36.54s-.12,7.39.9,8.6,4-5.17,4-5.17-3.12,9-2.1,10,3.37-2.16,3.37-2.16-1.39,3.37-.6,3.49c.39.06,1.58-2.3,2.66-4.65a19.92,19.92,0,0,1-2.57,6,11,11,0,0,1-3,2.71,15.37,15.37,0,0,1-1.88.13c-2.38,0-17.28-.76-24.57-.76a14.55,14.55,0,0,1-1.74-1.49,18,18,0,0,1-3.95-6.86C35,51.16,36.43,50,36.79,48.5s-2.23-5.65-2.23-5.65,3,3,3.55,1.8-6.37-9.79-7.21-10c-.6-.13-.44,1.38-.29,2.28-.27-1.4-.93-4.6-1.39-4.51-.16,0-.26.84-.33,2C28.17,26.48,28.78,19.22,29,18.75Z"/><g class="cls-7"><path class="cls-9" d="M66.06,45.16a2.19,2.19,0,0,0,.18-.38c.1-.24.25-.59.41-1,.33-.84.72-2,1.09-3.13C68.47,38.34,69,36,69,36s.51-2.36.81-4.75c.15-1.2.26-2.4.32-3.3,0-.45,0-.83.05-1.09a2.26,2.26,0,0,0,0-.42,2.5,2.5,0,0,0-.06.41c0,.26-.06.64-.11,1.09-.09.89-.24,2.09-.41,3.28-.35,2.38-.89,4.72-.89,4.72s-.49,2.35-1.17,4.66c-.34,1.15-.71,2.3-1,3.15l-.36,1A2.67,2.67,0,0,0,66.06,45.16Z"/></g><g class="cls-7"><path class="cls-9" d="M61.91,47.89a1.13,1.13,0,0,0,.16-.22c.1-.14.24-.34.39-.59.31-.5.7-1.17,1.07-1.86.73-1.38,1.3-2.84,1.3-2.84a25.82,25.82,0,0,0,.91-3c.17-.76.31-1.53.38-2.11,0-.29,0-.54.06-.71s0-.27,0-.27a9.7,9.7,0,0,0-.18,1c-.1.57-.27,1.33-.47,2.08a29,29,0,0,1-1,2.94s-.53,1.45-1.22,2.85c-.34.7-.69,1.39-1,1.9A7,7,0,0,0,61.91,47.89Z"/></g><g class="cls-7"><path class="cls-9" d="M56.38,45.5a10.53,10.53,0,0,0,.08-1.18c0-.59.1-1.18.1-1.18s0-.58.09-1.17a8.71,8.71,0,0,0,.11-1.18,5.27,5.27,0,0,0-.32,1.15c-.11.59-.18,1.18-.18,1.18s0,.6,0,1.19A4.36,4.36,0,0,0,56.38,45.5Z"/></g><g class="cls-7"><path class="cls-9" d="M34.65,46.05a1.6,1.6,0,0,0-.16-.31c-.1-.2-.26-.46-.44-.8-.36-.66-.82-1.55-1.24-2.46s-.78-1.85-1-2.56-.41-1.19-.41-1.19-.16-.47-.38-1.19-.47-1.69-.68-2.67-.37-2-.47-2.73c-.05-.37-.08-.68-.11-.9a1.66,1.66,0,0,0-.06-.34,1.48,1.48,0,0,0,0,.34c0,.22,0,.54.06.92.06.75.19,1.75.37,2.75s.42,2,.63,2.7.35,1.22.35,1.22.17.48.44,1.19.66,1.64,1.1,2.55S33.55,44.36,34,45c.19.33.37.59.49.77A1.75,1.75,0,0,0,34.65,46.05Z"/></g><g class="cls-7"><path class="cls-9" d="M36.7,45.39s-.57-.5-1-1.09A7.47,7.47,0,0,1,34.89,43a7.64,7.64,0,0,1-.57-1.37c-.22-.72-.26-1.47-.3-1.47a4.06,4.06,0,0,0,.09,1.52,5.47,5.47,0,0,0,1.4,2.71A4,4,0,0,0,36.7,45.39Z"/></g><g class="cls-7"><path class="cls-9" d="M37.77,42.79s.09.29.25.55.34.49.34.49.21.21.44.4.48.35.51.32-.17-.25-.36-.47l-.36-.45-.4-.42C38,43,37.8,42.77,37.77,42.79Z"/></g><g class="cls-7"><path class="cls-9" d="M31.74,45.6A6.23,6.23,0,0,0,32,47.32a9.75,9.75,0,0,0,.41,1.14c.14.3.25.49.25.49s.12.19.31.46a9.16,9.16,0,0,0,.77.93A9,9,0,0,0,35,51.53s-.56-.66-1.1-1.33a8.73,8.73,0,0,1-.7-1c-.18-.27-.28-.45-.28-.45s-.11-.18-.26-.47a9.5,9.5,0,0,1-.46-1.07C31.93,46.45,31.78,45.59,31.74,45.6Z"/></g><g class="cls-11"><path class="cls-9" d="M70.6,35.92c-.3,3.38-.7,7.79-2.88,10.53-.15.19-.51,0-.5-.21a31.17,31.17,0,0,1,1.27-4.87c.47-1.85.94-3.68,1.27-5.56.08-.47.89-.37.84.11Z"/></g><g class="cls-11"><path class="cls-9" d="M67.92,34.83a1.31,1.31,0,0,1,.19,1.2,2.75,2.75,0,0,1-.51,1.33c-.22.25-.59,0-.61-.26a4.51,4.51,0,0,1,.28-1.3,1.47,1.47,0,0,1,.6-1Z"/></g><g class="cls-11"><path class="cls-9" d="M66.52,39.23A7.79,7.79,0,0,1,65.91,42c0,.09-.18,0-.16-.07.19-.93.51-1.82.72-2.75,0,0,0,0,0,0Z"/></g><g class="cls-11"><path class="cls-9" d="M65.12,34.29A4,4,0,0,1,65,36.55a12.29,12.29,0,0,1-.84,2.85c-.06.13-.25.06-.25-.07a11.35,11.35,0,0,1,.29-2.79c.18-.75.2-1.73.78-2.27a.11.11,0,0,1,.15,0Z"/></g><g class="cls-11"><path class="cls-9" d="M31.55,36.92a2,2,0,0,1,.6.85,2.77,2.77,0,0,1,.19,1.14.25.25,0,0,1-.46.12,4.38,4.38,0,0,1-.38-1,2.19,2.19,0,0,1-.14-.5c0-.17,0-.36,0-.54a.09.09,0,0,1,.16-.06Z"/></g><g class="cls-11"><path class="cls-9" d="M30,37.28c1.64,3.2,3.21,6.56,4.61,9.86.14.35-.26.77-.57.44a16,16,0,0,1-4.16-10.27.06.06,0,0,1,.12,0Z"/></g><g class="cls-7"><path class="cls-9" d="M65.5,50.53a10.67,10.67,0,0,0,.88-1.44A12.05,12.05,0,0,0,67,47.51,10.74,10.74,0,0,0,66.11,49,12,12,0,0,0,65.5,50.53Z"/></g><path class="cls-5" d="M11.43,68.76,9.9,68.18s.48-3.55-1.53-4.74c-.62-.37-1.37-.64-2-1.07-.34-.25-.67-.67-1.08-.59-.69.15-.65,1.15-.37,1.62C4.11,63,.7,63,1.45,64.73A2.32,2.32,0,0,0,.22,67.05a1.45,1.45,0,0,1,0,.36,1.32,1.32,0,0,1-.15.42,1.44,1.44,0,0,0,.14,1.29c.05.08-.07.27-.06.36C.18,70.94,2,71.67,3.09,72s3.13.8,4.35.11l2.12,1.41S12.64,69.41,11.43,68.76Z"/><g class="cls-12"><path class="cls-5" d="M6.53,67.16A3.8,3.8,0,0,1,6,65.4a3.32,3.32,0,0,1,0-.79,2.38,2.38,0,0,0-.24.78,3,3,0,0,0,.4,2,2.37,2.37,0,0,0,1.64,1.15,1.41,1.41,0,0,0,.61,0,1,1,0,0,0,.2-.09,1.35,1.35,0,0,1-.77,0A2.71,2.71,0,0,1,6.53,67.16Z"/><path class="cls-5" d="M5.39,64a6.63,6.63,0,0,1-.5-.91l-.21-.41a2.77,2.77,0,0,0,.39,1.54,1.8,1.8,0,0,0,.95.67,4.17,4.17,0,0,0,.45.11A5.53,5.53,0,0,1,5.39,64Z"/><path class="cls-5" d="M4.11,71a1.13,1.13,0,0,0-.61-.77.84.84,0,0,0-.38-.1,1.23,1.23,0,0,1,.27.25,1.75,1.75,0,0,1,.35.71,1.16,1.16,0,0,1,0,.75.4.4,0,0,1-.23.24A.38.38,0,0,0,3.86,72,1,1,0,0,0,4.11,71Z"/><path class="cls-5" d="M2.77,69.91A4.78,4.78,0,0,1,.1,68.78a3,3,0,0,0,.61.66,3.71,3.71,0,0,0,2,.85A1.72,1.72,0,0,0,4,70a.75.75,0,0,0,.29-.54A.68.68,0,0,0,4.09,69a1.31,1.31,0,0,0-.56-.37.53.53,0,0,0-.25,0,.67.67,0,0,1,.22.08,1.4,1.4,0,0,1,.44.44.46.46,0,0,1-.16.66A1.61,1.61,0,0,1,2.77,69.91Z"/><path class="cls-5" d="M3,68.13a11.82,11.82,0,0,1-2-.59,2.37,2.37,0,0,1-.74-.48,2,2,0,0,0,.64.65,6.7,6.7,0,0,0,2.06.8,1.52,1.52,0,0,0,1.28-.17,1.1,1.1,0,0,0,.41-1,1.08,1.08,0,0,0-.49-.78,1.15,1.15,0,0,1,.3.79.92.92,0,0,1-.41.71A1.3,1.3,0,0,1,3,68.13Z"/><path class="cls-5" d="M4.11,66.38A4.35,4.35,0,0,1,1.7,65a2,2,0,0,1-.35-.78,1.92,1.92,0,0,1,0-.32,1.14,1.14,0,0,0,0,.32,1.88,1.88,0,0,0,.25.88A3.93,3.93,0,0,0,4,66.74a1.25,1.25,0,0,0,1,0,.82.82,0,0,0,.41-.83,1.79,1.79,0,0,0-.86-1.09,4.86,4.86,0,0,0-1.09-.56,6.74,6.74,0,0,1,1,.71,1.74,1.74,0,0,1,.66,1,.5.5,0,0,1-.26.47A.92.92,0,0,1,4.11,66.38Z"/><path class="cls-5" d="M5.35,68.78a2.47,2.47,0,0,0-.64.88,2,2,0,0,0-.12.43,7.78,7.78,0,0,1,1-1,8.44,8.44,0,0,1,1.15-.84,2.28,2.28,0,0,0-1.4.55Z"/></g><path class="cls-6" d="M5,65.93c-.26.86-2.53.27-3.59-1.19l-.69.56a2.24,2.24,0,0,0-.54,1.75,1.45,1.45,0,0,1,0,.36,1.32,1.32,0,0,1-.15.42,2.86,2.86,0,0,0-.07.28c1.16.22,3.6.76,3.67,1.35.09.77-2.35.73-3.59-.68l0,0a1.59,1.59,0,0,0,.15.29c.05.08-.07.27-.06.36a1.77,1.77,0,0,0,.07.46c1,.19,3.14.71,2.91,1.54A2.47,2.47,0,0,1,3,72l.13,0c1.25.39,3.13.8,4.35.11l2.12,1.41s3.08-4.14,1.87-4.79L9.9,68.18a8.62,8.62,0,0,0,0-1.72c-.27.59-.73,1-1.61.46C6.39,65.74,6.85,64.4,6.85,64.4a8.44,8.44,0,0,1-2-2.13A1.51,1.51,0,0,0,5,63.4c-.72-.3-3.25-.41-3.57.63C2.33,64.31,5.27,65.22,5,65.93Zm-1,1.68c0,.45-4.4-.09-2.87-2C2.24,66,4,67.16,4.06,67.61Z"/><path class="cls-13" d="M45.09,49.72c.15.82-.36,1.88-.7,3Q43.27,56.6,42,60.38c-1.89,5.4-4,11.57-7.84,16.05-6,6.95-25-2.11-25-2.11a9,9,0,0,1,3-7.41s14.27,5.84,16.42,2.42,3.52-7.31,5-11.06c1.41-3.51,2.2-7,5.59-9.05a5.36,5.36,0,0,1,4.56-.77C44.61,48.75,45,49.18,45.09,49.72Z"/><path class="cls-14" d="M45.09,49.72c.15.82-.36,1.88-.7,3Q43.27,56.6,42,60.38c-1.89,5.4-4,11.57-7.84,16.05-6,6.95-25-2.11-25-2.11a9,9,0,0,1,3-7.41s14.27,5.84,16.42,2.42,3.52-7.31,5-11.06C35,54.76,37.3,46.83,40.68,44.75c1.43-.88,1.5,3.18,3,3.7C44.61,48.75,45,49.18,45.09,49.72Z"/><path class="cls-15" d="M14.25,75.78a14.68,14.68,0,0,0,2.61.94c1.32.41,2.67.77,2.67.77s1.36.29,2.74.54a11.36,11.36,0,0,0,1.93.25,1.56,1.56,0,0,0,.9-.18s-.36,0-.87-.07a15.85,15.85,0,0,1-1.84-.44l-2.67-.71L17,76.29A16,16,0,0,0,14.25,75.78Z"/><path class="cls-16" d="M9.12,74.24a1.34,1.34,0,0,0,0-.19v-.37h0a9.88,9.88,0,0,1,.14-1.62v0c0-.2.08-.41.13-.63l0-.06a6.93,6.93,0,0,1,.2-.71.55.55,0,0,1,.32.28c.63,1.49,13.13,7.41,15,3.65a3.94,3.94,0,0,0,0-4.16h0c.32,0,.63,0,.93,0h.05a5.18,5.18,0,0,0,1.52-.26l.06,0a2.19,2.19,0,0,0,.57-.29h0c1.08,1.45,4.81,5.4,8.41-2.9a146.11,146.11,0,0,1,8.64-17.21h0c.15.82-.36,1.88-.7,3q-1.1,3.75-2.39,7.45c-2,5.87-4.86,12.69-7.89,16.22-6,6.95-25-2.11-25-2.11v-.07Z"/><g class="cls-12"><path class="cls-17" d="M28.46,71.92a2.46,2.46,0,0,0,1,1,2.14,2.14,0,0,0,.57.19,2.52,2.52,0,0,1-.51-.28,3.2,3.2,0,0,1-.91-1,3.36,3.36,0,0,1-.42-1.31,3.2,3.2,0,0,1,0-.6,2.42,2.42,0,0,0-.1.61A2.63,2.63,0,0,0,28.46,71.92Z"/><path class="cls-17" d="M27.46,72a2.31,2.31,0,0,0,.47,1,1.75,1.75,0,0,0,.33.31,3.16,3.16,0,0,1-.6-1.38,3.51,3.51,0,0,1,.05-1.56,2.1,2.1,0,0,0-.19.45A2.41,2.41,0,0,0,27.46,72Z"/><path class="cls-17" d="M39.75,57.36c1,2.38,2,4.25,2,4.25s-.75-2-1.78-4.35l-1.36-3a3.87,3.87,0,0,1-.32-1.33,3.65,3.65,0,0,0,.23,1.37C38.77,55.1,39.24,56.17,39.75,57.36Z"/><path class="cls-17" d="M39.53,59.45A11.87,11.87,0,0,0,41.25,61L39.69,59.3l-1.56-1.66A11.59,11.59,0,0,0,39.53,59.45Z"/></g><path class="cls-18" d="M56,82.57a18.63,18.63,0,0,1,6.09,12.5c.32,7.69-1.28,22.75-2.89,30.77l-3.84,2.24-1-7.69L51.84,129s-16.06,2.8-24.07-4.57c0,0,.67-31,10.29-40.94S56,82.57,56,82.57Z"/><path class="cls-19" d="M59,125.84c1.74-8,3.48-23.08,3.14-30.77a2.12,2.12,0,0,1,0-.24L62,94.09h0A3.93,3.93,0,0,0,62,93.6c0-.1,0-.19,0-.28s0-.29-.08-.43l-.06-.28-.09-.4c0-.1,0-.19-.07-.28s-.07-.27-.11-.4,0-.17-.08-.26-.08-.26-.13-.39a2.25,2.25,0,0,0-.08-.24l-.15-.41c0-.06-.05-.13-.08-.19l-.18-.45-.06-.14L60.5,89l0-.06a18.83,18.83,0,0,0-2.2-3.45,18.06,18.06,0,0,0-2.78-2.87A14.51,14.51,0,0,0,48.18,79c-.49.28-1,.56-1.46.85s-1,.77-.84,1.28a1.21,1.21,0,0,0,.68.54c1.34.59,2.84.84,4.16,1.46a7.07,7.07,0,0,1,2.92,2.69.32.32,0,0,0,0,.09l.07.18h0c1.76,3,2.21,7.16,2.31,9.92.17,4.81-1.14,9.53-2,14.24C53,116.31,46.62,125.13,38.8,125,32,125,29.7,117,29.23,108.27a144.75,144.75,0,0,0-1.46,16.2c6.4,5.89,17.94,5.28,22.32,4.8.55-.13.87-.23.87-.23l2.79-8.65.2,1.52.46-1.52.92,7.4Z"/><g class="cls-20"><path class="cls-18" d="M32.06,108.85a8.29,8.29,0,0,0,.24-1.61c.12-1,.28-2.25.47-3.53.37-2.57.88-5.11.88-5.11s.43-2.56,1-5.09c.29-1.26.6-2.52.84-3.47a10.82,10.82,0,0,0,.35-1.59A8.87,8.87,0,0,0,35.26,90c-.31.92-.68,2.17-1,3.43-.68,2.52-1.19,5.08-1.19,5.08s-.44,2.57-.71,5.16c-.13,1.3-.23,2.6-.27,3.57A8.42,8.42,0,0,0,32.06,108.85Z"/><path class="cls-18" d="M32.48,122.15a27.14,27.14,0,0,0-.16-2.77c-.09-1.38-.12-2.76-.12-2.76s-.09-1.37-.12-2.75a23.65,23.65,0,0,0-.09-2.78,13.27,13.27,0,0,0-.34,2.77c-.08,1.39,0,2.79,0,2.79s.09,1.39.29,2.77A12.09,12.09,0,0,0,32.48,122.15Z"/><path class="cls-18" d="M56.56,125.54s.07-.11.25-.24.47-.21.83-.43a1,1,0,0,0,.43-.54,4.57,4.57,0,0,0,.17-.71c.09-.48.19-1,.29-1.5l.75-4.08s1.2-8.21,1-8.23S58.69,118,58.69,118l-.58,4.11c-.07.51-.14,1-.21,1.51a5.62,5.62,0,0,1-.1.67.8.8,0,0,1-.29.44,7.34,7.34,0,0,0-.78.53C56.55,125.39,56.54,125.54,56.56,125.54Z"/><path class="cls-18" d="M40,128.39a5.52,5.52,0,0,0,1.33.26,25.36,25.36,0,0,0,3,.18,27.87,27.87,0,0,0,4.34-.33s.53-.1,1.33-.29l.64-.17a2.69,2.69,0,0,0,.38-.12.9.9,0,0,0,.39-.34,4.09,4.09,0,0,0,.26-.8l.21-.78c.28-1,.55-2.09.75-2.88a6.31,6.31,0,0,0,.26-1.32,6.29,6.29,0,0,0-.49,1.26c-.26.76-.6,1.79-.93,2.82l-.25.76a3.35,3.35,0,0,1-.24.67c-.07.13-.23.17-.47.22l-.63.14c-.79.15-1.32.23-1.32.23a30.55,30.55,0,0,1-4.24.5,29.16,29.16,0,0,1-2.95,0A8.37,8.37,0,0,0,40,128.39Z"/></g><path class="cls-19" d="M38.46,83.12h0a13.82,13.82,0,0,1,8.19-4.23c5.5-.48,9.36,3.68,9.36,3.68a16,16,0,0,1,2.16,2.33c-2.28.71-5.91,1.74-8.13,1.6A10.35,10.35,0,0,1,43.63,84a4.76,4.76,0,0,1-3.18,1.84,13.93,13.93,0,0,1-3.76,0A5.85,5.85,0,0,0,38.46,83.12Z"/><path class="cls-3" d="M33.57,62.1c.26-3.26,1.86-6.25,3.06-9.24.91-2.26,1.92-6.4,3.95-8s12.5-.25,12.5-.25,8.11,3,8.38,4.29-4.17,13.4-5,18c-.41,2.15-.88,4.31-1.2,6.48-.57,3.94-.88,7.72,1.66,11a19,19,0,0,1-6.93,1,10.35,10.35,0,0,1-6.41-2.54,4.76,4.76,0,0,1-3.18,1.84,13.93,13.93,0,0,1-3.76,0c2.94-2.6,2.06-5.9,1.51-9.29-.38-2.32-.68-4.8-2.09-6.77S33.35,64.74,33.57,62.1Z"/><path class="cls-4" d="M33.57,62.1c0-.35.07-.68.12-1l0-.06a8.78,8.78,0,0,1,.21-1A8.45,8.45,0,0,0,35,63.69c1.22,1.39,2.26.17,7,1.39s7.84.7,11.15-3.31c2.66-3.22,4.3-8.46,4.84-10.38a9.12,9.12,0,0,1,2,3.47c-.44,1.43-.94,3-1.41,4.5l-.07.23-.15.47-.1.32c0,.14-.08.28-.13.42s-.07.25-.11.37l-.12.38-.12.41c0,.11-.06.22-.1.33s-.12.43-.19.64l-.06.21c0,.18-.1.37-.16.55a1.82,1.82,0,0,1-.07.25c0,.15-.08.29-.11.43a2,2,0,0,0-.07.26c0,.13-.07.26-.11.38l-.06.25-.09.36-.06.23c0,.13,0,.25-.08.37l0,.17c0,.18-.07.34-.1.5-.1.54-.21,1.08-.32,1.61-.14.7-.27,1.4-.4,2.1s-.3,1.63-.43,2.44c0,.11,0,.22-.05.33h0c-.57,3.94-.88,7.72,1.66,11a19,19,0,0,1-6.93,1,10.76,10.76,0,0,1-5.55-1.86,5.07,5.07,0,0,0,1,.14,7.55,7.55,0,0,0,2.41-.24,13.61,13.61,0,0,0,2.77-3.25,14.65,14.65,0,0,0,1.18-3c0-.84-.08-1.67-.16-2.5l.57.37a7.37,7.37,0,0,0-.06-2.17c-.53-2.44-6.1-2.27-10.28-1.74a6.75,6.75,0,0,0-4.07,1.89h0c0-.16-.07-.33-.11-.49l0-.15c-.07-.29-.14-.57-.22-.85l0-.11A9.33,9.33,0,0,0,36,68.66C34.49,66.54,33.35,64.74,33.57,62.1Z"/><path class="cls-16" d="M43.16,83.35a3.76,3.76,0,0,1-.32-.55,3,3,0,0,0,.49.37Z"/><path class="cls-21" d="M45.42,84.5h-.07l-.09,0Z"/><path class="cls-5" d="M52.52,41.11s.54,5.45-1.61,6.41-4.56,1-5.36-1.29,0-5.44,0-5.44S52.25,39.82,52.52,41.11Z"/><path class="cls-6" d="M46.54,47.6c3.46-.53,5.58-4.5,4.44-3.92s-4.56.12-5.79-.07a14,14,0,0,1,.36-2.82s6.7-1,7,.32c0,0,.54,5.45-1.61,6.41C49.36,48.21,47.66,48.4,46.54,47.6Z"/><path class="cls-16" d="M47.17,48.34s-3.23,3-3.85,1.36a.38.38,0,0,1,0-.1,26.06,26.06,0,0,1,1.9-4.67,2.73,2.73,0,0,0,2.36,2.38,4.5,4.5,0,0,0,4.62-2.7c.23,1.17-.69,3.59-2.5,6.78C49.19,51.5,48.27,51.2,47.17,48.34Z"/><path class="cls-14" d="M52.54,43.18c.05-.39,1.3,3.87-2.43,7.6,0,0-1.24,1.37-2.86-2.86,0,0-3.24,3-3.86,1.37s1.8-5.68,1.8-5.68-.18,2.91,2.44,3.28A4.51,4.51,0,0,0,52.54,43.18Z"/><path class="cls-16" d="M43.39,48.75c.62,1.62,3.86-1.37,3.86-1.37,1.62,4.23,2.86,2.86,2.86,2.86a8.69,8.69,0,0,0,2.67-5.84,8.55,8.55,0,0,1-2.67,6.38s-1.24,1.37-2.86-2.86c0,0-3.24,3-3.86,1.37a2,2,0,0,1-.08-.91A1.34,1.34,0,0,0,43.39,48.75Z"/><g class="cls-7"><path class="cls-8" d="M35.18,59.69a4.46,4.46,0,0,0,.2-.87A14.34,14.34,0,0,1,35.91,57c.23-.67.5-1.33.7-1.82l.33-.83s1.87-5.4,1.71-5.46-2.27,5.25-2.27,5.25l-.29.84c-.17.51-.4,1.19-.59,1.89a11,11,0,0,0-.36,2A2.11,2.11,0,0,0,35.18,59.69Z"/><path class="cls-8" d="M35.08,62.33c.16,0,.19-.82.19-.82s-.24-.76-.41-.74-.19.82-.19.82S34.91,62.36,35.08,62.33Z"/><path class="cls-8" d="M40.71,80.63c.06,0-.41-.73-.74-1.47a10.46,10.46,0,0,1-.56-1.51A10,10,0,0,1,39,76.1a14.57,14.57,0,0,0-.28-1.62,3.83,3.83,0,0,0-.15,1.68,9.28,9.28,0,0,0,.3,1.68,8.42,8.42,0,0,0,.75,1.52A3.85,3.85,0,0,0,40.71,80.63Z"/></g><g class="cls-22"><path class="cls-3" d="M53.58,79.13a4.5,4.5,0,0,0,.36-.66c.16-.34.25-.72.29-.72a1.73,1.73,0,0,1-.09.79,4,4,0,0,1-.31.75,3.7,3.7,0,0,1-.51.61,1.57,1.57,0,0,1-.66.44s.27-.29.5-.58A4.92,4.92,0,0,0,53.58,79.13Z"/><path class="cls-3" d="M45.11,68.94a11.52,11.52,0,0,0,1.69.14,10.91,10.91,0,0,0,1.67-.17c.23,0,.41-.1.55-.12l.2-.05.2-.06c.13,0,.32-.07.53-.15a9.55,9.55,0,0,0,3-1.59,4.84,4.84,0,0,1,.61-.48A3.41,3.41,0,0,1,53,67a8.83,8.83,0,0,1-1.38,1,10.62,10.62,0,0,1-1.57.73c-.22.09-.41.13-.54.18l-.21.06-.21,0a5,5,0,0,1-.56.11,9.94,9.94,0,0,1-1.72.11,9.71,9.71,0,0,1-1.71-.23,3.11,3.11,0,0,1-.74-.25S44.66,68.87,45.11,68.94Z"/><path class="cls-3" d="M38.87,77.76s0,.44.08.87a4.08,4.08,0,0,0,.22.82,4.14,4.14,0,0,0,.34.78c.21.37.51.69.48.73a1.78,1.78,0,0,1-.66-.62,3.39,3.39,0,0,1-.44-.79,3.76,3.76,0,0,1-.15-.9A1.84,1.84,0,0,1,38.87,77.76Z"/><path class="cls-3" d="M35.55,67.58c.36.22.73.41.73.41s.36.22.73.41a5.18,5.18,0,0,1,.76.38,2.21,2.21,0,0,1-.84-.19,6.89,6.89,0,0,1-.8-.34,5.89,5.89,0,0,1-.7-.5,2.18,2.18,0,0,1-.6-.62A5,5,0,0,1,35.55,67.58Z"/><path class="cls-3" d="M42.61,59l.81-1.44s.33-.56.8-1.43a29.17,29.17,0,0,0,1.49-3.29,31.26,31.26,0,0,0,1.08-3.45c.11-.48.21-.88.27-1.16a2.41,2.41,0,0,1,.11-.44,3,3,0,0,1-.05.45c0,.28-.11.69-.21,1.18a28,28,0,0,1-1,3.49,29.18,29.18,0,0,1-1.44,3.35c-.46.88-.79,1.45-.79,1.45l-.83,1.42a21.77,21.77,0,0,0-1.59,3.24,10,10,0,0,0-.66,3.52A7.7,7.7,0,0,0,40.72,67c.05.28.09.44.08.44s0,0,0-.11-.06-.18-.09-.32,0,0,0-.06l0,.42c.09.9.25,2.1.46,3.29s.48,2.38.7,3.25.4,1.46.4,1.46.16.59.43,1.45.68,2,1,3.18a14.33,14.33,0,0,1,.59,3.3v.18l-.11-.08a.31.31,0,0,1,0-.1,14.47,14.47,0,0,0-.68-3.24c-.36-1.15-.79-2.29-1.07-3.15S42,75.48,42,75.48s-.16-.58-.38-1.47-.46-2.08-.64-3.28-.31-2.41-.37-3.32c0-.46,0-.84,0-1.1v-.1a2.19,2.19,0,0,1,0-.36,9.53,9.53,0,0,1,.57-3.59A21.87,21.87,0,0,1,42.61,59Z"/></g><g class="cls-7"><path class="cls-3" d="M39.34,63.4a7.39,7.39,0,0,0,1.2,0,6.49,6.49,0,0,1,2.56.34,14.05,14.05,0,0,0,2.58.76,5.53,5.53,0,0,0,1.27.07l.35,0a4.8,4.8,0,0,0,.89-.25,8.68,8.68,0,0,0,2.33-1.4,10.87,10.87,0,0,0,2-1.79A2.38,2.38,0,0,0,53.1,60c-.05,0-.25.42-.75.93a13.84,13.84,0,0,1-2.08,1.6A8.92,8.92,0,0,1,48,63.73a3.73,3.73,0,0,1-.8.18,2.33,2.33,0,0,1-.31,0,5.08,5.08,0,0,1-1.14,0,15.42,15.42,0,0,1-2.54-.62,6.57,6.57,0,0,0-1.44-.24,8.09,8.09,0,0,0-1.26.08A4,4,0,0,0,39.34,63.4Z"/></g><path class="cls-5" d="M32.45,21.77A2.34,2.34,0,0,0,29.21,21c-2.19,1.45-1.1,9,1.89,8.94S33,21.61,32.45,21.77Z"/><path class="cls-6" d="M32.45,21.77A2.34,2.34,0,0,0,29.21,21c-2.19,1.45-1.1,9,1.89,8.94S33,21.61,32.45,21.77Z"/><path class="cls-23" d="M29.7,27.71c0-.06.22,0,.48-.08a.46.46,0,0,0,.32-.26.77.77,0,0,0,0-.5.88.88,0,0,0-.27-.43c-.12-.11-.27-.15-.46-.31a.88.88,0,0,1-.29-.77,1,1,0,0,1,.09-.29,1.26,1.26,0,0,1,.16-.24A1.43,1.43,0,0,1,30,24.6a1.45,1.45,0,0,1,.22-.09h0s0,0,0,0,0-.08,0-.13a1.36,1.36,0,0,0,0-.2,2.21,2.21,0,0,0-.32-.8c-.29-.51-.73-.71-.71-.79s.52,0,1,.5a2.7,2.7,0,0,1,.53.94l.07.25c0,.09,0,.15,0,.29s0,.48,0,.65a2.54,2.54,0,0,0-.43,0l-.11.05a.46.46,0,0,0-.12.13.38.38,0,0,0-.07.1s0,0,0,0,.25.18.44.39a1.58,1.58,0,0,1,.39.82,1.18,1.18,0,0,1-.17.88.63.63,0,0,1-.57.29C29.87,27.92,29.69,27.75,29.7,27.71Z"/><path class="cls-6" d="M31.1,30c3-.1,1.87-8.37,1.35-8.21a2.82,2.82,0,0,0-1.7-1.12,5.36,5.36,0,0,1-.2,3.07s-.79-1.25-1.21-.83.23,2.42-.68,2.62c-.28.06-.46-.16-.58-.49C28.25,27.45,29.35,30,31.1,30Z"/><g class="cls-7"><path class="cls-24" d="M28.32,22.72c-.12.42-.07.84.13,1s.45-.16.58-.59.07-.85-.13-.95S28.45,22.29,28.32,22.72Z"/><path class="cls-24" d="M29.09,21.49a.34.34,0,0,0,.15.39.21.21,0,0,0,.32-.11.33.33,0,0,0-.15-.38A.21.21,0,0,0,29.09,21.49Z"/></g><path class="cls-5" d="M65.9,21.86C66.14,15.07,63.33,4.06,49,4S32.49,19.61,32.49,19.61a43.54,43.54,0,0,0-1.32,10.24c.17,4.43,2.48,11,12.77,12.07S62.16,38.66,64,32.33a5.26,5.26,0,0,0,4.85-4.24C69.58,25.17,68,22.21,65.9,21.86Z"/><g class="cls-12"><path class="cls-6" d="M65.83,22A21.61,21.61,0,0,0,65,15.16a17.46,17.46,0,0,0-2.33-4.88c2.06,3.46,2.42,8.66,2.31,11.82.18,0,.61-.09.9-.1Z"/><path class="cls-6" d="M67.71,23.14a6.07,6.07,0,0,1,.42,4.07,5.26,5.26,0,0,1-4.85,4.24c-1.85,6.33-9.78,10.65-20.07,9.6-5.42-.56-8.62-2.65-10.47-5.15,1.7,2.93,5,5.53,11.13,6.16,10.29,1,18.22-3.27,20.07-9.6a5.26,5.26,0,0,0,4.85-4.24A5.85,5.85,0,0,0,67.71,23.14Z"/></g><g class="cls-12"><path class="cls-5" d="M66.58,29.8a1,1,0,0,1-.42.84.77.77,0,0,1-.43.15.7.7,0,0,1-.52-.24,1.24,1.24,0,0,1-.31-.64.9.9,0,0,1,.22-.78,3.21,3.21,0,0,1,.44-.29.61.61,0,0,0,.21-.26.92.92,0,0,0,.06-.62.46.46,0,0,0-.32-.33.27.27,0,0,0-.12,0h-.14l-.08,0,0,0-.11.16c-.16.24-.29.3-.45.31a.42.42,0,0,1-.26-.12.63.63,0,0,1-.16-.29,4,4,0,0,1-.07-.88c0-.21,0-.41,0-.62a3.7,3.7,0,0,1,.32-1.13,2,2,0,0,1,.6-.73c.44-.32.8-.22.79-.17s-.31.1-.62.45a2.52,2.52,0,0,0-.59,1.68c0,.18,0,.36,0,.54s0,.13,0,.17.07,0,.07,0h0l.09-.08a1,1,0,0,1,.21-.1.74.74,0,0,1,.34-.06.79.79,0,0,1,.3.05A.93.93,0,0,1,66,27a1.39,1.39,0,0,1,.5.83A1.75,1.75,0,0,1,66.26,29a1.24,1.24,0,0,1-.44.44,2.31,2.31,0,0,0-.38.18.2.2,0,0,0-.09.22.64.64,0,0,0,.12.34.42.42,0,0,0,.55.13C66.4,30.15,66.53,29.76,66.58,29.8Z"/></g><path class="cls-24" d="M67.22,24.37c.3.31.64.4.76.2s0-.59-.31-.89-.64-.39-.76-.2S66.92,24.07,67.22,24.37Z"/><path class="cls-24" d="M66.1,22.9a.33.33,0,0,0,.15.38.21.21,0,0,0,.32-.1.34.34,0,0,0-.15-.39A.21.21,0,0,0,66.1,22.9Z"/><path class="cls-9" d="M54.22,27.76s.23.11.49.08a1,1,0,0,0,.85-.5c.15-.21.21-.46.17-.47s-.16.18-.33.33a2,2,0,0,1-.36.24,1.64,1.64,0,0,1-.38.19C54.46,27.71,54.22,27.72,54.22,27.76Z"/><path class="cls-9" d="M53.73,28.26s.21.21.5.28a1.94,1.94,0,0,0,.58.06,1.79,1.79,0,0,0,.55-.2c.26-.15.44-.38.41-.4s-.25.12-.5.2a1.89,1.89,0,0,1-.5.1,2.12,2.12,0,0,1-.51,0C54,28.32,53.75,28.22,53.73,28.26Z"/><path class="cls-9" d="M35.17,25.18s-.13.22-.09.46a1,1,0,0,0,.2.46,1.09,1.09,0,0,0,.44.23c.25.06.48,0,.47-.07s-.23,0-.4-.14a.8.8,0,0,1-.29-.23,1,1,0,0,1-.22-.3C35.2,25.41,35.21,25.19,35.17,25.18Z"/><path class="cls-9" d="M34.71,26.14s0,.3.14.54a1.14,1.14,0,0,0,.44.4,1.18,1.18,0,0,0,.58.05c.3,0,.52-.24.5-.27s-.27.08-.51.06a1,1,0,0,1-.45-.12,1,1,0,0,1-.4-.25C34.84,26.38,34.75,26.13,34.71,26.14Z"/><path class="cls-9" d="M38.59,25.59c0,1.36-.57,2.47-1.33,2.47s-1.4-1.1-1.43-2.46.58-2.46,1.34-2.47S38.56,24.23,38.59,25.59Z"/><path class="cls-25" d="M38.59,25.59c0,1.36-.57,2.47-1.33,2.47s-1.4-1.1-1.43-2.46.58-2.46,1.34-2.47S38.56,24.23,38.59,25.59Z"/><path class="cls-26" d="M37.81,23.42A4.52,4.52,0,0,1,38,24.49C38,25.85,37.4,27,36.64,27a.94.94,0,0,1-.64-.29c.23.82.71,1.39,1.26,1.39.76,0,1.35-1.11,1.33-2.47A3.15,3.15,0,0,0,37.81,23.42Z"/><path class="cls-27" d="M36.1,25.18c0,.46.14.86.38.88s.46-.33.49-.8-.14-.86-.38-.89S36.13,24.71,36.1,25.18Z"/><path class="cls-27" d="M37,23.93a.17.17,0,0,1-.17.19.18.18,0,0,1-.18-.19.18.18,0,0,1,.17-.19A.19.19,0,0,1,37,23.93Z"/><path class="cls-9" d="M54.79,26.76c-.15,1.36-.89,2.38-1.64,2.29s-1.24-1.26-1.09-2.62.89-2.37,1.64-2.28S54.94,25.41,54.79,26.76Z"/><path class="cls-25" d="M54.79,26.76c-.15,1.36-.89,2.38-1.64,2.29s-1.24-1.26-1.09-2.62.89-2.37,1.64-2.28S54.94,25.41,54.79,26.76Z"/><path class="cls-26" d="M54.34,24.57a4.41,4.41,0,0,1,0,.89c-.16,1.35-.89,2.38-1.65,2.29a1,1,0,0,1-.64-.42c.1.94.52,1.65,1.1,1.72.75.09,1.49-.93,1.64-2.29A3.17,3.17,0,0,0,54.34,24.57Z"/><path class="cls-27" d="M52.49,26c-.09.46,0,.87.26.92s.5-.27.59-.73,0-.88-.26-.93S52.58,25.53,52.49,26Z"/><path class="cls-27" d="M53.59,24.87a.19.19,0,0,1-.2.17.19.19,0,0,1-.16-.21.19.19,0,0,1,.2-.17A.18.18,0,0,1,53.59,24.87Z"/><path class="cls-6" d="M46.62,30.66a5.49,5.49,0,0,1-4.33-1.18s-1.22.78,1,1.6C46.12,32.18,46.62,30.66,46.62,30.66Z"/><g class="cls-12"><path class="cls-5" d="M45.38,31.27a5.9,5.9,0,0,1-.9,0,5.41,5.41,0,0,1-1.85-.63A1.13,1.13,0,0,1,42,30a.57.57,0,0,1,.26-.56,1.5,1.5,0,0,1,.5-.22,1,1,0,0,1,.21,0,2.28,2.28,0,0,1,.51,0,3.1,3.1,0,0,1,.61.09,3.44,3.44,0,0,1,.37.14,7.54,7.54,0,0,1,.8.49c0-.31,0-.65,0-1,0-.19,0-.4,0-.61,0-.41,0-.84,0-1.22a5.61,5.61,0,0,0-.13-1.36,5.75,5.75,0,0,0-.16,1.36c0,.38-.05.81-.07,1.23l0,.61c0,.06,0,.08,0,.09L44.72,29l-.44-.18a3.51,3.51,0,0,0-.73-.15,2.78,2.78,0,0,0-.63,0,1.87,1.87,0,0,0-.28.06,1.94,1.94,0,0,0-.7.36,1.35,1.35,0,0,0-.35.45,1.09,1.09,0,0,0,0,.67,1.52,1.52,0,0,0,.88.88,4.86,4.86,0,0,0,2,.48A1.31,1.31,0,0,0,45.38,31.27Z"/></g><path class="cls-24" d="M43.43,29.59c0,.14.14.35.44.47s.57.1.63,0-.14-.35-.43-.46S43.49,29.45,43.43,29.59Z"/><path class="cls-6" d="M49.91,30.9c0,1.36,1.72,2.48,3.88,2.51S57.7,32.35,57.71,31,56,28.5,53.84,28.48,49.93,29.54,49.91,30.9Z"/><path class="cls-6" d="M31.85,29.11c-.26,1.33,1.22,2.74,3.31,3.15s4-.35,4.26-1.69-1.23-2.74-3.32-3.15S32.11,27.77,31.85,29.11Z"/><path class="cls-6" d="M32.43,19.75S34.61,4,49,4.08,66.07,15.2,65.83,22c1.59.27,2.89,2.05,3.11,4.18-1.65-.44-3.47-2.34-4-2.91-.24,1.6-1.15,7.11-1.84,11.2A12.07,12.07,0,0,1,60.21,38c-.19-4.24-.56-12.22-.75-15.35a16.73,16.73,0,0,1-3-1.89,35.43,35.43,0,0,1-8.16-8.56s-8.94,4.53-14.35,3.64c0,0-2,5-2,7l-.12-.13C32.11,21,32.43,19.75,32.43,19.75Z"/><path class="cls-9" d="M44.21.39C50.73-1.07,53.83,2,53.83,2s7.32-2.77,12.8,2.87c0,0,5,1.67,5.7,13.86.63,11.2-5.79,4.56-6.84,3.41-.39,2.65-2.63,16-2.63,16l-2,1.5S60.26,25.9,60,21.56a17.44,17.44,0,0,1-3-1.9,35.43,35.43,0,0,1-8.16-8.56s-8.94,4.53-14.35,3.64c0,0-2,5-2,7,0,0-1.43-1.81-3.24-.73C29.21,21,27.65,4.1,44.21.39Z"/><path class="cls-10" d="M68,13.58c-.19-.39-.3-.64-.3-.64S67.81,13.18,68,13.58ZM51.85,15A41.43,41.43,0,0,0,57,19.66a17.44,17.44,0,0,0,3,1.9c.12,2,.31,5.94.49,9.65,0-2.42.15-6,.86-6.12,1-.1,1,4.45,1,4.45s.11-4.13,1.06-3.39c.53.42.64,2.72.62,4.66.6-3.56,1.22-7.35,1.41-8.63C66.54,23.33,73,30,72.33,18.77a35.15,35.15,0,0,0-.79-5.85c.2,2.18.24,4.31-.36,4.56-1,.41-2.54-2.55-3.19-3.9.78,1.75,2.73,6.57,1.18,8-1.9,1.79-7.61-4.55-7.61-4.55s1.58,2.85.53,3.59S54.14,17,51.85,15Z"/><path class="cls-10" d="M46.49,10.67a4.46,4.46,0,0,0-3.24.07S49.17,6.58,48,5.25A13.46,13.46,0,0,0,44.1,2.78s3.31-.07,5,1.06c0,0,2.62-.1.4-1.5,0,0,2.1-.41,2.31-1.53a6.89,6.89,0,0,1,2,1.23,13.48,13.48,0,0,1,7.89-.15,3.2,3.2,0,0,0-2.47.54c-1.06,1.12,2,4.27,2,4.27s-3.87-1.88-4.65-1.53,4,4.16,4,4.16S55.09,6.8,54.88,7.5s1.9,2.82,1.9,2.82-6.27-4.09-5.42.92a13.92,13.92,0,0,0,2.17,5.43,31.53,31.53,0,0,1-4.7-5.57,46.42,46.42,0,0,1-6.27,2.53C44.58,12.66,47.43,11.14,46.49,10.67Z"/><g class="cls-7"><path class="cls-9" d="M59.93,21s-.09-.09-.26-.22l-.73-.54c-.61-.45-1.42-1-2.22-1.65s-1.57-1.23-2.14-1.72-.93-.83-.93-.83a24.85,24.85,0,0,1-2.76-2.88,21.65,21.65,0,0,1-1.58-2.25c-.2-.32-.36-.59-.47-.78a1.45,1.45,0,0,0-.18-.29,1.14,1.14,0,0,0,.13.32c.09.2.23.48.41.81a20.61,20.61,0,0,0,1.52,2.32,24.81,24.81,0,0,0,2.72,3s.38.34,1,.82,1.38,1.1,2.2,1.68,1.64,1.16,2.27,1.57l.76.5A1.54,1.54,0,0,0,59.93,21Z"/></g><g class="cls-7"><path class="cls-9" d="M60.13,21.37a3,3,0,0,0,.9.71,6.41,6.41,0,0,0,1.07.45,6.22,6.22,0,0,0,1.14.14,2.84,2.84,0,0,0,1.13-.16s-.56,0-1.11-.05a6,6,0,0,1-1.08-.23,6.17,6.17,0,0,1-1-.35C60.62,21.66,60.16,21.34,60.13,21.37Z"/></g><g class="cls-7"><path class="cls-9" d="M53.8,8.05a1.29,1.29,0,0,0-.35-.56A3.38,3.38,0,0,0,53,7a4.12,4.12,0,0,0-.62-.26,1.28,1.28,0,0,0-.66-.06,4,4,0,0,0,.59.26,4.41,4.41,0,0,1,.53.32,4.32,4.32,0,0,1,.51.34C53.55,7.84,53.76,8.08,53.8,8.05Z"/></g><g class="cls-7"><path class="cls-9" d="M63,13.11a1,1,0,0,0-.09-.29,6.74,6.74,0,0,0-.31-.73,9.54,9.54,0,0,0-1.37-2,12.61,12.61,0,0,0-1.79-1.66c-.53-.4-.9-.63-.9-.63s-.38-.24-1-.55a24.22,24.22,0,0,0-2.19-1,9.43,9.43,0,0,0-2.31-.74,2,2,0,0,0-.8.08A.73.73,0,0,0,52,5.7a2.13,2.13,0,0,1,1.06-.11,9.53,9.53,0,0,1,2.24.82c.79.36,1.57.75,2.14,1.08s.93.56.93.56.37.23.9.61a12.09,12.09,0,0,1,1.79,1.57,10,10,0,0,1,1.42,1.91C62.82,12.71,63,13.12,63,13.11Z"/></g><g class="cls-7"><path class="cls-9" d="M70.6,26.21s-.27-.23-.69-.56-1-.77-1.52-1.23c-1.07-.93-2.06-1.94-2.06-1.94s-1-1-1.94-2.08c-.46-.54-.9-1.09-1.23-1.51a5.31,5.31,0,0,0-.56-.7,5.71,5.71,0,0,0,.47.76c.29.45.72,1,1.16,1.59.88,1.12,1.89,2.15,1.89,2.15s1,1,2.14,1.89c.56.45,1.13.87,1.58,1.17A4.12,4.12,0,0,0,70.6,26.21Z"/></g><g class="cls-7"><path class="cls-9" d="M68.15,22.07a6.82,6.82,0,0,0,.71,1l.72,1,.76.95a8.07,8.07,0,0,0,.79.94,5.56,5.56,0,0,0-.61-1.07c-.34-.51-.7-1-.7-1s-.39-.48-.8-.93A5.28,5.28,0,0,0,68.15,22.07Z"/></g><g class="cls-7"><path class="cls-9" d="M63.45,8.41a1.69,1.69,0,0,0,.25.3c.17.17.41.43.69.74.58.61,1.35,1.43,2,2.3a17.65,17.65,0,0,1,1.73,2.53,11.45,11.45,0,0,1,.6,1.25s.23.5.51,1.29.59,1.87.89,2.95.61,2.16.84,3l.29,1a1.5,1.5,0,0,0,.13.36,2.47,2.47,0,0,0-.07-.38l-.24-1c-.2-.82-.47-1.9-.75-3s-.56-2.18-.83-3-.49-1.32-.49-1.32a12.82,12.82,0,0,0-.64-1.27,16.9,16.9,0,0,0-1.81-2.53c-.73-.86-1.52-1.66-2.12-2.25l-.74-.7Z"/></g><g class="cls-7"><path class="cls-9" d="M61.65,7.15a3.47,3.47,0,0,0-.43-.45c-.26-.26-.63-.59-1-.92s-.77-.62-1.08-.84-.52-.35-.52-.35a9.48,9.48,0,0,0-1.82-.82,4.91,4.91,0,0,0-2-.26,2.66,2.66,0,0,0,.6.11A7.2,7.2,0,0,1,56.73,4a9.77,9.77,0,0,1,1.74.88A15.71,15.71,0,0,1,60.08,6C60.86,6.55,61.62,7.18,61.65,7.15Z"/></g><g class="cls-7"><path class="cls-9" d="M68.53,9.81s.35.74.68,1.48.61,1.49.61,1.49.31.75.56,1.52.45,1.56.49,1.55a6.83,6.83,0,0,0-.28-1.61c-.21-.79-.49-1.57-.49-1.57s-.31-.76-.7-1.48A7.77,7.77,0,0,0,68.53,9.81Z"/></g><g class="cls-7"><path class="cls-9" d="M61.66,42.8c.09,0-.45-10.44-.45-10.44S60.54,21.94,60.46,22s.45,10.43.45,10.43S61.58,42.8,61.66,42.8Z"/></g><g class="cls-7"><path class="cls-9" d="M63.25,39.73a2.46,2.46,0,0,0,0-.37c0-.24,0-.57.06-1,0-.81.13-1.89.21-3,.17-2.16.43-4.3.43-4.3s.21-2.15.5-4.29c.15-1.07.31-2.14.44-2.94.06-.41.11-.74.15-1a1.71,1.71,0,0,0,0-.37,1.56,1.56,0,0,0-.09.36c-.06.23-.13.56-.21,1-.16.79-.35,1.86-.53,2.92-.35,2.14-.59,4.29-.59,4.29s-.22,2.16-.34,4.32c-.06,1.08-.1,2.16-.11,3,0,.4,0,.74,0,1A1.61,1.61,0,0,0,63.25,39.73Z"/></g><g class="cls-7"><path class="cls-9" d="M62.48,30.19a16.72,16.72,0,0,0,0-1.71l0-1.7v-1.7a16.72,16.72,0,0,0,0-1.71,9.65,9.65,0,0,0-.19,1.7c-.06.85-.08,1.71-.08,1.71s0,.85.05,1.71A8.78,8.78,0,0,0,62.48,30.19Z"/></g><g class="cls-7"><path class="cls-9" d="M47.78,1.71a5.82,5.82,0,0,0,.88.29,7.47,7.47,0,0,1,.84.34,8.79,8.79,0,0,1,.82.39c.4.22.77.49.79.46a2.38,2.38,0,0,0-.68-.64,5.4,5.4,0,0,0-.81-.48,6.09,6.09,0,0,0-.91-.28A2.51,2.51,0,0,0,47.78,1.71Z"/></g><g class="cls-7"><path class="cls-9" d="M40.85,3.05a7.61,7.61,0,0,0,.76-.1,11.83,11.83,0,0,1,1.68-.11A12.61,12.61,0,0,1,45,3c.46.07.75.14.75.14s.3.06.74.18A12.67,12.67,0,0,1,48,3.86a14,14,0,0,1,1.48.8,5.25,5.25,0,0,0,.66.4,4,4,0,0,0-.59-.5,10.37,10.37,0,0,0-1.46-.89A12.75,12.75,0,0,0,46.53,3l-.75-.2s-.31-.07-.78-.13a10.46,10.46,0,0,0-3.41.12A2.93,2.93,0,0,0,40.85,3.05Z"/></g><g class="cls-7"><path class="cls-9" d="M30.85,13.08a2.29,2.29,0,0,0,.34.22,7.36,7.36,0,0,0,.94.47,11.22,11.22,0,0,0,3.13.76,17.86,17.86,0,0,0,3.21,0c.88-.08,1.45-.17,1.45-.17s.58-.09,1.44-.26a24.46,24.46,0,0,0,3.11-.81,11.66,11.66,0,0,0,2.83-1.52c.36-.25.65-.47.85-.63a1.67,1.67,0,0,0,.3-.26,2.37,2.37,0,0,0-.34.21l-.88.58a11.66,11.66,0,0,1-2.83,1.41,23,23,0,0,1-3.09.74c-.86.16-1.43.24-1.43.24s-.57.1-1.43.19a18,18,0,0,1-3.18.08,11.27,11.27,0,0,1-3.09-.65C31.37,13.36,30.87,13.05,30.85,13.08Z"/></g><g class="cls-7"><path class="cls-9" d="M30.09,16.39a2.77,2.77,0,0,0,1.26.32,4.72,4.72,0,0,0,1.31-.15A4.68,4.68,0,0,0,33.84,16a2.78,2.78,0,0,0,.88-1,11.47,11.47,0,0,1-1,.77,4.64,4.64,0,0,1-1.14.48,4.93,4.93,0,0,1-1.23.22A12.1,12.1,0,0,1,30.09,16.39Z"/></g><g class="cls-7"><path class="cls-9" d="M31.24,20.56a4.46,4.46,0,0,0,.35-.73c.17-.36.37-.7.37-.7s.17-.36.36-.71a4.6,4.6,0,0,0,.4-.7s-.33.26-.57.58a7.91,7.91,0,0,0-.46.69,7,7,0,0,0-.29.76A2.13,2.13,0,0,0,31.24,20.56Z"/></g><g class="cls-7"><path class="cls-9" d="M39.07,5.23s.72-.11,1.43-.1a8.24,8.24,0,0,1,1.42.12,8.53,8.53,0,0,1,1.38.33c.68.22,1.31.58,1.33.55a3.85,3.85,0,0,0-1.25-.75A7.42,7.42,0,0,0,42,5a7.42,7.42,0,0,0-1.48,0A4.28,4.28,0,0,0,39.07,5.23Z"/></g><g class="cls-7"><path class="cls-9" d="M36.59,12.12a.91.91,0,0,0,.27,0c.17,0,.42,0,.71,0a17,17,0,0,0,2.12-.24,19.47,19.47,0,0,0,3-.78L43,11l.65-.26a19.07,19.07,0,0,0,1.93-1,14.27,14.27,0,0,0,1.79-1.17,1.42,1.42,0,0,0,.59-.77,2.4,2.4,0,0,1-.66.68A18.53,18.53,0,0,1,45.44,9.6a19,19,0,0,1-1.92.88l-.66.25-.24.09a21.1,21.1,0,0,1-3,.85c-.75.16-1.52.28-2.09.34S36.59,12.1,36.59,12.12Z"/></g><g class="cls-7"><path class="cls-9" d="M31.17,10.75s.61-.35,1.24-.65a12.29,12.29,0,0,1,1.28-.52A12.81,12.81,0,0,1,35,9.14c.67-.19,1.37-.28,1.37-.33A4.78,4.78,0,0,0,35,8.93a11.47,11.47,0,0,0-1.38.36,10.25,10.25,0,0,0-1.27.62A4.51,4.51,0,0,0,31.17,10.75Z"/></g><path class="cls-10" d="M31.47,18.45c.58-1.09-1.66-1.73-1.66-1.73a6,6,0,0,0,2.24-.7c1.48-.71-1-2.44-1.09-2.64l3.6,1,.16.36-.24,0s-2,5-2,7c0,0-1.43-1.81-3.24-.73a18,18,0,0,1,0-2.34C30.05,19.09,31.12,19.12,31.47,18.45Z"/><g class="cls-11"><path class="cls-9" d="M60.49,19.48c-1.51.4-3.25-1.14-4.35-2-1.34-1.07-2.71-2.17-2.82-4A.51.51,0,0,1,54,13c1.61.3,2.6,1.55,3.79,2.56,1,.86,2.87,1.83,3.19,3.17a.64.64,0,0,1-.44.77Z"/></g><g class="cls-11"><path class="cls-9" d="M60.32,16.16a1.82,1.82,0,0,1-1-.42,2.86,2.86,0,0,1-.82-.77c-.12-.16.08-.39.26-.33a2.94,2.94,0,0,1,1,.54,1.76,1.76,0,0,1,.7.78.15.15,0,0,1-.15.2Z"/></g><g class="cls-11"><path class="cls-9" d="M65.8,20c-1.19-1.71-2.44-3.39-3.73-5C61,13.58,59.7,12.4,58.65,11c-.25-.33.16-.76.51-.66,1.9.51,3.18,2.23,4.34,3.73a17.49,17.49,0,0,1,3,5.55.41.41,0,0,1-.74.32Z"/></g><g class="cls-11"><path class="cls-9" d="M67.32,16.76c-.35-.19-.41-.76-.57-1.1s-.46-.82-.62-1.27a.23.23,0,0,1,.38-.22,3.73,3.73,0,0,1,.74,1.28c.15.36.46.89.25,1.26a.13.13,0,0,1-.18.05Z"/></g><g class="cls-11"><path class="cls-9" d="M65,12.54c-1.06-.45-1.93-1.7-2.71-2.52s-2-1.7-2.47-2.82c0-.12.09-.22.19-.19,1.18.28,2.18,1.47,3,2.31s2,2,2.13,3.11c0,.05,0,.14-.12.11Z"/></g><g class="cls-11"><path class="cls-9" d="M69.48,13.83c-1.22-1.58-2.32-3.24-3.68-4.72s-3.16-2.35-4.1-4a.64.64,0,0,1,.54-1c2.13.25,3.67,2.14,4.92,3.73a12.15,12.15,0,0,1,2.63,5.79.18.18,0,0,1-.31.13Z"/></g><g class="cls-11"><path class="cls-9" d="M68.74,8.23l-.63-.76c-.07-.08,0-.21.13-.12l.66.72c.1.11-.07.27-.16.16Z"/></g><g class="cls-11"><path class="cls-9" d="M61.74,29.31a17.61,17.61,0,0,1,.38,6.51c0,.23-.4.33-.44.06a17.7,17.7,0,0,1-.07-6.57c0-.07.11-.06.13,0Z"/></g><g class="cls-11"><path class="cls-9" d="M44.38,11.24c-.8,1.41-2.39,1.8-3.89,2.08a14.12,14.12,0,0,1-6.59,0,.43.43,0,0,1,.11-.84c3.57-.22,7,.31,10.28-1.37.06,0,.13,0,.09.09Z"/></g><g class="cls-11"><path class="cls-9" d="M46.79,5.29a14.07,14.07,0,0,1-2.41-.76c-.14-.07,0-.29.11-.25a12.58,12.58,0,0,1,2.33.93s0,.09,0,.08Z"/></g><g class="cls-11"><path class="cls-9" d="M43,4a21.45,21.45,0,0,1-2.66.31,6.16,6.16,0,0,1-2.41.12.18.18,0,0,1,0-.33,4.5,4.5,0,0,1,2.59-.5A6.75,6.75,0,0,1,43,4a0,0,0,0,1,0,0Z"/></g><g class="cls-11"><path class="cls-9" d="M44,8.33c-1,1.14-3,1.59-4.41,2a10.91,10.91,0,0,1-4.92.62.57.57,0,0,1-.13-1,18.3,18.3,0,0,1,4.57-1.31c1.48-.34,3.13-1.08,4.64-.92a.36.36,0,0,1,.25.61Z"/></g><g class="cls-11"><path class="cls-9" d="M38.44,7.13c-.29.33-.79.33-1.2.4a3.83,3.83,0,0,1-1.35,0,.16.16,0,0,1,0-.29,3.73,3.73,0,0,1,1.31-.34A2,2,0,0,1,38.43,7a.1.1,0,0,1,0,.15Z"/></g><g class="cls-11"><path class="cls-9" d="M47.49,2.32a3.32,3.32,0,0,1-1.37-.27c-.55-.13-1-.35-1.59-.52-.1,0-.12-.2,0-.22a4.18,4.18,0,0,1,1.69,0A2.41,2.41,0,0,1,47.64,2a.25.25,0,0,1-.15.36Z"/></g><g class="cls-12"><path class="cls-9" d="M54.06,23a7,7,0,0,0,1.12.4l.52.12a1.76,1.76,0,0,1-.53.18,2.19,2.19,0,0,1-1.36-.16,2.34,2.34,0,0,1-1-.93,1.71,1.71,0,0,1-.2-.53l.42.33A8.36,8.36,0,0,0,54.06,23Z"/><path class="cls-9" d="M36.9,20.34a1.72,1.72,0,0,1,1.51.08l-.41.13c-.24.08-.55.21-.87.34s-.62.27-.84.39l-.38.21A1.68,1.68,0,0,1,36.9,20.34Z"/></g><g class="cls-12"><path class="cls-5" d="M42.47,38.71a1.06,1.06,0,0,0,.33.62,1.12,1.12,0,0,0,.27.18.65.65,0,0,1-.32-.09.93.93,0,0,1-.48-.68,1,1,0,0,1,.24-.78.47.47,0,0,1,.18-.17c.07,0,.09,0,.09,0s-.13,0-.18.21A1.12,1.12,0,0,0,42.47,38.71Z"/></g><path class="cls-3" d="M47.86,36.7s-1.49-5.62-5-4.29a1.52,1.52,0,0,0-1.8-.1,1.5,1.5,0,0,0-.65,1,.77.77,0,0,0,.06.47A2.22,2.22,0,0,1,40.49,35a2.29,2.29,0,0,1-.26.9,17.25,17.25,0,0,1,2.49-.15,12.42,12.42,0,0,1,4.71.8Z"/><path class="cls-4" d="M47.86,36.7s-1.49-5.62-5-4.29a1.52,1.52,0,0,0-1.8-.1,1.5,1.5,0,0,0-.65,1,.77.77,0,0,0,.06.47A2.22,2.22,0,0,1,40.49,35a2.29,2.29,0,0,1-.26.9,17.25,17.25,0,0,1,2.49-.15,12.42,12.42,0,0,1,4.71.8Z"/><path class="cls-4" d="M47.86,36.7s-1.49-5.62-5-4.29a1.52,1.52,0,0,0-1.8-.1,1.5,1.5,0,0,0-.65,1,.77.77,0,0,0,.06.47A2.22,2.22,0,0,1,40.49,35a2.29,2.29,0,0,1-.26.9,17.25,17.25,0,0,1,2.49-.15,12.42,12.42,0,0,1,4.71.8Z"/><path class="cls-4" d="M46.68,34.07c0,.46-.68-.08-1.19-.34A8,8,0,0,0,42.56,33a6.41,6.41,0,0,0-1.77.49c-.24.06-.31-.24-.33-.51a1.58,1.58,0,0,0-.09.31.77.77,0,0,0,.06.47A2.22,2.22,0,0,1,40.49,35a2.29,2.29,0,0,1-.26.9,17.25,17.25,0,0,1,2.49-.15,12.42,12.42,0,0,1,4.71.8l.43.2A10.14,10.14,0,0,0,46.68,34.07Z"/><path class="cls-9" d="M40.63,35.86l.71-.11.27,0h0l.58-.05a13.21,13.21,0,0,1,2.74.09h0l.21,0,.34.07.15,0,.42.11a5,5,0,0,1,.51.16l0,0a7.56,7.56,0,0,1,.71.3,5.36,5.36,0,0,0-3.44-3,3.62,3.62,0,0,0-2.45.13c-.67.37-.61,1-.72,1.58C40.74,35.41,40.69,35.64,40.63,35.86Z"/><path class="cls-3" d="M40.4,35.78a.69.69,0,0,0-.37.38c-.34.91,1.82,1,2.28,1.08a12.16,12.16,0,0,0,5.57-.58l-.14-.07A9.3,9.3,0,0,0,45,35.7a12.77,12.77,0,0,0-4-.07A2.23,2.23,0,0,0,40.4,35.78Z"/><path class="cls-4" d="M47.74,36.59a8.6,8.6,0,0,0-1.85-.7c.17.4.15,1.26-2.89,1-2.42-.23-2.77-.7-2.69-1a.68.68,0,0,0-.28.32c-.34.91,1.82,1,2.28,1.08a12.16,12.16,0,0,0,5.57-.58Z"/><path class="cls-28" d="M44.75,36.15c0,.16-.28.28-.61.28s-.6-.12-.6-.28.27-.28.6-.28S44.75,36,44.75,36.15Z"/><path class="cls-14" d="M42,34.71c.91.31,3.37.53,4.12-.05A4.49,4.49,0,0,0,44,33.48a3.62,3.62,0,0,0-2.45.13,1.6,1.6,0,0,0-.28.22A1.09,1.09,0,0,0,42,34.71Z"/><path class="cls-16" d="M44,33.48a3.62,3.62,0,0,0-2.45.13,1.6,1.6,0,0,0-.28.22,1.8,1.8,0,0,0,.06.22,4.15,4.15,0,0,1,3.5.08c1.06.64-.32.8-1.41.84a4.7,4.7,0,0,0,2.71-.31A4.49,4.49,0,0,0,44,33.48Z"/><path class="cls-3" d="M77.43,151l32-17a1.67,1.67,0,0,0,.59-2.49L95.12,110.25a2.07,2.07,0,0,0-2.5-.85L66.54,123.22a2.06,2.06,0,0,0-.69,2.54l9.2,24.29A1.67,1.67,0,0,0,77.43,151Z"/><path class="cls-4" d="M68.52,126a2.09,2.09,0,0,1,.7-2.54l25.57-13.54a2.35,2.35,0,0,1,.33.37l14.93,21.25a1.67,1.67,0,0,1-.59,2.49L78,150.68a2,2,0,0,1-.23-.43Z"/><g class="cls-29"><path class="cls-28" d="M66.54,123.22,92.62,109.4a2,2,0,0,1,2.34.65h0a1.37,1.37,0,0,0-.16-.18L69.22,123.42a1.67,1.67,0,0,0-.77,1l-2.72,0A1.69,1.69,0,0,1,66.54,123.22Z"/></g><path class="cls-3" d="M74.7,119.85l1.79-.93a6.16,6.16,0,0,1-.68-4.28,4.21,4.21,0,0,1,2.44-2.49,4.75,4.75,0,0,1,3.68-.34,5.84,5.84,0,0,1,2.81,2.76l1.77-.95a7.61,7.61,0,0,0-3.87-3.68,6.64,6.64,0,0,0-5.23.4,6.11,6.11,0,0,0-3.52,3.72A8,8,0,0,0,74.7,119.85Z"/><path class="cls-3" d="M74.7,119.85l1.79-.93a6.16,6.16,0,0,1-.68-4.28,4.21,4.21,0,0,1,2.44-2.49,4.75,4.75,0,0,1,3.68-.34,5.84,5.84,0,0,1,2.81,2.76l1.77-.95a7.61,7.61,0,0,0-3.87-3.68,6.64,6.64,0,0,0-5.23.4,6.11,6.11,0,0,0-3.52,3.72A8,8,0,0,0,74.7,119.85Z"/><g class="cls-20"><path class="cls-28" d="M73.89,114.06a6.11,6.11,0,0,1,3.52-3.72,6.64,6.64,0,0,1,5.23-.4,7,7,0,0,1,3,2.3,6.84,6.84,0,0,0-2.75-2,6.64,6.64,0,0,0-5.23.4,6.07,6.07,0,0,0-3.51,3.72,7.69,7.69,0,0,0,.62,5.43l-.08,0A8,8,0,0,1,73.89,114.06Z"/><path class="cls-30" d="M84.1,113.54a7.82,7.82,0,0,1,.71,1l-.07,0A6.05,6.05,0,0,0,84.1,113.54Z"/></g><path class="cls-4" d="M77.93,111.28a5.78,5.78,0,0,1,4.57-.35A6.54,6.54,0,0,1,85.81,114l-1.07.57a5.84,5.84,0,0,0-2.81-2.76,4.75,4.75,0,0,0-3.68.34,4.21,4.21,0,0,0-2.44,2.49,6.16,6.16,0,0,0,.68,4.28l-1,.53a6.87,6.87,0,0,1-.63-4.93A5.3,5.3,0,0,1,77.93,111.28Z"/><path class="cls-3" d="M74.19,121.53c-2.44,1.3-4.31,2.52-4.31,2.52s2.06-.87,4.5-2.16,4.31-2.51,4.31-2.51S76.62,120.25,74.19,121.53Z"/><path class="cls-3" d="M69,125a1,1,0,0,0,0,.56.75.75,0,0,0,.13.2s.13-.34.22-.66.12-.68.12-.68a.49.49,0,0,0-.2.12A.85.85,0,0,0,69,125Z"/><path class="cls-3" d="M71.82,133.17c1.39,3.49,2.7,6.23,2.7,6.23s-.94-2.89-2.33-6.38-2.7-6.22-2.7-6.22S70.43,129.69,71.82,133.17Z"/><path class="cls-5" d="M72.65,106.43l.94,1.3s-2.29,2.64-1.29,4.7a21.14,21.14,0,0,1,1,1.93c.15.39.19.91.58,1.06.64.26,1.14-.59,1.17-1.13.5.75,3.25,2.65,3.59.79a2.26,2.26,0,0,0,2.25-1.24,1.54,1.54,0,0,1,.17-.31,2.33,2.33,0,0,1,.35-.27,1.4,1.4,0,0,0,.58-1.13c0-.09.2-.18.25-.26.76-1.21-.3-2.76-1-3.66s-2.14-2.33-3.51-2.42l-1-2.29S72,105.25,72.65,106.43Z"/><g class="cls-12"><path class="cls-5" d="M78.92,114.82a1.49,1.49,0,0,0-.29-.95,1.81,1.81,0,0,0-.28-.29s0,.15.11.38a2.64,2.64,0,0,1,.09.84,1.89,1.89,0,0,1-.22.79,1.31,1.31,0,0,1-.23.31.82.82,0,0,0,.37-.19A1.21,1.21,0,0,0,78.92,114.82Z"/><path class="cls-5" d="M81.15,113.1a2.59,2.59,0,0,0-.65-1.43l.1.44a4.51,4.51,0,0,1,.17,1,4.69,4.69,0,0,1-.29,1.41,2.7,2.7,0,0,0,.3-.35A1.7,1.7,0,0,0,81.15,113.1Z"/><path class="cls-5" d="M82.24,111.16a1.35,1.35,0,0,0-.37-.66,1.06,1.06,0,0,0-.25-.18,7.42,7.42,0,0,1,.26.93,8.78,8.78,0,0,1,.16.94,1,1,0,0,0,.15-.27A1.32,1.32,0,0,0,82.24,111.16Z"/><path class="cls-5" d="M74.69,113.67a9.17,9.17,0,0,0,1.42,1.22A9.38,9.38,0,0,0,75,113.42a9.54,9.54,0,0,0-1.41-1.22A8.94,8.94,0,0,0,74.69,113.67Z"/><path class="cls-5" d="M75.25,114.05a.49.49,0,0,0-.29-.33.77.77,0,0,0-.08.39.71.71,0,0,0,.21.34A.47.47,0,0,0,75.25,114.05Z"/></g><path class="cls-6" d="M81.45,113.26a2.33,2.33,0,0,0-.35.27,1.54,1.54,0,0,0-.17.31,2.25,2.25,0,0,1-2,1.24,2.18,2.18,0,0,0,0-.26c.8-.09,2.23-1.72,2.23-1.72a3.89,3.89,0,0,0-.83-4.36c-2-2.1-3.29-2.24-3.29-2.24l-.33-1a9.77,9.77,0,0,1-3.43,1.8l-.62-.86c-.65-1.18,4.09-2.93,4.09-2.93l1,2.29c1.37.09,2.7,1.44,3.51,2.42s1.8,2.45,1,3.66c0,.08-.25.17-.25.26A1.4,1.4,0,0,1,81.45,113.26Z"/><path class="cls-6" d="M73.37,112.29s.53.3,1.22.79c.51.36,1.64,1.87,2.56,2.66a5,5,0,0,1-2.06-1.45c0,.48-.43,1.21-1,1.17C75,114.36,73.37,112.29,73.37,112.29Z"/><path class="cls-14" d="M58.25,46.82a9.59,9.59,0,0,1,4.63,3.42c1.69,2.51,3.73,26.18,4.44,28.08s10.4,24.36,10.4,24.36-3.37,4.92-6.61,3.74S60,80.8,59.61,77.93,54.86,49.63,58.25,46.82Z"/><path class="cls-16" d="M59.56,77.6l0-.1v-.1l0-.1c-.08-.5-.19-1.19-.31-2h0c-1.07-7-3.58-24.36-1.3-28a4.11,4.11,0,0,1,1.19-.1c.28.13.63.31,1,.53l.52.33c-.14.17-.32.37-.32.51s-2.26,1-1,14.34C60.18,72,63.47,78.74,65,75.62a16.94,16.94,0,0,0,1.22-4.93h0c.06.47.12.93.17,1.38v.1c0,.19,0,.37.07.55v.1q.08.63.15,1.2l0,.1c0,.16,0,.31,0,.45l0,.12c0,.17,0,.34.06.49v0l.06.47,0,.12c0,.11,0,.23,0,.34v.1l.06.41h0l.06.36v.09c0,.09,0,.17,0,.25l0,.08a2,2,0,0,0,0,.26v0a1.55,1.55,0,0,0,0,.23v0l0,.14v0a.89.89,0,0,0,0,.13.84.84,0,0,0,0,.12l0,0,.05.12,0,.06.06.15,0,.06.09.22v0l.11.27,0,.09a2.44,2.44,0,0,0,.1.24l0,.07c0,.09.07.18.11.27l0,.11c.05.12.11.24.16.37-1.23-.94-2.66-1.41-3.92-.21-3,2.85,4,19.87,7.79,20.73,2.33.52,3-1.66,3.23-3.92l.06.13.1.23.15.35v0c.09.19.17.38.25.57l.54,1.26c0,.08.07.17.11.25l.74,1.72.29.66,0,.09h0l.07.15,0,.06v0s-3.37,4.92-6.61,3.74S60,80.8,59.61,77.93c0-.07,0-.16,0-.26Z"/><g class="cls-12"><path class="cls-17" d="M64,77.64s.49.08,1,.19a14.73,14.73,0,0,1,1.84.58c.45.19.87.44.89.41a2.71,2.71,0,0,0-.8-.6A6.18,6.18,0,0,0,66,77.8a5.82,5.82,0,0,0-1-.18A2.64,2.64,0,0,0,64,77.64Z"/><path class="cls-17" d="M65.43,77.13s.23.21.49.35.54.26.54.26.29.09.58.15a1.4,1.4,0,0,0,.6,0s-.27-.14-.54-.26l-.53-.22L66,77.28C65.73,77.19,65.45,77.09,65.43,77.13Z"/><path class="cls-17" d="M57.7,64.47a10.46,10.46,0,0,0-.08-1.12c0-.68-.1-1.57-.12-2.47,0-1.8.09-3.59.09-3.59s.1-1.79.37-3.57c.14-.89.3-1.77.44-2.43a11.23,11.23,0,0,0,.22-1.11,1.21,1.21,0,0,0-.11.29c0,.19-.14.46-.22.79-.18.65-.38,1.53-.54,2.42-.33,1.78-.46,3.59-.46,3.59s-.1,1.81,0,3.62c0,.9.14,1.8.23,2.47,0,.34.09.61.12.81A1.06,1.06,0,0,0,57.7,64.47Z"/><path class="cls-17" d="M57.28,59.43s-.2-.79-.32-1.59a12.22,12.22,0,0,1-.14-1.6,13.48,13.48,0,0,1,0-1.61c0-.8.22-1.6.17-1.61a6.15,6.15,0,0,0-.38,1.59,11.91,11.91,0,0,0-.09,1.64,12.68,12.68,0,0,0,.24,1.63A5.66,5.66,0,0,0,57.28,59.43Z"/></g><path class="cls-14" d="M88.42,131.26a3.9,3.9,0,0,0,2.26,1.64,2,2,0,0,0,1.64-3.33A24.92,24.92,0,0,1,88.42,131.26Z"/><path class="cls-31" d="M90.88,132.54a3.55,3.55,0,0,1-2.07-1.38,2,2,0,0,1-.39.1,3.9,3.9,0,0,0,2.26,1.64,2.17,2.17,0,0,0,2.09-1.27A2.19,2.19,0,0,1,90.88,132.54Z"/><g class="cls-22"><path class="cls-32" d="M69.28,128l1.71.58c.54.19,1.21.39,2,.62a24.49,24.49,0,0,1,2.55.77c.93.3,1.94.6,3,.85a29.26,29.26,0,0,0,3.44.61,17.89,17.89,0,0,0,1.82.14,14.6,14.6,0,0,0,1.87,0,13.64,13.64,0,0,0,3.69-.72c.57-.21,1.17-.54,1.67-.76a16.92,16.92,0,0,0,1.56-1.14,10.8,10.8,0,0,0,1.24-1.29l.56-.71.47-.77A14.82,14.82,0,0,0,96.22,123c.15-.52.27-1,.4-1.55s.18-1,.25-1.47c.08-1,.23-1.83.34-2.62s.14-1.48.16-2c.06-1.15,0-1.81,0-1.81a15.92,15.92,0,0,1,.35,1.79c.08.57.16,1.28.21,2.09,0,.41,0,.84,0,1.3a12.33,12.33,0,0,1-.14,1.43c-.07.5-.18,1-.27,1.55s-.26,1.08-.42,1.63a15.49,15.49,0,0,1-1.46,3.35l-.51.83-.61.77a10.75,10.75,0,0,1-1.41,1.46,18.91,18.91,0,0,1-1.59,1.16,17.76,17.76,0,0,1-1.9.88,14.46,14.46,0,0,1-4,.77,14.28,14.28,0,0,1-2,0,17,17,0,0,1-1.91-.15,28.43,28.43,0,0,1-3.55-.63c-1.11-.26-2.15-.57-3.1-.87-.46-.17-.93-.27-1.35-.45l-1.16-.56c-.72-.37-1.35-.69-1.85-1C69.82,128.36,69.28,128,69.28,128Z"/></g><path class="cls-3" d="M70.66,128.78l.45.15c.54.19,1.21.39,2,.61a25.46,25.46,0,0,1,2.55.78c.93.29,1.94.59,3,.84a27.15,27.15,0,0,0,3.43.62,18.31,18.31,0,0,0,1.83.14,16.69,16.69,0,0,0,1.87,0,14.1,14.1,0,0,0,3.69-.71c.57-.21,1.16-.54,1.66-.76.52-.39,1.12-.73,1.56-1.14a10.26,10.26,0,0,0,1.25-1.3l.56-.71.46-.76a14.26,14.26,0,0,0,1.37-3.13c.15-.53.28-1,.4-1.55s.19-1,.25-1.48c.09-1,.24-1.83.34-2.62s.15-1.47.17-2c0-.3,0-.56,0-.8a14.57,14.57,0,0,0-.3-1.51s0,.66,0,1.81c0,.57-.08,1.26-.17,2s-.26,1.66-.34,2.62c-.06.47-.17,1-.25,1.47s-.25,1-.4,1.55A14.82,14.82,0,0,1,94.66,126l-.46.77-.57.71a10.8,10.8,0,0,1-1.24,1.29,15.66,15.66,0,0,1-1.56,1.14c-.5.22-1.09.55-1.66.76a13.39,13.39,0,0,1-3.7.71,12.85,12.85,0,0,1-1.86,0,18.31,18.31,0,0,1-1.83-.14,29.09,29.09,0,0,1-3.43-.61c-1.09-.25-2.1-.56-3-.85a25.11,25.11,0,0,0-2.54-.77c-.77-.23-1.43-.43-2-.62l-1.71-.58s.55.37,1.56.93Z"/><path class="cls-4" d="M104,122.89c.3,5.41-1.57,15.89-15.49,18.67-9.82,2-16.52-4.27-20.32-9.63l6.86,18.12a1.67,1.67,0,0,0,2.38.91l32-17a1.67,1.67,0,0,0,.59-2.49Z"/></g></g></g></svg>