<svg xmlns="http://www.w3.org/2000/svg" viewBox="0 0 71.59 80.12"><defs><style>.cls-1{isolation:isolate;}.cls-2,.cls-21,.cls-22,.cls-23,.cls-3{fill:#6f3a1e;}.cls-3{opacity:0.3;}.cls-10,.cls-12,.cls-14,.cls-16,.cls-18,.cls-20,.cls-21,.cls-22,.cls-3,.cls-7,.cls-8{mix-blend-mode:multiply;}.cls-10,.cls-12,.cls-16,.cls-17,.cls-21,.cls-4{opacity:0.5;}.cls-17,.cls-19,.cls-23,.cls-24,.cls-4,.cls-5{mix-blend-mode:screen;}.cls-5,.cls-8{opacity:0.45;}.cls-18,.cls-19,.cls-20,.cls-6,.cls-8{fill:#e5b678;}.cls-9{fill:#fff;}.cls-11{fill:#294168;}.cls-12{fill:#d3dbfd;}.cls-13,.cls-14{fill:#88ac76;}.cls-14{opacity:0.35;}.cls-15,.cls-16,.cls-17,.cls-24{fill:#f15e6b;}.cls-20,.cls-22{opacity:0.25;}</style></defs><title>hands_on_earsРесурс 12</title><g class="cls-1"><g id="Слой_2" data-name="Слой 2"><g id="OBJECTS"><path class="cls-2" d="M11.9,21.25s1,24.54,6,31.44,22.78,9,31.15.59,6.62-33.65,6.18-34.53S23.65,7.73,11.9,21.25Z"/><path class="cls-3" d="M21.26,37.2c-.22-2.4-.53-8.73-1.09-10.36a18.31,18.31,0,0,0-2-3.94s-3.86-.59-6.22-1c.07,1.41.29,5.12.76,9.56.13-.23.28-.38.46-.36.85.08,2.7,6.17,2.7,6.17s-.69-5.47.31-5.47S17.78,34,17.78,34s.46-1.62,1.62-.77C20.19,33.8,20.94,36,21.26,37.2Z"/><path class="cls-3" d="M21.26,37.2a3.22,3.22,0,0,0,.14.94C21.47,38.18,21.41,37.79,21.26,37.2Z"/><path class="cls-3" d="M53.65,37c-.08.4-.12.65-.12.65Z"/><path class="cls-3" d="M55.25,18.75a.93.93,0,0,0-.32-.21c-.76.77-1.64,1.1-2.06.33a1.22,1.22,0,0,1,0-1.13,62.45,62.45,0,0,0-6.07-1.66L23.55,36.54s.12,7.39-.91,8.6-4-5.17-4-5.17,3.12,9,2.1,10-3.36-2.16-3.36-2.16,1.38,3.37.6,3.49c-.4.06-1.59-2.3-2.67-4.65a19.92,19.92,0,0,0,2.57,6,11,11,0,0,0,3,2.71,15.11,15.11,0,0,0,1.88.13c2.37,0,17.27-.76,24.57-.76a15.28,15.28,0,0,0,1.73-1.49,17.89,17.89,0,0,0,4-6.86c-3.8,4.74-5.2,3.56-5.55,2.08s2.22-5.65,2.22-5.65-3,3-3.55,1.8,6.37-9.79,7.21-10c.6-.13.44,1.38.3,2.28.26-1.4.92-4.6,1.39-4.51.15,0,.26.84.32,2C56.08,26.48,55.48,19.22,55.25,18.75Z"/><g class="cls-4"><path class="cls-2" d="M18.19,45.16a2.87,2.87,0,0,1-.17-.38c-.11-.24-.26-.59-.41-1-.33-.84-.73-2-1.1-3.13-.73-2.3-1.26-4.66-1.26-4.66s-.51-2.36-.81-4.75c-.14-1.2-.26-2.4-.31-3.3,0-.45-.05-.83-.06-1.09a2.26,2.26,0,0,1,0-.42,1.62,1.62,0,0,1,.06.41c0,.26.07.64.11,1.09.09.89.24,2.09.41,3.28.36,2.38.89,4.72.89,4.72s.5,2.35,1.18,4.66c.34,1.15.7,2.3,1,3.15.14.42.27.78.35,1A1.71,1.71,0,0,1,18.19,45.16Z"/></g><g class="cls-4"><path class="cls-2" d="M22.34,47.89a2,2,0,0,1-.16-.22c-.1-.14-.23-.34-.39-.59-.31-.5-.7-1.17-1.06-1.86a29.86,29.86,0,0,1-1.31-2.84,25.82,25.82,0,0,1-.91-3,19.72,19.72,0,0,1-.37-2.11c0-.29-.05-.54-.07-.71a1,1,0,0,1,0-.27,9.7,9.7,0,0,1,.18,1c.1.57.27,1.33.47,2.08a29,29,0,0,0,1,2.94s.54,1.45,1.22,2.85c.34.7.7,1.39,1,1.9A7.69,7.69,0,0,1,22.34,47.89Z"/></g><g class="cls-4"><path class="cls-2" d="M27.88,45.5a7.64,7.64,0,0,1-.09-1.18c0-.59-.1-1.18-.1-1.18s0-.58-.09-1.17a8.71,8.71,0,0,1-.11-1.18,4.71,4.71,0,0,1,.32,1.15c.12.59.18,1.18.18,1.18s0,.6,0,1.19A4.86,4.86,0,0,1,27.88,45.5Z"/></g><g class="cls-4"><path class="cls-2" d="M49.6,46.05a3,3,0,0,1,.16-.31c.1-.2.27-.46.44-.8.37-.66.82-1.55,1.24-2.46s.79-1.85,1-2.56.4-1.19.4-1.19.16-.47.38-1.19.47-1.69.68-2.67.37-2,.47-2.73c.06-.37.08-.68.11-.9a1.66,1.66,0,0,1,.06-.34s0,.12,0,.34,0,.54,0,.92c-.07.75-.2,1.75-.38,2.75s-.42,2-.62,2.7-.36,1.22-.36,1.22-.16.48-.43,1.19-.67,1.64-1.1,2.55S50.7,44.36,50.3,45c-.19.33-.37.59-.49.77A1.24,1.24,0,0,1,49.6,46.05Z"/></g><g class="cls-4"><path class="cls-2" d="M47.55,45.39s.57-.5,1-1.09A8.32,8.32,0,0,0,49.37,43a7.2,7.2,0,0,0,.56-1.37c.22-.72.26-1.47.31-1.47a4.19,4.19,0,0,1-.1,1.52,5.47,5.47,0,0,1-1.4,2.71A4,4,0,0,1,47.55,45.39Z"/></g><g class="cls-4"><path class="cls-2" d="M46.48,42.79s-.09.29-.25.55a5.33,5.33,0,0,1-.34.49s-.21.21-.44.4-.48.35-.51.32.17-.25.36-.47.37-.45.37-.45l.39-.42C46.26,43,46.45,42.77,46.48,42.79Z"/></g><g class="cls-4"><path class="cls-2" d="M52.51,45.6a5.82,5.82,0,0,1-.28,1.72,7.09,7.09,0,0,1-.41,1.14c-.14.3-.25.49-.25.49a5.45,5.45,0,0,1-.31.46,10.47,10.47,0,0,1-.76.93,8.76,8.76,0,0,1-1.27,1.19s.56-.66,1.11-1.33c.27-.33.52-.68.7-1s.27-.45.27-.45.11-.18.26-.47A8,8,0,0,0,52,47.26C52.32,46.45,52.47,45.59,52.51,45.6Z"/></g><g class="cls-5"><path class="cls-2" d="M13.65,35.92c.3,3.38.71,7.79,2.88,10.53a.3.3,0,0,0,.5-.21,30.1,30.1,0,0,0-1.27-4.87c-.46-1.85-.94-3.68-1.27-5.56a.43.43,0,0,0-.84.11Z"/></g><g class="cls-5"><path class="cls-2" d="M16.33,34.83a1.34,1.34,0,0,0-.19,1.2,2.75,2.75,0,0,0,.51,1.33c.22.25.59,0,.61-.26A3.94,3.94,0,0,0,17,35.8a1.46,1.46,0,0,0-.59-1Z"/></g><g class="cls-5"><path class="cls-2" d="M17.73,39.23A8,8,0,0,0,18.34,42c.05.09.19,0,.17-.07-.2-.93-.52-1.82-.73-2.75,0,0-.05,0-.05,0Z"/></g><g class="cls-5"><path class="cls-2" d="M19.14,34.29a4,4,0,0,0,.13,2.26,12.26,12.26,0,0,0,.83,2.85c.06.13.26.06.26-.07a11.36,11.36,0,0,0-.3-2.79c-.18-.75-.2-1.73-.78-2.27,0,0-.12,0-.14,0Z"/></g><g class="cls-5"><path class="cls-2" d="M52.71,36.92a1.89,1.89,0,0,0-.6.85,2.62,2.62,0,0,0-.2,1.14.25.25,0,0,0,.46.12,4,4,0,0,0,.38-1,2.19,2.19,0,0,0,.14-.5,3.32,3.32,0,0,0,0-.54.09.09,0,0,0-.15-.06Z"/></g><g class="cls-5"><path class="cls-2" d="M54.22,37.28c-1.64,3.2-3.2,6.56-4.6,9.86-.15.35.26.77.56.44a15.93,15.93,0,0,0,4.17-10.27.07.07,0,0,0-.13,0Z"/></g><g class="cls-4"><path class="cls-2" d="M18.75,50.53a11.8,11.8,0,0,1-.88-1.44,10.76,10.76,0,0,1-.61-1.58A11.8,11.8,0,0,1,18.14,49,10.76,10.76,0,0,1,18.75,50.53Z"/></g><path class="cls-6" d="M59,34.77s1.79-11,.08-10.59c-1,.25-1.09,2.27-1.09,2.27s-1.08-7.45-4-5.22-1.88,11-1.88,11-2.2-3.2-4-.1c-.86,1.5,2.56,1.55,3.36,2.59S54.59,40.36,59,34.77Z"/><g class="cls-7"><path class="cls-6" d="M54.77,33.62A3,3,0,0,0,55,35.2a2.41,2.41,0,0,0,.37.54,4.08,4.08,0,0,1,.45-4,2,2,0,0,0-.48.45A2.82,2.82,0,0,0,54.77,33.62Z"/><path class="cls-6" d="M55.45,29.14c1.49.16,2.7.37,2.7.37a9.27,9.27,0,0,0-2.66-.69,9.54,9.54,0,0,0-2.74.07S54,29,55.45,29.14Z"/><path class="cls-6" d="M57.6,27.47a4.61,4.61,0,0,0,.07,1.21,4.3,4.3,0,0,0,.25-1.19,4.73,4.73,0,0,0-.07-1.21A4.64,4.64,0,0,0,57.6,27.47Z"/><path class="cls-6" d="M55.79,25a12.7,12.7,0,0,0,.4,3.38s-.11-1.52-.08-3.38.17-3.36.17-3.36A12.66,12.66,0,0,0,55.79,25Z"/><path class="cls-6" d="M53.63,24.64a12.09,12.09,0,0,0,.43,3.53A31.05,31.05,0,0,1,54,24.65a32,32,0,0,1,.25-3.51A12.1,12.1,0,0,0,53.63,24.64Z"/></g><path class="cls-8" d="M59,34.77c-1.74,2.22-3.15,2.82-4.28,2.69a5.64,5.64,0,0,0,3.38-3.67c.39-1.95-1.18-2.22-2.28-1.9s-.42,3.64-.42,3.64a2.89,2.89,0,0,1-.65-.87c-.35-.6,0-1.21.11-1.81.16-.79-.51-.9-1.19-.66A2.56,2.56,0,0,0,52,33.9a2.36,2.36,0,0,0,.07,1.75c-.29-.38-.51-.73-.66-.94a5.88,5.88,0,0,0-2.26-1.11c.6.1,2,.2,2.54-.71s-1.47-1.5-2.38-2c1.41-.56,2.72,1.34,2.72,1.34s-.66-5.58.56-9a22,22,0,0,0,.14,3.29c.16,1.29,2.93,2.77,4.24.88.91-1.3-.12-4.26-.84-6,1.11,1.28,1.64,4.09,1.76,4.82,0,.92-.08,1.87-.06,2.2,0,.58.71,1.36.91,0s.27-4.3.27-4.3C60.75,23.74,59,34.77,59,34.77Z"/><path class="cls-9" d="M44.43,45.72S60.31,57.4,62.55,55.65s-9.88-17-9.88-17,4.44-5.29,8.63-4.5c0,0,15,24.39,8.81,29.08S47.38,57,47.38,57,43.67,45.64,44.43,45.72Z"/><g class="cls-10"><path class="cls-11" d="M63.27,56.81a6.68,6.68,0,0,0,1.14,1.95,13.79,13.79,0,0,1-.95-2,14.17,14.17,0,0,1-.63-2.14A6.7,6.7,0,0,0,63.27,56.81Z"/><path class="cls-11" d="M62.66,57a4.32,4.32,0,0,0,.53,1.33,4.39,4.39,0,0,0,.35.48A6.31,6.31,0,0,1,62.86,57a6.13,6.13,0,0,1-.1-2,2.86,2.86,0,0,0-.13.57A4.1,4.1,0,0,0,62.66,57Z"/></g><path class="cls-12" d="M44.43,45.72s.94.69,2.4,1.71c2.46,4.16,7.82,10.46,12.28,11.24,2.7.47,2-1.73,1.11-3.22,1.1.39,1.93.51,2.33.2,2.25-1.75-9.88-17-9.88-17A16.23,16.23,0,0,1,58,34.58l-.08.06c-1.41.84-3.5,5.45,1.24,10.84s6.76,15.76,9.54,16c1.75.14,2.47-2,2.76-3.6.28,2.41-.06,4.35-1.39,5.36C64,67.92,47.38,57,47.38,57S43.67,45.64,44.43,45.72Z"/><path class="cls-11" d="M31.64,80.12l.2-.1a3,3,0,0,1,.31-.15h0l0,0,.14-.06.41-.17.22-.08.3-.11h0l.06,0,.14,0,.16,0a11.44,11.44,0,0,1,1.22-.3H35a11.11,11.11,0,0,1,2.19-.14l.29,0h.15l.48.06a10.62,10.62,0,0,1,2.59.69l.2.08c.29.12.58.25.88.41Z"/><path class="cls-13" d="M31.64,80.12l.2-.1a3,3,0,0,1,.31-.15h0l0,0,.14-.06.41-.17.22-.08.3-.11h0l.06,0,.14,0,.16,0a11.44,11.44,0,0,1,1.22-.3H35a11.11,11.11,0,0,1,2.19-.14l.29,0h.15l.48.06a10.62,10.62,0,0,1,2.59.69l.2.08c.29.12.58.25.88.41Z"/><path class="cls-14" d="M31.64,80.12l.2-.1A.84.84,0,0,1,32,80l.17-.09h0l0,0,.14-.06.41-.17.22-.08.3-.11h0l.06,0,.14,0,.16,0a11.44,11.44,0,0,1,1.22-.3H35l1.35.86a3.07,3.07,0,0,1,.36.27Z"/><path class="cls-14" d="M31.64,80.12l.2-.1A.84.84,0,0,1,32,80l.2-.1,0,0,.14-.06.41-.17.22-.08.3-.11h0l.06,0,.14,0,.16,0a11.44,11.44,0,0,1,1.22-.3H35a11.11,11.11,0,0,1,2.19-.14l.29,0h.15l.48.06a11.38,11.38,0,0,1,2.58.72l.2.08c.27.11.55.24.82.38Z"/><path class="cls-15" d="M49.21,67.23h0c-.08.13-.16.26-.25.39s0,0,0,0c-.22.33-.45.67-.7,1a8,8,0,0,0-.61,1,5.93,5.93,0,0,0-.31.68,11.42,11.42,0,0,0-.39,1.12l0,.1-.12.46c-.06.25-.12.5-.17.75,0,.1,0,.19-.06.29-.16.78-.28,1.58-.4,2.36a25.17,25.17,0,0,0-.56,4.69H29.24a14.06,14.06,0,0,0,.19-2.35,30.62,30.62,0,0,0-.4-4.4c0-.11,0-.22-.05-.33-.12-.81-.27-1.63-.42-2.44l-.09-.48c-.2-1.08-.42-2.16-.63-3.23,0-.16-.07-.33-.11-.5a1.16,1.16,0,0,0,0-.18c0-.12-.05-.24-.08-.36l-.06-.23a2.37,2.37,0,0,0-.09-.36L27.4,65c0-.13-.07-.26-.1-.39a2.33,2.33,0,0,1-.07-.25l-.12-.43L27,63.69c-.05-.18-.11-.37-.16-.56l-.06-.2c-.06-.21-.12-.43-.19-.64s-.06-.22-.1-.34l-.12-.4-.12-.38a2.58,2.58,0,0,0-.08-.26c0-.09-.05-.18-.08-.28s-.05-.16-.08-.25a3,3,0,0,0-.1-.32c0-.1-.06-.19-.08-.28l-.06-.19a2,2,0,0,1-.07-.23l-.3-1-.3-1h0a0,0,0,0,1,0,0h0c-.11-.36-.23-.72-.34-1.08s-.17-.55-.26-.82-.13-.44-.19-.65c-.22-.7-.43-1.36-.62-2a15.89,15.89,0,0,1-.91-4c.05-.27.46-.63,1.07-1a54.32,54.32,0,0,1,7.31-3.28l.29,0h0l.31,0,.38,0,1-.1c1.56-.13,3.8-.28,5.83-.28h.33c2,0,3.64.21,4.3.72a4.71,4.71,0,0,1,.89.94h0c1.46,1.93,2.29,5.15,3,7,.17.42.35.84.53,1.26h0c.62,1.46,1.28,2.92,1.78,4.42.15.48.29,1,.41,1.45a0,0,0,0,0,0,0c.07.32.14.64.2,1h0s0,.05,0,.07l.06.4c0,.2.05.41.07.61A7.78,7.78,0,0,1,49.21,67.23Z"/><path class="cls-16" d="M49.21,67.23h0c-.08.13-.16.26-.25.39s0,0,0,0c-.22.33-.45.67-.7,1a8,8,0,0,0-.61,1c-.11.22-.21.45-.31.68a11.42,11.42,0,0,0-.39,1.12l0,.1-.12.46c0,.13-.07.27-.1.4l0,.14a1.55,1.55,0,0,0,0,.21c0,.1,0,.19-.06.29a6.53,6.53,0,0,0-3.32-1.76l-.23,0a4.51,4.51,0,0,0-.53-.09c-4.18-.53-9.75-.7-10.27,1.74a7,7,0,0,0-.07,2.17l.57-.37c-.08.83-.15,1.66-.15,2.5a15.59,15.59,0,0,0,.77,2.19h0a6.67,6.67,0,0,0,.34.71H29.24a14.06,14.06,0,0,0,.19-2.35,30.62,30.62,0,0,0-.4-4.4c0-.11,0-.22-.05-.33-.12-.81-.27-1.63-.42-2.44l-.09-.48c-.1-.54-.21-1.08-.32-1.62s-.21-1.08-.31-1.61c0-.16-.07-.33-.11-.5a1.16,1.16,0,0,0,0-.18c0-.12-.05-.24-.08-.36l-.06-.23a2.37,2.37,0,0,0-.09-.36L27.4,65c0-.13-.07-.26-.1-.39a2.33,2.33,0,0,1-.07-.25l-.12-.43L27,63.69c-.05-.18-.11-.37-.16-.56l-.06-.2c-.06-.21-.12-.43-.19-.64s-.06-.22-.1-.34l-.12-.4-.12-.38a2.58,2.58,0,0,0-.08-.26c0-.09-.05-.18-.08-.28s-.05-.16-.08-.25a3,3,0,0,0-.1-.32c0-.1-.06-.19-.08-.28l-.06-.19a2,2,0,0,1-.07-.23l-.3-1-.3-1h0a0,0,0,0,1,0,0h0c-.11-.36-.23-.72-.34-1.08s-.17-.55-.26-.82-.13-.42-.2-.63v0a9.09,9.09,0,0,1,2-3.45c.18.62.47,1.6.88,2.74.13.39.29.81.45,1.24.38,1,.83,2,1.34,3a19,19,0,0,0,2.17,3.41c3.31,4,6.45,4.53,11.15,3.31.46-.12.89-.22,1.29-.29a.8.8,0,0,1,.15,0c3.5-.66,4.45.17,5.53-1.07A8.59,8.59,0,0,0,50.34,60a0,0,0,0,0,0,0c.07.32.14.64.2,1h0s0,.05,0,.07l.06.4c0,.2.05.41.07.61A7.78,7.78,0,0,1,49.21,67.23Z"/><path class="cls-6" d="M31.73,41.11s-.53,5.45,1.61,6.41,4.56,1,5.36-1.29,0-5.44,0-5.44S32,39.82,31.73,41.11Z"/><path class="cls-8" d="M37.71,47.6c-3.45-.53-5.58-4.5-4.43-3.92s4.55.12,5.78-.07a14,14,0,0,0-.36-2.82s-6.7-1-7,.32c0,0-.53,5.45,1.61,6.41C34.9,48.21,36.59,48.4,37.71,47.6Z"/><path class="cls-12" d="M37.08,48.34s3.24,3,3.86,1.36c0,0,0-.07,0-.1a26.06,26.06,0,0,0-1.9-4.67,2.73,2.73,0,0,1-2.36,2.38,4.49,4.49,0,0,1-4.61-2.7c-.24,1.17.69,3.59,2.49,6.78C35.06,51.5,36,51.2,37.08,48.34Z"/><path class="cls-9" d="M31.71,43.18c-.05-.39-1.3,3.87,2.43,7.6,0,0,1.25,1.37,2.87-2.86,0,0,3.23,3,3.85,1.37s-1.8-5.68-1.8-5.68.18,2.91-2.43,3.28A4.52,4.52,0,0,1,31.71,43.18Z"/><path class="cls-12" d="M40.86,48.75C40.24,50.37,37,47.38,37,47.38c-1.62,4.23-2.87,2.86-2.87,2.86a8.69,8.69,0,0,1-2.67-5.84,8.55,8.55,0,0,0,2.67,6.38s1.25,1.37,2.87-2.86c0,0,3.23,3,3.85,1.37a2,2,0,0,0,.09-.91A1.82,1.82,0,0,1,40.86,48.75Z"/><g class="cls-4"><path class="cls-17" d="M49.08,59.69a3.72,3.72,0,0,1-.2-.87A14.52,14.52,0,0,0,48.34,57c-.23-.67-.5-1.33-.7-1.82l-.33-.83s-1.86-5.4-1.71-5.46,2.27,5.25,2.27,5.25l.29.84c.17.51.4,1.19.59,1.89a11,11,0,0,1,.36,2A2.48,2.48,0,0,1,49.08,59.69Z"/><path class="cls-17" d="M49.18,62.33c-.17,0-.2-.82-.2-.82s.24-.76.41-.74.19.82.19.82S49.34,62.36,49.18,62.33Z"/><path class="cls-17" d="M45.71,76.16a8.89,8.89,0,0,1-.29,1.66v0s0,.06-.07.17a8.23,8.23,0,0,1-.69,1.35,6.25,6.25,0,0,1-.55.76h-.33a10.31,10.31,0,0,0,.51-1,11.15,11.15,0,0,0,.55-1.51,10.75,10.75,0,0,0,.45-1.55,12.87,12.87,0,0,1,.27-1.62A3.83,3.83,0,0,1,45.71,76.16Z"/></g><g class="cls-10"><path class="cls-15" d="M31.41,80.12h-.2a2.61,2.61,0,0,1-.27-.22,2.69,2.69,0,0,1-.83-1.36,1.66,1.66,0,0,1-.08-.79,7.15,7.15,0,0,1,.28.72,5.18,5.18,0,0,0,.37.66,3.94,3.94,0,0,0,.41.62C31.2,79.89,31.32,80,31.41,80.12Z"/><path class="cls-15" d="M39.14,68.94a11.52,11.52,0,0,1-1.69.14,10.91,10.91,0,0,1-1.67-.17c-.23,0-.41-.1-.54-.12L35,68.74l-.2-.06c-.13,0-.32-.07-.53-.15a9.36,9.36,0,0,1-3-1.59,7.56,7.56,0,0,0-.61-.48,3.06,3.06,0,0,0,.53.57,9.33,9.33,0,0,0,1.38,1,10.62,10.62,0,0,0,1.57.73c.22.09.41.13.54.18L35,69l.21,0c.14,0,.33.08.56.11a10,10,0,0,0,1.73.11,9.45,9.45,0,0,0,1.7-.23,3.32,3.32,0,0,0,.75-.25S39.6,68.87,39.14,68.94Z"/><path class="cls-15" d="M45.52,78.65a3.63,3.63,0,0,1-.15.89,4.38,4.38,0,0,1-.29.58h-.27a4.81,4.81,0,0,0,.27-.67,4.53,4.53,0,0,0,.23-.82,3.56,3.56,0,0,0,0-.62c0-.15,0-.25,0-.25s0,0,0,.06v0A2.58,2.58,0,0,1,45.52,78.65Z"/><path class="cls-15" d="M48.7,67.58c-.36.22-.73.41-.73.41s-.35.22-.73.41a5.87,5.87,0,0,0-.76.38,2.24,2.24,0,0,0,.85-.19,7.22,7.22,0,0,0,.79-.34,5.89,5.89,0,0,0,.7-.5,2.18,2.18,0,0,0,.6-.62A5.63,5.63,0,0,0,48.7,67.58Z"/><path class="cls-15" d="M43.77,65.85l0,.35v.11c0,.26,0,.64-.05,1.09-.06.91-.19,2.12-.37,3.33l-.09.58c-.18,1-.38,2-.56,2.7s-.38,1.47-.38,1.47-.16.59-.45,1.46-.63,1.75-1,2.77a0,0,0,0,1,0,0l-.11.35s0,0,0,0h-.22l0-.09c0-.12.07-.25.11-.37a0,0,0,0,1,0,0c.31-1,.65-2,.89-2.78S42,75.4,42,75.4s.18-.58.4-1.46.41-1.69.6-2.67c0-.19.08-.39.11-.58.21-1.19.36-2.39.46-3.3l0-.35c0,.14-.08.25-.1.32a.34.34,0,0,1,0,.08,3.75,3.75,0,0,1,.07-.41,7.92,7.92,0,0,0,.11-1.19,6.46,6.46,0,0,0-.06-1,8.78,8.78,0,0,0-.28-1.43,1.72,1.72,0,0,0-.08-.28,7.24,7.24,0,0,0-.24-.75,21.8,21.8,0,0,0-1.58-3.24l-.71-1.21-.12-.21s-.33-.57-.79-1.46c-.19-.37-.4-.8-.61-1.27a21.78,21.78,0,0,1-.84-2.07,25.89,25.89,0,0,1-1-3.5c-.08-.37-.14-.7-.18-1,0-.08,0-.15,0-.21s0-.14,0-.2a.15.15,0,0,0,0-.07,0,0,0,0,0,0,0c0-.07,0-.13,0-.15a.53.53,0,0,1,.05.14h0l0,.15,0,.13c0,.09.05.19.08.31s.12.52.19.85a31.26,31.26,0,0,0,1.08,3.45c.29.75.6,1.48.91,2.13.2.43.4.82.58,1.16.47.86.81,1.43.81,1.43l.16.28c.14.25.37.65.65,1.16a20.55,20.55,0,0,1,1.54,3.3c.1.28.19.56.26.84a2.68,2.68,0,0,1,.07.27,9.08,9.08,0,0,1,.22,1.39A6.79,6.79,0,0,1,43.77,65.85Z"/></g><g class="cls-4"><path class="cls-15" d="M44.92,63.4a7.53,7.53,0,0,1-1.21,0,6.45,6.45,0,0,0-2.55.34,14.37,14.37,0,0,1-2.59.76,5.44,5.44,0,0,1-1.26.07l-.35,0a4.87,4.87,0,0,1-.9-.25,8.84,8.84,0,0,1-2.33-1.4,11.21,11.21,0,0,1-2-1.79A2.18,2.18,0,0,1,31.16,60s.25.42.75.93A13.22,13.22,0,0,0,34,62.51a9.09,9.09,0,0,0,2.26,1.22,3.86,3.86,0,0,0,.8.18,2.33,2.33,0,0,0,.31,0,5.16,5.16,0,0,0,1.15,0A15.57,15.57,0,0,0,41,63.3a6.67,6.67,0,0,1,1.44-.24,7.93,7.93,0,0,1,1.26.08A4.22,4.22,0,0,1,44.92,63.4Z"/></g><path class="cls-6" d="M51.81,21.77A2.33,2.33,0,0,1,55,21c2.2,1.45,1.1,9-1.89,8.94S51.28,21.61,51.81,21.77Z"/><path class="cls-8" d="M51.81,21.77A2.33,2.33,0,0,1,55,21c2.2,1.45,1.1,9-1.89,8.94S51.28,21.61,51.81,21.77Z"/><path class="cls-18" d="M54.55,27.71c0-.06-.22,0-.48-.08a.46.46,0,0,1-.32-.26.77.77,0,0,1,0-.5.9.9,0,0,1,.28-.43c.11-.11.26-.15.46-.31a.87.87,0,0,0,.28-.77c0-.22-.09-.3-.09-.29a.83.83,0,0,0-.16-.24,1.18,1.18,0,0,0-.28-.23.91.91,0,0,0-.22-.09h0s0,0,0,0a1.09,1.09,0,0,0,0-.13l0-.2a2.38,2.38,0,0,1,.31-.8c.29-.51.73-.71.72-.79s-.53,0-1,.5a2.68,2.68,0,0,0-.52.94,2.33,2.33,0,0,0-.07.25,1.06,1.06,0,0,0,0,.29c0,.24,0,.48,0,.65a2.72,2.72,0,0,1,.43,0,.31.31,0,0,1,.1.05.79.79,0,0,1,.13.13.46.46,0,0,1,.06.1s0,0,0,0-.26.18-.45.39a1.58,1.58,0,0,0-.39.82,1.23,1.23,0,0,0,.17.88.64.64,0,0,0,.57.29C54.38,27.92,54.57,27.75,54.55,27.71Z"/><path class="cls-8" d="M53.15,30c-3-.1-1.87-8.37-1.34-8.21a2.78,2.78,0,0,1,1.69-1.12,5.36,5.36,0,0,0,.2,3.07s.79-1.25,1.21-.83-.22,2.42.68,2.62c.28.06.46-.16.58-.49C56,27.45,54.9,30,53.15,30Z"/><g class="cls-4"><path class="cls-19" d="M55.93,22.72c.13.42.07.84-.12,1s-.46-.16-.58-.59-.07-.85.12-.95S55.8,22.29,55.93,22.72Z"/><path class="cls-19" d="M55.16,21.49a.34.34,0,0,1-.15.39.21.21,0,0,1-.32-.11.33.33,0,0,1,.15-.38A.21.21,0,0,1,55.16,21.49Z"/></g><path class="cls-6" d="M18.84,22.64c-.24-6.78,2.57-17.8,16.86-17.9S52.25,20.4,52.25,20.4a43.51,43.51,0,0,1,1.32,10.23c-.17,4.44-2.47,11-12.77,12.08s-18.21-3.27-20.06-9.59a5.27,5.27,0,0,1-4.86-4.24C15.16,26,16.76,23,18.84,22.64Z"/><g class="cls-7"><path class="cls-8" d="M18.42,22a21.63,21.63,0,0,1,.84-6.83,17.44,17.44,0,0,1,2.32-4.88c-2.06,3.46-2.42,8.66-2.31,11.82-.17,0-.61-.09-.9-.1Z"/><path class="cls-20" d="M16.82,23.69a6,6,0,0,0-.43,4.06A5.29,5.29,0,0,0,21.25,32C23.1,38.32,31,42.64,41.31,41.59c5.42-.56,8.63-2.65,10.47-5.15-1.7,2.93-5,5.53-11.13,6.16-10.29,1-18.22-3.27-20.07-9.6a5.26,5.26,0,0,1-4.85-4.24A5.79,5.79,0,0,1,16.82,23.69Z"/></g><g class="cls-7"><path class="cls-6" d="M17.68,29.8a.94.94,0,0,0,.42.84.71.71,0,0,0,.42.15.68.68,0,0,0,.52-.24,1.17,1.17,0,0,0,.31-.64.88.88,0,0,0-.22-.78,3.21,3.21,0,0,0-.44-.29.67.67,0,0,1-.2-.26.87.87,0,0,1-.06-.62.44.44,0,0,1,.31-.33.36.36,0,0,1,.13,0H19l.07,0,0,0,.11.16c.16.24.29.3.44.31a.44.44,0,0,0,.27-.12.62.62,0,0,0,.15-.29,4,4,0,0,0,.08-.88c0-.21,0-.41,0-.62a3.44,3.44,0,0,0-.32-1.13,2,2,0,0,0-.59-.73c-.44-.32-.81-.22-.8-.17s.31.1.63.45a2.57,2.57,0,0,1,.58,1.68,4.87,4.87,0,0,1,0,.54c0,.17,0,.13,0,.17s-.07,0-.06,0h0l-.09-.08-.2-.1a1,1,0,0,0-.65,0,.93.93,0,0,0-.28.16,1.39,1.39,0,0,0-.5.83A1.75,1.75,0,0,0,18,29a1.24,1.24,0,0,0,.44.44,2.13,2.13,0,0,1,.39.18.24.24,0,0,1,.09.22.75.75,0,0,1-.13.34.42.42,0,0,1-.55.13C17.86,30.15,17.73,29.76,17.68,29.8Z"/></g><path class="cls-19" d="M17,24.37c-.29.31-.64.4-.76.2s0-.59.31-.89.64-.39.77-.2S17.33,24.07,17,24.37Z"/><path class="cls-19" d="M18.15,22.9a.34.34,0,0,1-.14.38.22.22,0,0,1-.33-.1.36.36,0,0,1,.15-.39A.21.21,0,0,1,18.15,22.9Z"/><path class="cls-2" d="M30,27.76s-.24.11-.49.08a1.44,1.44,0,0,1-.49-.14,1.68,1.68,0,0,1-.37-.36c-.15-.21-.2-.46-.16-.47s.15.18.32.33a2.41,2.41,0,0,0,.36.24,1.64,1.64,0,0,0,.38.19C29.8,27.71,30,27.72,30,27.76Z"/><path class="cls-2" d="M30.52,28.26s-.21.21-.49.28a2,2,0,0,1-.59.06,1.89,1.89,0,0,1-.55-.2c-.25-.15-.44-.38-.41-.4s.25.12.5.2a1.89,1.89,0,0,0,.5.1,2.12,2.12,0,0,0,.51,0C30.25,28.32,30.5,28.22,30.52,28.26Z"/><path class="cls-2" d="M49.08,25.18s.14.22.09.46a1,1,0,0,1-.2.46,1,1,0,0,1-.44.23c-.24.06-.48,0-.46-.07s.22,0,.39-.14a.8.8,0,0,0,.29-.23,1,1,0,0,0,.22-.3C49.05,25.41,49,25.19,49.08,25.18Z"/><path class="cls-2" d="M49.54,26.14s0,.3-.13.54a.92.92,0,0,1-1,.45c-.3,0-.52-.24-.49-.27a4.61,4.61,0,0,0,.51.06,1.51,1.51,0,0,0,.84-.37C49.42,26.38,49.5,26.13,49.54,26.14Z"/><path class="cls-2" d="M45.66,25.59c0,1.36.58,2.47,1.34,2.47s1.39-1.1,1.42-2.46-.57-2.46-1.33-2.47S45.69,24.23,45.66,25.59Z"/><path class="cls-21" d="M45.66,25.59c0,1.36.58,2.47,1.34,2.47s1.39-1.1,1.42-2.46-.57-2.46-1.33-2.47S45.69,24.23,45.66,25.59Z"/><path class="cls-22" d="M46.44,23.42a4.52,4.52,0,0,0-.16,1.07c0,1.36.57,2.47,1.34,2.47a1,1,0,0,0,.64-.29c-.24.82-.72,1.39-1.26,1.39-.76,0-1.36-1.11-1.34-2.47A3.15,3.15,0,0,1,46.44,23.42Z"/><path class="cls-23" d="M48.15,25.18c0,.46-.14.86-.38.88s-.46-.33-.49-.8.14-.86.38-.89S48.12,24.71,48.15,25.18Z"/><path class="cls-23" d="M47.21,23.93a.18.18,0,0,0,.18.19.2.2,0,0,0,.18-.19.18.18,0,1,0-.36,0Z"/><path class="cls-2" d="M29.46,26.76c.15,1.36.89,2.38,1.65,2.29s1.24-1.26,1.09-2.62-.89-2.37-1.65-2.28S29.31,25.41,29.46,26.76Z"/><path class="cls-21" d="M29.46,26.76c.15,1.36.89,2.38,1.65,2.29s1.24-1.26,1.09-2.62-.89-2.37-1.65-2.28S29.31,25.41,29.46,26.76Z"/><path class="cls-22" d="M29.91,24.57a3.8,3.8,0,0,0,0,.89c.15,1.35.88,2.38,1.64,2.29a1,1,0,0,0,.64-.42c-.1.94-.51,1.65-1.09,1.72-.76.09-1.5-.93-1.65-2.29A3.17,3.17,0,0,1,29.91,24.57Z"/><path class="cls-23" d="M31.76,26c.09.46,0,.87-.26.92s-.5-.27-.59-.73,0-.88.26-.93S31.67,25.53,31.76,26Z"/><path class="cls-23" d="M30.67,24.87a.19.19,0,0,0,.2.17.19.19,0,0,0,.15-.21.18.18,0,0,0-.2-.17A.18.18,0,0,0,30.67,24.87Z"/><path class="cls-8" d="M37.64,30.66A5.49,5.49,0,0,0,42,29.48s1.21.78-.95,1.6C38.14,32.18,37.64,30.66,37.64,30.66Z"/><g class="cls-7"><path class="cls-6" d="M38.87,31.27a6,6,0,0,0,.9,0,5.46,5.46,0,0,0,1.86-.63,1.11,1.11,0,0,0,.59-.63.56.56,0,0,0-.25-.56,1.59,1.59,0,0,0-.5-.22,1.08,1.08,0,0,0-.22,0,2.2,2.2,0,0,0-.51,0,3.21,3.21,0,0,0-.61.09,3.44,3.44,0,0,0-.37.14,6.59,6.59,0,0,0-.79.49c0-.31,0-.65,0-1,0-.19,0-.4,0-.61,0-.41,0-.84,0-1.22a6.28,6.28,0,0,1,.13-1.36,5.19,5.19,0,0,1,.16,1.36c0,.38.05.81.07,1.23,0,.21,0,.41,0,.61s0,.08,0,.09l.08-.06.43-.18a3.51,3.51,0,0,1,.73-.15,2.78,2.78,0,0,1,.63,0,2.11,2.11,0,0,1,.29.06,2,2,0,0,1,.69.36,1.35,1.35,0,0,1,.35.45,1,1,0,0,1,0,.67,1.52,1.52,0,0,1-.88.88,4.86,4.86,0,0,1-2,.48A1.31,1.31,0,0,1,38.87,31.27Z"/></g><path class="cls-19" d="M40.82,29.59c0,.14-.14.35-.43.47s-.58.1-.64,0,.14-.35.43-.46S40.76,29.45,40.82,29.59Z"/><path class="cls-8" d="M34.34,30.9c0,1.36-1.72,2.48-3.87,2.51S26.56,32.35,26.54,31s1.72-2.49,3.87-2.51S34.32,29.54,34.34,30.9Z"/><path class="cls-8" d="M52.4,29.11c.26,1.33-1.22,2.74-3.31,3.15s-4-.35-4.25-1.69,1.22-2.74,3.31-3.15S52.14,27.77,52.4,29.11Z"/><path class="cls-2" d="M29.09,21.89c0-.09.35-.18.64-.36a2.74,2.74,0,0,0,.51-.42,3,3,0,0,0,.49-.45c.22-.26.36-.59.44-.58s.09.42-.07.8a2.36,2.36,0,0,1-.47.68,2.32,2.32,0,0,1-.74.36C29.49,22,29.08,22,29.09,21.89Z"/><path class="cls-2" d="M45.53,19.14c.07,0,.34.22.67.36a2.48,2.48,0,0,0,.66.21,2.38,2.38,0,0,0,.67.15,1.3,1.3,0,0,0,.46-.05c.13,0,.22-.08.25,0s0,.14-.13.25a1.15,1.15,0,0,1-.54.27,2.1,2.1,0,0,1-.87,0,2.36,2.36,0,0,1-.74-.43C45.63,19.57,45.46,19.18,45.53,19.14Z"/><path class="cls-8" d="M51.82,19.75S49.65,4,35.28,4.08,18.18,15.2,18.42,22c-1.59.27-2.89,2.05-3.1,4.18,1.64-.44,3.46-2.34,4-2.91.24,1.6,1.15,7.11,1.84,11.2A12.07,12.07,0,0,0,24,38c.2-4.24.57-12.22.75-15.35a16.73,16.73,0,0,0,3-1.89A35.43,35.43,0,0,0,36,12.18s8.95,4.53,14.35,3.64c0,0,2,5,2,7l.11-.13C52.14,21,51.82,19.75,51.82,19.75Z"/><path class="cls-2" d="M40,.39C33.53-1.07,30.42,2,30.42,2S23.1-.73,17.63,4.91c0,0-5,1.67-5.71,13.86-.63,11.2,5.79,4.56,6.84,3.41.4,2.65,2.64,16,2.64,16l2,1.5s.62-13.74.87-18.08a17.44,17.44,0,0,0,3-1.9,35.43,35.43,0,0,0,8.16-8.56s8.95,4.53,14.35,3.64c0,0,2,5,2,7,0,0,1.42-1.81,3.23-.73C55,21,56.6,4.1,40,.39Z"/><path class="cls-3" d="M31.2,15.91h0l-.23.17c-.69.51-1.49,1.07-2.33,1.61h0c-2.72,1.77-5.79,3.41-6.44,2.95-1-.71.39-3.33.52-3.57a34.13,34.13,0,0,1-3.43,3.2l-.39.29h0c-.15.11-.31.22-.46.31-1.31.9-2.6,1.4-3.33.71a3.28,3.28,0,0,1-.5-2.81,16.81,16.81,0,0,1,.86-3.18l0-.09,0-.09c.23-.65.47-1.23.66-1.67a23,23,0,0,1-1.12,2l0,0c-.65,1-1.4,1.9-2,1.67s-.56-2.35-.36-4.51c-.06.26-.12.54-.18.82s-.11.56-.15.85c-.11.62-.2,1.27-.27,2,0,.34-.07.69-.1,1.05s-.06.73-.08,1.11c0,.73,0,1.38,0,2,0,.16,0,.32,0,.48h0a6.39,6.39,0,0,0,.05.64c0,.18,0,.35.07.51a4,4,0,0,0,.09.52c0,.1,0,.2.07.3a2.76,2.76,0,0,0,.08.27l.12.34a3,3,0,0,0,.15.31,2.17,2.17,0,0,0,.27.42,2.23,2.23,0,0,0,.21.22l0,0,.24.17.14.07.15.06a.67.67,0,0,0,.19.05h0a.57.57,0,0,0,.18,0h.19l.32,0,.29-.06L15,25l.28-.11h0a1.81,1.81,0,0,0,.35-.16h0a3.56,3.56,0,0,0,.53-.3.05.05,0,0,1,0,0h0l.16-.1.24-.17.17-.13h0c.2-.16.39-.31.57-.47l.35-.31.32-.3s0,0,0,0,0,0,0,0l.38-.38.26-.28c0,.13,0,.28.07.46s.05.32.08.51a.08.08,0,0,0,0,0c0,.13,0,.25.06.4h0a0,0,0,0,0,0,0c0,.2.07.42.1.65a1.85,1.85,0,0,0,0,.23h0c0,.08,0,.17,0,.26s0,.29.07.44h0c.07.37.13.77.2,1.18,0,.11,0,.23,0,.34a.36.36,0,0,1,0,.1.68.68,0,0,1,0,.14.06.06,0,0,1,0,0,0,0,0,0,0,0,0c.06.34.11.69.17,1.05h0a0,0,0,0,1,0,0v0a.43.43,0,0,0,0,.11h0c.1.62.2,1.25.31,1.88,0,0,0,.05,0,.08l.06.38a1.55,1.55,0,0,1,0,.21v-.65h0c0-.42,0-.85,0-1.26h0c0-.13,0-.25,0-.37v0a9.87,9.87,0,0,1,.1-1v0a2.2,2.2,0,0,1,.46-1.31c.51-.4.78.62.92,1.65h0s0,0,0,0a.09.09,0,0,1,0,.05c.11.84.13,1.65.13,1.65A20.92,20.92,0,0,1,22,27.36a.49.49,0,0,0,0-.12c.13-1.11.4-2.2.92-2.15.24,0,.41.45.54,1.09v.05a9.94,9.94,0,0,1,.14,1.1v.06c.13,1.2.17,2.65.18,3.82l0-.7c0-.44,0-.88.07-1.32l0-.77c0-.46.05-.92.07-1.37,0-.29,0-.57,0-.84s0-.71,0-1,0-.67.05-1l0-.62c0-.19,0-.38,0-.55s0-.38,0-.55l0-.49c0-.15,0-.29,0-.43a16.39,16.39,0,0,0,3-1.89c.54-.42,1-.83,1.53-1.25.25-.2.48-.41.71-.61.43-.38.84-.76,1.22-1.13l0,0,.56-.55.54-.56c.2-.2.38-.4.56-.6C32.08,15.22,31.67,15.56,31.2,15.91Z"/><path class="cls-3" d="M37.76,10.67a4.46,4.46,0,0,1,3.24.07s-5.92-4.16-4.72-5.49a13.46,13.46,0,0,1,3.88-2.47s-3.31-.07-5,1.06c0,0-2.62-.1-.39-1.5,0,0-2.11-.41-2.32-1.53a6.89,6.89,0,0,0-2,1.23,13.48,13.48,0,0,0-7.89-.15A3.2,3.2,0,0,1,25,2.43c1.06,1.12-2,4.27-2,4.27s3.88-1.88,4.65-1.53-3.95,4.16-3.95,4.16S29.16,6.8,29.37,7.5s-1.9,2.82-1.9,2.82,6.27-4.09,5.43.92a13.91,13.91,0,0,1-2.18,5.43,31.53,31.53,0,0,0,4.7-5.57,46.42,46.42,0,0,0,6.27,2.53C39.67,12.66,36.83,11.14,37.76,10.67Z"/><g class="cls-4"><path class="cls-2" d="M24.32,21s.09-.09.27-.22l.73-.54c.6-.45,1.42-1,2.21-1.65s1.58-1.23,2.14-1.72.94-.83.94-.83a25.83,25.83,0,0,0,2.76-2.88A23.29,23.29,0,0,0,35,10.87l.46-.78a1.19,1.19,0,0,1,.19-.29,1.76,1.76,0,0,1-.13.32c-.1.2-.24.48-.42.81a19.12,19.12,0,0,1-1.51,2.32,24.43,24.43,0,0,1-2.73,3s-.37.34-1,.82-1.38,1.1-2.19,1.68S26,19.88,25.38,20.29l-.76.5A1.26,1.26,0,0,1,24.32,21Z"/></g><g class="cls-4"><path class="cls-2" d="M24.12,21.37a2.75,2.75,0,0,1-.9.71,6.13,6.13,0,0,1-1.06.45,6.41,6.41,0,0,1-1.15.14,2.84,2.84,0,0,1-1.13-.16s.57,0,1.12-.05a6.27,6.27,0,0,0,1.08-.23,5.91,5.91,0,0,0,1-.35C23.63,21.66,24.09,21.34,24.12,21.37Z"/></g><g class="cls-4"><path class="cls-2" d="M30.46,8.05s.12-.31.34-.56A4.06,4.06,0,0,1,31.3,7a4.12,4.12,0,0,1,.62-.26,1.28,1.28,0,0,1,.66-.06A3.23,3.23,0,0,1,32,7a5.07,5.07,0,0,0-.54.32,4.32,4.32,0,0,0-.51.34C30.7,7.84,30.49,8.08,30.46,8.05Z"/></g><g class="cls-4"><path class="cls-2" d="M21.25,13.11a1.76,1.76,0,0,1,.09-.29,5.45,5.45,0,0,1,.32-.73,9.17,9.17,0,0,1,1.37-2,12.06,12.06,0,0,1,1.78-1.66c.53-.4.91-.63.91-.63s.37-.24,1-.55a24.22,24.22,0,0,1,2.19-1,9.43,9.43,0,0,1,2.31-.74,2,2,0,0,1,.8.08c.19.07.28.14.27.15a2.1,2.1,0,0,0-1.06-.11A9.48,9.48,0,0,0,29,6.41a23.44,23.44,0,0,0-2.14,1.08c-.57.32-.93.56-.93.56s-.38.23-.9.61a12.65,12.65,0,0,0-1.8,1.57,10,10,0,0,0-1.42,1.91C21.44,12.71,21.28,13.12,21.25,13.11Z"/></g><g class="cls-4"><path class="cls-2" d="M13.65,26.21s.27-.23.69-.56,1-.77,1.52-1.23c1.08-.93,2.06-1.94,2.06-1.94s1-1,1.94-2.08c.46-.54.91-1.09,1.23-1.51a6.53,6.53,0,0,1,.56-.7,5,5,0,0,1-.46.76c-.3.45-.72,1-1.16,1.59-.89,1.12-1.89,2.15-1.89,2.15s-1,1-2.14,1.89c-.57.45-1.14.87-1.59,1.17A4.12,4.12,0,0,1,13.65,26.21Z"/></g><g class="cls-4"><path class="cls-2" d="M16.11,22.07a7.86,7.86,0,0,1-.71,1l-.73,1-.76.95a7.09,7.09,0,0,1-.79.94,5.93,5.93,0,0,1,.62-1.07c.33-.51.69-1,.69-1s.39-.48.8-.93A4.77,4.77,0,0,1,16.11,22.07Z"/></g><g class="cls-4"><path class="cls-2" d="M20.81,8.41a2.57,2.57,0,0,1-.25.3l-.7.74c-.58.61-1.34,1.43-2.05,2.3a18.36,18.36,0,0,0-1.72,2.53,13.11,13.11,0,0,0-.61,1.25s-.23.5-.51,1.29-.58,1.87-.88,2.95l-.85,3-.29,1a1.5,1.5,0,0,1-.13.36,2.47,2.47,0,0,1,.07-.38l.24-1c.2-.82.48-1.9.75-3s.56-2.18.83-3,.49-1.32.49-1.32a11.88,11.88,0,0,1,.65-1.27,16.77,16.77,0,0,1,1.8-2.53c.73-.86,1.52-1.66,2.13-2.25l.73-.7A1.85,1.85,0,0,1,20.81,8.41Z"/></g><g class="cls-4"><path class="cls-2" d="M22.61,7.15A2.41,2.41,0,0,1,23,6.7c.27-.26.63-.59,1-.92s.77-.62,1.07-.84.52-.35.52-.35a9.48,9.48,0,0,1,1.82-.82,4.94,4.94,0,0,1,2-.26,3,3,0,0,1-.61.11A7.42,7.42,0,0,0,27.52,4a9.48,9.48,0,0,0-1.73.88A16.49,16.49,0,0,0,24.17,6C23.39,6.55,22.64,7.18,22.61,7.15Z"/></g><g class="cls-4"><path class="cls-2" d="M15.72,9.81s-.35.74-.68,1.48-.61,1.49-.61,1.49-.31.75-.56,1.52-.45,1.56-.49,1.55a7.16,7.16,0,0,1,.29-1.61c.2-.79.48-1.57.48-1.57s.31-.76.7-1.48A7.77,7.77,0,0,1,15.72,9.81Z"/></g><g class="cls-4"><path class="cls-2" d="M22.59,42.8c-.08,0,.45-10.44.45-10.44s.67-10.42.75-10.41-.45,10.43-.45,10.43S22.67,42.8,22.59,42.8Z"/></g><g class="cls-4"><path class="cls-2" d="M21,39.73a1.76,1.76,0,0,1-.05-.37c0-.24,0-.57-.06-1,0-.81-.12-1.89-.21-3-.17-2.16-.42-4.3-.42-4.3s-.22-2.15-.51-4.29c-.15-1.07-.31-2.14-.43-2.94l-.15-1a1.47,1.47,0,0,1,0-.37,1.84,1.84,0,0,1,.1.36c.05.23.12.56.2,1,.16.79.35,1.86.53,2.92.35,2.14.6,4.29.6,4.29s.22,2.16.33,4.32c.06,1.08.1,2.16.12,3,0,.4,0,.74,0,1A2.21,2.21,0,0,1,21,39.73Z"/></g><g class="cls-4"><path class="cls-2" d="M21.78,30.19a15.2,15.2,0,0,1-.05-1.71l0-1.7v-1.7a12.87,12.87,0,0,1,0-1.71,10.89,10.89,0,0,1,.19,1.7c.06.85.08,1.71.08,1.71s0,.85-.06,1.71A10.37,10.37,0,0,1,21.78,30.19Z"/></g><g class="cls-4"><path class="cls-2" d="M36.47,1.71A5.49,5.49,0,0,1,35.6,2a6.64,6.64,0,0,0-.84.34,8.79,8.79,0,0,0-.82.39,7.65,7.65,0,0,1-.8.46,2.38,2.38,0,0,1,.68-.64,5.79,5.79,0,0,1,.82-.48,6.2,6.2,0,0,1,.9-.28A2.51,2.51,0,0,1,36.47,1.71Z"/></g><g class="cls-4"><path class="cls-2" d="M43.41,3.05a7.58,7.58,0,0,1-.77-.1A11.83,11.83,0,0,0,41,2.84,12.61,12.61,0,0,0,39.29,3c-.45.07-.75.14-.75.14s-.3.06-.74.18a12.58,12.58,0,0,0-1.58.55,13.26,13.26,0,0,0-1.49.8,5.25,5.25,0,0,1-.66.4,4,4,0,0,1,.59-.5,10.53,10.53,0,0,1,1.47-.89A12.1,12.1,0,0,1,37.72,3c.45-.13.76-.2.76-.2s.3-.07.77-.13A11.14,11.14,0,0,1,41,2.63a10.74,10.74,0,0,1,1.7.2A3.11,3.11,0,0,1,43.41,3.05Z"/></g><g class="cls-4"><path class="cls-2" d="M53.4,13.08a1.84,1.84,0,0,1-.33.22,8.39,8.39,0,0,1-1,.47,11.14,11.14,0,0,1-3.12.76,18,18,0,0,1-3.22,0c-.87-.08-1.45-.17-1.45-.17s-.58-.09-1.44-.26a24.9,24.9,0,0,1-3.11-.81A11.66,11.66,0,0,1,37,11.75c-.35-.25-.64-.47-.84-.63a2.11,2.11,0,0,1-.31-.26,1.85,1.85,0,0,1,.34.21l.88.58a11.85,11.85,0,0,0,2.83,1.41,22.72,22.72,0,0,0,3.1.74c.85.16,1.43.24,1.43.24s.57.1,1.43.19a17.85,17.85,0,0,0,3.17.08,11.34,11.34,0,0,0,3.1-.65C52.89,13.36,53.39,13.05,53.4,13.08Z"/></g><g class="cls-4"><path class="cls-2" d="M54.16,16.39a2.72,2.72,0,0,1-1.26.32,4.79,4.79,0,0,1-1.31-.15A4.68,4.68,0,0,1,50.41,16a2.78,2.78,0,0,1-.88-1s.46.45,1,.77a4.63,4.63,0,0,0,1.15.48,4.79,4.79,0,0,0,1.22.22A11.8,11.8,0,0,0,54.16,16.39Z"/></g><g class="cls-4"><path class="cls-2" d="M53,20.56a4.46,4.46,0,0,1-.35-.73c-.17-.36-.37-.7-.37-.7s-.16-.36-.36-.71a4.11,4.11,0,0,1-.39-.7s.32.26.57.58a6.67,6.67,0,0,1,.45.69,6.07,6.07,0,0,1,.3.76A2.24,2.24,0,0,1,53,20.56Z"/></g><g class="cls-4"><path class="cls-2" d="M45.19,5.23s-.72-.11-1.44-.1a8.24,8.24,0,0,0-1.42.12A8.79,8.79,0,0,0,41,5.58c-.68.22-1.31.58-1.33.55a3.85,3.85,0,0,1,1.25-.75A7.41,7.41,0,0,1,42.29,5a7.29,7.29,0,0,1,1.47,0A4.29,4.29,0,0,1,45.19,5.23Z"/></g><g class="cls-4"><path class="cls-2" d="M47.66,12.12a.85.85,0,0,1-.27,0c-.17,0-.41,0-.7,0a17.12,17.12,0,0,1-2.13-.24,19.54,19.54,0,0,1-3-.78l-.25-.1-.66-.26a19,19,0,0,1-1.92-1,13.74,13.74,0,0,1-1.8-1.17,1.56,1.56,0,0,1-.59-.77,2.82,2.82,0,0,0,.66.68A18.53,18.53,0,0,0,38.81,9.6a19.06,19.06,0,0,0,1.93.88l.65.25.25.09a20.73,20.73,0,0,0,3,.85,21,21,0,0,0,2.1.34C47.27,12.07,47.66,12.1,47.66,12.12Z"/></g><g class="cls-4"><path class="cls-2" d="M53.09,10.75s-.62-.35-1.24-.65a13,13,0,0,0-1.29-.52,12.81,12.81,0,0,0-1.31-.44c-.67-.19-1.37-.28-1.36-.33a4.8,4.8,0,0,1,1.41.12,11,11,0,0,1,1.37.36A10.78,10.78,0,0,1,52,9.91,5,5,0,0,1,53.09,10.75Z"/></g><path class="cls-3" d="M52.78,18.45c-.58-1.09,1.67-1.73,1.67-1.73A6,6,0,0,1,52.2,16c-1.47-.71,1-2.44,1.09-2.64l-3.59,1-.17.36a1.75,1.75,0,0,0,.24,0s2,5,2,7c0,0,1.42-1.81,3.23-.73a19,19,0,0,0,0-2.34C54.21,19.09,53.13,19.12,52.78,18.45Z"/><g class="cls-5"><path class="cls-2" d="M23.76,19.48c1.51.4,3.25-1.14,4.35-2,1.34-1.07,2.71-2.17,2.82-4A.51.51,0,0,0,30.3,13c-1.61.3-2.6,1.55-3.79,2.56-1,.86-2.87,1.83-3.19,3.17a.64.64,0,0,0,.44.77Z"/></g><g class="cls-5"><path class="cls-2" d="M23.93,16.16a1.79,1.79,0,0,0,1-.42,2.73,2.73,0,0,0,.82-.77c.12-.16-.08-.39-.25-.33a3,3,0,0,0-1,.54,1.76,1.76,0,0,0-.7.78.16.16,0,0,0,.15.2Z"/></g><g class="cls-5"><path class="cls-2" d="M18.46,20c1.19-1.71,2.43-3.39,3.72-5,1.09-1.36,2.38-2.54,3.43-3.92.24-.33-.17-.76-.51-.66-1.91.51-3.19,2.23-4.35,3.73a17.49,17.49,0,0,0-3,5.55c-.14.47.49.68.75.32Z"/></g><g class="cls-5"><path class="cls-2" d="M16.94,16.76c.34-.19.4-.76.56-1.1s.46-.82.62-1.27c.08-.22-.23-.37-.38-.22A3.9,3.9,0,0,0,17,15.45c-.14.36-.46.89-.25,1.26a.14.14,0,0,0,.19.05Z"/></g><g class="cls-5"><path class="cls-2" d="M19.21,12.54c1.06-.45,1.93-1.7,2.71-2.52s2-1.7,2.47-2.82c.05-.12-.09-.22-.19-.19-1.18.28-2.18,1.47-3,2.31s-2,2-2.12,3.11c0,.05,0,.14.11.11Z"/></g><g class="cls-5"><path class="cls-2" d="M14.77,13.83c1.23-1.58,2.32-3.24,3.68-4.72s3.16-2.35,4.1-4a.64.64,0,0,0-.54-1c-2.13.25-3.67,2.14-4.92,3.73a12.25,12.25,0,0,0-2.63,5.79.18.18,0,0,0,.31.13Z"/></g><g class="cls-5"><path class="cls-2" d="M15.51,8.23l.63-.76c.08-.08,0-.21-.12-.12l-.67.72c-.1.11.07.27.16.16Z"/></g><g class="cls-5"><path class="cls-2" d="M22.52,29.31a17.61,17.61,0,0,0-.39,6.51c0,.23.4.33.44.06a17.92,17.92,0,0,0,.08-6.57.07.07,0,0,0-.13,0Z"/></g><g class="cls-5"><path class="cls-2" d="M39.87,11.24c.8,1.41,2.39,1.8,3.9,2.08a14.07,14.07,0,0,0,6.58,0,.43.43,0,0,0-.11-.84c-3.57-.22-7,.31-10.28-1.37-.06,0-.13,0-.09.09Z"/></g><g class="cls-5"><path class="cls-2" d="M37.47,5.29a14.25,14.25,0,0,0,2.4-.76c.14-.07,0-.29-.1-.25a12.4,12.4,0,0,0-2.34.93s0,.09,0,.08Z"/></g><g class="cls-5"><path class="cls-2" d="M41.28,4A21.61,21.61,0,0,0,44,4.33a6.1,6.1,0,0,0,2.4.12.18.18,0,0,0,0-.33,4.48,4.48,0,0,0-2.59-.5A6.78,6.78,0,0,0,41.27,4s0,0,0,0Z"/></g><g class="cls-5"><path class="cls-2" d="M40.21,8.33c1.06,1.14,3,1.59,4.42,2a10.85,10.85,0,0,0,4.91.62.57.57,0,0,0,.14-1A18.49,18.49,0,0,0,45.1,8.64C43.63,8.3,42,7.56,40.46,7.72a.36.36,0,0,0-.25.61Z"/></g><g class="cls-5"><path class="cls-2" d="M45.81,7.13c.29.33.79.33,1.2.4a3.83,3.83,0,0,0,1.35,0,.16.16,0,0,0,0-.29,3.68,3.68,0,0,0-1.3-.34A2,2,0,0,0,45.83,7a.1.1,0,0,0,0,.15Z"/></g><g class="cls-5"><path class="cls-2" d="M36.76,2.32a3.32,3.32,0,0,0,1.37-.27c.55-.13,1.06-.35,1.6-.52.09,0,.11-.2,0-.22a4.23,4.23,0,0,0-1.7,0A2.41,2.41,0,0,0,36.61,2a.25.25,0,0,0,.15.36Z"/></g><path class="cls-6" d="M15.73,39.22S22.66,30.46,21,30c-1-.25-2.06,1.45-2.06,1.45s2.68-7-1-6.5-7,8.67-7,8.67-.35-3.86-3.42-2C6,32.5,9,34.21,9.19,35.51S9.19,42,15.73,39.22Z"/><g class="cls-7"><path class="cls-6" d="M18.1,32.19a4.65,4.65,0,0,0-.53,1.09,4.5,4.5,0,0,0,1.32-2A4.48,4.48,0,0,0,18.1,32.19Z"/><path class="cls-6" d="M17.71,29.15a12.94,12.94,0,0,0-1.3,3.15s.65-1.38,1.58-3,1.79-2.85,1.79-2.85A12.54,12.54,0,0,0,17.71,29.15Z"/><path class="cls-6" d="M16,27.78a12.07,12.07,0,0,0-1.34,3.29A34.15,34.15,0,0,1,16.28,28,31.86,31.86,0,0,1,18.21,25,12.46,12.46,0,0,0,16,27.78Z"/></g><path class="cls-8" d="M21,30c-1-.25-2.06,1.45-2.06,1.45s2.68-7-1-6.5a3,3,0,0,0-.8.24c2.51.73.95,6.57.57,7.43.43-.5,2.58-2.44,2.92-2.14s-1.58,2.93-3.39,4.74-4,2.43-5.65,1.7S9.5,34.56,9.05,34c-.32-.39-1.28-1.46-1.84-2.08-.59.94,1.81,2.43,2,3.6s0,6.47,6.54,3.71C15.73,39.22,22.66,30.46,21,30Z"/><path class="cls-8" d="M17.71,32.63c-.07.07-.09.12-.07.12A.31.31,0,0,0,17.71,32.63Z"/><path class="cls-9" d="M23.57,47.89S11,60.45,8.59,59s7.64-18.11,7.64-18.11S11.16,36.2,7.1,37.52c0,0-11.73,26.1-5,30s21.75-9.07,21.75-9.07,5.08-2.72,3-8C26.44,49.43,25.78,47.84,23.57,47.89Z"/><g class="cls-10"><path class="cls-11" d="M8,60.25a6.7,6.7,0,0,1-.88,2.08,14.11,14.11,0,0,0,.68-2.13A13.88,13.88,0,0,0,8.18,58,6.57,6.57,0,0,1,8,60.25Z"/><path class="cls-11" d="M8.66,60.39a3.89,3.89,0,0,1-.36,1.38,3.12,3.12,0,0,1-.28.52,6.18,6.18,0,0,0,.44-1.92,6.28,6.28,0,0,0-.15-2,3.5,3.5,0,0,1,.2.55A4,4,0,0,1,8.66,60.39Z"/></g><path class="cls-12" d="M26.84,50.45a4.21,4.21,0,0,0-1.37-2,4.92,4.92,0,0,1-.6,2.93c-2.8,3.94-8.16,8.88-12.48,10.22-2.6.81-2.24-1.43-1.52-3A3.94,3.94,0,0,1,9,59.11H9A.94.94,0,0,1,8.59,59c-2.45-1.45,7.64-18.11,7.64-18.11l0,0-.05,0-.07-.06-.11-.1-.06,0c-.1-.09-.23-.19-.39-.31l0,0-.28-.22,0,0c-.43-.32-1-.7-1.58-1.07h0a13.36,13.36,0,0,0-1.46-.77l-.08,0-.49-.21-.1,0c-.35-.13-.7-.25-1.06-.35h0l.08,0c1.51.65,4.17,5,.16,10.91S5.92,65,3.2,65.56C1.48,65.93.5,63.9,0,62.34H0c0,.47,0,.92.09,1.34,0,.14,0,.28.06.42s.05.27.08.41l.09.41c0,.12.07.24.11.36l.15.38c0,.11.09.21.13.31l.21.36c0,.08.1.16.16.24a3.11,3.11,0,0,0,.29.33,1.29,1.29,0,0,0,.16.17,3,3,0,0,0,.53.4c6.7,3.87,21.75-9.07,21.75-9.07S28.89,55.69,26.84,50.45Z"/><path class="cls-20" d="M43.71,33.57a1.49,1.49,0,0,0,0-.19h-.21a2.27,2.27,0,0,0-2.12,1.17H41.3c-.12-.28-.79-1.26-3.6-.29h0l-.06,0-.53.2c-.25.09-.44.16-.61.24l-.28.12c-.4.19-.82-.05-1,.62h.08l.44.39h0l.49.37,0,0c.16.11.33.22.51.32l.07,0a5.12,5.12,0,0,0,.52.27l.1,0,.53.22.22.06.45.14.38.08c.11,0,.23.05.35.06a5.94,5.94,0,0,0,.75.08h0a4.88,4.88,0,0,0,1.12-.06,2.12,2.12,0,0,0,1.93-2,1.85,1.85,0,0,0,0-.24,1.64,1.64,0,0,0-.07-.36A2,2,0,0,0,43.71,33.57Z"/><path class="cls-15" d="M42.92,33.92a17.5,17.5,0,0,0-2.15.5.39.39,0,0,1-.49-.17c-1.68.33-3.3-.06-4.89.85a7.56,7.56,0,0,0,4.92,2.14c3.44.18,3.26-2.63,2.81-3A.81.81,0,0,1,42.92,33.92Z"/><path class="cls-24" d="M40,36.14c0,.19-.27.34-.6.33s-.57-.17-.57-.36.28-.34.6-.33S40,36,40,36.14Z"/><path class="cls-16" d="M35.4,35.11a7.55,7.55,0,0,0,4.91,2.13c3.44.18,3.26-2.63,2.81-3A.78.78,0,0,1,43,34a1.19,1.19,0,0,1-.19.18c-.12,0,.68,0,.25,1.21s-2.29,1.72-4.31,1.22S37,35.07,37,35.07A13,13,0,0,0,35.4,35.11Z"/><path class="cls-15" d="M35.35,35.12a23.66,23.66,0,0,0,5.78.3c3-.32,2.71-2.38,2.71-2.38s-1.9-.12-2.36,1.25c0,0-.39-1.51-3.69-.34A7.55,7.55,0,0,0,35.35,35.12Z"/><path class="cls-16" d="M35.35,35.12a23.66,23.66,0,0,0,5.78.3c3-.32,2.71-2.38,2.71-2.38s-1.9-.12-2.36,1.25c0,0-.39-1.51-3.69-.34A7.55,7.55,0,0,0,35.35,35.12Z"/><path class="cls-16" d="M41.13,35.42c3-.32,2.71-2.38,2.71-2.38h-.21a1,1,0,0,1-.08.79C43,35.11,40,35.36,38.33,34.89c-.89-.25-.77-.65-.48-1l-.06,0a7.55,7.55,0,0,0-2.44,1.17A23.66,23.66,0,0,0,41.13,35.42Z"/><g class="cls-7"><path class="cls-6" d="M40.78,39.45a2,2,0,0,0,.56-.79,1.68,1.68,0,0,0,.1-.43,1,1,0,0,1,.09.46A1.43,1.43,0,0,1,41,39.75a1.85,1.85,0,0,1-1.52.43A3.91,3.91,0,0,0,40.78,39.45Z"/></g></g></g></g></svg>