<svg xmlns="http://www.w3.org/2000/svg" viewBox="0 0 82.61 91.9"><defs><style>.cls-1{isolation:isolate;}.cls-18,.cls-19,.cls-2,.cls-4{fill:#e5b678;}.cls-13,.cls-15,.cls-17,.cls-18,.cls-20,.cls-21,.cls-3,.cls-4,.cls-6,.cls-8{mix-blend-mode:multiply;}.cls-10,.cls-4{opacity:0.45;}.cls-5{fill:#fff;}.cls-24,.cls-6{fill:#d3dbfd;}.cls-15,.cls-16,.cls-17,.cls-20,.cls-6,.cls-9{opacity:0.5;}.cls-20,.cls-21,.cls-22,.cls-7,.cls-8{fill:#6f3a1e;}.cls-8{opacity:0.3;}.cls-10,.cls-16,.cls-19,.cls-22,.cls-23,.cls-9{mix-blend-mode:screen;}.cls-11{fill:#294168;}.cls-12,.cls-13{fill:#88ac76;}.cls-13{opacity:0.35;}.cls-14,.cls-15,.cls-16,.cls-23{fill:#f15e6b;}.cls-21{opacity:0.25;}</style></defs><title>happyРесурс 8</title><g class="cls-1"><g id="Слой_2" data-name="Слой 2"><g id="OBJECTS"><path class="cls-2" d="M8,11.71,7.63,10S11,8.41,10.93,6c0-.77-.23-1.58-.19-2.34,0-.45.21-1-.11-1.3-.52-.52-1.38.1-1.63.61-.18-1-2.06-4-3.19-2.32A2.43,2.43,0,0,0,3.06.85a1.6,1.6,0,0,1-.3.23,1.82,1.82,0,0,1-.46.11,1.54,1.54,0,0,0-1.06.86c0,.09-.27.1-.35.15C-.39,3.06,0,5,.33,6.25s1.09,3.21,2.4,3.89l0,2.68S8.13,13.14,8,11.71Z"/><g class="cls-3"><path class="cls-2" d="M6.59,6.47A4,4,0,0,1,7.83,5a3.71,3.71,0,0,1,.73-.42,2.52,2.52,0,0,0-.83.25A3.12,3.12,0,0,0,6.23,6.3a2.47,2.47,0,0,0-.08,2.1,1.52,1.52,0,0,0,.39.51.79.79,0,0,0,.2.13,1.42,1.42,0,0,1-.4-.71A2.79,2.79,0,0,1,6.59,6.47Z"/><path class="cls-2" d="M8.73,3.64a8.39,8.39,0,0,1,.52-1l.24-.42A2.94,2.94,0,0,0,8.36,3.49a1.88,1.88,0,0,0,0,1.21,3.16,3.16,0,0,0,.16.46A5.49,5.49,0,0,1,8.73,3.64Z"/><path class="cls-2" d="M1.81,6.56a1.23,1.23,0,0,0,.32-1A.72.72,0,0,0,2,5.19a1.15,1.15,0,0,1-.06.38,1.75,1.75,0,0,1-.42.72,1.19,1.19,0,0,1-.68.4.43.43,0,0,1-.35-.06.47.47,0,0,0,.34.26A1,1,0,0,0,1.81,6.56Z"/><path class="cls-2" d="M2,4.74a4.84,4.84,0,0,1-.57-2.07,4.73,4.73,0,0,1,0-.93,3.14,3.14,0,0,0-.23.92,3.84,3.84,0,0,0,.41,2.27,1.8,1.8,0,0,0,.94,1,.83.83,0,0,0,.64-.06.72.72,0,0,0,.33-.44,1.39,1.39,0,0,0,0-.71.7.7,0,0,0-.11-.23.68.68,0,0,1,0,.24,1.38,1.38,0,0,1-.13.63.49.49,0,0,1-.67.25A1.72,1.72,0,0,1,2,4.74Z"/><path class="cls-2" d="M3.7,3.91a12.18,12.18,0,0,1-.65-2.13,2.55,2.55,0,0,1,0-.93,2.09,2.09,0,0,0-.2.94,6.6,6.6,0,0,0,.48,2.27,1.52,1.52,0,0,0,.88,1A1.13,1.13,0,0,0,5.71,4a1.2,1.2,0,0,1-.53.71.9.9,0,0,1-.85,0A1.33,1.33,0,0,1,3.7,3.91Z"/><path class="cls-2" d="M5.89,3.89A4.55,4.55,0,0,1,5.72,1,2.25,2.25,0,0,1,6.2.22,1.35,1.35,0,0,1,6.47,0a1.41,1.41,0,0,0-.31.17,2,2,0,0,0-.62.72A4.12,4.12,0,0,0,5.5,4a1.34,1.34,0,0,0,.56.83.87.87,0,0,0,1-.11,1.86,1.86,0,0,0,.46-1.39,5.23,5.23,0,0,0-.13-1.27,7.34,7.34,0,0,1-.07,1.26,1.78,1.78,0,0,1-.47,1.14.54.54,0,0,1-.56,0A1,1,0,0,1,5.89,3.89Z"/><path class="cls-2" d="M4.48,6.36a2.66,2.66,0,0,0-1.14-.05,2.28,2.28,0,0,0-.45.14,8.85,8.85,0,0,1,1.48.3,7.81,7.81,0,0,1,1.4.54,1.74,1.74,0,0,0-.3-.36A2.48,2.48,0,0,0,4.48,6.36Z"/></g><path class="cls-4" d="M9.21,5.17a8.74,8.74,0,0,1,.72-3l-.15,0a.24.24,0,0,0-.11.06l-.11.07a1.59,1.59,0,0,0-.21.15v0a.93.93,0,0,0-.14.14,1.62,1.62,0,0,0-.2.28,1.24,1.24,0,0,0,0-.16l0-.08c0-.07,0-.13-.08-.21l-.13-.31h0l-.19-.35-.06-.1c-.08-.14-.18-.28-.28-.42A4.54,4.54,0,0,0,7.79.81,1.7,1.7,0,0,0,7.6.62.31.31,0,0,0,7.49.53L7.4.45A.9.9,0,0,0,7.2.31l-.06,0-.06,0A1,1,0,0,0,6.87.16a.79.79,0,0,0-.48,0c.25.82.91,3.12.68,4v0c-.05.17-.13.28-.25.31-.42.12-.81-.32-1-1a.08.08,0,0,1,0,0h0s0,0,0,0a4.14,4.14,0,0,1-.2-1.31V2c0-.11,0-.22,0-.33s0-.22.05-.33l0-.16A4,4,0,0,1,5.81.61l-.07,0L4.92.32a2.25,2.25,0,0,0-.58,0,1.26,1.26,0,0,0-.28,0,2.58,2.58,0,0,0-.53.19l-.19.1h0a1.51,1.51,0,0,0-.26.18,0,0,0,0,1,0,0,0,0,0,0,0,0,0,1,1,0,0,1-.28.21,1.72,1.72,0,0,1-.46.11L2,1.29c.47,1.15,1.4,3.6.92,4-.2.17-.47.07-.73-.22l0-.06a3.78,3.78,0,0,1-.7-3.17.13.13,0,0,1,0-.06v0a0,0,0,0,0,0,0l-.06,0a1.75,1.75,0,0,0-.18.29c0,.1-.26.1-.34.15a1.65,1.65,0,0,0-.36.33c.4,1,1.17,3.18.31,3.46A4.43,4.43,0,0,1,.3,6.1l0,.15c.38,1.32,1.09,3.21,2.4,3.89v2.68s.73,0,1.64,0l.84,0,.38,0,.61-.07.45-.08.22-.05.3-.08.21-.08a1.11,1.11,0,0,0,.52-.35A.55.55,0,0,0,8,11.93a.51.51,0,0,0,0-.17v0l-.11-.52L7.64,10,7.78,10l.33-.18c.21-.13.47-.29.75-.5l.22-.16.05,0,0,0c-.68.1-1.3-.08-1.33-1.16C7.77,5.54,9.21,5.17,9.21,5.17ZM4.86.9c.28,1.14.3,3.37-.08,3.65S2.32.63,4.86.9Z"/><path class="cls-5" d="M27.33,66.35s5.53-9,2.62-10S15.79,39.6,15.24,37.63,9.31,11.58,9.31,11.58s-5.67-2-7.62.86S7.81,39.93,9.18,42.52,22.89,66.07,27.33,66.35Z"/><path class="cls-6" d="M30,56.39a6.52,6.52,0,0,1-2.06-1.6A7.36,7.36,0,0,1,26.73,57c-2.7,3.34-12.92-7.18-12.9-11.91,0-3,2.65-2.84,4.56-2.33a31.73,31.73,0,0,1-3.15-5.13c-.05-.17-.14-.52-.25-1-.55,1.77-1.59,3.4-3.56,3.52-4.45.27-8.6-20.2-8.15-24.77.29-2.94,2.75-3.9,4.47-4.21-1.82-.39-4.76-.64-6.06,1.28C-.26,15.32,7.81,39.93,9.18,42.52c1.14,2.17,10,17.17,15.41,22.19l5.51-3.92C30.88,58.73,31.22,56.79,30,56.39Z"/><path class="cls-7" d="M61.92,34.26S60,58.74,54.79,65.47,31.71,73.63,23.64,65s-5.43-33.86-5-34.73S50.64,20.33,61.92,34.26Z"/><path class="cls-8" d="M52,49.87c.3-2.39.84-8.7,1.45-10.32a18.94,18.94,0,0,1,2.16-3.87s3.88-.45,6.25-.81c-.12,1.4-.47,5.11-1.1,9.52-.11-.23-.26-.38-.44-.37-.85,0-2.92,6.07-2.92,6.07s.89-5.45-.11-5.48-1.7,2.18-1.7,2.18S55.18,45.15,54,46C53.19,46.51,52.37,48.63,52,49.87Z"/><path class="cls-8" d="M52,49.87a3.63,3.63,0,0,1-.17.93C51.76,50.84,51.83,50.45,52,49.87Z"/><path class="cls-8" d="M19.64,48.49l.1.66S19.69,48.87,19.64,48.49Z"/><path class="cls-8" d="M18.68,30.23A1,1,0,0,1,19,30c.74.79,1.6,1.15,2.05.4a1.23,1.23,0,0,0,.07-1.13c1.5-.44,3.62-1,6.13-1.45L49.74,49.13s-.38,7.38.6,8.62,4.14-5,4.14-5S51,61.62,52,62.68s3.44-2,3.44-2S54,64,54.74,64.1c.39.07,1.66-2.24,2.83-4.55a20.09,20.09,0,0,1-2.78,5.92,10.94,10.94,0,0,1-3.06,2.6,15,15,0,0,1-1.88.07c-2.37-.09-17.24-1.37-24.53-1.63A14.49,14.49,0,0,1,23.64,65a18.06,18.06,0,0,1-3.71-7c3.64,4.86,5.08,3.73,5.48,2.27s-2-5.72-2-5.72,2.9,3.11,3.48,1.92-6-10-6.86-10.22c-.59-.15-.48,1.37-.37,2.27-.21-1.41-.76-4.63-1.23-4.55-.16,0-.29.82-.4,2C17.58,37.93,18.43,30.69,18.68,30.23Z"/><g class="cls-9"><path class="cls-7" d="M54.79,57.93a2.91,2.91,0,0,0,.18-.37c.11-.24.28-.58.45-1,.36-.83.8-2,1.2-3.09.82-2.27,1.43-4.61,1.43-4.61s.59-2.34,1-4.72c.19-1.19.35-2.39.43-3.29,0-.45.08-.82.1-1.09a3.18,3.18,0,0,0,0-.41,1.88,1.88,0,0,0-.07.41c0,.26-.09.63-.15,1.08-.12.89-.31,2.08-.53,3.26-.43,2.37-1.05,4.69-1.05,4.69s-.58,2.33-1.34,4.61c-.38,1.14-.79,2.28-1.11,3.12-.16.42-.3.77-.39,1A2,2,0,0,0,54.79,57.93Z"/></g><g class="cls-9"><path class="cls-7" d="M50.54,60.51s.07-.07.17-.21.25-.33.41-.58c.32-.48.74-1.14,1.13-1.82.78-1.35,1.41-2.79,1.41-2.79a28.17,28.17,0,0,0,1-3c.2-.76.36-1.52.45-2.1.05-.29.07-.54.09-.71a.74.74,0,0,0,0-.26s-.09.38-.22.94-.31,1.33-.54,2.07A29,29,0,0,1,53.38,55s-.59,1.44-1.32,2.81c-.36.68-.75,1.36-1,1.86A6.74,6.74,0,0,0,50.54,60.51Z"/></g><g class="cls-9"><path class="cls-7" d="M45.09,57.93a7.42,7.42,0,0,0,.13-1.18c.05-.59.14-1.17.14-1.17s0-.58.13-1.16a7.29,7.29,0,0,0,.15-1.18,5,5,0,0,0-.36,1.14c-.13.58-.22,1.17-.22,1.17s-.05.59-.05,1.19A4.55,4.55,0,0,0,45.09,57.93Z"/></g><g class="cls-9"><path class="cls-7" d="M23.36,57.72a1.3,1.3,0,0,0-.14-.32c-.1-.2-.26-.47-.42-.81-.34-.67-.76-1.59-1.15-2.51s-.72-1.88-.95-2.59-.36-1.2-.36-1.2-.14-.48-.33-1.21-.41-1.71-.59-2.69-.3-2-.37-2.74C19,43.27,19,43,19,42.74a1.91,1.91,0,0,0,0-.34,1.3,1.3,0,0,0,0,.34c0,.22,0,.54,0,.92,0,.75.14,1.76.28,2.76s.35,2,.53,2.73.31,1.22.31,1.22.15.49.39,1.2.61,1.67,1,2.59.87,1.83,1.25,2.48c.18.34.35.6.46.79A1.88,1.88,0,0,0,23.36,57.72Z"/></g><g class="cls-9"><path class="cls-7" d="M25.44,57.13s-.55-.52-1-1.13a7.43,7.43,0,0,1-.75-1.28,8.51,8.51,0,0,1-.52-1.39c-.19-.73-.2-1.48-.25-1.48A4,4,0,0,0,23,53.37a6.9,6.9,0,0,0,.45,1.48,7.12,7.12,0,0,0,.85,1.28A3.81,3.81,0,0,0,25.44,57.13Z"/></g><g class="cls-9"><path class="cls-7" d="M26.59,54.57a1.62,1.62,0,0,0,.23.55,5.71,5.71,0,0,0,.33.5,5.85,5.85,0,0,0,.43.42c.22.2.46.37.49.34s-.16-.26-.34-.49l-.35-.46L27,55C26.81,54.78,26.63,54.55,26.59,54.57Z"/></g><g class="cls-9"><path class="cls-7" d="M20.47,57.16a5.81,5.81,0,0,0,.22,1.73A7.09,7.09,0,0,0,21.06,60c.13.31.23.5.23.5s.11.2.29.47a8.63,8.63,0,0,0,.74,1,9.47,9.47,0,0,0,1.22,1.24s-.54-.69-1.06-1.37a10.55,10.55,0,0,1-.66-1c-.17-.28-.26-.47-.26-.47a4.6,4.6,0,0,1-.24-.47,9.19,9.19,0,0,1-.43-1.09C20.63,58,20.51,57.16,20.47,57.16Z"/></g><g class="cls-10"><path class="cls-7" d="M59.65,48.86c-.42,3.36-1,7.76-3.25,10.42-.16.19-.52,0-.49-.23a29.9,29.9,0,0,1,1.44-4.82c.53-1.83,1.07-3.65,1.46-5.51.1-.47.9-.34.84.14Z"/></g><g class="cls-10"><path class="cls-7" d="M57,47.68a1.3,1.3,0,0,1,.14,1.2,2.73,2.73,0,0,1-.55,1.31c-.23.24-.59,0-.61-.28a4.25,4.25,0,0,1,.34-1.29,1.43,1.43,0,0,1,.62-.95s0,0,.06,0Z"/></g><g class="cls-10"><path class="cls-7" d="M55.45,52a8,8,0,0,1-.7,2.78c0,.1-.19,0-.17-.07.23-.92.58-1.8.83-2.72,0,0,0,0,0,0Z"/></g><g class="cls-10"><path class="cls-7" d="M54.22,47A3.9,3.9,0,0,1,54,49.29a12.27,12.27,0,0,1-.93,2.82c-.06.13-.26,0-.25-.08a10.85,10.85,0,0,1,.39-2.78c.21-.74.26-1.72.86-2.24,0,0,.12,0,.14,0Z"/></g><g class="cls-10"><path class="cls-7" d="M20.58,48.48a1.82,1.82,0,0,1,.57.87,2.82,2.82,0,0,1,.16,1.15.25.25,0,0,1-.47.11,4.15,4.15,0,0,1-.34-1,2.17,2.17,0,0,1-.13-.5c0-.18,0-.37.05-.54a.09.09,0,0,1,.16-.06Z"/></g><g class="cls-10"><path class="cls-7" d="M19.06,48.78c1.52,3.26,3,6.68,4.25,10,.13.35-.29.75-.58.42a16,16,0,0,1-3.8-10.42.07.07,0,0,1,.13,0Z"/></g><g class="cls-9"><path class="cls-7" d="M54,63.28A11.83,11.83,0,0,0,55,61.87a12,12,0,0,0,.67-1.56,10.9,10.9,0,0,0-.94,1.42A10.61,10.61,0,0,0,54,63.28Z"/></g><path class="cls-11" d="M39.1,91.9H30.33l.56-.23.22-.08A10.31,10.31,0,0,1,34.2,91h.29c.26,0,.51,0,.75,0l.52,0a8.84,8.84,0,0,1,1.05.16h0c.26,0,.5.11.74.18s.47.14.7.22h0l.17.06.12.05.35.14Z"/><path class="cls-12" d="M39.1,91.9H30.33l.56-.23.22-.08A10.31,10.31,0,0,1,34.2,91h.29c.26,0,.51,0,.75,0l.52,0a8.84,8.84,0,0,1,1.05.16h0c.26,0,.5.11.74.18s.47.14.7.22h0l.17.06.12.05.35.14Z"/><path class="cls-13" d="M39.1,91.9H35.55c.42-.25.83-.5,1.26-.74h0c.26,0,.5.11.74.18l.43.14.27.08h0l.16.07.13,0,.35.14Z"/><path class="cls-13" d="M39.1,91.9H30.41l.49-.2.22-.08A11.91,11.91,0,0,1,34.2,91h.29c.26,0,.51,0,.75,0l.52,0a8.84,8.84,0,0,1,1.05.16h0c.26,0,.5.11.74.18l.43.14.46.16.13,0,.35.14Z"/><path class="cls-14" d="M49.06,65.28c-.22.66-.47,1.37-.74,2.13-.06.21-.14.42-.21.63s-.09.24-.13.36-.09.24-.13.36c-.14.38-.27.77-.41,1.16,0,0,0,.08,0,.13l-.64,1.81-.08.23-.16.46-.11.32c0,.14-.1.27-.14.41s-.09.25-.13.37S46,73.9,46,74s-.09.26-.14.4a3,3,0,0,1-.11.32l-.21.64a1.59,1.59,0,0,1-.07.2c-.06.19-.12.37-.17.55s-.06.17-.08.25-.08.25-.12.38-.05.15-.07.22,0,.05,0,.08l-.12.38a2.17,2.17,0,0,0-.07.24c0,.13-.07.25-.11.36l-.06.23a.53.53,0,0,0,0,.12c0,.15-.08.29-.11.42a5,5,0,0,0-.12.49c-.12.53-.25,1.07-.38,1.6L43.53,83c-.18.81-.35,1.62-.5,2.43,0,.11-.05.22-.07.33a27.5,27.5,0,0,0-.56,4.94c0,.4,0,.81.06,1.21H26.18a26.53,26.53,0,0,0-.39-4.7c-.1-.78-.19-1.57-.32-2.37l-.09-.5a.78.78,0,0,1,0-.14c-.06-.3-.13-.61-.2-.91,0,0,0,0,0-.06-.1-.38-.21-.75-.34-1.12a8.78,8.78,0,0,0-.41-.95l-.18-.34a4,4,0,0,0-.27-.44c-.24-.35-.46-.7-.67-1L23,78.92v0a7.85,7.85,0,0,1-1.29-5.18q0-.3.09-.6c0-.14,0-.27.07-.41a.2.2,0,0,0,0-.07l0-.12c.07-.3.14-.59.22-.89a38.35,38.35,0,0,1,2.39-5.79h0c.12-.28.25-.56.38-.84l.18-.4.16-.36h0c1-2.28,2.1-6.05,4.07-7.48a2.2,2.2,0,0,1,.75-.31,14.12,14.12,0,0,1,3.58-.26H34c2,.06,4.26.29,5.82.48l1,.13.37.05.31,0h0l.29,0A67.21,67.21,0,0,1,48,59.85h0l.13.07c1.08.62,1.87,1.2,1.94,1.6A14.93,14.93,0,0,1,49.06,65.28Z"/><path class="cls-15" d="M48.32,67.41,48.1,68,48,68.4c0,.12-.09.24-.13.36-.14.38-.27.77-.41,1.16,0,0,0,.08,0,.13l-.64,1.81-.08.23-.16.46-.11.32c0,.14-.1.27-.14.41s-.09.25-.13.37S46,73.9,46,74s-.09.26-.14.4a3,3,0,0,1-.11.32l-.21.64a1.59,1.59,0,0,1-.07.2c-.06.19-.12.37-.17.55s-.06.17-.08.25-.08.25-.12.38a.08.08,0,0,0,0,0A1.21,1.21,0,0,1,45,77s0,.05,0,.08l-.12.38a2.17,2.17,0,0,0-.07.24c0,.13-.07.25-.11.36l-.06.23a.53.53,0,0,0,0,.12,2.17,2.17,0,0,0-.07.24c0,.06,0,.12,0,.18a5,5,0,0,0-.12.49c-.12.53-.25,1.07-.38,1.6L43.53,83c-.18.81-.35,1.62-.5,2.43,0,.11-.05.22-.07.33a27.5,27.5,0,0,0-.56,4.94c0,.4,0,.81.06,1.21H38.33l.12-.26h0a15.19,15.19,0,0,0,.86-2.16c0-.84,0-1.67-.07-2.51l.55.4a6.93,6.93,0,0,0,0-2.18c-.43-2.45-6-2.48-10.2-2.1l-.53.07a1.46,1.46,0,0,0-.22,0,6.5,6.5,0,0,0-3.39,1.65l-.09-.5a.78.78,0,0,1,0-.14c-.06-.3-.13-.61-.2-.91,0,0,0,0,0-.06-.1-.38-.21-.75-.34-1.12a8.78,8.78,0,0,0-.41-.95l-.18-.34a4,4,0,0,0-.27-.44c-.24-.35-.46-.7-.67-1L23,78.92v0a7.85,7.85,0,0,1-1.29-5.18q0-.3.09-.6c0-.14,0-.27.07-.41a.2.2,0,0,0,0-.07l0-.12c.07-.3.14-.59.22-.89a8.5,8.5,0,0,0,.94,3.73c1,1.27,2,.48,5.49,1.26l.15,0c.39.09.82.2,1.28.34,4.65,1.39,7.8,1,11.25-2.91a18.7,18.7,0,0,0,2.3-3.33h0A31.75,31.75,0,0,0,45,67.8c.28-.65.53-1.27.74-1.83,0,0,0,0,0,0,.33-.86.57-1.59.73-2.09A9.3,9.3,0,0,1,48.32,67.41Z"/><path class="cls-2" d="M41.4,53.4s.34,5.47-1.84,6.35-4.59.8-5.31-1.47.19-5.44.19-5.44S41.17,52.11,41.4,53.4Z"/><path class="cls-4" d="M35.19,59.68c3.47-.4,5.74-4.29,4.57-3.76s-4.56,0-5.77-.27a14.11,14.11,0,0,1,.45-2.81s6.73-.73,7,.56c0,0,.34,5.47-1.84,6.35C38,60.4,36.28,60.52,35.19,59.68Z"/><path class="cls-6" d="M35.8,60.44s-3.34,2.87-3.91,1.23c0,0,0-.07,0-.11A26,26,0,0,1,33.94,57a2.71,2.71,0,0,0,2.27,2.47,4.5,4.5,0,0,0,4.71-2.54c.19,1.18-.82,3.57-2.73,6.69C37.7,63.67,36.79,63.34,35.8,60.44Z"/><path class="cls-5" d="M41.34,55.48c.07-.39,1.17,3.91-2.69,7.51,0,0-1.3,1.32-2.76-3,0,0-3.34,2.87-3.91,1.23s2-5.61,2-5.61S33.7,58.55,36.3,59A4.53,4.53,0,0,0,41.34,55.48Z"/><path class="cls-6" d="M32,60.72c.57,1.64,3.9-1.23,3.9-1.23,1.47,4.28,2.76,3,2.76,3a8.65,8.65,0,0,0,2.88-5.74A8.6,8.6,0,0,1,38.65,63s-1.3,1.32-2.76-3c0,0-3.34,2.87-3.91,1.23a2.22,2.22,0,0,1-.05-.91A1.43,1.43,0,0,0,32,60.72Z"/><g class="cls-9"><path class="cls-16" d="M23.41,71.37a4.77,4.77,0,0,0,.23-.87,16.13,16.13,0,0,1,.6-1.84c.25-.66.54-1.3.76-1.79l.36-.82s2.05-5.33,1.9-5.39-2.45,5.16-2.45,5.16l-.32.84c-.19.5-.45,1.17-.66,1.86a11.4,11.4,0,0,0-.42,1.94A2.26,2.26,0,0,0,23.41,71.37Z"/><path class="cls-16" d="M23.21,74c.17,0,.23-.82.23-.82s-.22-.77-.38-.76-.22.82-.22.82S23.05,74,23.21,74Z"/><path class="cls-16" d="M28,91.9h-.34a6.92,6.92,0,0,1-.48-.72,9.28,9.28,0,0,1-.64-1.38l-.06-.17A8.66,8.66,0,0,1,26.2,88a3.83,3.83,0,0,1,.21-1.68c.08,0,.07.84.21,1.63a20.08,20.08,0,0,0,.9,3.09C27.66,91.32,27.82,91.64,28,91.9Z"/></g><g class="cls-17"><path class="cls-14" d="M41.7,90.88a3.92,3.92,0,0,1-.33.73,2.83,2.83,0,0,1-.24.29H40.8a4.61,4.61,0,0,0,.32-.46,4.41,4.41,0,0,0,.38-.64,5.88,5.88,0,0,1,.32-.71A1.67,1.67,0,0,1,41.7,90.88Z"/><path class="cls-14" d="M33,81a10.91,10.91,0,0,0,1.68.2A10.25,10.25,0,0,0,36.37,81a3.7,3.7,0,0,0,.55-.1l.2,0,.21-.05a5,5,0,0,0,.53-.13,11.51,11.51,0,0,0,1.58-.6,10.08,10.08,0,0,0,1.44-.88,4.56,4.56,0,0,1,.63-.46,3.62,3.62,0,0,1-.56.55,8.41,8.41,0,0,1-1.41,1A9.57,9.57,0,0,1,38,81c-.23.08-.42.12-.55.16l-.21.06-.22,0c-.13,0-.32.07-.56.09a10.53,10.53,0,0,1-1.73.05A9.09,9.09,0,0,1,33,81.08a3.68,3.68,0,0,1-.74-.27A5,5,0,0,1,33,81Z"/><path class="cls-14" d="M27,91.9h-.27a3.77,3.77,0,0,1-.26-.56,3.89,3.89,0,0,1-.12-.9,2.41,2.41,0,0,1,.13-.81s0-.08,0-.08,0,.1,0,.25a4.7,4.7,0,0,0,0,.63,4,4,0,0,0,.2.82A4.15,4.15,0,0,0,27,91.9Z"/><path class="cls-14" d="M23.51,79.26a8,8,0,0,0,.71.44s.35.23.71.43a5.07,5.07,0,0,1,.75.41,2.48,2.48,0,0,1-.84-.21,8,8,0,0,1-.78-.37,6.66,6.66,0,0,1-.68-.53,2.34,2.34,0,0,1-.58-.64A5.24,5.24,0,0,1,23.51,79.26Z"/><path class="cls-14" d="M35.82,59.86s0,.08,0,.16h0a.2.2,0,0,1,0,.07h0c0,.06,0,.11,0,.18s0,.12,0,.2h0c-.05.26-.12.59-.21,1a27.85,27.85,0,0,1-1.12,3.46c-.28.71-.59,1.41-.9,2-.23.46-.46.89-.66,1.25-.49.87-.84,1.43-.84,1.43s-.05.07-.13.21L31.1,71a22.5,22.5,0,0,0-1.7,3.18q-.15.38-.27.75c0,.09-.06.18-.09.27a8.6,8.6,0,0,0-.32,1.41,5.9,5.9,0,0,0-.1,1.06,7.58,7.58,0,0,0,.07,1.19,2.34,2.34,0,0,1,.06.44.7.7,0,0,1,0-.11c0-.07-.05-.18-.08-.32,0,.11,0,.22,0,.35.06.91.17,2.12.34,3.31l.09.58c.15,1,.34,1.95.5,2.7s.35,1.47.35,1.47.14.59.38,1.46.52,1.77.8,2.81a0,0,0,0,0,0,0,2.86,2.86,0,0,0,.07.28H31l-.06-.2s0,0,0,0c-.29-1-.62-2-.85-2.81s-.4-1.47-.4-1.47-.15-.59-.33-1.48-.32-1.72-.45-2.73c0-.19-.06-.39-.08-.58-.14-1.21-.22-2.42-.25-3.33,0-.46,0-.84,0-1.1v-.1c0-.12,0-.23,0-.36a6,6,0,0,1,.07-1.09,10.94,10.94,0,0,1,.27-1.39c0-.08.05-.17.08-.25.08-.28.17-.56.28-.84a21.54,21.54,0,0,1,1.66-3.24c.31-.5.55-.9.69-1.14l.17-.27s.36-.55.86-1.4c.19-.34.4-.72.62-1.14.33-.64.68-1.36,1-2.1a29,29,0,0,0,1.2-3.41c.09-.32.17-.6.23-.84s.06-.22.08-.31l0-.12c0-.06,0-.11,0-.15a0,0,0,0,1,0,0A.5.5,0,0,1,35.82,59.86Z"/></g><g class="cls-9"><path class="cls-14" d="M27.43,75.22a7.06,7.06,0,0,0,1.21,0,6.58,6.58,0,0,1,2.54.43,14.71,14.71,0,0,0,2.56.85,5.43,5.43,0,0,0,1.26.12l.35,0a4.16,4.16,0,0,0,.9-.2,9.2,9.2,0,0,0,2.38-1.32,11.72,11.72,0,0,0,2.07-1.72,2.48,2.48,0,0,0,.61-1.06c-.05,0-.27.41-.79.9a13.11,13.11,0,0,1-2.12,1.52,9.33,9.33,0,0,1-2.31,1.15,5,5,0,0,1-.8.15A1.82,1.82,0,0,1,35,76,4.78,4.78,0,0,1,33.83,76a15.27,15.27,0,0,1-2.51-.7A6.06,6.06,0,0,0,29.89,75a7.28,7.28,0,0,0-1.26,0A4.33,4.33,0,0,0,27.43,75.22Z"/></g><path class="cls-2" d="M22,33.37a2.32,2.32,0,0,0-3.2-.84c-2.25,1.37-1.42,9,1.57,9S22.55,33.23,22,33.37Z"/><path class="cls-4" d="M22,33.37a2.32,2.32,0,0,0-3.2-.84c-2.25,1.37-1.42,9,1.57,9S22.55,33.23,22,33.37Z"/><path class="cls-18" d="M19.06,39.21c0-.06.22,0,.49-.06a.45.45,0,0,0,.32-.25.7.7,0,0,0,0-.5.86.86,0,0,0-.26-.43c-.11-.12-.26-.16-.45-.34a.88.88,0,0,1-.26-.77,1.15,1.15,0,0,1,.1-.29,1,1,0,0,1,.17-.23,1.21,1.21,0,0,1,.29-.22.85.85,0,0,1,.22-.09h0s0,0,0,0,0-.07,0-.13a1.23,1.23,0,0,0,0-.19,2.49,2.49,0,0,0-.28-.82c-.28-.52-.71-.73-.69-.81s.52,0,.95.53a2.67,2.67,0,0,1,.5,1l.06.26a1.72,1.72,0,0,1,0,.29c0,.24,0,.47,0,.65a2,2,0,0,0-.43,0l-.1.05a.38.38,0,0,0-.13.12.38.38,0,0,0-.07.1s0,0,0,0a5.06,5.06,0,0,1,.43.4,1.59,1.59,0,0,1,.37.83,1.27,1.27,0,0,1-.21.89.66.66,0,0,1-.57.26C19.23,39.43,19.05,39.25,19.06,39.21Z"/><path class="cls-4" d="M20.38,41.53c3,0,2.17-8.3,1.63-8.16a2.81,2.81,0,0,0-1.65-1.18,5.36,5.36,0,0,1-.31,3.07s-.74-1.28-1.18-.87S19,36.81,18.1,37c-.28.05-.46-.18-.56-.52C17.62,38.91,18.63,41.52,20.38,41.53Z"/><g class="cls-9"><path class="cls-19" d="M17.86,34.17c-.14.42-.1.85.09,1s.46-.15.6-.57.1-.84-.09-1S18,33.76,17.86,34.17Z"/><path class="cls-19" d="M18.67,33a.34.34,0,0,0,.14.39.21.21,0,0,0,.32-.09.37.37,0,0,0-.13-.4A.21.21,0,0,0,18.67,33Z"/></g><path class="cls-2" d="M55.37,34.76c.48-6.77-1.94-17.87-16.21-18.48S22.07,31.35,22.07,31.35a43.45,43.45,0,0,0-1.69,10.18c0,4.44,2.09,11.1,12.34,12.52S51,51.42,53.11,45.17a5.27,5.27,0,0,0,5-4.07C58.93,38.21,57.44,35.19,55.37,34.76Z"/><g class="cls-3"><path class="cls-4" d="M55.37,34.76a21.54,21.54,0,0,0-.59-6.85,17.4,17.4,0,0,0-2.16-5c1.94,3.53,2.12,8.74,1.9,11.9.17,0,.61-.07.9-.07Z"/><path class="cls-4" d="M57.21,36a6.06,6.06,0,0,1,.28,4.08,5.27,5.27,0,0,1-5,4.07C50.41,50.39,42.34,54.43,32.09,53c-5.4-.75-8.52-3-10.28-5.52,1.6,3,4.8,5.7,10.91,6.55C43,55.47,51,51.42,53.11,45.17a5.27,5.27,0,0,0,5-4.07A5.84,5.84,0,0,0,57.21,36Z"/></g><g class="cls-3"><path class="cls-2" d="M55.84,42.6a1,1,0,0,1-.45.82.76.76,0,0,1-.43.14.73.73,0,0,1-.51-.26,1.26,1.26,0,0,1-.29-.65.89.89,0,0,1,.25-.77,2.49,2.49,0,0,1,.45-.27.64.64,0,0,0,.21-.25.91.91,0,0,0,.09-.63.46.46,0,0,0-.31-.34l-.12,0a.34.34,0,0,0-.14,0l-.07,0s0,0,0,0l-.12.16c-.17.23-.3.29-.45.29a.4.4,0,0,1-.27-.13.76.76,0,0,1-.14-.3,4.5,4.5,0,0,1,0-.88c0-.2,0-.41.06-.61a3.65,3.65,0,0,1,.36-1.13,2,2,0,0,1,.62-.7c.45-.3.81-.19.81-.14s-.32.09-.65.42A2.56,2.56,0,0,0,54,39.06c0,.17,0,.35,0,.53a1.76,1.76,0,0,0,0,.18c0,.07.08,0,.07,0h0l.1-.08a1,1,0,0,1,.21-.1.87.87,0,0,1,.34,0,.9.9,0,0,1,.3.06.86.86,0,0,1,.28.17,1.44,1.44,0,0,1,.47.84,1.81,1.81,0,0,1-.24,1.24,1.21,1.21,0,0,1-.45.42,2.27,2.27,0,0,0-.39.17.22.22,0,0,0-.1.21.63.63,0,0,0,.11.35.42.42,0,0,0,.55.15C55.65,42.94,55.79,42.56,55.84,42.6Z"/></g><path class="cls-19" d="M56.67,37.2c.29.31.63.41.76.23s0-.6-.28-.91-.63-.41-.76-.23S56.39,36.89,56.67,37.2Z"/><path class="cls-19" d="M55.61,35.68a.33.33,0,0,0,.13.39.21.21,0,0,0,.33-.09.34.34,0,0,0-.14-.39A.21.21,0,0,0,55.61,35.68Z"/><path class="cls-7" d="M43.56,40.12s.23.13.49.1a1.49,1.49,0,0,0,.49-.12,1.47,1.47,0,0,0,.38-.35c.16-.2.22-.45.18-.46s-.16.18-.34.32a1.64,1.64,0,0,1-.36.22A1.58,1.58,0,0,1,44,40C43.8,40.08,43.57,40.08,43.56,40.12Z"/><path class="cls-7" d="M43.06,40.61s.2.21.48.3a1.77,1.77,0,0,0,.58.07,1.87,1.87,0,0,0,.56-.18c.26-.13.45-.35.42-.38s-.25.12-.5.19a2.1,2.1,0,0,1-.5.07,1.86,1.86,0,0,1-.51,0C43.33,40.68,43.08,40.57,43.06,40.61Z"/><path class="cls-7" d="M24.62,36.88s-.15.21-.11.46a1,1,0,0,0,.18.46,1,1,0,0,0,.44.24c.24.07.47,0,.46,0s-.22-.05-.39-.15a.93.93,0,0,1-.28-.24.74.74,0,0,1-.2-.31C24.64,37.11,24.66,36.89,24.62,36.88Z"/><path class="cls-7" d="M24.12,37.82s0,.3.12.55a.92.92,0,0,0,1,.48c.3,0,.53-.22.5-.25a4.31,4.31,0,0,1-.51,0,1.05,1.05,0,0,1-.45-.13,1.09,1.09,0,0,1-.38-.27C24.24,38.07,24.16,37.81,24.12,37.82Z"/><path class="cls-7" d="M28,37.41c0,1.36-.66,2.44-1.42,2.42s-1.36-1.15-1.34-2.51.66-2.44,1.42-2.42S28,36.05,28,37.41Z"/><path class="cls-20" d="M28,37.41c0,1.36-.66,2.44-1.42,2.42s-1.36-1.15-1.34-2.51.66-2.44,1.42-2.42S28,36.05,28,37.41Z"/><path class="cls-21" d="M27.31,35.21a3.72,3.72,0,0,1,.13,1.08c0,1.36-.66,2.44-1.42,2.42a1,1,0,0,1-.63-.31c.21.83.66,1.41,1.21,1.43.76,0,1.39-1.06,1.42-2.42A3.1,3.1,0,0,0,27.31,35.21Z"/><path class="cls-22" d="M25.55,36.91c-.05.46.11.86.34.9s.48-.33.52-.79-.1-.87-.34-.9S25.59,36.44,25.55,36.91Z"/><path class="cls-22" d="M26.53,35.7a.18.18,0,0,1-.18.18.18.18,0,0,1-.17-.2.18.18,0,0,1,.18-.18A.19.19,0,0,1,26.53,35.7Z"/><path class="cls-7" d="M44.17,39.15c-.2,1.35-1,2.34-1.72,2.23s-1.2-1.31-1-2.65,1-2.35,1.72-2.23S44.37,37.8,44.17,39.15Z"/><path class="cls-20" d="M44.17,39.15c-.2,1.35-1,2.34-1.72,2.23s-1.2-1.31-1-2.65,1-2.35,1.72-2.23S44.37,37.8,44.17,39.15Z"/><path class="cls-21" d="M43.8,36.94a3.87,3.87,0,0,1,0,.89c-.2,1.35-1,2.35-1.72,2.23a1,1,0,0,1-.63-.44c.06.94.46,1.67,1,1.76.75.11,1.52-.88,1.72-2.23A3.2,3.2,0,0,0,43.8,36.94Z"/><path class="cls-22" d="M41.9,38.29c-.11.46,0,.88.22.94s.51-.26.62-.72,0-.87-.23-.93S42,37.84,41.9,38.29Z"/><path class="cls-22" d="M43,37.21a.19.19,0,0,1-.2.17.19.19,0,0,1-.15-.22.18.18,0,0,1,.2-.16A.18.18,0,0,1,43,37.21Z"/><path class="cls-4" d="M35.86,42.76a5.5,5.5,0,0,1-4.28-1.33s-1.25.73.89,1.63C35.31,44.26,35.86,42.76,35.86,42.76Z"/><g class="cls-3"><path class="cls-2" d="M34.61,43.33s-.37.07-.91,0a5.43,5.43,0,0,1-1.82-.69A1.14,1.14,0,0,1,31.3,42a.55.55,0,0,1,.28-.55,1.28,1.28,0,0,1,.51-.2,1,1,0,0,1,.21,0,1.83,1.83,0,0,1,.51,0,2.73,2.73,0,0,1,.61.11l.36.15a8.1,8.1,0,0,1,.78.52c0-.31,0-.65,0-1v-.61c0-.41,0-.84,0-1.22a5.62,5.62,0,0,0-.08-1.37,6,6,0,0,0-.21,1.36c0,.38-.07.81-.11,1.22,0,.21,0,.42,0,.61s0,.08,0,.09L34,41a2.69,2.69,0,0,0-.43-.19,3.59,3.59,0,0,0-.72-.18,3,3,0,0,0-.63,0l-.28,0a2.09,2.09,0,0,0-.72.33,1.28,1.28,0,0,0-.36.45,1,1,0,0,0-.06.65,1.51,1.51,0,0,0,.84.92,5.19,5.19,0,0,0,2,.56A1.45,1.45,0,0,0,34.61,43.33Z"/></g><path class="cls-19" d="M32.72,41.58c-.06.13.13.35.42.48s.57.12.63,0-.13-.35-.42-.48S32.78,41.44,32.72,41.58Z"/><path class="cls-4" d="M39.15,43.11c-.06,1.36,1.63,2.54,3.78,2.64s4-.92,4-2.28-1.63-2.54-3.78-2.64S39.21,41.76,39.15,43.11Z"/><path class="cls-4" d="M21.16,40.68c-.31,1.33,1.13,2.79,3.2,3.27s4-.21,4.31-1.53-1.13-2.79-3.2-3.27S21.47,39.36,21.16,40.68Z"/><path class="cls-4" d="M29.19,44.76h.3l.21,0h0A2.87,2.87,0,0,1,32,46.17s.26-.91,4-.22l.67.13.31.06a3.76,3.76,0,0,0,.79,0,2.94,2.94,0,0,0,.62-.07,4.3,4.3,0,0,1,1.39-.22l0,0c0,.15-1.59,5-5.2,5.63A3.92,3.92,0,0,1,32,51.34a2,2,0,0,1-.54-.42,2,2,0,0,1-.44-.76A1.39,1.39,0,0,1,31.15,49c.33-.31.25-1.59.18-2.24A4.54,4.54,0,0,1,30,45.93a2.66,2.66,0,0,1-.83-1.18Z"/><path class="cls-14" d="M39.89,45.54s-1.57,5-5.36,5.63S30.57,49,31,48.59s.14-2.63.14-2.63S36.3,47.22,39.89,45.54Z"/><path class="cls-15" d="M31.16,46s.42.1,1.11.21c.23.89-.14,2.34-.42,2.21s-1.13.09-.79,1.26,2.93,2.07,4.78.78.74-1.84.74-1.84a27.47,27.47,0,0,1,2-2.56,7.72,7.72,0,0,0,1.35-.48s-1.57,5-5.36,5.63S30.57,49,31,48.59,31.16,46,31.16,46Z"/><path class="cls-7" d="M31.51,46s.29.1.79.22l.3.06h0c.2,0,.42.09.66.12a12,12,0,0,0,3.11.13h0l.24,0c.13,0,.26,0,.39-.06l.18,0,.49-.1.59-.17.07,0a6.78,6.78,0,0,0,.84-.35C38.42,47.26,37,49.09,35,49.47a3.45,3.45,0,0,1-2.75-.4c-.71-.55-.56-1.39-.61-2.18C31.58,46.58,31.55,46.28,31.51,46Z"/><path class="cls-5" d="M38.53,46h0l-.06,0-.05,0h0l-.2.08v0l-.43.13-.48.11-.17,0a10.41,10.41,0,0,1-2.79.07l-.45,0-.75-.11-.67-.15c-.25-.06-.5-.12-.74-.2a2.25,2.25,0,0,0,.67,1.72,3.57,3.57,0,0,0,.26,1.62,3.93,3.93,0,0,0,2.3.14c2.07-.38,3.47-2.21,4.29-3.72C39,45.86,38.77,46,38.53,46Z"/><path class="cls-6" d="M36.38,46.92l-.74.8a10.23,10.23,0,0,1-1.72.55c.28,0,.91-.15,1.36-.15l0,0a.45.45,0,0,0,.11,0,.51.51,0,0,1,.37.11.35.35,0,0,1,0,.47.62.62,0,0,1-.29.18,5.58,5.58,0,0,1-2.89.28,1.22,1.22,0,0,0,.07.17,3.93,3.93,0,0,0,2.3.14c2.07-.38,3.47-2.21,4.29-3.72-.23.11-.47.2-.71.29h0l-.06,0-.05,0h0l-.2.08v0l-.43.13-.48.11-.17,0c-.1,0-.22,0-.32,0h0c-.32,0-.64.07-1,.08h-.24a10.9,10.9,0,0,1-1.71-.1h0l-.75-.11-.67-.15c-.25-.06-.5-.12-.74-.2a3.4,3.4,0,0,0,.17,1A10.11,10.11,0,0,0,36.38,46.92Z"/><path class="cls-14" d="M40,45.52a14,14,0,0,1-7.33,1.22C29.44,46.18,29,44.36,29,44.36s2.32,0,3,1.42c0,0,.29-1,4.83-.08C38.52,46.07,39.09,45.4,40,45.52Z"/><path class="cls-15" d="M40,45.52a14,14,0,0,1-7.33,1.22C29.44,46.18,29,44.36,29,44.36s2.32,0,3,1.42c0,0,.29-1,4.83-.08C38.52,46.07,39.09,45.4,40,45.52Z"/><path class="cls-15" d="M29.52,44.41c.17.73,1.59,2.19,4.19,1.92,1.63-.16,2.15-.5,2.29-.78l.74.15c1.78.37,2.35-.3,3.21-.18a14,14,0,0,1-7.33,1.22C29.44,46.18,29,44.36,29,44.36A4.34,4.34,0,0,1,29.52,44.41Z"/><path class="cls-23" d="M33.72,50.34c0,.2.34.32.69.28s.63-.24.61-.44-.33-.32-.69-.28S33.7,50.14,33.72,50.34Z"/><path class="cls-7" d="M42.5,32.77c0,.08.37.12.68.26a2.73,2.73,0,0,1,.56.35,3.07,3.07,0,0,1,.55.38c.25.23.43.54.51.52s0-.43-.18-.78a2.44,2.44,0,0,0-.55-.62,2.39,2.39,0,0,0-.78-.26C42.87,32.57,42.48,32.68,42.5,32.77Z"/><path class="cls-7" d="M25.66,32.09c.07,0,.33-.24.64-.41a2.45,2.45,0,0,1,.64-.25,2.17,2.17,0,0,1,.66-.2,1.8,1.8,0,0,1,.47,0c.13,0,.22.07.25,0s0-.14-.15-.25a1.14,1.14,0,0,0-.56-.22,2.12,2.12,0,0,0-.87.05,2.22,2.22,0,0,0-.7.49C25.73,31.65,25.58,32.05,25.66,32.09Z"/><path class="cls-4" d="M22.07,31.35S24.8,15.67,39.16,16.28,55.85,28,55.37,34.76c1.58.33,2.82,2.16,3,4.29-1.63-.49-3.39-2.46-3.88-3-.3,1.6-1.41,7.07-2.23,11.14a12.05,12.05,0,0,1-3,3.41c0-4.24-.13-12.23-.21-15.36a17,17,0,0,1-2.94-2,35.2,35.2,0,0,1-7.85-8.83s-9.1,4.2-14.47,3.13c0,0-2.18,4.93-2.28,7a1,1,0,0,0-.12-.14C21.71,32.56,22.07,31.35,22.07,31.35Z"/><path class="cls-7" d="M34.52,12.42c6.57-1.23,9.56,2,9.56,2s7.41-2.51,12.69,3.32c0,0,4.95,1.84,5.21,14.05C62.21,43,56,36.13,55,34.94c-.48,2.64-3.19,15.86-3.19,15.86l-2,1.44s-.14-13.76-.24-18.11a16.69,16.69,0,0,1-2.94-2,35.32,35.32,0,0,1-7.86-8.84s-9.09,4.21-14.47,3.13c0,0-2.18,4.93-2.28,6.95,0,0-1.36-1.85-3.2-.84C18.81,32.53,17.84,15.54,34.52,12.42Z"/><path class="cls-8" d="M61.94,30.67l-.06-1c0-.31-.05-.62-.08-.92s-.06-.61-.1-.9,0-.35-.07-.51a.41.41,0,0,0,0-.11c-.07-.47-.15-.91-.23-1.34.13,2.19.09,4.32-.51,4.54S59.62,29.83,59,28.8c0,0,0,0,0-.06a20.84,20.84,0,0,1-1-2c.17.46.39,1,.59,1.69a0,0,0,0,1,0,0l.08.21a16.4,16.4,0,0,1,.69,3.07h0a3.22,3.22,0,0,1-.58,2.8c-.76.66-2,.11-3.31-.82L54.58,33a32.49,32.49,0,0,1-3.29-3.31c.12.24,1.42,2.92.39,3.59C51,33.73,48,32,45.4,30.18l0,0c-.82-.58-1.61-1.16-2.28-1.7l0,0a1.84,1.84,0,0,1-.22-.17,0,0,0,0,1,0,0c-.44-.35-.82-.67-1.12-.95.31.36.64.74,1,1.13l.13.14.42.44h0l.66.67.79.76c.59.55,1.22,1.11,1.9,1.68a17.46,17.46,0,0,0,2.94,2c0,.75,0,1.77.06,3,0,.32,0,.66,0,1s0,.94,0,1.43c0,.73,0,1.49,0,2.25l0,2c0-1.19.14-2.66.3-3.86,0,0,0,0,0,0h0c.06-.41.12-.76.19-1.08.15-.66.34-1.1.58-1.12.52,0,.75,1.07.84,2.18v.38a15.21,15.21,0,0,1,.06,1.92,17.27,17.27,0,0,1,.2-1.72.41.41,0,0,1,0-.11c.17-1,.48-1.93,1-1.51a2.3,2.3,0,0,1,.42,1.31h0q0,.45.06,1v0c0,.12,0,.26,0,.39h0c0,.42,0,.84,0,1.27v0l0,.64.27-1.32c0-.23.09-.45.13-.67s.09-.46.14-.69c0,0,0-.05,0-.07.07-.33.13-.66.2-1v0a1.13,1.13,0,0,1,0-.18q.11-.54.21-1.05c.06-.34.13-.66.19-1h0c0-.09,0-.18,0-.27s0-.17,0-.25.09-.45.13-.66v0h0v0c.05-.22.09-.42.12-.61a1.7,1.7,0,0,0,0-.22c0-.14.06-.26.08-.38L55,35c.13.15.34.4.62.69l0,0A3.8,3.8,0,0,0,56,36a2.65,2.65,0,0,0,.34.33l.41.37h0l.16.13a5.32,5.32,0,0,0,.47.36l.05,0,0,0,.08.05c.15.1.3.2.45.28h0a2.09,2.09,0,0,0,.36.19h0l.3.12a3.29,3.29,0,0,0,.57.15,1.88,1.88,0,0,0,.58,0h0a.58.58,0,0,0,.19,0h0l0,0,.12,0,.12-.06.15-.09a.86.86,0,0,0,.18-.14l.12-.11,0,0,0,0a1.28,1.28,0,0,0,.17-.22,1.2,1.2,0,0,0,.13-.21,2.38,2.38,0,0,0,.2-.39,1.86,1.86,0,0,0,.1-.25,2.55,2.55,0,0,0,.11-.33,3.23,3.23,0,0,0,.12-.47c0-.13.06-.27.08-.41l.06-.37h0c0-.2,0-.4.07-.62,0,0,0-.06,0-.1a3.25,3.25,0,0,0,0-.33c0-.14,0-.3,0-.46s0-.32,0-.48c0-.35,0-.71,0-1.1S62,31,61.94,30.67ZM57.62,26l0,.08,0,0A.53.53,0,0,0,57.62,26Z"/><path class="cls-8" d="M36.44,22.78a4.42,4.42,0,0,0-3.24-.05s6.06-3.94,4.91-5.32a13.29,13.29,0,0,0-3.79-2.61s3.32,0,5,1.24c0,0,2.62,0,.45-1.48,0,0,2.11-.34,2.37-1.45a6.86,6.86,0,0,1,2,1.3,13.49,13.49,0,0,1,7.89.12,3.26,3.26,0,0,0-2.49.45c-1.1,1.09,1.82,4.34,1.82,4.34s-3.8-2-4.59-1.68,3.8,4.29,3.8,4.29-5.34-2.72-5.57-2,1.8,2.89,1.8,2.89-6.13-4.31-5.46.72a13.89,13.89,0,0,0,2,5.51,31.83,31.83,0,0,1-4.51-5.73,48.3,48.3,0,0,1-6.35,2.31C34.46,24.7,37.36,23.28,36.44,22.78Z"/><g class="cls-9"><path class="cls-7" d="M49.51,33.53s-.09-.09-.26-.23l-.71-.57c-.59-.46-1.38-1.08-2.15-1.72s-1.53-1.29-2.08-1.8l-.91-.86a25.66,25.66,0,0,1-2.65-3,20.15,20.15,0,0,1-1.5-2.31c-.19-.33-.34-.6-.44-.79a1,1,0,0,0-.18-.3s0,.12.12.32.22.49.39.83a19.88,19.88,0,0,0,1.43,2.37,24.37,24.37,0,0,0,2.62,3.06s.37.36.93.86,1.34,1.14,2.13,1.76,1.61,1.21,2.22,1.65l.75.52Z"/></g><g class="cls-9"><path class="cls-7" d="M49.7,34a2.77,2.77,0,0,0,.87.73,5.54,5.54,0,0,0,1,.49,5.42,5.42,0,0,0,1.14.18,2.81,2.81,0,0,0,1.14-.11s-.57,0-1.12-.1a5.63,5.63,0,0,1-1.07-.26,6.25,6.25,0,0,1-1-.38C50.17,34.26,49.72,33.92,49.7,34Z"/></g><g class="cls-9"><path class="cls-7" d="M43.83,20.42s-.11-.32-.32-.58a3.32,3.32,0,0,0-.49-.46,3,3,0,0,0-.61-.28,1.19,1.19,0,0,0-.65-.09,3.51,3.51,0,0,0,.57.28,4,4,0,0,1,.52.34,3,3,0,0,1,.5.36C43.59,20.19,43.8,20.44,43.83,20.42Z"/></g><g class="cls-9"><path class="cls-7" d="M52.85,25.79a1.43,1.43,0,0,0-.07-.29c-.06-.18-.16-.44-.29-.74a10.14,10.14,0,0,0-1.3-2.05A11.51,11.51,0,0,0,49.46,21c-.51-.42-.88-.67-.88-.67s-.36-.25-.94-.59-1.35-.74-2.15-1.11a9.17,9.17,0,0,0-2.28-.82,1.92,1.92,0,0,0-.8.06.72.72,0,0,0-.28.13,2,2,0,0,1,1.06-.07,9.34,9.34,0,0,1,2.21.9c.78.38,1.55.81,2.1,1.15s.91.6.91.6.36.23.88.63A13.45,13.45,0,0,1,51,22.85a10.33,10.33,0,0,1,1.35,2C52.68,25.39,52.83,25.8,52.85,25.79Z"/></g><g class="cls-9"><path class="cls-7" d="M60,39.16a5.72,5.72,0,0,0-.67-.59c-.41-.34-1-.8-1.47-1.28-1.05-1-2-2-2-2s-1-1-1.86-2.14c-.44-.55-.87-1.12-1.18-1.56a6.82,6.82,0,0,0-.53-.71,4.63,4.63,0,0,0,.43.78c.28.45.69,1,1.11,1.62.84,1.16,1.81,2.22,1.81,2.22s1,1,2.07,2c.55.46,1.11.9,1.54,1.22A6.55,6.55,0,0,0,60,39.16Z"/></g><g class="cls-9"><path class="cls-7" d="M57.68,34.93a8.65,8.65,0,0,0,.68,1L59,37l.73,1a8,8,0,0,0,.76,1A6,6,0,0,0,60,37.81c-.32-.53-.66-1-.66-1s-.37-.49-.77-1A5.3,5.3,0,0,0,57.68,34.93Z"/></g><g class="cls-9"><path class="cls-7" d="M53.46,21.11a2.48,2.48,0,0,0,.24.31l.68.76c.55.63,1.29,1.48,2,2.38A17.84,17.84,0,0,1,58,27.14a13,13,0,0,1,.57,1.27s.21.52.46,1.32.52,1.88.78,3l.74,3c.11.41.19.75.26,1a2.24,2.24,0,0,0,.11.37,1.78,1.78,0,0,0-.06-.39c0-.24-.11-.58-.2-1-.17-.83-.41-1.93-.64-3s-.48-2.2-.73-3-.44-1.35-.44-1.35a12.12,12.12,0,0,0-.6-1.28,16.64,16.64,0,0,0-1.71-2.59c-.7-.89-1.47-1.72-2-2.33l-.71-.73Z"/></g><g class="cls-9"><path class="cls-7" d="M51.71,19.79a3.19,3.19,0,0,0-.41-.47c-.26-.26-.61-.61-1-.94s-.75-.66-1-.89-.5-.36-.5-.36A9,9,0,0,0,47,16.24a4.72,4.72,0,0,0-2-.32,5.18,5.18,0,0,0,.6.12,8.71,8.71,0,0,1,1.28.4,9.29,9.29,0,0,1,1.7.94,16.6,16.6,0,0,1,1.58,1.16C51,19.16,51.68,19.82,51.71,19.79Z"/></g><g class="cls-9"><path class="cls-7" d="M58.5,22.69s.32.75.62,1.5.56,1.52.56,1.52.28.75.51,1.53.39,1.58.44,1.57a7.58,7.58,0,0,0-.24-1.62c-.17-.8-.43-1.58-.43-1.58s-.28-.77-.64-1.51A7.87,7.87,0,0,0,58.5,22.69Z"/></g><g class="cls-9"><path class="cls-7" d="M50.47,55.41c.09,0-.08-10.44-.08-10.44s-.3-10.44-.39-10.43S50.09,45,50.09,45,50.39,55.42,50.47,55.41Z"/></g><g class="cls-9"><path class="cls-7" d="M52.16,52.41a2.17,2.17,0,0,0,.06-.37c0-.24.06-.58.1-1,.07-.81.19-1.88.31-3,.25-2.15.57-4.29.57-4.29s.29-2.14.66-4.27c.19-1.06.39-2.12.54-2.92.08-.4.14-.73.18-1a2,2,0,0,0,.05-.37,1.94,1.94,0,0,0-.11.35c-.06.23-.14.56-.23,1-.19.79-.42,1.84-.64,2.91-.42,2.12-.74,4.26-.74,4.26s-.3,2.15-.49,4.3c-.1,1.08-.18,2.16-.22,3,0,.41,0,.75,0,1A1.92,1.92,0,0,0,52.16,52.41Z"/></g><g class="cls-9"><path class="cls-7" d="M51.73,42.85a15.48,15.48,0,0,0,.11-1.71l.09-1.7,0-1.7A16.78,16.78,0,0,0,52,36a11,11,0,0,0-.25,1.69c-.09.85-.14,1.71-.14,1.71s0,.85,0,1.71A11.35,11.35,0,0,0,51.73,42.85Z"/></g><g class="cls-9"><path class="cls-7" d="M38,13.87a8.91,8.91,0,0,0,.87.31,7.12,7.12,0,0,1,.83.38,8.63,8.63,0,0,1,.8.41,6.61,6.61,0,0,0,.78.49,2.23,2.23,0,0,0-.66-.66,5.91,5.91,0,0,0-.79-.51A5.7,5.7,0,0,0,39,14,2.39,2.39,0,0,0,38,13.87Z"/></g><g class="cls-9"><path class="cls-7" d="M31.07,15s.31,0,.77-.07a12.55,12.55,0,0,1,1.68-.05,11.62,11.62,0,0,1,1.66.2c.45.09.75.17.75.17s.29.07.73.21a11.51,11.51,0,0,1,1.56.61,12.38,12.38,0,0,1,1.46.84,6.07,6.07,0,0,0,.64.43,3.74,3.74,0,0,0-.57-.52,9.33,9.33,0,0,0-1.43-.94,11.64,11.64,0,0,0-1.57-.69c-.45-.15-.75-.23-.75-.23s-.3-.07-.77-.15a11.57,11.57,0,0,0-1.71-.15,10.33,10.33,0,0,0-1.7.15A2.78,2.78,0,0,0,31.07,15Z"/></g><g class="cls-9"><path class="cls-7" d="M20.73,24.63a1.74,1.74,0,0,0,.32.23,7.18,7.18,0,0,0,.93.51,10.77,10.77,0,0,0,3.1.86,17.07,17.07,0,0,0,3.21.1c.88,0,1.46-.12,1.46-.12s.58-.07,1.44-.21a23.16,23.16,0,0,0,3.14-.7,11.37,11.37,0,0,0,2.88-1.42c.37-.24.66-.45.87-.6a1.39,1.39,0,0,0,.31-.25,2.82,2.82,0,0,0-.34.2l-.9.55a12,12,0,0,1-2.89,1.31,21.16,21.16,0,0,1-3.11.63c-.86.13-1.44.19-1.44.19s-.57.08-1.44.14a17.84,17.84,0,0,1-3.17,0A11.21,11.21,0,0,1,22,25.26C21.23,24.93,20.74,24.6,20.73,24.63Z"/></g><g class="cls-9"><path class="cls-7" d="M19.85,27.91a2.57,2.57,0,0,0,1.25.36,4.73,4.73,0,0,0,1.31-.09,4.53,4.53,0,0,0,1.2-.56,2.68,2.68,0,0,0,.92-.92,10.73,10.73,0,0,1-1,.74,4.67,4.67,0,0,1-1.16.44,4.87,4.87,0,0,1-1.23.18A10.7,10.7,0,0,1,19.85,27.91Z"/></g><g class="cls-9"><path class="cls-7" d="M20.85,32.12a3.94,3.94,0,0,0,.38-.72c.18-.35.39-.68.39-.68s.18-.36.39-.7.45-.66.41-.69-.32.25-.58.57a7.8,7.8,0,0,0-.48.67,6.64,6.64,0,0,0-.33.75A2.36,2.36,0,0,0,20.85,32.12Z"/></g><g class="cls-9"><path class="cls-7" d="M29.21,17.08s.73-.08,1.44-.06a8.11,8.11,0,0,1,1.41.18,8.66,8.66,0,0,1,1.37.37c.68.25,1.29.63,1.32.6a4.25,4.25,0,0,0-1.23-.79,7.38,7.38,0,0,0-1.4-.48,7.32,7.32,0,0,0-1.47-.09A4.19,4.19,0,0,0,29.21,17.08Z"/></g><g class="cls-9"><path class="cls-7" d="M26.5,23.88a.85.85,0,0,0,.27,0c.17,0,.41,0,.7,0a16.31,16.31,0,0,0,2.14-.17,20.11,20.11,0,0,0,3-.67l.26-.09c.16-.05.39-.13.66-.24a19.29,19.29,0,0,0,2-.88,15.69,15.69,0,0,0,1.83-1.11A1.51,1.51,0,0,0,38,20a2.9,2.9,0,0,1-.68.66c-.49.31-1.18.67-1.87,1a19.68,19.68,0,0,1-2,.81l-.66.22-.25.08a21,21,0,0,1-3,.75,19.58,19.58,0,0,1-2.1.26A7.54,7.54,0,0,0,26.5,23.88Z"/></g><g class="cls-9"><path class="cls-7" d="M21.12,22.31s.63-.32,1.27-.6a12.42,12.42,0,0,1,1.3-.48A11.83,11.83,0,0,1,25,20.84c.68-.16,1.38-.23,1.38-.28a5.06,5.06,0,0,0-1.42.07,10.28,10.28,0,0,0-1.38.31,10.79,10.79,0,0,0-1.3.58A5,5,0,0,0,21.12,22.31Z"/></g><path class="cls-8" d="M21.16,30c.61-1.07-1.61-1.8-1.61-1.8a5.92,5.92,0,0,0,2.27-.62c1.5-.66-.87-2.47-1-2.67l3.56,1.15.15.37-.24,0S22.11,31.35,22,33.37c0,0-1.36-1.85-3.2-.84a18.7,18.7,0,0,1,.07-2.34C19.71,30.61,20.78,30.68,21.16,30Z"/><g class="cls-10"><path class="cls-7" d="M50.12,32.07c-1.52.34-3.2-1.25-4.28-2.17-1.29-1.12-2.63-2.27-2.67-4.09a.5.5,0,0,1,.64-.46c1.6.35,2.55,1.63,3.7,2.69,1,.89,2.81,1.93,3.08,3.27a.64.64,0,0,1-.47.76Z"/></g><g class="cls-10"><path class="cls-7" d="M50.07,28.75a1.93,1.93,0,0,1-1-.45,3,3,0,0,1-.8-.8.23.23,0,0,1,.27-.32,2.69,2.69,0,0,1,1,.57,1.78,1.78,0,0,1,.68.81.16.16,0,0,1-.16.19Z"/></g><g class="cls-10"><path class="cls-7" d="M55.41,32.73c-1.13-1.74-2.32-3.47-3.55-5.14-1-1.4-2.28-2.62-3.28-4-.24-.33.19-.75.53-.64,1.88.58,3.1,2.34,4.21,3.88a17.62,17.62,0,0,1,2.84,5.66c.13.47-.51.65-.75.28Z"/></g><g class="cls-10"><path class="cls-7" d="M57,29.59c-.34-.2-.38-.77-.52-1.12a12.25,12.25,0,0,1-.58-1.28.23.23,0,0,1,.38-.21,3.72,3.72,0,0,1,.7,1.3c.13.36.43.91.2,1.27a.12.12,0,0,1-.18,0Z"/></g><g class="cls-10"><path class="cls-7" d="M54.92,25.29c-1.05-.48-1.87-1.76-2.63-2.61a10.78,10.78,0,0,1-2.37-2.9c0-.12.1-.22.2-.19,1.17.32,2.13,1.55,2.9,2.42s1.88,2,2,3.18c0,0,0,.14-.11.1Z"/></g><g class="cls-10"><path class="cls-7" d="M59.31,26.74c-1.17-1.62-2.21-3.31-3.52-4.84s-3.07-2.46-4-4.12c-.2-.39.09-1,.58-.93,2.12.32,3.59,2.26,4.79,3.9a12.23,12.23,0,0,1,2.42,5.88.18.18,0,0,1-.31.11Z"/></g><g class="cls-10"><path class="cls-7" d="M58.76,21.12l-.6-.78c-.07-.09.05-.21.13-.12l.64.74c.09.11-.08.27-.17.16Z"/></g><g class="cls-10"><path class="cls-7" d="M51,41.94a17.64,17.64,0,0,1,.16,6.52c0,.23-.41.31-.45,0a17.7,17.7,0,0,1,.16-6.57.07.07,0,0,1,.13,0Z"/></g><g class="cls-10"><path class="cls-7" d="M34.31,23.27c-.85,1.38-2.45,1.71-4,1.95a14.24,14.24,0,0,1-6.59-.2.43.43,0,0,1,.15-.84c3.57-.09,6.93.56,10.31-1,.06,0,.13,0,.09.09Z"/></g><g class="cls-10"><path class="cls-7" d="M36.93,17.41a14,14,0,0,1-2.38-.85c-.14-.07,0-.28.11-.24a13,13,0,0,1,2.3,1,0,0,0,0,1,0,.09Z"/></g><g class="cls-10"><path class="cls-7" d="M33.16,16a21.68,21.68,0,0,1-2.68.21,6.26,6.26,0,0,1-2.4,0,.19.19,0,0,1,0-.34,4.47,4.47,0,0,1,2.61-.4,6.54,6.54,0,0,1,2.52.45,0,0,0,0,1,0,0Z"/></g><g class="cls-10"><path class="cls-7" d="M34.08,20.35c-1.1,1.11-3,1.48-4.49,1.88a10.88,10.88,0,0,1-4.93.44.57.57,0,0,1-.1-1,19.07,19.07,0,0,1,4.62-1.15c1.48-.28,3.16-1,4.66-.75a.36.36,0,0,1,.24.62Z"/></g><g class="cls-10"><path class="cls-7" d="M28.52,19c-.3.32-.8.3-1.22.36a3.77,3.77,0,0,1-1.34,0,.16.16,0,0,1,0-.29,3.68,3.68,0,0,1,1.31-.3c.42,0,.91-.14,1.27.12,0,0,0,.09,0,.14Z"/></g><g class="cls-10"><path class="cls-7" d="M37.73,14.47a3.42,3.42,0,0,1-1.35-.32c-.55-.15-1.05-.39-1.58-.58-.09,0-.11-.21,0-.22a4.18,4.18,0,0,1,1.69.05,2.33,2.33,0,0,1,1.39.71.25.25,0,0,1-.16.36Z"/></g><path class="cls-2" d="M74.49,16.78l.4-1.68S71.52,13.44,71.66,11c0-.76.25-1.57.22-2.33,0-.45-.19-1,.13-1.3.53-.51,1.38.12,1.63.64.19-1,2.11-4,3.22-2.27A2.42,2.42,0,0,1,79.61,6a1.4,1.4,0,0,0,.3.23,1.76,1.76,0,0,0,.45.12,1.5,1.5,0,0,1,1,.88c0,.09.26.1.34.15,1.27.88.86,2.85.5,4.05s-1.14,3.2-2.46,3.86l0,2.67S74.34,18.21,74.49,16.78Z"/><g class="cls-3"><path class="cls-2" d="M76,11.57a3.86,3.86,0,0,0-1.21-1.5,3.33,3.33,0,0,0-.72-.43,2.5,2.5,0,0,1,.82.25,3.17,3.17,0,0,1,1.48,1.51,2.51,2.51,0,0,1,0,2.11,1.36,1.36,0,0,1-.4.5,1.15,1.15,0,0,1-.19.13,1.47,1.47,0,0,0,.41-.71A2.76,2.76,0,0,0,76,11.57Z"/><path class="cls-2" d="M73.89,8.7a6.63,6.63,0,0,0-.5-1l-.24-.43a2.88,2.88,0,0,1,1.12,1.26,1.92,1.92,0,0,1,0,1.21,3.91,3.91,0,0,1-.17.46A5.47,5.47,0,0,0,73.89,8.7Z"/><path class="cls-2" d="M80.77,11.74a1.25,1.25,0,0,1-.31-1,.83.83,0,0,1,.14-.39,1.6,1.6,0,0,0,.06.38,1.81,1.81,0,0,0,.41.73,1.31,1.31,0,0,0,.67.42.46.46,0,0,0,.35-.07.47.47,0,0,1-.34.27A1.08,1.08,0,0,1,80.77,11.74Z"/><path class="cls-2" d="M80.6,9.91a4.85,4.85,0,0,0,.6-2.06,4.37,4.37,0,0,0,0-.93,3,3,0,0,1,.22.92A3.85,3.85,0,0,1,81,10.1a1.8,1.8,0,0,1-1,1,.86.86,0,0,1-.65-.07.73.73,0,0,1-.31-.44,1.43,1.43,0,0,1,0-.72.49.49,0,0,1,.12-.22.68.68,0,0,0,0,.24,1.35,1.35,0,0,0,.12.63.48.48,0,0,0,.66.26A1.73,1.73,0,0,0,80.6,9.91Z"/><path class="cls-2" d="M78.92,9.05a12,12,0,0,0,.68-2.12,2.63,2.63,0,0,0,0-.93,2,2,0,0,1,.18,1,6.45,6.45,0,0,1-.51,2.26,1.54,1.54,0,0,1-.9,1A1.12,1.12,0,0,1,77.3,10a1.09,1.09,0,0,1-.39-.87,1.14,1.14,0,0,0,.51.71.93.93,0,0,0,.85.07A1.35,1.35,0,0,0,78.92,9.05Z"/><path class="cls-2" d="M76.73,9A4.52,4.52,0,0,0,77,6.09a2.13,2.13,0,0,0-.47-.77,2.66,2.66,0,0,0-.26-.22,1.54,1.54,0,0,1,.3.17,2.1,2.1,0,0,1,.61.74,4.06,4.06,0,0,1,0,3.11,1.29,1.29,0,0,1-.57.82.87.87,0,0,1-1-.13,1.85,1.85,0,0,1-.44-1.39,5.15,5.15,0,0,1,.15-1.28,7.17,7.17,0,0,0,0,1.27,1.82,1.82,0,0,0,.45,1.14.52.52,0,0,0,.56,0A.94.94,0,0,0,76.73,9Z"/><path class="cls-2" d="M78.1,11.49a2.62,2.62,0,0,1,1.14,0,2.35,2.35,0,0,1,.44.15,8.71,8.71,0,0,0-2.89.79,1.87,1.87,0,0,1,.31-.35A2.41,2.41,0,0,1,78.1,11.49Z"/></g><path class="cls-4" d="M81.74,11.18c-.85-.3,0-2.47.37-3.45L82,7.55l-.19-.16c-.08,0-.31-.06-.35-.15A1.19,1.19,0,0,0,81.28,7l0,0,0,0a3.87,3.87,0,0,1-.74,3.26l0,0c-.27.3-.55.41-.75.23-.47-.41.5-2.85,1-4a1.33,1.33,0,0,0-.28-.1,1.42,1.42,0,0,1-.46-.12.44.44,0,0,1-.15-.1l-.07-.06,0,0h0l0,0a2.34,2.34,0,0,0-.73-.43,2.47,2.47,0,0,0-1.11-.14l-.84.26-.06,0a3,3,0,0,1,.15.57.5.5,0,0,1,0,.12,4.14,4.14,0,0,1,.06.7,2.17,2.17,0,0,1,0,.36,3.86,3.86,0,0,1-.19,1,1.27,1.27,0,0,1-.06.18c-.24.63-.63,1-1,.9-.12,0-.2-.14-.24-.31-.24-.85.47-3.17.74-4h0a.57.57,0,0,0-.18,0,1.16,1.16,0,0,0-.4.09,3.24,3.24,0,0,0-.35.21l-.25.2-.19.19a5,5,0,0,0-.36.42c-.09.12-.18.25-.26.38l-.2.31c-.08.13-.14.27-.2.39a1.42,1.42,0,0,0-.08.18c0,.06,0,.12-.07.17a1.53,1.53,0,0,0-.07.24,1,1,0,0,0-.19-.29l-.15-.15s0,0,0,0a1.59,1.59,0,0,0-.41-.26l-.14,0a8.66,8.66,0,0,1,.67,3s1.43.39,1.34,2.74c0,1.09-.68,1.25-1.35,1.13a8.54,8.54,0,0,0,1.5,1l-.17.75-.22.93c-.15,1.44,5.27,1.2,5.27,1.2V16.77l0-1.47c1.31-.66,2.06-2.54,2.46-3.85a.83.83,0,0,1,0-.15A3.18,3.18,0,0,1,81.74,11.18ZM77.81,6c2.55-.23.41,3.94,0,3.65S77.52,7.16,77.81,6Z"/><path class="cls-5" d="M47.23,70.07s-5-9,2-10.64c2.9-.7,15.31-15.75,16-17.68s7.75-25.57,7.75-25.57,5.8-1.62,7.54,1.39-8,27-9.58,29.48S54.59,69.3,47.23,70.07Z"/><path class="cls-6" d="M80.46,17.57c-1.74-3-7.54-1.39-7.54-1.39s-.1.35-.29,1c2.06.31,4.73.93,5.54,2.15,1.36,2.05-5.48,21.28-8.42,23.47-1.81,1.34-3.22-.82-4-2.68l-.24.75c.47,2.62,1,6.26.78,7.82-.38,2.56-11.9,16.62-16.2,16.75-3.13.1-2.48-3.62-1.9-5.64-5.35,2.28-.92,10.3-.92,10.3,7.36-.77,22.11-20.53,23.65-23S82.21,20.59,80.46,17.57Z"/><g class="cls-3"><path class="cls-24" d="M14.62,39.83a7.18,7.18,0,0,1-1,1.78,6.26,6.26,0,0,1-.54.65,10.68,10.68,0,0,0,1.34-2.5A10.26,10.26,0,0,0,15.08,37a6.69,6.69,0,0,1,0,.84A7.45,7.45,0,0,1,14.62,39.83Z"/><path class="cls-24" d="M15.18,39.33a6.75,6.75,0,0,1-.44,1.78s.13-.81.25-1.8.16-1.8.16-1.8A6.73,6.73,0,0,1,15.18,39.33Z"/><path class="cls-24" d="M65.67,42.47a9.83,9.83,0,0,0,.57,2.44,6.1,6.1,0,0,1-.33-.67,6.55,6.55,0,0,1-.44-1.74,6.32,6.32,0,0,1,.07-1.8,5.62,5.62,0,0,1,.17-.72A9.52,9.52,0,0,0,65.67,42.47Z"/><path class="cls-24" d="M65.05,43.11a14.53,14.53,0,0,0,0,2.08,6.31,6.31,0,0,1-.15-2.09,6.47,6.47,0,0,1,.53-2A14.5,14.5,0,0,0,65.05,43.11Z"/></g></g></g></g></svg>