<svg xmlns="http://www.w3.org/2000/svg" viewBox="0 0 92.18 196.18"><defs><style>.cls-1{isolation:isolate;}.cls-2,.cls-21,.cls-22,.cls-23,.cls-3{fill:#6f3a1e;}.cls-3{opacity:0.3;}.cls-12,.cls-14,.cls-16,.cls-18,.cls-19,.cls-21,.cls-22,.cls-3,.cls-7,.cls-8{mix-blend-mode:multiply;}.cls-14,.cls-17,.cls-21,.cls-4,.cls-7,.cls-8{opacity:0.5;}.cls-17,.cls-20,.cls-23,.cls-24,.cls-4,.cls-5{mix-blend-mode:screen;}.cls-16,.cls-5{opacity:0.45;}.cls-6{fill:#fff;}.cls-7,.cls-9{fill:#d3dbfd;}.cls-10{fill:#294168;}.cls-11,.cls-12{fill:#88ac76;}.cls-12{opacity:0.35;}.cls-13,.cls-14,.cls-17,.cls-24{fill:#f15e6b;}.cls-15,.cls-16,.cls-19,.cls-20{fill:#e5b678;}.cls-22{opacity:0.25;}</style></defs><title>regularРесурс 5</title><g class="cls-1"><g id="Слой_2" data-name="Слой 2"><g id="OBJECTS"><path class="cls-2" d="M0,44.2s2.14,51,12.53,65.4,47.37,18.64,64.79,1.22S91.11,40.83,90.2,39,24.49,16.08,0,44.2Z"/><path class="cls-3" d="M19.5,77.38c-.45-5-1.1-18.15-2.26-21.56a38.83,38.83,0,0,0-4.2-8.2S5,46.4.1,45.47C.25,48.4.7,56.12,1.69,65.35c.26-.48.57-.78,1-.74,1.76.16,5.61,12.83,5.61,12.83S6.82,66.05,8.9,66.05s3.37,4.65,3.37,4.65,1-3.37,3.37-1.6C17.28,70.3,18.83,74.77,19.5,77.38Z"/><path class="cls-3" d="M19.5,77.38a7.25,7.25,0,0,0,.29,1.94C19.94,79.41,19.82,78.59,19.5,77.38Z"/><path class="cls-3" d="M86.87,76.89c-.16.82-.25,1.35-.25,1.35S86.74,77.67,86.87,76.89Z"/><path class="cls-3" d="M90.2,39a1.83,1.83,0,0,0-.65-.43c-1.59,1.6-3.42,2.28-4.29.68a2.54,2.54,0,0,1-.06-2.35c-3.1-1-7.46-2.28-12.63-3.45L24.26,76s.25,15.38-1.87,17.88-8.25-10.75-8.25-10.75,6.5,18.75,4.37,20.87-7-4.5-7-4.5,2.88,7,1.25,7.25c-.82.13-3.29-4.77-5.54-9.65,1.48,5.18,3.24,9.59,5.35,12.5a22.73,22.73,0,0,0,6.16,5.63,31.1,31.1,0,0,0,3.91.27c4.94,0,35.93-1.59,51.1-1.57a32.45,32.45,0,0,0,3.62-3.11c3.54-3.54,6.21-8.54,8.21-14.26C77.66,106.4,74.75,104,74,100.88s4.63-11.75,4.63-11.75-6.25,6.25-7.38,3.75,13.25-20.38,15-20.75c1.24-.27.91,2.88.61,4.76.55-2.93,1.92-9.58,2.89-9.39.33.07.54,1.74.68,4.18C91.93,55.07,90.68,40,90.2,39Z"/><g class="cls-4"><path class="cls-2" d="M13.12,93.92a4.18,4.18,0,0,1-.36-.78c-.21-.5-.52-1.22-.85-2.1-.69-1.76-1.51-4.12-2.28-6.51C8.11,79.74,7,74.84,7,74.84S6,69.93,5.33,65c-.31-2.49-.55-5-.66-6.87-.07-.93-.09-1.72-.11-2.26a4.9,4.9,0,0,1,0-.87,4.22,4.22,0,0,1,.12.86c.06.54.14,1.32.23,2.25.19,1.87.5,4.35.86,6.83.73,5,1.85,9.82,1.85,9.82s1,4.89,2.43,9.69c.71,2.4,1.48,4.78,2.09,6.55.3.89.56,1.63.74,2.15A5.14,5.14,0,0,1,13.12,93.92Z"/></g><g class="cls-4"><path class="cls-2" d="M21.76,99.6a2,2,0,0,1-.34-.44c-.2-.3-.49-.72-.8-1.24-.65-1-1.46-2.44-2.22-3.87a63.91,63.91,0,0,1-2.72-5.91,54.33,54.33,0,0,1-1.89-6.22A43.76,43.76,0,0,1,13,77.51c-.08-.6-.11-1.11-.14-1.46a2,2,0,0,1,0-.56,16.13,16.13,0,0,1,.38,2c.21,1.19.56,2.77,1,4.33a62.15,62.15,0,0,0,2,6.11s1.12,3,2.54,5.93c.71,1.45,1.45,2.89,2,4A15.86,15.86,0,0,1,21.76,99.6Z"/></g><g class="cls-4"><path class="cls-2" d="M33.27,94.63a17.89,17.89,0,0,1-.18-2.46c-.07-1.22-.2-2.43-.2-2.43s-.07-1.22-.19-2.44a16.22,16.22,0,0,1-.23-2.45,9.55,9.55,0,0,1,.66,2.39c.25,1.21.38,2.45.38,2.45s.07,1.24,0,2.48A9.56,9.56,0,0,1,33.27,94.63Z"/></g><g class="cls-4"><path class="cls-2" d="M78.46,95.78a3.28,3.28,0,0,1,.32-.64c.22-.41.56-1,.93-1.66.76-1.37,1.7-3.24,2.58-5.13S83.92,84.5,84.44,83s.84-2.47.84-2.47.34-1,.79-2.48,1-3.52,1.42-5.56.76-4.11,1-5.66c.11-.78.17-1.43.23-1.88a4.27,4.27,0,0,1,.13-.72,3.5,3.5,0,0,1,0,.73c0,.46,0,1.11-.12,1.89-.13,1.57-.41,3.66-.78,5.73s-.87,4.11-1.3,5.63-.74,2.52-.74,2.52-.34,1-.9,2.47-1.39,3.41-2.29,5.31-1.94,3.72-2.77,5.06c-.4.68-.78,1.22-1,1.6A2.87,2.87,0,0,1,78.46,95.78Z"/></g><g class="cls-4"><path class="cls-2" d="M74.19,94.42c0-.08,1.18-1.06,2.14-2.29a18.33,18.33,0,0,0,2.82-5.46c.45-1.49.54-3.06.63-3.06a8.82,8.82,0,0,1-.2,3.17,11.39,11.39,0,0,1-2.92,5.64A8.61,8.61,0,0,1,74.19,94.42Z"/></g><g class="cls-4"><path class="cls-2" d="M72,89c.08,0-.19.61-.52,1.14a10.16,10.16,0,0,1-.71,1s-.44.45-.92.84-1,.73-1,.66.35-.51.74-1l.76-.94.83-.87C71.51,89.43,71.9,89,72,89Z"/></g><g class="cls-4"><path class="cls-2" d="M84.51,94.84a12.12,12.12,0,0,1-.58,3.58,16,16,0,0,1-.86,2.37c-.29.62-.52,1-.52,1s-.23.4-.64,1a19.32,19.32,0,0,1-1.59,1.94,19.06,19.06,0,0,1-2.64,2.48c-.07-.07,1.17-1.39,2.31-2.77.56-.7,1.09-1.42,1.45-2s.57-.94.57-.94.23-.38.54-1a16.33,16.33,0,0,0,1-2.24C84.11,96.61,84.42,94.83,84.51,94.84Z"/></g><g class="cls-5"><path class="cls-2" d="M3.68,74.71c.63,7,1.47,16.21,6,21.9a.62.62,0,0,0,1-.44c-.25-3.43-1.8-6.77-2.64-10.12-1-3.84-1.95-7.66-2.64-11.57-.17-1-1.84-.77-1.75.23Z"/></g><g class="cls-5"><path class="cls-2" d="M9.26,72.45a2.72,2.72,0,0,0-.4,2.49A5.76,5.76,0,0,0,9.92,77.7c.46.52,1.23.07,1.28-.53a8.57,8.57,0,0,0-.6-2.71,3.08,3.08,0,0,0-1.23-2,.09.09,0,0,0-.11,0Z"/></g><g class="cls-5"><path class="cls-2" d="M12.18,81.59a16.18,16.18,0,0,0,1.26,5.84c.09.2.38,0,.34-.14-.41-1.94-1.07-3.78-1.51-5.71,0,0-.1,0-.09,0Z"/></g><g class="cls-5"><path class="cls-2" d="M15.09,71.32c-.66,1.47,0,3.17.27,4.71A25.48,25.48,0,0,0,17.1,82c.12.27.53.12.53-.14A24.24,24.24,0,0,0,17,76c-.38-1.55-.41-3.58-1.63-4.7a.19.19,0,0,0-.3,0Z"/></g><g class="cls-5"><path class="cls-2" d="M84.92,76.79a3.91,3.91,0,0,0-1.25,1.77,5.38,5.38,0,0,0-.41,2.37.52.52,0,0,0,1,.26,9.34,9.34,0,0,0,.79-2.1,5.65,5.65,0,0,0,.29-1c0-.36-.06-.76-.06-1.12a.19.19,0,0,0-.32-.13Z"/></g><g class="cls-5"><path class="cls-2" d="M88.06,77.53c-3.41,6.66-6.66,13.66-9.57,20.53-.31.72.54,1.58,1.18.91A33.22,33.22,0,0,0,88.32,77.6a.14.14,0,0,0-.26-.07Z"/></g><g class="cls-4"><path class="cls-2" d="M14.29,105.1a23.2,23.2,0,0,1-1.84-3,24.47,24.47,0,0,1-1.27-3.28,23.2,23.2,0,0,1,1.84,3A23.67,23.67,0,0,1,14.29,105.1Z"/></g><path class="cls-6" d="M84.1,163.38H67.77a49.33,49.33,0,0,1-1.07-4.88c-.16-1.34-.66-5.07-1.26-10.13,0-.32-.07-.64-.11-1-.06-.52-.12-1-.18-1.58-.37-3.22-.76-6.85-1.13-10.65-.1-1.09-.2-2.19-.3-3.31l-.06-.69c-.14-1.59-.27-3.21-.39-4.82,0-.45-.07-.91-.1-1.36-.13-1.84-.24-3.67-.33-5.47s-.17-3.66-.22-5.43c-.27-10.22.34-18.79,2.85-21.15l.19-.16,0,0,.08,0,.09.05L66,93l.11.06.23.14.11.06.3.18.12.07.38.24.08,0,.06,0,.58.39.36.24.69.5.42.33.4.31.4.33.06,0,.58.5.14.12h0l.54.5.16.16c.17.16.36.34.53.52l0,0,.16.17.53.57a2.09,2.09,0,0,1,.14.17c.19.21.37.42.55.64l.28.36c.12.14.23.29.33.43.23.32.45.64.66,1a8.93,8.93,0,0,1,.86,2.3s0,0,0,0c.08.28.16.57.23.89.12.48.23,1,.34,1.57s.28,1.46.42,2.27L77,109c.05.31.1.61.14.93l.15,1h0c.32,2.15.63,4.53.94,7.07q.11.84.21,1.71s0,0,0,0c0,.25,0,.5.08.75s.09.78.13,1.17c.15,1.38.31,2.79.46,4.21l.27,2.62h0c0,.06,0,.12,0,.17q.28,2.76.55,5.51l.09.95h0l.09,1c0,.48.09,1,.14,1.43.09.94.18,1.88.27,2.8,0,.46.09.92.13,1.37l0,.3c0,.39.07.78.11,1.17s.07.8.11,1.19c.19,1.86.36,3.63.52,5.26,0,.14,0,.28,0,.42s0,.5.07.74a.09.09,0,0,1,0,.05c0,.24,0,.47.07.7s0,.15,0,.23l0,.21c0,.26,0,.52.08.77,0,.07,0,.14,0,.21,0,.24.05.48.08.71,0,.07,0,.14,0,.21,0,.24,0,.47.08.69,0,.06,0,.11,0,.17,0,.25,0,.49.08.72a.28.28,0,0,1,0,.09.09.09,0,0,0,0,.05c0,.14,0,.28,0,.42s.06.53.1.77a1.1,1.1,0,0,0,0,.18l0,.18.06.43,0,.2c0,.12,0,.24,0,.35l0,.19c0,.1,0,.2,0,.29l0,.17c0,.09,0,.17.05.25l0,.14s0,.05,0,.07l0,.15,0,.1c0,.09,0,.17.07.24s.05.15.09.25l0,.1.09.23s0,.08,0,.12.07.19.11.29,0,.09.06.15a2.56,2.56,0,0,0,.12.32l.07.18c.05.15.11.3.18.47l0,.08c.07.2.16.42.25.64a.14.14,0,0,0,0,.07c.08.19.16.4.24.61Z"/><path class="cls-7" d="M84.1,163.38H67.77a49.33,49.33,0,0,1-1.07-4.88c-.16-1.34-.66-5.07-1.26-10.13,0-.32-.07-.64-.11-1-.06-.52-.12-1-.18-1.58-.37-3.22-.76-6.85-1.13-10.65-.1-1.09-.2-2.19-.3-3.31l-.06-.69c-.14-1.59-.27-3.21-.39-4.82,0-.45-.07-.91-.1-1.36-.13-1.84-.24-3.67-.33-5.47s-.17-3.66-.22-5.43c-.27-10.22.34-18.79,2.85-21.15l.19-.16,0,0,.08,0,.09.05L66,93l.11.06.23.14.11.06.3.18.12.07.38.24.08,0,.06,0,.58.39.36.24.69.5.42.33.4.31.4.33.06,0,.58.5.14.12h0l.54.5.16.16c.17.16.36.34.53.52l0,0,.16.17.53.57a2.09,2.09,0,0,1,.14.17c.19.21.37.42.55.64l.28.36c.12.14.23.29.33.43.23.32.45.64.66,1a8.93,8.93,0,0,1,.86,2.3s0,0,0,0c.08.28.16.57.23.89.12.48.23,1,.34,1.57s.28,1.46.42,2.27L77,109c.05.31.1.61.14.93l.15,1h0c.32,2.15.63,4.53.94,7.07q.11.84.21,1.71s0,0,0,0c0,.25,0,.5.08.75s.09.78.13,1.17c.15,1.38.31,2.79.46,4.21l.27,2.62h0c0,.06,0,.12,0,.17q.28,2.76.55,5.51l.09.95h0l.09,1c0,.48.09,1,.14,1.43.09.94.18,1.88.27,2.8,0,.46.09.92.13,1.37l0,.3c0,.39.07.78.11,1.17s.07.8.11,1.19c.19,1.86.36,3.63.52,5.26,0,.14,0,.28,0,.42s0,.5.07.74a.09.09,0,0,1,0,.05c0,.24,0,.47.07.7s0,.15,0,.23l0,.21c0,.26,0,.52.08.77,0,.07,0,.14,0,.21,0,.24.05.48.08.71,0,.07,0,.14,0,.21,0,.24,0,.47.08.69,0,.06,0,.11,0,.17,0,.25,0,.49.08.72a.28.28,0,0,1,0,.09.09.09,0,0,0,0,.05c0,.14,0,.28,0,.42s.06.53.1.77a1.1,1.1,0,0,0,0,.18l0,.18.06.43,0,.2c0,.12,0,.24,0,.35l0,.19c0,.1,0,.2,0,.29l0,.17c0,.09,0,.17.05.25l0,.14s0,.05,0,.07l0,.15,0,.1c0,.09,0,.17.07.24s.05.15.09.25l0,.1.09.23s0,.08,0,.12.07.19.11.29,0,.09.06.15a2.56,2.56,0,0,0,.12.32l.07.18c.05.15.11.3.18.47l0,.08c.07.2.16.42.25.64a.14.14,0,0,0,0,.07c.08.19.16.4.24.61Z"/><path class="cls-7" d="M84.1,163.38H67.77a49.33,49.33,0,0,1-1.07-4.88c-.16-1.34-.66-5.07-1.26-10.13,0-.32-.07-.64-.11-1-.06-.52-.12-1-.18-1.58-.37-3.22-.76-6.85-1.13-10.65-.1-1.09-.2-2.19-.3-3.31l-.06-.69c-.14-1.59-.27-3.21-.39-4.82,0-.45-.07-.91-.1-1.36-.13-1.84-.24-3.67-.33-5.47s-.17-3.66-.22-5.43c-.27-10.22.34-18.79,2.85-21.15l.19-.16,0,0,.08,0,.09.05L66,93l.11.06.23.14.11.06.3.18.12.07.38.24.08,0,.06,0,.58.39.36.24.69.5.42.33.4.31.4.33.06,0,.58.5.14.12h0l.54.5.16.16c.17.16.36.34.53.52l0,0,.16.17.53.57a2.09,2.09,0,0,1,.14.17c.19.21.37.42.55.64l.28.36c.12.14.23.29.33.43.23.32.45.64.66,1a8.93,8.93,0,0,1,.86,2.3s0,0,0,0c.08.28.16.57.23.89.12.48.23,1,.34,1.57s.28,1.46.42,2.27L77,109c.05.31.1.61.14.93l.15,1h0c.32,2.15.63,4.53.94,7.07.06.55.13,1.11.19,1.68,0,.27.07.54.1.81s.09.78.13,1.17c.15,1.38.31,2.79.46,4.21l.27,2.62h0c0,.06,0,.12,0,.17q.28,2.76.55,5.51l.09.95h0l.09,1c0,.48.09,1,.14,1.43.09.94.18,1.88.27,2.8,0,.46.09.92.13,1.37l0,.3c0,.39.07.78.11,1.17s.07.8.11,1.19c.18,1.86.35,3.63.52,5.26,0,.14,0,.28,0,.42s0,.5.07.74a.09.09,0,0,1,0,.05c0,.24,0,.47.07.7s0,.15,0,.23l0,.21c0,.26,0,.52.08.77,0,.07,0,.14,0,.21,0,.24.05.48.08.71,0,.07,0,.14,0,.21,0,.24,0,.47.08.69,0,.06,0,.11,0,.17,0,.25,0,.49.08.72a.28.28,0,0,1,0,.09.09.09,0,0,0,0,.05c0,.14,0,.28,0,.42s.06.53.1.77a1.1,1.1,0,0,0,0,.18l0,.18.06.43,0,.2c0,.12,0,.24,0,.35l0,.19c0,.1,0,.2,0,.29l0,.17c0,.09,0,.17.05.25l0,.14s0,.05,0,.07l0,.15,0,.1c0,.09,0,.17.07.24s.05.15.09.25l0,.1.09.23s0,.08,0,.12.07.19.11.29,0,.09.06.15a2.56,2.56,0,0,0,.12.32l.07.18c.05.15.11.3.18.47l0,.08c.07.2.16.42.25.64a.14.14,0,0,0,0,.07c.08.19.16.4.24.61Z"/><g class="cls-8"><path class="cls-9" d="M83,161.76a7.12,7.12,0,0,1-1.4-1.72c-.61-.92-1.12-1.91-1.12-1.91a20.08,20.08,0,0,1-.77-2.07,7.56,7.56,0,0,1-.46-2.16,14.88,14.88,0,0,1,.87,2c.43,1,.93,2,.93,2s.43,1,.94,1.95A15.4,15.4,0,0,1,83,161.76Z"/></g><path class="cls-10" d="M21.47,196.18l.06-.5c0-.34.07-.67.11-1C21.57,195.17,21.52,195.67,21.47,196.18Z"/><path class="cls-11" d="M21.47,196.18l.06-.5c0-.34.07-.67.11-1C21.57,195.17,21.52,195.67,21.47,196.18Z"/><path class="cls-12" d="M29.54,176.57h0c0-.06.09-.11.13-.16Z"/><path class="cls-12" d="M29.53,176.57h0l.12-.16C29.62,176.46,29.57,176.51,29.53,176.57Z"/><path class="cls-13" d="M80,135.13h0a21.41,21.41,0,0,1-2.36,4.71h0l-.53.82,0,0c-.46.69-1,1.39-1.47,2.11-.32.45-.61.91-.88,1.38-.14.23-.26.47-.38.71a8,8,0,0,0-.35.72l-.3.7a.36.36,0,0,1,0,.09c-.15.37-.29.74-.41,1.11s-.25.75-.35,1.13c0,.08,0,.15-.07.22a7.34,7.34,0,0,0-.24.89c-.11.39-.2.79-.28,1.19s-.15.69-.22,1c-.33,1.64-.57,3.29-.83,4.91-.36,2.19-.78,4.37-1,6.49H36.45c0-.54,0-1.08,0-1.62a64.64,64.64,0,0,0-.82-9.16c0-.22-.07-.45-.1-.67a2.74,2.74,0,0,0,0-.28c-.2-1.37-.44-2.75-.7-4.12,0-.23-.09-.46-.13-.69-.28-1.45-.56-2.91-.85-4.36l-.66-3.36c-.06-.33-.13-.67-.21-1,0-.12,0-.25-.08-.37s-.11-.5-.18-.76-.07-.31-.11-.47-.12-.5-.19-.76-.09-.34-.13-.51-.14-.53-.22-.81-.09-.35-.14-.53-.16-.59-.25-.89-.09-.34-.14-.52v0l-.15-.5v0s0,0,0,0h0l0-.11v0h0a1.72,1.72,0,0,1-.07-.21,1.55,1.55,0,0,1-.07-.23c0-.15-.09-.29-.13-.43l-.39-1.34-.21-.69c-.08-.28-.16-.56-.25-.84l-.24-.79-.24-.78c-.09-.29-.18-.58-.26-.86l-.21-.68-.3-1-.15-.47c-.21-.66-.41-1.33-.62-2s-.34-1.06-.5-1.59a2.41,2.41,0,0,1-.08-.25,2,2,0,0,1-.08-.26h0l-.48-1.54c-.12-.37-.24-.74-.35-1.11s-.28-.88-.41-1.31-.28-.88-.41-1.31c-1.93-6.19-3.41-11.25-3.18-12.37a1.8,1.8,0,0,1,.53-.81l0,0c3-3,16.87-8.09,16.87-8.09l.62-.06h0l.65-.07.76-.08h0l2.15-.19c3.26-.28,7.92-.59,12.14-.57h0c.22,0,.43,0,.64,0,3.51,0,6.64.35,8.3,1.11a3.6,3.6,0,0,1,.65.39c4.23,3.3,6.33,11.91,8.22,16.62.35.88.72,1.75,1.1,2.63,1,2.34,2,4.7,2.94,7.1l0,0s0,0,0,0A41.59,41.59,0,0,1,80,124.79c.18.7.33,1.41.44,2.12a.59.59,0,0,0,0,.13c0,.35.11.7.15,1s.09.71.12,1.06A14.46,14.46,0,0,1,80,135.13Z"/><path class="cls-14" d="M80,135.13h0a21.47,21.47,0,0,1-2.36,4.72l-.54.84h0c-.46.69-1,1.39-1.47,2.11-.32.45-.61.91-.88,1.38-.13.23-.26.47-.38.71s-.24.48-.35.72l-.3.7a.36.36,0,0,1,0,.09c-.29.73-.54,1.48-.76,2.24,0,.08,0,.15-.07.22l-.24.89c-.11.39-.2.79-.28,1.19s-.15.69-.22,1a13.44,13.44,0,0,0-6.66-3.61l-.25-.07-.47-.09c-.35-.07-.72-.12-1.09-.17-8.69-1.09-20.28-1.45-21.37,3.62a14.63,14.63,0,0,0-.13,4.52l1.18-.77c-.17,1.72-.32,3.46-.33,5.19.26,1,.56,1.89.89,2.78H36.45c0-.54,0-1.08,0-1.62a64.64,64.64,0,0,0-.82-9.16c0-.22-.07-.45-.1-.67a2.74,2.74,0,0,0,0-.28c-.21-1.38-.45-2.75-.7-4.12,0-.23-.09-.46-.13-.69-.28-1.45-.56-2.91-.85-4.36l-.66-3.36c-.06-.33-.13-.67-.21-1,0-.12,0-.25-.08-.37s-.11-.5-.18-.76-.07-.31-.11-.47-.12-.5-.19-.76-.09-.34-.13-.51-.14-.53-.22-.81-.09-.35-.14-.53-.16-.59-.25-.89-.09-.34-.14-.52v0l-.15-.5v0s0,0,0,0h0l0-.11h0c-.05-.15-.1-.31-.14-.47s-.09-.29-.13-.43l-.39-1.34-.21-.69c-.08-.28-.16-.56-.25-.84l-.24-.79-.24-.78c-.09-.29-.18-.58-.26-.86l-.21-.68-.3-1-.15-.47c-.21-.66-.41-1.33-.62-2s-.34-1.06-.5-1.59c-.06-.17-.11-.35-.17-.52l-.48-1.54c-.12-.37-.24-.74-.35-1.11s-.28-.88-.41-1.31-.28-.88-.41-1.31a41.43,41.43,0,0,1,1.82-4,15.27,15.27,0,0,1,1.42-2.25l.23-.28a4.36,4.36,0,0,1,.66-.64c.4,1.43,1.09,3.74,2.08,6.43h0c.13.35.26.72.41,1.09,0,0,0,0,0,0,.09.24.19.49.28.74l.35.86c.7,1.75,1.51,3.57,2.43,5.35a39.15,39.15,0,0,0,4.53,7.11c6.88,8.33,13.4,9.42,23.18,6.88l.75-.19c.68-.16,1.33-.3,1.94-.41a1.7,1.7,0,0,1,.31-.06c7.27-1.37,9.23.34,11.49-2.24a9.79,9.79,0,0,0,1.58-4h0c.27-1.15.48-2.42.65-3.7.17.7.31,1.41.44,2.12a.59.59,0,0,0,0,.13c0,.35.11.7.15,1s.09.71.12,1.06A14.46,14.46,0,0,1,80,135.13Z"/><path class="cls-15" d="M41.29,85.5s-1.12,11.33,3.35,13.33,9.48,2,11.15-2.66,0-11.34,0-11.34S41.85,82.83,41.29,85.5Z"/><path class="cls-16" d="M53.73,99c-7.19-1.09-11.62-9.35-9.23-8.15s9.48.26,12-.15a29.18,29.18,0,0,0-.74-5.87s-13.94-2-14.5.67c0,0-1.12,11.33,3.35,13.33C47.87,100.28,51.4,100.67,53.73,99Z"/><path class="cls-7" d="M52.41,100.53s6.73,6.22,8,2.85c0-.07,0-.15.05-.22a54.89,54.89,0,0,0-4-9.72,5.66,5.66,0,0,1-4.9,5C47.16,99,43.48,96,42,92.78c-.49,2.45,1.43,7.47,5.18,14.11C48.22,107.11,50.14,106.49,52.41,100.53Z"/><path class="cls-6" d="M41.25,89.81c-.11-.81-2.71,8,5,15.82,0,0,2.59,2.84,6-6,0,0,6.73,6.22,8,2.85S56.53,90.7,56.53,90.7s.37,6.06-5.06,6.84S41.76,93.69,41.25,89.81Z"/><path class="cls-7" d="M60.28,101.39c-1.29,3.37-8-2.85-8-2.85-3.37,8.8-6,6-6,6a18,18,0,0,1-5.55-12.15,17.84,17.84,0,0,0,5.55,13.28s2.59,2.84,6-6c0,0,6.73,6.22,8,2.85a4.19,4.19,0,0,0,.17-1.88A2.94,2.94,0,0,1,60.28,101.39Z"/><g class="cls-4"><path class="cls-17" d="M77.36,124.15a8.89,8.89,0,0,1-.41-1.81,32.2,32.2,0,0,0-1.11-3.87c-.49-1.39-1-2.76-1.46-3.79L73.69,113s-3.87-11.23-3.55-11.35,4.72,10.91,4.72,10.91l.6,1.76c.36,1.06.84,2.47,1.23,3.93a22.87,22.87,0,0,1,.74,4.06A4.51,4.51,0,0,1,77.36,124.15Z"/><path class="cls-17" d="M77.57,129.65c-.34,0-.4-1.71-.4-1.71s.5-1.59.85-1.55.39,1.72.39,1.72S77.92,129.7,77.57,129.65Z"/><path class="cls-17" d="M70.36,158.4a18.45,18.45,0,0,1-.6,3.46h0v0l-.12.31c-.11.27-.29.69-.52,1.18H67.93c.4-1,.63-1.88.63-1.88a21.75,21.75,0,0,0,.92-3.21c.35-1.65.39-3.37.57-3.38A7.8,7.8,0,0,1,70.36,158.4Z"/></g><g class="cls-8"><path class="cls-13" d="M38.34,163.21l.08.17h-.49v0a3.58,3.58,0,0,1-.18-1.64C37.83,161.72,38,162.49,38.34,163.21Z"/><path class="cls-13" d="M56.7,143.4a22.28,22.28,0,0,1-3.51.27,20.93,20.93,0,0,1-3.48-.35c-.47-.07-.86-.19-1.13-.25l-.42-.1-.42-.12c-.27-.08-.66-.15-1.11-.32a22.92,22.92,0,0,1-3.23-1.36,23.45,23.45,0,0,1-2.94-1.93,12.84,12.84,0,0,0-1.26-1,6.48,6.48,0,0,0,1.11,1.18,18.1,18.1,0,0,0,2.88,2.13,21,21,0,0,0,3.25,1.53c.46.18.86.27,1.13.37l.43.13.44.09c.29.05.68.16,1.17.22a21.36,21.36,0,0,0,3.59.23,18.94,18.94,0,0,0,3.55-.48,7.09,7.09,0,0,0,1.54-.51A13.23,13.23,0,0,0,56.7,143.4Z"/><path class="cls-13" d="M70,163.38h-.42a9.29,9.29,0,0,0,.09-1.18c0-.28,0-.46.05-.47s0,.05.08.13h0A5,5,0,0,1,70,163.38Z"/><path class="cls-13" d="M76.58,140.56c-.74.46-1.51.85-1.51.85s-.74.46-1.52.85a12,12,0,0,0-1.58.8,4.89,4.89,0,0,0,1.75-.39,13.31,13.31,0,0,0,1.65-.71,14,14,0,0,0,1.47-1c.7-.57,1.3-1.23,1.24-1.3A11.44,11.44,0,0,0,76.58,140.56Z"/><path class="cls-13" d="M66.32,137c0,.26,0,.51-.06.74v.21c0,.55-.05,1.34-.11,2.29-.12,1.89-.38,4.41-.77,6.91a2.93,2.93,0,0,1,0,.29c0,.3-.09.6-.14.9-.35,2.08-.78,4.08-1.15,5.64-.44,1.84-.79,3.06-.79,3.06s-.34,1.22-1,3c-.32,1-.73,2.13-1.16,3.36h-.53c.42-1.31.83-2.52,1.15-3.54.56-1.8.89-3,.89-3s.36-1.21.83-3c.4-1.54.86-3.52,1.24-5.59.08-.39.15-.78.22-1.17l.21-1.22c.33-2.07.59-4.07.76-5.64,0-.31.06-.6.08-.87l0,.13a6.14,6.14,0,0,1-.19.67.92.92,0,0,1-.09.23,5.82,5.82,0,0,1,.16-.93,15.28,15.28,0,0,0,.24-2.46,14.09,14.09,0,0,0-.12-2.19,21.32,21.32,0,0,0-.57-3c0-.19-.1-.38-.16-.58-.15-.52-.33-1-.52-1.56a32.66,32.66,0,0,0-1.44-3.29c-.63-1.28-1.3-2.46-1.86-3.44L60,120.39l-.26-.44s-.69-1.19-1.64-3c-.4-.78-.84-1.67-1.28-2.65-.6-1.33-1.2-2.8-1.73-4.3A55.17,55.17,0,0,1,53,102.7c-.16-.78-.29-1.46-.38-2,0-.16-.05-.31-.07-.45s0-.28-.06-.39a.9.9,0,0,0,0-.18,2.06,2.06,0,0,1,0-.37,1.38,1.38,0,0,1,.1.34c0,.09,0,.19.07.31h0l.06.25q.06.28.15.66c.11.49.26,1.09.41,1.76a61.82,61.82,0,0,0,2.24,7.18c.59,1.55,1.25,3.07,1.9,4.43.41.88.83,1.7,1.21,2.41,1,1.8,1.67,3,1.67,3l.33.58,1.35,2.41c.39.7.82,1.49,1.26,2.36a35.84,35.84,0,0,1,2,4.5c.2.58.38,1.17.53,1.75,0,.19.1.37.14.55a21.41,21.41,0,0,1,.47,2.91A14.52,14.52,0,0,1,66.32,137Z"/></g><g class="cls-4"><path class="cls-13" d="M68.71,131.86a13,13,0,0,1-2.51-.05,13.45,13.45,0,0,0-5.31.71,30,30,0,0,1-5.37,1.57,11.55,11.55,0,0,1-2.63.15s-.27,0-.73-.09a11.33,11.33,0,0,1-1.87-.5,19.35,19.35,0,0,1-4.85-2.92A23.87,23.87,0,0,1,41.28,127a4.83,4.83,0,0,1-1.19-2.25c.09,0,.52.87,1.56,1.93A28,28,0,0,0,46,130a19.27,19.27,0,0,0,4.71,2.55,8.93,8.93,0,0,0,1.67.37c.4,0,.64.06.64.06a10.76,10.76,0,0,0,2.38-.05,31.7,31.7,0,0,0,5.28-1.27,12.55,12.55,0,0,1,3-.5,14.92,14.92,0,0,1,2.61.15A8.67,8.67,0,0,1,68.71,131.86Z"/></g><path class="cls-6" d="M32.1,115.2q0,2-.06,4.14c0,.43,0,.87,0,1.31s0,.78,0,1.18,0,.75-.05,1.13v0l0,.66a.76.76,0,0,1,0,.15v.09l-.09,1.81c0,.61-.07,1.23-.11,1.85-.07,1.23-.15,2.48-.25,3.72,0,.22,0,.43-.05.65h0l-.09,1.2a1.48,1.48,0,0,0,0,.21c0,.2,0,.4-.05.6,0,.65-.1,1.3-.16,2,0,.3,0,.61-.08.91l-.24,2.72c-.06.6-.11,1.19-.17,1.77l-.15,1.52c0,.36-.07.72-.11,1.08s-.09.93-.14,1.38l-.12,1.13c-.05.55-.11,1.09-.17,1.62l-.09.79c-.11,1-.22,2-.33,3-.09.73-.17,1.44-.25,2.11-.11,1.05-.23,2-.34,2.92l-.06.44c0,.19,0,.38-.07.56-.08.71-.16,1.35-.23,1.93,0,.21-.05.41-.08.59s0,.22,0,.33-.05.43-.07.62l0,.22c0,.07,0,.14,0,.2s0,.11,0,.16c0,.2-.05.38-.06.53s-.08.59-.16,1H12.28a.11.11,0,0,1,0,0c0-.08,0-.18.06-.29s0-.07,0-.11,0,0,0-.06l0-.21a1.85,1.85,0,0,1,0-.23v0a2.34,2.34,0,0,0,0-.26c0-.09,0-.19,0-.29l0-.16h0c0-.16,0-.33.07-.51a1.1,1.1,0,0,1,0-.18c0-.24.06-.48.09-.74v0c0-.27.07-.55.1-.84a1.64,1.64,0,0,0,0-.22c0-.1,0-.2,0-.31s0-.26,0-.4l0-.25c0-.32.06-.65.1-1v-.05c0-.25.05-.5.08-.76s0-.34.05-.51.06-.62.09-.94c0-.08,0-.15,0-.22.08-.8.15-1.63.23-2.49a1.64,1.64,0,0,0,0-.22l.09-.91a2,2,0,0,1,0-.23,1.64,1.64,0,0,1,0-.22c.08-.93.16-1.89.25-2.87h0c1-10.72,2.11-24.42,3.44-33.48h0c.67-4.63,1.38-8,2.13-9.25a16.6,16.6,0,0,1,3.71-4.13l0,0c.28-.22.57-.44.85-.64s.73-.52,1.08-.73l.64-.4.44-.25c.34-.19.67-.35,1-.5a15.37,15.37,0,0,1,1.69-.74,3.5,3.5,0,0,1,.78.87,2.26,2.26,0,0,1,.16.26A2.54,2.54,0,0,1,30,99c.1.19.2.39.29.61s.09.22.14.34l.13.36a7.74,7.74,0,0,1,.24.77s0,0,0,.06c.07.25.14.51.2.78s.07.3.1.45a43.71,43.71,0,0,1,.8,6.56c0,.49,0,1,.07,1.5v0c0,.14,0,.27,0,.41a.66.66,0,0,0,0,.14h0v0c0,.72,0,1.45.05,2.21h0C32.1,113.93,32.1,114.56,32.1,115.2Z"/><path class="cls-7" d="M32.1,115.2q0,2-.06,4.14c0,.43,0,.87,0,1.31s0,.78,0,1.18,0,.75-.05,1.13v0l0,.66a.76.76,0,0,1,0,.15v.09l-.09,1.81c0,.61-.07,1.23-.11,1.85-.07,1.23-.15,2.48-.25,3.72,0,.22,0,.45,0,.67v0c0,.39-.07.79-.1,1.17a1.48,1.48,0,0,0,0,.21c0,.2,0,.4-.05.6,0,.65-.1,1.3-.16,2,0,.3,0,.61-.08.91l-.24,2.72c-.06.6-.11,1.19-.17,1.77l-.15,1.52c0,.36-.07.72-.11,1.08s-.09.93-.14,1.38l-.12,1.13c-.05.55-.11,1.09-.17,1.62l-.09.79c-.11,1-.22,2-.33,3-.08.73-.16,1.44-.25,2.11-.11,1.05-.23,2-.34,2.92v0c0,.14,0,.28-.05.42s0,.38-.07.56c-.08.71-.16,1.35-.23,1.93,0,.21-.05.41-.08.59s0,.22,0,.33,0,.28-.05.41a1.49,1.49,0,0,1,0,.21l0,.22c0,.07,0,.14,0,.2s0,.11,0,.16c0,.2-.05.38-.06.53s-.08.59-.16,1H12.28a.11.11,0,0,1,0,0c0-.08,0-.18.06-.29s0-.07,0-.11,0,0,0-.06a1.55,1.55,0,0,0,0-.21l0-.21v0a2.34,2.34,0,0,0,0-.26c0-.09,0-.19,0-.29l0-.16h0c0-.16,0-.33.07-.51a1.1,1.1,0,0,1,0-.18c0-.24.06-.48.09-.74v0c0-.27.07-.55.1-.84a1.64,1.64,0,0,0,0-.22c0-.1,0-.2,0-.31s0-.26,0-.4l0-.25c0-.32.06-.65.1-1v-.05c0-.25.05-.5.08-.76,0-.09,0-.17,0-.26l0-.25c0-.3.06-.62.09-.94,0-.08,0-.15,0-.22.08-.8.15-1.63.23-2.49a1.64,1.64,0,0,0,0-.22l.09-.91a2,2,0,0,1,0-.23,1.64,1.64,0,0,1,0-.22c.08-.93.16-1.89.25-2.87.6,3.72,1.5,7.58,2.86,10.14,3.4,6.38,9.8-7.92,11-26.9.23-3.62.35-6.78.38-9.56,0-.65,0-1.27,0-1.88q0-2.32-.09-4.26c-.09-2.06-.23-3.81-.42-5.29-.93-7.67-2.85-8.4-2.87-8.76s-.41-.69-.72-1c.37-.27.73-.51,1.08-.73l.64-.4.44-.25c.34-.19.67-.35,1-.5a8.07,8.07,0,0,1,2.47.13,2.26,2.26,0,0,1,.16.26A2.54,2.54,0,0,1,30,99c.1.19.2.39.29.61s.09.22.14.34l.13.36c.08.24.16.5.24.77,0,0,0,0,0,.06.07.25.14.51.2.78s.07.3.1.45a43.71,43.71,0,0,1,.8,6.56c0,.49,0,1,.07,1.5,0,.14,0,.29,0,.43V111a.28.28,0,0,1,0,.09c0,.72,0,1.45.05,2.21h0C32.1,113.93,32.1,114.56,32.1,115.2Z"/><g class="cls-18"><path class="cls-9" d="M19.09,162.07a20,20,0,0,1-2,.45,15.36,15.36,0,0,0-1.92.62l-.71.24H13.26a14.73,14.73,0,0,1,1.71-.83,12.63,12.63,0,0,1,2-.46A5.69,5.69,0,0,1,19.09,162.07Z"/><path class="cls-9" d="M16,161.11c0,.08-.46.44-1,.76s-1.1.58-1.1.58-.59.2-1.19.34l-.34.08h0a1.55,1.55,0,0,0,0-.21l0-.21v0l.13-.06,1.1-.5,1.14-.4A4,4,0,0,1,16,161.11Z"/><path class="cls-9" d="M31.25,134.28c-.05,0,0-.94.08-2.34s.12-3.27.1-5.14c0-3.74-.44-7.46-.44-7.46s-.31-3.72-1-7.4c-.35-1.83-.75-3.66-1.09-5s-.57-2.27-.53-2.29a3.16,3.16,0,0,1,.25.6c.12.39.32,1,.52,1.62.41,1.35.88,3.17,1.28,5,.8,3.67,1.19,7.42,1.19,7.42s.34,3.76.26,7.52c-.05,1.88-.16,3.75-.3,5.16-.06.7-.15,1.28-.21,1.69A2.38,2.38,0,0,1,31.25,134.28Z"/><path class="cls-9" d="M31.79,123.78c-.09,0,.35-1.66.55-3.33a37.27,37.27,0,0,0,.1-6.68c-.16-1.68-.55-3.32-.47-3.35a12.76,12.76,0,0,1,.91,3.29,24.76,24.76,0,0,1,.29,3.41,24.65,24.65,0,0,1-.39,3.4A12.79,12.79,0,0,1,31.79,123.78Z"/></g><path class="cls-15" d="M83.05,45.27s2.77-4.12,6.72-1.51c4.57,3,2.28,18.79-3.94,18.59S82,45,83.05,45.27Z"/><path class="cls-16" d="M83.05,45.27s2.77-4.12,6.72-1.51c4.57,3,2.28,18.79-3.94,18.59S82,45,83.05,45.27Z"/><path class="cls-19" d="M88.76,57.62c0-.12-.47,0-1-.14a1,1,0,0,1-.66-.55,1.62,1.62,0,0,1,0-1,1.89,1.89,0,0,1,.58-.88c.24-.23.54-.31,1-.66a1.81,1.81,0,0,0,.59-1.59,1.73,1.73,0,0,0-.19-.62,1.91,1.91,0,0,0-.33-.48,2.27,2.27,0,0,0-.58-.48,4,4,0,0,0-.46-.2h0s0,0,0,0,0-.16,0-.27a3.12,3.12,0,0,1,.06-.41,4.84,4.84,0,0,1,.65-1.67c.6-1.06,1.52-1.46,1.49-1.63s-1.09-.07-2,1a5.8,5.8,0,0,0-1.09,2c0,.18-.1.36-.14.54a3.35,3.35,0,0,0-.09.6c0,.5,0,1,0,1.35a4,4,0,0,1,.89,0l.22.12a1,1,0,0,1,.26.25.63.63,0,0,1,.13.23c0,.06.06,0,0,.08s-.54.38-.93.82a3.34,3.34,0,0,0-.81,1.7,2.59,2.59,0,0,0,.35,1.85,1.41,1.41,0,0,0,1.19.6C88.39,58.08,88.78,57.71,88.76,57.62Z"/><path class="cls-16" d="M85.83,62.35C79.61,62.15,82,45,83.05,45.27A5.81,5.81,0,0,1,86.56,43c-1,2.46.43,6.39.43,6.39s1.64-2.6,2.51-1.73-.47,5,1.42,5.45c.58.12,1-.34,1.2-1C91.77,57.1,89.48,62.47,85.83,62.35Z"/><g class="cls-4"><path class="cls-20" d="M91.62,47.25c.26.88.15,1.76-.26,2s-.94-.33-1.2-1.21-.15-1.76.25-2S91.36,46.37,91.62,47.25Z"/><path class="cls-20" d="M90,44.7a.71.71,0,0,1-.31.81.43.43,0,0,1-.66-.22.72.72,0,0,1,.3-.81A.44.44,0,0,1,90,44.7Z"/></g><path class="cls-15" d="M13.6,45.73c-.5-14.11,5.34-37,35.06-37.23,29.89-.22,34.42,32.57,34.42,32.57s3.11,12.06,2.75,21.28S80.68,85.28,59.28,87.47s-37.89-6.8-41.74-20A11,11,0,0,1,7.44,58.7C6,52.63,9.27,46.47,13.6,45.73Z"/><g class="cls-18"><path class="cls-16" d="M13.6,45.73a45.44,45.44,0,0,1,1.74-14.21,36.29,36.29,0,0,1,4.84-10.15c-4.29,7.21-5,18-4.81,24.59-.36.06-1.26-.18-1.87-.2Z"/><path class="cls-16" d="M9.7,48.14a12.56,12.56,0,0,0-.88,8.46,11,11,0,0,0,10.09,8.82c3.85,13.15,20.34,22.15,41.74,20,11.28-1.15,17.94-5.5,21.78-10.71C78.9,80.76,72,86.16,59.28,87.47c-21.41,2.2-37.89-6.8-41.74-20A11,11,0,0,1,7.44,58.7,12.17,12.17,0,0,1,9.7,48.14Z"/></g><g class="cls-18"><path class="cls-15" d="M12.06,62a2,2,0,0,0,.87,1.75,1.48,1.48,0,0,0,.88.31,1.44,1.44,0,0,0,1.08-.5,2.49,2.49,0,0,0,.65-1.33,1.81,1.81,0,0,0-.46-1.61,4.89,4.89,0,0,0-.91-.6,1.39,1.39,0,0,1-.43-.55,1.9,1.9,0,0,1-.13-1.3.9.9,0,0,1,.66-.68.91.91,0,0,1,.26-.08.74.74,0,0,1,.29,0l.15.06.08.06.23.34c.33.49.6.62.92.63a.8.8,0,0,0,.56-.25,1.32,1.32,0,0,0,.32-.6,9.25,9.25,0,0,0,.16-1.83c0-.42,0-.85-.08-1.27a7.41,7.41,0,0,0-.66-2.37,4.16,4.16,0,0,0-1.25-1.52c-.91-.65-1.66-.45-1.65-.34s.65.21,1.3.93a5.24,5.24,0,0,1,1.22,3.5c0,.37,0,.74,0,1.11a.94.94,0,0,1-.06.37c0,.15-.15,0-.14-.09v0L15.7,56a1.42,1.42,0,0,0-.42-.22,1.87,1.87,0,0,0-.72-.13,2.06,2.06,0,0,0-.62.11,2.18,2.18,0,0,0-.59.34,2.85,2.85,0,0,0-1,1.72,3.67,3.67,0,0,0,.4,2.57,2.46,2.46,0,0,0,.92.92,7,7,0,0,1,.8.38.47.47,0,0,1,.19.45,1.35,1.35,0,0,1-.27.71.87.87,0,0,1-1.14.28C12.43,62.7,12.16,61.9,12.06,62Z"/></g><path class="cls-20" d="M10.72,50.7c-.62.62-1.33.81-1.59.41s0-1.23.65-1.86,1.33-.82,1.59-.42S11.33,50.07,10.72,50.7Z"/><path class="cls-20" d="M13,47.62a.71.71,0,0,1-.3.81.44.44,0,0,1-.67-.22.72.72,0,0,1,.31-.81A.43.43,0,0,1,13,47.62Z"/><path class="cls-2" d="M37.76,57.74c0,.08-.49.23-1,.17a3.11,3.11,0,0,1-1-.31,3.28,3.28,0,0,1-.76-.74c-.31-.43-.42-1-.34-1s.33.38.68.68a3.18,3.18,0,0,0,.74.49,3.7,3.7,0,0,0,.8.42C37.26,57.64,37.75,57.65,37.76,57.74Z"/><path class="cls-2" d="M38.77,58.77c0,.08-.43.44-1,.59a3.85,3.85,0,0,1-1.21.12,3.86,3.86,0,0,1-1.14-.42c-.54-.3-.92-.77-.86-.83s.52.27,1,.43a4.56,4.56,0,0,0,1,.2,4.22,4.22,0,0,0,1.06.07C38.2,58.9,38.73,58.7,38.77,58.77Z"/><path class="cls-2" d="M77.37,52.38c.09,0,.29.44.2,1a1.57,1.57,0,0,1-1.34,1.42c-.51.12-1,0-1-.14s.47-.09.83-.28a1.82,1.82,0,0,0,.6-.49,1.77,1.77,0,0,0,.45-.63C77.31,52.85,77.29,52.4,77.37,52.38Z"/><path class="cls-2" d="M78.33,54.37c.09,0,.07.62-.28,1.13a1.92,1.92,0,0,1-2.13.94c-.62-.1-1.09-.5-1-.57S75.44,56,76,56a2.16,2.16,0,0,0,.94-.24,2.18,2.18,0,0,0,.81-.52C78.07,54.88,78.25,54.36,78.33,54.37Z"/><path class="cls-2" d="M70.27,53.23c0,2.83,1.19,5.13,2.77,5.14s2.9-2.29,3-5.12-1.19-5.12-2.78-5.13S70.32,50.4,70.27,53.23Z"/><path class="cls-21" d="M70.27,53.23c0,2.83,1.19,5.13,2.77,5.14s2.9-2.29,3-5.12-1.19-5.12-2.78-5.13S70.32,50.4,70.27,53.23Z"/><path class="cls-22" d="M71.89,48.72A8.61,8.61,0,0,0,71.55,51c0,2.83,1.19,5.13,2.77,5.13a2,2,0,0,0,1.34-.6c-.5,1.71-1.49,2.89-2.62,2.89-1.58,0-2.82-2.31-2.77-5.14A6.4,6.4,0,0,1,71.89,48.72Z"/><path class="cls-23" d="M75.44,52.37c.06,1-.29,1.79-.79,1.84s-1-.7-1-1.67.29-1.8.79-1.85S75.37,51.4,75.44,52.37Z"/><path class="cls-23" d="M73.48,49.78a.37.37,0,1,0,.74,0,.37.37,0,0,0-.36-.4A.4.4,0,0,0,73.48,49.78Z"/><path class="cls-2" d="M36.57,55.67c.31,2.81,1.84,4.94,3.41,4.75S42.57,57.8,42.25,55,40.4,50,38.83,50.23,36.25,52.86,36.57,55.67Z"/><path class="cls-21" d="M36.57,55.67c.31,2.81,1.84,4.94,3.41,4.75S42.57,57.8,42.25,55,40.4,50,38.83,50.23,36.25,52.86,36.57,55.67Z"/><path class="cls-22" d="M37.5,51.1a8.91,8.91,0,0,0,0,1.86c.32,2.81,1.85,4.94,3.42,4.75a2,2,0,0,0,1.33-.86c-.2,1.95-1.07,3.42-2.28,3.57-1.57.19-3.1-1.94-3.41-4.75A6.54,6.54,0,0,1,37.5,51.1Z"/><path class="cls-23" d="M41.35,54.05c.19,1-.05,1.82-.54,1.93s-1-.58-1.23-1.53.05-1.82.54-1.93S41.16,53.1,41.35,54.05Z"/><path class="cls-23" d="M39.07,51.73a.37.37,0,1,0,.74-.09.38.38,0,0,0-.41-.35A.39.39,0,0,0,39.07,51.73Z"/><path class="cls-16" d="M53.57,63.77s3.91,1.1,9-2.44c0,0,2.53,1.6-2,3.32C54.61,66.93,53.57,63.77,53.57,63.77Z"/><g class="cls-18"><path class="cls-15" d="M56.14,65.05c0-.1.77.17,1.88,0a11.16,11.16,0,0,0,3.85-1.3,2.38,2.38,0,0,0,1.23-1.32,1.14,1.14,0,0,0-.52-1.15,2.8,2.8,0,0,0-1-.46,2.54,2.54,0,0,0-.44-.08A4.89,4.89,0,0,0,60,60.73a5.66,5.66,0,0,0-1.27.2,5.57,5.57,0,0,0-.77.28,14,14,0,0,0-1.65,1c0-.65,0-1.36,0-2.11,0-.4,0-.83,0-1.26,0-.86.07-1.75.1-2.54a12.23,12.23,0,0,1,.28-2.84,12.1,12.1,0,0,1,.33,2.83c0,.8.1,1.69.15,2.56,0,.43,0,.86.06,1.27,0,.12,0,.17,0,.19l.16-.12a5.62,5.62,0,0,1,.91-.37A6.38,6.38,0,0,1,60,59.53a5.94,5.94,0,0,1,1.3,0,3.82,3.82,0,0,1,.6.13,4,4,0,0,1,1.45.75,2.53,2.53,0,0,1,.72.94,2.07,2.07,0,0,1,.09,1.37,3.22,3.22,0,0,1-1.83,1.84,10.43,10.43,0,0,1-4.25,1A2.88,2.88,0,0,1,56.14,65.05Z"/></g><path class="cls-20" d="M60.19,61.55c.11.29-.29.72-.9,1s-1.2.21-1.32-.08.29-.72.9-1S60.07,61.26,60.19,61.55Z"/><path class="cls-16" d="M46.71,64.27c0,2.83-3.57,5.16-8.05,5.21s-8.14-2.2-8.17-5,3.58-5.16,8.06-5.21S46.68,61.44,46.71,64.27Z"/><path class="cls-16" d="M84.28,60.54c.54,2.78-2.54,5.71-6.89,6.55s-8.3-.72-8.84-3.5S71.1,57.88,75.44,57,83.75,57.76,84.28,60.54Z"/><path class="cls-16" d="M67.3,68.41h-.63l-.45,0h0c-1.47.15-3.95.7-4.91,2.67,0,0-.48-1.9-8.3-.74-.45.06-.91.14-1.41.22-.23,0-.44.08-.65.1a9.36,9.36,0,0,1-1.64,0A7.53,7.53,0,0,1,48,70.58,8.61,8.61,0,0,0,45.15,70l.1.06c.09.33,2.94,10.46,10.41,12.08a8,8,0,0,0,5.23-.27,4.47,4.47,0,0,0,1.16-.83,4.19,4.19,0,0,0,1-1.56,2.81,2.81,0,0,0-.1-2.45c-.65-.67-.39-3.31-.21-4.66a9.74,9.74,0,0,0,2.87-1.58,5.58,5.58,0,0,0,1.8-2.39Z"/><path class="cls-13" d="M45,69.25s2.91,10.46,10.75,12.1,8.39-4.19,7.48-5.1-.09-5.47-.09-5.47S52.33,73,45,69.25Z"/><path class="cls-14" d="M63.12,70.78s-.89.18-2.34.36c-.55,1.82.12,4.86.72,4.62.8-.34,2.34.26,1.54,2.68s-6.23,4.08-10,1.27-1.41-3.89-1.41-3.89a55.36,55.36,0,0,0-3.89-5.45A17.19,17.19,0,0,1,45,69.25s2.91,10.46,10.75,12.1,8.39-4.19,7.48-5.1S63.12,70.78,63.12,70.78Z"/><path class="cls-2" d="M62.38,70.78s-.62.18-1.65.38l-.64.12-.08,0c-.42.07-.88.14-1.37.2a24.66,24.66,0,0,1-6.48,0h-.07l-.49-.08-.82-.14-.36-.08c-.33-.07-.67-.16-1-.25s-.82-.25-1.22-.4l-.14,0a16.52,16.52,0,0,1-1.72-.78c1.59,3.19,4.37,7.11,8.64,8,1.87.41,4.09.55,5.75-.63s1.27-2.86,1.42-4.5C62.2,72,62.27,71.4,62.38,70.78Z"/><path class="cls-6" d="M60.3,74.46a4.66,4.66,0,0,0,1.64-3.67c-.5.15-1,.26-1.54.37s-.89.17-1.42.25a23.16,23.16,0,0,1-8.3-.1l-.35-.08-1-.25c-.3-.09-.59-.19-.88-.3a11,11,0,0,0,6.23,4.41C56.51,75.5,58.69,75.65,60.3,74.46Z"/><path class="cls-7" d="M57.21,75.38c-4.92-1.29-8.67-4.27-5.34-3.09a20.31,20.31,0,0,0,9.67.5,7.25,7.25,0,0,0,.4-2c-.5.15-1,.26-1.54.37s-.89.17-1.42.25a23.16,23.16,0,0,1-8.3-.1l-.35-.08-1-.25c-.3-.09-.59-.19-.88-.3a10.33,10.33,0,0,0,8.75,4.7Z"/><path class="cls-13" d="M44.88,69.21S52.57,73.3,60,72.28c6.66-.91,7.8-4.67,7.8-4.67s-4.81-.16-6.26,2.73c0,0-.53-2.14-10-.52C47.8,70.46,46.68,69,44.88,69.21Z"/><path class="cls-14" d="M44.88,69.21S52.57,73.3,60,72.28c6.66-.91,7.8-4.67,7.8-4.67s-4.81-.16-6.26,2.73c0,0-.53-2.14-10-.52C47.8,70.46,46.68,69,44.88,69.21Z"/><path class="cls-14" d="M66.63,67.66c-.4,1.51-3.46,4.44-8.84,3.7-3.39-.46-4.45-1.2-4.7-1.78-.49.07-1,.14-1.55.24-3.74.64-4.86-.8-6.66-.61,0,0,7.69,4.09,15.14,3.07,6.66-.91,7.8-4.67,7.8-4.67A9.42,9.42,0,0,0,66.63,67.66Z"/><path class="cls-24" d="M57.46,79.69c-.07.41-.72.64-1.46.53s-1.28-.54-1.22-1,.72-.64,1.46-.53S57.52,79.28,57.46,79.69Z"/><path class="cls-2" d="M40.51,42.52c0,.17-.78.23-1.43.51a5.49,5.49,0,0,0-1.2.68,5.36,5.36,0,0,0-1.16.75c-.55.44-.95,1.08-1.12,1s0-.88.44-1.61a4.94,4.94,0,0,1,1.19-1.24,5,5,0,0,1,1.65-.48C39.74,42.07,40.55,42.35,40.51,42.52Z"/><path class="cls-2" d="M75.57,42.35c-.16.08-.67-.52-1.32-.9a5.29,5.29,0,0,0-1.31-.58,4.72,4.72,0,0,0-1.35-.45,2.88,2.88,0,0,0-1,0c-.27,0-.47.12-.53.05s0-.28.32-.49a2.45,2.45,0,0,1,1.18-.44,4.5,4.5,0,0,1,1.8.18,4.83,4.83,0,0,1,1.44,1.07C75.45,41.43,75.72,42.28,75.57,42.35Z"/><path class="cls-16" d="M83.08,41.07S78.55,8.28,48.66,8.5C18.94,8.71,13.1,31.62,13.6,45.73c-3.3.56-6,4.27-6.45,8.7,3.41-.92,7.21-4.87,8.28-6.06.5,3.34,2.4,14.79,3.83,23.31a25.12,25.12,0,0,0,6,7.32c.41-8.81,1.18-25.42,1.56-31.92a35.6,35.6,0,0,0,6.26-3.95c11.66-9,17-17.79,17-17.79s18.61,9.41,29.86,7.57c0,0,4.16,10.4,4.23,14.6l.24-.27C83.73,43.61,83.08,41.07,83.08,41.07Z"/><path class="cls-2" d="M58.57.81c-13.55-3-20,3.44-20,3.44S23.34-1.51,12,10.22c0,0-10.43,3.47-11.86,28.83-1.31,23.29,12,9.48,14.22,7.08.82,5.52,5.48,33.19,5.48,33.19l4.12,3.14s1.29-28.59,1.82-37.62a35.6,35.6,0,0,0,6.26-4c11.65-9,17-17.79,17-17.79s18.61,9.4,29.85,7.56c0,0,4.17,10.41,4.24,14.61,0,0,3-3.75,6.72-1.51C89.77,43.76,93,8.53,58.57.81Z"/><path class="cls-3" d="M40.16,33.1l-.57.43h0c-1.42,1-3.06,2.18-4.77,3.29h0c-5.66,3.67-12,7.07-13.39,6.12-2.15-1.5.94-7.19,1.09-7.47a64.54,64.54,0,0,1-7.13,6.68c-.58.46-1.18.9-1.77,1.29-2.72,1.85-5.4,2.9-6.92,1.47-1.24-1.17-1.4-3.38-1-5.86a34.54,34.54,0,0,1,1.8-6.64s0,0,0,0a.36.36,0,0,1,0-.09h0l0,0c.57-1.62,1.17-3,1.61-4a46.86,46.86,0,0,1-2.54,4.64.08.08,0,0,0,0,0c-1.37,2.14-2.92,3.92-4.08,3.44s-1.17-4.95-.74-9.48C1.48,28,1.23,29.23,1,30.52c0,.14,0,.28-.07.42-.08.48-.15,1-.22,1.48a.09.09,0,0,1,0,0L.53,34c-.05.42-.1.85-.14,1.29,0,.23,0,.46-.07.7,0,.43-.08.87-.11,1.32S.12,38.44.09,39C0,40.41,0,41.66,0,42.78c0,.22,0,.43,0,.64s0,.52,0,.76c0,.45.07.88.11,1.29s.06.52.09.77l.09.57c0,.29.1.56.15.83s.09.38.14.56a1.09,1.09,0,0,0,.05.17l.12.41c0,.13.08.26.13.38a3,3,0,0,0,.14.36,5.94,5.94,0,0,0,.55,1.07,1.85,1.85,0,0,0,.19.27.61.61,0,0,0,.07.1,3.13,3.13,0,0,0,.38.42,2.19,2.19,0,0,0,.23.21,2.07,2.07,0,0,0,.25.19l.2.14.23.11.37.16h0A2.75,2.75,0,0,0,4,52.3a3.64,3.64,0,0,0,.74.07h.41l.14,0,.33,0,.34-.07a2.59,2.59,0,0,0,.37-.11L6.63,52,7,51.83h0c.16-.08.34-.15.51-.24l.23-.11h0l.26-.13.6-.35.05,0A1.64,1.64,0,0,1,9,50.81L9,50.75l.36-.24c.24-.16.47-.33.7-.5.46-.34.91-.71,1.33-1.07.25-.21.48-.42.71-.63s.52-.48.75-.71l.1-.09c.59-.58,1-1.07,1.33-1.38,0,.27.09.6.15,1,0,.21.07.43.1.67a1.55,1.55,0,0,0,0,.21c0,.2.06.41.1.63s0,.3.07.46c.07.45.15.92.23,1.43l0,.18.06.34h0l0,.21.06.34h0l.09.56c.08.48.16,1,.24,1.49q.08.45.15.93c.09.54.19,1.09.27,1.65a.07.07,0,0,1,0,.05c.08.45.15.91.23,1.37,0,.28.09.56.14.84a.09.09,0,0,0,0,.05c.06.41.13.82.2,1.23l.12.72.24,1.44.36,2.15c0-.41,0-.84,0-1.26v0c0-.91,0-1.84.07-2.72,0-.26,0-.52.05-.77v0c.05-.75.11-1.45.21-2.09h0a4.75,4.75,0,0,1,1-2.76c1.09-.85,1.65,1.38,1.92,3.55a.07.07,0,0,1,0,.05c.22,1.74.27,3.44.27,3.44A45.87,45.87,0,0,1,21,56.6a.09.09,0,0,1,0-.05c.28-2.28.83-4.47,1.9-4.36.5.05.87,1,1.13,2.37v0c.12.63.22,1.32.3,2.1h0c.26,2.54.34,5.68.36,8.2l.09-1.83c0-.36,0-.72.05-1.08s0-.71.05-1.07c.05-1.1.11-2.19.16-3.27,0-.29,0-.59,0-.88l.06-1.18c0-.28,0-.55,0-.83.05-.83.08-1.64.12-2.42a.66.66,0,0,0,0-.14L25.4,51c0-.69.07-1.36.1-2s.05-1,.08-1.48c0-.28,0-.55,0-.82,0-.43.05-.83.07-1.21s0-.48,0-.7A35,35,0,0,0,32,40.88L33.06,40c.36-.28.7-.56,1-.84S35,38.43,35.47,38s.8-.68,1.18-1l.34-.31,1-.93,1.17-1.11c.42-.4.82-.8,1.21-1.19l.16-.16,1.09-1.12c.13-.15.27-.29.41-.44l.56-.61C42,31.72,41.12,32.38,40.16,33.1Z"/><path class="cls-3" d="M53.83,22.2c2.93-1.47,6.74.15,6.74.15S48.26,13.7,50.75,10.91s8.06-5.13,8.06-5.13S51.92,5.63,48.4,8c0,0-5.45-.21-.82-3.11,0,0-4.38-.85-4.82-3.18a14.37,14.37,0,0,0-4.2,2.56,27.9,27.9,0,0,0-16.41-.32c2-.15,4.1,0,5.14,1.12,2.2,2.34-4.1,8.88-4.1,8.88s8.06-3.9,9.67-3.17-8.21,8.65-8.21,8.65,11.29-5.27,11.73-3.81-4,5.87-4,5.87,13-8.51,11.29,1.9a28.86,28.86,0,0,1-4.53,11.3A64.92,64.92,0,0,0,49,23.1a98,98,0,0,0,13,5.25C57.8,26.33,51.89,23.17,53.83,22.2Z"/><g class="cls-4"><path class="cls-2" d="M25.87,43.6a2.86,2.86,0,0,1,.56-.46c.36-.28.89-.66,1.52-1.13,1.26-.93,2.95-2.15,4.6-3.42S35.83,36,37,35,39,33.27,39,33.27a52.19,52.19,0,0,0,5.74-6A45.29,45.29,0,0,0,48,22.61l1-1.62a3.09,3.09,0,0,1,.39-.61,3.25,3.25,0,0,1-.27.67c-.2.41-.49,1-.87,1.68A39.86,39.86,0,0,1,45,27.56a50.84,50.84,0,0,1-5.67,6.17s-.78.71-2,1.71S34.51,37.73,32.82,39s-3.43,2.4-4.73,3.26l-1.59,1A4.81,4.81,0,0,1,25.87,43.6Z"/></g><g class="cls-4"><path class="cls-2" d="M25.46,44.46a6.24,6.24,0,0,1-1.88,1.46,11.8,11.8,0,0,1-2.21.93,11.82,11.82,0,0,1-2.38.3,6.28,6.28,0,0,1-2.36-.32c0-.09,1.19,0,2.33-.12a13.41,13.41,0,0,0,2.25-.46,13.59,13.59,0,0,0,2.17-.73C24.44,45.06,25.4,44.39,25.46,44.46Z"/></g><g class="cls-4"><path class="cls-2" d="M38.64,16.75c-.07-.05.25-.66.72-1.18a6.56,6.56,0,0,1,1-.92,6.51,6.51,0,0,1,1.28-.54A2.63,2.63,0,0,1,43.05,14c0,.09-.63.27-1.21.56a8.37,8.37,0,0,0-1.11.65,8.58,8.58,0,0,0-1.07.72C39.15,16.3,38.71,16.8,38.64,16.75Z"/></g><g class="cls-4"><path class="cls-2" d="M19.49,27.27a2.7,2.7,0,0,1,.18-.61c.14-.37.36-.9.66-1.52A20,20,0,0,1,23.18,21a25.87,25.87,0,0,1,3.71-3.44c1.11-.83,1.89-1.32,1.89-1.32s.77-.5,2-1.15a50.08,50.08,0,0,1,4.56-2.15,18.92,18.92,0,0,1,4.8-1.54,4.21,4.21,0,0,1,1.67.17,1.51,1.51,0,0,1,.56.3,4.4,4.4,0,0,0-2.2-.22,19.61,19.61,0,0,0-4.65,1.7c-1.66.75-3.28,1.57-4.46,2.25s-1.93,1.17-1.93,1.17-.77.47-1.87,1.26a25.42,25.42,0,0,0-3.73,3.26,21.45,21.45,0,0,0-3,4C19.88,26.44,19.54,27.29,19.49,27.27Z"/></g><g class="cls-4"><path class="cls-2" d="M3.68,54.52a15.29,15.29,0,0,1,1.44-1.16c.88-.68,2-1.61,3.15-2.57,2.25-1.92,4.3-4,4.3-4s2.11-2.06,4-4.31c.95-1.13,1.88-2.28,2.56-3.16a11.38,11.38,0,0,1,1.16-1.44,11.05,11.05,0,0,1-1,1.58c-.61.93-1.49,2.13-2.41,3.3C15.1,45.06,13,47.19,13,47.19s-2.12,2.09-4.45,3.94c-1.17.92-2.37,1.81-3.29,2.43A9.23,9.23,0,0,1,3.68,54.52Z"/></g><g class="cls-4"><path class="cls-2" d="M8.79,45.9A16.32,16.32,0,0,1,7.31,48l-1.5,2S5,51,4.22,52a15.28,15.28,0,0,1-1.64,1.94,12.21,12.21,0,0,1,1.28-2.2c.7-1.07,1.45-2.1,1.45-2.1s.81-1,1.66-1.93A10.86,10.86,0,0,1,8.79,45.9Z"/></g><g class="cls-4"><path class="cls-2" d="M18.57,17.49a4.38,4.38,0,0,1-.53.62l-1.45,1.54c-1.2,1.27-2.79,3-4.25,4.79A35.82,35.82,0,0,0,8.75,29.7a24.37,24.37,0,0,0-1.26,2.59S7,33.34,6.43,35s-1.22,3.88-1.84,6.13L2.83,47.3c-.25.84-.46,1.54-.6,2a3.74,3.74,0,0,1-.27.76,3.75,3.75,0,0,1,.15-.79c.11-.5.28-1.21.49-2.06.42-1.7,1-4,1.56-6.23s1.16-4.53,1.73-6.21,1-2.75,1-2.75a26,26,0,0,1,1.34-2.63A34.37,34.37,0,0,1,12,24.16c1.51-1.8,3.17-3.46,4.42-4.68L18,18A4.38,4.38,0,0,1,18.57,17.49Z"/></g><g class="cls-4"><path class="cls-2" d="M22.31,14.87a5.92,5.92,0,0,1,.88-.94c.56-.53,1.31-1.23,2.1-1.9s1.6-1.3,2.23-1.75,1.08-.73,1.08-.73a18.94,18.94,0,0,1,3.79-1.7,9.81,9.81,0,0,1,4.09-.54,10.84,10.84,0,0,1-1.27.22,15.25,15.25,0,0,0-2.68.74,19.29,19.29,0,0,0-3.61,1.82,36.71,36.71,0,0,0-3.36,2.29C23.94,13.62,22.37,14.94,22.31,14.87Z"/></g><g class="cls-4"><path class="cls-2" d="M8,20.4c.08.05-.73,1.53-1.41,3.07s-1.27,3.12-1.27,3.12-.64,1.55-1.17,3.15S3.2,33,3.11,33a15.91,15.91,0,0,1,.61-3.35c.42-1.65,1-3.26,1-3.26s.64-1.58,1.45-3.08A15.47,15.47,0,0,1,8,20.4Z"/></g><g class="cls-4"><path class="cls-2" d="M22.27,89c-.17,0,.94-21.7.94-21.7s1.4-21.67,1.57-21.66-.94,21.7-.94,21.7S22.44,89,22.27,89Z"/></g><g class="cls-4"><path class="cls-2" d="M19,82.63a4.21,4.21,0,0,1-.09-.77c0-.49-.08-1.19-.13-2-.1-1.68-.26-3.93-.43-6.17-.36-4.48-.89-8.94-.89-8.94S17,60.25,16.39,55.8c-.31-2.23-.64-4.45-.9-6.12-.13-.83-.24-1.53-.31-2a4,4,0,0,1-.08-.78,4.27,4.27,0,0,1,.2.75c.11.48.26,1.17.43,2,.33,1.65.73,3.87,1.1,6.09.72,4.45,1.24,8.92,1.24,8.92s.46,4.49.7,9c.12,2.25.21,4.5.23,6.19,0,.84,0,1.55,0,2A4.34,4.34,0,0,1,19,82.63Z"/></g><g class="cls-4"><path class="cls-2" d="M20.58,62.8c-.08,0-.07-1.78-.1-3.55l-.06-3.55s0-1.77,0-3.54a31.71,31.71,0,0,1,.05-3.56,22.08,22.08,0,0,1,.39,3.54C21,53.92,21,55.7,21,55.7s0,1.78-.11,3.56A20.92,20.92,0,0,1,20.58,62.8Z"/></g><g class="cls-4"><path class="cls-2" d="M51.15,3.56a15.55,15.55,0,0,1-1.82.59,15.8,15.8,0,0,0-1.75.72,17.42,17.42,0,0,0-1.7.81c-.83.45-1.61,1-1.66,1A4.89,4.89,0,0,1,45.64,5.3a13.32,13.32,0,0,1,1.69-1,13.51,13.51,0,0,1,1.88-.58A5.21,5.21,0,0,1,51.15,3.56Z"/></g><g class="cls-4"><path class="cls-2" d="M65.57,6.34A12.41,12.41,0,0,1,64,6.13a27.15,27.15,0,0,0-3.5-.22,25.51,25.51,0,0,0-3.47.3c-.94.16-1.56.3-1.56.3s-.62.13-1.54.37A24.94,24.94,0,0,0,50.62,8a25.41,25.41,0,0,0-3.09,1.64,12.42,12.42,0,0,1-1.37.85,6.92,6.92,0,0,1,1.23-1,20.78,20.78,0,0,1,3-1.84,24,24,0,0,1,3.32-1.31c.93-.28,1.57-.43,1.57-.43s.64-.13,1.6-.26a24.18,24.18,0,0,1,3.57-.17A21,21,0,0,1,64,5.89,6.66,6.66,0,0,1,65.57,6.34Z"/></g><g class="cls-4"><path class="cls-2" d="M86.36,27.2a4.42,4.42,0,0,1-.7.46,15.39,15.39,0,0,1-2,1,22.72,22.72,0,0,1-6.49,1.56,37,37,0,0,1-6.69,0c-1.82-.16-3-.36-3-.36s-1.2-.18-3-.54A47.63,47.63,0,0,1,58,27.59a23.6,23.6,0,0,1-5.89-3.15c-.74-.53-1.34-1-1.76-1.31a4.5,4.5,0,0,1-.64-.54,4,4,0,0,1,.71.44l1.83,1.21a24.86,24.86,0,0,0,5.89,2.93,48.51,48.51,0,0,0,6.43,1.54c1.78.33,3,.49,3,.49s1.18.22,3,.41a38.58,38.58,0,0,0,6.59.16,23.38,23.38,0,0,0,6.44-1.35C85.29,27.78,86.33,27.14,86.36,27.2Z"/></g><g class="cls-4"><path class="cls-2" d="M87.94,34.09a5.63,5.63,0,0,1-2.62.66,9.88,9.88,0,0,1-2.73-.3,9.48,9.48,0,0,1-2.44-1.24,5.52,5.52,0,0,1-1.84-2,21.4,21.4,0,0,0,2.08,1.61,11.44,11.44,0,0,0,4.93,1.46A21.66,21.66,0,0,0,87.94,34.09Z"/></g><g class="cls-4"><path class="cls-2" d="M85.55,42.75a7.84,7.84,0,0,1-.73-1.5c-.36-.76-.77-1.47-.77-1.47s-.34-.74-.75-1.46a9.27,9.27,0,0,1-.82-1.47c.07-.06.67.54,1.19,1.22a13.78,13.78,0,0,1,.94,1.43,15.34,15.34,0,0,1,.62,1.58A4.56,4.56,0,0,1,85.55,42.75Z"/></g><g class="cls-4"><path class="cls-2" d="M69.27,10.88c0,.09-1.5-.22-3-.22a17.13,17.13,0,0,0-3,.27,16.94,16.94,0,0,0-2.88.67c-1.42.46-2.72,1.22-2.77,1.14a8.67,8.67,0,0,1,2.61-1.56,15.67,15.67,0,0,1,2.94-.87,15.41,15.41,0,0,1,3.06-.09A8.56,8.56,0,0,1,69.27,10.88Z"/></g><g class="cls-4"><path class="cls-2" d="M74.41,25.22a2,2,0,0,1-.55,0c-.36,0-.86,0-1.47,0a35.36,35.36,0,0,1-4.42-.5,42.16,42.16,0,0,1-6.29-1.62l-.52-.2c-.33-.13-.81-.31-1.36-.56a36.65,36.65,0,0,1-4-2,32.51,32.51,0,0,1-3.74-2.43,3.22,3.22,0,0,1-1.23-1.61,5.68,5.68,0,0,0,1.38,1.42A39.7,39.7,0,0,0,56,20a41.26,41.26,0,0,0,4,1.84c.55.23,1,.39,1.36.51l.51.19a44.58,44.58,0,0,0,6.16,1.77,43.54,43.54,0,0,0,4.36.7A15.29,15.29,0,0,1,74.41,25.22Z"/></g><g class="cls-4"><path class="cls-2" d="M85.71,22.35c-.06.07-1.28-.72-2.59-1.34a26.29,26.29,0,0,0-2.66-1.09A28,28,0,0,0,77.72,19c-1.39-.38-2.83-.58-2.83-.67a10.33,10.33,0,0,1,2.93.24,22.58,22.58,0,0,1,2.86.76,21,21,0,0,1,2.65,1.29A10.74,10.74,0,0,1,85.71,22.35Z"/></g><path class="cls-3" d="M85.07,38.38c-1.21-2.27,3.47-3.6,3.47-3.6a12.42,12.42,0,0,1-4.68-1.47c-3.07-1.47,2-5.07,2.27-5.47L78.66,30s-.13.28-.34.76l.49-.07S83,41.07,83.05,45.27c0,0,3-3.75,6.72-1.51a37.42,37.42,0,0,0,0-4.86C88,39.71,85.8,39.77,85.07,38.38Z"/><g class="cls-5"><path class="cls-2" d="M24.71,40.52c3.15.82,6.75-2.37,9-4.21,2.78-2.23,5.64-4.51,5.86-8.31a1,1,0,0,0-1.3-1c-3.36.61-5.42,3.2-7.89,5.31-2.09,1.79-6,3.81-6.64,6.59a1.33,1.33,0,0,0,.92,1.61Z"/></g><g class="cls-5"><path class="cls-2" d="M25.06,33.62a3.94,3.94,0,0,0,2.06-.87,6.24,6.24,0,0,0,1.71-1.61c.25-.33-.17-.81-.53-.69a6.13,6.13,0,0,0-2.09,1.12,3.76,3.76,0,0,0-1.46,1.63.33.33,0,0,0,.31.42Z"/></g><g class="cls-5"><path class="cls-2" d="M13.67,41.51c2.48-3.54,5.07-7,7.76-10.43,2.26-2.84,4.93-5.29,7.12-8.16.51-.68-.34-1.57-1.06-1.38-4,1.07-6.62,4.64-9,7.77a36.31,36.31,0,0,0-6.33,11.55c-.3,1,1,1.4,1.54.65Z"/></g><g class="cls-5"><path class="cls-2" d="M10.52,34.86c.72-.39.84-1.59,1.17-2.29.41-.9,1-1.7,1.29-2.63.16-.46-.47-.77-.79-.46a7.63,7.63,0,0,0-1.53,2.65c-.31.75-1,1.86-.53,2.63a.3.3,0,0,0,.39.1Z"/></g><g class="cls-5"><path class="cls-2" d="M15.24,26.08c2.21-.92,4-3.53,5.65-5.24S25.06,17.3,26,15c.1-.25-.19-.46-.41-.41-2.44.59-4.52,3.07-6.19,4.81S15.36,23.51,15,25.84c0,.13.08.3.23.24Z"/></g><g class="cls-5"><path class="cls-2" d="M6,28.77C8.56,25.47,10.83,22,13.67,19c2.65-2.87,6.57-4.89,8.53-8.28.45-.79-.11-2.1-1.14-2-4.41.52-7.62,4.45-10.22,7.76a25.42,25.42,0,0,0-5.47,12,.38.38,0,0,0,.64.27Z"/></g><g class="cls-5"><path class="cls-2" d="M7.55,17.11l1.32-1.57c.15-.18-.1-.44-.27-.26l-1.38,1.5c-.2.22.14.56.33.33Z"/></g><g class="cls-5"><path class="cls-2" d="M22.12,61c-1.3,4.53-1.18,8.88-.8,13.54,0,.49.83.69.92.13.7-4.66,1.14-9,.15-13.67a.14.14,0,0,0-.27,0Z"/></g><g class="cls-5"><path class="cls-2" d="M58.22,23.38c1.67,2.93,5,3.74,8.1,4.33,4.49.86,9.27,1.37,13.7.08A.9.9,0,0,0,79.78,26c-7.42-.45-14.45.64-21.37-2.85-.13-.06-.27.06-.19.19Z"/></g><g class="cls-5"><path class="cls-2" d="M53.22,11a27.43,27.43,0,0,0,5-1.59c.29-.14.08-.58-.22-.51a27,27,0,0,0-4.86,1.93c-.1,0,0,.19.08.17Z"/></g><g class="cls-5"><path class="cls-2" d="M61.15,8.37A44.45,44.45,0,0,0,66.7,9c1.6.21,3.43.71,5,.26a.39.39,0,0,0,.09-.69c-1.4-1.05-3.71-1.06-5.39-1a13.93,13.93,0,0,0-5.26.74,0,0,0,0,0,0,.09Z"/></g><g class="cls-5"><path class="cls-2" d="M58.92,17.33c2.2,2.37,6.17,3.3,9.19,4.22,3.34,1,6.75,1.84,10.22,1.29a1.19,1.19,0,0,0,.28-2.15c-3-1.53-6.27-2-9.51-2.73-3.07-.7-6.5-2.23-9.65-1.91a.76.76,0,0,0-.53,1.28Z"/></g><g class="cls-5"><path class="cls-2" d="M70.57,14.82c.6.7,1.65.69,2.5.84a8,8,0,0,0,2.81,0,.33.33,0,0,0,.08-.6,8,8,0,0,0-2.71-.72c-.87-.08-1.87-.37-2.64.15a.19.19,0,0,0,0,.29Z"/></g><g class="cls-5"><path class="cls-2" d="M51.75,4.83a6.81,6.81,0,0,0,2.85-.56c1.14-.28,2.19-.73,3.32-1.09.19-.07.24-.42,0-.45a8.75,8.75,0,0,0-3.53,0c-1,.27-2.29.47-3,1.38a.52.52,0,0,0,.31.75Z"/></g></g></g></g></svg>