<svg xmlns="http://www.w3.org/2000/svg" viewBox="0 0 47.67 81.81"><defs><style>.cls-1{isolation:isolate;}.cls-2,.cls-21,.cls-22,.cls-23,.cls-3{fill:#6f3a1e;}.cls-3{opacity:0.3;}.cls-12,.cls-14,.cls-16,.cls-18,.cls-20,.cls-21,.cls-22,.cls-27,.cls-28,.cls-29,.cls-3,.cls-31,.cls-32,.cls-7,.cls-8{mix-blend-mode:multiply;}.cls-14,.cls-17,.cls-21,.cls-30,.cls-33,.cls-4,.cls-7,.cls-8{opacity:0.5;}.cls-17,.cls-19,.cls-23,.cls-24,.cls-26,.cls-30,.cls-33,.cls-4,.cls-5{mix-blend-mode:screen;}.cls-16,.cls-28,.cls-29,.cls-5{opacity:0.45;}.cls-6{fill:#fff;}.cls-32,.cls-7,.cls-9{fill:#d3dbfd;}.cls-10,.cls-33{fill:#294168;}.cls-11,.cls-12{fill:#88ac76;}.cls-12{opacity:0.35;}.cls-13,.cls-14,.cls-17,.cls-24{fill:#f15e6b;}.cls-15,.cls-16,.cls-18,.cls-19{fill:#e5b678;}.cls-22{opacity:0.25;}.cls-25,.cls-26,.cls-28,.cls-30{fill:#3f4349;}.cls-27{fill:#89c5c2;}.cls-31{opacity:0.34;}</style></defs><title>regular_folderРесурс 9</title><g class="cls-1"><g id="Слой_2" data-name="Слой 2"><g id="OBJECTS"><path class="cls-2" d="M3.37,21.25s1,24.54,6,31.44,22.78,9,31.16.59,6.61-33.65,6.17-34.53S15.13,7.73,3.37,21.25Z"/><path class="cls-3" d="M12.73,37.2c-.22-2.4-.53-8.73-1.09-10.36a18.31,18.31,0,0,0-2-3.94s-3.86-.59-6.22-1c.07,1.41.29,5.12.77,9.56.12-.23.27-.38.45-.36.85.08,2.7,6.17,2.7,6.17s-.69-5.47.31-5.47S9.25,34,9.25,34s.47-1.62,1.62-.77C11.66,33.8,12.41,36,12.73,37.2Z"/><path class="cls-3" d="M12.73,37.2a3.67,3.67,0,0,0,.14.94C12.94,38.18,12.88,37.79,12.73,37.2Z"/><path class="cls-3" d="M45.12,37c-.08.4-.12.65-.12.65S45.06,37.34,45.12,37Z"/><path class="cls-3" d="M46.72,18.75a.85.85,0,0,0-.31-.21c-.77.77-1.65,1.1-2.06.33a1.23,1.23,0,0,1,0-1.13,62.45,62.45,0,0,0-6.07-1.66L15,36.54s.12,7.39-.9,8.6-4-5.17-4-5.17,3.13,9,2.1,10-3.36-2.16-3.36-2.16,1.38,3.37.6,3.49c-.39.06-1.58-2.3-2.66-4.65a19.93,19.93,0,0,0,2.56,6,11,11,0,0,0,3,2.71,15.24,15.24,0,0,0,1.88.13c2.37,0,17.27-.76,24.57-.76a16.31,16.31,0,0,0,1.74-1.49,18,18,0,0,0,3.94-6.86c-3.8,4.74-5.2,3.56-5.55,2.08s2.22-5.65,2.22-5.65-3,3-3.54,1.8,6.37-9.79,7.21-10c.59-.13.43,1.38.29,2.28.26-1.4.92-4.6,1.39-4.51.15,0,.26.84.32,2C47.55,26.48,47,19.22,46.72,18.75Z"/><g class="cls-4"><path class="cls-2" d="M9.66,45.16a2.87,2.87,0,0,1-.17-.38c-.1-.24-.25-.59-.41-1-.33-.84-.73-2-1.1-3.13C7.25,38.34,6.72,36,6.72,36s-.51-2.36-.8-4.75c-.15-1.2-.27-2.4-.32-3.3,0-.45,0-.83-.06-1.09a2.76,2.76,0,0,1,0-.42,2.5,2.5,0,0,1,.06.41c0,.26.06.64.1,1.09.1.89.24,2.09.42,3.28.35,2.38.89,4.72.89,4.72s.49,2.35,1.17,4.66c.34,1.15.7,2.3,1,3.15.15.42.27.78.35,1A1.71,1.71,0,0,1,9.66,45.16Z"/></g><g class="cls-4"><path class="cls-2" d="M13.81,47.89l-.16-.22c-.09-.14-.23-.34-.38-.59-.31-.5-.7-1.17-1.07-1.86-.73-1.38-1.31-2.84-1.31-2.84a28.28,28.28,0,0,1-.91-3c-.17-.76-.3-1.53-.37-2.11,0-.29,0-.54-.07-.71a1,1,0,0,1,0-.27,9.7,9.7,0,0,1,.18,1c.11.57.27,1.33.47,2.08a29,29,0,0,0,1,2.94s.54,1.45,1.22,2.85c.34.7.7,1.39,1,1.9A6,6,0,0,1,13.81,47.89Z"/></g><g class="cls-4"><path class="cls-2" d="M19.35,45.5a9.38,9.38,0,0,1-.09-1.18c0-.59-.1-1.18-.1-1.18s0-.58-.09-1.17A8.71,8.71,0,0,1,19,40.79a4.71,4.71,0,0,1,.32,1.15c.12.59.18,1.18.18,1.18s0,.6,0,1.19A4.86,4.86,0,0,1,19.35,45.5Z"/></g><g class="cls-4"><path class="cls-2" d="M41.08,46.05a1.2,1.2,0,0,1,.15-.31c.1-.2.27-.46.44-.8.37-.66.82-1.55,1.24-2.46s.79-1.85,1-2.56.4-1.19.4-1.19.17-.47.38-1.19.47-1.69.68-2.67.37-2,.47-2.73c.06-.37.08-.68.12-.9a1.09,1.09,0,0,1,.06-.34,1.48,1.48,0,0,1,0,.34c0,.22,0,.54-.06.92-.06.75-.2,1.75-.38,2.75s-.42,2-.62,2.7-.36,1.22-.36,1.22-.16.48-.43,1.19-.67,1.64-1.1,2.55-.94,1.79-1.33,2.43c-.2.33-.38.59-.5.77A1.46,1.46,0,0,1,41.08,46.05Z"/></g><g class="cls-4"><path class="cls-2" d="M39,45.39s.57-.5,1-1.09A7.47,7.47,0,0,0,40.84,43a7.64,7.64,0,0,0,.57-1.37c.21-.72.26-1.47.3-1.47a4.19,4.19,0,0,1-.1,1.52,7.22,7.22,0,0,1-.5,1.46,6.65,6.65,0,0,1-.9,1.25A4,4,0,0,1,39,45.39Z"/></g><g class="cls-4"><path class="cls-2" d="M38,42.79a1.65,1.65,0,0,1-.25.55c-.16.25-.35.49-.35.49s-.21.21-.44.4-.48.35-.51.32.18-.25.36-.47l.37-.45.4-.42C37.73,43,37.92,42.77,38,42.79Z"/></g><g class="cls-4"><path class="cls-2" d="M44,45.6a6.23,6.23,0,0,1-.28,1.72,8.14,8.14,0,0,1-.42,1.14c-.14.3-.25.49-.25.49s-.11.19-.3.46a9.16,9.16,0,0,1-.77.93,8.76,8.76,0,0,1-1.27,1.19s.56-.66,1.11-1.33c.27-.33.52-.68.7-1s.27-.45.27-.45.11-.18.26-.47a8,8,0,0,0,.46-1.07C43.79,46.45,43.94,45.59,44,45.6Z"/></g><g class="cls-5"><path class="cls-2" d="M5.12,35.92c.3,3.38.71,7.79,2.88,10.53a.3.3,0,0,0,.5-.21,29.1,29.1,0,0,0-1.27-4.87c-.46-1.85-.94-3.68-1.27-5.56a.43.43,0,0,0-.84.11Z"/></g><g class="cls-5"><path class="cls-2" d="M7.8,34.83A1.34,1.34,0,0,0,7.61,36a3,3,0,0,0,.51,1.33c.22.25.59,0,.62-.26a4.22,4.22,0,0,0-.29-1.3,1.42,1.42,0,0,0-.59-1Z"/></g><g class="cls-5"><path class="cls-2" d="M9.21,39.23A8,8,0,0,0,9.81,42c0,.09.19,0,.17-.07-.2-.93-.51-1.82-.73-2.75,0,0-.05,0,0,0Z"/></g><g class="cls-5"><path class="cls-2" d="M10.61,34.29a4,4,0,0,0,.13,2.26,11.82,11.82,0,0,0,.84,2.85c.05.13.25.06.25-.07a11.36,11.36,0,0,0-.3-2.79c-.18-.75-.19-1.73-.78-2.27a.1.1,0,0,0-.14,0Z"/></g><g class="cls-5"><path class="cls-2" d="M44.18,36.92a1.89,1.89,0,0,0-.6.85,2.62,2.62,0,0,0-.2,1.14.25.25,0,0,0,.47.12,4.89,4.89,0,0,0,.38-1,2.83,2.83,0,0,0,.13-.5,3.32,3.32,0,0,0,0-.54.09.09,0,0,0-.15-.06Z"/></g><g class="cls-5"><path class="cls-2" d="M45.69,37.28c-1.64,3.2-3.2,6.56-4.6,9.86-.15.35.26.77.57.44a16,16,0,0,0,4.16-10.27.07.07,0,0,0-.13,0Z"/></g><g class="cls-4"><path class="cls-2" d="M10.22,50.53a11.8,11.8,0,0,1-.88-1.44,10.76,10.76,0,0,1-.61-1.58A11.8,11.8,0,0,1,9.61,49,10.76,10.76,0,0,1,10.22,50.53Z"/></g><path class="cls-6" d="M45,81.59H36.75l-.34-1.26c0-.11-.06-.21-.09-.31s-.12-.46-.18-.68-.12-.45-.18-.66h0a25.2,25.2,0,0,1-.54-2.47c-.08-.64-.32-2.44-.6-4.87l-.06-.42h0c0-.25,0-.51-.08-.77h0c-.08-.63-.15-1.28-.22-2,0-.29-.07-.58-.09-.88-.08-.74-.16-1.5-.23-2.29-.06-.52-.1-1.06-.15-1.59l0-.34c-.07-.77-.13-1.54-.19-2.32h0c0-.22,0-.44-.05-.66h0c-.06-.87-.11-1.74-.16-2.6s-.08-1.76-.1-2.61c-.13-4.92.16-9,1.37-10.16a.38.38,0,0,1,.09-.09l0,0,0,0,0,0,.08,0,0,0,.11.06.06,0,.14.08.06,0,.11.06.07.05,0,0,.31.2.34.24c.24.17.49.37.75.58l0,0,.09.08.19.16.06.06.27.24.07.08.27.26.07.08a3.45,3.45,0,0,1,.26.28l.07.07.26.31.15.19.14.19c.11.15.22.31.32.47a1.8,1.8,0,0,1,.11.2s0,.07,0,.11a1.19,1.19,0,0,1,.08.2c.06.17.12.37.18.59h0l0,.14c0,.16.09.34.12.52l.09.38c.15.73.3,1.6.44,2.58h0c0,.15,0,.31.07.48s0,.32.07.49c.14,1,.28,2.08.41,3.21v0c0,.31.07.63.11,1l.09.83s0,0,0,.08c.08.77.16,1.57.25,2.36v0c.11,1.07.21,2.14.31,3.2h0c0,.32.06.64.1,1s.05.56.08.84l0,.34c0,.39.08.77.11,1.14l0,.28c0,.47.08.92.13,1.37s.06.7.1,1c0,.17,0,.34,0,.5,0,.36.07.71.1,1l0,.25a1.5,1.5,0,0,1,0,.22.34.34,0,0,1,0,.1c0,.13,0,.25,0,.37s0,.07,0,.1,0,.23,0,.34,0,.07,0,.11,0,.07,0,.11l0,.22a.25.25,0,0,0,0,.08c0,.12,0,.23,0,.34v0c0,.23.06.45.09.65v0s0,.06,0,.09a.06.06,0,0,0,0,0,.78.78,0,0,0,0,.16s0,.07,0,.1L43,76s0,.06,0,.09,0,0,0,.08,0,0,0,.06,0,.06,0,.08,0,0,0,0a.17.17,0,0,1,0,.07s0,0,0,.07h0a.15.15,0,0,0,0,.07.11.11,0,0,1,0,0,.83.83,0,0,0,0,.12l0,.12a.17.17,0,0,0,0,0,.76.76,0,0,0,0,.11s0,0,0,0a0,0,0,0,0,0,0s0,.08,0,.13l0,.07.06.16,0,.08.09.23s0,0,0,0l.12.31s0,0,0,0l.12.29a.49.49,0,0,0,0,.11l.1.27,0,.09c0,.11.08.22.13.34h0s0,0,0,0h0c0,.14.11.29.17.44s.15.4.24.62.08.22.13.33a.08.08,0,0,1,0,.05c.07.16.13.31.19.47,0,0,0,0,0,0Z"/><path class="cls-6" d="M45.07,81.81s0,0,0,0h0A.09.09,0,0,0,45.07,81.81Z"/><path class="cls-7" d="M45,81.59H36.75l-.34-1.26c0-.11-.06-.21-.09-.31s-.12-.46-.18-.68-.12-.45-.18-.66h0a25.2,25.2,0,0,1-.54-2.47c-.08-.64-.32-2.44-.6-4.87l-.06-.42h0c0-.25,0-.51-.08-.77h0c-.08-.63-.15-1.28-.22-2,0-.29-.07-.58-.09-.88-.08-.74-.16-1.5-.23-2.29-.06-.52-.1-1.06-.15-1.59l0-.34c-.07-.77-.13-1.54-.19-2.32h0c0-.22,0-.44-.05-.66h0c-.06-.87-.11-1.74-.16-2.6s-.08-1.76-.1-2.61c-.13-4.92.16-9,1.37-10.16a.38.38,0,0,1,.09-.09l0,0,0,0,0,0,.08,0,0,0,.11.06.06,0,.14.08.06,0,.11.06.07.05,0,0,.31.2.34.24c.24.17.49.37.75.58l0,0,.09.08.19.16.06.06.27.24.07.08.27.26.07.08a3.45,3.45,0,0,1,.26.28l.07.07.26.31.15.19.14.19c.11.15.22.31.32.47a1.8,1.8,0,0,1,.11.2s0,.07,0,.11a1.19,1.19,0,0,1,.08.2c.06.17.12.37.18.59h0l0,.14c0,.16.09.34.12.52l.09.38c.15.73.3,1.6.44,2.58h0c0,.15,0,.31.07.48s0,.32.07.49c.14,1,.28,2.08.41,3.21v0c0,.31.07.63.11,1l.09.83s0,0,0,.08c.08.77.16,1.57.25,2.36v0c.11,1.07.21,2.14.31,3.2h0c0,.32.06.64.1,1s.05.56.08.84l0,.34c0,.39.08.77.11,1.14l0,.28c0,.47.08.92.13,1.37s.06.7.1,1c0,.17,0,.34,0,.5,0,.36.07.71.1,1l0,.25a1.5,1.5,0,0,1,0,.22.34.34,0,0,1,0,.1c0,.13,0,.25,0,.37s0,.07,0,.1,0,.23,0,.34,0,.07,0,.11,0,.07,0,.11l0,.22a.25.25,0,0,0,0,.08c0,.12,0,.23,0,.34v0c0,.23.06.45.09.65v0s0,.06,0,.09a.06.06,0,0,0,0,0,.78.78,0,0,0,0,.16s0,.07,0,.1L43,76s0,.06,0,.09,0,0,0,.08,0,0,0,.06,0,.06,0,.08,0,0,0,0a.17.17,0,0,1,0,.07s0,0,0,.07h0a.15.15,0,0,0,0,.07.11.11,0,0,1,0,0,.83.83,0,0,0,0,.12l0,.12a.17.17,0,0,0,0,0,.76.76,0,0,0,0,.11s0,0,0,0a0,0,0,0,0,0,0s0,.08,0,.13l0,.07.06.16,0,.08.09.23s0,0,0,0l.12.31s0,0,0,0l.12.29a.49.49,0,0,0,0,.11l.1.27,0,.09c0,.11.08.22.13.34h0s0,0,0,0h0c0,.14.11.29.17.44s.15.4.24.62.08.22.13.33a.08.08,0,0,1,0,.05c.07.16.13.31.19.47,0,0,0,0,0,0Z"/><path class="cls-7" d="M45.07,81.81s0,0,0,0h0A.09.09,0,0,0,45.07,81.81Z"/><path class="cls-7" d="M45,81.59h-1.2l-.28-.18-.56-.3c-.7-.31-1.32-.38-1.73,0a.87.87,0,0,0-.23.49H36.75l-.34-1.26c0-.11-.06-.21-.09-.31s-.12-.46-.18-.68-.12-.45-.18-.66h0a25.2,25.2,0,0,1-.54-2.47c-.08-.64-.32-2.44-.6-4.87l-.06-.42h0c0-.25,0-.51-.08-.77h0c-.08-.63-.15-1.28-.22-2,0-.29-.07-.58-.09-.88-.08-.74-.16-1.5-.23-2.29-.06-.52-.1-1.06-.15-1.59l0-.34c-.07-.77-.13-1.54-.19-2.32h0c0-.22,0-.44-.05-.66h0c-.06-.87-.11-1.74-.16-2.6s-.08-1.76-.1-2.61c-.13-4.92.16-9,1.37-10.16a.38.38,0,0,1,.09-.09l0,0,0,0,0,0,.08,0,0,0,.11.06.06,0,.14.08.06,0,.11.06.07.05,0,0,.31.2.34.24c.24.17.49.37.75.58l0,0,.09.08.19.16.06.06.27.24.07.08.27.26.07.08a3.45,3.45,0,0,1,.26.28l.07.07.26.31.15.19.14.19c.11.15.22.31.32.47a1.8,1.8,0,0,1,.11.2s0,.07,0,.11a1.19,1.19,0,0,1,.08.2c.06.17.12.37.18.59,0,0,0,.09,0,.14s.09.34.12.52l.09.38c.15.73.3,1.6.44,2.58h0c0,.15,0,.31.07.48s0,.32.07.49c.14,1,.28,2.08.41,3.21v0c0,.31.07.63.11,1l.09.83s0,0,0,.08c.09.77.17,1.57.25,2.36v0c.11,1.06.21,2.13.32,3.18h0l.09,1c0,.28.05.56.08.84l0,.34c0,.39.08.77.11,1.14l0,.28c0,.47.09.93.13,1.37s.06.7.1,1c0,.17,0,.34,0,.5,0,.36.07.71.1,1,0,0,0,0,0,0a1.79,1.79,0,0,0,0,.23,1.5,1.5,0,0,1,0,.22.34.34,0,0,1,0,.1c0,.13,0,.25,0,.37s0,.07,0,.1,0,.23,0,.34,0,.07,0,.11,0,.07,0,.11l0,.22a.25.25,0,0,0,0,.08c0,.12,0,.23,0,.34v0c0,.23.06.45.09.65v0s0,.06,0,.09a.06.06,0,0,0,0,0,.78.78,0,0,0,0,.16s0,.07,0,.1L43,76s0,.06,0,.09,0,0,0,.08,0,0,0,.06,0,.06,0,.08,0,0,0,0a.17.17,0,0,1,0,.07s0,0,0,.07h0a.15.15,0,0,0,0,.07.11.11,0,0,1,0,0,.83.83,0,0,0,0,.12l0,.12a.17.17,0,0,0,0,0,.76.76,0,0,0,0,.11s0,0,0,0a0,0,0,0,0,0,0s0,.08,0,.13l0,.07.06.16,0,.08.09.23s0,0,0,0l.12.31s0,0,0,0l.12.29a.49.49,0,0,0,0,.11l.1.27,0,.09c0,.11.08.22.13.34h0s0,0,0,0h0c0,.14.11.29.17.44s.15.4.24.62.08.22.13.33a.08.08,0,0,1,0,.05c.07.16.13.31.19.47,0,0,0,0,0,0Z"/><g class="cls-8"><path class="cls-9" d="M43.26,77.77a3.94,3.94,0,0,1-.67-.82c-.29-.45-.54-.92-.54-.92s-.21-.49-.37-1a3.54,3.54,0,0,1-.22-1,8.34,8.34,0,0,1,.42,1c.2.48.44.94.44.94s.21.48.45.94A6.77,6.77,0,0,1,43.26,77.77Z"/></g><path class="cls-10" d="M35.75,81.76h0l-.22-.17H20.81c.22-.18.48-.37.76-.56s.39-.26.61-.39l.33-.2.35-.19.1-.06.13-.06.22-.11.42-.2.07,0,.52-.21.05,0,.42-.15h0l.35-.11a11.06,11.06,0,0,1,1.23-.3h.07c.28,0,.58-.08.87-.11a11.3,11.3,0,0,1,1.31,0l.34,0,.59.07a10.15,10.15,0,0,1,2.59.68l.2.09A12.05,12.05,0,0,1,34.63,81l.52.36c.13.08.25.18.38.27Z"/><path class="cls-11" d="M35.75,81.76h0l-.22-.17H20.81c.22-.18.48-.37.76-.56s.39-.26.61-.39l.33-.2.35-.19.1-.06.13-.06.22-.11.42-.2.07,0,.52-.21.05,0,.42-.15h0l.35-.11a11.06,11.06,0,0,1,1.23-.3h.07c.28,0,.58-.08.87-.11a11.3,11.3,0,0,1,1.31,0l.34,0,.59.07a10.15,10.15,0,0,1,2.59.68l.2.09A12.05,12.05,0,0,1,34.63,81l.52.36c.13.08.25.18.38.27Z"/><path class="cls-12" d="M28.57,81.12a.92.92,0,0,1-.48.47H20.81c.22-.18.48-.37.76-.56s.39-.26.61-.39l.33-.2.35-.19.11,0,.12-.07.22-.11.42-.2.07,0,.52-.21.05,0,.42-.15h0l.35-.11a11.06,11.06,0,0,1,1.23-.3h.07l1.35.85C28.25,80.14,28.76,80.62,28.57,81.12Z"/><path class="cls-12" d="M35.51,81.59H20.81c.22-.18.48-.37.76-.56s.39-.26.61-.39l.33-.2.35-.19.1-.06.13-.06.22-.11.42-.2.07,0,.52-.21.05,0,.42-.15h0l.35-.11a11.06,11.06,0,0,1,1.23-.3h.07c.28,0,.58-.08.87-.11a11.3,11.3,0,0,1,1.31,0l.34,0,.59.07a11.38,11.38,0,0,1,2.58.72l.2.08A13.83,13.83,0,0,1,34.63,81l.52.36Z"/><path class="cls-13" d="M41.82,65h0a10,10,0,0,1-1.13,2.24h0c-.08.13-.16.26-.25.39s0,0,0,0c-.22.33-.45.67-.7,1a6.62,6.62,0,0,0-.51.83,7.33,7.33,0,0,0-.34.69c0,.06,0,.13-.08.19l-.14.36-.18.53h0l-.06.2,0,.1c0,.1-.06.21-.09.31s-.09.35-.13.53v0l0,.14c0,.17-.08.33-.11.5-.15.78-.26,1.58-.39,2.36-.35,2.14-.83,4.24-.39,6.16h-1.7l.22.17h0l-.22-.17H20.35a12.27,12.27,0,0,0,.55-3.82,30.62,30.62,0,0,0-.4-4.4c0-.11,0-.22-.05-.33-.1-.68-.22-1.34-.34-2,0-.14-.05-.29-.08-.43a1.16,1.16,0,0,0,0-.18c0-.1,0-.2,0-.3-.1-.54-.21-1.08-.32-1.62s-.21-1.08-.31-1.62c0-.15-.07-.32-.1-.49a1.16,1.16,0,0,1,0-.18l-.09-.36c0-.08,0-.16,0-.23s-.06-.24-.1-.37L18.87,65c0-.13-.07-.26-.1-.39s-.05-.17-.07-.26l-.12-.42c0-.09,0-.17-.07-.25s-.1-.37-.16-.56l-.06-.21c-.06-.21-.13-.45-.2-.67,0-.06,0-.13-.05-.19S18,62,18,62l-.12-.4c0-.13-.08-.26-.11-.38v0l-.12-.36c0-.14-.08-.27-.13-.41s-.06-.22-.1-.33-.09-.31-.14-.46-.05-.16-.07-.23l0-.1-.33-1c-.09-.28-.18-.56-.26-.83L16.47,57h0c-.08-.23-.15-.46-.22-.68s-.17-.55-.26-.82-.13-.44-.19-.65a37,37,0,0,1-1.54-5.75,1,1,0,0,1,0-.18c.26-1.3,8.38-4.29,8.38-4.29l.29,0h0l.31,0,.38,0,1-.1c1.56-.13,3.8-.28,5.82-.28h.33a11.4,11.4,0,0,1,4,.54,1.33,1.33,0,0,1,.31.18c2,1.58,3,5.72,4,8,.17.42.35.84.53,1.26.48,1.12,1,2.25,1.42,3.4v0A20,20,0,0,1,41.81,60c.08.33.15.67.21,1,0,0,0,0,0,.07s.06.33.08.5,0,.34,0,.51A7,7,0,0,1,41.82,65Z"/><path class="cls-14" d="M41.82,65h0a10,10,0,0,1-1.13,2.24h0c-.08.13-.16.26-.25.39s0,0,0,0c-.22.33-.45.67-.7,1a6.62,6.62,0,0,0-.51.83,7.33,7.33,0,0,0-.34.69c0,.06,0,.13-.08.19l-.14.36-.18.53h0l-.06.2,0,.1a3,3,0,0,0-.08.32c0,.17-.09.34-.14.52v0l0,.14c0,.17-.07.33-.1.5h0a6.42,6.42,0,0,0-3.19-1.74l-.12,0-.22,0a4.51,4.51,0,0,0-.53-.09c-4.18-.52-9.76-.69-10.28,1.74a6.82,6.82,0,0,0-.06,2.18l.56-.38c-.08.83-.15,1.67-.15,2.5a15.74,15.74,0,0,0,.77,2.2h0a7.8,7.8,0,0,0,.39.82,10.58,10.58,0,0,0,1,1.36h-5.8a12.27,12.27,0,0,0,.55-3.82,30.62,30.62,0,0,0-.4-4.4c0-.11,0-.22-.05-.33-.1-.68-.22-1.34-.34-2,0-.14-.05-.29-.08-.43a1.16,1.16,0,0,0,0-.18c0-.1,0-.2,0-.3-.1-.54-.21-1.08-.32-1.62s-.21-1.08-.31-1.62c0-.15-.07-.32-.1-.49a1.16,1.16,0,0,1,0-.18l-.09-.36c0-.08,0-.16,0-.23s-.06-.24-.1-.37L18.87,65c0-.13-.07-.26-.1-.39s-.05-.17-.07-.26l-.12-.42c0-.09,0-.17-.07-.25s-.1-.37-.16-.56l-.06-.21c-.06-.21-.13-.45-.2-.67,0-.06,0-.13-.05-.19S18,62,18,62l-.12-.4c0-.13-.08-.26-.11-.38v0l-.12-.36c0-.14-.08-.27-.13-.41s-.06-.22-.1-.33-.09-.31-.14-.46-.05-.16-.07-.23l0-.1-.33-1c-.09-.28-.18-.56-.26-.83L16.47,57h0c-.08-.23-.15-.46-.22-.68s-.17-.55-.26-.82-.13-.42-.2-.63v0a10.86,10.86,0,0,1,1.74-3.24,1.6,1.6,0,0,1,.24-.22c.16.58.42,1.41.79,2.44v0c.06.2.13.41.22.63s.18.5.29.77h0a.36.36,0,0,0,0,.09,1.34,1.34,0,0,0,.07.18c0,.13.1.26.16.39a2.87,2.87,0,0,0,.15.37h0c.28.67.6,1.35.94,2h0a19.36,19.36,0,0,0,2.18,3.42,12,12,0,0,0,3.1,2.78,5.2,5.2,0,0,0,.46.25,8.75,8.75,0,0,0,5.55.71h0l.68-.13q.64-.12,1.35-.3l.37-.09c.33-.08.63-.15.92-.2a.8.8,0,0,1,.15,0c3.5-.66,4.45.16,5.53-1.08a4.84,4.84,0,0,0,.76-1.9v0A17.34,17.34,0,0,0,41.81,60c.08.33.15.67.21,1,0,0,0,0,0,.07s.06.33.08.5,0,.34,0,.51A7,7,0,0,1,41.82,65Z"/><path class="cls-15" d="M23.2,41.11s-.53,5.45,1.61,6.41,4.56,1,5.37-1.29a11.34,11.34,0,0,0,0-5.44S23.47,39.82,23.2,41.11Z"/><path class="cls-16" d="M29.19,47.6c-3.46-.53-5.59-4.5-4.44-3.92s4.56.12,5.78-.07a14.41,14.41,0,0,0-.35-2.82s-6.71-1-7,.32c0,0-.53,5.45,1.61,6.41C26.37,48.21,28.06,48.4,29.19,47.6Z"/><path class="cls-7" d="M28.55,48.34s3.24,3,3.86,1.36l0-.1a26.08,26.08,0,0,0-1.91-4.67,2.73,2.73,0,0,1-2.36,2.38,4.5,4.5,0,0,1-4.61-2.7c-.23,1.17.69,3.59,2.49,6.78C26.54,51.5,27.46,51.2,28.55,48.34Z"/><path class="cls-6" d="M23.18,43.18c-.05-.39-1.3,3.87,2.43,7.6,0,0,1.25,1.37,2.87-2.86,0,0,3.23,3,3.85,1.37s-1.8-5.68-1.8-5.68.18,2.91-2.43,3.28A4.52,4.52,0,0,1,23.18,43.18Z"/><path class="cls-7" d="M32.33,48.75c-.62,1.61-3.85-1.37-3.85-1.37-1.62,4.23-2.87,2.86-2.87,2.86A8.62,8.62,0,0,1,23,44.4a8.54,8.54,0,0,0,2.66,6.38s1.25,1.37,2.87-2.86c0,0,3.23,3,3.85,1.37a2,2,0,0,0,.09-.91A1.34,1.34,0,0,1,32.33,48.75Z"/><g class="cls-4"><path class="cls-17" d="M40.55,59.69a3.72,3.72,0,0,1-.2-.87A14.52,14.52,0,0,0,39.81,57c-.23-.67-.5-1.33-.7-1.82l-.33-.83s-1.86-5.4-1.7-5.46,2.27,5.25,2.27,5.25l.28.84c.18.51.41,1.19.59,1.89a11,11,0,0,1,.36,2A2.24,2.24,0,0,1,40.55,59.69Z"/><path class="cls-17" d="M40.65,62.33c-.17,0-.19-.82-.19-.82s.24-.76.4-.74.19.82.19.82S40.81,62.36,40.65,62.33Z"/><path class="cls-17" d="M35,80.63a14,14,0,0,1,.74-1.47,11.15,11.15,0,0,0,.55-1.51,10.75,10.75,0,0,0,.45-1.55A15.91,15.91,0,0,1,37,74.48a3.83,3.83,0,0,1,.15,1.68,8.78,8.78,0,0,1-.29,1.68,8.86,8.86,0,0,1-.76,1.52A3.76,3.76,0,0,1,35,80.63Z"/></g><g class="cls-8"><path class="cls-13" d="M22.15,79.13a5.18,5.18,0,0,1-.37-.66c-.15-.34-.24-.72-.28-.72a1.66,1.66,0,0,0,.08.79,4,4,0,0,0,.31.75,3.48,3.48,0,0,0,.52.61c.29.28.63.48.66.44a7.37,7.37,0,0,0-.51-.58A5.56,5.56,0,0,1,22.15,79.13Z"/><path class="cls-13" d="M30.61,68.94a11.37,11.37,0,0,1-1.68.14,10.91,10.91,0,0,1-1.68-.17c-.23,0-.41-.1-.54-.12l-.2-.05-.21-.06c-.12,0-.31-.07-.53-.15a11,11,0,0,1-1.55-.66,10.45,10.45,0,0,1-1.41-.93,4.84,4.84,0,0,0-.61-.48,3.58,3.58,0,0,0,.53.57,9,9,0,0,0,1.39,1,10.1,10.1,0,0,0,1.56.73c.22.09.41.13.54.18l.21.06.21,0c.14,0,.33.08.56.11a10,10,0,0,0,1.73.11,9.71,9.71,0,0,0,1.71-.23,3.34,3.34,0,0,0,.74-.25S31.07,68.87,30.61,68.94Z"/><path class="cls-13" d="M36.86,77.76s0,.44-.08.87a6.7,6.7,0,0,1-.56,1.6c-.21.37-.51.69-.48.73a1.86,1.86,0,0,0,.66-.62,3.89,3.89,0,0,0,.44-.79,3.76,3.76,0,0,0,.15-.9A1.84,1.84,0,0,0,36.86,77.76Z"/><path class="cls-13" d="M40.17,67.58c-.35.22-.73.41-.73.41s-.35.22-.73.41a4.8,4.8,0,0,0-.75.38,2.21,2.21,0,0,0,.84-.19,6.33,6.33,0,0,0,.79-.34,6.5,6.5,0,0,0,.71-.5,2.23,2.23,0,0,0,.59-.62A5.63,5.63,0,0,0,40.17,67.58Z"/><path class="cls-13" d="M35.24,65.85l0,.35v.1c0,.27,0,.65-.05,1.1,0,.19,0,.39,0,.6s0,.48-.07.73c-.06.63-.15,1.31-.25,2l0,.18h0l-.06.39c-.18,1-.38,2-.56,2.71s-.38,1.47-.38,1.47-.16.59-.45,1.45-.63,1.76-1,2.78a0,0,0,0,1,0,0l-.11.35a14.51,14.51,0,0,0-.4,1.5h-.18A15.37,15.37,0,0,1,32,80c0-.12.07-.25.11-.37s0,0,0,0c.31-1,.65-2,.89-2.77s.43-1.45.43-1.45.18-.58.4-1.46.42-1.69.61-2.68c0-.19.07-.38.1-.57s.06-.37.1-.56h0c.08-.53.16-1.05.22-1.53,0-.25.06-.48.09-.71s0-.33,0-.49,0-.24,0-.35a2.06,2.06,0,0,1-.1.32.08.08,0,0,1,0,0A2.17,2.17,0,0,1,35,67a7.77,7.77,0,0,0,.11-1.18,6.46,6.46,0,0,0-.06-1,8.69,8.69,0,0,0-.28-1.44,1.38,1.38,0,0,0-.08-.27,7.24,7.24,0,0,0-.24-.75,15.24,15.24,0,0,0-.69-1.59h0c-.31-.61-.62-1.17-.89-1.64s-.58-1-.71-1.22l-.12-.2s-.33-.58-.79-1.46c-.19-.37-.4-.8-.61-1.27-.29-.64-.59-1.35-.84-2.07a26.73,26.73,0,0,1-1-3.5c-.08-.37-.14-.7-.18-1a2.07,2.07,0,0,1,0-.22,1.41,1.41,0,0,1,0-.18h0a.19.19,0,0,0,0-.08h0c0-.08,0-.13,0-.16a.42.42,0,0,1,.05.14v0s0,.08,0,.14h0s0,.08,0,.12.05.2.08.32.12.52.19.85A31.94,31.94,0,0,0,30,52.8c.29.75.61,1.48.92,2.13.2.42.4.81.58,1.15.46.87.8,1.44.8,1.44l.16.28L33.12,59c.18.33.39.71.6,1.11h0a16.82,16.82,0,0,1,1,2.18c.1.28.18.57.26.85l.06.25a9.13,9.13,0,0,1,.22,1.41A6.79,6.79,0,0,1,35.24,65.85Z"/></g><g class="cls-4"><path class="cls-13" d="M36.39,63.4a7.53,7.53,0,0,1-1.21,0,6.45,6.45,0,0,0-2.55.34,14.14,14.14,0,0,1-2.59.76,5.44,5.44,0,0,1-1.26.07l-.35,0a4.87,4.87,0,0,1-.9-.25,9,9,0,0,1-2.33-1.4,11.57,11.57,0,0,1-2-1.79A2.18,2.18,0,0,1,22.63,60s.25.42.75.93a13.71,13.71,0,0,0,2.07,1.6,9,9,0,0,0,2.27,1.22,3.66,3.66,0,0,0,.79.18,2.33,2.33,0,0,0,.31,0,5.19,5.19,0,0,0,1.15,0,15.66,15.66,0,0,0,2.54-.62,6.58,6.58,0,0,1,1.43-.24,7.93,7.93,0,0,1,1.26.08A4.1,4.1,0,0,1,36.39,63.4Z"/></g><path class="cls-15" d="M43.28,21.77A2.33,2.33,0,0,1,46.51,21c2.2,1.45,1.1,9-1.89,8.94S42.75,21.61,43.28,21.77Z"/><path class="cls-16" d="M43.28,21.77A2.33,2.33,0,0,1,46.51,21c2.2,1.45,1.1,9-1.89,8.94S42.75,21.61,43.28,21.77Z"/><path class="cls-18" d="M46,27.7c0-.05-.23,0-.49-.07a.48.48,0,0,1-.32-.26.77.77,0,0,1,0-.5,1,1,0,0,1,.28-.43c.11-.11.26-.15.46-.31a.87.87,0,0,0,.28-.77.9.9,0,0,0-.08-.29,1.12,1.12,0,0,0-.17-.24,1.18,1.18,0,0,0-.28-.23.91.91,0,0,0-.22-.09h0s0,0,0,0,0-.08,0-.13l0-.2a2.38,2.38,0,0,1,.31-.8c.29-.51.73-.71.72-.79s-.52,0-1,.5A2.55,2.55,0,0,0,45,24a2.33,2.33,0,0,0-.07.25,1.68,1.68,0,0,0,0,.29c0,.24,0,.48,0,.65a2.72,2.72,0,0,1,.43,0,.31.31,0,0,1,.1.05.79.79,0,0,1,.13.13.46.46,0,0,1,.06.1s0,0,0,0-.26.18-.45.39a1.58,1.58,0,0,0-.39.81,1.24,1.24,0,0,0,.17.89.64.64,0,0,0,.57.29C45.85,27.92,46,27.75,46,27.7Z"/><path class="cls-16" d="M44.62,30c-3-.1-1.87-8.37-1.34-8.21A2.78,2.78,0,0,1,45,20.65a5.42,5.42,0,0,0,.21,3.07s.78-1.25,1.2-.83-.22,2.42.68,2.62c.28.06.47-.16.58-.49C47.47,27.45,46.37,30,44.62,30Z"/><g class="cls-4"><path class="cls-19" d="M47.4,22.72c.13.42.07.84-.12,1s-.46-.16-.58-.59-.07-.85.12-.95S47.28,22.29,47.4,22.72Z"/><path class="cls-19" d="M46.63,21.49a.35.35,0,0,1-.14.39.22.22,0,0,1-.33-.11.34.34,0,0,1,.15-.38A.21.21,0,0,1,46.63,21.49Z"/></g><path class="cls-15" d="M9.89,22C9.65,15.2,12.46,4.19,26.75,4.08S43.3,19.75,43.3,19.75A43.42,43.42,0,0,1,44.62,30c-.17,4.43-2.48,11-12.77,12.08s-18.22-3.27-20.07-9.6a5.26,5.26,0,0,1-4.85-4.24C6.21,25.3,7.81,22.34,9.89,22Z"/><g class="cls-20"><path class="cls-16" d="M9.89,22a21.93,21.93,0,0,1,.84-6.83,17.44,17.44,0,0,1,2.32-4.88C11,13.74,10.63,18.94,10.74,22.1c-.17,0-.6-.09-.9-.1Z"/><path class="cls-16" d="M8,23.14a6,6,0,0,0-.43,4.07,5.27,5.27,0,0,0,4.86,4.24c1.85,6.33,9.77,10.65,20.06,9.6,5.43-.56,8.63-2.65,10.47-5.15-1.7,2.93-5,5.53-11.13,6.16-10.29,1-18.22-3.27-20.07-9.6a5.26,5.26,0,0,1-4.85-4.24A5.88,5.88,0,0,1,8,23.14Z"/></g><g class="cls-20"><path class="cls-15" d="M9.15,29.8a1,1,0,0,0,.42.84.74.74,0,0,0,.42.15.68.68,0,0,0,.52-.24,1.25,1.25,0,0,0,.32-.64.91.91,0,0,0-.23-.78,4,4,0,0,0-.43-.29.61.61,0,0,1-.21-.26A.87.87,0,0,1,9.9,28a.44.44,0,0,1,.31-.33.36.36,0,0,1,.13,0h.14l.07,0,0,0,.11.16c.16.24.29.3.44.31a.44.44,0,0,0,.27-.12.62.62,0,0,0,.15-.29,4,4,0,0,0,.08-.88,4.3,4.3,0,0,0,0-.62,3.44,3.44,0,0,0-.32-1.13,2,2,0,0,0-.59-.73c-.44-.32-.81-.22-.8-.17s.31.1.63.45a2.52,2.52,0,0,1,.58,1.68,4.87,4.87,0,0,1,0,.54c0,.17,0,.13,0,.17S11,27,11,27h0l-.09-.08a.93.93,0,0,0-.2-.1.76.76,0,0,0-.34-.06.73.73,0,0,0-.3.05,1,1,0,0,0-.29.16,1.39,1.39,0,0,0-.5.83A1.8,1.8,0,0,0,9.46,29a1.19,1.19,0,0,0,.45.44,2.31,2.31,0,0,1,.38.18c.07.05.09.1.09.22a.65.65,0,0,1-.13.34.42.42,0,0,1-.55.13C9.33,30.15,9.2,29.76,9.15,29.8Z"/></g><path class="cls-19" d="M8.51,24.37c-.3.31-.64.39-.77.2s0-.59.31-.89.64-.39.77-.2S8.8,24.07,8.51,24.37Z"/><path class="cls-19" d="M9.62,22.9a.32.32,0,0,1-.14.38.21.21,0,0,1-.32-.1.34.34,0,0,1,.14-.39A.21.21,0,0,1,9.62,22.9Z"/><path class="cls-2" d="M21.51,27.76s-.24.11-.49.08a1.44,1.44,0,0,1-.49-.14,1.68,1.68,0,0,1-.37-.36c-.15-.21-.2-.46-.16-.47s.16.18.32.33a2.41,2.41,0,0,0,.36.24,1.64,1.64,0,0,0,.38.19C21.27,27.71,21.5,27.72,21.51,27.76Z"/><path class="cls-2" d="M22,28.26s-.21.21-.49.28a1.94,1.94,0,0,1-.58.06,2.16,2.16,0,0,1-.55-.2c-.26-.15-.44-.38-.41-.4s.25.12.49.2a1.89,1.89,0,0,0,.5.1,2.12,2.12,0,0,0,.51,0C21.72,28.32,22,28.22,22,28.26Z"/><path class="cls-2" d="M40.55,25.18s.14.22.1.46a1,1,0,0,1-.21.46,1,1,0,0,1-.44.23c-.24.06-.47,0-.46-.07s.22,0,.4-.14a.83.83,0,0,0,.28-.23.8.8,0,0,0,.22-.3C40.52,25.41,40.51,25.19,40.55,25.18Z"/><path class="cls-2" d="M41,26.14c.05,0,0,.3-.13.54a.92.92,0,0,1-1,.45c-.29,0-.52-.24-.49-.27a4.61,4.61,0,0,0,.51.06,1,1,0,0,0,.45-.12,1,1,0,0,0,.39-.25C40.89,26.38,41,26.13,41,26.14Z"/><path class="cls-2" d="M37.14,25.59c0,1.36.57,2.47,1.33,2.47s1.4-1.1,1.42-2.46-.57-2.46-1.33-2.47S37.16,24.23,37.14,25.59Z"/><path class="cls-21" d="M37.14,25.59c0,1.36.57,2.47,1.33,2.47s1.4-1.1,1.42-2.46-.57-2.46-1.33-2.47S37.16,24.23,37.14,25.59Z"/><path class="cls-22" d="M37.92,23.42a4.06,4.06,0,0,0-.17,1.07c0,1.36.58,2.47,1.34,2.47a1,1,0,0,0,.64-.29c-.24.82-.72,1.39-1.26,1.39-.76,0-1.36-1.11-1.33-2.47A3.06,3.06,0,0,1,37.92,23.42Z"/><path class="cls-23" d="M39.62,25.18c0,.46-.14.86-.38.88s-.46-.33-.49-.8.14-.86.38-.89S39.59,24.71,39.62,25.18Z"/><path class="cls-23" d="M38.68,23.93a.18.18,0,1,0,.36,0,.19.19,0,0,0-.18-.19A.2.2,0,0,0,38.68,23.93Z"/><path class="cls-2" d="M20.93,26.76c.16,1.36.89,2.38,1.65,2.29s1.24-1.26,1.09-2.62-.89-2.37-1.65-2.28S20.78,25.41,20.93,26.76Z"/><path class="cls-21" d="M20.93,26.76c.16,1.36.89,2.38,1.65,2.29s1.24-1.26,1.09-2.62-.89-2.37-1.65-2.28S20.78,25.41,20.93,26.76Z"/><path class="cls-22" d="M21.38,24.57a4.43,4.43,0,0,0,0,.89c.15,1.35.89,2.38,1.64,2.29a1,1,0,0,0,.64-.42c-.09.94-.51,1.65-1.09,1.72-.76.09-1.49-.93-1.65-2.29A3.17,3.17,0,0,1,21.38,24.57Z"/><path class="cls-23" d="M23.23,26c.1.46,0,.87-.26.92s-.5-.27-.59-.73,0-.88.26-.93S23.14,25.53,23.23,26Z"/><path class="cls-23" d="M22.14,24.87a.19.19,0,0,0,.2.17.19.19,0,0,0,.15-.21.18.18,0,0,0-.2-.17A.18.18,0,0,0,22.14,24.87Z"/><path class="cls-16" d="M29.11,30.66a5.49,5.49,0,0,0,4.33-1.18s1.22.78-.95,1.6C29.61,32.18,29.11,30.66,29.11,30.66Z"/><g class="cls-20"><path class="cls-15" d="M30.34,31.27a6.09,6.09,0,0,0,.91,0,5.48,5.48,0,0,0,1.85-.63,1.11,1.11,0,0,0,.59-.63.55.55,0,0,0-.25-.56,1.59,1.59,0,0,0-.5-.22,1.08,1.08,0,0,0-.22,0,2.2,2.2,0,0,0-.51,0,3.32,3.32,0,0,0-.61.09c-.11,0-.24.08-.37.14a7.48,7.48,0,0,0-.79.49c0-.31,0-.65,0-1,0-.19,0-.4,0-.61,0-.41,0-.84,0-1.22a5.31,5.31,0,0,1,.14-1.36,6.11,6.11,0,0,1,.15,1.36c0,.38.05.81.08,1.23l0,.61c0,.06,0,.08,0,.09L31,29l.43-.18a3.51,3.51,0,0,1,.73-.15,2.78,2.78,0,0,1,.63,0,2.11,2.11,0,0,1,.29.06,2,2,0,0,1,.7.36,1.33,1.33,0,0,1,.34.45,1,1,0,0,1,0,.67,1.54,1.54,0,0,1-.87.88,4.93,4.93,0,0,1-2,.48A1.34,1.34,0,0,1,30.34,31.27Z"/></g><path class="cls-19" d="M32.29,29.59c.06.14-.14.35-.43.47s-.58.1-.64,0,.14-.35.44-.46S32.23,29.45,32.29,29.59Z"/><path class="cls-16" d="M25.81,30.9c0,1.36-1.72,2.48-3.87,2.51S18,32.35,18,31s1.72-2.49,3.88-2.51S25.8,29.54,25.81,30.9Z"/><path class="cls-16" d="M43.88,29.11c.25,1.33-1.23,2.74-3.32,3.15s-4-.35-4.25-1.69,1.22-2.74,3.31-3.15S43.62,27.77,43.88,29.11Z"/><path class="cls-16" d="M35.25,32.89h-.49a3.19,3.19,0,0,0-2.26.87s-.22-.62-3.82-.24l-.65.07-.3,0a5,5,0,0,1-.76,0,4.51,4.51,0,0,1-.58-.06,5,5,0,0,0-1.33-.18h.05a6.57,6.57,0,0,0,4.79,3.94,5.25,5.25,0,0,0,2.4-.09,2.47,2.47,0,0,0,.54-.27,1.38,1.38,0,0,0,.44-.51.68.68,0,0,0-.05-.79c-.3-.22-.18-1.08-.1-1.52a4.88,4.88,0,0,0,1.32-.52,1.92,1.92,0,0,0,.83-.78Z"/><path class="cls-13" d="M32.79,34a12,12,0,0,1-1.7.08h0l-.25.05c-1.91.25-3.57-.41-5.45-.65l-.09,0a6.47,6.47,0,0,0,4.07,3.35c3.77.79,4-2,3.59-2.46A.83.83,0,0,1,32.79,34Z"/><path class="cls-14" d="M32.79,34,32,34a.15.15,0,0,0,.12,0c.38-.16,1.12.13.74,1.29s-3,2-4.8.61-.68-1.87-.68-1.87-.08-.14-.21-.33c-.59-.13-1.18-.25-1.8-.33l-.09,0a6.47,6.47,0,0,0,4.07,3.35c3.77.79,4-2,3.59-2.46A.83.83,0,0,1,32.79,34Z"/><path class="cls-13" d="M24.93,33.28a13.91,13.91,0,0,0,7.28,1.47c3.2-.44,3.75-2.24,3.75-2.24s-2.32-.08-3,1.31c0,0-.26-1-4.82-.25C26.33,33.87,25.79,33.18,24.93,33.28Z"/><path class="cls-14" d="M24.93,33.28a13.91,13.91,0,0,0,7.28,1.47c3.2-.44,3.75-2.24,3.75-2.24s-2.32-.08-3,1.31c0,0-.26-1-4.82-.25C26.33,33.87,25.79,33.18,24.93,33.28Z"/><path class="cls-14" d="M35.39,32.53c-.19.72-1.67,2.14-4.25,1.78-1.63-.22-2.14-.58-2.26-.86l-.75.12c-1.8.3-2.34-.39-3.2-.29a13.91,13.91,0,0,0,7.28,1.47c3.2-.44,3.75-2.24,3.75-2.24A4.8,4.8,0,0,0,35.39,32.53Z"/><path class="cls-24" d="M30.17,36c0,.19-.34.31-.69.25s-.62-.26-.59-.45.34-.31.7-.26S30.2,35.77,30.17,36Z"/><path class="cls-2" d="M22.83,20.44c0,.08-.38.11-.69.25a2.37,2.37,0,0,0-.58.33,2.63,2.63,0,0,0-.55.35c-.27.22-.46.53-.54.5s0-.42.21-.77a2.44,2.44,0,0,1,.57-.6,2.58,2.58,0,0,1,.8-.23C22.46,20.23,22.85,20.36,22.83,20.44Z"/><path class="cls-2" d="M39.68,20.36c-.07,0-.32-.25-.63-.43a2.63,2.63,0,0,0-.63-.28,2.43,2.43,0,0,0-.65-.22,1.48,1.48,0,0,0-.47,0c-.13,0-.22.05-.25,0s0-.13.16-.24a1.17,1.17,0,0,1,.56-.2,2.22,2.22,0,0,1,.87.08,2.37,2.37,0,0,1,.69.51C39.63,19.92,39.76,20.33,39.68,20.36Z"/><path class="cls-16" d="M43.3,19.75S41.12,4,26.75,4.08,9.65,15.2,9.89,22C8.3,22.26,7,24,6.79,26.17c1.64-.44,3.47-2.34,4-2.91.24,1.6,1.16,7.11,1.84,11.2A12.07,12.07,0,0,0,15.51,38c.2-4.24.57-12.22.75-15.35a16.39,16.39,0,0,0,3-1.89,35.17,35.17,0,0,0,8.16-8.56s9,4.53,14.35,3.64c0,0,2,5,2,7l.11-.13C43.61,21,43.3,19.75,43.3,19.75Z"/><path class="cls-2" d="M31.51.39C25-1.07,21.89,2,21.89,2S14.57-.73,9.1,4.91c0,0-5,1.67-5.7,13.86-.64,11.2,5.79,4.56,6.83,3.41.4,2.65,2.64,16,2.64,16l2,1.5s.62-13.74.87-18.08a17.07,17.07,0,0,0,3-1.9,35.17,35.17,0,0,0,8.16-8.56s9,4.53,14.36,3.64c0,0,2,5,2,7,0,0,1.42-1.81,3.23-.73C46.51,21,48.07,4.1,31.51.39Z"/><path class="cls-3" d="M22.66,15.91l-.27.2c-.68.5-1.47,1.05-2.29,1.58h0c-2.72,1.77-5.79,3.4-6.44,2.95-1-.71.39-3.34.52-3.58a33.72,33.72,0,0,1-3.43,3.21c-.28.22-.57.43-.85.61-1.31.89-2.6,1.4-3.33.71a3.28,3.28,0,0,1-.5-2.81h0a17.06,17.06,0,0,1,.88-3.2l0-.06,0-.09c.22-.61.45-1.17.63-1.59a21.28,21.28,0,0,1-1.09,1.92s0,0,0,.05c-.65,1-1.4,1.9-2,1.67S4,15.13,4.18,13c-.06.26-.12.53-.18.82l-.15.85c-.11.61-.2,1.27-.27,2,0,.34-.07.69-.1,1.05s-.06.73-.08,1.11c0,.73,0,1.38,0,2,0,.17,0,.33,0,.49a6.39,6.39,0,0,0,0,.64c0,.12,0,.24,0,.35a6,6,0,0,0,.12.68c0,.1,0,.2.07.3s.09.31.14.45h0l.11.27a2.28,2.28,0,0,0,.24.44c0,.07.09.12.13.18a2.23,2.23,0,0,0,.21.22,1.56,1.56,0,0,0,.27.2l.14.07.15.06a.67.67,0,0,0,.19.05l.18,0a2.69,2.69,0,0,0,1.3-.25,3.14,3.14,0,0,0,.37-.18h0a4.91,4.91,0,0,0,.44-.25l.1-.06,0,0L8.29,24c.19-.15.38-.3.55-.45l.35-.3h0l.36-.35,0,0c.29-.28.52-.52.65-.67,0,.1,0,.21,0,.34s.06.39.1.63,0,.29.07.45a0,0,0,0,1,0,0c0,.2.07.42.1.65a.13.13,0,0,1,0,.06s0,0,0,0l0,.18h0s0,.06,0,.09l0,.16h0c0,.13,0,.25.05.38s0,.29.08.45a.77.77,0,0,1,0,.15c.06.34.12.7.18,1.06L11,27h0c.05.35.11.7.17,1.06l.12.69c0,.22.07.45.11.67s.07.45.11.67.07.45.11.67v-.66c0-.44,0-.87,0-1.3h0c0-.12,0-.22,0-.33v0a9.87,9.87,0,0,1,.1-1v0a2.2,2.2,0,0,1,.46-1.31c.51-.4.78.6.92,1.61h0s0,0,0,0,0,0,0,0,0,0,0,0,0,0,0,0a.13.13,0,0,1,0,.06c.11.83.13,1.62.13,1.62a22.39,22.39,0,0,1,.14-2.35.76.76,0,0,1,0-.15c.15-1,.4-2,.91-1.94.24,0,.41.45.54,1.09v.05c.06.3.11.65.15,1v0c.12,1.2.16,2.68.17,3.88,0-.44,0-.89.07-1.34l.06-1.33c0-.08,0-.16,0-.24s0-.38,0-.57l0-.62,0-.66c0-.09,0-.18,0-.26,0-.24,0-.48,0-.71s0-.62.05-.92c0-.54,0-1,.07-1.5,0-.19,0-.36,0-.53,0-.34,0-.65.05-.92a16.5,16.5,0,0,0,3-1.9c.35-.27.69-.54,1-.81s.65-.53,1-.8l.87-.78.63-.6.18-.17.4-.4c.37-.38.72-.74,1-1.09C23.5,15.26,23.11,15.58,22.66,15.91Z"/><path class="cls-3" d="M29.23,10.67a4.49,4.49,0,0,1,3.25.07s-5.93-4.16-4.73-5.49a13.46,13.46,0,0,1,3.88-2.47s-3.31-.07-5,1.06c0,0-2.63-.1-.4-1.5,0,0-2.11-.41-2.32-1.53a6.89,6.89,0,0,0-2,1.23A13.48,13.48,0,0,0,14,1.89a3.23,3.23,0,0,1,2.48.54c1.05,1.12-2,4.27-2,4.27s3.88-1.88,4.65-1.53-3.94,4.16-3.94,4.16S20.63,6.8,20.85,7.5s-1.91,2.82-1.91,2.82,6.28-4.09,5.43.92a13.91,13.91,0,0,1-2.18,5.43,31.53,31.53,0,0,0,4.7-5.57,46.42,46.42,0,0,0,6.27,2.53C31.14,12.66,28.3,11.14,29.23,10.67Z"/><g class="cls-4"><path class="cls-2" d="M15.79,21a1.54,1.54,0,0,1,.27-.22l.73-.54c.61-.45,1.42-1,2.21-1.65s1.58-1.23,2.15-1.72l.93-.83a25.83,25.83,0,0,0,2.76-2.88,21.65,21.65,0,0,0,1.58-2.25l.46-.78a1.19,1.19,0,0,1,.19-.29,1.76,1.76,0,0,1-.13.32c-.09.2-.24.48-.42.81A19.12,19.12,0,0,1,25,13.25a24.43,24.43,0,0,1-2.73,3s-.37.34-1,.82-1.37,1.1-2.19,1.68-1.65,1.16-2.27,1.57l-.77.5A1.07,1.07,0,0,1,15.79,21Z"/></g><g class="cls-4"><path class="cls-2" d="M15.59,21.37a2.75,2.75,0,0,1-.9.71,6.13,6.13,0,0,1-1.06.45,6.41,6.41,0,0,1-1.15.14,2.84,2.84,0,0,1-1.13-.16s.57,0,1.12-.05a6.27,6.27,0,0,0,1.08-.23,5.91,5.91,0,0,0,1-.35C15.1,21.66,15.57,21.34,15.59,21.37Z"/></g><g class="cls-4"><path class="cls-2" d="M21.93,8.05s.12-.31.35-.56a3.38,3.38,0,0,1,.5-.45,3.76,3.76,0,0,1,.61-.26,1.28,1.28,0,0,1,.66-.06,3.23,3.23,0,0,1-.58.26,4.41,4.41,0,0,0-.53.32,5,5,0,0,0-.52.34C22.18,7.84,22,8.08,21.93,8.05Z"/></g><g class="cls-4"><path class="cls-2" d="M12.73,13.11a1.19,1.19,0,0,1,.08-.29,7.17,7.17,0,0,1,.32-.73,9.17,9.17,0,0,1,1.37-2,12.06,12.06,0,0,1,1.78-1.66c.53-.4.91-.63.91-.63s.37-.24.95-.55,1.38-.7,2.19-1a9.57,9.57,0,0,1,2.31-.74,2.1,2.1,0,0,1,.81.08.73.73,0,0,1,.27.15,2.16,2.16,0,0,0-1.06-.11,9.38,9.38,0,0,0-2.24.82,23.44,23.44,0,0,0-2.14,1.08c-.57.32-.93.56-.93.56s-.37.23-.9.61a12.09,12.09,0,0,0-1.79,1.57,10.52,10.52,0,0,0-1.43,1.91C12.91,12.71,12.75,13.12,12.73,13.11Z"/></g><g class="cls-4"><path class="cls-2" d="M5.12,26.21s.28-.23.7-.56,1-.77,1.51-1.23c1.08-.93,2.07-1.94,2.07-1.94s1-1,1.93-2.08c.46-.54.91-1.09,1.23-1.51a6.53,6.53,0,0,1,.56-.7,4.12,4.12,0,0,1-.46.76c-.3.45-.72,1-1.16,1.59-.89,1.12-1.89,2.15-1.89,2.15s-1,1-2.14,1.89c-.56.45-1.14.87-1.58,1.17A4.36,4.36,0,0,1,5.12,26.21Z"/></g><g class="cls-4"><path class="cls-2" d="M7.58,22.07a7.86,7.86,0,0,1-.71,1l-.73,1L5.38,25a7.09,7.09,0,0,1-.79.94,5.93,5.93,0,0,1,.62-1.07c.33-.51.7-1,.7-1s.38-.48.79-.93A5.14,5.14,0,0,1,7.58,22.07Z"/></g><g class="cls-4"><path class="cls-2" d="M12.28,8.41a1.69,1.69,0,0,1-.25.3l-.7.74c-.58.61-1.34,1.43-2,2.3a17.65,17.65,0,0,0-1.73,2.53A13.11,13.11,0,0,0,7,15.53s-.23.5-.5,1.29-.59,1.87-.89,2.95l-.85,3-.29,1a1.93,1.93,0,0,1-.12.36,1.51,1.51,0,0,1,.07-.38c0-.24.13-.58.23-1,.21-.82.48-1.9.75-3s.56-2.18.83-3,.5-1.32.5-1.32a10.55,10.55,0,0,1,.64-1.27,17.51,17.51,0,0,1,1.8-2.53c.73-.86,1.52-1.66,2.13-2.25l.74-.7A2.15,2.15,0,0,1,12.28,8.41Z"/></g><g class="cls-4"><path class="cls-2" d="M14.08,7.15a2.94,2.94,0,0,1,.42-.45c.27-.26.63-.59,1-.92s.77-.62,1.08-.84.51-.35.51-.35a9.48,9.48,0,0,1,1.82-.82,4.94,4.94,0,0,1,2-.26,3,3,0,0,1-.61.11A7.42,7.42,0,0,0,19,4a9.9,9.9,0,0,0-1.73.88A16.49,16.49,0,0,0,15.64,6C14.86,6.55,14.11,7.18,14.08,7.15Z"/></g><g class="cls-4"><path class="cls-2" d="M7.2,9.81s-.36.74-.69,1.48-.6,1.49-.6,1.49-.31.75-.57,1.52-.45,1.56-.49,1.55a7.16,7.16,0,0,1,.29-1.61c.2-.79.49-1.57.49-1.57s.31-.76.69-1.48A7.51,7.51,0,0,1,7.2,9.81Z"/></g><g class="cls-4"><path class="cls-2" d="M14.06,42.8c-.08,0,.45-10.44.45-10.44s.67-10.42.76-10.41-.46,10.43-.46,10.43S14.14,42.8,14.06,42.8Z"/></g><g class="cls-4"><path class="cls-2" d="M12.48,39.73a1.48,1.48,0,0,1,0-.37c0-.24,0-.57-.07-1,0-.81-.12-1.89-.21-3-.17-2.16-.42-4.3-.42-4.3s-.21-2.15-.51-4.29c-.15-1.07-.31-2.14-.43-2.94-.06-.41-.11-.74-.15-1a2.52,2.52,0,0,1,0-.37,1.23,1.23,0,0,1,.1.36c0,.23.13.56.2,1,.16.79.36,1.86.53,2.92.35,2.14.6,4.29.6,4.29s.22,2.16.34,4.32c0,1.08.1,2.16.11,3,0,.4,0,.74,0,1A2.89,2.89,0,0,1,12.48,39.73Z"/></g><g class="cls-4"><path class="cls-2" d="M13.25,30.19a15.2,15.2,0,0,1-.05-1.71l0-1.7v-1.7a13.94,13.94,0,0,1,0-1.71,10.89,10.89,0,0,1,.19,1.7c.06.85.08,1.71.08,1.71s0,.85-.06,1.71A10.37,10.37,0,0,1,13.25,30.19Z"/></g><g class="cls-4"><path class="cls-2" d="M28,1.71a6.32,6.32,0,0,1-.88.29,7.47,7.47,0,0,0-.84.34,8.79,8.79,0,0,0-.82.39,7.65,7.65,0,0,1-.8.46,2.34,2.34,0,0,1,.69-.64,5.4,5.4,0,0,1,.81-.48,6.2,6.2,0,0,1,.9-.28A2.56,2.56,0,0,1,28,1.71Z"/></g><g class="cls-4"><path class="cls-2" d="M34.88,3.05a7.58,7.58,0,0,1-.77-.1,11.72,11.72,0,0,0-1.68-.11A11.12,11.12,0,0,0,30.76,3c-.45.07-.75.14-.75.14s-.3.06-.74.18a12.58,12.58,0,0,0-1.58.55,13.26,13.26,0,0,0-1.49.8,6.94,6.94,0,0,1-.65.4,3,3,0,0,1,.59-.5,9.82,9.82,0,0,1,1.46-.89A12.18,12.18,0,0,1,29.2,3c.44-.13.75-.2.75-.2s.31-.07.77-.13a11.21,11.21,0,0,1,1.71-.08,10.74,10.74,0,0,1,1.7.2A3.11,3.11,0,0,1,34.88,3.05Z"/></g><g class="cls-4"><path class="cls-2" d="M44.87,13.08a1.45,1.45,0,0,1-.33.22,8.39,8.39,0,0,1-.95.47,11.14,11.14,0,0,1-3.12.76,18,18,0,0,1-3.22,0c-.87-.08-1.45-.17-1.45-.17s-.58-.09-1.43-.26a24,24,0,0,1-3.11-.81,11.3,11.3,0,0,1-2.83-1.52c-.36-.25-.65-.47-.85-.63l-.31-.26a1.85,1.85,0,0,1,.34.21l.88.58a11.93,11.93,0,0,0,2.84,1.41,22.27,22.27,0,0,0,3.09.74c.85.16,1.43.24,1.43.24s.57.1,1.43.19a17.85,17.85,0,0,0,3.17.08,11.34,11.34,0,0,0,3.1-.65C44.36,13.36,44.86,13.05,44.87,13.08Z"/></g><g class="cls-4"><path class="cls-2" d="M45.63,16.39a2.72,2.72,0,0,1-1.26.32,4.79,4.79,0,0,1-1.31-.15A4.53,4.53,0,0,1,41.89,16,2.87,2.87,0,0,1,41,15s.46.45,1,.77a4.63,4.63,0,0,0,1.15.48,4.79,4.79,0,0,0,1.22.22A11.8,11.8,0,0,0,45.63,16.39Z"/></g><g class="cls-4"><path class="cls-2" d="M44.48,20.56a4.46,4.46,0,0,1-.35-.73c-.17-.36-.37-.7-.37-.7s-.16-.36-.36-.71a5.11,5.11,0,0,1-.39-.7s.32.26.57.58A6.67,6.67,0,0,1,44,19a6.07,6.07,0,0,1,.3.76A2.24,2.24,0,0,1,44.48,20.56Z"/></g><g class="cls-4"><path class="cls-2" d="M36.66,5.23s-.72-.11-1.44-.1a8.2,8.2,0,0,0-1.41.12,8.78,8.78,0,0,0-1.39.33c-.68.22-1.31.58-1.33.55a4,4,0,0,1,1.26-.75A7.42,7.42,0,0,1,33.76,5a7.29,7.29,0,0,1,1.47,0A4.29,4.29,0,0,1,36.66,5.23Z"/></g><g class="cls-4"><path class="cls-2" d="M39.13,12.12a.85.85,0,0,1-.27,0c-.17,0-.41,0-.7,0A17.12,17.12,0,0,1,36,11.88a19.54,19.54,0,0,1-3-.78l-.25-.1-.66-.26a19,19,0,0,1-1.92-1,13.74,13.74,0,0,1-1.8-1.17,1.56,1.56,0,0,1-.59-.77,2.82,2.82,0,0,0,.66.68A18.53,18.53,0,0,0,30.28,9.6a19.06,19.06,0,0,0,1.93.88l.65.25.25.09a20.73,20.73,0,0,0,3,.85c.76.16,1.52.28,2.1.34S39.13,12.1,39.13,12.12Z"/></g><g class="cls-4"><path class="cls-2" d="M44.56,10.75s-.61-.35-1.24-.65A13.37,13.37,0,0,0,42,9.58a13.52,13.52,0,0,0-1.32-.44c-.67-.19-1.36-.28-1.36-.33a4.8,4.8,0,0,1,1.41.12,11,11,0,0,1,1.37.36,10.78,10.78,0,0,1,1.28.62A5,5,0,0,1,44.56,10.75Z"/></g><path class="cls-3" d="M44.25,18.45c-.58-1.09,1.67-1.73,1.67-1.73a6,6,0,0,1-2.25-.7c-1.47-.71,1-2.44,1.09-2.64l-3.59,1-.16.36.24,0s2,5,2,7c0,0,1.42-1.81,3.23-.73a19,19,0,0,0,0-2.34C45.68,19.09,44.6,19.12,44.25,18.45Z"/><g class="cls-5"><path class="cls-2" d="M15.23,19.48c1.52.4,3.25-1.14,4.35-2,1.34-1.07,2.72-2.17,2.82-4a.51.51,0,0,0-.63-.48c-1.61.3-2.6,1.55-3.79,2.56-1,.86-2.87,1.83-3.19,3.17a.64.64,0,0,0,.44.77Z"/></g><g class="cls-5"><path class="cls-2" d="M15.4,16.16a1.79,1.79,0,0,0,1-.42,2.73,2.73,0,0,0,.82-.77c.12-.16-.08-.39-.25-.33a3,3,0,0,0-1,.54,1.82,1.82,0,0,0-.7.78.16.16,0,0,0,.15.2Z"/></g><g class="cls-5"><path class="cls-2" d="M9.93,20c1.19-1.71,2.43-3.39,3.73-5C14.74,13.58,16,12.4,17.08,11c.25-.33-.16-.76-.51-.66-1.91.51-3.19,2.23-4.34,3.73a17.3,17.3,0,0,0-3,5.55c-.15.47.49.68.74.32Z"/></g><g class="cls-5"><path class="cls-2" d="M8.41,16.76c.35-.19.41-.76.56-1.1s.46-.82.62-1.27c.08-.22-.22-.37-.38-.22a3.87,3.87,0,0,0-.73,1.28c-.15.36-.47.89-.26,1.26a.14.14,0,0,0,.19.05Z"/></g><g class="cls-5"><path class="cls-2" d="M10.68,12.54c1.06-.45,1.93-1.7,2.71-2.52s2-1.7,2.48-2.82a.16.16,0,0,0-.2-.19c-1.17.28-2.17,1.47-3,2.31s-1.95,2-2.12,3.11c0,.05,0,.14.11.11Z"/></g><g class="cls-5"><path class="cls-2" d="M6.24,13.83c1.23-1.58,2.32-3.24,3.69-4.72s3.16-2.35,4.1-4c.21-.37-.06-1-.55-1-2.12.25-3.66,2.14-4.92,3.73A12.35,12.35,0,0,0,5.93,13.7a.18.18,0,0,0,.31.13Z"/></g><g class="cls-5"><path class="cls-2" d="M7,8.23l.64-.76c.07-.08,0-.21-.13-.12l-.67.72c-.09.11.07.27.16.16Z"/></g><g class="cls-5"><path class="cls-2" d="M14,29.31a17.61,17.61,0,0,0-.39,6.51c0,.23.4.33.44.06a17.7,17.7,0,0,0,.08-6.57c0-.07-.11-.06-.13,0Z"/></g><g class="cls-5"><path class="cls-2" d="M31.34,11.24c.81,1.41,2.39,1.8,3.9,2.08a14.08,14.08,0,0,0,6.58,0,.43.43,0,0,0-.11-.84c-3.57-.22-7,.31-10.28-1.37a.07.07,0,0,0-.09.09Z"/></g><g class="cls-5"><path class="cls-2" d="M28.94,5.29a14.25,14.25,0,0,0,2.4-.76c.14-.07,0-.29-.1-.25a12.68,12.68,0,0,0-2.34.93s0,.09,0,.08Z"/></g><g class="cls-5"><path class="cls-2" d="M32.75,4a21.61,21.61,0,0,0,2.67.31,6.1,6.1,0,0,0,2.4.12.18.18,0,0,0,0-.33,4.5,4.5,0,0,0-2.59-.5A6.75,6.75,0,0,0,32.75,4s0,0,0,0Z"/></g><g class="cls-5"><path class="cls-2" d="M31.68,8.33c1.06,1.14,3,1.59,4.42,2A10.85,10.85,0,0,0,41,11a.57.57,0,0,0,.14-1,18.49,18.49,0,0,0-4.58-1.31c-1.47-.34-3.12-1.08-4.63-.92a.36.36,0,0,0-.26.61Z"/></g><g class="cls-5"><path class="cls-2" d="M37.28,7.13c.29.33.79.33,1.21.4a3.77,3.77,0,0,0,1.34,0,.16.16,0,0,0,0-.29,3.63,3.63,0,0,0-1.3-.34A2,2,0,0,0,37.3,7a.1.1,0,0,0,0,.15Z"/></g><g class="cls-5"><path class="cls-2" d="M28.23,2.32a3.29,3.29,0,0,0,1.37-.27c.55-.13,1.06-.35,1.6-.52.09,0,.12-.2,0-.22a4.23,4.23,0,0,0-1.7,0A2.36,2.36,0,0,0,28.09,2a.25.25,0,0,0,.14.36Z"/></g><path class="cls-12" d="M35.75,81.76h0l-.22-.17H20.81c.22-.18.48-.37.76-.56s.39-.26.61-.39l.33-.2.35-.19.1-.06.13-.06.22-.11.42-.2.07,0,.52-.21.05,0,.42-.15h0l.35-.11a11.06,11.06,0,0,1,1.23-.3h.07c.28,0,.58-.08.87-.11a11.3,11.3,0,0,1,1.31,0l.34,0,.59.07a10.15,10.15,0,0,1,2.59.68l.2.09A12.05,12.05,0,0,1,34.63,81l.52.36c.13.08.25.18.38.27Z"/><path class="cls-25" d="M45.4,78.75v0a1.15,1.15,0,0,1,0,.26.35.35,0,0,1,0,.14,1.52,1.52,0,0,1-.42.76l-.42.43-1,1-.17.18h-7.8l.22.17h0l-.22-.17H9.11l3.21-3.3.23-.23.4-.41,7-7.23,3-3.12.11-.11,2.58-2.64.78-.81.37-.38.5-.51a1.72,1.72,0,0,1,2.42,0l1,1,.42.41,1.23,1.19,1.95,1.9.62.6.12.12,3.35,3.26h0l3,2.93.17.16,1.26,1.23,2,1.94a2.12,2.12,0,0,1,.2.24h0s0,0,0,0a1.1,1.1,0,0,1,.14.26,2.25,2.25,0,0,1,.08.24l0,.11v0s0,0,0,0A2.11,2.11,0,0,1,45.4,78.75Z"/><path class="cls-26" d="M45.4,78.75v0a1.15,1.15,0,0,1,0,.26.35.35,0,0,1,0,.14,1.54,1.54,0,0,0-.23-.58.05.05,0,0,0,0,0,2,2,0,0,0-.23-.28l-1.8-1.76h0l-.81-.78v0l-.47-.45-3.47-3.38h0L35,68.73l-.14-.14-.44-.43-2.72-2.65h0l-1.17-1.15-.48-.47-.32-.31a1.71,1.71,0,0,0-2.4,0l0,0L27,64l-.78.8-2.61,2.68-.13.13L20.11,71,13.35,78l-.4.42-.23.23-2.9,3H9.11l3.21-3.3.23-.23.4-.41,7-7.23,3-3.12.11-.11,2.58-2.64.78-.81.37-.38.5-.51a1.72,1.72,0,0,1,2.42,0l1,1,.42.41,1.23,1.19,1.95,1.9.62.6.12.12,3.35,3.26h0l3,2.93.17.16,1.26,1.23,2,1.94a2.12,2.12,0,0,1,.2.24h0s0,0,0,0a1.1,1.1,0,0,1,.14.26,2.25,2.25,0,0,1,.08.24l0,.11v0s0,0,0,0A2.11,2.11,0,0,1,45.4,78.75Z"/><path class="cls-27" d="M45.4,78.75v0a1.15,1.15,0,0,1,0,.26.35.35,0,0,1,0,.14,1.52,1.52,0,0,1-.42.76l-.42.43-1,1-.17.18h-.86l.47-.48,1.32-1.35.39-.4a1.59,1.59,0,0,0,.42-.73.14.14,0,0,0,0-.06,1.76,1.76,0,0,0,0-.79s0,0,0,0a1.1,1.1,0,0,1,.14.26,2.25,2.25,0,0,1,.08.24.36.36,0,0,1,0,.11.06.06,0,0,1,0,0h0s0,0,0,0A2.11,2.11,0,0,1,45.4,78.75Z"/><path class="cls-28" d="M45.4,78.75v0a1.15,1.15,0,0,1,0,.26.35.35,0,0,1,0,.14,1.52,1.52,0,0,1-.42.76l-.42.43-1,1-.17.18H40.08c1.46-.75,2.8-1.54,4-2.3h0c.35-.21.68-.43,1-.65l0,0,.25-.18h0v0s0,0,0,0A2.11,2.11,0,0,1,45.4,78.75Z"/><g class="cls-29"><path class="cls-30" d="M17.51,81.59H9.11l3.21-3.3.23-.23c.13.11.26.22.4.32A50.13,50.13,0,0,0,17.51,81.59Z"/></g><path class="cls-15" d="M24.73,81.59H23.62c.13-.42.52-.41.9-.17A1.57,1.57,0,0,1,24.73,81.59Z"/><path class="cls-16" d="M24.73,81.59h-.18l0-.17A1.57,1.57,0,0,1,24.73,81.59Z"/><path class="cls-6" d="M19.24,55.36c0,.06,0,.12,0,.18a7.88,7.88,0,0,1-.81,2v0l-.2.29-.54.76-.45.64-.37.52c-.08.12-.16.25-.26.38l-.13.19L16,61c-.55.8-1.16,1.7-1.78,2.63l-.61.92c-.1.16-.21.31-.31.46l-.61.94-.88,1.39c-.29.45-.56.9-.82,1.33l-.19.32c-.23.37-.44.73-.62,1.07l-.13.23c-.14.25-.27.49-.38.71v0c-.16.3-.29.58-.39.82a3.35,3.35,0,0,0-.15.35,1.25,1.25,0,0,0-.07.26,1.35,1.35,0,0,0,0,.35H9s0,0,0,0v0a1.56,1.56,0,0,0,.08.41,4.21,4.21,0,0,0,.65,1.26,3,3,0,0,0,.23.3,4.68,4.68,0,0,0,.31.37,5.45,5.45,0,0,0,.47.51,24.1,24.1,0,0,0,2.19,2l.4.31,0,0c.47.36.95.71,1.44,1.06l.24.17c.67.47,1.34.91,2,1.31s1.17.75,1.68,1.06H5.23a25.85,25.85,0,0,1-2.17-2.14c-.34-.38-.66-.76-1-1.15l-.29-.39-.27-.39a9.92,9.92,0,0,1-1.2-2.39c-.06-.17-.1-.33-.15-.5a6.29,6.29,0,0,1-.18-1c0-.16,0-.31,0-.47A5.26,5.26,0,0,1,.12,72c.05-.26.12-.52.2-.8a3.17,3.17,0,0,1,.12-.41c0-.17.1-.34.17-.52s.14-.4.22-.6.11-.3.18-.46.21-.53.33-.8c0,0,0,0,0,0,.12-.28.25-.56.39-.85.27-.58.58-1.17.9-1.77s.72-1.31,1.11-2c.21-.36.43-.72.65-1.08s.44-.71.67-1.07h0c1.75-2.75,3.69-5.45,5.39-7.7h0c1.61-2.12,3-3.84,3.79-4.82l.75-.9a8.75,8.75,0,0,1,2.46,1.48,5.25,5.25,0,0,1,1.79,2.81h0A6.16,6.16,0,0,1,19.24,55.36Z"/><g class="cls-31"><path class="cls-32" d="M18.5,51.64a6.29,6.29,0,0,1,.3,1.75,8.53,8.53,0,0,1-.51,3.52,5.83,5.83,0,0,1-.78,1.6s.34-.82.58-1.66a12.47,12.47,0,0,0,.34-1.72,11.56,11.56,0,0,0,.15-1.74C18.6,52.52,18.46,51.64,18.5,51.64Z"/><g class="cls-20"><path class="cls-9" d="M19.75,54.73s.05.22-.05.8a4,4,0,0,1-1,2.1,2.76,2.76,0,0,1-.88.75s.39-.41.71-.88a6.33,6.33,0,0,0,.54-1,6.06,6.06,0,0,0,.39-1C19.64,54.94,19.71,54.74,19.75,54.73Z"/></g><path class="cls-32" d="M4.28,72.55a2.47,2.47,0,0,1,1.13-.68,4.27,4.27,0,0,1,1.33-.18A4.08,4.08,0,0,1,8,72.05a2.49,2.49,0,0,1,1,.82A7.79,7.79,0,0,0,8,72.24,4.67,4.67,0,0,0,7.11,72l-.39,0H6.33a4.06,4.06,0,0,0-.86.1A6.29,6.29,0,0,0,4.28,72.55Z"/><path class="cls-32" d="M6.05,74.09a2.61,2.61,0,0,1,.59-.69A2.34,2.34,0,0,1,7.15,73a2,2,0,0,1,.27-.13,1.6,1.6,0,0,1,.3-.06,1.66,1.66,0,0,1,.65,0,1.23,1.23,0,0,1,.55.34c.12.14.15.25.13.26s-.08-.08-.21-.17a1.12,1.12,0,0,0-.52-.22,1.48,1.48,0,0,0-.56,0,1.25,1.25,0,0,0-.24.07l-.25.09a3.65,3.65,0,0,0-.5.3A5.8,5.8,0,0,1,6.05,74.09Z"/></g><path class="cls-7" d="M19.08,55.26h0s0,.07,0,.1a11.15,11.15,0,0,1-.68,2.18v0l-.2.29-.54.76-.45.64-.37.52c-.08.12-.16.25-.26.38l-.13.19L16,61c-.55.8-1.16,1.7-1.78,2.63l-.61.92c-.1.16-.21.31-.31.46l-.61.94-.88,1.39c-.29.45-.56.9-.82,1.33l-.19.32c-.22.38-.43.73-.62,1.07l-.13.23L9.66,71v0c-.15.3-.28.57-.39.82a3.35,3.35,0,0,0-.15.35,1.25,1.25,0,0,0-.07.26,1.35,1.35,0,0,0,0,.35H9s0,0,0,0v0a1.56,1.56,0,0,0,.08.41,4.21,4.21,0,0,0,.65,1.26,3,3,0,0,0,.23.3,4.68,4.68,0,0,0,.31.37,5.45,5.45,0,0,0,.47.51,24.1,24.1,0,0,0,2.19,2l.4.31,0,0c.47.36.95.71,1.44,1.06l.24.17c.67.47,1.34.91,2,1.31s1.17.75,1.68,1.06H16.2c-1-.92-2.2-2-3.48-3-.13-.11-.26-.22-.4-.32-2.58-2-5.36-3.67-7-3.42s-2.19,2.45-2.3,4.58c-.34-.38-.66-.76-1-1.15l-.29-.39-.27-.39a9.92,9.92,0,0,1-1.2-2.39c-.06-.17-.1-.33-.15-.5a6.29,6.29,0,0,1-.18-1c0-.16,0-.31,0-.47A5.26,5.26,0,0,1,.12,72c.05-.26.12-.52.2-.8a3.17,3.17,0,0,1,.12-.41c0-.17.1-.34.17-.52s.14-.4.22-.6.11-.3.18-.46.21-.53.33-.8c0,0,0,0,0,0,.12-.28.25-.56.39-.85.27-.58.58-1.17.9-1.77s.72-1.31,1.11-2c.21-.36.43-.72.65-1.08s.44-.71.67-1.07c-.44,3-.86,7.47.48,8.32C7.49,71.18,14,61.68,16.31,57.29a2.69,2.69,0,0,1,.16-.29h0l.21-.43a6.9,6.9,0,0,0,.4-1.11,15.15,15.15,0,0,0,.46-3.85c0-.69,0-1.35-.07-1.93a13.27,13.27,0,0,0-.18-1.45,6.6,6.6,0,0,1,2,4.26h0A9.81,9.81,0,0,1,19.08,55.26Z"/><path class="cls-33" d="M17,49.83a2.09,2.09,0,0,0-.16-.51,1.76,1.76,0,0,0-.41-.34c-.23-.14-.49-.19-.52-.11s.12.24.23.43a2.74,2.74,0,0,1,.2.36,2.36,2.36,0,0,1,.26.32c.12.17.22.38.3.38S17,50.1,17,49.83Z"/></g></g></g></svg>