<svg xmlns="http://www.w3.org/2000/svg" viewBox="0 0 44.32 81.91"><defs><style>.cls-1{isolation:isolate;}.cls-2,.cls-21,.cls-22,.cls-23,.cls-3{fill:#6f3a1e;}.cls-3{opacity:0.3;}.cls-12,.cls-14,.cls-16,.cls-18,.cls-20,.cls-21,.cls-22,.cls-25,.cls-26,.cls-29,.cls-3,.cls-30,.cls-31,.cls-32,.cls-7,.cls-8{mix-blend-mode:multiply;}.cls-14,.cls-17,.cls-21,.cls-27,.cls-30,.cls-31,.cls-4,.cls-7,.cls-8{opacity:0.5;}.cls-17,.cls-19,.cls-23,.cls-24,.cls-27,.cls-4,.cls-5{mix-blend-mode:screen;}.cls-16,.cls-29,.cls-5{opacity:0.45;}.cls-6{fill:#fff;}.cls-26,.cls-32,.cls-7,.cls-9{fill:#d3dbfd;}.cls-10,.cls-27{fill:#294168;}.cls-11,.cls-12{fill:#88ac76;}.cls-12{opacity:0.35;}.cls-13,.cls-14,.cls-17,.cls-24{fill:#f15e6b;}.cls-15,.cls-16,.cls-18,.cls-19,.cls-31{fill:#e5b678;}.cls-22,.cls-32{opacity:0.25;}.cls-25{opacity:0.34;}.cls-28,.cls-30{fill:#ffdab6;}.cls-29{fill:#ab7f4a;}</style></defs><title>regular_coffeeРесурс 14</title><g class="cls-1"><g id="Слой_2" data-name="Слой 2"><g id="OBJECTS"><path class="cls-2" d="M0,21.25s1,24.54,6,31.44,22.78,9,31.15.59,6.62-33.65,6.17-34.53S11.77,7.73,0,21.25Z"/><path class="cls-3" d="M9.38,37.2c-.22-2.4-.53-8.73-1.09-10.36a18.31,18.31,0,0,0-2-3.94s-3.86-.59-6.22-1c.07,1.41.29,5.12.76,9.56.13-.23.28-.38.46-.36.85.08,2.7,6.17,2.7,6.17s-.69-5.47.31-5.47S5.9,34,5.9,34s.46-1.62,1.62-.77C8.31,33.8,9.06,36,9.38,37.2Z"/><path class="cls-3" d="M9.38,37.2a3.22,3.22,0,0,0,.14.94C9.59,38.18,9.53,37.79,9.38,37.2Z"/><path class="cls-3" d="M41.76,37c-.07.39-.11.64-.11.64S41.7,37.34,41.76,37Z"/><path class="cls-3" d="M43.36,18.75c0-.05-.13-.12-.31-.21-.76.77-1.64,1.1-2.06.33a1.22,1.22,0,0,1,0-1.13c-1.49-.5-3.58-1.1-6.07-1.66L11.67,36.54s.12,7.39-.91,8.6S6.8,40,6.8,40s3.12,9,2.1,10-3.36-2.16-3.36-2.16,1.38,3.37.6,3.49c-.4.06-1.59-2.3-2.67-4.65a19.92,19.92,0,0,0,2.57,6A11,11,0,0,0,9,55.4a15.08,15.08,0,0,0,1.87.13c2.38,0,17.28-.76,24.57-.76a14.55,14.55,0,0,0,1.74-1.49,17.89,17.89,0,0,0,4-6.86c-3.8,4.74-5.2,3.56-5.56,2.08s2.23-5.65,2.23-5.65-3,3-3.55,1.8,6.37-9.79,7.21-10c.6-.13.44,1.38.29,2.29.27-1.41.93-4.61,1.4-4.52.15,0,.25.84.32,2C44.2,26.48,43.6,19.22,43.36,18.75Z"/><g class="cls-4"><path class="cls-2" d="M6.31,45.16a3.75,3.75,0,0,1-.18-.38c-.1-.24-.25-.59-.4-1-.33-.84-.73-2-1.1-3.13C3.9,38.34,3.37,36,3.37,36s-.51-2.36-.81-4.75c-.15-1.2-.26-2.4-.32-3.3,0-.45,0-.83-.05-1.09a2.26,2.26,0,0,1,0-.42,2.5,2.5,0,0,1,.06.41c0,.26.07.64.11,1.09.09.89.24,2.09.41,3.28.36,2.38.89,4.72.89,4.72s.5,2.35,1.17,4.66c.34,1.15.71,2.3,1,3.15.14.42.27.78.35,1A1.71,1.71,0,0,1,6.31,45.16Z"/></g><g class="cls-4"><path class="cls-2" d="M10.46,47.89a1.13,1.13,0,0,1-.16-.22c-.1-.14-.24-.34-.39-.59-.31-.5-.7-1.17-1.06-1.86a29.86,29.86,0,0,1-1.31-2.84,25.82,25.82,0,0,1-.91-3,19.72,19.72,0,0,1-.37-2.11,6,6,0,0,1-.07-.71,1,1,0,0,1,0-.27,9.7,9.7,0,0,1,.18,1c.1.57.27,1.33.47,2.08a29,29,0,0,0,1,2.94S8.36,43.72,9,45.12c.34.7.7,1.39,1,1.9A7,7,0,0,1,10.46,47.89Z"/></g><g class="cls-4"><path class="cls-2" d="M16,45.5a7.64,7.64,0,0,1-.09-1.18c0-.59-.1-1.18-.1-1.18s0-.58-.09-1.17a8.75,8.75,0,0,1-.11-1.17,4.4,4.4,0,0,1,.32,1.14c.12.59.18,1.18.18,1.18s0,.6,0,1.19A4.58,4.58,0,0,1,16,45.5Z"/></g><g class="cls-4"><path class="cls-2" d="M37.72,46.05a1.6,1.6,0,0,1,.16-.31c.1-.2.27-.46.44-.8.37-.66.82-1.55,1.24-2.46s.79-1.85,1-2.56.4-1.19.4-1.19.16-.47.38-1.19.47-1.69.68-2.67.37-2,.47-2.73c.06-.37.08-.68.11-.9a1.66,1.66,0,0,1,.06-.34,1.48,1.48,0,0,1,0,.34c0,.22,0,.54-.06.92-.06.75-.19,1.75-.37,2.75s-.42,2-.62,2.7-.36,1.22-.36,1.22-.16.48-.43,1.19-.67,1.64-1.11,2.55-.93,1.79-1.33,2.43c-.19.33-.37.59-.49.77A1.24,1.24,0,0,1,37.72,46.05Z"/></g><g class="cls-4"><path class="cls-2" d="M35.67,45.39s.57-.5,1-1.09A7.82,7.82,0,0,0,37.48,43a6.89,6.89,0,0,0,.57-1.37c.22-.72.26-1.47.31-1.47a4.19,4.19,0,0,1-.1,1.52,5.47,5.47,0,0,1-1.4,2.71A4,4,0,0,1,35.67,45.39Z"/></g><g class="cls-4"><path class="cls-2" d="M34.6,42.79s-.09.29-.25.55a5.33,5.33,0,0,1-.34.49s-.21.21-.44.4-.48.35-.51.32.17-.25.36-.47l.36-.45.4-.42C34.38,43,34.57,42.77,34.6,42.79Z"/></g><g class="cls-4"><path class="cls-2" d="M40.63,45.6a5.82,5.82,0,0,1-.28,1.72,8.21,8.21,0,0,1-.41,1.14c-.14.3-.25.49-.25.49a5.45,5.45,0,0,1-.31.46,10.47,10.47,0,0,1-.76.93,9.38,9.38,0,0,1-1.27,1.19s.56-.66,1.11-1.33a10,10,0,0,0,.69-1c.18-.27.28-.45.28-.45s.11-.18.26-.47a8,8,0,0,0,.46-1.07C40.44,46.45,40.59,45.59,40.63,45.6Z"/></g><g class="cls-5"><path class="cls-2" d="M1.77,35.92c.3,3.38.71,7.79,2.88,10.53a.3.3,0,0,0,.5-.21,30.1,30.1,0,0,0-1.27-4.87c-.47-1.85-.94-3.68-1.27-5.56a.43.43,0,0,0-.84.11Z"/></g><g class="cls-5"><path class="cls-2" d="M4.45,34.83A1.31,1.31,0,0,0,4.26,36a2.75,2.75,0,0,0,.51,1.33c.22.25.59,0,.61-.26a4.2,4.2,0,0,0-.28-1.3,1.47,1.47,0,0,0-.6-1Z"/></g><g class="cls-5"><path class="cls-2" d="M5.85,39.23A8,8,0,0,0,6.46,42c0,.09.18,0,.16-.07-.19-.93-.51-1.82-.72-2.75,0,0-.05,0-.05,0Z"/></g><g class="cls-5"><path class="cls-2" d="M7.26,34.29a4.07,4.07,0,0,0,.12,2.26,12.79,12.79,0,0,0,.84,2.85c.06.13.25.06.26-.07a11.36,11.36,0,0,0-.3-2.79C8,35.79,8,34.81,7.4,34.27c0,0-.12,0-.14,0Z"/></g><g class="cls-5"><path class="cls-2" d="M40.83,36.92a1.82,1.82,0,0,0-.6.85,2.62,2.62,0,0,0-.2,1.14.25.25,0,0,0,.46.12,4,4,0,0,0,.38-1,2.19,2.19,0,0,0,.14-.5A5,5,0,0,0,41,37a.09.09,0,0,0-.15-.06Z"/></g><g class="cls-5"><path class="cls-2" d="M42.34,37.28c-1.64,3.2-3.21,6.56-4.6,9.86-.15.35.26.77.56.44a15.93,15.93,0,0,0,4.17-10.27.07.07,0,0,0-.13,0Z"/></g><g class="cls-4"><path class="cls-2" d="M6.87,50.53A11.8,11.8,0,0,1,6,49.09a10.76,10.76,0,0,1-.61-1.58A11.8,11.8,0,0,1,6.26,49,10.76,10.76,0,0,1,6.87,50.53Z"/></g><path class="cls-6" d="M41.71,81.82s0,0,0,0H33.46c-.14-.53-.29-1-.41-1.51,0-.11-.06-.21-.09-.31s-.12-.46-.18-.68l-.18-.66h0a25.2,25.2,0,0,1-.54-2.47c-.07-.58-.27-2.08-.51-4.13l-.09-.74-.06-.43c0-.25,0-.51-.08-.77s-.08-.7-.12-1.06c-.09-.79-.18-1.61-.27-2.47,0,0,0,0,0,0h0c-.05-.47-.1-1-.14-1.45h0a.61.61,0,0,1,0-.14c0-.31-.07-.64-.1-1v-.08c0-.15,0-.3,0-.45h0v-.07l0-.34c-.07-.77-.13-1.56-.19-2.34,0-.21,0-.43-.05-.65-.06-.87-.11-1.75-.16-2.61s-.08-1.76-.1-2.61c-.13-4.92.16-9,1.37-10.16a.38.38,0,0,1,.09-.09h0l0,0,0,0,.07,0,.05,0,.11.06.06,0,.07.05.07,0,.06,0,.18.11,0,0q.36.22.81.57l.35.27.24.19,0,0,.09.08a2.61,2.61,0,0,1,.31.27l.06.06c.13.11.25.23.38.36l.19.19.25.27.07.08a3.88,3.88,0,0,1,.26.31l.15.19.14.19c.11.15.22.31.32.47a2.26,2.26,0,0,1,.15.31,1.19,1.19,0,0,1,.08.2c.06.17.12.36.18.59a1.21,1.21,0,0,1,.05.18c0,.18.09.38.14.59l.09.42c0,.08,0,.15.05.23l.06.36a.64.64,0,0,0,0,.07v0c0,.2.07.4.1.61h0c0,.33.11.68.16,1,0,0,0,0,0,.08a.68.68,0,0,0,0,.14v.05c0,.1,0,.21.05.31l.06.46a.08.08,0,0,0,0,0c0,.21.06.44.09.66s.07.56.1.85h0a.58.58,0,0,1,0,.19c0,.1,0,.21,0,.31s0,.07,0,.1l0,.25c0,.22.05.44.08.67l0,.2h0s0,.07,0,.11c0,.22,0,.45.08.69.08.7.16,1.42.23,2.14,0,.34.07.69.11,1a.77.77,0,0,0,0,.15s0,0,0,0a0,0,0,0,1,0,0v0c0,.22,0,.43.07.65s.07.68.1,1,.07.67.1,1h0c0,.17,0,.34.05.51l.09.94.06.63c.07.7.13,1.38.2,2l.06.75c.06.57.11,1.12.16,1.65A.13.13,0,0,1,39,71l0,.34.06.54c0,.17,0,.34,0,.51s0,.06,0,.09v0c0,.15,0,.3,0,.45a.34.34,0,0,1,0,.1c0,.13,0,.25,0,.37a.34.34,0,0,1,0,.1c0,.12,0,.23,0,.34a.38.38,0,0,1,0,.1c0,.12,0,.23,0,.33s0,.06,0,.09,0,.23,0,.34v0q0,.36.09.66v0a.28.28,0,0,1,0,.09l0,.2c0,.08,0,.14,0,.21s0,0,0,.06,0,.06,0,.09a.68.68,0,0,0,0,.14s0,0,0,.08l0,.12s0,.05,0,.07a.44.44,0,0,1,0,.1s0,0,0,.05l0,.12s0,.07,0,.11,0,0,0,0,0,.07,0,.11,0,0,0,.06l0,.14,0,.07.06.16,0,.08.09.23s0,0,0,0,.08.2.12.31a0,0,0,0,1,0,0l.12.29s0,.07,0,.11l.11.27,0,.08.15.38c.16.43.35.89.54,1.39l0,.06.09.24.09.23a0,0,0,0,1,0,0c.07.16.13.32.19.48Z"/><path class="cls-6" d="M41.75,81.91l0-.06h0A.14.14,0,0,0,41.75,81.91Z"/><path class="cls-7" d="M41.71,81.82s0,0,0,0H33.46c-.14-.53-.29-1-.41-1.51,0-.11-.06-.21-.09-.31s-.12-.46-.18-.68l-.18-.66h0a25.2,25.2,0,0,1-.54-2.47c-.07-.58-.27-2.08-.51-4.13l-.09-.74-.06-.43c0-.25,0-.51-.08-.77s-.08-.7-.12-1.06c-.09-.79-.18-1.61-.27-2.47,0,0,0,0,0,0h0c-.05-.47-.1-1-.14-1.45h0a.61.61,0,0,1,0-.14c0-.31-.07-.64-.1-1v-.08c0-.15,0-.3,0-.45h0v-.07l0-.34c-.07-.77-.13-1.56-.19-2.34,0-.21,0-.43-.05-.65-.06-.87-.11-1.75-.16-2.61s-.08-1.76-.1-2.61c-.13-4.92.16-9,1.37-10.16a.38.38,0,0,1,.09-.09h0l0,0,0,0,.07,0,.05,0,.11.06.06,0,.07.05.07,0,.06,0,.18.11,0,0q.36.22.81.57l.35.27.24.19,0,0,.09.08a2.61,2.61,0,0,1,.31.27l.06.06c.13.11.25.23.38.36l.19.19.25.27.07.08a3.88,3.88,0,0,1,.26.31l.15.19.14.19c.11.15.22.31.32.47a2.26,2.26,0,0,1,.15.31,1.19,1.19,0,0,1,.08.2c.06.17.12.36.18.59a1.21,1.21,0,0,1,.05.18c0,.18.09.38.14.59l.09.42c0,.08,0,.15.05.23l.06.36a.64.64,0,0,0,0,.07v0c0,.2.07.4.1.61h0c0,.33.11.68.16,1,0,0,0,0,0,.08a.68.68,0,0,0,0,.14v.05c0,.1,0,.21.05.31l.06.46a.08.08,0,0,0,0,0c0,.21.06.44.09.66s.07.56.1.85h0a.58.58,0,0,1,0,.19c0,.1,0,.21,0,.31s0,.07,0,.1l0,.25c0,.22.05.44.08.67l0,.2h0s0,.07,0,.11c0,.22,0,.45.08.69.08.7.16,1.42.23,2.14,0,.34.07.69.11,1a.77.77,0,0,0,0,.15s0,0,0,0a0,0,0,0,1,0,0v0c0,.22,0,.43.07.65s.07.68.1,1,.07.67.1,1h0c0,.17,0,.34.05.51l.09.94.06.63c.07.7.13,1.38.2,2l.06.75c.06.57.11,1.12.16,1.65A.13.13,0,0,1,39,71l0,.34.06.54c0,.17,0,.34,0,.51s0,.06,0,.09v0c0,.15,0,.3,0,.45a.34.34,0,0,1,0,.1c0,.13,0,.25,0,.37a.34.34,0,0,1,0,.1c0,.12,0,.23,0,.34a.38.38,0,0,1,0,.1c0,.12,0,.23,0,.33s0,.06,0,.09,0,.23,0,.34v0q0,.36.09.66v0a.28.28,0,0,1,0,.09l0,.2c0,.08,0,.14,0,.21s0,0,0,.06,0,.06,0,.09a.68.68,0,0,0,0,.14s0,0,0,.08l0,.12s0,.05,0,.07a.44.44,0,0,1,0,.1s0,0,0,.05l0,.12s0,.07,0,.11,0,0,0,0,0,.07,0,.11,0,0,0,.06l0,.14,0,.07.06.16,0,.08.09.23s0,0,0,0,.08.2.12.31a0,0,0,0,1,0,0l.12.29s0,.07,0,.11l.11.27,0,.08.15.38c.16.43.35.89.54,1.39l0,.06.09.24.09.23a0,0,0,0,1,0,0c.07.16.13.32.19.48Z"/><path class="cls-7" d="M41.75,81.91l0-.06h0A.14.14,0,0,0,41.75,81.91Z"/><path class="cls-7" d="M41.72,81.85h-.93c-1.16-.83-2.29-1.31-2.94-.74a1.14,1.14,0,0,0-.27.74H33.46c-.14-.53-.29-1-.41-1.51,0-.11-.06-.21-.09-.31s-.12-.46-.18-.68l-.18-.66h0a25.2,25.2,0,0,1-.54-2.47c-.07-.58-.27-2.08-.51-4.13l-.09-.74-.06-.43c0-.25,0-.51-.08-.77s-.08-.7-.12-1.06c-.09-.79-.18-1.61-.27-2.47,0,0,0,0,0,0h0c-.05-.47-.1-1-.14-1.45h0a.61.61,0,0,1,0-.14c0-.31-.07-.64-.1-1v-.08c0-.15,0-.3,0-.45h0v-.07l0-.34c-.07-.77-.13-1.56-.19-2.34,0-.21,0-.43-.05-.65-.06-.87-.11-1.75-.16-2.61s-.08-1.76-.1-2.61c-.13-4.92.16-9,1.37-10.16a.38.38,0,0,1,.09-.09h0l0,0,0,0,.07,0,.05,0,.11.06.06,0,.07.05.07,0,.06,0,.18.11,0,0q.36.22.81.57l.35.27.24.19,0,0,.09.08a2.31,2.31,0,0,1,.19.16l.06,0,.12.12.15.13.08.07.15.16.11.1.08.09.25.27.07.08a3.88,3.88,0,0,1,.26.31l.15.19.14.19c.11.15.22.31.32.47a2.26,2.26,0,0,1,.15.31,1.19,1.19,0,0,1,.08.2c.06.17.12.36.18.59a1.21,1.21,0,0,1,.05.18c0,.18.09.38.14.59l.09.42c0,.08,0,.15,0,.23s.05.23.07.36,0,0,0,.07v0c0,.2.07.4.1.61s.11.68.17,1c0,0,0,0,0,.08h0a.59.59,0,0,1,0,.13.43.43,0,0,0,0,.05c0,.1,0,.2,0,.31h0l.06.46a.08.08,0,0,0,0,0c0,.21,0,.43.08.66s.08.56.11.85h0a.58.58,0,0,1,0,.19l0,.31a.3.3,0,0,1,0,.1,2,2,0,0,1,0,.25h0c0,.22.05.44.08.67,0,.06,0,.12,0,.18s0,0,0,0h0s0,.07,0,.11c0,.22,0,.45.08.69.08.7.16,1.42.23,2.14,0,.34.07.69.11,1,0,.05,0,.1,0,.15v0a0,0,0,0,1,0,0v0c0,.22,0,.43.07.65s.07.68.1,1,.07.67.1,1h0c0,.17,0,.34.05.51l.09.94.06.63c.07.7.13,1.38.2,2,0,.26,0,.51.07.75,0,.57.11,1.12.15,1.65A.13.13,0,0,1,39,71a3.31,3.31,0,0,0,0,.33h0c0,.18,0,.36.05.54s0,.34,0,.51,0,.06,0,.09v0c0,.15,0,.3,0,.45a.34.34,0,0,1,0,.1c0,.13,0,.25,0,.37a.34.34,0,0,1,0,.1c0,.12,0,.23,0,.34a.38.38,0,0,1,0,.1c0,.12,0,.23,0,.33s0,.06,0,.09,0,.23,0,.34v0q0,.36.09.66v0a.28.28,0,0,1,0,.09l0,.2s0,.07,0,.1a.41.41,0,0,0,0,.11s0,0,0,.06,0,.06,0,.09a.68.68,0,0,0,0,.14s0,0,0,.08l0,.12s0,.05,0,.07a.44.44,0,0,1,0,.1s0,0,0,.05l0,.12s0,.07,0,.11,0,0,0,0,0,.07,0,.11,0,0,0,.06l0,.14,0,.07.06.16,0,.08.09.23s0,0,0,0,.08.2.12.31a0,0,0,0,1,0,0l.12.29s0,.07,0,.11l.11.27,0,.08.15.38c.16.43.35.89.54,1.39l0,.06.09.24.09.23a0,0,0,0,1,0,0c.07.16.13.32.19.48l0,.07S41.72,81.84,41.72,81.85Z"/><g class="cls-8"><path class="cls-9" d="M39.91,77.77a3.35,3.35,0,0,1-.67-.82A10.5,10.5,0,0,1,38.7,76a9,9,0,0,1-.37-1,3.54,3.54,0,0,1-.22-1,8.34,8.34,0,0,1,.42,1c.2.48.44.94.44.94s.21.48.45.94A8.34,8.34,0,0,1,39.91,77.77Z"/></g><path class="cls-10" d="M32.47,81.85H17.14a14.35,14.35,0,0,1,2.36-1.6l.1,0c.25-.13.51-.26.79-.38a3.52,3.52,0,0,1,.39-.16l.46-.17.2-.07h0l.07,0,.4-.12.28-.08.21,0L23,79h.07a10.34,10.34,0,0,1,2.18-.14l.34,0h.17a10.38,10.38,0,0,1,3,.73l.21.09A12.57,12.57,0,0,1,31.27,81,12.6,12.6,0,0,1,32.47,81.85Z"/><path class="cls-11" d="M32.47,81.85H17.14a14.35,14.35,0,0,1,2.36-1.6l.1,0c.25-.13.51-.26.79-.38a3.52,3.52,0,0,1,.39-.16l.46-.17.2-.07h0l.07,0,.4-.12.28-.08.21,0L23,79h.07a10.34,10.34,0,0,1,2.18-.14l.34,0h.17a10.38,10.38,0,0,1,3,.73l.21.09A12.57,12.57,0,0,1,31.27,81,12.6,12.6,0,0,1,32.47,81.85Z"/><path class="cls-12" d="M25.21,81.13a1.16,1.16,0,0,1-.62.55l-.38.17H17.14a14.35,14.35,0,0,1,2.36-1.6l.1,0c.25-.13.51-.26.79-.38a3.52,3.52,0,0,1,.39-.16l.46-.17.2-.07.07,0,.4-.12.28-.08.21,0L23,79h.07l1.35.85C24.89,80.15,25.4,80.63,25.21,81.13Z"/><path class="cls-12" d="M32.47,81.85H17.14a14.35,14.35,0,0,1,2.36-1.6l.1,0c.25-.13.51-.26.79-.38a3.52,3.52,0,0,1,.39-.16l.46-.17.2-.07h0l.07,0,.4-.12.28-.08.21,0L23,79h.07a10.34,10.34,0,0,1,2.18-.14l.34,0h.17a12.06,12.06,0,0,1,3,.77,1.89,1.89,0,0,1,.21.09A13.29,13.29,0,0,1,31.27,81C31.67,81.24,32.07,81.53,32.47,81.85Z"/><path class="cls-13" d="M38.82,63h0s0,0,0,0a6.19,6.19,0,0,1-.22,1.52c0,.16-.09.31-.14.45s-.08.24-.13.36a5.17,5.17,0,0,1-.28.64l-.12.25-.17.32c-.15.25-.29.48-.45.72h0a.18.18,0,0,1-.05.07c-.06.09-.11.19-.17.29l0,0h0l-.35.51-.36.5c-.15.21-.28.42-.41.64,0,0,0,0,0,0a1.28,1.28,0,0,0-.11.2,7.32,7.32,0,0,0-.33.69,5.38,5.38,0,0,0-.2.51,2.77,2.77,0,0,0-.1.26c0,.08,0,.16-.07.24s0,.16-.07.24l0,.1c-.08.28-.16.57-.22.86,0,.12-.06.23-.08.35l-.06.28c-.15.79-.27,1.58-.4,2.36-.36,2.24-.87,4.43-.32,6.42h-17a8.47,8.47,0,0,0,.42-1.55h0a10.8,10.8,0,0,0,.21-1.71s0,0,0,0c0-.27,0-.53,0-.8s0-.83,0-1.25c0-.1,0-.2,0-.3-.05-.73-.14-1.48-.24-2.23l-.09-.62-.15-1s0,0,0,0c0-.2-.07-.39-.1-.58,0,0,0,0,0,0-.07-.39-.14-.78-.22-1.17h0l-.09-.47c0-.07,0-.14,0-.21a1.57,1.57,0,0,0,0-.23h0s0,0,0,0c-.18-.92-.37-1.83-.55-2.74,0-.16-.06-.32-.1-.49s0-.12,0-.18l-.09-.37a1.74,1.74,0,0,0-.05-.22l-.09-.37c0-.08-.05-.16-.07-.25s-.06-.25-.1-.38-.05-.17-.07-.26v0a.29.29,0,0,1,0-.09h0l-.1-.3a2.5,2.5,0,0,0-.07-.26c-.05-.18-.1-.36-.16-.55l-.06-.21c-.08-.31-.18-.62-.27-1v0c0-.13-.08-.27-.13-.41s-.07-.25-.11-.38h0l-.21-.68,0-.1a3,3,0,0,1-.1-.32l-.15-.47-.07-.22-.36-1.15c-.09-.28-.18-.56-.26-.83l-.59-1.89h0L12.48,55l0-.13a38.59,38.59,0,0,1-1.54-5.72s0,0,0,0a1.41,1.41,0,0,1,0-.22.46.46,0,0,1,.09-.19l.05-.07c1.11-1.39,8.24-4,8.24-4l.29,0h0l.32,0,.36,0,1-.09c1.56-.14,3.79-.29,5.82-.28h.33a11.17,11.17,0,0,1,4,.54,1.22,1.22,0,0,1,.32.18c1.61,1.25,2.58,4.11,3.37,6.38,0,.14.09.27.14.4s.14.42.22.61.15.41.22.6.09.22.14.33.08.21.13.31a1.69,1.69,0,0,0,.12.28,2.33,2.33,0,0,0,.14.33h0c0,.06,0,.12.08.19s.17.4.26.6l.39.91a1.8,1.8,0,0,0,.08.21c.05.1.09.21.13.31s.1.23.14.35l.27.67.06.18s0,0,0,0h0a.36.36,0,0,1,0,.11c.09.22.17.45.24.68A16,16,0,0,1,38.45,60q.12.51.21,1a.13.13,0,0,1,0,.06c0,.2.06.4.09.6s0,.28,0,.42A6.43,6.43,0,0,1,38.82,63Z"/><path class="cls-14" d="M38.82,63h0s0,0,0,0a6.19,6.19,0,0,1-.22,1.52c0,.16-.09.31-.14.45s-.08.24-.13.36a5.17,5.17,0,0,1-.28.64l-.12.25-.17.32c-.15.25-.29.48-.45.72h0a.18.18,0,0,1-.05.07c-.06.09-.11.19-.17.29l0,0h0l-.35.51-.36.5c-.15.21-.28.42-.41.64,0,0,0,0,0,0a1.28,1.28,0,0,0-.11.2,7.32,7.32,0,0,0-.33.69c-.07.16-.14.34-.2.51L35.2,71c0,.07-.05.15-.08.23s0,.16-.07.24l0,.1c-.08.28-.16.57-.22.86,0,0,0,.09,0,.14s0,.14,0,.21l-.06.28a6.36,6.36,0,0,0-2.46-1.52,7.19,7.19,0,0,0-.74-.21l-.12,0-.22,0a4.51,4.51,0,0,0-.53-.09c-.64-.08-1.32-.15-2-.21-3.77-.3-7.83-.11-8.27,2a7.06,7.06,0,0,0-.06,2.17l.57-.37c0,.4-.08.79-.11,1.19s-.05.88-.05,1.31.33,1.08.52,1.58c.08.21.17.42.26.61h0c.13.3.27.57.4.82A10.87,10.87,0,0,0,23,81.85H16.9a8.47,8.47,0,0,0,.42-1.55h0a10.8,10.8,0,0,0,.21-1.71s0,0,0,0c0-.27,0-.53,0-.8s0-.83,0-1.25c0-.1,0-.2,0-.3-.05-.73-.14-1.48-.24-2.23l-.09-.62-.06-.32c0-.21-.06-.41-.1-.62s-.06-.4-.1-.61a.08.08,0,0,0,0,0q-.09-.59-.21-1.17h0l-.09-.47c0-.07,0-.14,0-.21a1.46,1.46,0,0,0-.05-.2v0c-.07-.39-.15-.78-.23-1.17-.1-.54-.21-1.08-.31-1.62,0-.16-.06-.32-.1-.49s0-.12,0-.18l-.09-.37a1.74,1.74,0,0,0-.05-.22l-.09-.37c0-.08-.05-.16-.07-.25s-.06-.25-.1-.38-.05-.17-.07-.26v0l0-.07L15.22,64a2.5,2.5,0,0,0-.07-.26c-.05-.18-.1-.36-.16-.55l-.06-.21c-.06-.21-.12-.42-.19-.64s-.06-.21-.08-.31v0c0-.13-.08-.27-.13-.41s-.07-.25-.11-.38h0l-.12-.36-.09-.32,0-.1a3,3,0,0,1-.1-.32l-.15-.47-.07-.22-.36-1.15c-.09-.28-.18-.56-.26-.83l-.59-1.89c-.06-.17-.11-.34-.16-.51l0-.13a9,9,0,0,1,2-3.47,41.3,41.3,0,0,0,1.33,4c.14.37.3.76.47,1.14.26.61.55,1.24.86,1.85.18.35.36.69.56,1h0a16.31,16.31,0,0,0,1.62,2.38c2.6,3.14,5.08,4.13,8.31,3.82h0a14.26,14.26,0,0,0,1.84-.29h0a0,0,0,0,0,0,0c.31-.06.62-.14.94-.22l.36-.09h0c.33-.08.64-.15.93-.2l.14,0c.51-.09,1-.15,1.36-.2.84-.09,1.49-.1,2-.11.26,0,.49,0,.7,0h0a2.12,2.12,0,0,0,.74-.19l0,0,.12-.07h0a2.35,2.35,0,0,0,.43-.36l0,0,0,0,.07-.09a1.79,1.79,0,0,0,.2-.34,5.3,5.3,0,0,0,.37-1c0-.15.08-.32.12-.5v0a0,0,0,0,0,0,0,0,0,0,0,0,0,0c.12-.53.22-1.11.3-1.7q.12.51.21,1a.13.13,0,0,1,0,.06c0,.2.06.4.09.6s0,.28,0,.42A6.43,6.43,0,0,1,38.82,63Z"/><path class="cls-15" d="M19.85,41.11s-.54,5.45,1.61,6.41,4.56,1,5.36-1.29,0-5.44,0-5.44S20.12,39.82,19.85,41.11Z"/><path class="cls-16" d="M25.83,47.6c-3.45-.53-5.58-4.5-4.43-3.92s4.55.12,5.78-.07a14,14,0,0,0-.36-2.82s-6.7-1-7,.32c0,0-.54,5.45,1.61,6.41C23,48.21,24.71,48.4,25.83,47.6Z"/><path class="cls-7" d="M25.2,48.34s3.23,3,3.86,1.36c0,0,0-.07,0-.1a26.06,26.06,0,0,0-1.9-4.67,2.73,2.73,0,0,1-2.36,2.38,4.49,4.49,0,0,1-4.61-2.7c-.24,1.17.69,3.59,2.49,6.78C23.18,51.5,24.11,51.2,25.2,48.34Z"/><path class="cls-6" d="M19.83,43.18c0-.39-1.3,3.87,2.43,7.6,0,0,1.25,1.37,2.86-2.86,0,0,3.24,3,3.86,1.37s-1.8-5.68-1.8-5.68.18,2.91-2.43,3.28A4.52,4.52,0,0,1,19.83,43.18Z"/><path class="cls-7" d="M29,48.75c-.62,1.62-3.86-1.37-3.86-1.37-1.61,4.23-2.86,2.86-2.86,2.86a8.69,8.69,0,0,1-2.67-5.84,8.55,8.55,0,0,0,2.67,6.38s1.25,1.37,2.86-2.86c0,0,3.24,3,3.86,1.37a2.14,2.14,0,0,0,.09-.9A1.9,1.9,0,0,1,29,48.75Z"/><g class="cls-4"><path class="cls-17" d="M37.2,59.69a3.72,3.72,0,0,1-.2-.87A14.52,14.52,0,0,0,36.46,57c-.23-.67-.5-1.33-.7-1.82l-.33-.83s-1.86-5.4-1.71-5.46S36,54.1,36,54.1l.29.84c.17.51.4,1.19.59,1.89a11,11,0,0,1,.36,2A2.48,2.48,0,0,1,37.2,59.69Z"/><path class="cls-17" d="M37.3,62.33c-.17,0-.2-.82-.2-.82s.24-.76.41-.74.19.82.19.82S37.46,62.36,37.3,62.33Z"/><path class="cls-17" d="M31.66,80.63c-.06,0,.41-.73.74-1.47A10.46,10.46,0,0,0,33,77.65a10,10,0,0,0,.44-1.55,14.57,14.57,0,0,1,.28-1.62,3.83,3.83,0,0,1,.15,1.68,9.28,9.28,0,0,1-.3,1.68,8.42,8.42,0,0,1-.75,1.52A3.85,3.85,0,0,1,31.66,80.63Z"/></g><g class="cls-8"><path class="cls-13" d="M18.8,79.13a4.08,4.08,0,0,1-.37-.66,5.19,5.19,0,0,0-.29-.72,1.73,1.73,0,0,0,.09.79,4,4,0,0,0,.31.75,3.7,3.7,0,0,0,.51.61,1.57,1.57,0,0,0,.66.44s-.27-.29-.5-.58A4.3,4.3,0,0,1,18.8,79.13Z"/><path class="cls-13" d="M27.26,68.94a11.52,11.52,0,0,1-1.69.14,10.91,10.91,0,0,1-1.67-.17c-.23,0-.41-.1-.54-.12l-.21-.05-.2-.06c-.13,0-.32-.07-.53-.15a10.53,10.53,0,0,1-1.55-.66,11.3,11.3,0,0,1-1.42-.93,6.66,6.66,0,0,0-.6-.48,2.67,2.67,0,0,0,.53.57,9.33,9.33,0,0,0,1.38,1,10.62,10.62,0,0,0,1.57.73c.22.09.41.13.54.18l.21.06.21,0c.14,0,.33.08.56.11a10,10,0,0,0,1.73.11,9.58,9.58,0,0,0,1.7-.23,2.9,2.9,0,0,0,.74-.25S27.71,68.87,27.26,68.94Z"/><path class="cls-13" d="M33.5,77.76s0,.44-.08.87a4.08,4.08,0,0,1-.22.82,4.14,4.14,0,0,1-.34.78c-.2.37-.5.69-.48.73a1.78,1.78,0,0,0,.66-.62,3.39,3.39,0,0,0,.44-.79,4.1,4.1,0,0,0,.16-.9A1.78,1.78,0,0,0,33.5,77.76Z"/><path class="cls-13" d="M36.82,67.58c-.36.22-.73.41-.73.41s-.35.22-.73.41a5.87,5.87,0,0,0-.76.38,2.18,2.18,0,0,0,.84-.19,6.89,6.89,0,0,0,.8-.34,5.89,5.89,0,0,0,.7-.5,2.18,2.18,0,0,0,.6-.62A5,5,0,0,0,36.82,67.58Z"/><path class="cls-13" d="M31.88,65.85q0,.2,0,.36v.1c0,.12,0,.26,0,.43s0,.42,0,.67l0,.38h0c0,.41-.08.86-.13,1.33s-.13,1.06-.21,1.6l0,.18-.06.4c-.06.37-.13.74-.2,1.09h0c-.12.59-.24,1.14-.36,1.6-.21.89-.38,1.48-.38,1.48s-.16.58-.45,1.45-.62,1.75-.95,2.78c0,0,0,0,0,0s-.07.23-.11.34c-.19.59-.35,1.19-.47,1.75h-.17A15.29,15.29,0,0,1,28.67,80c0-.12.07-.25.11-.37s0,0,0,0c.31-1,.66-2,.9-2.78s.42-1.44.42-1.44.18-.58.4-1.46c.1-.38.21-.82.31-1.3s.2-.91.3-1.38c0-.19.07-.38.1-.57s.06-.37.1-.56c.05-.34.1-.69.14-1,.09-.55.15-1.07.2-1.52,0-.07,0-.14,0-.2a2.38,2.38,0,0,0,0-.36c0,.14-.07.25-.09.33l0,.1h0s0-.19.08-.43a2.84,2.84,0,0,0,.05-.36c0-.23.05-.51.06-.82a8,8,0,0,0-.05-1.06,11.25,11.25,0,0,0-.28-1.43c0-.09-.05-.19-.08-.28a.66.66,0,0,0-.06-.2,5.05,5.05,0,0,0-.18-.55,16.76,16.76,0,0,0-.7-1.6c-.31-.61-.62-1.16-.89-1.63l-.71-1.22-.12-.21s-.33-.57-.79-1.45c-.19-.37-.4-.8-.61-1.27-.29-.64-.58-1.35-.83-2.07a26.92,26.92,0,0,1-1-3.5c-.08-.37-.13-.69-.17-1a2.23,2.23,0,0,1,0-.23,1.37,1.37,0,0,1,0-.19s0-.06,0-.09h0c0-.07,0-.13,0-.15a.42.42,0,0,1,.05.14h0s0,.1,0,.16l0,.12c0,.09,0,.2.07.32s.12.52.2.84a27,27,0,0,0,1.08,3.45c.28.75.6,1.49.91,2.14.2.42.4.81.58,1.15.46.87.8,1.43.8,1.43l.16.28L29.76,59c.18.33.39.71.6,1.12a16.82,16.82,0,0,1,.95,2.18c.05.16.1.31.14.47a2.72,2.72,0,0,1,.11.38,1.14,1.14,0,0,1,.06.25,8.16,8.16,0,0,1,.23,1.4A5.8,5.8,0,0,1,31.88,65.85Z"/></g><g class="cls-4"><path class="cls-13" d="M33,63.4a7.53,7.53,0,0,1-1.21,0,6.45,6.45,0,0,0-2.55.34,14.37,14.37,0,0,1-2.59.76,5.44,5.44,0,0,1-1.26.07l-.35,0a4.67,4.67,0,0,1-.9-.25,8.84,8.84,0,0,1-2.33-1.4,11.21,11.21,0,0,1-2-1.79A2.38,2.38,0,0,1,19.27,60c.05,0,.26.42.76.93a13.22,13.22,0,0,0,2.07,1.6,9.09,9.09,0,0,0,2.26,1.22,3.86,3.86,0,0,0,.8.18,2.33,2.33,0,0,0,.31,0,5.16,5.16,0,0,0,1.15,0,15.57,15.57,0,0,0,2.53-.62,6.57,6.57,0,0,1,1.44-.24,7.93,7.93,0,0,1,1.26.08A4.22,4.22,0,0,1,33,63.4Z"/></g><path class="cls-15" d="M39.93,21.77A2.33,2.33,0,0,1,43.16,21c2.2,1.45,1.1,9-1.89,8.94S39.4,21.61,39.93,21.77Z"/><path class="cls-16" d="M39.93,21.77A2.33,2.33,0,0,1,43.16,21c2.2,1.45,1.1,9-1.89,8.94S39.4,21.61,39.93,21.77Z"/><path class="cls-18" d="M42.67,27.71c0-.06-.22,0-.48-.08a.46.46,0,0,1-.32-.26.77.77,0,0,1,0-.5.9.9,0,0,1,.28-.43c.11-.11.26-.15.46-.31a.87.87,0,0,0,.28-.77.7.7,0,0,0-.09-.29.83.83,0,0,0-.16-.24,1.18,1.18,0,0,0-.28-.23,1.12,1.12,0,0,0-.22-.09h0s0,0,0,0a1.09,1.09,0,0,0,0-.13.69.69,0,0,1,0-.2,2.38,2.38,0,0,1,.31-.8c.29-.51.73-.71.72-.79s-.53,0-1,.5a2.68,2.68,0,0,0-.52.94,2.33,2.33,0,0,0-.07.25,1.55,1.55,0,0,0,0,.29c0,.24,0,.48,0,.65a2.72,2.72,0,0,1,.43,0,.31.31,0,0,1,.1.05.79.79,0,0,1,.13.13.46.46,0,0,1,.06.1s0,0,0,0a5.4,5.4,0,0,0-.45.39,1.58,1.58,0,0,0-.39.82,1.23,1.23,0,0,0,.17.88.64.64,0,0,0,.57.29C42.5,27.92,42.68,27.75,42.67,27.71Z"/><path class="cls-16" d="M41.27,30c-3-.1-1.87-8.37-1.34-8.21a2.78,2.78,0,0,1,1.69-1.12,5.36,5.36,0,0,0,.2,3.07s.79-1.25,1.21-.83-.22,2.42.68,2.62c.28.06.46-.16.58-.49C44.12,27.45,43,30,41.27,30Z"/><g class="cls-4"><path class="cls-19" d="M44.05,22.72c.12.42.07.84-.12,1s-.46-.16-.58-.59-.08-.85.12-.95S43.92,22.29,44.05,22.72Z"/><path class="cls-19" d="M43.28,21.49a.34.34,0,0,1-.15.39.21.21,0,0,1-.32-.11.33.33,0,0,1,.15-.38A.21.21,0,0,1,43.28,21.49Z"/></g><path class="cls-15" d="M6.54,22C6.3,15.2,9.1,4.19,23.4,4.08S39.94,19.75,39.94,19.75A43.19,43.19,0,0,1,41.27,30c-.17,4.43-2.48,11-12.77,12.08s-18.22-3.27-20.07-9.6a5.26,5.26,0,0,1-4.85-4.24C2.86,25.3,4.45,22.34,6.54,22Z"/><g class="cls-20"><path class="cls-16" d="M6.54,22a21.9,21.9,0,0,1,.83-6.83A17.59,17.59,0,0,1,9.7,10.28C7.64,13.74,7.28,18.94,7.39,22.1c-.18,0-.61-.09-.9-.1Z"/><path class="cls-16" d="M4.66,23.14a6.07,6.07,0,0,0-.42,4.07,5.26,5.26,0,0,0,4.85,4.24c1.85,6.33,9.78,10.65,20.07,9.6,5.42-.56,8.63-2.65,10.47-5.15-1.7,2.93-5,5.53-11.13,6.16-10.29,1-18.22-3.27-20.07-9.6a5.26,5.26,0,0,1-4.85-4.24A5.85,5.85,0,0,1,4.66,23.14Z"/></g><g class="cls-20"><path class="cls-15" d="M5.8,29.8a.94.94,0,0,0,.42.84.71.71,0,0,0,.42.15.68.68,0,0,0,.52-.24,1.17,1.17,0,0,0,.31-.64.88.88,0,0,0-.22-.78,3.21,3.21,0,0,0-.44-.29.69.69,0,0,1-.21-.26A1,1,0,0,1,6.54,28a.46.46,0,0,1,.32-.33.28.28,0,0,1,.13,0h.13l.08,0,0,0,.11.16c.16.24.29.3.44.31A.46.46,0,0,0,8.06,28a.72.72,0,0,0,.15-.29,4,4,0,0,0,.08-.88c0-.21,0-.41,0-.62a3.44,3.44,0,0,0-.32-1.13,1.87,1.87,0,0,0-.6-.73c-.43-.32-.8-.22-.79-.17s.31.1.63.45a2.57,2.57,0,0,1,.58,1.68,4.87,4.87,0,0,1,0,.54c0,.17,0,.13,0,.17s-.07,0-.07,0h0l-.09-.08a1.24,1.24,0,0,0-.2-.1,1,1,0,0,0-.65,0,.93.93,0,0,0-.28.16,1.39,1.39,0,0,0-.5.83A1.75,1.75,0,0,0,6.11,29a1.24,1.24,0,0,0,.44.44,3.07,3.07,0,0,1,.39.18.24.24,0,0,1,.09.22.75.75,0,0,1-.13.34.42.42,0,0,1-.55.13C6,30.15,5.84,29.76,5.8,29.8Z"/></g><path class="cls-19" d="M5.15,24.37c-.3.31-.64.4-.76.2s0-.59.31-.89.64-.39.76-.2S5.45,24.07,5.15,24.37Z"/><path class="cls-19" d="M6.27,22.9a.33.33,0,0,1-.15.38.21.21,0,0,1-.32-.1A.36.36,0,0,1,6,22.79.21.21,0,0,1,6.27,22.9Z"/><path class="cls-2" d="M18.15,27.76s-.23.11-.49.08a1.53,1.53,0,0,1-.49-.14,1.76,1.76,0,0,1-.36-.36c-.15-.21-.21-.46-.17-.47s.16.18.33.33a2,2,0,0,0,.36.24,1.64,1.64,0,0,0,.38.19C17.92,27.71,18.15,27.72,18.15,27.76Z"/><path class="cls-2" d="M18.64,28.26s-.21.21-.49.28a2,2,0,0,1-.59.06,1.89,1.89,0,0,1-.55-.2c-.26-.15-.44-.38-.41-.4s.25.12.5.2a1.89,1.89,0,0,0,.5.1,2.12,2.12,0,0,0,.51,0C18.37,28.32,18.62,28.22,18.64,28.26Z"/><path class="cls-2" d="M37.2,25.18s.14.22.09.46a1,1,0,0,1-.2.46,1,1,0,0,1-.44.23c-.24.06-.48,0-.46-.07s.22,0,.39-.14a.8.8,0,0,0,.29-.23,1,1,0,0,0,.22-.3C37.17,25.41,37.16,25.19,37.2,25.18Z"/><path class="cls-2" d="M37.66,26.14s0,.3-.13.54a.92.92,0,0,1-1,.45c-.3,0-.52-.23-.49-.27a4.61,4.61,0,0,0,.51.06,1.51,1.51,0,0,0,.84-.37C37.54,26.38,37.62,26.13,37.66,26.14Z"/><path class="cls-2" d="M33.78,25.59c0,1.36.57,2.47,1.34,2.47s1.39-1.1,1.42-2.46-.57-2.46-1.33-2.47S33.81,24.23,33.78,25.59Z"/><path class="cls-21" d="M33.78,25.59c0,1.36.57,2.47,1.34,2.47s1.39-1.1,1.42-2.46-.57-2.46-1.33-2.47S33.81,24.23,33.78,25.59Z"/><path class="cls-22" d="M34.56,23.42a4.52,4.52,0,0,0-.16,1.07c0,1.36.57,2.47,1.33,2.47a1,1,0,0,0,.65-.29c-.24.82-.72,1.39-1.26,1.39-.77,0-1.36-1.11-1.34-2.47A3.15,3.15,0,0,1,34.56,23.42Z"/><path class="cls-23" d="M36.27,25.18c0,.46-.14.86-.38.88s-.46-.33-.49-.8.14-.86.38-.89S36.24,24.71,36.27,25.18Z"/><path class="cls-23" d="M35.33,23.93a.18.18,0,0,0,.17.19.2.2,0,0,0,.19-.19.18.18,0,1,0-.36,0Z"/><path class="cls-2" d="M17.58,26.76c.15,1.36.89,2.38,1.64,2.29s1.25-1.26,1.09-2.61-.88-2.38-1.64-2.29S17.43,25.41,17.58,26.76Z"/><path class="cls-21" d="M17.58,26.76c.15,1.36.89,2.38,1.64,2.29s1.25-1.26,1.09-2.61-.88-2.38-1.64-2.29S17.43,25.41,17.58,26.76Z"/><path class="cls-22" d="M18,24.57a3.8,3.8,0,0,0,0,.89c.15,1.35.88,2.38,1.64,2.29a1,1,0,0,0,.64-.42c-.1.94-.52,1.65-1.1,1.72-.75.09-1.49-.93-1.64-2.29A3.17,3.17,0,0,1,18,24.57Z"/><path class="cls-23" d="M19.88,26c.09.46,0,.87-.26.92s-.5-.27-.59-.73,0-.88.26-.93S19.79,25.53,19.88,26Z"/><path class="cls-23" d="M18.79,24.87A.19.19,0,0,0,19,25a.19.19,0,0,0,.16-.21.18.18,0,0,0-.2-.17A.17.17,0,0,0,18.79,24.87Z"/><path class="cls-16" d="M25.75,30.66a5.52,5.52,0,0,0,4.34-1.18s1.21.78-.95,1.6C26.26,32.18,25.75,30.66,25.75,30.66Z"/><g class="cls-20"><path class="cls-15" d="M27,31.27a6,6,0,0,0,.9,0,5.34,5.34,0,0,0,1.85-.63,1.13,1.13,0,0,0,.6-.63.56.56,0,0,0-.25-.56,1.63,1.63,0,0,0-.51-.22,1,1,0,0,0-.21,0,2.28,2.28,0,0,0-.51,0,2.64,2.64,0,0,0-.61.1,2.05,2.05,0,0,0-.37.13,6.59,6.59,0,0,0-.79.49v-1c0-.19,0-.4,0-.61,0-.41,0-.84.05-1.22a6.28,6.28,0,0,1,.13-1.36,5.19,5.19,0,0,1,.16,1.36c0,.38.05.81.07,1.23l0,.61c0,.06,0,.08,0,.09l.08-.06.43-.18a3.51,3.51,0,0,1,.73-.15,2.78,2.78,0,0,1,.63,0,1.87,1.87,0,0,1,.28.06,1.94,1.94,0,0,1,.7.36,1.35,1.35,0,0,1,.35.45,1.09,1.09,0,0,1,0,.67,1.52,1.52,0,0,1-.88.88,4.86,4.86,0,0,1-2,.48A1.31,1.31,0,0,1,27,31.27Z"/></g><path class="cls-19" d="M28.94,29.59c0,.14-.14.35-.43.47s-.58.1-.64,0,.14-.35.43-.46S28.88,29.45,28.94,29.59Z"/><path class="cls-16" d="M22.46,30.9c0,1.36-1.72,2.48-3.87,2.51S14.67,32.35,14.66,31s1.72-2.49,3.87-2.51S22.44,29.54,22.46,30.9Z"/><path class="cls-16" d="M40.52,29.11c.26,1.33-1.22,2.74-3.31,3.15s-4-.35-4.25-1.69,1.22-2.74,3.31-3.15S40.26,27.77,40.52,29.11Z"/><path class="cls-2" d="M19.48,20.44c0,.08-.38.11-.69.25a2.37,2.37,0,0,0-.58.33,2.56,2.56,0,0,0-.56.35c-.26.22-.45.53-.53.5s0-.42.21-.77a2.44,2.44,0,0,1,.57-.6,2.58,2.58,0,0,1,.79-.23C19.11,20.23,19.49,20.36,19.48,20.44Z"/><path class="cls-2" d="M36.33,20.36c-.07,0-.32-.25-.63-.43a2.63,2.63,0,0,0-.63-.28,2.43,2.43,0,0,0-.65-.22,1.48,1.48,0,0,0-.47,0c-.13,0-.22.05-.25,0s0-.13.15-.24a1.21,1.21,0,0,1,.57-.2,2.22,2.22,0,0,1,.87.08,2.51,2.51,0,0,1,.69.51C36.27,19.92,36.41,20.33,36.33,20.36Z"/><path class="cls-16" d="M39.94,19.75S37.77,4,23.4,4.08,6.3,15.2,6.54,22C5,22.26,3.65,24,3.44,26.17c1.64-.44,3.46-2.34,4-2.91.24,1.6,1.15,7.11,1.84,11.2A12.07,12.07,0,0,0,12.16,38c.2-4.24.57-12.22.75-15.35a16.73,16.73,0,0,0,3-1.89,35.43,35.43,0,0,0,8.16-8.56S33,16.71,38.43,15.82c0,0,2,5,2,7l.11-.13C40.26,21,39.94,19.75,39.94,19.75Z"/><path class="cls-2" d="M28.16.39C21.65-1.07,18.54,2,18.54,2S11.22-.73,5.75,4.91c0,0-5,1.67-5.71,13.86C-.59,30,5.83,23.33,6.88,22.18c.4,2.65,2.64,16,2.64,16l2,1.5s.62-13.74.87-18.08a17.44,17.44,0,0,0,3-1.9,35.51,35.51,0,0,0,8.16-8.55s9,4.52,14.35,3.63c0,0,2,5,2,7,0,0,1.42-1.81,3.23-.73C43.16,21,44.72,4.1,28.16.39Z"/><path class="cls-3" d="M19.3,15.92l-.27.2c-.67.49-1.43,1-2.23,1.53l-.05,0c-2.73,1.78-5.82,3.43-6.47,3-1-.71.39-3.34.52-3.58a33.52,33.52,0,0,1-3.42,3.2c-.29.22-.57.44-.86.63-1.31.89-2.59,1.39-3.32.7a3.23,3.23,0,0,1-.5-2.82,17.49,17.49,0,0,1,.81-3.06l.09-.2.08-.2c.2-.57.41-1.09.58-1.49a21.35,21.35,0,0,1-1.09,1.93s0,0,0,.05c-.65,1-1.4,1.9-2,1.67S.63,15.12.83,12.94l0,.08v0c-.06.25-.11.5-.16.76C.53,14.36.43,15,.34,15.59c0,.33-.09.67-.12,1s-.07.7-.1,1.06S.06,18.4,0,18.78c0,.73,0,1.38,0,2,0,.16,0,.31,0,.46v0a6.39,6.39,0,0,0,.05.64c0,.13,0,.25,0,.37l.06.36q0,.16.06.3c0,.1,0,.2.07.3a2.76,2.76,0,0,0,.08.27,3,3,0,0,0,.43.92,1.09,1.09,0,0,0,.13.17,2,2,0,0,0,.19.21,1.56,1.56,0,0,0,.27.2l.14.07.15.06.19,0h0a1.89,1.89,0,0,0,.63,0l.23,0,.06,0h.06l.07,0,.12,0a1.33,1.33,0,0,0,.28-.1l0,0,.22-.1.12-.07h0l.44-.25h0l.09-.06,0,0,.38-.27A3.15,3.15,0,0,0,5,23.92l.47-.38.35-.32.37-.34,0,0,.26-.25.12-.13.27-.29c0,.17.06.37.09.61s0,.26.06.4a2.7,2.7,0,0,1,.06.41h0c0,.21.07.44.11.68h0a1.52,1.52,0,0,1,0,.21h0a0,0,0,0,1,0,0c0,.08,0,.16,0,.25h0c0,.32.11.65.16,1s.12.7.18,1.07l0,.17h0c.06.35.11.71.17,1.08h0q.12.81.27,1.65c.06.35.11.7.17,1.05v-.66c0-.44,0-.87,0-1.3h0c0-.12,0-.22,0-.33v0c0-.36.06-.7.1-1v0a2.19,2.19,0,0,1,.47-1.31c.5-.39.77.58.91,1.58a.13.13,0,0,1,0,.06c.11.87.13,1.74.13,1.74a22.39,22.39,0,0,1,.14-2.35c0-.06,0-.11,0-.15.15-1,.4-2,.91-1.94.24,0,.42.46.55,1.09v.08c0,.29.1.63.14,1v0c.12,1.18.16,2.64.17,3.83L11.94,30c0-.36,0-.72.05-1.08,0-.65.07-1.3.1-1.93,0-.36,0-.72.05-1.07s0-.47,0-.7,0-.29,0-.43,0-.28,0-.42c0-.76.08-1.45.11-2,0-.13,0-.26,0-.38s0-.23,0-.34a17.44,17.44,0,0,0,3-1.9c.35-.27.69-.54,1-.81l.84-.7,1-.94.56-.54.06-.05.52-.52.06-.06.41-.41.13-.14.27-.29.14-.15,0,0C20.14,15.27,19.75,15.59,19.3,15.92Z"/><path class="cls-3" d="M25.88,10.67a4.46,4.46,0,0,1,3.24.07S23.2,6.58,24.4,5.25a13.46,13.46,0,0,1,3.88-2.47s-3.32-.07-5,1.06c0,0-2.62-.1-.39-1.5,0,0-2.11-.41-2.32-1.53a6.89,6.89,0,0,0-2,1.23,13.48,13.48,0,0,0-7.89-.15,3.2,3.2,0,0,1,2.47.54c1.06,1.12-2,4.27-2,4.27S15,4.82,15.8,5.17s-4,4.16-4,4.16S17.28,6.8,17.49,7.5s-1.9,2.82-1.9,2.82,6.27-4.09,5.43.92a13.91,13.91,0,0,1-2.18,5.43,31.72,31.72,0,0,0,4.7-5.56,47.2,47.2,0,0,0,6.27,2.52C27.79,12.66,25,11.14,25.88,10.67Z"/><g class="cls-4"><path class="cls-2" d="M12.44,21s.09-.09.26-.22l.74-.54c.6-.45,1.41-1,2.21-1.65s1.57-1.23,2.14-1.72.93-.83.93-.83a25.42,25.42,0,0,0,2.77-2.88,23.29,23.29,0,0,0,1.58-2.25l.46-.78a1.19,1.19,0,0,1,.19-.29s0,.12-.13.32-.24.48-.42.81a18.15,18.15,0,0,1-1.52,2.32,24.81,24.81,0,0,1-2.72,3s-.38.34-1,.82-1.38,1.1-2.19,1.68-1.65,1.16-2.28,1.57l-.76.5A1.54,1.54,0,0,1,12.44,21Z"/></g><g class="cls-4"><path class="cls-2" d="M12.24,21.37a2.89,2.89,0,0,1-.9.71,6.13,6.13,0,0,1-1.06.45,6.41,6.41,0,0,1-1.15.14A2.84,2.84,0,0,1,8,22.51s.57,0,1.12-.05a6.27,6.27,0,0,0,1.08-.23,6.22,6.22,0,0,0,1-.35C11.75,21.66,12.21,21.34,12.24,21.37Z"/></g><g class="cls-4"><path class="cls-2" d="M18.58,8.05s.12-.31.34-.56a3.38,3.38,0,0,1,.5-.45A3.56,3.56,0,0,1,20,6.79a1.22,1.22,0,0,1,.66-.07,3.23,3.23,0,0,1-.58.26,4.1,4.1,0,0,0-.54.32,4.32,4.32,0,0,0-.51.34C18.82,7.84,18.61,8.08,18.58,8.05Z"/></g><g class="cls-4"><path class="cls-2" d="M9.37,13.11a1,1,0,0,1,.09-.29,5.45,5.45,0,0,1,.32-.73,8.83,8.83,0,0,1,1.37-2,12.06,12.06,0,0,1,1.78-1.66c.53-.4.9-.63.9-.63s.38-.24,1-.55a24.22,24.22,0,0,1,2.19-1,9.43,9.43,0,0,1,2.31-.74,2,2,0,0,1,.8.08c.19.07.28.14.27.15a2.1,2.1,0,0,0-1.06-.11,9.48,9.48,0,0,0-2.23.82,23.44,23.44,0,0,0-2.14,1.08c-.57.32-.93.56-.93.56s-.38.23-.9.61a12.65,12.65,0,0,0-1.8,1.57,10,10,0,0,0-1.42,1.91C9.56,12.71,9.4,13.12,9.37,13.11Z"/></g><g class="cls-4"><path class="cls-2" d="M1.77,26.21s.27-.23.69-.56,1-.77,1.52-1.23C5.06,23.49,6,22.48,6,22.48s1-1,1.94-2.08c.46-.54.91-1.09,1.23-1.51a6.53,6.53,0,0,1,.56-.7,6.24,6.24,0,0,1-.46.76c-.3.45-.72,1-1.16,1.59-.89,1.12-1.89,2.15-1.89,2.15s-1,1-2.15,1.89c-.56.45-1.13.87-1.58,1.17A4.12,4.12,0,0,1,1.77,26.21Z"/></g><g class="cls-4"><path class="cls-2" d="M4.22,22.07a6.35,6.35,0,0,1-.7,1l-.73,1L2,25a7.09,7.09,0,0,1-.79.94,5.93,5.93,0,0,1,.62-1.07c.33-.51.69-1,.69-1s.39-.48.8-.93A5.28,5.28,0,0,1,4.22,22.07Z"/></g><g class="cls-4"><path class="cls-2" d="M8.93,8.41l-.25.3L8,9.45c-.58.61-1.35,1.43-2.05,2.3a17.51,17.51,0,0,0-1.72,2.53,10.65,10.65,0,0,0-.61,1.25s-.23.5-.51,1.29-.58,1.87-.89,2.95-.61,2.16-.84,3l-.29,1a1.5,1.5,0,0,1-.13.36A2.47,2.47,0,0,1,1,23.7l.24-1c.2-.82.48-1.9.75-3s.56-2.18.83-3,.49-1.32.49-1.32A12.82,12.82,0,0,1,4,14.14a17.65,17.65,0,0,1,1.81-2.53C6.5,10.75,7.29,10,7.89,9.36l.74-.7A1.85,1.85,0,0,1,8.93,8.41Z"/></g><g class="cls-4"><path class="cls-2" d="M10.73,7.15a2.41,2.41,0,0,1,.42-.45c.27-.26.63-.59,1-.92s.77-.62,1.07-.84.52-.35.52-.35a9.48,9.48,0,0,1,1.82-.82,4.94,4.94,0,0,1,2-.26,3,3,0,0,1-.61.11A7.42,7.42,0,0,0,15.64,4a9.48,9.48,0,0,0-1.73.88A16.49,16.49,0,0,0,12.29,6C11.51,6.55,10.76,7.19,10.73,7.15Z"/></g><g class="cls-4"><path class="cls-2" d="M3.84,9.81s-.35.74-.68,1.48-.61,1.49-.61,1.49-.31.75-.56,1.52-.45,1.56-.49,1.55a7.16,7.16,0,0,1,.29-1.61c.2-.79.48-1.57.48-1.57s.31-.76.7-1.48A7.77,7.77,0,0,1,3.84,9.81Z"/></g><g class="cls-4"><path class="cls-2" d="M10.71,42.8c-.09,0,.45-10.44.45-10.44s.67-10.42.75-10.41-.45,10.43-.45,10.43S10.79,42.8,10.71,42.8Z"/></g><g class="cls-4"><path class="cls-2" d="M9.12,39.73a2.46,2.46,0,0,1,0-.37c0-.24,0-.57-.06-1,0-.81-.12-1.89-.21-3-.17-2.16-.42-4.3-.42-4.3S8.17,29,7.88,26.83c-.15-1.07-.31-2.14-.43-2.94l-.15-1a1.47,1.47,0,0,1,0-.37,2.2,2.2,0,0,1,.1.36c0,.23.12.56.2,1,.16.79.35,1.86.53,2.92.35,2.14.6,4.29.6,4.29s.22,2.16.33,4.32c.06,1.08.1,2.16.12,3,0,.4,0,.74,0,1A1.12,1.12,0,0,1,9.12,39.73Z"/></g><g class="cls-4"><path class="cls-2" d="M9.9,30.19a12.88,12.88,0,0,1-.05-1.71l0-1.7v-1.7a12.87,12.87,0,0,1,0-1.71,10.89,10.89,0,0,1,.19,1.7c.05.85.08,1.71.08,1.71s0,.85-.06,1.71A10.37,10.37,0,0,1,9.9,30.19Z"/></g><g class="cls-4"><path class="cls-2" d="M24.59,1.71a5.39,5.39,0,0,1-.88.29,6.89,6.89,0,0,0-.83.34,8.79,8.79,0,0,0-.82.39,7.65,7.65,0,0,1-.8.46,2.38,2.38,0,0,1,.68-.64,6,6,0,0,1,.81-.48,6.58,6.58,0,0,1,.91-.28A2.51,2.51,0,0,1,24.59,1.71Z"/></g><g class="cls-4"><path class="cls-2" d="M31.53,3.05a7.58,7.58,0,0,1-.77-.1,11.83,11.83,0,0,0-1.68-.11A12.61,12.61,0,0,0,27.41,3c-.45.07-.75.14-.75.14s-.3.06-.74.18a12.58,12.58,0,0,0-1.58.55,13.26,13.26,0,0,0-1.49.8,5.25,5.25,0,0,1-.66.4,4,4,0,0,1,.59-.5,10.53,10.53,0,0,1,1.47-.89A12.1,12.1,0,0,1,25.84,3c.45-.13.76-.2.76-.2s.3-.07.77-.13a11.14,11.14,0,0,1,1.71-.08,10.89,10.89,0,0,1,1.7.2A3.11,3.11,0,0,1,31.53,3.05Z"/></g><g class="cls-4"><path class="cls-2" d="M41.52,13.08a1.75,1.75,0,0,1-.34.22,7.36,7.36,0,0,1-.94.47,11.23,11.23,0,0,1-3.12.76,18,18,0,0,1-3.22,0c-.87-.08-1.45-.17-1.45-.17s-.58-.09-1.44-.26a24.9,24.9,0,0,1-3.11-.81,11.66,11.66,0,0,1-2.83-1.52c-.35-.25-.64-.47-.84-.63a1.57,1.57,0,0,1-.31-.26,1.85,1.85,0,0,1,.34.21l.88.58A11.85,11.85,0,0,0,28,13.06a22.72,22.72,0,0,0,3.1.74c.85.16,1.42.24,1.42.24s.57.1,1.44.19a17.85,17.85,0,0,0,3.17.08,11.34,11.34,0,0,0,3.1-.65C41,13.36,41.5,13.05,41.52,13.08Z"/></g><g class="cls-4"><path class="cls-2" d="M42.28,16.39a2.77,2.77,0,0,1-1.26.32,4.79,4.79,0,0,1-1.31-.15A4.68,4.68,0,0,1,38.53,16a2.78,2.78,0,0,1-.88-1s.46.45,1,.77a4.63,4.63,0,0,0,1.15.48,4.79,4.79,0,0,0,1.22.22A11.8,11.8,0,0,0,42.28,16.39Z"/></g><g class="cls-4"><path class="cls-2" d="M41.13,20.56a4.46,4.46,0,0,1-.35-.73c-.17-.36-.37-.7-.37-.7s-.16-.36-.36-.71a3.44,3.44,0,0,1-.39-.7s.32.26.57.58.45.69.45.69.17.37.3.76A2.24,2.24,0,0,1,41.13,20.56Z"/></g><g class="cls-4"><path class="cls-2" d="M33.3,5.23s-.72-.11-1.43-.1a8.24,8.24,0,0,0-1.42.12,8.79,8.79,0,0,0-1.38.33c-.68.22-1.31.58-1.33.55A3.85,3.85,0,0,1,29,5.38,7.42,7.42,0,0,1,30.4,5a7.42,7.42,0,0,1,1.48,0A4.12,4.12,0,0,1,33.3,5.23Z"/></g><g class="cls-4"><path class="cls-2" d="M35.78,12.12a.85.85,0,0,1-.27,0c-.17,0-.41,0-.71,0a17.19,17.19,0,0,1-2.12-.24,19.17,19.17,0,0,1-3-.78l-.25-.1c-.16-.06-.39-.14-.66-.26a18,18,0,0,1-1.92-1A13.74,13.74,0,0,1,25,8.61a1.56,1.56,0,0,1-.59-.77,2.59,2.59,0,0,0,.66.68A18.53,18.53,0,0,0,26.93,9.6a19.06,19.06,0,0,0,1.93.88l.65.25.25.09a20.73,20.73,0,0,0,3,.85c.75.16,1.52.28,2.09.34S35.78,12.1,35.78,12.12Z"/></g><g class="cls-4"><path class="cls-2" d="M41.21,10.75s-.62-.35-1.25-.65a12.29,12.29,0,0,0-1.28-.52,12.81,12.81,0,0,0-1.31-.44C36.7,9,36,8.86,36,8.81a4.8,4.8,0,0,1,1.41.12,11.64,11.64,0,0,1,1.37.36,10.25,10.25,0,0,1,1.27.62A4.92,4.92,0,0,1,41.21,10.75Z"/></g><path class="cls-3" d="M40.9,18.45c-.58-1.09,1.67-1.73,1.67-1.73a6,6,0,0,1-2.25-.7c-1.48-.71,1-2.44,1.09-2.64l-3.59,1-.17.36.24,0s2,5,2,7c0,0,1.42-1.81,3.23-.73a19,19,0,0,0,0-2.34C42.33,19.09,41.25,19.12,40.9,18.45Z"/><g class="cls-5"><path class="cls-2" d="M11.88,19.48c1.51.4,3.25-1.14,4.35-2,1.34-1.07,2.71-2.17,2.82-4a.51.51,0,0,0-.63-.48c-1.61.3-2.6,1.55-3.79,2.56-1,.86-2.87,1.83-3.19,3.17a.64.64,0,0,0,.44.77Z"/></g><g class="cls-5"><path class="cls-2" d="M12.05,16.16a1.82,1.82,0,0,0,1-.42,2.73,2.73,0,0,0,.82-.77c.12-.16-.08-.39-.26-.33a2.94,2.94,0,0,0-1,.54,1.76,1.76,0,0,0-.7.78.15.15,0,0,0,.15.2Z"/></g><g class="cls-5"><path class="cls-2" d="M6.57,20c1.2-1.71,2.44-3.39,3.73-5,1.09-1.36,2.37-2.54,3.42-3.92.25-.33-.16-.76-.5-.66-1.91.51-3.19,2.23-4.35,3.73a17.49,17.49,0,0,0-3,5.55.41.41,0,0,0,.74.32Z"/></g><g class="cls-5"><path class="cls-2" d="M5.06,16.76c.34-.19.4-.76.56-1.1s.46-.82.62-1.27c.08-.22-.23-.37-.38-.22a3.73,3.73,0,0,0-.74,1.28c-.14.36-.46.89-.25,1.26a.13.13,0,0,0,.19.05Z"/></g><g class="cls-5"><path class="cls-2" d="M7.33,12.54C8.39,12.09,9.26,10.84,10,10s2-1.7,2.47-2.82c.05-.12-.09-.22-.19-.19-1.18.28-2.18,1.47-3,2.31s-2,2-2.12,3.11c0,.05,0,.14.11.11Z"/></g><g class="cls-5"><path class="cls-2" d="M2.89,13.83c1.23-1.58,2.32-3.24,3.68-4.72s3.16-2.34,4.1-4a.64.64,0,0,0-.54-1C8,4.43,6.46,6.32,5.21,7.91A12.25,12.25,0,0,0,2.58,13.7a.18.18,0,0,0,.31.13Z"/></g><g class="cls-5"><path class="cls-2" d="M3.63,8.23l.63-.76c.08-.08,0-.21-.13-.12l-.66.72c-.1.11.07.27.16.16Z"/></g><g class="cls-5"><path class="cls-2" d="M10.64,29.31a17.61,17.61,0,0,0-.39,6.51c0,.23.4.33.44.06a17.92,17.92,0,0,0,.08-6.57.07.07,0,0,0-.13,0Z"/></g><g class="cls-5"><path class="cls-2" d="M28,11.24c.8,1.41,2.39,1.8,3.9,2.08a14.07,14.07,0,0,0,6.58,0,.43.43,0,0,0-.11-.84c-3.57-.22-6.95.31-10.28-1.37-.06,0-.13,0-.09.09Z"/></g><g class="cls-5"><path class="cls-2" d="M25.59,5.29A14.25,14.25,0,0,0,28,4.53c.14-.07,0-.29-.1-.25a12.4,12.4,0,0,0-2.34.93c-.05,0,0,.09,0,.08Z"/></g><g class="cls-5"><path class="cls-2" d="M29.4,4a21.39,21.39,0,0,0,2.67.31,6.1,6.1,0,0,0,2.4.12.18.18,0,0,0,0-.33,4.5,4.5,0,0,0-2.59-.5A6.75,6.75,0,0,0,29.39,4s0,0,0,0Z"/></g><g class="cls-5"><path class="cls-2" d="M28.33,8.33c1.06,1.14,3,1.59,4.42,2a10.85,10.85,0,0,0,4.91.62.57.57,0,0,0,.14-1,18.49,18.49,0,0,0-4.58-1.31c-1.47-.34-3.12-1.08-4.64-.92a.36.36,0,0,0-.25.61Z"/></g><g class="cls-5"><path class="cls-2" d="M33.93,7.13c.29.33.79.33,1.2.4a3.83,3.83,0,0,0,1.35,0,.16.16,0,0,0,0-.29,3.68,3.68,0,0,0-1.3-.34A2,2,0,0,0,34,7a.1.1,0,0,0,0,.15Z"/></g><g class="cls-5"><path class="cls-2" d="M24.88,2.32a3.32,3.32,0,0,0,1.37-.27c.55-.13,1.06-.35,1.59-.52.1,0,.12-.2,0-.22a4.18,4.18,0,0,0-1.69,0A2.41,2.41,0,0,0,24.73,2a.25.25,0,0,0,.15.36Z"/></g><path class="cls-16" d="M32.48,32.91H32a3.19,3.19,0,0,0-2.26.87s-.22-.62-3.82-.24l-.65.07-.3,0a6.6,6.6,0,0,1-.76,0,4.51,4.51,0,0,1-.58-.06,5,5,0,0,0-1.33-.18l.05,0a6.58,6.58,0,0,0,4.79,3.93,5,5,0,0,0,2.4-.09,2.09,2.09,0,0,0,.54-.27,1.38,1.38,0,0,0,.44-.51.68.68,0,0,0-.05-.79c-.3-.22-.18-1.08-.09-1.52a5.16,5.16,0,0,0,1.32-.52,2,2,0,0,0,.83-.78Z"/><path class="cls-13" d="M30,34a12.24,12.24,0,0,1-1.71.08h0l-.26.05c-1.91.24-3.57-.42-5.45-.66l-.09,0a6.47,6.47,0,0,0,4.07,3.35c3.77.79,4-2,3.59-2.45A.75.75,0,0,1,30,34Z"/><path class="cls-14" d="M30,34c-.27,0-.53.06-.8.07,0,0,.08.06.12,0,.38-.16,1.12.13.74,1.29s-3,2-4.8.61-.68-1.87-.68-1.87l-.21-.33c-.59-.12-1.18-.25-1.8-.33l-.09,0a6.47,6.47,0,0,0,4.07,3.35c3.77.79,4-2,3.59-2.45A.75.75,0,0,1,30,34Z"/><path class="cls-13" d="M22.16,33.3a13.91,13.91,0,0,0,7.28,1.47c3.2-.44,3.75-2.24,3.75-2.24s-2.31-.08-3,1.31c0,0-.26-1-4.82-.25C23.57,33.9,23,33.21,22.16,33.3Z"/><path class="cls-14" d="M22.16,33.3a13.91,13.91,0,0,0,7.28,1.47c3.2-.44,3.75-2.24,3.75-2.24s-2.31-.08-3,1.31c0,0-.26-1-4.82-.25C23.57,33.9,23,33.21,22.16,33.3Z"/><path class="cls-14" d="M32.62,32.55c-.19.73-1.67,2.14-4.25,1.78-1.63-.22-2.14-.57-2.26-.86l-.75.12c-1.79.31-2.34-.38-3.2-.29a13.91,13.91,0,0,0,7.28,1.47c3.2-.44,3.75-2.24,3.75-2.24A4.8,4.8,0,0,0,32.62,32.55Z"/><path class="cls-24" d="M27.4,36c0,.2-.34.31-.69.26s-.62-.26-.59-.46.34-.31.7-.25S27.44,35.79,27.4,36Z"/><path class="cls-6" d="M16.24,79.85A19.14,19.14,0,0,0,20,75.3c-1.95-.62-3.38-1.45-3.49-2.57-.36-3.74,1.75-17.2,1.75-17.2s.67-7.41-7.19-6.88c0,0-4.35,17.79-2.94,26.63a1.8,1.8,0,0,1,1.42,1C11.15,79.35,13.68,80.37,16.24,79.85Z"/><g class="cls-25"><path class="cls-26" d="M15.68,50.16a6.2,6.2,0,0,1,1.05,1.44,11.17,11.17,0,0,1,.75,1.63A11,11,0,0,1,17.86,55a6.52,6.52,0,0,1,0,1.78c-.05,0-.07-.88-.23-1.74a11.85,11.85,0,0,0-.46-1.69,12.87,12.87,0,0,0-.65-1.62C16.16,50.91,15.65,50.19,15.68,50.16Z"/><g class="cls-20"><path class="cls-9" d="M18.19,52.37s.14.18.31.74a5.14,5.14,0,0,1,.21,1.15,5.55,5.55,0,0,1-.14,1.16,2.61,2.61,0,0,1-.45,1.07s.17-.55.24-1.11a5.45,5.45,0,0,0,.05-1.11,5.94,5.94,0,0,0-.12-1.11C18.18,52.61,18.15,52.39,18.19,52.37Z"/></g><path class="cls-26" d="M12.32,75.23A2.54,2.54,0,0,1,13,74.12a4.19,4.19,0,0,1,1.11-.76,4.28,4.28,0,0,1,1.31-.26,2.5,2.5,0,0,1,1.29.27,7.9,7.9,0,0,0-1.27-.06,4.14,4.14,0,0,0-.85.19l-.36.14-.36.16a5.49,5.49,0,0,0-.73.47A8,8,0,0,0,12.32,75.23Z"/><path class="cls-26" d="M14.59,75.81a2.5,2.5,0,0,1,.22-.87,2.75,2.75,0,0,1,.29-.57,1.64,1.64,0,0,1,.18-.23,1.72,1.72,0,0,1,.24-.19,1.69,1.69,0,0,1,.61-.24,1.15,1.15,0,0,1,.65.05c.16.07.24.16.23.18s-.11,0-.27-.06a1.21,1.21,0,0,0-.56,0,1.48,1.48,0,0,0-.5.27,1,1,0,0,0-.18.17,1.84,1.84,0,0,0-.18.19A2.85,2.85,0,0,0,15,75,4.12,4.12,0,0,1,14.59,75.81Z"/></g><path class="cls-7" d="M13.61,79.82c-.26-1.25-.17-2.38.71-3s2.82-.72,5-.48c.23-.34.45-.69.66-1-1.95-.62-3.38-1.45-3.49-2.57-.36-3.74,1.75-17.2,1.75-17.2s-.15-6.28-5.14-7.87c1.06,1.39,3.13,5.1,3.18,7.72.07,4.4-1.69,16.46-4.09,16.21-1.59-.17-3.08-3.64-4-6.49a41.85,41.85,0,0,0-.06,10.18,1.8,1.8,0,0,1,1.42,1A6.59,6.59,0,0,0,13.61,79.82Z"/><path class="cls-27" d="M13.52,49.23a1.77,1.77,0,0,0-.37-.38,1.62,1.62,0,0,0-.52-.12c-.27,0-.52.05-.52.13s.22.16.41.28a3.6,3.6,0,0,1,.33.23,3.59,3.59,0,0,1,.38.17c.19.1.37.25.44.21S13.68,49.46,13.52,49.23Z"/><path class="cls-28" d="M31.85,55.35c-.33.14,2.45,15.3,2.45,15.3a8.55,8.55,0,0,0,6.49.25l2.08-15.67A15.87,15.87,0,0,0,31.85,55.35Z"/><path class="cls-29" d="M32.58,60.86c.27,1.62.57,3.37.85,4.94a16.09,16.09,0,0,0,8,.42l.71-5.3C38.5,62.41,34.4,61.44,32.58,60.86Z"/><path class="cls-30" d="M40.79,70.9,41.18,68a3,3,0,0,1-2.68,1.32c-3.74-.26-4.07-11-4.07-11a19.57,19.57,0,0,0,8.15-.81l.15-1.19c-1.65-1.05-6.1-1.51-9.34-1.46a14.06,14.06,0,0,0-1.54.53c-.33.14,2.45,15.3,2.45,15.3A8.55,8.55,0,0,0,40.79,70.9Z"/><path class="cls-15" d="M36.24,61.15a2.74,2.74,0,0,0-2.26,0,.89.89,0,0,0-.11-.51c-.56-1-2.67-1.18-2.26-.11a5,5,0,0,1,.21,1.91,13.46,13.46,0,0,0-1.49,1.36s-2.49,2.91-.19,4.75,4.5-1.1,4.92-1.13.39,1.4.61,2,2.11.23,2.59-2.05-.42-3.19-.42-3.19,1.19.83,1.52.19S38.61,62.4,36.24,61.15Z"/><path class="cls-31" d="M37.31,67.6s0-.06,0-.17l0-.1a.06.06,0,0,0,0,0,4.4,4.4,0,0,0-.19-.73l0-.08a2.8,2.8,0,0,0-.41-.87c0,.06.13.44.24.86l0,.14a6.11,6.11,0,0,1,.15.82h0c0,.12,0,.19,0,.19v0h0a3.74,3.74,0,0,1,0,.93v.06a1.13,1.13,0,0,1-.25.62c-.11.12-.21.18-.23.22a.55.55,0,0,0,.3-.15,1,1,0,0,0,.34-.59.19.19,0,0,0,0-.07A4.2,4.2,0,0,0,37.31,67.6Zm.27-3.82-.13-.18a6,6,0,0,0-.52-.56l-.14-.12a0,0,0,0,0,0,0,7.12,7.12,0,0,0-.65-.44,1.88,1.88,0,0,0-.64-.22c-.19,0-.31,0-.31,0l.29.07a2.19,2.19,0,0,1,.57.29,5.83,5.83,0,0,1,.72.6,6.56,6.56,0,0,1,.56.53l.12.13c.17.18.32.38.43.52h0c.09.12.16.2.18.2A3,3,0,0,0,37.58,63.78Zm.61,2.76a1.7,1.7,0,0,0-.06-.31,2.13,2.13,0,0,0-.08-.27,5.8,5.8,0,0,0-.31-.72,6.89,6.89,0,0,0-.63-.84,3.32,3.32,0,0,0-.25-.27L36.75,64l0,0c-.18-.2-.32-.32-.34-.3h0a1.19,1.19,0,0,1,.1.16l.27.35.23.31c.3.42.55.86.55.86a5.58,5.58,0,0,1,.41.84l0,.07a2.41,2.41,0,0,1,.08.25h0c.1.39.12.74.14.74A1.61,1.61,0,0,0,38.19,66.54ZM34.48,61h0a.57.57,0,0,0-.15,0A.78.78,0,0,0,34,61l-.14.05a.8.8,0,0,0-.16.08l-.28.15-.18.12-.48.35-.24.19s0,0,0,0a.24.24,0,0,1-.09.08,1,1,0,0,0-.21.19l0,0v0a2.38,2.38,0,0,0,.65-.33h0l.58-.34.17-.13.39-.27h0a1,1,0,0,1,.4-.17c.12,0,.21,0,.21,0Z"/><path class="cls-16" d="M38.7,63.28c0,.63-2.71-.75-2.83-.83s2.17,1.66,2,2.08-1.51-.87-1.51-.87,1.52,2.39,1.16,2.62-1.7-2.07-1.7-2.07c.24.49,1.51,3.66.74,3.87S35.32,66,35.32,66s-.57.93-2.83.87c-1.8,0-1.85-2.42-1.78-3.48l-.38.38a6.25,6.25,0,0,0-.89,1.5,12,12,0,0,0-.05,2.34,2.82,2.82,0,0,0,.75.91c2.3,1.83,4.5-1.1,4.92-1.13s.39,1.4.61,2,2.11.23,2.59-2.05-.42-3.19-.42-3.19,1.19.83,1.52.19c.2-.41-.15-1.07-1-1.81A1.71,1.71,0,0,1,38.7,63.28Z"/><path class="cls-16" d="M32.24,59.79l.22.22a1.42,1.42,0,0,1-.37,2.31,13.25,13.25,0,0,1,1.44-.8c.32-.15,1-.4,1.64-.62a3.94,3.94,0,0,0-1.19.24.89.89,0,0,0-.11-.51A1.92,1.92,0,0,0,32.24,59.79Z"/><path class="cls-31" d="M32.09,62.32l-.1.06Z"/><path class="cls-6" d="M28.61,64.83s-10.49,8.2-14,7.11H7.85c-.11,0,.19,3.64.23,4,.26,1.84.59,2.77,2.14,3.86C17.16,84.68,32.87,71,32.87,71S32.41,66.55,28.61,64.83Z"/><path class="cls-7" d="M32.12,68.46a1,1,0,0,1-.07-.15L31.87,68l-.19-.32-.1-.17L31.3,67l0,0a6.71,6.71,0,0,0-2.67-2.19h0l-1.14.86a4.09,4.09,0,0,1,1.36,4.79,6.63,6.63,0,0,1-2.4,2.59,20.73,20.73,0,0,1-7.73,3.37c-.87.19-2,.17-2.36-.65a1.82,1.82,0,0,1,0-1.06,12.42,12.42,0,0,1,.93-2.92h-.51a4.07,4.07,0,0,1-2.18.12H7.85c-.11,0,.19,3.64.23,4,.26,1.84.59,2.77,2.14,3.86a5.92,5.92,0,0,0,3,1,10,10,0,0,0,2.59-.14c.36-.07.73-.15,1.11-.25a24.61,24.61,0,0,0,4.95-1.94c.47-.23.94-.48,1.4-.73,1.22-.68,2.4-1.41,3.49-2.14.75-.49,1.44-1,2.08-1.44l.38-.28,1-.71.82-.64.83-.66c.27-.22.5-.4.67-.55l.39-.33a8.62,8.62,0,0,0-.7-2.42Z"/><g class="cls-25"><path class="cls-26" d="M15.72,71.57a3,3,0,0,0-1.06.3,4.11,4.11,0,0,0-1.08.79,4.14,4.14,0,0,0-.7,1.14,2.54,2.54,0,0,0-.18,1.31,9.47,9.47,0,0,1,.38-1.22,4,4,0,0,1,.46-.73,3.75,3.75,0,0,1,.26-.3,3.56,3.56,0,0,1,.27-.28,4.13,4.13,0,0,1,.69-.53,5.08,5.08,0,0,1,1.11-.44Z"/><path class="cls-26" d="M15,74.69a2.29,2.29,0,0,1-.18-.88,3.19,3.19,0,0,1,0-.64,1.8,1.8,0,0,1,.07-.29,1.26,1.26,0,0,1,.14-.27,1.66,1.66,0,0,1,.45-.48,1.21,1.21,0,0,1,.61-.21c.18,0,.29,0,.29.06s-.12,0-.27,0a1.3,1.3,0,0,0-.5.27,1.67,1.67,0,0,0-.34.45,1.37,1.37,0,0,0-.1.23,2.42,2.42,0,0,0-.08.25,2.9,2.9,0,0,0-.08.58A7.6,7.6,0,0,1,15,74.69Z"/></g><path class="cls-6" d="M43.46,55.5a.66.66,0,0,0-.23-.42c0-.9-2.67-1.62-5.94-1.62s-5.94.72-5.95,1.62a.6.6,0,0,0-.22.42.7.7,0,0,0-.23.46c0,1,2.87,1.74,6.4,1.74s6.39-.78,6.39-1.74A.68.68,0,0,0,43.46,55.5Z"/><path class="cls-7" d="M37.74,57.37c-3.53,0-6.39-.78-6.39-1.75a.66.66,0,0,1,.22-.45.68.68,0,0,1,.23-.43.63.63,0,0,1,.18-.39c-.4.22-.64.47-.64.73a.6.6,0,0,0-.22.42.7.7,0,0,0-.23.46c0,1,2.87,1.74,6.4,1.74,3,0,5.47-.55,6.18-1.3A13.65,13.65,0,0,1,37.74,57.37Z"/><path class="cls-7" d="M43.24,55.08c0,.9-2.67,1.62-6,1.62s-5.95-.72-5.95-1.62,2.66-1.62,5.95-1.62S43.24,54.19,43.24,55.08Z"/><path class="cls-7" d="M37.29,53.46c-3,0-5.45.6-5.88,1.38.22.84,2.79,1.51,5.93,1.51,3,0,5.45-.6,5.87-1.38C43,54.13,40.43,53.46,37.29,53.46Z"/><path class="cls-6" d="M42.75,54.36a.29.29,0,0,0,0-.09l0-.1a.56.56,0,0,0,0-.12h0a.32.32,0,0,0,0-.09h0s0-.06,0-.09h0s0-.06,0-.08v0s0,0,0-.08,0,0,0,0,0,0,0-.08h0a.32.32,0,0,0,0-.09h0a.32.32,0,0,0,0-.09h0s0-.06,0-.09h0s0,0,0-.08,0,0,0,0,0,0,0-.08v0a.41.41,0,0,0,0-.08h0a.32.32,0,0,0,0-.09h0s0-.06,0-.09h0a.19.19,0,0,0,0-.08v0s0-.05,0-.08,0,0,0,0,0,0,0-.08v0c0-.74-2.22-1.35-5-1.35s-5,.61-5,1.35c0,0,0,0,0,0s0,0,0,.08,0,0,0,0,0,0,0,.08v0s0,.05,0,.08h0a.32.32,0,0,0,0,.09h0s0,.06,0,.09h0a.41.41,0,0,0,0,.08v0s0,.05,0,.08,0,0,0,0,0,0,0,.08v0s0,0,0,.08h0a.32.32,0,0,0,0,.09h0s0,.06,0,.09h0a.41.41,0,0,0,0,.08v0s0,0,0,.08,0,0,0,0,0,0,0,.08v0s0,.05,0,.08h0a.32.32,0,0,0,0,.09h0a.56.56,0,0,0,0,.12.36.36,0,0,0,0,.1.29.29,0,0,0,0,.1.47.47,0,0,0,0,.17c0,.83,2.47,1.5,5.51,1.5s5.5-.67,5.5-1.5A.39.39,0,0,0,42.75,54.36Z"/><path class="cls-32" d="M42.75,54.36a.29.29,0,0,0,0-.09l0-.1a.56.56,0,0,0,0-.12h0a.32.32,0,0,0,0-.09h0s0-.06,0-.09h0s0-.06,0-.08v0s0,0,0-.08,0,0,0,0,0,0,0-.08h0a.32.32,0,0,0,0-.09h0a.32.32,0,0,0,0-.09h0s0-.06,0-.09h0s0,0,0-.08,0,0,0,0,0,0,0-.08v0a.41.41,0,0,0,0-.08h0a.32.32,0,0,0,0-.09h0s0-.06,0-.09h0a.19.19,0,0,0,0-.08v0s0-.05,0-.08,0,0,0,0,0,0,0-.08v0c0-.74-2.22-1.35-5-1.35s-5,.61-5,1.35c0,0,0,0,0,0s0,0,0,.08,0,0,0,0,0,0,0,.08v0s0,.05,0,.08h0a.32.32,0,0,0,0,.09h0s0,.06,0,.09h0a.41.41,0,0,0,0,.08v0s0,.05,0,.08,0,0,0,0,0,0,0,.08v0s0,0,0,.08h0a.32.32,0,0,0,0,.09h0s0,.06,0,.09h0a.41.41,0,0,0,0,.08v0s0,0,0,.08,0,0,0,0,0,0,0,.08v0s0,.05,0,.08h0a.32.32,0,0,0,0,.09h0a.56.56,0,0,0,0,.12.36.36,0,0,0,0,.1.29.29,0,0,0,0,.1.47.47,0,0,0,0,.17c0,.83,2.47,1.5,5.51,1.5s5.5-.67,5.5-1.5A.39.39,0,0,0,42.75,54.36Z"/><path class="cls-32" d="M38.08,55.86c-3,0-5.51-.68-5.51-1.5a.47.47,0,0,1,0-.17,1.1,1.1,0,0,0,0-.2.56.56,0,0,1,0-.12h0a.32.32,0,0,1,0-.09h0s0-.06,0-.09h0a.19.19,0,0,1,0-.08s0,0,0,0,0,0,0-.08v0s0,0,0-.08,0,0,0,0,0,0,0-.08h0a.32.32,0,0,1,0-.09h0s0-.06,0-.09a0,0,0,0,1,0,0,.19.19,0,0,1,0-.08s0,0,0,0,0,0,0-.08v0s0-.05,0-.08v0s0-.05,0-.08h0a.32.32,0,0,1,0-.09h0s0-.06,0-.09h0a.19.19,0,0,1,0-.08v0s0,0,0-.08,0,0,0,0c0-.36.54-.69,1.4-.94-1.32.25-2.19.66-2.19,1.12,0,0,0,0,0,0s0,0,0,.08,0,0,0,0,0,0,0,.08v0s0,.05,0,.08h0a.32.32,0,0,0,0,.09h0s0,.06,0,.09h0a.41.41,0,0,0,0,.08v0s0,.05,0,.08,0,0,0,0,0,0,0,.08v0s0,0,0,.08h0a.32.32,0,0,0,0,.09h0s0,.06,0,.09h0a.41.41,0,0,0,0,.08v0s0,0,0,.08,0,0,0,0,0,0,0,.08v0s0,.05,0,.08h0a.32.32,0,0,0,0,.09h0a.56.56,0,0,0,0,.12.36.36,0,0,0,0,.1.29.29,0,0,0,0,.1.47.47,0,0,0,0,.17c0,.83,2.47,1.5,5.51,1.5a15.68,15.68,0,0,0,3.93-.45A18,18,0,0,1,38.08,55.86Z"/><ellipse class="cls-7" cx="37.28" cy="52.47" rx="4.97" ry="1.35"/><path class="cls-7" d="M41.62,52.4c0,.47-1.92.85-4.3.85S33,52.87,33,52.4s1.92-.84,4.3-.84S41.62,51.94,41.62,52.4Z"/><path class="cls-7" d="M33.32,52.71a11.14,11.14,0,0,0,4,.54,11.63,11.63,0,0,0,4-.51,10.91,10.91,0,0,0-4-.54A11.63,11.63,0,0,0,33.32,52.71Z"/><path class="cls-6" d="M40.31,53.67a9.21,9.21,0,0,0,.93-.31l.39-.16L42,53c.11.4.19.72.25.94l.07.31s-.15-.4-.39-1.07l-.26.14a3,3,0,0,1-.4.19,8.49,8.49,0,0,1-.94.34,7.38,7.38,0,0,1-3,.23A10.59,10.59,0,0,0,40.31,53.67Z"/><path class="cls-6" d="M40.88,56.57a12.08,12.08,0,0,0,2.38-.85,5.77,5.77,0,0,1-.64.39,7.83,7.83,0,0,1-1.69.66,7.64,7.64,0,0,1-1.8.21,7.22,7.22,0,0,1-.75,0A11.51,11.51,0,0,0,40.88,56.57Z"/><path class="cls-6" d="M43.06,56.41a.86.86,0,0,1-.52.14s.19-.16.41-.31a4.3,4.3,0,0,1,.46-.24A.89.89,0,0,1,43.06,56.41Z"/></g></g></g></svg>