<svg xmlns="http://www.w3.org/2000/svg" viewBox="0 0 80.02 85.66"><defs><style>.cls-1{isolation:isolate;}.cls-2,.cls-26,.cls-27,.cls-28,.cls-3{fill:#6f3a1e;}.cls-3{opacity:0.3;}.cls-11,.cls-16,.cls-18,.cls-19,.cls-21,.cls-23,.cls-24,.cls-26,.cls-27,.cls-3,.cls-30,.cls-32,.cls-33,.cls-7,.cls-8,.cls-9{mix-blend-mode:multiply;}.cls-11,.cls-12,.cls-18,.cls-22,.cls-23,.cls-26,.cls-30,.cls-4{opacity:0.5;}.cls-12,.cls-22,.cls-25,.cls-28,.cls-29,.cls-34,.cls-4,.cls-5{mix-blend-mode:screen;}.cls-21,.cls-32,.cls-5{opacity:0.45;}.cls-6{fill:#fff;}.cls-7{opacity:0.34;}.cls-10,.cls-11,.cls-8{fill:#d3dbfd;}.cls-12,.cls-14,.cls-19{fill:#294168;}.cls-13{fill:none;}.cls-15,.cls-16{fill:#88ac76;}.cls-16,.cls-34{opacity:0.35;}.cls-17,.cls-18,.cls-22,.cls-29{fill:#f15e6b;}.cls-19,.cls-27,.cls-33{opacity:0.25;}.cls-20,.cls-21,.cls-24,.cls-25,.cls-30{fill:#e5b678;}.cls-31,.cls-32,.cls-33,.cls-34{fill:#3f4349;}</style></defs><title>speechРесурс 15</title><g class="cls-1"><g id="Слой_2" data-name="Слой 2"><g id="OBJECTS"><path class="cls-2" d="M80,21.25s-1,24.54-6,31.44-22.77,9-31.15.59-6.61-33.65-6.17-34.53S68.25,7.73,80,21.25Z"/><path class="cls-3" d="M70.65,37.2c.21-2.4.53-8.73,1.09-10.36a18.52,18.52,0,0,1,2-3.94s3.86-.59,6.23-1c-.08,1.41-.29,5.12-.77,9.56-.12-.23-.27-.38-.46-.36-.85.08-2.7,6.17-2.7,6.17s.7-5.47-.31-5.47S74.12,34,74.12,34s-.46-1.62-1.62-.77C71.71,33.8,71,36,70.65,37.2Z"/><path class="cls-3" d="M70.65,37.2a3.67,3.67,0,0,1-.14.94C70.44,38.18,70.5,37.79,70.65,37.2Z"/><path class="cls-3" d="M38.26,37c.07.39.12.64.12.64S38.32,37.34,38.26,37Z"/><path class="cls-3" d="M36.66,18.75c0-.05.13-.12.31-.21.76.77,1.64,1.1,2.06.33a1.19,1.19,0,0,0,0-1.13c1.49-.5,3.59-1.1,6.08-1.66L68.36,36.54s-.12,7.39.9,8.6,4-5.17,4-5.17-3.13,9-2.11,10,3.37-2.16,3.37-2.16-1.38,3.37-.6,3.49c.39.06,1.58-2.3,2.66-4.65a19.92,19.92,0,0,1-2.57,6,11,11,0,0,1-3,2.71,15.37,15.37,0,0,1-1.88.13c-2.37,0-17.27-.76-24.57-.76a15.38,15.38,0,0,1-1.74-1.49,18,18,0,0,1-3.95-6.86c3.81,4.74,5.21,3.56,5.56,2.08s-2.22-5.65-2.22-5.65,3,3,3.54,1.8-6.37-9.79-7.21-10c-.59-.13-.44,1.38-.29,2.29-.27-1.41-.92-4.61-1.39-4.52-.16,0-.26.84-.33,2C35.83,26.48,36.43,19.22,36.66,18.75Z"/><g class="cls-4"><path class="cls-2" d="M73.71,45.16a2.19,2.19,0,0,0,.18-.38c.1-.24.25-.59.41-1,.33-.84.73-2,1.09-3.13.74-2.3,1.27-4.66,1.27-4.66s.5-2.36.8-4.75c.15-1.2.26-2.4.32-3.3,0-.45,0-.83,0-1.09a2.26,2.26,0,0,0,0-.42,2.5,2.5,0,0,0-.06.41c0,.26-.06.64-.11,1.09-.09.89-.24,2.09-.41,3.28-.35,2.38-.89,4.72-.89,4.72s-.49,2.35-1.17,4.66c-.34,1.15-.71,2.3-1,3.15l-.36,1A2.67,2.67,0,0,0,73.71,45.16Z"/></g><g class="cls-4"><path class="cls-2" d="M69.56,47.89a1.44,1.44,0,0,0,.17-.22c.09-.14.23-.34.38-.59.31-.5.7-1.17,1.07-1.86.73-1.38,1.31-2.84,1.31-2.84a26.94,26.94,0,0,0,.9-3c.17-.76.31-1.53.38-2.11,0-.29,0-.54.06-.71a.8.8,0,0,0,0-.27,8,8,0,0,0-.19,1c-.1.57-.27,1.33-.46,2.08a29,29,0,0,1-1,2.94s-.54,1.45-1.22,2.85c-.34.7-.7,1.39-1,1.9A7,7,0,0,0,69.56,47.89Z"/></g><g class="cls-4"><path class="cls-2" d="M64,45.5a8.37,8.37,0,0,0,.08-1.18c0-.59.1-1.18.1-1.18s0-.58.09-1.17a8.75,8.75,0,0,0,.11-1.17,4.9,4.9,0,0,0-.32,1.14c-.11.59-.18,1.18-.18,1.18s0,.6,0,1.19A4.86,4.86,0,0,0,64,45.5Z"/></g><g class="cls-4"><path class="cls-2" d="M42.3,46.05a1.88,1.88,0,0,0-.15-.31c-.11-.2-.27-.46-.45-.8-.36-.66-.82-1.55-1.24-2.46s-.78-1.85-1-2.56S39,38.73,39,38.73s-.16-.47-.37-1.19-.47-1.69-.69-2.67-.37-2-.46-2.73c-.06-.37-.09-.68-.12-.9a1.66,1.66,0,0,0-.06-.34,1.48,1.48,0,0,0,0,.34c0,.22,0,.54.06.92.06.75.2,1.75.37,2.75s.42,2,.63,2.7.36,1.22.36,1.22.16.48.43,1.19.66,1.64,1.1,2.55S41.2,44.36,41.6,45c.19.33.37.59.49.77A1.75,1.75,0,0,0,42.3,46.05Z"/></g><g class="cls-4"><path class="cls-2" d="M44.35,45.39s-.56-.5-1-1.09A7.47,7.47,0,0,1,42.54,43,7.64,7.64,0,0,1,42,41.67c-.22-.72-.26-1.47-.3-1.47a4.06,4.06,0,0,0,.09,1.52,6.91,6.91,0,0,0,.51,1.46,6.65,6.65,0,0,0,.9,1.25A3.89,3.89,0,0,0,44.35,45.39Z"/></g><g class="cls-4"><path class="cls-2" d="M45.42,42.79a1.45,1.45,0,0,0,.25.55c.16.25.34.49.34.49s.21.21.44.4.49.35.51.32-.17-.25-.36-.47l-.36-.45-.4-.42C45.64,43,45.46,42.77,45.42,42.79Z"/></g><g class="cls-4"><path class="cls-2" d="M39.39,45.6a6.23,6.23,0,0,0,.28,1.72,8.14,8.14,0,0,0,.42,1.14,3.94,3.94,0,0,0,.25.49s.11.19.3.46a9.16,9.16,0,0,0,.77.93,8.22,8.22,0,0,0,1.27,1.19s-.57-.66-1.11-1.33a10.29,10.29,0,0,1-.7-1c-.17-.27-.27-.45-.27-.45a4.3,4.3,0,0,1-.26-.47,9.4,9.4,0,0,1-.47-1.07C39.59,46.45,39.43,45.59,39.39,45.6Z"/></g><g class="cls-5"><path class="cls-2" d="M78.25,35.92c-.3,3.38-.7,7.79-2.87,10.53a.3.3,0,0,1-.5-.21,29.1,29.1,0,0,1,1.27-4.87c.46-1.85.93-3.68,1.26-5.56.09-.47.89-.37.84.11Z"/></g><g class="cls-5"><path class="cls-2" d="M75.57,34.83a1.31,1.31,0,0,1,.19,1.2,2.84,2.84,0,0,1-.5,1.33.37.37,0,0,1-.62-.26,4.22,4.22,0,0,1,.29-1.3,1.42,1.42,0,0,1,.59-1Z"/></g><g class="cls-5"><path class="cls-2" d="M74.17,39.23A7.79,7.79,0,0,1,73.56,42c0,.09-.18,0-.16-.07.19-.93.51-1.82.73-2.75,0,0,0,0,0,0Z"/></g><g class="cls-5"><path class="cls-2" d="M72.77,34.29a4,4,0,0,1-.13,2.26,12.29,12.29,0,0,1-.84,2.85c0,.13-.25.06-.25-.07a11.35,11.35,0,0,1,.29-2.79c.18-.75.2-1.73.79-2.27a.1.1,0,0,1,.14,0Z"/></g><g class="cls-5"><path class="cls-2" d="M39.2,36.92a1.89,1.89,0,0,1,.6.85A2.61,2.61,0,0,1,40,38.91a.25.25,0,0,1-.46.12,4.38,4.38,0,0,1-.38-1,2.85,2.85,0,0,1-.14-.5c0-.17,0-.36,0-.54a.09.09,0,0,1,.16-.06Z"/></g><g class="cls-5"><path class="cls-2" d="M37.68,37.28c1.64,3.2,3.21,6.56,4.61,9.86.14.35-.26.77-.57.44a16,16,0,0,1-4.16-10.27.06.06,0,0,1,.12,0Z"/></g><g class="cls-4"><path class="cls-2" d="M73.15,50.53A10.74,10.74,0,0,0,74,49.09a12,12,0,0,0,.61-1.58A10.67,10.67,0,0,0,73.77,49,12.05,12.05,0,0,0,73.15,50.53Z"/></g><path class="cls-6" d="M38.51,68.24A2.18,2.18,0,0,1,38.6,68C40.46,64.75,49.93,55,49.93,55s4.81-5.67-1.93-9.77c0,0-15.28,13.37-18.26,21.33a5.41,5.41,0,0,0-.33,1.73Z"/><g class="cls-7"><path class="cls-8" d="M50.94,49.1a6.3,6.3,0,0,1,0,1.78,11.43,11.43,0,0,1-.32,1.76,10.56,10.56,0,0,1-.7,1.65,6,6,0,0,1-1,1.46s.45-.76.81-1.56a14.61,14.61,0,0,0,1-3.34C50.9,50,50.9,49.1,50.94,49.1Z"/><g class="cls-9"><path class="cls-10" d="M51.72,52.35s0,.22-.17.78a5.47,5.47,0,0,1-.49,1.06,5.64,5.64,0,0,1-.78.88,3,3,0,0,1-1,.61s.45-.36.83-.77a6.11,6.11,0,0,0,.68-.88,6.35,6.35,0,0,0,.54-1C51.58,52.54,51.68,52.34,51.72,52.35Z"/></g><path class="cls-8" d="M35.89,67.41l.38.08.38.09a3.89,3.89,0,0,1,.8.33,2.89,2.89,0,0,1,.48.33h.21a3,3,0,0,0-.58-.51,4.25,4.25,0,0,0-1.22-.54,4.07,4.07,0,0,0-1.35,0,2.57,2.57,0,0,0-1.22.5A7.67,7.67,0,0,1,35,67.38,4.78,4.78,0,0,1,35.89,67.41Z"/></g><path class="cls-11" d="M38.51,68.24A2.18,2.18,0,0,1,38.6,68C40.46,64.75,49.93,55,49.93,55s3.48-5.22.32-9.4c.07,1.75-.37,6-1.84,8.15-2.47,3.64-11.16,13.18-13,11.6-1.2-1-.12-5.44.76-8.31-2.87,3.3-5.41,6.74-6.45,9.52a5.41,5.41,0,0,0-.33,1.73Z"/><path class="cls-12" d="M49.63,46.57a1.56,1.56,0,0,0-.35-.4c-.21-.18-.46-.26-.5-.19s.08.26.17.45a3.77,3.77,0,0,1,.13.39,2.13,2.13,0,0,1,.21.36c.1.19.16.41.25.42s.17-.25.17-.51A1.63,1.63,0,0,0,49.63,46.57Z"/><line class="cls-13" x1="44.42" y1="85.66" x2="44.42" y2="85.62"/><path class="cls-14" d="M65.9,85H44.5a1.77,1.77,0,0,1,.17-.24c.22-.3.46-.59.71-.87l.33-.36.13-.13a1.14,1.14,0,0,1,.11-.11c0-.06.11-.11.16-.16l.53-.5.11-.11h0l.41-.36c.26-.22.53-.44.79-.63l.4-.29.39-.27a3.9,3.9,0,0,1,.36-.25l.35-.22c.36-.21.72-.4,1.07-.56h0a4.84,4.84,0,0,1,.47-.21l.21-.09a10.39,10.39,0,0,1,1.3-.43,9.92,9.92,0,0,1,1.71-.3h.17l.34,0H55a10.45,10.45,0,0,1,2,.15H57l.62.13.21.05.28.08.47.15.2.07.46.17a3.52,3.52,0,0,1,.39.16c.28.12.54.25.79.38l.1.06a13.58,13.58,0,0,1,2.71,1.9l.08.07.19.18.07.07.09.09.06,0,0,0,0,0c.16.14.45.41.82.8h0l.15.17s0,0,0,0a4.69,4.69,0,0,1,.42.47s0,0,0,0l.24.29a2.09,2.09,0,0,0,.14.17l.06.07a.16.16,0,0,1,.06.08l.07.08Z"/><line class="cls-13" x1="65.91" y1="84.99" x2="65.9" y2="84.99"/><line class="cls-13" x1="44.42" y1="85.66" x2="44.42" y2="85.62"/><path class="cls-15" d="M65.9,85H44.5a1.77,1.77,0,0,1,.17-.24c.22-.3.46-.59.71-.87l.33-.36.13-.13a1.14,1.14,0,0,1,.11-.11c0-.06.11-.11.16-.16l.53-.5.11-.11h0l.41-.36c.26-.22.53-.44.79-.63l.4-.29.39-.27a3.9,3.9,0,0,1,.36-.25l.35-.22c.36-.21.72-.4,1.07-.56h0a4.84,4.84,0,0,1,.47-.21l.21-.09a10.39,10.39,0,0,1,1.3-.43,9.92,9.92,0,0,1,1.71-.3h.17l.34,0H55a10.45,10.45,0,0,1,2,.15H57l.62.13.21.05.28.08.47.15.2.07.46.17a3.52,3.52,0,0,1,.39.16c.28.12.54.25.79.38l.1.06a13.58,13.58,0,0,1,2.71,1.9l.08.07.19.18.07.07.09.09.06,0,0,0,0,0c.16.14.45.41.82.8h0l.15.17s0,0,0,0a4.69,4.69,0,0,1,.42.47s0,0,0,0l.24.29a2.09,2.09,0,0,0,.14.17l.06.07a.16.16,0,0,1,.06.08l.07.08Z"/><line class="cls-13" x1="65.91" y1="84.99" x2="65.9" y2="84.99"/><path class="cls-16" d="M65.9,85H61.41c-.16-.2-.32-.4-.49-.58a5.86,5.86,0,0,0-1.65-1.28,13,13,0,0,0-1.91-.74h0l-.62-.2a11.92,11.92,0,0,1-1.29-.51,1.14,1.14,0,0,1-.62-.54.58.58,0,0,1,0-.43,1.86,1.86,0,0,1,.77-.86c.44-.29.9-.57,1.35-.85H57l.62.13.21.05.28.08.47.15.2.07.46.17a3.52,3.52,0,0,1,.39.16c.28.12.54.25.79.38l.1.06a13.58,13.58,0,0,1,2.71,1.9l.08.07.19.18.07.07.09.09.06,0,0,0,0,0c.16.14.45.41.82.8a1.29,1.29,0,0,1,.16.17s0,0,0,0l.42.47s0,0,0,0l.24.29a2.09,2.09,0,0,0,.14.17l.06.07a.16.16,0,0,1,.06.08l.06.08Z"/><path class="cls-16" d="M65.83,84.89h0l-.31.1H52.67a8.83,8.83,0,0,1-1.39-1,3.7,3.7,0,0,1-1,1s0,0-.05,0h-5.1c.06-.06.11-.13.16-.19l.12-.17A5.51,5.51,0,0,0,46,83.57l0-.1.12-.35.53-.5.11-.11h0l.41-.36c.26-.22.53-.44.79-.63l.4-.29.39-.27.36-.23.35-.21A11.67,11.67,0,0,1,50.57,80a3.76,3.76,0,0,1,.46-.2,1.89,1.89,0,0,1,.21-.09,10.47,10.47,0,0,1,1.34-.44,10.15,10.15,0,0,1,1.66-.33h.17l.34,0H55a10.45,10.45,0,0,1,2,.15H57l.62.13.21.05.28.08.47.15.2.07.46.17a3.52,3.52,0,0,1,.39.16c.28.12.54.25.79.38l.1.06a13.58,13.58,0,0,1,2.71,1.9l.08.07.19.18.07.07.09.09.06,0,0,0,0,0c.16.14.45.41.82.8a1.29,1.29,0,0,1,.16.17s0,0,0,0a4.69,4.69,0,0,1,.42.47s0,0,0,0l.24.29a2.09,2.09,0,0,0,.14.17l.06.07a.16.16,0,0,1,.06.08Z"/><path class="cls-17" d="M69.12,49a32.77,32.77,0,0,1-1.54,5.85c-.06.21-.13.42-.19.63h0l-.59,1.89c-.08.27-.17.55-.26.83l-.36,1.15c0,.07,0,.15-.07.23l-.15.46c0,.11-.06.22-.1.33l0,.09-.21.68v0c-.07.22-.14.44-.2.65l0,.13a2.76,2.76,0,0,1-.08.27l0,.06-.06.2-.12.45,0,.1a.94.94,0,0,0,0,.09h0c-.06.19-.11.38-.16.56a1.82,1.82,0,0,0-.07.25l-.12.42c0,.09-.05.18-.07.26s-.07.26-.1.39a2.17,2.17,0,0,0-.07.24l-.09.37s0,.11,0,.17,0,0,0,.06l-.09.36c0,.06,0,.12,0,.18s-.07.34-.1.49c-.1.54-.21,1.08-.32,1.62-.13.7-.27,1.4-.4,2.1-.18.92-.34,1.85-.48,2.77-.11.76-.21,1.51-.28,2.25-.05.46-.08.9-.1,1.35,0,.27,0,.54,0,.8s0,.37,0,.56a11.38,11.38,0,0,0,.75,3.82A9.17,9.17,0,0,0,64,83.67c.16.25.33.49.51.73-.71.22-1.43.43-2.16.59H55l-.16,0-.76-.26-.35-.16a5.86,5.86,0,0,1-.87-.43,0,0,0,0,1,0,0,.69.69,0,0,1-.19-.1l-.41-.26-.09-.06a.39.39,0,0,1-.1-.08h0l-.11-.08a.18.18,0,0,1-.07,0l0,0a6.42,6.42,0,0,1-.64-.53.39.39,0,0,1-.08.1h0a.61.61,0,0,1-.12.16,1.37,1.37,0,0,1-.16.18h0a4.4,4.4,0,0,1-1,.76,5.67,5.67,0,0,1-1,.42,5.93,5.93,0,0,1-.83.21,9.46,9.46,0,0,1-2.06.1l-.58,0h-.12l-.58,0-.25,0h-.17a1.29,1.29,0,0,0,.17-.16,5.7,5.7,0,0,0,1.48-2.16l.05-.11a10,10,0,0,0,.11-5.06v0A2,2,0,0,1,46,77h0c0-.26-.09-.52-.13-.79h0l-.09-.54,0-.16c0-.21-.07-.43-.1-.65-.1-.57-.19-1.14-.3-1.71l-.06-.28c0-.12,0-.24-.08-.36-.06-.29-.14-.57-.22-.86a6.82,6.82,0,0,0-.27-.84,5.38,5.38,0,0,0-.2-.51l-.18-.4a4.59,4.59,0,0,0-.26-.49s0,0,0,0c-.13-.22-.26-.43-.41-.64l-.36-.51c-.12-.17-.23-.34-.35-.5l-.26-.41a10.54,10.54,0,0,1-1.08-2.11,8.36,8.36,0,0,1-.25-.81,7,7,0,0,1-.18-1.55c0-.22,0-.45,0-.68,0-.07,0-.14,0-.21l0-.3c0-.17,0-.33.08-.5a.17.17,0,0,1,0-.07c.06-.34.13-.68.21-1a11.05,11.05,0,0,1,.3-1.09,49,49,0,0,1,1.88-4.79c.18-.42.36-.84.53-1.26.78-1.94,1.63-5.25,3.13-7.15l0,0a4.39,4.39,0,0,1,.8-.81c.65-.51,2.36-.7,4.31-.72h.33c2,0,4.26.15,5.82.28l1,.1.38,0,.32,0h0l.29,0s8.11,3,8.38,4.29A.31.31,0,0,1,69.12,49Z"/><path class="cls-18" d="M67.58,54.86c-.06.21-.13.42-.19.63h0l-.59,1.89c-.08.27-.17.55-.26.83l-.36,1.15c0,.07,0,.15-.07.23l-.15.46c0,.11-.06.22-.1.33l0,.09-.09.32-.12.36v0c0,.12-.08.25-.11.38l-.09.27,0,.13a2.76,2.76,0,0,1-.08.27l0,.06-.06.2-.12.45,0,.1a.94.94,0,0,0,0,.09h0c-.06.19-.11.38-.16.56a1.82,1.82,0,0,0-.07.25l-.12.42c0,.09-.05.18-.07.26s-.07.26-.1.39a2.17,2.17,0,0,0-.07.24l-.09.37s0,.11,0,.17,0,0,0,.06l-.09.36c0,.06,0,.12,0,.18s-.07.34-.1.49c-.1.54-.21,1.08-.32,1.62-.13.7-.27,1.4-.4,2.1s-.3,1.62-.42,2.44l-.06.33c-.11.76-.21,1.51-.28,2.25-.05.46-.08.9-.1,1.35,0,.27,0,.54,0,.8s0,.37,0,.56a11.38,11.38,0,0,0,.75,3.82A9.17,9.17,0,0,0,64,83.67c.16.25.33.49.51.73-.71.22-1.43.43-2.16.59H55l-.16,0-.76-.26-.35-.16a5.86,5.86,0,0,1-.87-.43,0,0,0,0,1,0,0,.69.69,0,0,1-.19-.1l-.41-.26-.09-.06-.12-.08h0a3.55,3.55,0,0,0,.47.09l.46,0a7.28,7.28,0,0,0,2.41-.25l.2-.18a11.63,11.63,0,0,0,1.11-1.11l.12-.13a10.92,10.92,0,0,0,1.34-1.82c.14-.25.27-.53.4-.82a17.85,17.85,0,0,0,.67-1.8c0-.13.07-.27.11-.4s0-.35,0-.53,0-.3,0-.45c0-.5-.07-1-.12-1.52l.57.38a7.12,7.12,0,0,0-.06-2.18c-.45-2.06-4.52-2.25-8.3-1.94h0c-.67,0-1.34.12-2,.2a4.51,4.51,0,0,0-.53.09l-.22,0a6.48,6.48,0,0,0-1.37.45,6.06,6.06,0,0,0-2,1.32l-.06-.28c0-.07,0-.15,0-.22a.74.74,0,0,1,0-.14c-.06-.29-.14-.57-.22-.86a6.82,6.82,0,0,0-.27-.84c-.06-.17-.13-.34-.2-.51l-.18-.4a4.59,4.59,0,0,0-.26-.49s0,0,0,0c-.13-.22-.26-.43-.41-.64l-.36-.51c-.12-.17-.23-.34-.35-.5l-.26-.41a10.54,10.54,0,0,1-1.08-2.11,8.36,8.36,0,0,1-.25-.81,7,7,0,0,1-.18-1.55c0-.22,0-.45,0-.68,0-.07,0-.14,0-.21l0-.3c0-.17,0-.33.08-.5a.17.17,0,0,1,0-.07c.06-.34.13-.68.21-1,.06.46.13.92.22,1.35a10.19,10.19,0,0,0,.36,1.38,4.17,4.17,0,0,0,.19.47,1.8,1.8,0,0,0,.3.48,2,2,0,0,0,.78.58h0c.89.34,2.07,0,4.74.49l.14,0c.4.07.83.17,1.3.29,4.7,1.22,7.83.69,11.14-3.31a18.81,18.81,0,0,0,2.18-3.42l.09-.19a30.45,30.45,0,0,0,1.24-2.8,41.3,41.3,0,0,0,1.33-4l.1.09A9.8,9.8,0,0,1,67.58,54.86Z"/><path class="cls-11" d="M50.82,83.35a3.08,3.08,0,0,1-.33-.55,3,3,0,0,0,.49.37Z"/><path class="cls-19" d="M53.08,84.5H53l-.09,0Z"/><path class="cls-20" d="M60.17,41.11s.54,5.45-1.61,6.41-4.56,1-5.36-1.29a11.34,11.34,0,0,1,0-5.44S59.9,39.82,60.17,41.11Z"/><path class="cls-21" d="M54.19,47.6c3.46-.53,5.59-4.5,4.44-3.92s-4.56.12-5.78-.07a14.41,14.41,0,0,1,.35-2.82s6.7-1,7,.32c0,0,.54,5.45-1.61,6.41C57,48.21,55.31,48.4,54.19,47.6Z"/><path class="cls-11" d="M54.82,48.34s-3.23,3-3.85,1.36a.38.38,0,0,1,0-.1,25.36,25.36,0,0,1,1.91-4.67,2.72,2.72,0,0,0,2.35,2.38,4.5,4.5,0,0,0,4.62-2.7c.23,1.17-.69,3.59-2.5,6.78C56.84,51.5,55.92,51.2,54.82,48.34Z"/><path class="cls-6" d="M60.19,43.18c.06-.39,1.31,3.87-2.43,7.6,0,0-1.24,1.37-2.86-2.86,0,0-3.24,3-3.86,1.37s1.81-5.68,1.81-5.68-.18,2.91,2.43,3.28A4.51,4.51,0,0,0,60.19,43.18Z"/><path class="cls-11" d="M51,48.75c.62,1.62,3.86-1.37,3.86-1.37,1.62,4.23,2.86,2.86,2.86,2.86a8.64,8.64,0,0,0,2.67-5.84,8.52,8.52,0,0,1-2.67,6.38s-1.24,1.37-2.86-2.86c0,0-3.24,3-3.86,1.37a2.15,2.15,0,0,1-.08-.9A1.35,1.35,0,0,0,51,48.75Z"/><g class="cls-4"><path class="cls-22" d="M42.83,59.69a4.46,4.46,0,0,0,.2-.87A16.13,16.13,0,0,1,43.56,57c.24-.67.5-1.33.7-1.82l.34-.83s1.86-5.4,1.7-5.46S44,54.1,44,54.1l-.29.84c-.17.51-.4,1.19-.59,1.89a11.83,11.83,0,0,0-.35,2A2.24,2.24,0,0,0,42.83,59.69Z"/><path class="cls-22" d="M42.73,62.33c.16,0,.19-.82.19-.82s-.24-.76-.4-.74-.2.82-.2.82S42.56,62.36,42.73,62.33Z"/><path class="cls-22" d="M48.36,80.63a14,14,0,0,0-.74-1.47,10.46,10.46,0,0,1-.56-1.51,11.5,11.5,0,0,1-.44-1.55c-.17-.79-.19-1.61-.27-1.62a3.66,3.66,0,0,0-.15,1.68,8.78,8.78,0,0,0,.29,1.68,8.86,8.86,0,0,0,.76,1.52A3.76,3.76,0,0,0,48.36,80.63Z"/></g><g class="cls-23"><path class="cls-17" d="M61.23,79.13a4.5,4.5,0,0,0,.36-.66c.16-.34.25-.72.29-.72a1.59,1.59,0,0,1-.09.79,4.39,4.39,0,0,1-.3.75,4.08,4.08,0,0,1-.52.61,1.57,1.57,0,0,1-.66.44s.27-.29.5-.58A4.92,4.92,0,0,0,61.23,79.13Z"/><path class="cls-17" d="M52.77,68.94a11.37,11.37,0,0,0,1.68.14,11.19,11.19,0,0,0,1.68-.17l.54-.12.2-.05.2-.06c.13,0,.32-.07.54-.15a11.52,11.52,0,0,0,1.55-.66,11.12,11.12,0,0,0,1.41-.93,4.84,4.84,0,0,1,.61-.48,3.41,3.41,0,0,1-.54.57,8.83,8.83,0,0,1-1.38,1,10.55,10.55,0,0,1-1.56.73c-.22.09-.42.13-.55.18L57,69l-.22,0a5,5,0,0,1-.56.11,9.81,9.81,0,0,1-1.72.11,9.71,9.71,0,0,1-1.71-.23,3.11,3.11,0,0,1-.74-.25S52.31,68.87,52.77,68.94Z"/><path class="cls-17" d="M46.52,77.76s0,.44.08.87a4.08,4.08,0,0,0,.22.82,5.08,5.08,0,0,0,.34.78c.21.37.51.69.48.73a1.78,1.78,0,0,1-.66-.62,3.89,3.89,0,0,1-.44-.79,3.76,3.76,0,0,1-.15-.9A1.84,1.84,0,0,1,46.52,77.76Z"/><path class="cls-17" d="M43.21,67.58c.35.22.72.41.72.41s.36.22.73.41a5.18,5.18,0,0,1,.76.38,2.21,2.21,0,0,1-.84-.19,6.33,6.33,0,0,1-.79-.34,5.57,5.57,0,0,1-.71-.5,2.57,2.57,0,0,1-.6-.62A5.39,5.39,0,0,1,43.21,67.58Z"/><path class="cls-17" d="M50.26,59l.81-1.44s.34-.56.8-1.43a29.17,29.17,0,0,0,1.49-3.29,27.48,27.48,0,0,0,1.08-3.45c.11-.48.21-.88.27-1.16a2.41,2.41,0,0,1,.11-.44,3,3,0,0,1,0,.45c0,.28-.11.69-.21,1.18a28,28,0,0,1-1,3.49,29.18,29.18,0,0,1-1.44,3.35c-.46.88-.79,1.45-.79,1.45l-.83,1.42a22.8,22.8,0,0,0-1.59,3.24,9.78,9.78,0,0,0-.65,3.52A7.91,7.91,0,0,0,48.37,67c.05.28.09.44.08.44s0,0-.05-.11-.06-.18-.09-.32,0,0,0-.06l0,.42c.09.9.25,2.1.46,3.29s.48,2.38.7,3.25.4,1.46.4,1.46.16.59.43,1.45.68,2,1,3.18a14.33,14.33,0,0,1,.59,3.3v.18l-.11-.08s0-.06,0-.1a14.47,14.47,0,0,0-.68-3.24c-.36-1.15-.79-2.29-1.07-3.15s-.45-1.46-.45-1.46-.17-.58-.38-1.47-.47-2.08-.65-3.28-.31-2.41-.37-3.32c0-.46,0-.84,0-1.1v-.1l0-.36a9.53,9.53,0,0,1,.57-3.59A21.87,21.87,0,0,1,50.26,59Z"/></g><g class="cls-4"><path class="cls-17" d="M47,63.4a7.51,7.51,0,0,0,1.21,0,6.45,6.45,0,0,1,2.55.34,14.28,14.28,0,0,0,2.58.76,5.53,5.53,0,0,0,1.27.07l.35,0a4.6,4.6,0,0,0,.89-.25,8.88,8.88,0,0,0,2.34-1.4,11.57,11.57,0,0,0,2-1.79A2.42,2.42,0,0,0,60.75,60s-.25.42-.75.93a13.71,13.71,0,0,1-2.07,1.6,9,9,0,0,1-2.27,1.22,3.73,3.73,0,0,1-.8.18,2.2,2.2,0,0,1-.31,0,5.08,5.08,0,0,1-1.14,0,15.42,15.42,0,0,1-2.54-.62,6.57,6.57,0,0,0-1.44-.24,7.88,7.88,0,0,0-1.25.08A4,4,0,0,0,47,63.4Z"/></g><path class="cls-20" d="M40.1,21.77A2.34,2.34,0,0,0,36.86,21c-2.19,1.45-1.09,9,1.9,8.94S40.63,21.61,40.1,21.77Z"/><path class="cls-21" d="M40.1,21.77A2.34,2.34,0,0,0,36.86,21c-2.19,1.45-1.09,9,1.9,8.94S40.63,21.61,40.1,21.77Z"/><path class="cls-24" d="M37.35,27.71c0-.06.23,0,.49-.08a.47.47,0,0,0,.31-.26.66.66,0,0,0,0-.5.88.88,0,0,0-.27-.43c-.12-.11-.26-.15-.46-.31a.88.88,0,0,1-.29-.77,1,1,0,0,1,.09-.29,1.26,1.26,0,0,1,.16-.24,1.81,1.81,0,0,1,.28-.23,1.45,1.45,0,0,1,.22-.09h0s0,0,0,0,0-.08,0-.13l0-.2a2.38,2.38,0,0,0-.31-.8c-.3-.51-.74-.71-.72-.79s.52,0,1,.5a2.7,2.7,0,0,1,.53.94l.07.25c0,.09,0,.15,0,.29s0,.48,0,.65a2.63,2.63,0,0,0-.43,0l-.11.05a.46.46,0,0,0-.12.13c-.06.07-.06.1-.06.1s0,0,0,0a5.85,5.85,0,0,1,.44.39,1.67,1.67,0,0,1,.4.82,1.18,1.18,0,0,1-.18.88.62.62,0,0,1-.56.29C37.53,27.92,37.34,27.75,37.35,27.71Z"/><path class="cls-21" d="M38.76,30c3-.1,1.87-8.37,1.34-8.21a2.82,2.82,0,0,0-1.69-1.12,5.42,5.42,0,0,1-.21,3.07s-.79-1.25-1.21-.83.23,2.42-.68,2.62c-.28.06-.46-.16-.58-.49C35.9,27.45,37,30,38.76,30Z"/><g class="cls-4"><path class="cls-25" d="M36,22.72c-.13.42-.08.84.12,1s.45-.16.58-.59.07-.85-.12-.95S36.1,22.29,36,22.72Z"/><path class="cls-25" d="M36.74,21.49a.36.36,0,0,0,.15.39.21.21,0,0,0,.32-.11.34.34,0,0,0-.14-.38A.22.22,0,0,0,36.74,21.49Z"/></g><path class="cls-20" d="M73.49,22c.23-6.79-2.57-17.8-16.86-17.91S40.08,19.75,40.08,19.75A42.85,42.85,0,0,0,38.76,30c.17,4.43,2.47,11,12.76,12.08s18.22-3.27,20.07-9.6a5.27,5.27,0,0,0,4.86-4.24C77.16,25.3,75.57,22.34,73.49,22Z"/><g class="cls-9"><path class="cls-21" d="M73.49,22a21.93,21.93,0,0,0-.84-6.83,17.59,17.59,0,0,0-2.33-4.88c2.06,3.46,2.42,8.66,2.31,11.82.18,0,.61-.09.9-.1Z"/><path class="cls-21" d="M75.36,23.14a6,6,0,0,1,.42,4.07,5.26,5.26,0,0,1-4.85,4.24c-1.85,6.33-9.78,10.65-20.07,9.6-5.42-.56-8.62-2.65-10.47-5.15,1.7,2.93,5,5.53,11.13,6.16,10.3,1,18.22-3.27,20.07-9.6a5.27,5.27,0,0,0,4.86-4.24A5.88,5.88,0,0,0,75.36,23.14Z"/></g><g class="cls-9"><path class="cls-20" d="M74.23,29.8a1,1,0,0,1-.42.84.74.74,0,0,1-.43.15.7.7,0,0,1-.52-.24,1.33,1.33,0,0,1-.31-.64.9.9,0,0,1,.22-.78,4,4,0,0,1,.44-.29.61.61,0,0,0,.21-.26.92.92,0,0,0,.06-.62.46.46,0,0,0-.32-.33.27.27,0,0,0-.12,0H72.9l-.07,0s0,0,0,0l-.11.16c-.16.24-.29.3-.45.31A.42.42,0,0,1,72,28a.73.73,0,0,1-.16-.29,4,4,0,0,1-.07-.88c0-.21,0-.41,0-.62a3.7,3.7,0,0,1,.32-1.13,2,2,0,0,1,.6-.73c.44-.32.8-.22.8-.17s-.32.1-.63.45a2.52,2.52,0,0,0-.59,1.68c0,.18,0,.36,0,.54a.54.54,0,0,0,0,.17c0,.08.08,0,.07,0h0l.1-.08a.75.75,0,0,1,.2-.1.76.76,0,0,1,.34-.06.79.79,0,0,1,.3.05,1,1,0,0,1,.29.16,1.44,1.44,0,0,1,.49.83A1.75,1.75,0,0,1,73.91,29a1.24,1.24,0,0,1-.44.44,2.31,2.31,0,0,0-.38.18.2.2,0,0,0-.09.22.64.64,0,0,0,.12.34.42.42,0,0,0,.55.13C74.05,30.15,74.18,29.76,74.23,29.8Z"/></g><path class="cls-25" d="M74.87,24.37c.3.31.64.4.77.2s0-.59-.32-.89-.64-.39-.76-.2S74.57,24.07,74.87,24.37Z"/><path class="cls-25" d="M73.75,22.9a.33.33,0,0,0,.15.38.21.21,0,0,0,.32-.1.34.34,0,0,0-.15-.39A.21.21,0,0,0,73.75,22.9Z"/><path class="cls-2" d="M61.87,27.76s.23.11.49.08a1,1,0,0,0,.85-.5c.16-.21.21-.46.17-.47s-.16.18-.33.33a2.08,2.08,0,0,1-.35.24,1.86,1.86,0,0,1-.39.19C62.11,27.71,61.88,27.72,61.87,27.76Z"/><path class="cls-2" d="M61.38,28.26s.21.21.5.28a1.94,1.94,0,0,0,.58.06,1.79,1.79,0,0,0,.55-.2c.26-.15.44-.38.41-.4s-.25.12-.5.2a1.82,1.82,0,0,1-.5.1,2,2,0,0,1-.5,0C61.66,28.32,61.4,28.22,61.38,28.26Z"/><path class="cls-2" d="M42.82,25.18s-.13.22-.09.46a1,1,0,0,0,.2.46,1.09,1.09,0,0,0,.44.23c.25.06.48,0,.47-.07s-.22,0-.4-.14a.8.8,0,0,1-.29-.23.84.84,0,0,1-.21-.3C42.85,25.41,42.86,25.19,42.82,25.18Z"/><path class="cls-2" d="M42.36,26.14s0,.3.14.54a1.14,1.14,0,0,0,.44.4,1.2,1.2,0,0,0,.59.05c.29,0,.51-.24.49-.27s-.27.08-.51.06a1,1,0,0,1-.45-.12,1,1,0,0,1-.39-.25C42.49,26.38,42.4,26.13,42.36,26.14Z"/><path class="cls-2" d="M46.24,25.59c0,1.36-.57,2.47-1.33,2.47s-1.4-1.1-1.42-2.46.57-2.46,1.33-2.47S46.22,24.23,46.24,25.59Z"/><path class="cls-26" d="M46.24,25.59c0,1.36-.57,2.47-1.33,2.47s-1.4-1.1-1.42-2.46.57-2.46,1.33-2.47S46.22,24.23,46.24,25.59Z"/><path class="cls-27" d="M45.46,23.42a4.06,4.06,0,0,1,.16,1.07c0,1.36-.57,2.47-1.33,2.47a.94.94,0,0,1-.64-.29c.24.82.71,1.39,1.26,1.39.76,0,1.36-1.11,1.33-2.47A3.11,3.11,0,0,0,45.46,23.42Z"/><path class="cls-28" d="M43.75,25.18c0,.46.14.86.38.88s.46-.33.49-.8-.13-.86-.38-.89S43.78,24.71,43.75,25.18Z"/><path class="cls-28" d="M44.69,23.93a.17.17,0,0,1-.17.19.18.18,0,0,1-.18-.19.18.18,0,0,1,.17-.19A.19.19,0,0,1,44.69,23.93Z"/><path class="cls-2" d="M62.44,26.76c-.15,1.36-.89,2.38-1.64,2.29s-1.24-1.26-1.09-2.61.89-2.38,1.64-2.29S62.6,25.41,62.44,26.76Z"/><path class="cls-26" d="M62.44,26.76c-.15,1.36-.89,2.38-1.64,2.29s-1.24-1.26-1.09-2.61.89-2.38,1.64-2.29S62.6,25.41,62.44,26.76Z"/><path class="cls-27" d="M62,24.57a4.41,4.41,0,0,1,0,.89c-.15,1.35-.89,2.38-1.64,2.29a1,1,0,0,1-.64-.42c.09.94.51,1.65,1.09,1.72.75.09,1.49-.93,1.64-2.29A3.06,3.06,0,0,0,62,24.57Z"/><path class="cls-28" d="M60.14,26c-.09.46,0,.87.26.92s.5-.27.59-.73,0-.88-.26-.93S60.23,25.53,60.14,26Z"/><path class="cls-28" d="M61.24,24.87A.19.19,0,0,1,61,25a.18.18,0,0,1-.15-.21.18.18,0,0,1,.19-.17A.18.18,0,0,1,61.24,24.87Z"/><path class="cls-21" d="M54.27,30.66a5.49,5.49,0,0,1-4.33-1.18s-1.22.78,1,1.6C53.77,32.18,54.27,30.66,54.27,30.66Z"/><g class="cls-9"><path class="cls-20" d="M53,31.27a6.2,6.2,0,0,1-.91,0,5.48,5.48,0,0,1-1.85-.63,1.08,1.08,0,0,1-.59-.63.55.55,0,0,1,.25-.56,1.5,1.5,0,0,1,.5-.22,1,1,0,0,1,.21,0,2.28,2.28,0,0,1,.51,0,3.1,3.1,0,0,1,.61.09,3.44,3.44,0,0,1,.37.14,6.66,6.66,0,0,1,.8.49c0-.31,0-.65,0-1,0-.19,0-.4,0-.61,0-.41,0-.84,0-1.22a5.61,5.61,0,0,0-.13-1.36,5.75,5.75,0,0,0-.16,1.36c0,.38,0,.81-.07,1.23l0,.61c0,.06,0,.08,0,.09L52.37,29l-.44-.18a3.39,3.39,0,0,0-.73-.15,2.83,2.83,0,0,0-.63,0,1.87,1.87,0,0,0-.28.06,1.94,1.94,0,0,0-.7.36,1.35,1.35,0,0,0-.35.45,1.09,1.09,0,0,0,0,.67,1.58,1.58,0,0,0,.88.88,4.86,4.86,0,0,0,2,.48A1.38,1.38,0,0,0,53,31.27Z"/></g><path class="cls-25" d="M51.09,29.59c-.06.14.13.35.43.47s.58.1.63,0-.14-.35-.43-.46S51.14,29.45,51.09,29.59Z"/><path class="cls-21" d="M57.57,30.9c0,1.36,1.71,2.48,3.87,2.51s3.91-1.06,3.92-2.42-1.71-2.49-3.87-2.51S57.58,29.54,57.57,30.9Z"/><path class="cls-21" d="M39.5,29.11c-.26,1.33,1.23,2.74,3.32,3.15s4-.35,4.25-1.69-1.23-2.74-3.32-3.15S39.76,27.77,39.5,29.11Z"/><path class="cls-21" d="M47.67,32.89H48l.21,0h0a2.86,2.86,0,0,1,2.36,1.28s.23-.91,4-.35l.68.1.31,0a4.39,4.39,0,0,0,.79,0,3.38,3.38,0,0,0,.61-.1,4.42,4.42,0,0,1,1.39-.27l0,0c-.05.16-1.41,5-5,5.81a3.84,3.84,0,0,1-2.51-.13,2.17,2.17,0,0,1-.56-.4,2.06,2.06,0,0,1-.46-.75,1.34,1.34,0,0,1,.05-1.17c.31-.33.19-1.6.1-2.25A4.52,4.52,0,0,1,48.5,34a2.68,2.68,0,0,1-.87-1.15Z"/><path class="cls-17" d="M58.4,33.3s-1.4,5-5.17,5.81-4-2-3.6-2.45,0-2.63,0-2.63S54.86,35.11,58.4,33.3Z"/><path class="cls-18" d="M49.68,34s.43.09,1.12.17c.26.88-.06,2.34-.34,2.22s-1.13.13-.74,1.29,3,2,4.79.61.68-1.87.68-1.87a27.38,27.38,0,0,1,1.87-2.62,9.11,9.11,0,0,0,1.34-.53s-1.4,5-5.17,5.81-4-2-3.6-2.45S49.68,34,49.68,34Z"/><path class="cls-2" d="M50,34s.3.09.79.18l.31.06h0c.2,0,.42.07.66.09a11.64,11.64,0,0,0,3.12,0h0l.24,0,.39-.07.17,0,.49-.13c.19,0,.39-.12.59-.19l.06,0a6.86,6.86,0,0,0,.83-.38C57,35.07,55.65,37,53.6,37.4a3.48,3.48,0,0,1-2.77-.3c-.73-.53-.61-1.37-.68-2.16C50.12,34.63,50.08,34.33,50,34Z"/><path class="cls-6" d="M51,35.8A2.26,2.26,0,0,1,50.24,34c.25.07.49.13.75.18l.68.12a10.92,10.92,0,0,0,4,0l.17,0,.47-.13.43-.14a5.32,5.32,0,0,1-3,2.12A3.31,3.31,0,0,1,51,35.8Z"/><path class="cls-11" d="M52.52,36.24c2.37-.62,4.17-2.05,2.57-1.49a9.89,9.89,0,0,1-4.66.25,3.79,3.79,0,0,1-.19-1c.25.07.49.13.75.18l.68.12a10.92,10.92,0,0,0,4,0l.17,0,.47-.13.43-.14a5.32,5.32,0,0,1-3,2.12A4.83,4.83,0,0,1,52.52,36.24Z"/><path class="cls-17" d="M58.45,33.28a13.91,13.91,0,0,1-7.28,1.47c-3.2-.44-3.75-2.24-3.75-2.24s2.31-.08,3,1.31c0,0,.25-1,4.81-.25C57,33.87,57.58,33.18,58.45,33.28Z"/><path class="cls-18" d="M58.45,33.28a13.91,13.91,0,0,1-7.28,1.47c-3.2-.44-3.75-2.24-3.75-2.24s2.31-.08,3,1.31c0,0,.25-1,4.81-.25C57,33.87,57.58,33.18,58.45,33.28Z"/><path class="cls-18" d="M48,32.53c.19.72,1.66,2.14,4.25,1.78,1.63-.22,2.14-.58,2.26-.86l.74.12c1.8.3,2.34-.39,3.21-.29a13.91,13.91,0,0,1-7.28,1.47c-3.2-.44-3.75-2.24-3.75-2.24A4.8,4.8,0,0,1,48,32.53Z"/><path class="cls-29" d="M52.4,38.31c0,.2.34.31.7.26s.62-.26.59-.46-.35-.31-.7-.25S52.37,38.12,52.4,38.31Z"/><path class="cls-2" d="M60.55,20.44c0,.08.37.11.69.25a2.43,2.43,0,0,1,.57.33,2.56,2.56,0,0,1,.56.35c.26.22.46.53.54.5s0-.42-.22-.77a2.44,2.44,0,0,0-.57-.6,2.58,2.58,0,0,0-.79-.23C60.92,20.23,60.53,20.36,60.55,20.44Z"/><path class="cls-2" d="M43.69,20.36c.08,0,.33-.25.63-.43a2.79,2.79,0,0,1,.64-.28,2.45,2.45,0,0,1,.64-.22,1.48,1.48,0,0,1,.47,0c.13,0,.23.05.26,0s0-.13-.16-.24a1.17,1.17,0,0,0-.57-.2,2.15,2.15,0,0,0-.86.08,2.37,2.37,0,0,0-.69.51C43.75,19.92,43.62,20.33,43.69,20.36Z"/><path class="cls-21" d="M40.08,19.75S42.26,4,56.63,4.08,73.72,15.2,73.49,22c1.58.27,2.88,2.05,3.1,4.18-1.64-.44-3.47-2.34-4-2.91-.23,1.6-1.15,7.11-1.83,11.2A12,12,0,0,1,67.86,38c-.19-4.24-.56-12.22-.75-15.35a16.73,16.73,0,0,1-3-1.89A35.24,35.24,0,0,1,56,12.18s-9,4.53-14.36,3.64c0,0-2,5-2,7l-.12-.13C39.77,21,40.08,19.75,40.08,19.75Z"/><path class="cls-2" d="M51.86.39C58.38-1.07,61.48,2,61.48,2S68.8-.73,74.28,4.91c0,0,5,1.67,5.7,13.86.63,11.2-5.79,4.56-6.84,3.41-.39,2.65-2.63,16-2.63,16l-2,1.5s-.62-13.74-.88-18.08a17.44,17.44,0,0,1-3-1.9,35.51,35.51,0,0,1-8.16-8.55s-8.94,4.52-14.35,3.63c0,0-2,5-2,7,0,0-1.43-1.81-3.24-.73C36.86,21,35.3,4.1,51.86.39Z"/><path class="cls-3" d="M75.48,13.22l0-.06.11.22C75.53,13.32,75.5,13.27,75.48,13.22ZM80,18.77c0-.38,0-.75-.08-1.11s-.06-.71-.1-1.06l-.06-.49c0-.18,0-.36-.07-.53a2.7,2.7,0,0,0,0-.28c0-.21-.06-.42-.1-.63s-.1-.59-.16-.88l-.15-.74,0-.12c.2,2.18.24,4.3-.36,4.55s-1.29-.62-2-1.64c-.44-.69-.84-1.46-1.13-2,.17.41.38.93.59,1.51l.08.2,0,.12a16.59,16.59,0,0,1,.85,3.14,3.23,3.23,0,0,1-.5,2.82c-.73.69-2,.19-3.32-.7h0c-.28-.2-.57-.41-.85-.63a32.73,32.73,0,0,1-3.42-3.19c.13.24,1.53,2.86.52,3.57-.65.46-3.74-1.19-6.47-3l-.05,0c-.72-.47-1.43-.95-2-1.37l-.07-.06L61,16.14l-.3-.23c-.45-.33-.84-.64-1.15-.91h0l0,0,0,0c.21.23.43.47.67.71a3.7,3.7,0,0,0,.28.28l.06.06.52.52.06.05.56.54,1,.94.84.7c.32.27.66.54,1,.81a16.85,16.85,0,0,0,3,1.9c0,.21,0,.45,0,.71s0,.87.07,1.37l0,.56c0,.13,0,.27,0,.41l0,.54c.06,1.14.13,2.4.19,3.68,0,.38,0,.75,0,1.13l.06,1.2c0-1.2,0-2.68.17-3.88h0c0-.38.09-.73.14-1v-.05c.13-.63.31-1.06.55-1.09.51-.05.76.91.91,1.94,0,0,0,.09,0,.15a22.39,22.39,0,0,1,.14,2.35s0-.72.13-1.51v-.23c.14-1,.41-2,.92-1.64a2.26,2.26,0,0,1,.47,1.31v0c0,.3.07.61.1,1h0c0,.13,0,.27,0,.4v0c0,.45,0,.9,0,1.36v.58c0-.22.08-.45.11-.67L72,29.08l.06-.34.06-.35,0-.28h0c.06-.36.12-.72.18-1.06v0h0l0-.17c.06-.36.12-.72.18-1.06s.07-.49.11-.72a2.34,2.34,0,0,0,0-.26h0c0-.09,0-.17,0-.26a0,0,0,0,1,0,0l0-.22h0c0-.24.07-.46.11-.67h0c0-.14,0-.28.07-.41l.06-.39c0-.24.07-.45.09-.62.14.15.36.39.65.67,0,0,0,0,0,0l.36.35.34.3a11.54,11.54,0,0,0,1.15.87l0,0,.09.06h0l.43.25h0l.39.19h0a2.67,2.67,0,0,0,.26.09l.21.06h0l.26,0,.32,0H78l.17,0h0l.19-.05.15-.06.14-.07a1.56,1.56,0,0,0,.27-.2,2,2,0,0,0,.19-.21,1.09,1.09,0,0,0,.13-.17,3,3,0,0,0,.43-.92,2.76,2.76,0,0,0,.08-.27c0-.1.05-.2.07-.3l.06-.3.06-.36c0-.12,0-.24,0-.37a6.39,6.39,0,0,0,0-.64v0c0-.15,0-.3,0-.46C80,20.15,80,19.5,80,18.77Z"/><path class="cls-3" d="M54.14,10.67a4.46,4.46,0,0,0-3.24.07s5.92-4.16,4.72-5.49a13.33,13.33,0,0,0-3.87-2.47s3.31-.07,5,1.06c0,0,2.63-.1.4-1.5,0,0,2.1-.41,2.32-1.53a6.73,6.73,0,0,1,2,1.23,13.52,13.52,0,0,1,7.9-.15,3.21,3.21,0,0,0-2.48.54c-1.06,1.12,2,4.27,2,4.27S65,4.82,64.22,5.17s4,4.16,4,4.16S62.74,6.8,62.53,7.5s1.9,2.82,1.9,2.82-6.27-4.09-5.42.92a13.76,13.76,0,0,0,2.18,5.43,31.56,31.56,0,0,1-4.71-5.56,47.2,47.2,0,0,1-6.27,2.52C52.24,12.66,55.08,11.14,54.14,10.67Z"/><g class="cls-4"><path class="cls-2" d="M67.59,21a2.26,2.26,0,0,0-.27-.22l-.73-.54c-.61-.45-1.42-1-2.22-1.65s-1.57-1.23-2.14-1.72S61.3,16,61.3,16a25.83,25.83,0,0,1-2.76-2.88A21.65,21.65,0,0,1,57,10.87c-.2-.32-.36-.59-.47-.78a1.45,1.45,0,0,0-.18-.29,1.76,1.76,0,0,0,.13.32c.09.2.23.48.42.81a19.12,19.12,0,0,0,1.51,2.32,24.43,24.43,0,0,0,2.73,3s.37.34.95.82,1.38,1.1,2.2,1.68,1.64,1.16,2.27,1.57l.76.5A1.19,1.19,0,0,0,67.59,21Z"/></g><g class="cls-4"><path class="cls-2" d="M67.78,21.37a3,3,0,0,0,.91.71,6.13,6.13,0,0,0,1.06.45,6.39,6.39,0,0,0,1.14.14A3,3,0,0,0,72,22.51s-.57,0-1.12-.05a6,6,0,0,1-1.08-.23,6.17,6.17,0,0,1-1-.35C68.27,21.66,67.81,21.34,67.78,21.37Z"/></g><g class="cls-4"><path class="cls-2" d="M61.45,8.05a1.29,1.29,0,0,0-.35-.56A3.38,3.38,0,0,0,60.6,7,3.2,3.2,0,0,0,60,6.79a1.22,1.22,0,0,0-.66-.07,4,4,0,0,0,.59.26,4.41,4.41,0,0,1,.53.32,4.32,4.32,0,0,1,.51.34C61.2,7.84,61.41,8.08,61.45,8.05Z"/></g><g class="cls-4"><path class="cls-2" d="M70.65,13.11a1.19,1.19,0,0,0-.08-.29c-.07-.18-.18-.44-.32-.73a9.54,9.54,0,0,0-1.37-2,12.61,12.61,0,0,0-1.79-1.66c-.53-.4-.9-.63-.9-.63s-.37-.24-1-.55a24.22,24.22,0,0,0-2.19-1,9.43,9.43,0,0,0-2.31-.74,2.07,2.07,0,0,0-.8.08.73.73,0,0,0-.27.15,2.13,2.13,0,0,1,1.06-.11A9.53,9.53,0,0,1,63,6.41c.79.36,1.57.75,2.14,1.08s.93.56.93.56.37.23.9.61a12.09,12.09,0,0,1,1.79,1.57,10,10,0,0,1,1.42,1.91C70.47,12.71,70.63,13.12,70.65,13.11Z"/></g><g class="cls-4"><path class="cls-2" d="M78.25,26.21a7.22,7.22,0,0,0-.69-.56c-.42-.32-1-.77-1.51-1.23C75,23.49,74,22.48,74,22.48s-1-1-1.94-2.08c-.46-.54-.9-1.09-1.23-1.51a7.49,7.49,0,0,0-.55-.7,4.12,4.12,0,0,0,.46.76c.3.45.72,1,1.16,1.59.88,1.12,1.89,2.15,1.89,2.15s1,1,2.14,1.89c.56.45,1.14.87,1.58,1.17A4.54,4.54,0,0,0,78.25,26.21Z"/></g><g class="cls-4"><path class="cls-2" d="M75.8,22.07a6.82,6.82,0,0,0,.71,1l.72,1L78,25a8.58,8.58,0,0,0,.78.94,5,5,0,0,0-.61-1.07c-.34-.51-.7-1-.7-1s-.39-.48-.8-.93A5.28,5.28,0,0,0,75.8,22.07Z"/></g><g class="cls-4"><path class="cls-2" d="M71.1,8.41a1.69,1.69,0,0,0,.25.3l.7.74c.57.61,1.34,1.43,2,2.3a17.65,17.65,0,0,1,1.73,2.53,11.45,11.45,0,0,1,.6,1.25,13,13,0,0,1,.51,1.29c.28.79.59,1.87.89,2.95s.61,2.16.84,3l.29,1a2.38,2.38,0,0,0,.13.36A1.51,1.51,0,0,0,79,23.7c-.06-.24-.14-.58-.23-1-.21-.82-.48-1.9-.76-3s-.56-2.18-.83-3-.49-1.32-.49-1.32a12.82,12.82,0,0,0-.64-1.27,16.9,16.9,0,0,0-1.81-2.53c-.72-.86-1.52-1.66-2.12-2.25l-.74-.7Z"/></g><g class="cls-4"><path class="cls-2" d="M69.3,7.15a3.47,3.47,0,0,0-.43-.45c-.26-.26-.63-.59-1-.92s-.77-.62-1.08-.84-.52-.35-.52-.35a9.14,9.14,0,0,0-1.82-.82,4.9,4.9,0,0,0-2-.26,2.83,2.83,0,0,0,.6.11A7,7,0,0,1,64.38,4a9.77,9.77,0,0,1,1.74.88A15.71,15.71,0,0,1,67.73,6C68.51,6.55,69.27,7.18,69.3,7.15Z"/></g><g class="cls-4"><path class="cls-2" d="M76.18,9.81s.35.74.68,1.48.61,1.49.61,1.49.31.75.56,1.52.45,1.56.5,1.55a7.88,7.88,0,0,0-.29-1.61c-.21-.79-.49-1.57-.49-1.57s-.31-.76-.7-1.48A7.17,7.17,0,0,0,76.18,9.81Z"/></g><g class="cls-4"><path class="cls-2" d="M69.32,42.8c.08,0-.46-10.44-.46-10.44S68.19,21.94,68.11,22s.45,10.43.45,10.43S69.23,42.8,69.32,42.8Z"/></g><g class="cls-4"><path class="cls-2" d="M70.9,39.73a2.46,2.46,0,0,0,0-.37c0-.24,0-.57.06-1,0-.81.13-1.89.21-3,.17-2.16.43-4.3.43-4.3s.21-2.15.51-4.29c.14-1.07.3-2.14.43-2.94l.15-1c0-.24,0-.37,0-.37a1.8,1.8,0,0,0-.09.36c0,.23-.13.56-.21,1-.16.79-.35,1.86-.53,2.92-.34,2.14-.59,4.29-.59,4.29s-.22,2.16-.34,4.32c-.06,1.08-.1,2.16-.11,3,0,.4,0,.74,0,1A1.61,1.61,0,0,0,70.9,39.73Z"/></g><g class="cls-4"><path class="cls-2" d="M70.13,30.19a15.2,15.2,0,0,0,.05-1.71l0-1.7v-1.7a16.72,16.72,0,0,0,0-1.71,9.65,9.65,0,0,0-.19,1.7c-.06.85-.08,1.71-.08,1.71s0,.85,0,1.71A11.07,11.07,0,0,0,70.13,30.19Z"/></g><g class="cls-4"><path class="cls-2" d="M55.43,1.71a6.32,6.32,0,0,0,.88.29,7.47,7.47,0,0,1,.84.34,8.79,8.79,0,0,1,.82.39,7.65,7.65,0,0,0,.8.46,2.5,2.5,0,0,0-.69-.64,5.4,5.4,0,0,0-.81-.48,6.2,6.2,0,0,0-.9-.28A2.57,2.57,0,0,0,55.43,1.71Z"/></g><g class="cls-4"><path class="cls-2" d="M48.5,3.05a7.61,7.61,0,0,0,.76-.1,11.83,11.83,0,0,1,1.68-.11A12.77,12.77,0,0,1,52.62,3c.45.07.74.14.74.14s.3.06.74.18a12.67,12.67,0,0,1,1.59.55,13,13,0,0,1,1.48.8,6.26,6.26,0,0,0,.66.4,4,4,0,0,0-.59-.5,10.37,10.37,0,0,0-1.46-.89A12.18,12.18,0,0,0,54.18,3l-.75-.2s-.31-.07-.77-.13a11.28,11.28,0,0,0-1.72-.08,11,11,0,0,0-1.7.2A2.93,2.93,0,0,0,48.5,3.05Z"/></g><g class="cls-4"><path class="cls-2" d="M38.5,13.08a2.29,2.29,0,0,0,.34.22,7,7,0,0,0,.95.47,11.05,11.05,0,0,0,3.12.76,17.85,17.85,0,0,0,3.21,0c.88-.08,1.46-.17,1.46-.17s.57-.09,1.43-.26a24,24,0,0,0,3.11-.81A11.66,11.66,0,0,0,55,11.75c.36-.25.65-.47.85-.63a1.67,1.67,0,0,0,.3-.26,2.37,2.37,0,0,0-.34.21l-.87.58a11.93,11.93,0,0,1-2.84,1.41A22.61,22.61,0,0,1,49,13.8c-.86.16-1.43.24-1.43.24s-.57.1-1.43.19a17.85,17.85,0,0,1-3.17.08,11.26,11.26,0,0,1-3.1-.65C39,13.36,38.52,13.05,38.5,13.08Z"/></g><g class="cls-4"><path class="cls-2" d="M37.74,16.39a2.82,2.82,0,0,0,1.26.32,4.72,4.72,0,0,0,1.31-.15A4.51,4.51,0,0,0,41.49,16a2.87,2.87,0,0,0,.89-1s-.46.45-1,.77a4.64,4.64,0,0,1-1.14.48,4.79,4.79,0,0,1-1.22.22A12.44,12.44,0,0,1,37.74,16.39Z"/></g><g class="cls-4"><path class="cls-2" d="M38.89,20.56a5,5,0,0,0,.36-.73c.16-.36.36-.7.36-.7s.17-.36.37-.71a5.11,5.11,0,0,0,.39-.7s-.32.26-.57.58a6.67,6.67,0,0,0-.45.69,6.07,6.07,0,0,0-.3.76A2.13,2.13,0,0,0,38.89,20.56Z"/></g><g class="cls-4"><path class="cls-2" d="M46.72,5.23s.72-.11,1.44-.1a8.2,8.2,0,0,1,1.41.12A8.78,8.78,0,0,1,51,5.58c.68.22,1.3.58,1.33.55A4.11,4.11,0,0,0,51,5.38a5.77,5.77,0,0,0-2.88-.47A4.29,4.29,0,0,0,46.72,5.23Z"/></g><g class="cls-4"><path class="cls-2" d="M44.25,12.12a.76.76,0,0,0,.26,0c.17,0,.42,0,.71,0a17.33,17.33,0,0,0,2.13-.24,19.54,19.54,0,0,0,3-.78l.25-.1c.16-.06.39-.14.65-.26a19.07,19.07,0,0,0,1.93-1A14.27,14.27,0,0,0,55,8.61a1.42,1.42,0,0,0,.59-.77,2.4,2.4,0,0,1-.66.68A18.27,18.27,0,0,1,53.1,9.6a20.11,20.11,0,0,1-1.93.88l-.65.25-.25.09a21.21,21.21,0,0,1-3,.85c-.76.16-1.52.28-2.1.34A9.44,9.44,0,0,0,44.25,12.12Z"/></g><g class="cls-4"><path class="cls-2" d="M38.82,10.75s.61-.35,1.24-.65a13.37,13.37,0,0,1,1.28-.52,12.5,12.5,0,0,1,1.32-.44C43.33,9,44,8.86,44,8.81a4.79,4.79,0,0,0-1.41.12,11,11,0,0,0-1.37.36A10,10,0,0,0,40,9.91,4.51,4.51,0,0,0,38.82,10.75Z"/></g><path class="cls-3" d="M39.13,18.45c.57-1.09-1.67-1.73-1.67-1.73A6,6,0,0,0,39.7,16c1.48-.71-1-2.44-1.09-2.64l3.6,1,.16.36-.24,0s-2,5-2,7c0,0-1.43-1.81-3.24-.73a18,18,0,0,1,0-2.34C37.7,19.09,38.77,19.12,39.13,18.45Z"/><g class="cls-5"><path class="cls-2" d="M68.14,19.48c-1.51.4-3.24-1.14-4.35-2-1.34-1.07-2.71-2.17-2.82-4A.51.51,0,0,1,61.6,13c1.61.3,2.6,1.55,3.79,2.56,1,.86,2.88,1.83,3.19,3.17a.64.64,0,0,1-.44.77Z"/></g><g class="cls-5"><path class="cls-2" d="M68,16.16a1.82,1.82,0,0,1-1-.42,2.86,2.86,0,0,1-.82-.77c-.12-.16.08-.39.26-.33a2.94,2.94,0,0,1,1,.54,1.84,1.84,0,0,1,.71.78.16.16,0,0,1-.16.2Z"/></g><g class="cls-5"><path class="cls-2" d="M73.45,20c-1.19-1.71-2.44-3.39-3.73-5C68.64,13.58,67.35,12.4,66.3,11c-.25-.33.16-.76.51-.66,1.9.51,3.18,2.23,4.34,3.73a17.49,17.49,0,0,1,3,5.55.41.41,0,0,1-.74.32Z"/></g><g class="cls-5"><path class="cls-2" d="M75,16.76c-.35-.19-.41-.76-.56-1.1a12.41,12.41,0,0,1-.62-1.27c-.08-.22.22-.37.37-.22a3.73,3.73,0,0,1,.74,1.28c.15.36.47.89.25,1.26a.13.13,0,0,1-.18.05Z"/></g><g class="cls-5"><path class="cls-2" d="M72.7,12.54c-1.06-.45-1.94-1.7-2.72-2.52s-2-1.7-2.47-2.82c-.05-.12.09-.22.2-.19,1.17.28,2.17,1.47,3,2.31s2,2,2.13,3.11c0,.05,0,.14-.11.11Z"/></g><g class="cls-5"><path class="cls-2" d="M77.14,13.83c-1.23-1.58-2.32-3.24-3.69-4.72s-3.16-2.34-4.1-4a.64.64,0,0,1,.55-1c2.12.25,3.66,2.14,4.91,3.73a12.15,12.15,0,0,1,2.63,5.79.18.18,0,0,1-.3.13Z"/></g><g class="cls-5"><path class="cls-2" d="M76.39,8.23l-.63-.76c-.07-.08,0-.21.13-.12l.66.72c.1.11-.06.27-.16.16Z"/></g><g class="cls-5"><path class="cls-2" d="M69.39,29.31a17.61,17.61,0,0,1,.39,6.51c0,.23-.41.33-.45.06a17.7,17.7,0,0,1-.07-6.57c0-.07.11-.06.13,0Z"/></g><g class="cls-5"><path class="cls-2" d="M52,11.24c-.81,1.41-2.4,1.8-3.9,2.08a14.12,14.12,0,0,1-6.59,0,.43.43,0,0,1,.12-.84c3.57-.22,6.95.31,10.27-1.37a.07.07,0,0,1,.1.09Z"/></g><g class="cls-5"><path class="cls-2" d="M54.44,5.29A14.07,14.07,0,0,1,52,4.53c-.14-.07,0-.29.11-.25a12.58,12.58,0,0,1,2.33.93c.05,0,0,.09,0,.08Z"/></g><g class="cls-5"><path class="cls-2" d="M50.62,4A21.45,21.45,0,0,1,48,4.33a6.15,6.15,0,0,1-2.41.12.18.18,0,0,1,0-.33,4.5,4.5,0,0,1,2.59-.5A6.75,6.75,0,0,1,50.63,4a0,0,0,0,1,0,0Z"/></g><g class="cls-5"><path class="cls-2" d="M51.7,8.33c-1.06,1.14-3,1.59-4.42,2a10.91,10.91,0,0,1-4.92.62.57.57,0,0,1-.13-1A18.54,18.54,0,0,1,46.8,8.64c1.48-.34,3.13-1.08,4.64-.92a.36.36,0,0,1,.26.61Z"/></g><g class="cls-5"><path class="cls-2" d="M46.1,7.13a2,2,0,0,1-1.21.4,3.83,3.83,0,0,1-1.35,0,.16.16,0,0,1,0-.29,3.73,3.73,0,0,1,1.31-.34A2,2,0,0,1,46.08,7a.11.11,0,0,1,0,.15Z"/></g><g class="cls-5"><path class="cls-2" d="M55.14,2.32a3.32,3.32,0,0,1-1.37-.27c-.55-.13-1.05-.35-1.59-.52-.1,0-.12-.2,0-.22a4.18,4.18,0,0,1,1.69,0A2.41,2.41,0,0,1,55.29,2a.25.25,0,0,1-.15.36Z"/></g><line class="cls-13" x1="44.42" y1="85.66" x2="44.42" y2="85.62"/><path class="cls-20" d="M51.25,82.63a2.67,2.67,0,0,1-.14.36s0,0,0,0l-.07.12a1.38,1.38,0,0,1-.17.25,2.56,2.56,0,0,1-.2.26,2.77,2.77,0,0,1-.78.6,2.29,2.29,0,0,1-1,.28A5.68,5.68,0,0,1,46,83.47l0,0-.11-.06a.5.5,0,0,0-.21-.07c-.17,0-.23.25-.25.56s0,.49,0,.75v.18a1.09,1.09,0,0,1,0,.18H44.5a.28.28,0,0,0-.08.11V85h-1.2a3.76,3.76,0,0,1-.77-1.24c-.76-2-.22-3-.1-3.19h0c-.13.11-1.06,1-1.46.41-.27-.37,0-1.08.73-1.95a5.8,5.8,0,0,1,.55-.58,14.06,14.06,0,0,1,1.29-1.1,2.13,2.13,0,0,1,1-.41,3.26,3.26,0,0,1,.7,0h.15l.37.06a.69.69,0,0,1,0-.13h0a.84.84,0,0,1,0-.39,1.11,1.11,0,0,1,.17-.3h0a1.57,1.57,0,0,1,.31-.32h0l.05,0h0l.17-.12.08,0h0l.12-.06h0a1.17,1.17,0,0,1,.24-.09l.06,0a.27.27,0,0,1,.12,0,0,0,0,0,1,0,0h.06c.48-.08.86.09.75.61a.68.68,0,0,0,0,.14A5.22,5.22,0,0,0,48,77.88a13.74,13.74,0,0,1,1.26.8l.15.1h0l.17.12.09.07,0,0a3.41,3.41,0,0,1,.37.37,2.11,2.11,0,0,1,.15.15l.31.4s0,0,0,0h0l.24.37A2.87,2.87,0,0,1,51.25,82.63Z"/><path class="cls-13" d="M43.83,84.87a4.26,4.26,0,0,1-.14-1,6.21,6.21,0,0,1,0-1c0-.51.13-1,.1-1a3.64,3.64,0,0,0-.28,1,5.49,5.49,0,0,0-.08,1.07,4.25,4.25,0,0,0,.23,1l0,.07h.18S43.84,84.91,43.83,84.87Zm.54-6.58a.82.82,0,0,0-.24.1,2.41,2.41,0,0,0-.36.23c-.22.18-.42.38-.55.51l-.15.18a5.84,5.84,0,0,0-.52.83c-.07.13-.13.27-.19.39a0,0,0,0,1,0,0h0c-.1.27-.16.48-.13.49a1.5,1.5,0,0,0,.15-.24,4.76,4.76,0,0,1,.34-.58,6.07,6.07,0,0,1,.56-.76,5.62,5.62,0,0,1,.62-.71,2.07,2.07,0,0,1,.52-.38c.16-.07.27-.1.27-.12A.62.62,0,0,0,44.37,78.29Zm-.86,1.8s-.06.08-.09.13-.2.29-.3.46a6.17,6.17,0,0,0-.49.93,4.35,4.35,0,0,0-.23,1,2,2,0,0,0,.12,1,7.43,7.43,0,0,1,.06-1,4.44,4.44,0,0,1,.29-1,8.79,8.79,0,0,1,.4-.93l.3-.56s0,0,0,0a1.26,1.26,0,0,1,.07-.16.06.06,0,0,1,0-.06l0-.09A2.88,2.88,0,0,0,43.51,80.09Zm.21-.25h0Zm4-2h0a2.43,2.43,0,0,0-.43-.25l0,0L47,77.37l-.47-.24a.84.84,0,0,0-.18-.07h0c-.06,0-.13-.06-.21-.08H46l-.08,0-.1,0-.16,0h-.35a.38.38,0,0,0-.14.05h0s-.06,0-.06,0,.1,0,.22,0a1.37,1.37,0,0,1,.44.1l.16.08.13.06.13.07.18.09h0l.65.25h0a2.7,2.7,0,0,0,.67.2Zm-3.29,7.81v0"/><line class="cls-13" x1="44.42" y1="85.66" x2="44.42" y2="85.62"/><path class="cls-21" d="M51.25,82.63a2.67,2.67,0,0,1-.14.36h0v0l-.07.12a1.38,1.38,0,0,1-.17.25,2.56,2.56,0,0,1-.2.26,2.77,2.77,0,0,1-.78.6,2.29,2.29,0,0,1-1,.28A5.68,5.68,0,0,1,46,83.47l0,0-.11-.06a.5.5,0,0,0-.21-.07c-.17,0-.23.25-.25.56s0,.49,0,.75v.18a1.09,1.09,0,0,1,0,.18H44.5a.28.28,0,0,0-.08.11V85h-1.2a3.76,3.76,0,0,1-.77-1.24c-.76-2-.22-3-.1-3.19h0c-.13.11-1.06,1-1.46.41-.27-.37,0-1.08.73-1.95a1.72,1.72,0,0,0-.25.82c.08.4,1.1-.19,1.85-.7.39-.25.7-.49.79-.56a9.55,9.55,0,0,0-1.64,2.24.16.16,0,0,0,0,.12c.14.26.68-.3,1-.71,0,0,.07-.09.09-.13a2.88,2.88,0,0,1,.21-.23l0,.09a.06.06,0,0,0,0,.06,1.26,1.26,0,0,0-.07.16s0,0,0,0c-.29.73-.86,2.26-.56,2.39s1.23-2,1.33-2.29c-.16.6-.88,3.84-.1,3.92a.27.27,0,0,0,.18,0c.62-.26.72-2.21.72-2.21a1.67,1.67,0,0,0,.76.4H46a3,3,0,0,0,.8.11h0a5.44,5.44,0,0,0,1.32-.11,1.49,1.49,0,0,0,1.08-.77,2.69,2.69,0,0,0,.3-1.11v0a6.34,6.34,0,0,0-.08-1.33.5.5,0,0,1,0-.12c0-.13-.06-.25-.08-.36l.15.1h0l.17.12.09.07,0,0a3.41,3.41,0,0,1,.37.37,2.11,2.11,0,0,1,.15.15l.31.4s0,0,0,0h0c.09.12.17.24.25.37A10.8,10.8,0,0,1,51.25,82.63Z"/><path class="cls-21" d="M47.19,75.36,47,75.6a1.42,1.42,0,0,0,.73,2.23,12.48,12.48,0,0,0-1.55-.56c-.34-.1-1.06-.23-1.72-.35a3.61,3.61,0,0,1,1.22,0,1,1,0,0,1,0-.53A1.94,1.94,0,0,1,47.19,75.36Z"/><path class="cls-30" d="M47.74,77.83l.11,0Z"/><path class="cls-6" d="M57.57,85l.49-.07c.79-.12,1.62-.26,2.45-.43l.41-.08c1-.2,2.08-.45,3.1-.74l.6-.18h0c.57-.18,1.13-.36,1.68-.56s.84-.33,1.24-.51l.14-.06.44-.2c.3-.14.58-.29.86-.44a10.64,10.64,0,0,0,2.83-2.14,3.33,3.33,0,0,0,.25-.28A5.88,5.88,0,0,0,72.92,78a2.75,2.75,0,0,0,.15-.36c.05-.13.09-.25.13-.38s.07-.25.1-.38a22.43,22.43,0,0,0,.34-5.46c0-.3,0-.61,0-.93l0-.47q0-.7-.12-1.44c0-.32-.06-.65-.1-1s-.07-.65-.12-1-.1-.82-.16-1.23h0c-.51-3.54-1.24-7.13-1.91-10h0C70.31,51.61,69.57,49,69.57,49h-.45a8.81,8.81,0,0,0-2.39.32,5.34,5.34,0,0,0-2.79,1.82A7,7,0,0,0,62.6,55.3a8.08,8.08,0,0,0,0,.85v0s.15.77.38,2l0,.17c.34,1.87.85,4.7,1.26,7.46a45.92,45.92,0,0,1,.74,7.5,1.38,1.38,0,0,1-.17.59l0,.06a4.64,4.64,0,0,1-2.26,1.68,18.28,18.28,0,0,1-2.77.94c-.16,0-.32.09-.48.12a64.94,64.94,0,0,1-8.47,1.4h-.14l-.25,0h0l-.82.07c-.08.2-.16.39-.22.59h0a1.17,1.17,0,0,0-.07.25.32.32,0,0,0,0,.09,6.83,6.83,0,0,0-.22,1.58v0a5.32,5.32,0,0,0,0,.9,8.75,8.75,0,0,0,.66,2.48l.06.14c.13.28.25.51.36.71,0,0,0,0,0,0h7.31Z"/><g class="cls-7"><path class="cls-8" d="M65,50.71a6,6,0,0,0-1,1.48,11.73,11.73,0,0,0-.68,1.65A10.75,10.75,0,0,0,63,55.6a6.1,6.1,0,0,0,0,1.78s0-.89.17-1.75a13.23,13.23,0,0,1,.39-1.71,13.72,13.72,0,0,1,.58-1.64C64.53,51.48,65,50.74,65,50.71Z"/><g class="cls-9"><path class="cls-10" d="M62.56,53s-.14.17-.29.74a4,4,0,0,0,0,2.32,3,3,0,0,0,.49,1.05s-.19-.55-.28-1.1a5.46,5.46,0,0,1-.09-1.11,6.44,6.44,0,0,1,.07-1.11C62.57,53.25,62.6,53,62.56,53Z"/></g><path class="cls-8" d="M69.29,75.63a2.5,2.5,0,0,0-.75-1.08,4.14,4.14,0,0,0-1.14-.71,4,4,0,0,0-1.32-.22,2.62,2.62,0,0,0-1.28.32,6.75,6.75,0,0,1,1.27-.1,3.72,3.72,0,0,1,.85.15c.23.07.37.13.37.13s.15,0,.37.15a4.07,4.07,0,0,1,.74.44A8,8,0,0,1,69.29,75.63Z"/><path class="cls-8" d="M67,76.3a2.74,2.74,0,0,0-.25-.87,3.08,3.08,0,0,0-.31-.55,2.83,2.83,0,0,0-.2-.23,2.4,2.4,0,0,0-.24-.18,2,2,0,0,0-.62-.22,1.18,1.18,0,0,0-.64.09c-.16.07-.24.17-.23.18s.11,0,.27-.07a1.18,1.18,0,0,1,.56,0,1.87,1.87,0,0,1,.51.25,1.94,1.94,0,0,1,.19.16,2.47,2.47,0,0,1,.18.18,2.84,2.84,0,0,1,.34.48A4.48,4.48,0,0,0,67,76.3Z"/></g><path class="cls-11" d="M73.3,76.85c0,.13-.06.26-.1.38s-.08.25-.13.38a2.75,2.75,0,0,1-.15.36,5.88,5.88,0,0,1-.85,1.33,3.33,3.33,0,0,1-.25.28A10.64,10.64,0,0,1,69,81.72c-.28.15-.56.3-.86.44l-.44.2-.14.07h0c.78-2,1.21-4.2-.2-5.12-.94-.61-2.77-.62-4.86-.33-.53.08-1.08.17-1.63.28s-1.08.23-1.61.36c-1.52.37-3,.81-4.28,1.23h0c-.73.24-1.38.47-1.91.69a12.14,12.14,0,0,0-1.22.53.8.8,0,0,0-.37.38h0a.09.09,0,0,0,0,.07.68.68,0,0,0-.08.31h0a2.81,2.81,0,0,0,.32,1.36c.06.14.13.27.2.41h0a10.45,10.45,0,0,0,.66,1c.1.14.21.28.32.41a0,0,0,0,0,0,0c.24.31.5.61.77.9H50.26s0,0,0,0c-.11-.2-.23-.43-.36-.71l-.06-.14a8.75,8.75,0,0,1-.66-2.48,5.32,5.32,0,0,1,0-.9v0a6.83,6.83,0,0,1,.22-1.58.32.32,0,0,1,0-.09,1.17,1.17,0,0,1,.07-.25h0c.06-.2.14-.39.22-.59l.82-.07h0l.25,0h.14a64.94,64.94,0,0,0,8.47-1.4c.16,0,.32-.08.48-.12a18.28,18.28,0,0,0,2.77-.94,4.64,4.64,0,0,0,2.26-1.68l0-.06a1.38,1.38,0,0,0,.17-.59,45.92,45.92,0,0,0-.74-7.5c-.41-2.76-.92-5.59-1.26-7.46l0-.17c-.23-1.22-.38-2-.38-2v0a7.77,7.77,0,0,1,0-.85,10.88,10.88,0,0,1,1.25-4.15,6.62,6.62,0,0,1,3.55-3,14.14,14.14,0,0,0-.76,1.23c-.34.62-.71,1.36-1,2.14a13.08,13.08,0,0,0-1.07,3.91,5.43,5.43,0,0,0,0,.57c0,.55.06,1.24.13,2,.12,1.24.31,2.72.56,4.25.82,5.08,2.3,10.75,3.9,10.52s3-4.5,3.88-7.38c.06.41.11.82.16,1.23s.08.66.12,1,.07.66.1,1q.08.74.12,1.44l0,.47c0,.32,0,.63,0,.93A22.43,22.43,0,0,1,73.3,76.85Z"/><path class="cls-12" d="M68,49.15a1.84,1.84,0,0,0-.52.15,1.77,1.77,0,0,0-.35.4c-.15.22-.2.48-.13.52s.25-.12.43-.23a3,3,0,0,1,.37-.18,2.33,2.33,0,0,1,.33-.25c.18-.12.39-.21.39-.29S68.23,49.12,68,49.15Z"/><path class="cls-31" d="M25.25,63c-.41,1.79-2.56,2.69-4.8,2s-3.71-2.71-3.3-4.5,2.55-2.69,4.79-2S25.66,61.19,25.25,63Z"/><path class="cls-32" d="M25.25,63c-.41,1.79-2.56,2.69-4.8,2s-3.71-2.71-3.3-4.5,2.55-2.69,4.79-2S25.66,61.19,25.25,63Z"/><path class="cls-32" d="M21.12,62.55a4.7,4.7,0,0,1-3.3-3.3,2.65,2.65,0,0,0-.67,1.23c-.41,1.79,1.07,3.81,3.3,4.5s4.39-.21,4.8-2a2.86,2.86,0,0,0,0-1.2A4,4,0,0,1,21.12,62.55Z"/><path class="cls-31" d="M15.26,70.46c-.35,0-.67-.32-.78-.81-.67-3.15-1.57-8.65-.15-10.15s4.26,0,4.8.27a1.35,1.35,0,0,1,.43,1.5c-.17.58-.65.85-1.06.61-1-.59-2.67-1.11-3.19-.56-.32.61,0,4.29.73,7.68a1.25,1.25,0,0,1-.55,1.42A.59.59,0,0,1,15.26,70.46Z"/><path class="cls-33" d="M19.13,59.77c-.15-.08-.48-.26-.89-.44.33.38.57.8.46,1.11-.3.77-2.46-.35-3.28-.26s-.67,5-1.12,5.62c-.16.22-.37-.12-.57-.65.18,1.61.49,3.24.75,4.5.11.49.43.81.78.81a.59.59,0,0,0,.23,0A1.25,1.25,0,0,0,16,69c-.72-3.39-1-7.07-.73-7.68.52-.55,2.19,0,3.19.56.41.24.89,0,1.06-.61A1.35,1.35,0,0,0,19.13,59.77Z"/><path class="cls-31" d="M34.7,63c-.41,1.79-2.55,2.69-4.79,2s-3.72-2.71-3.31-4.5,2.56-2.69,4.79-2S35.11,61.19,34.7,63Z"/><path class="cls-32" d="M34.7,63c-.41,1.79-2.55,2.69-4.79,2s-3.72-2.71-3.31-4.5,2.56-2.69,4.79-2S35.11,61.19,34.7,63Z"/><path class="cls-32" d="M30.58,62.55a4.66,4.66,0,0,1-3.3-3.3,2.58,2.58,0,0,0-.68,1.23c-.41,1.79,1.07,3.81,3.31,4.5s4.38-.21,4.79-2a2.86,2.86,0,0,0,0-1.2A4,4,0,0,1,30.58,62.55Z"/><path class="cls-31" d="M24.72,70.46a.9.9,0,0,1-.78-.81c-.67-3.15-1.58-8.65-.15-10.15s4.25,0,4.79.27a1.35,1.35,0,0,1,.44,1.5c-.18.58-.66.85-1.07.61-1-.59-2.66-1.11-3.19-.56-.32.61,0,4.29.74,7.68A1.27,1.27,0,0,1,25,70.42.66.66,0,0,1,24.72,70.46Z"/><path class="cls-33" d="M28.58,59.77c-.15-.08-.47-.26-.89-.44.34.38.58.8.46,1.11-.3.77-2.46-.35-3.28-.26s-.67,5-1.11,5.62c-.16.22-.37-.12-.57-.65.18,1.61.48,3.24.75,4.5a.9.9,0,0,0,.78.81.66.66,0,0,0,.23,0A1.27,1.27,0,0,0,25.5,69c-.72-3.39-1.06-7.07-.74-7.68.53-.55,2.19,0,3.19.56.41.24.89,0,1.07-.61A1.35,1.35,0,0,0,28.58,59.77Z"/><path class="cls-31" d="M44.15,63c-.41,1.79-2.55,2.69-4.79,2s-3.71-2.71-3.3-4.5,2.55-2.69,4.79-2S44.56,61.19,44.15,63Z"/><path class="cls-32" d="M44.15,63c-.41,1.79-2.55,2.69-4.79,2s-3.71-2.71-3.3-4.5,2.55-2.69,4.79-2S44.56,61.19,44.15,63Z"/><path class="cls-32" d="M40,62.55a4.7,4.7,0,0,1-3.3-3.3,2.65,2.65,0,0,0-.67,1.23c-.41,1.79,1.07,3.81,3.3,4.5s4.39-.21,4.79-2a2.7,2.7,0,0,0,0-1.2A4,4,0,0,1,40,62.55Z"/><path class="cls-31" d="M34.17,70.46c-.35,0-.67-.32-.78-.81-.67-3.15-1.57-8.65-.15-10.15s4.26,0,4.8.27a1.35,1.35,0,0,1,.43,1.5c-.17.58-.65.85-1.06.61-1-.59-2.67-1.11-3.19-.56-.33.61,0,4.29.73,7.68a1.27,1.27,0,0,1-.55,1.42A.59.59,0,0,1,34.17,70.46Z"/><path class="cls-33" d="M38,59.77c-.15-.08-.48-.26-.9-.44.34.38.58.8.46,1.11-.29.77-2.45-.35-3.27-.26s-.67,5-1.12,5.62c-.16.22-.37-.12-.57-.65.18,1.61.48,3.24.75,4.5.11.49.43.81.78.81a.59.59,0,0,0,.23,0A1.27,1.27,0,0,0,35,69c-.72-3.39-1.06-7.07-.73-7.68.52-.55,2.19,0,3.19.56.41.24.89,0,1.06-.61A1.35,1.35,0,0,0,38,59.77Z"/><line class="cls-13" x1="44.42" y1="85.66" x2="44.42" y2="85.62"/><path class="cls-31" d="M66.39,80.93l-.08,2L66.23,85H44.5a.28.28,0,0,0-.08.11V85H25.5L3.92,78.49.09,77.34V76.1L0,68.63l14.24-.16h0l1.68,0,7.75-.08,1.69,0,7.74-.09H34.8l1.44,0,1.66,0h.62l4.79,0h.89l2.91,0,.37.25.88.58.19.13L51.4,71h0l7.91,5.26.5.33,1,.69,1,.64.08,0,.59.39Z"/><line class="cls-13" x1="44.42" y1="85.66" x2="44.42" y2="85.62"/><path class="cls-33" d="M61.26,85H44.5a.28.28,0,0,0-.08.11V85H25.5L3.92,78.49.09,77.34V76.1l45.71-.51h1.32l.8.53,2.42,1.61.36.24.18.12,1.66,1.11,0,0,.48.32,1.75,1.16,2,1.35.5.33h0l3.15,2.1Z"/><line class="cls-13" x1="44.42" y1="85.66" x2="44.42" y2="85.62"/><path class="cls-31" d="M57.57,85h.6l-.11-.07-2.45-1.63L51.5,80.57h0l-.05,0-.21-.14L50.59,80h0l0,0-1.15-.77-.05,0-2.28-1.51h0l-.23-.15h0l-.47-.31L46.08,77h0l0,0-.08-.05-.07,0H45.4L4,77.38l0,1.11L3.66,85H44.42v.11A.28.28,0,0,1,44.5,85H57.57Z"/><polygon class="cls-32" points="57.57 84.99 58.17 84.99 58.06 84.92 55.61 83.29 51.5 80.57 51.49 80.57 51.49 80.56 51.44 80.53 51.23 80.39 50.59 79.96 50.58 79.96 50.57 79.95 50.53 79.93 49.38 79.16 49.33 79.13 47.05 77.62 47.04 77.61 46.81 77.46 46.8 77.45 46.33 77.14 46.08 76.97 46.06 76.96 46.05 76.96 46.02 76.95 46.01 76.94 46.01 76.93 45.93 76.88 45.93 76.92 45.93 77.13 45.93 77.19 45.95 82.28 45.95 82.4 45.95 83.28 45.95 83.45 45.95 83.57 45.95 84.84 45.95 84.99 50.19 84.99 50.26 84.99 52.67 84.99 53.64 84.99 55.01 84.99 55.03 84.99 57.57 84.99"/><polygon class="cls-32" points="66.39 80.93 66.31 82.93 66.23 84.99 61.26 84.99 60.51 84.49 57.36 82.39 57.34 82.38 56.84 82.05 54.81 80.7 53.06 79.54 52.58 79.22 52.53 79.19 50.87 78.08 50.69 77.96 50.33 77.72 47.91 76.11 47.11 75.58 47.12 75.45 47.12 75.37 47.31 71.75 47.48 68.36 48.36 68.94 48.36 68.95 48.55 69.07 51.4 70.97 51.41 70.97 59.32 76.23 59.82 76.56 60.86 77.25 61.81 77.89 61.89 77.94 62.48 78.33 66.39 80.93"/><path class="cls-34" d="M6.09,85H5.55c.12-3.47.19-5.51.19-5.6S5.86,81.47,6.09,85Z"/><path class="cls-34" d="M.84,70.08v5.53l45.06-.83S4.57,75.2.84,70.08Z"/><path class="cls-34" d="M44.42,84.2V85H40.94a11.23,11.23,0,0,0-.46-2.8c-1.34-1.75-16.72-3.37-16.72-3.37l18.41-.39,2,0h.28Z"/><polyline class="cls-13" points="44.42 85.6 44.42 85.62 44.42 85.66"/></g></g></g></svg>