<svg xmlns="http://www.w3.org/2000/svg" viewBox="0 0 58.78 76.32"><defs><style>.cls-1{isolation:isolate;}.cls-2,.cls-3,.cls-4{fill:#c83634;}.cls-3{opacity:0.25;}.cls-11,.cls-12,.cls-14,.cls-17,.cls-19,.cls-21,.cls-22,.cls-27,.cls-3,.cls-4,.cls-5,.cls-7{mix-blend-mode:multiply;}.cls-14,.cls-15,.cls-17,.cls-20,.cls-21,.cls-4,.cls-8{opacity:0.5;}.cls-6,.cls-7{fill:#6f3a1e;}.cls-7{opacity:0.3;}.cls-15,.cls-20,.cls-23,.cls-24,.cls-26,.cls-8,.cls-9{mix-blend-mode:screen;}.cls-19,.cls-26,.cls-9{opacity:0.45;}.cls-10{fill:#fff;}.cls-11{opacity:0.34;}.cls-12,.cls-13,.cls-14{fill:#d3dbfd;}.cls-15{fill:#294168;}.cls-16,.cls-17,.cls-20,.cls-24{fill:#f15e6b;}.cls-18,.cls-19,.cls-22,.cls-23{fill:#e5b678;}.cls-25,.cls-26,.cls-27{fill:#ffce4c;}</style></defs><title>supermanРесурс 10</title><g class="cls-1"><g id="Слой_2" data-name="Слой 2"><g id="OBJECTS"><path class="cls-2" d="M57.8,76.32H55.49l0-.08H49.35l-.11.08H11.42v-.08l.12-1.92h0c0-.12,0-.24,0-.36,0-.34,0-.69.06-1h0c.21-3.16.47-6.08.79-8.69.12-1,.25-1.93.38-2.82.66-4.36,1.53-7.61,2.63-9.31h0a3.83,3.83,0,0,1,.27-.39l.32-.39s0,0,.06-.07a23.42,23.42,0,0,1,3.9-3.8h0a2.63,2.63,0,0,1,.35-.26l.26-.2.43-.3.08,0h0l.86-.53.16-.1.12-.07.15-.08.14-.08.31-.16h0l.65-.31.18-.09.46-.2.07,0a17.1,17.1,0,0,1,1.85-.65l.4-.11h0l.19-.05c.34-.08.67-.14,1-.2h0l.21,0,.27-.07h.05l.23,0h0l.25,0,.49-.06,1.09-.06a14.84,14.84,0,0,1,1.81.06l.46,0,.19,0c.25,0,.48.07.7.12l.15,0,.19,0L34,44h0l.52.13.36.11.31.1h0s.38.32,1.07,1h0a0,0,0,0,0,0,0l.08.09.1.1h0a.78.78,0,0,1,.15.16l.08.08h0l.24.24h0l.08.08h0c.62.62,1.37,1.4,2.25,2.37l.37.41,0,0h0a2.53,2.53,0,0,0,.23.26h0l.35.39.17.2h0l.25.29.1.11h0s.09.1.13.16l.48.57a3.47,3.47,0,0,1,.25.29l.39.46c.11.15.24.3.36.45l.64.8.11.13h0c.37.46.74.93,1.12,1.43l.49.65a0,0,0,0,1,0,0h0c1.16,1.54,2.38,3.24,3.65,5.13.35.52.71,1,1.07,1.6.6.92,1.21,1.89,1.83,2.89q.49.8,1,1.62c.39.66.79,1.33,1.19,2h0c.28.47.55.94.82,1.43l.6,1.09.28.5c.52,1,1,1.92,1.55,2.92.21.39.41.79.61,1.19.1.19.2.38.29.58h0Z"/><path class="cls-3" d="M57.8,76.32H55.49l0-.08H49.35l-.11.08H45.4s0,0,0-.08a73.66,73.66,0,0,1-1.91-8.63q-.12-.73-.21-1.44a.45.45,0,0,1,0-.11.36.36,0,0,0,0-.11c-.18-1.32-.3-2.58-.37-3.76-.06-1-.1-1.92-.1-2.8,0-1.07,0-2.07.1-3,0-.3,0-.6.07-.88.08-.86.19-1.65.32-2.37.37.46.74.93,1.12,1.43l.49.65a0,0,0,0,1,0,0h0c1.16,1.54,2.38,3.24,3.65,5.13.35.52.71,1,1.07,1.6.6.92,1.21,1.89,1.83,2.89q.49.8,1,1.62c.39.66.79,1.33,1.19,2h0c.28.47.55.94.82,1.43l.6,1.09.28.5c.52,1,1,1.92,1.55,2.92.21.39.41.79.61,1.19.1.19.2.38.29.58A.2.2,0,0,1,57.8,76.32Z"/><path class="cls-4" d="M45.88,76.32H15.5v-.08c.2-2.86.46-5.86.86-8.79,0,0,0-.07,0-.11s0,0,0,0c0-.23.06-.47.1-.71s0-.19,0-.28h0c0-.09,0-.2.05-.29h0c.09-.61.19-1.21.3-1.81A52.41,52.41,0,0,1,18.06,59a30.1,30.1,0,0,1,1.17-3.29,1.08,1.08,0,0,1,.08-.19c.1-.25.22-.5.34-.74a14.14,14.14,0,0,1,2-3.19h0l.14-.15s0,0,0,0a9.57,9.57,0,0,1,.78-.78l.2-.18.18-.14.11-.09,0,0a6.35,6.35,0,0,1,1-.64l.08,0h0l.25-.11.16-.08h.05l.16-.06.2-.07a5,5,0,0,1,.55-.17c.32-.08.64-.14.95-.19a8.78,8.78,0,0,1,1-.12h0l.47,0h.27a.82.82,0,0,1,.27,0,1.09,1.09,0,0,1,.26,0h0l.27,0a9.22,9.22,0,0,1,2.63.65,1,1,0,0,1,.22.09.11.11,0,0,1,.08,0l.27.13h0a11.9,11.9,0,0,1,1.91,1.14l0,0,.14.11.34.25s0,0,.05,0l.38.32h0c.15.13.3.26.44.4a20.24,20.24,0,0,1,2.44,2.8l.28.39.18.26.08.13q.36.51.66,1h0c.2.34.4.67.58,1,0,0,0,0,0,0l0,0,.25.45h0c.31.58.6,1.14.85,1.68l.09.18c.64,1.37,1.09,2.54,1.36,3.26.08.19.13.35.18.47.1.29.28,1.06.56,2.27a.36.36,0,0,1,0,.11c0,.14.06.28.09.44a.14.14,0,0,0,0,.06c0,.18.08.36.13.54s.15.64.23,1,.2.85.31,1.3c.07.29.15.59.22.9s.21.81.32,1.23c.36,1.41.79,3,1.29,4.74C45.87,76.27,45.87,76.29,45.88,76.32Z"/><path class="cls-4" d="M45.88,76.32H15.5v-.08c.2-2.86.46-5.86.86-8.79,0,0,0-.07,0-.11s0,0,0,0c0-.23.06-.47.1-.71s0-.19,0-.28h0c0-.09,0-.2.05-.29h0c.09-.61.19-1.21.3-1.81A52.41,52.41,0,0,1,18.06,59a30.1,30.1,0,0,1,1.17-3.29,1.08,1.08,0,0,1,.08-.19c.1-.25.22-.5.34-.74a14.14,14.14,0,0,1,2-3.19h0l.14-.15s0,0,0,0a9.57,9.57,0,0,1,.78-.78l.2-.18.18-.14.11-.09,0,0a6.35,6.35,0,0,1,1-.64l.08,0h0l.25-.11.16-.08h.05l.16-.06.2-.07a5,5,0,0,1,.55-.17c.32-.08.64-.14.95-.19a8.78,8.78,0,0,1,1-.12h0l.47,0h.27a.82.82,0,0,1,.27,0,1.09,1.09,0,0,1,.26,0h0l.27,0a9.22,9.22,0,0,1,2.63.65,1,1,0,0,1,.22.09.11.11,0,0,1,.08,0l.27.13h0a11.9,11.9,0,0,1,1.91,1.14l0,0,.14.11.34.25s0,0,.05,0l.38.32h0c.15.13.3.26.44.4a20.24,20.24,0,0,1,2.44,2.8l.28.39.18.26.08.13q.36.51.66,1h0c.2.34.4.67.58,1,0,0,0,0,0,0l0,0,.25.45h0c.31.58.6,1.14.85,1.68l.09.18c.64,1.37,1.09,2.54,1.36,3.26.08.19.13.35.18.47.1.29.28,1.06.56,2.27a.36.36,0,0,1,0,.11c0,.14.06.28.09.44a.14.14,0,0,0,0,.06c0,.18.08.36.13.54s.15.64.23,1,.2.85.31,1.3c.07.29.15.59.22.9s.21.81.32,1.23c.36,1.41.79,3,1.29,4.74C45.87,76.27,45.87,76.29,45.88,76.32Z"/><g class="cls-5"><path class="cls-2" d="M41.54,58.16c-.06-.26-.1-.48-.13-.67C41.45,57.68,41.49,57.9,41.54,58.16Z"/><path class="cls-2" d="M45.92,76.32h-.24a.24.24,0,0,0,0-.08c-.26-1-.52-1.93-.77-2.85-.6-2.07-1-4-1.42-5.78-.09-.37-.17-.73-.25-1.08-.23-1-.46-2-.64-2.83l-.09-.49c-.14-.69-.26-1.33-.37-1.91,0,0,0-.06,0-.09-.24-1.28-.43-2.3-.56-3,.15.75.37,1.79.64,3.11a0,0,0,0,0,0,0c.14.71.3,1.5.48,2.36s.38,1.6.59,2.49c0,.11.05.22.08.33a.14.14,0,0,0,0,.06c0,.18.08.36.13.54s.15.64.23,1,.2.85.31,1.3c.07.29.15.59.22.9s.21.81.32,1.23c.16.6.33,1.21.52,1.84l.81,2.9A.24.24,0,0,1,45.92,76.32Z"/><path class="cls-2" d="M16.53,67.39a1.09,1.09,0,0,1,0,.18h0a0,0,0,0,1,0,0c0,1.21-.13,2.83-.33,4.79-.13,1.17-.26,2.46-.4,3.85a.22.22,0,0,1,0,.08H15.5a.15.15,0,0,1,0-.07c.16-1.4.32-2.7.48-3.88.26-2,.41-3.61.46-4.82h0a.15.15,0,0,0,0-.06v-.13a1.21,1.21,0,0,0,0-.19c0-.21,0-.39,0-.57s0-.58,0-.79h0c0-.36,0-.55,0-.55s0,.22,0,.62c0,.13,0,.27,0,.44h0c0,.25,0,.53,0,.85Z"/></g><path class="cls-6" d="M53.63,21.25s-1,24.54-6,31.44-22.77,9-31.15.59S9.84,19.63,10.28,18.75,41.87,7.73,53.63,21.25Z"/><path class="cls-7" d="M44.27,37.2c.22-2.4.53-8.73,1.09-10.36a18.52,18.52,0,0,1,2-3.94s3.87-.59,6.23-1c-.07,1.41-.29,5.12-.77,9.56-.12-.23-.27-.38-.46-.36-.84.08-2.7,6.17-2.7,6.17s.7-5.47-.3-5.47S47.75,34,47.75,34s-.47-1.62-1.62-.77C45.34,33.8,44.59,36,44.27,37.2Z"/><path class="cls-7" d="M44.27,37.2a3.67,3.67,0,0,1-.14.94C44.06,38.18,44.12,37.79,44.27,37.2Z"/><path class="cls-7" d="M11.88,37c.08.39.12.64.12.64S11.94,37.34,11.88,37Z"/><path class="cls-7" d="M10.28,18.75c0-.05.13-.12.31-.21.76.77,1.65,1.1,2.06.33a1.19,1.19,0,0,0,0-1.13c1.49-.5,3.59-1.1,6.08-1.66L42,36.54s-.12,7.39.9,8.6,4-5.17,4-5.17-3.13,9-2.1,10,3.36-2.16,3.36-2.16-1.38,3.37-.6,3.49c.39.06,1.58-2.3,2.66-4.65a19.92,19.92,0,0,1-2.57,6,10.8,10.8,0,0,1-3,2.71,15.37,15.37,0,0,1-1.88.13c-2.37,0-17.27-.76-24.57-.76a15.38,15.38,0,0,1-1.74-1.49,18,18,0,0,1-3.94-6.86c3.8,4.74,5.2,3.56,5.55,2.08s-2.22-5.65-2.22-5.65,3,3,3.54,1.8-6.37-9.79-7.21-10c-.59-.13-.43,1.38-.29,2.29-.26-1.41-.92-4.61-1.39-4.52-.16,0-.26.84-.33,2C9.45,26.48,10.05,19.22,10.28,18.75Z"/><g class="cls-8"><path class="cls-6" d="M47.34,45.16a2.87,2.87,0,0,0,.17-.38c.1-.24.25-.59.41-1,.33-.84.73-2,1.1-3.13.73-2.3,1.26-4.66,1.26-4.66s.5-2.36.8-4.75c.15-1.2.27-2.4.32-3.3,0-.45,0-.83.05-1.09a2.26,2.26,0,0,0,0-.42,2.5,2.5,0,0,0-.06.41c0,.26-.06.64-.11,1.09-.09.89-.23,2.09-.41,3.28-.35,2.38-.89,4.72-.89,4.72s-.49,2.35-1.17,4.66c-.34,1.15-.71,2.3-1,3.15l-.36,1A2,2,0,0,0,47.34,45.16Z"/></g><g class="cls-8"><path class="cls-6" d="M43.18,47.89a1.44,1.44,0,0,0,.17-.22c.09-.14.23-.34.38-.59.31-.5.7-1.17,1.07-1.86.73-1.38,1.31-2.84,1.31-2.84a26.94,26.94,0,0,0,.9-3,20,20,0,0,0,.38-2.11c0-.29,0-.54.07-.71a1,1,0,0,0,0-.27,8,8,0,0,0-.19,1c-.1.57-.27,1.33-.46,2.08a29,29,0,0,1-1,2.94s-.54,1.45-1.22,2.85c-.34.7-.7,1.39-1,1.9A9.24,9.24,0,0,0,43.18,47.89Z"/></g><g class="cls-8"><path class="cls-6" d="M37.65,45.5a8.37,8.37,0,0,0,.08-1.18c0-.59.11-1.18.11-1.18s0-.58.09-1.17A8.75,8.75,0,0,0,38,40.8a4.4,4.4,0,0,0-.32,1.14c-.12.59-.19,1.18-.19,1.18s0,.6,0,1.19A4.86,4.86,0,0,0,37.65,45.5Z"/></g><g class="cls-8"><path class="cls-6" d="M15.92,46.05a1.88,1.88,0,0,0-.15-.31c-.11-.2-.27-.46-.45-.8-.36-.66-.81-1.55-1.24-2.46s-.78-1.85-1-2.56-.41-1.19-.41-1.19-.16-.47-.37-1.19-.47-1.69-.69-2.67-.36-2-.46-2.73c-.06-.37-.08-.68-.12-.9a1.66,1.66,0,0,0-.06-.34,1.48,1.48,0,0,0,0,.34c0,.22,0,.54.06.92.06.75.2,1.75.37,2.75s.42,2,.63,2.7.36,1.22.36,1.22.16.48.43,1.19.67,1.64,1.1,2.55.93,1.79,1.33,2.43c.19.33.38.59.5.77A1.46,1.46,0,0,0,15.92,46.05Z"/></g><g class="cls-8"><path class="cls-6" d="M18,45.39s-.57-.5-1-1.09A7.47,7.47,0,0,1,16.16,43a7.64,7.64,0,0,1-.57-1.37c-.22-.72-.26-1.47-.3-1.47a3.94,3.94,0,0,0,.1,1.52,7.22,7.22,0,0,0,.5,1.46,6.65,6.65,0,0,0,.9,1.25A4,4,0,0,0,18,45.39Z"/></g><g class="cls-8"><path class="cls-6" d="M19,42.79a1.45,1.45,0,0,0,.25.55c.16.25.35.49.35.49a4.82,4.82,0,0,0,.44.4c.23.19.48.35.5.32s-.17-.25-.35-.47l-.37-.45-.4-.42C19.27,43,19.08,42.77,19,42.79Z"/></g><g class="cls-8"><path class="cls-6" d="M13,45.6a6.23,6.23,0,0,0,.28,1.72,8.14,8.14,0,0,0,.42,1.14c.14.3.25.49.25.49s.11.19.3.46a9.16,9.16,0,0,0,.77.93,8.22,8.22,0,0,0,1.27,1.19s-.57-.66-1.11-1.33a10.29,10.29,0,0,1-.7-1c-.17-.27-.27-.45-.27-.45a4.3,4.3,0,0,1-.26-.47,8,8,0,0,1-.46-1.07C13.21,46.45,13.06,45.59,13,45.6Z"/></g><g class="cls-9"><path class="cls-6" d="M51.88,35.92c-.31,3.38-.71,7.79-2.88,10.53a.3.3,0,0,1-.5-.21,29.1,29.1,0,0,1,1.27-4.87c.46-1.85.94-3.68,1.26-5.56.09-.47.89-.37.85.11Z"/></g><g class="cls-9"><path class="cls-6" d="M49.2,34.83a1.31,1.31,0,0,1,.18,1.2,2.84,2.84,0,0,1-.5,1.33.37.37,0,0,1-.62-.26,4.22,4.22,0,0,1,.29-1.3,1.42,1.42,0,0,1,.59-1Z"/></g><g class="cls-9"><path class="cls-6" d="M47.79,39.23a8,8,0,0,1-.6,2.81c0,.09-.19,0-.17-.07.2-.93.51-1.82.73-2.75,0,0,0,0,0,0Z"/></g><g class="cls-9"><path class="cls-6" d="M46.39,34.29a4,4,0,0,1-.13,2.26,11.82,11.82,0,0,1-.84,2.85c-.05.13-.25.06-.25-.07a11.86,11.86,0,0,1,.29-2.79c.19-.75.2-1.73.79-2.27a.1.1,0,0,1,.14,0Z"/></g><g class="cls-9"><path class="cls-6" d="M12.82,36.92a1.89,1.89,0,0,1,.6.85,2.62,2.62,0,0,1,.2,1.14.25.25,0,0,1-.47.12,4.38,4.38,0,0,1-.38-1,4.1,4.1,0,0,1-.14-.5,5.09,5.09,0,0,1,0-.54.09.09,0,0,1,.15-.06Z"/></g><g class="cls-9"><path class="cls-6" d="M11.31,37.28c1.64,3.2,3.2,6.56,4.6,9.86.15.35-.26.77-.57.44a16,16,0,0,1-4.16-10.27.07.07,0,0,1,.13,0Z"/></g><g class="cls-8"><path class="cls-6" d="M46.78,50.53a11.8,11.8,0,0,0,.88-1.44,10.76,10.76,0,0,0,.61-1.58A11.8,11.8,0,0,0,47.39,49,10.76,10.76,0,0,0,46.78,50.53Z"/></g><path class="cls-10" d="M24.79,50.13c0,.17,0,.33,0,.49,0,0,0,0,0,0a4.48,4.48,0,0,1-.08.64v0a6.24,6.24,0,0,1-.51,1.51,1.86,1.86,0,0,1-.1.2,4.75,4.75,0,0,1-.33.59.82.82,0,0,1-.11.17,5.54,5.54,0,0,1-.43.62l-.06.07c-.12.16-.23.29-.32.39l-.12.12-.09.1L21,56.46c-.79.69-1.82,1.57-2.92,2.55l-1.64,1.47h0l-1,.91c-.19.16-.37.33-.55.5-.86.8-1.7,1.59-2.45,2.33a25.88,25.88,0,0,0-2.78,3,1.47,1.47,0,0,0-.24.59.17.17,0,0,0,0,.07c-.2,1.24.81,3.08,2.24,5h0l.79,1,0,0c.28.35.57.7.88,1s.72.83,1.09,1.22l.07.08H3.84l-.06-.08c-.22-.3-.44-.6-.64-.9s-.36-.53-.53-.79-.26-.4-.38-.6-.36-.61-.53-.91h0a14.27,14.27,0,0,1-.85-1.77,5.2,5.2,0,0,1-.21-.55,1,1,0,0,1-.1-.28A4.26,4.26,0,0,1,.39,70a1.38,1.38,0,0,1-.08-.27,5,5,0,0,1-.12-.49A6.33,6.33,0,0,1,.57,65a15,15,0,0,1,.92-1.59c.15-.24.31-.47.49-.71.37-.53.79-1.07,1.25-1.62.22-.28.46-.55.7-.83.06-.08.14-.16.21-.24.42-.48.87-1,1.33-1.43.26-.28.53-.56.82-.84s.37-.38.56-.55c.42-.43.86-.85,1.3-1.26h0c2-1.91,4.2-3.76,6.19-5.38l.47-.38A1.19,1.19,0,0,1,15,50l.64-.51L18,47.58,20.09,46l.73-.53.19-.14.53-.38.12.09.2.15.2.15h0c.17.13.33.27.48.4l.07.07A7.91,7.91,0,0,1,23.66,47a1.16,1.16,0,0,1,.11.16h0a5.29,5.29,0,0,1,.43.7h0a5.63,5.63,0,0,1,.36.86v0a0,0,0,0,0,0,0,3.34,3.34,0,0,1,.1.43s0,0,0,0a.19.19,0,0,1,0,.07.43.43,0,0,1,0,.11h0a2.83,2.83,0,0,1,.06.57A.62.62,0,0,1,24.79,50.13Z"/><g class="cls-11"><path class="cls-12" d="M24.22,49.2A6.11,6.11,0,0,1,24.09,51a11.07,11.07,0,0,1-.51,1.76,11,11,0,0,1-.87,1.61,6.36,6.36,0,0,1-1.19,1.4s.55-.73,1-1.52A15.68,15.68,0,0,0,23.87,51C24.1,50.1,24.18,49.2,24.22,49.2Z"/><g class="cls-5"><path class="cls-13" d="M24.72,52.57s0,.23-.24.78a5.88,5.88,0,0,1-.61,1,5.67,5.67,0,0,1-.9.81,2.83,2.83,0,0,1-1.07.53s.5-.32.93-.7a5.63,5.63,0,0,0,.79-.84,6.12,6.12,0,0,0,.66-.93C24.56,52.76,24.68,52.57,24.72,52.57Z"/></g><path class="cls-12" d="M4.65,66.49A2.62,2.62,0,0,1,6,66.09a4.53,4.53,0,0,1,1.39.15,4.29,4.29,0,0,1,1.22.66A2.46,2.46,0,0,1,9.42,68a7,7,0,0,0-1-.89,4.69,4.69,0,0,0-.8-.41,3.56,3.56,0,0,0-.39-.13l-.39-.11a4.52,4.52,0,0,0-.9-.11A7.75,7.75,0,0,0,4.65,66.49Z"/><path class="cls-12" d="M6.07,68.44a2.72,2.72,0,0,1,.76-.54,3.28,3.28,0,0,1,.61-.25l.31-.06a1.42,1.42,0,0,1,.31,0,1.59,1.59,0,0,1,.65.21,1.21,1.21,0,0,1,.48.47.48.48,0,0,1,.07.29s-.07-.1-.18-.23A1.24,1.24,0,0,0,8.61,68,1.62,1.62,0,0,0,8,67.89a1.11,1.11,0,0,0-.26,0,1.62,1.62,0,0,0-.27,0,3.66,3.66,0,0,0-.59.17A6.53,6.53,0,0,1,6.07,68.44Z"/></g><path class="cls-14" d="M24.87,49.07h0a1,1,0,0,1,0,.17,1.27,1.27,0,0,1,0,.34,2,2,0,0,1,0,.42.25.25,0,0,1,0,.12,1.75,1.75,0,0,1-.06.33h0c0,.19-.07.37-.11.55h0a9.39,9.39,0,0,1-.54,1.55s0,0,0,0a1.89,1.89,0,0,1-.09.21q-.16.36-.33.66c0,.07-.07.13-.09.19l-.4.65-.05.08h0c-.12.19-.23.34-.31.45a.49.49,0,0,0-.08.12l-.09.1L21,56.46c-.79.69-1.82,1.57-2.92,2.55l-1.64,1.47h0l-1,.91c-.19.16-.37.33-.55.5-.86.8-1.7,1.59-2.45,2.33a25.88,25.88,0,0,0-2.78,3,1.47,1.47,0,0,0-.24.59.17.17,0,0,0,0,.07c-.2,1.24.81,3.08,2.24,5h0l.79,1,0,0c.28.35.57.7.88,1s.72.83,1.09,1.22l.07.08H13.09L13,76.24l-.52-.68c-.31-.41-.64-.83-1-1.24h0l-.3-.36c-2.09-2.54-4.42-4.76-6.07-4.9S2.34,71,1.7,73a14.27,14.27,0,0,1-.85-1.77,5.2,5.2,0,0,1-.21-.55,1,1,0,0,1-.1-.28A4.26,4.26,0,0,1,.39,70a1.38,1.38,0,0,1-.08-.27,5,5,0,0,1-.12-.49A6.33,6.33,0,0,1,.57,65a15,15,0,0,1,.92-1.59c.15-.24.31-.47.49-.71.37-.53.79-1.07,1.25-1.62.22-.28.46-.55.7-.83.06-.08.14-.16.21-.24.42-.48.87-1,1.33-1.43.26-.28.53-.56.82-.84s.37-.38.56-.55c.42-.43.86-.85,1.3-1.26C7,58.71,5.44,63.06,6.59,64.24c.81.82,3.38-.66,6.2-2.83.85-.66,1.73-1.38,2.59-2.12l1.08-.94h0l.4-.36.55-.51h0c.65-.61,1.25-1.19,1.81-1.74l.14-.15q.4-.41.75-.78c.4-.42.75-.81,1-1.14A7.08,7.08,0,0,0,22,52.37h0l.11-.22c.1-.21.21-.43.3-.66h0c.05-.11.1-.22.14-.33s0,0,0,0c.09-.21.16-.42.24-.65s.09-.23.13-.35h0a1.09,1.09,0,0,1,.05-.17s0,0,0,0A21.88,21.88,0,0,0,23.66,47c0-.1,0-.21.06-.3v-.05c.05-.43.09-.81.11-1.11.09.14.17.28.25.42a6.33,6.33,0,0,1,.63,1.67,6.56,6.56,0,0,1,.15,1.07C24.87,48.82,24.87,49,24.87,49.07Z"/><path class="cls-15" d="M23.09,46.52a1.7,1.7,0,0,0-.33-.44,1.74,1.74,0,0,0-.22-.18l-.14-.06c-.07,0-.12,0-.14,0a.1.1,0,0,0,0,.08,1.06,1.06,0,0,0,.08.23l.06.17a2.22,2.22,0,0,1,.11.41,2.28,2.28,0,0,1,.19.38c.08.2.12.43.21.45s.2-.24.23-.5A1.7,1.7,0,0,0,23.09,46.52Z"/><path class="cls-4" d="M43.14,53c-.22.76-.49,1.61-.77,2.51-.13.42-.26.85-.4,1.29-.09.29-.19.59-.28.89h0l-.15.45v0c-.17.52-.34,1.06-.5,1.59,0,0,0,0,0,0l0,0L41,60s0,0,0,.06-.11.35-.17.53l-.09.3c0,.08,0,.16-.08.24a1.21,1.21,0,0,1-.05.18c0,.12-.08.25-.11.37a.14.14,0,0,0,0,.06c0,.11-.07.22-.1.33s-.07.23-.11.34l-.12.4c0,.17-.09.33-.14.48s0,.11,0,.16l-.06.18a.43.43,0,0,1,0,0l-.15.52c0,.09,0,.19-.08.29s-.07.26-.11.38a2.68,2.68,0,0,1-.07.27c0,.13-.07.25-.1.37l-.06.25h0l-.09.36a.09.09,0,0,0,0,0,1.21,1.21,0,0,0-.05.18c0,.12-.06.24-.08.35a1.62,1.62,0,0,0,0,.19c0,.18-.08.34-.11.5-.1.54-.2,1.07-.31,1.61-.14.7-.28,1.4-.41,2.1s-.3,1.63-.42,2.44c0,0,0,.07,0,.1l0,.23c0,.25-.07.49-.11.74-.06.49-.12,1-.17,1.46,0,0,0,.08,0,.12a.22.22,0,0,1,0,.08H20.65s0,0,0-.08a2.38,2.38,0,0,1-.05-.26c-.13-.78-.25-1.57-.41-2.36,0-.17-.06-.33-.1-.5l0-.14c-.05-.22-.11-.44-.17-.65a1.46,1.46,0,0,0-.05-.2l0-.11c-.07-.23-.15-.46-.23-.68a.88.88,0,0,0-.05-.15c-.07-.19-.15-.38-.23-.56s-.1-.22-.16-.33-.12-.26-.19-.38a7.68,7.68,0,0,0-.45-.71c-.16-.23-.33-.45-.48-.68h0l-.22-.32c-.06,0-.11-.11-.16-.16L17.55,68c-.16-.17-.26-.29-.24-.31s.1,0,.21.11A11.88,11.88,0,0,1,16.57,66h0a.42.42,0,0,1-.06-.14l0-.06h0a7,7,0,0,1-.36-1.29,8.35,8.35,0,0,1-.1-.89v-.27c0-.22,0-.45,0-.69s0-.4.07-.6h0l.06-.4s0,0,0-.07,0,0,0,0c0-.18.07-.36.11-.54a0,0,0,0,1,0,0c0-.13.05-.27.08-.4s0,0,0-.06h0a23.53,23.53,0,0,1,1-3h0c.33-.84.69-1.67,1-2.49,0-.07.05-.13.08-.19.2-.46.39-.91.57-1.37.48-1.2,1-2.92,1.66-4.51.06-.13.11-.26.18-.39h0a11.15,11.15,0,0,1,1.13-2l.1-.14.15-.19.21-.25a.46.46,0,0,0,.07-.07l.24-.23h0l.65-.31.18-.08a4.69,4.69,0,0,1,.46-.21h.07a11.16,11.16,0,0,1,1.62-.22c.21,0,.44,0,.67,0h.07l.79,0,.3-.54c0-.08,0-.14,0-.21h0l.21,0,.38-.06h0l.16,0h0l.74-.08,1.09-.06a16.73,16.73,0,0,1,1.79.07l.48,0,.19,0c.25,0,.48.07.7.12l.15,0,.18,0h0L34,44h0l.52.13.36.11.31.1a4.45,4.45,0,0,1,0,.56h0a1,1,0,0,1,0,.18l.3,0,.73.29.15,0,.1.1.16.16.08.08h0l.24.24.09.09c.62.62,1.37,1.4,2.25,2.37l.37.41,0,0h0a2.53,2.53,0,0,0,.23.26h0l.35.39.17.2h0l.25.29.09.12h0s.09.1.13.16l.48.57a3.47,3.47,0,0,1,.25.29c.13.15.25.31.38.47l.37.44Z"/><path class="cls-16" d="M42.14,51.76h0c-.25.9-.57,2-.93,3.09-.06.21-.13.42-.19.63l0,.15c-.05.14-.09.29-.14.44-.13.43-.27.87-.41,1.31-.07.23-.15.46-.22.69h0a.29.29,0,0,0,0,.09l0,0a.65.65,0,0,0,0,.13,1.87,1.87,0,0,0-.07.22l0,0s0,.05,0,.07l-.21.68a1.87,1.87,0,0,0-.07.22l-.15.47c0,.11-.07.22-.1.32s-.08.28-.13.42-.07.25-.11.37l-.12.38c0,.1,0,.19-.08.28L39,62c0,.11-.06.22-.1.33s-.12.43-.19.64l-.06.21c-.06.21-.11.41-.17.61l-.06.2c0,.14-.08.28-.11.42a2.5,2.5,0,0,0-.07.26c0,.1-.06.2-.08.29l0,.09-.06.25-.09.37c0,.21-.1.4-.14.59s0,.12,0,.17-.07.34-.1.5c-.1.54-.21,1.08-.32,1.62S37.1,69.9,37,70.6s-.3,1.63-.43,2.45c0,.11,0,.21,0,.32-.14,1-.27,1.93-.33,2.87,0,0,0,.05,0,.08H19.53s0,0,0-.08c-.05-.27-.1-.54-.14-.81-.13-.78-.25-1.57-.4-2.36,0-.16-.07-.33-.11-.49l0-.15c-.06-.28-.14-.57-.22-.85l0-.11c-.07-.25-.15-.49-.24-.74l0-.09c-.08-.22-.18-.45-.28-.67a6.49,6.49,0,0,0-.33-.64,5.67,5.67,0,0,0-.42-.66c-.25-.35-.49-.69-.71-1l0,0a.05.05,0,0,0,0,0h0l-.06-.1-.09-.13a.35.35,0,0,0-.05-.08v0a7.83,7.83,0,0,1-1.47-5.14,1.36,1.36,0,0,1,0-.2,7.68,7.68,0,0,1,.11-.82A.13.13,0,0,1,15,61a2.21,2.21,0,0,1,0-.25c0-.14.05-.28.08-.43s.05-.23.08-.34.12-.48.19-.71a43.6,43.6,0,0,1,2-5.16h0c.19-.42.36-.83.53-1.25.57-1.43,1.19-3.61,2.08-5.42h0c.09-.19.18-.37.28-.55s.15-.27.23-.39h0l.19-.3.17-.23s0,0,0,0a1.18,1.18,0,0,1,.17-.22h0l.23-.27a.5.5,0,0,1,.1-.11l.3-.29a1.54,1.54,0,0,1,.19-.17h0l.13-.09.09-.05h0l.24-.11a5.26,5.26,0,0,1,.72-.2h0l.27,0,.58-.08h0a18.64,18.64,0,0,1,2.21-.12h1.52c1.68,0,3.37.16,4.64.27h0l1,.09.37,0,.32,0h0l.3,0,.9.34,1.07.42h.06l.72.3h0l.24.1.07,0h0l.21.09h0l.36.15,1.59.72h0l.1.06,1.09.55.13.08.35.19h0l.09.06.54.35a3.13,3.13,0,0,1,.38.28l.09.09a1.93,1.93,0,0,0,.15.16l0,0a.47.47,0,0,1,.12.23A10.57,10.57,0,0,1,42.14,51.76Z"/><path class="cls-17" d="M41.2,54.86c-.06.21-.13.42-.19.63h0s0,.1,0,.15-.09.29-.14.44c-.13.43-.27.87-.41,1.31-.07.23-.15.46-.22.69h0l0,.08s0,0,0,0a.65.65,0,0,0,0,.13,1.87,1.87,0,0,0-.07.22l0,0s0,.05,0,.07l-.21.68a1.87,1.87,0,0,0-.07.22l-.15.47c0,.11-.07.22-.1.32s-.08.28-.13.42-.07.25-.11.37l-.12.38c0,.1,0,.19-.08.28L39,62c0,.11-.06.22-.1.33s-.12.43-.19.64l-.06.21c0,.19-.1.37-.16.55,0,0,0,0,0,.06l-.06.2c0,.14-.08.28-.11.42a2.5,2.5,0,0,0-.07.26c0,.1-.06.2-.08.29l0,.09-.06.25-.09.37-.06.22c0,.13,0,.25-.08.37s0,.12,0,.17-.07.34-.1.5c-.1.54-.21,1.08-.32,1.62S37.1,69.9,37,70.6s-.3,1.63-.43,2.45c0,.11,0,.21,0,.32-.14,1-.27,1.93-.33,2.87,0,0,0,.05,0,.08H32.94v-.08c0-.51-.07-1-.12-1.52l.57.37a7.38,7.38,0,0,0-.06-2.17c-.53-2.44-6.1-2.26-10.28-1.74a4.51,4.51,0,0,0-.53.09l-.22,0a6.57,6.57,0,0,0-2.42,1,5.64,5.64,0,0,0-.9.74c0-.16-.07-.33-.11-.49l0-.15c-.06-.28-.14-.57-.22-.85l0-.11c-.07-.25-.15-.49-.24-.74l0-.09c-.08-.22-.18-.45-.28-.67s-.21-.43-.33-.64a7.39,7.39,0,0,0-.42-.66c-.25-.35-.49-.69-.71-1l0,0a.05.05,0,0,0,0,0h0l-.06-.1-.09-.13a.35.35,0,0,0-.05-.08v0a7.83,7.83,0,0,1-1.47-5.14,1.36,1.36,0,0,1,0-.2,7.68,7.68,0,0,1,.11-.82A.13.13,0,0,1,15,61a2.21,2.21,0,0,1,0-.25c0-.14.05-.28.08-.43s.05-.23.08-.34c.06.48.14,1,.22,1.4A7.45,7.45,0,0,0,16,63.33a2.81,2.81,0,0,0,.24.36,1.91,1.91,0,0,0,.61.49c.92.49,2.07,0,4.92.58l.14,0c.4.07.83.17,1.29.29,4.71,1.22,7.84.7,11.15-3.31a19,19,0,0,0,2.17-3.41,32,32,0,0,0,1.33-3c.09-.21.17-.42.24-.62s.11-.29.16-.43h0c0-.12.09-.24.13-.35h0c.38-1.07.64-2,.81-2.56a4.15,4.15,0,0,1,.85,1.06h0A15.14,15.14,0,0,1,41.2,54.86Z"/><path class="cls-18" d="M33.79,41.11s.54,5.45-1.6,6.41-4.56,1-5.37-1.29a11.34,11.34,0,0,1,0-5.44S33.53,39.82,33.79,41.11Z"/><path class="cls-19" d="M27.81,47.6c3.46-.53,5.59-4.5,4.44-3.92s-4.56.12-5.78-.07a14.41,14.41,0,0,1,.35-2.82s6.71-1,7,.32c0,0,.54,5.45-1.6,6.41C30.63,48.21,28.94,48.4,27.81,47.6Z"/><path class="cls-14" d="M28.45,48.34s-3.24,3-3.86,1.36l0-.1a26.08,26.08,0,0,1,1.91-4.67,2.73,2.73,0,0,0,2.36,2.38,4.5,4.5,0,0,0,4.61-2.7c.23,1.17-.69,3.59-2.49,6.78C30.46,51.5,29.54,51.2,28.45,48.34Z"/><path class="cls-10" d="M33.82,43.18c0-.39,1.3,3.87-2.44,7.6,0,0-1.24,1.37-2.86-2.86,0,0-3.23,3-3.86,1.37s1.81-5.68,1.81-5.68-.18,2.91,2.43,3.28A4.53,4.53,0,0,0,33.82,43.18Z"/><path class="cls-14" d="M24.66,48.75c.63,1.62,3.86-1.37,3.86-1.37,1.62,4.23,2.86,2.86,2.86,2.86a8.6,8.6,0,0,0,2.67-5.84,8.52,8.52,0,0,1-2.67,6.38s-1.24,1.37-2.86-2.86c0,0-3.23,3-3.86,1.37a2.15,2.15,0,0,1-.08-.9A1.9,1.9,0,0,0,24.66,48.75Z"/><g class="cls-8"><path class="cls-20" d="M16.45,59.69a3.72,3.72,0,0,0,.2-.87A16.13,16.13,0,0,1,17.18,57c.24-.67.51-1.33.7-1.82l.34-.83s1.86-5.4,1.7-5.46-2.27,5.25-2.27,5.25l-.29.84c-.17.51-.4,1.19-.58,1.89a11,11,0,0,0-.36,2A2.24,2.24,0,0,0,16.45,59.69Z"/><path class="cls-20" d="M16.35,62.33c.17,0,.19-.82.19-.82s-.24-.76-.4-.74-.19.82-.19.82S16.18,62.36,16.35,62.33Z"/><path class="cls-20" d="M20.27,76.24s0,.06,0,.08h-.45a1440488747816.79,1440488747816.79,0,0,0,0-.16A3.83,3.83,0,0,1,20,74.48a14.48,14.48,0,0,1,.28,1.63Z"/></g><g class="cls-21"><path class="cls-16" d="M26.39,68.94a11.37,11.37,0,0,0,1.68.14,10.91,10.91,0,0,0,1.68-.17l.54-.12.2-.05.21-.06c.12,0,.31-.07.53-.15a11,11,0,0,0,1.55-.66,10.45,10.45,0,0,0,1.41-.93,4.84,4.84,0,0,1,.61-.48,3.58,3.58,0,0,1-.53.57,9.47,9.47,0,0,1-1.39,1,10.55,10.55,0,0,1-1.56.73c-.22.09-.41.13-.54.18l-.21.06-.21,0c-.14,0-.33.08-.57.11a9.81,9.81,0,0,1-1.72.11,9.71,9.71,0,0,1-1.71-.23,3.34,3.34,0,0,1-.74-.25S25.93,68.87,26.39,68.94Z"/><path class="cls-16" d="M16.83,67.58c.35.22.72.41.72.41s.36.22.73.41a5.18,5.18,0,0,1,.76.38,2.21,2.21,0,0,1-.84-.19,6.33,6.33,0,0,1-.79-.34,6.5,6.5,0,0,1-.71-.5,2.23,2.23,0,0,1-.59-.62A6.52,6.52,0,0,1,16.83,67.58Z"/><path class="cls-16" d="M28.44,47.76a1.06,1.06,0,0,1,0,.15h0s0,.06,0,.09h0a1.24,1.24,0,0,1,0,.18,2.07,2.07,0,0,1,0,.22c0,.08,0,.17,0,.27s-.08.43-.13.69a28.6,28.6,0,0,1-1,3.5c-.2.58-.43,1.15-.67,1.68a1.59,1.59,0,0,1-.12.27.49.49,0,0,1,0,.11l-.05.1v0c-.2.42-.39.82-.56,1.16a1.71,1.71,0,0,1-.13.23,2,2,0,0,1-.13.25c0,.09-.09.17-.13.25h0l-.4.71-.12.21-.38.65-.22.39h0l-.09.16a21.15,21.15,0,0,0-1.59,3.23c-.09.25-.18.5-.25.75a2.86,2.86,0,0,0-.07.28h0a11.17,11.17,0,0,0-.27,1.43,6.65,6.65,0,0,0-.06,1.06A7.57,7.57,0,0,0,22,67c0,.25.08.41.08.44a.3.3,0,0,1-.05-.1c0-.08-.06-.19-.09-.33s0,0,0-.06,0,.27.05.42c.09.9.25,2.1.46,3.3,0,.19.07.38.1.57.19,1,.42,1.94.6,2.68s.4,1.45.4,1.45l.24.84a.19.19,0,0,1,0,.08h-.29l0-.08c-.15-.47-.23-.75-.23-.75s-.16-.59-.38-1.48-.38-1.7-.55-2.7l-.09-.58c-.19-1.2-.31-2.41-.37-3.32,0-.46-.05-.83-.05-1.1v-.1a2,2,0,0,1,0-.36,5.8,5.8,0,0,1,0-1.09,8.16,8.16,0,0,1,.23-1.4,1.22,1.22,0,0,1,.06-.26c.07-.28.15-.56.25-.84A21.87,21.87,0,0,1,23.88,59l.12-.22h0l0,0,.16-.28.34-.61.16-.28s.1-.16.25-.45.18-.31.29-.51.07-.13.11-.2.1-.18.15-.27c.18-.34.38-.73.58-1.16a.08.08,0,0,0,0,0l0-.06,0-.08.12-.25c.24-.53.48-1.11.7-1.69a30.61,30.61,0,0,0,1.08-3.45c.06-.25.11-.47.15-.67a1.67,1.67,0,0,0,.05-.18c0-.12,0-.22.07-.31l0-.12h0q0-.09,0-.15h0A.42.42,0,0,1,28.44,47.76Z"/></g><g class="cls-8"><path class="cls-16" d="M20.61,63.4a7.51,7.51,0,0,0,1.21,0,6.45,6.45,0,0,1,2.55.34,14.28,14.28,0,0,0,2.58.76,5.53,5.53,0,0,0,1.27.07l.35,0a4.87,4.87,0,0,0,.9-.25,9,9,0,0,0,2.33-1.4,11.57,11.57,0,0,0,2-1.79A2.29,2.29,0,0,0,34.37,60s-.25.42-.75.93a13.71,13.71,0,0,1-2.07,1.6,9,9,0,0,1-2.27,1.22,3.6,3.6,0,0,1-.8.18,2.2,2.2,0,0,1-.31,0,5.08,5.08,0,0,1-1.14,0,15.66,15.66,0,0,1-2.54-.62,6.58,6.58,0,0,0-1.43-.24,7.93,7.93,0,0,0-1.26.08A4,4,0,0,0,20.61,63.4Z"/></g><path class="cls-10" d="M57.84,76.24l0,.08H55.49l0-.08H49.35l-.11.08H47.52a.6.6,0,0,0,.08-.08c1.25-1.3,2.12-2.56,2.14-3.57h0v-.08a1.35,1.35,0,0,0-.13-.6c-.9-2-4.19-6.44-6.76-9.8l-.67-.87-.09-.11-1-1.26a.91.91,0,0,1-.1-.13l-1-1.25-.5-.62a.08.08,0,0,0,0,0,1.46,1.46,0,0,1-.14-.21,8.05,8.05,0,0,1-1-2.32,2.21,2.21,0,0,1,0-.25,5.4,5.4,0,0,1-.12-.82h0a6,6,0,0,1,.1-1.51A5.38,5.38,0,0,1,40,50a4.17,4.17,0,0,1,.38-.34,9.48,9.48,0,0,1,2-1.26l.09.09a1.93,1.93,0,0,0,.15.16l0,0c.62.66,2.28,2.46,4.31,4.84C48.81,55.73,51,58.45,53,61.24h0q.75,1,1.44,2.07l.61.92c.21.33.42.66.62,1l.55.92a24.73,24.73,0,0,1,2.12,4.48c.08.23.15.46.21.68A6.87,6.87,0,0,1,57.84,76.24Z"/><g class="cls-11"><path class="cls-12" d="M39.07,52a6.16,6.16,0,0,0-.19,1.76A11.58,11.58,0,0,0,39,55.58a10.72,10.72,0,0,0,.54,1.7,6,6,0,0,0,.87,1.55s-.39-.8-.67-1.63a11.9,11.9,0,0,1-.44-1.68,11.72,11.72,0,0,1-.25-1.73C39,52.91,39.11,52,39.07,52Z"/><g class="cls-5"><path class="cls-13" d="M38,55.19s0,.22.1.79a5,5,0,0,0,.39,1.11,5.47,5.47,0,0,0,.7.94,2.84,2.84,0,0,0,.92.7s-.42-.4-.76-.84a6,6,0,0,1-.6-1,5.81,5.81,0,0,1-.45-1C38.12,55.39,38,55.19,38,55.19Z"/></g><path class="cls-12" d="M54.47,72.09a2.66,2.66,0,0,0-1.17-.61,4,4,0,0,0-1.34-.1,3.91,3.91,0,0,0-1.27.43,2.55,2.55,0,0,0-1,.87A7.67,7.67,0,0,1,50.78,72a3.7,3.7,0,0,1,.83-.26,2.88,2.88,0,0,1,.39-.06l.39,0a4.46,4.46,0,0,1,.86,0A8.9,8.9,0,0,1,54.47,72.09Z"/><path class="cls-12" d="M52.78,73.73a2.26,2.26,0,0,0-.62-.65,2.83,2.83,0,0,0-.53-.35l-.28-.11a1.78,1.78,0,0,0-1,0,1.26,1.26,0,0,0-.53.37.43.43,0,0,0-.12.27s.09-.09.21-.19a1.23,1.23,0,0,1,.5-.25,1.8,1.8,0,0,1,.56,0l.25.06a1.59,1.59,0,0,1,.25.08,3.57,3.57,0,0,1,.52.26A5.42,5.42,0,0,0,52.78,73.73Z"/></g><path class="cls-14" d="M57.84,76.24l0,.08H55.49l0-.08a2.45,2.45,0,0,0-1.94-1.77c-1.06-.1-2.56.65-4.17,1.77l-.11.08H47.52a.6.6,0,0,0,.08-.08c1.25-1.3,2.12-2.56,2.14-3.57h0v-.08a1.35,1.35,0,0,0-.13-.6c-.9-2-4.19-6.44-6.76-9.8l-.67-.87-.09-.11-1-1.26a.91.91,0,0,1-.1-.13l-1-1.25-.5-.62a.08.08,0,0,0,0,0,2.11,2.11,0,0,1-.11-.22,11.47,11.47,0,0,1-.77-2.17.35.35,0,0,0,0-.13A10.13,10.13,0,0,1,38.4,54h0a7.27,7.27,0,0,1,0-1.15,6.65,6.65,0,0,1,1.29-3.73l.08-.11c.11-.13.22-.27.34-.4l0,.28c0,.13,0,.27,0,.42h0c0,.22,0,.47,0,.73a21,21,0,0,0,.08,2.45h0a14.69,14.69,0,0,0,.55,3,6.26,6.26,0,0,0,.21.61,5.31,5.31,0,0,0,.35.76l.13.23,0,.06h0c.1.18.22.36.35.56h0c.3.5.67,1.07,1.07,1.68C45.87,64,51.42,70.74,53,69.58a1.77,1.77,0,0,0,.58-1h0c.42-1.75-.1-5-.57-7.27q.75,1,1.44,2.07l.61.92c.21.33.42.66.62,1l.55.92a24.73,24.73,0,0,1,2.12,4.48c.08.23.15.46.21.68A6.87,6.87,0,0,1,57.84,76.24Z"/><path class="cls-15" d="M41,49.26a1.77,1.77,0,0,0-.38.37,1.93,1.93,0,0,0-.08.23h0a2,2,0,0,0-.05.28c0,.27,0,.52.13.52s.16-.21.27-.39h0a2.8,2.8,0,0,1,.24-.33,2.15,2.15,0,0,1,.17-.38c.1-.19.25-.36.21-.44S41.22,49.11,41,49.26Z"/><path class="cls-10" d="M14.48,76.32H3.84l-.06-.08c-.22-.3-.44-.6-.64-.9s-.36-.53-.53-.79-.26-.4-.38-.6H12.41l0,0c.28.35.57.7.88,1s.72.83,1.09,1.22Z"/><path class="cls-14" d="M14.48,76.32H13.07L13,76.24c-.16-.23-.33-.45-.5-.68-.31-.41-.64-.83-1-1.24h0l-.3-.36h1.17l0,0c.28.35.57.7.88,1s.72.83,1.09,1.22Z"/><path class="cls-18" d="M13.72,21.77A2.34,2.34,0,0,0,10.48,21c-2.19,1.45-1.09,9,1.9,8.94S14.25,21.61,13.72,21.77Z"/><path class="cls-19" d="M13.72,21.77A2.34,2.34,0,0,0,10.48,21c-2.19,1.45-1.09,9,1.9,8.94S14.25,21.61,13.72,21.77Z"/><path class="cls-22" d="M11,27.71c0-.06.23,0,.49-.08a.45.45,0,0,0,.31-.26.71.71,0,0,0,0-.5,1,1,0,0,0-.28-.43c-.11-.11-.26-.15-.46-.31a.88.88,0,0,1-.29-.77,1,1,0,0,1,.09-.29,1.12,1.12,0,0,1,.17-.24,1.18,1.18,0,0,1,.28-.23.91.91,0,0,1,.22-.09h0s0,0,0,0,0-.08,0-.13l0-.2a2.38,2.38,0,0,0-.31-.8c-.29-.51-.73-.71-.72-.79s.52,0,1,.5A2.55,2.55,0,0,1,12,24a2.33,2.33,0,0,1,.07.25,1.68,1.68,0,0,1,0,.29c0,.24,0,.48,0,.65a2.72,2.72,0,0,0-.43,0,.31.31,0,0,0-.1.05.79.79,0,0,0-.13.13.46.46,0,0,0-.06.1s0,0,0,0,.26.18.45.39a1.58,1.58,0,0,1,.39.82,1.23,1.23,0,0,1-.17.88.64.64,0,0,1-.57.29C11.15,27.92,11,27.75,11,27.71Z"/><path class="cls-19" d="M12.38,30c3-.1,1.87-8.37,1.34-8.21A2.78,2.78,0,0,0,12,20.65a5.42,5.42,0,0,1-.21,3.07s-.78-1.25-1.2-.83.22,2.42-.68,2.62c-.28.06-.47-.16-.59-.49C9.53,27.45,10.63,30,12.38,30Z"/><g class="cls-8"><path class="cls-23" d="M9.6,22.72c-.13.42-.07.84.12,1s.45-.16.58-.59.07-.85-.12-.95S9.72,22.29,9.6,22.72Z"/><path class="cls-23" d="M10.37,21.49a.34.34,0,0,0,.14.39.21.21,0,0,0,.32-.11.32.32,0,0,0-.14-.38A.21.21,0,0,0,10.37,21.49Z"/></g><path class="cls-18" d="M47.11,22c.24-6.79-2.57-17.8-16.86-17.91S13.7,19.75,13.7,19.75A43.42,43.42,0,0,0,12.38,30c.17,4.43,2.47,11,12.77,12.08s18.21-3.27,20.06-9.6a5.27,5.27,0,0,0,4.86-4.24C50.79,25.3,49.19,22.34,47.11,22Z"/><g class="cls-5"><path class="cls-19" d="M47.11,22a21.93,21.93,0,0,0-.84-6.83,17.32,17.32,0,0,0-2.33-4.88c2.07,3.46,2.43,8.66,2.32,11.82.17,0,.6-.09.9-.1Z"/><path class="cls-19" d="M49,23.14a6.07,6.07,0,0,1,.43,4.07,5.27,5.27,0,0,1-4.86,4.24c-1.85,6.33-9.77,10.65-20.07,9.6C19.06,40.49,15.86,38.4,14,35.9c1.69,2.93,5,5.53,11.13,6.16,10.29,1,18.21-3.27,20.06-9.6a5.27,5.27,0,0,0,4.86-4.24A5.88,5.88,0,0,0,49,23.14Z"/></g><g class="cls-5"><path class="cls-18" d="M47.85,29.8a1,1,0,0,1-.42.84.74.74,0,0,1-.43.15.68.68,0,0,1-.51-.24,1.25,1.25,0,0,1-.32-.64.94.94,0,0,1,.22-.78,4,4,0,0,1,.44-.29.61.61,0,0,0,.21-.26A.87.87,0,0,0,47.1,28a.44.44,0,0,0-.31-.33.36.36,0,0,0-.13,0h-.14l-.07,0,0,0-.11.16c-.16.24-.29.3-.44.31a.44.44,0,0,1-.27-.12.62.62,0,0,1-.15-.29,3.47,3.47,0,0,1-.08-.88,4.3,4.3,0,0,1,0-.62,3.43,3.43,0,0,1,.31-1.13,2.06,2.06,0,0,1,.6-.73c.44-.32.8-.22.8-.17s-.31.1-.63.45a2.52,2.52,0,0,0-.58,1.68,3.25,3.25,0,0,0,0,.54,1.25,1.25,0,0,0,0,.17c0,.08.08,0,.07,0h0l.1-.08a.93.93,0,0,1,.2-.1.76.76,0,0,1,.34-.06.73.73,0,0,1,.3.05,1,1,0,0,1,.29.16,1.39,1.39,0,0,1,.5.83A1.86,1.86,0,0,1,47.54,29a1.19,1.19,0,0,1-.45.44,2.31,2.31,0,0,0-.38.18c-.07.05-.09.1-.09.22a.65.65,0,0,0,.13.34.41.41,0,0,0,.54.13C47.67,30.15,47.8,29.76,47.85,29.8Z"/></g><path class="cls-23" d="M48.49,24.37c.3.31.64.4.77.2s0-.59-.31-.89-.64-.39-.77-.2S48.2,24.07,48.49,24.37Z"/><path class="cls-23" d="M47.37,22.9a.34.34,0,0,0,.15.38.21.21,0,0,0,.32-.1.35.35,0,0,0-.14-.39A.22.22,0,0,0,47.37,22.9Z"/><path class="cls-19" d="M27.89,30.66a5.49,5.49,0,0,1-4.33-1.18s-1.22.78,1,1.6C27.39,32.18,27.89,30.66,27.89,30.66Z"/><g class="cls-5"><path class="cls-18" d="M26.66,31.27a6.09,6.09,0,0,1-.91,0,5.48,5.48,0,0,1-1.85-.63,1.08,1.08,0,0,1-.59-.63.55.55,0,0,1,.25-.56,1.59,1.59,0,0,1,.5-.22,1.08,1.08,0,0,1,.22,0,2.2,2.2,0,0,1,.51,0,2.24,2.24,0,0,1,1,.23,6.66,6.66,0,0,1,.8.49c0-.31,0-.65,0-1,0-.19,0-.4,0-.61,0-.41,0-.84,0-1.22a5.31,5.31,0,0,0-.14-1.36,6.46,6.46,0,0,0-.16,1.36c0,.38,0,.81-.07,1.23l0,.61c0,.06,0,.08,0,.09L26,29l-.43-.18a3.46,3.46,0,0,0-.74-.15,2.71,2.71,0,0,0-.62,0,2.11,2.11,0,0,0-.29.06,2,2,0,0,0-.7.36,1.22,1.22,0,0,0-.34.45,1,1,0,0,0-.05.67,1.58,1.58,0,0,0,.88.88,4.93,4.93,0,0,0,2,.48A1.36,1.36,0,0,0,26.66,31.27Z"/></g><path class="cls-23" d="M24.71,29.59c-.06.14.14.35.43.47s.58.1.63,0-.13-.35-.43-.46S24.76,29.45,24.71,29.59Z"/><path class="cls-19" d="M31.19,30.9c0,1.36,1.72,2.48,3.87,2.51S39,32.35,39,31s-1.72-2.49-3.88-2.51S31.2,29.54,31.19,30.9Z"/><path class="cls-19" d="M13.12,29.11c-.26,1.33,1.23,2.74,3.32,3.15s4-.35,4.25-1.69-1.23-2.74-3.31-3.15S13.38,27.77,13.12,29.11Z"/><path class="cls-6" d="M34.17,20.44c0,.08.38.11.69.25a2.2,2.2,0,0,1,.57.33,2.56,2.56,0,0,1,.56.35c.27.22.46.53.54.5s0-.42-.21-.77a2.66,2.66,0,0,0-.57-.6,2.58,2.58,0,0,0-.8-.23C34.54,20.23,34.15,20.36,34.17,20.44Z"/><path class="cls-6" d="M17.32,20.36c.07,0,.32-.25.63-.43a2.63,2.63,0,0,1,.63-.28,2.43,2.43,0,0,1,.65-.22,1.41,1.41,0,0,1,.46,0c.13,0,.23.05.26,0s0-.13-.16-.24a1.17,1.17,0,0,0-.57-.2,2.19,2.19,0,0,0-.86.08,2.37,2.37,0,0,0-.69.51C17.37,19.92,17.24,20.33,17.32,20.36Z"/><path class="cls-19" d="M13.7,19.75S15.88,4,30.25,4.08,47.35,15.2,47.11,22c1.59.27,2.89,2.05,3.1,4.18-1.64-.44-3.47-2.34-4-2.91-.24,1.6-1.16,7.11-1.84,11.2A12,12,0,0,1,41.48,38c-.19-4.24-.56-12.22-.74-15.35a16.39,16.39,0,0,1-3-1.89,35.17,35.17,0,0,1-8.16-8.56s-8.95,4.53-14.36,3.64c0,0-2,5-2,7l-.12-.13C13.39,21,13.7,19.75,13.7,19.75Z"/><path class="cls-6" d="M25.49.39C32-1.07,35.11,2,35.11,2S42.43-.73,47.9,4.91c0,0,5,1.67,5.7,13.86.63,11.2-5.79,4.56-6.83,3.41-.4,2.65-2.64,16-2.64,16l-2,1.5s-.62-13.74-.87-18.08a16.72,16.72,0,0,1-3-1.9,35.25,35.25,0,0,1-8.16-8.55s-8.95,4.52-14.36,3.63c0,0-2,5-2,7A2.56,2.56,0,0,0,10.48,21S8.93,4.1,25.49.39Z"/><path class="cls-7" d="M49.09,13.2l0-.06c0,.06.05.12.09.19S49.11,13.24,49.09,13.2Zm4.51,5.58c0-.38-.05-.75-.08-1.11,0-.53-.09-1-.16-1.53,0-.31-.07-.61-.12-.91s-.11-.7-.17-1-.08-.44-.13-.65-.08-.42-.13-.62c.2,2.18.24,4.31-.36,4.55s-1.29-.59-1.94-1.61l0,0a20.49,20.49,0,0,1-1.12-2c.17.41.39.93.59,1.52l.08.2.05.12a16.39,16.39,0,0,1,.85,3.14,3.23,3.23,0,0,1-.5,2.82c-.73.69-2,.19-3.32-.7a0,0,0,0,1,0,0c-.28-.19-.57-.4-.85-.62a33.52,33.52,0,0,1-3.42-3.2c.13.24,1.52,2.87.52,3.58-.65.45-3.71-1.18-6.44-2.95l-.08-.06c-.8-.5-1.57-1-2.24-1.53l-.26-.2h0c-.43-.31-.8-.6-1.1-.85q.21.24.45.48l.11.12.43.44.4.4.18.17c.73.71,1.54,1.44,2.45,2.18.32.27.66.54,1,.81a17.44,17.44,0,0,0,3,1.9c0,.11,0,.22,0,.34s0,.25,0,.38c0,.59.07,1.28.11,2a.66.66,0,0,0,0,.14l0,.71c0,.12,0,.23,0,.35s0,.46,0,.7c0,.47,0,1,.07,1.46a.57.57,0,0,1,0,.13c0,.3,0,.61,0,.91l.06,1.34.06,1.16c0-1.21,0-2.72.17-3.94v0c0-.37.08-.72.14-1v0c.13-.63.3-1.06.55-1.09.53-.06.79,1.08.92,2.22a21.82,21.82,0,0,1,.13,2.22s0-.82.13-1.66v0c.14-1,.41-2.12.93-1.71a2.3,2.3,0,0,1,.47,1.32v0c0,.31.07.66.09,1,0,.12,0,.24,0,.37h0c0,.44,0,.89,0,1.34v.58c.15-.9.3-1.82.45-2.7h0c0-.37.11-.73.17-1.08a0,0,0,0,1,0,0c0-.37.11-.72.17-1.06l.12-.75a1.85,1.85,0,0,0,0-.23l0-.17h0a2.17,2.17,0,0,1,0-.25h0c0-.08,0-.16,0-.24,0-.24.07-.47.11-.69s.05-.31.07-.45.07-.45.1-.63,0-.24,0-.34l.27.29.13.13.25.25,0,0,.37.34.34.31a10.26,10.26,0,0,0,1.15.88l.05,0,.09.06.45.25.39.19h0l.26.09.26.07.06,0a2.63,2.63,0,0,0,.85,0h0a.73.73,0,0,0,.2,0l.15-.06.15-.08.15-.1a2.21,2.21,0,0,0,.28-.26,1.91,1.91,0,0,0,.15-.21,3,3,0,0,0,.43-.92,2.76,2.76,0,0,0,.08-.27c0-.1.05-.2.07-.3s.07-.35.1-.54c0,0,0,0,0-.07v0c0-.08,0-.17,0-.27s0,0,0-.07v-.05c0-.2,0-.41,0-.63v0c0-.14,0-.29,0-.45C53.65,20.16,53.64,19.51,53.6,18.78Z"/><path class="cls-7" d="M27.77,10.67a4.49,4.49,0,0,0-3.25.07s5.92-4.16,4.73-5.49a13.46,13.46,0,0,0-3.88-2.47s3.31-.07,5,1.06c0,0,2.63-.1.4-1.5,0,0,2.1-.41,2.32-1.53a6.89,6.89,0,0,1,2,1.23A13.48,13.48,0,0,1,43,1.89a3.23,3.23,0,0,0-2.48.54c-1.05,1.12,2,4.27,2,4.27s-3.88-1.88-4.65-1.53,3.94,4.16,3.94,4.16S36.36,6.8,36.15,7.5s1.91,2.82,1.91,2.82-6.28-4.09-5.43.92a13.76,13.76,0,0,0,2.18,5.43,31.16,31.16,0,0,1-4.7-5.56,47.7,47.7,0,0,1-6.28,2.52C25.86,12.66,28.7,11.14,27.77,10.67Z"/><g class="cls-8"><path class="cls-6" d="M41.21,21a1.54,1.54,0,0,0-.27-.22l-.73-.54c-.61-.45-1.42-1-2.21-1.65s-1.58-1.23-2.15-1.72-.93-.83-.93-.83a25.83,25.83,0,0,1-2.76-2.88,21.65,21.65,0,0,1-1.58-2.25l-.47-.78a1.45,1.45,0,0,0-.18-.29,1.76,1.76,0,0,0,.13.32c.09.2.24.48.42.81A19.12,19.12,0,0,0,32,13.25a24.43,24.43,0,0,0,2.73,3s.37.34,1,.82,1.38,1.1,2.2,1.68,1.65,1.16,2.27,1.57l.77.5A1.07,1.07,0,0,0,41.21,21Z"/></g><g class="cls-8"><path class="cls-6" d="M41.41,21.37a2.75,2.75,0,0,0,.9.71,6.13,6.13,0,0,0,1.06.45,6.41,6.41,0,0,0,1.15.14,2.89,2.89,0,0,0,1.13-.16s-.57,0-1.12-.05a6.27,6.27,0,0,1-1.08-.23,6.17,6.17,0,0,1-1.05-.35C41.89,21.66,41.43,21.34,41.41,21.37Z"/></g><g class="cls-8"><path class="cls-6" d="M35.07,8.05a1.29,1.29,0,0,0-.35-.56,3.38,3.38,0,0,0-.5-.45,3.2,3.2,0,0,0-.62-.25A1.19,1.19,0,0,0,33,6.72a3.23,3.23,0,0,0,.58.26,4.41,4.41,0,0,1,.53.32,5,5,0,0,1,.52.34C34.82,7.84,35,8.08,35.07,8.05Z"/></g><g class="cls-8"><path class="cls-6" d="M44.27,13.11a1.19,1.19,0,0,0-.08-.29,7.17,7.17,0,0,0-.32-.73,9.54,9.54,0,0,0-1.37-2,12.06,12.06,0,0,0-1.78-1.66c-.53-.4-.91-.63-.91-.63s-.37-.24-1-.55-1.38-.7-2.2-1a9.37,9.37,0,0,0-2.3-.74,2.1,2.1,0,0,0-.81.08.73.73,0,0,0-.27.15,2.13,2.13,0,0,1,1.06-.11,9.53,9.53,0,0,1,2.24.82c.8.36,1.57.75,2.14,1.08s.93.56.93.56.37.23.9.61a12.09,12.09,0,0,1,1.79,1.57,10.52,10.52,0,0,1,1.43,1.91C44.09,12.71,44.25,13.12,44.27,13.11Z"/></g><g class="cls-8"><path class="cls-6" d="M51.88,26.21s-.28-.23-.7-.56-1-.77-1.51-1.23c-1.08-.93-2.07-1.94-2.07-1.94s-1-1-1.93-2.08c-.46-.54-.91-1.09-1.23-1.51a6.53,6.53,0,0,0-.56-.7,4.12,4.12,0,0,0,.46.76c.3.45.72,1,1.16,1.59.89,1.12,1.89,2.15,1.89,2.15s1,1,2.14,1.89c.56.45,1.14.87,1.58,1.17A4,4,0,0,0,51.88,26.21Z"/></g><g class="cls-8"><path class="cls-6" d="M49.42,22.07a6.82,6.82,0,0,0,.71,1l.72,1,.77.95a8.58,8.58,0,0,0,.78.94,5,5,0,0,0-.61-1.07c-.34-.51-.7-1-.7-1s-.39-.48-.8-.93A5.28,5.28,0,0,0,49.42,22.07Z"/></g><g class="cls-8"><path class="cls-6" d="M44.72,8.41a1.69,1.69,0,0,0,.25.3l.7.74c.57.61,1.34,1.43,2,2.3a17.65,17.65,0,0,1,1.73,2.53,13.11,13.11,0,0,1,.61,1.25s.23.5.5,1.29.59,1.87.89,2.95.61,2.16.84,3l.29,1a2.38,2.38,0,0,0,.13.36,1.51,1.51,0,0,0-.07-.38c-.05-.24-.13-.58-.23-1-.21-.82-.48-1.9-.75-3s-.56-2.18-.83-3-.5-1.32-.5-1.32a12.82,12.82,0,0,0-.64-1.27,17.51,17.51,0,0,0-1.8-2.53c-.73-.86-1.53-1.66-2.13-2.25L45,8.66A2.15,2.15,0,0,0,44.72,8.41Z"/></g><g class="cls-8"><path class="cls-6" d="M42.92,7.15a3.78,3.78,0,0,0-.42-.45c-.27-.26-.63-.59-1-.92s-.77-.62-1.08-.84-.51-.35-.51-.35a9.48,9.48,0,0,0-1.82-.82,5,5,0,0,0-2-.26,2.85,2.85,0,0,0,.61.11A7.42,7.42,0,0,1,38,4a9.9,9.9,0,0,1,1.73.88A15.71,15.71,0,0,1,41.35,6C42.13,6.55,42.89,7.18,42.92,7.15Z"/></g><g class="cls-8"><path class="cls-6" d="M49.8,9.81s.36.74.68,1.48.61,1.49.61,1.49.31.75.56,1.52.46,1.56.5,1.55a7.16,7.16,0,0,0-.29-1.61c-.2-.79-.49-1.57-.49-1.57s-.31-.76-.69-1.48A7.51,7.51,0,0,0,49.8,9.81Z"/></g><g class="cls-8"><path class="cls-6" d="M42.94,42.8c.08,0-.45-10.44-.45-10.44S41.82,21.94,41.73,22s.46,10.43.46,10.43S42.86,42.8,42.94,42.8Z"/></g><g class="cls-8"><path class="cls-6" d="M44.52,39.73a1.48,1.48,0,0,0,0-.37c0-.24,0-.57.07-1,0-.81.12-1.89.2-3,.18-2.16.43-4.3.43-4.3s.21-2.15.51-4.29c.15-1.07.31-2.14.43-2.94.06-.4.11-.74.15-1a2.52,2.52,0,0,0,0-.37,1.39,1.39,0,0,0-.1.36c0,.23-.13.56-.2,1-.17.79-.36,1.86-.53,2.92-.35,2.14-.6,4.29-.6,4.29s-.22,2.16-.34,4.32c-.06,1.08-.1,2.16-.11,3,0,.4,0,.74,0,1A1.61,1.61,0,0,0,44.52,39.73Z"/></g><g class="cls-8"><path class="cls-6" d="M43.75,30.19a15.2,15.2,0,0,0,0-1.71l0-1.7v-1.7a13.94,13.94,0,0,0,0-1.71,10.89,10.89,0,0,0-.19,1.7c-.06.85-.08,1.71-.08,1.71s0,.85,0,1.71A11.07,11.07,0,0,0,43.75,30.19Z"/></g><g class="cls-8"><path class="cls-6" d="M29.05,1.71a6.32,6.32,0,0,0,.88.29,7.47,7.47,0,0,1,.84.34,8.79,8.79,0,0,1,.82.39,7.65,7.65,0,0,0,.8.46,2.34,2.34,0,0,0-.69-.64,5.4,5.4,0,0,0-.81-.48,6.2,6.2,0,0,0-.9-.28A2.56,2.56,0,0,0,29.05,1.71Z"/></g><g class="cls-8"><path class="cls-6" d="M22.12,3.05a7.58,7.58,0,0,0,.77-.1,11.62,11.62,0,0,1,1.68-.11A12.61,12.61,0,0,1,26.24,3c.45.07.75.14.75.14s.29.06.74.18a12.58,12.58,0,0,1,1.58.55,13.26,13.26,0,0,1,1.49.8,6.94,6.94,0,0,0,.65.4,3.43,3.43,0,0,0-.59-.5,9.82,9.82,0,0,0-1.46-.89A12.18,12.18,0,0,0,27.8,3l-.75-.2s-.31-.07-.77-.13a11.28,11.28,0,0,0-1.72-.08,10.75,10.75,0,0,0-1.69.2A3.11,3.11,0,0,0,22.12,3.05Z"/></g><g class="cls-8"><path class="cls-6" d="M12.13,13.08a1.45,1.45,0,0,0,.33.22,8.39,8.39,0,0,0,.95.47,11.05,11.05,0,0,0,3.12.76,18,18,0,0,0,3.22,0c.87-.08,1.45-.17,1.45-.17s.58-.09,1.43-.26a24,24,0,0,0,3.11-.81,11.3,11.3,0,0,0,2.83-1.52c.36-.25.65-.47.85-.63l.31-.26a2.1,2.1,0,0,0-.35.21l-.87.58a11.93,11.93,0,0,1-2.84,1.41,22.27,22.27,0,0,1-3.09.74c-.85.16-1.43.24-1.43.24s-.57.1-1.43.19a17.85,17.85,0,0,1-3.17.08,11.34,11.34,0,0,1-3.1-.65C12.64,13.36,12.14,13.05,12.13,13.08Z"/></g><g class="cls-8"><path class="cls-6" d="M11.37,16.39a2.72,2.72,0,0,0,1.26.32,4.79,4.79,0,0,0,1.31-.15A4.53,4.53,0,0,0,15.11,16,2.87,2.87,0,0,0,16,15s-.46.45-1,.77a4.63,4.63,0,0,1-1.15.48,4.79,4.79,0,0,1-1.22.22A11.8,11.8,0,0,1,11.37,16.39Z"/></g><g class="cls-8"><path class="cls-6" d="M12.52,20.56a4.46,4.46,0,0,0,.35-.73c.17-.36.36-.7.36-.7s.17-.36.37-.71a5.11,5.11,0,0,0,.39-.7s-.32.26-.57.58A6.67,6.67,0,0,0,13,19a6.07,6.07,0,0,0-.3.76A2,2,0,0,0,12.52,20.56Z"/></g><g class="cls-8"><path class="cls-6" d="M20.34,5.23s.72-.11,1.44-.1a8.2,8.2,0,0,1,1.41.12,8.78,8.78,0,0,1,1.39.33c.68.22,1.31.58,1.33.55a4,4,0,0,0-1.26-.75A7.42,7.42,0,0,0,23.24,5a7.36,7.36,0,0,0-1.47,0A4.29,4.29,0,0,0,20.34,5.23Z"/></g><g class="cls-8"><path class="cls-6" d="M17.87,12.12a.85.85,0,0,0,.27,0c.17,0,.41,0,.7,0A17.33,17.33,0,0,0,21,11.88a19.54,19.54,0,0,0,3-.78l.25-.1c.16-.06.39-.14.66-.26a19,19,0,0,0,1.92-1,14.45,14.45,0,0,0,1.8-1.17,1.56,1.56,0,0,0,.59-.77,2.76,2.76,0,0,1-.67.68A18.27,18.27,0,0,1,26.72,9.6a20.11,20.11,0,0,1-1.93.88l-.65.25-.25.09a21.21,21.21,0,0,1-3,.85c-.76.16-1.52.28-2.1.34A9.44,9.44,0,0,0,17.87,12.12Z"/></g><g class="cls-8"><path class="cls-6" d="M12.44,10.75s.61-.35,1.24-.65A13.37,13.37,0,0,1,15,9.58a13.52,13.52,0,0,1,1.32-.44c.67-.19,1.36-.28,1.36-.33a4.8,4.8,0,0,0-1.41.12,11,11,0,0,0-1.37.36,10,10,0,0,0-1.28.62A5,5,0,0,0,12.44,10.75Z"/></g><path class="cls-7" d="M12.75,18.45c.58-1.09-1.67-1.73-1.67-1.73a6,6,0,0,0,2.25-.7c1.47-.71-1-2.44-1.1-2.64l3.6,1,.16.36-.24,0s-2,5-2,7A2.56,2.56,0,0,0,10.48,21a18,18,0,0,1,0-2.34C11.32,19.09,12.39,19.12,12.75,18.45Z"/><g class="cls-9"><path class="cls-6" d="M41.77,19.48c-1.52.4-3.25-1.14-4.36-2-1.33-1.07-2.71-2.17-2.81-4a.5.5,0,0,1,.62-.48c1.62.3,2.61,1.55,3.8,2.56,1,.86,2.87,1.83,3.19,3.17a.65.65,0,0,1-.44.77Z"/></g><g class="cls-9"><path class="cls-6" d="M41.6,16.16a1.76,1.76,0,0,1-1-.42,2.73,2.73,0,0,1-.82-.77c-.12-.16.08-.39.25-.33a2.85,2.85,0,0,1,1,.54,1.84,1.84,0,0,1,.71.78.16.16,0,0,1-.15.2Z"/></g><g class="cls-9"><path class="cls-6" d="M47.07,20c-1.19-1.71-2.44-3.39-3.73-5C42.26,13.58,41,12.4,39.92,11c-.25-.33.16-.76.51-.66,1.9.51,3.18,2.23,4.34,3.73a17.49,17.49,0,0,1,3,5.55c.15.47-.49.68-.74.32Z"/></g><g class="cls-9"><path class="cls-6" d="M48.59,16.76c-.35-.19-.41-.76-.56-1.1s-.46-.82-.62-1.27c-.08-.22.22-.37.37-.22a3.73,3.73,0,0,1,.74,1.28c.15.36.47.89.25,1.26a.13.13,0,0,1-.18.05Z"/></g><g class="cls-9"><path class="cls-6" d="M46.32,12.54c-1.06-.45-1.93-1.7-2.72-2.52s-2-1.7-2.47-2.82c-.05-.12.09-.22.2-.19,1.17.28,2.17,1.47,3,2.31s1.95,2,2.12,3.11c0,.05,0,.14-.11.11Z"/></g><g class="cls-9"><path class="cls-6" d="M50.76,13.83c-1.23-1.58-2.32-3.24-3.69-4.72s-3.16-2.34-4.1-4a.64.64,0,0,1,.55-1c2.12.25,3.66,2.14,4.92,3.73a12.35,12.35,0,0,1,2.63,5.79c0,.15-.22.25-.31.13Z"/></g><g class="cls-9"><path class="cls-6" d="M50,8.23l-.63-.76c-.07-.08,0-.21.13-.12l.66.72c.1.11-.06.27-.16.16Z"/></g><g class="cls-9"><path class="cls-6" d="M43,29.31a17.61,17.61,0,0,1,.39,6.51c0,.23-.4.33-.44.06a17.7,17.7,0,0,1-.08-6.57c0-.07.11-.06.13,0Z"/></g><g class="cls-9"><path class="cls-6" d="M25.66,11.24c-.81,1.41-2.39,1.8-3.9,2.08a14.12,14.12,0,0,1-6.59,0,.43.43,0,0,1,.12-.84c3.57-.22,7,.31,10.27-1.37a.07.07,0,0,1,.1.09Z"/></g><g class="cls-9"><path class="cls-6" d="M28.06,5.29a14.25,14.25,0,0,1-2.4-.76c-.15-.07,0-.29.1-.25a12.68,12.68,0,0,1,2.34.93s0,.09,0,.08Z"/></g><g class="cls-9"><path class="cls-6" d="M24.25,4a21.61,21.61,0,0,1-2.67.31,6.1,6.1,0,0,1-2.4.12.18.18,0,0,1-.05-.33,4.5,4.5,0,0,1,2.59-.5A6.75,6.75,0,0,1,24.25,4s0,0,0,0Z"/></g><g class="cls-9"><path class="cls-6" d="M25.32,8.33c-1.06,1.14-3,1.59-4.42,2A10.89,10.89,0,0,1,16,11a.57.57,0,0,1-.13-1,18.54,18.54,0,0,1,4.57-1.31c1.48-.34,3.13-1.08,4.64-.92a.36.36,0,0,1,.26.61Z"/></g><g class="cls-9"><path class="cls-6" d="M19.72,7.13c-.29.33-.8.33-1.21.4a3.82,3.82,0,0,1-1.35,0,.16.16,0,0,1,0-.29,3.63,3.63,0,0,1,1.3-.34A2,2,0,0,1,19.7,7a.1.1,0,0,1,0,.15Z"/></g><g class="cls-9"><path class="cls-6" d="M28.76,2.32a3.27,3.27,0,0,1-1.36-.27c-.55-.13-1.06-.35-1.6-.52-.09,0-.12-.2,0-.22a4.18,4.18,0,0,1,1.69,0A2.39,2.39,0,0,1,28.91,2a.25.25,0,0,1-.15.36Z"/></g><path class="cls-6" d="M17.65,24.7a3.2,3.2,0,0,0-1.62.89,3.76,3.76,0,0,0-.48.63l-.05.08v.07l0,.12s-.1,0-.17,0a2.36,2.36,0,0,1-.31-.22c-.21-.16-.39-.32-.53-.45s-.43-.44-.43-.44a4.26,4.26,0,0,0,.26.57,3.72,3.72,0,0,0,.4.62,2.66,2.66,0,0,0,.35.4,5,5,0,0,0,.64.52l.25-.39.14-.21.08-.12.05-.05a3.6,3.6,0,0,1,.44-.43,3,3,0,0,1,1.21-.58A2.66,2.66,0,0,1,20.48,27a4.94,4.94,0,0,1,.5.95c.09.25.13.39.13.39a3.53,3.53,0,0,0,0-.42,3.46,3.46,0,0,0-.21-1.15,3.33,3.33,0,0,0-1-1.48A2.64,2.64,0,0,0,17.65,24.7Z"/><path class="cls-6" d="M34.77,25.74a3.13,3.13,0,0,1,1.49,1.08,3,3,0,0,1,.4.68l0,.08v.2s.1,0,.17,0a3,3,0,0,0,.34-.18c.23-.14.42-.27.58-.39a5.85,5.85,0,0,0,.47-.38,3,3,0,0,1-.31.53,4.29,4.29,0,0,1-.48.58,2.64,2.64,0,0,1-.4.35c-.2.14-.44.3-.69.44l-.2-.42-.12-.23L36,27.93l0-.05a3.51,3.51,0,0,0-.4-.48,2.89,2.89,0,0,0-1.13-.72,2.64,2.64,0,0,0-2.77,1,4.56,4.56,0,0,0-.61.88c-.12.23-.18.37-.18.37s0-.14,0-.41a3.54,3.54,0,0,1,.35-1.12A3.36,3.36,0,0,1,32.46,26,2.62,2.62,0,0,1,34.77,25.74Z"/><path class="cls-19" d="M20.92,32.2h.3l.21,0h0a3.09,3.09,0,0,1,2.33,1.16s.25-.76,4-.16l.68.12.31,0a5.86,5.86,0,0,0,.79.05,5,5,0,0,0,.61-.06,4.81,4.81,0,0,1,1.4-.18l-.06,0c0,.13-1.55,4.18-5.17,4.7a4.51,4.51,0,0,1-2.51-.2,2,2,0,0,1-.54-.35,1.61,1.61,0,0,1-.44-.64,1,1,0,0,1,.08-1c.33-.26.24-1.33.17-1.88a4.88,4.88,0,0,1-1.36-.69,2.27,2.27,0,0,1-.83-1Z"/><path class="cls-16" d="M23.26,33.16c0,.69.08,1.66-.21,1.93-.46.42-.29,3.23,3.5,2.58,2.9-.5,4.5-3.52,5.1-4.92A12,12,0,0,1,23.26,33.16Z"/><path class="cls-17" d="M29.85,33.38c-.65.83-1.24,1.7-1.24,1.7s1.11.55-.74,1.84-4.43.39-4.78-.78.41-1.44.79-1.26c.21.09.45-.66.48-1.42a10.52,10.52,0,0,1-1.1-.3c0,.69.08,1.66-.21,1.93-.46.42-.29,3.23,3.5,2.58,2.9-.5,4.5-3.52,5.1-4.92A9.61,9.61,0,0,1,29.85,33.38Z"/><path class="cls-10" d="M23.61,33.26a.57.57,0,0,1,0,.13c.05.78-.1,1.63.61,2.18A3.44,3.44,0,0,0,27,36a6,6,0,0,0,3.75-2.84A12.17,12.17,0,0,1,23.61,33.26Z"/><path class="cls-24" d="M25.75,36.84c0,.19.34.32.69.28s.63-.24.61-.44-.34-.32-.69-.28S25.73,36.64,25.75,36.84Z"/><path class="cls-14" d="M23.63,33.6c0,.17,0,.35,0,.52a7.46,7.46,0,0,0,3.66.42s0,.33-.21.41-1.66.2-1.66.2a3.71,3.71,0,0,0,1.91.08,3,3,0,0,1-3.2.25l.09.09A3.44,3.44,0,0,0,27,36a6,6,0,0,0,3.75-2.84,12.18,12.18,0,0,1-6.77.22A1.29,1.29,0,0,0,23.63,33.6Z"/><path class="cls-16" d="M31.68,33a13.85,13.85,0,0,1-7.33,1.22c-3.18-.55-3.67-2.38-3.67-2.38s2.32,0,3,1.42c0,0,.29-1,4.82-.08C30.25,33.51,30.82,32.84,31.68,33Z"/><path class="cls-17" d="M31.68,33a13.85,13.85,0,0,1-7.33,1.22c-3.18-.55-3.67-2.38-3.67-2.38s2.32,0,3,1.42c0,0,.29-1,4.82-.08C30.25,33.51,30.82,32.84,31.68,33Z"/><path class="cls-17" d="M21.25,31.85c.17.73,1.59,2.19,4.18,1.93,1.64-.17,2.16-.5,2.29-.78l.74.14c1.79.37,2.36-.3,3.22-.18a13.85,13.85,0,0,1-7.33,1.22c-3.18-.55-3.67-2.38-3.67-2.38A4.34,4.34,0,0,1,21.25,31.85Z"/><path class="cls-17" d="M37.1,45.71c-3,1.16-9.79,9.75-10.4,9.79s-3.69-9.33-2.24-11a5.11,5.11,0,0,0-1.1-.17,3.67,3.67,0,0,0-1.51.51,6.1,6.1,0,0,0-1.35,1.62C21,49,22.76,56.62,26.51,57c4.23.42,12-8.58,15.46-8.89A30.7,30.7,0,0,0,37.1,45.71Z"/><path class="cls-2" d="M20,45.22S21.6,56.1,26.12,56.55s13.12-9.88,16.11-8.81c0,0-2.3-2.48-4.87-2.61S27,55,26.3,55.05s-3.69-9.32-2.23-11C24.07,44.09,21.23,43.24,20,45.22Z"/><path class="cls-17" d="M28.62,57.32a2.5,2.5,0,1,1-2.5-2.5A2.5,2.5,0,0,1,28.62,57.32Z"/><g class="cls-5"><g class="cls-21"><path class="cls-2" d="M29.88,52.7a33.05,33.05,0,0,1,2.68-2.42S31.43,51.43,30,52.84l-2.55,2.53A32.93,32.93,0,0,1,29.88,52.7Z"/></g><g class="cls-21"><path class="cls-2" d="M32.22,52.17A15.37,15.37,0,0,1,34,51a8,8,0,0,1,.82-.42l.4-.14c.18-.06.37-.11.54-.15l-.29.35-.21.22-.35.35a6.8,6.8,0,0,1-.62.5,5.56,5.56,0,0,1-.55.38,5.87,5.87,0,0,0,.53-.41c.16-.14.36-.31.58-.53l.34-.36.16-.19.07-.09-.16.06-.38.15a7.85,7.85,0,0,0-.79.43c-.55.33-1.13.75-1.73,1.19C29.52,54.4,27.18,56,27.18,56S29.4,54.24,32.22,52.17Z"/></g><g class="cls-21"><path class="cls-2" d="M38,45.87c-.37.11-.7.25-1,.35l-.39.17s.13-.11.35-.26a3.5,3.5,0,0,1,.93-.45A2.28,2.28,0,0,1,39,45.62a1.6,1.6,0,0,1,.41.14A3.08,3.08,0,0,0,38,45.87Z"/></g><g class="cls-21"><path class="cls-2" d="M39.78,46.32a2.76,2.76,0,0,0-.55.1.74.74,0,0,1,.54-.3.7.7,0,0,1,.57.22A2.22,2.22,0,0,0,39.78,46.32Z"/></g><g class="cls-21"><path class="cls-2" d="M23.74,53.89a4.71,4.71,0,0,1-.64-1.07s.37.42.8.94.74,1,.74,1A4.37,4.37,0,0,1,23.74,53.89Z"/></g><g class="cls-21"><path class="cls-2" d="M23.64,52.08a12.67,12.67,0,0,1-.94-3,25,25,0,0,0,1.12,3,25.9,25.9,0,0,0,1.45,2.81A12.7,12.7,0,0,1,23.64,52.08Z"/></g><g class="cls-21"><path class="cls-2" d="M21,45.61c0,.39.06.75.09,1l0,.43s-.06-.15-.14-.41a3.64,3.64,0,0,1-.19-1,2.33,2.33,0,0,1,.17-1,1.45,1.45,0,0,1,.22-.37A3.35,3.35,0,0,0,21,45.61Z"/></g><g class="cls-21"><path class="cls-2" d="M22.1,45.61c.09.74.16,1.34.16,1.34a4.46,4.46,0,0,1-.36-1.31,4.66,4.66,0,0,1,0-1.37S22,44.88,22.1,45.61Z"/></g></g><path class="cls-4" d="M36.15,45.53l1,.18c.76.11.92,1.36.92,1.36s1.18-.2,2.07-.29c.35,0,.76.36.86,1a2,2,0,0,1,1.28-.06s-2.3-2.48-4.87-2.61A2.34,2.34,0,0,0,36.15,45.53Z"/><path class="cls-4" d="M22.28,44.71c.58-.87,1.44.15,1.47.19a1.64,1.64,0,0,1,.32-.81s-2.84-.85-4.11,1.13c0,0,0,.23.11.63A3.15,3.15,0,0,1,22.28,44.71Z"/><path class="cls-4" d="M26.12,56.55c2.48.25,6.18-2.74,9.51-5.32a.77.77,0,0,0-.19-.6c-.92-.87-4.21,2.94-5,2.64-.42-.16.34-1.13,1.13-2-.84.81-1.84,1.7-2.21,1.7s-.08-.58.24-1.32a25.69,25.69,0,0,1-3.3,3.39c-.34,0-1.33-2.51-2-5.18a3.56,3.56,0,0,1-.07,1.63c-.39.39-1.87-2.76-2-3s.78,2.75,0,3.15c-.26.13-.58-.22-.88-.73C22.38,53.59,23.9,56.33,26.12,56.55Z"/><path class="cls-4" d="M32.91,49.93s-.68.63-1.34,1.35C32.29,50.58,32.91,49.93,32.91,49.93Z"/><path class="cls-25" d="M28.23,56.92a2.51,2.51,0,1,1-2.5-2.5A2.5,2.5,0,0,1,28.23,56.92Z"/><path class="cls-26" d="M27,54.75a2.48,2.48,0,0,1-3.71,2s0,.09,0,.13A2.51,2.51,0,1,0,27,54.75Z"/><path class="cls-27" d="M27.74,55.45a2.68,2.68,0,0,1,.13.75,2.5,2.5,0,0,1-4.52,1.47,2.5,2.5,0,1,0,4.39-2.22Z"/></g></g></g></svg>