<svg xmlns="http://www.w3.org/2000/svg" xmlns:xlink="http://www.w3.org/1999/xlink" viewBox="0 0 136.57 425.04"><defs><style>.cls-1{fill:#fff;}.cls-2{fill:#ca927b;}.cls-10,.cls-11,.cls-15,.cls-3,.cls-6,.cls-7,.cls-9{fill:none;}.cls-3{stroke:#f0e3e7;}.cls-10,.cls-15,.cls-3,.cls-6,.cls-7,.cls-9{stroke-linecap:round;stroke-linejoin:round;}.cls-3,.cls-9{stroke-width:0.82px;}.cls-4{fill:#3f2dc8;}.cls-5{clip-path:url(#clip-path);}.cls-6{stroke:#fff;stroke-width:0.79px;}.cls-15,.cls-7{stroke:#000;}.cls-7{stroke-width:0.5px;}.cls-8{clip-path:url(#clip-path-2);}.cls-9{stroke:#291fac;}.cls-10{stroke:#995342;stroke-width:0.48px;}.cls-11{stroke:#ecb82d;stroke-miterlimit:10;stroke-width:0.75px;}.cls-12{fill:#995342;}.cls-13{fill:#de5a62;}.cls-14{clip-path:url(#clip-path-3);}.cls-15{stroke-width:0.38px;}.cls-16{clip-path:url(#clip-path-4);}</style><clipPath id="clip-path"><path id="_Обтравочный_контур_" data-name="&lt;Обтравочный контур&gt;" d="M52.27,403.52a14.41,14.41,0,0,1-13-.09s-2-6.16-7.59-2.58c0,0-6.45,7.21-16,9.15-13.28,2.7-13.88,8.88-13.88,8.88H56.31a123.45,123.45,0,0,0-1.09-13.7A2.15,2.15,0,0,0,52.27,403.52Z"/></clipPath><clipPath id="clip-path-2"><path id="_Обтравочный_контур_2" data-name="&lt;Обтравочный контур&gt;" d="M84.3,403.52a14.43,14.43,0,0,0,13-.09s2-6.16,7.58-2.58c0,0,6.45,7.21,16,9.15,13.29,2.7,13.88,8.88,13.88,8.88H80.27a125.07,125.07,0,0,1,1.08-13.7A2.15,2.15,0,0,1,84.3,403.52Z"/></clipPath><clipPath id="clip-path-3"><path id="_Обтравочный_контур_3" data-name="&lt;Обтравочный контур&gt;" class="cls-1" d="M64.08,35.38S62.81,32.16,59.72,32a6.25,6.25,0,0,0-4.94,2.3s.79,2.73,4.54,2.91S64.08,35.38,64.08,35.38Z"/></clipPath><clipPath id="clip-path-4"><path id="_Обтравочный_контур_4" data-name="&lt;Обтравочный контур&gt;" class="cls-1" d="M72.07,35.38s1.27-3.22,4.36-3.36a6.25,6.25,0,0,1,4.94,2.3s-.79,2.73-4.54,2.91S72.07,35.38,72.07,35.38Z"/></clipPath></defs><title>Ресурс 10</title><g id="Слой_2" data-name="Слой 2"><g id="OBJECTS"><path class="cls-2" d="M101.64,153.34l16.6,59.24,6.76-.69s-4.71-38-8.71-61.43c-.63-3.71-5.58-6.56-9.23-5.63h0C103.63,145.7,100.77,149.92,101.64,153.34Z"/><path class="cls-2" d="M117.7,208.84a18.15,18.15,0,0,0-.92,14.26l-1.5,7.84a2.6,2.6,0,0,0,1.51,2.9h0a2.2,2.2,0,0,0,2.93-1.37l1.63-4.47.27,1.68a12.65,12.65,0,0,1-1.2,7.68L117,244a2.54,2.54,0,0,0,.07,2.42h0a2.13,2.13,0,0,0,3.65.22l5.49-8a14.24,14.24,0,0,0,2.08-10.91L124,207.09Z"/><path class="cls-2" d="M116.39,151.14l-8.31-43.68-16.92,5,10.74,41.87a7.43,7.43,0,0,0,9,5.37h0A7.43,7.43,0,0,0,116.39,151.14Z"/><path class="cls-1" d="M88.32,130.31l28.19-5.79L110,93a14.39,14.39,0,0,0-17-11.2h0a14.39,14.39,0,0,0-11.2,17Z"/><path class="cls-2" d="M35.72,153.51l-16.6,59.23-6.75-.69s4.7-38,8.7-61.42c.64-3.72,5.58-6.57,9.24-5.64h0C33.73,145.87,36.59,150.08,35.72,153.51Z"/><path class="cls-2" d="M19.66,209a18.1,18.1,0,0,1,.93,14.25l1.49,7.84a2.63,2.63,0,0,1-1.5,2.91h0a2.23,2.23,0,0,1-2.94-1.38L16,228.17l-.26,1.67a12.5,12.5,0,0,0,1.2,7.68l3.4,6.6a2.56,2.56,0,0,1-.08,2.42h0a2.13,2.13,0,0,1-3.65.22l-5.48-8a14.16,14.16,0,0,1-2.08-10.91l4.32-20.58Z"/><path class="cls-2" d="M21,151.3l8.3-43.68,16.92,5L35.47,154.53a7.43,7.43,0,0,1-9,5.37h0A7.42,7.42,0,0,1,21,151.3Z"/><path class="cls-1" d="M49.05,130.47l-28.19-5.79L27.32,93.2A14.39,14.39,0,0,1,44.31,82h0a14.37,14.37,0,0,1,11.2,17Z"/><path class="cls-1" d="M67.11,70.22,35.3,83.09a4.56,4.56,0,0,0-2.66,5.51l17,56.91H87.19l16.09-57.64a4.55,4.55,0,0,0-2.87-5.51Z"/><path class="cls-2" d="M45.11,79.12l22-8.9,23.57,8.59S89.29,89.49,67.82,89.49,45.11,79.12,45.11,79.12Z"/><line class="cls-3" x1="44.89" y1="129.62" x2="37.47" y2="104.79"/><line class="cls-3" x1="92.01" y1="129.62" x2="99.42" y2="104.79"/><rect x="49.36" y="145.51" width="37.62" height="5.75"/><path class="cls-4" d="M52.36,168.14c-9.13-1.39-16.65,4.51-18.74,13.51a168.07,168.07,0,0,0-4,33.36c-.88,32.69.73,61,2.32,75.68a14.67,14.67,0,0,0,14.6,13.07h0a14.69,14.69,0,0,0,14.63-13.43L67.6,187.1a17.62,17.62,0,0,0-14.92-18.91Z"/><polygon class="cls-2" points="51.34 409.52 53.14 367.46 35.77 367.46 37.8 411.22 51.34 409.52"/><path id="_Обтравочный_контур_5" data-name="&lt;Обтравочный контур&gt;" d="M52.27,403.52a14.41,14.41,0,0,1-13-.09s-2-6.16-7.59-2.58c0,0-6.45,7.21-16,9.15-13.28,2.7-13.88,8.88-13.88,8.88H56.31a123.45,123.45,0,0,0-1.09-13.7A2.15,2.15,0,0,0,52.27,403.52Z"/><g class="cls-5"><path class="cls-1" d="M13.8,408.17s6,2.78,8.83,13.79L0,421S-.62,411,13.8,408.17Z"/></g><rect class="cls-1" x="1.78" y="418.88" width="54.53" height="6.15" transform="translate(58.09 843.92) rotate(180)"/><path class="cls-6" d="M21,408.33s2.13,0,3.8,2.89"/><path class="cls-6" d="M23.66,406.88s2.13,0,3.8,2.89"/><path class="cls-6" d="M26.42,405.16s2.14,0,3.81,2.89"/><line class="cls-7" x1="22.75" y1="418.66" x2="1.78" y2="418.66"/><path class="cls-4" d="M60.92,289.34,56.51,390.6H32.19l-.46-101.69a14.6,14.6,0,0,1,14.59-14.36h0A14.6,14.6,0,0,1,60.92,289.34Z"/><path class="cls-4" d="M83.88,168.14c9.13-1.39,16.65,4.51,18.74,13.51a168.07,168.07,0,0,1,4,33.36c.88,32.69-.73,61-2.33,75.68a14.66,14.66,0,0,1-14.59,13.07h0a14.69,14.69,0,0,1-14.63-13.43L68.64,187.1a17.62,17.62,0,0,1,14.92-18.91Z"/><polygon class="cls-2" points="85.23 409.52 83.44 367.46 100.8 367.46 98.78 411.22 85.23 409.52"/><path id="_Обтравочный_контур_6" data-name="&lt;Обтравочный контур&gt;" d="M84.3,403.52a14.43,14.43,0,0,0,13-.09s2-6.16,7.58-2.58c0,0,6.45,7.21,16,9.15,13.29,2.7,13.88,8.88,13.88,8.88H80.27a125.07,125.07,0,0,1,1.08-13.7A2.15,2.15,0,0,1,84.3,403.52Z"/><g class="cls-8"><path class="cls-1" d="M122.78,408.17s-6,2.78-8.84,13.79l22.63-.93S137.19,411,122.78,408.17Z"/></g><rect class="cls-1" x="80.27" y="418.88" width="54.53" height="6.15"/><path class="cls-6" d="M115.63,408.33s-2.14,0-3.81,2.89"/><path class="cls-6" d="M112.92,406.88s-2.14,0-3.81,2.89"/><path class="cls-6" d="M110.15,405.16s-2.13,0-3.8,2.89"/><line class="cls-7" x1="113.83" y1="418.66" x2="134.79" y2="418.66"/><path class="cls-4" d="M75.32,289.34l4.4,101.26h24.33l.46-101.69a14.6,14.6,0,0,0-14.6-14.36h0A14.59,14.59,0,0,0,75.32,289.34Z"/><path class="cls-4" d="M87,151.26H49.36s-9.73,6.76-15.1,28.26l28.53,16.34a10.37,10.37,0,0,0,10.72,0L102,179.55C96.21,158.69,87,151.26,87,151.26Z"/><line class="cls-9" x1="76.17" y1="197.35" x2="58.99" y2="197.35"/><path class="cls-9" d="M51.22,158.36s-.74,12.74-11.75,15.94"/><path class="cls-9" d="M84.83,158.36s.75,12.74,11.76,15.94"/><path d="M75.14,7.64A13.55,13.55,0,0,1,89.3,10.36c6.47,6.09,1.91,10.15,7.62,13.16s1.54,11.35,8.19,15.15,2.27,13.15-4.58,14.48c0,0-3.29,8.68-10.51,7.84,0,0-6.68,7.43-19.68,2.71l-4.79-2Z"/><path d="M49.8,10.2S41.14,11.32,39.46,19s-1.06,5.87-5.82,9.79S34.9,37.13,31.13,41c-1.93,2-2.84,3.63-3,5.52a6.92,6.92,0,0,0,5.18,7.18c2.19.63,4,2.7,5.27,5.51,2.59,5.59,11.82,3.17,11.82,3.17s8.73,5.08,14.07,1.31S61.74,8,61.74,8Z"/><path d="M76.9,8.06S73.6,0,61.73,0,46.18,12.37,46.18,12.37l17.27,10Z"/><path class="cls-2" d="M52.3,36.72c1.18,2.63,1.08,6.89-1.42,7.83s-5.49-2.46-6.67-5.09-.46-4.93,2-5.87S51.12,34.08,52.3,36.72Z"/><path class="cls-10" d="M46.18,36.76s3.06-.82,4.2,3.34"/><path class="cls-11" d="M55.42,50.44a5.62,5.62,0,1,1-5-8.1"/><path class="cls-2" d="M84.07,36.72c-1.18,2.63-1.07,6.89,1.43,7.83s5.48-2.46,6.66-5.09.46-4.93-2-5.87S85.25,34.08,84.07,36.72Z"/><path class="cls-10" d="M90.2,36.76S87.14,35.94,86,40.1"/><path class="cls-11" d="M81.18,50.44a5.62,5.62,0,1,0,5-8.1"/><ellipse cx="68.15" cy="26.56" rx="21.09" ry="20.24"/><polygon class="cls-2" points="62.08 51.2 59.43 76.45 75.14 76.45 72.43 50.94 62.08 51.2"/><polygon class="cls-12" points="61.73 55.66 73.93 65.12 72.6 52.41 61.73 55.66"/><path id="_Обтравочный_контур_7" data-name="&lt;Обтравочный контур&gt;" class="cls-2" d="M68.15,8.68h0c-9.75,0-18.35,7.54-18.35,16.85l.56,11.16s.2,15.82,15.22,20.64a8.51,8.51,0,0,0,5.14,0C85.75,52.51,86,36.69,86,36.69l.56-11.16C86.51,16.22,77.9,8.68,68.15,8.68Z"/><path class="cls-13" d="M64.45,45.63S64.63,48,67.8,48s3.36-2.33,3.36-2.33Z"/><polyline class="cls-10" points="67.1 39.17 67.1 41.76 69.01 41.78"/><path id="_Обтравочный_контур_8" data-name="&lt;Обтравочный контур&gt;" class="cls-1" d="M64.08,35.38S62.81,32.16,59.72,32a6.25,6.25,0,0,0-4.94,2.3s.79,2.73,4.54,2.91S64.08,35.38,64.08,35.38Z"/><g class="cls-14"><path d="M56.33,34.5a3.08,3.08,0,1,0,3.23-2.93A3.08,3.08,0,0,0,56.33,34.5Z"/></g><path class="cls-15" d="M64.08,35.38S62.92,32.05,59.72,32a6.39,6.39,0,0,0-4.94,2.3"/><path id="_Обтравочный_контур_9" data-name="&lt;Обтравочный контур&gt;" class="cls-1" d="M72.07,35.38s1.27-3.22,4.36-3.36a6.25,6.25,0,0,1,4.94,2.3s-.79,2.73-4.54,2.91S72.07,35.38,72.07,35.38Z"/><g class="cls-16"><path d="M79.82,34.5a3.08,3.08,0,1,1-3.23-2.93A3.08,3.08,0,0,1,79.82,34.5Z"/></g><path class="cls-15" d="M72.07,35.38s1.16-3.33,4.36-3.36a6.39,6.39,0,0,1,4.94,2.3"/><path d="M58.37,24.44a15.1,15.1,0,0,0-4.64,1.34,1.06,1.06,0,0,0,.22,2,14.39,14.39,0,0,0,4.58,0c3.23-.37,5.38-1.57,5.17-2.57C63.43,23.92,60.07,24.13,58.37,24.44Z"/><path d="M77.3,24.44a15,15,0,0,1,4.63,1.34,1.06,1.06,0,0,1-.22,2,14.32,14.32,0,0,1-4.57,0c-3.24-.37-5.38-1.57-5.18-2.57C72.23,23.92,75.6,24.13,77.3,24.44Z"/><path class="cls-13" d="M71.16,45.63a7.84,7.84,0,0,0-6.71,0S68.13,47.2,71.16,45.63Z"/><path class="cls-10" d="M63.68,45.34a9.12,9.12,0,0,0,8.14,0"/><path d="M76.9,8.06s-.8,8.83-10,10.23c-9.38,1.42-7.35,7.35-18.74,5.93,0,0-4.12-6.45,2-13.1C54.2,6.71,62.09,3,67.74,3.65,69.65,3.86,74.16,7.47,76.9,8.06Z"/><path d="M75.81,9.16S71.74,15,89.24,26.56c0,0,2.85-4.06,1-7.77S75.81,9.16,75.81,9.16Z"/></g></g></svg>