<svg xmlns="http://www.w3.org/2000/svg" xmlns:xlink="http://www.w3.org/1999/xlink" viewBox="0 0 126.03 425.04"><defs><style>.cls-1{fill:#fff;}.cls-2{fill:#3f2dc8;}.cls-3{fill:#ca927b;}.cls-4{clip-path:url(#clip-path);}.cls-10,.cls-11,.cls-12,.cls-14,.cls-15,.cls-18,.cls-20,.cls-5,.cls-6,.cls-7,.cls-8{fill:none;}.cls-10,.cls-5,.cls-6,.cls-7{stroke:#fff;}.cls-10,.cls-11,.cls-12,.cls-15,.cls-18,.cls-20,.cls-5,.cls-6,.cls-7,.cls-8{stroke-linecap:round;stroke-linejoin:round;}.cls-5{stroke-width:0.73px;}.cls-6{stroke-width:0.72px;}.cls-7{stroke-width:0.7px;}.cls-18,.cls-20,.cls-8{stroke:#000;}.cls-8{stroke-width:0.5px;}.cls-9{clip-path:url(#clip-path-2);}.cls-10{stroke-width:0.79px;}.cls-11{stroke:#291fac;}.cls-11,.cls-12{stroke-width:0.82px;}.cls-12{stroke:#f0e3e7;}.cls-13{fill:#995342;}.cls-14{stroke:#ecb82d;stroke-miterlimit:10;stroke-width:0.75px;}.cls-15{stroke:#995342;stroke-width:0.48px;}.cls-16{fill:#de5a62;}.cls-17{clip-path:url(#clip-path-3);}.cls-18{stroke-width:0.38px;}.cls-19{clip-path:url(#clip-path-4);}.cls-20{stroke-width:0.37px;}</style><clipPath id="clip-path"><path id="_Обтравочный_контур_" data-name="&lt;Обтравочный контур&gt;" d="M37.89,418.54l-1-15.44s-4-7-13.87-.89c0,0-2.91,7-5.46,9.63a48.07,48.07,0,0,0-5.56,6.7Z"/></clipPath><clipPath id="clip-path-2"><path id="_Обтравочный_контур_2" data-name="&lt;Обтравочный контур&gt;" d="M73.75,403.52a14.43,14.43,0,0,0,13-.09s2-6.16,7.58-2.58c0,0,6.45,7.21,16,9.15,13.29,2.7,13.89,8.88,13.89,8.88H69.72a123.45,123.45,0,0,1,1.09-13.7A2.14,2.14,0,0,1,73.75,403.52Z"/></clipPath><clipPath id="clip-path-3"><path id="_Обтравочный_контур_3" data-name="&lt;Обтравочный контур&gt;" class="cls-1" d="M59.35,35.38S58.09,32.16,55,32a6.23,6.23,0,0,0-4.94,2.3s.78,2.73,4.53,2.91S59.35,35.38,59.35,35.38Z"/></clipPath><clipPath id="clip-path-4"><path id="_Обтравочный_контур_4" data-name="&lt;Обтравочный контур&gt;" class="cls-1" d="M67.52,35.38s1.2-3.22,4.12-3.36a5.82,5.82,0,0,1,4.66,2.3A4.41,4.41,0,0,1,72,37.23C68.48,37.41,67.52,35.38,67.52,35.38Z"/></clipPath></defs><title>Ресурс 11</title><g id="Слой_2" data-name="Слой 2"><g id="OBJECTS"><path class="cls-2" d="M44.05,168.28c-9.1-1.63-16.77,4.08-19.1,13a167.65,167.65,0,0,0-4.9,33.23c-1.74,32.67-.88,61,.34,75.72A14.65,14.65,0,0,0,34.63,303.7h0a14.68,14.68,0,0,0,15-13.05l9.17-103a17.63,17.63,0,0,0-14.42-19.3Z"/><polygon class="cls-3" points="23.57 405.39 23.44 363.3 39.88 363.91 36.33 407.57 23.57 405.39"/><path class="cls-1" d="M12,418.54a9.85,9.85,0,0,0-1.47,6.11H37.89v-6.11Z"/><path id="_Обтравочный_контур_5" data-name="&lt;Обтравочный контур&gt;" d="M37.89,418.54l-1-15.44s-4-7-13.87-.89c0,0-2.91,7-5.46,9.63a48.07,48.07,0,0,0-5.56,6.7Z"/><g class="cls-4"><path class="cls-1" d="M38.86,420.21s-.43-6.85-12.59-6.85S10.7,420,10.7,420l30.17.22"/></g><path class="cls-5" d="M23.76,410.56a8.74,8.74,0,0,1,8.42.28"/><path class="cls-6" d="M24.5,408a8.12,8.12,0,0,1,8.1.27"/><path class="cls-7" d="M25.39,405.38a7.26,7.26,0,0,1,7.61.25"/><line class="cls-8" x1="37.89" y1="418.54" x2="12" y2="418.54"/><path class="cls-2" d="M49.43,289.66,42.37,390.77l-24.31.37,2.2-102.67a14.6,14.6,0,0,1,15-14h0A14.59,14.59,0,0,1,49.43,289.66Z"/><path class="cls-2" d="M75,168.14c9.14-1.39,14.65,4.51,16.74,13.51a168.07,168.07,0,0,1,4,33.36c.88,32.69-.73,61-2.33,75.68a14.66,14.66,0,0,1-14.59,13.07h0a14.69,14.69,0,0,1-14.63-13.43L59.72,187.1a17.62,17.62,0,0,1,14.92-18.91Z"/><polygon class="cls-3" points="74.68 409.52 72.89 367.46 90.25 367.46 88.23 411.22 74.68 409.52"/><path id="_Обтравочный_контур_6" data-name="&lt;Обтравочный контур&gt;" d="M73.75,403.52a14.43,14.43,0,0,0,13-.09s2-6.16,7.58-2.58c0,0,6.45,7.21,16,9.15,13.29,2.7,13.89,8.88,13.89,8.88H69.72a123.45,123.45,0,0,1,1.09-13.7A2.14,2.14,0,0,1,73.75,403.52Z"/><g class="cls-9"><path class="cls-1" d="M112.23,408.17s-6,2.78-8.84,13.79L126,421S126.64,411,112.23,408.17Z"/></g><rect class="cls-1" x="69.72" y="418.88" width="54.53" height="6.15"/><path class="cls-10" d="M105.08,408.33s-2.14,0-3.81,2.89"/><path class="cls-10" d="M102.37,406.88s-2.14,0-3.81,2.89"/><path class="cls-10" d="M99.6,405.16s-2.13,0-3.8,2.89"/><line class="cls-8" x1="103.28" y1="418.66" x2="124.25" y2="418.66"/><path class="cls-2" d="M64.39,289.34,68.8,390.6H93.12l.46-101.69A14.6,14.6,0,0,0,79,274.55h0A14.6,14.6,0,0,0,64.39,289.34Z"/><path class="cls-2" d="M78.06,151.26H40.44s-9.61,6.91-15,28.4l28.41,16.2a10.39,10.39,0,0,0,10.73,0l26.47-16.31C85.28,158.69,78.06,151.26,78.06,151.26Z"/><line class="cls-11" x1="70.52" y1="197.35" x2="57.44" y2="197.35"/><path class="cls-11" d="M45.57,158.36s-.74,12.74-11.75,15.94"/><path class="cls-11" d="M77.55,158.63s1.51,10.3,10.3,15.94"/><path class="cls-3" d="M87.09,151.65l16.6,59.23,6.75-.69s-4.7-38-8.7-61.42c-.64-3.72-5.58-6.56-9.24-5.63h0C89.08,144,86.22,148.23,87.09,151.65Z"/><path class="cls-3" d="M103.15,207.15a18.12,18.12,0,0,0-.93,14.26l-1.49,7.84a2.61,2.61,0,0,0,1.5,2.9h0a2.22,2.22,0,0,0,2.94-1.37l1.63-4.47.26,1.67a12.49,12.49,0,0,1-1.2,7.68l-3.4,6.6a2.58,2.58,0,0,0,.08,2.43h0a2.12,2.12,0,0,0,3.65.21l5.48-8A14.17,14.17,0,0,0,113.75,226l-4.32-20.58Z"/><path class="cls-3" d="M101.83,149.44l-8.3-43.67-16.92,5,10.73,41.87a7.44,7.44,0,0,0,9,5.36h0A7.42,7.42,0,0,0,101.83,149.44Z"/><path class="cls-1" d="M73.76,128.62,102,122.83,95.49,91.35a14.39,14.39,0,0,0-17-11.2h0a14.39,14.39,0,0,0-11.2,17Z"/><path class="cls-1" d="M58.19,70.22,26.38,83.09a4.56,4.56,0,0,0-2.66,5.51l17,56.91H78.27s8.3-44.42,11.78-59.07a4.64,4.64,0,0,0-2.87-5.51Z"/><path class="cls-3" d="M36.19,79.12l22-8.9,19.27,7S83,88.08,65.93,89.49C44.53,91.25,36.19,79.12,36.19,79.12Z"/><rect x="40.44" y="145.51" width="37.62" height="5.75"/><line class="cls-12" x1="81.8" y1="126.91" x2="86.14" y2="104.79"/><path class="cls-3" d="M27,153.76,10.38,213l-6.75-.7s4.7-38,8.7-61.42c.63-3.72,5.58-6.56,9.23-5.63h0C25,146.12,27.85,150.34,27,153.76Z"/><path class="cls-3" d="M10.92,209.26a18.17,18.17,0,0,1,.93,14.26l1.49,7.84a2.61,2.61,0,0,1-1.5,2.9h0a2.22,2.22,0,0,1-2.94-1.37l-1.63-4.47L7,230.09a12.49,12.49,0,0,0,1.2,7.68l3.39,6.61a2.54,2.54,0,0,1-.07,2.42h0a2.12,2.12,0,0,1-3.65.21l-5.49-8A14.25,14.25,0,0,1,.31,228.09l4.32-20.58Z"/><path class="cls-3" d="M12.23,151.56l8.31-43.68,16.92,5L26.72,154.79a7.41,7.41,0,0,1-9,5.36h0A7.43,7.43,0,0,1,12.23,151.56Z"/><path class="cls-1" d="M40.3,130.73l-28.18-5.79,6.46-31.48a14.39,14.39,0,0,1,17-11.2h0a14.39,14.39,0,0,1,11.2,17Z"/><polyline class="cls-12" points="44.2 110.22 39.83 130.76 36.03 129.85"/><path d="M64.35,7.64a13.55,13.55,0,0,1,14.16,2.72c6.47,6.09,1.91,10.15,7.61,13.16s1.54,11.35,8.2,15.15,2.27,13.15-4.58,14.48c0,0-3.29,8.68-10.51,7.84,0,0-6.68,7.43-19.69,2.71l-4.79-2Z"/><path d="M38,10.2S29.34,11.32,27.67,19s-1.07,5.87-5.82,9.79S23.11,37.13,19.33,41c-1.92,2-2.83,3.63-3,5.52a6.91,6.91,0,0,0,5.17,7.18c2.19.63,4,2.7,5.28,5.51,2.58,5.59,11.82,3.17,11.82,3.17s8.72,5.08,14.07,1.31S50,8,50,8Z"/><path d="M71.91,8.06S68.41,0,55.79,0,39.26,12.37,39.26,12.37l18.36,10Z"/><path class="cls-13" d="M73.35,36.72c-1.18,2.63-1.08,6.89,1.43,7.83s5.48-2.46,6.66-5.09.46-4.93-2-5.87S74.53,34.08,73.35,36.72Z"/><path class="cls-14" d="M73.31,51.54a5.62,5.62,0,1,0,4.91-9.18"/><path class="cls-3" d="M44.23,36.72c1.18,2.63,2.18,6.54-1.43,7.83-2.51.9-5.48-2.46-6.66-5.09s-.46-4.93,2-5.87S43.05,34.08,44.23,36.72Z"/><path class="cls-15" d="M38.1,36.76s3.06-.82,4.21,3.34"/><path class="cls-14" d="M48.16,49.86a5.62,5.62,0,1,1-5.87-7.52"/><path d="M81.82,26.56c0,11.17-9.33,20.23-20.84,20.23S38.92,37.28,38.92,26.1,49.47,6.32,61,6.32,81.82,15.38,81.82,26.56Z"/><polygon class="cls-3" points="53.16 51.2 50.51 76.45 66.22 76.45 63.51 50.94 53.16 51.2"/><polygon class="cls-13" points="52.81 54.31 65.01 65.12 63.68 52.41 52.81 54.31"/><path id="_Обтравочный_контур_7" data-name="&lt;Обтравочный контур&gt;" class="cls-3" d="M61.24,8.68h0c-9.75,0-18.36,7.54-18.36,16.85l.56,11.16s.21,15.82,15.23,20.64a8.51,8.51,0,0,0,5.14,0C78.83,52.51,79,36.69,79,36.69l.57-11.16C79.6,16.22,71,8.68,61.24,8.68Z"/><path class="cls-16" d="M59.91,45.63S60.09,48,63.26,48s3.35-2.33,3.35-2.33Z"/><polyline class="cls-15" points="65.04 39.17 65.47 41.76 63.56 41.78"/><path id="_Обтравочный_контур_8" data-name="&lt;Обтравочный контур&gt;" class="cls-1" d="M59.35,35.38S58.09,32.16,55,32a6.23,6.23,0,0,0-4.94,2.3s.78,2.73,4.53,2.91S59.35,35.38,59.35,35.38Z"/><g class="cls-17"><path d="M51.61,34.5a3.08,3.08,0,1,0,3.22-2.93A3.07,3.07,0,0,0,51.61,34.5Z"/></g><path class="cls-18" d="M59.35,35.38S58.19,32.05,55,32a6.36,6.36,0,0,0-4.94,2.3"/><path id="_Обтравочный_контур_9" data-name="&lt;Обтравочный контур&gt;" class="cls-1" d="M67.52,35.38s1.2-3.22,4.12-3.36a5.82,5.82,0,0,1,4.66,2.3A4.41,4.41,0,0,1,72,37.23C68.48,37.41,67.52,35.38,67.52,35.38Z"/><g class="cls-19"><path d="M74.84,34.5a3,3,0,0,1-2.77,3.23,3,3,0,0,1-3-2.93,3,3,0,0,1,2.77-3.23A3,3,0,0,1,74.84,34.5Z"/></g><path class="cls-20" d="M67.52,35.38s1.1-3.33,4.12-3.36a5.94,5.94,0,0,1,4.66,2.3"/><path d="M53.64,24.44A15,15,0,0,0,49,25.78a1.06,1.06,0,0,0,.22,2,14.32,14.32,0,0,0,4.57,0c3.24-.37,5.38-1.57,5.17-2.57C58.7,23.92,55.34,24.13,53.64,24.44Z"/><path d="M72.46,24.44a13.57,13.57,0,0,1,4.37,1.34,1.08,1.08,0,0,1-.21,2,12.81,12.81,0,0,1-4.32,0c-3-.37-5.07-1.57-4.88-2.57C67.68,23.92,70.85,24.13,72.46,24.44Z"/><path class="cls-16" d="M66.61,45.63a7.81,7.81,0,0,0-6.7,0S63.59,47.2,66.61,45.63Z"/><path class="cls-15" d="M59.14,45.34a9.11,9.11,0,0,0,8.14,0"/><path d="M72.43,8.06s-.85,8.83-10.8,10.23c-10.14,1.42-8,7.35-20.26,5.93,0,0-4.46-6.45,2.15-13.1,4.36-4.41,12.9-8.08,19-7.47C64.59,3.86,69.47,7.47,72.43,8.06Z"/><path d="M71.14,8.68S64.82,15,82.33,26.56a12.16,12.16,0,0,0-1.13-7.33C79.3,15.53,71.14,8.68,71.14,8.68Z"/></g></g></svg>