<svg xmlns="http://www.w3.org/2000/svg" xmlns:xlink="http://www.w3.org/1999/xlink" viewBox="0 0 84.75 95.7"><defs><style>.cls-1{fill:#fff;}.cls-2{fill:#ca927b;}.cls-3,.cls-7,.cls-9{fill:none;stroke-linecap:round;stroke-linejoin:round;}.cls-3{stroke:#995342;stroke-width:0.48px;}.cls-4{fill:#995342;}.cls-5{fill:#de5a62;}.cls-6{clip-path:url(#clip-path);}.cls-7,.cls-9{stroke:#000;}.cls-7{stroke-width:0.38px;}.cls-8{clip-path:url(#clip-path-2);}.cls-9{stroke-width:0.36px;}</style><clipPath id="clip-path"><path id="_Обтравочный_контур_" data-name="&lt;Обтравочный контур&gt;" class="cls-1" d="M42.9,35.24s-1.26-3.2-4.34-3.35a6.21,6.21,0,0,0-4.92,2.3s.78,2.72,4.52,2.89S42.9,35.24,42.9,35.24Z"/></clipPath><clipPath id="clip-path-2"><path id="_Обтравочный_контур_2" data-name="&lt;Обтравочный контур&gt;" class="cls-1" d="M51,35.24s1.19-3.2,4.09-3.35a5.79,5.79,0,0,1,4.65,2.3,4.38,4.38,0,0,1-4.26,2.89C52,37.26,51,35.24,51,35.24Z"/></clipPath></defs><title>Ресурс 7</title><g id="Слой_2" data-name="Слой 2"><g id="OBJECTS"><path class="cls-1" d="M84.15,92.79a14.3,14.3,0,0,0-8.62-10.38,4.29,4.29,0,0,0-.86-.42L41.5,69.9,11.27,82.13a14.15,14.15,0,0,0-1.4.57l0,0-.06,0a14.32,14.32,0,0,0-7.89,10L1.28,95.7H84.75Z"/><path class="cls-2" d="M19.82,78.67l22.09-9,19,7.26s5.52,10.8-11.48,12.19C28.14,90.89,19.82,78.67,19.82,78.67Z"/><path d="M47.87,7.61A13.5,13.5,0,0,1,62,10.32c6.45,6.07,1.9,10.11,7.58,13.11s1.54,11.31,8.17,15.09S80,51.62,73.17,53c0,0-3.28,8.64-10.47,7.8,0,0-6.65,7.4-19.61,2.7l-4.77-2Z"/><path d="M21.63,10.16S13,11.27,11.34,18.93s-1.07,5.85-5.8,9.74S6.79,37,3,40.88c-1.92,2-2.83,3.62-3,5.49a6.89,6.89,0,0,0,5.16,7.16c2.18.62,4,2.68,5.25,5.49,2.57,5.57,11.77,3.15,11.77,3.15s8.7,5.07,14,1.31-2.7-55.55-2.7-55.55Z"/><path d="M55.41,8S51.92,0,39.35,0,22.89,12.32,22.89,12.32l18.29,10Z"/><path class="cls-2" d="M27.83,36.57C29,39.2,30,43.09,26.41,44.37c-2.5.9-5.46-2.44-6.64-5.07s-.45-4.91,2-5.84S26.66,34,27.83,36.57Z"/><path class="cls-3" d="M21.73,36.61s3.05-.81,4.19,3.33"/><path class="cls-4" d="M56.84,36.57c-1.17,2.63-1.07,6.87,1.42,7.8s5.47-2.44,6.64-5.07.46-4.91-2-5.84S58,34,56.84,36.57Z"/><path d="M65.28,26.45c0,11.13-9.3,20.16-20.76,20.16s-22-9.48-22-20.61,10.51-19.71,22-19.71S65.28,15.32,65.28,26.45Z"/><polygon class="cls-2" points="36.73 51 34.09 76.15 49.74 76.15 47.04 50.74 36.73 51"/><polygon class="cls-4" points="36.38 54.1 48.54 64.86 47.21 52.21 36.38 54.1"/><path id="_Обтравочный_контур_3" data-name="&lt;Обтравочный контур&gt;" class="cls-2" d="M44.78,8.65h0c-9.71,0-18.29,7.51-18.29,16.78l.56,11.11s.2,15.77,15.17,20.56a8.44,8.44,0,0,0,5.12,0c15-4.79,15.16-20.56,15.16-20.56l.56-11.11C63.06,16.16,54.49,8.65,44.78,8.65Z"/><path class="cls-5" d="M43.45,45.45s.18,2.32,3.34,2.32,3.34-2.32,3.34-2.32Z"/><polyline class="cls-3" points="48.56 39.02 48.99 41.6 47.09 41.62"/><path id="_Обтравочный_контур_4" data-name="&lt;Обтравочный контур&gt;" class="cls-1" d="M42.9,35.24s-1.26-3.2-4.34-3.35a6.21,6.21,0,0,0-4.92,2.3s.78,2.72,4.52,2.89S42.9,35.24,42.9,35.24Z"/><g class="cls-6"><path d="M35.18,34.37a3.07,3.07,0,1,0,3.22-2.92A3.07,3.07,0,0,0,35.18,34.37Z"/></g><path class="cls-7" d="M42.9,35.24s-1.16-3.32-4.34-3.35a6.38,6.38,0,0,0-4.92,2.3"/><path id="_Обтравочный_контур_5" data-name="&lt;Обтравочный контур&gt;" class="cls-1" d="M51,35.24s1.19-3.2,4.09-3.35a5.79,5.79,0,0,1,4.65,2.3,4.38,4.38,0,0,1-4.26,2.89C52,37.26,51,35.24,51,35.24Z"/><g class="cls-8"><path d="M58.32,34.37a3,3,0,0,1-2.76,3.21,3,3,0,0,1-3-2.92,3,3,0,0,1,2.76-3.21A3,3,0,0,1,58.32,34.37Z"/></g><path class="cls-9" d="M51,35.24s1.09-3.32,4.09-3.35a5.94,5.94,0,0,1,4.65,2.3"/><path d="M37.21,24.34a15,15,0,0,0-4.62,1.34,1.06,1.06,0,0,0,.22,2,14.26,14.26,0,0,0,4.56,0c3.22-.37,5.36-1.56,5.15-2.56C42.25,23.83,38.9,24,37.21,24.34Z"/><path d="M56,24.34a13.54,13.54,0,0,1,4.36,1.34,1.07,1.07,0,0,1-.21,2,12.69,12.69,0,0,1-4.3,0c-3-.37-5.06-1.56-4.86-2.56C51.19,23.83,54.35,24,56,24.34Z"/><path class="cls-5" d="M50.13,45.45a7.77,7.77,0,0,0-6.68,0S47.12,47,50.13,45.45Z"/><path class="cls-3" d="M42.69,45.16a9.07,9.07,0,0,0,8.1,0"/><path d="M55.93,8s-.86,8.79-10.76,10.18C35.06,19.64,37.25,25.54,25,24.12c0,0-4.43-6.42,2.14-13,4.36-4.39,12.86-8,19-7.43C48.12,3.84,53,7.44,55.93,8Z"/><path d="M54.64,8.65S48.35,15,65.78,26.45a12.07,12.07,0,0,0-1.12-7.29C62.77,15.47,54.64,8.65,54.64,8.65Z"/></g></g></svg>