<svg xmlns="http://www.w3.org/2000/svg" xmlns:xlink="http://www.w3.org/1999/xlink" viewBox="0 0 83.47 95.75"><defs><style>.cls-1{fill:#fff;}.cls-2{fill:#ca927b;}.cls-3,.cls-7{fill:none;stroke-linecap:round;stroke-linejoin:round;}.cls-3{stroke:#995342;stroke-width:0.48px;}.cls-4{fill:#995342;}.cls-5{fill:#de5a62;}.cls-6{clip-path:url(#clip-path);}.cls-7{stroke:#000;stroke-width:0.38px;}.cls-8{clip-path:url(#clip-path-2);}</style><clipPath id="clip-path"><path id="_Обтравочный_контур_" data-name="&lt;Обтравочный контур&gt;" class="cls-1" d="M37.21,35.24S36,32,32.87,31.89A6.21,6.21,0,0,0,28,34.19s.78,2.72,4.51,2.89S37.21,35.24,37.21,35.24Z"/></clipPath><clipPath id="clip-path-2"><path id="_Обтравочный_контур_2" data-name="&lt;Обтравочный контур&gt;" class="cls-1" d="M45.17,35.24s1.26-3.2,4.34-3.35a6.21,6.21,0,0,1,4.92,2.3s-.78,2.72-4.52,2.89S45.17,35.24,45.17,35.24Z"/></clipPath></defs><title>Ресурс 3</title><g id="Слой_2" data-name="Слой 2"><g id="OBJECTS"><path class="cls-1" d="M82.88,92.84a14.35,14.35,0,0,0-8.63-10.39A5.12,5.12,0,0,0,73.4,82L40.23,70,10,82.18c-.47.16-.94.35-1.4.56l0,0s0,0-.06,0a14.3,14.3,0,0,0-7.89,10L0,95.75H83.47Z"/><path class="cls-2" d="M18.31,78.81,40.23,70,63.7,78.5S62.32,89.13,40.94,89.13,18.31,78.81,18.31,78.81Z"/><path d="M48.23,7.61a13.5,13.5,0,0,1,14.11,2.71c6.44,6.07,1.89,10.11,7.58,13.11s1.53,11.31,8.16,15.09S80.34,51.62,73.52,53c0,0-3.28,8.64-10.47,7.8,0,0-6.65,7.4-19.61,2.7l-4.77-2Z"/><path d="M23,10.16s-8.62,1.11-10.29,8.77-1.06,5.85-5.8,9.74S8.15,37,4.39,40.88c-1.92,2-2.83,3.62-3,5.49a6.89,6.89,0,0,0,5.16,7.16c2.18.62,4,2.68,5.25,5.49,2.58,5.57,11.78,3.15,11.78,3.15s8.69,5.07,14,1.31-2.7-55.55-2.7-55.55Z"/><path d="M50,8S46.69,0,34.87,0,19.38,12.32,19.38,12.32l17.2,10Z"/><path class="cls-2" d="M25.48,36.57c1.17,2.63,1.07,6.87-1.42,7.8s-5.46-2.44-6.64-5.07-.46-4.91,2-5.84S24.3,34,25.48,36.57Z"/><path class="cls-3" d="M19.38,36.61s3-.81,4.19,3.33"/><path class="cls-2" d="M57.13,36.57c-1.18,2.63-1.08,6.87,1.41,7.8S64,41.93,65.18,39.3s.46-4.91-2-5.84S58.3,34,57.13,36.57Z"/><path class="cls-3" d="M63.23,36.61s-3-.81-4.19,3.33"/><ellipse cx="41.27" cy="26.45" rx="21.01" ry="20.16"/><polygon class="cls-2" points="35.22 51 32.58 76.15 48.23 76.15 45.52 50.74 35.22 51"/><polygon class="cls-4" points="34.87 55.44 47.02 64.86 45.7 52.21 34.87 55.44"/><path id="_Обтравочный_контур_3" data-name="&lt;Обтравочный контур&gt;" class="cls-2" d="M41.27,8.65h0C31.56,8.65,23,16.16,23,25.42l.56,11.12s.2,15.77,15.16,20.56a8.47,8.47,0,0,0,5.13,0C58.79,52.31,59,36.54,59,36.54l.56-11.12C59.55,16.16,51,8.65,41.27,8.65Z"/><path class="cls-5" d="M36.6,44.86s-.24,2.32,2.87,2.88,3.7-1.68,3.7-1.68Z"/><path class="cls-5" d="M43.17,46.06a7.81,7.81,0,0,0-6.57-1.2S39.92,47.06,43.17,46.06Z"/><polyline class="cls-3" points="40.22 39.02 40.22 41.6 42.12 41.62"/><path id="_Обтравочный_контур_4" data-name="&lt;Обтравочный контур&gt;" class="cls-1" d="M37.21,35.24S36,32,32.87,31.89A6.21,6.21,0,0,0,28,34.19s.78,2.72,4.51,2.89S37.21,35.24,37.21,35.24Z"/><g class="cls-6"><path d="M29.49,34.37a3.07,3.07,0,1,0,3.22-2.92A3.07,3.07,0,0,0,29.49,34.37Z"/></g><path class="cls-7" d="M37.21,35.24s-1.16-3.32-4.34-3.35A6.36,6.36,0,0,0,28,34.19"/><path id="_Обтравочный_контур_5" data-name="&lt;Обтравочный контур&gt;" class="cls-1" d="M45.17,35.24s1.26-3.2,4.34-3.35a6.21,6.21,0,0,1,4.92,2.3s-.78,2.72-4.52,2.89S45.17,35.24,45.17,35.24Z"/><g class="cls-8"><path d="M52.89,34.37a3.07,3.07,0,1,1-3.22-2.92A3.07,3.07,0,0,1,52.89,34.37Z"/></g><path class="cls-7" d="M45.17,35.24s1.16-3.32,4.34-3.35a6.38,6.38,0,0,1,4.92,2.3"/><path d="M33,26.57a15,15,0,0,0-4.8-.11c-1.06.28-1.36,1.3-.4,2a14,14,0,0,0,4.36,1.34c3.18.62,5.58.11,5.68-.9C38,27.59,34.73,26.78,33,26.57Z"/><path d="M49,26.41a14.84,14.84,0,0,1,4.8,0,1.05,1.05,0,0,1,.37,2,14.16,14.16,0,0,1-4.38,1.27c-3.19.57-5.58,0-5.66-1C44,27.36,47.28,26.6,49,26.41Z"/><path class="cls-3" d="M36.21,44.7a8.4,8.4,0,0,0,7.07,1.41"/><path d="M50,8s-.79,8.79-10,10.18c-9.34,1.42-7.31,7.33-18.66,5.91,0,0-4.1-6.42,2-13,4-4.39,11.89-8,17.52-7.43C42.76,3.84,47.25,7.44,50,8Z"/><path d="M48.89,9.12s-4,5.86,13.38,17.33c0,0,2.84-4,1-7.73S48.89,9.12,48.89,9.12Z"/></g></g></svg>