<svg xmlns="http://www.w3.org/2000/svg" xmlns:xlink="http://www.w3.org/1999/xlink" viewBox="0 0 51.74 86.22"><defs><style>.cls-1{fill:#3e3533;}.cls-2{fill:url(#linear-gradient);}.cls-3{fill:#330e00;}.cls-4{fill:url(#linear-gradient-2);}.cls-5{fill:#302624;}.cls-6{fill:#f8e8d8;}.cls-7{fill:url(#linear-gradient-3);}.cls-8{fill:#fbc0a4;}.cls-9{fill:#f69d7d;}.cls-10{fill:#f84511;}.cls-11{fill:url(#radial-gradient);}.cls-12{fill:url(#radial-gradient-2);}.cls-13{fill:url(#linear-gradient-4);}.cls-14{fill:url(#linear-gradient-5);}.cls-15{fill:#cb4453;}.cls-16{fill:#cfd4d8;}</style><linearGradient id="linear-gradient" x1="45.28" y1="66.35" x2="55.37" y2="56.64" gradientUnits="userSpaceOnUse"><stop offset="0" stop-color="#302624" stop-opacity="0.5"/><stop offset="0.24" stop-color="#302624" stop-opacity="0.36"/><stop offset="0.99" stop-color="#302624" stop-opacity="0"/></linearGradient><linearGradient id="linear-gradient-2" x1="26.88" y1="61.71" x2="28.58" y2="81.36" xlink:href="#linear-gradient"/><linearGradient id="linear-gradient-3" x1="28.54" y1="46.76" x2="38.5" y2="73.96" gradientUnits="userSpaceOnUse"><stop offset="0" stop-color="#cfd4d8"/><stop offset="0.33" stop-color="#cfd4d8" stop-opacity="0.63"/><stop offset="0.65" stop-color="#cfd4d8" stop-opacity="0.29"/><stop offset="0.88" stop-color="#cfd4d8" stop-opacity="0.08"/><stop offset="1" stop-color="#cfd4d8" stop-opacity="0"/></linearGradient><radialGradient id="radial-gradient" cx="-1534.49" cy="105.14" r="2.76" gradientTransform="matrix(-1, 0.05, 0.05, 1, -1517.8, -6.81)" gradientUnits="userSpaceOnUse"><stop offset="0" stop-color="#f69d7d" stop-opacity="0.7"/><stop offset="0.14" stop-color="#f69d7d" stop-opacity="0.63"/><stop offset="0.42" stop-color="#f69d7d" stop-opacity="0.44"/><stop offset="0.81" stop-color="#f69d7d" stop-opacity="0.15"/><stop offset="1" stop-color="#f69d7d" stop-opacity="0"/></radialGradient><radialGradient id="radial-gradient-2" cx="-1546.97" cy="105.14" r="2.76" xlink:href="#radial-gradient"/><linearGradient id="linear-gradient-4" x1="-1437.22" y1="25.12" x2="-1435.16" y2="23.97" gradientTransform="matrix(-1, 0, 0, 1, -1424.07, 0)" gradientUnits="userSpaceOnUse"><stop offset="0" stop-color="#f69d7d"/><stop offset="0.23" stop-color="#f69d7d" stop-opacity="0.93"/><stop offset="0.68" stop-color="#f69d7d" stop-opacity="0.75"/><stop offset="1" stop-color="#f69d7d" stop-opacity="0.6"/></linearGradient><linearGradient id="linear-gradient-5" x1="23.88" y1="14.28" x2="22.17" y2="5.84" gradientUnits="userSpaceOnUse"><stop offset="0" stop-color="#f8e8d8" stop-opacity="0.2"/><stop offset="0.41" stop-color="#f8e8d8" stop-opacity="0.13"/><stop offset="1" stop-color="#f8e8d8" stop-opacity="0"/></linearGradient></defs><title>big_smileРесурс 3</title><g id="Слой_2" data-name="Слой 2"><g id="OBJECTS"><path class="cls-1" d="M43.11,86.22l-.32-2.43-.27-2.06L42,77.44V77l-.19-7.77-.31-12.6-.31-12.41,1.77.86c2,1,3.87,2.11,4.25,3s.48,1.14,3,26.46l1.62,11.62Z"/><path class="cls-2" d="M43.11,86.22l-.32-2.43-.27-2.06L42,77.44V77l-.19-7.77-.31-12.6-.31-12.41,1.77.86c2,1,3.87,2.11,4.25,3s.48,1.14,3,26.46l1.62,11.62Z"/><path class="cls-1" d="M14.29,25a3.3,3.3,0,0,0,2.06-.84c.62-.76-1.4-7-1.4-7a6,6,0,0,0,1.95-4c0-2.34-1.52-3.54-3.92-3.4S7.1,13.14,7.1,13.14l1.76.91s.57,5.3,1.32,6.66S14.29,25,14.29,25Z"/><path class="cls-1" d="M9.66,14.66c.71,3.31,3,11.47,3,11.47l2.08-2.37-1-10.21Z"/><path class="cls-1" d="M42.41,86.22H13.62c0-1.83,0-2.9,0-2.9l1.76.18h.06L39.8,86Z"/><g id="_Группа_" data-name="&lt;Группа&gt;"><path class="cls-3" d="M43.48,83.15l0,0c-.21.21-.42.41-.64.6l-.36.3A17.8,17.8,0,0,1,39.8,86l-.48.26H19.56c-1.32-.44-2.68-1-4.08-1.52,0,0-.11-.14-.24-.33h0c0-.34.1-.63.14-.86.07-.43.11-.66.11-.66h.11l9.25-.38h.21l9-.37,5.26-.22,2.91-.12h.26l.52,0s.08.23.2.63Q43.35,82.67,43.48,83.15Z"/></g><polygon class="cls-1" points="46.75 86.22 12.95 86.22 14.24 77.47 12.25 70.14 10.73 64.57 9.41 59.72 10.39 59.63 13.37 59.34 20.9 58.62 25.86 58.14 26.84 58.05 26.92 58.04 31.1 57.64 31.68 57.58 32.77 57.48 37.11 57.06 41.45 56.64 44.48 56.35 45.28 66.86 45.66 71.9 46.75 86.22"/><g id="_Группа_2" data-name="&lt;Группа&gt;"><path class="cls-1" d="M43.24,82.34v.22s.08.24.2.63a13.11,13.11,0,0,1,.6,3H15a18.13,18.13,0,0,1,.29-1.85c.06-.3.12-.59.19-.87s.1-.45.16-.66c.24-1,.46-1.73.46-1.73L12.31,69.49l-1.58-4.92L10,62.41l-.86-2.69s-5.86-8-3.09-11.78a3.73,3.73,0,0,1,.79-.8,27.68,27.68,0,0,1,9.66-4.25h0c.87-.23,1.75-.43,2.67-.59h0c1.12-.22,2.27-.38,3.45-.5.57-.06,1.16-.11,1.74-.15.86,0,1.72-.09,2.59-.09h.05c.43,0,.86,0,1.3,0s.76,0,1.15,0c1.31.07,2.62.21,3.92.41l.31,0a32.59,32.59,0,0,1,3.4.72,30.81,30.81,0,0,1,3.93,1.34,11.61,11.61,0,0,1,1.85,1c2.43,1.53,4.45,4.48,1.57,11.26l-.54,11.29-.33,6.88Z"/></g><path class="cls-4" d="M46.75,86.22H13l1.29-8.75-2-7.2L10,62.41,8.6,57.27c.56.66,1.17,1.46,1.79,2.36.82,1.15,1.67,2.46,2.54,3.87,4,6.39,8.56,14.81,11.91,19q.19.26.39.48l-.18-.49c-1.73-4.64-3.46-9.26-5.2-13.9A52.41,52.41,0,0,0,34.09,82.08c1.35.86,2.73,1.67,4.16,2.41.33-.89.7-1.77,1.1-2.63a37.91,37.91,0,0,1,2.46-4.62A1,1,0,0,1,42,77c.51-.85,1.07-1.68,1.66-2.49s1.33-1.77,2-2.62Z"/><path class="cls-5" d="M33,41a12.56,12.56,0,0,1,3.21.18c.49.31,1.73,3.87,2,4.44s-3.3,3.88-3.3,3.88,2.93,4.81,2.81,5.19-5.32,21.4-5.32,21.4S19.82,57.29,19.56,56.35s1.2-5.76,1.2-5.76-3.72-2.75-4-3.35-.7-4.43,0-4.91a18.67,18.67,0,0,1,2.94-.87Z"/><path class="cls-6" d="M19.75,42.37h0L27,61.1c2.67,6.9,5.62-.32,5.62-.32L33.46,41l-.75-.07Z"/><path class="cls-7" d="M32.5,47.32c.77-.18.81-2.6.81-2.6l.15-3.66,0-.05-.73-.07L20.76,42.26c0,.14-.43,1.14-.35,1.42.7,2,2.93,5,3.37,5s1.86-1.44,2-1.94c.28.24.75,1,1,1.23.15,3.56,0,8.25,0,12.58L31.63,73l.46.58L32.54,63,28.49,47.76c.43-.59,1-1,1.41-1.61A3.78,3.78,0,0,0,32.5,47.32Z"/><g id="_Группа_3" data-name="&lt;Группа&gt;"><g id="_Группа_4" data-name="&lt;Группа&gt;"><path class="cls-8" d="M29.74,43a12.7,12.7,0,0,1-4.86,1c-1.93,0-1.15-1.08-1.8-1.25L16.81,28.27l11.34,5.12,0,.48Z"/></g></g><g id="_Группа_5" data-name="&lt;Группа&gt;"><g id="_Группа_6" data-name="&lt;Группа&gt;"><path class="cls-9" d="M26.62,38.45a11.43,11.43,0,0,1-3.48-1A23.81,23.81,0,0,1,20,35.74l-3.23-7.47,11.34,5.12,0,.48.82,4.8C28.21,38.59,27.41,38.54,26.62,38.45Z"/></g></g><path class="cls-10" d="M32.63,60.78l-4-13.63,1.77-2-3-1.84-2.29,2.12,2.13,1.89A126.3,126.3,0,0,0,27,61.1l5.07,13.06Z"/><g id="_Группа_7" data-name="&lt;Группа&gt;"><g id="_Группа_8" data-name="&lt;Группа&gt;"><path class="cls-6" d="M21.49,39.08s4.56,4.37,5.73,4.18S29,38.67,29,38.67s4.17,1.19,4.68,1.78-.74,6.28-1.29,6.56c-1.15.58-4.63-3.3-5.26-2.81s-2.42,3.81-3,3.74-5.29-4.69-5-6.4S21.49,39.08,21.49,39.08Z"/></g></g><path class="cls-8" d="M12.73,20.56s-3.92-.89-3.38,3.79,3.93,4.77,4.93,5c0,0,1.86,8.33,12.14,7.53s8.59-8.75,8.52-14,.51-14.44-6.22-15.11S12.13,7.47,12.73,20.56Z"/><path class="cls-9" d="M27.62,27.94c0-.1.33-.19.51-.63a1.25,1.25,0,0,0,.06-.78,4.87,4.87,0,0,0-.39-1c-.71-1.55-1.15-2.88-1-3s.9,1.12,1.62,2.68a3.9,3.9,0,0,1,.39,1.24,1.9,1.9,0,0,1,0,.63,1.4,1.4,0,0,1-.24.49,1,1,0,0,1-.64.44C27.72,28,27.63,28,27.62,27.94Z"/><path class="cls-1" d="M24.63,19.59c-.06.08-.35,0-.8-.16a5.12,5.12,0,0,0-1.8-.17,4.94,4.94,0,0,0-1.71.51l-.51.25c-.13.06-.22.09-.25.05s0-.12.06-.25a2.14,2.14,0,0,1,.43-.47A3.56,3.56,0,0,1,22,18.56,3.61,3.61,0,0,1,24,19C24.48,19.24,24.68,19.51,24.63,19.59Z"/><path class="cls-1" d="M28.6,19.41c-.06-.06.08-.37.49-.72a3.6,3.6,0,0,1,4-.38,2.36,2.36,0,0,1,.5.38c.1.11.14.2.11.24s-.11,0-.25,0l-.55-.16a4.73,4.73,0,0,0-3.51.34C28.94,19.31,28.68,19.48,28.6,19.41Z"/><path class="cls-11" d="M22.69,28.28a2.76,2.76,0,1,1-2.88-2.63A2.76,2.76,0,0,1,22.69,28.28Z"/><path class="cls-12" d="M35.16,27.71a2.76,2.76,0,1,1-2.88-2.63A2.76,2.76,0,0,1,35.16,27.71Z"/><path class="cls-13" d="M10.69,22.65a5.74,5.74,0,0,0,.65,3.73,2,2,0,0,0,.63.94.68.68,0,0,0,1-.16c.17-.33-.07-.71-.26-1s-.29-.8,0-1c.15-.09.34-.09.49-.17.33-.17.33-.65.25-1a5.81,5.81,0,0,0-.56-1.45c-.25-.44-.64-.9-1.15-.89S10.84,22.14,10.69,22.65Z"/><path class="cls-1" d="M12.73,20.56a6.15,6.15,0,0,1,2,3.81H16V19.84s3.59-1,2.23-6.25-6.7,0-6.7,0Z"/><path class="cls-1" d="M23,12.25a9,9,0,0,1-8.62.59c-4.8-2.17-4.78-5.38-4.78-5.38a11,11,0,0,0,7-3.32C19.46,1,27.75-2.23,34,2.11s4.3,10.72.55,11.79-5.88-1.53-6.83-1S25.29,14.14,23,12.25Z"/><path class="cls-14" d="M36.33,4.23A9.94,9.94,0,0,0,35,2.84,43,43,0,0,1,10.35,9.67a7.05,7.05,0,0,0,.58.77,14.91,14.91,0,0,0-2.06,1.27,29.53,29.53,0,0,0,10.88.6A29.74,29.74,0,0,0,36.33,4.23Z"/><path class="cls-1" d="M24.42,22.83c-.09.05-.29-.14-.62-.35a2.64,2.64,0,0,0-1.41-.4,3.9,3.9,0,0,0-1.47.38l-.42.22c-.1.06-.18.1-.22.06s0-.11,0-.23a1.33,1.33,0,0,1,.35-.46,2.82,2.82,0,0,1,1.74-.67h.27l.29.05a2.58,2.58,0,0,1,.49.17,2.1,2.1,0,0,1,.69.51C24.44,22.47,24.49,22.79,24.42,22.83Z"/><path class="cls-1" d="M32.71,22c-.06.08-.29,0-.64-.1a2.79,2.79,0,0,0-2.54.48l-.36.26c-.09.07-.16.1-.2.07s-.06-.1,0-.21a1.34,1.34,0,0,1,.23-.47,2.33,2.33,0,0,1,1.45-.89,2,2,0,0,1,.49,0,2.31,2.31,0,0,1,.46.05,2.45,2.45,0,0,1,.71.3C32.64,21.72,32.77,22,32.71,22Z"/><path class="cls-1" d="M13.75,55.65l-.38,3.69-.44,4.16-.62,6-.06.65,0,.13-.74,7.14-.32,8.81H0a60.34,60.34,0,0,1,.12-6.51c.66-7.25,3.46-30.16,5.93-31.77Z"/><path class="cls-15" d="M23.25,27.68a8.46,8.46,0,0,0,5.63,1.44c-.56,1.69-1.15,2.85-3.31,2.45A3.12,3.12,0,0,1,23.25,27.68Z"/><path class="cls-6" d="M23.17,28.47a3,3,0,0,0,2.37,3.24,3.11,3.11,0,0,0,1.58-.17c.15-.57.31-1.15.47-1.72l-4.06-1.29A1.51,1.51,0,0,0,23.17,28.47Z"/><path class="cls-16" d="M23.46,28.75a4.06,4.06,0,0,0,2,1.42,7.1,7.1,0,0,0,1.93.33c.06-.23.13-.45.19-.68L24,28.69Z"/><path class="cls-6" d="M28.2,29.17a5.24,5.24,0,0,1-.27.77,6,6,0,0,1-4.76-1.28,3.13,3.13,0,0,1,.08-1A10.28,10.28,0,0,0,28.2,29.17Z"/></g></g></svg>