<svg xmlns="http://www.w3.org/2000/svg" xmlns:xlink="http://www.w3.org/1999/xlink" viewBox="0 0 93.83 190.04"><defs><style>.cls-1{fill:#fbc0a4;}.cls-2{fill:#f8e8d8;}.cls-3{fill:#f69d7d;}.cls-4{fill:url(#linear-gradient);}.cls-5{fill:#3e3533;}.cls-6{fill:url(#linear-gradient-2);}.cls-7{fill:#302624;}.cls-8{fill:#330e00;}.cls-9{fill:url(#linear-gradient-3);}.cls-10{fill:url(#linear-gradient-4);}.cls-11{fill:#f84511;}.cls-12{fill:#cb4453;}.cls-13{fill:#dd5664;}.cls-14{fill:url(#radial-gradient);}.cls-15{fill:url(#radial-gradient-2);}.cls-16{fill:url(#linear-gradient-5);}.cls-17{fill:url(#linear-gradient-6);}.cls-18{fill:url(#linear-gradient-7);}.cls-19{fill:url(#linear-gradient-8);}.cls-20{fill:#e79355;}.cls-21{fill:#b07347;}.cls-22{fill:#ffbd9b;}</style><linearGradient id="linear-gradient" x1="143.91" y1="38.63" x2="161.49" y2="38.63" gradientTransform="matrix(-1, 0, 0, 1, 237.74, 0)" gradientUnits="userSpaceOnUse"><stop offset="0" stop-color="#5c251c"/><stop offset="0.19" stop-color="#61271e"/><stop offset="1" stop-color="#722f27"/></linearGradient><linearGradient id="linear-gradient-2" x1="51.24" y1="65.66" x2="57.57" y2="60.27" gradientUnits="userSpaceOnUse"><stop offset="0" stop-color="#302624" stop-opacity="0.5"/><stop offset="0.24" stop-color="#302624" stop-opacity="0.36"/><stop offset="0.99" stop-color="#302624" stop-opacity="0"/></linearGradient><linearGradient id="linear-gradient-3" x1="30" y1="63.6" x2="32.23" y2="89.42" xlink:href="#linear-gradient-2"/><linearGradient id="linear-gradient-4" x1="31.5" y1="46.76" x2="41.46" y2="73.96" gradientUnits="userSpaceOnUse"><stop offset="0" stop-color="#cfd4d8"/><stop offset="0.33" stop-color="#cfd4d8" stop-opacity="0.63"/><stop offset="0.65" stop-color="#cfd4d8" stop-opacity="0.29"/><stop offset="0.88" stop-color="#cfd4d8" stop-opacity="0.08"/><stop offset="1" stop-color="#cfd4d8" stop-opacity="0"/></linearGradient><radialGradient id="radial-gradient" cx="-2210.26" cy="120.58" r="2.76" gradientTransform="matrix(-1, 0.05, 0.05, 1, -2190.64, 8.51)" gradientUnits="userSpaceOnUse"><stop offset="0" stop-color="#f69d7d" stop-opacity="0.7"/><stop offset="0.14" stop-color="#f69d7d" stop-opacity="0.63"/><stop offset="0.42" stop-color="#f69d7d" stop-opacity="0.44"/><stop offset="0.81" stop-color="#f69d7d" stop-opacity="0.15"/><stop offset="1" stop-color="#f69d7d" stop-opacity="0"/></radialGradient><radialGradient id="radial-gradient-2" cx="-2222.74" cy="120.58" r="2.76" xlink:href="#radial-gradient"/><linearGradient id="linear-gradient-5" x1="-2123.55" y1="25.12" x2="-2121.49" y2="23.97" gradientTransform="matrix(-1, 0, 0, 1, -2107.44, 0)" gradientUnits="userSpaceOnUse"><stop offset="0" stop-color="#f69d7d"/><stop offset="0.23" stop-color="#f69d7d" stop-opacity="0.93"/><stop offset="0.68" stop-color="#f69d7d" stop-opacity="0.75"/><stop offset="1" stop-color="#f69d7d" stop-opacity="0.6"/></linearGradient><linearGradient id="linear-gradient-6" x1="-1817.85" y1="126.6" x2="-1818.96" y2="182.97" gradientTransform="matrix(-1, 0, 0, 1, -1772.45, 0)" xlink:href="#linear-gradient-2"/><linearGradient id="linear-gradient-7" x1="-1796.62" y1="127.02" x2="-1797.73" y2="183.39" gradientTransform="matrix(-1, 0, 0, 1, -1772.45, 0)" xlink:href="#linear-gradient-2"/><linearGradient id="linear-gradient-8" x1="26.84" y1="14.28" x2="25.13" y2="5.84" gradientUnits="userSpaceOnUse"><stop offset="0" stop-color="#f8e8d8" stop-opacity="0.2"/><stop offset="0.41" stop-color="#f8e8d8" stop-opacity="0.13"/><stop offset="1" stop-color="#f8e8d8" stop-opacity="0"/></linearGradient></defs><title>full_regularРесурс 2</title><g id="Слой_2" data-name="Слой 2"><g id="OBJECTS"><path class="cls-1" d="M73.38,60.27a10.16,10.16,0,0,1,1.92-2.44c.9-.64,2.33-.52,3.44-1.74s2.84,0,2.87-2.33-1-1.69.18-2.79-.68-2.22-.68-2.22,1.55-1.44,1-2.67-2.72-1.2-6.89.43c0,0-2.31-1.2-2.9-.43s0,7.68,0,7.68L69.89,58Z"/><path class="cls-2" d="M69.89,56.35l1.28-2s4,2.22,5.09,5.31l-2,1.36Z"/><path class="cls-3" d="M76.75,47.47a2,2,0,0,1,.61-.87l1.13-1.16a4.93,4.93,0,0,1,2.81,0,45.69,45.69,0,0,1-4.17,3A.74.74,0,0,1,76.75,47.47Z"/><path class="cls-3" d="M75.18,46.51c2.14,1.86,3.63,4.28,3.07,4.85s-3.07-1.24-3.07-1.24l.29,2.08s2.54,1.38,3.4-.59S75.18,46.51,75.18,46.51Z"/><path class="cls-4" d="M76.34,47.55l-.08,0L92.9,29.34l.93,1.09L76.67,47.92A3.8,3.8,0,0,0,76.34,47.55Z"/><path class="cls-5" d="M47.61,47.34c.78,1.7,8.23,19.75,8.23,19.75s2.1-2.32,1.93,0L69.56,55s5.44,1.85,5.87,6.64c0,0-14.64,20.14-20,20.69S45.33,67.91,45.33,67.91Z"/><path class="cls-6" d="M47.61,47.34c.78,1.7,8.23,19.75,8.23,19.75s2.1-2.32,1.93,0L69.56,55s5.44,1.85,5.87,6.64c0,0-14.64,20.14-20,20.69S45.33,67.91,45.33,67.91Z"/><path class="cls-5" d="M17.25,25a3.32,3.32,0,0,0,2.06-.84c.62-.76-1.41-7-1.41-7a6,6,0,0,0,2-4c0-2.34-1.52-3.54-3.93-3.4s-5.87,3.35-5.87,3.35l1.76.91s.57,5.3,1.32,6.66S17.25,25,17.25,25Z"/><path class="cls-5" d="M12.62,14.66c.7,3.31,3,11.47,3,11.47l2.08-2.37-1-10.21Z"/><path class="cls-7" d="M21.32,180.5l.93-5,5.65.82L27.6,181a4.56,4.56,0,0,1-4,2.13A2,2,0,0,1,21.32,180.5Z"/><polygon class="cls-7" points="46.55 177.34 46.37 181.38 47.45 184 52.12 182.52 53.14 179.53 53.48 174.88 46.55 177.34"/><path class="cls-7" d="M63.93,184.19c-1.45-.72-6-2.11-9.27-4.65a1.54,1.54,0,0,0-1.26-.31l-.24.05a4.13,4.13,0,0,1-2.8,2.92c-1.6.52-4-.82-4-.82l-.43,5.72H64.36a1.11,1.11,0,0,0,.49-.6S65.77,185.12,63.93,184.19Z"/><path class="cls-5" d="M47.46,86.44s2.85,36.27,3.12,39.57,3.76,52.4,3.76,52.4a16,16,0,0,1-9.05.39l-7.62-49.5-5-26.39L31,102.44s-.57,32.14-.58,32-.73,43.15-.73,43.15c-4.22,2.14-10.09-.17-10.09-.17s-1.82-42-2.34-44.48-.65-49.59-.65-49.59Z"/><path class="cls-7" d="M48.32,96.28C42.1,98.44,28,101.65,16.57,97c0-2.95,0-6.85,0-8.92L47.8,90.75C47.94,92.56,48.12,93.77,48.32,96.28Z"/><g id="_Группа_" data-name="&lt;Группа&gt;"><path id="_Контур_" data-name="&lt;Контур&gt;" class="cls-8" d="M46.43,83.16c-.24-.89-.43-1.45-.43-1.45L18.44,82.84s-.1.56-.25,1.53l.25.33C30.74,89.72,39.64,89.72,46.43,83.16Z"/></g><path class="cls-5" d="M12.37,59.72,17.2,77.47,14.75,94.05s21.81,8.29,35.51-.64L47.44,56.35Z"/><g id="_Группа_2" data-name="&lt;Группа&gt;"><g id="_Группа_3" data-name="&lt;Группа&gt;"><path id="_Контур_2" data-name="&lt;Контур&gt;" class="cls-5" d="M43,44.14c1.09.46,8.53,2.49,4.41,12.21L46.19,82.56s1.4,4,.52,4.9c-6.8,6.59-15.71,6.59-28,1.56A5.72,5.72,0,0,1,18,87.86C17.5,86.08,19,81.11,19,81.11L12.13,59.72s-6.79-9.23-2.3-12.58C16.9,41.87,31.46,39.27,43,44.14Z"/></g></g><path class="cls-9" d="M50.26,93.41,48.62,71.9a42.43,42.43,0,0,0-7.41,12.59,52.41,52.41,0,0,1-18.4-15.94q2.69,7.2,5.38,14.39c-4.65-5.46-12-20.2-16.64-25.66L17.2,77.47,14.75,94.05S36.56,102.34,50.26,93.41Z"/><path class="cls-7" d="M36,41a12.56,12.56,0,0,1,3.21.18c.49.31,1.72,3.87,2,4.44s-3.3,3.88-3.3,3.88,2.93,4.81,2.81,5.19-5.32,21.4-5.32,21.4S22.77,57.29,22.52,56.35s1.2-5.76,1.2-5.76S20,47.84,19.77,47.24s-.71-4.43,0-4.91a18.46,18.46,0,0,1,2.94-.86Z"/><path class="cls-2" d="M22.71,42.37h0s3.85,10,7.25,18.73c2.68,6.9,5.63-.32,5.63-.32L36.42,41l-.75-.07Z"/><path class="cls-10" d="M35.46,47.32c.77-.18.8-2.6.8-2.6l.16-3.66,0-.05-.72-.07-12,1.32c0,.14-.43,1.14-.35,1.42.69,2,2.92,5,3.37,5s1.86-1.44,2-1.94c.28.24.75,1,1,1.23.15,3.56,0,8.25,0,12.58L34.59,73c.15.21.31.39.46.58L35.49,63q-2-7.65-4-15.28c.43-.59,1-1,1.41-1.61A3.76,3.76,0,0,0,35.46,47.32Z"/><g id="_Группа_4" data-name="&lt;Группа&gt;"><g id="_Группа_5" data-name="&lt;Группа&gt;"><path class="cls-1" d="M32.69,43a12.65,12.65,0,0,1-4.85,1c-1.93,0-1.16-1.08-1.8-1.25L19.77,28.27l11.34,5.12,0,.48Z"/></g></g><g id="_Группа_6" data-name="&lt;Группа&gt;"><g id="_Группа_7" data-name="&lt;Группа&gt;"><path class="cls-3" d="M29.58,38.45a11.49,11.49,0,0,1-3.49-1A23.69,23.69,0,0,1,23,35.74l-3.23-7.47,11.34,5.12,0,.48.82,4.8C31.17,38.59,30.37,38.54,29.58,38.45Z"/></g></g><path class="cls-11" d="M35.59,60.78l-4-13.63,1.77-2-3-1.84L28,45.45l2.14,1.89A126.3,126.3,0,0,0,30,61.1C32.64,68,35,74.16,35,74.16Z"/><g id="_Группа_8" data-name="&lt;Группа&gt;"><g id="_Группа_9" data-name="&lt;Группа&gt;"><path class="cls-2" d="M24.45,39.08s4.56,4.37,5.73,4.18S32,38.67,32,38.67s4.16,1.19,4.67,1.78S35.9,46.73,35.35,47c-1.15.58-4.63-3.3-5.26-2.81s-2.42,3.81-3,3.74-5.29-4.69-5-6.4S24.45,39.08,24.45,39.08Z"/></g></g><path class="cls-1" d="M15.68,20.56s-3.91-.89-3.37,3.79,3.93,4.77,4.93,5c0,0,1.86,8.33,12.14,7.53s8.59-8.75,8.51-14,.52-14.44-6.21-15.11S15.09,7.47,15.68,20.56Z"/><path class="cls-12" d="M30.78,30.13a3.58,3.58,0,0,0-.32-.83,17.8,17.8,0,0,0-2.33-.13A3,3,0,0,0,28,31a2.68,2.68,0,0,0,.62,1.44,1.3,1.3,0,0,0,1.44.37C30.92,32.38,31.05,31.18,30.78,30.13Z"/><path class="cls-13" d="M27.91,30a3.27,3.27,0,0,1,1.45.64,4.57,4.57,0,0,1,1.3,1.56,1.43,1.43,0,0,1-.65.61,1.3,1.3,0,0,1-1.44-.37A2.68,2.68,0,0,1,28,31,4.19,4.19,0,0,1,27.91,30Z"/><path class="cls-2" d="M28.13,29.17c.05-.09.1-.18.16-.27.8-1.07,1.66-.57,2.17.4Z"/><path class="cls-3" d="M30.58,27.94c0-.1.33-.19.51-.63a1.33,1.33,0,0,0,.06-.78,4.87,4.87,0,0,0-.39-1c-.72-1.55-1.16-2.88-1-3s.9,1.12,1.62,2.68a3.9,3.9,0,0,1,.39,1.24,1.9,1.9,0,0,1,0,.63,1.4,1.4,0,0,1-.24.49,1,1,0,0,1-.64.44C30.68,28,30.58,28,30.58,27.94Z"/><path class="cls-5" d="M22.59,20c0-.09.35,0,.82,0a4.73,4.73,0,0,0,3.35-1.08l.45-.36c.11-.09.19-.13.23-.1s0,.11,0,.25a2,2,0,0,1-.31.55,3.61,3.61,0,0,1-3.8,1.23C22.81,20.33,22.55,20.11,22.59,20Z"/><path class="cls-5" d="M30.56,19.07s0-.12.06-.25a1.93,1.93,0,0,1,.38-.5,2.24,2.24,0,0,1,.81-.53,3.09,3.09,0,0,1,.54-.17l.29-.06.29,0a3.59,3.59,0,0,1,2.06.36,2,2,0,0,1,.52.38c.1.1.14.19.12.23s-.12,0-.26,0l-.56-.14A4.93,4.93,0,0,0,33,18.21l-.28,0-.25,0L32,18.4a2.91,2.91,0,0,0-.73.31C30.91,19,30.64,19.15,30.56,19.07Z"/><path class="cls-14" d="M25.65,28.28a2.76,2.76,0,1,1-2.88-2.63A2.76,2.76,0,0,1,25.65,28.28Z"/><path class="cls-15" d="M38.12,27.71a2.76,2.76,0,1,1-2.88-2.63A2.76,2.76,0,0,1,38.12,27.71Z"/><path class="cls-5" d="M26.61,22.93a1.38,1.38,0,1,1-1.44-1.32A1.38,1.38,0,0,1,26.61,22.93Z"/><path class="cls-5" d="M34.47,22.57A1.38,1.38,0,1,1,33,21.25,1.38,1.38,0,0,1,34.47,22.57Z"/><path class="cls-16" d="M13.65,22.65a5.74,5.74,0,0,0,.65,3.73,2,2,0,0,0,.62.94.69.69,0,0,0,1-.16c.16-.33-.07-.71-.26-1s-.29-.8,0-1c.15-.09.34-.09.49-.17.33-.17.33-.65.24-1a5.78,5.78,0,0,0-.55-1.45c-.25-.44-.64-.9-1.15-.89S13.79,22.14,13.65,22.65Z"/><path class="cls-7" d="M26.37,181.3a3,3,0,0,0-4.21-.33l-.84-.47c-1.23,1.84-3.58,4-3.88,5.11-.56,2,.44,4.43,3.74,4.43s6.31-2,6.65-3.56A36.36,36.36,0,0,0,27.6,181Z"/><path class="cls-17" d="M37.67,129.3l-.15-.78c1.66,5.81,4,13.65,4.39,13.67.66,0,7.26-1,7.54-1.89.13-.39.68-6.3,1.25-12.74.68,9.08,3.64,50.85,3.64,50.85a16,16,0,0,1-9.05.39Z"/><path class="cls-18" d="M19.56,177.39v-.3l0-.79c0-.08,0-.16,0-.25l0-.5v-.21q0-.6-.06-1.35a2.18,2.18,0,0,0,0-.25c0-.28,0-.58,0-.89h0c0-.33,0-.68,0-1v-.17c0-.88-.08-1.84-.13-2.86v-.3c-.08-1.74-.17-3.65-.26-5.66v-.1c0-.76-.07-1.53-.11-2.3v-.08c-.3-6.43-.65-13.48-.95-18.84v0c-.08-1.33-.15-2.57-.22-3.66,1.34,1,3.62,2.51,4.55,2.48,1.35,0,5.9-3.74,6.17-5.39.21-1.32,1.76-13.69,2.37-18.6-.15,8.67-.33,18.19-.33,18.1s0,.06,0,.18v.08c0,.49,0,1.68-.06,3.36v.3c0,.62,0,1.29,0,2v.75c0,1,0,2.1-.05,3.26,0,.14,0,.29,0,.44-.22,12.76-.55,32.77-.55,32.77a8.29,8.29,0,0,1-2.49.78l-.86.1c-.29,0-.57,0-.86,0l-.83,0-.81-.07-.77-.1c-.38-.06-.73-.13-1.06-.2l-.63-.15a16.72,16.72,0,0,1-1.78-.54Z"/><path class="cls-5" d="M15.68,20.56a6.13,6.13,0,0,1,2.06,3.81h1.18V19.84s3.59-1,2.23-6.25-6.7,0-6.7,0Z"/><path class="cls-5" d="M25.91,12.25a9,9,0,0,1-8.62.59c-4.79-2.17-4.77-5.38-4.77-5.38a10.92,10.92,0,0,0,7-3.32C22.41,1,30.71-2.23,37,2.11s4.29,10.72.54,11.79-5.87-1.53-6.82-1S28.25,14.14,25.91,12.25Z"/><path class="cls-19" d="M39.29,4.23a9.94,9.94,0,0,0-1.37-1.39A43,43,0,0,1,13.31,9.67a7.05,7.05,0,0,0,.58.77,14.91,14.91,0,0,0-2.06,1.27,29.53,29.53,0,0,0,10.88.6A29.74,29.74,0,0,0,39.29,4.23Z"/><g id="_Группа_10" data-name="&lt;Группа&gt;"><polygon class="cls-20" points="34.49 86.86 0 89.56 1.7 111.95 36.4 108.73 34.49 86.86"/></g><path class="cls-21" d="M15.39,88.36c.77,3,.5,6.24.61,9.37.14,3.69,1.09,7.78,4.19,9.78,2.89,1.86,6.71,1.31,9.92.09A28.46,28.46,0,0,0,36,104.52l.37,4.21-25.29,2.34a16,16,0,0,0-.77-5.29Q8.18,97.56,6,89.35L6,89.09Z"/><path class="cls-22" d="M11,102s.42,2.28.46,3.23a15.17,15.17,0,0,0,.4,3.5c.37,1.47-1,1.17.75,2.75s1.8.58,2,2,2.5.76,2.5.76a2.86,2.86,0,0,0,1.59,1.33c1.24.5,1.33-.07,2.19-3.57,0,0,2.42-.88,2.13-1.74S16.66,106,16.66,106l-1.78-4.64Z"/><path class="cls-2" d="M10,104l.61,3.09s6.27-.86,8-2l-.79-3.83Z"/><path class="cls-5" d="M4.5,74.16s.2-21.42,4.55-26.24l7.52,9.73L15.19,77.41c.15,3.89,4,25.43,4,25.43A33.82,33.82,0,0,1,9,105.36S4.24,80.54,4.5,74.16Z"/></g></g></svg>