<svg xmlns="http://www.w3.org/2000/svg" xmlns:xlink="http://www.w3.org/1999/xlink" viewBox="0 0 128.49 96.27"><defs><style>.cls-1{fill:#ffbd9b;}.cls-2{fill:#f8e8d8;}.cls-3{fill:#3e3533;}.cls-4{fill:#330e00;}.cls-5{fill:url(#linear-gradient);}.cls-6{fill:#302624;}.cls-7{fill:url(#linear-gradient-2);}.cls-8{fill:#fbc0a4;}.cls-9{fill:#f69d7d;}.cls-10{fill:#f84511;}.cls-11{fill:url(#radial-gradient);}.cls-12{fill:url(#radial-gradient-2);}.cls-13{fill:#cb4453;}.cls-14{fill:#dd5664;}.cls-15{fill:url(#linear-gradient-3);}.cls-16{fill:url(#linear-gradient-4);}</style><linearGradient id="linear-gradient" x1="64.76" y1="71.56" x2="66.47" y2="91.36" gradientUnits="userSpaceOnUse"><stop offset="0" stop-color="#302624" stop-opacity="0.5"/><stop offset="0.24" stop-color="#302624" stop-opacity="0.36"/><stop offset="0.99" stop-color="#302624" stop-opacity="0"/></linearGradient><linearGradient id="linear-gradient-2" x1="66.42" y1="56.55" x2="76.38" y2="83.76" gradientUnits="userSpaceOnUse"><stop offset="0" stop-color="#cfd4d8"/><stop offset="0.33" stop-color="#cfd4d8" stop-opacity="0.63"/><stop offset="0.65" stop-color="#cfd4d8" stop-opacity="0.29"/><stop offset="0.88" stop-color="#cfd4d8" stop-opacity="0.08"/><stop offset="1" stop-color="#cfd4d8" stop-opacity="0"/></linearGradient><radialGradient id="radial-gradient" cx="-2185.32" cy="130.61" r="2.76" gradientTransform="matrix(-1, 0.05, 0.05, 1, -2131.26, 7.15)" gradientUnits="userSpaceOnUse"><stop offset="0" stop-color="#f69d7d" stop-opacity="0.7"/><stop offset="0.14" stop-color="#f69d7d" stop-opacity="0.63"/><stop offset="0.42" stop-color="#f69d7d" stop-opacity="0.44"/><stop offset="0.81" stop-color="#f69d7d" stop-opacity="0.15"/><stop offset="1" stop-color="#f69d7d" stop-opacity="0"/></radialGradient><radialGradient id="radial-gradient-2" cx="-2197.79" cy="130.61" r="2.76" xlink:href="#radial-gradient"/><linearGradient id="linear-gradient-3" x1="-2088.4" y1="34.92" x2="-2086.34" y2="33.77" gradientTransform="matrix(-1, 0, 0, 1, -2037.37, 0)" gradientUnits="userSpaceOnUse"><stop offset="0" stop-color="#f69d7d"/><stop offset="0.23" stop-color="#f69d7d" stop-opacity="0.93"/><stop offset="0.68" stop-color="#f69d7d" stop-opacity="0.75"/><stop offset="1" stop-color="#f69d7d" stop-opacity="0.6"/></linearGradient><linearGradient id="linear-gradient-4" x1="61.76" y1="24.32" x2="60.04" y2="15.88" gradientUnits="userSpaceOnUse"><stop offset="0" stop-color="#f8e8d8" stop-opacity="0.2"/><stop offset="0.41" stop-color="#f8e8d8" stop-opacity="0.13"/><stop offset="1" stop-color="#f8e8d8" stop-opacity="0"/></linearGradient></defs><title>hands_upРесурс 7</title><g id="Слой_2" data-name="Слой 2"><g id="OBJECTS"><path class="cls-1" d="M18,18.79c-2.12-2.35-3.25-3.38-3.25-6.95,0-1.94,2.67-2.67,1.09-4.21s-1.82,2.69-2.72,3.14S10.29,1.7,9,.43s-2.3.41-.7,2.89a14.77,14.77,0,0,1,2,4.73s-4.2-5.4-5.35-5.82S3.72,3.72,4.68,4.85,8.46,8.19,9.06,9.46c0,0-5.31-3-7.55-3.41S-.09,7.62.94,8.2s5.62,1.12,7.2,2.68c0,0-5.07-1.17-6.5-.06a1.42,1.42,0,0,0,.58,2.63c1,.22,2.38-.79,3.87-1.23s1.33-.14,2.13,2.1.94,3.81,3,3.28c1.35-.35,2.66.06,3.88,3.58C16.06,20.4,17,19.57,18,18.79Z"/><path class="cls-2" d="M12.85,23.6l-1.73-2.32s3.21-3.65,5.8-4.89l1.74,1.92Z"/><path class="cls-3" d="M54.68,52.37S34.85,35.93,33.61,35.28,18.53,17.13,18.53,17.13a47.54,47.54,0,0,0-6.92,6.47S22.24,39.55,25,43.51,45,66.36,45,66.36Z"/><path class="cls-1" d="M110.44,18.79c2.13-2.35,3.26-3.38,3.26-6.95,0-1.94-2.68-2.67-1.09-4.21s1.82,2.69,2.72,3.14S118.2,1.7,119.54.43s2.3.41.7,2.89a14.5,14.5,0,0,0-2,4.73s4.19-5.4,5.35-5.82,1.18,1.49.23,2.62S120,8.19,119.43,9.46c0,0,5.3-3,7.54-3.41s1.61,1.57.57,2.15-5.62,1.12-7.19,2.68c0,0,5.07-1.17,6.5-.06s.44,2.4-.59,2.63-2.37-.79-3.86-1.23-1.33-.14-2.14,2.1-.93,3.81-3,3.28c-1.34-.35-2.65.06-3.88,3.58C112.42,20.4,111.45,19.57,110.44,18.79Z"/><path class="cls-2" d="M115.64,23.6l1.73-2.32s-3.21-3.65-5.81-4.89l-1.73,1.92Z"/><path class="cls-3" d="M73.8,52.37S93.64,35.93,94.87,35.28,110,17.13,110,17.13a48.09,48.09,0,0,1,6.92,6.47s-10.63,15.95-13.35,19.91S82.36,66.4,82.36,66.4Z"/><path class="cls-3" d="M52.17,35a3.35,3.35,0,0,0,2.06-.83c.62-.76-1.41-7-1.41-7a6,6,0,0,0,2-4c0-2.33-1.52-3.54-3.93-3.39S45,23.19,45,23.19l1.77.9s.57,5.3,1.32,6.66S52.17,35,52.17,35Z"/><path class="cls-3" d="M47.54,24.45c.7,3.31,3,11.48,3,11.48l2.08-2.37-1-10.21Z"/><path class="cls-3" d="M51.5,96.27c0-2,0-3.15,0-3.15l1.76.18h.06l24.35,2.46,4.26.43.46,0v0Z"/><g id="_Группа_" data-name="&lt;Группа&gt;"><path class="cls-4" d="M81.35,93l0,0a18,18,0,0,1-3.65,2.77,9.7,9.7,0,0,1-1,.51H58.22q-2.34-.73-4.86-1.77s-.11-.13-.24-.32h0c0-.34.1-.63.14-.87l.11-.66h.11l9.25-.38h.21l9-.37,5.26-.22,3.69-.15s.08.23.2.64C81.19,92.37,81.26,92.64,81.35,93Z"/></g><polygon class="cls-3" points="84.65 96.27 50.79 96.27 52.12 87.27 48.61 74.37 47.29 69.52 48.26 69.43 58.78 68.42 63.74 67.94 64.72 67.85 64.8 67.84 68.98 67.44 69.56 67.38 70.65 67.28 74.99 66.86 82.22 66.16 82.36 66.15 82.38 66.38 83.54 81.7 84.65 96.27"/><g id="_Группа_2" data-name="&lt;Группа&gt;"><g id="_Группа_3" data-name="&lt;Группа&gt;"><path class="cls-3" d="M81.12,92.15v.21s.08.24.2.63a12.8,12.8,0,0,1,.61,3.2v.08H52.81a16.79,16.79,0,0,1,.31-2.09c.06-.3.12-.6.19-.88s.1-.45.16-.66c.24-1,.46-1.73.46-1.73L48.61,74.37,47.84,72v-.07l-.77-2.39s-6.79-9.23-2.3-12.58c7.07-5.27,22.62-7.87,34.19-3,2.92,1.23,7,3.7,3.42,12.21l-.87,18.17Z"/></g></g><path class="cls-5" d="M84.65,96.27H50.79l1.33-9L47.84,72v-.07l-1.35-4.83c.56.66,1.16,1.45,1.79,2.35,4.46,6.33,10.37,17.76,14.46,22.83q.2.26.39.48l-.18-.49c-1.73-4.64-3.47-9.26-5.2-13.9A52.41,52.41,0,0,0,72,91.88q2,1.31,4.16,2.41c.33-.89.69-1.77,1.1-2.63a41.38,41.38,0,0,1,4.26-7.34c.64-.9,1.33-1.77,2.05-2.62Z"/><path class="cls-6" d="M70.9,50.76a12.62,12.62,0,0,1,3.21.19c.5.3,1.73,3.87,2,4.43s-3.3,3.89-3.3,3.89,2.93,4.8,2.81,5.19-5.32,21.4-5.32,21.4S57.69,67.08,57.43,66.15s1.21-5.76,1.21-5.76-3.73-2.75-4-3.35-.7-4.43,0-4.92a19.93,19.93,0,0,1,2.94-.86Z"/><path class="cls-2" d="M57.62,52.17h0L64.88,70.9c2.67,6.89,5.63-.32,5.63-.32l.83-19.77-.76-.08Z"/><path class="cls-7" d="M70.37,57.12c.78-.18.81-2.6.81-2.6l.16-3.66,0-.06-.73-.07L58.64,52.06c0,.14-.44,1.13-.35,1.41.69,2,2.92,5,3.37,5s1.86-1.44,2-1.95c.27.25.74,1,1,1.24.14,3.56,0,8.24,0,12.57l4.83,12.47q.22.3.45.57l.45-10.58q-2-7.64-4-15.28c.43-.58,1-1,1.41-1.6A3.76,3.76,0,0,0,70.37,57.12Z"/><g id="_Группа_4" data-name="&lt;Группа&gt;"><g id="_Группа_5" data-name="&lt;Группа&gt;"><path class="cls-8" d="M67.61,52.75a12.65,12.65,0,0,1-4.85,1c-1.94.05-1.16-1.08-1.8-1.25L54.68,38.07,66,43.18l0,.48Z"/></g></g><g id="_Группа_6" data-name="&lt;Группа&gt;"><g id="_Группа_7" data-name="&lt;Группа&gt;"><path class="cls-9" d="M64.49,48.24a11.22,11.22,0,0,1-3.48-1,23.69,23.69,0,0,1-3.09-1.69l-3.24-7.47L66,43.18l0,.48.83,4.8C66.08,48.38,65.29,48.34,64.49,48.24Z"/></g></g><path class="cls-10" d="M70.51,70.58,66.47,57l1.76-2-3-1.84-2.29,2.12,2.14,1.89a126.06,126.06,0,0,0-.2,13.75L69.94,84Z"/><g id="_Группа_8" data-name="&lt;Группа&gt;"><g id="_Группа_9" data-name="&lt;Группа&gt;"><path class="cls-2" d="M59.37,48.88s4.56,4.37,5.73,4.18,1.78-4.6,1.78-4.6,4.16,1.2,4.67,1.78-.73,6.29-1.28,6.56c-1.16.58-4.63-3.29-5.26-2.8s-2.43,3.81-3,3.74-5.28-4.7-5-6.4S59.37,48.88,59.37,48.88Z"/></g></g><path class="cls-8" d="M50.6,30.36s-3.92-.89-3.37,3.78,3.93,4.78,4.93,5c0,0,1.86,8.33,12.14,7.53s8.59-8.76,8.51-14,.51-14.44-6.21-15.11S50,17.27,50.6,30.36Z"/><path class="cls-9" d="M65.5,37.73c0-.09.33-.18.5-.62a1.25,1.25,0,0,0,.07-.78,4.87,4.87,0,0,0-.39-1c-.72-1.56-1.16-2.89-1-3s.9,1.12,1.61,2.68a3.92,3.92,0,0,1,.4,1.24,1.82,1.82,0,0,1,0,.62,1.66,1.66,0,0,1-.24.5,1,1,0,0,1-.64.44C65.6,37.83,65.5,37.78,65.5,37.73Z"/><path class="cls-3" d="M62.51,28.39c-.06.09-.35,0-.81-.15a4.84,4.84,0,0,0-1.79-.17,5.1,5.1,0,0,0-1.71.5l-.52.26c-.12.06-.21.09-.25.05s0-.12.07-.25a2.32,2.32,0,0,1,.42-.47,3.61,3.61,0,0,1,4-.38C62.36,28.05,62.56,28.32,62.51,28.39Z"/><path class="cls-3" d="M66.48,28c-.07-.06.08-.36.49-.71a3.48,3.48,0,0,1,1.91-.8,3.59,3.59,0,0,1,2.05.41,2.15,2.15,0,0,1,.51.39c.1.11.13.19.11.23s-.12,0-.26,0l-.55-.16A5,5,0,0,0,69,27.16a5.07,5.07,0,0,0-1.73.51C66.81,27.88,66.55,28,66.48,28Z"/><path class="cls-11" d="M60.57,38.07a2.76,2.76,0,1,1-2.88-2.62A2.75,2.75,0,0,1,60.57,38.07Z"/><path class="cls-12" d="M73,37.51a2.75,2.75,0,1,1-2.88-2.63A2.75,2.75,0,0,1,73,37.51Z"/><path class="cls-3" d="M61.53,32.72a1.38,1.38,0,0,1-2.76.13,1.38,1.38,0,0,1,1.32-1.44A1.37,1.37,0,0,1,61.53,32.72Z"/><path class="cls-3" d="M69.39,32.36a1.38,1.38,0,0,1-1.31,1.45A1.38,1.38,0,1,1,68,31.05,1.37,1.37,0,0,1,69.39,32.36Z"/><path class="cls-13" d="M61.05,37.68a10.76,10.76,0,0,0,6.57.8c-.47,1.75-1,3-3.54,2.82A3.13,3.13,0,0,1,61.05,37.68Z"/><path class="cls-14" d="M61,37.78a4.26,4.26,0,0,1,.62.26,8.89,8.89,0,0,1,3.55,3.22,5.07,5.07,0,0,1-1.13,0A3.12,3.12,0,0,1,61,37.78Z"/><path class="cls-2" d="M66.85,38.61a5.17,5.17,0,0,1-.23.8,7.69,7.69,0,0,1-5.56-.74,2.5,2.5,0,0,1,0-1A13,13,0,0,0,66.85,38.61Z"/><path class="cls-15" d="M48.56,32.45a5.81,5.81,0,0,0,.65,3.73,2.12,2.12,0,0,0,.63.94.7.7,0,0,0,1-.16c.16-.34-.08-.71-.26-1s-.29-.8,0-1c.14-.1.33-.09.49-.17.33-.18.33-.65.24-1a5.66,5.66,0,0,0-.56-1.45,1.45,1.45,0,0,0-1.14-.9C49.1,31.41,48.71,31.94,48.56,32.45Z"/><path class="cls-3" d="M50.6,30.36a6.19,6.19,0,0,1,2.06,3.81h1.18V29.64s3.58-1,2.22-6.25-6.69,0-6.69,0Z"/><path class="cls-3" d="M60.83,22.3a9,9,0,0,1-8.62.59c-4.8-2.18-4.77-5.38-4.77-5.38a11,11,0,0,0,7-3.33c2.85-3.16,11.15-6.37,17.41-2s4.29,10.71.54,11.79-5.87-1.53-6.82-1S63.16,24.19,60.83,22.3Z"/><path class="cls-16" d="M74.21,14.27a10.62,10.62,0,0,0-1.38-1.39,42.94,42.94,0,0,1-24.6,6.83,6.08,6.08,0,0,0,.57.77,14.6,14.6,0,0,0-2.06,1.28,29.57,29.57,0,0,0,10.89.59A29.65,29.65,0,0,0,74.21,14.27Z"/></g></g></svg>