<svg xmlns="http://www.w3.org/2000/svg" xmlns:xlink="http://www.w3.org/1999/xlink" viewBox="0 0 78.01 85.74"><defs><style>.cls-1{fill:#fbc0a4;}.cls-2{fill:#302624;}.cls-3{fill:#3e3533;}.cls-4{fill:#f8e8d8;}.cls-5{fill:url(#linear-gradient);}.cls-6{fill:#330e00;}.cls-7{fill:url(#linear-gradient-2);}.cls-8{fill:url(#linear-gradient-3);}.cls-9{fill:#f69d7d;}.cls-10{fill:#f84511;}.cls-11{fill:#f6876e;}.cls-12{fill:url(#radial-gradient);}.cls-13{fill:url(#radial-gradient-2);}.cls-14{fill:url(#linear-gradient-4);}.cls-15{fill:url(#linear-gradient-5);}.cls-16{fill:none;}</style><linearGradient id="linear-gradient" x1="57.73" y1="63.85" x2="61.68" y2="58.66" gradientUnits="userSpaceOnUse"><stop offset="0" stop-color="#302624" stop-opacity="0.5"/><stop offset="0.24" stop-color="#302624" stop-opacity="0.36"/><stop offset="0.99" stop-color="#302624" stop-opacity="0"/></linearGradient><linearGradient id="linear-gradient-2" x1="38.23" y1="61.63" x2="39.9" y2="80.98" xlink:href="#linear-gradient"/><linearGradient id="linear-gradient-3" x1="39.9" y1="46.76" x2="49.86" y2="73.96" gradientUnits="userSpaceOnUse"><stop offset="0" stop-color="#cfd4d8"/><stop offset="0.33" stop-color="#cfd4d8" stop-opacity="0.63"/><stop offset="0.65" stop-color="#cfd4d8" stop-opacity="0.29"/><stop offset="0.88" stop-color="#cfd4d8" stop-opacity="0.08"/><stop offset="1" stop-color="#cfd4d8" stop-opacity="0"/></linearGradient><radialGradient id="radial-gradient" cx="-1533.29" cy="105.36" r="2.76" gradientTransform="matrix(-1, 0.05, 0.05, 1, -1505.26, -7.09)" gradientUnits="userSpaceOnUse"><stop offset="0" stop-color="#f69d7d" stop-opacity="0.7"/><stop offset="0.14" stop-color="#f69d7d" stop-opacity="0.63"/><stop offset="0.42" stop-color="#f69d7d" stop-opacity="0.44"/><stop offset="0.81" stop-color="#f69d7d" stop-opacity="0.15"/><stop offset="1" stop-color="#f69d7d" stop-opacity="0"/></radialGradient><radialGradient id="radial-gradient-2" cx="-1545.77" cy="105.36" r="2.76" xlink:href="#radial-gradient"/><linearGradient id="linear-gradient-4" x1="-1446.21" y1="25.12" x2="-1444.15" y2="23.97" gradientTransform="matrix(-1, 0, 0, 1, -1421.71, 0)" gradientUnits="userSpaceOnUse"><stop offset="0" stop-color="#f69d7d"/><stop offset="0.23" stop-color="#f69d7d" stop-opacity="0.93"/><stop offset="0.68" stop-color="#f69d7d" stop-opacity="0.75"/><stop offset="1" stop-color="#f69d7d" stop-opacity="0.6"/></linearGradient><linearGradient id="linear-gradient-5" x1="35.24" y1="14.28" x2="33.52" y2="5.84" gradientUnits="userSpaceOnUse"><stop offset="0" stop-color="#f8e8d8" stop-opacity="0.2"/><stop offset="0.41" stop-color="#f8e8d8" stop-opacity="0.13"/><stop offset="1" stop-color="#f8e8d8" stop-opacity="0"/></linearGradient></defs><title>regular_phoneРесурс 8</title><g id="Слой_2" data-name="Слой 2"><g id="OBJECTS"><path class="cls-1" d="M76.52,51.46c-.12-2.3-1.54-8.27-.63-9.49s2.49-2.76,1.47-4.29a1.65,1.65,0,0,1-.35-.93,2.15,2.15,0,0,1,.53-1.08,1.11,1.11,0,0,0,.21-1.13c-.22-.37-.73-.43-1-.74a1.36,1.36,0,0,1-.24-1,2.54,2.54,0,0,0-.06-1.1c-.69-1.74-3.69.81-4.35,1.38s-1.23,1.12-1.81,1.72c-.16.16-.73.58-.77.81L69,38.23l3.66,10.68Z"/><polygon class="cls-2" points="70.05 37.95 65.65 24.05 73.67 22.21 75.81 37.5 70.05 37.95"/><path class="cls-3" d="M71.69,36.58a.68.68,0,0,0,.85.48.69.69,0,1,0-.85-.48Z"/><polygon class="cls-4" points="67.82 24.58 68.17 25.22 71.29 24.54 71.38 23.88 72.94 23.56 74.15 35.18 69.78 35.48 66.85 24.82 67.82 24.58"/><polygon class="cls-3" points="70.71 23.94 68.34 24.41 68.45 24.79 70.77 24.15 70.71 23.94"/><path class="cls-1" d="M70.34,41.5s-3.72-3.08-3.49-4.24,5.34-3,5.6-1.54S70.05,38,70.05,38a5.89,5.89,0,0,1,3.63,5.24c0,.85-1.72,3.8-1.54,5C72.77,52.54,70.34,41.5,70.34,41.5Z"/><path class="cls-3" d="M47.69,43.07c3.31-.6,5,.08,6.07.67,1.66.88,14.58,17,14.58,17l.48-17.12S73.58,42,77,44c0,0,1.49,18.38.82,24.94-.45,4.35-2.54,6.3-5.48,6.93C68,76.77,54.83,63,54.83,63Z"/><path class="cls-5" d="M47.69,43.07c3.31-.6,5,.08,6.07.67,1.66.88,14.58,17,14.58,17l.48-17.12S73.58,42,77,44c0,0,1.49,18.38.82,24.94-.45,4.35-2.54,6.3-5.48,6.93C68,76.77,54.83,63,54.83,63Z"/><path class="cls-3" d="M25.65,25a3.32,3.32,0,0,0,2.06-.84c.62-.76-1.41-7-1.41-7a6,6,0,0,0,2-4c0-2.34-1.52-3.54-3.93-3.4s-5.88,3.35-5.88,3.35l1.77.91s.57,5.3,1.32,6.66S25.65,25,25.65,25Z"/><path class="cls-3" d="M21,14.66c.7,3.31,3,11.47,3,11.47l2.08-2.37L25.09,13.55Z"/><path class="cls-3" d="M25,85.74c0-1.53,0-2.42,0-2.42l1.76.18h.05l22.15,2.24Z"/><g id="_Группа_" data-name="&lt;Группа&gt;"><path class="cls-6" d="M51.51,85.74a18,18,0,0,0,3.28-2.55l0,0-.23-.81c-.13-.41-.21-.64-.21-.64l-3.68.15-5.26.22-9,.37H36.2l-9.26.38h-.1s0,.23-.11.66c0,.23-.09.52-.14.87h0a2.45,2.45,0,0,0,.24.32c.92.38,1.82.72,2.7,1h22Z"/></g><polygon class="cls-3" points="51.51 85.74 55.36 85.74 58.07 85.74 57.02 71.9 56.47 64.69 55.84 56.35 52.55 56.67 48.47 57.06 44.13 57.48 43.04 57.58 42.46 57.64 38.28 58.04 38.19 58.05 37.21 58.14 32.25 58.62 21.74 59.63 21.54 59.65 20.77 59.72 21.05 60.74 22.14 64.77 25.6 77.47 24.37 85.74 24.98 85.74 26.36 85.74 29.54 85.74 48.93 85.74 51.51 85.74"/><g id="_Группа_2" data-name="&lt;Группа&gt;"><g id="_Группа_3" data-name="&lt;Группа&gt;"><path class="cls-3" d="M51.51,85.74h3.85a15.7,15.7,0,0,0-.57-2.55c-.11-.38-.2-.63-.2-.63v-.21L55,74.52l.52-10.82.35-7.35c3.61-8.51-.5-11-3.42-12.21a31,31,0,0,0-3.55-1.23l-.39-.11a32.59,32.59,0,0,0-3.4-.72l-.3,0c-1.3-.2-2.61-.34-3.92-.41-.39,0-.77,0-1.15,0s-.84,0-1.26,0h0c-.88,0-1.77,0-2.64.09-.58,0-1.17.09-1.74.15-1.18.12-2.34.29-3.46.5-.92.16-1.82.36-2.69.59a27.89,27.89,0,0,0-9.65,4.25l-.4.34c-3.66,3.59,2.69,12.24,2.69,12.24l.39,1.2.48,1.5.75,2.35L27.4,81.11s-.22.73-.46,1.73c-.06.21-.11.43-.16.66s-.13.58-.18.88c-.1.45-.18.92-.24,1.36H51.51Z"/></g></g><path class="cls-7" d="M51.51,85.74h6.56L57,71.9c-.72.85-1.41,1.72-2.05,2.62a41.38,41.38,0,0,0-4.26,7.34c-.41.86-.77,1.74-1.1,2.63-1.43-.74-2.81-1.55-4.16-2.41A52.41,52.41,0,0,1,31.21,68.55c1.73,4.64,3.47,9.26,5.2,13.9l.18.49q-.2-.22-.39-.48c-4.09-5.07-10-16.5-14.46-22.83l-.32-.45c-.51-.71-1-1.35-1.47-1.9l1,3.58.44,1.56,4.21,15-1.23,8.27H51.51Z"/><path class="cls-2" d="M44.39,41a12.46,12.46,0,0,1,3.2.18c.5.31,1.73,3.87,2,4.44s-3.3,3.88-3.3,3.88,2.93,4.81,2.81,5.19-5.32,21.4-5.32,21.4S31.17,57.29,30.91,56.35s1.21-5.76,1.21-5.76-3.73-2.75-3.95-3.35-.71-4.43,0-4.91a18.39,18.39,0,0,1,2.93-.86Z"/><path class="cls-4" d="M31.1,42.37h0L38.36,61.1C41,68,44,60.78,44,60.78L44.82,41l-.76-.07Z"/><path class="cls-8" d="M43.85,47.32c.78-.18.81-2.6.81-2.6l.16-3.66,0-.05-.73-.07L32.12,42.26c0,.14-.44,1.14-.35,1.42.69,2,2.92,5,3.37,5s1.86-1.44,2-1.94c.27.24.74,1,1,1.23.14,3.56,0,8.25,0,12.58L43,73c.15.21.3.39.46.58L43.89,63q-2-7.65-4-15.28c.43-.59,1-1,1.41-1.61A3.76,3.76,0,0,0,43.85,47.32Z"/><g id="_Группа_4" data-name="&lt;Группа&gt;"><g id="_Группа_5" data-name="&lt;Группа&gt;"><path class="cls-1" d="M41.09,43a12.65,12.65,0,0,1-4.85,1c-1.94,0-1.16-1.08-1.8-1.25L28.17,28.27l11.34,5.12,0,.48Z"/></g></g><g id="_Группа_6" data-name="&lt;Группа&gt;"><g id="_Группа_7" data-name="&lt;Группа&gt;"><path class="cls-9" d="M38,38.45a11.51,11.51,0,0,1-3.48-1,23.69,23.69,0,0,1-3.09-1.69l-3.23-7.47,11.34,5.12,0,.48.82,4.8C39.56,38.59,38.77,38.54,38,38.45Z"/></g></g><path class="cls-10" d="M44,60.78,40,47.15l1.76-2-3-1.84-2.3,2.12,2.14,1.89a126.3,126.3,0,0,0-.2,13.76l5.06,13.06Z"/><g id="_Группа_8" data-name="&lt;Группа&gt;"><g id="_Группа_9" data-name="&lt;Группа&gt;"><path class="cls-4" d="M32.85,39.08s4.56,4.37,5.73,4.18,1.78-4.59,1.78-4.59,4.16,1.19,4.67,1.78S44.3,46.73,43.75,47c-1.16.58-4.63-3.3-5.26-2.81s-2.42,3.81-3,3.74-5.28-4.69-5-6.4S32.85,39.08,32.85,39.08Z"/></g></g><path class="cls-1" d="M24.08,20.56s-3.92-.89-3.37,3.79,3.93,4.77,4.93,5c0,0,1.86,8.33,12.14,7.53s8.59-8.75,8.51-14,.52-14.44-6.21-15.11S23.49,7.47,24.08,20.56Z"/><path class="cls-11" d="M40.71,29.45c0,.08-.22.32-.74.53a3.63,3.63,0,0,1-.95.25,4.81,4.81,0,0,1-1.2,0,4.56,4.56,0,0,1-1.17-.3,4.05,4.05,0,0,1-.86-.48c-.46-.34-.63-.62-.58-.7s.38.09.83.27a6.47,6.47,0,0,0,.83.3,7,7,0,0,0,1,.22,9.86,9.86,0,0,0,1.06.05q.49,0,.87-.09C40.34,29.43,40.66,29.36,40.71,29.45Z"/><path class="cls-9" d="M39,27.94c0-.1.33-.19.5-.63a1.25,1.25,0,0,0,.07-.78,4.87,4.87,0,0,0-.39-1c-.72-1.55-1.16-2.88-1-3s.9,1.12,1.61,2.68a3.68,3.68,0,0,1,.4,1.24,1.9,1.9,0,0,1,0,.63,1.6,1.6,0,0,1-.24.49,1,1,0,0,1-.64.44C39.08,28,39,28,39,27.94Z"/><path class="cls-3" d="M36,19.59c-.06.08-.35,0-.81-.16a5.06,5.06,0,0,0-1.79-.17,4.87,4.87,0,0,0-1.71.51l-.51.25c-.13.06-.22.09-.26.05s0-.12.07-.25a2.32,2.32,0,0,1,.42-.47,3.63,3.63,0,0,1,1.94-.79,3.57,3.57,0,0,1,2,.41C35.84,19.24,36,19.51,36,19.59Z"/><path class="cls-3" d="M40,19.41c-.07-.06.08-.37.49-.72a3.58,3.58,0,0,1,4-.38,2.47,2.47,0,0,1,.51.38c.1.12.14.2.11.24s-.12,0-.26,0l-.55-.16a5,5,0,0,0-1.77-.17,5.07,5.07,0,0,0-1.73.51C40.29,19.31,40,19.48,40,19.41Z"/><path class="cls-12" d="M34.05,28.28a2.76,2.76,0,1,1-2.88-2.63A2.76,2.76,0,0,1,34.05,28.28Z"/><path class="cls-13" d="M46.51,27.71a2.75,2.75,0,1,1-2.87-2.63A2.75,2.75,0,0,1,46.51,27.71Z"/><path class="cls-3" d="M35,22.93a1.38,1.38,0,0,1-1.31,1.44,1.38,1.38,0,1,1-.13-2.76A1.37,1.37,0,0,1,35,22.93Z"/><path class="cls-3" d="M42.87,22.57A1.37,1.37,0,0,1,41.56,24a1.38,1.38,0,1,1,1.31-1.44Z"/><path class="cls-14" d="M22.05,22.65a5.8,5.8,0,0,0,.64,3.73,2.06,2.06,0,0,0,.63.94.69.69,0,0,0,1-.16c.16-.33-.08-.71-.26-1s-.29-.8,0-1c.14-.09.33-.09.49-.17.33-.17.33-.65.24-1a5.45,5.45,0,0,0-.56-1.45c-.24-.44-.63-.9-1.14-.89S22.19,22.14,22.05,22.65Z"/><path class="cls-3" d="M24.08,20.56a6.19,6.19,0,0,1,2.06,3.81h1.18V19.84s3.59-1,2.23-6.25-6.7,0-6.7,0Z"/><path class="cls-4" d="M20.21,85.21c-.12.16-.24.34-.39.53H18.34l1.15-1.43Z"/><path class="cls-3" d="M21.63,60l-.58.75-.1.12,0,.06L12.49,71.74l8.28,12.61s-.2.33-.56.86c-.12.16-.24.34-.39.53H10.44C6,80.85-.08,73.94,0,72.92c.36-4.36,12.15-20.43,17.83-25.44l.4-.34,3.19,12,.12.47Z"/><path class="cls-3" d="M34.31,12.25a9,9,0,0,1-8.62.59c-4.79-2.17-4.77-5.38-4.77-5.38a10.94,10.94,0,0,0,7-3.32c2.85-3.16,11.15-6.37,17.41-2s4.29,10.72.54,11.79S40,12.37,39.09,13,36.65,14.14,34.31,12.25Z"/><path class="cls-15" d="M47.69,4.23a9.51,9.51,0,0,0-1.38-1.39,43,43,0,0,1-24.6,6.83,6.89,6.89,0,0,0,.57.77,16.21,16.21,0,0,0-2.06,1.27,29.59,29.59,0,0,0,10.89.6A29.74,29.74,0,0,0,47.69,4.23Z"/><line class="cls-16" x1="51.51" y1="85.74" x2="48.93" y2="85.74"/></g></g></svg>