<svg xmlns="http://www.w3.org/2000/svg" xmlns:xlink="http://www.w3.org/1999/xlink" viewBox="0 0 63.36 86.27"><defs><style>.cls-1{fill:#fbc0a4;}.cls-2{fill:#3e3533;}.cls-3{fill:url(#linear-gradient);}.cls-4{fill:#330e00;}.cls-5{fill:url(#linear-gradient-2);}.cls-6{fill:#302624;}.cls-7{fill:#f8e8d8;}.cls-8{fill:url(#linear-gradient-3);}.cls-9{fill:#f69d7d;}.cls-10{fill:#f84511;}.cls-11{fill:#f6876e;}.cls-12{fill:url(#radial-gradient);}.cls-13{fill:url(#radial-gradient-2);}.cls-14{fill:url(#linear-gradient-4);}.cls-15{fill:url(#linear-gradient-5);}.cls-16{fill:none;}</style><linearGradient id="linear-gradient" x1="56.96" y1="66.33" x2="66.86" y2="56.81" gradientUnits="userSpaceOnUse"><stop offset="0" stop-color="#302624" stop-opacity="0.5"/><stop offset="0.24" stop-color="#302624" stop-opacity="0.36"/><stop offset="0.99" stop-color="#302624" stop-opacity="0"/></linearGradient><linearGradient id="linear-gradient-2" x1="38.23" y1="61.63" x2="39.9" y2="80.98" xlink:href="#linear-gradient"/><linearGradient id="linear-gradient-3" x1="39.9" y1="46.76" x2="49.86" y2="73.96" gradientUnits="userSpaceOnUse"><stop offset="0" stop-color="#cfd4d8"/><stop offset="0.33" stop-color="#cfd4d8" stop-opacity="0.63"/><stop offset="0.65" stop-color="#cfd4d8" stop-opacity="0.29"/><stop offset="0.88" stop-color="#cfd4d8" stop-opacity="0.08"/><stop offset="1" stop-color="#cfd4d8" stop-opacity="0"/></linearGradient><radialGradient id="radial-gradient" cx="-1872.53" cy="113.08" r="2.76" gradientTransform="matrix(-1, 0.05, 0.05, 1, -1844.51, 0.63)" gradientUnits="userSpaceOnUse"><stop offset="0" stop-color="#f69d7d" stop-opacity="0.7"/><stop offset="0.14" stop-color="#f69d7d" stop-opacity="0.63"/><stop offset="0.42" stop-color="#f69d7d" stop-opacity="0.44"/><stop offset="0.81" stop-color="#f69d7d" stop-opacity="0.15"/><stop offset="1" stop-color="#f69d7d" stop-opacity="0"/></radialGradient><radialGradient id="radial-gradient-2" cx="-1885.01" cy="113.08" r="2.76" xlink:href="#radial-gradient"/><linearGradient id="linear-gradient-4" x1="-1785.64" y1="25.12" x2="-1783.58" y2="23.97" gradientTransform="matrix(-1, 0, 0, 1, -1761.13, 0)" gradientUnits="userSpaceOnUse"><stop offset="0" stop-color="#f69d7d"/><stop offset="0.23" stop-color="#f69d7d" stop-opacity="0.93"/><stop offset="0.68" stop-color="#f69d7d" stop-opacity="0.75"/><stop offset="1" stop-color="#f69d7d" stop-opacity="0.6"/></linearGradient><linearGradient id="linear-gradient-5" x1="35.24" y1="14.28" x2="33.53" y2="5.84" gradientUnits="userSpaceOnUse"><stop offset="0" stop-color="#f8e8d8" stop-opacity="0.2"/><stop offset="0.41" stop-color="#f8e8d8" stop-opacity="0.13"/><stop offset="1" stop-color="#f8e8d8" stop-opacity="0"/></linearGradient></defs><title>regularРесурс 10</title><g id="Слой_2" data-name="Слой 2"><g id="OBJECTS"><path class="cls-1" d="M61.59,85.74H54.38a19.23,19.23,0,0,1-.29-1.91,13.66,13.66,0,0,1-.07-2v-.1a23.29,23.29,0,0,0-.63-4.86c-.52-2.45-1.17-4.68-1.19-4.75-.17-.77.46-1.64,1.36-2.44a12.91,12.91,0,0,1,1.71-1.28c.5-.33,1-.62,1.42-.87.86-.49,1.5-.79,1.5-.79.5,2.4,1.53,2.46,3,16.42A20.89,20.89,0,0,0,61.59,85.74Z"/><path class="cls-2" d="M63.36,85.74H54.74l-.3-2.22h0l-.23-1.79-.5-3.8,0-1.52-.12-6.72-.24-13.09L53.1,44.48l.79.38,0,0c2.23,1.14,4.54,2.65,5,3.74s.48,1.14,3,26.46Z"/><path class="cls-3" d="M63.36,85.74H54.74l-.3-2.22h0l-.23-1.79-.5-3.8,0-1.52-.12-6.72-.24-13.09L53.1,44.48l.79.38,0,0c2.23,1.14,4.54,2.65,5,3.74s.48,1.14,3,26.46Z"/><path class="cls-2" d="M25.65,25a3.32,3.32,0,0,0,2.06-.84c.62-.76-1.4-7-1.4-7a6,6,0,0,0,2-4c0-2.34-1.52-3.54-3.92-3.4s-5.88,3.35-5.88,3.35l1.76.91s.57,5.3,1.32,6.66S25.65,25,25.65,25Z"/><path class="cls-2" d="M21,14.66c.71,3.31,3,11.47,3,11.47l2.08-2.37-1-10.21Z"/><path class="cls-2" d="M25,85.74c0-1.53,0-2.42,0-2.42l1.76.18h.06l22.14,2.24Z"/><path class="cls-4" d="M51.51,85.74a16.52,16.52,0,0,0,2.58-1.91,3.38,3.38,0,0,0,.35-.31h0a2.6,2.6,0,0,0,.35-.32l0,0c-.09-.32-.16-.59-.23-.81-.12-.41-.2-.64-.2-.64H54l-3.31.13-5.26.22-9,.37H36.2L27,82.84h-.11s0,.23-.11.66c0,.23-.09.52-.14.87h0c.13.19.24.32.24.32.92.37,1.82.72,2.7,1h22Z"/><polygon class="cls-2" points="51.51 85.74 54.38 85.74 54.74 85.74 55.36 85.74 58.08 85.74 57.02 71.9 56.69 67.53 55.84 56.35 53.32 56.59 48.47 57.06 44.13 57.48 43.04 57.58 42.46 57.64 38.28 58.04 38.2 58.05 37.21 58.14 32.26 58.62 21.74 59.63 21.55 59.65 20.77 59.72 21.05 60.75 22.09 64.57 25.6 77.47 24.38 85.74 24.98 85.74 26.37 85.74 29.54 85.74 48.93 85.74 51.51 85.74"/><g id="_Группа_" data-name="&lt;Группа&gt;"><path class="cls-2" d="M51.51,85.74h3.85a15.46,15.46,0,0,0-.57-2.55c-.12-.39-.2-.63-.2-.63v-.21L55,74.52l.3-6.12.57-12.05c3-7.1.65-10-1.91-11.47l0,0a12.4,12.4,0,0,0-1.47-.72,30.81,30.81,0,0,0-3.93-1.34,32.78,32.78,0,0,0-3.41-.72l-.3,0c-1.3-.2-2.61-.34-3.92-.41-.39,0-.77,0-1.15,0s-.84,0-1.25,0h0c-.89,0-1.77,0-2.65.09-.58,0-1.17.09-1.74.15-1.18.12-2.34.29-3.46.5-.91.16-1.8.36-2.67.59h0a27.68,27.68,0,0,0-9.66,4.25l-.4.34c-3.66,3.59,2.7,12.24,2.7,12.24l.39,1.2.4,1.26.77,2.39,5.32,16.54s-.22.73-.46,1.73c-.06.21-.11.43-.16.66s-.13.58-.19.88c-.09.45-.17.92-.23,1.36H51.51Z"/></g><path class="cls-5" d="M51.51,85.74h6.57L57,71.9c-.72.85-1.41,1.72-2.05,2.62-.45.62-.88,1.24-1.29,1.88-.1.16-.2.31-.29.47a38.66,38.66,0,0,0-2.68,5c-.41.86-.77,1.74-1.1,2.63-1.42-.74-2.81-1.55-4.16-2.41A52.41,52.41,0,0,1,31.21,68.55c1.73,4.64,3.47,9.26,5.2,13.9l.18.49q-.2-.22-.39-.48c-4.09-5.07-10-16.5-14.46-22.83-.1-.15-.2-.3-.31-.44-.52-.72-1-1.36-1.48-1.91l1,3.59.37,1.31L25.6,77.47l-1.22,8.27H51.51Z"/><path class="cls-6" d="M44.39,41a12.56,12.56,0,0,1,3.21.18c.49.31,1.72,3.87,2,4.44s-3.3,3.88-3.3,3.88,2.93,4.81,2.81,5.19-5.32,21.4-5.32,21.4S31.17,57.29,30.92,56.35s1.2-5.76,1.2-5.76-3.73-2.75-3.95-3.35-.7-4.43,0-4.91a18.46,18.46,0,0,1,2.94-.86Z"/><path class="cls-7" d="M31.11,42.37h0s3.86,10,7.25,18.73C41,68,44,60.78,44,60.78L44.82,41l-.75-.07Z"/><path class="cls-8" d="M43.86,47.32c.77-.18.81-2.6.81-2.6l.15-3.66,0-.05-.73-.07-12,1.32c.05.14-.43,1.14-.35,1.42.7,2,2.93,5,3.37,5s1.86-1.44,2-1.94c.28.24.75,1,1,1.23.15,3.56,0,8.25,0,12.58L43,73c.15.21.31.39.46.58L43.89,63q-2-7.65-4-15.28c.43-.59,1-1,1.41-1.61A3.76,3.76,0,0,0,43.86,47.32Z"/><g id="_Группа_2" data-name="&lt;Группа&gt;"><path class="cls-1" d="M41.09,43a12.61,12.61,0,0,1-4.85,1c-1.93,0-1.16-1.08-1.8-1.25L28.17,28.27l11.34,5.12,0,.48Z"/></g><g id="_Группа_3" data-name="&lt;Группа&gt;"><path class="cls-9" d="M38,38.45a11.49,11.49,0,0,1-3.49-1,24.36,24.36,0,0,1-3.09-1.69l-3.23-7.47,11.34,5.12,0,.48.82,4.8C39.57,38.59,38.77,38.54,38,38.45Z"/></g><path class="cls-10" d="M44,60.78,40,47.15l1.77-2-3-1.84-2.3,2.12,2.14,1.89a126.3,126.3,0,0,0-.2,13.76l5.07,13.06Z"/><g id="_Группа_4" data-name="&lt;Группа&gt;"><path class="cls-7" d="M32.85,39.08s4.56,4.37,5.73,4.18,1.78-4.59,1.78-4.59,4.17,1.19,4.67,1.78S44.3,46.73,43.75,47c-1.15.58-4.63-3.3-5.26-2.81s-2.42,3.81-3,3.74-5.29-4.69-5-6.4S32.85,39.08,32.85,39.08Z"/></g><path class="cls-1" d="M24.09,20.56s-3.92-.89-3.38,3.79,3.93,4.77,4.93,5c0,0,1.86,8.33,12.14,7.53s8.59-8.75,8.51-14,.52-14.44-6.21-15.11S23.49,7.47,24.09,20.56Z"/><path class="cls-11" d="M40.71,29.45c0,.08-.21.32-.73.53a3.85,3.85,0,0,1-.95.25,4.89,4.89,0,0,1-1.21,0,4.48,4.48,0,0,1-1.16-.3,3.61,3.61,0,0,1-.86-.48c-.46-.34-.63-.62-.58-.7s.37.09.82.27a7.07,7.07,0,0,0,.83.3,7.62,7.62,0,0,0,1,.22,9.86,9.86,0,0,0,1.06.05c.33,0,.63-.05.88-.09C40.34,29.43,40.67,29.36,40.71,29.45Z"/><path class="cls-9" d="M39,27.94c0-.1.33-.19.51-.63a1.25,1.25,0,0,0,.06-.78,4.87,4.87,0,0,0-.39-1c-.72-1.55-1.16-2.88-1-3s.9,1.12,1.62,2.68a3.9,3.9,0,0,1,.39,1.24,1.9,1.9,0,0,1,0,.63,1.4,1.4,0,0,1-.24.49,1,1,0,0,1-.64.44C39.08,28,39,28,39,27.94Z"/><path class="cls-2" d="M36,19.59c-.06.08-.35,0-.81-.16a5,5,0,0,0-1.79-.17,4.87,4.87,0,0,0-1.71.51l-.51.25c-.13.06-.22.09-.25.05s0-.12.06-.25a2.14,2.14,0,0,1,.43-.47,3.59,3.59,0,0,1,4-.38C35.84,19.24,36,19.51,36,19.59Z"/><path class="cls-2" d="M40,19.41c-.07-.06.08-.37.49-.72a3.6,3.6,0,0,1,4-.38,2.36,2.36,0,0,1,.5.38c.1.12.14.2.11.24s-.11,0-.25,0l-.55-.16a4.73,4.73,0,0,0-3.51.34C40.3,19.31,40,19.48,40,19.41Z"/><path class="cls-12" d="M34.05,28.28a2.76,2.76,0,1,1-2.88-2.63A2.76,2.76,0,0,1,34.05,28.28Z"/><path class="cls-13" d="M46.52,27.71a2.76,2.76,0,1,1-2.88-2.63A2.76,2.76,0,0,1,46.52,27.71Z"/><path class="cls-2" d="M35,22.93a1.38,1.38,0,1,1-2.76.12,1.37,1.37,0,0,1,1.31-1.44A1.39,1.39,0,0,1,35,22.93Z"/><path class="cls-2" d="M42.88,22.57a1.38,1.38,0,1,1-1.45-1.32A1.4,1.4,0,0,1,42.88,22.57Z"/><path class="cls-14" d="M22.05,22.65a5.74,5.74,0,0,0,.65,3.73,2,2,0,0,0,.63.94.68.68,0,0,0,1-.16c.16-.33-.07-.71-.26-1s-.29-.8,0-1c.15-.09.34-.09.49-.17.33-.17.33-.65.24-1a5.42,5.42,0,0,0-.55-1.45c-.25-.44-.64-.9-1.15-.89S22.2,22.14,22.05,22.65Z"/><path class="cls-2" d="M24.09,20.56a6.15,6.15,0,0,1,2.05,3.81h1.18V19.84s3.59-1,2.23-6.25-6.7,0-6.7,0Z"/><path class="cls-1" d="M19.47,86.22l0,0,0,0Z"/><path class="cls-7" d="M19.46,86.22h0l0,0Z"/><polygon class="cls-7" points="20.64 85.74 18.34 85.74 19.49 84.31 20.21 85.21 20.64 85.74"/><path class="cls-2" d="M19.46,86.22h0l0,0Z"/><path class="cls-2" d="M21.64,60l-.59.76-.1.12,0,.05L12.49,71.74l8.28,12.61s-.2.33-.56.86c-.12.16-.24.34-.39.53H10.44C6,80.85-.08,73.94,0,72.92c.36-4.36,12.16-20.43,17.83-25.44l.4-.34,3.2,12,.12.46Z"/><path class="cls-2" d="M34.31,12.25a9,9,0,0,1-8.62.59c-4.79-2.17-4.77-5.38-4.77-5.38a11,11,0,0,0,7-3.32c2.84-3.16,11.14-6.37,17.4-2s4.29,10.72.54,11.79S40,12.37,39.09,13,36.65,14.14,34.31,12.25Z"/><path class="cls-15" d="M47.69,4.23a9.94,9.94,0,0,0-1.37-1.39A43,43,0,0,1,21.71,9.67a7.05,7.05,0,0,0,.58.77,14.91,14.91,0,0,0-2.06,1.27,29.53,29.53,0,0,0,10.88.6A29.74,29.74,0,0,0,47.69,4.23Z"/><path class="cls-4" d="M19.47,86.22l0,0,0,0Z"/><line class="cls-16" x1="51.51" y1="85.74" x2="48.93" y2="85.74"/></g></g></svg>