<svg xmlns="http://www.w3.org/2000/svg" xmlns:xlink="http://www.w3.org/1999/xlink" viewBox="0 0 56.66 85.74"><defs><style>.cls-1{fill:url(#linear-gradient);}.cls-2{fill:#3e3533;}.cls-3{fill:#330e00;}.cls-4{fill:url(#linear-gradient-2);}.cls-5{fill:#302624;}.cls-6{fill:#f8e8d8;}.cls-7{fill:url(#linear-gradient-3);}.cls-8{fill:#fbc0a4;}.cls-9{fill:#f69d7d;}.cls-10{fill:#f84511;}.cls-11{fill:#f6876e;}.cls-12{fill:url(#radial-gradient);}.cls-13{fill:url(#radial-gradient-2);}.cls-14{fill:url(#linear-gradient-4);}.cls-15{fill:url(#linear-gradient-5);}.cls-16{fill:#3f3e3c;}.cls-17{fill:#f7beaa;}</style><linearGradient id="linear-gradient" x1="40.57" y1="65.14" x2="53.51" y2="52.7" gradientUnits="userSpaceOnUse"><stop offset="0" stop-color="#302624" stop-opacity="0.5"/><stop offset="0.24" stop-color="#302624" stop-opacity="0.36"/><stop offset="0.99" stop-color="#302624" stop-opacity="0"/></linearGradient><linearGradient id="linear-gradient-2" x1="29.46" y1="68.34" x2="31.13" y2="87.69" xlink:href="#linear-gradient"/><linearGradient id="linear-gradient-3" x1="30.54" y1="46.76" x2="40.5" y2="73.96" gradientUnits="userSpaceOnUse"><stop offset="0" stop-color="#cfd4d8"/><stop offset="0.33" stop-color="#cfd4d8" stop-opacity="0.63"/><stop offset="0.65" stop-color="#cfd4d8" stop-opacity="0.29"/><stop offset="0.88" stop-color="#cfd4d8" stop-opacity="0.08"/><stop offset="1" stop-color="#cfd4d8" stop-opacity="0"/></linearGradient><radialGradient id="radial-gradient" cx="-1692.68" cy="108.78" r="2.76" gradientTransform="matrix(-1, 0.05, 0.05, 1, -1674, -3.25)" gradientUnits="userSpaceOnUse"><stop offset="0" stop-color="#f69d7d" stop-opacity="0.7"/><stop offset="0.14" stop-color="#f69d7d" stop-opacity="0.63"/><stop offset="0.42" stop-color="#f69d7d" stop-opacity="0.44"/><stop offset="0.81" stop-color="#f69d7d" stop-opacity="0.15"/><stop offset="1" stop-color="#f69d7d" stop-opacity="0"/></radialGradient><radialGradient id="radial-gradient-2" cx="-1705.16" cy="108.78" r="2.76" xlink:href="#radial-gradient"/><linearGradient id="linear-gradient-4" x1="-1605.69" y1="25.12" x2="-1603.63" y2="23.97" gradientTransform="matrix(-1, 0, 0, 1, -1590.53, 0)" gradientUnits="userSpaceOnUse"><stop offset="0" stop-color="#f69d7d"/><stop offset="0.23" stop-color="#f69d7d" stop-opacity="0.93"/><stop offset="0.68" stop-color="#f69d7d" stop-opacity="0.75"/><stop offset="1" stop-color="#f69d7d" stop-opacity="0.6"/></linearGradient><linearGradient id="linear-gradient-5" x1="25.88" y1="14.28" x2="24.17" y2="5.84" gradientUnits="userSpaceOnUse"><stop offset="0" stop-color="#f8e8d8" stop-opacity="0.2"/><stop offset="0.41" stop-color="#f8e8d8" stop-opacity="0.13"/><stop offset="1" stop-color="#f8e8d8" stop-opacity="0"/></linearGradient></defs><title>reportРесурс 9</title><g id="Слой_2" data-name="Слой 2"><g id="OBJECTS"><path class="cls-1" d="M52.17,71.58c-2.15-21.84-2.25-22-2.62-23-.49-1.23-3.35-3-5.8-4.14l.6,33.38C46.87,75.69,49.66,73.77,52.17,71.58Z"/><path class="cls-2" d="M16.29,25a3.34,3.34,0,0,0,2.07-.84c.61-.76-1.41-7-1.41-7a6,6,0,0,0,1.95-4c0-2.34-1.52-3.54-3.92-3.4S9.1,13.14,9.1,13.14l1.76.91s.57,5.3,1.32,6.66S16.29,25,16.29,25Z"/><path class="cls-2" d="M11.66,14.66c.71,3.31,3,11.47,3,11.47l2.08-2.37-1-10.21Z"/><path class="cls-2" d="M39.58,85.74H15.63c0-1.53,0-2.42,0-2.42l1.75.18h.06L32.36,85Z"/><g id="_Группа_" data-name="&lt;Группа&gt;"><path class="cls-3" d="M45.48,83.16l0,0a18.41,18.41,0,0,1-3.28,2.54h-22c-.88-.32-1.78-.67-2.7-1a3.15,3.15,0,0,1-.23-.32h0c.05-.35.1-.64.13-.87.07-.43.11-.66.11-.66h.11l9.26-.38h.21l5.82-.24,3.22-.13,5.25-.22L45,81.71s.08.22.2.6h0Q45.35,82.67,45.48,83.16Z"/></g><polygon class="cls-2" points="48.72 85.74 15.02 85.74 15.81 80.44 16.25 77.47 14.29 70.26 12.79 64.77 12.79 64.74 11.42 59.72 12.39 59.63 13.85 59.49 22.9 58.62 27.86 58.14 28.84 58.05 28.93 58.04 33.11 57.64 33.68 57.58 34.77 57.48 37.51 57.21 39.11 57.06 43.97 56.59 46.49 56.35 47.67 71.9 47.9 75.01 47.91 75.01 48.72 85.74"/><g id="_Группа_2" data-name="&lt;Группа&gt;"><g id="_Группа_3" data-name="&lt;Группа&gt;"><path class="cls-2" d="M47.18,54.53c-.19.57-.42,1.18-.69,1.82l-.87,18.18h0l-.12,2.37-.26,5.4h0v.24s.09.25.21.64A16.76,16.76,0,0,1,46,85.74H17c.06-.44.14-.91.24-1.36.05-.3.12-.6.18-.88s.1-.45.16-.66c.24-1,.46-1.73.46-1.73l-.42-1.32-3.09-9.58-1.75-5.44v0l-.74-2.28v0l-.87-2.7S5.34,51.79,8.08,48h0a3.61,3.61,0,0,1,.8-.81,27.89,27.89,0,0,1,9.65-4.25c.87-.23,1.77-.43,2.69-.59,1.12-.22,2.28-.38,3.45-.5.58-.06,1.16-.11,1.75-.15.87-.06,1.76-.09,2.64-.09h0c.42,0,.85,0,1.26,0l1.15,0a39.24,39.24,0,0,1,3.91.41h0l.3,0a32.59,32.59,0,0,1,3.4.72,31,31,0,0,1,3.94,1.34,11.64,11.64,0,0,1,1.51.74l.11.06C47,46.3,49,48.83,47.18,54.53Z"/></g></g><path class="cls-4" d="M48.72,85.74H15l.79-5.3.44-3-2-7.19h0L12.75,65h0l-.7-2.48v0L10.6,57.28c.56.66,1.16,1.45,1.79,2.35.36.51.73,1.06,1.1,1.63,1.57,2.37,3.26,5.21,5,8.08s3.4,5.76,5,8.27a52.6,52.6,0,0,0,3.37,4.85q.2.26.39.48l-.18-.49c-.8-2.11-1.58-4.22-2.37-6.33-.08-.2-.16-.41-.23-.61l-.66-1.77c-.2-.53-.4-1-.59-1.58-.32-.84-.63-1.68-.94-2.52-.14-.35-.27-.71-.4-1.06,0,0,0,0,0,0l0,0,.75,1,.58.75c.47.6.93,1.17,1.43,1.74h0c.6.71,1.23,1.4,1.87,2.07l.12.12a50.89,50.89,0,0,0,6.63,5.82c.92.69,1.86,1.35,2.83,2,1.34.86,2.73,1.67,4.15,2.41.33-.89.7-1.77,1.1-2.63a40.66,40.66,0,0,1,3-5.46c.41-.63.83-1.25,1.29-1.86h0c.64-.9,1.33-1.78,2.05-2.63L47.91,75Z"/><path class="cls-5" d="M35,41a12.56,12.56,0,0,1,3.21.18c.49.31,1.73,3.87,2,4.44s-3.3,3.88-3.3,3.88,2.93,4.81,2.81,5.19-5.31,21.4-5.31,21.4S21.82,57.29,21.56,56.35s1.2-5.76,1.2-5.76-3.72-2.75-4-3.35-.7-4.43,0-4.91a18.46,18.46,0,0,1,2.94-.86Z"/><path class="cls-6" d="M21.75,42.37h0L29,61.1c2.67,6.9,5.62-.32,5.62-.32L35.46,41l-.75-.07Z"/><path class="cls-7" d="M34.5,47.32c.77-.18.81-2.6.81-2.6l.15-3.66,0-.05-.73-.07L22.76,42.26c0,.14-.43,1.14-.34,1.42.69,2,2.92,5,3.36,5s1.86-1.44,2-1.94c.28.24.75,1,1,1.23.15,3.56,0,8.25,0,12.58,2.07,5.34,4,10.32,4.84,12.46.15.21.3.39.45.58L34.54,63,30.49,47.76c.43-.59,1-1,1.41-1.61A3.78,3.78,0,0,0,34.5,47.32Z"/><g id="_Группа_4" data-name="&lt;Группа&gt;"><g id="_Группа_5" data-name="&lt;Группа&gt;"><path class="cls-8" d="M31.74,43a12.7,12.7,0,0,1-4.86,1c-1.93,0-1.15-1.08-1.8-1.25L18.81,28.27l11.34,5.12,0,.48Z"/></g></g><g id="_Группа_6" data-name="&lt;Группа&gt;"><g id="_Группа_7" data-name="&lt;Группа&gt;"><path class="cls-9" d="M28.62,38.45a11.43,11.43,0,0,1-3.48-1A23.81,23.81,0,0,1,22,35.74l-3.23-7.47,11.34,5.12,0,.48.82,4.8C30.21,38.59,29.41,38.54,28.62,38.45Z"/></g></g><path class="cls-10" d="M34.63,60.78l-4-13.63,1.77-2-3-1.84-2.29,2.12,2.13,1.89A124.93,124.93,0,0,0,29,61.1l5.06,13.06Z"/><g id="_Группа_8" data-name="&lt;Группа&gt;"><g id="_Группа_9" data-name="&lt;Группа&gt;"><path class="cls-6" d="M23.49,39.08s4.56,4.37,5.73,4.18S31,38.67,31,38.67s4.17,1.19,4.68,1.78-.74,6.28-1.29,6.56c-1.15.58-4.63-3.3-5.26-2.81s-2.42,3.81-3,3.74-5.29-4.69-5-6.4S23.49,39.08,23.49,39.08Z"/></g></g><path class="cls-8" d="M14.73,20.56s-3.92-.89-3.38,3.79,3.93,4.77,4.93,5c0,0,1.86,8.33,12.14,7.53s8.59-8.75,8.52-14,.51-14.44-6.22-15.11S14.13,7.47,14.73,20.56Z"/><path class="cls-11" d="M31.35,29.45c0,.08-.21.32-.73.53a3.74,3.74,0,0,1-.95.25,4.89,4.89,0,0,1-1.21,0,4.48,4.48,0,0,1-1.16-.3,3.61,3.61,0,0,1-.86-.48c-.46-.34-.63-.62-.58-.7s.37.09.82.27a7.8,7.8,0,0,0,.83.3,7.62,7.62,0,0,0,1,.22,10.1,10.1,0,0,0,1.06.05c.33,0,.63-.05.88-.09C31,29.43,31.31,29.36,31.35,29.45Z"/><path class="cls-9" d="M29.62,27.94c0-.1.33-.19.51-.63a1.25,1.25,0,0,0,.06-.78,4.87,4.87,0,0,0-.39-1c-.71-1.55-1.15-2.88-1-3s.9,1.12,1.62,2.68a3.9,3.9,0,0,1,.39,1.24,1.9,1.9,0,0,1,0,.63,1.59,1.59,0,0,1-.23.49,1,1,0,0,1-.65.44C29.72,28,29.63,28,29.62,27.94Z"/><path class="cls-2" d="M26.63,19.59c-.06.08-.35,0-.8-.16a5.12,5.12,0,0,0-1.8-.17,4.94,4.94,0,0,0-1.71.51l-.51.25c-.13.06-.22.09-.25.05s0-.12.06-.25a2.43,2.43,0,0,1,.43-.47A3.56,3.56,0,0,1,24,18.56,3.61,3.61,0,0,1,26,19C26.48,19.24,26.69,19.51,26.63,19.59Z"/><path class="cls-2" d="M30.6,19.41c-.06-.06.08-.37.49-.72a3.6,3.6,0,0,1,4-.38,2.36,2.36,0,0,1,.5.38c.1.12.14.2.11.24s-.11,0-.25,0l-.55-.16a4.73,4.73,0,0,0-3.51.34C30.94,19.31,30.68,19.48,30.6,19.41Z"/><path class="cls-12" d="M24.69,28.28a2.76,2.76,0,1,1-2.88-2.63A2.76,2.76,0,0,1,24.69,28.28Z"/><path class="cls-13" d="M37.16,27.71a2.76,2.76,0,1,1-2.88-2.63A2.76,2.76,0,0,1,37.16,27.71Z"/><path class="cls-2" d="M25.66,22.93a1.38,1.38,0,0,1-2.76.12,1.38,1.38,0,1,1,2.76-.12Z"/><path class="cls-2" d="M33.52,22.57a1.38,1.38,0,1,1-1.45-1.32A1.38,1.38,0,0,1,33.52,22.57Z"/><path class="cls-14" d="M12.69,22.65a5.74,5.74,0,0,0,.65,3.73,2,2,0,0,0,.63.94.69.69,0,0,0,1-.16c.16-.33-.08-.71-.27-1s-.29-.8,0-1c.15-.09.34-.09.49-.17.33-.17.33-.65.25-1a5.81,5.81,0,0,0-.56-1.45c-.25-.44-.64-.9-1.15-.89S12.84,22.14,12.69,22.65Z"/><path class="cls-2" d="M14.73,20.56a6.15,6.15,0,0,1,2.05,3.81H18V19.84s3.58-1,2.22-6.25-6.7,0-6.7,0Z"/><path class="cls-2" d="M25,12.25a9,9,0,0,1-8.62.59c-4.8-2.17-4.78-5.38-4.78-5.38a11,11,0,0,0,7-3.32C21.46,1,29.75-2.23,36,2.11s4.3,10.72.55,11.79-5.88-1.53-6.83-1S27.29,14.14,25,12.25Z"/><path class="cls-15" d="M38.33,4.23A9.94,9.94,0,0,0,37,2.84,43,43,0,0,1,12.35,9.67a7.05,7.05,0,0,0,.58.77,14.91,14.91,0,0,0-2.06,1.27,29.53,29.53,0,0,0,10.88.6A29.74,29.74,0,0,0,38.33,4.23Z"/><path class="cls-16" d="M33.64,71.83s-2.13-8.47-1.22-8.8,3.13,9.9,3.13,9.9Z"/><path class="cls-17" d="M33.54,69.32C32,68,29.4,69.25,24,69.51c-.54,0-1.14.07-1.78.13,0,1.57-.08,3.15,0,4.71,1.38-.68,2.59-1,3.41-.57a14,14,0,0,0,5.78,1.52s.21,1.74,1.27,2,2.54-1.18,3.21-1.46S35.09,70.65,33.54,69.32Z"/><polygon class="cls-6" points="23.21 68.9 26.63 68.72 26.63 74.95 23.21 75.83 23.21 68.9"/><polygon class="cls-6" points="56.66 55.98 55.27 63.32 55.27 63.33 52.9 75.79 52.9 75.8 51.01 85.74 32.23 85.74 32.36 85.01 32.88 82.21 33.27 80.11 33.82 77.14 34.1 75.61 34.1 75.6 34.69 72.44 34.9 71.33 34.9 71.32 35.02 70.64 35.02 70.63 37.51 57.21 38.26 53.17 39.13 53.3 43.92 54.04 47.18 54.53 50.51 55.04 56.66 55.98"/><path class="cls-17" d="M55.08,63.31c-2.66-.08-4.82,6.76-3.3,6.83s-1.15,2.8.35,3c1.93.28-1.22,2.16-.35,2.71,1.45.93,4.5-3.43,3.3-4.69s1.27-2.27.27-3.52S56.87,63.36,55.08,63.31Z"/><path class="cls-2" d="M8.08,48C6,49.73-.47,74.63,0,77s3.09,6.21,6.42,6.12,18.24-5.93,18.24-5.93L24.6,68l-13,2.89L14,58.75Z"/></g></g></svg>