<svg xmlns="http://www.w3.org/2000/svg" xmlns:xlink="http://www.w3.org/1999/xlink" viewBox="0 0 85.54 85.74"><defs><style>.cls-1{fill:#fbc0a4;}.cls-2{fill:#f8e8d8;}.cls-3{fill:#3e3533;}.cls-4{fill:url(#linear-gradient);}.cls-5{fill:#330e00;}.cls-6{fill:url(#linear-gradient-2);}.cls-7{fill:#302624;}.cls-8{fill:url(#linear-gradient-3);}.cls-9{fill:#f69d7d;}.cls-10{fill:#f84511;}.cls-11{fill:#f6876e;}.cls-12{fill:url(#radial-gradient);}.cls-13{fill:url(#radial-gradient-2);}.cls-14{fill:url(#linear-gradient-4);}.cls-15{fill:url(#linear-gradient-5);}.cls-16{fill:#e58c7a;}.cls-17{fill:#b0b0d2;}.cls-18{fill:#cfd4d8;}.cls-19{fill:#ffbd9b;}.cls-20{fill:none;}</style><linearGradient id="linear-gradient" x1="55.96" y1="62.86" x2="59.54" y2="60.14" gradientUnits="userSpaceOnUse"><stop offset="0" stop-color="#302624" stop-opacity="0.5"/><stop offset="0.24" stop-color="#302624" stop-opacity="0.36"/><stop offset="0.99" stop-color="#302624" stop-opacity="0"/></linearGradient><linearGradient id="linear-gradient-2" x1="34.64" y1="61.63" x2="36.31" y2="80.98" xlink:href="#linear-gradient"/><linearGradient id="linear-gradient-3" x1="36.31" y1="46.76" x2="46.27" y2="73.96" gradientUnits="userSpaceOnUse"><stop offset="0" stop-color="#cfd4d8"/><stop offset="0.33" stop-color="#cfd4d8" stop-opacity="0.63"/><stop offset="0.65" stop-color="#cfd4d8" stop-opacity="0.29"/><stop offset="0.88" stop-color="#cfd4d8" stop-opacity="0.08"/><stop offset="1" stop-color="#cfd4d8" stop-opacity="0"/></linearGradient><radialGradient id="radial-gradient" cx="-2033.22" cy="116.66" r="2.76" gradientTransform="matrix(-1, 0.05, 0.05, 1, -2008.79, 4.37)" gradientUnits="userSpaceOnUse"><stop offset="0" stop-color="#f69d7d" stop-opacity="0.7"/><stop offset="0.14" stop-color="#f69d7d" stop-opacity="0.63"/><stop offset="0.42" stop-color="#f69d7d" stop-opacity="0.44"/><stop offset="0.81" stop-color="#f69d7d" stop-opacity="0.15"/><stop offset="1" stop-color="#f69d7d" stop-opacity="0"/></radialGradient><radialGradient id="radial-gradient-2" cx="-2045.7" cy="116.66" r="2.76" xlink:href="#radial-gradient"/><linearGradient id="linear-gradient-4" x1="-1946.41" y1="25.12" x2="-1944.35" y2="23.97" gradientTransform="matrix(-1, 0, 0, 1, -1925.49, 0)" gradientUnits="userSpaceOnUse"><stop offset="0" stop-color="#f69d7d"/><stop offset="0.23" stop-color="#f69d7d" stop-opacity="0.93"/><stop offset="0.68" stop-color="#f69d7d" stop-opacity="0.75"/><stop offset="1" stop-color="#f69d7d" stop-opacity="0.6"/></linearGradient><linearGradient id="linear-gradient-5" x1="31.65" y1="14.28" x2="29.94" y2="5.84" gradientUnits="userSpaceOnUse"><stop offset="0" stop-color="#f8e8d8" stop-opacity="0.2"/><stop offset="0.41" stop-color="#f8e8d8" stop-opacity="0.13"/><stop offset="1" stop-color="#f8e8d8" stop-opacity="0"/></linearGradient></defs><title>report_smileРесурс 11</title><g id="Слой_2" data-name="Слой 2"><g id="OBJECTS"><path class="cls-1" d="M68.92,53.71a17.85,17.85,0,0,0,1.23-2.55c1.93-4.9,1.63-3.85,1.58-5.69s-2.65-2.42-1.21-3.94,1.84,2.48,2.71,2.86,2.34-8.72,3.55-10,2.2.29.79,2.7a13.9,13.9,0,0,0-1.71,4.57s3.75-5.3,4.83-5.74,1.19,1.36.33,2.47-3.44,3.33-4,4.55c0,0,4.9-3.08,7-3.55s1.59,1.42.63,2-5.28,1.3-6.71,2.85c0,0,4.76-1.33,6.16-.33a1.34,1.34,0,0,1-.44,2.51c-1,.26-2.29-.64-3.72-1s-1.26-.08-1.93,2.08-.73,3.65-2.67,3.24C74,50.5,72.73,51,71.68,55A10.52,10.52,0,0,1,68.92,53.71Z"/><path class="cls-2" d="M68.15,53.44l1.73-3.71S74.7,52,75.81,53.44l-2,3.39Z"/><path class="cls-3" d="M50,45.08a7.65,7.65,0,0,1,3.85,4.16c1.24,3,4.31,19.41,4.31,19.41l10.5-17.56,7.17,4.33s-12.36,25-15.94,26.74-8.2-4.75-8.2-4.75l-.93-24.9Z"/><path class="cls-4" d="M50,45.08a7.65,7.65,0,0,1,3.85,4.16c1.24,3,4.31,19.41,4.31,19.41l10.5-17.56,7.17,4.33s-12.36,25-15.94,26.74-8.2-4.75-8.2-4.75l-.93-24.9Z"/><path class="cls-3" d="M22.06,25a3.32,3.32,0,0,0,2.06-.84c.62-.76-1.4-7-1.4-7a6,6,0,0,0,2-4c0-2.34-1.52-3.54-3.92-3.4s-5.88,3.35-5.88,3.35l1.76.91s.57,5.3,1.32,6.66S22.06,25,22.06,25Z"/><path class="cls-3" d="M17.43,14.66c.71,3.31,3,11.47,3,11.47l2.08-2.37-1-10.21Z"/><path class="cls-3" d="M26.65,85.74H45.34L28.28,84l-.73-.08-1.14-.11L23.2,83.5h-.06l-1.76-.18s0,.89,0,2.42h5.26Z"/><path class="cls-5" d="M26,85.74c-.88-.32-1.78-.67-2.7-1,0,0-.11-.13-.24-.32h0c.05-.35.1-.64.14-.87.07-.43.11-.66.11-.66h.11l2.9-.12,1.12,0,.71,0,4.52-.18h.21l9-.37,5.26-.22,3.69-.15s.08.23.2.64c.07.22.14.49.23.81l0,0a18,18,0,0,1-3.28,2.55H26Z"/><polygon class="cls-3" points="25.95 85.74 22.78 85.74 21.39 85.74 20.79 85.74 22.01 77.47 18.5 64.57 18.44 64.37 18.44 64.34 17.18 59.72 18.15 59.63 18.93 59.55 23.23 59.14 24.26 59.04 24.79 58.99 28.67 58.62 33.63 58.14 34.61 58.05 34.69 58.04 38.87 57.64 39.45 57.58 40.54 57.48 44.88 57.06 50.89 56.48 52.25 56.35 53.43 71.9 54.06 80.08 54.06 80.09 54.49 85.74 51.77 85.74 47.92 85.74 45.34 85.74 28.52 85.74 27.79 85.74 26.65 85.74 25.95 85.74"/><g id="_Группа_" data-name="&lt;Группа&gt;"><path class="cls-3" d="M26,85.74H22.78c.06-.44.14-.91.23-1.36.06-.3.12-.6.19-.88s.1-.45.16-.66c.24-1,.46-1.73.46-1.73L18.5,64.57l-.06-.2v0l-.71-2.16v0l-.78-2.43s-.14-.19-.36-.53c-.12-.16-.25-.36-.39-.58L15.81,58c-1.25-2.07-3.05-5.61-2.64-8.32a3.69,3.69,0,0,1,1.47-2.54,27.94,27.94,0,0,1,9.68-4.33c.86-.22,1.74-.42,2.64-.58,1.13-.21,2.28-.37,3.46-.48.57-.06,1.14-.1,1.72-.13h0c.87,0,1.74-.07,2.62,0h0l1.3,0,1.17.07a36.83,36.83,0,0,1,3.9.51l.29,0a32.9,32.9,0,0,1,3.55.89,27.87,27.87,0,0,1,2.82,1,13.26,13.26,0,0,1,2.14,1c2.32,1.35,5.18,4.38,2.27,11.25l-.77,16h0v.08l-.1,2.1L51,82.35v.21s.08.24.2.63a15.46,15.46,0,0,1,.57,2.55H26Z"/></g><path class="cls-3" d="M14.64,47.14c-4.34,4.82-5.33,27-5.33,27l7.87,2.43,2.08-20.24Z"/><path class="cls-6" d="M26,85.74H20.79L22,77.47l-3.6-12.86-.68-2.43v0l-.84-3-.17-.61-.18-.62-.17-.63c.16.18.31.37.47.58s.3.38.45.58.27.35.41.54l.46.65.67,1c1.8,2.67,3.81,6.05,5.81,9.43.47.78.93,1.56,1.39,2.34.28.46.56.92.83,1.38a86.51,86.51,0,0,0,5.76,8.71q.2.26.39.48l-.18-.49c-1.73-4.64-3.47-9.26-5.2-13.9A52.41,52.41,0,0,0,41.86,82.08c1.35.86,2.73,1.67,4.16,2.41.33-.89.7-1.77,1.1-2.63a41.38,41.38,0,0,1,4.26-7.34c0-.08.11-.15.17-.23.59-.82,1.22-1.62,1.88-2.39l.62,8.18.44,5.66H26Z"/><path class="cls-7" d="M40.8,41a12.56,12.56,0,0,1,3.21.18c.49.31,1.72,3.87,2,4.44s-3.3,3.88-3.3,3.88,2.93,4.81,2.81,5.19-5.32,21.4-5.32,21.4S27.58,57.29,27.33,56.35s1.2-5.76,1.2-5.76-3.73-2.75-4-3.35-.7-4.43,0-4.91a18.46,18.46,0,0,1,2.94-.86Z"/><path class="cls-2" d="M27.52,42.37h0s3.86,10,7.25,18.73c2.68,6.9,5.63-.32,5.63-.32L41.23,41l-.75-.07Z"/><path class="cls-8" d="M40.27,47.32c.77-.18.81-2.6.81-2.6l.15-3.66,0-.05-.72-.07L28.53,42.26c0,.14-.43,1.14-.35,1.42.7,2,2.93,5,3.37,5s1.86-1.44,2-1.94c.28.24.75,1,1,1.23.15,3.56,0,8.25,0,12.58L39.4,73c.15.21.31.39.46.58L40.3,63q-2-7.65-4-15.28c.43-.59,1-1,1.41-1.61A3.76,3.76,0,0,0,40.27,47.32Z"/><g id="_Группа_2" data-name="&lt;Группа&gt;"><path class="cls-1" d="M37.5,43a12.61,12.61,0,0,1-4.85,1c-1.93,0-1.16-1.08-1.8-1.25L24.58,28.27l11.34,5.12,0,.48Z"/></g><g id="_Группа_3" data-name="&lt;Группа&gt;"><path class="cls-9" d="M34.39,38.45a11.49,11.49,0,0,1-3.49-1,24.36,24.36,0,0,1-3.09-1.69l-3.23-7.47,11.34,5.12,0,.48.82,4.8C36,38.59,35.18,38.54,34.39,38.45Z"/></g><path class="cls-10" d="M40.4,60.78l-4-13.63,1.77-2-3-1.84-2.3,2.12L35,47.34a126.3,126.3,0,0,0-.2,13.76l5.07,13.06Z"/><g id="_Группа_4" data-name="&lt;Группа&gt;"><path class="cls-2" d="M29.26,39.08s4.56,4.37,5.73,4.18,1.78-4.59,1.78-4.59,4.17,1.19,4.67,1.78-.73,6.28-1.28,6.56c-1.15.58-4.63-3.3-5.26-2.81s-2.42,3.81-3,3.74-5.29-4.69-5-6.4S29.26,39.08,29.26,39.08Z"/></g><path class="cls-1" d="M20.5,20.56s-3.92-.89-3.38,3.79,3.93,4.77,4.93,5c0,0,1.86,8.33,12.14,7.53s8.59-8.75,8.51-14,.52-14.44-6.21-15.11S19.9,7.47,20.5,20.56Z"/><path class="cls-11" d="M36.66,29.19c0,.08-.19.31-.66.5a2.92,2.92,0,0,1-.87.21,3.75,3.75,0,0,1-1.1,0,4,4,0,0,1-1-.35,3.41,3.41,0,0,1-.74-.51c-.38-.36-.49-.64-.43-.7s.33.1.72.3a7,7,0,0,0,.71.32,5.45,5.45,0,0,0,.91.25,6.34,6.34,0,0,0,.94.09c.29,0,.55,0,.77,0C36.32,29.16,36.61,29.1,36.66,29.19Z"/><path class="cls-3" d="M32.34,22.74c-.13.14-.83-.39-1.81-.34a3.23,3.23,0,0,0-1.18.31l-.37.16c-.1,0-.17.06-.21,0s0-.1,0-.21a1.35,1.35,0,0,1,.28-.38,2.27,2.27,0,0,1,1.46-.6,1.73,1.73,0,0,1,.45,0,2.24,2.24,0,0,1,.41.1,1.91,1.91,0,0,1,.62.35C32.32,22.44,32.41,22.68,32.34,22.74Z"/><path class="cls-3" d="M40.12,22.13c-.13.14-.78-.3-1.64-.16a2.69,2.69,0,0,0-1,.4l-.31.2c-.08.05-.15.07-.19,0s0-.09,0-.19a1,1,0,0,1,.19-.4,1.84,1.84,0,0,1,1.26-.74,1.91,1.91,0,0,1,.42,0,1.78,1.78,0,0,1,.39.07,1.71,1.71,0,0,1,.59.28C40.1,21.84,40.19,22.07,40.12,22.13Z"/><path class="cls-9" d="M35.39,27.94c0-.1.33-.19.51-.63a1.25,1.25,0,0,0,.06-.78,4.87,4.87,0,0,0-.39-1c-.72-1.55-1.16-2.88-1-3s.9,1.12,1.62,2.68a3.9,3.9,0,0,1,.39,1.24,1.9,1.9,0,0,1,0,.63,1.4,1.4,0,0,1-.24.49,1,1,0,0,1-.64.44C35.49,28,35.39,28,35.39,27.94Z"/><path class="cls-3" d="M32.4,19.59c-.06.08-.35,0-.81-.16a5,5,0,0,0-1.79-.17,4.87,4.87,0,0,0-1.71.51l-.51.25c-.13.06-.22.09-.25.05s0-.12.06-.25a2.14,2.14,0,0,1,.43-.47,3.59,3.59,0,0,1,4-.38C32.25,19.24,32.45,19.51,32.4,19.59Z"/><path class="cls-3" d="M36.37,19.41c-.07-.06.08-.37.49-.72a3.6,3.6,0,0,1,4-.38,2.36,2.36,0,0,1,.5.38c.1.12.14.2.11.24s-.11,0-.25,0l-.55-.16a4.73,4.73,0,0,0-3.51.34C36.71,19.31,36.44,19.48,36.37,19.41Z"/><path class="cls-12" d="M30.46,28.28a2.76,2.76,0,1,1-2.88-2.63A2.76,2.76,0,0,1,30.46,28.28Z"/><path class="cls-13" d="M42.93,27.71a2.76,2.76,0,1,1-2.88-2.63A2.76,2.76,0,0,1,42.93,27.71Z"/><path class="cls-14" d="M18.46,22.65a5.74,5.74,0,0,0,.65,3.73,2,2,0,0,0,.62.94.69.69,0,0,0,1-.16c.16-.33-.07-.71-.26-1s-.29-.8,0-1c.15-.09.34-.09.49-.17.33-.17.33-.65.24-1a5.42,5.42,0,0,0-.55-1.45c-.25-.44-.64-.9-1.15-.89S18.61,22.14,18.46,22.65Z"/><path class="cls-3" d="M20.5,20.56a6.15,6.15,0,0,1,2.05,3.81h1.18V19.84s3.59-1,2.23-6.25-6.7,0-6.7,0Z"/><path class="cls-3" d="M30.72,12.25a9,9,0,0,1-8.62.59c-4.79-2.17-4.77-5.38-4.77-5.38a11,11,0,0,0,7.05-3.32c2.84-3.16,11.14-6.37,17.4-2s4.29,10.72.54,11.79-5.87-1.53-6.82-1S33.06,14.14,30.72,12.25Z"/><path class="cls-15" d="M44.1,4.23a9.94,9.94,0,0,0-1.37-1.39A43,43,0,0,1,18.12,9.67a7.05,7.05,0,0,0,.58.77,14.91,14.91,0,0,0-2.06,1.27,29.53,29.53,0,0,0,10.88.6A29.74,29.74,0,0,0,44.1,4.23Z"/><path class="cls-16" d="M2.27,76.64a.8.8,0,0,0-.53,0c-.41.17-.37.77-.24,1.2A19.13,19.13,0,0,0,3,81.54a2.76,2.76,0,0,0,1.25-2.69A2.75,2.75,0,0,0,2.27,76.64Z"/><polygon class="cls-17" points="26.65 85.74 27.79 85.74 28.52 85.74 28.28 84.02 28.09 82.64 26.85 73.75 24.79 58.99 24.49 56.83 19.14 57.55 16.83 57.86 16.53 57.91 15.81 58 10.9 58.67 0 60.14 3.03 76.99 3.56 79.93 3.73 80.86 3.73 80.87 4.6 85.74 5.4 85.74 5.84 85.74 6.26 85.74 20.79 85.74 21.39 85.74 22.78 85.74 25.95 85.74 26.65 85.74"/><polygon class="cls-18" points="26.65 85.74 27.79 85.74 27.55 83.94 27.38 82.67 26.02 72.37 24.26 59.04 24.05 57.44 19.07 58.18 17.28 58.44 16.71 58.53 16.19 58.61 10.78 59.41 0.85 60.88 4 78.06 4 78.07 4.26 79.52 4.26 79.54 4.26 79.57 4.29 79.69 5.4 85.74 5.84 85.74 6.26 85.74 20.79 85.74 21.39 85.74 22.78 85.74 25.95 85.74 26.65 85.74"/><polygon class="cls-2" points="26.65 85.74 26.41 83.83 26.26 82.72 24.63 70.03 23.23 59.14 23.08 57.96 19.02 58.73 17.69 58.98 16.88 59.14 16.58 59.19 10.64 60.32 2.05 61.95 4.86 79.63 4.87 79.63 5.84 85.74 6.26 85.74 20.79 85.74 21.39 85.74 22.78 85.74 25.95 85.74 26.65 85.74"/><path class="cls-19" d="M7.11,83.94c.07.66-.7,1.12-.85,1.77v0H2.12l-.24-2.08a3.92,3.92,0,0,1,.34-2.77,2.35,2.35,0,0,1,.3-.33,3.53,3.53,0,0,1,1-.63l.17-.07a4.16,4.16,0,0,1,.5-.16h.06a2.76,2.76,0,0,1,.57-.06h0l.27,0a1.14,1.14,0,0,1,.92,1c0,.49-.39.93-.33,1.41C5.82,82.85,7,83.14,7.11,83.94Z"/><line class="cls-20" x1="26.65" y1="85.74" x2="25.95" y2="85.74"/><line class="cls-20" x1="47.92" y1="85.74" x2="45.34" y2="85.74"/></g></g></svg>