<svg xmlns="http://www.w3.org/2000/svg" xmlns:xlink="http://www.w3.org/1999/xlink" viewBox="0 0 89.35 85.96"><defs><style>.cls-1{fill:#fbc0a4;}.cls-2{fill:#f8e8d8;}.cls-3{fill:#f69d7d;}.cls-4{fill:url(#linear-gradient);}.cls-5{fill:#3e3533;}.cls-6{fill:url(#linear-gradient-2);}.cls-7{fill:#330e00;}.cls-8{fill:url(#linear-gradient-3);}.cls-9{fill:#302624;}.cls-10{fill:url(#linear-gradient-4);}.cls-11{fill:#f84511;}.cls-12{fill:#cb4453;}.cls-13{fill:#dd5664;}.cls-14{fill:url(#radial-gradient);}.cls-15{fill:url(#radial-gradient-2);}.cls-16{fill:url(#linear-gradient-5);}.cls-17{fill:url(#linear-gradient-6);}</style><linearGradient id="linear-gradient" x1="139.42" y1="38.63" x2="157" y2="38.63" gradientTransform="matrix(-1, 0, 0, 1, 228.77, 0)" gradientUnits="userSpaceOnUse"><stop offset="0" stop-color="#5c251c"/><stop offset="0.19" stop-color="#61271e"/><stop offset="1" stop-color="#722f27"/></linearGradient><linearGradient id="linear-gradient-2" x1="46.75" y1="65.66" x2="53.08" y2="60.27" gradientUnits="userSpaceOnUse"><stop offset="0" stop-color="#302624" stop-opacity="0.5"/><stop offset="0.24" stop-color="#302624" stop-opacity="0.36"/><stop offset="0.99" stop-color="#302624" stop-opacity="0"/></linearGradient><linearGradient id="linear-gradient-3" x1="25.35" y1="61.63" x2="27.02" y2="80.98" xlink:href="#linear-gradient-2"/><linearGradient id="linear-gradient-4" x1="27.01" y1="46.76" x2="36.98" y2="73.96" gradientUnits="userSpaceOnUse"><stop offset="0" stop-color="#cfd4d8"/><stop offset="0.33" stop-color="#cfd4d8" stop-opacity="0.63"/><stop offset="0.65" stop-color="#cfd4d8" stop-opacity="0.29"/><stop offset="0.88" stop-color="#cfd4d8" stop-opacity="0.08"/><stop offset="1" stop-color="#cfd4d8" stop-opacity="0"/></linearGradient><radialGradient id="radial-gradient" cx="-2214.75" cy="120.58" r="2.76" gradientTransform="matrix(-1, 0.05, 0.05, 1, -2199.61, 8.72)" gradientUnits="userSpaceOnUse"><stop offset="0" stop-color="#f69d7d" stop-opacity="0.7"/><stop offset="0.14" stop-color="#f69d7d" stop-opacity="0.63"/><stop offset="0.42" stop-color="#f69d7d" stop-opacity="0.44"/><stop offset="0.81" stop-color="#f69d7d" stop-opacity="0.15"/><stop offset="1" stop-color="#f69d7d" stop-opacity="0"/></radialGradient><radialGradient id="radial-gradient-2" cx="-2227.23" cy="120.58" r="2.76" xlink:href="#radial-gradient"/><linearGradient id="linear-gradient-5" x1="-2128.03" y1="25.12" x2="-2125.97" y2="23.97" gradientTransform="matrix(-1, 0, 0, 1, -2116.41, 0)" gradientUnits="userSpaceOnUse"><stop offset="0" stop-color="#f69d7d"/><stop offset="0.23" stop-color="#f69d7d" stop-opacity="0.93"/><stop offset="0.68" stop-color="#f69d7d" stop-opacity="0.75"/><stop offset="1" stop-color="#f69d7d" stop-opacity="0.6"/></linearGradient><linearGradient id="linear-gradient-6" x1="22.35" y1="14.28" x2="20.64" y2="5.84" gradientUnits="userSpaceOnUse"><stop offset="0" stop-color="#f8e8d8" stop-opacity="0.2"/><stop offset="0.41" stop-color="#f8e8d8" stop-opacity="0.13"/><stop offset="1" stop-color="#f8e8d8" stop-opacity="0"/></linearGradient></defs><title>speachРесурс 12</title><g id="Слой_2" data-name="Слой 2"><g id="OBJECTS"><path class="cls-1" d="M68.89,60.27a10,10,0,0,1,1.93-2.44c.89-.64,2.32-.52,3.43-1.74s2.84,0,2.87-2.33-1-1.69.19-2.79-.68-2.22-.68-2.22,1.54-1.44,1-2.67-2.72-1.2-6.88.43c0,0-2.31-1.2-2.91-.43s0,7.68,0,7.68L65.4,58Z"/><path class="cls-2" d="M65.4,56.35l1.28-2s4,2.22,5.09,5.31l-2,1.36Z"/><path class="cls-3" d="M72.26,47.47a2.19,2.19,0,0,1,.61-.87L74,45.44a4.93,4.93,0,0,1,2.81,0,47,47,0,0,1-4.16,3A.75.75,0,0,1,72.26,47.47Z"/><path class="cls-3" d="M70.7,46.51c2.13,1.86,3.62,4.28,3.06,4.85s-3.06-1.24-3.06-1.24L71,52.2s2.55,1.38,3.4-.59S70.7,46.51,70.7,46.51Z"/><path class="cls-4" d="M71.85,47.55l-.08,0L88.42,29.34l.93,1.09L72.18,47.92A3.8,3.8,0,0,0,71.85,47.55Z"/><path class="cls-5" d="M43.13,47.34c.78,1.7,8.23,19.75,8.23,19.75s2.1-2.32,1.93,0L65.08,55s5.43,1.85,5.87,6.64c0,0-14.65,20.14-20,20.69S40.85,67.91,40.85,67.91Z"/><path class="cls-6" d="M43.13,47.34c.78,1.7,8.23,19.75,8.23,19.75s2.1-2.32,1.93,0L65.08,55s5.43,1.85,5.87,6.64c0,0-14.65,20.14-20,20.69S40.85,67.91,40.85,67.91Z"/><path class="cls-5" d="M12.77,25a3.32,3.32,0,0,0,2.06-.84c.62-.76-1.41-7-1.41-7a6,6,0,0,0,1.95-4c0-2.34-1.52-3.54-3.92-3.4s-5.88,3.35-5.88,3.35l1.76.91s.57,5.3,1.33,6.66S12.77,25,12.77,25Z"/><path class="cls-5" d="M8.13,14.66c.71,3.31,3,11.47,3,11.47l2.08-2.37-1-10.21Z"/><path class="cls-5" d="M12.09,85.74c0-1.53,0-2.42,0-2.42l1.76.18h.06l22.15,2.24Z"/><path class="cls-7" d="M42,83.16l0,0a18.41,18.41,0,0,1-3.28,2.54l-.37.22-2.21-.22H16.65c-.88-.32-1.78-.67-2.7-1l-.24-.31s0,0,0,0c.05-.35.1-.64.14-.87.07-.43.11-.66.11-.66h.11l9.26-.38h.21l9-.37,5.26-.22,3.69-.15s.08.22.2.6h0Q41.82,82.67,42,83.16Z"/><polygon class="cls-5" points="42.47 85.74 45.19 85.74 44.48 76.37 44.48 76.36 44.14 71.9 42.96 56.35 42.12 56.43 35.58 57.06 31.24 57.48 30.15 57.58 29.58 57.64 25.4 58.04 25.31 58.05 24.33 58.14 19.37 58.62 11.96 59.33 8.86 59.63 7.89 59.72 9.24 64.68 9.26 64.77 11.11 71.57 12.72 77.47 11.65 84.7 11.49 85.74 11.81 85.74 12.09 85.74 13.48 85.74 16.65 85.74 36.05 85.74 38.26 85.96 42.47 85.74"/><g id="_Группа_" data-name="&lt;Группа&gt;"><path class="cls-5" d="M42.47,85.74a16.76,16.76,0,0,0-.56-2.54c-.12-.39-.21-.64-.21-.64v-.24h0l.38-7.77h0l.14-2.93h0L43,56.35c1.28-3,1.45-5.31,1-7a5.6,5.6,0,0,0-.81-1.89s0,0,0-.06,0,0,0,0a8.9,8.9,0,0,0-4.59-3.21,28.6,28.6,0,0,0-2.81-1,30.67,30.67,0,0,0-3.55-.88,1.59,1.59,0,0,0-.3-.06A36.64,36.64,0,0,0,28,41.67l-1.18-.07q-.64,0-1.29,0h-.05c-.88,0-1.75,0-2.62,0h0c-.58,0-1.15.07-1.72.13-1.18.11-2.33.27-3.46.48-.9.16-1.78.36-2.64.58a27.88,27.88,0,0,0-9.67,4.33,3.24,3.24,0,0,0-.78.79C1.78,51.74,7.64,59.72,7.64,59.72l.87,2.7v0l.72,2.22,0,.09,1.91,5.93h0l3.35,10.4s-.22.73-.46,1.73c-.06.21-.11.43-.16.66s-.13.59-.19.89c-.09.45-.17.91-.23,1.35H36.05l2.21.22Z"/></g><path class="cls-8" d="M42.47,85.74h2.72l-.71-9.37h0l-.34-4.46c-.4.47-.79.95-1.17,1.43s-.6.8-.88,1.2h0a40.92,40.92,0,0,0-4.27,7.32c-.4.86-.77,1.74-1.1,2.63-1.43-.74-2.81-1.55-4.16-2.41A52.41,52.41,0,0,1,18.32,68.55l5.21,13.9.18.49q-.2-.22-.39-.48C20,78.39,15.58,70.23,11.65,63.9c-1-1.57-1.91-3-2.79-4.27-.63-.9-1.23-1.69-1.79-2.35l1.44,5.14v0l2.59,9.24,1.61,5.77L11.65,84.7l-.16,1H36.05l2.21.22Z"/><path class="cls-9" d="M31.5,41a12.54,12.54,0,0,1,3.21.18c.49.31,1.73,3.87,2,4.44s-3.3,3.88-3.3,3.88,2.92,4.81,2.8,5.19-5.31,21.4-5.31,21.4S18.29,57.29,18,56.35s1.21-5.76,1.21-5.76-3.73-2.75-4-3.35-.7-4.43,0-4.91a18.46,18.46,0,0,1,2.94-.86Z"/><path class="cls-2" d="M18.22,42.37h0L25.48,61.1c2.67,6.9,5.62-.32,5.62-.32L31.93,41l-.75-.07Z"/><path class="cls-10" d="M31,47.32c.77-.18.81-2.6.81-2.6l.15-3.66,0-.05-.73-.07L19.24,42.26c0,.14-.44,1.14-.35,1.42.69,2,2.92,5,3.36,5s1.87-1.44,2.05-1.94c.27.24.74,1,1,1.23.15,3.56,0,8.25,0,12.58,2.07,5.34,4,10.32,4.84,12.46.15.21.3.39.45.58L31,63q-2-7.65-4-15.28c.42-.59,1-1,1.4-1.61A3.78,3.78,0,0,0,31,47.32Z"/><g id="_Группа_2" data-name="&lt;Группа&gt;"><path class="cls-1" d="M28.21,43a12.7,12.7,0,0,1-4.86,1c-1.93,0-1.15-1.08-1.8-1.25L15.28,28.27l11.34,5.12,0,.48Z"/></g><g id="_Группа_3" data-name="&lt;Группа&gt;"><path class="cls-3" d="M25.09,38.45a11.43,11.43,0,0,1-3.48-1,23.81,23.81,0,0,1-3.1-1.69l-3.23-7.47,11.34,5.12,0,.48.82,4.8C26.68,38.59,25.88,38.54,25.09,38.45Z"/></g><path class="cls-11" d="M31.1,60.78l-4-13.63,1.77-2-3-1.84-2.29,2.12,2.13,1.89a128,128,0,0,0-.19,13.76l5.06,13.06Z"/><g id="_Группа_4" data-name="&lt;Группа&gt;"><path class="cls-2" d="M20,39.08s4.56,4.37,5.73,4.18,1.78-4.59,1.78-4.59,4.17,1.19,4.68,1.78-.74,6.28-1.29,6.56c-1.15.58-4.62-3.3-5.26-2.81s-2.42,3.81-3,3.74-5.29-4.69-5-6.4S20,39.08,20,39.08Z"/></g><path class="cls-1" d="M11.2,20.56s-3.92-.89-3.38,3.79,3.93,4.77,4.93,5c0,0,1.87,8.33,12.14,7.53s8.59-8.75,8.52-14,.51-14.44-6.22-15.11S10.6,7.47,11.2,20.56Z"/><path class="cls-12" d="M26.3,30.13A4.09,4.09,0,0,0,26,29.3a17.86,17.86,0,0,0-2.34-.13A3,3,0,0,0,23.46,31a2.76,2.76,0,0,0,.62,1.44,1.31,1.31,0,0,0,1.45.37C26.43,32.38,26.57,31.18,26.3,30.13Z"/><path class="cls-13" d="M23.42,30a3.22,3.22,0,0,1,1.45.64,4.46,4.46,0,0,1,1.3,1.56,1.36,1.36,0,0,1-.64.61,1.31,1.31,0,0,1-1.45-.37A2.76,2.76,0,0,1,23.46,31,4.19,4.19,0,0,1,23.42,30Z"/><path class="cls-2" d="M23.64,29.17c.05-.09.1-.18.16-.27.8-1.07,1.67-.57,2.17.4Z"/><path class="cls-3" d="M26.09,27.94c0-.1.33-.19.51-.63a1.25,1.25,0,0,0,.06-.78,4.38,4.38,0,0,0-.39-1c-.71-1.55-1.15-2.88-1-3s.9,1.12,1.62,2.68a3.9,3.9,0,0,1,.39,1.24,1.9,1.9,0,0,1,0,.63,1.39,1.39,0,0,1-.23.49,1,1,0,0,1-.65.44C26.19,28,26.1,28,26.09,27.94Z"/><path class="cls-5" d="M18.1,20c0-.09.35,0,.83,0a5,5,0,0,0,1.78-.22,5.22,5.22,0,0,0,1.57-.86l.44-.36c.11-.09.19-.13.23-.1s0,.11,0,.25a2,2,0,0,1-.31.55,3.6,3.6,0,0,1-3.79,1.23C18.32,20.33,18.07,20.11,18.1,20Z"/><path class="cls-5" d="M26.08,19.07s0-.12.05-.25a2.19,2.19,0,0,1,.38-.5,2.28,2.28,0,0,1,.82-.53,3.09,3.09,0,0,1,.54-.17,2.47,2.47,0,0,1,.29-.06l.28,0a3.62,3.62,0,0,1,2.07.36,1.92,1.92,0,0,1,.51.38c.11.1.14.19.12.23s-.12,0-.26,0l-.55-.14a5,5,0,0,0-1.79-.14l-.28,0-.25,0-.47.11a2.83,2.83,0,0,0-.72.31C26.42,19,26.15,19.15,26.08,19.07Z"/><path class="cls-14" d="M21.16,28.28a2.75,2.75,0,1,1-2.88-2.63A2.75,2.75,0,0,1,21.16,28.28Z"/><path class="cls-15" d="M33.63,27.71a2.76,2.76,0,1,1-2.88-2.63A2.76,2.76,0,0,1,33.63,27.71Z"/><path class="cls-5" d="M22.13,22.93a1.38,1.38,0,1,1-2.76.12,1.38,1.38,0,0,1,2.76-.12Z"/><path class="cls-5" d="M30,22.57a1.38,1.38,0,1,1-1.44-1.32A1.38,1.38,0,0,1,30,22.57Z"/><path class="cls-16" d="M9.16,22.65a5.74,5.74,0,0,0,.65,3.73,2,2,0,0,0,.63.94.69.69,0,0,0,1-.16c.16-.33-.08-.71-.27-1s-.29-.8,0-1c.14-.09.33-.09.48-.17.33-.17.33-.65.25-1a5.81,5.81,0,0,0-.56-1.45c-.25-.44-.64-.9-1.14-.89S9.31,22.14,9.16,22.65Z"/><path class="cls-5" d="M11.2,20.56a6.15,6.15,0,0,1,2.05,3.81h1.19V19.84s3.58-1,2.22-6.25-6.7,0-6.7,0Z"/><path class="cls-5" d="M21.43,12.25a9,9,0,0,1-8.62.59C8,10.67,8,7.46,8,7.46a11,11,0,0,0,7.05-3.32c2.85-3.16,11.15-6.37,17.41-2S36.78,12.83,33,13.9s-5.88-1.53-6.82-1S23.76,14.14,21.43,12.25Z"/><path class="cls-17" d="M34.81,4.23a10.63,10.63,0,0,0-1.38-1.39A43,43,0,0,1,8.82,9.67a7.05,7.05,0,0,0,.58.77,14.91,14.91,0,0,0-2.06,1.27,29.53,29.53,0,0,0,10.88.6A29.8,29.8,0,0,0,34.81,4.23Z"/><path class="cls-5" d="M1.17,85.74A80.88,80.88,0,0,1,0,74.16S.22,52.77,4.57,47.93l7.51,9.72L12,59.33l-.31,4.57-.48,6.8h0l-.06.86v.13l-.4,5.71c0,1.18.42,4,.94,7.29,0,.34.1.69.16,1Z"/><polygon class="cls-7" points="42.47 85.74 38.63 85.74 36.05 85.74 38.26 85.96 42.47 85.74"/></g></g></svg>