<svg xmlns="http://www.w3.org/2000/svg" xmlns:xlink="http://www.w3.org/1999/xlink" viewBox="0 0 94.83 86.27"><defs><style>.cls-1{fill:#fbc0a4;}.cls-2{fill:#f8e8d8;}.cls-3{fill:#f69d7d;}.cls-4{fill:#3e3533;}.cls-5{fill:url(#linear-gradient);}.cls-6{fill:#330e00;}.cls-7{fill:url(#linear-gradient-2);}.cls-8{fill:#302624;}.cls-9{fill:url(#linear-gradient-3);}.cls-10{fill:#f84511;}.cls-11{fill:#cb4453;}.cls-12{fill:#cfd4d8;}.cls-13{fill:url(#radial-gradient);}.cls-14{fill:url(#radial-gradient-2);}.cls-15{fill:url(#linear-gradient-4);}.cls-16{fill:url(#linear-gradient-5);}.cls-17{fill:none;}</style><linearGradient id="linear-gradient" x1="59.22" y1="65.79" x2="62.93" y2="63.24" gradientUnits="userSpaceOnUse"><stop offset="0" stop-color="#302624" stop-opacity="0.5"/><stop offset="0.24" stop-color="#302624" stop-opacity="0.36"/><stop offset="0.99" stop-color="#302624" stop-opacity="0"/></linearGradient><linearGradient id="linear-gradient-2" x1="38.24" y1="61.71" x2="39.94" y2="81.36" xlink:href="#linear-gradient"/><linearGradient id="linear-gradient-3" x1="39.9" y1="46.76" x2="49.86" y2="73.96" gradientUnits="userSpaceOnUse"><stop offset="0" stop-color="#cfd4d8"/><stop offset="0.33" stop-color="#cfd4d8" stop-opacity="0.63"/><stop offset="0.65" stop-color="#cfd4d8" stop-opacity="0.29"/><stop offset="0.88" stop-color="#cfd4d8" stop-opacity="0.08"/><stop offset="1" stop-color="#cfd4d8" stop-opacity="0"/></linearGradient><radialGradient id="radial-gradient" cx="-1840.82" cy="112.37" r="2.76" gradientTransform="matrix(-1, 0.05, 0.05, 1, -1812.8, -0.1)" gradientUnits="userSpaceOnUse"><stop offset="0" stop-color="#f69d7d" stop-opacity="0.7"/><stop offset="0.14" stop-color="#f69d7d" stop-opacity="0.63"/><stop offset="0.42" stop-color="#f69d7d" stop-opacity="0.44"/><stop offset="0.81" stop-color="#f69d7d" stop-opacity="0.15"/><stop offset="1" stop-color="#f69d7d" stop-opacity="0"/></radialGradient><radialGradient id="radial-gradient-2" cx="-1853.3" cy="112.37" r="2.76" xlink:href="#radial-gradient"/><linearGradient id="linear-gradient-4" x1="-1743.72" y1="25.12" x2="-1741.66" y2="23.97" gradientTransform="matrix(-1, 0, 0, 1, -1719.21, 0)" gradientUnits="userSpaceOnUse"><stop offset="0" stop-color="#f69d7d"/><stop offset="0.23" stop-color="#f69d7d" stop-opacity="0.93"/><stop offset="0.68" stop-color="#f69d7d" stop-opacity="0.75"/><stop offset="1" stop-color="#f69d7d" stop-opacity="0.6"/></linearGradient><linearGradient id="linear-gradient-5" x1="35.24" y1="14.28" x2="33.53" y2="5.84" gradientUnits="userSpaceOnUse"><stop offset="0" stop-color="#f8e8d8" stop-opacity="0.2"/><stop offset="0.41" stop-color="#f8e8d8" stop-opacity="0.13"/><stop offset="1" stop-color="#f8e8d8" stop-opacity="0"/></linearGradient></defs><title>swipРесурс 5</title><g id="Слой_2" data-name="Слой 2"><g id="OBJECTS"><path class="cls-1" d="M82.11,60.2A10.16,10.16,0,0,1,84,57.76c.9-.65,2.33-.52,3.44-1.74s2.84,0,2.87-2.33-1-1.7.18-2.79-1-2.95-1-2.95,5.9-2.71,5.32-4-5.08,1.63-10.87,2.44c0,0-2.32-1.21-2.91-.43s0,7.68,0,7.68L78.62,58Z"/><path class="cls-2" d="M78.62,56.28l1.28-2.05s4,2.23,5.09,5.32l-2,1.36Z"/><path class="cls-3" d="M83.92,46.44c2.13,1.86,3.62,4.27,3.06,4.85s-3.06-1.24-3.06-1.24l.28,2.08s2.54,1.38,3.4-.6S83.92,46.44,83.92,46.44Z"/><path class="cls-4" d="M56.43,47.24C57.21,48.94,64.57,67,64.57,67s2.1-2.32,1.94,0l11.78-12.1s5.44,1.84,5.87,6.64c0,0-14.64,20.14-20,20.68S54.06,67.83,54.06,67.83Z"/><path class="cls-5" d="M56.43,47.24C57.21,48.94,64.57,67,64.57,67s2.1-2.32,1.94,0l11.78-12.1s5.44,1.84,5.87,6.64c0,0-14.64,20.14-20,20.68S54.06,67.83,54.06,67.83Z"/><path class="cls-4" d="M25.65,25a3.32,3.32,0,0,0,2.06-.84c.62-.76-1.4-7-1.4-7a6,6,0,0,0,2-4c0-2.34-1.52-3.54-3.92-3.4s-5.88,3.35-5.88,3.35l1.76.91s.57,5.3,1.32,6.66S25.65,25,25.65,25Z"/><path class="cls-4" d="M21,14.66c.71,3.31,3,11.47,3,11.47l2.08-2.37-1-10.21Z"/><path class="cls-4" d="M53.77,86.22H25c0-1.83,0-2.9,0-2.9l1.76.18h.06L51.14,86h0Z"/><g id="_Группа_" data-name="&lt;Группа&gt;"><path class="cls-6" d="M54.83,83.15l0,0A18.75,18.75,0,0,1,51.15,86h0l-.47.26H30.92c-1.32-.44-2.68-1-4.08-1.52,0,0-.11-.14-.24-.33h0c.05-.34.1-.63.14-.86.07-.43.11-.66.11-.66H27l9.25-.38h.21l9-.37,5.26-.22,3.69-.15s.08.23.2.64C54.67,82.57,54.74,82.84,54.83,83.15Z"/></g><polygon class="cls-4" points="55.39 86.22 58.11 86.22 57.3 75.57 57.3 75.56 57.02 71.9 55.84 56.35 55.38 56.39 48.47 57.06 44.13 57.48 43.04 57.58 42.46 57.64 38.28 58.04 38.2 58.05 37.21 58.14 32.26 58.62 21.74 59.63 21.55 59.65 20.77 59.72 21.05 60.75 22.09 64.57 25.6 77.47 24.31 86.22 24.98 86.22 26.31 86.22 30.92 86.22 50.67 86.22 53.77 86.22 55.39 86.22"/><g id="_Группа_2" data-name="&lt;Группа&gt;"><g id="_Группа_3" data-name="&lt;Группа&gt;"><path class="cls-4" d="M55.39,86.22a13.11,13.11,0,0,0-.6-3c-.12-.39-.2-.63-.2-.63v-.21L55,74.52h0l.18-3.7.69-14.46c1.49-3.5,1.66-6,1.16-7.77a0,0,0,0,1,0,0,5.4,5.4,0,0,0-.52-1.22.16.16,0,0,0,0-.07,7.9,7.9,0,0,0-4-3.12,30.81,30.81,0,0,0-3.93-1.34,32.78,32.78,0,0,0-3.41-.72l-.3,0c-1.3-.2-2.61-.34-3.92-.41-.39,0-.77,0-1.15,0s-.87,0-1.3,0h0c-.87,0-1.73,0-2.59.09-.58,0-1.17.09-1.74.15-1.18.12-2.34.29-3.46.5-.91.16-1.8.36-2.67.59h0a27.68,27.68,0,0,0-9.66,4.25l-.4.34c-3.66,3.59,2.7,12.24,2.7,12.24l.39,1.2.42,1.31,0,.06.73,2.28,5.32,16.54s-.22.73-.46,1.73c-.06.21-.11.43-.16.66s-.13.57-.19.87a18.13,18.13,0,0,0-.29,1.85H55.39Z"/></g></g><path class="cls-7" d="M55.39,86.22h2.72L57.3,75.57h0L57,71.9q-.48.55-.93,1.14c-.39.48-.76,1-1.12,1.47h0a41.38,41.38,0,0,0-4.26,7.34c-.41.86-.77,1.74-1.1,2.63-1.42-.74-2.81-1.55-4.16-2.41A52.41,52.41,0,0,1,31.21,68.55c1.73,4.64,3.47,9.26,5.2,13.9l.18.49q-.2-.22-.39-.48c-4.08-5.07-10-16.5-14.46-22.83-.1-.16-.21-.31-.32-.46-.51-.71-1-1.35-1.47-1.9l1,3.6.38,1.36,0,.06L25.6,77.47l-1.29,8.75H55.39Z"/><path class="cls-8" d="M44.39,41a12.56,12.56,0,0,1,3.21.18c.49.31,1.72,3.87,2,4.44s-3.3,3.88-3.3,3.88,2.93,4.81,2.81,5.19-5.32,21.4-5.32,21.4S31.17,57.29,30.92,56.35s1.2-5.76,1.2-5.76-3.73-2.75-3.95-3.35-.7-4.43,0-4.91a18.67,18.67,0,0,1,2.94-.87Z"/><path class="cls-2" d="M31.11,42.37h0s3.86,10,7.25,18.73C41,68,44,60.78,44,60.78L44.82,41l-.75-.07Z"/><path class="cls-9" d="M43.86,47.32c.77-.18.81-2.6.81-2.6l.15-3.66,0-.05-.73-.07-12,1.32c.05.14-.43,1.14-.35,1.42.7,2,2.93,5,3.37,5s1.86-1.44,2-1.94c.28.24.75,1,1,1.23.15,3.56,0,8.25,0,12.58L43,73c.15.2.31.39.46.58L43.89,63q-2-7.65-4-15.28c.43-.59,1-1,1.41-1.61A3.76,3.76,0,0,0,43.86,47.32Z"/><g id="_Группа_4" data-name="&lt;Группа&gt;"><g id="_Группа_5" data-name="&lt;Группа&gt;"><path class="cls-1" d="M41.09,43a12.61,12.61,0,0,1-4.85,1c-1.93,0-1.16-1.08-1.8-1.25L28.17,28.27l11.34,5.12,0,.48Z"/></g></g><g id="_Группа_6" data-name="&lt;Группа&gt;"><g id="_Группа_7" data-name="&lt;Группа&gt;"><path class="cls-3" d="M38,38.45a11.49,11.49,0,0,1-3.49-1,24.36,24.36,0,0,1-3.09-1.69l-3.23-7.47,11.34,5.12,0,.48.82,4.8C39.57,38.59,38.77,38.54,38,38.45Z"/></g></g><path class="cls-10" d="M44,60.78,40,47.15l1.77-2-3-1.84-2.3,2.12,2.14,1.89a126.3,126.3,0,0,0-.2,13.76l5.07,13.06Z"/><g id="_Группа_8" data-name="&lt;Группа&gt;"><g id="_Группа_9" data-name="&lt;Группа&gt;"><path class="cls-2" d="M32.85,39.08s4.56,4.37,5.73,4.18,1.78-4.59,1.78-4.59,4.17,1.19,4.67,1.78S44.3,46.73,43.75,47c-1.15.58-4.63-3.3-5.26-2.81s-2.42,3.81-3,3.74-5.29-4.69-5-6.4S32.85,39.08,32.85,39.08Z"/></g></g><path class="cls-1" d="M24.09,20.56s-3.92-.89-3.38,3.79,3.93,4.77,4.93,5c0,0,1.86,8.33,12.14,7.53s8.59-8.75,8.51-14,.52-14.44-6.21-15.11S23.49,7.47,24.09,20.56Z"/><path class="cls-11" d="M35.09,27.8a10.8,10.8,0,0,0,6.46,1.44c-.64,1.69-1.32,2.85-3.8,2.46A3.13,3.13,0,0,1,35.09,27.8Z"/><path class="cls-2" d="M35,28.59a3.12,3.12,0,0,0,2.72,3.24,4,4,0,0,0,1.81-.17l.54-1.72L35.4,28.66A1.41,1.41,0,0,0,35,28.59Z"/><path class="cls-12" d="M35.32,28.87a4.75,4.75,0,0,0,2.31,1.42,9.24,9.24,0,0,0,2.22.33l.21-.68L36,28.81Z"/><path class="cls-2" d="M40.77,29.29a6.25,6.25,0,0,1-.31.77A7.7,7.7,0,0,1,35,28.78a2.68,2.68,0,0,1,.1-1A13.07,13.07,0,0,0,40.77,29.29Z"/><path class="cls-3" d="M39,27.94c0-.1.33-.19.51-.63a1.25,1.25,0,0,0,.06-.78,4.87,4.87,0,0,0-.39-1c-.72-1.55-1.16-2.88-1-3s.9,1.12,1.62,2.68a3.9,3.9,0,0,1,.39,1.24,1.9,1.9,0,0,1,0,.63,1.4,1.4,0,0,1-.24.49,1,1,0,0,1-.64.44C39.08,28,39,28,39,27.94Z"/><path class="cls-4" d="M36,19.59c-.06.08-.35,0-.81-.16a5,5,0,0,0-1.79-.17,4.87,4.87,0,0,0-1.71.51l-.51.25c-.13.06-.22.09-.25.05s0-.12.06-.25a2.14,2.14,0,0,1,.43-.47,3.59,3.59,0,0,1,4-.38C35.84,19.24,36,19.51,36,19.59Z"/><path class="cls-4" d="M40,19.41c-.07-.06.08-.37.49-.72a3.6,3.6,0,0,1,4-.38,2.36,2.36,0,0,1,.5.38c.1.11.14.2.11.24s-.11,0-.25,0l-.55-.16a4.73,4.73,0,0,0-3.51.34C40.3,19.31,40,19.48,40,19.41Z"/><path class="cls-13" d="M34.05,28.28a2.76,2.76,0,1,1-2.88-2.63A2.76,2.76,0,0,1,34.05,28.28Z"/><path class="cls-14" d="M46.52,27.71a2.76,2.76,0,1,1-2.88-2.63A2.76,2.76,0,0,1,46.52,27.71Z"/><path class="cls-4" d="M42.88,22.57a1.38,1.38,0,1,1-1.45-1.32A1.4,1.4,0,0,1,42.88,22.57Z"/><path class="cls-15" d="M22.05,22.65a5.74,5.74,0,0,0,.65,3.73,2,2,0,0,0,.62.94.69.69,0,0,0,1-.16c.16-.33-.07-.71-.26-1s-.29-.8,0-1c.15-.09.34-.09.49-.17.33-.17.33-.65.24-1a5.42,5.42,0,0,0-.55-1.45c-.25-.44-.64-.9-1.15-.89S22.2,22.14,22.05,22.65Z"/><path class="cls-4" d="M24.09,20.56a6.15,6.15,0,0,1,2.05,3.81h1.18V19.84s3.59-1,2.23-6.25-6.7,0-6.7,0Z"/><path class="cls-1" d="M19.46,86.22h0l0,0Z"/><path class="cls-2" d="M21,86.22H19.47l0,0,0,0H18l1.54-1.92.72.9Z"/><path class="cls-4" d="M21.64,60l-.59.76-.09.12,0,.05L12.49,71.74l8.28,12.61s-.2.33-.56.85c-.2.29-.45.64-.74,1l0,0,0,0H10.88C6.42,81.32-.09,74,0,72.92c.36-4.36,12.16-20.43,17.83-25.44l.4-.34,3.19,12,.13.48Z"/><path class="cls-4" d="M34.31,12.25a9,9,0,0,1-8.62.59c-4.79-2.17-4.77-5.38-4.77-5.38a11,11,0,0,0,7-3.32c2.84-3.16,11.14-6.37,17.4-2s4.29,10.72.54,11.79S40,12.37,39.09,13,36.65,14.14,34.31,12.25Z"/><path class="cls-16" d="M47.69,4.23a9.94,9.94,0,0,0-1.37-1.39A43,43,0,0,1,21.71,9.67a7.05,7.05,0,0,0,.58.77,14.91,14.91,0,0,0-2.06,1.27,29.53,29.53,0,0,0,10.88.6A29.74,29.74,0,0,0,47.69,4.23Z"/><path class="cls-4" d="M36.29,23.07c-.06.08-.31,0-.7-.17a6.2,6.2,0,0,0-.67-.19,7,7,0,0,0-.85-.11,7.48,7.48,0,0,0-.85,0,5.23,5.23,0,0,0-.69.14c-.38.1-.66.2-.71.12s.1-.32.51-.57a2.67,2.67,0,0,1,.76-.32,3.59,3.59,0,0,1,1-.12,3.7,3.7,0,0,1,1,.19,2.75,2.75,0,0,1,.73.38C36.21,22.74,36.35,23,36.29,23.07Z"/><path class="cls-4" d="M19.46,86.22h0l0,0Z"/><line class="cls-17" x1="55.39" y1="86.22" x2="53.77" y2="86.22"/></g></g></svg>