<svg xmlns="http://www.w3.org/2000/svg" viewBox="0 0 79.22 115.2"><defs><style>.cls-1{fill:#007ddc;}.cls-2,.cls-6{fill:none;}.cls-2{stroke:#005f99;stroke-miterlimit:10;stroke-width:0.72px;}.cls-3{fill:#289de5;}.cls-4{fill:#f3a396;}.cls-5{fill:#1a1a1a;}.cls-6{stroke:#d26665;stroke-linecap:round;stroke-linejoin:round;stroke-width:0.64px;}</style></defs><title>angryРесурс 4</title><g id="Слой_2" data-name="Слой 2"><g id="OBJECTS"><path class="cls-1" d="M25.74,76.17l-8.16,33.1v0l-1.45,5.91H0c3.09-12.91,7.81-32.85,9.72-42.39a8.17,8.17,0,0,1,5.65-6.23,8.07,8.07,0,0,1,2.36-.35,8,8,0,0,1,1.28.1A8.18,8.18,0,0,1,25.74,76.17Z"/><path class="cls-1" d="M11.22,115.2H1.82a7.82,7.82,0,0,1,4.7-1.58,8.48,8.48,0,0,1,1.22.1A7.67,7.67,0,0,1,11.22,115.2Z"/><path class="cls-1" d="M79.22,115.2H63.1l-1.44-5.86v0L53.48,76.17a8.17,8.17,0,0,1,.29-4.51,7.66,7.66,0,0,1,.6-1.3,8.15,8.15,0,0,1,5.83-4,8.16,8.16,0,0,1,3.67.26,8.16,8.16,0,0,1,5.63,6.22C71.41,82.35,76.13,102.29,79.22,115.2Z"/><path class="cls-1" d="M72.7,113.62a7.82,7.82,0,0,1,4.7,1.58H68a7.67,7.67,0,0,1,3.48-1.48A8.48,8.48,0,0,1,72.7,113.62Z"/><polygon class="cls-1" points="63.87 66.58 63.87 66.59 61.66 109.34 61.35 115.2 17.89 115.2 17.58 109.27 16.25 83.59 15.37 66.58 27.4 61.43 31.59 59.64 31.83 59.54 33.65 59.57 39.52 59.66 46.22 59.56 47.41 59.54 48.13 59.85 52.42 61.68 63.87 66.58"/><polyline class="cls-2" points="39.93 115.2 39.93 71.66 39.93 70.29"/><path class="cls-3" d="M38.4,76.54a.9.9,0,1,1-.9-.9A.89.89,0,0,1,38.4,76.54Z"/><path class="cls-3" d="M38.4,87.16a.9.9,0,1,1-.9-.9A.89.89,0,0,1,38.4,87.16Z"/><path class="cls-3" d="M38.4,97.77a.9.9,0,1,1-.9-.89A.9.9,0,0,1,38.4,97.77Z"/><circle class="cls-3" cx="37.5" cy="108.39" r="0.9"/><line class="cls-2" x1="17.57" y1="109.29" x2="16.25" y2="83.59"/><line class="cls-2" x1="61.65" y1="109.29" x2="62.97" y2="83.59"/><path class="cls-4" d="M39.86,69.14h0a8.27,8.27,0,0,1-8.27-8.27V43.27H48.13v17.6A8.27,8.27,0,0,1,39.86,69.14Z"/><path class="cls-5" d="M31.59,46.22s4.55,8.46,9.75,8.05c8-.64,6.7-10.61,6.7-10.61s-3.11,6.65-8,6.65A10.76,10.76,0,0,1,31.59,46.22Z"/><polygon class="cls-1" points="25.93 71.67 34.39 61.48 40.21 69.64 45.63 61.48 55.65 71.67 25.93 71.67"/><path class="cls-3" d="M39.93,69.15l-4-6.91a9,9,0,0,0-2.61-2.89l-2-1.43a1.34,1.34,0,0,0-1.44-.07l-2,1.16a1.32,1.32,0,0,0-.66,1.32l.83,6.44a.76.76,0,0,0,1.31.43l4.41-4.61a.57.57,0,0,1,.87.07l5.25,7.63Z"/><path class="cls-3" d="M39.93,69.15l3.94-6.91a9.06,9.06,0,0,1,2.62-2.89l2-1.43a1.32,1.32,0,0,1,1.43-.07l2,1.16a1.33,1.33,0,0,1,.65,1.32l-.83,6.44a.76.76,0,0,1-1.3.43L46,62.59a.56.56,0,0,0-.86.07l-5.25,7.63Z"/><path class="cls-5" d="M58.16,12.44c-.87-3.17-2.92-7.64-10.25-11C35.81-4,27.65,7.66,27.65,7.66c-3.26-.35-5,.9-5.74,3.84-.6,2.51.21,7.41.65,9.3L25,33.58,27.3,22.24c2.29-7.47,5.77-10.51,5.77-10.51l11.06-.88L55.86,32.5l2.28-12.81a21.45,21.45,0,0,0,.32-4.93A11.86,11.86,0,0,0,58.16,12.44Z"/><path class="cls-4" d="M55.56,29.88A3.56,3.56,0,0,1,60,28.71c3,1.13,1.62,8.35-2.84,9.27a3.51,3.51,0,0,1-2.85-.75S55.39,31.9,55.56,29.88Z"/><path class="cls-6" d="M59.39,31.26s-2.5-.83-4.26,2.83"/><path class="cls-6" d="M56.34,32.3s2.71,1.45.92,3.63"/><path class="cls-4" d="M25.12,29.88a3.55,3.55,0,0,0-4.41-1.17c-3,1.13-1.63,8.35,2.83,9.27a3.51,3.51,0,0,0,2.85-.75S25.29,31.9,25.12,29.88Z"/><path class="cls-6" d="M21.3,31.26s2.49-.83,4.25,2.83"/><path class="cls-6" d="M24.35,32.3s-2.72,1.45-.93,3.63"/><path class="cls-4" d="M55.86,23c0,4.36-.43,13.46-3.1,18.87-2.52,5.08-6.67,7.81-12.12,8s-9.51-1.94-12.76-8.52-3.1-18.24-3.1-18.24,0-15.55,15.37-15.55C56.34,7.55,55.86,23,55.86,23Z"/><path class="cls-5" d="M54.46,9.5c-.4.13-13.32-3.45-13.32-3.45L29.8,9.5h0c-10,2.7-5.57,12.14-5.57,12.14,4.1-2.1,3.8-6.42,4.57-9.53,1.82,2.38,8.77,6.73,17.31,6.56,8.76-.17,9.75-3.58,9.75-3.58S54.86,9.36,54.46,9.5Z"/><path class="cls-6" d="M39.22,27.28v6.94a1.08,1.08,0,0,0,.09.44,1.15,1.15,0,0,0,1.38.64L41.88,35"/><path class="cls-5" d="M34.71,27.84a1.45,1.45,0,1,1-1.45-1.45A1.45,1.45,0,0,1,34.71,27.84Z"/><path class="cls-5" d="M35.74,27.3l.71-2.66-5-1.13a2.87,2.87,0,0,0-1.87.22l-3.46,1.71,4.34.4Z"/><path class="cls-5" d="M43.49,24.22l-.71-2.67,5-1.12a2.81,2.81,0,0,1,1.87.22l3.46,1.71-4.34.4Z"/><path class="cls-5" d="M45,27.84a1.45,1.45,0,1,0,1.45-1.45A1.45,1.45,0,0,0,45,27.84Z"/><path class="cls-5" d="M39.13,37.9a8.62,8.62,0,0,1-1.74.71,11,11,0,0,1-1.78.36,9,9,0,0,1-1.8,0,8.52,8.52,0,0,1-1.73-.4A.43.43,0,0,1,31.8,38a.42.42,0,0,1,.47-.3h0a6.54,6.54,0,0,0,1.53.06,6.76,6.76,0,0,0,1.49-.28,8.45,8.45,0,0,0,1.39-.57,7.21,7.21,0,0,0,1.21-.77,1.06,1.06,0,0,1,1.38,1.62Z"/><path class="cls-5" d="M42.46,36.16a7.64,7.64,0,0,0,1.21.77,8.45,8.45,0,0,0,1.39.57,7,7,0,0,0,1.49.28,6.65,6.65,0,0,0,1.54-.06h0a.44.44,0,0,1,.19.85,8.22,8.22,0,0,1-1.73.4,9,9,0,0,1-1.8,0A10.68,10.68,0,0,1,43,38.61a8.69,8.69,0,0,1-1.75-.71,1.07,1.07,0,0,1,1-1.87A1.18,1.18,0,0,1,42.46,36.16Z"/><line class="cls-6" x1="35.99" y1="39.77" x2="43.93" y2="39.77"/></g></g></svg>