<svg xmlns="http://www.w3.org/2000/svg" viewBox="0 0 101.52 275.88"><defs><style>.cls-1{fill:#04162e;}.cls-2{fill:#fff;}.cls-3{fill:#1a1a1a;}.cls-10,.cls-4,.cls-7,.cls-9{fill:none;}.cls-4{stroke:#fff;stroke-width:0.46px;}.cls-10,.cls-4,.cls-9{stroke-linecap:round;stroke-linejoin:round;}.cls-5{fill:#007ddc;}.cls-6{fill:#f3a396;}.cls-7{stroke:#005f99;stroke-miterlimit:10;stroke-width:0.72px;}.cls-8{fill:#289de5;}.cls-10,.cls-9{stroke:#d26665;}.cls-9{stroke-width:0.5px;}.cls-10{stroke-width:0.37px;}</style></defs><title>notebookРесурс 1</title><g id="Слой_2" data-name="Слой 2"><g id="OBJECTS"><polygon class="cls-1" points="73.71 138.67 28.17 138.67 29.66 115.58 71.72 115.58 73.71 138.67"/><path class="cls-1" d="M28.17,138.4l-1.36,53.33a8.54,8.54,0,0,0,8.53,8.81h0a8.54,8.54,0,0,0,8.48-7.64l5.36-53.05A10.54,10.54,0,0,0,38.7,128.22h0A10.53,10.53,0,0,0,28.17,138.4Z"/><polygon class="cls-2" points="26.23 262.13 27.3 244.56 35.52 244.6 34.47 262.14 26.23 262.13"/><path class="cls-3" d="M25.6,262.13l-10.27,5.59-5.78,1.13a6.11,6.11,0,0,0-4.91,5.42l-.12,1.26,31.17.15.06-13.51Z"/><path class="cls-4" d="M21.28,264.81s1.94-6.14-.33-7.16C17.7,256.19,18.27,261.41,21.28,264.81Z"/><path class="cls-4" d="M21.21,264.77s4.94-4.14,6.75-2.43C30.55,264.79,25.5,266.26,21.21,264.77Z"/><polyline class="cls-2" points="35.81 275.88 4.4 275.74 4.41 272.97 35.83 273.11 35.81 275.88"/><path class="cls-1" d="M43.8,193.2,37,255H25l1.84-63a8.51,8.51,0,0,1,8.92-8.25h0A8.5,8.5,0,0,1,43.8,193.2Z"/><path class="cls-1" d="M73.63,138.4,75,191.73a8.53,8.53,0,0,1-8.53,8.81h0A8.54,8.54,0,0,1,58,192.9l-5.36-53.05A10.54,10.54,0,0,1,63.1,128.22h0A10.53,10.53,0,0,1,73.63,138.4Z"/><polygon class="cls-2" points="75.02 262.13 73.95 244.56 65.72 244.6 66.77 262.14 75.02 262.13"/><path class="cls-3" d="M75.64,262.13l10.28,5.59,5.78,1.13a6.1,6.1,0,0,1,4.9,5.42l.12,1.26-31.16.15-.06-13.51Z"/><path class="cls-4" d="M80,264.81s-2-6.14.32-7.16C83.54,256.19,83,261.41,80,264.81Z"/><path class="cls-4" d="M80,264.77s-4.93-4.14-6.74-2.43C70.7,264.79,75.74,266.26,80,264.77Z"/><polyline class="cls-2" points="65.43 275.88 96.85 275.74 96.84 272.97 65.42 273.11 65.43 275.88"/><path class="cls-1" d="M58,193.2,64.78,255h12L75,192A8.51,8.51,0,0,0,66,183.75h0A8.51,8.51,0,0,0,58,193.2Z"/><path class="cls-5" d="M20.87,61.16C18.7,72,12.93,96.18,10,108.33a7.8,7.8,0,0,0,5.43,9.33h0A7.81,7.81,0,0,0,25.18,112l11.71-47.5a8.19,8.19,0,0,0-6.73-9.84h0A8.18,8.18,0,0,0,20.87,61.16Z"/><path class="cls-6" d="M5.72,158.32h0A3.65,3.65,0,0,1,2.88,154l1.89-8.91a3.64,3.64,0,0,1,4.31-2.84h0a3.65,3.65,0,0,1,2.84,4.32L10,155.47A3.66,3.66,0,0,1,5.72,158.32Z"/><path class="cls-6" d="M11.77,157.59a5.28,5.28,0,0,0-1.72-2.45h0a3,3,0,0,0-2.44-3.67l-1.22-.2a3,3,0,0,0-3.47,2.31l0,.09a26.85,26.85,0,0,0-2.74,9.61c-.65,7.17,2.39,10.81,4.63,10.85s3.31-8.38,3.79-11.5L9.9,165.8a1,1,0,0,0,1.91-.26l.46-3.68A8.63,8.63,0,0,0,11.77,157.59Z"/><path class="cls-5" d="M10,108.28,0,149.08l15.17,4.14L25.33,111.5a7.85,7.85,0,0,0-6.44-9.43h0A7.84,7.84,0,0,0,10,108.28Z"/><path class="cls-5" d="M80.65,61.16c2.17,10.83,7.94,35,10.87,47.17a7.81,7.81,0,0,1-5.43,9.33h0A7.81,7.81,0,0,1,76.34,112L64.63,64.52a8.19,8.19,0,0,1,6.72-9.84h0A8.19,8.19,0,0,1,80.65,61.16Z"/><path class="cls-6" d="M95.8,158.32h0A3.65,3.65,0,0,0,98.64,154l-1.89-8.91a3.65,3.65,0,0,0-4.31-2.84h0a3.67,3.67,0,0,0-2.85,4.32l1.89,8.9A3.67,3.67,0,0,0,95.8,158.32Z"/><path class="cls-6" d="M89.75,157.59a5.32,5.32,0,0,1,1.71-2.45h0a3,3,0,0,1,2.45-3.67l1.22-.2a3,3,0,0,1,3.47,2.31l0,.09a27,27,0,0,1,2.73,9.61c.65,7.17-2.38,10.81-4.62,10.85s-3.31-8.38-3.8-11.5l-1.31,3.17a1,1,0,0,1-1,.61,1,1,0,0,1-.9-.87l-.46-3.68A8.51,8.51,0,0,1,89.75,157.59Z"/><path class="cls-5" d="M91.53,108.28l10,40.8-15.17,4.14L76.19,111.5a7.85,7.85,0,0,1,6.44-9.43h0A7.84,7.84,0,0,1,91.53,108.28Z"/><polygon class="cls-5" points="58.56 47.89 50.66 48.01 42.98 47.89 26.52 54.93 29.66 115.58 50.66 115.58 71.88 115.58 75.02 54.93 58.56 47.89"/><line class="cls-7" x1="51.08" y1="58.64" x2="51.08" y2="115.72"/><path class="cls-8" d="M49.55,64.88a.9.9,0,1,1-.9-.89A.9.9,0,0,1,49.55,64.88Z"/><path class="cls-8" d="M49.55,75.5a.9.9,0,1,1-.9-.89A.9.9,0,0,1,49.55,75.5Z"/><path class="cls-8" d="M49.55,86.12a.9.9,0,1,1-.9-.89A.9.9,0,0,1,49.55,86.12Z"/><circle class="cls-8" cx="48.65" cy="96.74" r="0.9"/><path class="cls-8" d="M49.55,107.36a.9.9,0,1,1-.9-.89A.9.9,0,0,1,49.55,107.36Z"/><line class="cls-7" x1="28.72" y1="97.64" x2="27.4" y2="71.94"/><line class="cls-7" x1="72.8" y1="97.64" x2="74.12" y2="71.94"/><path class="cls-6" d="M51,57.49h0a8.27,8.27,0,0,1-8.27-8.27V31.62H59.28v17.6A8.27,8.27,0,0,1,51,57.49Z"/><path class="cls-3" d="M42.74,34.57s4.55,8.46,9.75,8c8-.64,6.7-10.6,6.7-10.6s-3.12,6.65-8,6.65A10.76,10.76,0,0,1,42.74,34.57Z"/><polygon class="cls-5" points="37.08 60.01 45.54 49.83 51.36 57.99 56.78 49.83 66.8 60.01 37.08 60.01"/><path class="cls-8" d="M51.08,57.49l-3.95-6.9a9,9,0,0,0-2.61-2.89l-2-1.43a1.34,1.34,0,0,0-1.44-.07l-2,1.16a1.32,1.32,0,0,0-.66,1.32l.83,6.44a.77.77,0,0,0,1.31.43L45,50.94a.56.56,0,0,1,.87.07l5.25,7.63Z"/><path class="cls-8" d="M51.08,57.49,55,50.59a9.06,9.06,0,0,1,2.62-2.89l2-1.43a1.34,1.34,0,0,1,1.44-.07l2,1.16a1.33,1.33,0,0,1,.65,1.32l-.83,6.44a.76.76,0,0,1-1.3.43l-4.42-4.61a.55.55,0,0,0-.86.07l-5.25,7.63Z"/><path class="cls-3" d="M64.73,9.64c-.68-2.45-2.27-5.91-8-8.5-9.38-4.27-15.71,4.8-15.71,4.8-2.53-.27-3.9.7-4.45,3-.47,1.94.17,5.75.51,7.2L39,26l1.8-8.8c1.78-5.79,4.48-8.14,4.48-8.14l8.57-.68L63,25.2l1.77-9.93A16.89,16.89,0,0,0,65,11.45,9.25,9.25,0,0,0,64.73,9.64Z"/><path class="cls-6" d="M62.71,23.17a2.77,2.77,0,0,1,3.43-.91c2.3.88,1.26,6.48-2.2,7.19a2.73,2.73,0,0,1-2.21-.58S62.58,24.74,62.71,23.17Z"/><path class="cls-9" d="M65.68,24.24s-1.93-.65-3.3,2.2"/><path class="cls-9" d="M63.32,25.05s2.1,1.12.71,2.81"/><path class="cls-6" d="M39.11,23.17a2.76,2.76,0,0,0-3.42-.91c-2.31.88-1.26,6.48,2.19,7.19a2.75,2.75,0,0,0,2.22-.58S39.25,24.74,39.11,23.17Z"/><path class="cls-9" d="M36.15,24.24s1.93-.65,3.3,2.2"/><path class="cls-9" d="M38.51,25.05s-2.1,1.12-.71,2.81"/><path class="cls-6" d="M62.94,17.85c0,3.38-.33,10.44-2.4,14.63a10.32,10.32,0,0,1-9.4,6.18c-4.22.13-7.37-1.5-9.89-6.61s-2.4-14.14-2.4-14.14,0-12,11.91-12C63.32,5.86,62.94,17.85,62.94,17.85Z"/><path class="cls-3" d="M61.86,7.36c-.31.11-10.33-2.67-10.33-2.67L42.74,7.36v0c-7.73,2.09-4.32,9.41-4.32,9.41,3.18-1.63,2.94-5,3.55-7.39,1.4,1.85,6.79,5.21,13.42,5.09,6.79-.13,7.56-2.78,7.56-2.78S62.17,7.26,61.86,7.36Z"/><path class="cls-9" d="M50.05,21.15v5.38a.93.93,0,0,0,.06.34.89.89,0,0,0,1.07.5l.93-.24"/><path class="cls-3" d="M46.55,21.59a1.13,1.13,0,1,1-1.13-1.13A1.13,1.13,0,0,1,46.55,21.59Z"/><path class="cls-3" d="M47.68,18.88l0-2.14-4,.07a2.21,2.21,0,0,0-1.37.51L40.1,19.25l3.34-.5Z"/><path class="cls-3" d="M54.56,21.59a1.13,1.13,0,1,0,1.12-1.13A1.12,1.12,0,0,0,54.56,21.59Z"/><path class="cls-3" d="M53.42,18.88l0-2.14,4,.07a2.18,2.18,0,0,1,1.36.51L61,19.25l-3.34-.5Z"/><path class="cls-3" d="M50,29.39a6.85,6.85,0,0,1-1.35.55,8.1,8.1,0,0,1-1.37.27,6.18,6.18,0,0,1-2.74-.3.35.35,0,0,1-.21-.44.32.32,0,0,1,.37-.22h0A5.17,5.17,0,0,0,47,29.07a7.15,7.15,0,0,0,1.08-.43,6.36,6.36,0,0,0,.94-.61.82.82,0,1,1,1.06,1.26A.71.71,0,0,1,50,29.39Z"/><path class="cls-3" d="M52.56,28a6.24,6.24,0,0,0,.93.61,6.86,6.86,0,0,0,1.09.43,5.12,5.12,0,0,0,2.34.18h0a.34.34,0,0,1,.39.28.35.35,0,0,1-.23.38,6.15,6.15,0,0,1-2.73.3A8,8,0,0,1,53,29.94a6.85,6.85,0,0,1-1.35-.55.83.83,0,1,1,.79-1.45Z"/><line class="cls-9" x1="47.54" y1="30.84" x2="53.7" y2="30.84"/><path class="cls-10" d="M49.15,32.69a5.92,5.92,0,0,0,2.94,0"/></g></g></svg>