<svg xmlns="http://www.w3.org/2000/svg" viewBox="0 0 101.52 275.88"><defs><style>.cls-1{fill:#f3a396;}.cls-2{fill:#1a1a1a;}.cls-3{fill:#04162e;}.cls-4,.cls-7{fill:none;}.cls-4{stroke:#fff;stroke-linecap:round;stroke-linejoin:round;stroke-width:0.46px;}.cls-5{fill:#fff;}.cls-6{fill:#007ddc;}.cls-7{stroke:#005f99;stroke-miterlimit:10;stroke-width:0.72px;}</style></defs><title>full_backРесурс 2</title><g id="Слой_2" data-name="Слой 2"><g id="OBJECTS"><path class="cls-1" d="M51,57.49h0a8.27,8.27,0,0,1-8.27-8.27V31.62H59.28v17.6A8.27,8.27,0,0,1,51,57.49Z"/><path class="cls-1" d="M62.71,23.17a2.77,2.77,0,0,1,3.43-.91c2.3.88,1.26,6.48-2.2,7.19a2.73,2.73,0,0,1-2.21-.58S62.58,24.74,62.71,23.17Z"/><path class="cls-1" d="M39.11,23.17a2.76,2.76,0,0,0-3.42-.91c-2.31.88-1.26,6.48,2.19,7.19a2.75,2.75,0,0,0,2.22-.58S39.25,24.74,39.11,23.17Z"/><path class="cls-2" d="M65,11.45a9.25,9.25,0,0,0-.23-1.81c-.68-2.45-2.27-5.91-8-8.5-9.38-4.27-15.71,4.8-15.71,4.8-2.53-.27-3.9.7-4.45,3-.47,1.94.17,5.75.51,7.2L39.49,26h0a22.71,22.71,0,0,0,1.76,6c2.52,5.11,5.67,6.74,9.89,6.61a10.32,10.32,0,0,0,9.4-6.18,24.56,24.56,0,0,0,1.94-7.31h0l2.24-9.9A16.89,16.89,0,0,0,65,11.45Z"/><polygon class="cls-3" points="73.71 138.67 28.17 138.67 29.66 115.58 71.72 115.58 73.71 138.67"/><path class="cls-3" d="M28.17,138.4l-1.36,53.33a8.54,8.54,0,0,0,8.53,8.81h0a8.54,8.54,0,0,0,8.48-7.64l5.36-53.05A10.54,10.54,0,0,0,38.7,128.22h0A10.53,10.53,0,0,0,28.17,138.4Z"/><path class="cls-4" d="M21.28,265.77s1.94-6.14-.33-7.16C17.7,257.15,18.27,262.37,21.28,265.77Z"/><path class="cls-4" d="M21.21,265.73s4.94-4.14,6.75-2.43C30.55,265.75,25.5,267.22,21.21,265.73Z"/><polygon class="cls-5" points="26.23 262.13 27.3 244.56 35.52 244.6 34.47 262.14 26.23 262.13"/><path class="cls-2" d="M25.6,262.13l-10.27,5.59-5.78,1.13a6.11,6.11,0,0,0-4.91,5.42l-.12,1.26,31.17.15.06-13.51Z"/><polyline class="cls-5" points="35.81 275.88 4.4 275.74 4.41 272.97 35.83 273.11 35.81 275.88"/><path class="cls-3" d="M43.8,193.2,37,255H25l1.84-63a8.51,8.51,0,0,1,8.92-8.25h0A8.5,8.5,0,0,1,43.8,193.2Z"/><path class="cls-3" d="M73.63,138.4,75,191.73a8.53,8.53,0,0,1-8.53,8.81h0A8.54,8.54,0,0,1,58,192.9l-5.36-53.05A10.54,10.54,0,0,1,63.1,128.22h0A10.53,10.53,0,0,1,73.63,138.4Z"/><path class="cls-4" d="M79,264.81s-1.94-6.14.33-7.16C82.59,256.19,82,261.41,79,264.81Z"/><path class="cls-4" d="M79.08,264.77s-4.94-4.14-6.75-2.43C69.74,264.79,74.78,266.26,79.08,264.77Z"/><polygon class="cls-5" points="75.02 262.13 73.95 244.56 65.72 244.6 66.77 262.14 75.02 262.13"/><path class="cls-2" d="M75.64,262.13l10.28,5.59,5.78,1.13a6.1,6.1,0,0,1,4.9,5.42l.12,1.26-31.16.15-.06-13.51Z"/><polyline class="cls-5" points="65.43 275.88 96.85 275.74 96.84 272.97 65.42 273.11 65.43 275.88"/><path class="cls-3" d="M58,193.2,64.78,255h12L75,192A8.51,8.51,0,0,0,66,183.75h0A8.51,8.51,0,0,0,58,193.2Z"/><path class="cls-6" d="M20.87,61.16C18.7,72,12.93,96.18,10,108.33a7.8,7.8,0,0,0,5.43,9.33h0A7.81,7.81,0,0,0,25.18,112l11.71-47.5a8.19,8.19,0,0,0-6.73-9.84h0A8.18,8.18,0,0,0,20.87,61.16Z"/><path class="cls-1" d="M5.72,158.32h0A3.65,3.65,0,0,1,2.88,154l1.89-8.91a3.64,3.64,0,0,1,4.31-2.84h0a3.65,3.65,0,0,1,2.84,4.32L10,155.47A3.66,3.66,0,0,1,5.72,158.32Z"/><path class="cls-1" d="M11.77,157.59a5.28,5.28,0,0,0-1.72-2.45h0a3,3,0,0,0-2.44-3.67l-1.22-.2a3,3,0,0,0-3.47,2.31l0,.09a26.85,26.85,0,0,0-2.74,9.61c-.65,7.17,2.39,10.81,4.63,10.85s3.31-8.38,3.79-11.5L9.9,165.8a1,1,0,0,0,1.91-.26l.46-3.68A8.63,8.63,0,0,0,11.77,157.59Z"/><path class="cls-6" d="M10,108.28,0,149.08l15.17,4.14L25.33,111.5a7.85,7.85,0,0,0-6.44-9.43h0A7.84,7.84,0,0,0,10,108.28Z"/><path class="cls-6" d="M80.65,61.16c2.17,10.83,7.94,35,10.87,47.17a7.81,7.81,0,0,1-5.43,9.33h0A7.81,7.81,0,0,1,76.34,112L64.63,64.52a8.19,8.19,0,0,1,6.72-9.84h0A8.19,8.19,0,0,1,80.65,61.16Z"/><path class="cls-1" d="M95.8,158.32h0A3.65,3.65,0,0,0,98.64,154l-1.89-8.91a3.65,3.65,0,0,0-4.31-2.84h0a3.67,3.67,0,0,0-2.85,4.32l1.89,8.9A3.67,3.67,0,0,0,95.8,158.32Z"/><path class="cls-1" d="M89.75,157.59a5.32,5.32,0,0,1,1.71-2.45h0a3,3,0,0,1,2.45-3.67l1.22-.2a3,3,0,0,1,3.47,2.31l0,.09a27,27,0,0,1,2.73,9.61c.65,7.17-2.38,10.81-4.62,10.85s-3.31-8.38-3.8-11.5l-1.31,3.17a1,1,0,0,1-1,.61,1,1,0,0,1-.9-.87l-.46-3.68A8.51,8.51,0,0,1,89.75,157.59Z"/><path class="cls-6" d="M91.53,108.28l10,40.8-15.17,4.14L76.19,111.5a7.85,7.85,0,0,1,6.44-9.43h0A7.84,7.84,0,0,1,91.53,108.28Z"/><polygon class="cls-6" points="59.01 47.89 50.66 48.01 42.98 47.89 26.52 54.93 29.66 115.58 50.66 115.58 71.88 115.58 75.02 54.93 59.01 47.89"/><line class="cls-7" x1="28.72" y1="97.64" x2="27.4" y2="71.88"/><line class="cls-7" x1="72.8" y1="97.64" x2="74.12" y2="71.88"/></g></g></svg>