<svg xmlns="http://www.w3.org/2000/svg" viewBox="0 0 79.22 114.05"><defs><style>.cls-1{fill:#007ddc;}.cls-2,.cls-7,.cls-8{fill:none;}.cls-2{stroke:#005f99;stroke-miterlimit:10;stroke-width:0.72px;}.cls-3{fill:#289de5;}.cls-4{fill:#f3a396;}.cls-5{fill:#1a1a1a;}.cls-6{fill:#e88e85;}.cls-7,.cls-8{stroke:#d26665;stroke-linecap:round;stroke-linejoin:round;}.cls-7{stroke-width:0.64px;}.cls-8{stroke-width:0.48px;}</style></defs><title>oopsРесурс 7</title><g id="Слой_2" data-name="Слой 2"><g id="OBJECTS"><path class="cls-1" d="M25.74,75l-8.16,33.1v0l-1.45,5.91H0C3.09,101.14,7.81,81.2,9.72,71.66a8.17,8.17,0,0,1,5.65-6.23,8.07,8.07,0,0,1,2.36-.35,8,8,0,0,1,1.28.1A8.18,8.18,0,0,1,25.74,75Z"/><path class="cls-1" d="M11.22,114.05H1.82a7.82,7.82,0,0,1,4.7-1.58,8.48,8.48,0,0,1,1.22.1A7.67,7.67,0,0,1,11.22,114.05Z"/><path class="cls-1" d="M79.22,114.05H63.1l-1.44-5.86v0L53.48,75a8.17,8.17,0,0,1,.29-4.51,7.66,7.66,0,0,1,.6-1.3,8.15,8.15,0,0,1,5.83-4,8.16,8.16,0,0,1,3.67.26,8.16,8.16,0,0,1,5.63,6.22C71.41,81.2,76.13,101.14,79.22,114.05Z"/><path class="cls-1" d="M72.7,112.47a7.82,7.82,0,0,1,4.7,1.58H68a7.67,7.67,0,0,1,3.48-1.48A8.48,8.48,0,0,1,72.7,112.47Z"/><polygon class="cls-1" points="63.87 65.43 63.87 65.44 61.66 108.19 61.35 114.05 17.89 114.05 17.58 108.12 16.25 82.44 15.37 65.43 27.4 60.28 31.59 58.49 31.83 58.39 33.65 58.42 39.52 58.51 46.22 58.41 47.41 58.39 48.13 58.7 52.42 60.53 63.87 65.43"/><polyline class="cls-2" points="39.93 114.05 39.93 70.51 39.93 69.14"/><path class="cls-3" d="M38.4,75.38a.9.9,0,1,1-.9-.89A.9.9,0,0,1,38.4,75.38Z"/><path class="cls-3" d="M38.4,86a.9.9,0,1,1-.9-.89A.9.9,0,0,1,38.4,86Z"/><path class="cls-3" d="M38.4,96.62a.9.9,0,1,1-.9-.89A.9.9,0,0,1,38.4,96.62Z"/><circle class="cls-3" cx="37.5" cy="107.24" r="0.9"/><line class="cls-2" x1="17.57" y1="108.14" x2="16.25" y2="82.44"/><line class="cls-2" x1="61.65" y1="108.14" x2="62.97" y2="82.44"/><path class="cls-4" d="M39.86,68h0a8.27,8.27,0,0,1-8.27-8.27V42.12H48.13v17.6A8.27,8.27,0,0,1,39.86,68Z"/><path class="cls-5" d="M31.59,45.07s4.55,8.46,9.75,8c8-.64,6.7-10.6,6.7-10.6s-3.11,6.65-8,6.65A10.76,10.76,0,0,1,31.59,45.07Z"/><polygon class="cls-1" points="25.93 70.51 34.39 60.33 40.21 68.49 45.63 60.33 55.65 70.51 25.93 70.51"/><path class="cls-3" d="M39.93,68l-4-6.9a9,9,0,0,0-2.61-2.89l-2-1.43a1.34,1.34,0,0,0-1.44-.07l-2,1.16a1.32,1.32,0,0,0-.66,1.32l.83,6.44a.77.77,0,0,0,1.31.43l4.41-4.61a.56.56,0,0,1,.87.07l5.25,7.63Z"/><path class="cls-3" d="M39.93,68l3.94-6.9a9.06,9.06,0,0,1,2.62-2.89l2-1.43a1.32,1.32,0,0,1,1.43-.07l2,1.16a1.33,1.33,0,0,1,.65,1.32l-.83,6.44a.76.76,0,0,1-1.3.43L46,61.44a.55.55,0,0,0-.86.07l-5.25,7.63Z"/><path class="cls-5" d="M56.62,12.44c-.86-3.17-2.86-7.64-10-11-11.83-5.5-18,6.19-18,6.19-3.19-.35-5.84.77-7.36,3.84-1.42,2.87,0,8.27.41,10.15l2.59,11.93,2.27-11.35c2.24-7.46,5.64-10.5,5.64-10.5l10.81-.88L54.37,32.5,56.6,19.69a22,22,0,0,0,.31-4.93A12.82,12.82,0,0,0,56.62,12.44Z"/><path class="cls-6" d="M52.38,29.88a3.55,3.55,0,0,1,4.41-1.17c3,1.13,1.63,8.35-2.83,9.27a3.51,3.51,0,0,1-2.85-.75S52.2,31.9,52.38,29.88Z"/><path class="cls-4" d="M24.58,29.79A4,4,0,0,0,20,28.71c-2.94,1.21-1.63,8.35,2.83,9.27a3.53,3.53,0,0,0,2.86-.75S24.75,31.82,24.58,29.79Z"/><path class="cls-7" d="M20.58,31.26s2.49-.83,4.26,2.83"/><path class="cls-7" d="M23.63,32.3s-2.71,1.45-.92,3.63"/><path class="cls-4" d="M55.14,23c0,4.36-.42,13.46-3.1,18.87-2.51,5.08-6.67,7.81-12.11,8s-9.51-1.94-12.77-8.52S24.07,23.1,24.07,23.1s0-15.55,15.37-15.55C55.63,7.55,55.14,23,55.14,23Z"/><path class="cls-5" d="M53.75,9.5c-.41.13-13.33-3.45-13.33-3.45L29.08,9.5h0c-10,2.7-5.58,12.14-5.58,12.14,6.26-2.41,6.27-6.42,7-9.53,1.82,2.38,10,6.73,18.55,6.56,8.75-.17,7.27-3.58,7.27-3.58S54.15,9.36,53.75,9.5Z"/><path class="cls-7" d="M44.78,27.28v6.94a1.08,1.08,0,0,1-.09.44,1.15,1.15,0,0,1-1.38.64L42.12,35"/><path class="cls-5" d="M38.09,27.84a1.45,1.45,0,1,1-1.45-1.45A1.45,1.45,0,0,1,38.09,27.84Z"/><path class="cls-5" d="M39.68,22.38l-.36-2.74-5,.86a2.88,2.88,0,0,0-1.65.92l-2.55,2.9L34.25,23Z"/><path class="cls-5" d="M47.66,27.84a1.45,1.45,0,1,0,1.45-1.45A1.45,1.45,0,0,0,47.66,27.84Z"/><path class="cls-5" d="M46.57,22.37l.51-2.71,4,.8a2,2,0,0,1,1.24.9l1.8,2.84L50.86,23Z"/><path class="cls-5" d="M42.44,38.58a9.6,9.6,0,0,1-3.51,1.06,7.74,7.74,0,0,1-1.8,0,7.14,7.14,0,0,1-1.73-.4.43.43,0,0,1-.28-.55.44.44,0,0,1,.47-.3h0a6.64,6.64,0,0,0,1.54.05,7,7,0,0,0,1.49-.28A7.66,7.66,0,0,0,40,37.6a7,7,0,0,0,1.21-.77,1.06,1.06,0,0,1,1.38,1.62Z"/><path class="cls-5" d="M45.79,36.92a5.5,5.5,0,0,0,1,.74,6.46,6.46,0,0,0,1.19.56,5.7,5.7,0,0,0,1.29.27,5.5,5.5,0,0,0,1.34-.06h0a.41.41,0,0,1,.46.35.4.4,0,0,1-.26.44,6,6,0,0,1-1.55.39,6.35,6.35,0,0,1-1.63,0,8.63,8.63,0,0,1-1.58-.37,8.08,8.08,0,0,1-1.53-.72,1,1,0,0,1-.33-1.38,1,1,0,0,1,1.38-.32A.7.7,0,0,1,45.79,36.92Z"/><line class="cls-7" x1="40.25" y1="40.61" x2="45.75" y2="40.61"/><path class="cls-8" d="M41.21,43a6.63,6.63,0,0,0,3.58,0"/><polygon class="cls-5" points="25.16 17.8 25.68 30.74 23.62 28.97 23.62 28.97 22.04 17.13 25.16 17.8"/></g></g></svg>