<svg xmlns="http://www.w3.org/2000/svg" viewBox="0 0 79.22 103.55"><defs><style>.cls-1{fill:#007ddc;}.cls-2,.cls-6,.cls-7{fill:none;}.cls-2{stroke:#005f99;stroke-miterlimit:10;stroke-width:0.72px;}.cls-3{fill:#289de5;}.cls-4{fill:#f3a396;}.cls-5{fill:#1a1a1a;}.cls-6,.cls-7{stroke:#d26665;stroke-linecap:round;stroke-linejoin:round;}.cls-6{stroke-width:0.5px;}.cls-7{stroke-width:0.37px;}</style></defs><title>regularРесурс 3</title><g id="Слой_2" data-name="Слой 2"><g id="OBJECTS"><path class="cls-1" d="M25.74,64.52l-8.16,33.1v0l-1.45,5.91H0C3.09,90.64,7.81,70.7,9.72,61.16a8.17,8.17,0,0,1,5.65-6.23,8.07,8.07,0,0,1,2.36-.35,8,8,0,0,1,1.28.1A8.18,8.18,0,0,1,25.74,64.52Z"/><path class="cls-1" d="M11.22,103.55H1.82A7.82,7.82,0,0,1,6.52,102a8.48,8.48,0,0,1,1.22.1A7.67,7.67,0,0,1,11.22,103.55Z"/><path class="cls-1" d="M79.22,103.55H63.1l-1.44-5.86v0L53.48,64.52A8.17,8.17,0,0,1,53.77,60a7.66,7.66,0,0,1,.6-1.3,8.15,8.15,0,0,1,5.83-4,8.16,8.16,0,0,1,3.67.26,8.16,8.16,0,0,1,5.63,6.22C71.41,70.7,76.13,90.64,79.22,103.55Z"/><path class="cls-1" d="M72.7,102a7.82,7.82,0,0,1,4.7,1.58H68a7.67,7.67,0,0,1,3.48-1.48A8.48,8.48,0,0,1,72.7,102Z"/><polygon class="cls-1" points="63.87 54.93 63.87 54.94 61.66 97.69 61.35 103.55 17.89 103.55 17.58 97.62 16.25 71.94 15.37 54.93 27.4 49.78 31.59 47.99 31.83 47.89 33.65 47.92 39.52 48.01 46.22 47.91 47.41 47.89 48.13 48.2 52.42 50.03 63.87 54.93"/><polyline class="cls-2" points="39.93 103.55 39.93 60.01 39.93 58.64"/><path class="cls-3" d="M38.4,64.88a.9.9,0,1,1-.9-.89A.9.9,0,0,1,38.4,64.88Z"/><path class="cls-3" d="M38.4,75.5a.9.9,0,1,1-.9-.89A.9.9,0,0,1,38.4,75.5Z"/><path class="cls-3" d="M38.4,86.12a.9.9,0,1,1-.9-.89A.9.9,0,0,1,38.4,86.12Z"/><circle class="cls-3" cx="37.5" cy="96.74" r="0.9"/><line class="cls-2" x1="17.57" y1="97.64" x2="16.25" y2="71.94"/><line class="cls-2" x1="61.65" y1="97.64" x2="62.97" y2="71.94"/><path class="cls-4" d="M39.86,57.49h0a8.27,8.27,0,0,1-8.27-8.27V31.62H48.13v17.6A8.27,8.27,0,0,1,39.86,57.49Z"/><path class="cls-5" d="M31.59,34.57s4.55,8.46,9.75,8C49.38,42,48,32,48,32s-3.11,6.65-8,6.65A10.76,10.76,0,0,1,31.59,34.57Z"/><polygon class="cls-1" points="25.93 60.01 34.39 49.83 40.21 57.99 45.63 49.83 55.65 60.01 25.93 60.01"/><path class="cls-3" d="M39.93,57.49l-4-6.9a9,9,0,0,0-2.61-2.89l-2-1.43a1.34,1.34,0,0,0-1.44-.07l-2,1.16a1.32,1.32,0,0,0-.66,1.32l.83,6.44a.77.77,0,0,0,1.31.43l4.41-4.61a.56.56,0,0,1,.87.07l5.25,7.63Z"/><path class="cls-3" d="M39.93,57.49l3.94-6.9a9.06,9.06,0,0,1,2.62-2.89l2-1.43a1.32,1.32,0,0,1,1.43-.07l2,1.16a1.33,1.33,0,0,1,.65,1.32l-.83,6.44a.76.76,0,0,1-1.3.43L46,50.94a.55.55,0,0,0-.86.07l-5.25,7.63Z"/><path class="cls-5" d="M53.58,9.64c-.68-2.45-2.27-5.91-7.95-8.5-9.38-4.27-15.71,4.8-15.71,4.8-2.53-.27-3.9.7-4.45,3-.46,1.94.17,5.75.51,7.2L27.85,26l1.8-8.8c1.78-5.79,4.48-8.14,4.48-8.14l8.57-.68L51.8,25.2l1.77-9.93a16.89,16.89,0,0,0,.24-3.82A9.25,9.25,0,0,0,53.58,9.64Z"/><path class="cls-4" d="M51.56,23.17A2.77,2.77,0,0,1,55,22.26c2.3.88,1.26,6.48-2.2,7.19a2.73,2.73,0,0,1-2.21-.58S51.43,24.74,51.56,23.17Z"/><path class="cls-6" d="M54.53,24.24s-1.93-.65-3.3,2.2"/><path class="cls-6" d="M52.17,25.05s2.1,1.12.71,2.81"/><path class="cls-4" d="M28,23.17a2.76,2.76,0,0,0-3.42-.91c-2.31.88-1.26,6.48,2.19,7.19A2.75,2.75,0,0,0,29,28.87S28.1,24.74,28,23.17Z"/><path class="cls-6" d="M25,24.24s1.93-.65,3.3,2.2"/><path class="cls-6" d="M27.36,25.05s-2.1,1.12-.71,2.81"/><path class="cls-4" d="M51.8,17.85c0,3.38-.33,10.44-2.41,14.63A10.32,10.32,0,0,1,40,38.66c-4.22.13-7.37-1.5-9.89-6.61s-2.4-14.14-2.4-14.14,0-12,11.92-12C52.17,5.86,51.8,17.85,51.8,17.85Z"/><path class="cls-5" d="M50.71,7.36c-.31.11-10.33-2.67-10.33-2.67L31.59,7.36v0c-7.73,2.09-4.32,9.41-4.32,9.41,3.18-1.63,2.94-5,3.55-7.39,1.4,1.85,6.79,5.21,13.42,5.09,6.79-.13,7.56-2.78,7.56-2.78S51,7.26,50.71,7.36Z"/><path class="cls-6" d="M38.9,21.15v5.38a.93.93,0,0,0,.06.34.89.89,0,0,0,1.07.5l.93-.24"/><path class="cls-5" d="M35.4,21.59a1.13,1.13,0,1,1-1.13-1.13A1.13,1.13,0,0,1,35.4,21.59Z"/><path class="cls-5" d="M36.53,18.88l0-2.14-4,.07a2.21,2.21,0,0,0-1.37.51L29,19.25l3.34-.5Z"/><path class="cls-5" d="M43.41,21.59a1.13,1.13,0,1,0,1.12-1.13A1.12,1.12,0,0,0,43.41,21.59Z"/><path class="cls-5" d="M42.27,18.88l0-2.14,4,.07a2.18,2.18,0,0,1,1.36.51l2.3,1.93-3.34-.5Z"/><path class="cls-5" d="M38.82,29.39a6.85,6.85,0,0,1-1.35.55,8.1,8.1,0,0,1-1.37.27,6.18,6.18,0,0,1-2.74-.3.35.35,0,0,1-.21-.44.32.32,0,0,1,.37-.22h0a5.17,5.17,0,0,0,2.35-.18A7.15,7.15,0,0,0,37,28.64,6.36,6.36,0,0,0,37.9,28,.82.82,0,0,1,39,29.29.71.71,0,0,1,38.82,29.39Z"/><path class="cls-5" d="M41.41,28a6.24,6.24,0,0,0,.93.61,6.86,6.86,0,0,0,1.09.43,5.12,5.12,0,0,0,2.34.18h0a.34.34,0,0,1,.39.28.36.36,0,0,1-.22.38,6.19,6.19,0,0,1-2.74.3,8,8,0,0,1-1.38-.27,6.85,6.85,0,0,1-1.35-.55.83.83,0,0,1,.79-1.45A.67.67,0,0,1,41.41,28Z"/><line class="cls-6" x1="36.39" y1="30.84" x2="42.55" y2="30.84"/><path class="cls-7" d="M38,32.69a5.92,5.92,0,0,0,2.94,0"/></g></g></svg>