<svg xmlns="http://www.w3.org/2000/svg" viewBox="0 0 79.22 115.88"><defs><style>.cls-1{fill:#007ddc;}.cls-2,.cls-6,.cls-7{fill:none;}.cls-2{stroke:#005f99;stroke-miterlimit:10;stroke-width:0.72px;}.cls-3{fill:#289de5;}.cls-4{fill:#f3a396;}.cls-5{fill:#1a1a1a;}.cls-6,.cls-7{stroke:#d26665;stroke-linecap:round;stroke-linejoin:round;}.cls-6{stroke-width:0.64px;}.cls-7{stroke-width:0.48px;}</style></defs><title>sadРесурс 6</title><g id="Слой_2" data-name="Слой 2"><g id="OBJECTS"><path class="cls-1" d="M25.74,76.85,17.58,110v0l-1.45,5.91H0C3.09,103,7.81,83,9.72,73.49a8.17,8.17,0,0,1,5.65-6.23,8.07,8.07,0,0,1,2.36-.35A8,8,0,0,1,19,67,8.18,8.18,0,0,1,25.74,76.85Z"/><path class="cls-1" d="M11.22,115.88H1.82a7.82,7.82,0,0,1,4.7-1.58,8.48,8.48,0,0,1,1.22.1A7.67,7.67,0,0,1,11.22,115.88Z"/><path class="cls-1" d="M79.22,115.88H63.1L61.66,110v0L53.48,76.85a8.17,8.17,0,0,1,.29-4.51,7.66,7.66,0,0,1,.6-1.3,8.15,8.15,0,0,1,5.83-4,8.16,8.16,0,0,1,3.67.26,8.16,8.16,0,0,1,5.63,6.22C71.41,83,76.13,103,79.22,115.88Z"/><path class="cls-1" d="M72.7,114.3a7.82,7.82,0,0,1,4.7,1.58H68a7.67,7.67,0,0,1,3.48-1.48A8.48,8.48,0,0,1,72.7,114.3Z"/><polygon class="cls-1" points="63.87 67.26 63.87 67.27 61.66 110.02 61.35 115.88 17.89 115.88 17.58 109.95 16.25 84.27 15.37 67.26 27.4 62.11 31.59 60.32 31.83 60.22 33.65 60.25 39.52 60.34 46.22 60.24 47.41 60.22 48.13 60.53 52.42 62.36 63.87 67.26"/><polyline class="cls-2" points="39.93 115.88 39.93 72.34 39.93 70.97"/><path class="cls-3" d="M38.4,77.21a.9.9,0,1,1-.9-.89A.9.9,0,0,1,38.4,77.21Z"/><path class="cls-3" d="M38.4,87.83a.9.9,0,1,1-.9-.89A.9.9,0,0,1,38.4,87.83Z"/><path class="cls-3" d="M38.4,98.45a.9.9,0,1,1-.9-.89A.9.9,0,0,1,38.4,98.45Z"/><circle class="cls-3" cx="37.5" cy="109.07" r="0.9"/><line class="cls-2" x1="17.57" y1="109.97" x2="16.25" y2="84.27"/><line class="cls-2" x1="61.65" y1="109.97" x2="62.97" y2="84.27"/><path class="cls-4" d="M39.86,69.82h0a8.27,8.27,0,0,1-8.27-8.27V44H48.13v17.6A8.27,8.27,0,0,1,39.86,69.82Z"/><path class="cls-5" d="M31.59,46.9s4.55,8.46,9.75,8c8-.64,6.7-10.6,6.7-10.6S44.93,51,40,51A10.76,10.76,0,0,1,31.59,46.9Z"/><polygon class="cls-1" points="25.93 72.35 34.39 62.16 40.21 70.32 45.63 62.16 55.65 72.35 25.93 72.35"/><path class="cls-3" d="M39.93,69.83l-4-6.91A9,9,0,0,0,33.37,60l-2-1.43a1.34,1.34,0,0,0-1.44-.07l-2,1.16A1.32,1.32,0,0,0,27.26,61l.83,6.44a.76.76,0,0,0,1.31.43l4.41-4.61a.57.57,0,0,1,.87.07L39.93,71Z"/><path class="cls-3" d="M39.93,69.83l3.94-6.91A9.06,9.06,0,0,1,46.49,60l2-1.43a1.32,1.32,0,0,1,1.43-.07l2,1.16A1.33,1.33,0,0,1,52.59,61l-.83,6.44a.76.76,0,0,1-1.3.43L46,63.27a.56.56,0,0,0-.86.07L39.93,71Z"/><path class="cls-5" d="M57.44,12.44c-.87-3.17-2.92-7.64-10.25-11C35.09-4,26.93,7.66,26.93,7.66c-3.26-.35-5,.9-5.74,3.84-.6,2.51.21,7.41.65,9.3l2.42,12.78,2.32-11.34c2.29-7.47,5.77-10.51,5.77-10.51l11.06-.88L55.14,32.5l2.28-12.81a21.45,21.45,0,0,0,.32-4.93A11.86,11.86,0,0,0,57.44,12.44Z"/><path class="cls-4" d="M54.84,29.88a3.55,3.55,0,0,1,4.41-1.17c3,1.13,1.63,8.35-2.83,9.27a3.51,3.51,0,0,1-2.85-.75S54.67,31.9,54.84,29.88Z"/><path class="cls-6" d="M58.66,31.26s-2.49-.83-4.25,2.83"/><path class="cls-6" d="M55.62,32.3s2.71,1.45.92,3.63"/><path class="cls-4" d="M24.4,29.88A3.55,3.55,0,0,0,20,28.71c-3,1.13-1.63,8.35,2.83,9.27a3.51,3.51,0,0,0,2.85-.75S24.57,31.9,24.4,29.88Z"/><path class="cls-6" d="M20.58,31.26s2.49-.83,4.25,2.83"/><path class="cls-6" d="M23.62,32.3s-2.71,1.45-.92,3.63"/><path class="cls-4" d="M55.14,23c0,4.36-.43,13.46-3.11,18.87-2.51,5.08-6.66,7.81-12.11,8s-9.51-1.94-12.76-8.52-3.1-18.24-3.1-18.24,0-15.55,15.37-15.55C55.62,7.55,55.14,23,55.14,23Z"/><path class="cls-5" d="M53.74,9.5c-.4.13-13.32-3.45-13.32-3.45L29.08,9.5h0c-10,2.7-5.57,12.14-5.57,12.14,4.1-2.1,3.79-6.42,4.57-9.53,1.82,2.38,8.77,6.73,17.31,6.56,8.76-.17,9.75-3.58,9.75-3.58S54.14,9.36,53.74,9.5Z"/><path class="cls-6" d="M38.5,27.28v6.94a1.08,1.08,0,0,0,.09.44A1.15,1.15,0,0,0,40,35.3L41.16,35"/><path class="cls-5" d="M34,27.84a1.45,1.45,0,1,1-1.45-1.45A1.45,1.45,0,0,1,34,27.84Z"/><path class="cls-5" d="M35,27.3l.71-2.66-5-1.13a2.87,2.87,0,0,0-1.87.22l-3.46,1.71,4.34.4Z"/><path class="cls-5" d="M42.77,27.3l-.71-2.66,5-1.13a2.87,2.87,0,0,1,1.87.22l3.46,1.71-4.34.4Z"/><path class="cls-5" d="M44.32,27.84a1.45,1.45,0,1,0,1.45-1.45A1.45,1.45,0,0,0,44.32,27.84Z"/><path class="cls-5" d="M38.41,37.9a8.47,8.47,0,0,1-1.75.71,10.68,10.68,0,0,1-1.77.36,9,9,0,0,1-1.8,0,8.52,8.52,0,0,1-1.73-.4.43.43,0,0,1-.28-.55.42.42,0,0,1,.47-.3h0a6.54,6.54,0,0,0,1.53.06,6.76,6.76,0,0,0,1.49-.28A8.45,8.45,0,0,0,36,36.93a7.21,7.21,0,0,0,1.21-.77,1.06,1.06,0,0,1,1.38,1.62Z"/><path class="cls-5" d="M41.74,36.16a7.64,7.64,0,0,0,1.21.77,8.45,8.45,0,0,0,1.39.57,7,7,0,0,0,1.49.28,6.54,6.54,0,0,0,1.53-.06h0a.44.44,0,0,1,.19.85,8.22,8.22,0,0,1-1.73.4,9,9,0,0,1-1.8,0,10.68,10.68,0,0,1-1.77-.36,8.47,8.47,0,0,1-1.75-.71,1.07,1.07,0,0,1,1-1.87A1.18,1.18,0,0,1,41.74,36.16Z"/><line class="cls-6" x1="35.27" y1="39.77" x2="43.21" y2="39.77"/><path class="cls-7" d="M37.35,42.16a7.6,7.6,0,0,0,3.79,0"/></g></g></svg>