<svg xmlns="http://www.w3.org/2000/svg" viewBox="0 0 79.22 113.53"><defs><style>.cls-1{fill:#007ddc;}.cls-2,.cls-6,.cls-7{fill:none;}.cls-2{stroke:#005f99;stroke-miterlimit:10;stroke-width:0.72px;}.cls-3{fill:#289de5;}.cls-4{fill:#f3a396;}.cls-5{fill:#1a1a1a;}.cls-6,.cls-7{stroke:#d26665;stroke-linecap:round;stroke-linejoin:round;}.cls-6{stroke-width:0.64px;}.cls-7{stroke-width:0.48px;}.cls-8{fill:#fff;}</style></defs><title>smileРесурс 5</title><g id="Слой_2" data-name="Слой 2"><g id="OBJECTS"><path class="cls-1" d="M25.74,74.5l-8.16,33.1v0l-1.45,5.91H0c3.09-12.91,7.81-32.85,9.72-42.39a8.17,8.17,0,0,1,5.65-6.23,8.07,8.07,0,0,1,2.36-.35,8,8,0,0,1,1.28.1A8.18,8.18,0,0,1,25.74,74.5Z"/><path class="cls-1" d="M11.22,113.53H1.82A7.82,7.82,0,0,1,6.52,112a8.48,8.48,0,0,1,1.22.1A7.67,7.67,0,0,1,11.22,113.53Z"/><path class="cls-1" d="M79.22,113.53H63.1l-1.44-5.86v0L53.48,74.5A8.17,8.17,0,0,1,53.77,70a7.66,7.66,0,0,1,.6-1.3,8.15,8.15,0,0,1,5.83-4,8.16,8.16,0,0,1,3.67.26,8.16,8.16,0,0,1,5.63,6.22C71.41,80.68,76.13,100.62,79.22,113.53Z"/><path class="cls-1" d="M72.7,112a7.82,7.82,0,0,1,4.7,1.58H68a7.67,7.67,0,0,1,3.48-1.48A8.48,8.48,0,0,1,72.7,112Z"/><polygon class="cls-1" points="63.87 64.91 63.87 64.92 61.66 107.67 61.35 113.53 17.89 113.53 17.58 107.6 16.25 81.92 15.37 64.91 27.4 59.76 31.59 57.97 31.83 57.87 33.65 57.9 39.52 57.99 46.22 57.89 47.41 57.87 48.13 58.18 52.42 60.01 63.87 64.91"/><polyline class="cls-2" points="39.93 113.53 39.93 69.99 39.93 68.62"/><path class="cls-3" d="M38.4,74.86a.9.9,0,1,1-.9-.9A.9.9,0,0,1,38.4,74.86Z"/><path class="cls-3" d="M38.4,85.48a.9.9,0,1,1-.9-.9A.9.9,0,0,1,38.4,85.48Z"/><path class="cls-3" d="M38.4,96.1a.9.9,0,1,1-.9-.9A.9.9,0,0,1,38.4,96.1Z"/><circle class="cls-3" cx="37.5" cy="106.72" r="0.9"/><line class="cls-2" x1="17.57" y1="107.62" x2="16.25" y2="81.92"/><line class="cls-2" x1="61.65" y1="107.62" x2="62.97" y2="81.92"/><path class="cls-4" d="M39.86,67.47h0a8.27,8.27,0,0,1-8.27-8.27V41.6H48.13V59.2A8.28,8.28,0,0,1,39.86,67.47Z"/><path class="cls-5" d="M31.59,44.55s4.55,8.45,9.75,8C49.38,52,48,42,48,42s-3.11,6.64-8,6.65A10.79,10.79,0,0,1,31.59,44.55Z"/><polygon class="cls-1" points="25.93 69.99 34.39 59.8 40.21 67.97 45.63 59.8 55.65 69.99 25.93 69.99"/><path class="cls-3" d="M39.93,67.47l-4-6.9a9.06,9.06,0,0,0-2.61-2.9l-2-1.42a1.34,1.34,0,0,0-1.44-.08l-2,1.16a1.33,1.33,0,0,0-.66,1.33l.83,6.44a.77.77,0,0,0,1.31.43l4.41-4.61a.56.56,0,0,1,.87.07l5.25,7.63Z"/><path class="cls-3" d="M39.93,67.47l3.94-6.9a9.1,9.1,0,0,1,2.62-2.9l2-1.42a1.32,1.32,0,0,1,1.43-.08l2,1.16a1.34,1.34,0,0,1,.65,1.33l-.83,6.44a.76.76,0,0,1-1.3.43L46,60.92a.55.55,0,0,0-.86.07l-5.25,7.63Z"/><path class="cls-5" d="M58.61,12.44c-.87-3.17-2.92-7.64-10.25-11C36.26-4,28.1,7.66,28.1,7.66c-3.26-.35-5,.9-5.74,3.84-.6,2.51.21,7.41.65,9.3l2.41,12.78,2.33-11.34c2.29-7.47,5.77-10.51,5.77-10.51l11.06-.88L56.31,32.5l2.28-12.81a21.45,21.45,0,0,0,.32-4.93A11.86,11.86,0,0,0,58.61,12.44Z"/><path class="cls-4" d="M56,29.88a3.55,3.55,0,0,1,4.41-1.17c3,1.13,1.63,8.35-2.83,9.27a3.51,3.51,0,0,1-2.85-.75S55.84,31.9,56,29.88Z"/><path class="cls-6" d="M59.83,31.26s-2.49-.83-4.25,2.83"/><path class="cls-6" d="M56.79,32.3s2.71,1.45.92,3.63"/><path class="cls-4" d="M25.57,29.88a3.55,3.55,0,0,0-4.41-1.17c-3,1.13-1.63,8.35,2.83,9.27a3.51,3.51,0,0,0,2.85-.75S25.74,31.9,25.57,29.88Z"/><path class="cls-6" d="M21.74,31.26s2.5-.83,4.26,2.83"/><path class="cls-6" d="M24.79,32.3s-2.71,1.45-.92,3.63"/><path class="cls-4" d="M56.31,23c0,4.36-.43,13.46-3.11,18.87-2.51,5.08-6.66,7.81-12.11,8s-9.51-1.94-12.76-8.52-3.1-18.24-3.1-18.24,0-15.55,15.37-15.55C56.79,7.55,56.31,23,56.31,23Z"/><path class="cls-5" d="M54.91,9.5c-.4.13-13.32-3.45-13.32-3.45L30.24,9.5h0c-10,2.7-5.58,12.14-5.58,12.14,4.11-2.1,3.8-6.42,4.58-9.53,1.82,2.38,8.77,6.73,17.31,6.56,8.76-.17,9.75-3.58,9.75-3.58S55.31,9.36,54.91,9.5Z"/><path class="cls-6" d="M39.67,27.28v6.94a1.08,1.08,0,0,0,.09.44,1.15,1.15,0,0,0,1.38.64L42.33,35"/><path class="cls-5" d="M35.16,27.84a1.45,1.45,0,1,1-1.45-1.45A1.45,1.45,0,0,1,35.16,27.84Z"/><path class="cls-5" d="M36.62,23.43l.06-2.76-5.12.1a2.83,2.83,0,0,0-1.76.65l-3,2.49,4.31-.65Z"/><path class="cls-5" d="M45.49,27.84a1.45,1.45,0,1,0,1.45-1.45A1.45,1.45,0,0,0,45.49,27.84Z"/><path class="cls-5" d="M44,23.43,44,20.67l5.12.1a2.83,2.83,0,0,1,1.76.65l3,2.49-4.31-.65Z"/><path class="cls-5" d="M39.58,37.56a9.72,9.72,0,0,1-3.52,1.06,7.74,7.74,0,0,1-1.8,0,7.9,7.9,0,0,1-1.73-.4.43.43,0,0,1-.28-.55.44.44,0,0,1,.47-.3h0a6.54,6.54,0,0,0,1.53,0,6.87,6.87,0,0,0,1.49-.28,8.45,8.45,0,0,0,1.39-.57,6.63,6.63,0,0,0,1.21-.77,1.06,1.06,0,1,1,1.38,1.62Z"/><path class="cls-5" d="M42.91,35.81a7,7,0,0,0,1.21.77,8.45,8.45,0,0,0,1.39.57,7,7,0,0,0,1.49.28,6.54,6.54,0,0,0,1.53,0h0a.44.44,0,0,1,.49.38.43.43,0,0,1-.3.47,7.65,7.65,0,0,1-1.73.4,7.74,7.74,0,0,1-1.8,0,9.72,9.72,0,0,1-3.52-1.06,1.07,1.07,0,0,1-.42-1.45,1.06,1.06,0,0,1,1.44-.42A1.13,1.13,0,0,1,42.91,35.81Z"/><path class="cls-7" d="M38.52,44a7.6,7.6,0,0,0,3.79,0"/><path class="cls-8" d="M35.81,39.39h9.44a5.62,5.62,0,0,1-5.07,2.77A4.65,4.65,0,0,1,35.81,39.39Z"/></g></g></svg>