<svg xmlns="http://www.w3.org/2000/svg" viewBox="0 0 140.99 397.97"><defs><style>.cls-1{fill:#f2f0f0;}.cls-1,.cls-10,.cls-11,.cls-12,.cls-13,.cls-14,.cls-15,.cls-16,.cls-18,.cls-19,.cls-2,.cls-20,.cls-21,.cls-22,.cls-23,.cls-3,.cls-4,.cls-5,.cls-6,.cls-7,.cls-8,.cls-9{fill-rule:evenodd;}.cls-2{fill:#cecbcb;}.cls-3{fill:#2a999b;}.cls-4{fill:#4fbcbe;}.cls-5{fill:#183257;}.cls-6{fill:#111a39;}.cls-7{fill:#c1bab9;}.cls-8{fill:#a29a99;}.cls-9{fill:#ed9072;}.cls-10{fill:#fff;}.cls-11{fill:#3a4f77;}.cls-12,.cls-17{fill:#231f20;}.cls-13{fill:#d9d4d6;}.cls-14{fill:#f4ad85;}.cls-15{fill:#14274b;}.cls-16{fill:#14294c;}.cls-18{fill:#e37b64;}.cls-19{fill:#58595b;}.cls-20{fill:#6d6e71;}.cls-21{fill:#414042;}.cls-22{fill:#bc614f;}.cls-23{fill:#152548;}</style></defs><title>full_regularРесурс 1</title><g id="Слой_2" data-name="Слой 2"><g id="OBJECTS"><path class="cls-1" d="M66.16,97.09A43.31,43.31,0,0,0,56,107.21c-5.07,6.87-13.37,17.28-20.58,25.9-7.75,9.25-6.45,11.49-12.44,1.64-6.31-10.37-10.1-19.07-12.37-23.5-.35-.68-1.86-4-3.14-2.93a14.55,14.55,0,0,1-2.83,2.08c-1.33.68-2.65,0-3,1.95-.05,4.32,4.22,19.71,20,42.24.11.11-1.69-2.07.32.35s7.33,3.05,9.41.95l.23-.15c6.27-6,19.48-16.6,27.66-26.72,7.89-9.75,10.81-19,14.17-26v0l.17-.38.07-.12.11-.25h0l.11-.23.06-.13,0-.1h0a13.2,13.2,0,0,0,1.22-3.66L72.66,101Z"/><path class="cls-2" d="M66.16,97.09A43.31,43.31,0,0,0,56,107.21c-1.36,1.84-2.94,3.93-4.68,6.17,1.08,7-.68,19.19-6.14,25.35-6.62,7.46-16.37,17.13-22.56,11.19S6.38,121.1,5.17,115.81c-.72-3.15,2.42-4.55,5.08-5.17-.6-1.14-1.79-3.16-2.83-2.32a14.55,14.55,0,0,1-2.83,2.08c-1.33.68-2.65,0-3,1.95-.06,4.32,4.21,19.71,20,42.24.11.11-1.69-2.07.32.35s7.33,3.05,9.41.95l.23-.15c6.27-6,19.48-16.6,27.66-26.72,7.89-9.75,10.81-19,14.17-26v0l.18-.38.06-.12.11-.25h0l.11-.23,0-.13.05-.1h0a13.2,13.2,0,0,0,1.22-3.66L72.66,101Z"/><path class="cls-3" d="M117.29,110l-8.64-10.93-1.91-1.64-19.2-7.22L78.66,91.6h0s-8.87,4.32-9.61,4.28a1.12,1.12,0,0,1-.38-.14l-5.24,15.07s-3.18,21.84-3.63,23.33-.84,22.43.82,25.44.25,7.67,6.61,9.62,20,5.74,29.08-3.91,11-15,13.31-18.27S117.29,110,117.29,110Z"/><path class="cls-4" d="M65.46,112.57c2.85-1.8,4.48-.33,7.58,3s6,3,7.75,3.76,1.65,31.7-9.54,36.44c-4.14,1.76-6.72-.06-8.31-3.75C60.07,145.41,58,117.23,65.46,112.57Z"/><path class="cls-5" d="M81,103.94l-.53.92s-7.61,23-7.29,41.47,9.61,2.68,9.46,1.1-1.81-31.61-.2-42.45C82.45,105,82.33,103.52,81,103.94Z"/><path class="cls-6" d="M81,103.94l-.53.92s-.28.85-.72,2.33c.56.41,1.25,1.37,1.22,3.69,0,3.25.22,16-7,22.43a90.22,90.22,0,0,0-.84,13c.31,18.44,9.61,2.68,9.46,1.1s-1.81-31.61-.2-42.45C82.45,105,82.33,103.52,81,103.94Z"/><path class="cls-7" d="M59.05,268.47c.33,3.31.69,6.72,1.07,10.21,3.79,34.68,11,97.62,10.88,103.77s9.36,2.59,10.54.86c.93-1.36-1.42-76.86-2-114.84Zm32.06,0c2.25,15.32,3.52,34.81,4.48,47.41,2,26.8,5.79,67.75,5.52,69.92s8.36,4.34,10.09.87a4.38,4.38,0,0,0,.24-2.37c-.08-1.14.6-65.5.61-115.83Z"/><path class="cls-8" d="M106.2,268.47c1.47,28.49,3,99.15,2.1,106.8-1,8.38-6.13,7.68-7.79.61.43,5.6.68,9.31.6,9.92-.27,2.17,8.36,4.34,10.09.87a4.38,4.38,0,0,0,.24-2.37c-.08-1.14.6-65.5.61-115.83ZM70.92,380.16c.06,1,.09,1.84.08,2.29-.15,6.15,9.36,2.59,10.54.86.93-1.36-1.42-76.86-2-114.84H74.24c.75,34.74,4.46,100.35,4.34,105.39C78.45,379.34,75.23,381.52,70.92,380.16Z"/><path class="cls-1" d="M76.59,92.64s-7.53,17.62-4.69,37.8a178,178,0,0,0,8.83,35.63L89.2,269.85l-8.79.2,2.64,7.24L79.33,276S73.54,286.44,63,287.07s-9-6-7.89-11.43,2.3-86.71.25-109.1S47,96.55,76.59,92.64Z"/><path class="cls-2" d="M71.33,124.11c.08,2.07-1-4.83.57,6.33s8.83,35.63,8.83,35.63l8.47,99.86c-.75,1.34-1.55,2.66-2.38,4l-6.41.15,2.2,6-.64.84L79.33,276S73.54,286.44,63,287.07c-4.68.28-7-.87-8-2.7,6.26.87,8.85-69.13,13.44-98s-4.19-51.08-5.22-56.56a52.89,52.89,0,0,1-1.05-7.7l6.38-6.46.76,8.14Z"/><path class="cls-1" d="M116.57,279.72c-3,7.13-20.78,11.39-30.23,12C66.27,293.14,72.7,185.24,73.68,174.2c2.91-32.71,1.45-54.6,23.87-80.45,5.24,1,13.47,5.43,13.47,5.43,4.16,2.12,9.33,5.92,10,10.64,1,6.68-6.44,29.84-11,44.36C102.39,178.47,120.7,270,116.57,279.72Z"/><path class="cls-2" d="M116.57,279.72c-2.36,5.55-13.66,9.36-23,11.08,11.9-7.55,11.64-90.28,8.61-112.54s4.74-55.39,4.74-55.39l3.77,3.2,1.52,7.11c-.91,3.37,3.52,2.59,2.47,6.08-1.6,5.3-3.25,10.51-4.64,14.92C102.39,178.47,120.7,270,116.57,279.72Z"/><path class="cls-9" d="M94.6,72.1l-.22,5.24V89.71a4.44,4.44,0,0,0,2,2.91c-1.94,2.1-6.7,7-9.7,7.44a14.62,14.62,0,0,1-9.34-2c-.77-.67-.84-4.09-1.29-6,.35-.1,0,0,.31-.12a5.68,5.68,0,0,0,2.39-1.37c1.79-2,1.71-10.68-.08-13S94.6,72.1,94.6,72.1Z"/><path class="cls-3" d="M80.27,97.65l2.16-1.16s.19,2.38.44,2.46.6-1.5,1.53-2.07,3.44,2.84,3.44,2.84-.93,2.66-2.27,2.86-5.38.64-5.43-.57S80.27,97.65,80.27,97.65Z"/><path class="cls-6" d="M83.05,100.53a8.52,8.52,0,0,0,3.51-1.16,2.14,2.14,0,0,1,2.77.26l-1.53,1.74-.12.74a5.63,5.63,0,0,0-3.75.65C82.48,103.82,83.05,100.53,83.05,100.53Z"/><path class="cls-10" d="M76.31,93.33s-10.32,25.15.16,59.25l0,2.61s-8.72-15.88-12.82-28.8c0,0-.35-1.23.51-1.78s2.64-1.79,3.63-1.79-.51-1.28-4.38.37a1.71,1.71,0,0,1-1.22-1.06c-.28-.87.88-15.33,11.18-28.85,0,0,.15-.38.92-.59S76.56,92,76.31,93.33Z"/><path class="cls-4" d="M95.43,90.12S92.71,95,85.5,96.27A1.9,1.9,0,0,0,84,98c0,1.46,4.26,5.4,4.65,7.53s9.07-8.95,9.62-12.42C98.23,93.15,96.81,90.51,95.43,90.12Z"/><path class="cls-5" d="M80,100.67a3.08,3.08,0,0,1,1.5-.65,4.3,4.3,0,0,1,2.4.45,4.7,4.7,0,0,1,1.16,1.83c0,.34-2,2.37-2.64,2.68s-1.3-.19-2-.12S79.62,101.37,80,100.67Z"/><path class="cls-6" d="M83.19,100.14a1.69,1.69,0,0,1,.74.33,4.7,4.7,0,0,1,1.16,1.83c0,.34-2,2.37-2.64,2.68s-1.3-.19-2-.12c-.17,0-.31-.19-.41-.53C84.87,103.6,83.52,100.72,83.19,100.14Z"/><path class="cls-11" d="M74,384.06a5.86,5.86,0,0,0-4.31-.84c-2.24.57-15.19,6.69-17.26,7.52s-4.26,4-2.62,5.86,12.56,1.62,18.35.47a39.31,39.31,0,0,1,12.4-.21c2.13.15,4.62-4.46,2.56-11.13S81.72,385.26,74,384.06Z"/><path class="cls-12" d="M74,384.06a5.86,5.86,0,0,0-4.31-.84c-.17,0-.4.12-.68.22,1.86.42,5.58,1.55,6.32,4s1.11,6.37-1.48,9a56.5,56.5,0,0,1,6.71.4c2.13.15,4.62-4.46,2.56-11.13S81.72,385.26,74,384.06Z"/><path class="cls-10" d="M49.48,393.89a2.57,2.57,0,0,0,.35,2.71c1.63,1.82,12.56,1.62,18.35.47a39.31,39.31,0,0,1,12.4-.21c1.34.1,2.82-1.7,3.22-4.7-1.58,2.2-4.32,2.38-9.56,2-5.43-.43-10.4,1-17.23,1.63C52.23,396.21,50.24,394.79,49.48,393.89Z"/><path class="cls-13" d="M73.87,396.46a56.5,56.5,0,0,1,6.71.4c1.34.1,2.82-1.7,3.22-4.7-1.47,2-3.94,2.35-8.48,2A6.71,6.71,0,0,1,73.87,396.46Z"/><path class="cls-11" d="M102,385.83s3.76-4.34,8.36-.89a6.64,6.64,0,0,1,3.45,3.14c.94,2.19,2.71,3.19,3,5.59s-.42,4.29-3.71,4.29h-5.33c-2.35,0-5.85.36-7.06-2.57s0-5.59-.41-7.1S102,385.83,102,385.83Z"/><path class="cls-12" d="M102,385.83s3.76-4.33,8.36-.89a6.64,6.64,0,0,1,3.45,3.14c.94,2.19,2.71,3.19,3,5.59s-.42,4.29-3.71,4.29h-2.94c4.69-3.85.65-11.35-3.11-12-2.49-.43-5.12,1-6.78,2.21C100.05,386.72,102,385.83,102,385.83Z"/><path class="cls-10" d="M116.91,394.12c.17,2.19-.67,3.84-3.75,3.84h-5.33c-2.35,0-5.85.36-7.06-2.57a7.18,7.18,0,0,1-.49-1.94s1.38,1.89,5.91,2.17S116.13,396,116.91,394.12Z"/><path class="cls-13" d="M116.91,394.12c.17,2.19-.67,3.84-3.75,3.84h-2.94a5.7,5.7,0,0,0,1.67-2.22C114.42,395.63,116.46,395.2,116.91,394.12Z"/><path class="cls-10" d="M97.55,93.75S77,108.16,75.13,157.85c0,0-.09,1,.42,1.09s9.82-26.52,15.8-31.25a1.61,1.61,0,0,0,.56-1.77c-.4-1.07-3.27-3.12-4.62-3.87s3.79,0,5.64,1,3.08,0,4.3-1.85S96.81,98.37,102,95.06a.53.53,0,0,0-.08-.56,21.86,21.86,0,0,0-3.23-1.08A1.4,1.4,0,0,0,97.55,93.75Z"/><path class="cls-4" d="M78.37,89.94s.17,4.39,3.59,5.93a.79.79,0,0,1,.18,1.33c-.77.86-1.9,4.23-2.24,5.74s-4.56-6.15-4.27-10.87A8.31,8.31,0,0,1,78.37,89.94Z"/><path class="cls-14" d="M99.76,213.3a24.84,24.84,0,0,1,5-1.51,21.68,21.68,0,0,0,7.07-2.4c1.76-1.06,3.46,3.13,3.53,3.56a9.69,9.69,0,0,1-.87,2.31,10,10,0,0,0-2.59,3.13,9.84,9.84,0,0,1-3,3.34,4.92,4.92,0,0,0-.45-.28A28.91,28.91,0,0,1,99.76,213.3Z"/><path class="cls-14" d="M99.76,213.3a11.74,11.74,0,0,1-3.05.59c-1.8.12-.5,3.8,2.44,3.37s5.18-1,5-2.49S103.3,211.77,99.76,213.3Z"/><path class="cls-9" d="M107.19,215.83c-2.44,1.32-3.24.89-3.59.13a4.32,4.32,0,0,1-1.18.59,27.87,27.87,0,0,0,6.08,4.9l.16.1.29.18a9.84,9.84,0,0,0,3-3.34,10,10,0,0,1,2.59-3.13c-.35-1-1.67-4.16-3.08-5.07a2.16,2.16,0,0,1-.42-.35c-.38.19-.8.38-1.24.55l-.11.05a7.24,7.24,0,0,1,.1.83,5,5,0,0,1,0,1A4.55,4.55,0,0,1,107.19,215.83Z"/><path class="cls-9" d="M102.42,216.55a4.32,4.32,0,0,0,1.18-.59c-.31-.67-.24-1.6-.64-1.75s-.84.54-1.65,1.1A3.63,3.63,0,0,1,99,216a6.73,6.73,0,0,1-3.15-1,2.82,2.82,0,0,0,3.26,2.27l.84-.13A15,15,0,0,0,102.42,216.55Z"/><path class="cls-1" d="M114.9,105.48s-1.49-5.82,2.34-2,24.07,60.42,23.75,66.29-20.55,43.38-27.07,47.78c0,0-.74.45-1.14-.61s-.93-5-2.44-5.89-.73-2,.62-3.22,13.4-30.19,15.43-37.45-15.65-33.27-17.61-38.16S104.21,113.1,114.9,105.48Z"/><path class="cls-2" d="M126.39,170.34c1.39-4.94-6.37-18.58-12.09-28.33l-1.89-3.22a71.38,71.38,0,0,1-3.63-6.61c-.15-.38-.31-.81-.46-1.3-.23-.72-.45-1.56-.65-2.47-.29-1.34-1.16-1.64-1.27-3.26.76-2.29,2.41-9.67,3.35-9.08s1.43,6.38,1.86,7.74c.34,1.08.76,2.59,1.5,4.72.25.73.53,1.53.87,2.41.56,1.46,1.25,3.14,2.11,5.09,1.19,2.68,2.71,5.84,4.68,9.59,10,18.92,5.3,25.74,5.3,25.74.12-.36.23-.7.32-1ZM141,169c-.06.14-15.47,33.34-22.67,38.06-3.13,2-5.53,1.72-7.24.68l-.08.09c-1.35,1.22-2.13,2.32-.62,3.22s2,4.83,2.44,5.89,1.14.61,1.14.61c6.52-4.4,26.74-41.91,27.07-47.78A5.73,5.73,0,0,0,141,169Z"/><path class="cls-6" d="M68.33,106a1.15,1.15,0,0,1-2.3-.15,22.22,22.22,0,0,1,12.2-18.29c.52-.25,1.48-.65,2-.84a6.36,6.36,0,0,1-.89,2.85l-.13.06A19.87,19.87,0,0,0,68.33,106ZM94.41,89.21c.32.28.65.56,1,.87,6.34,6.18,10.47,19.8,7.69,44.4a1.15,1.15,0,1,1-2.29-.26c2.65-23.47-1-36.41-6.78-42.26a3.67,3.67,0,0,0,.56-.83A7,7,0,0,1,94.41,89.21Z"/><path class="cls-15" d="M60.58,113.06a.77.77,0,0,1,1.52.25S58.47,133.24,70,138.38a.77.77,0,0,1-.62,1.4C56.74,134.14,60.57,113.12,60.58,113.06Z"/><path class="cls-15" d="M70.91,114.09a.78.78,0,0,1,.85-.68.76.76,0,0,1,.68.84c0,.07-2.26,23.25-16,23.94a.77.77,0,1,1-.07-1.53C68.77,136,70.91,114.15,70.91,114.09Z"/><path class="cls-15" d="M101.15,131.6a7.65,7.65,0,1,1-5.4,2.24l.06-.06A7.62,7.62,0,0,1,101.15,131.6Z"/><path class="cls-11" d="M104.92,135.47a5.34,5.34,0,0,0-7.49-.05l-.05.05a5.33,5.33,0,1,0,7.54,0Z"/><path class="cls-16" d="M103.08,137.31a2.68,2.68,0,0,0-1.93-.8,2.71,2.71,0,0,0-1.91.77l0,0a2.74,2.74,0,1,0,4.67,1.93A2.7,2.7,0,0,0,103.08,137.31Z"/><path class="cls-6" d="M62.49,113.17a1.15,1.15,0,0,1-2.3,0c-.06-3.91,1.62-6.53,3.76-7.73a5.85,5.85,0,0,1,3.1-.76,5.56,5.56,0,0,1,3,1.07c1.93,1.42,3.25,4.24,2.75,8.52a1.15,1.15,0,1,1-2.29-.26c.39-3.33-.49-5.43-1.82-6.4A3.22,3.22,0,0,0,67,107a3.45,3.45,0,0,0-1.87.47C63.6,108.3,62.44,110.22,62.49,113.17Z"/><path class="cls-16" d="M71.59,137.3a2.45,2.45,0,0,0-3.43,0l0,0a2.47,2.47,0,0,0-.71,1.73,2.44,2.44,0,0,0,4.88,0A2.48,2.48,0,0,0,71.59,137.3Z"/><path class="cls-16" d="M58.69,135.8a2.45,2.45,0,0,0-3.43,0l0,0a2.44,2.44,0,1,0,3.46,0Z"/><rect class="cls-17" x="53.73" y="44.88" width="4.58" height="11.02" transform="translate(-12.82 19.75) rotate(-17.98)"/><path class="cls-18" d="M57.33,53.67a7.67,7.67,0,1,1-6.83,8.42A7.67,7.67,0,0,1,57.33,53.67Z"/><path class="cls-18" d="M109.58,48.23a7.67,7.67,0,1,1-6.83,8.42A7.67,7.67,0,0,1,109.58,48.23Z"/><path class="cls-14" d="M77.7,12.55h0A26.34,26.34,0,0,1,106.54,36L109,59.71A26.34,26.34,0,0,1,85.61,88.55h0a26.34,26.34,0,0,1-28.85-23.4L54.29,41.4A26.35,26.35,0,0,1,77.7,12.55Z"/><path class="cls-9" d="M88.61,13.74A26.33,26.33,0,0,1,106.54,36L109,59.71A26.34,26.34,0,0,1,85.61,88.55h0a26,26,0,0,1-9.56-.77c25.57-2.47,26.52-20.86,25.08-34.68-1.58-15.26-6.81-18.81-12.21-18.24L69.1,36.92S63.82,21.36,84.12,15C85.71,14.48,87.2,14.07,88.61,13.74Z"/><path class="cls-12" d="M91.62,21.63,88,26.75s-5.43-1.88-10.23.32,5.72-8.86,6.31-8.92S91.62,21.63,91.62,21.63Z"/><path class="cls-19" d="M103.45,34.79l.84,8c.33,3.15,1,4,2.69,5,0,0-.65,3.15,1.18,3.68,0,0-.38-3.69,4.46-3,0,0,10.07-45.39-25.8-41.65,0,0-8-8.31-23.89-6.65C43.14,2.28,49,22.73,50.23,35.87c.56,5.77,2.16,10.44-1.6,11.2,0,0,2.49.13,6,0,21.31-.78,19-6.79,26.21-22.48,2.46-5.33,5.68-5,7.17,2.16C88,26.75,102.42,25.25,103.45,34.79Z"/><path class="cls-20" d="M84.29,4.85a27.24,27.24,0,0,0-3.5-2C79.31,19.53,58.65,21.41,48.57,21.33c.27,4.18,1,8.45,1.41,12.28C74.84,31.17,82.18,13.43,84.29,4.85Z"/><path class="cls-21" d="M103.45,34.79l.68,6.53a85,85,0,0,0,9.75-8.25c-.28-7.36-2-15.68-7.6-21-.57,5.65-4.55,12-18.26,14.66,0,0,14.4-1.5,15.43,8ZM50.88,41c.39,3.25.31,5.58-2.25,6.1,0,0,2.49.13,6,0,21.31-.78,19-6.79,26.21-22.48,1.25-2.71,2.7-4,4-3.59h0c-7-2.67-7.29,12.41-20.4,17A71.63,71.63,0,0,1,50.88,41Z"/><path class="cls-12" d="M103.45,34.79l.84,8c.33,3.15,1,4,2.69,5,0,0-.65,3.15,1.18,3.68,0,0-.38-3.69,4.46-3,0,0,4.91-22.15-4.36-34.23.18.52,4.73,13.85-5.19,18.73A8.51,8.51,0,0,1,103.45,34.79Z"/><path class="cls-12" d="M65.26,58.73h0A2.58,2.58,0,0,1,68.08,61l.35,3.33a2.59,2.59,0,0,1-2.3,2.83h0a2.59,2.59,0,0,1-2.82-2.29L63,61.55A2.58,2.58,0,0,1,65.26,58.73Z"/><path class="cls-12" d="M92.65,55.88h0a2.58,2.58,0,0,1,2.83,2.29l.34,3.33a2.58,2.58,0,0,1-2.29,2.83h0A2.58,2.58,0,0,1,90.71,62l-.35-3.33A2.57,2.57,0,0,1,92.65,55.88Z"/><path class="cls-12" d="M61,52.71,68.2,52a1.4,1.4,0,0,1,1.54,1.24h0a1.4,1.4,0,0,1-1.25,1.54l-7.22.75a1.4,1.4,0,0,1-1.54-1.24h0A1.4,1.4,0,0,1,61,52.71Z"/><path class="cls-12" d="M88.37,49.86l7.23-.75a1.39,1.39,0,0,1,1.53,1.24h0a1.4,1.4,0,0,1-1.24,1.54l-7.23.75a1.4,1.4,0,0,1-1.53-1.25h0A1.4,1.4,0,0,1,88.37,49.86Z"/><path class="cls-18" d="M64.64,69a3.8,3.8,0,1,1-3.39,4.18A3.79,3.79,0,0,1,64.64,69Z"/><path class="cls-18" d="M97.16,65.61a3.8,3.8,0,1,1-3.39,4.17A3.79,3.79,0,0,1,97.16,65.61Z"/><path class="cls-22" d="M76.29,75a1.14,1.14,0,1,0-2.26.31A5.53,5.53,0,0,0,76.15,79,5.52,5.52,0,0,0,85,73.87a1.14,1.14,0,1,0-2.27.3,3.22,3.22,0,0,1-2.77,3.63A3.22,3.22,0,0,1,76.29,75Z"/><path class="cls-5" d="M0,110.52c0,1.67,15.84,58.5,16.67,61.84s2.51,3.75,8,3.68,36.48-.35,39.68-.07,7.43-1.67,6.39-4.79S55,112.47,54.47,111.35s-2.22-4-7.71-3.61c-5.23.4-28,0-42.45.13C2.61,107.87,0,108,0,110.52Z"/><path class="cls-23" d="M17.69,174.59c1.11,1.3,3.08,1.5,7,1.45,5.48-.07,36.47-.35,39.67-.07s7.43-1.67,6.39-4.8S55,112.47,54.47,111.35s-2.22-4-7.71-3.61c-.58.05-1.39.08-2.38.11.19,0,6.2.32,8.79,11,2.5,10.31,18.2,53.69-35.48,55.74ZM9.42,145.91,11.63,144l5.47-1.54s5.8,9,.63,14.86a17,17,0,0,0-3.49,6.09C12.93,158.64,11.21,152.41,9.42,145.91Z"/><path class="cls-14" d="M8.24,142.39s4.87-2.3,7.68-1.41,1.62,12.7-.18,14.61a3.69,3.69,0,0,1-5.69-.24C9,153.74,3.71,144.82,8.24,142.39Z"/><path class="cls-9" d="M15.19,140.83a3.38,3.38,0,0,1,.73.16c2.81.89,1.62,12.69-.18,14.6a3.69,3.69,0,0,1-5.69-.24c-.25-.38-.73-1.15-1.26-2.16C15.56,151.44,15.76,144.88,15.19,140.83Z"/></g></g></svg>