<svg xmlns="http://www.w3.org/2000/svg" viewBox="0 0 71.03 170.97"><defs><style>.cls-1{fill:#f4ad85;}.cls-1,.cls-10,.cls-11,.cls-12,.cls-13,.cls-14,.cls-15,.cls-17,.cls-18,.cls-19,.cls-2,.cls-20,.cls-21,.cls-22,.cls-25,.cls-26,.cls-3,.cls-4,.cls-5,.cls-6,.cls-7,.cls-8,.cls-9{fill-rule:evenodd;}.cls-2{fill:#ed9072;}.cls-3{fill:#f2f0f0;}.cls-4{fill:#cecbcb;}.cls-5{fill:#b6b4b2;}.cls-6{fill:#999793;}.cls-7{fill:#414042;}.cls-16,.cls-8{fill:#231f20;}.cls-24,.cls-9{fill:#fff;}.cls-10{fill:#d9d4d6;}.cls-11{fill:#f5f4f4;}.cls-12{fill:#2a999b;}.cls-13{fill:#4fbcbe;}.cls-14{fill:#183257;}.cls-15{fill:#111a39;}.cls-17{fill:#e37b64;}.cls-18{fill:#58595b;}.cls-19{fill:#6d6e71;}.cls-20{fill:#14274b;}.cls-21,.cls-23{fill:#3a4f77;}.cls-22{fill:#14294c;}.cls-25{fill:#4b120d;}.cls-26{fill:#d64341;}</style></defs><title>full_outРесурс 3</title><g id="Слой_2" data-name="Слой 2"><g id="OBJECTS"><path class="cls-1" d="M4.43,49.14a11.63,11.63,0,0,0-1.15-2.61c-.52-.6-2.14-.9-2.65-2S-.79,41.72,1.37,41,5,40,5.31,40.8s1,2.07.94,2.93a5.51,5.51,0,0,0,.41,4.08C7.69,49.43,4.43,49.14,4.43,49.14Z"/><path class="cls-2" d="M4.43,49.14a11.63,11.63,0,0,0-1.15-2.61c-.52-.6-2.14-.9-2.65-2s-1.42-2.85.74-3.6l1-.32A1.74,1.74,0,0,0,1.3,43.27c1.05,2,2.59,2.13,3.59,1.09a10.09,10.09,0,0,1,1.33-1.18,1.74,1.74,0,0,1,0,.55c0,.41-.18,1-.21,1.65a.94.94,0,0,0-1,.43c-.64.95-.48,2.37,1.33,1.35a5.69,5.69,0,0,0,.33.65C7.69,49.43,4.43,49.14,4.43,49.14Z"/><path class="cls-3" d="M31.55,42.66A18.32,18.32,0,0,0,27.18,47c-2.17,2.94-5.72,7.39-8.81,11.07-3.31,4-2.75,4.92-5.32.71-2.7-4.44-4.32-8.16-5.29-10.06C7.61,48.42,7,47,6.41,47.46a5.77,5.77,0,0,1-1.2.89c-.57.29-1.14,0-1.27.83,0,1.85,1.8,8.44,8.56,18.08.05,0-.72-.89.14.15s3.14,1.3,4,.4l.1-.06c2.68-2.58,8.33-7.11,11.83-11.43s4.62-8.15,6.06-11.11h0l.07-.17,0,0,0-.1h0l0-.09,0-.06v0h0a5.54,5.54,0,0,0,.53-1.57l-1.1,1.22Z"/><path class="cls-4" d="M31.55,42.66A18.32,18.32,0,0,0,27.18,47c-.58.78-1.26,1.68-2,2.64.46,3-.3,8.21-2.63,10.84-2.83,3.19-7,7.33-9.65,4.79S6,52.93,5.45,50.66c-.31-1.34,1-1.94,2.18-2.21-.26-.49-.77-1.35-1.22-1a5.77,5.77,0,0,1-1.2.89c-.57.29-1.14,0-1.27.83,0,1.85,1.8,8.44,8.56,18.08.05,0-.72-.89.14.15s3.14,1.3,4,.4l.1-.06c2.68-2.58,8.33-7.11,11.83-11.43s4.62-8.15,6.06-11.11h0l.07-.17,0,0,0-.1h0l0-.09,0-.06v0h0a5.54,5.54,0,0,0,.53-1.57l-1.1,1.22Z"/><path class="cls-1" d="M31.21,87.87a5.11,5.11,0,0,0,1.18.42c.71.15,0,1.53-1.17,1.19s-2-.73-1.85-1.29S29.9,87.05,31.21,87.87Z"/><path class="cls-2" d="M30,89a1.7,1.7,0,0,1-.43-.31c.16-.24.19-.62.36-.65s.3.26.59.54a1.54,1.54,0,0,0,.86.41,2.78,2.78,0,0,0,1.31-.22,1.14,1.14,0,0,1-1.43.71l-.32-.11A6.14,6.14,0,0,1,30,89Z"/><path class="cls-5" d="M29.21,92.2s.64,18.38,1.58,26.72,15.16,32.45,16.81,35,2.25,3.1,3.2,3.44,2.57-1.41,1.07-3.53-12.67-28.2-13.46-30.49,5.2-27,3.82-30S29.21,92.2,29.21,92.2Z"/><path class="cls-6" d="M34.45,129.31c2.26,4.87,5.2,10.29,7.76,14.79.11-1.51.47-3,1.48-3.15,2.05-.27,5.94,11.71,6.26,12.82s-.52,1.63-1.12,2.11a2.93,2.93,0,0,0,2,1.48c.79.28,2.57-1.41,1.07-3.53s-12.74-28.4-13.46-30.49,3.33-19.12,4-26.71a25.72,25.72,0,0,0-6.92.56l-1.78,1s3,.64,3.36,6.62C37.37,110.33,37.77,124.92,34.45,129.31Z"/><path class="cls-5" d="M47.09,90.27a3,3,0,0,1-.21-2.86c-6.06-1.74-15.67-3-17.78,0l-.24.2c5.69,1.67,10.14,5,10.23,5.58,1,6.89-4,65.16-6.11,71.74-.29.88,2.61,2.3,3.62,1,0,0,.19-.19.28-1S47.61,114.63,51,96.39C49.59,94.4,48.47,92.25,47.09,90.27Z"/><path class="cls-7" d="M33.28,164.81h0c2.18.78,2.33-.19,3.2-.11s.82,2.78.62,3.28-1-.1-1.79,1.18a3.67,3.67,0,0,1-1.45,1.33c-1.29.73-6.08.72-6-.64C27.91,167.66,30.61,163.8,33.28,164.81Z"/><path class="cls-8" d="M35,165.1c.71-.06,1-.45,1.54-.4.87.09.82,2.78.62,3.28s-1-.1-1.79,1.18a3.67,3.67,0,0,1-1.45,1.33,5.49,5.49,0,0,1-1.95.45A5.37,5.37,0,0,0,35,165.1Z"/><path class="cls-9" d="M37.21,167.39a2.48,2.48,0,0,1-.1.59c-.21.49-1-.1-1.79,1.18a3.67,3.67,0,0,1-1.45,1.33c-1.29.73-6.08.72-6-.64a2.19,2.19,0,0,1,0-.36,3.87,3.87,0,0,0,2.32.49c2.19-.14,3.36-.51,4.47-1.49C35.57,167.68,36.66,167.75,37.21,167.39Z"/><path class="cls-10" d="M37.21,167.39a2.48,2.48,0,0,1-.1.59c-.21.49-1-.1-1.79,1.18a3.67,3.67,0,0,1-1.45,1.33,5.49,5.49,0,0,1-1.95.45,6.28,6.28,0,0,0,2.35-2.14l.39-.31C35.57,167.68,36.66,167.75,37.21,167.39Z"/><path class="cls-7" d="M49.35,157.84a11.39,11.39,0,0,1,1.3,5c0,2.33,1.6,2.2,2.41,1.72s1.55-1.08,1.42-3-.11-3.82-.09-4.86-1.1-2.86-2.32-2.42c0,0-.11,2.2-1.07,2.43a1.74,1.74,0,0,1-1.5-.25S48.86,156.59,49.35,157.84Z"/><path class="cls-8" d="M53.06,164.6c.82-.48,1.55-1.08,1.42-3s-.11-3.82-.09-4.86-1.1-2.86-2.32-2.42c0,0-.11,2.2-1.07,2.43a1.74,1.74,0,0,1-1.5-.25s-.56.11-.23,1.15a3.94,3.94,0,0,1,3.91,1.18A4.78,4.78,0,0,1,53.06,164.6Z"/><path class="cls-9" d="M50.71,163.62a1.46,1.46,0,0,0,2.35,1c.82-.48,1.55-1.08,1.42-3s-.11-3.82-.09-4.86a2.82,2.82,0,0,0-.36-1.26s0,2.38,0,4,.21,3.45-.85,4A2.75,2.75,0,0,1,50.71,163.62Z"/><path class="cls-10" d="M53.06,164.6c.82-.48,1.55-1.08,1.42-3s-.11-3.82-.09-4.86a2.82,2.82,0,0,0-.36-1.26s0,2.38,0,4c0,.48,0,1,0,1.43A4.47,4.47,0,0,1,53.06,164.6Z"/><path class="cls-6" d="M29.31,94.88c.05,1.2.11,2.72.19,4.45a7.38,7.38,0,0,1,5.14-1.11c1.51.22,3.09.39,4.58.66a18,18,0,0,1,2.81.71c2.2.79,3.89,2.14,4.32,4.74.1.62-2,14.26-4.29,28.05-.5,3-1,5.91-1.52,8.74-1.71,9.59-3.35,17.82-4.21,19.83a4.55,4.55,0,0,1-3,2.54c-.13.6-.24,1.08-.35,1.43a5.86,5.86,0,0,0,2,.18c.71-.06,1-.45,1.54-.4a.53.53,0,0,1,.39.29v-.05c0-.28,2.08-9.85,4.64-22.06L43.16,135c3.58-17.15,7.55-36.54,8.54-43-1.76,1.78-5.57,3.09-8.83,3.78l-.41.08h-.05a14.36,14.36,0,0,1-3.17.4c-.25,0-.52,0-.85,0A38,38,0,0,1,29.31,94.88Z"/><path class="cls-11" d="M32,49.9c1.21-.76,1.9-.14,3.22,1.28s2.57,1.29,3.3,1.6.7,13.49-4.06,15.51c-1.76.74-2.86,0-3.54-1.6C29.7,63.87,28.84,51.88,32,49.9Z"/><path class="cls-12" d="M54.19,47.74l-3.7-4.68-.81-.7-8.22-3.09-3.8.59h0s-3.79,1.85-4.11,1.83a.4.4,0,0,1-.16-.06l-2.24,6.45s-1.36,9.35-1.56,10-.35,9.6.35,10.89.11,3.28,2.83,4.11,8.54,2.46,12.45-1.67a37.55,37.55,0,0,0,5.69-7.81C51.89,62.18,54.19,47.74,54.19,47.74Z"/><path class="cls-13" d="M32,48.83c1.22-.76,1.91-.14,3.24,1.29s2.58,1.29,3.31,1.61.71,13.56-4.08,15.59c-1.77.75-2.87,0-3.55-1.6C29.71,62.89,28.84,50.83,32,48.83Z"/><path class="cls-14" d="M38.67,45.14l-.23.4s-3.25,9.84-3.12,17.74,4.12,1.14,4,.47-.77-13.52-.08-18.16C39.29,45.59,39.23,45,38.67,45.14Z"/><path class="cls-15" d="M38.67,45.14l-.23.4s-.12.36-.31,1c.25.18.54.59.53,1.58,0,1.39.09,6.83-3,9.6a39.15,39.15,0,0,0-.36,5.57c.14,7.89,4.12,1.14,4,.47s-.77-13.52-.08-18.16C39.29,45.59,39.23,45,38.67,45.14Z"/><path class="cls-3" d="M36.78,40.31a33.78,33.78,0,0,0-2,16.17,76.45,76.45,0,0,0,3.78,15.24l3.63,44.41-3.77.08,1.13,3.1L38,118.74s-2.48,4.48-7,4.75-3.85-2.56-3.38-4.89,1-37.1.11-46.67S24.11,42,36.78,40.31Z"/><path class="cls-4" d="M34.53,53.77c0,.89-.43-2.07.24,2.71s3.78,15.24,3.78,15.24l3.63,42.73c-.33.57-.67,1.14-1,1.7l-2.75.06.94,2.57-.27.36-1.13-.4s-2.48,4.48-7,4.75c-2,.12-3-.37-3.42-1.15,2.67.37,3.79-29.58,5.75-41.92s-1.79-21.85-2.23-24.2a22.05,22.05,0,0,1-.45-3.3l2.72-2.76.33,3.49Z"/><path class="cls-3" d="M53.88,120.35C52.59,123.4,45,125.22,41,125.5c-8.59.59-5.84-45.57-5.41-50.3,1.24-14,.62-23.36,10.21-34.42a26.74,26.74,0,0,1,5.76,2.32c1.78.91,4,2.54,4.29,4.56.41,2.86-2.76,12.77-4.71,19C47.82,77,55.65,116.2,53.88,120.35Z"/><path class="cls-4" d="M53.88,120.35c-1,2.38-5.84,4-9.84,4.74,5.09-3.23,5-38.63,3.68-48.15s2-23.7,2-23.7l1.62,1.37,1.42,1.22c-.39,1.44.73,2.93.28,4.42-.68,2.27-1.39,4.5-2,6.39C47.82,77,55.65,116.2,53.88,120.35Z"/><path class="cls-2" d="M44.46,31.52l-.1,2.24v5.29a1.92,1.92,0,0,0,.87,1.25c-.82.9-2.86,3-4.14,3.18a6.21,6.21,0,0,1-4-.88c-.33-.28-.36-1.75-.56-2.57l.14,0a2.39,2.39,0,0,0,1-.59c.77-.84.73-4.57,0-5.55S44.46,31.52,44.46,31.52Z"/><path class="cls-12" d="M38.35,42.45l.93-.5A4.2,4.2,0,0,0,39.46,43c.12,0,.26-.64.66-.89s1.47,1.22,1.47,1.22-.4,1.14-1,1.22-2.3.27-2.32-.24S38.35,42.45,38.35,42.45Z"/><path class="cls-15" d="M39.54,43.68a3.5,3.5,0,0,0,1.5-.49.92.92,0,0,1,1.19.11l-.66.74,0,.32a2.43,2.43,0,0,0-1.6.28C39.3,45.09,39.54,43.68,39.54,43.68Z"/><path class="cls-9" d="M36.66,40.6S32.24,51.36,36.73,66l0,1.12a84,84,0,0,1-5.48-12.32s-.15-.53.22-.76A4.25,4.25,0,0,1,33,53.22c.42,0-.22-.55-1.87.16a.73.73,0,0,1-.52-.46c-.12-.37.37-6.56,4.78-12.34,0,0,.06-.16.39-.25S36.77,40.05,36.66,40.6Z"/><path class="cls-13" d="M44.84,39.23a6.09,6.09,0,0,1-4.25,2.63.81.81,0,0,0-.66.76c0,.62,1.82,2.31,2,3.22S45.8,42,46,40.53C46,40.53,45.43,39.4,44.84,39.23Z"/><path class="cls-14" d="M38.25,43.74a1.31,1.31,0,0,1,.64-.28,1.79,1.79,0,0,1,1,.2,2,2,0,0,1,.5.78,4.19,4.19,0,0,1-1.13,1.15c-.27.13-.56-.09-.85-.05S38.07,44,38.25,43.74Z"/><path class="cls-15" d="M39.6,43.52a.73.73,0,0,1,.32.14,2,2,0,0,1,.5.78,4.19,4.19,0,0,1-1.13,1.15c-.27.13-.56-.09-.85-.05-.07,0-.13-.08-.17-.23C40.32,45,39.74,43.76,39.6,43.52Z"/><path class="cls-13" d="M37.54,39.15a3.09,3.09,0,0,0,1.54,2.54.33.33,0,0,1,.07.57,8.7,8.7,0,0,0-.95,2.45c-.15.65-2-2.63-1.83-4.64A3.65,3.65,0,0,1,37.54,39.15Z"/><rect class="cls-16" x="28.6" y="18.69" width="1.96" height="4.71" transform="translate(-3.74 6.63) rotate(-12.03)"/><path class="cls-17" d="M30,29.06a3.28,3.28,0,1,0-3.28-3.28A3.29,3.29,0,0,0,30,29.06Z"/><path class="cls-17" d="M52.47,29.06a3.28,3.28,0,1,0-3.28-3.28A3.28,3.28,0,0,0,52.47,29.06Z"/><path class="cls-1" d="M40.48,5.91h0A11.26,11.26,0,0,1,51.72,17.14V27.36A11.27,11.27,0,0,1,40.48,38.6h0A11.28,11.28,0,0,1,29.24,27.36V17.14A11.27,11.27,0,0,1,40.48,5.91Z"/><path class="cls-2" d="M45.07,6.89a11.28,11.28,0,0,1,6.65,10.25V27.36A11.27,11.27,0,0,1,40.48,38.6h0a11,11,0,0,1-4-.76c11,.09,12.21-7.7,12.21-13.64,0-6.57-2.07-8.31-4.39-8.31H35.75S34.19,9,43.11,7.22C43.81,7.08,44.46,7,45.07,6.89Z"/><path class="cls-8" d="M46,10.38l-1.76,2a6.56,6.56,0,0,0-4.37-.31c-2.14.72,2.83-3.52,3.08-3.52A32.82,32.82,0,0,1,46,10.38Z"/><path class="cls-18" d="M50.46,16.51V20c0,1.36.24,1.76.92,2.26,0,0-.41,1.31.34,1.62,0,0,0-1.59,2-1.08,0,0,6.29-18.87-9.13-18.87,0,0-3-3.89-9.87-3.89-8.52,0-6.95,9-7,14.61,0,2.48.46,4.54-1.18,4.7,0,0,1.06.16,2.56.26,9.1.61,8.37-2.05,12.15-8.4,1.29-2.16,2.64-1.88,3,1.23C44.25,12.4,50.44,12.4,50.46,16.51Z"/><path class="cls-19" d="M43.63,2.92a11,11,0,0,0-1.4-1C40.86,9,32,8.83,27.7,8.35c-.07,1.79,0,3.64.06,5.29C38.44,13.7,42.35,6.47,43.63,2.92Z"/><path class="cls-7" d="M50.46,16.51v2.81A36.78,36.78,0,0,0,55,16.24c.21-3.15-.17-6.76-2.3-9.27-.49,2.38-2.47,4.9-8.42,5.43,0,0,6.19,0,6.21,4.11Zm-22.65.3c0,1.4-.11,2.39-1.23,2.5,0,0,1.06.16,2.56.26,9.1.61,8.37-2.05,12.15-8.4.66-1.1,1.33-1.57,1.87-1.35h0c-2.88-1.45-3.65,4.95-9.43,6.31A30.38,30.38,0,0,1,27.81,16.81Z"/><path class="cls-8" d="M50.46,16.51V20c0,1.36.24,1.76.92,2.26,0,0-.41,1.31.34,1.62,0,0,0-1.59,2-1.08,0,0,3.07-9.21-.34-14.76.06.23,1.4,6.1-3,7.74A3.13,3.13,0,0,1,50.46,16.51Z"/><path class="cls-8" d="M33.33,23.08h0a1.11,1.11,0,0,1,1.11,1.1v1.44a1.11,1.11,0,0,1-1.11,1.1h0a1.11,1.11,0,0,1-1.1-1.1V24.18A1.11,1.11,0,0,1,33.33,23.08Z"/><path class="cls-8" d="M45.12,23h0a1.1,1.1,0,0,1,1.1,1.1v1.44a1.11,1.11,0,0,1-1.1,1.1h0a1.1,1.1,0,0,1-1.1-1.1V24.11A1.1,1.1,0,0,1,45.12,23Z"/><path class="cls-17" d="M32.62,31.37A1.63,1.63,0,1,0,31,29.74,1.63,1.63,0,0,0,32.62,31.37Z"/><path class="cls-17" d="M46.61,31.37A1.63,1.63,0,1,0,45,29.74,1.63,1.63,0,0,0,46.61,31.37Z"/><path class="cls-9" d="M45.75,40.78S37,47,36.16,68.21c0,0,0,.43.17.46s4.2-11.34,6.77-13.37a.68.68,0,0,0,.23-.76,6.22,6.22,0,0,0-2-1.65c-.57-.32,1.62,0,2.41.44s1.32,0,1.84-.79-.18-9.78,2-11.2a.22.22,0,0,0,0-.24,9,9,0,0,0-1.39-.46A.6.6,0,0,0,45.75,40.78Z"/><path class="cls-15" d="M33.13,46.14a.49.49,0,0,1-1-.06,9.53,9.53,0,0,1,5.22-7.83l.14-.06.64.16a2,2,0,0,1-.3.76l-.06,0a8.52,8.52,0,0,0-4.66,7ZM44.29,39c.14.12.28.24.42.38,2.7,2.64,4.47,8.47,3.28,19a.49.49,0,0,1-.54.44.49.49,0,0,1-.43-.55c1.13-10-.44-15.58-2.91-18.08a1.46,1.46,0,0,0,.24-.36A3.1,3.1,0,0,1,44.29,39Z"/><path class="cls-20" d="M29.82,49.18a.34.34,0,0,1,.38-.27.34.34,0,0,1,.27.38S28.92,57.82,33.85,60a.33.33,0,0,1-.26.6C28.17,58.21,29.81,49.21,29.82,49.18Z"/><path class="cls-20" d="M34.24,49.63a.33.33,0,0,1,.36-.29.32.32,0,0,1,.29.36s-1,9.94-6.85,10.24a.32.32,0,0,1-.34-.31.33.33,0,0,1,.31-.35C33.32,59,34.23,49.66,34.24,49.63Z"/><path class="cls-20" d="M47.18,57.12a3.26,3.26,0,1,1-2.32,1l0,0A3.3,3.3,0,0,1,47.18,57.12Z"/><path class="cls-21" d="M48.79,58.77a2.31,2.31,0,0,0-3.21,0l0,0a2.32,2.32,0,0,0-.67,1.62,2.29,2.29,0,0,0,4.57,0A2.32,2.32,0,0,0,48.79,58.77Z"/><path class="cls-22" d="M48,59.56a1.17,1.17,0,0,0-1.64,0h0a1.15,1.15,0,0,0-.35.83,1.17,1.17,0,0,0,2,.83,1.21,1.21,0,0,0,.35-.83A1.19,1.19,0,0,0,48,59.56Z"/><path class="cls-15" d="M30.63,49.23a.48.48,0,0,1-.48.5.49.49,0,0,1-.5-.49,3.55,3.55,0,0,1,1.61-3.3,2.43,2.43,0,0,1,1.33-.32,2.39,2.39,0,0,1,1.29.45,3.74,3.74,0,0,1,1.17,3.65.49.49,0,0,1-.54.43.48.48,0,0,1-.43-.54,2.86,2.86,0,0,0-.78-2.74,1.35,1.35,0,0,0-.76-.27,1.47,1.47,0,0,0-.8.2A2.6,2.6,0,0,0,30.63,49.23Z"/><path class="cls-22" d="M34.53,59.56a1,1,0,0,0-.74-.31,1.07,1.07,0,0,0-.73.3h0a1.06,1.06,0,0,0,0,1.48,1.06,1.06,0,0,0,1.48,0,1,1,0,0,0,0-1.48Z"/><path class="cls-22" d="M29,58.92a1,1,0,0,0-.74-.31,1,1,0,0,0-.73.3h0a1,1,0,0,0-.31.74,1.06,1.06,0,0,0,.31.74,1.06,1.06,0,0,0,1.48,0,1.05,1.05,0,0,0,.3-.74A1,1,0,0,0,29,58.92Z"/><path class="cls-15" d="M52.92,95.19h9.8a1,1,0,0,1,1,1v6.5a1,1,0,0,1-.3.72l0,0a1,1,0,0,1-.7.28h-9.8a1,1,0,0,1-1-1v-6.5a1,1,0,0,1,1-1Zm9.8.81h-9.8a.19.19,0,0,0-.14.07.17.17,0,0,0-.06.14v6.5a.2.2,0,0,0,.06.15.22.22,0,0,0,.14.06h9.8a.24.24,0,0,0,.14,0h0a.25.25,0,0,0,.06-.15v-6.5a.2.2,0,0,0-.06-.14A.21.21,0,0,0,62.72,96Z"/><path class="cls-1" d="M54.93,93.59a10.56,10.56,0,0,1,2-1A9.29,9.29,0,0,0,59.67,91c.65-.59,1.7,1,1.76,1.21a4,4,0,0,1-.18,1,4.18,4.18,0,0,0-.84,1.51,4,4,0,0,1-1,1.63S56,97.55,54.89,96c1.75-.46.38-1.39.67-1.83C55.34,94,55.13,93.79,54.93,93.59Z"/><path class="cls-23" d="M46.36,97.83H69.58A1.45,1.45,0,0,1,71,99.29v15.4a1.45,1.45,0,0,1-1.45,1.45H46.37a1.46,1.46,0,0,1-1.46-1.46V99.29A1.45,1.45,0,0,1,46.36,97.83Z"/><path class="cls-14" d="M67.4,97.83h2.17A1.47,1.47,0,0,1,71,99.29v15.39a1.46,1.46,0,0,1-1.46,1.46H46.37a1.46,1.46,0,0,1-1.46-1.46v-3.25C60.7,111.17,65.82,102.34,67.4,97.83Z"/><path class="cls-22" d="M69.62,97.83V113a1.45,1.45,0,0,1-1.45,1.45H44.91v.23a1.53,1.53,0,0,0,.18.71,1.48,1.48,0,0,0,1.28.75h23.2A1.46,1.46,0,0,0,71,114.68V99.29A1.47,1.47,0,0,0,69.62,97.83Z"/><rect class="cls-24" x="51.23" y="100.37" width="13.48" height="1.89" rx="0.6" ry="0.6"/><path class="cls-1" d="M54.93,93.59a5.42,5.42,0,0,1-1.23.49c-.74.19.09,1.62,1.28,1.21s2.09-.84,1.92-1.44S56.29,92.67,54.93,93.59Z"/><path class="cls-2" d="M56.18,94.8c0-.47-.27-.49-.65-.38a5.64,5.64,0,0,1-1.92.48,1.12,1.12,0,0,0,.32.29,1.21,1.21,0,0,0,1,.1l.3-.1.47-.19A3.45,3.45,0,0,0,56.18,94.8Z"/><path class="cls-2" d="M58.78,95.19a1.46,1.46,0,0,1-2.49,0,1,1,0,0,1-.11-.39l-.43.2a.65.65,0,0,1,0,.19c0,.31-.12.61-.9.81,1.1,1.55,4.54.38,4.54.38a3.16,3.16,0,0,0,.34-.38,3.88,3.88,0,0,0,.47-.81,2.65,2.65,0,0,0,.17-.44,6.88,6.88,0,0,1,.27-.64l0,0c-.25-.41-.78-2-1.48-2.27a.76.76,0,0,1-.32-.19l-.34.21a2.29,2.29,0,0,1,.61,2.76A2.43,2.43,0,0,1,58.78,95.19Z"/><path class="cls-3" d="M52.74,47.32s-.47-3.67,1.43-2.39S68.39,69.64,68.72,72.12s-5.16,19.75-7.54,22.11c0,0-.27.25-.53-.17s-.78-2-1.48-2.27-.46-.77,0-1.39,3.22-13.68,3.5-16.87S53.49,60.86,52.29,59,48.87,51.35,52.74,47.32Z"/><path class="cls-4" d="M62.67,73.53c.19-2.18-4.14-7.27-7.3-10.89-.36-.42-.72-.82-1-1.2a30.43,30.43,0,0,1-2-2.47l-.3-.51c-.15-.29-.31-.62-.46-1-.23-.54-1.61-3.57-1.78-4.24a1.34,1.34,0,0,1,1.67-1.09c.44.17,1.1,2.56,1.39,3.09s.52,1,1,1.86c.16.28.34.59.56.93.34.57.76,1.22,1.28,2,.71,1,1.59,2.22,2.72,3.64C64,70.76,62.61,74,62.61,74q0-.24.06-.45Zm6-1.73c0,.06-3.83,15.16-6.47,17.7a2.69,2.69,0,0,1-3,.85l0,.05c-.46.62-.7,1.14,0,1.39s1.23,1.86,1.48,2.27.53.17.53.17c2.38-2.36,7.87-19.63,7.54-22.11A1.85,1.85,0,0,0,68.64,71.8Z"/><path class="cls-8" d="M42.74,20.12a.48.48,0,0,0-.14.68.5.5,0,0,0,.68.14,3.22,3.22,0,0,1,2.89-.26.5.5,0,0,0,.4-.91A4.25,4.25,0,0,0,42.74,20.12Z"/><path class="cls-8" d="M31,19.82a.49.49,0,0,0-.25.65.48.48,0,0,0,.65.24,3.25,3.25,0,0,1,2.91.19.49.49,0,0,0,.68-.15.5.5,0,0,0-.16-.68A4.24,4.24,0,0,0,31,19.82Z"/><path class="cls-25" d="M42.05,30.17a3.31,3.31,0,1,1-6.62.18h0a.58.58,0,0,1,.56-.59l5.47-.14a.57.57,0,0,1,.59.55Z"/><path class="cls-26" d="M40.89,32.78a3.27,3.27,0,0,1-3.82.34,2.06,2.06,0,0,1,1.86-1.27A2.08,2.08,0,0,1,40.89,32.78Z"/><path class="cls-9" d="M36.17,29.76l5.15-.14a1.17,1.17,0,0,1-.53,1.28c-.46.17-4.19.17-4.46-.11A2.05,2.05,0,0,1,36.17,29.76Z"/><path class="cls-1" d="M5.18,44.65l1-.7a2.29,2.29,0,0,1,1.6-1c1.2-.24-.48-2.67-2-.94C4.09,44.06,5.18,44.65,5.18,44.65Z"/><path class="cls-2" d="M5.18,44.65l1-.7a2.29,2.29,0,0,1,1.6-1,.46.46,0,0,0,.4-.35c-1-.41-2.34.71-3.3,1.69A.7.7,0,0,0,5.18,44.65Z"/></g></g></svg>