<svg xmlns="http://www.w3.org/2000/svg" viewBox="0 0 103.52 170.94"><defs><style>.cls-1,.cls-19{fill:#f4ad85;}.cls-1,.cls-10,.cls-11,.cls-12,.cls-13,.cls-14,.cls-15,.cls-16,.cls-18,.cls-2,.cls-20,.cls-21,.cls-23,.cls-24,.cls-25,.cls-26,.cls-27,.cls-3,.cls-4,.cls-5,.cls-6,.cls-7,.cls-8,.cls-9{fill-rule:evenodd;}.cls-2{fill:#ed9072;}.cls-3{fill:#f2f0f0;}.cls-4{fill:#cecbcb;}.cls-5{fill:#2a999b;}.cls-6{fill:#4fbcbe;}.cls-7{fill:#183257;}.cls-8{fill:#111a39;}.cls-9{fill:#c1bab9;}.cls-10{fill:#a29a99;}.cls-11{fill:#fff;}.cls-12{fill:#3a4f77;}.cls-13{fill:#14294c;}.cls-14{fill:#d9d4d6;}.cls-15{fill:#414042;}.cls-16,.cls-17{fill:#231f20;}.cls-18,.cls-22{fill:#e37b64;}.cls-20{fill:#58595b;}.cls-21{fill:#6d6e71;}.cls-23{fill:#14274b;}.cls-24{fill:#3f6981;}.cls-25{fill:#dedada;}.cls-26{fill:#b6b4b2;}.cls-27{fill:#698fb1;}.cls-28{fill:#8bacce;}</style></defs><title>full_speachРесурс 2</title><g id="Слой_2" data-name="Слой 2"><g id="OBJECTS"><path class="cls-1" d="M26.28,49.67a3.56,3.56,0,0,1-1.43-1.33c-.39-.81-2.84-5.65-3.29-6.71s-.18-4.68,1.08-5.47S26.82,37.35,27,41.4s-.13,4.91.91,6.32S26.28,49.67,26.28,49.67Z"/><path class="cls-2" d="M26.28,49.67h0l0,0h0l0,0h0l-.07,0h0l0,0h0l0,0h0l0,0h0l0,0h0l0,0h0l0,0h0l0,0h0l0,0h0l0,0h0l0,0h0l0,0h0l0,0h0l0,0h0l0,0,0,0,0,0,0,0h0l0,0h0l0,0,0,0h0l0,0h0l0,0,0,0h0l0,0,0,0,0,0h0l0,0h0l0,0h0l0,0h0l0,0,0,0h0l0,0,0,0h0l0,0h0l0,0h0l0,0,0,0h0l0,0h0l0,0h0l0,0h0l0,0h0c-.39-.81-2.84-5.64-3.29-6.7s-.18-4.68,1.08-5.47c.63-.39,1.66-.11,2.55.77h0c-.79.52-3,2.14-2.45,4.08A4,4,0,0,0,27,44.12v.25h0v.22h0v.3h0v.28h0v.18h0v.25h0v.16h0v.06h0V46h0v.08l0,0v0h0v0h0v.33h0l0,.06h0v0l0,0h0l0,0h0v0l0,0v0l0,0h0l0,0v0l0,.06h0l0,0h0l0,0v.05l0,0h0l0,0h0l0,0,0,0v0l0,0h0l0,0v0l0,0,0,0h0l0,0v0l0,0h0l.07.1h0l.05.06h0l.05.06h0l0,.07h0L28,48h0l0,.06h0l0,.06h0l0,.11h0v.11h0v.06h0v.05h0v.1h0v0h0l0,0h0l0,0h0l0,0h0l0,0h0l0,0h0l0,0,0,0h0l0,0,0,0h0l0,0h0l0,0h0l0,0h0l-.05,0h0l0,0h0l-.05,0h0l0,0h0l-.05,0h0l-.05,0h0l0,0h0a3.82,3.82,0,0,1-.36.17h0l-.05,0h0l-.1,0h0l-.14,0h0l-.13,0h0l-.25.06h0Z"/><path class="cls-3" d="M52.36,42.21A18.69,18.69,0,0,0,48,46.54c-2.17,2.94-5.72,7.39-8.8,11.08-3.32,4-2.76,4.92-5.32.7-2.7-4.44-4.33-8.16-5.3-10-.15-.3-.79-1.7-1.34-1.26A6.19,6.19,0,0,1,26,47.9c-.57.29-1.13,0-1.27.84,0,1.85,1.8,8.43,8.57,18.07,0,0-.72-.89.13.15s3.14,1.31,4,.41l.1-.07c2.68-2.58,8.33-7.1,11.84-11.43,3.37-4.17,4.62-8.15,6.06-11.1h0l.08-.16,0-.06.05-.1h0l0-.1,0-.06,0,0h0a5.65,5.65,0,0,0,.52-1.57l-1.1,1.22Z"/><path class="cls-4" d="M52.36,42.21A18.69,18.69,0,0,0,48,46.54c-.58.79-1.26,1.68-2,2.64.46,3-.29,8.21-2.63,10.84-2.83,3.2-7,7.33-9.65,4.79s-6.92-12.33-7.44-14.59c-.31-1.35,1-1.95,2.17-2.21-.25-.49-.76-1.36-1.21-1A6.19,6.19,0,0,1,26,47.9c-.57.29-1.13,0-1.27.84,0,1.85,1.8,8.43,8.57,18.07,0,0-.72-.89.13.15s3.14,1.31,4,.41l.1-.07c2.68-2.58,8.33-7.1,11.84-11.43,3.37-4.17,4.62-8.15,6.06-11.1h0l.08-.16,0-.06.05-.1h0l0-.1,0-.06,0,0h0a5.65,5.65,0,0,0,.52-1.57l-1.1,1.22Z"/><path class="cls-5" d="M74.24,47.73l-3.7-4.67-.82-.7-8.21-3.09-3.8.59h0s-3.79,1.85-4.11,1.83a.35.35,0,0,1-.16-.06L51.2,48.08s-1.37,9.34-1.56,10-.36,9.6.35,10.88.11,3.28,2.83,4.12,8.54,2.46,12.44-1.67A37.44,37.44,0,0,0,71,63.57C71.94,62.18,74.24,47.73,74.24,47.73Z"/><path class="cls-6" d="M52.06,48.83c1.22-.77,1.92-.14,3.25,1.29s2.58,1.29,3.31,1.61.71,13.56-4.08,15.59c-1.77.75-2.87,0-3.56-1.61C49.76,62.88,48.89,50.83,52.06,48.83Z"/><path class="cls-7" d="M58.72,45.14l-.23.4s-3.26,9.84-3.12,17.73,4.11,1.15,4.05.48-.78-13.53-.09-18.16C59.33,45.59,59.28,45,58.72,45.14Z"/><path class="cls-8" d="M58.72,45.14l-.23.4s-.12.35-.31,1c.24.17.53.59.53,1.58,0,1.39.09,6.83-3,9.59a37.82,37.82,0,0,0-.36,5.57c.13,7.9,4.11,1.15,4.05.48s-.78-13.53-.09-18.16C59.33,45.59,59.28,45,58.72,45.14Z"/><path class="cls-9" d="M49.32,115.53c.14,1.42.3,2.88.46,4.37,1.62,14.84,4.72,41.77,4.65,44.4s4,1.11,4.51.37c.4-.59-.61-32.89-.87-49.14Zm13.72,0c1,6.56,1.5,14.89,1.92,20.29.87,11.46,2.47,29,2.35,29.91s3.58,1.86,4.32.37a1.84,1.84,0,0,0,.1-1c0-.49.26-28,.27-49.56Z"/><path class="cls-10" d="M69.49,115.53c.63,12.19,1.28,42.43.9,45.7-.41,3.58-2.62,3.28-3.33.26.18,2.4.29,4,.25,4.24-.11.93,3.58,1.86,4.32.37a1.84,1.84,0,0,0,.1-1c0-.49.26-28,.27-49.56ZM54.4,163.32a9.55,9.55,0,0,1,0,1c-.06,2.63,4,1.11,4.51.37.4-.59-.61-32.89-.87-49.14H55.82c.32,14.87,1.91,42.94,1.86,45.09C57.62,163,56.24,163.9,54.4,163.32Z"/><path class="cls-3" d="M56.83,40.31a33.61,33.61,0,0,0-2,16.17,76.06,76.06,0,0,0,3.77,15.24l3.63,44.4-3.76.09,1.13,3.09-1.6-.56s-2.47,4.48-7,4.75-3.84-2.56-3.37-4.89,1-37.1.1-46.68S44.16,42,56.83,40.31Z"/><path class="cls-4" d="M54.57,53.77c0,.88-.42-2.07.25,2.71s3.77,15.24,3.77,15.24l3.63,42.73c-.32.57-.66,1.14-1,1.7l-2.74.06.94,2.57-.27.36-1.14-.4s-2.47,4.48-7,4.75c-2,.12-3-.37-3.42-1.16,2.68.38,3.79-29.57,5.76-41.91s-1.8-21.86-2.24-24.2a22.23,22.23,0,0,1-.45-3.3l2.73-2.76.33,3.48Z"/><path class="cls-3" d="M73.93,120.35C72.63,123.4,65,125.22,61,125.5c-8.58.59-5.83-45.58-5.41-50.3,1.25-14,.62-23.36,10.21-34.42a26.5,26.5,0,0,1,5.76,2.32c1.78.91,4,2.54,4.29,4.55.42,2.86-2.76,12.77-4.71,19C67.86,77,75.7,116.2,73.93,120.35Z"/><path class="cls-4" d="M73.93,120.35c-1,2.37-5.84,4-9.84,4.74,5.09-3.23,5-38.63,3.68-48.16s2.67-25.38,2.67-25.38l2.88,1.62,1.43,1.32c-.4,1.45-1.18,4.27-1.63,5.76-.69,2.27-1.4,4.5-2,6.38C67.86,77,75.7,116.2,73.93,120.35Z"/><path class="cls-2" d="M64.53,31.52l-.1,2.24v5.29a1.94,1.94,0,0,0,.87,1.25c-.83.89-2.86,3-4.14,3.18a6.21,6.21,0,0,1-4-.88c-.33-.28-.36-1.75-.55-2.57.15,0,0,0,.13-.05a2.48,2.48,0,0,0,1-.58c.77-.84.73-4.57,0-5.55S64.53,31.52,64.53,31.52Z"/><path class="cls-5" d="M58.4,42.45l.92-.5s.08,1,.19,1.06.26-.65.66-.89,1.47,1.21,1.47,1.21-.4,1.14-1,1.23-2.3.27-2.33-.25S58.4,42.45,58.4,42.45Z"/><path class="cls-8" d="M59.59,43.68a3.6,3.6,0,0,0,1.5-.5.92.92,0,0,1,1.19.11l-.66.75,0,.32a2.39,2.39,0,0,0-1.61.28C59.34,45.09,59.59,43.68,59.59,43.68Z"/><path class="cls-11" d="M56.71,40.6S52.29,51.36,56.77,66v1.12a84.35,84.35,0,0,1-5.48-12.33s-.16-.52.22-.76a4.31,4.31,0,0,1,1.55-.76c.42,0-.22-.55-1.88.16a.75.75,0,0,1-.52-.46c-.12-.37.38-6.56,4.78-12.34,0,0,.07-.16.4-.25S56.81,40.05,56.71,40.6Z"/><path class="cls-6" d="M64.88,39.23a6.09,6.09,0,0,1-4.24,2.63.81.81,0,0,0-.66.75c0,.63,1.82,2.32,2,3.23s3.88-3.83,4.11-5.32C66.08,40.52,65.47,39.39,64.88,39.23Z"/><path class="cls-7" d="M58.29,43.74a1.36,1.36,0,0,1,.65-.28,1.83,1.83,0,0,1,1,.19,2,2,0,0,1,.5.79,4.19,4.19,0,0,1-1.13,1.15c-.27.13-.55-.09-.84-.05S58.12,44,58.29,43.74Z"/><path class="cls-8" d="M59.65,43.51a.74.74,0,0,1,.31.14,2,2,0,0,1,.5.79,4.19,4.19,0,0,1-1.13,1.15c-.27.13-.55-.09-.84-.05-.07,0-.13-.09-.18-.23C60.37,45,59.79,43.76,59.65,43.51Z"/><path class="cls-12" d="M55.73,165a2.51,2.51,0,0,0-1.85-.36c-1,.24-6.5,2.86-7.38,3.22s-1.83,1.72-1.13,2.5,5.38.69,7.85.2a17.18,17.18,0,0,1,5.31-.09c.91.07,2-1.91,1.1-4.76S59,165.5,55.73,165Z"/><path class="cls-13" d="M55.73,165a2.51,2.51,0,0,0-1.85-.36l-.29.09c.79.18,2.39.67,2.7,1.72a3.94,3.94,0,0,1-.63,3.85,26.15,26.15,0,0,1,2.87.17c.91.07,2-1.91,1.1-4.76S59,165.5,55.73,165Z"/><path class="cls-11" d="M45.23,169.19a1.08,1.08,0,0,0,.14,1.16c.7.78,5.38.69,7.85.2a17.18,17.18,0,0,1,5.31-.09c.57,0,1.21-.72,1.38-2-.68.94-1.85,1-4.09.85s-4.45.42-7.37.7C46.4,170.19,45.55,169.58,45.23,169.19Z"/><path class="cls-14" d="M55.66,170.29a26.15,26.15,0,0,1,2.87.17c.57,0,1.21-.72,1.38-2-.63.88-1.69,1-3.63.88A2.87,2.87,0,0,1,55.66,170.29Z"/><path class="cls-15" d="M67.71,165.75a2.61,2.61,0,0,1,3.58-.38,2.82,2.82,0,0,1,1.47,1.34c.4.94,1.16,1.36,1.3,2.39s-.18,1.83-1.59,1.83H70.19c-1,0-2.5.16-3-1.09s0-2.39-.18-3S67.71,165.75,67.71,165.75Z"/><path class="cls-16" d="M67.71,165.75a2.61,2.61,0,0,1,3.58-.38,2.82,2.82,0,0,1,1.47,1.34c.4.94,1.16,1.36,1.3,2.39s-.18,1.83-1.59,1.83H71.21c2-1.64.28-4.85-1.33-5.13a4.13,4.13,0,0,0-2.9.94C66.86,166.13,67.71,165.75,67.71,165.75Z"/><path class="cls-11" d="M74.08,169.29c.07.94-.29,1.64-1.61,1.64H70.19c-1,0-2.5.16-3-1.09A3,3,0,0,1,67,169s.59.81,2.53.93S73.74,170.08,74.08,169.29Z"/><path class="cls-14" d="M74.08,169.29c.07.94-.29,1.64-1.61,1.64H71.21a2.38,2.38,0,0,0,.72-1C73,169.94,73.88,169.76,74.08,169.29Z"/><path class="cls-11" d="M65.79,40.78S57,46.94,56.2,68.2c0,0,0,.44.18.47s4.2-11.35,6.76-13.37a.68.68,0,0,0,.24-.76,6.15,6.15,0,0,0-2-1.65c-.57-.32,1.62,0,2.42.44s1.31,0,1.83-.79-.17-9.79,2-11.2a.23.23,0,0,0,0-.24,8.93,8.93,0,0,0-1.38-.46A.58.58,0,0,0,65.79,40.78Z"/><path class="cls-6" d="M57.59,39.15a3.07,3.07,0,0,0,1.53,2.54.33.33,0,0,1,.08.57,8.47,8.47,0,0,0-1,2.45c-.14.65-2-2.63-1.82-4.65A3.42,3.42,0,0,1,57.59,39.15Z"/><rect class="cls-17" x="48.39" y="18.69" width="1.96" height="4.72" transform="translate(-3.31 10.77) rotate(-12.05)"/><path class="cls-18" d="M49.79,29.06a3.28,3.28,0,1,0-3.28-3.28A3.29,3.29,0,0,0,49.79,29.06Z"/><path class="cls-18" d="M72.26,29.06A3.28,3.28,0,1,0,69,25.78,3.29,3.29,0,0,0,72.26,29.06Z"/><rect class="cls-19" x="49.04" y="5.9" width="22.48" height="32.69" rx="11.24" ry="11.24"/><path class="cls-2" d="M64.87,6.89a11.26,11.26,0,0,1,6.64,10.25V27.36A11.27,11.27,0,0,1,60.28,38.6h0a11,11,0,0,1-4-.76c11,.09,12.21-7.7,12.21-13.64,0-6.57-2.07-8.31-4.39-8.31H55.54S54,9,62.9,7.22C63.6,7.08,64.25,7,64.87,6.89Z"/><path class="cls-16" d="M65.8,10.38,64,12.4a6.6,6.6,0,0,0-4.37-.32c-2.14.73,2.83-3.51,3.08-3.51A31.55,31.55,0,0,1,65.8,10.38Z"/><path class="cls-20" d="M70.25,16.51V20c0,1.36.25,1.76.92,2.26,0,0-.41,1.31.34,1.62,0,0,0-1.59,2-1.08,0,0,6.3-18.87-9.13-18.87,0,0-3-3.89-9.87-3.89-8.52,0-6.95,9-7,14.61,0,2.48.46,4.54-1.17,4.7,0,0,1,.16,2.55.26,9.11.61,8.37-2.05,12.15-8.41C62.37,9,63.72,9.28,64,12.4,64,12.4,70.23,12.4,70.25,16.51Z"/><path class="cls-21" d="M63.42,2.92a11.77,11.77,0,0,0-1.4-1c-1.37,7-10.24,6.9-14.53,6.42-.07,1.79,0,3.64.06,5.28C58.23,13.7,62.14,6.47,63.42,2.92Z"/><path class="cls-15" d="M70.25,16.51v2.8a35.72,35.72,0,0,0,4.51-3.07C75,13.09,74.6,9.48,72.46,7,72,9.35,70,11.87,64,12.4c0,0,6.19,0,6.21,4.11Zm-22.65.3c0,1.4-.11,2.39-1.22,2.5,0,0,1,.16,2.55.26,9.11.61,8.37-2.05,12.15-8.41.66-1.1,1.33-1.56,1.87-1.34h0c-2.88-1.44-3.65,5-9.43,6.32A31.07,31.07,0,0,1,47.6,16.81Z"/><path class="cls-16" d="M70.25,16.51V20c0,1.36.25,1.76.92,2.26,0,0-.41,1.31.34,1.62,0,0,0-1.59,2-1.08,0,0,3.07-9.21-.34-14.76.06.22,1.4,6.1-3,7.74A3.13,3.13,0,0,1,70.25,16.51Z"/><rect class="cls-17" x="50.97" y="20.8" width="4.3" height="1.2" rx="0.6" ry="0.6"/><rect class="cls-17" x="62.76" y="20.8" width="4.3" height="1.2" rx="0.6" ry="0.6"/><path class="cls-11" d="M62.51,29.81a3.58,3.58,0,0,1-7.15,0h0a.62.62,0,0,1,.62-.62h5.9a.62.62,0,0,1,.62.62Z"/><path class="cls-18" d="M52.41,31.15a1.63,1.63,0,1,0-1.63-1.63A1.64,1.64,0,0,0,52.41,31.15Z"/><circle class="cls-22" cx="66.4" cy="29.52" r="1.63"/><path class="cls-8" d="M53.28,46a.49.49,0,0,1-.52.46.51.51,0,0,1-.47-.52,9.52,9.52,0,0,1,5.23-7.83,9.19,9.19,0,0,1,.86-.36A2.69,2.69,0,0,1,58,39l-.05,0a8.5,8.5,0,0,0-4.66,7Zm11.16-7.16c.14.11.27.24.41.37,2.71,2.65,4.48,8.47,3.29,19a.49.49,0,1,1-1-.1c1.13-10.05-.44-15.58-2.9-18.09a1.75,1.75,0,0,0,.24-.35A2.79,2.79,0,0,1,64.44,38.84Z"/><path class="cls-23" d="M50,49a.33.33,0,0,1,.65.11S49.06,57.67,54,59.87a.33.33,0,0,1,.16.44.32.32,0,0,1-.43.16C48.32,58.06,50,49.06,50,49Z"/><path class="cls-23" d="M54.38,49.48a.33.33,0,0,1,.37-.29.33.33,0,0,1,.29.36s-1,10-6.85,10.24a.32.32,0,0,1-.34-.31.32.32,0,0,1,.31-.34C53.47,58.87,54.38,49.51,54.38,49.48Z"/><path class="cls-23" d="M67.32,57a3.28,3.28,0,1,1-2.31,1l0,0A3.24,3.24,0,0,1,67.32,57Z"/><path class="cls-12" d="M68.94,58.63A2.3,2.3,0,0,0,67.32,58a2.27,2.27,0,0,0-1.59.65l0,0A2.23,2.23,0,0,0,65,60.24a2.29,2.29,0,0,0,2.28,2.29,2.29,2.29,0,0,0,2.29-2.29A2.28,2.28,0,0,0,68.94,58.63Z"/><path class="cls-13" d="M68.15,59.41a1.16,1.16,0,0,0-.83-.34,1.19,1.19,0,0,0-.82.33v0a1.17,1.17,0,0,0,0,1.65,1.2,1.2,0,0,0,.83.34,1.18,1.18,0,0,0,.83-.34,1.16,1.16,0,0,0,.34-.83A1.2,1.2,0,0,0,68.15,59.41Z"/><path class="cls-8" d="M50.78,49.09a.48.48,0,0,1-.49.49.48.48,0,0,1-.49-.48,3.54,3.54,0,0,1,1.61-3.31,2.48,2.48,0,0,1,1.32-.32,2.33,2.33,0,0,1,1.3.46,3.74,3.74,0,0,1,1.17,3.64.49.49,0,0,1-.54.44.5.5,0,0,1-.44-.55,2.85,2.85,0,0,0-.77-2.74,1.52,1.52,0,0,0-.76-.27,1.54,1.54,0,0,0-.8.2A2.61,2.61,0,0,0,50.78,49.09Z"/><path class="cls-13" d="M54.68,59.41a1.08,1.08,0,0,0-.74-.3,1,1,0,0,0-.73.29h0a1.05,1.05,0,0,0,.74,1.79,1.06,1.06,0,0,0,.74-.31,1.06,1.06,0,0,0,0-1.48Z"/><path class="cls-13" d="M49.15,58.77a1,1,0,0,0-.73-.3,1,1,0,0,0-.73.29h0a1,1,0,0,0,.74,1.78,1,1,0,0,0,.73-.3,1,1,0,0,0,0-1.48Z"/><path class="cls-1" d="M97.38,51.87A3.46,3.46,0,0,0,99,50.73c.49-.75,3.53-5.25,4.1-6.24s.77-4.62-.39-5.57-4.29.67-4.93,4.67-.49,4.89-1.69,6.15S97.38,51.87,97.38,51.87Z"/><path class="cls-2" d="M97.38,51.87h0l0,0h0l0,0h0l.07,0h0l.05,0h.13l0,0h0l0,0h0l0,0h0l0,0h0l0,0h0l0,0h0l0,0h0l0,0h0l0,0,0,0,0,0,0,0h0l0,0h0l0,0,0,0h0l0,0h0l0,0,0,0h0l0,0,0,0,0,0h0l0,0h0l0,0h0l0,0h0l0,0,0,0h0l0,0,0,0h0l0,0h0l0,0h0l0,0,0,0h0l0,0h0l0,0h0l0,0h0l0,0h0c.49-.76,3.52-5.25,4.09-6.24s.77-4.62-.39-5.57c-.57-.47-1.63-.31-2.62.45h0c.72.62,2.67,2.49,1.93,4.35a4,4,0,0,1-4.63,2.56v.25h0v.24l0,.07v.22h0l0,.07v.2h0v.18h0v.24h0v.16h0v.14l0,.07h0l0,.05v0l0,.06h0v.06h0v.09l0,0,0,.07,0,0v0l0,0h0l0,.07h0v0l0,0h0l0,0h0l0,0v0h0l0,.05h0l0,0v0l0,.05h0l0,0h0l0,0,0,0v0l0,0h0l0,0h0l0,0,0,0h0l0,.05h0l0,0,0,0,0,0,0,0h0l0,0h0l0,0h0l-.08.08h0l0,.06h0l0,.06h0l0,0h0l0,.06h0l0,.06h0l0,0h0s0,.08,0,.11h0v.06l0,0h0v.05h0v.06h0v.1h0v.05h0v0h0v0h0l0,.05h0l0,0h0l0,0h0l0,.05,0,0h0l0,0,0,0h0l0,0h0l0,0h0l0,0h0l0,0h0l0,0h0l.05,0h0l0,0h0l0,0h0l0,0h0l0,0h0a2.3,2.3,0,0,0,.33.21h0l0,0h0l.09.05h0l.13.07h0l.12,0h0l.24.1h0Z"/><path class="cls-3" d="M71.86,43.27a13.45,13.45,0,0,1,4.73,4.43c2.17,2.94,5.72,7.4,8.81,11.08,3.31,4,2.75,4.92,5.32.71C93.42,55.05,95,51.32,96,49.43c.15-.29.8-1.7,1.35-1.25a6.16,6.16,0,0,0,1.2.89c.57.29,1.14,0,1.27.83,0,1.85-1.8,8.44-8.56,18.07,0,0,.72-.88-.14.15s-3.14,1.31-4,.41l-.1-.07c-3.16-3-11.21-8.72-15.15-13.81-2.61-3.38-1.57-6.32-2.74-8.72h0L69,45.76l0,0,0-.11h0l0-.1,0-.06v0h0a5.57,5.57,0,0,1-.53-1.56l1.1,1.22Z"/><path class="cls-4" d="M96.07,49.31c.22-.44.79-1.53,1.29-1.13a6.16,6.16,0,0,0,1.2.89c.57.29,1.14,0,1.27.83,0,1.85-1.8,8.44-8.56,18.07,0,0,.72-.88-.14.15s-3.14,1.31-4,.41l-.1-.07c-3.16-3-11.21-8.72-15.15-13.81a9.16,9.16,0,0,1-1.5-2.85,4.63,4.63,0,0,1,1.19-2.15c1.81-1.23,9.28,12.48,15.89,16.47,0,0,3.41,1.56,5.8-2.86s4.24-8.57,4.5-10.12C97.93,52,98.12,50.19,96.07,49.31Z"/><path class="cls-16" d="M63.63,25.68a.45.45,0,0,1-.89,0,2.14,2.14,0,0,1,4.28,0,.45.45,0,0,1-.89,0,1.25,1.25,0,0,0-1.25-1.25,1.25,1.25,0,0,0-1.25,1.25Z"/><path class="cls-16" d="M51.36,25.68a.45.45,0,0,1-.89,0,2.14,2.14,0,0,1,4.28,0,.45.45,0,0,1-.89,0,1.25,1.25,0,0,0-1.25-1.25,1.25,1.25,0,0,0-1.25,1.25Z"/><path class="cls-16" d="M13.76,65.09a.5.5,0,1,1-1,0V57.4c0-3.19,3.32-4.24,3.33-4.24a.49.49,0,0,1,.28.94s-2.62.83-2.62,3.3Z"/><path class="cls-16" d="M23,50.26h0a2.3,2.3,0,0,1-1.09,3.07L18.29,55A2.29,2.29,0,0,1,15.23,54h0a2.3,2.3,0,0,1,1.09-3.07l3.59-1.71A2.31,2.31,0,0,1,23,50.26Z"/><path class="cls-16" d="M23.7,65.09a.49.49,0,1,1-1,0V57.4c0-3.19,3.31-4.24,3.32-4.24a.49.49,0,0,1,.29.94s-2.63.83-2.63,3.3Z"/><path class="cls-16" d="M32.93,50.26h0a2.32,2.32,0,0,1-1.09,3.07L28.24,55A2.3,2.3,0,0,1,25.17,54h0a2.32,2.32,0,0,1,1.09-3.07l3.6-1.71A2.32,2.32,0,0,1,32.93,50.26Z"/><path class="cls-16" d="M33.65,65.09a.5.5,0,1,1-1,0V57.4c0-3.19,3.32-4.24,3.33-4.24a.49.49,0,0,1,.61.33.48.48,0,0,1-.32.61s-2.63.83-2.63,3.3Z"/><path class="cls-16" d="M42.87,50.26h0a2.3,2.3,0,0,1-1.08,3.07L38.19,55A2.3,2.3,0,0,1,35.12,54h0a2.32,2.32,0,0,1,1.09-3.07l3.6-1.71A2.31,2.31,0,0,1,42.87,50.26Z"/><path class="cls-24" d="M70.57,84.73l1.64,4.91H54L17.28,83.4.77,72.85s26.1-6,27.3-6S55.49,69,56.44,70.36,70.57,84.73,70.57,84.73Z"/><polygon class="cls-25" points="10.51 75.75 2.03 170.94 60.58 170.94 53.58 88.51 46.15 75.75 10.51 75.75"/><polygon class="cls-26" points="44.8 170.94 60.58 170.94 57.53 83.84 46.15 75.75 44.8 170.94"/><path class="cls-27" d="M48.73,73.12h1.8S70.46,89,71.6,89.47s2,.06,2.15-1.62.48-5.15.06-6.17-20.52-19.77-23-20.15S48.73,73.12,48.73,73.12Z"/><rect class="cls-28" y="61.51" width="52.2" height="11.61" rx="1.68" ry="1.68"/></g></g></svg>