<svg xmlns="http://www.w3.org/2000/svg" viewBox="0 0 141 182.98"><defs><style>.cls-1{fill:#f2f0f0;}.cls-1,.cls-10,.cls-11,.cls-12,.cls-14,.cls-15,.cls-16,.cls-17,.cls-18,.cls-19,.cls-2,.cls-20,.cls-21,.cls-3,.cls-4,.cls-5,.cls-6,.cls-7,.cls-8{fill-rule:evenodd;}.cls-2,.cls-9{fill:#cecbcb;}.cls-3{fill:#2a999b;}.cls-4{fill:#4fbcbe;}.cls-5{fill:#183257;}.cls-6{fill:#111a39;}.cls-7{fill:#ed9072;}.cls-8{fill:#fff;}.cls-10{fill:#14274b;}.cls-11{fill:#3a4f77;}.cls-12{fill:#14294c;}.cls-13,.cls-16{fill:#231f20;}.cls-14{fill:#e37b64;}.cls-15{fill:#f4ad85;}.cls-17{fill:#58595b;}.cls-18{fill:#6d6e71;}.cls-19{fill:#414042;}.cls-20{fill:#bc614f;}.cls-21{fill:#152548;}</style></defs><title>regularРесурс 9</title><g id="Слой_2" data-name="Слой 2"><g id="OBJECTS"><path class="cls-1" d="M66.16,97.09A43.31,43.31,0,0,0,56,107.21c-5.07,6.87-13.37,17.28-20.58,25.9-7.75,9.25-6.45,11.49-12.44,1.64-6.31-10.37-10.1-19.07-12.37-23.5-.35-.68-1.86-4-3.14-2.93a14.55,14.55,0,0,1-2.83,2.08c-1.33.68-2.65,0-3,1.95-.05,4.32,4.22,19.71,20,42.24.11.11-1.69-2.07.32.35s7.33,3.05,9.41.95l.23-.15c6.27-6,19.48-16.6,27.66-26.72,7.89-9.75,10.81-19,14.17-26v0l.17-.38.07-.12.11-.25h0l.11-.23.06-.13,0-.1h0a13.2,13.2,0,0,0,1.22-3.66L72.66,101Z"/><path class="cls-2" d="M66.16,97.09A43.31,43.31,0,0,0,56,107.21c-1.36,1.84-2.94,3.93-4.68,6.17,1.08,7-.68,19.19-6.14,25.35-6.62,7.46-16.37,17.13-22.56,11.19S6.38,121.1,5.17,115.81c-.72-3.15,2.42-4.55,5.08-5.17-.6-1.14-1.79-3.16-2.83-2.32a14.55,14.55,0,0,1-2.83,2.08c-1.33.68-2.65,0-3,1.95-.06,4.32,4.21,19.71,20,42.24.11.11-1.69-2.07.32.35s7.33,3.05,9.41.95l.23-.15c6.27-6,19.48-16.6,27.66-26.72,7.89-9.75,10.81-19,14.17-26v0l.18-.38.06-.12.11-.25h0l.11-.23,0-.13.05-.1h0a13.2,13.2,0,0,0,1.22-3.66L72.66,101Z"/><path class="cls-3" d="M117.29,110l-8.64-10.93-1.91-1.64-19.2-7.22L78.66,91.6h0s-8.87,4.32-9.61,4.28a1.12,1.12,0,0,1-.38-.14l-5.24,15.07s-3.18,21.84-3.63,23.33-.84,22.43.82,25.44.25,7.67,6.61,9.62,20,5.74,29.08-3.91,11-15,13.31-18.27S117.29,110,117.29,110Z"/><path class="cls-4" d="M65.46,112.57c2.85-1.8,4.48-.33,7.58,3s6,3,7.75,3.76,1.65,31.7-9.54,36.44c-4.14,1.76-6.72-.06-8.31-3.75C60.07,145.41,58,117.23,65.46,112.57Z"/><path class="cls-5" d="M81,103.94l-.53.92s-7.61,23-7.29,41.47,9.61,2.68,9.46,1.1-1.81-31.61-.2-42.45C82.45,105,82.33,103.52,81,103.94Z"/><path class="cls-6" d="M81,103.94l-.53.92s-.28.85-.72,2.33c.56.41,1.25,1.37,1.22,3.69,0,3.25.22,16-7,22.43a90.22,90.22,0,0,0-.84,13c.31,18.44,9.61,2.68,9.46,1.1s-1.81-31.61-.2-42.45C82.45,105,82.33,103.52,81,103.94Z"/><path class="cls-1" d="M55.34,166.54c-.27-3-.62-6.42-1-10.14-.57-6.36-1.07-13.56-1-20.78a109.78,109.78,0,0,1,.78-13.18,68.7,68.7,0,0,1,1.36-7.6c1.45-5.92,3.74-11.16,7.26-15.09l0,0a21.21,21.21,0,0,1,7.4-5.35,22.17,22.17,0,0,1,3.16-1.09c.32-.09.65-.17,1-.24s.87-.18,1.32-.25a5.4,5.4,0,0,1,.58-.09h0l.2,0,.15,0-.28.69s0,0,0,0h0l-.06.17-.41,1.11h0c0,.1-.07.2-.11.31-.37,1.06-.83,2.45-1.31,4.13-.35,1.25-.72,2.66-1.08,4.21s-.75,3.5-1.06,5.46c-.24,1.48-.45,3-.61,4.65,0,.22,0,.44-.07.66,0,.41-.07.83-.1,1.24-.14,1.72-.22,3.51-.22,5.34,0,1.2,0,2.43.06,3.68.08,1.72.23,3.48.45,5.25,0,.28.08.56.12.86s.1.71.16,1.09c.22,1.5.45,3,.7,4.42a0,0,0,0,0,0,0c.2,1.15.41,2.29.62,3.39h0c.7,3.63,1.47,7,2.25,10.07a.14.14,0,0,0,0,.07c.14.59.29,1.17.44,1.73.11.41.21.81.32,1.21l0,.13h0c.22.82.44,1.62.66,2.38a2.17,2.17,0,0,0,.07.24c1.81,6.34,3.33,10.34,3.5,10.81l0,0,.45,5.53L82.1,183h-26c-.06-2.54-.14-4.94-.23-7.14C55.75,172.15,55.56,169,55.34,166.54Z"/><path class="cls-2" d="M62.41,124.79a26.26,26.26,0,0,1-.25-2.66l4.68-4.74,1.7-1.72.64,6.82.12,1.32,1,.15.74.11c0,.49.23,2,.73,5.5,0,.28.08.56.12.86s.1.71.16,1.09c.13.8.29,1.66.46,2.57.27,1.4.58,2.91.93,4.48a0,0,0,0,1,0,0c.68,3.05,1.48,6.33,2.31,9.52,0,0,0,.06,0,.09.22.84.43,1.67.65,2.49.35,1.33.69,2.62,1,3.85l.06.21c1.65,6.07,3,10.78,3.17,11.26l0,0,.47,5.53,1,11.39H68.91q.56-4.38.73-8.51c.07-1.54.1-3.05.11-4.53,0-.78,0-1.55,0-2.31-.07-4-.35-7.73-.76-11.22A132.89,132.89,0,0,0,65,136.64q-.32-1.15-.6-2.16c-.17-.61-.33-1.18-.48-1.7-.08-.31-.16-.6-.23-.88-.24-.84-.41-1.54-.51-2.07C62.81,127.66,62.56,126,62.41,124.79Z"/><path class="cls-2" d="M71.13,124.08h-.08C71,123.72,71.07,123.86,71.13,124.08Z"/><path class="cls-2" d="M71.13,124.08l.19,0c0,.09,0,.16,0,.21C71.33,124.78,71.21,124.37,71.13,124.08Z"/><path class="cls-1" d="M121.13,111c.06,4.77-2.4,14.44-5.32,24.39-.37,1.27-.76,2.55-1.14,3.82,0,0,0,0,0,0-.22.74-.45,1.48-.67,2.22-1.38,4.53-2.77,8.91-4,12.69-1.93,6.13-2.2,16.53-1.61,28.81H73.09c.24-4.27.46-7.35.59-8.79.1-1.1.19-2.19.28-3.26.47-5.65.83-11,1.24-16.06,0-.59.09-1.17.14-1.75,0-.29,0-.57.07-.86s0-.53.07-.8a.76.76,0,0,0,0-.15l.15-1.57a1.81,1.81,0,0,1,0-.23c0-.44.07-.87.12-1.3.32-3.25.7-6.42,1.17-9.51.08-.55.18-1.1.27-1.64a97.8,97.8,0,0,1,2.57-11.6l0-.15c.44-1.51.92-3,1.46-4.5.14-.4.29-.81.44-1.21a76.89,76.89,0,0,1,6.9-13.92,93.2,93.2,0,0,1,7.77-10.61c.31-.38.64-.76,1-1.14l.15-.18a0,0,0,0,1,0,0,4.85,4.85,0,0,1,.49.11l.37.08h0A29.43,29.43,0,0,1,102,95.05a81.51,81.51,0,0,1,9,4.12,29.55,29.55,0,0,1,5.29,3.46c.09.07.19.14.29.23s.41.36.6.55l0,0a11.36,11.36,0,0,1,3.8,6.37A10.52,10.52,0,0,1,121.13,111Z"/><path class="cls-2" d="M114.67,139.23s0,0,0,0c-.22.74-.45,1.48-.67,2.22-1.38,4.53-2.77,8.91-4,12.69-1.93,6.13-2.2,16.53-1.61,28.81h-5.73c-.16-1.78-.33-3.37-.52-4.73a103.08,103.08,0,0,1-.48-19.14c.24-4.24.64-8.45,1.12-12.42.11-.85.21-1.68.32-2.5.18-1.34.36-2.64.55-3.9h0c.07-.41.13-.82.19-1.22.21-1.38.43-2.71.64-4,.15-.86.29-1.69.44-2.48.57-3.17,1.09-5.74,1.45-7.44,0,0,0-.07,0-.1.3-1.43.49-2.22.49-2.22l.1.09h0l3.65,3.11,1.52,7.1a2.19,2.19,0,0,0,.52,2.36C113.69,136.51,115.34,137,114.67,139.23Z"/><path class="cls-7" d="M94.6,72.1l-.22,5.24V89.71a4.44,4.44,0,0,0,2,2.91c-1.94,2.1-6.7,7-9.7,7.44a14.62,14.62,0,0,1-9.34-2c-.77-.67-.84-4.09-1.29-6,.35-.1,0,0,.31-.12a5.68,5.68,0,0,0,2.39-1.37c1.79-2,1.71-10.68-.08-13S94.6,72.1,94.6,72.1Z"/><path class="cls-3" d="M80.27,97.65l2.16-1.16s.19,2.38.44,2.46.6-1.5,1.53-2.07,3.44,2.84,3.44,2.84-.93,2.66-2.27,2.86-5.38.64-5.43-.57S80.27,97.65,80.27,97.65Z"/><path class="cls-6" d="M83.05,100.53a8.52,8.52,0,0,0,3.51-1.16,2.14,2.14,0,0,1,2.77.26l-1.53,1.74-.12.74a5.63,5.63,0,0,0-3.75.65C82.48,103.82,83.05,100.53,83.05,100.53Z"/><path class="cls-8" d="M76.31,93.33s-10.32,25.15.16,59.25l0,2.61s-8.72-15.88-12.82-28.8c0,0-.35-1.23.51-1.78s2.64-1.79,3.63-1.79-.51-1.28-4.38.37a1.71,1.71,0,0,1-1.22-1.06c-.28-.87.88-15.33,11.18-28.85,0,0,.15-.38.92-.59S76.56,92,76.31,93.33Z"/><path class="cls-4" d="M95.43,90.12S92.71,95,85.5,96.27A1.9,1.9,0,0,0,84,98c0,1.46,4.26,5.4,4.65,7.53s9.07-8.95,9.62-12.42C98.23,93.15,96.81,90.51,95.43,90.12Z"/><path class="cls-5" d="M80,100.67a3.08,3.08,0,0,1,1.5-.65,4.3,4.3,0,0,1,2.4.45,4.7,4.7,0,0,1,1.16,1.83c0,.34-2,2.37-2.64,2.68s-1.3-.19-2-.12S79.62,101.37,80,100.67Z"/><path class="cls-6" d="M83.19,100.14a1.69,1.69,0,0,1,.74.33,4.7,4.7,0,0,1,1.16,1.83c0,.34-2,2.37-2.64,2.68s-1.3-.19-2-.12c-.17,0-.31-.19-.41-.53C84.87,103.6,83.52,100.72,83.19,100.14Z"/><path class="cls-8" d="M97.55,93.75S77,108.16,75.13,157.85c0,0-.09,1,.42,1.09s9.82-26.52,15.8-31.25a1.61,1.61,0,0,0,.56-1.77c-.4-1.07-3.27-3.12-4.62-3.87s3.79,0,5.64,1,3.08,0,4.3-1.85S96.81,98.37,102,95.06a.53.53,0,0,0-.08-.56,21.86,21.86,0,0,0-3.23-1.08A1.4,1.4,0,0,0,97.55,93.75Z"/><path class="cls-4" d="M78.37,89.94s.17,4.39,3.59,5.93a.79.79,0,0,1,.18,1.33c-.77.86-1.9,4.23-2.24,5.74s-4.56-6.15-4.27-10.87A8.31,8.31,0,0,1,78.37,89.94Z"/><path class="cls-1" d="M141,169.73c-.1,1.88-2.25,7-5.33,13.25H121.79c1.88-4.77,3.5-9.09,4.32-11.69h0l.13-.44c.06-.18.11-.34.15-.5a7.83,7.83,0,0,0-.12-3.63,4.7,4.7,0,0,0-.12-.51,29.88,29.88,0,0,0-1.32-4c-.07-.19-.14-.37-.22-.55-.69-1.72-1.54-3.55-2.49-5.45-.11-.23-.23-.47-.35-.7-1.41-2.81-3-5.72-4.6-8.5l-.4-.69c-.84-1.47-1.67-2.9-2.47-4.26l-.31-.53q-.83-1.42-1.59-2.7l-.27-.46c-.13-.22-.25-.44-.38-.65s-.2-.36-.31-.53c-.71-1.23-1.32-2.31-1.8-3.19-.13-.24-.24-.47-.35-.68-.22-.43-.39-.8-.51-1.09s-.14-.36-.21-.55a.14.14,0,0,0,0-.06c-.08-.22-.15-.45-.23-.69a25.17,25.17,0,0,1-.65-2.48A31.15,31.15,0,0,1,107,123V123c-.16-5.66,1.32-12.33,7.14-16.92l.74-.56s-1.22-4.79,1.42-2.84c.09.07.19.14.29.23a7,7,0,0,1,.6.55l0,0c.75.74,2.14,3.53,3.89,7.58,6.8,15.82,19,50.87,19.82,57.94h0a.17.17,0,0,0,0,.07c0,.1,0,.19,0,.28A2.91,2.91,0,0,1,141,169.73Z"/><path class="cls-9" d="M141,169.73a2.91,2.91,0,0,0,0-.41,2.46,2.46,0,0,1,0-.28.17.17,0,0,1,0-.07c-.15.31-3.08,6.6-6.93,14h1.64C138.74,176.73,140.89,171.61,141,169.73Z"/><path class="cls-9" d="M108.32,130.88c.08.24.15.47.23.69a.14.14,0,0,1,0,.06c.07.19.14.38.21.55s.29.66.51,1.09c.11.21.22.44.35.68.48.88,1.09,2,1.8,3.19l.31.53c.13.21.25.43.38.65l.27.46q.76,1.28,1.59,2.7l.31.53c.8,1.36,1.63,2.79,2.47,4.26.14.23.27.46.4.69,1.59,2.78,3.19,5.69,4.6,8.5l.35.7c.95,1.9,1.8,3.73,2.49,5.45l.22.55a29.88,29.88,0,0,1,1.32,4,4.7,4.7,0,0,1,.12.51,7.83,7.83,0,0,1,.12,3.63c0,.16-.1.32-.15.5s-.11.33-.17.5l0-.05h0c.46-.79,4-7.89-5.34-25.66-2-3.75-3.49-6.92-4.68-9.59-.09-.21-.19-.42-.28-.62-.73-1.69-1.33-3.18-1.83-4.48-.08-.21-.16-.41-.23-.61-.24-.64-.46-1.24-.65-1.8-.73-2.12-1.15-3.63-1.49-4.72-.43-1.35-.92-7.15-1.86-7.74-.73-.46-1.88,3.86-2.72,6.9a.19.19,0,0,1,0,.07c-.22.82-.42,1.55-.59,2a.64.64,0,0,1,0,.07v0c.11,1.59,1,1.89,1.27,3.22A25.17,25.17,0,0,0,108.32,130.88Z"/><path class="cls-6" d="M100.18,97.37a26.17,26.17,0,0,0-1.48-3c-.09-.16-.19-.32-.29-.48h0c-.09-.14-.17-.28-.26-.41l-.05-.07a19.41,19.41,0,0,0-2.68-3.32l0,0c-.31-.31-.64-.6-1-.87a4.58,4.58,0,0,0,0,.83v0a6.8,6.8,0,0,0,.14,1.07,3.85,3.85,0,0,1-.42.65l0,0L94,92c.32.33.64.68,1,1,.17.2.33.42.5.64.28.37.55.76.82,1.17l.16.26c.2.32.4.65.59,1a27.47,27.47,0,0,1,2.08,4.8c2.31,6.88,3.29,16.87,2,30.74q-.11,1.14-.24,2.31l0,.3a1.15,1.15,0,1,0,2.29.25,1.5,1.5,0,0,0,0-.2c.09-.8.17-1.58.24-2.35C104.88,115.8,103.34,104.65,100.18,97.37ZM80,86.78c-.54.2-1.28.52-1.72.72l0,0c-.34.16-.68.34-1,.53h0a21.78,21.78,0,0,0-7,6.32c-.34.48-.67,1-1,1.48A22.43,22.43,0,0,0,68,98.17a22,22,0,0,0-1.84,6.57c0,.35-.07.7-.09,1.06a.91.91,0,0,0,0,.17,1.14,1.14,0,0,0,1.07,1,1.15,1.15,0,0,0,1.22-1.08c0-.33,0-.66.1-1a19.35,19.35,0,0,1,1.51-5.58,20.52,20.52,0,0,1,3.33-5.23c.34-.38.68-.75,1-1.1.18-.17.36-.35.55-.51a14.5,14.5,0,0,1,1.51-1.23s0,0,0,0a16.3,16.3,0,0,1,2-1.26c.28-.16.56-.3.85-.44l.13-.06s0,0,0,0a4.5,4.5,0,0,0,.47-1s0,0,0,0a7,7,0,0,0,.33-1.3c0-.17.06-.34.08-.53Z"/><path class="cls-10" d="M60.58,113.06a.77.77,0,0,1,1.52.25S58.47,133.24,70,138.38a.77.77,0,0,1-.62,1.4C56.74,134.14,60.57,113.12,60.58,113.06Z"/><path class="cls-10" d="M70.91,114.09a.78.78,0,0,1,.85-.68.76.76,0,0,1,.68.84c0,.07-2.26,23.25-16,23.94a.77.77,0,1,1-.07-1.53C68.77,136,70.91,114.15,70.91,114.09Z"/><path class="cls-10" d="M101.15,131.6a7.65,7.65,0,1,1-5.4,2.24l.06-.06A7.62,7.62,0,0,1,101.15,131.6Z"/><path class="cls-11" d="M104.92,135.47a5.34,5.34,0,0,0-7.49-.05l-.05.05a5.33,5.33,0,1,0,7.54,0Z"/><path class="cls-12" d="M103.08,137.31a2.68,2.68,0,0,0-1.93-.8,2.71,2.71,0,0,0-1.91.77l0,0a2.74,2.74,0,1,0,4.67,1.93A2.7,2.7,0,0,0,103.08,137.31Z"/><path class="cls-6" d="M62.49,113.17a1.15,1.15,0,0,1-2.3,0c-.06-3.91,1.62-6.53,3.76-7.73a5.85,5.85,0,0,1,3.1-.76,5.56,5.56,0,0,1,3,1.07c1.93,1.42,3.25,4.24,2.75,8.52a1.15,1.15,0,1,1-2.29-.26c.39-3.33-.49-5.43-1.82-6.4A3.22,3.22,0,0,0,67,107a3.45,3.45,0,0,0-1.87.47C63.6,108.3,62.44,110.22,62.49,113.17Z"/><path class="cls-12" d="M71.59,137.3a2.45,2.45,0,0,0-3.43,0l0,0a2.47,2.47,0,0,0-.71,1.73,2.44,2.44,0,0,0,4.88,0A2.48,2.48,0,0,0,71.59,137.3Z"/><path class="cls-12" d="M58.69,135.8a2.45,2.45,0,0,0-3.43,0l0,0a2.44,2.44,0,1,0,3.46,0Z"/><rect class="cls-13" x="53.73" y="44.88" width="4.58" height="11.02" transform="translate(-12.82 19.75) rotate(-17.98)"/><path class="cls-14" d="M57.33,53.67a7.67,7.67,0,1,1-6.83,8.42A7.67,7.67,0,0,1,57.33,53.67Z"/><path class="cls-14" d="M109.58,48.23a7.67,7.67,0,1,1-6.83,8.42A7.67,7.67,0,0,1,109.58,48.23Z"/><path class="cls-15" d="M77.7,12.55h0A26.34,26.34,0,0,1,106.54,36L109,59.71A26.34,26.34,0,0,1,85.61,88.55h0a26.34,26.34,0,0,1-28.85-23.4L54.29,41.4A26.35,26.35,0,0,1,77.7,12.55Z"/><path class="cls-7" d="M88.61,13.74A26.33,26.33,0,0,1,106.54,36L109,59.71A26.34,26.34,0,0,1,85.61,88.55h0a26,26,0,0,1-9.56-.77c25.57-2.47,26.52-20.86,25.08-34.68-1.58-15.26-6.81-18.81-12.21-18.24L69.1,36.92S63.82,21.36,84.12,15C85.71,14.48,87.2,14.07,88.61,13.74Z"/><path class="cls-16" d="M91.62,21.63,88,26.75s-5.43-1.88-10.23.32,5.72-8.86,6.31-8.92S91.62,21.63,91.62,21.63Z"/><path class="cls-17" d="M103.45,34.79l.84,8c.33,3.15,1,4,2.69,5,0,0-.65,3.15,1.18,3.68,0,0-.38-3.69,4.46-3,0,0,10.07-45.39-25.8-41.65,0,0-8-8.31-23.89-6.65C43.14,2.28,49,22.73,50.23,35.87c.56,5.77,2.16,10.44-1.6,11.2,0,0,2.49.13,6,0,21.31-.78,19-6.79,26.21-22.48,2.46-5.33,5.68-5,7.17,2.16C88,26.75,102.42,25.25,103.45,34.79Z"/><path class="cls-18" d="M84.29,4.85a27.24,27.24,0,0,0-3.5-2C79.31,19.53,58.65,21.41,48.57,21.33c.27,4.18,1,8.45,1.41,12.28C74.84,31.17,82.18,13.43,84.29,4.85Z"/><path class="cls-19" d="M76.6,27.29a27.48,27.48,0,0,1-7.78,8.52A18.59,18.59,0,0,1,64.47,38a63.57,63.57,0,0,1-10.26,2.49c-1.06.17-2.16.34-3.33.5,0,.27.06.53.08.79.28,2.84,0,4.84-2.33,5.32,0,0,1.55.07,3.92,0,.64,0,1.34,0,2.09,0h.24c.85,0,1.65-.07,2.42-.12C70,46.11,73.08,43,76,36.2c1.18-2.69,2.33-6,4-9.89l.78-1.73c.21-.45.42-.86.64-1.23a8.23,8.23,0,0,1,.88-1.25,1.75,1.75,0,0,1,.23-.24,2.43,2.43,0,0,1,2-.91l.19,0C81.18,19.62,79.36,23.05,76.6,27.29ZM113.87,33c0-.1,0-.21,0-.32l0-.6a2.64,2.64,0,0,0,0-.28,3.25,3.25,0,0,0,0-.44,1,1,0,0,0,0-.17c0-.29,0-.59-.07-.89,0-.13,0-.25,0-.38,0-.46-.09-.92-.16-1.38s-.08-.68-.13-1a.11.11,0,0,1,0-.05l0-.18c0-.08,0-.16,0-.23-.05-.34-.11-.68-.18-1s-.18-.94-.29-1.41h0c-.09-.41-.19-.81-.3-1.21s-.29-1.06-.46-1.58c-.07-.23-.15-.46-.23-.68-.14-.42-.29-.83-.46-1.24a24.22,24.22,0,0,0-1.57-3.29l0,0c-.12-.2-.24-.4-.37-.6s-.25-.4-.38-.6l-.3-.42a6.86,6.86,0,0,0-.46-.64s0,0,0,0c-.32-.4-.64-.79-1-1.17s-.65-.7-1-1a13.43,13.43,0,0,1-5.75,9.74h0c-2.79,2.07-6.81,3.81-12.5,4.92,0,0,12.54-1.31,15,6.26a7.51,7.51,0,0,1,.28,1.11,6.53,6.53,0,0,1,.1.66l0,.26,0,.21s0,.1,0,.16l0,.38a1.8,1.8,0,0,0,0,.22l0,.48,0,.27.06.56c.07.72.15,1.54.24,2.38l.17,1.61c1-.71,1.87-1.41,2.75-2.1a75.51,75.51,0,0,0,7-6.14h0A.38.38,0,0,0,113.87,33Z"/><path class="cls-16" d="M103.45,34.79l.84,8c.33,3.15,1,4,2.69,5,0,0-.65,3.15,1.18,3.68,0,0-.38-3.69,4.46-3,0,0,4.91-22.15-4.36-34.23.18.52,4.73,13.85-5.19,18.73A8.51,8.51,0,0,1,103.45,34.79Z"/><path class="cls-16" d="M65.26,58.73h0A2.58,2.58,0,0,1,68.08,61l.35,3.33a2.59,2.59,0,0,1-2.3,2.83h0a2.59,2.59,0,0,1-2.82-2.29L63,61.55A2.58,2.58,0,0,1,65.26,58.73Z"/><path class="cls-16" d="M92.65,55.88h0a2.58,2.58,0,0,1,2.83,2.29l.34,3.33a2.58,2.58,0,0,1-2.29,2.83h0A2.58,2.58,0,0,1,90.71,62l-.35-3.33A2.57,2.57,0,0,1,92.65,55.88Z"/><path class="cls-16" d="M61,52.71,68.2,52a1.4,1.4,0,0,1,1.54,1.24h0a1.4,1.4,0,0,1-1.25,1.54l-7.22.75a1.4,1.4,0,0,1-1.54-1.24h0A1.4,1.4,0,0,1,61,52.71Z"/><path class="cls-16" d="M88.37,49.86l7.23-.75a1.39,1.39,0,0,1,1.53,1.24h0a1.4,1.4,0,0,1-1.24,1.54l-7.23.75a1.4,1.4,0,0,1-1.53-1.25h0A1.4,1.4,0,0,1,88.37,49.86Z"/><path class="cls-14" d="M64.64,69a3.8,3.8,0,1,1-3.39,4.18A3.79,3.79,0,0,1,64.64,69Z"/><path class="cls-14" d="M97.16,65.61a3.8,3.8,0,1,1-3.39,4.17A3.79,3.79,0,0,1,97.16,65.61Z"/><path class="cls-20" d="M76.29,75a1.14,1.14,0,1,0-2.26.31A5.53,5.53,0,0,0,76.15,79,5.52,5.52,0,0,0,85,73.87a1.14,1.14,0,1,0-2.27.3,3.22,3.22,0,0,1-2.77,3.63A3.22,3.22,0,0,1,76.29,75Z"/><path class="cls-5" d="M0,110.52c0,1.67,15.84,58.5,16.67,61.84s2.51,3.75,8,3.68,36.48-.35,39.68-.07,7.43-1.67,6.39-4.79S55,112.47,54.47,111.35s-2.22-4-7.71-3.61c-5.23.4-28,0-42.45.13C2.61,107.87,0,108,0,110.52Z"/><path class="cls-21" d="M17.1,142.5h0l-1.72.48-1.1.31-2.65.75-2.21,1.88c.59,2.16,1.18,4.28,1.74,6.33.29,1,.57,2.07.85,3.07l.3,1.1c0,.12.07.24.09.35s0,0,0,0c.06.25.13.49.2.74.59,2.14,1.14,4.13,1.63,5.93a17.21,17.21,0,0,1,3.49-6.09A8.6,8.6,0,0,0,19.86,152C20.12,147.17,17.1,142.5,17.1,142.5Zm53.63,28.67c-.06-.18-.17-.54-.31-1s-.41-1.46-.69-2.49c-.75-2.73-1.85-6.78-3.11-11.48l-5.2-19.38c-.14-.51-.28-1-.41-1.53-.22-.83-.44-1.65-.67-2.46-.05-.21-.1-.41-.16-.62L59.32,129c-1.57-5.85-3-10.93-3.84-14.11-.56-2.07-.93-3.33-1-3.49a6.3,6.3,0,0,0-.74-1.19c-1-1.25-2.95-2.73-7-2.42-.37,0-.82.05-1.35.07l-1,0c.14,0,4,.2,6.82,5.62,0,.06.07.13.11.2a23.83,23.83,0,0,1,1.86,5.18c.23.94.57,2.16.95,3.59a101.13,101.13,0,0,1,2.24,10c.15.88.28,1.77.4,2.68.06.5.12,1,.17,1.52s.1,1,.14,1.53.08,1.21.11,1.82a35.78,35.78,0,0,1-2.79,16.44C50,166,39.66,173.74,17.69,174.58a3.15,3.15,0,0,0,1.3.91l.18.07.51.16c.14,0,.29.07.44.09l.49.08c.44.06.91.09,1.44.12l.77,0h1.84c3.91-.05,20.71-.2,31.24-.19,4.28,0,7.52,0,8.44.12a7.8,7.8,0,0,0,5.3-1.49A2.89,2.89,0,0,0,70.73,171.17Z"/><path class="cls-15" d="M8.24,142.39s4.87-2.3,7.68-1.41,1.62,12.7-.18,14.61a3.69,3.69,0,0,1-5.69-.24C9,153.74,3.71,144.82,8.24,142.39Z"/><path class="cls-7" d="M15.19,140.83a3.38,3.38,0,0,1,.73.16c2.81.89,1.62,12.69-.18,14.6a3.69,3.69,0,0,1-5.69-.24c-.25-.38-.73-1.15-1.26-2.16C15.56,151.44,15.76,144.88,15.19,140.83Z"/></g></g></svg>