<svg xmlns="http://www.w3.org/2000/svg" viewBox="0 0 47.09 82.58"><defs><style>.cls-1{fill:#f2f0f0;}.cls-1,.cls-10,.cls-11,.cls-12,.cls-13,.cls-14,.cls-15,.cls-16,.cls-3,.cls-4,.cls-5,.cls-6,.cls-7,.cls-8,.cls-9{fill-rule:evenodd;}.cls-2{fill:#2a999b;}.cls-3{fill:#64504d;}.cls-4{fill:#3a4f77;}.cls-5{fill:#14274b;}.cls-6{fill:#ed9072;}.cls-7{fill:#4fbcbe;}.cls-8{fill:#cecbcb;}.cls-9{fill:#fff;}.cls-10{fill:#e37b64;}.cls-11{fill:#f4ad85;}.cls-12{fill:#231f20;}.cls-13{fill:#58595b;}.cls-14{fill:#6d6e71;}.cls-15{fill:#414042;}.cls-16{fill:#bc614f;}</style></defs><title>sadРесурс 7</title><g id="Слой_2" data-name="Слой 2"><g id="OBJECTS"><path class="cls-1" d="M9.72,59.41c-2.16,3.38-4.81,7.74-4.31,9.51s3.38,7.41,5.79,11.91l.69,1.3a0,0,0,0,1,0,0l.24.44h-5L7,82.39l-.57-.83-.17-.25L5.56,80.2c-.24-.37-.48-.73-.7-1.09s-.33-.52-.49-.78l-.45-.75-.41-.71c-.13-.23-.26-.46-.37-.67-.28-.53-.54-1-.79-1.46L2,74.09c-.54-1-1-1.79-1.29-2.5a.59.59,0,0,1,0-.08c-1-2.32-.88-3.74.56-8C3.11,58,6.49,49.73,8.79,46.44a8.16,8.16,0,0,1,.79-1l.21-.19c3.05-2.49,2.1-1.12,2.1-1.12,4.07,2.9,1.1,9.25.35,11.11A43.87,43.87,0,0,1,9.72,59.41Z"/><path class="cls-1" d="M46.42,71.51a4.54,4.54,0,0,1-.21.45q-.1.23-.24.48c-.5,1-1.18,2.17-2,3.76-.38.72-.86,1.53-1.4,2.4l-.33.52c-.7,1.11-1.49,2.29-2.3,3.46H35l0-.07.15-.28h0l.17-.29.58-1.1c2.41-4.5,5.33-10.26,5.79-11.91a2.07,2.07,0,0,0,0-.87.76.76,0,0,0,0-.21A9,9,0,0,0,41,65.73c-.18-.43-.4-.87-.64-1.33-.47-.9-1-1.86-1.59-2.8l-.86-1.38c-.19-.32-.39-.63-.58-.93h0l-.45-.71-.2-.3h0l-.66-1c-.11-.17-.22-.33-.31-.49,0,0,0,0,0,0h0a10.62,10.62,0,0,1-.81-1.45c-.49-1.22-1.94-4.38-1.72-7.23h0a.75.75,0,0,1,0-.21,5.2,5.2,0,0,1,.59-2,2.07,2.07,0,0,1,.19-.32,2.7,2.7,0,0,1,.29-.4,1.46,1.46,0,0,1,.16-.19,4.94,4.94,0,0,1,.82-.74s-.46-.68.32-.22l.22.14.29.2.35.26.42.33.47.37,0,0h0a7,7,0,0,1,1.32,1.65l.09.14c.17.26.34.55.51.85.37.66.77,1.41,1.17,2.22l.29.6.48,1h0a126.47,126.47,0,0,1,4.69,11.75C47.31,67.77,47.46,69.19,46.42,71.51Z"/><rect class="cls-2" x="16.29" y="43.05" width="15.02" height="30.63"/><path class="cls-3" d="M28.72,41.21c0-.1-.11-1.22-.11-1.22a3.26,3.26,0,0,0-2.55-.4c-1.67.32-2.26.37-2.26.37s-.59-.05-2.26-.37A3.24,3.24,0,0,0,19,40s-.13,1.12-.12,1.22c.24,1.63,4.93,2.49,4.93,2.49S28.49,42.84,28.72,41.21Z"/><path class="cls-4" d="M25.79,44.81a9.51,9.51,0,0,1-1.15,1.89c-.35.25.47,13.66,1.53,19.39S23.8,78.65,23.8,78.65s-3.44-6.83-2.37-12.56S23.31,47,23,46.7a9.51,9.51,0,0,1-1.15-1.89l2-1.47Z"/><path class="cls-5" d="M25.79,44.81a9.51,9.51,0,0,1-1.15,1.89c-.35.25.47,13.66,1.53,19.39S23.8,78.65,23.8,78.65s-3.44-6.83-2.37-12.56c.14-.79.28-1.72.42-2.75,3.62-2.6,2.5-13.65,2.29-14.78s-1.1-1-1.1-1A2.31,2.31,0,0,0,23,46.7a1.35,1.35,0,0,1-.27-.32s1.32.18,1.58-.29-.2-1.52-.76-1.47c-.4,0-.88.8-1.14,1.25-.12-.21-.24-.43-.33-.61L22,44.71l1.85-1.37Z"/><path class="cls-6" d="M27.06,32.28,27,34.52v5.3a1.89,1.89,0,0,0,.87,1.24,20.5,20.5,0,0,1-2.32,2.19H22.07a20.29,20.29,0,0,1-2.31-2.19,1.93,1.93,0,0,0,.87-1.24v-5.3l-.1-2.24s1.61.29,3.27.7C25.46,32.57,27.06,32.28,27.06,32.28Z"/><path class="cls-7" d="M28.61,40a6.12,6.12,0,0,1-4.25,2.63.82.82,0,0,0-.66.76c0,.62,1.82,2.31,2,3.22s3.88-3.83,4.12-5.31C29.81,41.29,29.2,40.16,28.61,40Z"/><path class="cls-7" d="M19,40a6.09,6.09,0,0,0,4.25,2.63.82.82,0,0,1,.65.76c0,.62-1.82,2.31-2,3.22S18,42.77,17.79,41.29C17.79,41.29,18.4,40.16,19,40Z"/><path class="cls-1" d="M11.86,82.58c0-.15,0-.3,0-.44.07-1,.14-1.9.2-2.7a51.83,51.83,0,0,0-2.38-20c-1.24-4-2.39-7.09-2.09-9.89a6.69,6.69,0,0,1,1.16-3.08,8.16,8.16,0,0,1,.79-1,11.67,11.67,0,0,1,2.25-1.85l.75-.45q.36-.21.72-.39h0l.7-.34a.08.08,0,0,0,.06,0l.6-.26.17-.07a20.75,20.75,0,0,1,2-.68c.5.53,1.1,1.14,1.61,1.66l.24.25.53,2.21c-.25.71,1,2.47,1.25,5.15.29,3.27.85,7.6,1.46,12h0c0,.16.05.32.07.49.5,3.6,1,7.26,1.46,10.46l.06.45v0a.13.13,0,0,1,0,.06c.09.66.18,1.3.25,1.91h0c0,.4.1.78.15,1.15s.07.59.1.87h0c.16,1.29.27,2.4.33,3.28,0,.19,0,.4,0,.62s0,.34,0,.52Z"/><path class="cls-8" d="M12.5,43.57a4.06,4.06,0,0,0-.67,0l.75-.45q.36-.21.72-.39h0l.7-.34a.08.08,0,0,0,.06,0l.6-.26.17-.07a20.75,20.75,0,0,1,2-.68c.5.53,1.1,1.14,1.61,1.66l.24.25.53,2.21c-.25.71,1,2.47,1.25,5.15.29,3.27.85,7.6,1.46,12h0c0,.16.05.32.07.49.5,3.6,1,7.26,1.46,10.46l.06.45v0a.13.13,0,0,1,0,.06c.09.66.18,1.3.25,1.91h0c0,.4.1.78.15,1.15s.07.59.1.87h0c.16,1.29.27,2.4.33,3.28,0,.19,0,.4,0,.62s0,.34,0,.52H20.55a51.8,51.8,0,0,0-1.73-8.9c-.84-3.08-1.81-6-2.53-8.11-.42-1.22-.76-2.18-.95-2.77-.95-2.93.67-15.16,0-17.43A2.68,2.68,0,0,0,12.5,43.57Z"/><path class="cls-9" d="M14.85,42.08c4,4.74,1.69,13.25,1,18-.29,2,2.12.61,3.08.86s-2,.92-2.33,1.62,5.53,8.23,6.93,14.52c0,0,.1.29.2.32s.26,0,.19-.37-2.06-16.22-2.84-22.7-1-10-3.32-13.19c0,0-.09-.17-.43-.16S15,41.51,14.85,42.08Z"/><path class="cls-1" d="M39.43,51.42a4.36,4.36,0,0,1-.06.49A16.1,16.1,0,0,1,39,54l-.21.78c-.14.47-.29,1-.45,1.45-.1.31-.2.64-.31,1l-.27.84-.21.64c-.06.21-.13.43-.2.66h0A49.39,49.39,0,0,0,34.9,79l.24,3.25h0l0,.35H22.63c0-.43.06-.81.08-1.14.07-1.07.23-2.49.43-4.16,0,0,0-.06,0-.09h0c.05-.35.09-.72.14-1.09.08-.6.16-1.23.24-1.88a.59.59,0,0,0,0-.13c0-.13,0-.27.05-.4.55-4,1.23-8.71,1.83-13.14h0v0c.49-3.65.93-7.12,1.17-9.84a12.36,12.36,0,0,1,.71-3.05h0c.07-.21.15-.41.22-.6l.17-.5a2.56,2.56,0,0,0,.17-.79.64.64,0,0,0,0-.2l.3-1.21v0l.23-1,.24-.25.86-.89h0l.73-.76a18.79,18.79,0,0,1,2,.69,15,15,0,0,1,5.06,3.15l0,0h0a8.13,8.13,0,0,1,1.1,1.38,3.21,3.21,0,0,1,.19.31h0a5.41,5.41,0,0,1,.51,1.12c0,.12.08.24.11.37a2.28,2.28,0,0,1,.11.45,4.17,4.17,0,0,1,.1.6A9.28,9.28,0,0,1,39.43,51.42Z"/><path class="cls-8" d="M39.43,51.42a4.36,4.36,0,0,1-.06.49A16.1,16.1,0,0,1,39,54l-.21.78c-.14.47-.29,1-.45,1.45-.1.31-.2.64-.31,1l-.27.84-.21.64c-.06.21-.13.43-.2.66h0A49.39,49.39,0,0,0,34.9,79l.24,3.25h0l0,.35H32.81c-.23-2.46-.41-4.09-.43-4.38-.5-6.73,2.41-15.56,3.29-21.46,0,0,0,0,0,0l.09-.73c.06-.48.1-1,.12-1.38,0-.22,0-.43,0-.63a7.24,7.24,0,0,0-.18-1.71l-.12-.43-.12-.4c-.09-.26-.18-.51-.28-.74s-.11-.24-.16-.35l-.15-.3-.16-.3a5.86,5.86,0,0,0-.88-1.15l-.18-.17a2.48,2.48,0,0,0-.37-.29l-.17-.1h0a1.71,1.71,0,0,0-1.81-.11,1.25,1.25,0,0,0-.46.55c-.7,1.57,0,9.33,0,9.33l-1.2,1a36.06,36.06,0,0,1-2.34-11.22h0c.07-.21.15-.41.22-.6l.17-.5a2.56,2.56,0,0,0,.17-.79.6.6,0,0,0,0-.2l.3-1.21v0l.23-1,.24-.25.86-.89h0l.73-.76a18.79,18.79,0,0,1,2,.69,15,15,0,0,1,5.06,3.15l0,0h0a8.13,8.13,0,0,1,1.1,1.38,3.21,3.21,0,0,1,.19.31h0a5.41,5.41,0,0,1,.51,1.12c0,.12.08.24.11.37a2.28,2.28,0,0,1,.11.45,4.17,4.17,0,0,1,.1.6A9.28,9.28,0,0,1,39.43,51.42Z"/><path class="cls-9" d="M32.21,42.08c-4,4.74-1.68,13.25-1,18,.28,2-2.13.61-3.08.86s2,.92,2.33,1.62-5.53,8.23-6.94,14.52c0,0-.09.29-.19.32s-.26,0-.2-.37S25.21,60.8,26,54.32s1-10,3.32-13.19c0,0,.09-.17.42-.16S32.06,41.51,32.21,42.08Z"/><path class="cls-8" d="M46.42,71.51a4.54,4.54,0,0,1-.21.45q-.1.23-.24.48c-.5,1-1.18,2.17-2,3.76-.38.72-.86,1.53-1.4,2.4l-.33.52c-.7,1.11-1.49,2.29-2.3,3.46H35l0-.07.15-.28h0l.17-.29.58-1.1a2,2,0,0,0,2.7,1C40.68,80.85,45.86,72.68,46.42,71.51Z"/><path class="cls-8" d="M38.62,46.92a42.26,42.26,0,0,1,2.54,4.83,10.38,10.38,0,0,0-1.8,6.15c.19,5.08,3.19,8.49,2.32,11,.55-2-2.81-7.17-5-10.65.24-4.91.8-9.74,1.19-10.23C38,47.82,38.27,47.38,38.62,46.92Z"/><path class="cls-8" d="M39.43,49.52a4.17,4.17,0,0,0-.1-.6,2.28,2.28,0,0,0-.11-.45c0-.13-.07-.25-.11-.37A5.41,5.41,0,0,0,38.6,47h0a3.21,3.21,0,0,0-.19-.31,8.13,8.13,0,0,0-1.1-1.38h0l0,0-.47-.37-.42-.33L36,44.28l-.29-.2-.22-.14c-.78-.46-.32.22-.32.22a4.94,4.94,0,0,0-.82.74,1.46,1.46,0,0,0-.16.19,2.7,2.7,0,0,0-.29.4,2.07,2.07,0,0,0-.19.32,5.2,5.2,0,0,0-.59,2,1.52,1.52,0,0,0,0,.21h0l.17.1a2.48,2.48,0,0,1,.37.29l.18.17a5.86,5.86,0,0,1,.88,1.15l.16.3.15.3c.05.11.11.23.16.35s.19.48.28.74l.12.4.12.43A7.24,7.24,0,0,1,35.9,54c0,.2,0,.41,0,.63,0,.43-.06.9-.12,1.38,0,.24-.06.48-.1.73h0a0,0,0,0,0,0,0c.09.16.2.32.31.49l.66,1h0l.2.3.45.71.21-.66.21-.64.27-.84c.11-.33.21-.66.31-1,.16-.5.31-1,.45-1.45L39,54a16.1,16.1,0,0,0,.42-2,4.36,4.36,0,0,0,.06-.49A9.28,9.28,0,0,0,39.43,49.52Z"/><path class="cls-10" d="M12.48,29a3.28,3.28,0,1,0-3.29-3.28A3.29,3.29,0,0,0,12.48,29Z"/><path class="cls-10" d="M35,29a3.28,3.28,0,1,0-3.28-3.28A3.29,3.29,0,0,0,35,29Z"/><path class="cls-11" d="M23.8,5.76h0A11.28,11.28,0,0,1,35,17V27.21A11.28,11.28,0,0,1,23.8,38.45h0A11.28,11.28,0,0,1,12.56,27.21V17A11.28,11.28,0,0,1,23.8,5.76Z"/><path class="cls-6" d="M28.59,7A11.27,11.27,0,0,1,35,17.11V27.32A11.28,11.28,0,0,1,23.8,38.56h0a11.06,11.06,0,0,1-3.7-.63c10.62-.11,11.81-7.77,11.81-13.64,0-6.57-2.07-8.31-4.39-8.31H19s-1.56-6.85,7.37-8.67C27.16,7.15,27.89,7,28.59,7Z"/><path class="cls-12" d="M13.68,16.27c-.3,1.37-.51,8.53-1.12,9.1,0,0,.37-2.79-.81-2.79l-.53-10.41,1.36,1.09Z"/><path class="cls-12" d="M29.21,10.59l-1.79,2.06A6.7,6.7,0,0,0,23,12.32c-2.18.74,2.89-3.58,3.14-3.58A32.79,32.79,0,0,1,29.21,10.59Z"/><path class="cls-13" d="M33.75,16.83v3.53c0,1.38.25,1.79.94,2.29,0,0-.42,1.34.35,1.65,0,0,0-1.61,2.07-1.1,0,0,6.41-19.24-9.32-19.24,0,0-3.08-4-10.06-4-8.68,0-7.08,9.14-7.12,14.9,0,2.53.46,4.62-1.2,4.79,0,0,1.07.16,2.61.26,9.27.63,8.53-2.08,12.38-8.57,1.31-2.2,2.69-1.91,3,1.27C27.42,12.65,33.73,12.65,33.75,16.83Z"/><path class="cls-14" d="M26.78,3a11.29,11.29,0,0,0-1.42-1C24,9.12,14.91,9,10.54,8.51c-.07,1.83,0,3.71.06,5.39C21.5,14,25.48,6.6,26.78,3Z"/><path class="cls-15" d="M38.39,14.33c0-.24,0-.49,0-.73a.66.66,0,0,0,0-.14c0-.17,0-.35-.05-.53s0-.35-.07-.53l-.09-.52c0-.19-.07-.37-.11-.56s0-.14-.05-.21A.14.14,0,0,0,38,11a1.05,1.05,0,0,0-.05-.19h0s0,0,0,0v0c0-.15-.08-.29-.13-.43a1.34,1.34,0,0,0-.07-.18,6.09,6.09,0,0,0-.28-.75c0-.12-.1-.24-.15-.36l0-.11c-.1-.2-.2-.4-.31-.58l0-.08a.47.47,0,0,0-.06-.09,0,0,0,0,0,0,0L36.64,8A7.47,7.47,0,0,0,36,7.11,5.87,5.87,0,0,1,33.27,11l-.06,0a13,13,0,0,1-5.79,1.66h.27l.31,0,.32,0,.27,0,.3,0,.53.09a9.77,9.77,0,0,1,1.6.46l0,0,.2.09.2.09.28.14a2.29,2.29,0,0,1,.29.18,1.67,1.67,0,0,1,.24.16l.25.19a3.42,3.42,0,0,1,.43.42,3.12,3.12,0,0,1,.39.56,2.74,2.74,0,0,1,.25.58,2.45,2.45,0,0,1,.08.29,3.81,3.81,0,0,1,.08.78V19.7c.45-.27.88-.53,1.29-.8a29.44,29.44,0,0,0,3.31-2.34C38.4,15.83,38.41,15.08,38.39,14.33ZM25.49,9.8c-1.08,0-1.92,1.18-3,2.57a12.76,12.76,0,0,1-3.51,3.21,8.57,8.57,0,0,1-2.25.87,23.14,23.14,0,0,1-3.1.5c-.33,0-.67.07-1,.09l-1.09.07-.8,0h0a8.21,8.21,0,0,1,0,1.14h0a3.49,3.49,0,0,1-.07.37,2.55,2.55,0,0,1-.11.33,1.08,1.08,0,0,1-.32.43,1,1,0,0,1-.2.13l-.22.09-.29.05h.05l.25,0,.12,0,.15,0,.74.08.43,0,.47,0,.4,0,.54,0,.68,0h.57c.49,0,.95,0,1.38,0L16,20l.65-.07h.05l.33-.05.31-.06.22-.05a5.79,5.79,0,0,0,.8-.23l.19-.07.38-.17.44-.23c.15-.09.29-.19.43-.29l.14-.11.26-.23.24-.24a.19.19,0,0,0,.06-.07,4.28,4.28,0,0,0,.29-.33l.27-.35a13.32,13.32,0,0,0,.9-1.44c.2-.37.4-.76.62-1.18l.6-1.15c.08-.15.16-.3.25-.45.18-.35.39-.72.6-1.1l.42-.72c.65-1.1,1.32-1.58,1.87-1.39A1.77,1.77,0,0,0,25.49,9.8Z"/><path class="cls-12" d="M33.75,16.83v3.53c0,1.38.25,1.79.94,2.29,0,0-.42,1.34.35,1.65,0,0,0-1.61,2.07-1.1,0,0,3.13-9.39-.35-15,.05.24,1.43,6.23-3.1,7.9A3.21,3.21,0,0,1,33.75,16.83Z"/><path class="cls-12" d="M17.52,25.72h0a1.11,1.11,0,0,1,1.1,1.1v1.44a1.11,1.11,0,0,1-1.1,1.1h0a1.1,1.1,0,0,1-1.1-1.1V26.82A1.1,1.1,0,0,1,17.52,25.72Z"/><path class="cls-12" d="M30.08,25.72h0a1.11,1.11,0,0,1,1.1,1.1v1.44a1.11,1.11,0,0,1-1.1,1.1h0a1.1,1.1,0,0,1-1.1-1.1V26.82A1.1,1.1,0,0,1,30.08,25.72Z"/><path class="cls-10" d="M16.8,33.32a1.63,1.63,0,1,0-1.62-1.63A1.64,1.64,0,0,0,16.8,33.32Z"/><path class="cls-10" d="M30.79,33.32a1.63,1.63,0,1,0-1.62-1.63A1.64,1.64,0,0,0,30.79,33.32Z"/><path class="cls-12" d="M28.52,23.09a.48.48,0,0,1,.05-.69.49.49,0,0,1,.69,0,3.23,3.23,0,0,0,2.72,1,.49.49,0,0,1,.14,1A4.28,4.28,0,0,1,28.52,23.09Z"/><path class="cls-12" d="M19.11,23.09a.48.48,0,0,0-.05-.69.49.49,0,0,0-.69,0,3.23,3.23,0,0,1-2.72,1,.49.49,0,1,0-.14,1A4.26,4.26,0,0,0,19.11,23.09Z"/><path class="cls-7" d="M15.72,31c-.25-.35.16-1,.4-1.44s0-.5.28,0,.62,1.05.41,1.4A.72.72,0,0,1,15.72,31Z"/><path class="cls-16" d="M22.42,33.7a.49.49,0,0,1-.48.5.48.48,0,0,1-.5-.47A2.32,2.32,0,0,1,22.07,32a2.37,2.37,0,0,1,4.09,1.52.49.49,0,1,1-1,0,1.35,1.35,0,0,0-.44-1,1.4,1.4,0,0,0-1-.37,1.46,1.46,0,0,0-1,.44A1.36,1.36,0,0,0,22.42,33.7Z"/><path class="cls-8" d="M11.89,82.13l0,.45H7.17L7,82.39l-.57-.83-.17-.25L5.56,80.2c-.24-.37-.48-.73-.7-1.09s-.33-.52-.49-.78l-.45-.75-.41-.71c-.13-.23-.26-.46-.37-.67-.28-.53-.54-1-.79-1.46-.12-.23-.23-.44-.35-.65-.54-1-1-1.79-1.29-2.5C1.43,73,6.45,80.87,8.5,81.84a2,2,0,0,0,2.7-1Z"/></g></g></svg>