<svg xmlns="http://www.w3.org/2000/svg" viewBox="0 0 68.74 81.85"><defs><style>.cls-1{fill:#f4ad85;}.cls-1,.cls-10,.cls-12,.cls-13,.cls-14,.cls-15,.cls-16,.cls-17,.cls-18,.cls-19,.cls-2,.cls-20,.cls-21,.cls-3,.cls-4,.cls-5,.cls-6,.cls-7,.cls-8,.cls-9{fill-rule:evenodd;}.cls-2{fill:#ed9072;}.cls-3{fill:#f2f0f0;}.cls-4{fill:#cecbcb;}.cls-5{fill:#f5f4f4;}.cls-6{fill:#2a999b;}.cls-7{fill:#4fbcbe;}.cls-8{fill:#183257;}.cls-9{fill:#111a39;}.cls-10{fill:#fff;}.cls-11,.cls-13{fill:#231f20;}.cls-12{fill:#e37b64;}.cls-14{fill:#58595b;}.cls-15{fill:#6d6e71;}.cls-16{fill:#414042;}.cls-17{fill:#14274b;}.cls-18{fill:#3a4f77;}.cls-19{fill:#14294c;}.cls-20{fill:#4b120d;}.cls-21{fill:#d64341;}</style></defs><title>small_speech2Ресурс 8</title><g id="Слой_2" data-name="Слой 2"><g id="OBJECTS"><path class="cls-1" d="M4.43,49.14a11.63,11.63,0,0,0-1.15-2.61c-.52-.6-2.14-.9-2.65-2S-.79,41.72,1.37,41,5,40,5.31,40.8s1,2.07.94,2.93a5.51,5.51,0,0,0,.41,4.08C7.69,49.43,4.43,49.14,4.43,49.14Z"/><path class="cls-2" d="M4.43,49.14a11.63,11.63,0,0,0-1.15-2.61c-.52-.6-2.14-.9-2.65-2s-1.42-2.85.74-3.6l1-.32A1.74,1.74,0,0,0,1.3,43.27c1.05,2,2.59,2.13,3.59,1.09a10.09,10.09,0,0,1,1.33-1.18,1.74,1.74,0,0,1,0,.55c0,.41-.18,1-.21,1.65a.94.94,0,0,0-1,.43c-.64.95-.48,2.37,1.33,1.35a5.69,5.69,0,0,0,.33.65C7.69,49.43,4.43,49.14,4.43,49.14Z"/><path class="cls-3" d="M31.55,42.66A18.32,18.32,0,0,0,27.18,47c-2.17,2.94-5.72,7.39-8.81,11.07-3.31,4-2.75,4.92-5.32.71-2.7-4.44-4.32-8.16-5.29-10.06C7.61,48.42,7,47,6.41,47.46a5.77,5.77,0,0,1-1.2.89c-.57.29-1.14,0-1.27.83,0,1.85,1.8,8.44,8.56,18.08.05,0-.72-.89.14.15s3.14,1.3,4,.4l.1-.06c2.68-2.58,8.33-7.11,11.83-11.43s4.62-8.15,6.06-11.11h0l.07-.17,0,0,0-.1h0l0-.09,0-.06v0h0a5.54,5.54,0,0,0,.53-1.57l-1.1,1.22Z"/><path class="cls-4" d="M31.55,42.66A18.32,18.32,0,0,0,27.18,47c-.58.78-1.26,1.68-2,2.64.46,3-.3,8.21-2.63,10.84-2.83,3.19-7,7.33-9.65,4.79S6,52.93,5.45,50.66c-.31-1.34,1-1.94,2.18-2.21-.26-.49-.77-1.35-1.22-1a5.77,5.77,0,0,1-1.2.89c-.57.29-1.14,0-1.27.83,0,1.85,1.8,8.44,8.56,18.08.05,0-.72-.89.14.15s3.14,1.3,4,.4l.1-.06c2.68-2.58,8.33-7.11,11.83-11.43s4.62-8.15,6.06-11.11h0l.07-.17,0,0,0-.1h0l0-.09,0-.06v0h0a5.54,5.54,0,0,0,.53-1.57l-1.1,1.22Z"/><path class="cls-5" d="M32,49.9c1.21-.76,1.9-.14,3.22,1.28s2.57,1.29,3.3,1.6.7,13.49-4.06,15.51c-1.76.74-2.86,0-3.54-1.6C29.7,63.87,28.84,51.88,32,49.9Z"/><path class="cls-6" d="M54.19,47.74l-3.7-4.68-.81-.7-8.22-3.09-3.8.59h0s-3.79,1.85-4.11,1.83a.4.4,0,0,1-.16-.06l-2.24,6.45s-1.36,9.35-1.56,10-.35,9.6.35,10.89.11,3.28,2.83,4.11,8.54,2.46,12.45-1.67a37.55,37.55,0,0,0,5.69-7.81C51.89,62.18,54.19,47.74,54.19,47.74Z"/><path class="cls-7" d="M32,48.83c1.22-.76,1.91-.14,3.24,1.29s2.58,1.29,3.31,1.61.71,13.56-4.08,15.59c-1.77.75-2.87,0-3.55-1.6C29.71,62.89,28.84,50.83,32,48.83Z"/><path class="cls-8" d="M38.67,45.14l-.23.4s-3.25,9.84-3.12,17.74,4.12,1.14,4,.47-.77-13.52-.08-18.16C39.29,45.59,39.23,45,38.67,45.14Z"/><path class="cls-9" d="M38.67,45.14l-.23.4s-.12.36-.31,1c.25.18.54.59.53,1.58,0,1.39.09,6.83-3,9.6a39.15,39.15,0,0,0-.36,5.57c.14,7.89,4.12,1.14,4,.47s-.77-13.52-.08-18.16C39.29,45.59,39.23,45,38.67,45.14Z"/><path class="cls-3" d="M27.69,71.93a130.66,130.66,0,0,1-.85-13.59h0c.05-6.2,1.07-12.37,4.71-15.67A8.91,8.91,0,0,1,34,41.05a10.86,10.86,0,0,1,1.36-.47l.48-.11a4,4,0,0,1,.5-.09l.22,0h0l.11,0h.06l-.12.29h0a0,0,0,0,1,0,0h0a.79.79,0,0,1,0,.12s0,.11-.07.18l-.08.22h0c-.05.14-.1.31-.17.51a34.38,34.38,0,0,0-1.39,5.83h0c-.1.59-.17,1.19-.23,1.83,0,0,0,.08,0,.12,0,.22,0,.44,0,.67h0c0,.12,0,.24,0,.36q-.06.69-.06,1.41h0c0,.6,0,1.22,0,1.84v.07c0,.75.1,1.52.2,2.31,0,.1,0,.21,0,.32q.06.45.15,1c0,.39.11.78.18,1.15a2.34,2.34,0,0,0,0,.26c.09.5.18,1,.28,1.47v0c.3,1.53.62,3,.95,4.24h0a0,0,0,0,0,0,0c.06.26.13.51.19.75s.06.21.08.31a2.5,2.5,0,0,0,.07.26.08.08,0,0,1,0,0h0L37,67a.36.36,0,0,0,0,.1h0c.68,2.35,1.27,4,1.46,4.47l.06.17.19,2.36.64,7.76H28.09C28,77.67,27.89,74.13,27.69,71.93Z"/><path class="cls-4" d="M34.44,53.77h0C34.39,53.61,34.42,53.67,34.44,53.77Z"/><path class="cls-4" d="M34.44,53.77h.09C34.54,54.1,34.49,53.91,34.44,53.77Z"/><path class="cls-4" d="M30.64,53.45c0-.36,0-.52,0-.52l.84-.85,1.89-1.91.26,2.73.07.75.36.05h0l.38.06c0,.22.1.85.32,2.4,0,.1,0,.21,0,.32q.06.45.15,1c0,.17.07.34.1.52.12.63.26,1.31.42,2v0h0c.29,1.3.64,2.69,1,4.05h0l0,0,.27,1.05c0,.2.11.4.16.6s.19.7.28,1c0,0,0,0,0,0a.94.94,0,0,0,0,.09h0c.62,2.28,1.16,4.11,1.31,4.66l.06.17.2,2.36.66,7.76H33.08c.07-.5.14-1,.21-1.43a46.31,46.31,0,0,0,.56-7,46.41,46.41,0,0,0-.23-4.85c0-.32-.07-.63-.1-.94a55.39,55.39,0,0,0-1.6-8.11c-.12-.46-.24-.88-.34-1.26l-.12-.4h0c0-.12-.06-.21-.09-.32-.15-.54-.26-1-.32-1.27C30.8,54.85,30.69,54,30.64,53.45Z"/><path class="cls-3" d="M35.13,81.85c.16-3.32.32-5.74.4-6.64l.12-1.4c.2-2.42.35-4.7.53-6.88a.22.22,0,0,1,0-.08c0-.22,0-.44.05-.66h0l0-.35,0-.31v0c0-.24.05-.48.07-.72h0s0-.07,0-.11,0-.36.06-.54c.11-1.25.26-2.46.43-3.65.14-.93.29-1.82.46-2.66.1-.5.21-1,.32-1.46s.22-.93.34-1.37.2-.75.31-1.1.2-.63.31-1c.06-.17.12-.35.19-.53s.12-.35.19-.53a32.63,32.63,0,0,1,2.95-6,39.39,39.39,0,0,1,3.21-4.4l.53-.63.06-.07.15,0,.07,0a11.7,11.7,0,0,1,1.68.51,35.33,35.33,0,0,1,3.87,1.76,11.94,11.94,0,0,1,2.64,1.81h0l0,0a4.57,4.57,0,0,1,.43.45l.15.19a3.61,3.61,0,0,1,.5.7.1.1,0,0,0,0,0,3.7,3.7,0,0,1,.47,1.3c.23,1.61-.68,5.48-1.87,9.65-.25.91-.53,1.83-.8,2.74h0a1.09,1.09,0,0,0-.05.17s0,0,0,0l-.27.88c-.27.87-.53,1.73-.79,2.56-.07.23-.14.46-.22.69l-.24.78-.47,1.47c-1,3.09-1,8.72-.52,15.21Z"/><path class="cls-4" d="M47.72,76.94a44.81,44.81,0,0,1-.21-8.17h0c.1-1.78.27-3.54.47-5.21.05-.37.09-.73.14-1.08.18-1.36.38-2.63.57-3.78h0c.06-.37.12-.73.19-1.07.47-2.65.87-4.37.87-4.37l.86.74.75.64,1.43,1.21a2.53,2.53,0,0,0-.07.38c-.14,1.25.66,2.54.4,3.82h0a.63.63,0,0,1,0,.19s0,0,0,0l-.27.88c-.27.87-.53,1.73-.79,2.56-.07.23-.14.46-.22.69l-.24.78-.47,1.47c-1,3.09-1,8.72-.52,15.21h-2.4C48,79.86,47.89,78.18,47.72,76.94Z"/><path class="cls-2" d="M44.46,31.52l-.1,2.24v5.29a1.92,1.92,0,0,0,.87,1.25c-.82.9-2.86,3-4.14,3.18a6.21,6.21,0,0,1-4-.88c-.33-.28-.36-1.75-.56-2.57l.14,0a2.39,2.39,0,0,0,1-.59c.77-.84.73-4.57,0-5.55S44.46,31.52,44.46,31.52Z"/><path class="cls-6" d="M38.35,42.45l.93-.5A4.2,4.2,0,0,0,39.46,43c.12,0,.26-.64.66-.89s1.47,1.22,1.47,1.22-.4,1.14-1,1.22-2.3.27-2.32-.24S38.35,42.45,38.35,42.45Z"/><path class="cls-9" d="M39.54,43.68a3.5,3.5,0,0,0,1.5-.49.92.92,0,0,1,1.19.11l-.66.74,0,.32a2.43,2.43,0,0,0-1.6.28C39.3,45.09,39.54,43.68,39.54,43.68Z"/><path class="cls-10" d="M36.66,40.6S32.24,51.36,36.73,66l0,1.12a84,84,0,0,1-5.48-12.32s-.15-.53.22-.76A4.25,4.25,0,0,1,33,53.22c.42,0-.22-.55-1.87.16a.73.73,0,0,1-.52-.46c-.12-.37.37-6.56,4.78-12.34,0,0,.06-.16.39-.25S36.77,40.05,36.66,40.6Z"/><path class="cls-7" d="M44.84,39.23a6.09,6.09,0,0,1-4.25,2.63.81.81,0,0,0-.66.76c0,.62,1.82,2.31,2,3.22S45.8,42,46,40.53C46,40.53,45.43,39.4,44.84,39.23Z"/><path class="cls-8" d="M38.25,43.74a1.31,1.31,0,0,1,.64-.28,1.79,1.79,0,0,1,1,.2,2,2,0,0,1,.5.78,4.19,4.19,0,0,1-1.13,1.15c-.27.13-.56-.09-.85-.05S38.07,44,38.25,43.74Z"/><path class="cls-9" d="M39.6,43.52a.73.73,0,0,1,.32.14,2,2,0,0,1,.5.78,4.19,4.19,0,0,1-1.13,1.15c-.27.13-.56-.09-.85-.05-.07,0-.13-.08-.17-.23C40.32,45,39.74,43.76,39.6,43.52Z"/><path class="cls-7" d="M37.54,39.15a3.09,3.09,0,0,0,1.54,2.54.33.33,0,0,1,.07.57,8.7,8.7,0,0,0-.95,2.45c-.15.65-2-2.63-1.83-4.64A3.65,3.65,0,0,1,37.54,39.15Z"/><rect class="cls-11" x="28.6" y="18.69" width="1.96" height="4.71" transform="translate(-3.74 6.63) rotate(-12.03)"/><path class="cls-12" d="M30,29.06a3.28,3.28,0,1,0-3.28-3.28A3.29,3.29,0,0,0,30,29.06Z"/><path class="cls-12" d="M52.47,29.06a3.28,3.28,0,1,0-3.28-3.28A3.28,3.28,0,0,0,52.47,29.06Z"/><path class="cls-1" d="M40.48,5.91h0A11.26,11.26,0,0,1,51.72,17.14V27.36A11.27,11.27,0,0,1,40.48,38.6h0A11.28,11.28,0,0,1,29.24,27.36V17.14A11.27,11.27,0,0,1,40.48,5.91Z"/><path class="cls-2" d="M45.07,6.89a11.28,11.28,0,0,1,6.65,10.25V27.36A11.27,11.27,0,0,1,40.48,38.6h0a11,11,0,0,1-4-.76c11,.09,12.21-7.7,12.21-13.64,0-6.57-2.07-8.31-4.39-8.31H35.75S34.19,9,43.11,7.22C43.81,7.08,44.46,7,45.07,6.89Z"/><path class="cls-13" d="M46,10.38l-1.76,2a6.56,6.56,0,0,0-4.37-.31c-2.14.72,2.83-3.52,3.08-3.52A32.82,32.82,0,0,1,46,10.38Z"/><path class="cls-14" d="M50.46,16.51V20c0,1.36.24,1.76.92,2.26,0,0-.41,1.31.34,1.62,0,0,0-1.59,2-1.08,0,0,6.29-18.87-9.13-18.87,0,0-3-3.89-9.87-3.89-8.52,0-6.95,9-7,14.61,0,2.48.46,4.54-1.18,4.7,0,0,1.06.16,2.56.26,9.1.61,8.37-2.05,12.15-8.4,1.29-2.16,2.64-1.88,3,1.23C44.25,12.4,50.44,12.4,50.46,16.51Z"/><path class="cls-15" d="M43.63,2.92a11,11,0,0,0-1.4-1C40.86,9,32,8.83,27.7,8.35c-.07,1.79,0,3.64.06,5.29C38.44,13.7,42.35,6.47,43.63,2.92Z"/><path class="cls-16" d="M55,13.88a.86.86,0,0,0,0-.16c0-.14,0-.28,0-.42l0-.17,0-.32v0l-.06-.45,0-.21s0-.06,0-.09,0-.26-.07-.38,0-.27-.08-.4a1.16,1.16,0,0,0,0-.18,2.86,2.86,0,0,0-.07-.28c0-.1-.05-.2-.08-.31v0s0,0,0,0a1.71,1.71,0,0,0-.09-.3c0-.11-.07-.22-.11-.33s-.07-.2-.11-.3S54,9.23,54,9.1a2.56,2.56,0,0,0-.11-.24v0l-.1-.21c-.09-.17-.18-.34-.28-.5L53.42,8V8l0,0c-.07-.11-.13-.21-.21-.32a.25.25,0,0,0,0-.07A6.26,6.26,0,0,0,52.67,7a5.75,5.75,0,0,1-2.89,3.89,13,13,0,0,1-5.53,1.54h.27l.3,0,.63.06h.07l.42.07.31.06.26,0c.17,0,.35.08.53.14h0l.54.18h0l.46.2.11,0c.15.07.29.15.43.23l.12.07.39.27,0,0,.16.14.15.14.18.19,0,0a3.06,3.06,0,0,1,.21.29,2.22,2.22,0,0,1,.28.5,3.7,3.7,0,0,1,.19.59h0v0c0,.11,0,.23,0,.34a2.6,2.6,0,0,1,0,.4v2.81l1.26-.77A31.72,31.72,0,0,0,55,16.24,20.56,20.56,0,0,0,55,13.88ZM42.35,9.61c-1.07,0-1.88,1.16-3,2.52a11.82,11.82,0,0,1-3.7,3.28,8,8,0,0,1-2,.73,26.5,26.5,0,0,1-4.47.6l-1.44.07c0,1.41-.11,2.39-1.23,2.5l.29,0H27l1.21.13.89.07h.1l1,.06,1.14,0c.39,0,.75,0,1.1,0l.5,0,.47-.05a10.92,10.92,0,0,0,1.15-.2,5.63,5.63,0,0,0,.69-.21,3,3,0,0,0,.45-.18,3.6,3.6,0,0,0,.55-.29,2.11,2.11,0,0,0,.27-.18,2.69,2.69,0,0,0,.27-.2,5.45,5.45,0,0,0,.5-.46,5.17,5.17,0,0,0,.52-.62l0,0c.11-.14.21-.3.32-.46l.06-.1c.14-.22.28-.46.42-.71.62-1.09,1.26-2.43,2.16-4l.41-.7c.64-1.08,1.3-1.55,1.84-1.36A1.74,1.74,0,0,0,42.35,9.61Z"/><path class="cls-13" d="M50.46,16.51V20c0,1.36.24,1.76.92,2.26,0,0-.41,1.31.34,1.62,0,0,0-1.59,2-1.08,0,0,3.07-9.21-.34-14.76.06.23,1.4,6.1-3,7.74A3.13,3.13,0,0,1,50.46,16.51Z"/><path class="cls-13" d="M33.33,23.08h0a1.11,1.11,0,0,1,1.11,1.1v1.44a1.11,1.11,0,0,1-1.11,1.1h0a1.11,1.11,0,0,1-1.1-1.1V24.18A1.11,1.11,0,0,1,33.33,23.08Z"/><path class="cls-13" d="M45.12,23h0a1.1,1.1,0,0,1,1.1,1.1v1.44a1.11,1.11,0,0,1-1.1,1.1h0a1.1,1.1,0,0,1-1.1-1.1V24.11A1.1,1.1,0,0,1,45.12,23Z"/><path class="cls-12" d="M32.62,31.37A1.63,1.63,0,1,0,31,29.74,1.63,1.63,0,0,0,32.62,31.37Z"/><path class="cls-12" d="M46.61,31.37A1.63,1.63,0,1,0,45,29.74,1.63,1.63,0,0,0,46.61,31.37Z"/><path class="cls-10" d="M45.75,40.78S37,47,36.16,68.21c0,0,0,.43.17.46s4.2-11.34,6.77-13.37a.68.68,0,0,0,.23-.76,6.22,6.22,0,0,0-2-1.65c-.57-.32,1.62,0,2.41.44s1.32,0,1.84-.79-.18-9.78,2-11.2a.22.22,0,0,0,0-.24,9,9,0,0,0-1.39-.46A.6.6,0,0,0,45.75,40.78Z"/><path class="cls-9" d="M38.11,38.34l-.1,0-.18,0-.15,0-.17-.05h0l-.13.07A9,9,0,0,0,34,41.05c-.15.21-.3.42-.44.64A8.61,8.61,0,0,0,33,42.85v0a4.71,4.71,0,0,0-.21.52,5.48,5.48,0,0,0-.31,1v0a449546480176.4,449546480176.4,0,0,0,0,.06,6.86,6.86,0,0,0-.22,1.2,3.44,3.44,0,0,0-.05.45.34.34,0,0,0,0,.14h0a.47.47,0,0,0,.37.36h.1a.49.49,0,0,0,.49-.46c0-.14,0-.28,0-.42a8.13,8.13,0,0,1,.43-1.83A8.57,8.57,0,0,1,35.38,41h0c.16-.17.31-.32.48-.47l.23-.21a3.47,3.47,0,0,1,.37-.3h0a7.14,7.14,0,0,1,1.07-.68l.24-.13.06,0,.08-.13a.05.05,0,0,1,0,0,3,3,0,0,0,.2-.6Zm8.68,4.2h0A12,12,0,0,0,46,41l0-.06a.41.41,0,0,1,0-.09.24.24,0,0,1-.06-.09,8.85,8.85,0,0,0-1.1-1.34l0,0a3.28,3.28,0,0,0-.34-.31L44.29,39a2.79,2.79,0,0,0,.06.82,1.06,1.06,0,0,1-.1.17s0,0,0,0l-.11.14.16.17c.15.16.29.33.44.52s.24.34.36.52l.08.12.27.46h0a11.62,11.62,0,0,1,.92,2.18c.95,2.94,1.34,7.16.79,13,0,.33-.07.66-.11,1a.57.57,0,0,1,0,.13.49.49,0,1,0,1,.1s0-.05,0-.08c0-.34.07-.68.1-1C48.77,50.41,48.12,45.65,46.79,42.54Z"/><path class="cls-17" d="M29.82,49.18a.34.34,0,0,1,.38-.27.34.34,0,0,1,.27.38S28.92,57.82,33.85,60a.33.33,0,0,1-.26.6C28.17,58.21,29.81,49.21,29.82,49.18Z"/><path class="cls-17" d="M34.24,49.63a.33.33,0,0,1,.36-.29.32.32,0,0,1,.29.36s-1,9.94-6.85,10.24a.32.32,0,0,1-.34-.31.33.33,0,0,1,.31-.35C33.32,59,34.23,49.66,34.24,49.63Z"/><path class="cls-17" d="M47.18,57.12a3.26,3.26,0,1,1-2.32,1l0,0A3.3,3.3,0,0,1,47.18,57.12Z"/><path class="cls-18" d="M48.79,58.77a2.31,2.31,0,0,0-3.21,0l0,0a2.32,2.32,0,0,0-.67,1.62,2.29,2.29,0,0,0,4.57,0A2.32,2.32,0,0,0,48.79,58.77Z"/><path class="cls-19" d="M48,59.56a1.17,1.17,0,0,0-1.64,0h0a1.15,1.15,0,0,0-.35.83,1.17,1.17,0,0,0,2,.83,1.21,1.21,0,0,0,.35-.83A1.19,1.19,0,0,0,48,59.56Z"/><path class="cls-9" d="M30.63,49.23a.48.48,0,0,1-.48.5.49.49,0,0,1-.5-.49,3.55,3.55,0,0,1,1.61-3.3,2.43,2.43,0,0,1,1.33-.32,2.39,2.39,0,0,1,1.29.45,3.74,3.74,0,0,1,1.17,3.65.49.49,0,0,1-.54.43.48.48,0,0,1-.43-.54,2.86,2.86,0,0,0-.78-2.74,1.35,1.35,0,0,0-.76-.27,1.47,1.47,0,0,0-.8.2A2.6,2.6,0,0,0,30.63,49.23Z"/><path class="cls-19" d="M34.53,59.56a1,1,0,0,0-.74-.31,1.07,1.07,0,0,0-.73.3h0a1.06,1.06,0,0,0,0,1.48,1.06,1.06,0,0,0,1.48,0,1,1,0,0,0,0-1.48Z"/><path class="cls-19" d="M29,58.92a1,1,0,0,0-.74-.31,1,1,0,0,0-.73.3h0a1,1,0,0,0-.31.74,1.06,1.06,0,0,0,.31.74,1.06,1.06,0,0,0,1.48,0,1.05,1.05,0,0,0,.3-.74A1,1,0,0,0,29,58.92Z"/><path class="cls-3" d="M66.4,81.85H61.21c.64-3.1,1.22-6.24,1.4-7.87a0,0,0,0,1,0,0,1.79,1.79,0,0,0,0-.23,1.5,1.5,0,0,0,0-.2s0-.1,0-.15a1.82,1.82,0,0,0,0-.32,3.5,3.5,0,0,0-.2-.75,2.85,2.85,0,0,0-.17-.42c-.06-.14-.13-.29-.21-.44-.15-.3-.33-.62-.53-1,0-.08-.09-.15-.14-.23s-.29-.46-.45-.69a.36.36,0,0,0-.07-.1L60.5,69a.24.24,0,0,0-.06-.09c-.17-.24-.35-.49-.54-.74l-.65-.85-.42-.52c-1.13-1.42-2.37-2.85-3.46-4.11l-.15-.17c-.24-.29-.49-.56-.71-.82l-.18-.21-.7-.8-.5-.58h0L53,59.85c-.05-.06-.09-.12-.14-.17-.23-.3-.42-.54-.53-.71l-.09-.14h0q-.11-.16-.21-.36c-.08-.14-.15-.29-.23-.46a2.39,2.39,0,0,1-.13-.28l-.11-.24-.13-.31A12.53,12.53,0,0,1,50.61,54a10.43,10.43,0,0,1,0-1.77,7.63,7.63,0,0,1,2.15-4.88,7.75,7.75,0,0,1,0-1.46c.09-.85.42-1.62,1.44-.95h0l0,0a2.09,2.09,0,0,1,.43.45l.15.19c.15.19.32.43.5.7a.1.1,0,0,0,0,0c3.49,5.17,12.38,22.21,13.31,25.44,0,0,0,0,0,0a1.33,1.33,0,0,1,.07.29C68.87,73.24,67.82,77.41,66.4,81.85Z"/><path class="cls-4" d="M58.36,63.64c-1.12-1.41-2-2.62-2.71-3.64-.52-.74-.94-1.39-1.29-2-.16-.26-.3-.5-.43-.73l-.12-.21c-.44-.76-.72-1.32-.93-1.73h0l-.07-.11c-.29-.54-1-2.92-1.39-3.09a1.24,1.24,0,0,0-.84.05,1.26,1.26,0,0,0-.83,1c.15.59,1.22,3,1.64,3.93l.13.31.11.24a2.39,2.39,0,0,0,.13.28c.08.17.15.32.23.46s.14.25.21.36h0l.09.14c.11.17.3.41.53.71,0,0,.09.11.14.17l.16.18v0h0l.5.58.7.8.18.21c.22.26.47.53.71.82l.15.17c1.09,1.26,2.33,2.69,3.46,4.11l.42.52.65.85c.19.25.37.5.54.74a.24.24,0,0,1,.06.09,5.66,5.66,0,0,1,.37.53.36.36,0,0,1,.07.1q.24.35.45.69c0,.08.1.15.14.23a8.47,8.47,0,0,1,.53,1,3.48,3.48,0,0,1,.21.44,2.85,2.85,0,0,1,.17.42,3.5,3.5,0,0,1,.2.75,1.82,1.82,0,0,1,0,.32c0,.05,0,.1,0,.15a1.5,1.5,0,0,1,0,.2l0,.25a0,0,0,0,1,0,0C62.72,73.71,63.78,70.46,58.36,63.64Zm10.36,8.48c0-.07,0-.17-.07-.29s0,0,0,0-1.32,5.24-2.94,10h.7C67.82,77.41,68.87,73.24,68.72,72.12Z"/><path class="cls-13" d="M42.74,20.12a.48.48,0,0,0-.14.68.5.5,0,0,0,.68.14,3.22,3.22,0,0,1,2.89-.26.5.5,0,0,0,.4-.91A4.25,4.25,0,0,0,42.74,20.12Z"/><path class="cls-13" d="M31,19.82a.49.49,0,0,0-.25.65.48.48,0,0,0,.65.24,3.25,3.25,0,0,1,2.91.19.49.49,0,0,0,.68-.15.5.5,0,0,0-.16-.68A4.24,4.24,0,0,0,31,19.82Z"/><path class="cls-20" d="M42.05,30.17a3.31,3.31,0,1,1-6.62.18h0a.58.58,0,0,1,.56-.59l5.47-.14a.57.57,0,0,1,.59.55Z"/><path class="cls-21" d="M40.89,32.78a3.27,3.27,0,0,1-3.82.34,2.06,2.06,0,0,1,1.86-1.27A2.08,2.08,0,0,1,40.89,32.78Z"/><path class="cls-10" d="M36.17,29.76l5.15-.14a1.17,1.17,0,0,1-.53,1.28c-.46.17-4.19.17-4.46-.11A2.05,2.05,0,0,1,36.17,29.76Z"/><path class="cls-1" d="M5.18,44.65l1-.7a2.29,2.29,0,0,1,1.6-1c1.2-.24-.48-2.67-2-.94C4.09,44.06,5.18,44.65,5.18,44.65Z"/><path class="cls-2" d="M5.18,44.65l1-.7a2.29,2.29,0,0,1,1.6-1,.46.46,0,0,0,.4-.35c-1-.41-2.34.71-3.3,1.69A.7.7,0,0,0,5.18,44.65Z"/></g></g></svg>