<svg xmlns="http://www.w3.org/2000/svg" viewBox="0 0 67.42 81.81"><defs><style>.cls-1{fill:#f4ad85;}.cls-1,.cls-10,.cls-12,.cls-13,.cls-14,.cls-15,.cls-16,.cls-17,.cls-18,.cls-2,.cls-3,.cls-4,.cls-5,.cls-6,.cls-7,.cls-8,.cls-9{fill-rule:evenodd;}.cls-2{fill:#ed9072;}.cls-3{fill:#f2f0f0;}.cls-4{fill:#cecbcb;}.cls-5{fill:#2a999b;}.cls-6{fill:#4fbcbe;}.cls-7{fill:#183257;}.cls-8{fill:#111a39;}.cls-9{fill:#fff;}.cls-10,.cls-11{fill:#231f20;}.cls-12{fill:#e37b64;}.cls-13{fill:#58595b;}.cls-14{fill:#6d6e71;}.cls-15{fill:#414042;}.cls-16{fill:#14274b;}.cls-17{fill:#3a4f77;}.cls-18{fill:#14294c;}</style></defs><title>small_reportРесурс 6</title><g id="Слой_2" data-name="Слой 2"><g id="OBJECTS"><path class="cls-1" d="M12.72,50.71a3.55,3.55,0,0,1-1.58-1.14c-.49-.76-3.53-5.25-4.1-6.25s-.77-4.62.39-5.56,4.3.66,4.93,4.67.49,4.88,1.7,6.15S12.72,50.71,12.72,50.71Z"/><path class="cls-2" d="M12.72,50.71h-.06l0,0h0l-.08,0h0l-.05,0h-.1l0,0h0l0,0h0l0,0h0l0,0h0l0,0h0l0,0h0l0,0h0l0,0h0l0,0,0,0,0,0,0,0h0l0,0h0l0,0,0,0h0l0,0h0l0,0,0,0h0l0,0,0,0,0,0h0l0,0h0l0,0h0l0,0h0l0,0,0,0h0l0,0,0,0h0l0,0h0l0,0h0l0,0,0,0h0l0,0h0l0,0h0l0,0h0l0,0h0c-.49-.77-3.53-5.25-4.1-6.25s-.77-4.62.39-5.56c.57-.47,1.63-.31,2.63.45h0c-.73.61-2.68,2.49-1.93,4.35a4,4,0,0,0,4.63,2.56v.16l0,.09h0v.22h0v.3h0v.19h0v.07h0v.18h0v.07h0v.17h0l0,0v.11h0v0h0v.08l0,.07h0l0,0v0l0,.06h0l0,0h0l0,0v0l0,0,0,.07v.06h0l0,.05h0l0,.06h0v0l0,0h0l0,.05h0l0,0,0,0h0l0,0h0l0,0h0l0,.06h0l0,0h0l0,0v0l0,0,0,0h0l0,0h0l0,0,0,0h0l0,0h0l0,0v0l0,0,0,0h0l0,0h0l0,0h0l.08.09h0l0,.06h0l.05,0h0l0,.06h0l0,.06h0l0,0h0l0,.06h0a.49.49,0,0,1,0,.11h0l0,0v.06h0v0h0v.05h0v.1h0v0h0l0,0h0v.05h0v0h0l0,.05h0l0,0h0l0,0,0,0h0l0,0,0,.05h0l0,0h0l0,0h0l0,0h0l0,0h0l0,0h0l0,0h0l0,0h0l-.05,0h0l0,0h0l-.05,0h0l-.33.2h0l-.05,0h0l-.1,0h0l-.13.07h0l-.12.05h0l-.24.1h0Z"/><path class="cls-3" d="M37.88,42.21a18.69,18.69,0,0,0-4.37,4.33c-2.17,2.94-5.72,7.39-8.8,11.08-3.32,4-2.76,4.92-5.32.7-2.7-4.44-4.32-8.16-5.3-10-.15-.3-.79-1.7-1.34-1.26a6.19,6.19,0,0,1-1.21.89c-.57.29-1.13,0-1.27.84,0,1.85,1.8,8.43,8.57,18.07,0,0-.73-.89.13.15s3.14,1.31,4,.41l.1-.07c2.68-2.58,8.33-7.1,11.84-11.43,3.37-4.17,4.62-8.15,6.06-11.1h0l.08-.16,0-.06,0-.1h0l.05-.1,0-.06,0,0h0a5.65,5.65,0,0,0,.52-1.57l-1.09,1.22Z"/><path class="cls-4" d="M37.88,42.21a18.69,18.69,0,0,0-4.37,4.33c-.58.79-1.26,1.68-2,2.64.46,3-.29,8.21-2.63,10.85-2.83,3.19-7,7.32-9.65,4.78s-6.92-12.33-7.44-14.59c-.31-1.35,1-1.95,2.17-2.21-.25-.49-.76-1.36-1.21-1a6.19,6.19,0,0,1-1.21.89c-.57.29-1.13,0-1.27.84,0,1.85,1.8,8.43,8.57,18.07,0,0-.73-.89.13.15s3.14,1.31,4,.41l.1-.07c2.68-2.58,8.33-7.1,11.84-11.43,3.37-4.17,4.62-8.15,6.06-11.1h0l.08-.16,0-.06,0-.1h0l.05-.1,0-.06,0,0h0a5.65,5.65,0,0,0,.52-1.57l-1.09,1.22Z"/><path class="cls-3" d="M67.42,70.57c0,.06,0,.11,0,.16-.16,1.68-4.28,7.29-7.66,11.08H54.33a2.94,2.94,0,0,1,.36-.33l.05,0h0c.19-.2.66-.8,1.27-1.63,1.77-2.45,4.74-6.92,5.43-9.06A5.05,5.05,0,0,0,61.13,68c-.05-.17-.1-.33-.16-.5s-.12-.35-.18-.52c-.12-.33-.26-.67-.4-1-.32-.76-.68-1.55-1.07-2.36-.17-.35-.34-.71-.52-1.07s-.23-.46-.35-.69-.13-.24-.19-.36h0a2.12,2.12,0,0,0-.11-.21L57.52,60h0l-1.08-2c-.09-.17-.17-.33-.26-.48-.58-1.1-1-2-1.25-2.49a.36.36,0,0,1,0-.09h0l-.09-.25c-.67-2.07-1.3-7.24,2.4-10.19.19-.15.38-.29.59-.43,0,0,2.55,1.3,3.25,2.59,0,0,0,0,0,0,.54,1,4.31,13.87,5.77,20.44.13.61.25,1.16.34,1.65s.14.76.18,1.06A5.73,5.73,0,0,1,67.42,70.57Z"/><path class="cls-5" d="M59.76,47.73l-3.7-4.67-.82-.7L47,39.27l-3.8.59h0s-3.79,1.85-4.11,1.83a.35.35,0,0,1-.16-.06l-2.24,6.45s-1.37,9.34-1.56,10-.36,9.6.35,10.88.11,3.28,2.83,4.12,8.54,2.46,12.44-1.67a37.44,37.44,0,0,0,5.7-7.82C57.46,62.18,59.76,47.73,59.76,47.73Z"/><path class="cls-6" d="M37.58,48.83c1.22-.77,1.92-.14,3.25,1.29s2.58,1.29,3.31,1.61.71,13.56-4.08,15.59c-1.77.75-2.87,0-3.56-1.61C35.28,62.88,34.41,50.83,37.58,48.83Z"/><path class="cls-7" d="M44.24,45.14l-.23.4s-3.26,9.84-3.12,17.73,4.11,1.15,4,.48-.78-13.53-.09-18.17C44.85,45.58,44.8,45,44.24,45.14Z"/><path class="cls-8" d="M44.24,45.14l-.23.4s-.12.35-.31,1c.24.17.54.59.53,1.58,0,1.39.09,6.83-3,9.59a37.82,37.82,0,0,0-.36,5.57c.13,7.9,4.11,1.15,4,.48s-.78-13.53-.09-18.17C44.85,45.58,44.8,45,44.24,45.14Z"/><path class="cls-3" d="M33.25,71.92c-.32-3.46-.87-8.33-.86-13.22,0-5.91.89-11.85,4-15.35l0,0A8.9,8.9,0,0,1,39.6,41,9.46,9.46,0,0,1,41,40.57l.4-.09a3.59,3.59,0,0,1,.57-.11l.24,0,.13,0h0l-.12.29h0s-.08.19-.21.56l0,.1c-.16.46-.37,1.07-.58,1.81-.15.53-.3,1.13-.45,1.79s-.33,1.51-.46,2.36c-.1.63-.19,1.29-.26,2l0,.28c0,.18,0,.36,0,.54-.06.71-.09,1.46-.1,2.22a28.34,28.34,0,0,0,.28,4.25q.06.45.15,1c.06.46.14.91.21,1.35a.13.13,0,0,0,0,.06L41,60.28v0c.31,1.54.63,3,1,4.27,0,0,0,0,0,0,.06.26.12.51.19.75s0,.22.08.32a2.5,2.5,0,0,0,.07.26l.28,1,0,.11c.68,2.36,1.26,4,1.45,4.47l.06.17.19,2.36.63,7.73H33.65C33.58,77.65,33.45,74.12,33.25,71.92Z"/><path class="cls-4" d="M40,53.76h0C40,53.6,40,53.67,40,53.76Z"/><path class="cls-4" d="M40,53.76h.08C40.1,54.1,40.05,53.9,40,53.76Z"/><path class="cls-4" d="M45,81.81H38.64c.07-.49.14-1,.21-1.4a46.37,46.37,0,0,0,.57-7,51.83,51.83,0,0,0-.33-5.79,56.88,56.88,0,0,0-1.69-8.45c-.09-.34-.18-.66-.26-1s-.14-.5-.21-.72-.06-.24-.09-.34,0,0,0,0c-.1-.37-.18-.66-.22-.89-.18-.93-.28-1.65-.34-2.17a9.44,9.44,0,0,1-.11-1.13l2-2,.73-.74.27,2.89,0,.59.43.06.33,0c0,.23.11.94.36,2.73q.06.45.15,1c0,.17.06.34.1.52a0,0,0,0,0,0,0c.11.61.25,1.28.4,2h0c.29,1.3.63,2.71,1,4.08v0c.09.36.19.72.28,1.07l.44,1.65a.29.29,0,0,1,0,.09c.62,2.28,1.16,4.12,1.31,4.67l.06.17.2,2.36Z"/><path class="cls-3" d="M59.28,58.06c-.21.73-.43,1.46-.65,2.19l-.27.88a3,3,0,0,1-.1.32h0l-.24.8c-.09.27-.17.54-.25.8-.13.43-.26.84-.39,1.25s-.25.81-.38,1.19l-.35,1.13c-.87,2.76-.95,7.55-.64,13.17,0,.66.07,1.33.11,2H40.7c.16-3.3.32-5.71.4-6.61l.12-1.4c.2-2.42.35-4.7.53-6.88l.06-.73,0-.37c0-.07,0-.14,0-.21s0-.4,0-.59l0-.28h0a.41.41,0,0,1,0-.11c0-.18,0-.37,0-.55s0-.55.08-.82c.08-.73.17-1.46.26-2.17,0-.36.1-.71.16-1.06q.16-1.12.39-2.22c.06-.25.11-.51.17-.76s.1-.48.16-.72.11-.47.16-.7c.1-.41.21-.82.32-1.21,0-.19.1-.37.16-.56.16-.5.32-1,.51-1.48v0a5.17,5.17,0,0,1,.18-.51,33.43,33.43,0,0,1,3-6,39.35,39.35,0,0,1,3.32-4.52c.13-.16.27-.33.42-.49s0,0,.06-.08l.21,0,.15,0a11.72,11.72,0,0,1,1.54.48,34.7,34.7,0,0,1,3.86,1.76,8.86,8.86,0,0,1,4,3.56,3.28,3.28,0,0,1,.32,1C61.61,49.36,60.57,53.6,59.28,58.06Z"/><path class="cls-4" d="M58.63,60.25l-.27.88-.09.32h0l-.24.8c-.09.27-.17.54-.25.8-.13.43-.26.84-.39,1.25s-.25.81-.38,1.19l-.35,1.13c-.87,2.76-.95,7.55-.64,13.17,0,.66.07,1.33.11,2h-2.4c-.12-2-.26-3.65-.43-4.88a44.92,44.92,0,0,1-.21-8.18c.1-1.82.28-3.62.48-5.33,0-.36.09-.72.14-1.07.08-.59.16-1.15.24-1.7v0c0-.13.05-.25.07-.38v0c.09-.6.18-1.18.28-1.72.06-.38.12-.73.18-1.07.17-.92.32-1.72.46-2.37.22-1.14.38-1.8.38-1.8l1.62,1.37.65,3a.93.93,0,0,0,.22,1C58.21,59.07,58.93,59.27,58.63,60.25Z"/><path class="cls-2" d="M50.05,31.51,50,33.76v5.29a1.94,1.94,0,0,0,.87,1.25c-.82.9-2.86,3-4.14,3.18a6.27,6.27,0,0,1-4-.88c-.33-.28-.36-1.75-.56-2.57.16,0,0,0,.14-.05a2.48,2.48,0,0,0,1-.58c.77-.84.73-4.57,0-5.55S50.05,31.51,50.05,31.51Z"/><path class="cls-5" d="M43.92,42.45l.92-.5S44.92,43,45,43s.26-.65.66-.89,1.47,1.21,1.47,1.21-.4,1.14-1,1.23-2.3.27-2.33-.25S43.92,42.45,43.92,42.45Z"/><path class="cls-8" d="M45.11,43.68a3.6,3.6,0,0,0,1.5-.5.94.94,0,0,1,1.19.11l-.66.75,0,.32a2.36,2.36,0,0,0-1.6.28C44.86,45.09,45.11,43.68,45.11,43.68Z"/><path class="cls-9" d="M42.23,40.6S37.81,51.36,42.29,66v1.11A83.44,83.44,0,0,1,36.8,54.74s-.16-.52.21-.76a4.43,4.43,0,0,1,1.56-.76c.42,0-.22-.55-1.88.16a.75.75,0,0,1-.52-.46c-.12-.37.38-6.56,4.78-12.34,0,0,.07-.16.4-.26S42.33,40.05,42.23,40.6Z"/><path class="cls-6" d="M50.41,39.23a6.12,6.12,0,0,1-4.25,2.63.81.81,0,0,0-.66.75c0,.63,1.82,2.32,2,3.23S51.37,42,51.6,40.52C51.6,40.52,51,39.39,50.41,39.23Z"/><path class="cls-7" d="M43.82,43.74a1.31,1.31,0,0,1,.64-.28,1.77,1.77,0,0,1,1,.2,2,2,0,0,1,.5.78,4,4,0,0,1-1.13,1.14c-.27.14-.55-.08-.84,0S43.64,44,43.82,43.74Z"/><path class="cls-8" d="M45.17,43.51a.64.64,0,0,1,.31.15,2,2,0,0,1,.5.78,4,4,0,0,1-1.13,1.14c-.27.14-.55-.08-.84,0-.07,0-.13-.09-.18-.23C45.89,45,45.31,43.76,45.17,43.51Z"/><path class="cls-9" d="M51.31,40.78s-8.79,6.16-9.59,27.42c0,0,0,.44.18.47s4.2-11.35,6.76-13.37a.68.68,0,0,0,.24-.76,6.15,6.15,0,0,0-2-1.65c-.57-.32,1.62,0,2.42.44s1.31,0,1.83-.79-.17-9.79,2-11.2a.23.23,0,0,0,0-.24,9.3,9.3,0,0,0-1.38-.46A.58.58,0,0,0,51.31,40.78Z"/><path class="cls-6" d="M43.11,39.15a3.07,3.07,0,0,0,1.53,2.54.34.34,0,0,1,.08.57,8.47,8.47,0,0,0-1,2.45c-.14.65-1.95-2.63-1.82-4.65A3.42,3.42,0,0,1,43.11,39.15Z"/><path class="cls-4" d="M54.74,81.44l-.05,0a2.94,2.94,0,0,0-.36.33h.5C54.8,81.68,54.77,81.55,54.74,81.44ZM67.36,69.85c0-.3-.11-.66-.18-1.06s-.21-1-.34-1.65c.67,4.69-5.32,11.69-8.67,14.67h1.58c3.38-3.79,7.5-9.4,7.66-11.08,0,0,0-.1,0-.16A5.73,5.73,0,0,0,67.36,69.85ZM59.28,58.06c-.31-.78-.63-1.51-.93-2.2v0C57.1,53.1,56,51.17,55.8,51.33c-.42.42-.87,3.38-.91,3.61h0a.36.36,0,0,0,0,.09c.21.51.67,1.39,1.25,2.49.09.15.17.31.26.48l1.08,2h0l.63,1.22a2.12,2.12,0,0,1,.11.21h0c0,.12.12.24.18.37s.24.46.35.69.35.72.52,1.07c.39.81.75,1.6,1.07,2.36.14.35.28.69.4,1,.06.17.13.35.18.52s.12.34.16.5a5.05,5.05,0,0,1,.31,2.76C62.59,67.87,61.05,62.45,59.28,58.06Z"/><path class="cls-10" d="M9.6,42.93S.29,16.47.09,14.93c0,0-.38-1.18.43-1.17s9.59,23.77,10.94,27.36S10.25,45,9.6,42.93Z"/><path class="cls-1" d="M7.54,38.6l.14-1s1.17-.78,1.56.11,1.87,3.87,1.33,4.52-3.07.22-3.27-.45A13.39,13.39,0,0,1,7.54,38.6Z"/><path class="cls-2" d="M7.54,38.6l.14-1a2,2,0,0,1,1.56.11c.08.2.23.51.39.88-.81.78-2,2.24-1.58,3.73a1.18,1.18,0,0,1-.75-.54A13.39,13.39,0,0,1,7.54,38.6Z"/><rect class="cls-11" x="33.91" y="18.69" width="1.96" height="4.72" transform="translate(-3.63 7.75) rotate(-12.06)"/><path class="cls-12" d="M35.31,29.06A3.28,3.28,0,1,0,32,25.78,3.29,3.29,0,0,0,35.31,29.06Z"/><path class="cls-12" d="M57.78,29.06a3.28,3.28,0,1,0-3.28-3.28A3.29,3.29,0,0,0,57.78,29.06Z"/><path class="cls-1" d="M45.79,5.9h0A11.27,11.27,0,0,1,57,17.14V27.36A11.26,11.26,0,0,1,45.79,38.59h0A11.27,11.27,0,0,1,34.55,27.36V17.14A11.28,11.28,0,0,1,45.79,5.9Z"/><path class="cls-2" d="M50.38,6.89A11.27,11.27,0,0,1,57,17.14V27.36A11.26,11.26,0,0,1,45.79,38.59h0a11,11,0,0,1-4-.75C52.75,37.93,54,30.14,54,24.2c0-6.57-2.07-8.31-4.39-8.31H41.06S39.5,9,48.42,7.22C49.12,7.08,49.77,7,50.38,6.89Z"/><path class="cls-10" d="M51.32,10.38l-1.76,2a6.56,6.56,0,0,0-4.37-.31c-2.14.72,2.83-3.52,3.08-3.52A31.55,31.55,0,0,1,51.32,10.38Z"/><path class="cls-13" d="M55.77,16.51V20c0,1.36.24,1.76.92,2.26,0,0-.41,1.31.34,1.62,0,0,0-1.59,2-1.09,0,0,6.3-18.86-9.13-18.86,0,0-3-3.89-9.87-3.89-8.52,0-7,9-7,14.61,0,2.48.45,4.54-1.18,4.7,0,0,1.05.16,2.55.26,9.11.61,8.37-2.05,12.15-8.41,1.29-2.16,2.64-1.88,3,1.24C49.56,12.4,55.75,12.4,55.77,16.51Z"/><path class="cls-14" d="M48.94,2.92a11,11,0,0,0-1.4-1C46.17,8.94,37.3,8.83,33,8.34c-.07,1.8,0,3.65.06,5.29C43.75,13.7,47.66,6.47,48.94,2.92Z"/><path class="cls-15" d="M60.31,13.87a.86.86,0,0,0,0-.16c0-.14,0-.28,0-.42s0-.11,0-.17l0-.32v0l-.06-.45,0-.21s0-.06,0-.09-.05-.25-.07-.38-.05-.27-.08-.4a1.16,1.16,0,0,0,0-.18,2.86,2.86,0,0,0-.07-.28l-.06-.22c0-.14-.08-.29-.13-.43s-.11-.33-.17-.49-.09-.24-.14-.36a1.54,1.54,0,0,0-.08-.19,1.11,1.11,0,0,0-.07-.16s0,0,0,0l-.06-.12h0l-.06-.1a3.75,3.75,0,0,0-.24-.44s0,0,0,0A1.18,1.18,0,0,0,58.73,8h0L58.6,7.8A8.14,8.14,0,0,0,58,7a5.72,5.72,0,0,1-2.88,3.88h0a13.17,13.17,0,0,1-5.53,1.54h.27l.3,0,.63.06h.07l.42.07a1.59,1.59,0,0,1,.3.06l.52.11h0l.53.16.27.09.36.14.35.17a2.21,2.21,0,0,1,.34.18l.25.16a3.86,3.86,0,0,1,.66.55,1.9,1.9,0,0,1,.19.21,4,4,0,0,1,.33.47h0a2.83,2.83,0,0,1,.23.53,1.68,1.68,0,0,1,.09.32l0,.14a.68.68,0,0,1,0,.14.59.59,0,0,1,0,.13c0,.12,0,.24,0,.37v2.8L57,18.54a31.72,31.72,0,0,0,3.25-2.31A20.56,20.56,0,0,0,60.31,13.87ZM48.42,9.79a1.77,1.77,0,0,0-.76-.19c-1.06,0-1.88,1.16-3,2.52A11.67,11.67,0,0,1,41,15.4a7.89,7.89,0,0,1-2,.73,26.79,26.79,0,0,1-4.48.6l-1.43.07h0c0,.33,0,.64,0,.92s0,.27-.05.39a1.79,1.79,0,0,1-.09.35,1.09,1.09,0,0,1-.1.25,1,1,0,0,1-.11.17.88.88,0,0,1-.22.21,1,1,0,0,1-.28.14,1.21,1.21,0,0,1-.35.07s.65.11,1.66.2l.89.07h.1l1,.05c.64,0,1.23,0,1.76,0h.4l.53,0a3.71,3.71,0,0,0,.48-.05h.13l.52-.08.33-.07.39-.09a1.7,1.7,0,0,0,.32-.1l.07,0a1.09,1.09,0,0,0,.23-.09,1.75,1.75,0,0,0,.32-.12l.24-.12a3.07,3.07,0,0,0,.31-.17,3.44,3.44,0,0,0,.55-.39l.25-.21h0a6.14,6.14,0,0,0,.43-.45s0,0,0,0a4.47,4.47,0,0,0,.32-.41A11.59,11.59,0,0,0,44,15.89c.62-1.09,1.25-2.43,2.16-4l.41-.7a5,5,0,0,1,.41-.61l.21-.24a2.84,2.84,0,0,1,.26-.24,1.59,1.59,0,0,1,.25-.17A.82.82,0,0,1,48,9.8a0,0,0,0,1,0,0,.83.83,0,0,1,.22,0h.12l.08,0h0A0,0,0,0,1,48.42,9.79Z"/><path class="cls-10" d="M55.77,16.51V20c0,1.36.24,1.76.92,2.26,0,0-.41,1.31.34,1.62,0,0,0-1.59,2-1.09,0,0,3.07-9.2-.34-14.75.06.22,1.4,6.1-3,7.74A3.07,3.07,0,0,1,55.77,16.51Z"/><rect class="cls-11" x="37.55" y="23.55" width="2.2" height="3.64" rx="1.1" ry="1.1"/><path class="cls-10" d="M50.43,23.55h0a1.1,1.1,0,0,1,1.1,1.1v1.44a1.1,1.1,0,0,1-1.1,1.1h0a1.11,1.11,0,0,1-1.1-1.1V24.65A1.11,1.11,0,0,1,50.43,23.55Z"/><rect class="cls-11" x="36.49" y="20.8" width="4.3" height="1.2" rx="0.6" ry="0.6"/><rect class="cls-11" x="48.28" y="20.8" width="4.31" height="1.2" rx="0.6" ry="0.6"/><path class="cls-9" d="M48,29.81a3.58,3.58,0,0,1-7.15,0h0a.62.62,0,0,1,.62-.62h5.9a.62.62,0,0,1,.62.62Z"/><path class="cls-12" d="M37.93,31.15a1.63,1.63,0,1,0-1.63-1.63A1.63,1.63,0,0,0,37.93,31.15Z"/><path class="cls-12" d="M51.92,31.15a1.63,1.63,0,1,0-1.63-1.63A1.63,1.63,0,0,0,51.92,31.15Z"/><path class="cls-8" d="M43.79,37.79c-.24.09-.57.23-.76.32l-.17.09A9.1,9.1,0,0,0,39.6,41a4.41,4.41,0,0,0-.42.64,9.49,9.49,0,0,0-.54,1c-.11.24-.21.49-.3.74a9.12,9.12,0,0,0-.48,2.08,3.12,3.12,0,0,0,0,.44.28.28,0,0,0,0,.09h0a.48.48,0,0,0,.43.42h0a.5.5,0,0,0,.5-.46c0-.14,0-.28,0-.42a8,8,0,0,1,.66-2.39A8.58,8.58,0,0,1,40.89,41a5.5,5.5,0,0,1,.47-.49,2.55,2.55,0,0,1,.24-.23h0a4.35,4.35,0,0,1,.67-.55,6,6,0,0,1,.82-.52l.36-.19,0,0,0-.06a2.44,2.44,0,0,0,.22-.5h0a4.93,4.93,0,0,0,.13-.65Zm8.65,4.56a11.08,11.08,0,0,0-.65-1.29l-.12-.2c0-.06-.07-.12-.11-.17l0,0a8.69,8.69,0,0,0-1.15-1.41h0l0,0c-.14-.13-.27-.26-.41-.37A1,1,0,0,0,50,39a.86.86,0,0,0,0,.16,2.6,2.6,0,0,0,.06.48,2,2,0,0,1-.2.3l0,0a5.56,5.56,0,0,1,.39.44h0l.23.28.35.5.07.11.24.43a11.39,11.39,0,0,1,.9,2.07h0c1,2.94,1.39,7.2.83,13.11,0,.33-.07.66-.11,1a.57.57,0,0,1,0,.13.49.49,0,0,0,.43.54.5.5,0,0,0,.55-.44s0-.05,0-.08c0-.34.07-.68.1-1C54.43,50.23,53.78,45.47,52.44,42.35Z"/><path class="cls-16" d="M35.48,49a.33.33,0,1,1,.65.11s-1.55,8.52,3.39,10.72a.33.33,0,0,1,.16.44.32.32,0,0,1-.43.16C33.84,58.06,35.48,49.07,35.48,49Z"/><path class="cls-16" d="M39.91,49.48a.31.31,0,0,1,.35-.29.33.33,0,0,1,.3.36s-1,10-6.85,10.24a.33.33,0,1,1,0-.65C39,58.87,39.9,49.51,39.91,49.48Z"/><path class="cls-16" d="M52.84,57a3.27,3.27,0,0,1,2.31,1,3.27,3.27,0,0,1,0,4.63,3.27,3.27,0,0,1-4.62-4.63l0,0A3.24,3.24,0,0,1,52.84,57Z"/><path class="cls-17" d="M54.46,58.63A2.32,2.32,0,0,0,52.84,58a2.27,2.27,0,0,0-1.59.65l0,0a2.23,2.23,0,0,0-.67,1.61,2.29,2.29,0,0,0,2.28,2.29,2.27,2.27,0,0,0,2.28-2.29A2.27,2.27,0,0,0,54.46,58.63Z"/><path class="cls-18" d="M53.67,59.42a1.13,1.13,0,0,0-.83-.35,1.21,1.21,0,0,0-.82.33v0a1.17,1.17,0,0,0,0,1.65,1.2,1.2,0,0,0,.83.34,1.17,1.17,0,0,0,.83-2Z"/><path class="cls-8" d="M36.3,49.09a.49.49,0,1,1-1,0,3.54,3.54,0,0,1,1.61-3.31,2.48,2.48,0,0,1,1.32-.32,2.33,2.33,0,0,1,1.3.46c.82.6,1.38,1.81,1.17,3.64a.49.49,0,1,1-1-.11A2.83,2.83,0,0,0,39,46.72a1.32,1.32,0,0,0-.75-.27,1.54,1.54,0,0,0-.8.2A2.61,2.61,0,0,0,36.3,49.09Z"/><path class="cls-18" d="M40.19,59.41a1.05,1.05,0,0,0-1.46,0h0a1.05,1.05,0,0,0,.74,1.79,1,1,0,0,0,.73-.31,1,1,0,0,0,0-1.48Z"/><path class="cls-18" d="M34.67,58.77a1,1,0,0,0-.73-.3,1,1,0,0,0-.73.29h0a1,1,0,0,0,.74,1.78,1,1,0,0,0,.73-.3,1,1,0,0,0,0-1.48Z"/></g></g></svg>