<svg xmlns="http://www.w3.org/2000/svg" viewBox="0 0 103.52 85.78"><defs><style>.cls-1,.cls-12{fill:#f4ad85;}.cls-1,.cls-11,.cls-13,.cls-14,.cls-15,.cls-16,.cls-18,.cls-19,.cls-2,.cls-20,.cls-21,.cls-22,.cls-23,.cls-24,.cls-3,.cls-4,.cls-5,.cls-6,.cls-7,.cls-8,.cls-9{fill-rule:evenodd;}.cls-2{fill:#ed9072;}.cls-3{fill:#f2f0f0;}.cls-4{fill:#cecbcb;}.cls-5{fill:#2a999b;}.cls-6{fill:#4fbcbe;}.cls-7{fill:#183257;}.cls-8{fill:#111a39;}.cls-9{fill:#fff;}.cls-10,.cls-13{fill:#231f20;}.cls-11,.cls-17{fill:#e37b64;}.cls-14{fill:#58595b;}.cls-15{fill:#6d6e71;}.cls-16{fill:#414042;}.cls-18{fill:#14274b;}.cls-19{fill:#3a4f77;}.cls-20{fill:#14294c;}.cls-21{fill:#3f6981;}.cls-22{fill:#dedada;}.cls-23{fill:#b6b4b2;}.cls-24{fill:#698fb1;}.cls-25{fill:#8bacce;}</style></defs><title>speechРесурс 4</title><g id="Слой_2" data-name="Слой 2"><g id="OBJECTS"><path class="cls-1" d="M26.28,49.67a3.56,3.56,0,0,1-1.43-1.33c-.39-.81-2.84-5.65-3.29-6.71s-.18-4.68,1.08-5.47S26.82,37.35,27,41.4s-.13,4.91.91,6.32S26.28,49.67,26.28,49.67Z"/><path class="cls-2" d="M26.28,49.67h0l0,0h0l0,0h0l-.07,0h0l0,0h0l0,0h0l0,0h0l0,0h0l0,0h0l0,0h0l0,0h0l0,0h0l0,0h0l0,0h0l0,0h0l0,0h0l0,0h0l0,0,0,0,0,0,0,0h0l0,0h0l0,0,0,0h0l0,0h0l0,0,0,0h0l0,0,0,0,0,0h0l0,0h0l0,0h0l0,0h0l0,0,0,0h0l0,0,0,0h0l0,0h0l0,0h0l0,0,0,0h0l0,0h0l0,0h0l0,0h0l0,0h0c-.39-.81-2.84-5.64-3.29-6.7s-.18-4.68,1.08-5.47c.63-.39,1.66-.11,2.55.77h0c-.79.52-3,2.14-2.45,4.08A4,4,0,0,0,27,44.12v.25h0v.22h0v.3h0v.28h0v.18h0v.25h0v.16h0v.06h0V46h0v.08l0,0v0h0v0h0v.33h0l0,.06h0v0l0,0h0l0,0h0v0l0,0v0l0,0h0l0,0v0l0,.06h0l0,0h0l0,0v.05l0,0h0l0,0h0l0,0,0,0v0l0,0h0l0,0v0l0,0,0,0h0l0,0v0l0,0h0l.07.1h0l.05.06h0l.05.06h0l0,.07h0L28,48h0l0,.06h0l0,.06h0l0,.11h0v.11h0v.06h0v.05h0v.1h0v0h0l0,0h0l0,0h0l0,0h0l0,0h0l0,0h0l0,0,0,0h0l0,0,0,0h0l0,0h0l0,0h0l0,0h0l-.05,0h0l0,0h0l-.05,0h0l0,0h0l-.05,0h0l-.05,0h0l0,0h0a3.82,3.82,0,0,1-.36.17h0l-.05,0h0l-.1,0h0l-.14,0h0l-.13,0h0l-.25.06h0Z"/><path class="cls-3" d="M52.36,42.21A18.69,18.69,0,0,0,48,46.54c-2.17,2.94-5.72,7.39-8.8,11.08-3.32,4-2.76,4.92-5.32.7-2.7-4.44-4.33-8.16-5.3-10-.15-.3-.79-1.7-1.34-1.26A6.19,6.19,0,0,1,26,47.9c-.57.29-1.13,0-1.27.84,0,1.85,1.8,8.43,8.57,18.07,0,0-.72-.89.13.15s3.14,1.31,4,.41l.1-.07c2.68-2.58,8.33-7.1,11.84-11.43,3.37-4.17,4.62-8.15,6.06-11.1h0l.08-.16,0-.06.05-.1h0l0-.1,0-.06,0,0h0a5.65,5.65,0,0,0,.52-1.57l-1.1,1.22Z"/><path class="cls-4" d="M52.36,42.21A18.69,18.69,0,0,0,48,46.54c-.58.79-1.26,1.68-2,2.64.46,3-.29,8.21-2.63,10.84-2.83,3.2-7,7.33-9.65,4.79s-6.92-12.33-7.44-14.59c-.31-1.35,1-1.95,2.17-2.21-.25-.49-.76-1.36-1.21-1A6.19,6.19,0,0,1,26,47.9c-.57.29-1.13,0-1.27.84,0,1.85,1.8,8.43,8.57,18.07,0,0-.72-.89.13.15s3.14,1.31,4,.41l.1-.07c2.68-2.58,8.33-7.1,11.84-11.43,3.37-4.17,4.62-8.15,6.06-11.1h0l.08-.16,0-.06.05-.1h0l0-.1,0-.06,0,0h0a5.65,5.65,0,0,0,.52-1.57l-1.1,1.22Z"/><path class="cls-5" d="M74.24,47.73l-3.7-4.67-.82-.7-8.21-3.09-3.8.59h0s-3.79,1.85-4.11,1.83a.35.35,0,0,1-.16-.06L51.2,48.08s-1.37,9.34-1.56,10-.36,9.6.35,10.88.11,3.28,2.83,4.12,8.54,2.46,12.44-1.67A37.44,37.44,0,0,0,71,63.57C71.94,62.18,74.24,47.73,74.24,47.73Z"/><path class="cls-6" d="M52.06,48.83c1.22-.77,1.92-.14,3.25,1.29s2.58,1.29,3.31,1.61.71,13.56-4.08,15.59c-1.77.75-2.87,0-3.56-1.61C49.76,62.88,48.89,50.83,52.06,48.83Z"/><path class="cls-7" d="M58.72,45.14l-.23.4s-3.26,9.84-3.12,17.73,4.11,1.15,4.05.48-.78-13.53-.09-18.16C59.33,45.59,59.28,45,58.72,45.14Z"/><path class="cls-8" d="M58.72,45.14l-.23.4s-.12.35-.31,1c.24.17.53.59.53,1.58,0,1.39.09,6.83-3,9.59a37.82,37.82,0,0,0-.36,5.57c.13,7.9,4.11,1.15,4.05.48s-.78-13.53-.09-18.16C59.33,45.59,59.28,45,58.72,45.14Z"/><path class="cls-3" d="M59.27,80.05l.43,5.22H48.18c0-2.21-.06-4.3-.11-6.2,0-.69,0-1.35,0-2-.06-1.51-.12-2.84-.2-4,0-.43-.06-.83-.09-1.2-.09-1-.2-2.06-.3-3.23-.21-2.18-.41-4.65-.5-7.19,0-.94-.06-1.88,0-2.82,0-5.91.89-11.83,4-15.33l0,0a9,9,0,0,1,3.13-2.27,10.86,10.86,0,0,1,1.36-.47c.14,0,.27-.07.41-.09a3.59,3.59,0,0,1,.57-.11,1,1,0,0,1,.25,0h.16s0,.08-.1.24,0,0,0,0v0l0,.08a0,0,0,0,1,0,0,1.43,1.43,0,0,0-.08.22l-.09.23c-.16.47-.38,1.11-.61,1.91-.15.54-.31,1.14-.46,1.81s-.32,1.5-.45,2.34c-.1.62-.19,1.28-.26,2l0,.28c0,.17,0,.35,0,.53-.06.72-.09,1.46-.1,2.23a28.42,28.42,0,0,0,.28,4.25q.06.45.15,1c.06.44.13.88.2,1.31,0,0,0,.07,0,.1.09.49.18,1,.27,1.45,0,0,0,0,0,0,.31,1.54.63,3,1,4.27,0,0,0,0,0,0,.06.26.13.51.19.76s.08.29.11.43h0l0,.14c.1.36.19.69.29,1l0,.1c.67,2.36,1.25,4,1.44,4.47l.06.17.09,1.06h0l.1,1.29Z"/><path class="cls-4" d="M54.49,53.76h0C54.45,53.61,54.46,53.67,54.49,53.76Z"/><path class="cls-4" d="M54.49,53.76h.08C54.59,54.11,54.53,53.89,54.49,53.76Z"/><path class="cls-4" d="M59.74,85.27H52.69c.18-1.64.38-3.14.58-4.45l.06-.4a46.44,46.44,0,0,0,.5-4.67c0-.8.07-1.6.07-2.37,0-1.32,0-2.58-.14-3.79,0-.69-.12-1.35-.19-2-.22-1.82-.51-3.48-.83-4.94s-.59-2.52-.86-3.5l-.26-1c-.08-.26-.14-.5-.2-.72s-.07-.23-.1-.34c-.1-.37-.18-.68-.22-.91-.18-.93-.28-1.64-.34-2.16a9.44,9.44,0,0,1-.11-1.13l2-2,.72-.73.27,2.9.05.59.42.06.33,0c0,.22.11.91.37,2.73q.06.45.15,1c0,.17.06.34.1.52v0c.12.62.26,1.29.42,2h0c.29,1.31.63,2.71,1,4.07v0c.09.36.19.72.28,1.07L57,66c.07.26.14.51.2.76a.29.29,0,0,1,0,.09c.62,2.28,1.16,4.11,1.31,4.66l.06.17.09,1.06h0l.11,1.29.51,6Z"/><path class="cls-3" d="M75.18,52.73c-.13.57-.28,1.16-.44,1.77,0,0,0,.1,0,.16-.21.81-.44,1.64-.67,2.49l-.3,1c-.15.53-.3,1-.43,1.48-.23.77-.47,1.55-.7,2.3l-.06.18c-.06.22-.13.44-.2.65-.29.95-.58,1.87-.86,2.74l-.35,1.13c-.78,2.49-.93,6.63-.72,11.55.09,2.23.26,4.61.47,7.08,0,.17,0,.34,0,.51l-.17-.51H55c0-1.1.08-2.14.12-3.11.1-2.09.2-3.85.29-5.12,0-.84.1-1.47.13-1.84l.12-1.4c.1-1.26.2-2.49.28-3.69s.16-2.15.25-3.18l.06-.75,0-.36,0-.33c0-.06,0-.12,0-.17l.06-.58a.49.49,0,0,1,0-.12c0-.18,0-.37,0-.55v0c0-.27,0-.54.08-.8.08-.73.17-1.45.26-2.16,0-.36.1-.72.16-1.07.11-.68.23-1.33.35-2s.25-1.21.39-1.81.31-1.28.47-1.88l.21-.71c.14-.44.29-.87.44-1.3.06-.17.12-.34.19-.51a32.06,32.06,0,0,1,3-6h0a39.14,39.14,0,0,1,3.31-4.51l.43-.5s0,0,.06-.08l.21,0a.35.35,0,0,1,.14,0,11.84,11.84,0,0,1,1.55.48,35.88,35.88,0,0,1,3.86,1.77l.3.16c.13.06.25.14.38.21h0c.23.13.45.27.67.42l0,0,.65.47c.21.17.4.34.59.51l0,0c.1.1.2.19.3.3a4.49,4.49,0,0,1,1.29,2.39A16.77,16.77,0,0,1,75.18,52.73Z"/><path class="cls-4" d="M74.74,54.5s0,.1,0,.16c-.18.66-.43,1.55-.69,2.47l-.28,1c-.15.53-.3,1-.43,1.48-.06.22-.12.43-.18.62-.17.57-.35,1.13-.52,1.68l-.06.18c-.06.22-.13.44-.2.65-.29.95-.58,1.87-.86,2.74l-.35,1.13c-.78,2.49-.93,6.63-.72,11.55.09,2.23.26,4.61.47,7.08,0,.17,0,.34,0,.51l-.17-.51H68.37c0-1-.08-2-.13-2.85-.12-2.24-.28-4.12-.47-5.48-.06-.45-.11-.91-.15-1.39a47.19,47.19,0,0,1,0-6.92h0c.12-1.75.31-3.53.55-5.23,0-.38.1-.75.16-1.12.18-1.27.38-2.48.58-3.61.07-.38.14-.75.2-1.11.53-2.81,1-4.92,1.21-5.68h0l.06-.27a0,0,0,0,1,0,0l2.88,1.62Z"/><path class="cls-2" d="M64.53,31.52l-.1,2.24v5.29a1.94,1.94,0,0,0,.87,1.25c-.83.89-2.86,3-4.14,3.18a6.21,6.21,0,0,1-4-.88c-.33-.28-.36-1.75-.55-2.57.15,0,0,0,.13-.05a2.48,2.48,0,0,0,1-.58c.77-.84.73-4.57,0-5.55S64.53,31.52,64.53,31.52Z"/><path class="cls-5" d="M58.4,42.45l.92-.5s.08,1,.19,1.06.26-.65.66-.89,1.47,1.21,1.47,1.21-.4,1.14-1,1.23-2.3.27-2.33-.25S58.4,42.45,58.4,42.45Z"/><path class="cls-8" d="M59.59,43.68a3.6,3.6,0,0,0,1.5-.5.92.92,0,0,1,1.19.11l-.66.75,0,.32a2.39,2.39,0,0,0-1.61.28C59.34,45.09,59.59,43.68,59.59,43.68Z"/><path class="cls-9" d="M56.71,40.6S52.29,51.36,56.77,66v1.12a84.35,84.35,0,0,1-5.48-12.33s-.16-.52.22-.76a4.31,4.31,0,0,1,1.55-.76c.42,0-.22-.55-1.88.16a.75.75,0,0,1-.52-.46c-.12-.37.38-6.56,4.78-12.34,0,0,.07-.16.4-.25S56.81,40.05,56.71,40.6Z"/><path class="cls-6" d="M64.88,39.23a6.09,6.09,0,0,1-4.24,2.63.81.81,0,0,0-.66.75c0,.63,1.82,2.32,2,3.23s3.88-3.83,4.11-5.32C66.08,40.52,65.47,39.39,64.88,39.23Z"/><path class="cls-7" d="M58.29,43.74a1.36,1.36,0,0,1,.65-.28,1.83,1.83,0,0,1,1,.19,2,2,0,0,1,.5.79,4.19,4.19,0,0,1-1.13,1.15c-.27.13-.55-.09-.84-.05S58.12,44,58.29,43.74Z"/><path class="cls-8" d="M59.65,43.51a.74.74,0,0,1,.31.14,2,2,0,0,1,.5.79,4.19,4.19,0,0,1-1.13,1.15c-.27.13-.55-.09-.84-.05-.07,0-.13-.09-.18-.23C60.37,45,59.79,43.76,59.65,43.51Z"/><path class="cls-9" d="M65.79,40.78S57,46.94,56.2,68.2c0,0,0,.44.18.47s4.2-11.35,6.76-13.37a.68.68,0,0,0,.24-.76,6.15,6.15,0,0,0-2-1.65c-.57-.32,1.62,0,2.42.44s1.31,0,1.83-.79-.17-9.79,2-11.2a.23.23,0,0,0,0-.24,8.93,8.93,0,0,0-1.38-.46A.58.58,0,0,0,65.79,40.78Z"/><path class="cls-6" d="M57.59,39.15a3.07,3.07,0,0,0,1.53,2.54.33.33,0,0,1,.08.57,8.47,8.47,0,0,0-1,2.45c-.14.65-2-2.63-1.82-4.65A3.42,3.42,0,0,1,57.59,39.15Z"/><rect class="cls-10" x="48.39" y="18.69" width="1.96" height="4.72" transform="translate(-3.31 10.77) rotate(-12.05)"/><path class="cls-11" d="M49.79,29.06a3.28,3.28,0,1,0-3.28-3.28A3.29,3.29,0,0,0,49.79,29.06Z"/><path class="cls-11" d="M72.26,29.06A3.28,3.28,0,1,0,69,25.78,3.29,3.29,0,0,0,72.26,29.06Z"/><rect class="cls-12" x="49.04" y="5.9" width="22.48" height="32.69" rx="11.24" ry="11.24"/><path class="cls-2" d="M64.87,6.89a11.26,11.26,0,0,1,6.64,10.25V27.36A11.27,11.27,0,0,1,60.28,38.6h0a11,11,0,0,1-4-.76c11,.09,12.21-7.7,12.21-13.64,0-6.57-2.07-8.31-4.39-8.31H55.54S54,9,62.9,7.22C63.6,7.08,64.25,7,64.87,6.89Z"/><path class="cls-13" d="M65.8,10.38,64,12.4a6.6,6.6,0,0,0-4.37-.32c-2.14.73,2.83-3.51,3.08-3.51A31.55,31.55,0,0,1,65.8,10.38Z"/><path class="cls-14" d="M70.25,16.51V20c0,1.36.25,1.76.92,2.26,0,0-.41,1.31.34,1.62,0,0,0-1.59,2-1.08,0,0,6.3-18.87-9.13-18.87,0,0-3-3.89-9.87-3.89-8.52,0-6.95,9-7,14.61,0,2.48.46,4.54-1.17,4.7,0,0,1,.16,2.55.26,9.11.61,8.37-2.05,12.15-8.41C62.37,9,63.72,9.28,64,12.4,64,12.4,70.23,12.4,70.25,16.51Z"/><path class="cls-15" d="M63.42,2.92a11.77,11.77,0,0,0-1.4-1c-1.37,7-10.24,6.9-14.53,6.42-.07,1.79,0,3.64.06,5.28C58.23,13.7,62.14,6.47,63.42,2.92Z"/><path class="cls-16" d="M74.8,14.17c0-.1,0-.19,0-.29a1,1,0,0,0,0-.17c0-.14,0-.28,0-.42l0-.26c0-.24,0-.47-.08-.71a1.13,1.13,0,0,0,0-.18.77.77,0,0,0,0-.15c0-.14,0-.28-.07-.41s0-.22-.07-.33a1.55,1.55,0,0,0,0-.23,2.68,2.68,0,0,0-.07-.27l0-.13,0-.09a.23.23,0,0,0,0-.11v0a.36.36,0,0,1,0-.11s0,0,0,0l0-.11,0-.07a.14.14,0,0,0,0-.06c0-.05,0-.09,0-.13a2.31,2.31,0,0,1-.1-.28l0-.07-.06-.15c0-.11-.09-.21-.13-.31l-.1-.22-.15-.29a3.9,3.9,0,0,0-.19-.35L73.22,8h0V8l0,0c-.08-.13-.16-.26-.25-.39A6.26,6.26,0,0,0,72.46,7a5.78,5.78,0,0,1-2.88,3.89h0A13.22,13.22,0,0,1,64,12.41h.27l.3,0,.7.07.42.07.31.06.26,0c.17,0,.35.08.53.14a8.77,8.77,0,0,1,.94.33l.23.11a5.27,5.27,0,0,1,1,.59l.16.14.22.22a1,1,0,0,1,.17.19,1.88,1.88,0,0,1,.18.24,2.22,2.22,0,0,1,.28.5,3.7,3.7,0,0,1,.19.59h0v0a.58.58,0,0,1,0,.19.13.13,0,0,1,0,.06.5.5,0,0,1,0,.12c0,.12,0,.24,0,.37v2.81l1.26-.77a30.66,30.66,0,0,0,3.25-2.31C74.8,15.57,74.82,14.87,74.8,14.17ZM62.14,9.61c-1.07,0-1.88,1.16-3,2.52a11.78,11.78,0,0,1-3.69,3.28,7.89,7.89,0,0,1-1.95.73,26.79,26.79,0,0,1-4.48.6l-1.43.07h0c0,.33,0,.63,0,.91s0,.28,0,.41,0,0,0,0a1,1,0,0,1-.08.31.81.81,0,0,1-.11.27l-.1.16a.85.85,0,0,1-.22.2,1.06,1.06,0,0,1-.28.15,1.67,1.67,0,0,1-.35.07l.29,0,.16,0L48,19.5l.89.07H49l1,.06c.65,0,1.25,0,1.79,0h.34l.56,0,.68-.07h0l.6-.1.49-.11a4.91,4.91,0,0,0,.58-.18l.47-.19a4.83,4.83,0,0,0,1.22-.79,3.45,3.45,0,0,0,.28-.26,6.06,6.06,0,0,0,.6-.71,4,4,0,0,0,.28-.4c.09-.13.18-.28.27-.43l.27-.46c.62-1.09,1.26-2.43,2.16-4l.41-.7c.07-.12.14-.22.21-.32a4.09,4.09,0,0,1,.42-.53c.43-.46.85-.64,1.21-.51A1.74,1.74,0,0,0,62.14,9.61Z"/><path class="cls-13" d="M70.25,16.51V20c0,1.36.25,1.76.92,2.26,0,0-.41,1.31.34,1.62,0,0,0-1.59,2-1.08,0,0,3.07-9.21-.34-14.76.06.22,1.4,6.1-3,7.74A3.13,3.13,0,0,1,70.25,16.51Z"/><rect class="cls-10" x="50.97" y="20.8" width="4.3" height="1.2" rx="0.6" ry="0.6"/><rect class="cls-10" x="62.76" y="20.8" width="4.3" height="1.2" rx="0.6" ry="0.6"/><path class="cls-9" d="M62.51,29.81a3.58,3.58,0,0,1-7.15,0h0a.62.62,0,0,1,.62-.62h5.9a.62.62,0,0,1,.62.62Z"/><path class="cls-11" d="M52.41,31.15a1.63,1.63,0,1,0-1.63-1.63A1.64,1.64,0,0,0,52.41,31.15Z"/><circle class="cls-17" cx="66.4" cy="29.52" r="1.63"/><path class="cls-8" d="M58.37,37.76l-.11,0-.74.31-.18.09h0a9.13,9.13,0,0,0-3.27,2.84,5.23,5.23,0,0,0-.41.63h0c-.19.32-.37.65-.53,1s-.21.49-.3.75a8.92,8.92,0,0,0-.48,2.07,3.44,3.44,0,0,0-.05.45.38.38,0,0,0,0,.1.5.5,0,0,0,.46.42.49.49,0,0,0,.52-.46c0-.14,0-.28,0-.42A8.28,8.28,0,0,1,54,43.19,8.41,8.41,0,0,1,55.39,41h0a4.89,4.89,0,0,1,.44-.47l.23-.22h0a6.05,6.05,0,0,1,.68-.55,8.28,8.28,0,0,1,.83-.53l.35-.18L58,39a.21.21,0,0,1,0-.06,2.32,2.32,0,0,0,.22-.49h0a5.12,5.12,0,0,0,.13-.66Zm8.55,4.6h0a10.38,10.38,0,0,0-.66-1.29,1.06,1.06,0,0,0-.12-.2,1.4,1.4,0,0,0-.1-.16s0,0,0,0a8.42,8.42,0,0,0-1.14-1.43l0,0-.41-.37a1,1,0,0,0,0,.18.86.86,0,0,0,0,.16,2.6,2.6,0,0,0,.06.48,2.39,2.39,0,0,1-.2.31l0,.05c.13.13.26.28.39.43l.23.3c.12.16.24.32.35.5l.07.11c.09.14.17.28.25.43a11.94,11.94,0,0,1,.9,2.09c1,2.94,1.39,7.2.83,13.1,0,.33-.07.66-.11,1,0,0,0,.08,0,.12a.49.49,0,0,0,.43.54.49.49,0,0,0,.55-.43s0-.05,0-.08c0-.34.07-.68.1-1C68.91,50.24,68.26,45.47,66.92,42.36Z"/><path class="cls-18" d="M50,49a.33.33,0,0,1,.65.11S49.06,57.67,54,59.87a.33.33,0,0,1,.16.44.32.32,0,0,1-.43.16C48.32,58.06,50,49.06,50,49Z"/><path class="cls-18" d="M54.38,49.48a.33.33,0,0,1,.37-.29.33.33,0,0,1,.29.36s-1,10-6.85,10.24a.32.32,0,0,1-.34-.31.32.32,0,0,1,.31-.34C53.47,58.87,54.38,49.51,54.38,49.48Z"/><path class="cls-18" d="M67.32,57a3.28,3.28,0,1,1-2.31,1l0,0A3.24,3.24,0,0,1,67.32,57Z"/><path class="cls-19" d="M68.94,58.63A2.3,2.3,0,0,0,67.32,58a2.27,2.27,0,0,0-1.59.65l0,0A2.23,2.23,0,0,0,65,60.24a2.29,2.29,0,0,0,2.28,2.29,2.29,2.29,0,0,0,2.29-2.29A2.28,2.28,0,0,0,68.94,58.63Z"/><path class="cls-20" d="M68.15,59.41a1.16,1.16,0,0,0-.83-.34,1.19,1.19,0,0,0-.82.33v0a1.17,1.17,0,0,0,0,1.65,1.2,1.2,0,0,0,.83.34,1.18,1.18,0,0,0,.83-.34,1.16,1.16,0,0,0,.34-.83A1.2,1.2,0,0,0,68.15,59.41Z"/><path class="cls-8" d="M50.78,49.09a.48.48,0,0,1-.49.49.48.48,0,0,1-.49-.48,3.54,3.54,0,0,1,1.61-3.31,2.48,2.48,0,0,1,1.32-.32,2.33,2.33,0,0,1,1.3.46,3.74,3.74,0,0,1,1.17,3.64.49.49,0,0,1-.54.44.5.5,0,0,1-.44-.55,2.85,2.85,0,0,0-.77-2.74,1.52,1.52,0,0,0-.76-.27,1.54,1.54,0,0,0-.8.2A2.61,2.61,0,0,0,50.78,49.09Z"/><path class="cls-20" d="M54.68,59.41a1.08,1.08,0,0,0-.74-.3,1,1,0,0,0-.73.29h0a1.05,1.05,0,0,0,.74,1.79,1.06,1.06,0,0,0,.74-.31,1.06,1.06,0,0,0,0-1.48Z"/><path class="cls-20" d="M49.15,58.77a1,1,0,0,0-.73-.3,1,1,0,0,0-.73.29h0a1,1,0,0,0,.74,1.78,1,1,0,0,0,.73-.3,1,1,0,0,0,0-1.48Z"/><path class="cls-1" d="M97.38,51.87A3.46,3.46,0,0,0,99,50.73c.49-.75,3.53-5.25,4.1-6.24s.77-4.62-.39-5.57-4.29.67-4.93,4.67-.49,4.89-1.69,6.15S97.38,51.87,97.38,51.87Z"/><path class="cls-2" d="M97.38,51.87h0l0,0h0l0,0h0l.07,0h0l.05,0h.13l0,0h0l0,0h0l0,0h0l0,0h0l0,0h0l0,0h0l0,0h0l0,0h0l0,0,0,0,0,0,0,0h0l0,0h0l0,0,0,0h0l0,0h0l0,0,0,0h0l0,0,0,0,0,0h0l0,0h0l0,0h0l0,0h0l0,0,0,0h0l0,0,0,0h0l0,0h0l0,0h0l0,0,0,0h0l0,0h0l0,0h0l0,0h0l0,0h0c.49-.76,3.52-5.25,4.09-6.24s.77-4.62-.39-5.57c-.57-.47-1.63-.31-2.62.45h0c.72.62,2.67,2.49,1.93,4.35a4,4,0,0,1-4.63,2.56v.25h0v.24l0,.07v.22h0l0,.07v.2h0v.18h0v.24h0v.16h0v.14l0,.07h0l0,.05v0l0,.06h0v.06h0v.09l0,0,0,.07,0,0v0l0,0h0l0,.07h0v0l0,0h0l0,0h0l0,0v0h0l0,.05h0l0,0v0l0,.05h0l0,0h0l0,0,0,0v0l0,0h0l0,0h0l0,0,0,0h0l0,.05h0l0,0,0,0,0,0,0,0h0l0,0h0l0,0h0l-.08.08h0l0,.06h0l0,.06h0l0,0h0l0,.06h0l0,.06h0l0,0h0s0,.08,0,.11h0v.06l0,0h0v.05h0v.06h0v.1h0v.05h0v0h0v0h0l0,.05h0l0,0h0l0,0h0l0,.05,0,0h0l0,0,0,0h0l0,0h0l0,0h0l0,0h0l0,0h0l0,0h0l.05,0h0l0,0h0l0,0h0l0,0h0l0,0h0a2.3,2.3,0,0,0,.33.21h0l0,0h0l.09.05h0l.13.07h0l.12,0h0l.24.1h0Z"/><path class="cls-3" d="M71.86,43.27a13.45,13.45,0,0,1,4.73,4.43c2.17,2.94,5.72,7.4,8.81,11.08,3.31,4,2.75,4.92,5.32.71C93.42,55.05,95,51.32,96,49.43c.15-.29.8-1.7,1.35-1.25a6.16,6.16,0,0,0,1.2.89c.57.29,1.14,0,1.27.83,0,1.85-1.8,8.44-8.56,18.07,0,0,.72-.88-.14.15s-3.14,1.31-4,.41l-.1-.07c-3.16-3-11.21-8.72-15.15-13.81-2.61-3.38-1.57-6.32-2.74-8.72h0L69,45.76l0,0,0-.11h0l0-.1,0-.06v0h0a5.57,5.57,0,0,1-.53-1.56l1.1,1.22Z"/><path class="cls-4" d="M96.07,49.31c.22-.44.79-1.53,1.29-1.13a6.16,6.16,0,0,0,1.2.89c.57.29,1.14,0,1.27.83,0,1.85-1.8,8.44-8.56,18.07,0,0,.72-.88-.14.15s-3.14,1.31-4,.41l-.1-.07c-3.16-3-11.21-8.72-15.15-13.81a9.16,9.16,0,0,1-1.5-2.85,4.63,4.63,0,0,1,1.19-2.15c1.81-1.23,9.28,12.48,15.89,16.47,0,0,3.41,1.56,5.8-2.86s4.24-8.57,4.5-10.12C97.93,52,98.12,50.19,96.07,49.31Z"/><path class="cls-13" d="M63.63,25.68a.45.45,0,0,1-.89,0,2.14,2.14,0,0,1,4.28,0,.45.45,0,0,1-.89,0,1.25,1.25,0,0,0-1.25-1.25,1.25,1.25,0,0,0-1.25,1.25Z"/><path class="cls-13" d="M51.36,25.68a.45.45,0,0,1-.89,0,2.14,2.14,0,0,1,4.28,0,.45.45,0,0,1-.89,0,1.25,1.25,0,0,0-1.25-1.25,1.25,1.25,0,0,0-1.25,1.25Z"/><path class="cls-13" d="M13.76,65.09a.5.5,0,1,1-1,0V57.4c0-3.19,3.32-4.24,3.33-4.24a.49.49,0,0,1,.28.94s-2.62.83-2.62,3.3Z"/><path class="cls-13" d="M23,50.26h0a2.3,2.3,0,0,1-1.09,3.07L18.29,55A2.29,2.29,0,0,1,15.23,54h0a2.3,2.3,0,0,1,1.09-3.07l3.59-1.71A2.31,2.31,0,0,1,23,50.26Z"/><path class="cls-13" d="M23.7,65.09a.49.49,0,1,1-1,0V57.4c0-3.19,3.31-4.24,3.32-4.24a.49.49,0,0,1,.29.94s-2.63.83-2.63,3.3Z"/><path class="cls-13" d="M32.93,50.26h0a2.32,2.32,0,0,1-1.09,3.07L28.24,55A2.3,2.3,0,0,1,25.17,54h0a2.32,2.32,0,0,1,1.09-3.07l3.6-1.71A2.32,2.32,0,0,1,32.93,50.26Z"/><path class="cls-13" d="M33.65,65.09a.5.5,0,1,1-1,0V57.4c0-3.19,3.32-4.24,3.33-4.24a.49.49,0,0,1,.61.33.48.48,0,0,1-.32.61s-2.63.83-2.63,3.3Z"/><path class="cls-13" d="M42.87,50.26h0a2.3,2.3,0,0,1-1.08,3.07L38.19,55A2.3,2.3,0,0,1,35.12,54h0a2.32,2.32,0,0,1,1.09-3.07l3.6-1.71A2.31,2.31,0,0,1,42.87,50.26Z"/><path class="cls-21" d="M70.57,84.73l.18.54H28.28l-11-1.87-7-4.5-9.46-6s26.1-6,27.3-6c.34,0,2.63.17,5.78.44l3.28.29c3.29.31,7,.68,10.3,1.08l1.31.15L50,69l2.17.31,1.56.26a16.61,16.61,0,0,1,2.22.52,1.12,1.12,0,0,1,.46.26c.22.3,1.06,1.2,2.24,2.41h0L59.88,74c2.61,2.66,6.09,6.14,8.36,8.4Z"/><polygon class="cls-22" points="9.66 85.27 10.23 78.9 10.51 75.76 46.15 75.76 48.07 79.07 51.68 85.27 9.66 85.27"/><polygon class="cls-23" points="46.02 85.27 46.15 75.76 48.02 77.09 53.27 80.82 55.16 82.16 57.53 83.84 57.58 85.27 46.02 85.27"/><path class="cls-24" d="M74,85.27H70.88c0,.17,0,.34,0,.51l-.17-.51H65.94c-2-1.59-4.4-3.43-6.64-5.2l0,0-3.82-3-1.62-1.29-3.31-2.62H48.73s-.07-2,0-4.28a25.46,25.46,0,0,1,.73-5.8,3,3,0,0,1,.67-1.28.73.73,0,0,1,.66-.23,2.42,2.42,0,0,1,.72.31,14.43,14.43,0,0,1,1.22.8c.76.55,1.69,1.27,2.72,2.11l.16.13.73.6.13.11.25.21h0L57,66l.38.32.25.22c2.06,1.76,4.35,3.79,6.55,5.78,1.19,1.09,2.36,2.17,3.44,3.19s2,1.84,2.79,2.64a34.21,34.21,0,0,1,3.4,3.5A11.5,11.5,0,0,1,74,85.27Z"/><rect class="cls-25" y="61.51" width="52.2" height="11.61" rx="1.68" ry="1.68"/></g></g></svg>