<svg xmlns="http://www.w3.org/2000/svg" viewBox="0 0 67.24 85.27"><defs><style>.cls-1{fill:#f2f0f0;}.cls-1,.cls-10,.cls-12,.cls-13,.cls-14,.cls-15,.cls-16,.cls-18,.cls-19,.cls-2,.cls-20,.cls-21,.cls-22,.cls-23,.cls-3,.cls-4,.cls-5,.cls-6,.cls-7,.cls-8{fill-rule:evenodd;}.cls-2{fill:#cecbcb;}.cls-3{fill:#2a999b;}.cls-4{fill:#4fbcbe;}.cls-5{fill:#183257;}.cls-6{fill:#111a39;}.cls-7{fill:#ed9072;}.cls-8{fill:#fff;}.cls-13,.cls-9{fill:#231f20;}.cls-10,.cls-17{fill:#e37b64;}.cls-11,.cls-18{fill:#f4ad85;}.cls-12{fill:#d9775f;}.cls-14{fill:#58595b;}.cls-15{fill:#6d6e71;}.cls-16{fill:#414042;}.cls-19{fill:#bc614f;}.cls-20{fill:#14274b;}.cls-21{fill:#3a4f77;}.cls-22{fill:#14294c;}.cls-23{fill:#152548;}</style></defs><title>stressРесурс 5</title><g id="Слой_2" data-name="Слой 2"><g id="OBJECTS"><path class="cls-1" d="M28.31,42.21a18.32,18.32,0,0,0-4.37,4.33c-2.17,2.94-5.72,7.39-8.81,11.08-3.31,4-2.75,4.92-5.32.7-2.7-4.44-4.32-8.16-5.29-10-.15-.3-.8-1.7-1.35-1.26A5.77,5.77,0,0,1,2,47.9c-.57.29-1.14,0-1.27.84,0,1.85,1.8,8.43,8.56,18.07.05,0-.72-.89.14.15s3.14,1.31,4,.41l.1-.07c2.68-2.58,8.33-7.1,11.83-11.43,3.38-4.17,4.62-8.15,6.06-11.1h0l.07-.16,0-.06,0-.1h0l0-.1,0-.06v0h0a5.54,5.54,0,0,0,.53-1.57l-1.1,1.22Z"/><path class="cls-2" d="M28.31,42.21a18.32,18.32,0,0,0-4.37,4.33c-.58.79-1.26,1.68-2,2.64.46,3-.3,8.21-2.63,10.84-2.83,3.2-7,7.33-9.65,4.79S2.73,52.48,2.21,50.22c-.31-1.35,1-1.95,2.18-2.21-.26-.49-.77-1.36-1.22-1A5.77,5.77,0,0,1,2,47.9c-.57.29-1.14,0-1.27.84,0,1.85,1.8,8.43,8.56,18.07.05,0-.72-.89.14.15s3.14,1.31,4,.41l.1-.07c2.68-2.58,8.33-7.1,11.83-11.43,3.38-4.17,4.62-8.15,6.06-11.1h0l.07-.16,0-.06,0-.1h0l0-.1,0-.06v0h0a5.54,5.54,0,0,0,.53-1.57l-1.1,1.22Z"/><path class="cls-3" d="M50.18,47.73l-3.7-4.67-.81-.7-8.22-3.09-3.8.59h0s-3.79,1.85-4.11,1.83a.4.4,0,0,1-.16-.06l-2.24,6.45s-1.36,9.34-1.55,10-.36,9.6.35,10.88.1,3.28,2.82,4.12,8.54,2.46,12.45-1.67a36.84,36.84,0,0,0,5.69-7.82C47.88,62.18,50.18,47.73,50.18,47.73Z"/><path class="cls-4" d="M28,48.83c1.22-.77,1.92-.14,3.24,1.29s2.58,1.29,3.32,1.61.7,13.56-4.09,15.59c-1.77.75-2.87,0-3.55-1.61C25.7,62.88,24.83,50.83,28,48.83Z"/><path class="cls-5" d="M34.66,45.14l-.22.4s-3.26,9.84-3.13,17.73,4.12,1.15,4.05.48-.77-13.53-.08-18.16C35.28,45.59,35.23,45,34.66,45.14Z"/><path class="cls-6" d="M34.66,45.14l-.22.4s-.12.35-.32,1c.25.17.54.59.53,1.58,0,1.39.09,6.83-3,9.59a39.24,39.24,0,0,0-.36,5.57c.14,7.9,4.12,1.15,4.05.48s-.77-13.53-.08-18.16C35.28,45.59,35.23,45,34.66,45.14Z"/><path class="cls-1" d="M34.72,74.08l.92,11.19H24.12c0-3.51-.1-6.75-.21-9.36-.06-1.58-.14-2.93-.24-4-.12-1.28-.26-2.74-.41-4.33-.23-2.73-.45-5.81-.44-8.9a45.6,45.6,0,0,1,.34-5.65,29.53,29.53,0,0,1,.58-3.24,14.89,14.89,0,0,1,3.1-6.45h0A9.18,9.18,0,0,1,30,41.05a10.54,10.54,0,0,1,1.34-.46h0l.49-.11a4,4,0,0,1,.5-.09l.24,0h.17l-.12.29h0s0,0,0,0,0,0,0,0,0,.08,0,.13a0,0,0,0,0,0,0c0,.06-.05.12-.07.19s0,.08-.05.13-.1.31-.17.51c-.14.39-.28.85-.43,1.37,0,0,0,0,0,0-.16.54-.32,1.13-.47,1.8h0c-.19.79-.36,1.67-.5,2.62h0c-.09.59-.17,1.2-.24,1.84a.49.49,0,0,1,0,.12c0,.22,0,.45-.05.68-.05.59-.07,1.18-.08,1.79h0c0,.59,0,1.2,0,1.82,0,.88.12,1.79.25,2.71q.06.45.15,1c.06.44.13.88.2,1.31,0,0,0,.07,0,.1.09.5.18,1,.28,1.47v0c.3,1.53.62,3,.95,4.24h0s0,0,0,0c.06.25.13.5.19.74l.15.58c.1.36.19.69.29,1l0,.09h0c.71,2.49,1.31,4.15,1.47,4.54a.25.25,0,0,1,0,.07.08.08,0,0,1,0,0Z"/><path class="cls-2" d="M30.43,53.76h0C30.39,53.61,30.4,53.67,30.43,53.76Z"/><path class="cls-2" d="M30.43,53.76h.08C30.53,54.11,30.47,53.89,30.43,53.76Z"/><path class="cls-2" d="M35.68,85.27h-7c.2-1.8.42-3.44.64-4.85a44.54,44.54,0,0,0,.52-5.1c0-.66.05-1.3.05-1.94,0-.33,0-.65,0-1h0c0-1.71-.15-3.31-.32-4.81a55.49,55.49,0,0,0-1.6-8.1c-.12-.46-.24-.88-.34-1.26,0-.13-.07-.26-.11-.38s0,0,0,0-.07-.24-.1-.35c-.15-.54-.26-1-.32-1.27-.17-.93-.28-1.63-.34-2.15h0c-.1-.78-.11-1.13-.11-1.13l2-2,.72-.73.26,2.74.07.75.36.05.38,0c0,.22.11.91.37,2.73q.06.45.15,1c0,.17.07.34.1.52,0,0,0,0,0,0,.11.62.25,1.28.41,2v0h0c.29,1.29.64,2.69,1,4,0,0,0,0,0,0s0,0,0,0q.14.54.27,1c.15.57.29,1.12.44,1.65h0l0,.09c.65,2.39,1.2,4.28,1.33,4.73a.25.25,0,0,1,0,.07.08.08,0,0,1,0,0l.2,2.36Z"/><path class="cls-1" d="M51.64,50.13a76.59,76.59,0,0,1-2.19,8.8v0l-.39,1.31c-.69,2.26-1.39,4.49-2,6.38-1.14,3.62-.93,10.73-.25,18.63H31c.18-5,.44-8.88.54-10.07l.12-1.4c.2-2.41.35-4.69.53-6.86h0l.06-.74h0l0-.36,0-.3v0c0-.24.05-.48.07-.72h0s0-.07,0-.11,0-.37.06-.55c.11-1.25.26-2.46.43-3.64,0-.19,0-.37.08-.55s.1-.6.16-.9.15-.82.22-1.22c.12-.64.26-1.28.42-1.91s.36-1.37.55-2c.15-.49.32-1,.5-1.47h0c.05-.16.11-.33.18-.5a31.91,31.91,0,0,1,3-6,38.23,38.23,0,0,1,3.21-4.41c.17-.2.34-.41.53-.62,0,0,0,0,.06-.08l.14,0,.07,0a11.81,11.81,0,0,1,1.69.51h0a34.44,34.44,0,0,1,3.84,1.76c1.77.9,4,2.53,4.28,4.55A9.43,9.43,0,0,1,51.64,50.13Z"/><path class="cls-2" d="M49.17,59.53s0,0,0,0a2.57,2.57,0,0,1-.11.72c-.69,2.26-1.39,4.49-2,6.38-1.14,3.62-.93,10.73-.25,18.63H44.31c-.13-3.5-.34-6.43-.6-8.33a44.81,44.81,0,0,1-.21-8.17h0c.1-1.77.27-3.54.47-5.21.05-.37.09-.73.14-1.09.18-1.35.37-2.63.56-3.78.07-.37.13-.73.19-1.07h0c.45-2.47.83-4.14.88-4.34v0l1.61,1.37,1.43,1.22a2.53,2.53,0,0,0-.07.38C48.59,57.3,49.19,58.4,49.17,59.53Z"/><path class="cls-7" d="M40.47,31.52l-.09,2.24v5.29a1.9,1.9,0,0,0,.87,1.25c-.83.89-2.87,3-4.15,3.18a6.2,6.2,0,0,1-4-.88c-.33-.28-.37-1.75-.56-2.57.15,0,0,0,.13-.05a2.42,2.42,0,0,0,1-.58c.77-.84.74-4.57,0-5.55S40.47,31.52,40.47,31.52Z"/><path class="cls-3" d="M34.34,42.45l.93-.5s.08,1,.19,1.06.25-.65.65-.89,1.47,1.21,1.47,1.21-.39,1.14-1,1.23-2.3.27-2.32-.25S34.34,42.45,34.34,42.45Z"/><path class="cls-6" d="M35.53,43.68a3.6,3.6,0,0,0,1.5-.5.92.92,0,0,1,1.19.11l-.66.75,0,.32a2.39,2.39,0,0,0-1.61.28C35.29,45.09,35.53,43.68,35.53,43.68Z"/><path class="cls-8" d="M32.65,40.6S28.23,51.36,32.72,66l0,1.12a84.35,84.35,0,0,1-5.48-12.33s-.15-.52.22-.76A4.39,4.39,0,0,1,29,53.22c.42,0-.22-.55-1.87.16a.75.75,0,0,1-.52-.46c-.12-.37.37-6.56,4.78-12.34,0,0,.06-.16.39-.25S32.76,40.05,32.65,40.6Z"/><path class="cls-4" d="M40.83,39.23a6.09,6.09,0,0,1-4.25,2.63.81.81,0,0,0-.66.75c0,.63,1.82,2.32,2,3.23S41.79,42,42,40.52C42,40.52,41.42,39.39,40.83,39.23Z"/><path class="cls-5" d="M34.24,43.74a1.31,1.31,0,0,1,.64-.28,1.87,1.87,0,0,1,1,.19,2.12,2.12,0,0,1,.5.79,4.19,4.19,0,0,1-1.13,1.15c-.27.13-.56-.09-.84-.05S34.06,44,34.24,43.74Z"/><path class="cls-6" d="M35.6,43.51a.89.89,0,0,1,.31.14,2.12,2.12,0,0,1,.5.79,4.19,4.19,0,0,1-1.13,1.15c-.27.13-.56-.09-.84-.05-.08,0-.14-.09-.18-.23C36.31,45,35.73,43.76,35.6,43.51Z"/><path class="cls-4" d="M33.53,39.15a3.09,3.09,0,0,0,1.54,2.54.33.33,0,0,1,.07.57,8.46,8.46,0,0,0-1,2.45c-.15.65-2-2.63-1.83-4.65A3.53,3.53,0,0,1,33.53,39.15Z"/><rect class="cls-9" x="24.62" y="18.69" width="1.96" height="4.72" transform="translate(-3.83 5.8) rotate(-12.04)"/><path class="cls-10" d="M26,29.06a3.28,3.28,0,1,0-3.28-3.28A3.29,3.29,0,0,0,26,29.06Z"/><path class="cls-10" d="M48.49,29.06a3.28,3.28,0,1,0-3.29-3.28A3.29,3.29,0,0,0,48.49,29.06Z"/><rect class="cls-11" x="25.26" y="5.9" width="22.48" height="32.69" rx="11.24" ry="11.24"/><path class="cls-7" d="M41.09,6.89a11.27,11.27,0,0,1,6.65,10.25V27.36A11.28,11.28,0,0,1,36.5,38.6h0a11.11,11.11,0,0,1-4-.76c11,.09,12.22-7.7,12.22-13.64,0-6.57-2.07-8.31-4.39-8.31H31.76S30.2,9,39.13,7.22C39.82,7.08,40.47,7,41.09,6.89Z"/><path class="cls-12" d="M43.27,8.19a11.24,11.24,0,0,1,4.47,9v3.29c-.24,0-.4-.06-.46-.35-.47-2.17-2-4.86-5.7-4.74s-3.19-1.63-4-2.32-2,.66-2.23.8a7.71,7.71,0,0,1,.24-4c.72-1.49,2.32-.55,6.71-1.49C42.65,8.29,43,8.23,43.27,8.19Z"/><path class="cls-13" d="M42,10.38l-1.76,2a6.6,6.6,0,0,0-4.37-.32c-2.14.73,2.83-3.51,3.09-3.51A32.58,32.58,0,0,1,42,10.38Z"/><path class="cls-14" d="M46.47,16.51V20c0,1.36.25,1.76.93,2.26,0,0-.42,1.31.34,1.62,0,0,0-1.59,2-1.08,0,0,6.29-18.87-9.14-18.87,0,0-3-3.89-9.87-3.89-8.51,0-6.94,9-7,14.61,0,2.48.46,4.54-1.18,4.7,0,0,1,.16,2.56.26,9.1.61,8.37-2.05,12.15-8.41C38.59,9,39.94,9.28,40.26,12.4,40.26,12.4,46.46,12.4,46.47,16.51Z"/><path class="cls-15" d="M39.64,2.92a11,11,0,0,0-1.4-1c-1.36,7-10.24,6.9-14.53,6.42-.07,1.79,0,3.64.06,5.28C34.46,13.7,38.37,6.47,39.64,2.92Z"/><path class="cls-16" d="M51,14.17c0-.1,0-.19,0-.29s0-.13,0-.2,0-.37,0-.56-.05-.54-.09-.8a1.13,1.13,0,0,0,0-.18.77.77,0,0,0,0-.15c0-.14,0-.28-.07-.41s0-.22-.07-.33a1.55,1.55,0,0,0,0-.23,2.68,2.68,0,0,0-.07-.27l0-.13,0-.09a.23.23,0,0,0,0-.11v0a.36.36,0,0,1,0-.11s0,0,0,0l0-.11,0-.07a.14.14,0,0,0,0-.06c0-.05,0-.09,0-.13a2.31,2.31,0,0,1-.1-.28l0-.07-.06-.15c0-.11-.09-.21-.13-.31l-.1-.22-.15-.29a3.9,3.9,0,0,0-.19-.35L49.44,8h0V8l0,0c-.08-.13-.16-.26-.25-.39A6.26,6.26,0,0,0,48.68,7a5.75,5.75,0,0,1-2.88,3.89,10.1,10.1,0,0,1-2.23.94,17.11,17.11,0,0,1-3.31.6h.49l.18,0,.28,0,.37,0,.19,0,.52.09a8.59,8.59,0,0,1,1,.27l.46.16a5.29,5.29,0,0,1,1.3.71l.35.29.07.07a1.93,1.93,0,0,1,.27.3h0a1.33,1.33,0,0,1,.14.19l.12.18a1.71,1.71,0,0,1,.14.27,2.09,2.09,0,0,1,.11.3,1.4,1.4,0,0,1,.1.35h0v0a.58.58,0,0,1,0,.19.13.13,0,0,1,0,.06.5.5,0,0,1,0,.12c0,.12,0,.24,0,.37v2.81L47,19l.77-.47c.5-.32,1-.64,1.43-.95s.94-.66,1.35-1l.47-.38C51,15.57,51,14.87,51,14.17ZM38.36,9.61c-1.07,0-1.88,1.16-3,2.52l-.17.21a11.36,11.36,0,0,1-3.52,3.07,8,8,0,0,1-2,.73,26.65,26.65,0,0,1-4.47.6l-1.44.07h0A7,7,0,0,1,23.77,18a1.93,1.93,0,0,1-.06.36,2.09,2.09,0,0,1-.22.5l0,.07a1,1,0,0,1-.49.34,1.81,1.81,0,0,1-.35.07l.29,0,.16,0,1.21.13.89.07h.11l1,.06c.65,0,1.25,0,1.79,0h.33l.57,0,.68-.07h0l.6-.1.53-.12.55-.17.46-.19.32-.15.2-.12a2.9,2.9,0,0,0,.29-.19,3.44,3.44,0,0,0,.36-.28,3.26,3.26,0,0,0,.33-.31,6.06,6.06,0,0,0,.6-.71,4,4,0,0,0,.28-.4c.09-.13.18-.28.27-.43l.27-.46.12-.21.41-.76.93-1.77c.21-.41.45-.84.7-1.29l.41-.7c.07-.12.14-.22.21-.32a4.09,4.09,0,0,1,.42-.53c.43-.46.85-.64,1.21-.51A1.74,1.74,0,0,0,38.36,9.61Z"/><path class="cls-13" d="M46.47,16.51V20c0,1.36.25,1.76.93,2.26,0,0-.42,1.31.34,1.62,0,0,0-1.59,2-1.08,0,0,3.07-9.21-.34-14.76,0,.22,1.4,6.1-3,7.74A3.71,3.71,0,0,1,46.47,16.51Z"/><path class="cls-13" d="M29.35,23.55h0a1.11,1.11,0,0,1,1.1,1.1v1.44a1.11,1.11,0,0,1-1.1,1.1h0a1.1,1.1,0,0,1-1.1-1.1V24.65A1.1,1.1,0,0,1,29.35,23.55Z"/><path class="cls-13" d="M41.13,23.55h0a1.1,1.1,0,0,1,1.1,1.1v1.44a1.1,1.1,0,0,1-1.1,1.1h0A1.1,1.1,0,0,1,40,26.09V24.65A1.1,1.1,0,0,1,41.13,23.55Z"/><path class="cls-13" d="M27.69,20.77l3-.8a.6.6,0,0,1,.73.42h0a.6.6,0,0,1-.42.73l-3,.81a.61.61,0,0,1-.73-.42h0A.61.61,0,0,1,27.69,20.77Z"/><path class="cls-13" d="M39.79,20l3,.8a.6.6,0,0,1,.42.74h0a.6.6,0,0,1-.73.42l-3-.81a.6.6,0,0,1-.43-.73h0A.6.6,0,0,1,39.79,20Z"/><path class="cls-10" d="M28.63,31.65A1.63,1.63,0,1,0,27,30,1.63,1.63,0,0,0,28.63,31.65Z"/><circle class="cls-17" cx="42.62" cy="30.03" r="1.63"/><path class="cls-8" d="M41.74,40.78S33,46.94,32.15,68.2c0,0,0,.44.18.47s4.19-11.35,6.76-13.37a.68.68,0,0,0,.23-.76,6.22,6.22,0,0,0-2-1.65c-.57-.32,1.62,0,2.41.44s1.32,0,1.84-.79-.18-9.79,2-11.2a.22.22,0,0,0,0-.24,9,9,0,0,0-1.39-.46A.56.56,0,0,0,41.74,40.78Z"/><path class="cls-18" d="M46.86,15.29l-.06.28a21.8,21.8,0,0,0-2.17-.7,11.21,11.21,0,0,0-3.32.15,1.94,1.94,0,0,1-2.47-2.16c.13-1.36.24-2.5,1.58-2.45s2.59,1.18,4,1.89a21.77,21.77,0,0,0,2.63.8C47.4,13.33,46.86,15.29,46.86,15.29Z"/><path class="cls-7" d="M46.86,15.29l-.06.28a21.8,21.8,0,0,0-2.17-.7,11.21,11.21,0,0,0-3.32.15,1.94,1.94,0,0,1-2.47-2.16c.47,1.09,1.53,2.17,2.74,1.85a18.52,18.52,0,0,1,3.81-.18c1,0,1.11-1,1.07-1.61a1.44,1.44,0,0,1,.63.18C47.4,13.33,46.86,15.29,46.86,15.29Z"/><path class="cls-1" d="M41.12,44.47l2.51-3.13s7.29,1.54,11.71-.57,10.55-17.26-8.87-24.26a.83.83,0,0,1-.49-.9,4.78,4.78,0,0,0,.55-2.7s0-.52.6-.48a39.76,39.76,0,0,1,13.75,6.71C66.1,23.42,74.3,42,55.58,53a14.29,14.29,0,0,0-6.46,6.65Z"/><path class="cls-2" d="M59.35,35c1.65-5.63,0-13.87-12.88-18.51a.83.83,0,0,1-.49-.9,4.78,4.78,0,0,0,.55-2.7s0-.52.6-.48A10.79,10.79,0,0,1,49,13c-.72.38-1.23,1-1,1.78.71,2.12,16.51,6.15,11.32,20.28Z"/><path class="cls-2" d="M66.67,29.8c1.67,7.32.11,16.62-11.09,23.21a14.29,14.29,0,0,0-6.46,6.65l-3.38-6.41h0s.88-3.06,1.86-3.64S51.81,50.91,55,50,67.75,45.05,66.67,29.8Z"/><path class="cls-19" d="M33.48,32.93a.51.51,0,0,1-.48.51.48.48,0,0,1-.5-.47,2.36,2.36,0,0,1,2.27-2.45,2.37,2.37,0,0,1,2.45,2.27.49.49,0,0,1-.47.51.49.49,0,0,1-.51-.47,1.38,1.38,0,0,0-1.43-1.33,1.38,1.38,0,0,0-1,.44A1.35,1.35,0,0,0,33.48,32.93Z"/><path class="cls-6" d="M34.12,38.35h-.07l-.09,0-.27-.07-.19-.05-.14.06A9.12,9.12,0,0,0,30,41.05a5.87,5.87,0,0,0-.43.63h0a7.11,7.11,0,0,0-.53,1,.24.24,0,0,0-.06.11.76.76,0,0,0,0,.11.14.14,0,0,0,0,.06,6.92,6.92,0,0,0-.51,1.47v0a8.08,8.08,0,0,0-.23,1.21c0,.14,0,.29,0,.44a.39.39,0,0,0,0,.15h0a.49.49,0,0,0,.37.36h.09a.5.5,0,0,0,.5-.47c0-.14,0-.28,0-.41a7.87,7.87,0,0,1,.73-2.56A8.25,8.25,0,0,1,31.36,41h0a5.38,5.38,0,0,1,.49-.47,2.5,2.5,0,0,1,.24-.22,3.47,3.47,0,0,1,.37-.3l0,0a6.83,6.83,0,0,1,1-.66l.24-.13.06,0A2,2,0,0,0,34,38.7v0a1.87,1.87,0,0,0,.1-.33Zm10.2,12.22h0a22.12,22.12,0,0,0-1.55-8h0a.19.19,0,0,0,0-.08A12.15,12.15,0,0,0,42,41l0-.08a.35.35,0,0,1-.05-.08.22.22,0,0,1,0-.08h0a8.75,8.75,0,0,0-1.1-1.33l0,0-.32-.3L40.28,39a2.83,2.83,0,0,0,.06.83,1,1,0,0,1-.11.18l0,0-.11.14.15.16h0c.15.16.29.33.45.53l.35.5a.83.83,0,0,0,.08.12c.09.15.18.31.26.47A9.77,9.77,0,0,1,42,43.33c.11.26.2.53.29.81a21.3,21.3,0,0,1,.86,4.26v0a43.89,43.89,0,0,1-.07,8.7c0,.33-.07.66-.11,1,0,0,0,.08,0,.12a.5.5,0,0,0,.44.55.49.49,0,0,0,.54-.44s0-.05,0-.08c0-.34.07-.68.1-1A47.86,47.86,0,0,0,44.32,50.57Z"/><path class="cls-20" d="M25.81,49.18a.33.33,0,0,1,.65.11S24.91,57.82,29.84,60a.32.32,0,1,1-.26.59C24.16,58.2,25.8,49.21,25.81,49.18Z"/><path class="cls-20" d="M30.23,49.62a.33.33,0,1,1,.65.07s-1,10-6.85,10.25a.33.33,0,0,1-.34-.32.32.32,0,0,1,.31-.34C29.31,59,30.23,49.65,30.23,49.62Z"/><path class="cls-20" d="M43.17,57.12a3.26,3.26,0,1,1-2.31,1l0,0A3.25,3.25,0,0,1,43.17,57.12Z"/><path class="cls-21" d="M44.78,58.77a2.28,2.28,0,0,0-3.21,0l0,0a2.3,2.3,0,0,0-.67,1.62A2.28,2.28,0,0,0,41.55,62a2.3,2.3,0,0,0,1.62.67,2.29,2.29,0,0,0,2.28-2.28A2.3,2.3,0,0,0,44.78,58.77Z"/><path class="cls-22" d="M44,59.56a1.15,1.15,0,0,0-1.64,0h0a1.17,1.17,0,0,0,0,1.65A1.17,1.17,0,1,0,44,59.56Z"/><path class="cls-6" d="M26.62,49.23a.49.49,0,0,1-.48.5.5.5,0,0,1-.5-.49,3.58,3.58,0,0,1,1.61-3.31,2.52,2.52,0,0,1,1.33-.32,2.33,2.33,0,0,1,1.29.46c.83.61,1.39,1.81,1.17,3.65a.49.49,0,0,1-.54.43.49.49,0,0,1-.43-.55,2.86,2.86,0,0,0-.78-2.74,1.41,1.41,0,0,0-.75-.26,1.49,1.49,0,0,0-.81.19A2.63,2.63,0,0,0,26.62,49.23Z"/><path class="cls-22" d="M30.52,59.56a1,1,0,0,0-.74-.31,1,1,0,0,0-.73.3h0a1,1,0,0,0-.3.74A1,1,0,0,0,29,61a1.05,1.05,0,0,0,1.79-.73A1,1,0,0,0,30.52,59.56Z"/><path class="cls-22" d="M25,58.91a1,1,0,0,0-.74-.3,1.06,1.06,0,0,0-.73.29h0a1,1,0,1,0,1.48,0Z"/><path class="cls-5" d="M0,48c0,.71,6.78,25,7.13,26.45S8.2,76,10.55,76s15.61-.15,17,0,3.18-.72,2.73-2-6.71-25.12-7-25.6-.95-1.72-3.3-1.54-12,0-18.16,0C1.12,46.82,0,46.88,0,48Z"/><path class="cls-23" d="M30.26,73.91c0-.08-.07-.24-.14-.46,0,0,0,0,0,0S30,73.15,30,73s-.1-.36-.16-.58h0a2,2,0,0,1-.07-.26c-.09-.31-.18-.66-.29-1S29.18,70,29,69.41c-.08-.3-.17-.62-.25-.94s-.18-.65-.27-1c-.14-.51-.28-1-.43-1.59-.19-.7-.38-1.42-.58-2.15l-.92-3.43-.15-.57c0-.16-.09-.32-.13-.48s-.12-.43-.17-.65-.16-.61-.25-.9l-.06-.2h0l0-.13a.65.65,0,0,0,0-.13h0c-.08-.32-.17-.64-.25-1,0-.14-.07-.28-.11-.42-.68-2.5-1.26-4.68-1.64-6-.25-.88-.41-1.42-.44-1.49L23.13,48l-.14-.2a1.6,1.6,0,0,0-.22-.24.86.86,0,0,0-.14-.13l-.24-.18-.22-.13-.06,0L21.78,47a2,2,0,0,0-.35-.1l-.07,0a2.65,2.65,0,0,0-.42-.06,3.68,3.68,0,0,0-.49,0l-.45,0-1,0c.06,0,1.7.08,2.93,2.39l0,.07a9.74,9.74,0,0,1,.81,2.24c.1.4.24.92.41,1.53.3,1.15.68,2.63.95,4.28.07.41.14.84.19,1.28,0,.21.05.42.07.64s0,.43.05.65,0,.52,0,.78a15.24,15.24,0,0,1-1.21,6.92C21.38,71.7,17,75,7.57,75.37a1.06,1.06,0,0,0,.3.26L8,75.7a1.17,1.17,0,0,0,.28.11,1.59,1.59,0,0,0,.33.08l.25,0H9l.26,0,.44,0h.9c1.67,0,8.86-.09,13.36-.08,1.83,0,3.21,0,3.61,0a3.51,3.51,0,0,0,.72,0,3.38,3.38,0,0,0,.63-.14h0a2.88,2.88,0,0,0,.59-.27l.29-.2.05,0a1.5,1.5,0,0,0,.34-.42.72.72,0,0,0,.1-.24s0,0,0-.06a1,1,0,0,0,0-.25A1.16,1.16,0,0,0,30.26,73.91Zm-23-12.27-.74.21L6.11,62,5,62.3,4,63.1l.74,2.71c0,.13.07.25.1.36.15.52.28,1,.42,1.51a.14.14,0,0,0,0,.06c.11.42.22.82.33,1.21L6,70.24c0,.12.07.24.1.36A7.45,7.45,0,0,1,7.58,68a3.65,3.65,0,0,0,.91-2.29A7.81,7.81,0,0,0,7.31,61.64Z"/><path class="cls-18" d="M3.53,61.59s2.08-1,3.28-.6.69,5.43-.08,6.25a1.58,1.58,0,0,1-2.43-.1C3.84,66.44,1.59,62.63,3.53,61.59Z"/><path class="cls-7" d="M6.5,60.92l.31.07c1.21.38.69,5.43-.08,6.25a1.58,1.58,0,0,1-2.43-.1c-.1-.17-.31-.5-.54-.93C6.66,65.46,6.75,62.65,6.5,60.92Z"/></g></g></svg>