<svg xmlns="http://www.w3.org/2000/svg" viewBox="0 0 97.49 95.37"><defs><style>.cls-1{isolation:isolate;}.cls-2{fill:#fad0bf;}.cls-3,.cls-6{fill:#fa7296;}.cls-10,.cls-16,.cls-3{opacity:0.2;}.cls-10,.cls-4,.cls-8{fill:#1d255b;}.cls-12,.cls-5{fill:#d2e4ff;}.cls-7{fill:#1b205e;}.cls-8{opacity:0.4;}.cls-10,.cls-11,.cls-12,.cls-14,.cls-8{mix-blend-mode:multiply;}.cls-9{fill:#4052a0;}.cls-11{fill:#c87568;opacity:0.8;}.cls-13,.cls-14{fill:#cc5252;}.cls-14{opacity:0.5;}.cls-15{fill:#65a1ff;}.cls-17{fill:#963e35;}.cls-18{fill:#ba5443;}</style></defs><title>callРесурс 4</title><g class="cls-1"><g id="Слой_2" data-name="Слой 2"><g id="OBJECTS"><polygon class="cls-2" points="71.8 27.61 74.3 30.69 69.05 34.86 66.3 31.19 71.8 27.61"/><polygon class="cls-3" points="71.8 27.61 74.3 30.69 69.05 34.86 66.3 31.19 71.8 27.61"/><path class="cls-4" d="M72.85,25.56a1.67,1.67,0,0,1-.35,2.35l-6.27,4.63a1.67,1.67,0,0,1-2.35-.35l-9.39-12.7a1.69,1.69,0,0,1,.36-2.36l6.26-4.63a1.69,1.69,0,0,1,2.36.36Z"/><rect class="cls-5" x="58.74" y="15.03" width="8.87" height="15.23" rx="1.34" ry="1.34" transform="translate(-1.09 41.99) rotate(-36.47)"/><path class="cls-2" d="M70.66,23s-4.53-.28-6.34-2.65S60.59,14,61.67,13.39s5.47,1.09,8.17,3.65,2.3,7.22,2.3,7.22Z"/><path class="cls-3" d="M64,13.59a3.61,3.61,0,0,0-2.28-.2c-1.08.58.84,4.57,2.65,7S70.66,23,70.66,23l1.48,1.27a12.1,12.1,0,0,0-.7-4.76A7.83,7.83,0,0,1,64,13.59Z"/><path class="cls-6" d="M70.05,19.86a9.48,9.48,0,0,1-.94-.26A10.61,10.61,0,0,0,67,19.26a2.52,2.52,0,0,0-1.83.4.92.92,0,0,0-.14.67,1.22,1.22,0,0,0,.36.69,5,5,0,0,0,1.76,1,14.42,14.42,0,0,0,2,.57,5,5,0,0,1,1,.19A7.38,7.38,0,0,1,67,22.45a5.2,5.2,0,0,1-2-1,1.79,1.79,0,0,1-.58-1V20.1a1.33,1.33,0,0,1,.35-.84,2.84,2.84,0,0,1,2.29-.44A6.11,6.11,0,0,1,70.05,19.86Z"/><path class="cls-6" d="M70.7,18.48a13.44,13.44,0,0,0-2.4-1.4,5,5,0,0,0-1.81-.35,3.05,3.05,0,0,0-.81.08,2.64,2.64,0,0,0-.8.19,2,2,0,0,0-1.23,1.11,1.44,1.44,0,0,0,.54,1.53c.4.33.73.48.71.53a1.89,1.89,0,0,1-.85-.33,2.15,2.15,0,0,1-.67-.7A1.52,1.52,0,0,1,63.22,18a2.45,2.45,0,0,1,1.44-1.52,3.28,3.28,0,0,1,.91-.28,3.73,3.73,0,0,1,.94,0,5.8,5.8,0,0,1,4.19,2.33Z"/><path class="cls-6" d="M66.76,14.93a9.93,9.93,0,0,0-2-.42,2.47,2.47,0,0,0-1.25.25,2,2,0,0,0-.45.31s-.05,0-.11.1a1.36,1.36,0,0,0-.24.3,1.73,1.73,0,0,0-.24,1.2c.09,1,.78,1.81.68,1.87a3,3,0,0,1-1.11-1.8,2.18,2.18,0,0,1,.16-1.55,2,2,0,0,1,.3-.44,1.11,1.11,0,0,1,.14-.15,2.53,2.53,0,0,1,.64-.37,2.88,2.88,0,0,1,1.52-.16A3.14,3.14,0,0,1,66.76,14.93Z"/><path class="cls-7" d="M64.38,46.27c-.17.13,6.83,4.13,11.08,6.25a55.33,55.33,0,0,0,8,3.25s-12.75-16.25-16-20.12c0,0,2.25-6.38,7.63-6.13,0,0,19.37,20.25,22.37,29.92.67,7.83-9.83,9.33-21,7.08-9.71-2-12.75-4.25-12.75-4.25Z"/><path class="cls-8" d="M83.07,48.11C78,42.78,72.4,38.07,71.38,30.54a11.32,11.32,0,0,0-3.92,5.11c3.25,3.87,16,20.12,16,20.12a55.33,55.33,0,0,1-8-3.25c-4.25-2.12-11.25-6.12-11.08-6.25l-.67,16s3,2.29,12.75,4.25c11.14,2.25,21.62.76,21-7C92,56.9,87.39,52.64,83.07,48.11Z"/><path class="cls-9" d="M85.5,57.53a17.64,17.64,0,0,1-1.67-1.62c-.39-.45-.62-.76-.62-.76l.12.24a4.15,4.15,0,0,0,.34.64,8.14,8.14,0,0,0,1.58,1.8,12.37,12.37,0,0,0,2,1.36c.54.3.88.46.88.46Z"/><path class="cls-9" d="M84.64,58.09c-.38-.7-.83-1.29-1-1.79s-.4-.78-.4-.78.07.33.22.85a7.49,7.49,0,0,0,.87,1.94,7.07,7.07,0,0,0,1.46,1.57c.43.33.7.52.7.52l-.57-.67A17.06,17.06,0,0,1,84.64,58.09Z"/><path class="cls-9" d="M37.08,95.37A12.18,12.18,0,0,1,42,94.19a44.68,44.68,0,0,1,10.4.55l.45.08c.91.15,1.79.34,2.61.55Z"/><path class="cls-10" d="M52.84,94.82c.91.15,1.79.34,2.61.55H37.08A12.18,12.18,0,0,1,42,94.19a44.68,44.68,0,0,1,10.4.55Z"/><path class="cls-11" d="M42.74,17.15c-3.74-.64-7.32-1.92-9.56-5.63a7.64,7.64,0,0,0,1,2s.68,5.13,1.19,7.35a3.76,3.76,0,0,1,2.74,1.54,3.66,3.66,0,0,1,1,2.56l2.57-.51-.78-6.33A6.11,6.11,0,0,0,42.74,17.15Z"/><path class="cls-12" d="M55.76,48.76c-.16-.38-.32-.75-.47-1.13a6.65,6.65,0,0,1,.12,2.07S55.56,49.34,55.76,48.76Z"/><path class="cls-10" d="M52.84,94.82c.91.15,1.79.34,2.61.55H37.08A12.18,12.18,0,0,1,42,94.19a44.68,44.68,0,0,1,10.4.55Z"/><path class="cls-7" d="M67.57,64.11c0,.86-.09,1.72-.16,2.55a34.46,34.46,0,0,1-1.62,9.19A43.9,43.9,0,0,0,63.93,82c-.2.88-.38,1.76-.55,2.61v0c-.09.43-.16.85-.23,1.26-.18,1-.33,2-.44,2.86,0,.17-.05.34-.07.5a.09.09,0,0,1,0,0c0,.25-.05.48-.07.7s0,.24,0,.35,0,.43-.06.62a43.19,43.19,0,0,0,0,4.4h-28c.2-2.13.38-4.51.5-6.94.07-1.58.12-3.18.12-4.73v-.29c0-.56,0-1.12,0-1.67S35,80.6,34.92,80c0,0,0-.09,0-.13s0-.07,0-.1c-.48-4.78-2.14-11.18-3.75-17.05,0-.09,0-.18-.07-.27l0,0h0c-.62-2.27-1.23-4.46-1.76-6.44a49.51,49.51,0,0,1-1.7-7.73v-.06l0,0h0a.15.15,0,0,1,.06,0l.06,0,.08-.05.08,0L28,47.9l.11-.06.13-.08.14-.08.16-.09.15-.08.19-.11.18-.09.21-.12.2-.1.11-.06.34-.18.26-.13.24-.11.29-.15.25-.12.32-.15.26-.12.35-.16.26-.11.07,0,.63-.27.45-.19.19-.08.73-.29c1.07-.41,2.24-.81,3.49-1.18l.09,0c.7-.2,1.43-.39,2.18-.57l.46-.1.19,0h.07l.38-.08a1.91,1.91,0,0,1,.33-.06h0a32.62,32.62,0,0,1,5.78-.59h.34c.65,0,1.29,0,1.9,0l1.53.08.36,0c.5,0,1,.08,1.46.14h0l.81.09h0l.44.06.12,0,.36.06c.44.06.86.14,1.26.21h0l.32.06.11,0h.05a21.87,21.87,0,0,1,8,3.25c.47.33.88.64,1.25.94a6,6,0,0,1,1.25,3.14v0A65.54,65.54,0,0,1,67.57,64.11Z"/><path class="cls-8" d="M63.94,82c-.2.88-.39,1.76-.56,2.61v0c-.08.43-.16.85-.23,1.26-.18,1-.33,2-.44,2.86,0,.17-.05.34-.07.5a.09.09,0,0,1,0,0c0,.24-.05.48-.07.7s0,.24,0,.35,0,.43-.06.62a43.19,43.19,0,0,0,0,4.4H60.36a12.23,12.23,0,0,0-7.56-4.74l-.2,0h-.08l-.1,0a11.27,11.27,0,0,0-1.75-.13A12,12,0,0,0,42,94.19a11.42,11.42,0,0,0-1,1.18H34.44c.2-2.13.38-4.51.5-6.94.07-1.58.12-3.18.12-4.73v-.29c0-.56,0-1.12,0-1.67S35,80.6,34.92,80c0,0,0-.09,0-.13s0-.07,0-.1c-.48-4.78-2.14-11.18-3.75-17.05,0-.09,0-.18-.07-.27l0,0h0c-.62-2.27-1.23-4.46-1.76-6.44a49.51,49.51,0,0,1-1.7-7.73v-.06l0,0h0a.15.15,0,0,1,.06,0l.06,0,.08-.05.08,0L28,47.9l.11-.06.13-.08.14-.08.16-.09.15-.08.19-.11.18-.09.21-.12.2-.1.11-.06.12-.07.22-.11.26-.13.24-.11.29-.15.25-.12.32-.15.26-.12.35-.16.26-.11.07,0,.33-.15.26-.11h0l.45-.19.19-.08.73-.29a6,6,0,0,0-.33,1.39,87.21,87.21,0,0,0,1.2,18.78,27.72,27.72,0,0,0,5.33,12.64c.28.36.57.71.88,1l.44.48a18.16,18.16,0,0,0,2.38,2.1,11.51,11.51,0,0,0,1.23.83l.28.18h0l0,0a14.69,14.69,0,0,0,3.11,1.37c.36.12.73.22,1.1.31l.21.05c.57.12,1.13.22,1.7.29H52l.08,0,.16,0,.6.05.24,0h.07l.41,0a19.21,19.21,0,0,0,2.63-.06h0c.36,0,.72-.08,1.08-.14A17.89,17.89,0,0,0,63.93,82Z"/><path class="cls-9" d="M65.39,76.31a4,4,0,0,1,.09-.58c.08-.37.19-.89.32-1.52s.27-1.37.41-2.16.33-1.62.42-2.48c.21-1.69.47-3.38.53-4.67s.16-2.13.16-2.13,0-.21.06-.58,0-.9,0-1.54,0-1.38,0-2.18-.07-1.65-.11-2.5-.13-1.7-.18-2.5S67,51.92,67,51.29s-.1-1.18-.13-1.55a2.69,2.69,0,0,1,0-.59,4.55,4.55,0,0,1,.11.58c0,.37.13.9.22,1.53s.18,1.38.27,2.18.2,1.65.25,2.5.12,1.72.17,2.52,0,1.55,0,2.2,0,1.18,0,1.56,0,.58,0,.58l-.2,2.14c-.08,1.29-.38,3-.64,4.69-.11.85-.33,1.68-.48,2.47s-.32,1.53-.5,2.15-.3,1.14-.4,1.5A2.67,2.67,0,0,1,65.39,76.31Z"/><path class="cls-9" d="M52.89,94l0,.78c0,.17,0,.35,0,.55h-.43c0-.23,0-.44,0-.63,0-.43,0-.71,0-.71l.08-2.62,0-.71v-.12a11.19,11.19,0,0,1,.15-1.8,7.25,7.25,0,0,1,.12,1.51c0,.11,0,.22,0,.34s0,.52,0,.78c0,.66,0,1.32.05,1.81S52.89,94,52.89,94Z"/><path class="cls-5" d="M40.16,42.27s4.1,10.51,6.15,15.12,2.56,14.86,3.33,17.17,2.48,11,2.48,11A45.07,45.07,0,0,0,58.87,70c2.05-9.23,0-21.53-3.59-26.4S45,39.45,40.16,42.27Z"/><path class="cls-12" d="M40.16,42.27s4.1,10.51,6.15,15.12,2.56,14.86,3.33,17.17,2.48,11,2.48,11A45.07,45.07,0,0,0,58.87,70c2.05-9.23,0-21.53-3.59-26.4S45,39.45,40.16,42.27Z"/><path class="cls-13" d="M47.59,46.37s1.28,3.2,3.08,4.23c0,0-.52,7-.77,12.43s2.39,23.88,2.39,23.88,4.27-12.09,5-17.48-3.85-19.09-3.85-19.09,1.93-.77,1.41-4.61S48.36,39.19,47.59,46.37Z"/><path class="cls-14" d="M53.26,66.56c-.34-4.78-1.64-9.72-.39-14.47a2.09,2.09,0,0,1,.79-1.21c-.11-.34-.18-.54-.18-.54A2.86,2.86,0,0,0,54.9,48a4.35,4.35,0,0,1-2,.73A3.15,3.15,0,0,1,51,48.22a3.1,3.1,0,0,1-1.41-2.45,3.34,3.34,0,0,1,.64-2.07,2.4,2.4,0,0,1,1.33-1,2.28,2.28,0,0,1,1.73.23l.27.17c-2-1.92-5.37-2-5.93,3.3,0,0,1.28,3.2,3.08,4.23,0,0-.52,7-.77,12.43s2.39,23.88,2.39,23.88.69-2,1.57-4.66C53.52,77,53.64,71.78,53.26,66.56Z"/><path class="cls-8" d="M60.72,51.33c-4.78-11.69-7.47-9.76-7.47-9.76A53.06,53.06,0,0,1,57,64.72a104.13,104.13,0,0,1-4.63,23.64c-.44-5.22-1.61-17.83-3.18-25.27-2-9.55-8.83-18-7.83-22.81,0,0-4.61,2.4-4.44,7s1.85,14.33,3.7,16.36,5.72,1,5.72,1-3.54,5.79-2.19,9.69a51.51,51.51,0,0,0,3.75,7.73c.82,1.51,1.66,3,2.47,4.51s1.1,2.89,2.15,4.09c.7-1.29,2.19-2.41,3.07-3.67a31.55,31.55,0,0,0,2.68-4.69,45.45,45.45,0,0,0,3.21-9.18c1.39-6-1.41-9.59-1.41-9.59C62.31,63,64.08,59.53,60.72,51.33Z"/><path class="cls-9" d="M41.37,40.28s-4.61,2.31-4.44,6.77,1.85,13.79,3.7,15.74,5.72,1,5.72,1-3.54,5.57-2.19,9.34,5.72,10.58,8.41,15.74c0,0-1.35-17.42-3.37-26.61S40.37,44.88,41.37,40.28Z"/><path class="cls-10" d="M47.7,66.81a11.49,11.49,0,0,1,1.49-4.62l-.06-.26a10.37,10.37,0,0,1-5-2.49c-3.77-3-4.63-7.62-5.14-12.11a8.33,8.33,0,0,1,2.3-5.93,5.09,5.09,0,0,1,.09-1.12s-4.61,2.31-4.44,6.77,1.85,13.79,3.7,15.74,5.72,1,5.72,1-3.54,5.57-2.19,9.34,5.72,10.58,8.41,15.74c0,0-.11-1.43-.32-3.67C49.1,79.6,47,73.27,47.7,66.81Z"/><path class="cls-9" d="M52.05,87.5a96.62,96.62,0,0,0,5-23.69,49.43,49.43,0,0,0-3.76-22.29s2.69-1.85,7.47,9.4c3.36,7.89,1.59,11.26-.64,11.79,0,0,2.8,3.45,1.41,9.22-1.15,4.83-4.31,13.13-9.27,17Z"/><path class="cls-10" d="M57.68,72.39c.4-1.92,1.2-7,3.4-7.85a7.71,7.71,0,0,0-1-1.83A2.94,2.94,0,0,0,62,61.12c-1.71-1.26-2.67-3.87-3.11-6a25.2,25.2,0,0,0-1.56-5.84,65.08,65.08,0,0,1-3.51-7.87s0,0,0,0a1,1,0,0,0-.57.11A49.43,49.43,0,0,1,57,63.81a96.62,96.62,0,0,1-5,23.69l.17,1.39a19.44,19.44,0,0,0,4.42-5.15C56,80.05,57,75.79,57.68,72.39Z"/><path class="cls-5" d="M42.38,37.14a5.21,5.21,0,0,0-.56,7.69,13.57,13.57,0,0,0,6.54,5.38s-1.2-4.87,2.56-7.77c0,0,5,2.3,4.49,7.26a13.36,13.36,0,0,0,1-6.58C55.88,39.87,49.73,34.58,42.38,37.14Z"/><path class="cls-12" d="M54.18,43.05s0-.06,0-.09a5.78,5.78,0,0,1,.51-2.89,11.6,11.6,0,0,0-12.3-2.93,5.44,5.44,0,0,0-2,4.81A2.13,2.13,0,0,1,42,41.23c2.65-.08,5.33,0,6.59,2.86.11.26.21.53.3.79a6.88,6.88,0,0,1,2-2.44,9.27,9.27,0,0,1,3.4,2.94A6.26,6.26,0,0,1,54.18,43.05Z"/><path class="cls-15" d="M50.44,41.65a9.51,9.51,0,0,0,3-.79c0-.07-1.52.38-3.07.45a16,16,0,0,1-2.12,0l-.69-.09a1.44,1.44,0,0,1-.26,0l-.26,0A6.37,6.37,0,0,1,46.4,41a8.32,8.32,0,0,1-2-.72A7,7,0,0,1,42.75,39a7.79,7.79,0,0,0-.67-.71,2.86,2.86,0,0,0,.53.83,6.45,6.45,0,0,0,1.66,1.42,8.13,8.13,0,0,0,2,.85,4.05,4.05,0,0,0,.7.17l.27.06.27,0,.72.07A14,14,0,0,0,50.44,41.65Z"/><path class="cls-15" d="M54.74,45.65a3.88,3.88,0,0,0-.23-.46,1.57,1.57,0,0,1-.09-.17s-.15-.24-.41-.57a6,6,0,0,0-1.11-1.06,5,5,0,0,0-1.38-.68l-.49-.1.16-.11c.36-.23.64-.32.63-.36s-.08,0-.21,0a2,2,0,0,0-.51.18,3.77,3.77,0,0,0-1.3,1,6.67,6.67,0,0,0-.91,1.38c-.09.2-.16.37-.22.49l-.08.19a10,10,0,0,0-.46,2.33,7.76,7.76,0,0,0,0,1.63,1.67,1.67,0,0,0,.19.71,3.54,3.54,0,0,0,0-.73,9.15,9.15,0,0,1,.11-1.57,10.93,10.93,0,0,1,.58-2.2l.06-.19c0-.11.11-.28.19-.48a7,7,0,0,1,.76-1.35,5.67,5.67,0,0,1,.87-.89l.52.22a5.76,5.76,0,0,1,1.24.77,6,6,0,0,1,1,1.06c.23.32.36.55.36.55l.09.16c.06.1.15.24.24.41a12,12,0,0,1,.59,1.35c.36,1,.53,2.09.61,2.08a6.77,6.77,0,0,0-.29-2.18A9.9,9.9,0,0,0,54.74,45.65Z"/><path class="cls-15" d="M56.5,44.43c0-.51-.08-1-.14-1.4a4,4,0,0,0-.13-.63,4.48,4.48,0,0,0-.21-.61,6.45,6.45,0,0,0-.67-1.25,4.79,4.79,0,0,0-1-1,1.84,1.84,0,0,0-.55-.33s.16.2.42.46a6.49,6.49,0,0,1,.81,1.07,6.19,6.19,0,0,1,.54,1.22c.11.35.17.58.17.58s.07.24.15.6.17.84.24,1.34a15.64,15.64,0,0,0,.23,2A8.1,8.1,0,0,0,56.5,44.43Z"/><path class="cls-15" d="M46,48.77C45.42,48.3,44.69,47.65,44,47a18.4,18.4,0,0,1-1.71-2,10.5,10.5,0,0,1-.65-1,8.63,8.63,0,0,1-.55-1,5.27,5.27,0,0,1-.51-2.49,4.24,4.24,0,0,1,.31-1.33,5.09,5.09,0,0,1,.61-1c.43-.57.8-.89.77-.92a1.15,1.15,0,0,0-.28.19,5.56,5.56,0,0,0-.64.61A5.19,5.19,0,0,0,40.66,39a4.34,4.34,0,0,0-.4,1.41,5.65,5.65,0,0,0,.44,2.7,8.76,8.76,0,0,0,.55,1.11,9.5,9.5,0,0,0,.71,1,16,16,0,0,0,1.83,2,19.32,19.32,0,0,0,2.07,1.7,5.51,5.51,0,0,0,1,.66A6.59,6.59,0,0,0,46,48.77Z"/><path class="cls-9" d="M31.61,91.29A10.66,10.66,0,0,0,34.55,80S28.38,83.32,31.61,91.29Z"/><path class="cls-7" d="M27.71,48.15c.33.32,4.63.92,5.94,5.76A9.29,9.29,0,0,1,32,62.13L14.76,74.28S29.85,78.86,34.55,80c0,0-4.11,3-2.94,11.26,0,0-27.07-6.68-31.23-13.91S27.71,48.15,27.71,48.15Z"/><path class="cls-8" d="M34.55,80c-4.7-1.17-19.79-5.75-19.79-5.75L32,62.13a9.29,9.29,0,0,0,1.69-8.22,7.86,7.86,0,0,0-5.45-5.55A6.82,6.82,0,0,1,29.27,56c-3.64,8.22-10.89,14.75-20,16.13A7.62,7.62,0,0,1,2.86,70h0c-.28.37-.55.74-.8,1.1l0,0c-.24.35-.47.7-.67,1a.25.25,0,0,0,0,.07c-.19.32-.37.64-.52,1,0,0,0,.1-.07.15-.13.28-.25.55-.35.82,0,.08,0,.15-.07.23A6.34,6.34,0,0,0,.12,75a1.75,1.75,0,0,0,0,.32,3.31,3.31,0,0,0-.06.53,2.72,2.72,0,0,0,0,.42,2.21,2.21,0,0,0,0,.37s0,0,0,0a3,3,0,0,0,.27.67c.12.2.26.41.41.62l.23.27.27.31c.12.13.25.27.39.4l.16.15.55.49a7.89,7.89,0,0,1,3.52-1.41c9.31-1.4,21.07,4.1,24.77,12.85l.26.06h0l.23.06.43.1C30.44,83,34.55,80,34.55,80Z"/><path class="cls-9" d="M10.1,73.38a16,16,0,0,1,3.51.56c.86.26,1.39.46,1.39.46l-1.44-.27a29.17,29.17,0,0,0-3.47-.35,21.25,21.25,0,0,0-3.46.2l-1.43.27s.51-.21,1.38-.46A13.12,13.12,0,0,1,10.1,73.38Z"/><path class="cls-9" d="M11,73.8a7.34,7.34,0,0,1,2.25.13,6.17,6.17,0,0,1,.9.25,26.36,26.36,0,0,0-3.16.1,9.79,9.79,0,0,0-2.2.46,3.22,3.22,0,0,0-.66.3,2,2,0,0,0-.24.12L8.06,75a3,3,0,0,1,.63-.46A5.73,5.73,0,0,1,11,73.8Z"/><path class="cls-9" d="M32.74,60.05A10.41,10.41,0,0,0,33,58v-.93a19.82,19.82,0,0,0-.45-2.93,9.34,9.34,0,0,0-.94-2.79c-.08,0,.32,1.43.51,2.87a24,24,0,0,1,.26,2.88s0,.36,0,.9a10,10,0,0,1-.14,2,4.11,4.11,0,0,1-.67,1.79,2.37,2.37,0,0,1-.42.48c-.11.12-.17.19-.16.21s.09,0,.23-.1a1.9,1.9,0,0,0,.54-.43A4.17,4.17,0,0,0,32.74,60.05Z"/><path class="cls-2" d="M40.22,77.69c-4.52-1-7.08,4.9-7.08,4.9l-.43-.15a12.27,12.27,0,0,0-1.26,4.73c1.39.63,3.39,1.43,4.23,1.31,1.36-.19,1.52-3.6,1.52-3.6s5.31,3.26,7.66.62S44.74,78.69,40.22,77.69Z"/><path class="cls-3" d="M45.36,84.77a2.26,2.26,0,0,0,.18-.39,1.87,1.87,0,0,0,.07-.22,2.66,2.66,0,0,0,.1-.38l0-.23c0-.13,0-.26,0-.4s0-.14,0-.21,0-.29,0-.43a1.29,1.29,0,0,1,0-.19,4,4,0,0,0-.14-.46s0-.1-.05-.15a4.59,4.59,0,0,0-.24-.5.37.37,0,0,0,0-.11,6.65,6.65,0,0,0-.36-.56l0,0c-2.36,3.68-8.14,5-11.58,1.91a.33.33,0,0,1,0,.06l0,.11-.43-.15a12.27,12.27,0,0,0-1.26,4.73h0l.46.21.15.06.38.16.19.08.38.15.18.07.54.19,0,0,.48.15.16,0,.33.08.16,0,.29,0h.46c1.36-.19,1.52-3.6,1.52-3.6s5.31,3.26,7.66.62a3.75,3.75,0,0,0,.4-.54A1.74,1.74,0,0,0,45.36,84.77Z"/><path class="cls-6" d="M37.69,82.25c0,.06.78.28,1.49.67a7.94,7.94,0,0,1,.93.6l.29.21.11.09.38.32a7,7,0,0,1,.79.77c.52.62.86,1.36.92,1.34a4.53,4.53,0,0,0-.71-1.51,8.69,8.69,0,0,0-.76-.86c-.24-.21-.39-.36-.39-.36l-.12-.08-.32-.21a8.22,8.22,0,0,0-1-.55A4.62,4.62,0,0,0,37.69,82.25Z"/><path class="cls-6" d="M38.77,80s1,.42,2,.93a12,12,0,0,1,1.84,1.15s.22.15.53.41a5.08,5.08,0,0,1,1,1.09A3.42,3.42,0,0,1,44.66,85a6.46,6.46,0,0,0,.05.68A1.71,1.71,0,0,0,44.8,85a3.39,3.39,0,0,0-.44-1.49,5.73,5.73,0,0,0-1-1.21c-.31-.28-.53-.45-.53-.45s-.24-.17-.59-.39a14.35,14.35,0,0,0-1.37-.7A8.29,8.29,0,0,0,38.77,80Z"/><path class="cls-6" d="M39.08,78.33s.31.07.75.2a12.59,12.59,0,0,1,3.09,1.36,7.16,7.16,0,0,1,.63.43,5.4,5.4,0,0,1,.62.45A5.31,5.31,0,0,1,45.27,82a2.43,2.43,0,0,1,.37,1.57c0,.45-.19.74-.16.75s.05-.06.12-.18a2.35,2.35,0,0,0,.19-.54,2.49,2.49,0,0,0-.29-1.72,5.07,5.07,0,0,0-1.11-1.36,7.28,7.28,0,0,0-.62-.5s-.26-.18-.68-.41a10.56,10.56,0,0,0-1.57-.74,9.46,9.46,0,0,0-1.66-.47A2.21,2.21,0,0,0,39.08,78.33Z"/><path class="cls-6" d="M35.34,84.2s.29.21.61.37.64.25.64.25l.66.16a2.08,2.08,0,0,0,.68.16s-.27-.23-.58-.41l-.65-.26L36,84.32C35.71,84.23,35.37,84.15,35.34,84.2Z"/><path class="cls-6" d="M32.78,86.12c.06,0,.08-1,.26-1.87A12.21,12.21,0,0,1,33.37,83c.12-.33.19-.55.19-.55a10,10,0,0,1,.8-1.69c.5-.8,1.18-1.46,1.14-1.5a5.41,5.41,0,0,0-1.36,1.35,9.93,9.93,0,0,0-.93,1.71L33,82.9a10.63,10.63,0,0,0-.26,1.3A6.59,6.59,0,0,0,32.78,86.12Z"/><path class="cls-11" d="M42.9,17.42c-3.71-.64-7.27-1.91-9.48-5.59a7.78,7.78,0,0,0,1,2s.68,5.08,1.19,7.28a3.7,3.7,0,0,1,2.71,1.53,3.61,3.61,0,0,1,1,2.54l2.54-.51-.76-6.27A6.12,6.12,0,0,0,42.9,17.42Z"/><path class="cls-2" d="M52.27,3.32s8,1.47,10.22,6.6,1.78,13.41,1.78,13.41a27.27,27.27,0,0,1-.11,8.21,5.16,5.16,0,0,1-2.29,4c-2.16,1.36-5.4,1.11-8,1.31-1.63.77-.15,2.39-.8,3.91-3.83,1.84-7.11.46-9.56-1.34-1.59-1.16-.68-5.82-3.53-8.64a1.53,1.53,0,0,1-.24-.34s-4.63,1.89-7.1-1.81-1.23-9.34,4.14-7.18C36.75,21.49,34.63,3.61,52.27,3.32Z"/><g class="cls-16"><path class="cls-6" d="M37.34,25.16c.93,1.55.72,3.39-.47,4.11s-2.13-.06-3.07-1.6-1.51-3.28-.32-4S36.4,23.62,37.34,25.16Z"/></g><path class="cls-6" d="M37.61,25.62a4.09,4.09,0,0,0-.34-.6,4.29,4.29,0,0,0-.45-.52,4.39,4.39,0,0,0-1.22-.87,2.89,2.89,0,0,0-1.44-.33,1.17,1.17,0,0,0-.65.16s.26,0,.64,0a3.14,3.14,0,0,1,1.3.44,4.39,4.39,0,0,1,1.06.88,4.92,4.92,0,0,1,.39.49,4,4,0,0,1,.34.53s0,.1.08.15h0a1.41,1.41,0,0,0-.75-.17,1.58,1.58,0,0,0-.76.22,2,2,0,0,0-.22.15l-.08.07-.06.08a.89.89,0,0,0-.16.22,1.59,1.59,0,0,0-.22.77,1.44,1.44,0,0,0,.19.74c.13.18.22.27.24.25s0-.14-.07-.32a1.54,1.54,0,0,1,0-.65,1.38,1.38,0,0,1,.25-.56,1.08,1.08,0,0,1,.19-.21l.05-.05a1.26,1.26,0,0,1,.16-.13,1.39,1.39,0,0,1,.56-.26,1.56,1.56,0,0,1,.65,0l.17.05a3.74,3.74,0,0,1,.28.93,3.67,3.67,0,0,1,0,.74,2.53,2.53,0,0,1-.17.62c-.14.36-.3.57-.28.59s.24-.15.44-.51a2.67,2.67,0,0,0,.26-.66,3.55,3.55,0,0,0,.06-.81A3.7,3.7,0,0,0,37.61,25.62Z"/><g class="cls-16"><path class="cls-6" d="M58.2,25a1.51,1.51,0,0,1-1.75,1,1.27,1.27,0,0,1-1.23-1.44S54,25.64,54,26.18,59.32,28.32,58.2,25Z"/></g><path class="cls-6" d="M54,26.05s.12-.16.29-.37a2.93,2.93,0,0,1,.75-.67A3.29,3.29,0,0,1,56,24.6a2,2,0,0,1,.43-.09l.12,0,.31,0a1.22,1.22,0,0,1,.83.3,1.52,1.52,0,0,1,.41.83c0,.27.06.47.1.47a1,1,0,0,0,.09-.48,1.61,1.61,0,0,0-.37-1.06,1.34,1.34,0,0,0-.51-.37,2.4,2.4,0,0,0-.53-.13,2.36,2.36,0,0,0-.38,0h-.14a2.6,2.6,0,0,0-.5.14,3.56,3.56,0,0,0-1,.56,2.53,2.53,0,0,0-.7.84C54,25.84,54,26,54,26.05Z"/><path class="cls-7" d="M48.22,22.7c.05,1.17.7,2.09,1.44,2.06s1.3-1,1.25-2.18-.7-2.1-1.44-2.06S48.17,21.53,48.22,22.7Z"/><path class="cls-7" d="M59.58,22.26c.06,1.17.7,2.09,1.44,2.06s1.31-1,1.26-2.18-.7-2.09-1.45-2.06S59.53,21.09,59.58,22.26Z"/><path class="cls-3" d="M62.94,11.11c-.13-.39-.28-.79-.45-1.19-2.21-5.13-10.22-6.6-10.22-6.6-17.64.29-15.52,18.17-15.52,18.17l-.31-.11c.06.29.11.55.17.78a3.72,3.72,0,0,1,2.71,1.53c1.18,1.52,0,1.52,0,1.52l3.18-.42-.39-5.34s4.24-1.27,4.83-6.86a30.59,30.59,0,0,0,11.7-1.11A13.22,13.22,0,0,0,62.94,11.11Z"/><path class="cls-17" d="M34.4,13.86s.68,5.08,1.19,7.28a3.7,3.7,0,0,1,2.71,1.53A8,8,0,0,1,39.77,26l2.47-.24-.59-7.27s3.69-1.32,4.28-6.91a30.64,30.64,0,0,0,11.69-1.1,13,13,0,0,0,4.87-.55s1.57,3.77,1.4,6.31a23.59,23.59,0,0,0,.34,5.93l1.19-.85L65,17.8A6.56,6.56,0,0,0,64.74,10s6.44-2.79.68-9.91a10.9,10.9,0,0,1-8.31,1C52.54-.21,38.47-1.56,36.78,5.55,36.78,5.55,30.67,8.26,34.4,13.86Z"/><path class="cls-11" d="M65.48.21C61.08,5.74,53,8.69,46.3,5.88a8.72,8.72,0,0,1-.87-.42A5.26,5.26,0,0,1,41.91.91c-2.57.8-4.56,2.23-5.13,4.64a7.42,7.42,0,0,0-1.39.87,28.1,28.1,0,0,0,10.35,6.29c.08-.36.14-.74.19-1.14a30.64,30.64,0,0,0,11.69-1.1,13,13,0,0,0,4.87-.55s1.57,3.77,1.4,6.31a23.59,23.59,0,0,0,.34,5.93l1.19-.85L65,17.8A6.56,6.56,0,0,0,64.74,10S71.12,7.27,65.48.21Z"/><path class="cls-11" d="M40,14.87c-3.26.45-4.94-.51-5.72-1.21l.12.2s.68,5.08,1.19,7.28a3.7,3.7,0,0,1,2.71,1.53A8,8,0,0,1,39.77,26l2.47-.24L42,23.13l-.92-4.7s4.24-1.27,4.83-6.86C45.93,11.57,44.91,14.2,40,14.87Z"/><path class="cls-11" d="M63.89,16.23a23.59,23.59,0,0,0,.34,5.93l1.19-.85L65,17.8a6.55,6.55,0,0,0-.23-7.73,3.33,3.33,0,0,1-2.27-.15S64.06,13.69,63.89,16.23Z"/><path class="cls-18" d="M61.68,7.52A12,12,0,0,0,63.09,6a9.92,9.92,0,0,0,1-1.59,5.71,5.71,0,0,0,.28-.67,3.4,3.4,0,0,0,.18-.54,1.5,1.5,0,0,0,.11-.48s-.24.68-.74,1.61a10.15,10.15,0,0,1-1,1.5,11.75,11.75,0,0,1-1.43,1.49,14.76,14.76,0,0,1-3.22,2.1c-.95.46-1.62.7-1.62.7s-.64.26-1.65.58a23.86,23.86,0,0,1-3.78.8,21.08,21.08,0,0,1-3.87.15c-1.06-.06-1.76-.2-1.76-.16a1.41,1.41,0,0,0,.47.14,11.87,11.87,0,0,0,1.27.2,19.69,19.69,0,0,0,3.93,0,22.4,22.4,0,0,0,3.86-.72c1-.3,1.71-.56,1.71-.56a16.8,16.8,0,0,0,1.64-.75A14.63,14.63,0,0,0,61.68,7.52Z"/><path class="cls-18" d="M62.57,9.47l.23-.13L63,9.18a5.13,5.13,0,0,0,.53-.45A7.81,7.81,0,0,0,64.9,7.12a8.27,8.27,0,0,0,.89-1.88A3.37,3.37,0,0,0,66,4.32a4.43,4.43,0,0,0-.39.85,10.59,10.59,0,0,1-1,1.77A8.48,8.48,0,0,1,63.26,8.4a4.88,4.88,0,0,1-.53.4l-.2.14-.21.13a4.48,4.48,0,0,1-.56.34,9.42,9.42,0,0,1-1.86.76c-1.42.41-2.92.43-2.91.51a3.52,3.52,0,0,0,.93.06A10.35,10.35,0,0,0,60,10.49a8.16,8.16,0,0,0,2-.69A6.09,6.09,0,0,0,62.57,9.47Z"/><path class="cls-18" d="M67.54,3.43c-.08,0-.06,1.29-.37,2.51a5.94,5.94,0,0,1-.6,1.59,3.7,3.7,0,0,1-.29.47l-.12.17L66,8.34a2.51,2.51,0,0,1-.37.4,4.14,4.14,0,0,1-1.4.91,6.9,6.9,0,0,1-1.65.42,2.91,2.91,0,0,0-.79.1,2.85,2.85,0,0,0,.8.08A5.75,5.75,0,0,0,64.38,10,4.2,4.2,0,0,0,66,9.07a3.4,3.4,0,0,0,.43-.44l.15-.17.13-.2A4.24,4.24,0,0,0,67,7.74,6,6,0,0,0,67.5,6,7.12,7.12,0,0,0,67.54,3.43Z"/><path class="cls-18" d="M37.38,4.56A4.36,4.36,0,0,1,38,3.49a5.17,5.17,0,0,1,1-1,8.14,8.14,0,0,1,2.35-1.14c.69-.21,1.17-.31,1.17-.31S43,.94,43.66.81,45.35.56,46.33.49s2-.11,2.69-.14A7.51,7.51,0,0,0,50.25.26,5.82,5.82,0,0,0,49,.16c-.74,0-1.73,0-2.71,0a24.56,24.56,0,0,0-2.72.23c-.73.1-1.22.22-1.22.22s-.49.11-1.2.35a8,8,0,0,0-2.42,1.3,4.89,4.89,0,0,0-1,1.09A4.49,4.49,0,0,0,37.2,4.5a3.48,3.48,0,0,0-.12.49,2.08,2.08,0,0,0,0,.39c0,.22,0,.34,0,.34S37.12,5.23,37.38,4.56Z"/><path class="cls-18" d="M60.18,2.44l.93-.19a12.14,12.14,0,0,0,2-.61,7.87,7.87,0,0,0,1.84-1A3,3,0,0,0,65.63,0a8.11,8.11,0,0,0-.8.49A9.65,9.65,0,0,1,63,1.33a13.74,13.74,0,0,1-2,.49L60.11,2a24.92,24.92,0,0,1-2.94.3c-1.49.07-3,0-3,0a12.54,12.54,0,0,0,3,.31A21.71,21.71,0,0,0,60.18,2.44Z"/><path class="cls-18" d="M40.14,4.39l.31-.27a10.13,10.13,0,0,1,1-.88,12.06,12.06,0,0,0,1.12-.82A3.72,3.72,0,0,0,41.31,3a8.93,8.93,0,0,0-1.17.81l-.32.32a5.58,5.58,0,0,0-.6.79,3.16,3.16,0,0,0-.39.91c-.06.27,0,.45,0,.45s.09-.16.2-.39a3.93,3.93,0,0,1,.49-.78A6,6,0,0,1,40.14,4.39Z"/><path class="cls-18" d="M40.84,6A6.41,6.41,0,0,1,42.18,4.6a8.57,8.57,0,0,1,1.7-.93c.5-.19.83-.29.83-.29L45,3.31a5.38,5.38,0,0,1,.62-.19,14.6,14.6,0,0,1,1.92-.37c1.43-.19,2.88-.14,2.89-.2a10.25,10.25,0,0,0-2.92-.14,15.8,15.8,0,0,0-2,.28c-.27.05-.49.13-.65.17l-.25.06s-.34.13-.85.35A7.62,7.62,0,0,0,42,4.34a5.61,5.61,0,0,0-1.3,1.55,2.47,2.47,0,0,0-.34.85S40.53,6.43,40.84,6Z"/><path class="cls-18" d="M34.11,10.3s.09-.17.21-.4a6.32,6.32,0,0,1,.52-.81,6.51,6.51,0,0,1,.94-1l.31-.29a3.68,3.68,0,0,1,.77-.52,1.57,1.57,0,0,1,.88-.19c.25,0,.41.09.43,0s0,0-.09-.09a1,1,0,0,0-.31-.15,1.65,1.65,0,0,0-1,.07,3.22,3.22,0,0,0-.91.48,4.71,4.71,0,0,0-.37.3,6.48,6.48,0,0,0-.9,1.17,3.83,3.83,0,0,0-.4.94C34.07,10.1,34.08,10.3,34.11,10.3Z"/><path class="cls-18" d="M37.81,10.9c0-.08,0-.21,0-.36a5.7,5.7,0,0,1,.3-1.07,6.6,6.6,0,0,1,.51-1c.16-.27.29-.43.27-.46s-.2.1-.42.34a4.91,4.91,0,0,0-.67,1,5.43,5.43,0,0,0-.42,1.12,2,2,0,0,0-.08.4c0,.09,0,.15,0,.15a4.65,4.65,0,0,0,0,.56,2.37,2.37,0,0,0,.43,1.17,1.94,1.94,0,0,0,1,.69,1.24,1.24,0,0,0,.54.06s-.19-.12-.47-.23a2,2,0,0,1-.8-.71,2.13,2.13,0,0,1-.27-1c0-.3,0-.49,0-.49S37.8,11,37.81,10.9Z"/><path class="cls-18" d="M38.43,14.75s-.35.08-.86.12a3.13,3.13,0,0,1-1.79-.39,4.22,4.22,0,0,1-1.37-1.21,4.82,4.82,0,0,1-.45-.71,4.38,4.38,0,0,1-.36-.76,4.78,4.78,0,0,1-.33-1.8,4.37,4.37,0,0,1,.14-1,4.28,4.28,0,0,1,.34-.8c.26-.44.51-.69.48-.72a1.89,1.89,0,0,0-.63.62,3.31,3.31,0,0,0-.44.82,4.37,4.37,0,0,0-.23,1,5.52,5.52,0,0,0,.61,2.81,4.91,4.91,0,0,0,.52.76,4.62,4.62,0,0,0,1.57,1.24,3.62,3.62,0,0,0,1,.29,3.14,3.14,0,0,0,.93,0A1.94,1.94,0,0,0,38.43,14.75Z"/><path class="cls-18" d="M45.38,13.76a8.59,8.59,0,0,1-.78,1.54,6.83,6.83,0,0,1-1.12,1.3,4.26,4.26,0,0,1-.43.36l-.17.13s-.25.19-.64.44a7.64,7.64,0,0,1-1.56.69A7.77,7.77,0,0,1,39,18.5a4,4,0,0,0-.8.06,2.32,2.32,0,0,0,.8.13,6.85,6.85,0,0,0,1.79-.15,7.12,7.12,0,0,0,1.7-.63c.43-.24.7-.43.7-.43l.18-.15a4.76,4.76,0,0,0,.44-.41,6.39,6.39,0,0,0,1.1-1.44,7.16,7.16,0,0,0,.68-1.67,2.32,2.32,0,0,0,.11-.8A3.89,3.89,0,0,0,45.38,13.76Z"/><path class="cls-18" d="M65.7,11.84A4.87,4.87,0,0,0,65,10.59c-.23-.32-.43-.48-.45-.46s.12.23.3.56A6,6,0,0,1,65.38,12a7.81,7.81,0,0,1,.25,1.33c0,.37,0,.62,0,.62v.16c0,.11,0,.27,0,.45a5.74,5.74,0,0,1-.19,1.33,4,4,0,0,1-.56,1.23c-.21.3-.39.48-.36.52a1.63,1.63,0,0,0,.51-.41A3.9,3.9,0,0,0,65.82,16a6.58,6.58,0,0,0,.3-1.42c0-.19,0-.36,0-.47v-.18s0-.27-.07-.65A7.63,7.63,0,0,0,65.7,11.84Z"/><path class="cls-3" d="M53.84,36.89c2.63-.2,5.87,0,8-1.31a5.16,5.16,0,0,0,2.29-4,18.71,18.71,0,0,0,.38-3.66,16.52,16.52,0,0,1-1.39,5c-1.62,3.07-6.72,3.88-14.33,3.07S40.15,30,40.15,30L40,30.9c2.76,2.83,1.89,7.41,3.46,8.56a12,12,0,0,0,3.45,1.82c1-1.73,2.23-3.53,3.34-3.31s1.83,1.75,2.2,3.08c.19-.08.38-.15.57-.25C53.69,39.28,52.21,37.66,53.84,36.89Z"/><path class="cls-17" d="M47.78,17.34c0-.05.14,0,.29,0a1.62,1.62,0,0,0,.53,0,1.71,1.71,0,0,0,.47-.18l.2-.12a2.36,2.36,0,0,0,.63-.41c.29-.25.46-.63.56-.62s.09.5-.17.93a2.41,2.41,0,0,1-.68.71l-.3.11a2.08,2.08,0,0,1-.69.08,1.42,1.42,0,0,1-.64-.21C47.82,17.48,47.75,17.38,47.78,17.34Z"/><path class="cls-17" d="M62.44,15.57c-.11,0-.3-.3-.57-.48a1.49,1.49,0,0,0-.41-.17.58.58,0,0,0-.18,0l-.19-.05a.4.4,0,0,0-.2,0h-.24c-.34,0-.68.19-.75.11s.2-.41.63-.59c.1,0,.22-.06.32-.09a1.09,1.09,0,0,1,.3,0l.3,0,.27.13a1.6,1.6,0,0,1,.49.4C62.5,15.11,62.52,15.56,62.44,15.57Z"/><path class="cls-17" d="M65.05,18.91l-1.26,0,0,.16a1.42,1.42,0,0,0,.07-.14l-.16,8.57s-2.13-1.67-8.44-1.09a26.7,26.7,0,0,0-10.16,2.8s-.54-5.32-3.48-8.11l-5.94.16c1.18.53,3.78,2.39,3.83,4.84.06,3.41-.24,3.86-.24,3.86-.54.91,1.67,4.53,2.34,5.15a12.15,12.15,0,0,0,4.91,2.7c3.43.94,8.44.65,11.91.14,7.27-1,7.83-3.84,7.76-7.55A70,70,0,0,0,65.05,18.91Z"/><path class="cls-11" d="M66.22,30.36a70,70,0,0,0-1.17-11.45l-1.26,0,0,.16a1.42,1.42,0,0,0,.07-.14l-.1,5.35A6.19,6.19,0,0,1,64.53,31C62.45,35,58.31,36.25,54.17,36c-2.77-.13-5.21-.2-7.71-1.63a9.16,9.16,0,0,1-3.56-4.26,9.67,9.67,0,0,1-1-4,3.85,3.85,0,0,1,1.38-2.85c-.1-.2-.22-.39-.34-.58l0,0a5.14,5.14,0,0,0-.37-.54l0-.05c-.13-.17-.27-.34-.41-.5a.08.08,0,0,0,0,0,5.11,5.11,0,0,0-.45-.48l-.73,0-4.7.12h-.51c1.18.53,3.78,2.39,3.83,4.84.06,3.41-.24,3.86-.24,3.86-.54.91,1.67,4.53,2.34,5.15a12.15,12.15,0,0,0,4.91,2.7c3.43.94,8.44.65,11.91.14l.66-.1C65.77,36.69,66.28,34,66.22,30.36Z"/><path class="cls-7" d="M58.59,29a3.16,3.16,0,0,0-3.17-.57c-.78.27-1.86,1.1-1.79,2.18s1.61.73,2.22.6a5.82,5.82,0,0,1,1.3-.23c.56,0,1.28.39,1.78-.07S59,29.36,58.59,29Z"/></g></g></g></svg>