<svg xmlns="http://www.w3.org/2000/svg" viewBox="0 0 109.15 120.35"><defs><style>.cls-1{isolation:isolate;}.cls-2,.cls-7{fill:#d2e4ff;}.cls-3{fill:#1b205e;}.cls-4,.cls-6{fill:#1d255b;}.cls-14,.cls-4{opacity:0.4;}.cls-18,.cls-4,.cls-6,.cls-7,.cls-9{mix-blend-mode:multiply;}.cls-5{fill:#4052a0;}.cls-16,.cls-19,.cls-6{opacity:0.2;}.cls-8,.cls-9{fill:#cc5252;}.cls-9{opacity:0.5;}.cls-10{fill:#65a1ff;}.cls-11{fill:none;}.cls-12{fill:#963e35;}.cls-13{fill:#fff;}.cls-15{fill:#fad0bf;}.cls-16,.cls-17{fill:#fa7296;}.cls-18{fill:#c87568;opacity:0.8;}.cls-20{fill:#ba5443;}</style></defs><title>chartРесурс 11</title><g class="cls-1"><g id="Слой_2" data-name="Слой 2"><g id="OBJECTS"><path class="cls-2" d="M108.79,91.94c-.08.24-.18.5-.27.76a7.25,7.25,0,0,1-1,1.67,2,2,0,0,1,.25-.6.61.61,0,0,0-.07.1,3.7,3.7,0,0,1-.29.44,4.27,4.27,0,0,1-.75.83,1.2,1.2,0,0,1-.21.17,2.22,2.22,0,0,1-.58.32h0a1.54,1.54,0,0,1-.93.06v22.53a2.08,2.08,0,0,1-2,2.13H6.48a2.07,2.07,0,0,1-2-2.13V95.57a1.52,1.52,0,0,1-1.25.06h0L3,95.55l-.38-.23h0l-.21-.17a1.12,1.12,0,0,1-.2-.18c-.13-.13-.25-.28-.37-.42a5.3,5.3,0,0,1-.49-.71,2.44,2.44,0,0,1,.21.54A7.25,7.25,0,0,1,.63,92.7c-.09-.26-.19-.52-.27-.76Z"/><path class="cls-3" d="M75.54,68.28,66.67,62A9.34,9.34,0,0,1,65,53.79C66.3,49,70.6,48.36,70.92,48c0,0,16,11.21,23.71,20.25Z"/><path class="cls-4" d="M79.73,68.28H75.54L66.67,62A9.34,9.34,0,0,1,65,53.79a7.86,7.86,0,0,1,5.45-5.54,6.81,6.81,0,0,0-1.07,7.63A28.61,28.61,0,0,0,79.73,68.28Z"/><path class="cls-5" d="M65.9,59.94a9.78,9.78,0,0,1-.29-2V57A21.47,21.47,0,0,1,66.06,54a9.94,9.94,0,0,1,.94-2.8c.08,0-.31,1.43-.5,2.88A23.87,23.87,0,0,0,66.24,57l0,.89a10.7,10.7,0,0,0,.14,2,4.09,4.09,0,0,0,.68,1.8,2.1,2.1,0,0,0,.41.48c.11.11.18.19.17.21s-.1,0-.24-.11a1.69,1.69,0,0,1-.53-.43A3.89,3.89,0,0,1,65.9,59.94Z"/><path class="cls-6" d="M65.32,109.29c-.34-6.35-.63-11.59-.63-11.59-3.48-3.91-24.63-5.46-24.67-.89,0,2.53-.74,7-1.29,11.22a22.15,22.15,0,0,0,17.74-4.63A19,19,0,0,0,65.32,109.29Z"/><path class="cls-3" d="M31.61,48.09s9.23-5.9,20-5.9S68.26,46,70.83,48.09s1.53,21.27-1,27.68a62.54,62.54,0,0,0-3.33,15.12c-.26,3.07.64,14.22.64,14.22a19,19,0,0,1-10.64-5.89,23.31,23.31,0,0,1-19,4.1,152.47,152.47,0,0,0,1.54-21.66C38.79,72.18,31.87,53.21,31.61,48.09Z"/><path class="cls-4" d="M66.47,90.89a68.3,68.3,0,0,1,1.48-9,18.86,18.86,0,0,1-13.79,2.16c-8.53-1.89-14.92-10.7-16.22-19a54.26,54.26,0,0,1,0-18.81c.09-.48.2-.94.33-1.39l-.73.29-.19.08-.49.2-.25.11-.41.18-.26.11-.35.16-.26.12-.32.15-.25.12-.29.14-.23.12-.27.13-.21.11-.24.13-.2.1-.21.12-.18.09-.19.11-.15.08-.16.09-.13.08-.14.08-.1.06-.12.07-.08,0-.08,0-.06,0-.06,0h0l0,0c.26,5.12,7.18,24.09,7.44,33.57a152.47,152.47,0,0,1-1.54,21.66l1.24.21.36,0,.88.11.35,0,1,.07h.18c.4,0,.79,0,1.18,0,0-.43-.07-.86-.07-1.3v-.1a12.07,12.07,0,1,1,24.14,0v.1a11.29,11.29,0,0,1-.27,2.48l.59.11h0S66.21,94,66.47,90.89Z"/><path class="cls-5" d="M69.8,75.64a3.77,3.77,0,0,1,.09-.59c.07-.36.18-.89.31-1.52s.26-1.36.4-2.16.32-1.62.4-2.47c.21-1.7.46-3.39.51-4.68l.15-2.13s0-.21.06-.58,0-.91,0-1.54,0-1.38,0-2.18-.08-1.65-.13-2.5-.13-1.71-.19-2.5-.13-1.55-.2-2.19-.1-1.17-.13-1.54a4.28,4.28,0,0,1,0-.59,2.56,2.56,0,0,1,.12.58c.06.37.13.9.23,1.53s.19,1.38.28,2.18.21,1.64.26,2.5.13,1.71.19,2.51,0,1.56,0,2.2,0,1.19,0,1.56,0,.59,0,.59L72,64.26c-.07,1.29-.36,3-.61,4.69-.11.85-.32,1.69-.48,2.48s-.31,1.52-.48,2.14-.3,1.14-.4,1.51A2.66,2.66,0,0,1,69.8,75.64Z"/><path class="cls-5" d="M56.45,99.22c-.13,0,0-5.27,0-5.27l.08-2.62a17.5,17.5,0,0,1,.19-2.63,18.94,18.94,0,0,1,.15,2.63c0,.66,0,1.32,0,1.81s0,.82,0,.82S56.59,99.23,56.45,99.22Z"/><path class="cls-2" d="M44.17,42.19s4.1,10.51,6.15,15.12,2.57,14.87,3.33,17.18,2.48,11,2.48,11a45.06,45.06,0,0,0,6.75-15.57c2.05-9.22,0-21.53-3.59-26.4S49,39.37,44.17,42.19Z"/><path class="cls-7" d="M44.17,42.19s4.1,10.51,6.15,15.12,2.57,14.87,3.33,17.18,2.48,11,2.48,11a45.06,45.06,0,0,0,6.75-15.57c2.05-9.22,0-21.53-3.59-26.4S49,39.37,44.17,42.19Z"/><path class="cls-8" d="M51.6,46.29s1.29,3.21,3.08,4.23c0,0-.51,7-.77,12.43S56.3,86.83,56.3,86.83s4.28-12.09,5-17.47-3.84-19.1-3.84-19.1,1.92-.76,1.41-4.61S52.37,39.12,51.6,46.29Z"/><path class="cls-9" d="M57.28,66.48c-.34-4.78-1.65-9.72-.4-14.46a2.11,2.11,0,0,1,.8-1.21c-.11-.35-.18-.55-.18-.55a2.89,2.89,0,0,0,1.42-2.36,4.18,4.18,0,0,1-2,.73,3.08,3.08,0,0,1-3.33-2.94,3.34,3.34,0,0,1,.64-2.06,2.34,2.34,0,0,1,1.34-1,2.3,2.3,0,0,1,1.72.22l.28.18c-2-1.92-5.37-2-5.94,3.29,0,0,1.29,3.21,3.08,4.23,0,0-.51,7-.77,12.43S56.3,86.83,56.3,86.83s.7-2,1.57-4.65C57.53,77,57.65,71.71,57.28,66.48Z"/><path class="cls-4" d="M64.74,51.25c-4.78-11.68-7.47-9.76-7.47-9.76A53,53,0,0,1,61,64.65a103.43,103.43,0,0,1-4.63,23.63C56,83.07,54.79,70.45,53.22,63c-2-9.55-8.84-18-7.83-22.81,0,0-4.61,2.41-4.44,7s1.84,14.33,3.69,16.35,5.72,1,5.72,1-3.53,5.79-2.18,9.7A51,51,0,0,0,51.92,82c.82,1.5,1.66,3,2.48,4.5s1.1,2.89,2.15,4.1c.69-1.3,2.18-2.42,3.07-3.68a31.93,31.93,0,0,0,2.68-4.69,45,45,0,0,0,3.21-9.18c1.39-6-1.41-9.58-1.41-9.58C66.32,63,68.1,59.45,64.74,51.25Z"/><path class="cls-5" d="M45.39,40.2S40.78,42.52,41,47s1.84,13.79,3.69,15.74,5.72,1,5.72,1S46.83,69.27,48.18,73s5.71,10.59,8.4,15.74c0,0-1.34-17.41-3.36-26.61S44.38,44.8,45.39,40.2Z"/><path class="cls-6" d="M51.71,66.73a11.61,11.61,0,0,1,1.5-4.61l-.06-.27a10.27,10.27,0,0,1-5-2.48c-3.78-3-4.64-7.63-5.14-12.12a8.28,8.28,0,0,1,2.29-5.92,5.17,5.17,0,0,1,.1-1.13S40.78,42.52,41,47s1.84,13.79,3.69,15.74,5.72,1,5.72,1S46.83,69.27,48.18,73s5.71,10.59,8.4,15.74c0,0-.11-1.42-.31-3.67C53.11,79.52,51,73.2,51.71,66.73Z"/><path class="cls-5" d="M56.07,87.42a96.19,96.19,0,0,0,5-23.68,49.41,49.41,0,0,0-3.75-22.3s2.69-1.85,7.47,9.4c3.36,7.9,1.58,11.27-.64,11.79,0,0,2.8,3.45,1.41,9.23-1.16,4.82-4.32,13.13-9.27,17Z"/><path class="cls-6" d="M61.69,72.31c.41-1.91,1.21-6.94,3.41-7.84a7.94,7.94,0,0,0-1-1.84A2.91,2.91,0,0,0,66,61.05c-1.71-1.27-2.66-3.88-3.1-6a25.57,25.57,0,0,0-1.56-5.84,63.1,63.1,0,0,1-3.52-7.88v0a1,1,0,0,0-.57.11A49.41,49.41,0,0,1,61,63.74a96.19,96.19,0,0,1-5,23.68l.17,1.4a19.49,19.49,0,0,0,4.42-5.16C60,80,61,75.71,61.69,72.31Z"/><path class="cls-2" d="M46.39,37.07a5.21,5.21,0,0,0-.55,7.69,13.57,13.57,0,0,0,6.53,5.38s-1.19-4.87,2.57-7.78c0,0,5,2.31,4.48,7.26a13.21,13.21,0,0,0,1-6.57C59.89,39.8,53.74,34.5,46.39,37.07Z"/><path class="cls-7" d="M58.2,43a.38.38,0,0,1,0-.1,5.65,5.65,0,0,1,.5-2.88,11.57,11.57,0,0,0-12.3-2.93,5.43,5.43,0,0,0-1.94,4.81,2.11,2.11,0,0,1,1.6-.73c2.66-.07,5.33,0,6.59,2.86.12.27.22.53.31.8a6.62,6.62,0,0,1,2-2.45,9.28,9.28,0,0,1,3.39,2.94A6.22,6.22,0,0,1,58.2,43Z"/><path class="cls-10" d="M54.45,41.57a9.23,9.23,0,0,0,3-.79,30.16,30.16,0,0,1-3.08.45,13.26,13.26,0,0,1-2.12,0l-.69-.09-.26,0-.26,0a4,4,0,0,1-.67-.13,8.86,8.86,0,0,1-2-.72,7.27,7.27,0,0,1-1.68-1.25c-.4-.41-.64-.73-.68-.7a3.44,3.44,0,0,0,.54.83,6.8,6.8,0,0,0,1.65,1.42,9.15,9.15,0,0,0,2,.85c.29.09.54.13.71.17l.27.06a1.87,1.87,0,0,0,.27,0c.17,0,.42.05.72.06A12.77,12.77,0,0,0,54.45,41.57Z"/><path class="cls-10" d="M58.75,45.57a4.8,4.8,0,0,0-.22-.45L58.44,45a6.17,6.17,0,0,0-.42-.57,5.43,5.43,0,0,0-1.11-1.07,5.11,5.11,0,0,0-1.38-.67,3.54,3.54,0,0,0-.49-.1l.17-.11c.36-.23.64-.32.62-.37s-.07,0-.2,0a1.77,1.77,0,0,0-.51.17,3.93,3.93,0,0,0-1.3,1,6.39,6.39,0,0,0-.91,1.38c-.1.2-.17.38-.22.5a1.24,1.24,0,0,0-.08.19,10,10,0,0,0-.46,2.33,7.07,7.07,0,0,0,0,1.62,2.2,2.2,0,0,0,.18.72,3.18,3.18,0,0,0,0-.73,10.09,10.09,0,0,1,.1-1.57,10.9,10.9,0,0,1,.58-2.21,1.44,1.44,0,0,1,.07-.18c0-.12.11-.28.18-.48a6.55,6.55,0,0,1,.77-1.35A4.61,4.61,0,0,1,55,42.6l.52.22a5.28,5.28,0,0,1,1.23.76,5.79,5.79,0,0,1,1,1.07c.22.32.35.55.35.55l.1.15c.05.11.15.24.24.42a10.3,10.3,0,0,1,.58,1.34c.36,1,.54,2.09.61,2.09A7,7,0,0,0,59.27,47,9.84,9.84,0,0,0,58.75,45.57Z"/><path class="cls-10" d="M60.51,44.35A10.5,10.5,0,0,0,60.37,43c-.06-.38-.12-.64-.12-.64s-.07-.24-.22-.61a5.73,5.73,0,0,0-.67-1.25,5,5,0,0,0-1-1c-.31-.23-.53-.35-.55-.32s.17.2.42.46a6.1,6.1,0,0,1,.82,1.07,6.54,6.54,0,0,1,.54,1.22c.11.34.16.58.16.58s.07.23.16.59a11.91,11.91,0,0,1,.23,1.34,18.42,18.42,0,0,0,.23,2A7.68,7.68,0,0,0,60.51,44.35Z"/><path class="cls-10" d="M50,48.69c-.55-.47-1.28-1.11-2-1.8a16.42,16.42,0,0,1-1.71-2,11.35,11.35,0,0,1-.65-1,9.47,9.47,0,0,1-.56-1,5.42,5.42,0,0,1-.51-2.49A4.11,4.11,0,0,1,44.92,39a5.09,5.09,0,0,1,.61-1c.44-.57.81-.89.78-.92s-.11,0-.28.18a4.42,4.42,0,0,0-.64.62,4.58,4.58,0,0,0-.71,1.05,4.35,4.35,0,0,0-.41,1.41A5.46,5.46,0,0,0,44.72,43a7.38,7.38,0,0,0,.55,1.11,11,11,0,0,0,.7,1,16,16,0,0,0,1.83,2,22,22,0,0,0,2.07,1.71,6.06,6.06,0,0,0,1,.66A7.92,7.92,0,0,0,50,48.69Z"/><path class="cls-3" d="M27.23,68.28,36.1,62a9.3,9.3,0,0,0,1.69-8.23C36.48,49,32.18,48.36,31.86,48c0,0-16,11.21-23.72,20.25Z"/><path class="cls-4" d="M23.05,68.28h4.18L36.1,62a9.3,9.3,0,0,0,1.69-8.23,7.86,7.86,0,0,0-5.45-5.54,6.81,6.81,0,0,1,1.07,7.63A28.66,28.66,0,0,1,23.05,68.28Z"/><path class="cls-5" d="M36.88,59.94a10.41,10.41,0,0,0,.28-2V57A19.79,19.79,0,0,0,36.71,54a9.27,9.27,0,0,0-.94-2.8c-.08,0,.32,1.43.51,2.88A23.87,23.87,0,0,1,36.54,57l0,.89a9.87,9.87,0,0,1-.14,2,4.21,4.21,0,0,1-.67,1.8,2.37,2.37,0,0,1-.42.48c-.11.11-.17.19-.16.21s.09,0,.23-.11a1.6,1.6,0,0,0,.54-.43A4.08,4.08,0,0,0,36.88,59.94Z"/><path class="cls-5" d="M38.09,120.35c.07-1,.11-1.81.11-2.5,0-.45,0-.84-.05-1.15,0-.06,0-.12,0-.18l0-.49c0-.21,0-.43,0-.66v-.29c0-.23,0-.48,0-.73s0-.34,0-.51q0-.8.12-1.68c0-.07,0-.14,0-.21.12-1.23.28-2.57.46-3.92,0-.25.06-.49.09-.75,0,0,0-.09,0-.13l.21-1.53c.05-.41.11-.81.17-1.21l.09-.64a.88.88,0,0,1,0-.16c.14-1,.26-2,.37-2.88,0-.36.08-.7.12-1s0-.44.06-.65.06-.64.08-.94,0-.46,0-.67,0-.42,0-.62a1,1,0,0,1,0-.3.81.81,0,0,1,.07-.22.31.31,0,0,1,.06-.13,1.48,1.48,0,0,1,.28-.39l.09-.09a4,4,0,0,1,1.34-.77l.41-.15.44-.13.54-.13a3.12,3.12,0,0,1,.44-.09c.35-.07.71-.13,1.09-.18l.52-.06.66-.06c.47,0,1-.06,1.45-.08H49c.51,0,1,0,1.56,0l.56,0h0l1.2.08.36,0c.6,0,1.19.12,1.78.19l.31,0q.82.1,1.62.24l.45.08.74.13,1.39.31.61.15.36.1.46.13.49.15.91.31.42.17a8.86,8.86,0,0,1,1.27.61,2.61,2.61,0,0,1,.28.17,1.37,1.37,0,0,1,.2.13l.18.12.13.11.21.18c.07.06.13.13.19.19l0,.6a.37.37,0,0,1,0,.11c0,.13,0,.28,0,.44s0,.22,0,.33a.34.34,0,0,0,0,.1v.11s0,.07,0,.11v0s0,.09,0,.14,0,.11,0,.17l0,.51c0,.12,0,.24,0,.36a.71.71,0,0,1,0,.14l0,.44v.07c0,.3,0,.61,0,.93,0,.06,0,.12,0,.17,0,.32,0,.64,0,1h0l0,.52c0,.12,0,.23,0,.35s0,.21,0,.31c0,.34,0,.68.05,1s0,.46,0,.7l0,.6c0,.24,0,.48,0,.72s0,.58,0,.87l0,.49c0,.08,0,.16,0,.24l0,.6c0,.24,0,.47,0,.71s0,.48,0,.72c.06,1.16.13,2.34.19,3.51.06,1,.11,2,.17,3s.09,1.68.13,2.5Z"/><path class="cls-6" d="M59,117.85a7.66,7.66,0,0,0-.45.66,12.71,12.71,0,0,0-.93,1.84H48.81a4.71,4.71,0,0,0-1.06-2.5A6,6,0,0,0,43,115.63a5,5,0,0,0-.69.08,5.6,5.6,0,0,0-4.19.81l0-.49c0-.21,0-.43,0-.66a2.71,2.71,0,0,1,0-.29c0-.23,0-.47,0-.72l0-.52q0-.8.12-1.68c0-.07,0-.14,0-.21.11-1.24.27-2.57.45-3.92,0-.26.07-.5.1-.75,0,0,0-.09,0-.13l.21-1.53c.05-.41.11-.81.17-1.21,0-.21.05-.42.08-.63a1.11,1.11,0,0,0,0-.17h0c.14-1,.26-2,.37-2.88,0-.36.08-.7.12-1s0-.44.06-.65.06-.64.08-.94,0-.46,0-.67,0-.42,0-.62a1,1,0,0,1,0-.3.81.81,0,0,1,.07-.22.31.31,0,0,1,.06-.13,1.48,1.48,0,0,1,.28-.39l.09-.09a4,4,0,0,1,1.34-.77l.41-.15.44-.13.54-.13a3.12,3.12,0,0,1,.44-.09c.35-.07.71-.13,1.09-.18l.52-.06.66-.06c.47,0,1-.06,1.45-.08H49c.51,0,1,0,1.56,0l.56,0h0l1.2.08.36,0c.6,0,1.19.12,1.78.19l.31,0q.82.1,1.62.24l.45.08.74.13,1.39.31.61.15.36.1.46.13.49.15.91.31.42.17a8.86,8.86,0,0,1,1.27.61,2.61,2.61,0,0,1,.28.17,1.37,1.37,0,0,1,.2.13l.18.12.13.11.21.18c.07.06.13.13.19.19l0,.6a.37.37,0,0,1,0,.11c0,.13,0,.28,0,.44s0,.22,0,.33a.34.34,0,0,0,0,.1v.11s0,.07,0,.11v0s0,.09,0,.14,0,.11,0,.17V100l0,.35c0,.12,0,.24,0,.36a.71.71,0,0,1,0,.14,1.93,1.93,0,0,1,0,.24c0,.06,0,.13,0,.2v.07c0,.3,0,.61,0,.93,0,.06,0,.12,0,.17,0,.32,0,.64,0,1h0l0,.52c0,.12,0,.23,0,.35s0,.21,0,.31c0,.34,0,.68.05,1s0,.46,0,.7l0,.6c0,.24,0,.48,0,.72s0,.58,0,.87l0,.49c0,.08,0,.16,0,.24l0,.6c0,.24,0,.47,0,.71s0,.48,0,.72c.06,1.16.13,2.34.19,3.51A7.13,7.13,0,0,0,59,117.85Z"/><path class="cls-11" d="M58,111.05a5.84,5.84,0,0,0-.8.2h0a8.25,8.25,0,0,0-1,.39,10.27,10.27,0,0,0-1.63,1c-.41.32-.68.55-.68.55a13.9,13.9,0,0,0-1.6,1.88l-.17.25A10.54,10.54,0,0,0,51,117.47c-.08.2-.12.32-.1.33a3.53,3.53,0,0,0,.4-.63,18.07,18.07,0,0,1,1.1-1.64l.35-.45a17.37,17.37,0,0,1,1.48-1.53s.24-.23.62-.56a11.22,11.22,0,0,1,1.51-1l.33-.16a8,8,0,0,1,1.37-.55,5.42,5.42,0,0,0,.82-.23A2.49,2.49,0,0,0,58,111.05Zm-2.23,3.23c-.48.29-1,.54-1.33.8l-.06,0-.61.41-.56.49a15.84,15.84,0,0,0-1.15,1.16,7.43,7.43,0,0,0-.51.67,5.49,5.49,0,0,0-.78,1.31c.08,0,.53-.64,1.13-1.31.13-.15.27-.3.41-.44.43-.39.84-.8,1.19-1l.56-.45.57-.44c.15-.12.34-.25.54-.39l.77-.5c1-.6,2-1.09,2-1.17A9.52,9.52,0,0,0,55.78,114.28Zm-2.72,2.91a5.26,5.26,0,0,0-.13.66s0,.08,0,.12c-.08.49-.2,1.2-.33,2,0,.11,0,.22,0,.33h.19l0-.31c.1-.85.19-1.56.24-2.06a.51.51,0,0,1,0-.13A3.26,3.26,0,0,0,53.06,117.19Zm-5.12-15.5c-.07,0-.39.79-.88,1.7-.16.28-.34.58-.53.87s-.43.59-.63.87-.2.26-.3.39-.2.22-.3.32l-.61.68a25.54,25.54,0,0,1-1.9,1.82l-.23.19c-.22.18-.44.36-.66.52-.89.69-1.68,1.22-1.68,1.29a3.89,3.89,0,0,0,.83-.42c.26-.14.54-.33.85-.53l.87-.59.61-.48c.93-.75,1.66-1.47,1.66-1.47l.6-.72.29-.35.29-.42c.19-.29.41-.6.6-.92s.4-.77.57-1.12a4.69,4.69,0,0,0,.29-.74A3,3,0,0,0,47.94,101.69Zm15.53,4.74c-.11-.41-.22-.82-.28-1.16a1.55,1.55,0,0,1,0-.21c-.07-.38-.11-.63-.11-.63s0-.23-.09-.57c0,0,0,0,0-.07a12.85,12.85,0,0,1-.12-1.41c0-1,.2-2,.13-2.06a5.37,5.37,0,0,0-.47,2.06c0,.45,0,.89,0,1.26h0a1.15,1.15,0,0,0,0,.19c0,.4.07.66.07.66l.15.65c0,.14.07.3.12.47s.2.6.31.92a6,6,0,0,0,1,1.84C64.23,108.34,63.76,107.42,63.47,106.43Zm-5.4-5.38c-.07,0,0,1-.08,2-.06.48-.08,1-.16,1.32,0,.19-.06.35-.07.46s0,.13,0,.13l0,.16c0,.11,0,.25-.08.43a9.28,9.28,0,0,1-.3,1.29c-.06.23-.18.44-.25.66s-.08.21-.12.3-.1.18-.14.26c-.18.31-.29.54-.26.56a2.25,2.25,0,0,0,.42-.46l.18-.25.16-.29a6.72,6.72,0,0,0,.32-.66,8.47,8.47,0,0,0,.42-1.31c0-.19.09-.33.11-.43h0c0-.11,0-.17,0-.17s0-.25.06-.62,0-.87,0-1.36A6.85,6.85,0,0,0,58.07,101.05Zm-2.38-.23a19.27,19.27,0,0,0-.17,2.07c-.07.51-.11,1-.19,1.4l-.12.62a17.11,17.11,0,0,1-.46,2c-.31,1-.78,1.9-.72,1.94a6.64,6.64,0,0,0,1-1.83,14.21,14.21,0,0,0,.61-2s.07-.45.12-1c0-.32.05-.68.06-1A8.75,8.75,0,0,0,55.69,100.82Zm6.38,19.32a2.29,2.29,0,0,0-.08-.32,1.34,1.34,0,0,0,0,.33l0,.2h.07C62.1,120.27,62.08,120.2,62.07,120.14Z"/><path class="cls-7" d="M59.78,48.68c-.17-.37-.32-.75-.47-1.13a6.37,6.37,0,0,1,.11,2.07S59.58,49.27,59.78,48.68Z"/><path class="cls-12" d="M105,55v63.18a2.08,2.08,0,0,1-2,2.13H6.48a2.07,2.07,0,0,1-2-2.13V55a2.06,2.06,0,0,1,2-2.13H103A2.07,2.07,0,0,1,105,55Z"/><path class="cls-8" d="M6.48,52.91a2.06,2.06,0,0,0-2,2.12v5.88H11a2,2,0,0,0,2-2v-6Z"/><path class="cls-8" d="M103,52.91A2.07,2.07,0,0,1,105,55v5.88h-6.5a2,2,0,0,1-2-2v-6Z"/><path class="cls-8" d="M13,114.35v6H6.48a2.07,2.07,0,0,1-2-2.13v-5.87H11A2,2,0,0,1,13,114.35Z"/><path class="cls-8" d="M105,112.35v5.87a2.08,2.08,0,0,1-2,2.13h-6.5v-6a2,2,0,0,1,2-2Z"/><path class="cls-13" d="M101.25,115.88a1.91,1.91,0,0,1-1.85,2H10.06a1.91,1.91,0,0,1-1.86-2V57.38a1.91,1.91,0,0,1,1.86-2H99.4a1.91,1.91,0,0,1,1.85,2Z"/><g class="cls-14"><path class="cls-7" d="M26.91,55.41H10.06a1.91,1.91,0,0,0-1.86,2V74.12Z"/><path class="cls-7" d="M101.25,67.2V57.38a1.91,1.91,0,0,0-1.85-2H97.05L34.61,117.84h16Z"/><path class="cls-7" d="M66,117.84H99.4a1.91,1.91,0,0,0,1.85-2V82.57Z"/><path class="cls-7" d="M64.91,55.41H40.54L8.2,87.75v24.37Z"/></g><rect class="cls-2" x="14.81" y="95.08" width="10" height="20"/><rect class="cls-10" x="31.9" y="82.75" width="10" height="32.33"/><rect class="cls-5" x="48.98" y="73.08" width="10" height="42"/><rect class="cls-3" x="66.07" y="65.08" width="10" height="50"/><rect class="cls-8" x="83.15" y="60.74" width="10" height="54.33"/><path class="cls-15" d="M11.85,87.14v0a3.94,3.94,0,0,1-.08.67c0,.07,0,.14,0,.21h0c-.45,1.52-2,2.28-3.52,2.66a13.63,13.63,0,0,1-3,.38H4.8a.3.3,0,0,1,.15.05,1.29,1.29,0,0,1,.42.79,6.91,6.91,0,0,1,.1,2.47v0a2,2,0,0,1-.08.33.86.86,0,0,1-.12.22,2.51,2.51,0,0,1-.78.59,1.52,1.52,0,0,1-1.25.06h0L3,95.55l-.38-.23h0l-.21-.17a1.12,1.12,0,0,1-.2-.18c-.13-.13-.25-.28-.37-.42a5.3,5.3,0,0,1-.49-.71s0,0,0,0-.1-.15-.14-.23a7.41,7.41,0,0,1-.34-.7,7.11,7.11,0,0,1-.34-1c-.09-.32-.17-.65-.23-1a8.79,8.79,0,0,1,0-3.39,5.14,5.14,0,0,1,3.54-4.21c.2-.06.41-.12.61-.16a7.93,7.93,0,0,1,3.72,0,8.09,8.09,0,0,1,1.05.36h0a5.28,5.28,0,0,1,.58.3l.11.07.44.32,0,0,.11.09.1.1h0l.22.22.14.16,0,0,.2.26s0,0,0,0l.12.2,0,0a2.75,2.75,0,0,1,.14.3l.09.21a1.72,1.72,0,0,1,.07.21.75.75,0,0,1,0,.16h0a.29.29,0,0,0,0,.09.15.15,0,0,0,0,.07.8.8,0,0,1,0,.15c0,.1,0,.21,0,.31S11.85,87.07,11.85,87.14Z"/><path class="cls-16" d="M11.85,87.14v0a3.94,3.94,0,0,1-.08.67c0,.07,0,.14,0,.21h0c-.45,1.52-2,2.28-3.52,2.66a13.63,13.63,0,0,1-3,.38H4.8a.46.46,0,0,0,0,.08c.06.13.19.41.33.76A9.13,9.13,0,0,1,5.52,93a5.18,5.18,0,0,1-.14,1.74.86.86,0,0,1-.12.22,1.22,1.22,0,0,1-.28.17l-.12,0-.27.1a.35.35,0,0,1-.11,0l-.05,0-.33.1-.16,0-.49.11h0l-.18,0h0L3,95.55l-.38-.23h0l-.21-.17a1.12,1.12,0,0,1-.2-.18c-.13-.13-.25-.28-.37-.42a5.3,5.3,0,0,1-.49-.71s0,0,0,0-.1-.15-.14-.23a7.41,7.41,0,0,1-.34-.7,7.11,7.11,0,0,1-.34-1c-.09-.32-.17-.65-.23-1l.15,0a6.71,6.71,0,0,0,4-.56,8.3,8.3,0,0,0,2.59-1.9,4.15,4.15,0,0,0,.27-.32h0A9.49,9.49,0,0,0,8.2,87a9.2,9.2,0,0,0,.44-.89,2.26,2.26,0,0,0,.13-.33,7.48,7.48,0,0,0,.42-1.61c0-.11,0-.22,0-.33s0-.18,0-.27h0a5.28,5.28,0,0,1,.58.3l.11.07.44.32,0,0,.11.09.1.1h0l.22.22.14.16,0,0,.2.26s0,0,0,0l.12.2,0,0a2.75,2.75,0,0,1,.14.3l.09.21a2.17,2.17,0,0,1,.07.24.65.65,0,0,1,0,.13h0a.29.29,0,0,0,0,.09.15.15,0,0,0,0,.07.64.64,0,0,1,0,.07s0,0,0,.08,0,.21,0,.31S11.85,87.07,11.85,87.14Z"/><path class="cls-17" d="M3.93,88.57c0,.06.82-.14,1.62-.15a7.47,7.47,0,0,1,1.11,0,3.25,3.25,0,0,0,.36,0l.13,0,.5.08a8.93,8.93,0,0,1,1.06.28c.76.28,1.42.76,1.46.71a4.22,4.22,0,0,0-1.36-1,9,9,0,0,0-1.09-.38l-.51-.11-.14,0-.38,0a7.53,7.53,0,0,0-1.15,0A4.81,4.81,0,0,0,3.93,88.57Z"/><path class="cls-17" d="M3.77,86.12S4.87,86,6,85.93A12.79,12.79,0,0,1,8.14,86a6.07,6.07,0,0,1,.67.1,5.19,5.19,0,0,1,1.39.45,3.44,3.44,0,0,1,1.13.92c.24.33.36.58.39.57a2.16,2.16,0,0,0-.27-.65,3.31,3.31,0,0,0-1.12-1.07,5.43,5.43,0,0,0-1.45-.56c-.42-.09-.7-.13-.7-.13l-.7-.05A12.18,12.18,0,0,0,6,85.67,8.06,8.06,0,0,0,3.77,86.12Z"/><path class="cls-17" d="M3.2,84.48s.3-.1.75-.2A10.82,10.82,0,0,1,5.62,84a12.64,12.64,0,0,1,1.68-.06c.46,0,.77.06.77.06s.3,0,.75.09a5.12,5.12,0,0,1,1.57.51,2.52,2.52,0,0,1,1.1,1.18c.18.42.19.74.23.74a.82.82,0,0,0,0-.22,2.07,2.07,0,0,0-.1-.57,2.54,2.54,0,0,0-1.1-1.35,5.13,5.13,0,0,0-1.64-.63,6,6,0,0,0-.79-.12s-.32,0-.79,0a11.43,11.43,0,0,0-1.73.14,9.19,9.19,0,0,0-1.68.41A2.05,2.05,0,0,0,3.2,84.48Z"/><path class="cls-17" d="M2.86,91.42c0,.06.35,0,.7,0s.69-.1.69-.1l.65-.19a1.93,1.93,0,0,0,.67-.2,1.64,1.64,0,0,0-.71-.06L4.17,91l-.66.2C3.19,91.27,2.85,91.37,2.86,91.42Z"/><path class="cls-17" d="M1.58,94.37A7.25,7.25,0,0,1,.63,92.7c-.09-.26-.19-.52-.27-.76a3.05,3.05,0,0,1-.15-.5c-.08-.36-.14-.59-.14-.59a9.84,9.84,0,0,1,0-1.94,6.86,6.86,0,0,1,.3-1.34,1.87,1.87,0,0,1,.21-.52c.06,0-.21.94-.25,1.88a10.46,10.46,0,0,0,.15,1.86l0,.19.08.38a3.88,3.88,0,0,0,.13.58c.06.21.14.44.2.67a11.6,11.6,0,0,0,.49,1.21s0,0,0,0A2.44,2.44,0,0,1,1.58,94.37Z"/><path class="cls-15" d="M108.83,91v0c0,.16-.07.32-.11.48s-.08.32-.13.48a7.09,7.09,0,0,1-.33,1,6.8,6.8,0,0,1-.43.85s0,0,0,0,0,0,0,0q-.16.27-.36.54a4.27,4.27,0,0,1-.75.83,1.2,1.2,0,0,1-.21.17,2.22,2.22,0,0,1-.58.32h0a1.54,1.54,0,0,1-.93.06,2.27,2.27,0,0,1-1.1-.71,3.7,3.7,0,0,1-.26-2h0a5.73,5.73,0,0,1,.16-1.07,1.25,1.25,0,0,1,.41-.79.27.27,0,0,1,.15-.05h-.4a13.44,13.44,0,0,1-2.69-.3c-1.61-.35-3.34-1.11-3.82-2.73v0a1.17,1.17,0,0,1-.05-.2l-.06-.34c0-.11,0-.22,0-.33v0c0-.07,0-.14,0-.21a2.56,2.56,0,0,1,0-.39s0-.05,0-.07a1.24,1.24,0,0,1,.09-.38.75.75,0,0,1,0-.16l.09-.21a3.84,3.84,0,0,1,.18-.35,2.12,2.12,0,0,1,.12-.2l.25-.33.13-.16a2.28,2.28,0,0,1,.22-.22l0,0,.08-.07.11-.09,0,0a4.24,4.24,0,0,1,.78-.52,3,3,0,0,1,.36-.17h0a6.62,6.62,0,0,1,.62-.24c.24-.07.48-.13.73-.18a8.08,8.08,0,0,1,3.73.16l.3.08a5.18,5.18,0,0,1,3.55,4.26s0,0,0,0A9,9,0,0,1,108.83,91Z"/><path class="cls-16" d="M108.83,91v0c0,.16-.07.32-.11.48s-.08.32-.13.48a7.09,7.09,0,0,1-.33,1,6.8,6.8,0,0,1-.43.85s0,0,0,0a5.21,5.21,0,0,1-.36.55,4.27,4.27,0,0,1-.75.83,1.2,1.2,0,0,1-.21.17,2.22,2.22,0,0,1-.58.32h0l-.18,0h0l-.49-.11-.16,0-.06,0-.26-.08-.16,0-.27-.1-.12,0a1.58,1.58,0,0,1-.29-.17,3.7,3.7,0,0,1-.26-2h0a10.35,10.35,0,0,1,.35-1.07c.14-.35.27-.63.33-.76l0-.08h-.4a13.44,13.44,0,0,1-2.69-.3c-1.61-.35-3.34-1.11-3.82-2.73v0a1.17,1.17,0,0,1-.05-.2l-.06-.34c0-.11,0-.22,0-.33v0c0-.07,0-.14,0-.21a2.56,2.56,0,0,1,0-.39s0-.05,0-.07h0a.2.2,0,0,1,0-.07s0-.06,0-.09a.57.57,0,0,1,0-.14v0l.06-.22.09-.21a3.84,3.84,0,0,1,.18-.35,2.12,2.12,0,0,1,.12-.2l.25-.33.13-.16.26-.25.08-.07.11-.09,0,0a5.15,5.15,0,0,1,.45-.32l.11-.07.22-.13a3,3,0,0,1,.36-.17h0c0,.09,0,.18,0,.27a.2.2,0,0,0,0,.07l0,.26a7.48,7.48,0,0,0,.42,1.61,2.26,2.26,0,0,0,.13.33,8.62,8.62,0,0,0,1.29,2.11c.09.11.18.22.28.32a8,8,0,0,0,2.9,2,6.52,6.52,0,0,0,3.69.43Z"/><path class="cls-17" d="M105.22,88.57c0,.06-.82-.14-1.62-.15a7.47,7.47,0,0,0-1.11,0,3.25,3.25,0,0,1-.36,0l-.13,0-.5.08a8.93,8.93,0,0,0-1.06.28c-.76.28-1.42.76-1.46.71a4.22,4.22,0,0,1,1.36-1,9,9,0,0,1,1.09-.38l.51-.11.14,0,.38,0a7.53,7.53,0,0,1,1.15,0A4.81,4.81,0,0,1,105.22,88.57Z"/><path class="cls-17" d="M105.38,86.12s-1.1-.15-2.2-.19A12.79,12.79,0,0,0,101,86a6.07,6.07,0,0,0-.67.1,5.19,5.19,0,0,0-1.39.45,3.44,3.44,0,0,0-1.13.92c-.24.33-.36.58-.39.57a1.65,1.65,0,0,1,.27-.65,3.31,3.31,0,0,1,1.12-1.07,5.43,5.43,0,0,1,1.45-.56c.42-.09.7-.13.7-.13l.7-.05a12.18,12.18,0,0,1,1.53.07A8.06,8.06,0,0,1,105.38,86.12Z"/><path class="cls-17" d="M106,84.48s-.3-.1-.75-.2a10.82,10.82,0,0,0-1.67-.29,12.64,12.64,0,0,0-1.68-.06c-.46,0-.77.06-.77.06s-.3,0-.75.09a5.12,5.12,0,0,0-1.57.51,2.47,2.47,0,0,0-1.1,1.18c-.18.42-.19.74-.23.74a.82.82,0,0,1,0-.22,2.07,2.07,0,0,1,.1-.57,2.54,2.54,0,0,1,1.1-1.35,5.13,5.13,0,0,1,1.64-.63,6,6,0,0,1,.79-.12s.32,0,.79,0a11.53,11.53,0,0,1,1.73.14,8.87,8.87,0,0,1,1.67.41A2,2,0,0,1,106,84.48Z"/><path class="cls-17" d="M106.29,91.42c0,.06-.35,0-.7,0s-.69-.1-.69-.1l-.65-.19a1.93,1.93,0,0,1-.67-.2,1.64,1.64,0,0,1,.71-.06L105,91l.66.2C106,91.27,106.3,91.37,106.29,91.42Z"/><path class="cls-17" d="M109.08,90.85s-.06.23-.14.59a3.05,3.05,0,0,1-.15.5c-.08.24-.18.5-.27.76a7.25,7.25,0,0,1-1,1.67,2,2,0,0,1,.25-.6s0,0,0,0,0,0,0,0c.13-.32.3-.72.44-1.13.06-.23.13-.46.19-.67a3,3,0,0,0,.14-.58c0-.15.05-.29.07-.38s0-.19,0-.19a11,11,0,0,0,.14-1.86c0-.94-.3-1.86-.25-1.88a2.16,2.16,0,0,1,.23.57s0,0,0,0a7.19,7.19,0,0,1,.28,1.26A9.84,9.84,0,0,1,109.08,90.85Z"/><path class="cls-18" d="M46.69,17.42c-3.71-.64-7.27-1.91-9.48-5.59a7.78,7.78,0,0,0,1,2s.68,5.08,1.19,7.28a3.7,3.7,0,0,1,2.71,1.53,3.61,3.61,0,0,1,1,2.54l2.54-.51-.76-6.27A6.12,6.12,0,0,0,46.69,17.42Z"/><path class="cls-15" d="M67.94,19s3.28-2.46,4,.18-.35,9.34-2.88,7.78S67.94,19,67.94,19Z"/><path class="cls-16" d="M67.94,19a7,7,0,0,1,1.35-.76,1.44,1.44,0,0,1,1.19,1.2c.54,2,.07,6.26-1.27,7.6l-.15-.08C66.52,25.36,67.94,19,67.94,19Z"/><path class="cls-17" d="M69.63,26.14a11.52,11.52,0,0,1-.33-1.82,8.32,8.32,0,0,1,.09-1.83s0-.23.11-.56a5.46,5.46,0,0,1,.42-1.18,3.93,3.93,0,0,1,.74-1c.26-.24.45-.37.44-.39a1.62,1.62,0,0,0-.51.29,3.55,3.55,0,0,0-.86,1,5.23,5.23,0,0,0-.51,1.22c-.09.34-.13.58-.13.58a7.72,7.72,0,0,0,0,1.9A4.73,4.73,0,0,0,69.63,26.14Z"/><path class="cls-17" d="M70.75,24.94a1.9,1.9,0,0,0,0-.79,3.73,3.73,0,0,0-.1-.54l-.07-.24a1,1,0,0,0-.12-.22,2.36,2.36,0,0,1-.13-.23,2.09,2.09,0,0,1-.2-.22,1.13,1.13,0,0,0-.71-.37s.33.22.54.51l.15.23.1.21a1,1,0,0,1,.08.21s0,.08.09.21a3.61,3.61,0,0,1,.15.49A4.11,4.11,0,0,0,70.75,24.94Z"/><path class="cls-15" d="M56.06,3.32s8,1.47,10.22,6.6,1.78,13.41,1.78,13.41A27.27,27.27,0,0,1,68,31.54a5.16,5.16,0,0,1-2.29,4c-2.16,1.36-5.4,1.11-8,1.31-1.63.77-.15,2.39-.79,3.91-3.84,1.84-7.12.46-9.57-1.34-1.58-1.16-.68-5.82-3.53-8.64a1.53,1.53,0,0,1-.24-.34s-4.63,1.89-7.1-1.81-1.23-9.34,4.14-7.17C40.54,21.5,38.41,3.61,56.06,3.32Z"/><g class="cls-19"><path class="cls-17" d="M41.12,25.16c.94,1.55.74,3.39-.46,4.11s-2.13-.06-3.07-1.6-1.51-3.28-.32-4S40.19,23.62,41.12,25.16Z"/></g><path class="cls-17" d="M41.41,25.62a4.66,4.66,0,0,0-.35-.6,4.29,4.29,0,0,0-.45-.52,4.49,4.49,0,0,0-1.21-.87A2.94,2.94,0,0,0,38,23.3a1.21,1.21,0,0,0-.65.16s.26,0,.64,0a3.14,3.14,0,0,1,1.3.44,4.2,4.2,0,0,1,1.06.88,4.92,4.92,0,0,1,.39.49,4,4,0,0,1,.34.53s0,.1.08.15h0a1.41,1.41,0,0,0-.75-.17,1.58,1.58,0,0,0-.76.22,2,2,0,0,0-.22.15l-.08.07-.07.08a1.33,1.33,0,0,0-.15.22,1.59,1.59,0,0,0-.22.77,1.35,1.35,0,0,0,.2.74c.11.18.21.27.23.25s0-.14-.07-.32a1.33,1.33,0,0,1,.21-1.21,1.08,1.08,0,0,1,.19-.21l.05-.05a1.26,1.26,0,0,1,.16-.13,1.37,1.37,0,0,1,.57-.26,1.57,1.57,0,0,1,.65,0l.16.05a3.74,3.74,0,0,1,.28.93,3.67,3.67,0,0,1,0,.74,2.53,2.53,0,0,1-.17.62c-.14.36-.3.57-.28.59s.23-.15.44-.51a2.33,2.33,0,0,0,.25-.66,3.06,3.06,0,0,0,.07-.81A3.88,3.88,0,0,0,41.41,25.62Z"/><g class="cls-19"><path class="cls-17" d="M62,25a1.51,1.51,0,0,1-1.75,1A1.27,1.27,0,0,1,59,24.56s-1.24,1.08-1.19,1.62S63.11,28.32,62,25Z"/></g><path class="cls-17" d="M57.82,26.05s.12-.16.29-.37a2.93,2.93,0,0,1,.75-.67,3.7,3.7,0,0,1,.89-.42,2.37,2.37,0,0,1,.43-.08l.12,0,.31,0a1.22,1.22,0,0,1,.83.3,1.52,1.52,0,0,1,.41.83c0,.28.06.47.1.47a1,1,0,0,0,.09-.48,1.65,1.65,0,0,0-.36-1.06,1.46,1.46,0,0,0-.52-.37,1.83,1.83,0,0,0-.53-.12,1.68,1.68,0,0,0-.38,0h-.14a2.43,2.43,0,0,0-.49.14,3.45,3.45,0,0,0-1,.56,2.53,2.53,0,0,0-.7.84C57.82,25.84,57.79,26,57.82,26.05Z"/><path class="cls-3" d="M52,22.7c.05,1.17.7,2.09,1.44,2.06s1.3-1,1.25-2.18-.7-2.1-1.44-2.06S52,21.53,52,22.7Z"/><path class="cls-3" d="M63.37,22.26c.06,1.17.7,2.09,1.45,2.06s1.3-1,1.25-2.18-.7-2.09-1.45-2.06S63.32,21.09,63.37,22.26Z"/><path class="cls-16" d="M66.73,11.11a12.49,12.49,0,0,0-.45-1.19c-2.21-5.13-10.22-6.6-10.22-6.6C38.41,3.61,40.54,21.5,40.54,21.5a2.85,2.85,0,0,0-.31-.12c.06.29.11.55.17.78a3.72,3.72,0,0,1,2.71,1.53c1.18,1.52,0,1.52,0,1.52l3.18-.42-.39-5.34s4.24-1.27,4.83-6.86a30.59,30.59,0,0,0,11.7-1.11A13.21,13.21,0,0,0,66.73,11.11Z"/><path class="cls-12" d="M38.19,13.86s.68,5.08,1.19,7.28a3.7,3.7,0,0,1,2.71,1.53A8,8,0,0,1,43.56,26L46,25.75l-.59-7.27s3.68-1.32,4.28-6.91a30.64,30.64,0,0,0,11.69-1.1,13,13,0,0,0,4.87-.55s1.57,3.77,1.4,6.31A23.59,23.59,0,0,0,68,22.16l1.19-.85-.43-3.51A6.56,6.56,0,0,0,68.53,10S75,7.25,69.21.13a10.9,10.9,0,0,1-8.31,1C56.33-.21,42.26-1.57,40.57,5.55,40.57,5.55,34.47,8.26,38.19,13.86Z"/><path class="cls-18" d="M69.27.21c-4.4,5.53-12.45,8.48-19.18,5.67a8.72,8.72,0,0,1-.87-.42A5.26,5.26,0,0,1,45.7.91c-2.57.8-4.56,2.23-5.13,4.64a7.42,7.42,0,0,0-1.39.87,28.1,28.1,0,0,0,10.35,6.29c.08-.36.14-.74.19-1.14a30.64,30.64,0,0,0,11.69-1.1,13,13,0,0,0,4.87-.55s1.57,3.77,1.4,6.31A23.59,23.59,0,0,0,68,22.16l1.19-.85-.43-3.51A6.56,6.56,0,0,0,68.53,10S74.92,7.27,69.27.21Z"/><path class="cls-18" d="M43.79,14.87c-3.26.45-4.94-.51-5.72-1.21l.12.2s.68,5.08,1.19,7.28a3.7,3.7,0,0,1,2.71,1.53A8,8,0,0,1,43.56,26L46,25.75l-.22-2.62-.92-4.7s4.23-1.27,4.83-6.86C49.72,11.57,48.7,14.2,43.79,14.87Z"/><path class="cls-18" d="M67.68,16.23A23.59,23.59,0,0,0,68,22.16l1.19-.85-.43-3.51a6.55,6.55,0,0,0-.23-7.73,3.33,3.33,0,0,1-2.27-.15S67.85,13.69,67.68,16.23Z"/><path class="cls-20" d="M65.47,7.52A12,12,0,0,0,66.88,6a9.92,9.92,0,0,0,1-1.59,5.71,5.71,0,0,0,.28-.67,3.1,3.1,0,0,0,.18-.54,1.5,1.5,0,0,0,.11-.48s-.24.68-.74,1.61a10.15,10.15,0,0,1-1,1.5,11.75,11.75,0,0,1-1.43,1.49A14.76,14.76,0,0,1,62,9.37c-1,.46-1.62.7-1.62.7s-.64.26-1.65.58a23.86,23.86,0,0,1-3.78.8,21.08,21.08,0,0,1-3.87.15c-1.06-.06-1.76-.2-1.76-.16a1.41,1.41,0,0,0,.47.14,11.87,11.87,0,0,0,1.27.2,19.69,19.69,0,0,0,3.93,0,22.4,22.4,0,0,0,3.86-.72c1-.3,1.71-.56,1.71-.56a16.8,16.8,0,0,0,1.64-.75A14.63,14.63,0,0,0,65.47,7.52Z"/><path class="cls-20" d="M66.36,9.47l.23-.13.21-.16a5.13,5.13,0,0,0,.53-.45,7.81,7.81,0,0,0,1.36-1.61,8.27,8.27,0,0,0,.89-1.88,3.37,3.37,0,0,0,.22-.92,5.32,5.32,0,0,0-.39.85,10.59,10.59,0,0,1-1,1.77A8.48,8.48,0,0,1,67.05,8.4a4.88,4.88,0,0,1-.53.4l-.2.14-.21.14a6.47,6.47,0,0,1-.56.33,9.42,9.42,0,0,1-1.86.76c-1.41.41-2.92.43-2.91.51a3.52,3.52,0,0,0,.93.06,10.35,10.35,0,0,0,2.06-.25,8.16,8.16,0,0,0,2-.69A4.56,4.56,0,0,0,66.36,9.47Z"/><path class="cls-20" d="M71.32,3.43c-.07,0,0,1.29-.36,2.51a5.94,5.94,0,0,1-.6,1.59,3.7,3.7,0,0,1-.29.47L70,8.17l-.13.17a3.83,3.83,0,0,1-.37.4,4.19,4.19,0,0,1-1.39.91,7.09,7.09,0,0,1-1.66.42,2.91,2.91,0,0,0-.79.1,2.85,2.85,0,0,0,.8.08A5.75,5.75,0,0,0,68.17,10a4.2,4.2,0,0,0,1.58-.89,3.4,3.4,0,0,0,.43-.44l.15-.17.13-.2a4.24,4.24,0,0,0,.29-.52A6,6,0,0,0,71.29,6,6.76,6.76,0,0,0,71.32,3.43Z"/><path class="cls-20" d="M41.17,4.56a4.1,4.1,0,0,1,.59-1.07,4.84,4.84,0,0,1,1-1A8.14,8.14,0,0,1,45.1,1.37c.69-.21,1.17-.31,1.17-.31s.47-.12,1.18-.25S49.14.56,50.12.49s2-.11,2.69-.14A7.51,7.51,0,0,0,54,.26a5.82,5.82,0,0,0-1.23-.1c-.74,0-1.72,0-2.71,0a24.56,24.56,0,0,0-2.72.23c-.73.1-1.22.22-1.22.22S45.67.71,45,1a8,8,0,0,0-2.42,1.3,4.89,4.89,0,0,0-1,1.09A4.18,4.18,0,0,0,41,4.5a3.48,3.48,0,0,0-.12.49,2.08,2.08,0,0,0,0,.39c0,.22,0,.34,0,.34S40.91,5.23,41.17,4.56Z"/><path class="cls-20" d="M64,2.44l.93-.18a15.18,15.18,0,0,0,2-.62,8,8,0,0,0,1.83-1A2.72,2.72,0,0,0,69.42,0a8.11,8.11,0,0,0-.8.49,9.65,9.65,0,0,1-1.84.84,13.74,13.74,0,0,1-2,.49L63.9,2a24.92,24.92,0,0,1-2.94.3c-1.48.07-3,0-3,0a12.54,12.54,0,0,0,3,.31A21.71,21.71,0,0,0,64,2.44Z"/><path class="cls-20" d="M43.92,4.39l.32-.27a10.13,10.13,0,0,1,1-.88,12.06,12.06,0,0,0,1.12-.82A3.51,3.51,0,0,0,45.1,3a9.46,9.46,0,0,0-1.18.81l-.31.32a5.58,5.58,0,0,0-.6.79,3.16,3.16,0,0,0-.39.91c-.06.27,0,.45,0,.45s.09-.16.2-.39a4.45,4.45,0,0,1,.49-.78A8.53,8.53,0,0,1,43.92,4.39Z"/><path class="cls-20" d="M44.62,6A6.49,6.49,0,0,1,46,4.6a8.86,8.86,0,0,1,1.7-.93l.83-.29.24-.07a5.78,5.78,0,0,1,.61-.19,15.11,15.11,0,0,1,1.93-.37c1.43-.19,2.88-.14,2.89-.2a10.25,10.25,0,0,0-2.92-.14,15.8,15.8,0,0,0-2,.28c-.27.05-.49.13-.65.17l-.24.06s-.35.13-.86.35a7.62,7.62,0,0,0-1.73,1.07,5.61,5.61,0,0,0-1.3,1.55,2.47,2.47,0,0,0-.34.85A8.39,8.39,0,0,0,44.62,6Z"/><path class="cls-20" d="M37.9,10.3s.09-.17.21-.4a6.32,6.32,0,0,1,.52-.81,6.51,6.51,0,0,1,.94-1l.31-.29a3.68,3.68,0,0,1,.77-.52,1.57,1.57,0,0,1,.88-.19c.25,0,.41.09.43,0s0,0-.09-.09a1,1,0,0,0-.31-.15,1.65,1.65,0,0,0-1,.07,3.22,3.22,0,0,0-.91.48,4.71,4.71,0,0,0-.37.3,6.34,6.34,0,0,0-.9,1.18,4,4,0,0,0-.4.93C37.86,10.1,37.87,10.3,37.9,10.3Z"/><path class="cls-20" d="M41.6,10.9a2.15,2.15,0,0,1,0-.36A5.7,5.7,0,0,1,42,9.47a6.6,6.6,0,0,1,.51-1c.16-.27.29-.43.27-.46s-.2.1-.42.34a5,5,0,0,0-1.09,2.1,2.06,2.06,0,0,0-.08.39l0,.16a4.65,4.65,0,0,0,0,.56,2.37,2.37,0,0,0,.43,1.17,2,2,0,0,0,1,.69,1.24,1.24,0,0,0,.54.06s-.19-.12-.47-.23a2,2,0,0,1-.8-.71,2.25,2.25,0,0,1-.27-1c0-.3,0-.49,0-.49A.79.79,0,0,0,41.6,10.9Z"/><path class="cls-20" d="M42.22,14.75s-.35.08-.86.12a3.78,3.78,0,0,1-.87,0,3.66,3.66,0,0,1-.92-.34,4.15,4.15,0,0,1-1.38-1.21,5.24,5.24,0,0,1-.44-.71,4.48,4.48,0,0,1-.36-.75A4.87,4.87,0,0,1,37.06,10a4.45,4.45,0,0,1,.14-1,3.7,3.7,0,0,1,.34-.8c.26-.44.51-.69.48-.72a2,2,0,0,0-.64.62,3.68,3.68,0,0,0-.43.82,4.27,4.27,0,0,0-.23,1A5,5,0,0,0,37,12a5.13,5.13,0,0,0,.35.84,4.91,4.91,0,0,0,.52.76,4.62,4.62,0,0,0,1.57,1.24,3.62,3.62,0,0,0,1,.29,3.52,3.52,0,0,0,.93,0A2,2,0,0,0,42.22,14.75Z"/><path class="cls-20" d="M49.17,13.76a8.59,8.59,0,0,1-.78,1.54,6.83,6.83,0,0,1-1.12,1.3,3.38,3.38,0,0,1-.43.36l-.17.13s-.25.19-.64.44a7.64,7.64,0,0,1-1.56.69,8.49,8.49,0,0,1-1.71.29,3.61,3.61,0,0,0-.8,0,2.35,2.35,0,0,0,.81.13,6.81,6.81,0,0,0,1.78-.15,7.12,7.12,0,0,0,1.7-.63c.43-.24.7-.43.7-.43l.18-.15a4.76,4.76,0,0,0,.44-.41,6.39,6.39,0,0,0,1.1-1.44,6.75,6.75,0,0,0,.68-1.67,2.34,2.34,0,0,0,.11-.8A3.89,3.89,0,0,0,49.17,13.76Z"/><path class="cls-20" d="M69.49,11.84a5.19,5.19,0,0,0-.67-1.25c-.24-.32-.44-.48-.46-.46s.12.23.3.56A6,6,0,0,1,69.17,12a7.81,7.81,0,0,1,.25,1.33c0,.37,0,.62,0,.62v.16c0,.11,0,.27,0,.45a5.74,5.74,0,0,1-.19,1.33,4,4,0,0,1-.55,1.23c-.22.3-.4.48-.37.52a1.63,1.63,0,0,0,.51-.41A3.9,3.9,0,0,0,69.61,16a6.58,6.58,0,0,0,.3-1.42c0-.19,0-.36,0-.47v-.18s0-.27-.07-.65A7.63,7.63,0,0,0,69.49,11.84Z"/><path class="cls-16" d="M57.63,36.89c2.63-.2,5.87,0,8-1.31a5.16,5.16,0,0,0,2.29-4,18.71,18.71,0,0,0,.38-3.66,16.52,16.52,0,0,1-1.39,5c-1.62,3.07-6.72,3.88-14.33,3.07S43.94,30,43.94,30l-.13.87c2.76,2.83,1.89,7.41,3.46,8.56a12,12,0,0,0,3.45,1.82c1-1.73,2.23-3.53,3.34-3.31s1.84,1.75,2.2,3.08c.19-.08.38-.15.58-.25C57.48,39.28,56,37.66,57.63,36.89Z"/><path class="cls-12" d="M68.84,18.91l-1.26,0,0,.16.07-.14-.16,8.57s-2.13-1.67-8.44-1.09a26.7,26.7,0,0,0-10.16,2.8s-.54-5.32-3.48-8.11l-5.94.16c1.18.53,3.78,2.39,3.83,4.84.06,3.41-.24,3.86-.24,3.86-.54.91,1.67,4.53,2.34,5.15a12.15,12.15,0,0,0,4.91,2.7c3.43.94,8.44.65,11.91.15,7.27-1.06,7.83-3.85,7.76-7.56A70,70,0,0,0,68.84,18.91Z"/><path class="cls-18" d="M70,30.36a70,70,0,0,0-1.17-11.45l-1.26,0,0,.16.07-.14-.1,5.35A6.19,6.19,0,0,1,68.32,31C66.24,35,62.1,36.25,58,36.05c-2.77-.14-5.21-.21-7.71-1.64a9.16,9.16,0,0,1-3.56-4.26,9.67,9.67,0,0,1-1-4,3.85,3.85,0,0,1,1.38-2.85c-.1-.19-.22-.39-.34-.58l0,0c-.12-.19-.24-.37-.37-.54l0-.05c-.13-.17-.27-.34-.41-.5l0,0c-.15-.17-.3-.33-.46-.48l-.73,0-4.7.13H39.5c1.18.53,3.78,2.39,3.83,4.84.06,3.41-.24,3.86-.24,3.86-.54.91,1.67,4.53,2.34,5.15a12.15,12.15,0,0,0,4.91,2.7c3.43.94,8.44.65,11.91.15l.66-.11C69.56,36.69,70.07,34,70,30.36Z"/><path class="cls-20" d="M63.15,28.39s-.07.23-.26.54a4.36,4.36,0,0,1-.89,1,3.87,3.87,0,0,1-1.19.64,3.32,3.32,0,0,1-.43.12l-.17,0H60a1.83,1.83,0,0,1-.45,0,3,3,0,0,1-1.27-.44,3.44,3.44,0,0,1-1-.89,1.86,1.86,0,0,1-.29-.52s.19.15.42.4a4,4,0,0,0,1,.73,2.74,2.74,0,0,0,1.16.3,2.51,2.51,0,0,0,.39,0h.15l.15,0a1.72,1.72,0,0,0,.38-.07,3.49,3.49,0,0,0,1.12-.5,5.23,5.23,0,0,0,.94-.83C63,28.56,63.12,28.38,63.15,28.39Z"/><path class="cls-12" d="M54.53,17.21s-.14,0-.28-.08a1.9,1.9,0,0,0-.51-.14,2,2,0,0,0-.51,0l-.22.06a2.2,2.2,0,0,0-.73.19c-.36.15-.64.46-.72.42s.06-.5.45-.83a2.41,2.41,0,0,1,.86-.47h.32a1.84,1.84,0,0,1,.68.14,1.58,1.58,0,0,1,.55.39C54.53,17.06,54.57,17.18,54.53,17.21Z"/><path class="cls-12" d="M66,17.14c-.1,0-.29-.31-.57-.49a1.45,1.45,0,0,0-.4-.17c-.12,0-.19-.05-.19,0l-.18-.05a.65.65,0,0,0-.2,0h-.25c-.33,0-.67.19-.75.11s.2-.41.63-.59a2,2,0,0,1,.33-.08.74.74,0,0,1,.29,0h.3l.27.13a1.41,1.41,0,0,1,.49.41C66.1,16.68,66.12,17.12,66,17.14Z"/></g></g></g></svg>