<svg xmlns="http://www.w3.org/2000/svg" viewBox="0 0 79.19 195.9"><defs><style>.cls-1{isolation:isolate;}.cls-19,.cls-2{fill:#d2e4ff;}.cls-12,.cls-14,.cls-16,.cls-2,.cls-21,.cls-4,.cls-6,.cls-8{mix-blend-mode:multiply;}.cls-3,.cls-5{fill:#963e35;}.cls-12,.cls-4,.cls-6{fill:#c87568;}.cls-17,.cls-18,.cls-21,.cls-4,.cls-5{opacity:0.5;}.cls-5{mix-blend-mode:screen;}.cls-6{opacity:0.7;}.cls-7{fill:#4052a0;}.cls-15,.cls-16,.cls-17,.cls-8{fill:#1d255b;}.cls-14,.cls-8{opacity:0.4;}.cls-9{fill:#fad0bf;}.cls-10,.cls-16,.cls-23{opacity:0.2;}.cls-11,.cls-23{fill:#fa7296;}.cls-12{opacity:0.8;}.cls-13{fill:#1b205e;}.cls-20,.cls-21{fill:#cc5252;}.cls-22{fill:#65a1ff;}.cls-24{fill:#ba5443;}</style></defs><title>full_bagРесурс 1</title><g class="cls-1"><g id="Слой_2" data-name="Слой 2"><g id="OBJECTS"><path class="cls-2" d="M63.57,188.4c0,4.15-14.23,7.5-31.78,7.5S0,192.55,0,188.4s14.23-7.5,31.79-7.5S63.57,184.26,63.57,188.4Z"/><path class="cls-3" d="M76.27,152.58a6.88,6.88,0,0,0,2-2.69c1.47-3.37.66-7.33.67-10.78,0-3.25.8-12.93-4.32-14.37-7.22-2-15.82-2.26-23.33-2-2.88.12-7.15.1-9,2.14-2.31,2.49-2.7,6.65-3.34,9.63a44.17,44.17,0,0,0-.91,7c-.17,3.12.27,6.88,2.24,9.65,2.84,4,9.81,3.61,14.71,3.89,3.43.19,6.88.22,10.31.09C69.29,155,73.56,154.74,76.27,152.58Z"/><path class="cls-4" d="M79,139.11c0-2.2.36-7.33-1-10.87,0,.42.07.84.07,1.27A15.41,15.41,0,0,1,72.62,141a.86.86,0,0,1-.14.13,20.44,20.44,0,0,1-26.27,0,15.44,15.44,0,0,1-5.44-11.54,14.08,14.08,0,0,1,.33-3c-1.29,2.42-1.65,5.52-2.16,7.89a44.17,44.17,0,0,0-.91,7c-.17,3.12.27,6.88,2.24,9.65,2.84,4,9.81,3.61,14.71,3.89,3.43.19,6.88.22,10.31.09,4-.16,8.27-.43,11-2.59a6.88,6.88,0,0,0,2-2.69C79.78,146.52,79,142.56,79,139.11Z"/><path class="cls-5" d="M41.65,125.74a73.69,73.69,0,0,1,15.78-1c10.44.48,14.38,2.1,14.38,2.1l3.85-1.6a4,4,0,0,0-1-.45,53.68,53.68,0,0,0-7.39-1.43,127.4,127.4,0,0,0-14.37-.57l-1.57,0h0a38.76,38.76,0,0,0-6.25.66,5.8,5.8,0,0,0-2.76,1.48A6.16,6.16,0,0,0,41.65,125.74Z"/><path class="cls-6" d="M78.86,139.56c0-2.29.4-7.65-.89-11.37a5.15,5.15,0,0,0-3.31-3.45l-.64-.15a4.56,4.56,0,0,0-2.48,2.06c-2.39,4-7.61,22.68-3,27.2a7.24,7.24,0,0,0,1.29,1,12.89,12.89,0,0,0,6.47-2.27,6.88,6.88,0,0,0,2-2.69,9.2,9.2,0,0,0,.56-1.83C79.25,145.24,78.84,142.26,78.86,139.56Z"/><path class="cls-5" d="M75.89,151.39a17.93,17.93,0,0,0,.23-1.83c.16-2.82,0-5.8,0-8.5a88.55,88.55,0,0,0-.37-11.37c-.27-1.68-.7-3-1.38-3.45l-.27-.15a3.86,3.86,0,0,0-1,2.06c-.94,3.76-2.95,20.84-1.51,26.42a12.23,12.23,0,0,0,3.87-1.42A10.9,10.9,0,0,0,75.89,151.39Z"/><path class="cls-7" d="M69.78,130.83c.47,0,.93,0,1.41,0a29.63,29.63,0,0,0,7.26-.86,12.42,12.42,0,0,0-.48-1.82,5.15,5.15,0,0,0-3.31-3.45l-.64-.15a4.56,4.56,0,0,0-2.48,2.06A23.88,23.88,0,0,0,69.78,130.83Z"/><path class="cls-8" d="M74.94,128.69a5.64,5.64,0,0,0-2.52-3.12,4.81,4.81,0,0,0-.88,1.08,23.88,23.88,0,0,0-1.76,4.18c.47,0,.93,0,1.41,0a32.29,32.29,0,0,0,3.47-.19l.76-.17A13.82,13.82,0,0,0,74.94,128.69Z"/><path class="cls-9" d="M55.11,110.54a3.43,3.43,0,0,0-.9,2.62,5.16,5.16,0,0,0,.14,1.88c-.43.4-1.13.45-1.56,1a3.17,3.17,0,0,0-.79,1.73,2.76,2.76,0,0,0,1.53,3.07,8.17,8.17,0,0,0,1.52.25,5.4,5.4,0,0,0,1.7.27c3.52-.19,5.48-.55,6.86-3.2s-.16-8.38-.78-9c-.22-.22-.72-.17-1-.18a16.61,16.61,0,0,0-1.86.13A15.85,15.85,0,0,0,56,110,2.71,2.71,0,0,0,55.11,110.54Z"/><g class="cls-10"><path class="cls-11" d="M52.68,116.16a15.73,15.73,0,0,1,4.24-.6,16,16,0,0,1,7,1.65c.73-2.87-.56-7.52-1.11-8.07-.22-.22-.72-.17-1-.18a16.61,16.61,0,0,0-1.86.13A15.85,15.85,0,0,0,56,110a2.71,2.71,0,0,0-.92.55,3.43,3.43,0,0,0-.9,2.62,5.16,5.16,0,0,0,.14,1.88c-.43.4-1.13.45-1.56,1Z"/></g><path class="cls-11" d="M58.89,119l.26,0,.25,0a1.93,1.93,0,0,0,.69,0,3.19,3.19,0,0,0,2-.81,4.76,4.76,0,0,0,1.23-1.89,3.23,3.23,0,0,0,.22-1,5,5,0,0,0-.41.92,4.67,4.67,0,0,1-1.26,1.63,2.74,2.74,0,0,1-1.74.6,1.54,1.54,0,0,1-.6,0l-.22,0-.23,0a2.77,2.77,0,0,1-.54-.22,1,1,0,0,1-.5-.55,1.13,1.13,0,0,1,.19-.91,2.79,2.79,0,0,1,1.57-1.1,2.32,2.32,0,0,1,.39-.07.94.94,0,0,1,0,.16c0,.22,0,.48.11.5s.18-.21.27-.48c0-.07,0-.15,0-.21s0,0,0,0,0,0,0,0c0-.17,0-.32,0-.32a4.56,4.56,0,0,0-.15-.5c-.12-.24-.24-.45-.31-.42s-.08.3-.07.54v.09c-.13-.1-.65-.26-1.1-.54a3,3,0,0,1-.9-.82,2,2,0,0,1-.47-1.12,12.12,12.12,0,0,1,.13-1.4,2.21,2.21,0,0,0-.51,1.43,2.29,2.29,0,0,0,.2,1.09,2.47,2.47,0,0,0,.23.42,2.1,2.1,0,0,0,.33.33l.09.06s-.06,0-.1,0a2.17,2.17,0,0,0-.89,1.8,4.43,4.43,0,0,0,0,1.09,4,4,0,0,0,.06.51c0,.15.08.3.12.43a4.26,4.26,0,0,0,.33.85,1.72,1.72,0,0,1,.12.21c.09.13.24.3.41.51a5.34,5.34,0,0,0,.66.55,2.1,2.1,0,0,0,.93.37,2.9,2.9,0,0,0,1.76-.39,1.81,1.81,0,0,0,.65-.56s-.3.16-.73.33a2.66,2.66,0,0,1-1.6.18,1.89,1.89,0,0,1-.74-.36,4.32,4.32,0,0,1-.57-.55c-.13-.18-.25-.32-.32-.44l-.1-.2a1.75,1.75,0,0,0-.11-.2,1.65,1.65,0,0,0,.27.21A2.78,2.78,0,0,0,58.89,119Zm-1.39-2.84a2,2,0,0,1,.6-1.6l.22-.09a2.87,2.87,0,0,0,.52.28,2.56,2.56,0,0,0,1.27.2c0,.18,0,.31,0,.31l0,.11a1.75,1.75,0,0,0-.39,0,2.8,2.8,0,0,0-1.84,1.08,1.93,1.93,0,0,0-.33.74.09.09,0,0,0,0-.05A4.53,4.53,0,0,1,57.5,116.11Z"/><path class="cls-11" d="M56.89,120.28A4.48,4.48,0,0,1,55.75,119a3.61,3.61,0,0,1-.34-.75,3.19,3.19,0,0,1-.2-.79,3.79,3.79,0,0,1,.22-1.83,2.08,2.08,0,0,1,.54-.76,1.33,1.33,0,0,1,.71-.28c.45,0,.76.13.78.07a1.21,1.21,0,0,0-.77-.31,1.43,1.43,0,0,0-.87.22,2.21,2.21,0,0,0-.72.87,4.18,4.18,0,0,0-.39,2.11,3.47,3.47,0,0,0,.2,1,4.63,4.63,0,0,0,1.77,2.2,2.46,2.46,0,0,0,1.77.42,1.4,1.4,0,0,0,.77-.36s-.32.1-.78.12A2.41,2.41,0,0,1,56.89,120.28Z"/><path class="cls-11" d="M55.69,120.93A4.6,4.6,0,0,1,54,119.2l-.1-.19a1.61,1.61,0,0,1-.2-.5,4.57,4.57,0,0,1-.1-1.81,1.88,1.88,0,0,1,.81-1.46c.4-.19.72-.12.73-.18a.91.91,0,0,0-.8,0c-.53.13-1,.88-1.12,1.61a5.23,5.23,0,0,0,0,2.05,2.42,2.42,0,0,0,.22.65l.11.23a4.41,4.41,0,0,0,.53.69,4.64,4.64,0,0,0,1.45,1.09,2.73,2.73,0,0,0,1.73.25,1.37,1.37,0,0,0,.74-.37c0-.06-.31.1-.76.13A2.71,2.71,0,0,1,55.69,120.93Z"/><path class="cls-11" d="M52.59,119.08a2.39,2.39,0,0,1-.11-.55,2.53,2.53,0,0,1-.06-.58,2.78,2.78,0,0,1,.26-1.23c.4-.88,1.26-1.36,1.22-1.45a2.51,2.51,0,0,0-1.54,1.23,3.06,3.06,0,0,0-.44,1.46,3,3,0,0,0,0,.69l0,.19a3,3,0,0,0,.15.47,2.52,2.52,0,0,0,.82,1.16,2.12,2.12,0,0,0,1.78.44c0-.1-.92-.17-1.54-.8A2.18,2.18,0,0,1,52.59,119.08Z"/><path class="cls-3" d="M57.29,113.18a6.87,6.87,0,0,0-6.3,3.27c-1.67,2.15-.49,7.37-.49,7.37l2.3.12a20.42,20.42,0,0,1,.06-3.83A3,3,0,0,1,53,116l.06-.06a3,3,0,0,1,1.89-.85,3.12,3.12,0,0,1,2.76-.68,2.58,2.58,0,0,1,.14-.39A3.33,3.33,0,0,1,57.29,113.18Z"/><path class="cls-3" d="M63.29,114.34a3.08,3.08,0,0,1-1.57,3.7,2.78,2.78,0,0,1,.9,1.17c1.36,3.34.53,5.07.53,5.07s3,1.15,3-.58C66.18,123.7,67.7,116.68,63.29,114.34Z"/><path class="cls-12" d="M52.23,118.93A3.06,3.06,0,0,1,53,116l.06-.06a3,3,0,0,1,1.89-.85,3.14,3.14,0,0,1,2.77-.68,1.55,1.55,0,0,1,0-.23,17,17,0,0,0-3.3-.56A7.05,7.05,0,0,0,51,116.45c-1.67,2.15-.49,7.37-.49,7.37l1.3.07A4.24,4.24,0,0,1,52.23,118.93Z"/><path class="cls-12" d="M65.07,121.42a12.2,12.2,0,0,0-1.3-3.9,4.59,4.59,0,0,0-.69-.78,2.7,2.7,0,0,1-1.36,1.3,2.78,2.78,0,0,1,.9,1.17c1.36,3.34.53,5.07.53,5.07a5.73,5.73,0,0,0,2,.37A21.64,21.64,0,0,0,65.07,121.42Z"/><path class="cls-13" d="M47,48.91c.92-1.32,2.73-2.51,6.6,1.73,1.37,1.5,1.6,12.75,1.6,12.75l2.22,23.09,6,22s-6,5.5-9.86,2.84A174.82,174.82,0,0,1,47,87C44.08,72.25,43.84,53.43,47,48.91Z"/><g class="cls-14"><path class="cls-15" d="M47,48.91c.92-1.32,2.73-2.51,6.6,1.73,1.37,1.5,1.6,12.75,1.6,12.75l2.22,23.09,6,22s-6,5.5-9.86,2.84A174.82,174.82,0,0,1,47,87C44.08,72.25,43.84,53.43,47,48.91Z"/></g><g class="cls-14"><path class="cls-15" d="M54.06,90.34a3.85,3.85,0,0,1,3.45-3.5l-.1-.36-.12-1.32L57,85.08c-12.59-3.75-6.59-23.73-6.83-32.95a4.37,4.37,0,0,1,1.34-3.44c-2.45-1.79-3.75-.83-4.48.22C43.84,53.43,44.08,72.25,47,87a174.82,174.82,0,0,0,6.48,24.37,4.82,4.82,0,0,0,4.11.48C54.85,105,52.86,97.82,54.06,90.34Z"/></g><path class="cls-13" d="M14.93,175.2c-.14.48-1,5.17-1,5.17S25.47,189.66,24,190.46s-13.18-5.37-14-8.06l1.27-8.61Z"/><g class="cls-14"><path class="cls-15" d="M21.66,188.52a16.53,16.53,0,0,1-5.49-3.3A5,5,0,0,1,14.76,181l-.81-.66s.84-4.69,1-5.17l-3.64-1.41L10,182.4c.8,2.69,12.52,8.87,14,8.06.35-.18,0-.84-.79-1.73A3.44,3.44,0,0,1,21.66,188.52Z"/></g><path class="cls-7" d="M22,122.21S10.17,159.8,10.17,175.3c0,0,2.33,4,5.83,2.41l20.25-52S28.5,116,22,122.21Z"/><path class="cls-16" d="M22,122.21S10.17,159.8,10.17,175.3c0,0,2.33,4,5.83,2.41l20.25-52S28.5,116,22,122.21Z"/><path class="cls-16" d="M29.12,144l7.13-18.33S28.5,116,22,122.21c0,0-1.68,5.36-3.78,12.86A16.51,16.51,0,0,1,29.12,144Z"/><path class="cls-17" d="M29.5,138.46s-.07.31-.23.83l-.68,2.17c-.5,1.81-1.48,4.11-2.36,6.46-1.92,4.62-3.94,9.19-3.94,9.19L21,160c-.78,1.7-1.67,4-2.61,6.35-.4,1.18-.81,2.36-1.19,3.47-.19.56-.39,1.08-.54,1.6s-.26,1-.38,1.46l-.58,2.19c-.14.53-.24.83-.24.83s.06-.31.18-.84.31-1.29.52-2.21c.11-.45.23-1,.36-1.47s.33-1.05.51-1.61c.37-1.12.74-2.31,1.15-3.49.92-2.33,1.79-4.68,2.56-6.4L22,157s2.05-4.56,4-9.16c.91-2.33,1.92-4.62,2.46-6.41.3-.89.55-1.63.73-2.15Z"/><path class="cls-13" d="M45.38,176.8c0,.51,1.11,5.15,1.11,5.15s14.22,4.08,13.19,5.39-14.24.18-16-2l-2.18-8.43Z"/><g class="cls-14"><path class="cls-15" d="M57.92,185.88a7.73,7.73,0,0,1-3.54.48,33.16,33.16,0,0,1-4.22-.84,5,5,0,0,1-3.5-3.52l-.17-.05s-1.06-4.64-1.11-5.15l-3.91.12,2.18,8.43c1.79,2.17,15,3.3,16,2C60,187,59.19,186.47,57.92,185.88Z"/></g><path class="cls-7" d="M17.29,101.18c-.49.6-3.85,10.06-1.08,16.69s8.16,11.21,8.51,12.21,12,13,12,13,1.92,28.08,3.67,34.05a4.62,4.62,0,0,0,6.33.2s2.88-30.44,1.09-39.08c-3.34-8.67-10-18-10-18s4.55-12.82,3.82-17.14S26,90.62,17.29,101.18Z"/><path class="cls-16" d="M46.17,139.74c-5.27-.54-8.27-4.06-11.1-8.23-3.2-4.7-6.45-9.36-9.28-14.31-2.64-4.6,4.46-8.74,7.09-4.14,1.65,2.87,3.39,5.73,5.24,8.5a3.51,3.51,0,0,1,.4-.27l-.68-1s4.55-12.82,3.82-17.14-15.63-12.54-24.37-2c-.49.6-3.85,10.06-1.08,16.69s8.16,11.21,8.51,12.21,12,13,12,13,1.92,28.08,3.67,34.05a4.62,4.62,0,0,0,6.33.2S49.39,149.43,48,139.5A3.89,3.89,0,0,1,46.17,139.74Z"/><g class="cls-18"><path class="cls-15" d="M45.75,174.13s0-.49,0-1.36,0-2.1,0-3.58c0-3,0-6.92,0-10.88,0-2,0-3.95,0-5.81s.19-3.59.29-5.06c0-.74.06-1.42.09-2S46,144.3,46,143.87c-.05-.85-.08-1.34-.08-1.34s-.08-.48-.24-1.32a17.58,17.58,0,0,0-1.22-3.33,104.28,104.28,0,0,0-5.59-9.3c-2.19-3.29-4.36-6.61-5.91-9.14-.73-1.29-1.34-2.36-1.76-3.12s-.66-1.19-.66-1.19.27.42.71,1.16L33,119.38c1.58,2.51,3.77,5.8,6,9.07a106,106,0,0,1,5.66,9.3,17.79,17.79,0,0,1,1.26,3.39c.18.85.26,1.35.26,1.35s0,.5.07,1.37c0,.43.08,1,0,1.57s-.07,1.28-.1,2c-.11,1.49-.27,3.21-.32,5.05s0,3.83,0,5.81c0,4,0,7.91,0,10.88,0,1.48,0,2.72,0,3.58S45.75,174.13,45.75,174.13Z"/><path class="cls-15" d="M39,145.63a9.28,9.28,0,0,1-.57-.79c-.34-.48-.85-1.07-1.36-1.66S36,142,35.6,141.61l-.69-.7-2.16-2.26c-.54-.57-1.08-1.14-1.46-1.59a6.41,6.41,0,0,1-.62-.76,5.38,5.38,0,0,1,.71.68c.4.42,1,1,1.52,1.52l2.24,2.2s.27.28.67.72.92,1,1.43,1.62a18.3,18.3,0,0,1,1.29,1.73A6.21,6.21,0,0,1,39,145.63Z"/><path class="cls-15" d="M38.92,122s-.09-.07-.22-.21l-.56-.62c-.45-.52-1.07-1.19-1.64-1.9l-1.49-2c-.42-.54-.66-.93-.66-.93s-1-1.55-1.92-3.11c-.44-.79-.89-1.59-1.23-2.18l-.4-.73a1.23,1.23,0,0,1-.13-.29,1.4,1.4,0,0,1,.19.26c.1.17.26.41.44.69L32.62,113l2,3.06s.24.39.64.94l1.43,2c.54.73,1.13,1.42,1.55,2l.51.65A1.61,1.61,0,0,1,38.92,122Z"/><path class="cls-15" d="M28.5,101.63a2.67,2.67,0,0,1,.08.93,6.14,6.14,0,0,1-.45,2,9.12,9.12,0,0,1-1,1.83c-.32.46-.56.75-.56.75s-.26.29-.67.68A7.22,7.22,0,0,1,24.2,109a4.11,4.11,0,0,1-2,.36,3.21,3.21,0,0,1-.91-.22s.37.08.92.1a4,4,0,0,0,1.93-.45,6.69,6.69,0,0,0,1.63-1.16c.39-.38.63-.66.63-.66s.24-.28.57-.72a9.31,9.31,0,0,0,1-1.75,6.67,6.67,0,0,0,.53-1.94C28.53,102,28.46,101.63,28.5,101.63Z"/><path class="cls-15" d="M40.5,111.13a2.29,2.29,0,0,1-.42-.41,6.36,6.36,0,0,1-.78-1,9.16,9.16,0,0,1-.71-1.77,11.61,11.61,0,0,1-.24-1.89,10.23,10.23,0,0,1,.06-1.3,2.72,2.72,0,0,1,.09-.58s0,.94.08,1.87a11.89,11.89,0,0,0,.32,1.82,9.06,9.06,0,0,0,.6,1.74C39.91,110.4,40.54,111.09,40.5,111.13Z"/><path class="cls-15" d="M31.67,109.3s.21-.21.51-.53a5,5,0,0,0,.85-1.32,6.49,6.49,0,0,0,.42-1.52c.07-.43.09-.71.09-.71a22,22,0,0,0,.1-2.33,18.48,18.48,0,0,1,0-2.34,5.12,5.12,0,0,1,.08.73l.11,1.61c0,.58,0,1.17,0,1.62s0,.74,0,.74,0,.29-.11.73a6.87,6.87,0,0,1-.51,1.56,4.69,4.69,0,0,1-1,1.32,3.62,3.62,0,0,1-.42.33C31.74,109.27,31.68,109.31,31.67,109.3Z"/><path class="cls-15" d="M34.09,110.09a14.31,14.31,0,0,0,1.07-1.8,10.35,10.35,0,0,0,.53-2s.18-1,.26-2.08.09-2.11.14-2.11a3.23,3.23,0,0,1,.06.66c0,.4,0,.93,0,1.46a20.39,20.39,0,0,1-.17,2.13,10.39,10.39,0,0,1-.64,2,5,5,0,0,1-.81,1.23A3.48,3.48,0,0,1,34.09,110.09Z"/></g><path class="cls-2" d="M41.51,48.86c-.16-.37-.32-.74-.47-1.13a6.71,6.71,0,0,1,.12,2.08S41.31,49.45,41.51,48.86Z"/><path class="cls-16" d="M41.66,103.16c-.73-4.33-15.63-12.54-24.37-2a21.45,21.45,0,0,0-1.61,5.28,22.24,22.24,0,0,0,17.79-2.93,19,19,0,0,0,7.45,6.33A20.56,20.56,0,0,0,41.66,103.16Z"/><path class="cls-13" d="M14.05,46.32s9.76-5,20.47-3.93,16.21,5.44,18.57,7.73-.53,21.32-3.7,27.45A62.07,62.07,0,0,0,44.61,92.3c-.56,3-.74,14.22-.74,14.22a19,19,0,0,1-10-6.9,23.33,23.33,0,0,1-19.27,2.25A151.54,151.54,0,0,0,18.2,80.46C18.87,71,13.81,51.45,14.05,46.32Z"/><path class="cls-8" d="M44.61,92.3a68.76,68.76,0,0,1,2.33-8.78A18.87,18.87,0,0,1,33,84.33c-8.31-2.71-13.82-12.09-14.31-20.5a54.23,54.23,0,0,1,1.83-18.72A11.87,11.87,0,0,1,21,43.76l-.75.22L20,44l-.51.15-.26.09-.42.13-.27.09-.37.13-.27.09-.33.12-.26.09-.3.12-.25.09-.27.11-.23.09-.24.1-.21.08-.22.09-.19.08-.2.09-.16.07-.16.07-.15.06-.14.07-.11.05-.12.06-.08,0-.09.05-.06,0-.07,0h0C13.81,51.45,18.87,71,18.2,80.46a151.54,151.54,0,0,1-3.62,21.41l1.21.33.35.09.87.19.35.06c.32.06.64.12,1,.16l.18,0c.4.06.79.1,1.18.14a11.3,11.3,0,0,1,.05-1.3v-.1a12.07,12.07,0,1,1,24,2.34v.09a11.62,11.62,0,0,1-.51,2.44c.3.1.49.15.58.17h0S44.05,95.33,44.61,92.3Z"/><path class="cls-7" d="M49.4,77.44a2.88,2.88,0,0,1,.14-.57L50,75.38c.2-.61.39-1.33.61-2.1s.47-1.59.64-2.43c.36-1.67.78-3.33,1-4.61l.35-2.1.11-.58c.09-.36.11-.89.19-1.53s.15-1.37.21-2.17.08-1.65.12-2.5,0-1.71.05-2.51,0-1.54,0-2.19,0-1.17,0-1.55a3,3,0,0,1,0-.58,2.23,2.23,0,0,1,.06.58c0,.38,0,.91.08,1.55s.06,1.39.07,2.19.05,1.66,0,2.52,0,1.71-.06,2.52-.12,1.55-.17,2.19-.08,1.18-.16,1.55-.1.58-.1.58l-.4,2.12c-.2,1.27-.65,2.93-1.06,4.6-.2.84-.49,1.65-.72,2.42s-.45,1.49-.69,2.09-.41,1.11-.54,1.46A2.23,2.23,0,0,1,49.4,77.44Z"/><path class="cls-7" d="M33.83,99.62c-.13,0,.48-5.25.48-5.25s.17-1.3.33-2.6a17.86,17.86,0,0,1,.44-2.59,18.07,18.07,0,0,1-.1,2.63c0,.65-.09,1.31-.13,1.8s-.06.82-.06.82S34,99.64,33.83,99.62Z"/><path class="cls-19" d="M27.12,41.67s3.07,10.86,4.66,15.65,1.12,15,1.66,17.41,1.4,11.14,1.4,11.14A45.08,45.08,0,0,0,43.07,71c2.93-9,2.08-21.43-1-26.62S32.24,39.34,27.12,41.67Z"/><path class="cls-2" d="M27.12,41.67s3.07,10.86,4.66,15.65,1.12,15,1.66,17.41,1.4,11.14,1.4,11.14A45.08,45.08,0,0,0,43.07,71c2.93-9,2.08-21.43-1-26.62S32.24,39.34,27.12,41.67Z"/><path class="cls-20" d="M34.13,46.47s1,3.31,2.65,4.51c0,0-1.19,7-2,12.3s.07,24,.07,24,5.42-11.62,6.71-16.91-2-19.37-2-19.37,2-.58,1.85-4.46S35.59,39.4,34.13,46.47Z"/><path class="cls-21" d="M37.82,67.12c.12-4.79-.7-9.84,1-14.44a2.1,2.1,0,0,1,.92-1.12c-.08-.36-.13-.56-.13-.56s1.15-.34,1.64-2.22a4.11,4.11,0,0,1-2.09.53,3.07,3.07,0,0,1-1.86-.67,3.12,3.12,0,0,1-1.17-2.57,3.39,3.39,0,0,1,.84-2,2.32,2.32,0,0,1,1.43-.89,2.21,2.21,0,0,1,1.69.39l.26.2c-1.77-2.11-5.15-2.49-6.22,2.7,0,0,1,3.31,2.65,4.51,0,0-1.19,7-2,12.3s.07,24,.07,24,.88-1.89,2-4.48C37.06,77.56,37.69,72.35,37.82,67.12Z"/><path class="cls-8" d="M46.72,52.68c-3.63-12.09-6.5-10.44-6.5-10.44a52.94,52.94,0,0,1,1.51,23.41,104.37,104.37,0,0,1-6.9,23.08c.07-5.23.13-17.9-.72-25.46-1.08-9.7-7-18.8-5.58-23.46,0,0-4.82,1.95-5.1,6.57S23.88,60.82,25.52,63s5.6,1.56,5.6,1.56S27,70,28,74a51.94,51.94,0,0,0,3,8c.67,1.58,1.36,3.14,2,4.72s.82,3,1.74,4.29c.82-1.23,2.41-2.19,3.42-3.36a32.49,32.49,0,0,0,3.12-4.41,45.6,45.6,0,0,0,4.08-8.83c2-5.83-.47-9.67-.47-9.67C47.16,64.48,49.27,61.17,46.72,52.68Z"/><path class="cls-7" d="M28.53,39.81s-4.81,1.86-5.08,6.31S24,60,25.61,62.15s5.59,1.52,5.59,1.52-4.05,5.21-3.07,9.08S32.79,83.85,35,89.24c0,0,.34-17.47-.77-26.81S27.08,44.29,28.53,39.81Z"/><path class="cls-16" d="M32.25,66.83a11.55,11.55,0,0,1,1.94-4.45,2.51,2.51,0,0,0,0-.27,10.31,10.31,0,0,1-4.74-3c-3.46-3.35-3.88-8-3.94-12.55a8.23,8.23,0,0,1,2.86-5.68,5,5,0,0,1,.2-1.11s-4.81,1.86-5.08,6.31S24,60,25.61,62.15s5.59,1.52,5.59,1.52-4.05,5.21-3.07,9.08S32.79,83.85,35,89.24c0,0,0-1.43,0-3.69C32.41,79.7,30.92,73.19,32.25,66.83Z"/><path class="cls-7" d="M34.59,87.84a96.16,96.16,0,0,0,7.22-23.09,49.36,49.36,0,0,0-1.58-22.56s2.86-1.58,6.53,10.08c2.58,8.19.48,11.37-1.78,11.67,0,0,2.45,3.71.51,9.32-1.62,4.69-5.56,12.65-10.87,16Z"/><path class="cls-16" d="M41.65,73.35c.59-1.87,1.87-6.8,4.15-7.48A7.81,7.81,0,0,0,45,63.94a2.92,2.92,0,0,0,2.07-1.38c-1.58-1.43-2.28-4.12-2.51-6.26a25.7,25.7,0,0,0-1-6,64.38,64.38,0,0,1-2.74-8.18v0a1,1,0,0,0-.58,0,49.36,49.36,0,0,1,1.58,22.56,96.16,96.16,0,0,1-7.22,23.09l0,1.41a19.44,19.44,0,0,0,4.9-4.71C39.21,80.81,40.62,76.66,41.65,73.35Z"/><path class="cls-19" d="M29.83,36.78a5.21,5.21,0,0,0-1.29,7.6,13.55,13.55,0,0,0,6,6s-.72-5,3.3-7.49c0,0,4.75,2.78,3.76,7.67a13.41,13.41,0,0,0,1.62-6.46C43,40.81,37.39,34.94,29.83,36.78Z"/><path class="cls-2" d="M41,43.81v-.09a5.75,5.75,0,0,1,.78-2.82,11.59,11.59,0,0,0-12-4.12,5.46,5.46,0,0,0-2.4,4.61,2.1,2.1,0,0,1,1.67-.57c2.65.18,5.31.5,6.28,3.48.09.28.16.55.23.83a6.65,6.65,0,0,1,2.21-2.25,9.3,9.3,0,0,1,3.1,3.26A6.12,6.12,0,0,1,41,43.81Z"/><path class="cls-22" d="M37.42,42.05a9.52,9.52,0,0,0,3.11-.49c0-.07-1.56.23-3.11.15a14.68,14.68,0,0,1-2.11-.24c-.28,0-.51-.12-.67-.15l-.26-.07-.25-.07c-.16,0-.4-.1-.66-.2a8.48,8.48,0,0,1-1.89-.91A7.23,7.23,0,0,1,30,38.67a5.84,5.84,0,0,0-.6-.77,3.29,3.29,0,0,0,.45.88,6.68,6.68,0,0,0,1.51,1.57,8.9,8.9,0,0,0,1.93,1,5.49,5.49,0,0,0,.69.23l.26.09.27.06.71.13A14,14,0,0,0,37.42,42.05Z"/><path class="cls-22" d="M41.31,46.45c-.06-.2-.14-.36-.18-.48s-.07-.17-.07-.17a6.66,6.66,0,0,0-.36-.61,5.73,5.73,0,0,0-1-1.17,4.71,4.71,0,0,0-1.31-.8,2.48,2.48,0,0,0-.48-.15l.17-.1c.38-.19.67-.25.66-.3s-.07,0-.2,0a1.92,1.92,0,0,0-.53.12,3.71,3.71,0,0,0-1.39.88,6.68,6.68,0,0,0-1,1.29l-.27.47-.09.18a10.25,10.25,0,0,0-.69,2.27,7.39,7.39,0,0,0-.11,1.63,2,2,0,0,0,.11.73,3.66,3.66,0,0,0,.07-.73,10.16,10.16,0,0,1,1-3.69l.09-.18c0-.11.13-.27.23-.46a6.74,6.74,0,0,1,.89-1.27,4.59,4.59,0,0,1,1-.8c.1.06.28.14.5.27a5.35,5.35,0,0,1,1.15.88,6.12,6.12,0,0,1,.86,1.15c.19.34.3.59.3.59l.08.16c0,.11.13.25.2.44A12,12,0,0,1,41.35,48c.26,1,.33,2.13.4,2.13a6.5,6.5,0,0,0-.07-2.2A9.39,9.39,0,0,0,41.31,46.45Z"/><path class="cls-22" d="M43.18,45.41a11,11,0,0,0,0-1.41,5.19,5.19,0,0,0-.07-.64,3.6,3.6,0,0,0-.15-.63,6.26,6.26,0,0,0-.55-1.31,4.71,4.71,0,0,0-.87-1.11,1.59,1.59,0,0,0-.51-.38s.14.22.37.51a5.74,5.74,0,0,1,.71,1.14,6,6,0,0,1,.42,1.26c.08.36.11.6.11.6s0,.24.1.6.08.86.1,1.36a16.72,16.72,0,0,0,0,2A8.44,8.44,0,0,0,43.18,45.41Z"/><path class="cls-22" d="M32.28,48.7c-.5-.52-1.16-1.23-1.76-2A17.69,17.69,0,0,1,29,44.56a11.16,11.16,0,0,1-.55-1.06A8.8,8.8,0,0,1,28,42.42a5.39,5.39,0,0,1-.27-2.53,4.34,4.34,0,0,1,.44-1.3,4.68,4.68,0,0,1,.71-1c.48-.53.88-.81.86-.84s-.12,0-.3.16a4.59,4.59,0,0,0-.7.54,5.56,5.56,0,0,0-.81,1,4.35,4.35,0,0,0-.53,1.37,5.47,5.47,0,0,0,.18,2.72A8.9,8.9,0,0,0,28,43.71a11.62,11.62,0,0,0,.6,1.08,16.49,16.49,0,0,0,1.63,2.15,20,20,0,0,0,1.9,1.9,5,5,0,0,0,1,.75A8.31,8.31,0,0,0,32.28,48.7Z"/><path class="cls-9" d="M1.26,112.53s-2.31,5.79,0,8.6,11,4.1,10.72,3-1.49-1.72-1.9-2.82a5.92,5.92,0,0,1,.22-3.94c.77.67,1.07,3.53,2.21,3.46,2-.12.8-4.58.47-5.73-.62-2.15-1.84-4.07-4-4.5C7.12,110.27,1.74,109.9,1.26,112.53Z"/><path class="cls-23" d="M2,114.92c4.81-1.72,8.87,1.19,11.35,5.37h0c.58-1.1.06-3.49-.25-4.7l0-.07-.11-.39c-.62-2.15-1.84-4.07-4-4.5-1.82-.36-7.2-.73-7.68,1.9a17.92,17.92,0,0,0-.77,2.7C.89,115.1,1.69,115,2,114.92Z"/><path class="cls-11" d="M10.93,124.43c0-.12-.67-.23-1.22-.59a3.47,3.47,0,0,1-.38-.29l-.16-.13L9,123.26l-.26-.3-.26-.33a6.91,6.91,0,0,1-.5-.79,7.11,7.11,0,0,0-.66-1.29A3.44,3.44,0,0,0,7.61,122a6.22,6.22,0,0,0,.69,1.37l.36.34c.05,0,.1.1.17.15l.22.14a3.67,3.67,0,0,0,.48.26,2.71,2.71,0,0,0,1,.2C10.76,124.49,10.93,124.48,10.93,124.43Z"/><path class="cls-11" d="M8.19,124.29c0-.09-.6-.33-1.13-.69a5.43,5.43,0,0,1-1-.8,3.8,3.8,0,0,1-.81-.94c-.34-.54-.39-1.23-.48-1.24a1.87,1.87,0,0,0,.08,1.44,3.66,3.66,0,0,0,.5.89,3.48,3.48,0,0,0,.3.36l.36.27a4.66,4.66,0,0,0,.84.46A2.22,2.22,0,0,0,8.19,124.29Z"/><path class="cls-11" d="M5.34,123.42c0-.1-.59-.33-1.13-.69a6.24,6.24,0,0,1-1-.81,3.65,3.65,0,0,1-.81-.93c-.34-.55-.39-1.23-.48-1.24A1.87,1.87,0,0,0,2,121.19a3.66,3.66,0,0,0,.5.89,2.7,2.7,0,0,0,.3.35s.14.12.36.28a5.53,5.53,0,0,0,.85.45C4.66,123.44,5.33,123.51,5.34,123.42Z"/><path class="cls-13" d="M14.05,46.32c1.43-1,3.87,2.73,5.54,8.73s-.88,8.78-.88,8.78L13.09,87.71l-.5,24s-8.34,3.34-11.67-.66a170.19,170.19,0,0,1,.67-26.5C3.06,68.86,9.18,49.7,14.05,46.32Z"/><path class="cls-8" d="M19.59,55.05c-1.67-6-4.11-9.71-5.54-8.73a6.26,6.26,0,0,0-.85.75,4.37,4.37,0,0,1,1.46,3c2,3.65.89,9.12.17,13.36-1,5.8-1.72,14.73-6.11,19.16a5.51,5.51,0,0,1-7,1l-.09,1c-.11,1.15-.21,2.27-.29,3.36A4.06,4.06,0,0,1,3.83,89C8.45,93,9.69,99.86,9.34,105.76a42.27,42.27,0,0,1-.86,7,21.8,21.8,0,0,0,4.11-1.1l.5-24,5.62-23.88S21.25,61.05,19.59,55.05Z"/><path class="cls-7" d="M17.62,69c-.11,0,.59-2.2,1-4.41.15-.54.18-1.11.27-1.62a10,10,0,0,0,.15-1.43c0-.83.06-1.39.06-1.39a23.28,23.28,0,0,0-.41-4.44c-.43-2.2-1.2-4.34-1.09-4.38a6.52,6.52,0,0,1,.57,1.3,26.69,26.69,0,0,1,.95,3,22.43,22.43,0,0,1,.61,4.54s-.05.57-.12,1.43a8.41,8.41,0,0,1-.21,1.46c-.11.52-.17,1.09-.34,1.64-.3,1.1-.61,2.2-.92,3A6.47,6.47,0,0,1,17.62,69Z"/><path class="cls-12" d="M30,17.42c-3.71-.64-7.27-1.91-9.49-5.59a7.84,7.84,0,0,0,1,2s.68,5.08,1.18,7.28a3.73,3.73,0,0,1,2.72,1.53,3.64,3.64,0,0,1,1,2.54L29,24.7l-.77-6.27A6.23,6.23,0,0,0,30,17.42Z"/><path class="cls-9" d="M51.26,19s3.28-2.46,4,.18-.34,9.34-2.88,7.78S51.26,19,51.26,19Z"/><path class="cls-23" d="M51.26,19a7.35,7.35,0,0,1,1.35-.76,1.44,1.44,0,0,1,1.19,1.2c.54,2,.07,6.26-1.27,7.6l-.15-.08C49.85,25.36,51.26,19,51.26,19Z"/><path class="cls-11" d="M53,26.14a12.19,12.19,0,0,1-.32-1.82,7.66,7.66,0,0,1,.09-1.83s0-.23.1-.56a6.15,6.15,0,0,1,.43-1.18,3.51,3.51,0,0,1,.74-1c.25-.24.45-.37.43-.39a1.9,1.9,0,0,0-.51.29,3.9,3.9,0,0,0-.86,1,5.62,5.62,0,0,0-.5,1.22c-.09.34-.14.58-.14.58a7.45,7.45,0,0,0,0,1.9A4.82,4.82,0,0,0,53,26.14Z"/><path class="cls-11" d="M54.08,24.94a2,2,0,0,0,0-.79,3.79,3.79,0,0,0-.09-.54l-.08-.24a1.18,1.18,0,0,0-.11-.22l-.14-.22c-.06-.08-.13-.15-.2-.23a1.11,1.11,0,0,0-.7-.37s.32.22.53.51a1.5,1.5,0,0,1,.15.23,2,2,0,0,1,.1.21,1.78,1.78,0,0,1,.09.21s0,.08.09.21.1.31.15.49A4.11,4.11,0,0,0,54.08,24.94Z"/><path class="cls-9" d="M39.39,3.32s8,1.47,10.22,6.6,1.77,13.41,1.77,13.41a26.91,26.91,0,0,1-.11,8.21,5.15,5.15,0,0,1-2.28,4c-2.16,1.36-5.41,1.11-8,1.31-1.63.77-.16,2.39-.8,3.91-3.84,1.84-7.12.46-9.57-1.34-1.58-1.16-.68-5.82-3.53-8.64a2.72,2.72,0,0,1-.24-.34s-4.63,1.89-7.1-1.8-1.23-9.35,4.15-7.18C23.87,21.5,21.74,3.61,39.39,3.32Z"/><g class="cls-10"><path class="cls-11" d="M24.45,25.16c.94,1.55.73,3.39-.46,4.11s-2.14-.06-3.08-1.6-1.51-3.28-.32-4S23.51,23.62,24.45,25.16Z"/></g><path class="cls-11" d="M24.73,25.62a3.56,3.56,0,0,0-.35-.6,4.29,4.29,0,0,0-.45-.52,4.33,4.33,0,0,0-1.21-.87,2.92,2.92,0,0,0-1.45-.33,1.21,1.21,0,0,0-.65.16s.27,0,.65,0a3.14,3.14,0,0,1,1.3.44,4.39,4.39,0,0,1,1.06.88,3.93,3.93,0,0,1,.38.49,4.61,4.61,0,0,1,.35.53l.07.15h0a1.41,1.41,0,0,0-.75-.17,1.62,1.62,0,0,0-.76.22c-.1,0-.16.12-.22.15l-.08.07-.06.08a1.17,1.17,0,0,0-.15.22,1.49,1.49,0,0,0-.23.77,1.35,1.35,0,0,0,.2.74c.12.18.21.27.24.25s0-.14-.08-.32a1.54,1.54,0,0,1,0-.65,1.38,1.38,0,0,1,.25-.56,1.32,1.32,0,0,1,.2-.21L23,26.5a1.08,1.08,0,0,1,.15-.13,1.43,1.43,0,0,1,.57-.26,1.56,1.56,0,0,1,.65,0l.17.05a3.36,3.36,0,0,1,.27.93,3.06,3.06,0,0,1,0,.74,3.1,3.1,0,0,1-.16.62c-.15.36-.31.57-.28.59s.23-.15.44-.51a3.14,3.14,0,0,0,.25-.66,2.7,2.7,0,0,0,.06-.81A3.7,3.7,0,0,0,24.73,25.62Z"/><g class="cls-10"><path class="cls-11" d="M45.31,25a1.5,1.5,0,0,1-1.75,1,1.25,1.25,0,0,1-1.22-1.43s-1.24,1.08-1.19,1.62S46.43,28.32,45.31,25Z"/></g><path class="cls-11" d="M41.14,26.05s.13-.16.3-.37a2.87,2.87,0,0,1,.74-.67,3.58,3.58,0,0,1,.9-.42,2.22,2.22,0,0,1,.43-.08l.11,0,.31,0a1.22,1.22,0,0,1,.83.3,1.47,1.47,0,0,1,.42.83c0,.28,0,.47.09.47s.09-.18.09-.48A1.6,1.6,0,0,0,45,24.53a1.52,1.52,0,0,0-.51-.37A2,2,0,0,0,44,24a1.68,1.68,0,0,0-.38,0h-.15a2.64,2.64,0,0,0-.49.14,3.45,3.45,0,0,0-1,.56,2.79,2.79,0,0,0-.7.84A.92.92,0,0,0,41.14,26.05Z"/><path class="cls-13" d="M35.33,22.7c.06,1.17.7,2.09,1.45,2.06s1.3-1,1.25-2.18-.7-2.1-1.45-2.06S35.28,21.53,35.33,22.7Z"/><path class="cls-13" d="M46.7,22.26c0,1.17.7,2.09,1.44,2.06s1.3-1,1.25-2.18-.7-2.09-1.44-2.06S46.64,21.09,46.7,22.26Z"/><path class="cls-23" d="M50.06,11.11c-.14-.39-.28-.79-.45-1.19-2.22-5.13-10.22-6.6-10.22-6.6C21.74,3.61,23.87,21.5,23.87,21.5l-.31-.12c.05.29.11.55.16.78a3.7,3.7,0,0,1,2.71,1.53c1.19,1.52,0,1.52,0,1.52l3.18-.42-.38-5.34s4.24-1.27,4.83-6.86a30.54,30.54,0,0,0,11.69-1.11A13.27,13.27,0,0,0,50.06,11.11Z"/><path class="cls-3" d="M21.52,13.86s.68,5.08,1.18,7.28a3.73,3.73,0,0,1,2.72,1.53A8.24,8.24,0,0,1,26.89,26l2.46-.24-.59-7.27s3.69-1.32,4.28-6.91a30.69,30.69,0,0,0,11.7-1.1,13,13,0,0,0,4.87-.55s1.57,3.77,1.4,6.31a23.13,23.13,0,0,0,.34,5.93l1.18-.85-.42-3.51A6.57,6.57,0,0,0,51.85,10s6.44-2.79.68-9.91a10.88,10.88,0,0,1-8.3,1C39.65-.21,25.59-1.56,23.89,5.55,23.89,5.55,17.79,8.26,21.52,13.86Z"/><path class="cls-12" d="M52.59.21C48.2,5.74,40.14,8.69,33.41,5.88a8.72,8.72,0,0,1-.87-.42A5.28,5.28,0,0,1,29,.91c-2.56.8-4.56,2.23-5.13,4.64a7.81,7.81,0,0,0-1.39.87,28.14,28.14,0,0,0,10.36,6.29c.07-.36.14-.74.18-1.14a30.69,30.69,0,0,0,11.7-1.1,13,13,0,0,0,4.87-.55s1.57,3.77,1.4,6.31a23.13,23.13,0,0,0,.34,5.93l1.18-.85-.42-3.51A6.57,6.57,0,0,0,51.85,10S58.24,7.27,52.59.21Z"/><path class="cls-12" d="M27.11,14.87c-3.25.45-4.94-.51-5.71-1.21a2.12,2.12,0,0,0,.12.2s.68,5.08,1.18,7.28a3.73,3.73,0,0,1,2.72,1.53A8.24,8.24,0,0,1,26.89,26l2.46-.24-.21-2.62-.93-4.7s4.24-1.27,4.83-6.86C33,11.57,32,14.2,27.11,14.87Z"/><path class="cls-12" d="M51,16.23a23.13,23.13,0,0,0,.34,5.93l1.18-.85-.42-3.51a6.55,6.55,0,0,0-.24-7.73,3.31,3.31,0,0,1-2.26-.15S51.18,13.69,51,16.23Z"/><path class="cls-24" d="M48.8,7.52A13.69,13.69,0,0,0,50.21,6a9.81,9.81,0,0,0,.94-1.59c.12-.24.21-.47.29-.67a4.25,4.25,0,0,0,.18-.54,2.78,2.78,0,0,0,.11-.48s-.24.68-.74,1.61a10.15,10.15,0,0,1-1,1.5,13.33,13.33,0,0,1-1.43,1.49,14.8,14.8,0,0,1-3.23,2.1c-1,.46-1.61.7-1.61.7s-.65.26-1.66.58a23.62,23.62,0,0,1-3.78.8,21,21,0,0,1-3.87.15c-1.05-.06-1.75-.2-1.76-.16a1.68,1.68,0,0,0,.47.14,12.57,12.57,0,0,0,1.28.2,19.59,19.59,0,0,0,3.92,0,22.53,22.53,0,0,0,3.87-.72c1-.3,1.7-.56,1.7-.56a15.61,15.61,0,0,0,1.64-.75A14.9,14.9,0,0,0,48.8,7.52Z"/><path class="cls-24" d="M49.68,9.47l.23-.13.21-.16a5.07,5.07,0,0,0,.54-.45A7.49,7.49,0,0,0,52,7.12a8.81,8.81,0,0,0,.9-1.88,3.11,3.11,0,0,0,.21-.92,5.32,5.32,0,0,0-.39.85,9.92,9.92,0,0,1-1,1.77A8.11,8.11,0,0,1,50.37,8.4a6.25,6.25,0,0,1-.52.4l-.21.14-.21.14a5.22,5.22,0,0,1-.56.33,9.17,9.17,0,0,1-1.86.76c-1.41.41-2.91.43-2.91.51a3.57,3.57,0,0,0,.94.06,10.44,10.44,0,0,0,2.06-.25,7.93,7.93,0,0,0,2-.69A3.57,3.57,0,0,0,49.68,9.47Z"/><path class="cls-24" d="M54.65,3.43c-.08,0,0,1.29-.36,2.52a6.79,6.79,0,0,1-.6,1.58,2.77,2.77,0,0,1-.3.47,1.8,1.8,0,0,1-.12.17l-.13.17a2.38,2.38,0,0,1-.36.4,4.14,4.14,0,0,1-1.4.91,7,7,0,0,1-1.66.42,2.91,2.91,0,0,0-.79.1,3,3,0,0,0,.8.08A5.86,5.86,0,0,0,51.5,10a4.28,4.28,0,0,0,1.58-.89,3.21,3.21,0,0,0,.42-.44l.16-.17.12-.2a3.14,3.14,0,0,0,.3-.52A6.65,6.65,0,0,0,54.62,6,7.26,7.26,0,0,0,54.65,3.43Z"/><path class="cls-24" d="M24.49,4.56a4.42,4.42,0,0,1,.59-1.07,5.41,5.41,0,0,1,1-1,8.19,8.19,0,0,1,2.36-1.14c.69-.21,1.16-.31,1.16-.31s.47-.12,1.19-.25S32.47.56,33.44.49s2-.11,2.69-.14A7.51,7.51,0,0,0,37.36.26a5.82,5.82,0,0,0-1.23-.1c-.73,0-1.72,0-2.71,0a24.36,24.36,0,0,0-2.71.23C30,.48,29.48.6,29.48.6S29,.71,28.29,1a7.9,7.9,0,0,0-2.42,1.3,4.94,4.94,0,0,0-1,1.09,4.49,4.49,0,0,0-.55,1.16,4,4,0,0,0-.17.88,1.48,1.48,0,0,0,0,.34C24.19,5.73,24.23,5.23,24.49,4.56Z"/><path class="cls-24" d="M47.3,2.44l.93-.18a14.64,14.64,0,0,0,2-.62,8.4,8.4,0,0,0,1.83-1A2.51,2.51,0,0,0,52.74,0,7.43,7.43,0,0,0,52,.49a9.76,9.76,0,0,1-1.85.84,13.64,13.64,0,0,1-2,.49L47.22,2a25.87,25.87,0,0,1-2.94.29c-1.48.07-3,0-3,0a12.58,12.58,0,0,0,3,.31A21.85,21.85,0,0,0,47.3,2.44Z"/><path class="cls-24" d="M27.25,4.39l.32-.27a9.42,9.42,0,0,1,1-.88,13,13,0,0,0,1.13-.82A3.58,3.58,0,0,0,28.43,3a8.64,8.64,0,0,0-1.18.81l-.31.32a4.92,4.92,0,0,0-.6.79,2.9,2.9,0,0,0-.39.91.77.77,0,0,0,0,.45s.09-.16.2-.39a4.45,4.45,0,0,1,.49-.78A8.5,8.5,0,0,1,27.25,4.39Z"/><path class="cls-24" d="M28,6A6.26,6.26,0,0,1,29.3,4.6,8.57,8.57,0,0,1,31,3.67l.83-.29.23-.07a6.09,6.09,0,0,1,.62-.19,14.78,14.78,0,0,1,1.93-.37c1.43-.19,2.88-.14,2.88-.2a10.16,10.16,0,0,0-2.91-.14,15.54,15.54,0,0,0-2,.28,6.35,6.35,0,0,0-.65.17l-.25.06s-.35.13-.86.35a7.84,7.84,0,0,0-1.73,1.07,5.79,5.79,0,0,0-1.3,1.55,2.75,2.75,0,0,0-.34.85A5.64,5.64,0,0,0,28,6Z"/><path class="cls-24" d="M21.22,10.3s.09-.17.22-.4A5.25,5.25,0,0,1,22,9.09a7.81,7.81,0,0,1,.94-1l.31-.29A4,4,0,0,1,24,7.26a1.57,1.57,0,0,1,.88-.19c.25,0,.42.09.44,0s0,0-.09-.09a1,1,0,0,0-.31-.15,1.65,1.65,0,0,0-1,.07,3.58,3.58,0,0,0-.92.48c-.22.17-.36.3-.36.3a5.89,5.89,0,0,0-.9,1.18,4.08,4.08,0,0,0-.41.93A.88.88,0,0,0,21.22,10.3Z"/><path class="cls-24" d="M24.93,10.9a3.52,3.52,0,0,1,0-.36,5.91,5.91,0,0,1,.3-1.07,5.78,5.78,0,0,1,.52-1c.16-.27.29-.43.26-.46s-.2.1-.41.34a4.53,4.53,0,0,0-.67,1,5,5,0,0,0-.43,1.12,3.1,3.1,0,0,0-.08.4c0,.09,0,.15,0,.15s0,.22,0,.56a2.59,2.59,0,0,0,.43,1.17,2.09,2.09,0,0,0,1,.69c.32.07.54.09.54.06s-.19-.12-.47-.23a2.05,2.05,0,0,1-.8-.71,2.25,2.25,0,0,1-.27-1,3.47,3.47,0,0,1,0-.49S24.92,11,24.93,10.9Z"/><path class="cls-24" d="M25.54,14.75s-.35.08-.86.12a3.18,3.18,0,0,1-1.79-.39,4.32,4.32,0,0,1-1.37-1.21,4.82,4.82,0,0,1-.45-.71,5.7,5.7,0,0,1-.36-.75A5.08,5.08,0,0,1,20.38,10a5,5,0,0,1,.15-1,3.27,3.27,0,0,1,.34-.8c.25-.44.51-.69.48-.72a1.77,1.77,0,0,0-.64.62,3.31,3.31,0,0,0-.44.82,4.26,4.26,0,0,0-.22,1,5,5,0,0,0,.25,2,5.13,5.13,0,0,0,.35.84,6,6,0,0,0,.52.76,4.72,4.72,0,0,0,1.57,1.24,3.69,3.69,0,0,0,1,.29,3.14,3.14,0,0,0,.93,0A1.93,1.93,0,0,0,25.54,14.75Z"/><path class="cls-24" d="M32.49,13.76a8,8,0,0,1-.78,1.54,6.49,6.49,0,0,1-1.12,1.3,2.8,2.8,0,0,1-.43.36l-.17.13a7.74,7.74,0,0,1-.64.44,7.4,7.4,0,0,1-1.56.69,7.79,7.79,0,0,1-1.7.28,3.76,3.76,0,0,0-.8.06,2.25,2.25,0,0,0,.8.13,6.61,6.61,0,0,0,3.48-.78,8.07,8.07,0,0,0,.71-.43l.17-.15a4.66,4.66,0,0,0,.45-.41A6.7,6.7,0,0,0,32,15.48a7.09,7.09,0,0,0,.67-1.67,2.52,2.52,0,0,0,.12-.8A3.51,3.51,0,0,0,32.49,13.76Z"/><path class="cls-24" d="M52.81,11.84a5.19,5.19,0,0,0-.67-1.25c-.23-.32-.44-.48-.46-.46s.13.23.3.56A6,6,0,0,1,52.49,12a7.92,7.92,0,0,1,.26,1.33c0,.37,0,.62,0,.62v.16c0,.11,0,.27,0,.45a5.69,5.69,0,0,1-.18,1.33,4.26,4.26,0,0,1-.56,1.23c-.21.3-.39.48-.37.52a1.49,1.49,0,0,0,.52-.41A3.71,3.71,0,0,0,52.93,16a5.57,5.57,0,0,0,.3-1.42,2.73,2.73,0,0,0,0-.47c0-.12,0-.18,0-.18s0-.27-.08-.65A6.89,6.89,0,0,0,52.81,11.84Z"/><path class="cls-23" d="M41,36.89c2.62-.2,5.87,0,8-1.31a5.15,5.15,0,0,0,2.28-4,17.29,17.29,0,0,0,.38-3.66,16,16,0,0,1-1.39,5c-1.62,3.07-6.72,3.88-14.33,3.07S27.27,30,27.27,30l-.14.87c2.76,2.83,1.89,7.41,3.46,8.56A12.09,12.09,0,0,0,34,41.28c1-1.73,2.23-3.53,3.35-3.31s1.83,1.75,2.19,3.08a6,6,0,0,0,.58-.25C40.8,39.28,39.33,37.66,41,36.89Z"/><path class="cls-3" d="M52.17,18.91l-1.26,0,0,.16.06-.14-.15,8.57s-2.14-1.67-8.45-1.09a26.6,26.6,0,0,0-10.15,2.8s-.54-5.32-3.49-8.11l-5.94.16c1.19.53,3.79,2.39,3.83,4.84.07,3.41-.23,3.86-.23,3.86-.55.91,1.66,4.53,2.33,5.15a12.15,12.15,0,0,0,4.91,2.7c3.43.94,8.45.65,11.92.15,7.27-1.06,7.82-3.85,7.75-7.56A70.26,70.26,0,0,0,52.17,18.91Z"/><path class="cls-12" d="M53.33,30.36a70.26,70.26,0,0,0-1.16-11.45l-1.26,0,0,.16.06-.14-.09,5.35A6.21,6.21,0,0,1,51.65,31c-2.08,4.07-6.23,5.28-10.37,5.08-2.77-.14-5.21-.21-7.7-1.64A9.18,9.18,0,0,1,30,30.15a9.67,9.67,0,0,1-1-4,3.83,3.83,0,0,1,1.39-2.85c-.11-.2-.22-.39-.35-.58v0c-.12-.19-.24-.37-.37-.54l0-.05c-.13-.17-.26-.34-.4-.5l0,0c-.15-.17-.3-.33-.46-.48l-.72,0-4.7.13h-.52c1.19.53,3.79,2.39,3.83,4.84.07,3.41-.23,3.86-.23,3.86-.55.91,1.66,4.53,2.33,5.15a12.15,12.15,0,0,0,4.91,2.7c3.43.94,8.45.65,11.92.15l.66-.11C52.88,36.69,53.4,34,53.33,30.36Z"/><path class="cls-24" d="M46.48,28.39a1.7,1.7,0,0,1-.27.54,4.36,4.36,0,0,1-.89,1,3.83,3.83,0,0,1-1.18.64,3.38,3.38,0,0,1-.44.12l-.17,0h-.17a1.82,1.82,0,0,1-.45,0,3,3,0,0,1-1.28-.44,3.74,3.74,0,0,1-1-.89c-.2-.3-.31-.51-.28-.52s.19.15.42.4a3.8,3.8,0,0,0,1,.73,2.66,2.66,0,0,0,1.15.3,2.49,2.49,0,0,0,.39,0h.15l.15,0a1.9,1.9,0,0,0,.39-.07,3.45,3.45,0,0,0,1.11-.5,4.62,4.62,0,0,0,.94-.83C46.3,28.56,46.45,28.38,46.48,28.39Z"/><path class="cls-3" d="M37.86,17.21s-.15,0-.28-.08a2,2,0,0,0-.52-.14,2,2,0,0,0-.51,0l-.22.06a2.43,2.43,0,0,0-.72.19c-.36.15-.64.46-.73.42s.07-.5.45-.83a2.49,2.49,0,0,1,.86-.47h.32a2,2,0,0,1,.68.14,1.41,1.41,0,0,1,.55.39C37.85,17.06,37.89,17.18,37.86,17.21Z"/><path class="cls-3" d="M49.37,17.14c-.11,0-.3-.31-.58-.49a1.45,1.45,0,0,0-.4-.17,1.64,1.64,0,0,0-.18,0L48,16.39a.42.42,0,0,0-.2,0l-.24,0c-.34,0-.68.19-.75.11s.2-.41.63-.59a1.67,1.67,0,0,1,.32-.08.81.81,0,0,1,.3,0h.29l.27.13a1.53,1.53,0,0,1,.5.41C49.43,16.68,49.45,17.12,49.37,17.14Z"/></g></g></g></svg>