<svg xmlns="http://www.w3.org/2000/svg" viewBox="0 0 106.85 94.42"><defs><style>.cls-1{isolation:isolate;}.cls-2{fill:#fad0bf;}.cls-3,.cls-4{fill:#fa7296;}.cls-12,.cls-17,.cls-3{opacity:0.2;}.cls-5{fill:#1b205e;}.cls-12,.cls-15,.cls-6{fill:#1d255b;}.cls-14,.cls-6{opacity:0.4;}.cls-11,.cls-12,.cls-14,.cls-16,.cls-6,.cls-7{mix-blend-mode:multiply;}.cls-7,.cls-9{fill:#d2e4ff;}.cls-8{fill:#4052a0;}.cls-10,.cls-11{fill:#cc5252;}.cls-11{opacity:0.5;}.cls-13{fill:#65a1ff;}.cls-16{fill:#c87568;opacity:0.8;}.cls-18{fill:#963e35;}.cls-19{fill:#ba5443;}.cls-20{fill:none;}</style></defs><title>hands_upРесурс 6</title><g class="cls-1"><g id="Слой_2" data-name="Слой 2"><g id="OBJECTS"><path class="cls-2" d="M6.24,22a11.72,11.72,0,0,1-2.5-8.5S-.92,7.8.41,5.63s4,3.83,4,3.83c-1-2.22-2.22-6.07-.59-8.24A1.79,1.79,0,0,1,4.7.54c.35-.11.72,0,1.06-.06C7.7,0,8.51,1.84,9,3.4a21.59,21.59,0,0,1,.74,2.73,7.1,7.1,0,0,0,.15-2c0-.59.43-1,.57-1.61.21-.89.59-2.3,1.76-2.21,2.17.16,1.17,9.5,1.17,9.5s2.11-4.2,3.5-3.09c1.67,1.34-2.33,8.09-2.5,10.09a5.76,5.76,0,0,0,.67,3.33S9.08,23.8,6.24,22Z"/><path class="cls-3" d="M14.41,16.8c.17-2,4.17-8.75,2.5-10.09-1.39-1.11-3.5,3.09-3.5,3.09A43.78,43.78,0,0,0,13.6,4C11.51,7.23,8.22,9.82,4.34,9.3l.07.16L4.34,9.3a7.92,7.92,0,0,1-1.89-.47A6.37,6.37,0,0,1,.29,7.44c.52,2.2,2.7,5.07,3.3,5.83a4.92,4.92,0,0,1,4.49-3A4.92,4.92,0,0,1,13,15.13v.17a4.92,4.92,0,0,1-4.87,4.87,4.88,4.88,0,0,1-3.86-2,12.32,12.32,0,0,0,2,3.75c2.84,1.84,8.84-1.83,8.84-1.83A5.76,5.76,0,0,1,14.41,16.8Z"/><path class="cls-4" d="M11.5,10.41l.33-.21a4.06,4.06,0,0,0-1.14-.29A6.29,6.29,0,0,0,9,10c-.45.08-.74.16-.74.16a8.83,8.83,0,0,0-2.15,1,5.56,5.56,0,0,0-1.23,1.07,1.44,1.44,0,0,0-.37.63s.21-.2.54-.47a6.47,6.47,0,0,1,1.28-.88,9,9,0,0,1,1.42-.62l.68-.21.67-.19a6.8,6.8,0,0,1,1.53-.17A5.54,5.54,0,0,1,11.5,10.41Z"/><path class="cls-4" d="M13.33,9.88s-.32.13-.78.31a6.29,6.29,0,0,0-1.52.89,6.55,6.55,0,0,0-1.18,1.3c-.27.4-.42.68-.42.68s-.16.27-.36.71a6.71,6.71,0,0,0-.49,1.68,6.51,6.51,0,0,0,0,1.78,3.34,3.34,0,0,1,.13.82,2.17,2.17,0,0,1-.37-.77,5.5,5.5,0,0,1-.23-1.87,6.75,6.75,0,0,1,.4-1.86,5,5,0,0,1,.35-.8A5.08,5.08,0,0,1,9.38,12a6.72,6.72,0,0,1,1.38-1.31A5.6,5.6,0,0,1,12.48,10,2,2,0,0,1,13.33,9.88Z"/><path class="cls-4" d="M15,15.8a5.16,5.16,0,0,1,.29-1.12c.23-.65.55-1.51.86-2.37a18.85,18.85,0,0,0,.69-2.37c.06-.33.1-.61.13-.8s0-.3,0-.3,0-.1,0-.29a3.35,3.35,0,0,0,0-.78c0-.3-.14-.68-.35-.79s-.67.06-1,.31A7.2,7.2,0,0,0,14,9.07c-.39.56-.53,1-.58,1a5.36,5.36,0,0,1,2-3.11,2.77,2.77,0,0,1,.64-.4l.39-.1a1.07,1.07,0,0,1,.44.07,1.45,1.45,0,0,1,.72,1.18,3.51,3.51,0,0,1,0,.88V8.9a1.81,1.81,0,0,1,0,.32c0,.21-.1.5-.17.84a16.8,16.8,0,0,1-.85,2.41c-.36.85-.76,1.68-1,2.3A4.61,4.61,0,0,1,15,15.8Z"/><path class="cls-4" d="M6,.57a1.84,1.84,0,0,0-.9-.08A2.31,2.31,0,0,0,3.9,2a4.55,4.55,0,0,0-.23,1.07A4.77,4.77,0,0,0,3.6,4a4.63,4.63,0,0,0,0,.93s0,.1,0,.26a4.19,4.19,0,0,0,.08.68,10.77,10.77,0,0,0,.55,2,12.63,12.63,0,0,0,.94,1.88c.33.48.54.81.5.84s-.3-.25-.7-.69A10.94,10.94,0,0,1,3.89,8.08,10.84,10.84,0,0,1,3.18,6a5.61,5.61,0,0,1-.12-.72L3,5A4.56,4.56,0,0,1,3,4a4.4,4.4,0,0,1,.13-1,4.9,4.9,0,0,1,.33-1.14A2.5,2.5,0,0,1,5,.25,1,1,0,0,1,6,.57Z"/><path class="cls-4" d="M13.68,5.69a6.55,6.55,0,0,1-.12-1.22,10.48,10.48,0,0,0-.41-2.61A2.06,2.06,0,0,0,12.46.79c-.34-.24-.59-.23-.79,0a3,3,0,0,0-.57.93L11,2c0,.1-.09.22-.15.35l0,.11s0,.06,0,.1-.05.16-.07.25a18.54,18.54,0,0,0-.58,2.6,10.93,10.93,0,0,0-.17,2.65c0,.18,0,.34.05.49s.06.26.09.36.07.34,0,.34S10,9.16,10,9s-.1-.23-.16-.37-.06-.32-.1-.5a9.53,9.53,0,0,1,0-2.74,18.83,18.83,0,0,1,.46-2.7l.07-.26a.63.63,0,0,1,0-.14l0-.11c.06-.14.1-.26.14-.37l.13-.32.16-.32a2.51,2.51,0,0,1,.6-.79A1.05,1.05,0,0,1,12,.06a1.28,1.28,0,0,1,.76.32,2.54,2.54,0,0,1,.79,1.34,9.47,9.47,0,0,1,.24,2.74A5.27,5.27,0,0,1,13.68,5.69Z"/><path class="cls-4" d="M8.75,2.48c-.06,0-.21-.36-.61-.81A5.83,5.83,0,0,0,7.45.93a1.77,1.77,0,0,0-.9-.48c-.3,0-.54.24-.64.52a3,3,0,0,0-.09,1c0,.61.08,1,.08,1s0,.44.08,1.06c0,.31,0,.68.09,1.07s.12.8.19,1.22C6.56,8,7,9.65,6.89,9.67a18.1,18.1,0,0,1-1-3.23C5.78,6,5.7,5.6,5.61,5.2s-.1-.78-.15-1.1C5.38,3.45,5.35,3,5.35,3A9.87,9.87,0,0,1,5.3,2,3.57,3.57,0,0,1,5.48.78,1.45,1.45,0,0,1,5.9.2.87.87,0,0,1,6.58,0,2,2,0,0,1,7.65.67a4.78,4.78,0,0,1,.66.85,3.27,3.27,0,0,1,.36.68C8.74,2.37,8.77,2.47,8.75,2.48Z"/><path class="cls-4" d="M3.45,12.5A5.66,5.66,0,0,1,1.82,11,13.16,13.16,0,0,1,.93,9.75L.6,9.13.52,9a3.17,3.17,0,0,1-.19-.48A8.17,8.17,0,0,1,0,7a2.6,2.6,0,0,1,.2-1.57C.5,4.94.9,5,.87,5.05s-.3.09-.42.44a2.72,2.72,0,0,0,0,1.39,9.88,9.88,0,0,0,.42,1.4,3.63,3.63,0,0,0,.2.43l.09.16.26.61c.2.34.44.82.74,1.27C2.75,11.65,3.52,12.42,3.45,12.5Z"/><path class="cls-5" d="M37.08,53.63s-4.67.42-10.67-9.33S15.74,18.13,15.74,18.13,13,21.38,4.49,21.63c0,0,4.92,19.92,10.42,29.42S33,71.8,38.75,72.3Z"/><path class="cls-6" d="M38.07,64.72C21.12,59.14,10.85,39,9.53,21a26.86,26.86,0,0,1-5,.59S9.41,41.55,14.91,51.05,33,71.8,38.75,72.3Z"/><path class="cls-7" d="M46.55,53.11c.16-.37.32-.74.47-1.13a6.69,6.69,0,0,0-.12,2.08S46.74,53.7,46.55,53.11Z"/><path class="cls-5" d="M49.53,94.42H67.46c-.16-2.77-.25-5.65-.18-8.32.11-4.17,1.52-10.18,3.08-16,1-3.63,2-7.21,2.8-10.25a43.56,43.56,0,0,0,1.55-7.29l0,0h0l-.07,0,0,0-.09-.05-.07,0-.12-.06-.1-.07L74,52.12,73.9,52,73.73,52l-.15-.09-.19-.1-.17-.1L73,51.55l-.2-.1a.7.7,0,0,0-.17-.09l-.07,0-.22-.11-.26-.13L71.85,51l-.28-.14-.25-.12L71,50.55l-.26-.12-.36-.16-.26-.12-.4-.17-.25-.11-.49-.2-.2-.08h0l-.69-.28c-1.07-.41-2.24-.81-3.49-1.17l-.08,0c-.7-.2-1.44-.4-2.19-.57l-.46-.1-.2,0h0l-.4-.08-.32-.06h0a32.86,32.86,0,0,0-5.8-.58h-.33c-.64,0-1.26,0-1.86,0h0c-.51,0-1,0-1.48.1h0l-.35,0c-.58.05-1.13.11-1.67.19h0l-.73.1h0l-.41.06-.15,0-.42.07-1.18.25h0l-.43.1h-.12a26,26,0,0,0-10.33,4.9,1.9,1.9,0,0,0-.46.63c-.81,1.62-1.11,5.5-1,9.91,0,.67,0,1.33.08,2v.11c0,.65.07,1.3.11,2,0,.37.08.91.14,1.55,0,.16,0,.33,0,.5.05.54.1,1.07.16,1.6a40.54,40.54,0,0,0,2,9.4,42.75,42.75,0,0,1,1.86,6.16c.1.44.2.89.29,1.33s.18.86.26,1.28v0c.07.34.13.67.19,1,.21,1.18.38,2.28.5,3.25,0,.27.07.52.1.76s0,.29.05.42h9.76Z"/><path class="cls-6" d="M49.53,94.42H67.46c-.16-2.77-.25-5.65-.18-8.32.11-4.17,1.52-10.18,3.08-16,1-3.63,2-7.21,2.8-10.25a43.56,43.56,0,0,0,1.55-7.29l0,0h0l-.07,0,0,0-.09-.05-.07,0-.12-.06-.1-.07L74,52.12,73.9,52,73.73,52l-.15-.09-.19-.1-.17-.1L73,51.55l-.2-.1a.7.7,0,0,0-.17-.09l-.07,0-.22-.11-.26-.13L71.85,51l-.28-.14-.25-.12L71,50.55l-.26-.12-.36-.16-.26-.12-.4-.17-.25-.11-.49-.2-.2-.08h0l-.69-.28a12.58,12.58,0,0,1,.32,1.38c.2,1.16.36,2.29.49,3.4,0,.06,0,.12,0,.18,0,.24,0,.48.07.72h0a50,50,0,0,1,.24,5.16,63.32,63.32,0,0,1-.81,9.35.29.29,0,0,1,0,.09.28.28,0,0,1,0,.09.19.19,0,0,1,0,.07c-1.31,7.81-7.08,16-14.87,18.41-.36.11-.71.21-1.08.29h0a1.8,1.8,0,0,1-.22.06c-.56.12-1.13.22-1.69.29h-.11l-.08,0-.16,0-.59.05-.24,0a.21.21,0,0,1-.08,0c-.13,0-.27,0-.41,0a19.07,19.07,0,0,1-2.62-.06h0c-.36,0-.73-.08-1.09-.14a18.06,18.06,0,0,1-6.7-2.39c.1.44.2.89.29,1.33s.18.86.26,1.28v0c.07.34.13.67.19,1,.21,1.18.38,2.28.5,3.25,0,.27.07.52.1.76s0,.29.05.42h9.76Z"/><path class="cls-8" d="M36.52,80.07a2.23,2.23,0,0,0-.08-.58c-.08-.37-.19-.9-.31-1.53s-.27-1.36-.41-2.15-.31-1.63-.4-2.48c-.2-1.7-.46-3.39-.51-4.68l-.15-2.13s0-.21,0-.58,0-.9,0-1.54,0-1.38,0-2.18.08-1.65.12-2.5.14-1.7.2-2.5.13-1.55.19-2.18.11-1.17.14-1.55a2.42,2.42,0,0,0,0-.59,2.56,2.56,0,0,0-.12.58c0,.37-.13.9-.22,1.53s-.19,1.38-.28,2.18-.21,1.65-.27,2.5-.12,1.71-.18,2.51,0,1.56,0,2.21a15.22,15.22,0,0,0,0,1.55c0,.38,0,.59,0,.59s.07.86.19,2.14.37,3,.61,4.69c.11.85.33,1.69.48,2.48s.31,1.52.48,2.14.3,1.15.4,1.51A3.21,3.21,0,0,0,36.52,80.07Z"/><path class="cls-8" d="M49.76,94.42h-.23a5.41,5.41,0,0,1,.11-1.28A5.71,5.71,0,0,1,49.76,94.42Z"/><path class="cls-9" d="M62.15,46.62S58.05,57.13,56,61.75s-2.56,14.86-3.33,17.17-2.48,11-2.48,11A45.06,45.06,0,0,1,43.44,74.3c-2-9.22,0-21.53,3.59-26.4S57.28,43.8,62.15,46.62Z"/><path class="cls-7" d="M62.15,46.62S58.05,57.13,56,61.75s-2.56,14.86-3.33,17.17-2.48,11-2.48,11A45.06,45.06,0,0,1,43.44,74.3c-2-9.22,0-21.53,3.59-26.4S57.28,43.8,62.15,46.62Z"/><path class="cls-10" d="M54.72,50.72S53.44,53.93,51.64,55c0,0,.52,7,.77,12.43S50,91.26,50,91.26s-4.27-12.09-5-17.47S48.83,54.7,48.83,54.7s-1.93-.77-1.42-4.62S54,43.55,54.72,50.72Z"/><path class="cls-11" d="M49.05,70.92c.34-4.79,1.64-9.73.39-14.47a2.09,2.09,0,0,0-.79-1.21c.11-.35.18-.54.18-.54a2.87,2.87,0,0,1-1.42-2.37,4.14,4.14,0,0,0,2,.73,3.08,3.08,0,0,0,3.32-2.93,3.34,3.34,0,0,0-.64-2.07,2.4,2.4,0,0,0-1.33-1,2.32,2.32,0,0,0-1.73.22l-.27.18c2-1.92,5.37-2,5.93,3.29,0,0-1.28,3.21-3.08,4.23,0,0,.52,7,.77,12.43S50,91.26,50,91.26s-.69-2-1.57-4.65C48.79,81.38,48.67,76.14,49.05,70.92Z"/><path class="cls-6" d="M49.53,94.42h.72c.71-1.08,1.06-2.31,1.68-3.45.51-.94,1-1.88,1.54-2.81l.93-1.7a51.87,51.87,0,0,0,3.75-7.72,6.37,6.37,0,0,0,.28-2.59h0s0,0,0,0A18.77,18.77,0,0,0,56,69a5.1,5.1,0,0,0,.58.11c1.15.2,3.72.42,5.13-1.12,1.85-2,3.53-11.72,3.7-16.36v-.26a6.67,6.67,0,0,0-.89-3.31,9.34,9.34,0,0,0-2.41-2.71l-.14-.1-.22-.16-.09-.07a1.13,1.13,0,0,0-.22-.14l-.24-.15-.23-.13a4.3,4.3,0,0,1,.1,1.09h0v0c0,.06,0,.12,0,.19A.17.17,0,0,1,61,46h0s0,0,0,0a8.07,8.07,0,0,1-.15,1.15,11.51,11.51,0,0,1-.33,1.28c-.12.41-.27.83-.43,1.27L60,50s0,0,0,0C58.33,54.44,55,60.09,53.39,66.25c0,.18-.09.36-.13.55s-.1.43-.15.65c-.3,1.42-.58,3-.86,4.75,0,0,0,0,0,0a.06.06,0,0,1,0,0c-.84,5.44-1.53,11.89-2,16.54,0,.13,0,.26,0,.38l-.06.64h0c0,.2,0,.39,0,.59a.25.25,0,0,1,0,.08c0,.27,0,.52-.06.77-.05.52-.09,1-.12,1.42,0-.11-.08-.24-.12-.37v0c-.25-.81-.61-2-1-3.38-.18-.69-.39-1.44-.6-2.26h0c-.27-1-.53-2.19-.81-3.4,0,0,0,0,0-.06A94.5,94.5,0,0,1,45.3,69.08c0-.22,0-.43,0-.65h0c-.06-1-.08-2-.07-3v-.18a54.9,54.9,0,0,1,1.46-11.76h0l.12-.49a.07.07,0,0,0,0-.05c.05-.21.1-.42.16-.61a.08.08,0,0,0,0,0c0-.06,0-.12,0-.17v0c.06-.26.14-.52.2-.76a.29.29,0,0,1,0-.09c0-.14.08-.25.12-.38h0c.09-.33.19-.63.28-.93h0c.19-.63.38-1.19.55-1.68a.14.14,0,0,0,0-.06l.39-1.06c.29-.75.47-1.15.47-1.15h0a.91.91,0,0,0-.57-.1,1.34,1.34,0,0,0-.4.08A4.06,4.06,0,0,0,46.52,47v0a5.88,5.88,0,0,0-.56.62l0,0,0,0a32.66,32.66,0,0,0-4.31,8,21.36,21.36,0,0,0-1.86,7.47v0c0,2.62.88,4.06,2,4.59a2.51,2.51,0,0,0,.46.16,7,7,0,0,0-.67,1.15,11.56,11.56,0,0,0-1.11,4.6,1.08,1.08,0,0,0,0,.18,14,14,0,0,0,.37,3.65A45,45,0,0,0,44,86.7c.33.7.68,1.38,1,2a29.7,29.7,0,0,0,1.63,2.64c.73,1,1.89,2,2.65,3Z"/><path class="cls-8" d="M60.94,44.64s4.61,2.31,4.44,6.77-1.85,13.79-3.7,15.74-5.72,1-5.72,1,3.53,5.57,2.19,9.33-5.72,10.59-8.41,15.75c0,0,1.35-17.42,3.37-26.61S61.94,49.23,60.94,44.64Z"/><path class="cls-12" d="M54.61,71.16a11.44,11.44,0,0,0-1.49-4.61l.06-.27a10.27,10.27,0,0,0,5-2.48c3.77-3,4.63-7.63,5.14-12.11A8.29,8.29,0,0,0,61,45.76a5.09,5.09,0,0,0-.09-1.12s4.61,2.31,4.44,6.77-1.85,13.79-3.7,15.74-5.72,1-5.72,1,3.53,5.57,2.19,9.33-5.72,10.59-8.41,15.75c0,0,.11-1.43.32-3.67C53.21,84,55.33,77.63,54.61,71.16Z"/><path class="cls-8" d="M50.26,91.86a96.62,96.62,0,0,1-5-23.69,49.43,49.43,0,0,1,3.76-22.29S46.37,44,41.58,55.27c-3.35,7.9-1.58,11.27.65,11.79,0,0-2.8,3.46-1.41,9.23,1.15,4.82,4.31,13.13,9.26,17Z"/><path class="cls-12" d="M44.63,76.74c-.4-1.91-1.2-6.94-3.4-7.84a7.51,7.51,0,0,1,1-1.84,2.9,2.9,0,0,1-1.93-1.58c1.71-1.27,2.66-3.88,3.11-6A25.2,25.2,0,0,1,45,53.66a65.08,65.08,0,0,0,3.51-7.87v0a.92.92,0,0,1,.57.11A49.43,49.43,0,0,0,45.3,68.17a96.62,96.62,0,0,0,5,23.69l-.18,1.39a19.48,19.48,0,0,1-4.41-5.16C46.34,84.41,45.34,80.14,44.63,76.74Z"/><path class="cls-9" d="M59.93,41.5a5.21,5.21,0,0,1,.56,7.69A13.57,13.57,0,0,1,54,54.57s1.2-4.87-2.56-7.78c0,0-5,2.31-4.49,7.27a13.39,13.39,0,0,1-1-6.58C46.43,44.23,52.58,38.93,59.93,41.5Z"/><path class="cls-7" d="M48.13,47.41s0-.06,0-.09a5.78,5.78,0,0,0-.51-2.89,11.58,11.58,0,0,1,12.3-2.93,5.43,5.43,0,0,1,2,4.81,2.13,2.13,0,0,0-1.61-.73c-2.65-.07-5.33,0-6.59,2.87-.11.26-.21.53-.3.79a6.83,6.83,0,0,0-2-2.45A9.39,9.39,0,0,0,48,49.73,6.2,6.2,0,0,0,48.13,47.41Z"/><path class="cls-13" d="M51.87,46a9.22,9.22,0,0,1-3-.79,29.71,29.71,0,0,0,3.07.45,13.21,13.21,0,0,0,2.12,0l.69-.09.26,0,.26,0a6.37,6.37,0,0,0,.68-.14,8.32,8.32,0,0,0,2-.72,7.06,7.06,0,0,0,1.69-1.25,8.43,8.43,0,0,1,.67-.7,3.18,3.18,0,0,1-.53.83A6.87,6.87,0,0,1,58,44.9a8.52,8.52,0,0,1-2,.85c-.28.09-.53.13-.7.17l-.27.06-.27,0-.72.07A13,13,0,0,1,51.87,46Z"/><path class="cls-13" d="M47.57,50a3.88,3.88,0,0,1,.23-.46l.09-.17s.15-.24.41-.57a6.35,6.35,0,0,1,1.11-1.07,5.25,5.25,0,0,1,1.38-.67,3.54,3.54,0,0,1,.49-.1l-.16-.11c-.36-.23-.64-.32-.63-.36s.08,0,.21,0a2.31,2.31,0,0,1,.51.17,4,4,0,0,1,1.3,1,6.7,6.7,0,0,1,.9,1.38c.1.21.17.38.23.5l.08.19a10,10,0,0,1,.46,2.33,7.78,7.78,0,0,1,0,1.63,1.67,1.67,0,0,1-.19.71,3.62,3.62,0,0,1,0-.73,9.08,9.08,0,0,0-.11-1.57,11.14,11.14,0,0,0-.58-2.21l-.06-.18L53,49.27a6.35,6.35,0,0,0-.77-1.35,4.57,4.57,0,0,0-.86-.89l-.52.22a5.68,5.68,0,0,0-1.24.76,6.08,6.08,0,0,0-1,1.07c-.23.32-.36.55-.36.55l-.09.16c-.06.1-.15.23-.24.41a11.24,11.24,0,0,0-.59,1.35c-.36,1-.54,2.09-.61,2.08a6.74,6.74,0,0,1,.29-2.18A8.52,8.52,0,0,1,47.57,50Z"/><path class="cls-13" d="M45.81,48.79a12.47,12.47,0,0,1,.14-1.4,4,4,0,0,1,.13-.63,4.48,4.48,0,0,1,.21-.61A6.5,6.5,0,0,1,47,44.89a5.32,5.32,0,0,1,1-1c.31-.23.54-.35.55-.32s-.16.2-.42.46a6.09,6.09,0,0,0-.81,1.07,5.94,5.94,0,0,0-.54,1.22,5,5,0,0,0-.17.58s-.07.24-.15.59-.17.85-.24,1.34a15.94,15.94,0,0,1-.23,2A8.15,8.15,0,0,1,45.81,48.79Z"/><path class="cls-13" d="M56.34,53.12c.55-.47,1.28-1.11,1.95-1.8a18.42,18.42,0,0,0,1.71-2,11.35,11.35,0,0,0,.65-1,8.63,8.63,0,0,0,.55-1,5.3,5.3,0,0,0,.51-2.49,4.17,4.17,0,0,0-.31-1.33,5.09,5.09,0,0,0-.61-1c-.43-.57-.8-.89-.77-.92s.11,0,.28.19a4.22,4.22,0,0,1,.64.61,4.92,4.92,0,0,1,.71,1.05,4.34,4.34,0,0,1,.4,1.41,5.58,5.58,0,0,1-.44,2.69,8,8,0,0,1-1.26,2.13,16,16,0,0,1-1.83,2,21.8,21.8,0,0,1-2.07,1.7,6.26,6.26,0,0,1-1,.66A6.21,6.21,0,0,1,56.34,53.12Z"/><path class="cls-2" d="M100.61,22.08a11.67,11.67,0,0,0,2.5-8.5s4.67-5.66,3.33-7.83-4,3.83-4,3.83c1-2.22,2.23-6.07.59-8.24a1.77,1.77,0,0,0-.87-.68c-.36-.11-.72,0-1.07-.06C99.15.11,98.34,2,97.83,3.52a21.59,21.59,0,0,0-.74,2.73,8,8,0,0,1-.15-2,9.93,9.93,0,0,0-.56-1.61c-.22-.89-.6-2.3-1.77-2.21-2.17.16-1.17,9.5-1.17,9.5s-2.11-4.2-3.5-3.09c-1.66,1.34,2.34,8.09,2.5,10.09a5.81,5.81,0,0,1-.66,3.33S97.78,23.92,100.61,22.08Z"/><path class="cls-3" d="M92.44,16.92c-.16-2-4.16-8.75-2.5-10.09,1.39-1.11,3.5,3.09,3.5,3.09a43.78,43.78,0,0,1-.19-5.81c2.1,3.24,5.39,5.83,9.26,5.31,0,.06-.05.11-.07.16l.08-.16A8.48,8.48,0,0,0,104.4,9a6.37,6.37,0,0,0,2.16-1.39c-.52,2.2-2.7,5.07-3.3,5.83a4.86,4.86,0,0,0-9.35,1.86v.17a4.92,4.92,0,0,0,4.87,4.87,4.86,4.86,0,0,0,3.85-2,12.08,12.08,0,0,1-2,3.75c-2.83,1.84-8.83-1.83-8.83-1.83A5.81,5.81,0,0,0,92.44,16.92Z"/><path class="cls-4" d="M95.36,10.53,95,10.31A4.51,4.51,0,0,1,96.17,10a6.31,6.31,0,0,1,1.66.06c.44.08.74.16.74.16a8.68,8.68,0,0,1,2.14,1,5.34,5.34,0,0,1,1.23,1.07c.29.34.4.62.37.63s-.21-.2-.54-.48a6.92,6.92,0,0,0-1.28-.87A8.65,8.65,0,0,0,99.07,11l-.67-.21-.68-.19a6.8,6.8,0,0,0-1.53-.17A5.55,5.55,0,0,0,95.36,10.53Z"/><path class="cls-4" d="M93.53,10c0,.05.31.13.77.31a6.33,6.33,0,0,1,1.53.89A6.87,6.87,0,0,1,97,12.5c.26.4.41.68.41.68a5.71,5.71,0,0,1,.36.71,6.32,6.32,0,0,1,.49,1.68,6.05,6.05,0,0,1,0,1.77,3.45,3.45,0,0,0-.13.83,2,2,0,0,0,.37-.77,5.48,5.48,0,0,0,.24-1.87,7.13,7.13,0,0,0-.4-1.86c-.19-.49-.35-.8-.35-.8a7.86,7.86,0,0,0-.5-.71,6.24,6.24,0,0,0-1.38-1.31,5.27,5.27,0,0,0-1.72-.78A2,2,0,0,0,93.53,10Z"/><path class="cls-4" d="M91.86,15.92a4,4,0,0,0-.29-1.12l-.85-2.37a19.05,19.05,0,0,1-.7-2.37c0-.33-.1-.61-.13-.8s0-.3,0-.3,0-.1,0-.29a2.94,2.94,0,0,1,0-.78c0-.3.13-.68.35-.79s.66.06,1,.31a7.25,7.25,0,0,1,1.67,1.78c.38.56.53,1,.57,1a5.3,5.3,0,0,0-2-3.11,2.93,2.93,0,0,0-.63-.4l-.4-.1a1.13,1.13,0,0,0-.44.07,1.46,1.46,0,0,0-.71,1.18,3.6,3.6,0,0,0-.05.88c0,.21,0,.33,0,.33a1.27,1.27,0,0,0,0,.32c0,.21.11.5.18.84a16.8,16.8,0,0,0,.85,2.41c.35.85.75,1.68,1,2.3A4.88,4.88,0,0,0,91.86,15.92Z"/><path class="cls-4" d="M100.86.69a1.86,1.86,0,0,1,.9-.08A2.31,2.31,0,0,1,103,2.12a4.55,4.55,0,0,1,.23,1.07,4.1,4.1,0,0,1,.07,1,3.86,3.86,0,0,1,0,.93,2.32,2.32,0,0,1,0,.26,3.37,3.37,0,0,1-.08.68,9.42,9.42,0,0,1-.55,2,11.73,11.73,0,0,1-.94,1.88,3.68,3.68,0,0,0-.5.84s.3-.25.7-.7A9.39,9.39,0,0,0,103,8.2a10.19,10.19,0,0,0,.71-2.07,3.55,3.55,0,0,0,.12-.72c0-.17,0-.28,0-.28a4.45,4.45,0,0,0,0-1,4.44,4.44,0,0,0-.14-1A4.43,4.43,0,0,0,103.37,2c-.32-.73-.88-1.47-1.55-1.59A1,1,0,0,0,100.86.69Z"/><path class="cls-4" d="M93.17,5.81a5,5,0,0,0,.12-1.22A11,11,0,0,1,93.7,2,2.13,2.13,0,0,1,94.39.91c.34-.24.59-.23.8,0a3.11,3.11,0,0,1,.56.93l.14.3c0,.1.08.22.14.35l0,.11a.41.41,0,0,1,0,.1c0,.08.05.16.08.25a21.9,21.9,0,0,1,.58,2.6,10.83,10.83,0,0,1,.16,2.64c0,.18,0,.35,0,.5l-.1.36c0,.21-.07.33,0,.34s.08-.09.17-.29l.16-.37c0-.15.06-.32.1-.5a9.5,9.5,0,0,0,0-2.74,17.45,17.45,0,0,0-.47-2.7l-.06-.26,0-.14,0-.11-.14-.37c-.08-.2-.12-.32-.12-.32l-.16-.32a2.57,2.57,0,0,0-.61-.79,1,1,0,0,0-.72-.28,1.23,1.23,0,0,0-.76.32,2.49,2.49,0,0,0-.8,1.34,9.42,9.42,0,0,0-.23,2.74A5,5,0,0,0,93.17,5.81Z"/><path class="cls-4" d="M98.11,2.6s.21-.36.6-.81a6,6,0,0,1,.7-.74,1.7,1.7,0,0,1,.9-.48c.29,0,.54.24.64.52a3.29,3.29,0,0,1,.09,1c0,.61-.09,1-.09,1s0,.44-.07,1.06c0,.31,0,.68-.1,1.07s-.12.8-.18,1.22c-.31,1.65-.71,3.31-.63,3.33a19.59,19.59,0,0,0,1-3.23l.26-1.24c.07-.4.11-.78.15-1.1.09-.65.12-1.06.12-1.06s0-.41,0-1.08A3.54,3.54,0,0,0,101.38.9,1.38,1.38,0,0,0,101,.32a.84.84,0,0,0-.68-.19A2,2,0,0,0,99.2.79a5.3,5.3,0,0,0-.66.85,2.94,2.94,0,0,0-.35.68C98.12,2.49,98.09,2.59,98.11,2.6Z"/><path class="cls-4" d="M103.4,12.62A5.62,5.62,0,0,0,105,11.13a15.24,15.24,0,0,0,.89-1.26l.33-.62.08-.18a3.88,3.88,0,0,0,.18-.48,8.12,8.12,0,0,0,.31-1.52,2.68,2.68,0,0,0-.21-1.57c-.26-.44-.67-.36-.64-.33s.3.08.43.44a2.85,2.85,0,0,1,0,1.39A8.72,8.72,0,0,1,106,8.4a2.52,2.52,0,0,1-.2.43l-.08.16-.27.6c-.19.35-.44.83-.74,1.28C104.1,11.77,103.33,12.54,103.4,12.62Z"/><path class="cls-5" d="M70.47,53.22a18.93,18.93,0,0,1,2.24-1.91c4-2.94,7-7,9.81-11.23,5.74-8.67,8.87-23,8.87-23a15.74,15.74,0,0,0,11,5.41s-6.21,18.54-11.5,27A71,71,0,0,1,76.68,65.7C75.08,67.07,71.34,70.79,69,70c-2.66-.86-2.76-6.16-2.57-8.4A13.22,13.22,0,0,1,70.47,53.22Z"/><g class="cls-14"><path class="cls-15" d="M97,21.16A124.44,124.44,0,0,1,89.42,39.1c-4,7.47-9.1,17.8-17.15,21.1-2.44,1-4.23-.39-4.9-2.36a13.06,13.06,0,0,0-.9,3.8c-.19,2.24-.09,7.54,2.57,8.4,2.3.75,6-3,7.64-4.34A71,71,0,0,0,90.93,49.49c5.29-8.47,11.5-27,11.5-27A17.3,17.3,0,0,1,97,21.16Z"/></g><path class="cls-8" d="M68.46,69.9a5.65,5.65,0,0,1-.64-1.16,17.78,17.78,0,0,1-1-2.76,18.49,18.49,0,0,1-.49-2.92c-.07-.81-.07-1.35-.07-1.35s0-.54.09-1.35a14.89,14.89,0,0,1,.62-2.9,11.51,11.51,0,0,1,1.29-2.63,4.9,4.9,0,0,1,.85-1s-.28.45-.66,1.13a12.63,12.63,0,0,0-1.11,2.64,15.26,15.26,0,0,0-.48,2.82c0,.78,0,1.31,0,1.31a19.61,19.61,0,0,0,.39,4.16,21.49,21.49,0,0,0,.8,2.77A8.84,8.84,0,0,1,68.46,69.9Z"/><path class="cls-16" d="M61.41,22.62c3.76-.23,7.44-1.1,10-4.51a7.32,7.32,0,0,1-1.2,1.9s-1.23,5-2,7.12a3.73,3.73,0,0,0-2.87,1.21,3.68,3.68,0,0,0-1.29,2.42L61.65,30l1.45-6.15A6.16,6.16,0,0,1,61.41,22.62Z"/><path class="cls-2" d="M40.13,21.82s-3-2.81-4-.27-.69,9.32,2,8.05S40.13,21.82,40.13,21.82Z"/><path class="cls-3" d="M40.13,21.82a6.9,6.9,0,0,0-1.26-.91A1.42,1.42,0,0,0,37.56,22c-.75,1.9-.76,6.21.43,7.7l.16-.07C40.83,28.34,40.13,21.82,40.13,21.82Z"/><path class="cls-4" d="M37.66,28.77A12.89,12.89,0,0,0,38.19,27a8,8,0,0,0,.1-1.83s0-.23,0-.57A5,5,0,0,0,38,23.38a3.94,3.94,0,0,0-.63-1.08c-.22-.26-.4-.41-.39-.43a1.75,1.75,0,0,1,.48.35,3.48,3.48,0,0,1,.74,1.08,5.27,5.27,0,0,1,.37,1.26c0,.36.07.6.07.6A7.29,7.29,0,0,1,38.4,27,4.53,4.53,0,0,1,37.66,28.77Z"/><path class="cls-4" d="M36.67,27.46a2.26,2.26,0,0,1,.06-.79,4.06,4.06,0,0,1,.16-.52l.1-.23a.92.92,0,0,1,.14-.22l.16-.2.22-.2a1.21,1.21,0,0,1,.74-.3c0,.05-.34.19-.59.46-.06.07-.11.14-.17.2l-.12.2a.82.82,0,0,0-.11.2l-.11.2c-.06.13-.14.3-.21.47A3.56,3.56,0,0,1,36.67,27.46Z"/><path class="cls-2" d="M53.65,7.58S45.53,8.16,42.76,13s-3.23,13.13-3.23,13.13a26.87,26.87,0,0,0-.79,8.17,5.12,5.12,0,0,0,1.83,4.27c2,1.59,5.25,1.7,7.84,2.18,1.53.95-.11,2.4.36,4,3.61,2.24,7,1.24,9.65-.28,1.71-1,1.32-5.71,4.46-8.2a1.94,1.94,0,0,0,.28-.32s4.39,2.39,7.25-1,2.25-9.16-3.33-7.59C67.08,27.35,71.16,9.8,53.65,7.58Z"/><g class="cls-17"><path class="cls-4" d="M66.1,30.93c-1.1,1.43-1.1,3.28,0,4.13s2.13.18,3.23-1.25,1.86-3.09.76-3.94S67.2,29.49,66.1,30.93Z"/></g><path class="cls-4" d="M65.77,31.35a4.41,4.41,0,0,1,.41-.56,6.65,6.65,0,0,1,.5-.46A4.5,4.5,0,0,1,68,29.59a3,3,0,0,1,1.47-.17,1.2,1.2,0,0,1,.63.24s-.26-.05-.64-.06a3,3,0,0,0-1.34.29,4.73,4.73,0,0,0-1.59,1.21,4.53,4.53,0,0,0-.4.48l-.09.14h0a1.51,1.51,0,0,1,.76-.09,1.63,1.63,0,0,1,.73.31.92.92,0,0,1,.2.18l.08.07,0,.08a1.69,1.69,0,0,1,.27,1,1.43,1.43,0,0,1-.28.72c-.14.16-.24.24-.26.22s0-.14.11-.31a1.62,1.62,0,0,0,.11-.64,1.37,1.37,0,0,0-.19-.59c-.09-.14-.17-.22-.17-.23l0,0a.62.62,0,0,0-.14-.15,1.19,1.19,0,0,0-.53-.32,1.48,1.48,0,0,0-.65-.06l-.17,0a3.47,3.47,0,0,0-.37.9,3,3,0,0,0-.09.73,2.39,2.39,0,0,0,.09.63c.1.37.25.6.21.62s-.21-.18-.38-.56a2.41,2.41,0,0,1-.17-.68,3.16,3.16,0,0,1,0-.81A3.83,3.83,0,0,1,65.77,31.35Z"/><g class="cls-17"><path class="cls-4" d="M45.38,28.47A1.51,1.51,0,0,0,47,29.66a1.27,1.27,0,0,0,1.38-1.3s1.11,1.22,1,1.74S43.91,31.65,45.38,28.47Z"/></g><path class="cls-4" d="M49.41,30s-.11-.17-.25-.41a3.2,3.2,0,0,0-.67-.74,3.56,3.56,0,0,0-.84-.51,2.36,2.36,0,0,0-.42-.13l-.12,0-.3-.06a1.23,1.23,0,0,0-.86.21,1.48,1.48,0,0,0-.5.78c-.08.27-.11.46-.15.46a1,1,0,0,1,0-.49,1.58,1.58,0,0,1,.47-1,1.44,1.44,0,0,1,.55-.31,1.86,1.86,0,0,1,.54-.07,3.07,3.07,0,0,1,.38,0l.14,0a2.88,2.88,0,0,1,.48.2,3.29,3.29,0,0,1,.89.65,2.75,2.75,0,0,1,.6.91C49.43,29.77,49.44,30,49.41,30Z"/><path class="cls-3" d="M42.19,14.15c.17-.38.36-.76.57-1.13,2.77-4.86,10.89-5.44,10.89-5.44C71.16,9.8,67.08,27.35,67.08,27.35l.32-.08c-.08.27-.17.53-.25.75a3.75,3.75,0,0,0-2.86,1.22c-1.35,1.39-.17,1.52-.17,1.52L61,30l1-5.26s-4.08-1.73-4-7.36A30.6,30.6,0,0,1,46.42,15,13.27,13.27,0,0,1,42.19,14.15Z"/><path class="cls-18" d="M70.25,20s-1.23,5-2,7.12a3.73,3.73,0,0,0-2.87,1.21,8.19,8.19,0,0,0-1.82,3.14L61.16,31l1.38-7.17S59,22.1,59.05,16.47a30.56,30.56,0,0,1-11.5-2.37A13.1,13.1,0,0,1,42.76,13s-2,3.57-2.08,6.12a23.75,23.75,0,0,1-1,5.85l-1.09-1,.81-3.45a6.52,6.52,0,0,1,1.1-7.67s-6.1-3.49.41-9.93a10.91,10.91,0,0,0,8.15,1.92C53.77,4,67.9,4.24,68.81,11.5,68.81,11.5,74.57,14.86,70.25,20Z"/><path class="cls-16" d="M40.86,3c3.77,6,11.45,9.8,18.44,7.74a7.18,7.18,0,0,0,.92-.33,5.26,5.26,0,0,0,4-4.13C66.68,7.39,68.5,9,68.81,11.5a7.63,7.63,0,0,1,1.28,1,28.09,28.09,0,0,1-11,5.12,10.71,10.71,0,0,1-.06-1.16,30.56,30.56,0,0,1-11.5-2.37A13.1,13.1,0,0,1,42.76,13s-2,3.57-2.08,6.12a23.75,23.75,0,0,1-1,5.85l-1.09-1,.81-3.45a6.52,6.52,0,0,1,1.1-7.67S34.48,9.43,40.86,3Z"/><path class="cls-16" d="M64.58,20.41c3.19.8,5,0,5.82-.58l-.15.18s-1.23,5-2,7.12a3.73,3.73,0,0,0-2.87,1.21,8.19,8.19,0,0,0-1.82,3.14L61.16,31l.5-2.59,1.44-4.56S59,22.1,59.05,16.47C59.05,16.47,59.77,19.2,64.58,20.41Z"/><path class="cls-16" d="M40.68,19.14a23.75,23.75,0,0,1-1,5.85l-1.09-1,.81-3.45a6.54,6.54,0,0,1,1.08-7.65,3.36,3.36,0,0,0,2.26.1S40.79,16.59,40.68,19.14Z"/><path class="cls-19" d="M43.83,10.72A13.24,13.24,0,0,1,42.6,9a10,10,0,0,1-.76-1.67,5,5,0,0,1-.21-.71,3.7,3.7,0,0,1-.12-.55,2.87,2.87,0,0,1-.06-.49s.17.7.56,1.68a10.15,10.15,0,0,0,.82,1.6,12.79,12.79,0,0,0,1.26,1.64,15.14,15.14,0,0,0,3,2.44c.9.56,1.53.87,1.53.87s.62.34,1.58.76a23.55,23.55,0,0,0,3.67,1.21,20.79,20.79,0,0,0,3.83.57c1.06.06,1.77,0,1.77,0a1.5,1.5,0,0,1-.48.08,10.57,10.57,0,0,1-1.29.07,19.54,19.54,0,0,1-3.9-.43A22.36,22.36,0,0,1,50,15c-1-.4-1.63-.74-1.63-.74a16,16,0,0,1-1.54-.92A14.86,14.86,0,0,1,43.83,10.72Z"/><path class="cls-19" d="M42.74,12.56l-.21-.15-.19-.19a4.71,4.71,0,0,1-.49-.5A7.53,7.53,0,0,1,40.68,10,8.9,8.9,0,0,1,40,8a3.48,3.48,0,0,1-.12-.94,4.05,4.05,0,0,1,.3.89A10.72,10.72,0,0,0,41,9.82a8,8,0,0,0,1.19,1.6c.18.21.37.34.48.46l.19.16.19.16c.13.09.29.25.52.39a9,9,0,0,0,1.77,1,29.35,29.35,0,0,0,2.84.83,3.38,3.38,0,0,1-.94-.05,10.13,10.13,0,0,1-2-.47,8.12,8.12,0,0,1-1.89-.9A4.4,4.4,0,0,1,42.74,12.56Z"/><path class="cls-19" d="M38.47,6c.07,0-.09,1.29.08,2.53A6.19,6.19,0,0,0,39,10.2a4,4,0,0,0,.24.5,1.41,1.41,0,0,1,.1.18l.11.18c.08.1.17.27.32.44A4,4,0,0,0,41,12.55a7,7,0,0,0,1.61.6,3.28,3.28,0,0,1,.77.19,2.73,2.73,0,0,1-.81,0,5.7,5.7,0,0,1-1.72-.48,4.22,4.22,0,0,1-1.47-1.06,3.7,3.7,0,0,1-.38-.48l-.13-.19-.1-.2a4,4,0,0,1-.24-.56,6.68,6.68,0,0,1-.35-1.77A6.83,6.83,0,0,1,38.47,6Z"/><path class="cls-19" d="M68.32,10.44a4.34,4.34,0,0,0-.47-1.12A5.27,5.27,0,0,0,67,8.24a8,8,0,0,0-2.21-1.4c-.67-.28-1.13-.43-1.13-.43s-.45-.17-1.15-.38-1.65-.43-2.61-.61S57.93,5.09,57.21,5A8.11,8.11,0,0,1,56,4.76a5.42,5.42,0,0,1,1.24,0c.73,0,1.72.14,2.69.28a25.41,25.41,0,0,1,2.68.53c.72.18,1.19.35,1.19.35a12.35,12.35,0,0,1,1.15.48A8.25,8.25,0,0,1,67.21,8a4.91,4.91,0,0,1,.87,1.19,4.07,4.07,0,0,1,.42,1.21c0,.18,0,.36.07.51a2.52,2.52,0,0,1,0,.39c0,.22,0,.34,0,.34S68.5,11.14,68.32,10.44Z"/><path class="cls-19" d="M45.88,5.84,45,5.55a13.25,13.25,0,0,1-1.92-.83,7.87,7.87,0,0,1-1.71-1.19,2.53,2.53,0,0,1-.61-.71,7.34,7.34,0,0,1,.73.57,9.52,9.52,0,0,0,1.74,1,14,14,0,0,0,1.9.71l.9.24A24.3,24.3,0,0,0,48.9,6c1.46.23,3,.29,3,.36a13,13,0,0,1-3,0A24.89,24.89,0,0,1,45.88,5.84Z"/><path class="cls-19" d="M65.6,10l-.29-.31a10.06,10.06,0,0,0-.94-1,10.44,10.44,0,0,1-1-.94,3.41,3.41,0,0,1,1.24.68,8.62,8.62,0,0,1,1.08.93l.28.35a5.77,5.77,0,0,1,.51.85,3.08,3.08,0,0,1,.29.95c0,.27,0,.45,0,.45s-.07-.17-.15-.41a3.73,3.73,0,0,0-.41-.83A6,6,0,0,0,65.6,10Z"/><path class="cls-19" d="M64.73,11.49A6.36,6.36,0,0,0,63.53,10,8.07,8.07,0,0,0,62,8.85c-.47-.24-.79-.38-.79-.38l-.23-.1c-.14-.06-.34-.16-.59-.25a16.32,16.32,0,0,0-1.88-.59c-1.4-.34-2.84-.44-2.84-.51a10.19,10.19,0,0,1,2.91.18,15.86,15.86,0,0,1,2,.5c.26.08.47.18.63.24l.23.09s.34.16.82.44a8.26,8.26,0,0,1,1.6,1.25,5.56,5.56,0,0,1,1.12,1.69,2.67,2.67,0,0,1,.25.88A5.36,5.36,0,0,1,64.73,11.49Z"/><path class="cls-19" d="M70.94,16.51s-.07-.18-.17-.42a6.1,6.1,0,0,0-.42-.86,7.52,7.52,0,0,0-.83-1.12l-.28-.32a3,3,0,0,0-.7-.6,1.6,1.6,0,0,0-.85-.29c-.26,0-.43,0-.45,0s0,0,.11-.08a.91.91,0,0,1,.32-.11,1.64,1.64,0,0,1,1,.18,3.41,3.41,0,0,1,.85.58c.21.2.33.33.33.33a6.1,6.1,0,0,1,.77,1.27,4.58,4.58,0,0,1,.3,1A.8.8,0,0,1,70.94,16.51Z"/><path class="cls-19" d="M67.19,16.7a2.33,2.33,0,0,0,0-.36,5.68,5.68,0,0,0-.18-1.1,5.25,5.25,0,0,0-.4-1.05c-.13-.28-.24-.46-.21-.49a1.26,1.26,0,0,1,.37.39,4.66,4.66,0,0,1,.56,1.05,4.85,4.85,0,0,1,.3,1.16,3.82,3.82,0,0,1,0,.4v.15a4.84,4.84,0,0,1-.07.56A2.38,2.38,0,0,1,67,18.52,2,2,0,0,1,66,19.1a1.2,1.2,0,0,1-.54,0,1.56,1.56,0,0,1,.5-.17,2.07,2.07,0,0,0,.87-.62,2.28,2.28,0,0,0,.38-1c0-.3,0-.49,0-.49Z"/><path class="cls-19" d="M66.16,20.46s.33.11.84.21a3.4,3.4,0,0,0,.86,0,3.28,3.28,0,0,0,1-.23,4.35,4.35,0,0,0,1.5-1.05,5,5,0,0,0,.52-.66,4.47,4.47,0,0,0,.44-.71,4.94,4.94,0,0,0,.52-1.76,4.06,4.06,0,0,0,0-1,3.53,3.53,0,0,0-.25-.83c-.2-.47-.43-.74-.4-.77a2.2,2.2,0,0,1,.57.69,3.43,3.43,0,0,1,.34.86,4.06,4.06,0,0,1,.11,1.06,4.89,4.89,0,0,1-.47,1.93,4.63,4.63,0,0,1-.44.8,5.79,5.79,0,0,1-.6.69,4.42,4.42,0,0,1-1.7,1.06,3.93,3.93,0,0,1-1.06.18,3.19,3.19,0,0,1-.92-.13A2,2,0,0,1,66.16,20.46Z"/><path class="cls-19" d="M59.36,18.71a7.76,7.76,0,0,0,.6,1.62,7,7,0,0,0,1,1.42c.15.18.3.3.39.4l.16.15a7,7,0,0,0,.58.5,7.22,7.22,0,0,0,1.48.86,8,8,0,0,0,1.66.47,4.07,4.07,0,0,1,.79.14,2.38,2.38,0,0,1-.81,0A6.62,6.62,0,0,1,63.42,24a7,7,0,0,1-1.62-.81c-.4-.29-.65-.51-.65-.51L61,22.48a5.31,5.31,0,0,1-.4-.45,7,7,0,0,1-.93-1.55,7.3,7.3,0,0,1-.49-1.73,2.91,2.91,0,0,1,0-.82A3.74,3.74,0,0,1,59.36,18.71Z"/><path class="cls-19" d="M39.37,14.58a5.07,5.07,0,0,1,.81-1.18c.26-.28.48-.42.5-.4s-.15.21-.36.52a6.6,6.6,0,0,0-.65,1.2,7.71,7.71,0,0,0-.39,1.3c-.07.36-.1.6-.1.6l0,.17a3.62,3.62,0,0,0,0,.44,5.66,5.66,0,0,0,0,1.35,4.58,4.58,0,0,0,.42,1.28c.18.32.34.52.31.55s-.23-.14-.46-.46a3.71,3.71,0,0,1-.6-1.31,5.84,5.84,0,0,1-.14-1.43,3,3,0,0,1,0-.48c0-.11,0-.18,0-.18s0-.26.15-.64A7,7,0,0,1,39.37,14.58Z"/><path class="cls-3" d="M48.41,40.77c-2.59-.48-5.84-.59-7.84-2.18a5.12,5.12,0,0,1-1.83-4.27,18.86,18.86,0,0,1,0-3.68,16.1,16.1,0,0,0,.84,5.11c1.27,3.24,6.25,4.61,13.9,4.64s9.26-4.93,9.26-4.93l0,.88c-3,2.5-2.69,7.16-4.38,8.13a11.84,11.84,0,0,1-3.62,1.42c-.76-1.82-1.83-3.74-3-3.65s-2,1.54-2.52,2.82l-.54-.31C48.3,43.17,49.94,41.72,48.41,40.77Z"/><path class="cls-18" d="M39.23,21.67l1.26.1,0,.15a.77.77,0,0,1-.06-.14l-.78,8.53s2.3-1.42,8.51-.16a26.58,26.58,0,0,1,9.79,3.91s1.12-5.24,4.35-7.68l5.89.81c-1.24.39-4,2-4.34,4.39-.44,3.38-.19,3.86-.19,3.86.44,1-2.15,4.32-2.88,4.86a12.1,12.1,0,0,1-5.18,2.15c-3.51.56-8.47-.28-11.86-1.16-7.11-1.85-7.36-4.69-6.88-8.37A70.8,70.8,0,0,1,39.23,21.67Z"/><path class="cls-16" d="M36.82,32.92a70.8,70.8,0,0,1,2.41-11.25l1.26.1,0,.15a.77.77,0,0,1-.06-.14L39.9,27.1a6.24,6.24,0,0,0-1.47,6.62C40.05,38,44,39.65,48.17,39.9c2.77.16,5.21.37,7.84-.78a9.31,9.31,0,0,0,4-3.84,9.9,9.9,0,0,0,1.4-3.89,3.82,3.82,0,0,0-1.07-3l.41-.54,0,0c.14-.17.28-.33.43-.49l0-.05.45-.45,0,0c.16-.15.33-.29.5-.42l.72.1,4.66.64h.08l.28,0h.15c-1.24.39-4,2-4.34,4.39-.44,3.38-.19,3.86-.19,3.86.44,1-2.15,4.32-2.88,4.86a12.1,12.1,0,0,1-5.18,2.15c-3.51.56-8.47-.28-11.86-1.16l-.65-.18C36.57,39.26,36.36,36.49,36.82,32.92Z"/><path class="cls-18" d="M53.64,21.55s.15,0,.29-.05a2.13,2.13,0,0,1,.53-.07,1.46,1.46,0,0,1,.5.08l.22.08a2.38,2.38,0,0,1,.69.27c.35.19.59.53.68.5s0-.51-.36-.88a2.33,2.33,0,0,0-.8-.56l-.32-.05a2.21,2.21,0,0,0-.69.07,1.45,1.45,0,0,0-.59.33C53.66,21.4,53.61,21.52,53.64,21.55Z"/><path class="cls-18" d="M42.21,20.22c.1,0,.33-.27.63-.42a1.36,1.36,0,0,1,.41-.13l.19,0,.19,0a.48.48,0,0,1,.21,0,2.12,2.12,0,0,1,.24,0c.33.05.65.26.73.19s-.15-.44-.56-.66c-.1-.05-.21-.08-.31-.12a.79.79,0,0,0-.29-.06l-.3,0-.28.1a1.51,1.51,0,0,0-.54.35C42.2,19.75,42.14,20.2,42.21,20.22Z"/><path class="cls-5" d="M44.15,28.05c-.06,0-.09-.3-.06-.73s.12-1,.14-1.52a2.16,2.16,0,0,0-.31-1.24l-.27-.29c0-.05-.08,0-.09-.06a1,1,0,0,0-.44-.21,1.71,1.71,0,0,0-1.18.33c-.89.56-1.57,1.49-1.69,1.41a3.78,3.78,0,0,1,1.29-1.95,2.42,2.42,0,0,1,1.68-.65,2,2,0,0,1,.64.17l.22.11.05,0a.55.55,0,0,1,.16.15c.1.12.23.29.38.5a2.88,2.88,0,0,1,.22,1.76,10.33,10.33,0,0,1-.44,1.53C44.31,27.79,44.22,28.06,44.15,28.05Z"/><path class="cls-5" d="M52,29.62c-.06,0,0-.34.09-.79a7.87,7.87,0,0,1,.52-1.68,2.86,2.86,0,0,1,1.26-1.44l.35-.16.17-.07h.17a1.6,1.6,0,0,1,.29,0l.28.06a1.91,1.91,0,0,1,.64.34,3.39,3.39,0,0,1,1,1.6A4.36,4.36,0,0,1,57.08,30c-.13,0-.34-1.21-.89-2.26a2.79,2.79,0,0,0-.92-1.16,1.08,1.08,0,0,0-.49-.17h-.14s-.19.05-.37.1a2.22,2.22,0,0,0-1.06,1,13.78,13.78,0,0,0-.75,1.48C52.26,29.37,52.08,29.64,52,29.62Z"/><path class="cls-5" d="M44.61,31c.21.4,2.47,1.81,5.81,1.17,0,0-1.35,3.12-4,3.33S44.61,31,44.61,31Z"/><path class="cls-4" d="M50.92,31.82s0,.05-.13.11a2.29,2.29,0,0,1-.39.2,4.09,4.09,0,0,1-1.32.29,6.52,6.52,0,0,1-3.79-.88,4,4,0,0,1-1.06-.83,2.07,2.07,0,0,1-.27-.35c-.05-.09-.08-.15-.07-.15s.16.18.43.42a4.41,4.41,0,0,0,1.08.72,7.75,7.75,0,0,0,1.79.61,7.31,7.31,0,0,0,1.88.24A4.7,4.7,0,0,0,50.35,32C50.7,31.92,50.91,31.79,50.92,31.82Z"/><path class="cls-4" d="M46.89,36.22a1.63,1.63,0,0,1-.86.41,1.68,1.68,0,0,1-.69-.05l-.3-.11a1.68,1.68,0,0,1-.67-.75,1.17,1.17,0,0,1-.13-.66.46.46,0,0,1,.11-.29,1.51,1.51,0,0,0,.22.85,1.46,1.46,0,0,0,.62.58,1.78,1.78,0,0,0,.81.21C46.45,36.39,46.87,36.17,46.89,36.22Z"/><line class="cls-20" x1="49.53" y1="94.42" x2="49.36" y2="94.42"/></g></g></g></svg>