<svg xmlns="http://www.w3.org/2000/svg" viewBox="0 0 58.18 92.89"><defs><style>.cls-1{isolation:isolate;}.cls-2{fill:#1b205e;}.cls-3,.cls-6{opacity:0.4;}.cls-10,.cls-11,.cls-13,.cls-3,.cls-5,.cls-6{mix-blend-mode:multiply;}.cls-11,.cls-4,.cls-6{fill:#1d255b;}.cls-5,.cls-8{fill:#d2e4ff;}.cls-7{fill:#4052a0;}.cls-10,.cls-9{fill:#cc5252;}.cls-10{opacity:0.5;}.cls-11,.cls-15,.cls-17{opacity:0.2;}.cls-12{fill:#65a1ff;}.cls-13{fill:#c87568;opacity:0.8;}.cls-14{fill:#fad0bf;}.cls-15,.cls-16{fill:#fa7296;}.cls-18{fill:#963e35;}.cls-19{fill:#ba5443;}</style></defs><title>interesРесурс 5</title><g class="cls-1"><g id="Слой_2" data-name="Слой 2"><g id="OBJECTS"><path class="cls-2" d="M58.18,92.89H47.32c-.42-1.85-.85-3.82-1.26-5.9-.16-.78-.3-1.57-.44-2.37v0c-.06-.28-.11-.57-.15-.86-.11-.66-.22-1.32-.31-2s-.25-1.64-.35-2.47-.19-1.5-.27-2.25-.16-1.49-.24-2.24c0,0,0,0,0,0L44.24,74c-.07-.79-.13-1.57-.19-2.35-.08-1.13-.14-2.25-.19-3.34q0-.75-.06-1.47c0-.13,0-.25,0-.37,0-1.47,0-2.9,0-4.27a0,0,0,0,0,0,0c0-1.21.07-2.38.13-3.49,0-.06,0-.12,0-.18v-.09a.66.66,0,0,1,0-.14c0-.24,0-.48,0-.71l.06-.74c0-.26,0-.51.08-.76s0-.41.07-.61.07-.58.11-.85c.08-.53.16-1,.25-1.49.06-.28.12-.56.17-.83l0-.06c.06-.26.13-.51.2-.76s.14-.48.22-.71h0a1.42,1.42,0,0,1,.07-.22h0l.21-.54c.06-.13.11-.25.17-.36a2.55,2.55,0,0,1,.17-.33,4.06,4.06,0,0,1,.25-.41,2.44,2.44,0,0,1,2.25-1.21l.18,0a4.32,4.32,0,0,1,1.7.71l.12.07.18.13.06,0,.06,0a14.72,14.72,0,0,1,2.06,1.91c1.36,1.5,1.59,12.75,1.59,12.75l2.1,21.77.13,1.32Z"/><g class="cls-3"><path class="cls-4" d="M58.18,92.89H47.32c-.42-1.85-.85-3.82-1.26-5.9-.16-.78-.3-1.57-.44-2.37v0c-.06-.28-.11-.57-.15-.86-.11-.66-.22-1.32-.31-2s-.25-1.64-.35-2.47-.19-1.5-.27-2.25-.16-1.49-.24-2.24c0,0,0,0,0,0L44.24,74c-.07-.79-.13-1.57-.19-2.35-.08-1.13-.14-2.25-.19-3.34q0-.75-.06-1.47c0-.13,0-.25,0-.37,0-1.47,0-2.9,0-4.27a0,0,0,0,0,0,0c0-1.21.07-2.38.13-3.49,0-.06,0-.12,0-.18v-.09a.66.66,0,0,1,0-.14c0-.24,0-.48,0-.71l.06-.74c0-.26,0-.51.08-.76s0-.41.07-.61.07-.58.11-.85c.08-.53.16-1,.25-1.49.06-.28.12-.56.17-.83l0-.06c.06-.26.13-.51.2-.76s.14-.48.22-.71h0a1.42,1.42,0,0,1,.07-.22h0l.21-.54c.06-.13.11-.25.17-.36a2.55,2.55,0,0,1,.17-.33,4.06,4.06,0,0,1,.25-.41,2.44,2.44,0,0,1,2.25-1.21l.18,0a4.32,4.32,0,0,1,1.7.71l.12.07.18.13.06,0,.06,0a14.72,14.72,0,0,1,2.06,1.91c1.36,1.5,1.59,12.75,1.59,12.75l2.1,21.77.13,1.32Z"/></g><g class="cls-3"><path class="cls-4" d="M53.09,90.34c-.13.85-.23,1.7-.29,2.55H47.32c-.42-1.85-.85-3.82-1.26-5.9-.16-.78-.3-1.57-.44-2.37v0c-.06-.28-.11-.57-.15-.86-.11-.66-.22-1.32-.31-2s-.25-1.64-.35-2.47-.19-1.5-.27-2.25-.16-1.49-.24-2.24c0,0,0,0,0,0L44.24,74c-.07-.79-.13-1.57-.19-2.35-.08-1.13-.14-2.25-.19-3.34q0-.75-.06-1.47c0-.13,0-.25,0-.37,0-1.47,0-2.9,0-4.27a0,0,0,0,0,0,0c0-1.21.07-2.38.13-3.49a2,2,0,0,1,0-.25v0a.66.66,0,0,1,0-.14c0-.24,0-.48,0-.71l.06-.74c0-.26,0-.51.08-.76s0-.41.07-.61.07-.58.11-.85c.08-.53.16-1,.25-1.49.06-.28.12-.56.17-.83l0-.06c.06-.26.13-.51.2-.76s.14-.48.22-.71h0a1.42,1.42,0,0,1,.07-.22h0l.21-.54c.06-.13.11-.25.17-.36a2.55,2.55,0,0,1,.17-.33,4.06,4.06,0,0,1,.25-.41,2.44,2.44,0,0,1,2.25-1.21l.18,0a4.32,4.32,0,0,1,1.7.71l.3.2.06,0a4.37,4.37,0,0,0-1.34,3.44c.16,6.09-2.41,16.88-.54,24.58a1.16,1.16,0,0,0,0,.18h0l0,.09c1,3.82,3.12,6.85,7.29,8.09l.33.08.13,1.32.09.36A3.85,3.85,0,0,0,53.09,90.34Z"/></g><path class="cls-5" d="M40.54,48.86c-.16-.37-.32-.74-.46-1.13a6.43,6.43,0,0,1,.11,2.08S40.35,49.45,40.54,48.86Z"/><path class="cls-2" d="M52.27,62.86a.34.34,0,0,0,0,.1c-.06.41-.13.8-.18,1.21v0l-.06.34c0,.07,0,.15,0,.24s-.07.41-.12.67-.1.55-.16.87-.15.81-.25,1.26A46.74,46.74,0,0,1,48.7,77c-.09.2-.19.4-.28.58a42.46,42.46,0,0,0-2.44,6h0c-.12.36-.24.71-.35,1.07v0c-.16.48-.3,1-.45,1.44a0,0,0,0,1,0,0c-.24.84-.47,1.64-.67,2.4s-.3,1.2-.42,1.73-.18.79-.25,1.14-.14.67-.19,1-.06.37-.09.59h-28a115.16,115.16,0,0,0,1.72-12.43,59.69,59.69,0,0,0-.75-11.32h0C16,65.42,15.29,61.55,14.67,58c-.69-3.91-1.29-7.4-1.51-9.77a15.09,15.09,0,0,1-.07-1.92h.05s0,0,0,0a.13.13,0,0,1,.08,0l.07,0h0l.07,0,.12-.06.12-.05.14-.07.14-.06.17-.07.16-.07.2-.09.18-.08.22-.09.21-.08.25-.1.22-.09.28-.11.24-.09.3-.11.27-.1.33-.12.15-.06.34-.11.14,0,.28-.09.41-.13.26-.09.51-.15.21-.06.75-.22c1.1-.3,2.3-.59,3.57-.83l.1,0c.72-.14,1.47-.26,2.24-.35l.46-.06.2,0h.06l.38,0,.34,0h0a33,33,0,0,1,5.8,0h0l.34,0c.64.06,1.25.14,1.85.22s1,.15,1.49.24h0l.32.06c.56.1,1.11.22,1.63.34h0l.75.19h0l.4.11.15,0,.41.11,1.16.36.43.14h0l.08,0a26.89,26.89,0,0,1,8,4.27l.18.13.06,0,.06,0c.62.52,1.13,1,1.55,1.39C53.33,51.3,53.15,56.88,52.27,62.86Z"/><path class="cls-6" d="M46,83.52c-.12.36-.24.73-.36,1.08v0q-.23.73-.45,1.44a0,0,0,0,1,0,0c-.24.84-.47,1.64-.67,2.4s-.3,1.2-.42,1.73-.18.79-.25,1.14-.14.67-.19,1-.06.37-.09.59h-5.7A12,12,0,0,0,34.07,91l-.2,0-.08,0-.1,0a12.26,12.26,0,0,0-1.73-.3,12,12,0,0,0-8.2,2.27H15.52a115.16,115.16,0,0,0,1.72-12.43,59.69,59.69,0,0,0-.75-11.32h0C16,65.42,15.29,61.55,14.67,58c-.69-3.91-1.29-7.4-1.51-9.77a15.09,15.09,0,0,1-.07-1.92h.05l.06,0,.06,0,.07,0h0l.07,0,.12-.06.12-.05.14-.07.14-.06.17-.07.16-.07.2-.09.18-.08.22-.09.21-.08.25-.1.22-.09.28-.11.24-.09.3-.11.27-.1.33-.12.15-.06.12,0,.22-.08.14,0,.28-.09.41-.13.26-.09.51-.15.21-.06.75-.22a11.9,11.9,0,0,0-.46,1.35A53,53,0,0,0,18,53c-.06.48-.11,1-.15,1.43s-.08.85-.1,1.27h0a62.83,62.83,0,0,0,0,8.12c0,.12,0,.23,0,.35h0c0,.43.07.85.13,1.28,1,7.52,5.8,15.4,12.89,18.38.34.15.69.29,1.05.41l.21.07c.55.18,1.11.33,1.67.46h.09l.08,0,.15,0,.59.11.23,0h.08l.41.06a19.36,19.36,0,0,0,2.62.19h0a9.92,9.92,0,0,0,1.09,0,17.79,17.79,0,0,0,6.4-1.51c.17-.06.34-.14.5-.21Z"/><path class="cls-7" d="M48.43,77.44a3.65,3.65,0,0,1,.15-.57L49,75.38c.21-.61.4-1.33.61-2.1s.47-1.59.64-2.43c.37-1.67.78-3.33,1-4.61s.36-2.1.36-2.1,0-.21.1-.58A14.33,14.33,0,0,0,51.89,62c.06-.63.15-1.37.22-2.17s.08-1.65.11-2.5,0-1.71.05-2.51,0-1.54,0-2.19,0-1.17,0-1.55a2.47,2.47,0,0,1,0-.58,4.5,4.5,0,0,1,.06.58c0,.38,0,.91.08,1.55s.05,1.39.06,2.19.05,1.66,0,2.52,0,1.71-.07,2.52-.12,1.55-.17,2.19-.08,1.18-.16,1.55-.1.58-.1.58-.16.85-.39,2.12-.66,2.93-1.07,4.6c-.19.84-.49,1.65-.71,2.42s-.46,1.49-.69,2.09-.41,1.11-.54,1.46A2.46,2.46,0,0,1,48.43,77.44Z"/><path class="cls-7" d="M34.09,90.69c0,.1,0,.22,0,.33,0,.26,0,.52,0,.79s-.06.74-.08,1.08h-.4c0-.35.09-.74.14-1.12s.06-.48.1-.71c0,0,0-.08,0-.11a10.76,10.76,0,0,1,.32-1.77A7,7,0,0,1,34.09,90.69Z"/><path class="cls-8" d="M26.16,41.67s3.06,10.86,4.66,15.65,1.11,15,1.65,17.41,1.41,11.14,1.41,11.14A45,45,0,0,0,42.1,71c2.94-9,2.09-21.43-1-26.62S31.28,39.34,26.16,41.67Z"/><path class="cls-5" d="M26.16,41.67s3.06,10.86,4.66,15.65,1.11,15,1.65,17.41,1.41,11.14,1.41,11.14A45,45,0,0,0,42.1,71c2.94-9,2.09-21.43-1-26.62S31.28,39.34,26.16,41.67Z"/><path class="cls-9" d="M33.16,46.47s1,3.31,2.65,4.51c0,0-1.19,7-2,12.3s.07,24,.07,24,5.43-11.62,6.71-16.91-2-19.37-2-19.37,2-.58,1.85-4.46S34.62,39.4,33.16,46.47Z"/><path class="cls-10" d="M36.85,67.12c.13-4.79-.69-9.84,1-14.44a2.08,2.08,0,0,1,.91-1.12c-.08-.36-.13-.56-.13-.56s1.15-.34,1.64-2.22a4.09,4.09,0,0,1-2.09.53,3.08,3.08,0,0,1-3-3.24,3.38,3.38,0,0,1,.83-2,2.35,2.35,0,0,1,1.43-.89,2.24,2.24,0,0,1,1.7.39,2.43,2.43,0,0,1,.25.2c-1.77-2.11-5.15-2.49-6.22,2.7,0,0,1,3.31,2.65,4.51,0,0-1.19,7-2,12.3s.07,24,.07,24,.88-1.89,2-4.48C36.1,77.56,36.72,72.35,36.85,67.12Z"/><path class="cls-6" d="M45.75,52.68c-3.63-12.09-6.49-10.44-6.49-10.44a53,53,0,0,1,1.5,23.41,103.82,103.82,0,0,1-6.9,23.08c.07-5.23.13-17.9-.71-25.46-1.09-9.7-7-18.8-5.59-23.46,0,0-4.82,1.95-5.1,6.57s.45,14.44,2.1,16.64,5.59,1.56,5.59,1.56S26.08,70,27,74a51.9,51.9,0,0,0,3,8c.67,1.58,1.36,3.14,2,4.72s.81,3,1.74,4.29c.82-1.23,2.41-2.19,3.41-3.36a32.49,32.49,0,0,0,3.12-4.41,45.64,45.64,0,0,0,4.09-8.83c2-5.83-.48-9.67-.48-9.67C46.19,64.48,48.3,61.17,45.75,52.68Z"/><path class="cls-7" d="M27.56,39.81s-4.81,1.86-5.07,6.31.5,13.91,2.15,16,5.6,1.52,5.6,1.52-4.06,5.21-3.08,9.08S31.82,83.85,34,89.24c0,0,.35-17.47-.77-26.81S26.11,44.29,27.56,39.81Z"/><path class="cls-11" d="M31.29,66.83a11.69,11.69,0,0,1,1.93-4.45l0-.27a10.29,10.29,0,0,1-4.75-3c-3.46-3.35-3.87-8-3.94-12.55a8.31,8.31,0,0,1,2.86-5.68,5,5,0,0,1,.2-1.11s-4.81,1.86-5.07,6.31.5,13.91,2.15,16,5.6,1.52,5.6,1.52-4.06,5.21-3.08,9.08S31.82,83.85,34,89.24c0,0,0-1.43,0-3.69C31.44,79.7,30,73.19,31.29,66.83Z"/><path class="cls-7" d="M33.62,87.84a96.44,96.44,0,0,0,7.23-23.09,49.44,49.44,0,0,0-1.59-22.56s2.86-1.58,6.53,10.08c2.58,8.19.49,11.37-1.77,11.67,0,0,2.44,3.71.5,9.32C42.91,78,39,85.91,33.66,89.25Z"/><path class="cls-11" d="M40.69,73.35c.58-1.87,1.86-6.8,4.14-7.48A8.07,8.07,0,0,0,44,63.94a2.92,2.92,0,0,0,2.06-1.38c-1.58-1.43-2.27-4.12-2.51-6.26a25.18,25.18,0,0,0-1-6,64.33,64.33,0,0,1-2.73-8.18v0a1,1,0,0,0-.58,0,49.44,49.44,0,0,1,1.59,22.56,96.44,96.44,0,0,1-7.23,23.09l0,1.41a19.58,19.58,0,0,0,4.89-4.71C38.24,80.81,39.65,76.66,40.69,73.35Z"/><path class="cls-8" d="M28.87,36.78a5.22,5.22,0,0,0-1.3,7.6,13.55,13.55,0,0,0,6,6s-.72-5,3.31-7.49c0,0,4.75,2.78,3.76,7.67a13.34,13.34,0,0,0,1.61-6.46C42,40.81,36.43,34.94,28.87,36.78Z"/><path class="cls-5" d="M40,43.81v-.09a5.75,5.75,0,0,1,.78-2.82,11.58,11.58,0,0,0-11.95-4.12,5.48,5.48,0,0,0-2.41,4.61,2.1,2.1,0,0,1,1.67-.57c2.65.18,5.31.5,6.28,3.48.09.28.16.55.23.83a6.78,6.78,0,0,1,2.22-2.25A9.32,9.32,0,0,1,40,46.14,6.32,6.32,0,0,1,40,43.81Z"/><path class="cls-12" d="M36.45,42.05a9.52,9.52,0,0,0,3.11-.49c0-.07-1.56.23-3.11.15a14.36,14.36,0,0,1-2.1-.24c-.29,0-.52-.12-.68-.15l-.26-.07-.25-.07c-.16,0-.39-.1-.66-.2a8.48,8.48,0,0,1-1.89-.91,7.16,7.16,0,0,1-1.55-1.4,9,9,0,0,0-.6-.77,3,3,0,0,0,.45.88,6.3,6.3,0,0,0,1.51,1.57,8.46,8.46,0,0,0,1.93,1,4.94,4.94,0,0,0,.68.23l.26.09.27.06.71.13A14.08,14.08,0,0,0,36.45,42.05Z"/><path class="cls-12" d="M40.35,46.45a4.36,4.36,0,0,0-.19-.48,1.78,1.78,0,0,0-.07-.17,6.66,6.66,0,0,0-.36-.61,5.43,5.43,0,0,0-1-1.17,4.71,4.71,0,0,0-1.31-.8,2.29,2.29,0,0,0-.48-.15l.18-.1c.38-.19.67-.25.66-.3a.5.5,0,0,0-.21,0,1.87,1.87,0,0,0-.52.12,3.82,3.82,0,0,0-1.4.88,6.6,6.6,0,0,0-1,1.29c-.12.19-.21.35-.27.47a1.41,1.41,0,0,0-.1.18,9.92,9.92,0,0,0-.68,2.27,7.45,7.45,0,0,0-.12,1.63,1.84,1.84,0,0,0,.12.73,3.66,3.66,0,0,0,.07-.73A9.54,9.54,0,0,1,33.9,48a10.85,10.85,0,0,1,.79-2.13,1,1,0,0,1,.08-.18l.23-.46a7.24,7.24,0,0,1,.89-1.27,4.63,4.63,0,0,1,1-.8c.09.06.27.14.49.27a5.64,5.64,0,0,1,1.16.88,6.12,6.12,0,0,1,.86,1.15,5.64,5.64,0,0,1,.29.59l.08.16c.05.11.13.25.2.44A9.11,9.11,0,0,1,40.38,48c.26,1,.34,2.13.41,2.13a6.81,6.81,0,0,0-.07-2.2A10.63,10.63,0,0,0,40.35,46.45Z"/><path class="cls-12" d="M42.21,45.41a11,11,0,0,0,0-1.41c0-.38-.06-.64-.06-.64s0-.26-.16-.63a6.18,6.18,0,0,0-.54-1.31,5.29,5.29,0,0,0-.87-1.11,1.68,1.68,0,0,0-.52-.38s.15.22.38.51a6.24,6.24,0,0,1,.7,1.14,6,6,0,0,1,.42,1.26c.08.36.11.6.11.6s0,.24.1.6.08.86.1,1.36a16.72,16.72,0,0,0,0,2A7.89,7.89,0,0,0,42.21,45.41Z"/><path class="cls-12" d="M31.32,48.7c-.51-.52-1.17-1.23-1.77-2A18.88,18.88,0,0,1,28,44.56a9.56,9.56,0,0,1-.54-1.06A6.58,6.58,0,0,1,27,42.42a5.52,5.52,0,0,1-.27-2.53,4.34,4.34,0,0,1,.44-1.3,5.07,5.07,0,0,1,.71-1c.49-.53.89-.81.86-.84s-.12,0-.3.16A4.7,4.7,0,0,0,27,38.46a4.13,4.13,0,0,0-.54,1.37,5.47,5.47,0,0,0,.18,2.72,8.9,8.9,0,0,0,.44,1.16,11.62,11.62,0,0,0,.6,1.08,16.49,16.49,0,0,0,1.63,2.15,21.19,21.19,0,0,0,1.9,1.9,5.24,5.24,0,0,0,1,.75A12.16,12.16,0,0,0,31.32,48.7Z"/><path class="cls-2" d="M18.58,62.33s0,0,0,0a5.53,5.53,0,0,1-.74,1.37l-.1.12-1.25,5.3h0L12.12,87.71,12,92.89H0q.14-2.37.33-5c0-.54.09-1.1.14-1.66s.09-1.12.15-1.7c0-.32.07-.64.1-1C2.24,69,7.63,51.8,12.23,47.07c.15-.15.29-.29.43-.41s.29-.24.43-.34h.05s0,0,0,0a.13.13,0,0,1,.08,0l.07,0h0c1.26-.34,3.13,2.37,4.63,6.81.22.65.43,1.33.63,2A11.32,11.32,0,0,1,18.58,62.33Z"/><path class="cls-6" d="M18.58,62.33s0,0,0,0a5.53,5.53,0,0,1-.74,1.37l-.1.12-1.25,5.3h0L12.12,87.71,12,92.89H5.94A14.17,14.17,0,0,0,2.86,89,4,4,0,0,0,.33,87.91c0-.54.09-1.1.14-1.66s.09-1.12.15-1.7c0-.32.07-.64.1-1a5.49,5.49,0,0,0,7-1c4.4-4.43,5.12-13.36,6.11-19.16.29-1.67.63-3.53.81-5.39.29-2.87.21-5.76-1-8a4,4,0,0,0-.53-1.8,4.57,4.57,0,0,0-.93-1.17c.15-.15.29-.29.43-.41s.29-.24.43-.34h.05s0,0,0,0a.13.13,0,0,1,.08,0l.07,0h0c1.26-.34,3.13,2.37,4.63,6.81.22.65.43,1.33.63,2A11.32,11.32,0,0,1,18.58,62.33Z"/><path class="cls-7" d="M16.66,69c-.11,0,.59-2.2,1-4.41.14-.54.17-1.11.26-1.62a10,10,0,0,0,.15-1.43c0-.83.06-1.39.06-1.39a23.28,23.28,0,0,0-.41-4.44c-.43-2.2-1.2-4.34-1.08-4.38a6.92,6.92,0,0,1,.56,1.3,24.77,24.77,0,0,1,1,3,22.43,22.43,0,0,1,.61,4.54s-.05.57-.11,1.43a9.6,9.6,0,0,1-.22,1.46c-.11.52-.17,1.09-.34,1.64a29.46,29.46,0,0,1-.92,3A6.87,6.87,0,0,1,16.66,69Z"/><path class="cls-13" d="M29.05,17.42c-3.71-.64-7.27-1.91-9.48-5.59a7.78,7.78,0,0,0,1,2s.68,5.08,1.19,7.28a3.72,3.72,0,0,1,2.71,1.53,3.62,3.62,0,0,1,1,2.54L28,24.7l-.76-6.27A6.26,6.26,0,0,0,29.05,17.42Z"/><path class="cls-14" d="M50.3,19s3.27-2.46,4,.18-.34,9.34-2.88,7.78S50.3,19,50.3,19Z"/><path class="cls-15" d="M50.3,19a7,7,0,0,1,1.35-.76,1.42,1.42,0,0,1,1.18,1.2c.54,2,.08,6.26-1.27,7.6l-.15-.08C48.88,25.36,50.3,19,50.3,19Z"/><path class="cls-16" d="M52,26.14a11.52,11.52,0,0,1-.33-1.82,7.66,7.66,0,0,1,.09-1.83s0-.23.11-.56a5.46,5.46,0,0,1,.42-1.18,3.51,3.51,0,0,1,.74-1c.25-.24.45-.37.44-.39a1.72,1.72,0,0,0-.52.29,3.69,3.69,0,0,0-.85,1,5.23,5.23,0,0,0-.51,1.22c-.09.34-.13.58-.13.58a7.72,7.72,0,0,0,0,1.9A4.54,4.54,0,0,0,52,26.14Z"/><path class="cls-16" d="M53.11,24.94a1.9,1.9,0,0,0,0-.79,3.73,3.73,0,0,0-.1-.54L53,23.37a1,1,0,0,0-.12-.22l-.14-.22c-.06-.08-.13-.15-.2-.23a1.09,1.09,0,0,0-.7-.37s.33.22.54.51l.15.23.1.21a1,1,0,0,1,.08.21s0,.08.09.21a3.61,3.61,0,0,1,.15.49A4.11,4.11,0,0,0,53.11,24.94Z"/><path class="cls-14" d="M38.42,3.32s8,1.47,10.22,6.6,1.78,13.41,1.78,13.41a27.27,27.27,0,0,1-.11,8.21,5.16,5.16,0,0,1-2.29,4c-2.16,1.36-5.4,1.11-8,1.31-1.63.77-.15,2.39-.8,3.91-3.83,1.84-7.11.46-9.56-1.34-1.59-1.16-.69-5.82-3.53-8.64a1.53,1.53,0,0,1-.24-.34s-4.63,1.89-7.1-1.8-1.24-9.35,4.14-7.18C22.9,21.5,20.77,3.61,38.42,3.32Z"/><g class="cls-17"><path class="cls-16" d="M23.48,25.16c.94,1.55.73,3.39-.46,4.11s-2.14-.06-3.07-1.6-1.51-3.28-.32-4S22.55,23.62,23.48,25.16Z"/></g><path class="cls-16" d="M23.76,25.62a4.09,4.09,0,0,0-.34-.6A4.29,4.29,0,0,0,23,24.5a4.39,4.39,0,0,0-1.22-.87,2.89,2.89,0,0,0-1.44-.33,1.22,1.22,0,0,0-.66.16s.27,0,.65,0a3.14,3.14,0,0,1,1.3.44,4.39,4.39,0,0,1,1.06.88,4.92,4.92,0,0,1,.39.49,4,4,0,0,1,.34.53s.05.1.08.15h0a1.41,1.41,0,0,0-.75-.17A1.55,1.55,0,0,0,22,26a2,2,0,0,0-.22.15l-.08.07-.07.08a2,2,0,0,0-.15.22,1.59,1.59,0,0,0-.22.77,1.44,1.44,0,0,0,.19.74c.12.18.22.27.24.25s0-.14-.07-.32a1.39,1.39,0,0,1,0-.65,1.26,1.26,0,0,1,.25-.56,1.08,1.08,0,0,1,.19-.21L22,26.5a.8.8,0,0,1,.16-.13,1.39,1.39,0,0,1,.56-.26,1.56,1.56,0,0,1,.65,0l.17.05a3.74,3.74,0,0,1,.28.93,3.05,3.05,0,0,1,0,.74,2.16,2.16,0,0,1-.16.62c-.14.36-.31.57-.28.59s.23-.15.44-.51a2.33,2.33,0,0,0,.25-.66,3.06,3.06,0,0,0,.07-.81A3.88,3.88,0,0,0,23.76,25.62Z"/><g class="cls-17"><path class="cls-16" d="M44.34,25a1.49,1.49,0,0,1-1.74,1,1.26,1.26,0,0,1-1.23-1.43s-1.24,1.08-1.19,1.62S45.46,28.32,44.34,25Z"/></g><path class="cls-16" d="M40.18,26.05s.12-.16.29-.37a3,3,0,0,1,.74-.67,3.75,3.75,0,0,1,.9-.42,2.37,2.37,0,0,1,.43-.08l.12,0,.3,0a1.23,1.23,0,0,1,.84.3,1.52,1.52,0,0,1,.41.83,1.88,1.88,0,0,0,.09.47s.09-.18.09-.48A1.54,1.54,0,0,0,44,24.53a1.42,1.42,0,0,0-.51-.37A1.9,1.9,0,0,0,43,24a1.68,1.68,0,0,0-.38,0h-.14a2.6,2.6,0,0,0-.5.14,3.41,3.41,0,0,0-.95.56,2.53,2.53,0,0,0-.7.84C40.18,25.84,40.15,26,40.18,26.05Z"/><path class="cls-2" d="M34.37,22.7c.05,1.17.7,2.09,1.44,2.06s1.3-1,1.25-2.18-.7-2.1-1.44-2.06S34.31,21.53,34.37,22.7Z"/><path class="cls-2" d="M45.73,22.26c.05,1.17.7,2.09,1.44,2.06s1.31-1,1.25-2.18-.69-2.09-1.44-2.06S45.68,21.09,45.73,22.26Z"/><path class="cls-15" d="M49.09,11.11c-.13-.39-.28-.79-.45-1.19-2.21-5.13-10.22-6.6-10.22-6.6C20.77,3.61,22.9,21.5,22.9,21.5s-.21-.08-.31-.12c.06.29.11.55.16.78a3.73,3.73,0,0,1,2.72,1.53c1.18,1.52,0,1.52,0,1.52l3.17-.42-.38-5.34s4.24-1.27,4.83-6.86a30.59,30.59,0,0,0,11.7-1.11A13.22,13.22,0,0,0,49.09,11.11Z"/><path class="cls-18" d="M20.55,13.86s.68,5.08,1.19,7.28a3.72,3.72,0,0,1,2.71,1.53A8.08,8.08,0,0,1,25.92,26l2.46-.24-.58-7.27s3.68-1.32,4.28-6.91a30.64,30.64,0,0,0,11.69-1.1,13,13,0,0,0,4.87-.55s1.57,3.77,1.4,6.31a23.59,23.59,0,0,0,.34,5.93l1.18-.85-.42-3.51A6.56,6.56,0,0,0,50.89,10s6.44-2.79.67-9.91a10.86,10.86,0,0,1-8.3,1C38.69-.21,24.62-1.56,22.92,5.55,22.92,5.55,16.82,8.26,20.55,13.86Z"/><path class="cls-13" d="M51.63.21c-4.4,5.53-12.45,8.48-19.18,5.67a8.72,8.72,0,0,1-.87-.42A5.29,5.29,0,0,1,28.05.91c-2.56.8-4.55,2.23-5.13,4.64a7.56,7.56,0,0,0-1.38.87,28.1,28.1,0,0,0,10.35,6.29c.08-.36.14-.74.19-1.14a30.64,30.64,0,0,0,11.69-1.1,13,13,0,0,0,4.87-.55s1.57,3.77,1.4,6.31a23.59,23.59,0,0,0,.34,5.93l1.18-.85-.42-3.51A6.56,6.56,0,0,0,50.89,10S57.27,7.27,51.63.21Z"/><path class="cls-13" d="M26.14,14.87c-3.25.45-4.94-.51-5.71-1.21l.12.2s.68,5.08,1.19,7.28a3.72,3.72,0,0,1,2.71,1.53A8.08,8.08,0,0,1,25.92,26l2.46-.24-.21-2.62-.92-4.7s4.23-1.27,4.83-6.86C32.08,11.57,31.06,14.2,26.14,14.87Z"/><path class="cls-13" d="M50,16.23a23.59,23.59,0,0,0,.34,5.93l1.18-.85-.42-3.51a6.54,6.54,0,0,0-.24-7.73,3.31,3.31,0,0,1-2.26-.15S50.21,13.69,50,16.23Z"/><path class="cls-19" d="M47.83,7.52A12.81,12.81,0,0,0,49.24,6a9.92,9.92,0,0,0,.95-1.59,5.71,5.71,0,0,0,.28-.67,4.25,4.25,0,0,0,.18-.54,1.5,1.5,0,0,0,.11-.48s-.24.68-.74,1.61a10.15,10.15,0,0,1-1,1.5A11.75,11.75,0,0,1,47.6,7.27a14.76,14.76,0,0,1-3.22,2.1c-1,.46-1.62.7-1.62.7s-.64.26-1.65.58a23.86,23.86,0,0,1-3.78.8,21.1,21.1,0,0,1-3.87.15c-1.06-.06-1.76-.2-1.77-.16a1.69,1.69,0,0,0,.48.14,11.87,11.87,0,0,0,1.27.2,19.59,19.59,0,0,0,3.92,0,22.35,22.35,0,0,0,3.87-.72c1-.3,1.71-.56,1.71-.56a16.14,16.14,0,0,0,1.63-.75A14.44,14.44,0,0,0,47.83,7.52Z"/><path class="cls-19" d="M48.72,9.47l.22-.13.22-.16a6.47,6.47,0,0,0,.53-.45,7.81,7.81,0,0,0,1.36-1.61,8.73,8.73,0,0,0,.89-1.88,3.37,3.37,0,0,0,.22-.92,4.43,4.43,0,0,0-.39.85,11.35,11.35,0,0,1-1,1.77A8.5,8.5,0,0,1,49.4,8.4a4.08,4.08,0,0,1-.52.4l-.2.14-.21.14c-.14.08-.32.21-.57.33a9.07,9.07,0,0,1-1.85.76c-1.42.41-2.92.43-2.92.51a3.64,3.64,0,0,0,.94.06,10.44,10.44,0,0,0,2.06-.25,8.16,8.16,0,0,0,2-.69A4.56,4.56,0,0,0,48.72,9.47Z"/><path class="cls-19" d="M53.68,3.43c-.07,0,0,1.29-.36,2.52a6,6,0,0,1-.6,1.58,3.7,3.7,0,0,1-.29.47l-.12.17-.13.17a2.51,2.51,0,0,1-.37.4,4.14,4.14,0,0,1-1.4.91,6.9,6.9,0,0,1-1.65.42,2.94,2.94,0,0,0-.8.1,3.05,3.05,0,0,0,.81.08A5.75,5.75,0,0,0,50.53,10a4.2,4.2,0,0,0,1.58-.89,3.4,3.4,0,0,0,.43-.44l.15-.17.12-.2a3.14,3.14,0,0,0,.3-.52A6,6,0,0,0,53.65,6,6.76,6.76,0,0,0,53.68,3.43Z"/><path class="cls-19" d="M23.52,4.56a4.78,4.78,0,0,1,.59-1.07,5.17,5.17,0,0,1,1-1,8.14,8.14,0,0,1,2.35-1.14c.69-.21,1.17-.31,1.17-.31s.46-.12,1.18-.25S31.5.56,32.48.49s2-.11,2.69-.14A7.67,7.67,0,0,0,36.4.26a5.82,5.82,0,0,0-1.23-.1c-.74,0-1.73,0-2.71,0a24.56,24.56,0,0,0-2.72.23C29,.48,28.52.6,28.52.6S28,.71,27.32,1a8,8,0,0,0-2.42,1.3,4.89,4.89,0,0,0-1,1.09,3.92,3.92,0,0,0-.55,1.16,2.49,2.49,0,0,0-.12.49,1.49,1.49,0,0,0-.05.39c0,.22,0,.34,0,.34S23.27,5.23,23.52,4.56Z"/><path class="cls-19" d="M46.33,2.44l.93-.18a14.64,14.64,0,0,0,2-.62,8.49,8.49,0,0,0,1.84-1A3,3,0,0,0,51.78,0a8.11,8.11,0,0,0-.8.49,9.65,9.65,0,0,1-1.84.84,14.08,14.08,0,0,1-2,.49L46.26,2a26.19,26.19,0,0,1-2.94.29c-1.49.07-3,0-3,0a12.45,12.45,0,0,0,3,.31A21.71,21.71,0,0,0,46.33,2.44Z"/><path class="cls-19" d="M26.28,4.39l.32-.27a10.68,10.68,0,0,1,1-.88,11.43,11.43,0,0,0,1.13-.82A3.72,3.72,0,0,0,27.46,3a9.46,9.46,0,0,0-1.18.81L26,4.08a5.58,5.58,0,0,0-.6.79,3.16,3.16,0,0,0-.39.91c-.06.27-.05.45,0,.45s.09-.16.2-.39a3.51,3.51,0,0,1,.49-.78A7,7,0,0,1,26.28,4.39Z"/><path class="cls-19" d="M27,6A6.26,6.26,0,0,1,28.33,4.6,8.57,8.57,0,0,1,30,3.67l.83-.29.24-.07a5.11,5.11,0,0,1,.61-.19,15.11,15.11,0,0,1,1.93-.37c1.43-.19,2.88-.14,2.88-.2a10.12,10.12,0,0,0-2.91-.14,15.8,15.8,0,0,0-2,.28c-.27.05-.49.13-.65.17l-.25.06s-.35.13-.86.35a8.08,8.08,0,0,0-1.73,1.07,5.79,5.79,0,0,0-1.3,1.55,2.75,2.75,0,0,0-.34.85A5.64,5.64,0,0,0,27,6Z"/><path class="cls-19" d="M20.26,10.3s.09-.17.21-.4A7.41,7.41,0,0,1,21,9.09a7.51,7.51,0,0,1,.95-1l.31-.29A3.44,3.44,0,0,1,23,7.26a1.55,1.55,0,0,1,.88-.19c.25,0,.41.09.43,0s0,0-.09-.09a1,1,0,0,0-.31-.15,1.65,1.65,0,0,0-1,.07,3.75,3.75,0,0,0-.92.48c-.22.17-.36.3-.36.3a6.34,6.34,0,0,0-.9,1.18,3.62,3.62,0,0,0-.4.93C20.22,10.1,20.23,10.3,20.26,10.3Z"/><path class="cls-19" d="M24,10.9a2.15,2.15,0,0,1,.05-.36,5.19,5.19,0,0,1,.3-1.07,6.6,6.6,0,0,1,.51-1c.16-.27.29-.43.26-.46s-.19.1-.41.34a4.91,4.91,0,0,0-.67,1,5.43,5.43,0,0,0-.42,1.12,2,2,0,0,0-.08.4l0,.15s0,.22,0,.56a2.5,2.5,0,0,0,.44,1.17,2,2,0,0,0,1,.69,1.24,1.24,0,0,0,.54.06s-.2-.12-.48-.23a2.12,2.12,0,0,1-.8-.71,2.25,2.25,0,0,1-.27-1c0-.3,0-.49,0-.49S24,11,24,10.9Z"/><path class="cls-19" d="M24.58,14.75s-.35.08-.86.12a3.78,3.78,0,0,1-.87,0,3.53,3.53,0,0,1-.92-.34,4.26,4.26,0,0,1-1.38-1.21,4.21,4.21,0,0,1-.44-.71,4.48,4.48,0,0,1-.36-.75A4.87,4.87,0,0,1,19.42,10a4.37,4.37,0,0,1,.14-1,3.7,3.7,0,0,1,.34-.8c.25-.44.51-.69.48-.72a1.86,1.86,0,0,0-.64.62,3,3,0,0,0-.43.82,3.85,3.85,0,0,0-.23,1,5.16,5.16,0,0,0,.25,2,5.64,5.64,0,0,0,.36.84,4.91,4.91,0,0,0,.52.76,4.52,4.52,0,0,0,1.57,1.24,3.53,3.53,0,0,0,1,.29,3.14,3.14,0,0,0,.93,0A2,2,0,0,0,24.58,14.75Z"/><path class="cls-19" d="M31.53,13.76a8.06,8.06,0,0,1-.79,1.54,6.47,6.47,0,0,1-1.11,1.3,3.35,3.35,0,0,1-.44.36l-.16.13s-.25.19-.64.44a7.9,7.9,0,0,1-1.56.69,7.87,7.87,0,0,1-1.71.28,4,4,0,0,0-.8.06,2.32,2.32,0,0,0,.8.13,6.85,6.85,0,0,0,1.79-.15,7.12,7.12,0,0,0,1.7-.63c.43-.24.7-.43.7-.43l.18-.15a4.76,4.76,0,0,0,.44-.41A6.39,6.39,0,0,0,31,15.48a6.69,6.69,0,0,0,.67-1.67,2.21,2.21,0,0,0,.12-.8A3.23,3.23,0,0,0,31.53,13.76Z"/><path class="cls-19" d="M51.85,11.84a4.87,4.87,0,0,0-.68-1.25c-.23-.32-.44-.48-.45-.46s.12.23.3.56A6.58,6.58,0,0,1,51.53,12a7.81,7.81,0,0,1,.25,1.33c0,.37,0,.62,0,.62v.16a3.33,3.33,0,0,1,0,.45,5.2,5.2,0,0,1-.18,1.33,4,4,0,0,1-.56,1.23c-.21.3-.39.48-.36.52a1.63,1.63,0,0,0,.51-.41A3.71,3.71,0,0,0,52,16a6.09,6.09,0,0,0,.31-1.42c0-.19,0-.36,0-.47v-.18s0-.27-.07-.65A7.63,7.63,0,0,0,51.85,11.84Z"/><path class="cls-15" d="M40,36.89c2.63-.2,5.87,0,8-1.31a5.16,5.16,0,0,0,2.29-4,18.71,18.71,0,0,0,.38-3.66,16.52,16.52,0,0,1-1.39,5c-1.62,3.07-6.72,3.88-14.33,3.07S26.3,30,26.3,30l-.13.87c2.75,2.83,1.89,7.41,3.46,8.56a12,12,0,0,0,3.45,1.82c1-1.73,2.23-3.53,3.34-3.31s1.83,1.75,2.2,3.08c.19-.08.38-.15.57-.25C39.84,39.28,38.36,37.66,40,36.89Z"/><path class="cls-18" d="M51.2,18.91l-1.26,0L50,19a1.42,1.42,0,0,0,.07-.14l-.16,8.57s-2.13-1.67-8.44-1.09a26.7,26.7,0,0,0-10.16,2.8s-.54-5.32-3.48-8.11l-5.94.16c1.18.53,3.78,2.39,3.83,4.84.06,3.41-.24,3.86-.24,3.86-.54.91,1.67,4.53,2.33,5.15a12.19,12.19,0,0,0,4.92,2.7c3.42.94,8.44.65,11.91.15,7.27-1.06,7.83-3.85,7.76-7.56A70,70,0,0,0,51.2,18.91Z"/><path class="cls-13" d="M52.37,30.36A70,70,0,0,0,51.2,18.91l-1.26,0L50,19a1.42,1.42,0,0,0,.07-.14l-.1,5.35A6.19,6.19,0,0,1,50.68,31C48.6,35,44.46,36.25,40.32,36.05c-2.77-.14-5.22-.21-7.71-1.64A9.24,9.24,0,0,1,29,30.15a9.81,9.81,0,0,1-1-4,3.85,3.85,0,0,1,1.38-2.85c-.11-.2-.22-.39-.34-.58l0,0c-.12-.19-.24-.37-.37-.54l0-.05a6.25,6.25,0,0,0-.4-.5.08.08,0,0,0,0,0,5.11,5.11,0,0,0-.45-.48l-.73,0-4.7.13h-.51c1.18.53,3.78,2.39,3.83,4.84.06,3.41-.24,3.86-.24,3.86-.54.91,1.67,4.53,2.33,5.15a12.19,12.19,0,0,0,4.92,2.7c3.42.94,8.44.65,11.91.15l.66-.11C51.92,36.69,52.43,34,52.37,30.36Z"/><path class="cls-19" d="M45.51,28.39a1.54,1.54,0,0,1-.26.54,4.2,4.2,0,0,1-.9,1,3.83,3.83,0,0,1-1.18.64,3,3,0,0,1-.44.12l-.17,0h-.17a1.83,1.83,0,0,1-.45,0,3.06,3.06,0,0,1-1.28-.44,3.53,3.53,0,0,1-1-.89,1.86,1.86,0,0,1-.29-.52s.19.15.42.4a4,4,0,0,0,1,.73,2.74,2.74,0,0,0,1.16.3,2.51,2.51,0,0,0,.39,0h.15l.14,0a1.8,1.8,0,0,0,.39-.07,3.49,3.49,0,0,0,1.12-.5,5.23,5.23,0,0,0,.94-.83C45.33,28.56,45.48,28.38,45.51,28.39Z"/><path class="cls-18" d="M36.89,17.21s-.14,0-.28-.08A1.9,1.9,0,0,0,36.1,17a2,2,0,0,0-.51,0l-.22.06a2.53,2.53,0,0,0-.73.19c-.36.15-.64.46-.72.42s.06-.5.44-.83a2.49,2.49,0,0,1,.87-.47h.32a2.11,2.11,0,0,1,.68.14,1.45,1.45,0,0,1,.54.39C36.89,17.06,36.93,17.18,36.89,17.21Z"/><path class="cls-18" d="M48.4,17.14c-.1,0-.3-.31-.57-.49a1.49,1.49,0,0,0-.41-.17,1.64,1.64,0,0,0-.18,0l-.19-.05a.4.4,0,0,0-.2,0l-.24,0c-.34,0-.68.19-.75.11s.2-.41.63-.59a2.14,2.14,0,0,1,.32-.08.81.81,0,0,1,.3,0h.3l.27.13a1.51,1.51,0,0,1,.49.41C48.46,16.68,48.48,17.12,48.4,17.14Z"/></g></g></g></svg>