<svg xmlns="http://www.w3.org/2000/svg" viewBox="0 0 102.03 91.95"><defs><style>.cls-1{isolation:isolate;}.cls-2{fill:#4052a0;}.cls-3{fill:#fad0bf;}.cls-4,.cls-5{fill:#fa7296;}.cls-13,.cls-15,.cls-4{opacity:0.2;}.cls-6{fill:#1b205e;}.cls-13,.cls-7{fill:#1d255b;}.cls-7{opacity:0.4;}.cls-12,.cls-13,.cls-7,.cls-8,.cls-9{mix-blend-mode:multiply;}.cls-8{fill:#c87568;opacity:0.8;}.cls-10,.cls-9{fill:#d2e4ff;}.cls-11,.cls-12{fill:#cc5252;}.cls-12{opacity:0.5;}.cls-14{fill:#65a1ff;}.cls-16{fill:#963e35;}.cls-17{fill:#ba5443;}</style></defs><title>panicРесурс 10</title><g class="cls-1"><g id="Слой_2" data-name="Слой 2"><g id="OBJECTS"><path class="cls-2" d="M72,30.44s1.18-5.44,8.62-7.18C80.62,23.26,80.05,31.25,72,30.44Z"/><path class="cls-3" d="M72.81,30.05A5.56,5.56,0,0,1,70.33,29a6.63,6.63,0,0,1-1.86-2.15c-.55-1-.88-2.05-2-2.66-.44-.25-.93-.37-1.37-.6-.72-.39-1.92-.91-2.32-1.72-.6-1.19,1-1.64,1.94-1.6a7.25,7.25,0,0,1,2.89,1c.15.09.3.25.45.36a7.15,7.15,0,0,1-1.3-1.86,13.47,13.47,0,0,0-1.85-2.21,13.22,13.22,0,0,1-1.77-1.74c-1.51-2-1.08-6.24,2.14-5.57a10.08,10.08,0,0,1,5.94,4.47s-.57-2.67.59-3,3,2.91,3.75,6.5,2,6.94,3.75,8C79.34,26.23,76.89,30.49,72.81,30.05Z"/><path class="cls-4" d="M71.14,12.89c3.44,5,6.62,11.79.46,15.2A6.46,6.46,0,0,1,70,28.7l.3.25a5.56,5.56,0,0,0,2.48,1.1c4.08.44,6.53-3.82,6.53-3.82-1.71-1.07-3.06-4.42-3.75-8s-2.58-6.8-3.75-6.5C71.38,11.84,71.2,12.34,71.14,12.89Z"/><path class="cls-5" d="M68.39,27c-.16.09-.65-1.92-2.26-3A12.68,12.68,0,0,0,65,23.41c-.41-.15-.82-.28-1.17-.45a2.18,2.18,0,0,1-1-.87,1.21,1.21,0,0,1-.16-.36,1.11,1.11,0,0,1,.2-1.1A2.16,2.16,0,0,1,64,20a3.63,3.63,0,0,1,1.5,0,4,4,0,0,1,2.32,1.39,2.51,2.51,0,0,1,.58,1.07s-.28-.41-.77-.91a3.76,3.76,0,0,0-2.22-1.11,2.65,2.65,0,0,0-2.23.48c-.28.38.1.8.06.78a1.52,1.52,0,0,0,.76.66c.29.16.68.3,1.11.5a9.15,9.15,0,0,1,1.25.77,7.69,7.69,0,0,1,1,1,4,4,0,0,1,.6,1.12A6.09,6.09,0,0,1,68.39,27Z"/><path class="cls-5" d="M72.29,18.38c0,.08-.7-.12-1.26.1a3.79,3.79,0,0,0-1,.59c0-.06-2.06,1.47-2.24,1.25a12.17,12.17,0,0,1,1.78-1.81,3.48,3.48,0,0,1,1.3-.49A1.64,1.64,0,0,1,72.29,18.38Z"/><path class="cls-5" d="M65.14,10.31c.06,0,0,.32,0,.76a2.6,2.6,0,0,0,.53,1.48,5.85,5.85,0,0,0,1.11,1.19l.59.49s.91.83,1.76,1.76a7.46,7.46,0,0,1,1,1.4c.22.41.36.69.32.71s-.24-.21-.53-.57a8.67,8.67,0,0,0-1.12-1.23c-.89-.82-1.86-1.6-1.86-1.6l-.56-.54a6,6,0,0,1-1.1-1.37,2.67,2.67,0,0,1-.39-1.73A1.51,1.51,0,0,1,65.14,10.31Z"/><path class="cls-5" d="M62.74,10.75a6.06,6.06,0,0,0,.48,2.63,4.84,4.84,0,0,0,1.17,1.39,6.78,6.78,0,0,0,.66.54s1.08.88,2.11,1.86a9.89,9.89,0,0,1,1.26,1.49c.3.44.48.74.44.76s-.92-1.06-2-1.92-2.21-1.71-2.21-1.71A6.64,6.64,0,0,1,64,15.2a5,5,0,0,1-1.17-1.63,3.65,3.65,0,0,1-.3-2A2,2,0,0,1,62.74,10.75Z"/><path class="cls-5" d="M72.61,19.05c-.15,0,0-1.94-.86-3.52A5.24,5.24,0,0,1,70.89,13c0-.19.07-.38.1-.55s.15-.29.22-.4a1.1,1.1,0,0,1,.28-.3.92.92,0,0,1,.42-.17,1.24,1.24,0,0,1,1,.36,6.91,6.91,0,0,1,1.38,2.28,14.38,14.38,0,0,1,1.06,3.59c-.08,0-.66-1.76-1.47-3.41a6.61,6.61,0,0,0-1.35-2c-.49-.4-.66-.1-.68-.11a.91.91,0,0,0-.39.77,4.8,4.8,0,0,0,.68,2.29,6,6,0,0,1,.55,2.56A4.43,4.43,0,0,1,72.61,19.05Z"/><path class="cls-5" d="M74.11,26.92a2.12,2.12,0,0,1-1.78-.74,2.41,2.41,0,0,1-.48-1.32c0-.38,0-.62,0-.62s0-.24.11-.59.17-.79.28-1.25c.23-.89.2-1.79.27-1.81s.12.22.17.57a5.76,5.76,0,0,1,0,1.31c-.05.47-.1.93-.14,1.27a2.87,2.87,0,0,0-.05.56,5.13,5.13,0,0,0-.06.55,2,2,0,0,0,.26,1.07C73.14,26.63,74.16,26.81,74.11,26.92Z"/><path class="cls-6" d="M71.84,30.09c5.84,4,15.42,11.29,15.42,11.29L72.5,46.73c-2.48.9-6.27,1.59-8.56,2.89-2.91,1.66-.1,4.84,2,6.5,1,.81-.43,5.91,1,6.55,2.17,1,7.33-2.69,9.44-3.21,4-1,8.11-3.24,11.81-5.05,3.44-1.68,15.12-6.54,13.82-11.95-1.78-7.36-18.29-17.54-21.31-19.34A15.58,15.58,0,0,1,71.84,30.09Z"/><path class="cls-7" d="M69.57,58.38c.87.41,0,2.32-1.26,4.42,2.5-.36,6.27-2.92,8-3.34.25-.06.49-.14.74-.21h0C87.68,55,103.22,47.84,101.93,42.46c-.05-.19-.12-.4-.19-.6C99.65,36,87.44,27.58,80.57,23.2a12,12,0,0,1-1.36,2h0a21.61,21.61,0,0,1,6.57,5A9.91,9.91,0,0,1,87.63,40.5C86.42,43.29,86,46.61,83.93,49c-1.23,1.43-3.5,2.46-5.17,3.28-3.34,1.64-8.51,1.48-11.24-1.36-.68-.7-.6-1.32-1.09-2l-.17-.26c-.39.13-.77.28-1.13.42l-.12.06a11.84,11.84,0,0,0-1.07.51c-2.91,1.66-.1,4.84,2,6.5A18.23,18.23,0,0,0,69.57,58.38Z"/><path class="cls-2" d="M91.47,43.56A15,15,0,0,1,88.27,42c-.76-.49-1.21-.84-1.21-.84l1.3.66a26.16,26.16,0,0,0,3.23,1.32A20.74,20.74,0,0,0,95,44l1.44.15s-.55,0-1.46,0A13.33,13.33,0,0,1,91.47,43.56Z"/><path class="cls-2" d="M90.77,42.92a7.56,7.56,0,0,1-2.12-.76,6.32,6.32,0,0,1-.79-.5,23.89,23.89,0,0,0,3.06.8,10,10,0,0,0,2.24.18,3,3,0,0,0,.72-.1l.27,0-.27.12a3.56,3.56,0,0,1-.74.27A6,6,0,0,1,90.77,42.92Z"/><path class="cls-8" d="M45.35,17.09c-3.74-.64-7.33-1.93-9.57-5.63a7.64,7.64,0,0,0,1,2s.68,5.13,1.19,7.35a3.77,3.77,0,0,1,2.74,1.53,3.69,3.69,0,0,1,1,2.57l2.57-.52-.77-6.32A6.25,6.25,0,0,0,45.35,17.09Z"/><path class="cls-9" d="M58.36,48.69c-.16-.37-.32-.74-.46-1.13A6.43,6.43,0,0,1,58,49.64S58.17,49.28,58.36,48.69Z"/><path class="cls-6" d="M70.8,60.84v.06c0,.37,0,.76-.07,1.13h0l0,.4c0,.08,0,.17,0,.28C70.31,67.85,69.5,73,68.39,75.78a43.9,43.9,0,0,0-1.86,6.15c-.11.48-.22,1-.31,1.44s-.16.79-.24,1.17v0c-.09.43-.16.85-.23,1.26a1.85,1.85,0,0,0,0,.23c-.06.33-.11.65-.16,1-.09.59-.17,1.15-.24,1.67,0,.17,0,.34-.07.5s0,.33-.06.48,0,.3,0,.45a1.11,1.11,0,0,0,0,.17c0,.22,0,.43-.06.62s0,.64,0,1H37.32c.24-3.33.4-7,.31-10.28-.13-4.94-2.07-12.47-4-19.26h0c-1-3.57-1.93-6.92-2.59-9.6a28.43,28.43,0,0,1-.89-4.7l0,0h0l.06,0,.06,0,.08-.05.08,0,.11-.07.11-.06.13-.08.14-.08.16-.09.15-.08.19-.11.18-.09.21-.11.2-.11.06,0,.17-.09.22-.11.26-.14.24-.11.29-.14.25-.12.31-.15.27-.13.35-.16.26-.11.07,0,.58-.25.5-.21.19-.08.73-.29c1.07-.41,2.24-.81,3.49-1.18l.09,0c.7-.2,1.43-.39,2.18-.57l.45-.1h0l.19,0h.07l.38-.08.33-.06h0a32.62,32.62,0,0,1,5.78-.59h.34c.65,0,1.27,0,1.88,0h0c.51,0,1,0,1.47.1h0l.36,0c.56,0,1.1.11,1.63.18h0l.75.1h0l.42.06.15,0,.42.07,1.19.25.43.09h0l.08,0A26.35,26.35,0,0,1,69,47.78l.41.32c.68.55,1.11,2.31,1.31,4.73A58.28,58.28,0,0,1,70.8,60.84Z"/><path class="cls-7" d="M66.53,81.93c-.11.48-.22,1-.31,1.44s-.16.79-.24,1.17v0c-.09.43-.16.85-.23,1.26a1.85,1.85,0,0,0,0,.23c-.06.33-.11.65-.16,1-.09.59-.17,1.15-.24,1.67,0,.17,0,.34-.07.5s0,.33-.06.48,0,.3,0,.45a1.11,1.11,0,0,0,0,.17c0,.22,0,.43-.06.62s0,.64,0,1H59.19a11.67,11.67,0,0,0-3.79-1.39l-.2,0h-.08l-.1,0h0a11.14,11.14,0,0,0-1.74-.13A11.86,11.86,0,0,0,47.35,92h-10c.24-3.33.4-7,.31-10.28-.13-4.94-2.07-12.47-4-19.26h0c-1-3.57-1.93-6.92-2.59-9.6a28.43,28.43,0,0,1-.89-4.7l0,0h0l.06,0,.06,0,.08-.05.08,0,.11-.07.11-.06.13-.08.14-.08.16-.09.15-.08.19-.11.18-.09.21-.11.2-.11.06,0,.17-.09.22-.11.26-.14.24-.11.29-.14.25-.12.31-.15.27-.13.35-.16.26-.11.07,0,.33-.15.25-.1.5-.21.19-.08.73-.29a12.78,12.78,0,0,0-.33,1.39c-.14.8-.26,1.59-.36,2.36v0a.09.09,0,0,0,0,0l0,.24a52.05,52.05,0,0,0,0,13.08c.11,1,.25,2,.41,3.06,1.22,7.89,7,16.22,14.91,18.66.36.12.73.22,1.1.31h0l.2,0c.56.12,1.13.22,1.69.29h.2l.15,0,.59,0,.25,0a.06.06,0,0,0,.06,0h0a2.73,2.73,0,0,0,.41,0,18.92,18.92,0,0,0,2.61-.06h0c.37,0,.73-.08,1.09-.14A17.9,17.9,0,0,0,66.53,81.93Z"/><path class="cls-2" d="M68.39,75.65a2.74,2.74,0,0,1,.09-.58c.07-.37.18-.9.3-1.53s.27-1.36.41-2.15.31-1.63.4-2.48c.2-1.7.46-3.39.51-4.68l.15-2.13s0-.21,0-.58,0-.9,0-1.54,0-1.38,0-2.18-.08-1.65-.12-2.5-.14-1.7-.19-2.5-.14-1.55-.2-2.18-.11-1.17-.14-1.55a2.42,2.42,0,0,1,0-.59,2.56,2.56,0,0,1,.12.58c0,.37.13.9.22,1.54s.2,1.37.28,2.17.21,1.65.27,2.5.12,1.71.18,2.52,0,1.55,0,2.2a12.76,12.76,0,0,1,0,1.55c0,.38,0,.59,0,.59s-.07.86-.19,2.14-.36,3-.61,4.69c-.11.85-.33,1.69-.48,2.48S69.14,73,69,73.58s-.3,1.15-.4,1.51A2.41,2.41,0,0,1,68.39,75.65Z"/><path class="cls-2" d="M55.45,92h-.38c0-.2,0-.4,0-.61l0-.71v-.12a11.35,11.35,0,0,1,.15-1.8,7.25,7.25,0,0,1,.12,1.51c0,.11,0,.22,0,.34l0,.78C55.44,91.55,55.44,91.75,55.45,92Z"/><path class="cls-10" d="M42.76,42.2s4.1,10.51,6.15,15.13,2.56,14.86,3.33,17.17,2.48,11,2.48,11a45.06,45.06,0,0,0,6.75-15.57c2.05-9.22,0-21.52-3.59-26.4S47.63,39.38,42.76,42.2Z"/><path class="cls-9" d="M42.76,42.2s4.1,10.51,6.15,15.13,2.56,14.86,3.33,17.17,2.48,11,2.48,11a45.06,45.06,0,0,0,6.75-15.57c2.05-9.22,0-21.52-3.59-26.4S47.63,39.38,42.76,42.2Z"/><path class="cls-11" d="M50.19,46.3s1.28,3.21,3.08,4.23c0,0-.52,7-.77,12.43s2.39,23.88,2.39,23.88,4.27-12.09,5-17.47-3.84-19.09-3.84-19.09,1.92-.77,1.41-4.62S51,39.13,50.19,46.3Z"/><path class="cls-12" d="M55.87,66.5c-.35-4.79-1.65-9.73-.4-14.47a2.05,2.05,0,0,1,.8-1.21c-.12-.35-.18-.54-.18-.54a2.88,2.88,0,0,0,1.41-2.37,4.14,4.14,0,0,1-2,.73,3.08,3.08,0,0,1-3.32-2.93,3.34,3.34,0,0,1,.64-2.07,2.4,2.4,0,0,1,1.33-1,2.28,2.28,0,0,1,1.73.23,1.78,1.78,0,0,1,.27.17c-2-1.92-5.36-2-5.93,3.29,0,0,1.28,3.21,3.08,4.23,0,0-.52,7-.77,12.43s2.39,23.88,2.39,23.88.69-2,1.57-4.65C56.12,77,56.24,71.72,55.87,66.5Z"/><path class="cls-7" d="M63.33,51.27c-4.79-11.69-7.48-9.77-7.48-9.77a53.08,53.08,0,0,1,3.76,23.16A104.13,104.13,0,0,1,55,88.3c-.44-5.22-1.6-17.84-3.18-25.28-2-9.55-8.83-18-7.82-22.8,0,0-4.62,2.4-4.45,7s1.85,14.33,3.7,16.35,5.72,1,5.72,1-3.53,5.78-2.19,9.69A52,52,0,0,0,50.51,82c.82,1.5,1.66,3,2.47,4.5s1.1,2.9,2.15,4.1c.7-1.3,2.19-2.41,3.07-3.68a31.45,31.45,0,0,0,2.68-4.68,44.72,44.72,0,0,0,3.21-9.19c1.39-6-1.4-9.58-1.4-9.58C64.91,63,66.69,59.47,63.33,51.27Z"/><path class="cls-2" d="M44,40.22S39.36,42.53,39.53,47s1.85,13.79,3.7,15.74,5.72,1,5.72,1S45.42,69.28,46.76,73s5.72,10.59,8.41,15.75c0,0-1.35-17.42-3.37-26.61S43,44.81,44,40.22Z"/><path class="cls-13" d="M50.3,66.74a11.44,11.44,0,0,1,1.49-4.61l-.06-.27a10.27,10.27,0,0,1-5-2.48c-3.77-3-4.63-7.63-5.14-12.11a8.31,8.31,0,0,1,2.3-5.93,4.54,4.54,0,0,1,.1-1.12S39.36,42.53,39.53,47s1.85,13.79,3.7,15.74,5.72,1,5.72,1S45.42,69.28,46.76,73s5.72,10.59,8.41,15.75c0,0-.11-1.43-.32-3.67C51.7,79.54,49.58,73.21,50.3,66.74Z"/><path class="cls-2" d="M54.65,87.44a96.09,96.09,0,0,0,5-23.69,49.43,49.43,0,0,0-3.76-22.29s2.69-1.85,7.48,9.39c3.36,7.9,1.58,11.27-.64,11.79,0,0,2.79,3.46,1.4,9.23-1.15,4.83-4.31,13.13-9.26,17Z"/><path class="cls-13" d="M60.28,72.32c.4-1.91,1.2-6.94,3.41-7.84a7.94,7.94,0,0,0-1-1.84,2.9,2.9,0,0,0,1.92-1.58c-1.71-1.27-2.66-3.88-3.1-6A26.24,26.24,0,0,0,60,49.24a63.62,63.62,0,0,1-3.52-7.87v0a.92.92,0,0,0-.57.11,49.43,49.43,0,0,1,3.76,22.29,96.09,96.09,0,0,1-5,23.69l.18,1.39a19.59,19.59,0,0,0,4.41-5.15C58.57,80,59.57,75.72,60.28,72.32Z"/><path class="cls-10" d="M45,37.08a5.22,5.22,0,0,0-.56,7.69A13.57,13.57,0,0,0,51,50.15s-1.2-4.87,2.56-7.77c0,0,5,2.3,4.49,7.26a13.39,13.39,0,0,0,1-6.58C58.48,39.81,52.33,34.51,45,37.08Z"/><path class="cls-9" d="M56.78,43s0-.06,0-.09A5.78,5.78,0,0,1,57.28,40,11.58,11.58,0,0,0,45,37.08,5.45,5.45,0,0,0,43,41.89a2.13,2.13,0,0,1,1.61-.73c2.66-.07,5.33,0,6.59,2.87.11.26.21.52.3.79a6.72,6.72,0,0,1,2-2.44,9.3,9.3,0,0,1,3.4,2.93A6.2,6.2,0,0,1,56.78,43Z"/><path class="cls-14" d="M53,41.58a9.86,9.86,0,0,0,3.05-.78c0-.07-1.53.37-3.08.44a13.24,13.24,0,0,1-2.12,0l-.69-.09a1.11,1.11,0,0,1-.26,0l-.26,0A6.37,6.37,0,0,1,49,40.9a8.32,8.32,0,0,1-2-.72,7.33,7.33,0,0,1-1.69-1.24,7.79,7.79,0,0,0-.67-.71,3.56,3.56,0,0,0,.53.83,6.87,6.87,0,0,0,1.66,1.42,8.13,8.13,0,0,0,2,.85,5.67,5.67,0,0,0,.7.17l.27.06.27,0,.73.07A12.9,12.9,0,0,0,53,41.58Z"/><path class="cls-14" d="M57.34,45.59a3.88,3.88,0,0,0-.23-.46A1.32,1.32,0,0,0,57,45s-.15-.24-.41-.57a6.35,6.35,0,0,0-1.11-1.07,5.11,5.11,0,0,0-1.38-.67,3.54,3.54,0,0,0-.49-.1l.16-.11c.36-.23.64-.32.63-.36s-.08,0-.21,0a1.88,1.88,0,0,0-.51.17,4.14,4.14,0,0,0-1.3,1,6.7,6.7,0,0,0-.9,1.38c-.1.21-.17.38-.23.5l-.08.19a11.41,11.41,0,0,0-.46,2.33,8.53,8.53,0,0,0,0,1.63A1.67,1.67,0,0,0,51,50a3.62,3.62,0,0,0,0-.73,10.29,10.29,0,0,1,.11-1.57,11.38,11.38,0,0,1,.58-2.21s0-.06.06-.18l.19-.48a6.82,6.82,0,0,1,.77-1.35,4.34,4.34,0,0,1,.87-.89l.52.22a5.88,5.88,0,0,1,1.23.76,6.61,6.61,0,0,1,1,1.07c.22.32.35.55.35.55l.09.16a3.2,3.2,0,0,1,.24.41,11.24,11.24,0,0,1,.59,1.35c.36,1,.54,2.09.61,2.08A6.74,6.74,0,0,0,57.85,47,8.52,8.52,0,0,0,57.34,45.59Z"/><path class="cls-14" d="M59.1,44.37A10.49,10.49,0,0,0,59,43c-.06-.38-.12-.63-.12-.63s-.08-.25-.22-.61A6,6,0,0,0,58,40.47a5.32,5.32,0,0,0-1-1c-.31-.23-.54-.35-.55-.32s.16.2.42.46a6.09,6.09,0,0,1,.81,1.07,5.94,5.94,0,0,1,.54,1.22,5,5,0,0,1,.17.58s.07.24.16.59.16.85.23,1.34a18.42,18.42,0,0,0,.23,2A8.15,8.15,0,0,0,59.1,44.37Z"/><path class="cls-14" d="M48.57,48.71c-.55-.48-1.27-1.12-1.94-1.81a17.54,17.54,0,0,1-1.72-2,9.72,9.72,0,0,1-.64-1,6.59,6.59,0,0,1-.56-1,5.3,5.3,0,0,1-.51-2.49A4.17,4.17,0,0,1,43.51,39a5.09,5.09,0,0,1,.61-1c.43-.57.8-.89.77-.92s-.11.05-.27.19a3.79,3.79,0,0,0-.65.61,4.92,4.92,0,0,0-.71,1,4.34,4.34,0,0,0-.4,1.41A5.58,5.58,0,0,0,43.3,43a8,8,0,0,0,1.26,2.13,16.8,16.8,0,0,0,1.83,2,21.8,21.8,0,0,0,2.07,1.7,5.64,5.64,0,0,0,1,.66A8.18,8.18,0,0,0,48.57,48.71Z"/><path class="cls-4" d="M41.08,11.58A23.5,23.5,0,0,1,39.17,15a8.05,8.05,0,0,0,2-3.55Z"/><path class="cls-8" d="M45.29,17.42c-3.71-.64-7.27-1.91-9.48-5.59a7.78,7.78,0,0,0,1,2s.68,5.08,1.19,7.28a3.7,3.7,0,0,1,2.71,1.53,3.61,3.61,0,0,1,1,2.54l2.54-.51-.76-6.27A6.12,6.12,0,0,0,45.29,17.42Z"/><path class="cls-3" d="M66.54,19s3.27-2.46,4,.18-.34,9.34-2.88,7.78S66.54,19,66.54,19Z"/><path class="cls-4" d="M66.54,19a7,7,0,0,1,1.35-.76,1.44,1.44,0,0,1,1.19,1.2c.54,2,.07,6.26-1.28,7.6l-.15-.08C65.12,25.36,66.54,19,66.54,19Z"/><path class="cls-5" d="M68.23,26.14a11.52,11.52,0,0,1-.33-1.82A8.32,8.32,0,0,1,68,22.49s0-.23.11-.56a5.46,5.46,0,0,1,.42-1.18,3.93,3.93,0,0,1,.74-1c.25-.24.45-.37.44-.39a1.72,1.72,0,0,0-.52.29,3.69,3.69,0,0,0-.85,1,5.23,5.23,0,0,0-.51,1.22c-.09.34-.13.58-.13.58a7.72,7.72,0,0,0,0,1.9A4.73,4.73,0,0,0,68.23,26.14Z"/><path class="cls-5" d="M69.35,24.94a1.9,1.9,0,0,0,0-.79,3.73,3.73,0,0,0-.1-.54l-.07-.24a1,1,0,0,0-.12-.22L69,22.92c-.06-.07-.13-.14-.19-.22a1.13,1.13,0,0,0-.71-.37s.33.22.54.51l.15.23.1.21a1,1,0,0,1,.08.21s0,.08.09.21a3.61,3.61,0,0,1,.15.49A4.11,4.11,0,0,0,69.35,24.94Z"/><path class="cls-3" d="M54.66,3.32s8,1.47,10.22,6.6,1.78,13.41,1.78,13.41a27.27,27.27,0,0,1-.11,8.21,5.16,5.16,0,0,1-2.29,4c-2.16,1.36-5.4,1.11-8,1.31-1.63.77-.15,2.39-.79,3.91-3.84,1.84-7.12.46-9.57-1.34-1.59-1.16-.68-5.82-3.53-8.64a1.53,1.53,0,0,1-.24-.34s-4.63,1.89-7.1-1.81-1.24-9.34,4.14-7.17C39.14,21.5,37,3.61,54.66,3.32Z"/><g class="cls-15"><path class="cls-5" d="M39.72,25.16c.94,1.55.73,3.39-.46,4.11s-2.14-.06-3.07-1.6-1.51-3.28-.32-4S38.79,23.62,39.72,25.16Z"/></g><path class="cls-5" d="M40,25.62a4.66,4.66,0,0,0-.35-.6,4.29,4.29,0,0,0-.45-.52A4.39,4.39,0,0,0,38,23.63a2.89,2.89,0,0,0-1.44-.33,1.22,1.22,0,0,0-.66.16s.27,0,.65,0a3.14,3.14,0,0,1,1.3.44,4.39,4.39,0,0,1,1.06.88,4.92,4.92,0,0,1,.39.49,4,4,0,0,1,.34.53s0,.1.08.15h0a1.41,1.41,0,0,0-.75-.17,1.55,1.55,0,0,0-.76.22,2,2,0,0,0-.22.15l-.08.07-.07.08a1.33,1.33,0,0,0-.15.22,1.59,1.59,0,0,0-.22.77,1.44,1.44,0,0,0,.19.74c.12.18.22.27.24.25s0-.14-.07-.32A1.33,1.33,0,0,1,38,26.76a1.08,1.08,0,0,1,.19-.21l.05-.05a.8.8,0,0,1,.16-.13,1.37,1.37,0,0,1,.57-.26,1.52,1.52,0,0,1,.64,0l.17.05a3.74,3.74,0,0,1,.28.93,3.67,3.67,0,0,1,0,.74,2.53,2.53,0,0,1-.17.62c-.14.36-.31.57-.28.59s.23-.15.44-.51a2.33,2.33,0,0,0,.25-.66,3.06,3.06,0,0,0,.07-.81A3.88,3.88,0,0,0,40,25.62Z"/><g class="cls-15"><path class="cls-5" d="M60.59,25a1.51,1.51,0,0,1-1.75,1,1.27,1.27,0,0,1-1.23-1.44s-1.24,1.08-1.19,1.62S61.71,28.32,60.59,25Z"/></g><path class="cls-5" d="M56.42,26.05s.12-.16.29-.37a2.93,2.93,0,0,1,.75-.67,3.7,3.7,0,0,1,.89-.42,2.37,2.37,0,0,1,.43-.08l.12,0,.31,0a1.22,1.22,0,0,1,.83.3,1.52,1.52,0,0,1,.41.83c0,.28.06.47.1.47a.93.93,0,0,0,.08-.48,1.58,1.58,0,0,0-.35-1.06,1.55,1.55,0,0,0-.52-.37,1.9,1.9,0,0,0-.53-.12,1.68,1.68,0,0,0-.38,0h-.14a2.6,2.6,0,0,0-.5.14,3.56,3.56,0,0,0-1,.56,2.53,2.53,0,0,0-.7.84C56.42,25.84,56.39,26,56.42,26.05Z"/><path class="cls-6" d="M50.61,22.7c0,1.17.7,2.09,1.44,2.06s1.3-1,1.25-2.18-.7-2.1-1.44-2.06S50.56,21.53,50.61,22.7Z"/><path class="cls-6" d="M62,22.26c.06,1.17.7,2.09,1.44,2.06s1.31-1,1.26-2.18-.7-2.09-1.45-2.06S61.92,21.09,62,22.26Z"/><path class="cls-4" d="M65.33,11.11c-.13-.39-.28-.79-.45-1.19-2.21-5.13-10.22-6.6-10.22-6.6C37,3.61,39.14,21.5,39.14,21.5s-.21-.08-.31-.12c.06.29.11.55.17.78a3.72,3.72,0,0,1,2.71,1.53c1.18,1.52,0,1.52,0,1.52l3.17-.42-.38-5.34s4.24-1.27,4.83-6.86A30.59,30.59,0,0,0,61,11.48,13.22,13.22,0,0,0,65.33,11.11Z"/><path class="cls-16" d="M36.79,13.86s.68,5.08,1.19,7.28a3.7,3.7,0,0,1,2.71,1.53A8,8,0,0,1,42.16,26l2.46-.24L44,18.48s3.68-1.32,4.28-6.91A30.64,30.64,0,0,0,60,10.47a13,13,0,0,0,4.87-.55s1.57,3.77,1.4,6.31a23.59,23.59,0,0,0,.34,5.93l1.19-.85-.43-3.51A6.56,6.56,0,0,0,67.13,10s6.44-2.79.68-9.91a10.9,10.9,0,0,1-8.31,1C54.93-.21,40.86-1.57,39.17,5.55,39.17,5.55,33.06,8.26,36.79,13.86Z"/><path class="cls-8" d="M67.87.21c-4.4,5.53-12.45,8.48-19.18,5.67a8.72,8.72,0,0,1-.87-.42A5.26,5.26,0,0,1,44.3.91c-2.57.8-4.56,2.23-5.13,4.64a7.42,7.42,0,0,0-1.39.87,28.1,28.1,0,0,0,10.35,6.29c.08-.36.14-.74.19-1.14A30.64,30.64,0,0,0,60,10.47a13,13,0,0,0,4.87-.55s1.57,3.77,1.4,6.31a23.59,23.59,0,0,0,.34,5.93l1.19-.85-.43-3.51A6.56,6.56,0,0,0,67.13,10S73.51,7.27,67.87.21Z"/><path class="cls-8" d="M42.38,14.87c-3.25.45-4.93-.51-5.71-1.21l.12.2s.68,5.08,1.19,7.28a3.7,3.7,0,0,1,2.71,1.53A8,8,0,0,1,42.16,26l2.46-.24-.21-2.62-.92-4.7s4.23-1.27,4.83-6.86C48.32,11.57,47.3,14.2,42.38,14.87Z"/><path class="cls-8" d="M66.28,16.23a23.59,23.59,0,0,0,.34,5.93l1.19-.85-.43-3.51a6.55,6.55,0,0,0-.23-7.73,3.33,3.33,0,0,1-2.27-.15S66.45,13.69,66.28,16.23Z"/><path class="cls-17" d="M64.07,7.52A12.81,12.81,0,0,0,65.48,6a9.92,9.92,0,0,0,1-1.59,5.71,5.71,0,0,0,.28-.67,3.1,3.1,0,0,0,.18-.54A1.5,1.5,0,0,0,67,2.67s-.24.68-.74,1.61a10.15,10.15,0,0,1-1,1.5,11.75,11.75,0,0,1-1.43,1.49,14.76,14.76,0,0,1-3.22,2.1c-.95.46-1.62.7-1.62.7s-.64.26-1.65.58a23.86,23.86,0,0,1-3.78.8,21.08,21.08,0,0,1-3.87.15c-1.06-.06-1.76-.2-1.76-.16a1.41,1.41,0,0,0,.47.14,11.87,11.87,0,0,0,1.27.2,19.69,19.69,0,0,0,3.93,0,22.4,22.4,0,0,0,3.86-.72c1-.3,1.71-.56,1.71-.56a16.14,16.14,0,0,0,1.63-.75A14.44,14.44,0,0,0,64.07,7.52Z"/><path class="cls-17" d="M65,9.47l.23-.13.21-.16a6.47,6.47,0,0,0,.53-.45,7.81,7.81,0,0,0,1.36-1.61,8.73,8.73,0,0,0,.89-1.88,3.37,3.37,0,0,0,.22-.92,4.43,4.43,0,0,0-.39.85,10.59,10.59,0,0,1-1,1.77A8.13,8.13,0,0,1,65.64,8.4a4.08,4.08,0,0,1-.52.4l-.2.14-.21.14c-.14.08-.32.21-.56.33a9.42,9.42,0,0,1-1.86.76c-1.42.41-2.92.43-2.91.51a3.52,3.52,0,0,0,.93.06,10.35,10.35,0,0,0,2.06-.25,8.16,8.16,0,0,0,2-.69A4.56,4.56,0,0,0,65,9.47Z"/><path class="cls-17" d="M69.92,3.43c-.07,0,0,1.29-.36,2.51A5.94,5.94,0,0,1,69,7.53a3.7,3.7,0,0,1-.29.47l-.12.17-.13.17a3.83,3.83,0,0,1-.37.4,4.14,4.14,0,0,1-1.4.91,6.9,6.9,0,0,1-1.65.42,3,3,0,0,0-.8.1,3.05,3.05,0,0,0,.81.08A5.75,5.75,0,0,0,66.77,10a4.2,4.2,0,0,0,1.58-.89,3.4,3.4,0,0,0,.43-.44l.15-.17a2.05,2.05,0,0,0,.12-.2,3.14,3.14,0,0,0,.3-.52A6,6,0,0,0,69.89,6,6.76,6.76,0,0,0,69.92,3.43Z"/><path class="cls-17" d="M39.76,4.56a4.47,4.47,0,0,1,.6-1.07,4.84,4.84,0,0,1,1-1A8.14,8.14,0,0,1,43.7,1.37c.69-.21,1.17-.31,1.17-.31s.47-.12,1.18-.25S47.74.56,48.72.49s2-.11,2.69-.14A7.51,7.51,0,0,0,52.64.26a5.82,5.82,0,0,0-1.23-.1c-.74,0-1.73,0-2.71,0A24.56,24.56,0,0,0,46,.38c-.73.1-1.22.22-1.22.22s-.49.11-1.2.35a8,8,0,0,0-2.42,1.3,4.89,4.89,0,0,0-1,1.09,3.92,3.92,0,0,0-.55,1.16,3.48,3.48,0,0,0-.12.49,2.08,2.08,0,0,0,0,.39c0,.22,0,.34,0,.34S39.51,5.23,39.76,4.56Z"/><path class="cls-17" d="M62.57,2.44l.93-.18a14.64,14.64,0,0,0,2-.62,7.87,7.87,0,0,0,1.84-1A3,3,0,0,0,68,0a8.11,8.11,0,0,0-.8.49,9.65,9.65,0,0,1-1.84.84,14.08,14.08,0,0,1-2,.49L62.5,2a24.92,24.92,0,0,1-2.94.3c-1.49.07-3,0-3,0a12.54,12.54,0,0,0,3,.31A21.71,21.71,0,0,0,62.57,2.44Z"/><path class="cls-17" d="M42.52,4.39l.32-.27a10.13,10.13,0,0,1,1-.88A12.06,12.06,0,0,0,45,2.42,3.51,3.51,0,0,0,43.7,3a9.46,9.46,0,0,0-1.18.81l-.31.32a5.58,5.58,0,0,0-.6.79,3.16,3.16,0,0,0-.39.91c-.06.27,0,.45,0,.45s.09-.16.2-.39a3.51,3.51,0,0,1,.49-.78A8.53,8.53,0,0,1,42.52,4.39Z"/><path class="cls-17" d="M43.22,6A6.49,6.49,0,0,1,44.57,4.6a8.86,8.86,0,0,1,1.7-.93l.83-.29.24-.07A5.78,5.78,0,0,1,48,3.12a15.11,15.11,0,0,1,1.93-.37c1.43-.19,2.88-.14,2.88-.2a10.12,10.12,0,0,0-2.91-.14,15.8,15.8,0,0,0-2,.28c-.27.05-.49.13-.65.17L47,2.92s-.35.13-.85.35a7.88,7.88,0,0,0-1.74,1.07,5.56,5.56,0,0,0-1.29,1.55,2.65,2.65,0,0,0-.35.85A5.64,5.64,0,0,0,43.22,6Z"/><path class="cls-17" d="M36.5,10.3s.09-.17.21-.4a6.32,6.32,0,0,1,.52-.81,6.51,6.51,0,0,1,.94-1l.31-.29a3.44,3.44,0,0,1,.77-.52,1.57,1.57,0,0,1,.88-.19c.25,0,.41.09.43,0s0,0-.09-.09a1,1,0,0,0-.31-.15,1.65,1.65,0,0,0-1,.07,3.22,3.22,0,0,0-.91.48,4.71,4.71,0,0,0-.37.3,6.34,6.34,0,0,0-.9,1.18,4,4,0,0,0-.4.93C36.46,10.1,36.47,10.3,36.5,10.3Z"/><path class="cls-17" d="M40.2,10.9a2.15,2.15,0,0,1,0-.36,5.7,5.7,0,0,1,.3-1.07,6.6,6.6,0,0,1,.51-1c.16-.27.29-.43.27-.46s-.2.1-.42.34a4.91,4.91,0,0,0-.67,1,5.43,5.43,0,0,0-.42,1.12,2.06,2.06,0,0,0-.08.39l0,.16a4.65,4.65,0,0,0,0,.56,2.37,2.37,0,0,0,.43,1.17,2,2,0,0,0,1,.69,1.24,1.24,0,0,0,.54.06s-.2-.12-.48-.23a1.85,1.85,0,0,1-1.06-1.72c0-.3,0-.49,0-.49S40.19,11,40.2,10.9Z"/><path class="cls-17" d="M40.82,14.75s-.35.08-.86.12a3.78,3.78,0,0,1-.87,0,3.53,3.53,0,0,1-.92-.34,4.15,4.15,0,0,1-1.38-1.21,4.21,4.21,0,0,1-.44-.71,4.48,4.48,0,0,1-.36-.75A4.87,4.87,0,0,1,35.66,10a4.45,4.45,0,0,1,.14-1,3.7,3.7,0,0,1,.34-.8c.26-.44.51-.69.48-.72a2,2,0,0,0-.64.62,3.31,3.31,0,0,0-.43.82,4.27,4.27,0,0,0-.23,1,5.16,5.16,0,0,0,.25,2,5.64,5.64,0,0,0,.36.84,4.91,4.91,0,0,0,.52.76A4.62,4.62,0,0,0,38,14.79a3.27,3.27,0,0,0,2,.26A2,2,0,0,0,40.82,14.75Z"/><path class="cls-17" d="M47.77,13.76A8.06,8.06,0,0,1,47,15.3a6.47,6.47,0,0,1-1.11,1.3,4.26,4.26,0,0,1-.43.36l-.17.13s-.25.19-.64.44a7.9,7.9,0,0,1-1.56.69,8.61,8.61,0,0,1-1.71.29,3.61,3.61,0,0,0-.8,0,2.32,2.32,0,0,0,.8.13,6.85,6.85,0,0,0,1.79-.15,7.12,7.12,0,0,0,1.7-.63c.43-.24.7-.43.7-.43l.18-.15a4.76,4.76,0,0,0,.44-.41,6.39,6.39,0,0,0,1.1-1.44A6.75,6.75,0,0,0,48,13.81a2.34,2.34,0,0,0,.11-.8A3.89,3.89,0,0,0,47.77,13.76Z"/><path class="cls-17" d="M68.09,11.84a4.87,4.87,0,0,0-.68-1.25c-.23-.32-.44-.48-.45-.46s.12.23.3.56A6,6,0,0,1,67.77,12,7.81,7.81,0,0,1,68,13.28c0,.37,0,.62,0,.62v.16c0,.11,0,.27,0,.45a5.74,5.74,0,0,1-.19,1.33,4,4,0,0,1-.56,1.23c-.21.3-.39.48-.36.52a1.63,1.63,0,0,0,.51-.41A3.9,3.9,0,0,0,68.21,16a6.58,6.58,0,0,0,.3-1.42c0-.19,0-.36,0-.47v-.18s0-.27-.07-.65A7.63,7.63,0,0,0,68.09,11.84Z"/><path class="cls-4" d="M56.23,36.89c2.63-.2,5.87,0,8-1.31a5.16,5.16,0,0,0,2.29-4,18.71,18.71,0,0,0,.38-3.66,16.52,16.52,0,0,1-1.39,5c-1.62,3.07-6.72,3.88-14.33,3.07S42.54,30,42.54,30l-.13.87c2.76,2.83,1.89,7.41,3.46,8.56a12,12,0,0,0,3.45,1.82c1-1.73,2.23-3.53,3.34-3.31s1.83,1.75,2.2,3.08c.19-.08.38-.15.58-.25C56.08,39.28,54.6,37.66,56.23,36.89Z"/><path class="cls-16" d="M50.13,17s.15,0,.29.05a2.08,2.08,0,0,0,.53.1,1.85,1.85,0,0,0,.5-.06l.22-.07a2.55,2.55,0,0,0,.71-.25c.34-.18.6-.51.69-.47s0,.51-.39.86a2.35,2.35,0,0,1-.83.53l-.31,0a1.93,1.93,0,0,1-.69-.08,1.7,1.7,0,0,1-.58-.36C50.15,17.12,50.1,17,50.13,17Z"/><path class="cls-16" d="M62.26,15.56c.11,0,.24.35.49.57a1.56,1.56,0,0,0,.37.23c.11,0,.17.08.18.07l.17.08a.53.53,0,0,0,.19.06,1,1,0,0,0,.24.05c.34,0,.7-.08.76,0s-.26.38-.72.48a1.75,1.75,0,0,1-.33,0,.88.88,0,0,1-.29,0L63,17.07a2,2,0,0,1-.25-.17,1.56,1.56,0,0,1-.43-.48C62.13,16,62.18,15.56,62.26,15.56Z"/><path class="cls-16" d="M67.44,18.91l-1.26,0,0,.16.07-.14-.16,8.57S64,25.79,57.68,26.37a26.7,26.7,0,0,0-10.16,2.8S47,23.85,44,21.06l-5.94.16c1.18.53,3.78,2.39,3.83,4.84.06,3.41-.24,3.86-.24,3.86-.54.91,1.67,4.53,2.34,5.15a12.15,12.15,0,0,0,4.91,2.7c3.42.94,8.44.65,11.91.15,7.27-1.06,7.83-3.85,7.76-7.56A70,70,0,0,0,67.44,18.91Z"/><path class="cls-8" d="M68.61,30.36a70,70,0,0,0-1.17-11.45l-1.26,0,0,.16.07-.14-.1,5.35A6.19,6.19,0,0,1,66.92,31C64.84,35,60.7,36.25,56.56,36.05c-2.77-.14-5.22-.21-7.71-1.64a9.16,9.16,0,0,1-3.56-4.26,9.67,9.67,0,0,1-1-4,3.85,3.85,0,0,1,1.38-2.85c-.11-.19-.22-.39-.34-.58l0,0c-.12-.19-.24-.37-.37-.54l0-.05c-.13-.17-.27-.34-.41-.5a.08.08,0,0,0,0,0,5.11,5.11,0,0,0-.45-.48l-.73,0-4.7.13H38.1c1.18.53,3.78,2.39,3.83,4.84.06,3.41-.24,3.86-.24,3.86-.54.91,1.67,4.53,2.34,5.15a12.15,12.15,0,0,0,4.91,2.7c3.42.94,8.44.65,11.91.15l.66-.11C68.16,36.69,68.67,34,68.61,30.36Z"/><path class="cls-6" d="M60.77,28.68a3.14,3.14,0,0,0-3.16-.57,2.49,2.49,0,0,0-1.8,2.18c.07,1.14,1.62.73,2.23.6a5.83,5.83,0,0,1,1.29-.23c.56,0,1.28.39,1.79-.07S61.19,29.09,60.77,28.68Z"/><path class="cls-2" d="M30,30.36s-1.19-5.44-8.62-7.19C21.41,23.17,22,31.17,30,30.36Z"/><path class="cls-3" d="M22.19,25.34c0-.54,4.83-5.33,6.75-7.58,0,0,.92-5,2.33-4.84s.84,2.17.84,2.17S37.86,9,40.52,10.26s-4,7.58-4,7.58,3.67-.75,3.75.83-4.33,2.5-5.83,3.25-2.09,6.59-7,7.67S22.1,27.51,22.19,25.34Z"/><path class="cls-4" d="M37,17.76a33.18,33.18,0,0,1-8.8,6.84,5.13,5.13,0,0,1-5.46-.09,2.68,2.68,0,0,0-.57.83c-.09,2.17.33,5.33,5.25,4.25s5.5-6.92,7-7.67,5.92-1.66,5.83-3.25C40.21,17.45,38,17.62,37,17.76Z"/><path class="cls-5" d="M32.73,23.36s0,0,.12-.2h0c0-.07.29-.62,1-1a20.24,20.24,0,0,1,2.66-1.25,18.88,18.88,0,0,0,2.55-1.19,2.49,2.49,0,0,0,.63-.53c.1-.14.09-.21.09-.21a.23.23,0,0,0,0-.19.7.7,0,0,0-.18-.25c-.06-.12-.2-.18-.34-.27a4.43,4.43,0,0,0-2.77,0,16.59,16.59,0,0,0-2.79,1c-.74.33-1.2.61-1.23.58a10.61,10.61,0,0,1,3.91-2,4.81,4.81,0,0,1,3.12-.13,1.71,1.71,0,0,1,.54.39,1.18,1.18,0,0,1,.31.45.88.88,0,0,1,0,.54,1.14,1.14,0,0,1-.22.43,2.6,2.6,0,0,1-.82.66,18.32,18.32,0,0,1-2.69,1.13A24.92,24.92,0,0,0,34,22.38a3.26,3.26,0,0,0-1.12.8h0C32.74,23.36,32.73,23.37,32.73,23.36Z"/><path class="cls-5" d="M36.77,17.55c0-.05.44-.45,1-1.13s1.29-1.73,2-2.69a2.67,2.67,0,0,0,.67-1.49c.06-.51-.27-.79-.56-.77a2.13,2.13,0,0,0-.84.41l-.32.25s-.48.38-1.23.91a22.47,22.47,0,0,0-2.57,2.12c-.89.83-1.8,1.65-2.51,2.25a8,8,0,0,1-1.2.95c-.06-.08,1.69-1.75,3.4-3.52a20.46,20.46,0,0,1,2.53-2.26c.73-.56,1.19-.95,1.19-.95l.36-.25a2.35,2.35,0,0,1,1.16-.48,1,1,0,0,1,.87.41,1.28,1.28,0,0,1,.24,1A3.1,3.1,0,0,1,40.15,14c-.79,1-1.5,1.91-2.18,2.59a5.22,5.22,0,0,1-.84.73Q36.8,17.57,36.77,17.55Z"/><path class="cls-5" d="M40.91,11.83s0-.17.08-.44a1,1,0,0,0-.28-1,2,2,0,0,0-1.46-.22,4.56,4.56,0,0,0-1.66.68,17,17,0,0,0-1.5,1.1,12.78,12.78,0,0,0-1.23,1l-1.13,1.11-1.2,1.1c-.71.61-1.7,1.48-2.72,2.27a21.65,21.65,0,0,0-3.62,3.55,8.19,8.19,0,0,1,.86-1.37c.14-.19.28-.42.46-.63s.4-.42.61-.63a11.47,11.47,0,0,1,1.41-1.27c1-.82,1.89-1.68,2.62-2.35l1.13-1.1,1.19-1.1a11.76,11.76,0,0,1,1.31-1,14.64,14.64,0,0,1,1.59-1.06c1.1-.67,2.63-1,3.51-.26a1.18,1.18,0,0,1,.23,1.18A1.29,1.29,0,0,1,40.91,11.83Z"/><path class="cls-5" d="M32,15.17s0-.26,0-.62a1.4,1.4,0,0,0-.33-1.1c-.33-.33-.57-.2-.79.06a2.67,2.67,0,0,0-.31.46,9.23,9.23,0,0,0-.87,1.92h0c-.19.46-.37.84-.47,1.13s-.1.45-.14.48S28.93,17.3,29,17a9.08,9.08,0,0,1,.3-1.2h0a6.58,6.58,0,0,1,.41-1.45l.22-.51a1,1,0,0,1,.1-.2,2.59,2.59,0,0,1,.42-.52,1.33,1.33,0,0,1,.71-.37,1,1,0,0,1,.82.4,1.66,1.66,0,0,1,.26,1.44C32.15,15,32.06,15.18,32,15.17Z"/><path class="cls-6" d="M30.19,30c-5.84,4-15.42,11.3-15.42,11.3l3.15,1.14c3.46,1.26,6.91,2.55,10.39,3.78,3,1.05,5.84.3,8.17,2.7s2.06,7.56,1.43,10.56A3.48,3.48,0,0,1,36.18,62c-1.67,1.05-2.68.43-4.32-.33-1.09-.5-2.18-1-3.29-1.5-2.11-.9-4.54-1.17-6.7-2-2.73-1.09-5.32-2.49-8-3.78C10.48,52.64-1.2,47.79.1,42.38,1.87,35,18.39,24.84,21.41,23A15.5,15.5,0,0,0,30.19,30Z"/><path class="cls-7" d="M24.12,58.82a32.24,32.24,0,0,1,4.45,1.32c1.11.47,2.2,1,3.29,1.5,1.64.76,2.65,1.38,4.32.33a3.48,3.48,0,0,0,1.73-2.49c.63-3,.77-8.29-1.43-10.56l-.19-.18-.52-.19-.18.25c-.48.7-.4,1.32-1.08,2-2.74,2.83-7.91,3-11.25,1.36-1.66-.82-3.94-1.85-5.16-3.28-2-2.37-2.5-5.7-3.7-8.48a9.93,9.93,0,0,1,1.85-10.34,21.73,21.73,0,0,1,6.57-5h0a12.43,12.43,0,0,1-1.36-2C14.59,27.5,2.38,36,.29,41.77c-.07.21-.14.41-.19.61C-1.16,47.61,13.52,54.55,24.12,58.82Z"/><path class="cls-2" d="M10.56,43.47A15,15,0,0,0,13.76,42c.76-.49,1.2-.83,1.2-.83l-1.29.66a28.59,28.59,0,0,1-3.23,1.32,22.11,22.11,0,0,1-3.39.78L5.6,44s.56,0,1.46,0A13,13,0,0,0,10.56,43.47Z"/><path class="cls-2" d="M11.26,42.84a7.8,7.8,0,0,0,2.12-.76,7.47,7.47,0,0,0,.79-.5,25.63,25.63,0,0,1-3.06.79,9.53,9.53,0,0,1-2.25.19,3,3,0,0,1-.71-.1l-.27-.05.27.12a3.11,3.11,0,0,0,.74.26A5.78,5.78,0,0,0,11.26,42.84Z"/><path class="cls-2" d="M36.73,62.3c-.08,0,.56-1.81.8-3.66a21.29,21.29,0,0,0,.19-3.7,13.26,13.26,0,0,0-.5-3.65,7.74,7.74,0,0,0-1-2.29c-.38-.58-.73-.91-.69-1s.11.05.27.18a3.58,3.58,0,0,1,.61.62,7.25,7.25,0,0,1,1.28,2.3,13,13,0,0,1,.7,3.77A19.21,19.21,0,0,1,38,58.71,11.78,11.78,0,0,1,36.73,62.3Z"/></g></g></g></svg>