<svg xmlns="http://www.w3.org/2000/svg" viewBox="0 0 56.57 92.11"><defs><style>.cls-1{isolation:isolate;}.cls-2{fill:none;}.cls-3,.cls-7{fill:#d2e4ff;}.cls-10,.cls-12,.cls-3,.cls-5,.cls-9{mix-blend-mode:multiply;}.cls-4{fill:#1b205e;}.cls-10,.cls-5{fill:#1d255b;}.cls-5{opacity:0.4;}.cls-6{fill:#4052a0;}.cls-8,.cls-9{fill:#cc5252;}.cls-9{opacity:0.5;}.cls-10,.cls-14,.cls-16{opacity:0.2;}.cls-11{fill:#65a1ff;}.cls-12{fill:#c87568;opacity:0.8;}.cls-13{fill:#fad0bf;}.cls-14,.cls-15{fill:#fa7296;}.cls-17{fill:#963e35;}.cls-18{fill:#ba5443;}</style></defs><title>regular2Ресурс 8</title><g class="cls-1"><g id="Слой_2" data-name="Слой 2"><g id="OBJECTS"><line class="cls-2" x1="2.39" y1="92.11" x2="2.24" y2="92.11"/><path class="cls-3" d="M18.57,48.85c.17-.37.32-.75.47-1.13a6.37,6.37,0,0,0-.11,2.07S18.77,49.44,18.57,48.85Z"/><path class="cls-4" d="M46.74,48.26a.28.28,0,0,1,0,.09,47.17,47.17,0,0,1-1.61,7.44c-1.35,5-3.24,11.4-4.5,17.12a51.35,51.35,0,0,0-1.32,8.92c-.09,3.31.07,6.94.32,10.28H11.92c0-.41,0-.76,0-1s0-.4-.06-.62,0-.23,0-.35,0-.46-.07-.7c-.11-.84-.25-1.81-.42-2.85a1.16,1.16,0,0,1,0-.18c0-.19-.07-.41-.12-.66a5.34,5.34,0,0,0-.09-.53c0-.27-.1-.54-.16-.82v0l0-.15c-.1-.51-.21-1-.33-1.57,0-.17-.08-.34-.11-.52a43.9,43.9,0,0,0-1.86-6.15c0-.1-.07-.2-.12-.3a.25.25,0,0,0,0-.07c-1-2.85-1.8-7.78-2.15-12.69a.41.41,0,0,1,0-.11c0-.58-.08-1.16-.11-1.73v0c-.27-5.32,0-10.28.94-12.14a1.73,1.73,0,0,1,.44-.6,26.07,26.07,0,0,1,10.32-4.9h0l.09,0h0l.44-.1L19.6,43l.42-.07.15,0,.41-.06h0l.76-.1c.53-.08,1.08-.14,1.64-.19h0l.36,0h0c.48,0,1-.08,1.47-.1h0c.61,0,1.23,0,1.88,0h.34a32.62,32.62,0,0,1,5.78.59h0a1.91,1.91,0,0,1,.33.06l.38.08h.06l.2,0h0l.44.1c.76.17,1.49.37,2.19.57l.08,0c1.26.37,2.43.77,3.5,1.18l.73.29.19.08.49.21.25.1.41.18.26.11.35.16.26.13.32.15.25.12.29.14.23.11.27.14.21.11.24.12.2.11.21.11.18.09.19.11.15.08.16.09.13.08.14.08.1.06.12.07.08,0,.08,0,.06,0,.06,0h0Z"/><path class="cls-5" d="M46.74,48.26a.28.28,0,0,1,0,.09,47.17,47.17,0,0,1-1.61,7.44c-1.35,5-3.24,11.4-4.5,17.12a51.35,51.35,0,0,0-1.32,8.92c-.09,3.31.07,6.94.32,10.28h-10a11.86,11.86,0,0,0-5.92-1.59,12.65,12.65,0,0,0-1.75.13h0l-.09,0h-.09l-.2,0a11.61,11.61,0,0,0-3.78,1.39H11.92c0-.41,0-.76,0-1s0-.4-.06-.62,0-.23,0-.35,0-.46-.07-.7c-.11-.84-.25-1.81-.42-2.85a1.16,1.16,0,0,1,0-.18c0-.19-.07-.41-.12-.66a5.34,5.34,0,0,0-.09-.53c0-.27-.1-.54-.16-.82v0l0-.15c-.1-.51-.21-1-.33-1.57l-.12-.52h0l.08,0a1.13,1.13,0,0,0,.21.12,17.68,17.68,0,0,0,6.41,2.23c.36.06.72.11,1.09.14a19.21,19.21,0,0,0,2.63.06,2.73,2.73,0,0,0,.41,0h0a.06.06,0,0,0,.06,0l.25,0,.58,0,.16,0h.19a16.31,16.31,0,0,0,1.7-.29l.2,0h0c.37-.09.74-.19,1.1-.31,6.64-2.06,11.81-8.3,14-14.94h0c0-.07,0-.14.07-.2l.12-.38h0c0-.12.07-.24.1-.35h0a21.05,21.05,0,0,0,.62-2.76c.26-1.66.46-3.25.6-4.8h0c0-.37.06-.73.08-1.1h0c0-.46.06-.91.08-1.37h0a2.44,2.44,0,0,1,0-.27,52,52,0,0,0-.78-11.24c-.09-.47-.2-.94-.33-1.39l.73.29.19.08.49.21.25.1.41.18.26.11.35.16.26.13.32.15.25.12.29.14.23.11.27.14.21.11.24.12.2.11.21.11.18.09.19.11.15.08.16.09.13.08.14.08.1.06.12.07.08,0,.08,0,.06,0,.06,0h0Z"/><path class="cls-6" d="M8.55,75.81a3.77,3.77,0,0,0-.09-.59c-.07-.37-.18-.89-.31-1.52s-.26-1.37-.4-2.16-.32-1.63-.4-2.48c-.21-1.7-.46-3.39-.51-4.67l-.15-2.13s0-.21-.06-.59,0-.9,0-1.54,0-1.38,0-2.18.08-1.65.13-2.5.13-1.7.19-2.5.13-1.54.2-2.18.1-1.17.13-1.54a4.32,4.32,0,0,0,0-.59,2.37,2.37,0,0,0-.12.57c-.06.38-.13.91-.23,1.54s-.19,1.38-.28,2.18-.21,1.64-.26,2.5-.13,1.71-.19,2.51,0,1.56,0,2.2,0,1.18,0,1.56,0,.59,0,.59l.2,2.14c.07,1.29.36,3,.61,4.69.11.85.32,1.68.48,2.47s.31,1.53.48,2.15.3,1.14.4,1.5A2.64,2.64,0,0,0,8.55,75.81Z"/><path class="cls-6" d="M21.87,92.11H21.5c0-.2,0-.4,0-.61s0-.53,0-.78,0-.23,0-.34h0a9.17,9.17,0,0,1,.12-1.5,9.56,9.56,0,0,1,.16,1.8v.1l0,.73C21.86,91.71,21.86,91.91,21.87,92.11Z"/><path class="cls-7" d="M34.18,42.36S30.08,52.87,28,57.48,25.46,72.35,24.7,74.65,22.22,85.6,22.22,85.6A45,45,0,0,1,15.47,70c-2.05-9.23,0-21.53,3.59-26.4S29.31,39.54,34.18,42.36Z"/><path class="cls-3" d="M34.18,42.36S30.08,52.87,28,57.48,25.46,72.35,24.7,74.65,22.22,85.6,22.22,85.6A45,45,0,0,1,15.47,70c-2.05-9.23,0-21.53,3.59-26.4S29.31,39.54,34.18,42.36Z"/><path class="cls-8" d="M26.75,46.46s-1.29,3.2-3.08,4.23c0,0,.51,7.05.77,12.43S22.05,87,22.05,87s-4.28-12.09-5-17.47,3.84-19.1,3.84-19.1-1.92-.77-1.41-4.61S26,39.28,26.75,46.46Z"/><path class="cls-9" d="M21.07,66.65c.34-4.78,1.65-9.72.4-14.46a2.08,2.08,0,0,0-.8-1.21c.11-.35.18-.55.18-.55a2.89,2.89,0,0,1-1.42-2.36,4.28,4.28,0,0,0,2,.73,3.16,3.16,0,0,0,1.92-.49,3.11,3.11,0,0,0,1.41-2.45,3.34,3.34,0,0,0-.64-2.07,2.42,2.42,0,0,0-1.34-1,2.3,2.3,0,0,0-1.72.23,2.68,2.68,0,0,0-.28.18c2-1.93,5.37-2,5.94,3.29,0,0-1.29,3.2-3.08,4.23,0,0,.51,7.05.77,12.43S22.05,87,22.05,87s-.7-2-1.57-4.65C20.82,77.12,20.7,71.88,21.07,66.65Z"/><path class="cls-5" d="M13.61,51.42c4.78-11.68,7.47-9.76,7.47-9.76a53,53,0,0,0-3.75,23.15A103.43,103.43,0,0,0,22,88.45c.44-5.21,1.6-17.83,3.17-25.27,2-9.55,8.84-18,7.83-22.81,0,0,4.61,2.4,4.44,7s-1.84,14.33-3.69,16.36-5.72,1-5.72,1,3.53,5.79,2.18,9.7a50.86,50.86,0,0,1-3.74,7.72c-.82,1.51-1.66,3-2.48,4.51s-1.1,2.89-2.15,4.09c-.69-1.29-2.18-2.41-3.07-3.67a33.42,33.42,0,0,1-2.68-4.69,45,45,0,0,1-3.21-9.18c-1.39-6,1.41-9.58,1.41-9.58C12,63.12,10.25,59.62,13.61,51.42Z"/><path class="cls-6" d="M33,40.37s4.61,2.32,4.44,6.77-1.84,13.8-3.69,15.75-5.72,1-5.72,1,3.53,5.58,2.18,9.34-5.71,10.59-8.4,15.74c0,0,1.34-17.41,3.36-26.61S34,45,33,40.37Z"/><path class="cls-10" d="M26.64,66.9a11.65,11.65,0,0,0-1.5-4.62L25.2,62a10.35,10.35,0,0,0,5-2.48c3.78-3,4.64-7.63,5.14-12.12a8.32,8.32,0,0,0-2.29-5.93,5.08,5.08,0,0,0-.1-1.12s4.61,2.32,4.44,6.77-1.84,13.8-3.69,15.75-5.72,1-5.72,1,3.53,5.58,2.18,9.34-5.71,10.59-8.4,15.74c0,0,.11-1.42.31-3.67C25.24,79.69,27.35,73.36,26.64,66.9Z"/><path class="cls-6" d="M22.28,87.59a96.34,96.34,0,0,1-5-23.69,49.35,49.35,0,0,1,3.75-22.29s-2.69-1.85-7.47,9.4c-3.36,7.9-1.58,11.27.64,11.79,0,0-2.8,3.45-1.41,9.23,1.16,4.82,4.32,13.12,9.27,17Z"/><path class="cls-10" d="M16.66,72.48c-.41-1.92-1.21-6.94-3.41-7.84a7.67,7.67,0,0,1,1-1.84,2.9,2.9,0,0,1-1.92-1.59c1.71-1.26,2.66-3.87,3.1-6A25.63,25.63,0,0,1,17,49.4a63.76,63.76,0,0,0,3.52-7.88v0a1,1,0,0,1,.57.11A49.35,49.35,0,0,0,17.33,63.9a96.34,96.34,0,0,0,5,23.69L22.11,89a19.28,19.28,0,0,1-4.42-5.15C18.36,80.14,17.37,75.88,16.66,72.48Z"/><path class="cls-7" d="M32,37.23a5.22,5.22,0,0,1,.55,7.69A13.57,13.57,0,0,1,26,50.3s1.19-4.87-2.57-7.77c0,0-5,2.31-4.48,7.26a13.23,13.23,0,0,1-1-6.58C18.46,40,24.61,34.67,32,37.23Z"/><path class="cls-3" d="M20.15,43.14a.28.28,0,0,0,0-.09,5.61,5.61,0,0,0-.5-2.88A11.59,11.59,0,0,1,32,37.23a5.46,5.46,0,0,1,1.94,4.82,2.11,2.11,0,0,0-1.6-.73c-2.66-.08-5.33,0-6.59,2.86-.12.27-.22.53-.31.8a6.62,6.62,0,0,0-2-2.45A9.28,9.28,0,0,0,20,45.47,6.26,6.26,0,0,0,20.15,43.14Z"/><path class="cls-11" d="M23.9,41.74a9.33,9.33,0,0,1-3-.79c0-.07,1.53.38,3.08.45a14.55,14.55,0,0,0,2.12,0l.69-.09.26,0,.26-.05a5.81,5.81,0,0,0,.67-.14,8.31,8.31,0,0,0,2-.71,7.27,7.27,0,0,0,1.68-1.25,5.92,5.92,0,0,1,.68-.71,3.05,3.05,0,0,1-.54.83,6.4,6.4,0,0,1-1.65,1.42,8.77,8.77,0,0,1-2,.86c-.29.09-.54.13-.71.17l-.27.05-.27,0-.72.06A13.89,13.89,0,0,1,23.9,41.74Z"/><path class="cls-11" d="M19.6,45.74a4.8,4.8,0,0,1,.22-.45l.09-.17a6.17,6.17,0,0,1,.42-.57,5.43,5.43,0,0,1,1.11-1.07,4.58,4.58,0,0,1,1.38-.67,3.85,3.85,0,0,1,.49-.11l-.17-.11c-.36-.22-.64-.32-.62-.36s.07,0,.2,0a2.26,2.26,0,0,1,.51.18,3.68,3.68,0,0,1,1.3,1,5.94,5.94,0,0,1,.91,1.38c.1.2.17.38.22.49a1.09,1.09,0,0,1,.08.2,10,10,0,0,1,.46,2.32,7.14,7.14,0,0,1,0,1.63,2.2,2.2,0,0,1-.18.72,3.18,3.18,0,0,1,0-.73,10.28,10.28,0,0,0-.1-1.58,10.93,10.93,0,0,0-.58-2.2,1.94,1.94,0,0,0-.07-.19c0-.11-.11-.28-.18-.48a7.11,7.11,0,0,0-.77-1.35,5.26,5.26,0,0,0-.87-.89l-.52.22a5.36,5.36,0,0,0-2.2,1.83c-.22.33-.35.56-.35.56l-.1.15c-.05.1-.15.24-.24.42a10.3,10.3,0,0,0-.58,1.34c-.36,1-.54,2.09-.61,2.08a7,7,0,0,1,.28-2.18A9.84,9.84,0,0,1,19.6,45.74Z"/><path class="cls-11" d="M17.84,44.52a10.49,10.49,0,0,1,.14-1.4c.06-.38.12-.63.12-.63a5.9,5.9,0,0,1,.22-.61A5.51,5.51,0,0,1,19,40.63a4.78,4.78,0,0,1,1-1,1.71,1.71,0,0,1,.55-.33s-.17.2-.42.47a6,6,0,0,0-.82,1.06A6.84,6.84,0,0,0,18.73,42c-.11.35-.16.59-.16.59s-.07.23-.16.59-.17.84-.23,1.34a18.42,18.42,0,0,1-.23,2A7.68,7.68,0,0,1,17.84,44.52Z"/><path class="cls-11" d="M28.36,48.86c.55-.47,1.28-1.11,1.95-1.8a17.21,17.21,0,0,0,1.71-2,10.5,10.5,0,0,0,.65-1,8.4,8.4,0,0,0,.56-1,5.37,5.37,0,0,0,.51-2.49,4.24,4.24,0,0,0-.31-1.33,5.09,5.09,0,0,0-.61-1c-.44-.57-.81-.88-.78-.92a1.15,1.15,0,0,1,.28.19A4.85,4.85,0,0,1,33,38a5.06,5.06,0,0,1,.71,1,4.42,4.42,0,0,1,.41,1.41,5.53,5.53,0,0,1-.45,2.7,7.38,7.38,0,0,1-.55,1.11,10.21,10.21,0,0,1-.7,1,16.8,16.8,0,0,1-1.83,2A22,22,0,0,1,28.48,49a5,5,0,0,1-1,.65A8.57,8.57,0,0,1,28.36,48.86Z"/><path class="cls-4" d="M56.47,87.71a7.5,7.5,0,0,1-.32,1.4.06.06,0,0,0,0,0,1.07,1.07,0,0,0-.07.19l-.18.52c-.1.26-.21.52-.33.79l-.15.33-.24.5c-.06.11-.11.23-.17.34l-.07.14a1,1,0,0,0-.07.15H42.61a15.63,15.63,0,0,0,1.12-2,7.82,7.82,0,0,0,.36-.91,5.34,5.34,0,0,0,.16-.53,8.39,8.39,0,0,0,.31-1.72,2.67,2.67,0,0,0,0-.4,8.23,8.23,0,0,0,0-.86v-.06a2.09,2.09,0,0,1,0-.25c0-.18,0-.36,0-.54s0-.11,0-.17a.09.09,0,0,1,0,0c0-.26,0-.52-.09-.77A36.79,36.79,0,0,0,40.83,73.4a5.16,5.16,0,0,1-.21-.49,13.64,13.64,0,0,1-.88-2.64c0-.18-.08-.36-.11-.54s-.09-.52-.13-.78h0l0-.25-.06-.63c0-.23,0-.46,0-.68v-.13c0-.33,0-.66,0-1s0-.78.07-1.17c0-.23,0-.47.08-.7a.77.77,0,0,1,0-.15h0q0-.3.09-.6a1.1,1.1,0,0,0,0-.18.09.09,0,0,0,0-.05c0-.19.07-.39.11-.58,0,0,0,0,0,0a1.06,1.06,0,0,1,0-.19c0-.11,0-.23.07-.34s.1-.45.15-.68.06-.23.08-.35l.12-.44.12-.46c0-.13.07-.26.11-.4s0,0,0,0c.08-.26.15-.52.23-.78,0,0,0,0,0,0l.27-.87c.06-.18.12-.36.19-.55a26.85,26.85,0,0,1,2.39-5.19,24.88,24.88,0,0,1,1.77-2.76,5.83,5.83,0,0,1,1.38-1.36.69.69,0,0,1,.73,0l.13.1,0,0,0,0,.16.22v0L48,49a11.13,11.13,0,0,1,.59,2.22c0,.09.05.19.08.29h0q1,3.54,2,7.08a.64.64,0,0,0,0,.07c.11.39.21.78.31,1.17.22.79.43,1.57.64,2.36.16.59.31,1.19.47,1.79s.31,1.22.47,1.83c.31,1.22.62,2.46.92,3.7l.12.5c.09.35.18.71.26,1.07.15.63.3,1.26.44,1.88l.45,2c.15.67.29,1.34.43,2,0,0,0,0,0,.05C55.85,80.43,56.89,84.24,56.47,87.71Z"/><path class="cls-5" d="M56.47,87.71a9.52,9.52,0,0,1-.32,1.4.06.06,0,0,0,0,0,1.07,1.07,0,0,0-.07.19l-.18.52a2.55,2.55,0,0,1-.13.29c-.06.17-.13.33-.2.5l-.15.33-.24.5c-.06.11-.11.23-.17.34l-.07.14-.08.15H49.54V92a3.13,3.13,0,0,0-3.29-2.88,5.84,5.84,0,0,0-1.4.18H44.8l-.38-.06-.33,0h0c.06-.18.12-.35.17-.53a8.39,8.39,0,0,0,.31-1.72,2.67,2.67,0,0,0,0-.4,8.23,8.23,0,0,0,0-.86v-.06a2.09,2.09,0,0,1,0-.25c0-.18,0-.36,0-.54s0-.11,0-.17a.09.09,0,0,1,0,0c0-.26,0-.52-.09-.77a3.38,3.38,0,0,0,3.56.66c3.59-1.33,4-4.93,3.79-8.1a38.73,38.73,0,0,0-.78-4.9,28.25,28.25,0,0,0-.79-5.53c-.75-3.06-.34-8.25-4.14-9.88a3.64,3.64,0,0,0-.94-.27c-1.61-.24-2.74.87-3.53,2.41h0c-.17.35-.34.72-.48,1.1h0a24.24,24.24,0,0,0-1.21,5.41,34.18,34.18,0,0,0-.19,3.62h0c0,.45,0,.88,0,1.32,0,0,0,0,0,0,0,.19,0,.37,0,.56,0-.18-.08-.36-.11-.54s-.09-.52-.13-.78h0l0-.25-.06-.63c0-.23,0-.46,0-.68v-.13c0-.33,0-.66,0-1s0-.78.07-1.17c0-.23,0-.47.08-.7a.77.77,0,0,1,0-.15h0q0-.3.09-.6a1.1,1.1,0,0,0,0-.18.09.09,0,0,0,0-.05c0-.19.07-.39.11-.58,0,0,0,0,0,0a1.06,1.06,0,0,1,0-.19c0-.11,0-.23.07-.34s.1-.45.15-.68.06-.23.08-.35l.12-.44.12-.46c0-.13.07-.26.11-.4s0,0,0,0l.15-.48c0-.1,0-.2.08-.3s0,0,0,0l.27-.87c.06-.18.12-.36.19-.55a26.85,26.85,0,0,1,2.39-5.19,24.88,24.88,0,0,1,1.77-2.76,5.83,5.83,0,0,1,1.38-1.36.69.69,0,0,1,.73,0l.13.1,0,0,0,0,.16.22v0c.15.52.39,1.36.71,2.45,0,.09.05.19.08.29h0q1,3.54,2,7.08a.64.64,0,0,0,0,.07c.11.39.21.78.31,1.17.22.79.43,1.57.64,2.36.16.59.31,1.19.47,1.79s.31,1.22.47,1.83c.31,1.22.62,2.46.92,3.7l.12.5c.09.35.18.71.26,1.07.15.63.3,1.26.44,1.88l.45,2c.15.67.29,1.34.43,2,0,0,0,0,0,.05C56.12,81.74,56.71,85.72,56.47,87.71Z"/><path class="cls-6" d="M49.37,85.54a19.32,19.32,0,0,0-1.86,1.07A10.85,10.85,0,0,0,45.87,88c-.36.38-.72.79-1.07,1.22l-.52.68c-.54.73-1.05,1.48-1.52,2.18h-.52c.47-.64,1-1.34,1.49-2l.26-.34.43-.54c.4-.47.82-.92,1.24-1.34a11.32,11.32,0,0,1,1.73-1.39,7.12,7.12,0,0,1,.78-.44,4.14,4.14,0,0,1,.63-.29A3.67,3.67,0,0,1,49.37,85.54Z"/><path class="cls-6" d="M40.42,71.57a2.8,2.8,0,0,1-.25-.46,7.84,7.84,0,0,1-.43-1.3,13.14,13.14,0,0,1-.15-4.13,39.7,39.7,0,0,1,.67-4.07c.22-1.1.4-1.84.4-1.84s0-.18.13-.5.21-.77.38-1.31A25.52,25.52,0,0,1,45,50.55c.34-.47.66-.83.86-1.09a3.05,3.05,0,0,1,.36-.4,14.71,14.71,0,0,1-1,1.59,28.59,28.59,0,0,0-2.06,3.6,25.2,25.2,0,0,0-1.46,3.83c-.16.53-.29,1-.35,1.3s-.12.5-.12.5-.19.71-.43,1.81-.59,2.56-.78,4a13.68,13.68,0,0,0,0,4C40.13,70.87,40.47,71.55,40.42,71.57Z"/><path class="cls-4" d="M10.93,83.7V84q0,.14,0,.33v0c0,.07,0,.14,0,.21v0h0v.29c0,.17,0,.35,0,.55l0,.26c-.07,1-.15,2.14-.23,3.19l0,.31c0,.28,0,.54-.06.79l0,.21c0,.22,0,.42,0,.6l0,.32c0,.29,0,.47,0,.47a1.13,1.13,0,0,0,.12.52H0q0-.61.06-1.47c0-.14,0-.28,0-.44v0c0-.44,0-.93.06-1.44.24-5.4.7-14.38,1.39-21,.45-4.23.24-9.63,2-14,.09-.21.17-.41.26-.61a.08.08,0,0,0,0,0c.08-.18.17-.36.26-.54l.06-.1L4.36,52l.09-.15c.08-.13.16-.27.25-.4l.1-.16.14-.19.12-.18.13-.17.27-.34.14-.17.31-.34.14-.14c.15-.16.31-.31.47-.46s.37-.31.56-.45l.08-.06v.83s0,.07,0,.1c-.06.66-.12,1.32-.16,2q0,.51-.06,1a.62.62,0,0,0,0,.13.41.41,0,0,0,0,.11.41.41,0,0,0,0,.11c0,.53-.06,1.07-.07,1.6v.18c0,2,0,4,.11,5.93a.45.45,0,0,0,0,.11c.1,1.46.25,2.92.45,4.37.09,1.22.2,2.44.35,3.65.13,1,.29,2.1.47,3.14a.06.06,0,0,1,0,0c0,.3.1.59.16.89.16.86.35,1.7.54,2.55v0s0,.06,0,.09v.09a.2.2,0,0,1,0,.07c.16.9.36,1.79.59,2.68,0,0,0,0,0,.06.33,1.25.72,2.49,1.12,3.72.06.2.13.39.19.59a2.36,2.36,0,0,0,0,.46C10.9,83.44,10.92,83.57,10.93,83.7Z"/><path class="cls-5" d="M10.93,83.7V84q0,.14,0,.33v0c0,.07,0,.14,0,.21v.06l0,.13v.14c0,.17,0,.35,0,.55l0,.26c-.07,1-.15,2.14-.23,3.19l0,.31c0,.28,0,.54-.06.79l0,.21c0,.22,0,.42,0,.6l0,.32c0,.29,0,.47,0,.47a1.13,1.13,0,0,0,.12.52H0q0-.61.06-1.47c0-.14,0-.28,0-.44v0q0-.66.06-1.44A3.84,3.84,0,0,0,3.2,86.06c2.3-10.81,1.38-21.46.32-32.31.09-.21.17-.41.26-.61a.08.08,0,0,0,0,0c.08-.18.17-.36.26-.54l.06-.1L4.36,52l.09-.15c.08-.13.16-.27.25-.4l.1-.16.14-.19.12-.18.13-.17.27-.34.14-.17.31-.34.14-.14c.15-.16.31-.31.47-.46s.37-.31.56-.45l.08-.06v.38c0,.18,0,.37,0,.55-.06.66-.12,1.32-.16,2q0,.51-.06,1a.62.62,0,0,0,0,.13.41.41,0,0,0,0,.11.41.41,0,0,0,0,.11c0,.53-.06,1.07-.07,1.6v.18c0,.1,0,.21,0,.31,0,.42,0,.85-.09,1.26v.08c0,.54-.11,1.07-.15,1.61a14.09,14.09,0,0,0,0,1.84c0,.21,0,.42,0,.62.1,1.27.26,2.48.4,3.76a15.35,15.35,0,0,0,.55,3.84s0,.08,0,.12,0,0,0,.06a5.15,5.15,0,0,1,.16.56,30.09,30.09,0,0,1,.47,3.14.06.06,0,0,1,0,0l.09.55c0,.11,0,.23.07.34.16.86.35,1.7.54,2.55,0,0,0,.08,0,.11v.09a.2.2,0,0,1,0,.07c.16.9.36,1.79.59,2.68,0,0,0,0,0,.06.33,1.25.72,2.49,1.12,3.72.06.2.13.39.19.59a2.36,2.36,0,0,0,0,.46C10.9,83.44,10.92,83.57,10.93,83.7Z"/><path class="cls-6" d="M2.39,92.11a2.69,2.69,0,0,1,.29-.36,4.3,4.3,0,0,1,1.73-1,5.38,5.38,0,0,1,2-.29,1.91,1.91,0,0,1,.64.12l.23.08a3.46,3.46,0,0,1,.83.35,5.7,5.7,0,0,1,.8.5c.23.19.48.38.72.6h.5L10,92c-.26-.27-.56-.53-.82-.76a6.31,6.31,0,0,0-.83-.58,3.79,3.79,0,0,0-.91-.42l-.27-.08a2.63,2.63,0,0,0-.74-.1,5.7,5.7,0,0,0-2.15.4,4.2,4.2,0,0,0-1.75,1.2,2.18,2.18,0,0,0-.29.48Z"/><path class="cls-6" d="M11.44,87.16a4.4,4.4,0,0,1-.19-.8c-.05-.26-.1-.57-.17-.92s-.19-.75-.31-1.18c-.45-1.72-1.26-4-1.77-6.32s-1.2-4.62-1.52-6.4a20.73,20.73,0,0,1-.37-2.15L7,68.57s-.16-1.19-.27-3S6.48,61.41,6.39,59c0-1.2,0-2.39,0-3.52s.11-2.17.2-3.06.27-1.63.36-2.14a4.63,4.63,0,0,1,.17-.81,3.69,3.69,0,0,1,0,.83c-.06.51-.14,1.25-.24,2.14s-.06,1.93-.09,3,.07,2.3.11,3.49c.15,2.38.32,4.76.48,6.54s.31,2.95.31,2.95,0,.3.09.81.17,1.25.34,2.13c.27,1.75.89,4.07,1.38,6.4S10.62,82.44,11,84.2c.09.44.18.84.25,1.2s.08.68.12.94A4.17,4.17,0,0,1,11.44,87.16Z"/><path class="cls-12" d="M31.35,17.42c3.71-.64,7.27-1.91,9.48-5.59a7.78,7.78,0,0,1-1,2s-.68,5.08-1.19,7.28A3.72,3.72,0,0,0,36,22.67a3.61,3.61,0,0,0-1,2.54l-2.54-.51.76-6.27A6.26,6.26,0,0,1,31.35,17.42Z"/><path class="cls-13" d="M10.1,19s-3.27-2.46-4,.18S6.45,28.47,9,26.91,10.1,19,10.1,19Z"/><path class="cls-14" d="M10.1,19a7,7,0,0,0-1.35-.76,1.42,1.42,0,0,0-1.18,1.2c-.54,2-.08,6.26,1.27,7.6L9,26.91C11.52,25.36,10.1,19,10.1,19Z"/><path class="cls-15" d="M8.41,26.14a11.52,11.52,0,0,0,.33-1.82,7.66,7.66,0,0,0-.09-1.83s0-.23-.11-.56a5.46,5.46,0,0,0-.42-1.18,3.51,3.51,0,0,0-.74-1c-.25-.24-.45-.37-.44-.39a1.72,1.72,0,0,1,.52.29,3.69,3.69,0,0,1,.85,1,5.23,5.23,0,0,1,.51,1.22c.09.34.13.58.13.58a7.72,7.72,0,0,1,0,1.9A4.54,4.54,0,0,1,8.41,26.14Z"/><path class="cls-15" d="M7.29,24.94a1.9,1.9,0,0,1,0-.79,3.73,3.73,0,0,1,.1-.54l.07-.24a1,1,0,0,1,.12-.22l.14-.23.2-.22a1.09,1.09,0,0,1,.7-.37s-.33.22-.54.51l-.15.23-.1.21a1,1,0,0,0-.08.21s0,.08-.09.21a3.61,3.61,0,0,0-.15.49A4.11,4.11,0,0,1,7.29,24.94Z"/><path class="cls-13" d="M22,3.32s-8,1.47-10.22,6.6S10,23.33,10,23.33a27.27,27.27,0,0,0,.11,8.21,5.16,5.16,0,0,0,2.29,4c2.16,1.36,5.4,1.11,8,1.31,1.63.77.15,2.39.79,3.91,3.84,1.84,7.12.46,9.57-1.34,1.59-1.16.68-5.82,3.53-8.64a1.53,1.53,0,0,0,.24-.34s4.63,1.89,7.1-1.81,1.24-9.34-4.14-7.17C37.5,21.5,39.63,3.61,22,3.32Z"/><g class="cls-16"><path class="cls-15" d="M36.92,25.16c-.94,1.55-.73,3.39.46,4.11s2.14-.06,3.07-1.6,1.51-3.28.32-4S37.85,23.62,36.92,25.16Z"/></g><path class="cls-15" d="M36.64,25.62A4.09,4.09,0,0,1,37,25a4.29,4.29,0,0,1,.45-.52,4.39,4.39,0,0,1,1.22-.87,2.89,2.89,0,0,1,1.44-.33,1.22,1.22,0,0,1,.66.16s-.27,0-.65,0a3.14,3.14,0,0,0-1.3.44,4.39,4.39,0,0,0-1.06.88,4.92,4.92,0,0,0-.39.49,4,4,0,0,0-.34.53s0,.1-.08.15h0a1.41,1.41,0,0,1,.75-.17,1.55,1.55,0,0,1,.76.22,2,2,0,0,1,.22.15l.08.07.07.08a1.33,1.33,0,0,1,.15.22,1.59,1.59,0,0,1,.22.77A1.44,1.44,0,0,1,39,28c-.12.18-.22.27-.24.25s0-.14.07-.32a1.39,1.39,0,0,0,0-.65,1.26,1.26,0,0,0-.25-.56,1.08,1.08,0,0,0-.19-.21l-.05-.05a.8.8,0,0,0-.16-.13,1.39,1.39,0,0,0-.56-.26,1.56,1.56,0,0,0-.65,0l-.17.05a3.74,3.74,0,0,0-.28.93,3.67,3.67,0,0,0,0,.74,2.53,2.53,0,0,0,.17.62c.14.36.31.57.28.59s-.23-.15-.44-.51a2.33,2.33,0,0,1-.25-.66,3.06,3.06,0,0,1-.07-.81A3.88,3.88,0,0,1,36.64,25.62Z"/><g class="cls-16"><path class="cls-15" d="M16.06,25a1.5,1.5,0,0,0,1.74,1A1.27,1.27,0,0,0,19,24.56s1.24,1.08,1.19,1.62S14.94,28.32,16.06,25Z"/></g><path class="cls-15" d="M20.22,26.05s-.12-.16-.29-.37a3,3,0,0,0-.74-.67,3.93,3.93,0,0,0-.9-.42,2.37,2.37,0,0,0-.43-.08l-.12,0-.3,0a1.23,1.23,0,0,0-.84.3,1.52,1.52,0,0,0-.41.83,1.88,1.88,0,0,1-.09.47s-.09-.18-.09-.48a1.54,1.54,0,0,1,.36-1.06,1.42,1.42,0,0,1,.51-.37,1.9,1.9,0,0,1,.53-.12,1.68,1.68,0,0,1,.38,0h.14a2.6,2.6,0,0,1,.5.14,3.41,3.41,0,0,1,.95.56,2.53,2.53,0,0,1,.7.84C20.22,25.84,20.25,26,20.22,26.05Z"/><path class="cls-4" d="M26,22.7c-.05,1.17-.7,2.09-1.44,2.06s-1.3-1-1.25-2.18.7-2.1,1.44-2.06S26.08,21.53,26,22.7Z"/><path class="cls-4" d="M14.67,22.26c-.05,1.17-.7,2.09-1.44,2.06s-1.31-1-1.25-2.18.69-2.09,1.44-2.06S14.72,21.09,14.67,22.26Z"/><path class="cls-14" d="M11.31,11.11c.13-.39.28-.79.45-1.19C14,4.79,22,3.32,22,3.32,39.63,3.61,37.5,21.5,37.5,21.5s.21-.08.31-.12c-.06.29-.11.55-.16.78a3.73,3.73,0,0,0-2.72,1.53c-1.18,1.52,0,1.52,0,1.52l-3.17-.42.38-5.34s-4.24-1.27-4.83-6.86a30.59,30.59,0,0,1-11.7-1.11A13.22,13.22,0,0,1,11.31,11.11Z"/><path class="cls-17" d="M39.85,13.86s-.68,5.08-1.19,7.28A3.72,3.72,0,0,0,36,22.67,8,8,0,0,0,34.48,26L32,25.75l.58-7.27s-3.68-1.32-4.28-6.91a30.64,30.64,0,0,1-11.69-1.1,13,13,0,0,1-4.87-.55s-1.57,3.77-1.4,6.31A23.59,23.59,0,0,1,10,22.16l-1.19-.85.43-3.51A6.56,6.56,0,0,1,9.51,10S3.07,7.25,8.83.13a10.9,10.9,0,0,0,8.31,1c4.57-1.36,18.64-2.72,20.34,4.4C37.48,5.55,43.58,8.26,39.85,13.86Z"/><path class="cls-12" d="M8.77.21C13.17,5.74,21.22,8.69,28,5.88a8.72,8.72,0,0,0,.87-.42A5.29,5.29,0,0,0,32.35.91c2.56.8,4.55,2.23,5.13,4.64a7.56,7.56,0,0,1,1.38.87,28.1,28.1,0,0,1-10.35,6.29c-.08-.36-.14-.74-.19-1.14a30.64,30.64,0,0,1-11.69-1.1,13,13,0,0,1-4.87-.55s-1.57,3.77-1.4,6.31A23.59,23.59,0,0,1,10,22.16l-1.19-.85.43-3.51A6.56,6.56,0,0,1,9.51,10S3.13,7.27,8.77.21Z"/><path class="cls-12" d="M34.26,14.87c3.25.45,4.94-.51,5.71-1.21l-.12.2s-.68,5.08-1.19,7.28A3.72,3.72,0,0,0,36,22.67,8,8,0,0,0,34.48,26L32,25.75l.21-2.62.92-4.7s-4.23-1.27-4.83-6.86C28.32,11.57,29.34,14.2,34.26,14.87Z"/><path class="cls-12" d="M10.36,16.23A23.59,23.59,0,0,1,10,22.16l-1.19-.85.43-3.51a6.55,6.55,0,0,1,.23-7.73,3.33,3.33,0,0,0,2.27-.15S10.19,13.69,10.36,16.23Z"/><path class="cls-18" d="M12.57,7.52A12.81,12.81,0,0,1,11.16,6a9.92,9.92,0,0,1-.95-1.59,5.71,5.71,0,0,1-.28-.67,3.1,3.1,0,0,1-.18-.54,1.5,1.5,0,0,1-.11-.48s.24.68.74,1.61a10.15,10.15,0,0,0,1,1.5A11.75,11.75,0,0,0,12.8,7.27,14.76,14.76,0,0,0,16,9.37c.95.46,1.62.7,1.62.7s.64.26,1.65.58a23.86,23.86,0,0,0,3.78.8,21.1,21.1,0,0,0,3.87.15c1.06-.06,1.76-.2,1.76-.16a1.41,1.41,0,0,1-.47.14,11.87,11.87,0,0,1-1.27.2,19.69,19.69,0,0,1-3.93,0,22.4,22.4,0,0,1-3.86-.72c-1-.3-1.71-.56-1.71-.56a16.14,16.14,0,0,1-1.63-.75A14.44,14.44,0,0,1,12.57,7.52Z"/><path class="cls-18" d="M11.68,9.47l-.23-.13-.21-.16a6.47,6.47,0,0,1-.53-.45A7.81,7.81,0,0,1,9.35,7.12a8.73,8.73,0,0,1-.89-1.88,3.37,3.37,0,0,1-.22-.92,4.43,4.43,0,0,1,.39.85,11.35,11.35,0,0,0,1,1.77A8.5,8.5,0,0,0,11,8.4a4.08,4.08,0,0,0,.52.4l.2.14.21.14c.14.08.32.21.56.33a9.42,9.42,0,0,0,1.86.76c1.42.41,2.92.43,2.92.51a3.64,3.64,0,0,1-.94.06,10.44,10.44,0,0,1-2.06-.25,8.16,8.16,0,0,1-2-.69A4.56,4.56,0,0,1,11.68,9.47Z"/><path class="cls-18" d="M6.72,3.43c.07,0,0,1.29.36,2.51a5.94,5.94,0,0,0,.6,1.59A3.7,3.7,0,0,0,8,8l.12.17.13.17a3.83,3.83,0,0,0,.37.4,4.14,4.14,0,0,0,1.4.91,6.9,6.9,0,0,0,1.65.42,2.94,2.94,0,0,1,.8.1,3.05,3.05,0,0,1-.81.08A5.75,5.75,0,0,1,9.87,10a4.2,4.2,0,0,1-1.58-.89,3.4,3.4,0,0,1-.43-.44l-.15-.17a2.05,2.05,0,0,1-.12-.2,3.14,3.14,0,0,1-.3-.52A6,6,0,0,1,6.75,6,6.76,6.76,0,0,1,6.72,3.43Z"/><path class="cls-18" d="M36.88,4.56a4.47,4.47,0,0,0-.6-1.07,4.84,4.84,0,0,0-1-1,8.14,8.14,0,0,0-2.35-1.14c-.69-.21-1.17-.31-1.17-.31S31.31.94,30.59.81,28.9.56,27.92.49,26,.38,25.23.35A7.51,7.51,0,0,1,24,.26a5.82,5.82,0,0,1,1.23-.1c.74,0,1.73,0,2.71,0a24.56,24.56,0,0,1,2.72.23c.74.1,1.22.22,1.22.22s.49.11,1.2.35a8,8,0,0,1,2.42,1.3,4.89,4.89,0,0,1,1,1.09,3.92,3.92,0,0,1,.55,1.16,2.49,2.49,0,0,1,.12.49,2.08,2.08,0,0,1,0,.39c0,.22,0,.34,0,.34S37.13,5.23,36.88,4.56Z"/><path class="cls-18" d="M14.07,2.44l-.93-.18a14.64,14.64,0,0,1-2-.62,8.08,8.08,0,0,1-1.84-1A3,3,0,0,1,8.62,0a8.11,8.11,0,0,1,.8.49,9.65,9.65,0,0,0,1.84.84,14.08,14.08,0,0,0,2,.49l.91.14a24.92,24.92,0,0,0,2.94.3c1.49.07,3,0,3,0a12.54,12.54,0,0,1-3,.31A21.71,21.71,0,0,1,14.07,2.44Z"/><path class="cls-18" d="M34.12,4.39l-.32-.27a10.13,10.13,0,0,0-1-.88,12.06,12.06,0,0,1-1.12-.82A3.51,3.51,0,0,1,32.94,3a9.46,9.46,0,0,1,1.18.81l.31.32a5.58,5.58,0,0,1,.6.79,3.16,3.16,0,0,1,.39.91c.06.27,0,.45,0,.45s-.09-.16-.2-.39a3.51,3.51,0,0,0-.49-.78A8.53,8.53,0,0,0,34.12,4.39Z"/><path class="cls-18" d="M33.42,6A6.49,6.49,0,0,0,32.07,4.6a8.86,8.86,0,0,0-1.7-.93l-.83-.29-.24-.07a5.11,5.11,0,0,0-.61-.19,15.11,15.11,0,0,0-1.93-.37c-1.43-.19-2.88-.14-2.88-.2a10.12,10.12,0,0,1,2.91-.14,15.8,15.8,0,0,1,2,.28c.27.05.49.13.65.17l.25.06s.35.13.85.35a7.88,7.88,0,0,1,1.74,1.07,5.79,5.79,0,0,1,1.3,1.55,2.75,2.75,0,0,1,.34.85A5.64,5.64,0,0,1,33.42,6Z"/><path class="cls-18" d="M40.14,10.3s-.09-.17-.21-.4a6.32,6.32,0,0,0-.52-.81,6.51,6.51,0,0,0-.94-1l-.31-.29a3.44,3.44,0,0,0-.77-.52,1.55,1.55,0,0,0-.88-.19c-.25,0-.41.09-.43,0s0,0,.09-.09a1,1,0,0,1,.31-.15,1.65,1.65,0,0,1,1,.07,3.44,3.44,0,0,1,.92.48c.22.17.36.3.36.3a6.34,6.34,0,0,1,.9,1.18,4,4,0,0,1,.4.93C40.18,10.1,40.17,10.3,40.14,10.3Z"/><path class="cls-18" d="M36.44,10.9a2.15,2.15,0,0,0,0-.36,5,5,0,0,0-.3-1.07,6.6,6.6,0,0,0-.51-1c-.16-.27-.29-.43-.26-.46s.19.1.41.34a4.91,4.91,0,0,1,.67,1,5.43,5.43,0,0,1,.42,1.12,2.06,2.06,0,0,1,.08.39l0,.16a4.65,4.65,0,0,1,0,.56,2.37,2.37,0,0,1-.43,1.17,2,2,0,0,1-1,.69,1.24,1.24,0,0,1-.54.06s.2-.12.48-.23a2,2,0,0,0,.79-.71,2.15,2.15,0,0,0,.28-1c0-.3,0-.49,0-.49S36.45,11,36.44,10.9Z"/><path class="cls-18" d="M35.82,14.75s.35.08.86.12a3.78,3.78,0,0,0,.87,0,3.53,3.53,0,0,0,.92-.34,4.15,4.15,0,0,0,1.38-1.21,4.21,4.21,0,0,0,.44-.71,4.48,4.48,0,0,0,.36-.75A4.87,4.87,0,0,0,41,10a4.45,4.45,0,0,0-.14-1,3.7,3.7,0,0,0-.34-.8c-.26-.44-.51-.69-.48-.72a2,2,0,0,1,.64.62,3,3,0,0,1,.43.82,4.27,4.27,0,0,1,.23,1,5.16,5.16,0,0,1-.25,2,5.64,5.64,0,0,1-.36.84,4.91,4.91,0,0,1-.52.76,4.62,4.62,0,0,1-1.57,1.24,3.27,3.27,0,0,1-2,.26A2,2,0,0,1,35.82,14.75Z"/><path class="cls-18" d="M28.87,13.76a8.06,8.06,0,0,0,.79,1.54,6.47,6.47,0,0,0,1.11,1.3,4.26,4.26,0,0,0,.43.36l.17.13s.25.19.64.44a7.9,7.9,0,0,0,1.56.69,8.61,8.61,0,0,0,1.71.29,3.61,3.61,0,0,1,.8,0,2.32,2.32,0,0,1-.8.13,6.85,6.85,0,0,1-1.79-.15,7.12,7.12,0,0,1-1.7-.63c-.43-.24-.7-.43-.7-.43l-.18-.15a4.76,4.76,0,0,1-.44-.41,6.39,6.39,0,0,1-1.1-1.44,6.33,6.33,0,0,1-.67-1.67,2.23,2.23,0,0,1-.12-.8A3.23,3.23,0,0,1,28.87,13.76Z"/><path class="cls-18" d="M8.55,11.84a4.87,4.87,0,0,1,.68-1.25c.23-.32.44-.48.45-.46s-.12.23-.3.56A6.58,6.58,0,0,0,8.87,12a7.81,7.81,0,0,0-.25,1.33c0,.37,0,.62,0,.62v.16a3.33,3.33,0,0,0,0,.45,5.2,5.2,0,0,0,.18,1.33,4,4,0,0,0,.56,1.23c.21.3.39.48.36.52a1.63,1.63,0,0,1-.51-.41A3.71,3.71,0,0,1,8.44,16a6.09,6.09,0,0,1-.31-1.42c0-.19,0-.36,0-.47v-.18s0-.27.07-.65A7.63,7.63,0,0,1,8.55,11.84Z"/><path class="cls-14" d="M20.41,36.89c-2.63-.2-5.87,0-8-1.31a5.16,5.16,0,0,1-2.29-4,18.71,18.71,0,0,1-.38-3.66,16.52,16.52,0,0,0,1.39,5c1.62,3.07,6.72,3.88,14.33,3.07S34.1,30,34.1,30l.13.87c-2.75,2.83-1.89,7.41-3.46,8.56a12,12,0,0,1-3.45,1.82C26.37,39.55,25.09,37.75,24,38s-1.83,1.75-2.2,3.08c-.19-.08-.38-.15-.58-.25C20.56,39.28,22,37.66,20.41,36.89Z"/><path class="cls-17" d="M9.2,18.91l1.26,0,0,.16-.07-.14.16,8.57s2.13-1.67,8.44-1.09a26.7,26.7,0,0,1,10.16,2.8s.54-5.32,3.48-8.11l5.94.16c-1.18.53-3.78,2.39-3.83,4.84-.06,3.41.24,3.86.24,3.86.54.91-1.67,4.53-2.33,5.15a12.19,12.19,0,0,1-4.92,2.7c-3.42.94-8.44.65-11.91.15C8.52,36.86,8,34.07,8,30.36A70,70,0,0,1,9.2,18.91Z"/><path class="cls-12" d="M8,30.36A70,70,0,0,1,9.2,18.91l1.26,0,0,.16-.07-.14.1,5.35A6.19,6.19,0,0,0,9.72,31c2.08,4.07,6.22,5.28,10.36,5.08,2.77-.14,5.22-.21,7.71-1.64a9.24,9.24,0,0,0,3.57-4.26,9.81,9.81,0,0,0,1-4,3.85,3.85,0,0,0-1.38-2.85c.11-.19.22-.39.34-.58l0,0c.12-.19.24-.37.37-.54l0-.05c.13-.17.27-.34.41-.5a.08.08,0,0,1,0,0,5.11,5.11,0,0,1,.45-.48l.73,0,4.7.13h.51c-1.18.53-3.78,2.39-3.83,4.84-.06,3.41.24,3.86.24,3.86.54.91-1.67,4.53-2.33,5.15a12.19,12.19,0,0,1-4.92,2.7c-3.42.94-8.44.65-11.91.15l-.66-.11C8.48,36.69,8,34,8,30.36Z"/><path class="cls-18" d="M14.89,28.39a1.54,1.54,0,0,0,.26.54,4.36,4.36,0,0,0,.89,1,4,4,0,0,0,1.19.64,3.32,3.32,0,0,0,.43.12l.17,0H18a1.83,1.83,0,0,0,.45,0,3.06,3.06,0,0,0,1.28-.44,3.53,3.53,0,0,0,1-.89,1.86,1.86,0,0,0,.29-.52s-.19.15-.42.4a4,4,0,0,1-1,.73,2.74,2.74,0,0,1-1.16.3,2.51,2.51,0,0,1-.39,0h-.15l-.14,0a1.7,1.7,0,0,1-.39-.07,3.49,3.49,0,0,1-1.12-.5,5.23,5.23,0,0,1-.94-.83C15.07,28.56,14.92,28.38,14.89,28.39Z"/><path class="cls-17" d="M23.51,17.21s.14,0,.28-.08A1.9,1.9,0,0,1,24.3,17a2,2,0,0,1,.51,0l.22.06a2.2,2.2,0,0,1,.73.19c.36.15.64.46.72.42s-.06-.5-.45-.83a2.41,2.41,0,0,0-.86-.47h-.32a1.84,1.84,0,0,0-.68.14,1.58,1.58,0,0,0-.55.39C23.51,17.06,23.47,17.18,23.51,17.21Z"/><path class="cls-17" d="M12,17.14c.1,0,.29-.31.57-.49a1.49,1.49,0,0,1,.41-.17,1.64,1.64,0,0,1,.18,0l.19-.05a.54.54,0,0,1,.2,0h.24c.34,0,.68.19.75.11s-.2-.41-.63-.59a2.14,2.14,0,0,0-.32-.08.81.81,0,0,0-.3,0H13l-.27.13a1.51,1.51,0,0,0-.49.41C11.94,16.68,11.92,17.12,12,17.14Z"/><line class="cls-2" x1="2.39" y1="92.11" x2="2.24" y2="92.11"/></g></g></g></svg>