<svg xmlns="http://www.w3.org/2000/svg" viewBox="0 0 107.4 196.91"><defs><style>.cls-1{isolation:isolate;}.cls-2,.cls-6{fill:#d2e4ff;}.cls-12,.cls-16,.cls-2,.cls-4,.cls-8,.cls-9{mix-blend-mode:multiply;}.cls-3{fill:#1b205e;}.cls-11,.cls-4,.cls-9{fill:#1d255b;}.cls-12,.cls-4{opacity:0.4;}.cls-5{fill:#4052a0;}.cls-7,.cls-8{fill:#cc5252;}.cls-8{opacity:0.5;}.cls-14,.cls-17,.cls-9{opacity:0.2;}.cls-10{fill:#65a1ff;}.cls-13{fill:#fad0bf;}.cls-14,.cls-15{fill:#fa7296;}.cls-16{fill:#c87568;opacity:0.8;}.cls-18{fill:#963e35;}.cls-19{fill:#ba5443;}</style></defs><title>regularРесурс 3</title><g class="cls-1"><g id="Слой_2" data-name="Слой 2"><g id="OBJECTS"><path class="cls-2" d="M69.72,104c-.35-.78-.68-1.58-1-2.39A13.69,13.69,0,0,1,69,106S69.3,105.22,69.72,104Z"/><path class="cls-3" d="M96,129.8c-.06,1.16-.13,2.34-.21,3.51a.13.13,0,0,1,0,.06c-.63,9-1.92,18.07-3.67,24.29l-.27.91c0,.18-.11.35-.16.52s-.08.26-.13.38c-.18.58-.38,1.12-.58,1.63l-.06.16-.18.47c-.56,1.41-1.08,2.91-1.57,4.46l-.21.71c-.4,1.29-.77,2.62-1.12,3.95l-.06.22-.06.26c-.25,1-.49,2-.72,2.95l0,.14c-.16.69-.31,1.38-.46,2.06q-.14.65-.27,1.26c0,.29-.11.57-.17.85l-.24,1.22c-.21,1.09-.4,2.16-.58,3.19-.12.69-.23,1.37-.33,2-.23,1.4-.42,2.72-.57,3.93,0,.29-.08.58-.11.86-.06.48-.12.94-.16,1.38-.08.75-.15,1.44-.2,2.05-.08.92-.1,2.18-.1,3.66H25.1q.12-1.62.24-3.27c.44-6.53.71-13.51.54-19.91,0-.38,0-.77-.05-1.16q0-1.06-.15-2.19c0-.32-.06-.64-.1-1s0-.57-.09-.86c-.06-.57-.13-1.15-.22-1.74a3.47,3.47,0,0,0-.06-.45l-.06-.44,0-.23c-2.49-17-10.27-41-13.53-54.83a50.53,50.53,0,0,1-1.42-8,.28.28,0,0,1,0-.09l.06,0,0,0,.09,0h0l.05,0,.21-.13.09,0,.16-.1.24-.14.44-.26.07,0,.29-.16.34-.19.32-.18.4-.22.37-.21.45-.23.42-.23.5-.26.46-.23.56-.28.18-.09.53-.26.39-.19.53-.26.67-.32.55-.25.76-.34.55-.25.85-.37L22,96.78l.25-.1.41-.17,1.54-.6C26.49,95,29,94.19,31.6,93.42l.19,0c1.49-.44,3-.84,4.63-1.2.32-.08.64-.16,1-.21a2.13,2.13,0,0,1,.42-.1l.12,0c.27-.07.54-.12.81-.17l.71-.14h0a69.29,69.29,0,0,1,12.26-1.25h.69c1.35,0,2.67,0,4,.08,1.09,0,2.15.12,3.18.2l.74.06q1.81.16,3.51.39h0c.53.06,1.05.14,1.56.22h.08l.86.14.32.06.9.16c.86.15,1.69.33,2.5.51l.94.22h.08a.47.47,0,0,1,.16,0,54.85,54.85,0,0,1,21.84,10.34l.09.08.13.12a0,0,0,0,0,0,0,6.11,6.11,0,0,1,1.21,2.24s0,0,0,0C96.15,109.84,96.53,119.52,96,129.8Z"/><path class="cls-4" d="M87,174.28l0,.14c-.16.69-.32,1.38-.46,2.06q-.14.65-.27,1.26c-.06.29-.11.57-.17.85l-.24,1.22c-.21,1.09-.4,2.16-.58,3.19-.12.69-.23,1.37-.33,2-.23,1.4-.42,2.72-.57,3.93,0,.29-.08.58-.11.86-.06.48-.12.94-.16,1.38-.08.75-.15,1.44-.2,2.05-.08.92-.1,2.18-.1,3.66H73.69a25.24,25.24,0,0,0-10.22-4.37l-.45-.09-.15,0-.22,0a23.91,23.91,0,0,0-3.71-.28,25.17,25.17,0,0,0-14.75,4.8H25.1q.12-1.62.24-3.27c.44-6.53.71-13.51.54-19.91,0-.38,0-.77-.05-1.16q0-1.06-.15-2.19c0-.32-.06-.64-.1-1s0-.57-.09-.86c-.06-.57-.13-1.15-.22-1.74a3.47,3.47,0,0,0-.06-.45l-.06-.44,0-.23c-2.49-17-10.27-41-13.53-54.83a50.53,50.53,0,0,1-1.42-8,.28.28,0,0,1,0-.09l.06,0,0,0,.09,0h0l.05,0,.12-.07.09-.06.09,0,.16-.1.24-.14.23-.13.21-.13.07,0,.29-.16.34-.19.32-.18.4-.22.37-.21.45-.23.42-.23.5-.26.46-.23.56-.28.18-.09.31-.16.22-.1.39-.19.53-.26.67-.32.55-.25.76-.34.55-.25.85-.37.53-.22.79-.34.25-.1.41-.17,1.54-.6a27.6,27.6,0,0,0-.69,2.92,110.92,110.92,0,0,0-1.72,20.92c0,1.36.05,2.72.12,4.09a0,0,0,0,1,0,0c0,.17,0,.35,0,.52a140.32,140.32,0,0,0,1.55,14.23,49.11,49.11,0,0,0,1.49,6.5c.17.57.35,1.14.55,1.71.26.79.55,1.58.87,2.36a54.75,54.75,0,0,0,5.43,10.43l.16.24.49.71a52.26,52.26,0,0,0,4.13,5.24c.58.64,1.17,1.27,1.78,1.88l.22.22.05,0A40.67,40.67,0,0,0,55.09,178.1c.77.24,1.54.45,2.32.62l.44.11c1.19.27,2.39.48,3.59.63h.12l.1,0,.18,0,.32,0c.42,0,.83.09,1.25.12l.52,0h.15c.29,0,.58,0,.87,0a36.82,36.82,0,0,0,5.56-.13h0c.77-.06,1.54-.16,2.31-.28a35.82,35.82,0,0,0,3.87-.78A37.75,37.75,0,0,0,87,174.28Z"/><path class="cls-5" d="M90.92,161a6.67,6.67,0,0,1,.19-1.24c.15-.78.38-1.89.65-3.22s.56-2.89.85-4.56.67-3.45.86-5.25c.42-3.59,1-7.17,1.07-9.88s.32-4.5.32-4.5l.11-1.24c.11-.78.06-1.91.08-3.26s0-2.92,0-4.61-.17-3.49-.26-5.29-.29-3.6-.42-5.29-.27-3.26-.41-4.61l-.29-3.27a6.83,6.83,0,0,1-.05-1.24,5,5,0,0,1,.25,1.22c.12.78.28,1.9.48,3.25s.4,2.91.59,4.59.44,3.49.56,5.3.27,3.61.39,5.31.06,3.29.09,4.65.07,2.51,0,3.3-.09,1.24-.09,1.24-.16,1.81-.41,4.53-.77,6.32-1.29,9.91c-.24,1.81-.69,3.57-1,5.25s-.66,3.22-1,4.53-.64,2.42-.84,3.19A6.25,6.25,0,0,1,90.92,161Z"/><path class="cls-5" d="M63.58,196.91h-.86c0-.84.05-1.78.08-2.73l.06-1.53c0-.08,0-.16,0-.23a21.56,21.56,0,0,1,.31-3.8,15.81,15.81,0,0,1,.26,3.17q0,.36,0,.75c0,.53,0,1.09.05,1.64C63.55,195.13,63.57,196.07,63.58,196.91Z"/><path class="cls-6" d="M36.72,90.26s8.67,22.22,13,32,5.42,31.44,7,36.32S62,181.72,62,181.72A95.37,95.37,0,0,0,76.29,148.8c4.33-19.51,0-45.53-7.59-55.83S47,84.3,36.72,90.26Z"/><path class="cls-2" d="M36.72,90.26s8.67,22.22,13,32,5.42,31.44,7,36.32S62,181.72,62,181.72A95.37,95.37,0,0,0,76.29,148.8c4.33-19.51,0-45.53-7.59-55.83S47,84.3,36.72,90.26Z"/><path class="cls-7" d="M52.44,98.93s2.71,6.78,6.5,8.94c0,0-1.08,14.91-1.62,26.29s5,50.5,5,50.5,9-25.56,10.66-36.94-8.13-40.39-8.13-40.39,4.07-1.62,3-9.75S54.06,83.75,52.44,98.93Z"/><path class="cls-8" d="M64.44,141.63C63.72,131.52,61,121.07,63.6,111a4.37,4.37,0,0,1,1.68-2.55l-.38-1.16s2.36-1,3-5a9,9,0,0,1-4.29,1.54,6.72,6.72,0,0,1-4-1,6.58,6.58,0,0,1-3-5.18,7,7,0,0,1,1.35-4.38,5,5,0,0,1,2.83-2.17,4.82,4.82,0,0,1,3.64.47A6.46,6.46,0,0,1,65,92c-4.16-4.07-11.35-4.19-12.54,7,0,0,2.71,6.78,6.5,8.94,0,0-1.08,14.91-1.62,26.29s5,50.5,5,50.5,1.47-4.14,3.33-9.83C65,163.77,65.23,152.68,64.44,141.63Z"/><path class="cls-4" d="M80.22,109.42C70.1,84.71,64.41,88.78,64.41,88.78a112.2,112.2,0,0,1,8,49c-1.5,22.85-7.72,43.59-9.8,50-.93-11-3.39-37.72-6.71-53.45-4.27-20.2-18.69-38.13-16.56-48.23,0,0-9.75,5.08-9.39,14.87s3.91,30.3,7.82,34.59,12.09,2.14,12.09,2.14-7.47,12.24-4.63,20.5c2,5.71,5.06,11.07,7.93,16.35,1.74,3.18,3.51,6.33,5.24,9.52,1.57,2.9,2.32,6.12,4.54,8.66,1.47-2.74,4.62-5.1,6.49-7.77A67.49,67.49,0,0,0,75.05,175a95.6,95.6,0,0,0,6.79-19.42c2.93-12.69-3-20.27-3-20.27C83.56,134.17,87.32,126.77,80.22,109.42Z"/><path class="cls-5" d="M39.29,86.06S29.54,91,29.9,100.38s3.91,29.17,7.82,33.29,12.09,2.07,12.09,2.07-7.47,11.78-4.63,19.74S57.27,177.87,63,188.78c0,0-2.84-36.84-7.11-56.29S37.16,95.78,39.29,86.06Z"/><path class="cls-9" d="M52.66,142.16a24.58,24.58,0,0,1,3.17-9.77c0-.18-.09-.37-.14-.56-4.06-.59-7.22-2.56-10.59-5.24-8-6.36-9.8-16.14-10.87-25.63-.48-4.33,2-9.32,4.86-12.53a10.12,10.12,0,0,1,.2-2.37S29.54,91,29.9,100.38s3.91,29.17,7.82,33.29,12.09,2.07,12.09,2.07-7.47,11.78-4.63,19.74S57.27,177.87,63,188.78c0,0-.23-3-.66-7.77C55.63,169.21,51.15,155.83,52.66,142.16Z"/><path class="cls-5" d="M61.88,185.92s8.67-23.58,10.48-50.09a104.54,104.54,0,0,0-8-47.15s5.69-3.92,15.81,19.87c7.1,16.7,3.34,23.83-1.36,24.94,0,0,5.91,7.3,3,19.51-2.45,10.2-9.12,27.76-19.6,35.87Z"/><path class="cls-9" d="M73.78,154c.85-4.05,2.53-14.68,7.2-16.59a16.53,16.53,0,0,0-2.12-3.88,6.2,6.2,0,0,0,4.07-3.35c-3.62-2.68-5.63-8.2-6.56-12.65-.89-4.24-1.43-8.37-3.3-12.35-2.6-5.52-5.6-10.81-7.44-16.65a.06.06,0,0,1,0,0,2,2,0,0,0-1.21.23,104.54,104.54,0,0,1,8,47.15c-1.81,26.51-10.48,50.09-10.48,50.09l.36,3A41.45,41.45,0,0,0,71.59,178C70.16,170.16,72.27,161.15,73.78,154Z"/><path class="cls-6" d="M41.42,79.42s-8.77,6.86-1.18,16.26c0,0,3.7,7,13.82,11.38,0,0-2.52-10.3,5.42-16.44,0,0,10.57,4.88,9.49,15.36,0,0,3.16-7,2.08-13.92S57,74,41.42,79.42Z"/><path class="cls-2" d="M66.38,91.92a1.36,1.36,0,0,1,0-.2,12.06,12.06,0,0,1,1.07-6.1,24.5,24.5,0,0,0-26-6.2s-5.15,4-4.12,10.18a4.47,4.47,0,0,1,3.39-1.54c5.63-.16,11.28,0,13.94,6,.24.56.45,1.12.65,1.68a14.32,14.32,0,0,1,4.2-5.17,19.59,19.59,0,0,1,7.18,6.22A13.28,13.28,0,0,1,66.38,91.92Z"/><path class="cls-10" d="M58.46,89a19.82,19.82,0,0,0,6.44-1.67c0-.14-3.22.8-6.51,1a29.47,29.47,0,0,1-4.48-.07c-.6-.06-1.11-.14-1.46-.19s-.55-.08-.55-.08l-.54-.1a11.7,11.7,0,0,1-1.44-.29A18.17,18.17,0,0,1,45.77,86a15.66,15.66,0,0,1-3.57-2.63,12.53,12.53,0,0,0-1.42-1.49,7.11,7.11,0,0,0,1.13,1.75,14,14,0,0,0,3.5,3,18.16,18.16,0,0,0,4.28,1.8,12.71,12.71,0,0,0,1.48.36l.57.12a3.61,3.61,0,0,0,.58.07c.37,0,.89.1,1.52.14A28.77,28.77,0,0,0,58.46,89Z"/><path class="cls-10" d="M67.56,97.41c-.17-.41-.37-.73-.48-1l-.19-.36A14.48,14.48,0,0,0,66,94.88a12.44,12.44,0,0,0-2.35-2.25,10.2,10.2,0,0,0-2.91-1.42,7.28,7.28,0,0,0-1-.22,3.39,3.39,0,0,1,.34-.23c.76-.49,1.36-.68,1.33-.77s-.16,0-.43.05a3.83,3.83,0,0,0-1.08.37,8.2,8.2,0,0,0-2.76,2.13,13.53,13.53,0,0,0-1.91,2.92c-.21.43-.36.8-.48,1.05s-.16.4-.16.4a21.91,21.91,0,0,0-1,4.93,15.87,15.87,0,0,0,.09,3.44,4.16,4.16,0,0,0,.39,1.51,6.73,6.73,0,0,0,0-1.54,19.54,19.54,0,0,1,.23-3.33,22.88,22.88,0,0,1,1.22-4.66,3.43,3.43,0,0,1,.14-.39c.09-.25.23-.59.39-1A14.39,14.39,0,0,1,57.67,93a10.29,10.29,0,0,1,1.84-1.88l1.1.46a12.17,12.17,0,0,1,2.61,1.62,12.42,12.42,0,0,1,2,2.25A13.86,13.86,0,0,1,66,96.62s.08.12.2.33.32.5.5.88A21.21,21.21,0,0,1,68,100.67c.77,2.15,1.14,4.42,1.29,4.4a14.09,14.09,0,0,0-.6-4.61A20.14,20.14,0,0,0,67.56,97.41Z"/><path class="cls-10" d="M71.27,94.83a25.34,25.34,0,0,0-.28-3c-.14-.81-.27-1.34-.27-1.34s-.15-.53-.45-1.29a13.11,13.11,0,0,0-1.42-2.65,11,11,0,0,0-2.06-2.16,3.55,3.55,0,0,0-1.16-.69c0,.07.34.43.89,1a12,12,0,0,1,2.86,4.83c.24.73.36,1.23.36,1.23s.14.5.32,1.26a28.22,28.22,0,0,1,.49,2.83,35.52,35.52,0,0,0,.5,4.22A17,17,0,0,0,71.27,94.83Z"/><path class="cls-10" d="M49,104c-1.17-1-2.7-2.36-4.13-3.82A37.3,37.3,0,0,1,41.28,96a21.92,21.92,0,0,1-1.37-2.11,15.83,15.83,0,0,1-1.18-2.2,11.18,11.18,0,0,1-1.08-5.26,9,9,0,0,1,.65-2.81,11.19,11.19,0,0,1,1.29-2.21c.92-1.2,1.71-1.87,1.65-1.94s-.24.12-.6.39a11,11,0,0,0-1.35,1.3,10.61,10.61,0,0,0-1.51,2.22,9.5,9.5,0,0,0-.85,3,11.82,11.82,0,0,0,.94,5.7A17.55,17.55,0,0,0,39,94.36a21.27,21.27,0,0,0,1.5,2.15,34.74,34.74,0,0,0,3.86,4.2,46.88,46.88,0,0,0,4.38,3.61A11.64,11.64,0,0,0,51,105.71,16.24,16.24,0,0,0,49,104Z"/><path class="cls-11" d="M93.09,102.54a114.62,114.62,0,0,1,12.29,34.08c3.61,19.5,2.53,47.88-4.34,51.78s-44.45.35-64.68-8.51c0,0-2.17-9.93,5.42-16,0,0,34.33-.71,48.42,2.48C90.2,166.41,101,123.65,93.09,102.54Z"/><g class="cls-12"><path class="cls-11" d="M72.6,181.68c9.45-6.42,22-2.42,30.54,4.5a12.38,12.38,0,0,0,.64-1.15,8.69,8.69,0,0,1-2-3.38c-6-19-7.78-41.47-.5-60.47a108.58,108.58,0,0,0-8.22-18.64c8,21.11-2.89,63.87-2.89,63.87-14.09-3.19-48.42-2.48-48.42-2.48-7.59,6-5.42,16-5.42,16,8.84,3.87,21,6.73,32.47,8.4A8.18,8.18,0,0,1,72.6,181.68Z"/></g><path class="cls-5" d="M94.81,176.2a22.18,22.18,0,0,0-1.89-2.48l-.74-.63a14.53,14.53,0,0,0-1.75-1.25,9.84,9.84,0,0,0-1.46-.67l1.3.4a17.22,17.22,0,0,1,1.93.82l.59.27a10.39,10.39,0,0,1,1.25.7c.88.59,1.64,1.37,1.76,1.28a4.31,4.31,0,0,0-1.3-1.84,10.21,10.21,0,0,0-1.87-1.33,12.18,12.18,0,0,0-2.18-.6,5.13,5.13,0,0,0-2.24,0s.1.1.26.17c-.57-.18-1-.23-1-.17s1.36.71,2.54,1.6a16.88,16.88,0,0,1,1.52,1.35l.64.65a27.83,27.83,0,0,1,2,2.18A18.25,18.25,0,0,0,96.16,179,8.7,8.7,0,0,0,94.81,176.2Z"/><path class="cls-13" d="M76.29,159.37s8.67-4.07,13.55-1.63,8.67,13.55,7,13.55-3.8-2.16-6-1.35-8.13,4.06-11.65,3.52S72.49,161.27,76.29,159.37Z"/><path class="cls-14" d="M94.87,163.53a7.61,7.61,0,0,1-6.66,3.41c-5.66,0-8.35-4.61-8.08-9a29.69,29.69,0,0,0-3.84,1.42c-3.8,1.9-.55,13.55,3,14.09s9.48-2.71,11.65-3.52,4.34,1.35,6,1.35C97.86,171.29,96.88,167.27,94.87,163.53Z"/><path class="cls-15" d="M96.89,169.58c-.17.06-.59-.94-1.3-1.65a4,4,0,0,0-.56-.47l-.25-.21-.27-.14-.54-.28-.56-.26a7.56,7.56,0,0,0-1.31-.46c-1-.24-2.08-.35-2.08-.51a4.86,4.86,0,0,1,2.19-.2,8.58,8.58,0,0,1,2.21.51l.61.42.29.21.27.28a4.3,4.3,0,0,1,.55.65,4.63,4.63,0,0,1,.66,1.41C96.91,169.29,97,169.56,96.89,169.58Z"/><path class="cls-15" d="M95.67,165.38c-.13.06-.7-.79-1.41-1.47a8.81,8.81,0,0,0-1.51-1.2,5.35,5.35,0,0,0-1.64-.88c-.9-.3-1.9-.11-2-.25a2.59,2.59,0,0,1,2.09-.45,4.67,4.67,0,0,1,1.46.42,4.85,4.85,0,0,1,.61.32s.22.17.53.45a7.5,7.5,0,0,1,1,1.12A3.72,3.72,0,0,1,95.67,165.38Z"/><path class="cls-15" d="M93.36,161.31c-.13.06-.69-.79-1.4-1.47a8.33,8.33,0,0,0-1.52-1.19,5.21,5.21,0,0,0-1.64-.88,16.51,16.51,0,0,0-1.94-.25,2.61,2.61,0,0,1,2.09-.46,5.27,5.27,0,0,1,1.46.42,4.1,4.1,0,0,1,.61.33s.22.17.52.44a7.56,7.56,0,0,1,1,1.13C93.14,160.25,93.49,161.26,93.36,161.31Z"/><path class="cls-11" d="M10.29,102.59S3.84,113.75.94,134s.54,55.83,14.64,59.81c20.77,1.26,47.7-8.67,64.5-16.8,0,0,2.89-18.07-6.5-19.52L26.42,171.56S26.19,106.93,10.29,102.59Z"/><path class="cls-4" d="M72.39,174.88a69.56,69.56,0,0,1-24.57,10.33c-5.72,1.16-10.92,1.31-15.58-2.66-3.88-3.31-3.83-8-2.1-12.1l-3.72,1.11s0-1.19-.05-3.25a9.75,9.75,0,0,1-6.9-.32c-6.35-2.64-9.28-9-10.8-15.37-3.17-13.36-3.25-28,2.58-40.64A36.2,36.2,0,0,1,14,105a8.29,8.29,0,0,0-3.75-2.38S3.84,113.75.94,134s.54,55.83,14.64,59.81c20.77,1.26,47.7-8.67,64.5-16.8a40,40,0,0,0,.1-10.61C78.78,169.93,75.17,173,72.39,174.88Z"/><path class="cls-5" d="M25.33,166.42a9.46,9.46,0,0,1,.05-1.46c0-.92.19-2.23.25-3.81.17-3.16.27-7.37.1-11.58a104.92,104.92,0,0,0-1.1-11.5c-.12-.78-.23-1.49-.33-2.12s-.24-1.18-.33-1.63l-.28-1.41s-.39-2.07-1-5.18A81.66,81.66,0,0,0,20,116.54a32.68,32.68,0,0,0-2.45-5.61,24.85,24.85,0,0,0-3.09-4.34A47.94,47.94,0,0,0,10.7,103a8,8,0,0,1,1.22.79,13.07,13.07,0,0,1,1.3,1,16.28,16.28,0,0,1,1.57,1.49,23.69,23.69,0,0,1,3.3,4.33,32.16,32.16,0,0,1,2.63,5.65,79.4,79.4,0,0,1,2.92,11.25l1.05,5.16s.09.52.27,1.43q.12.69.3,1.65l.3,2.15a99.56,99.56,0,0,1,.89,11.61A107.16,107.16,0,0,1,26,161.18c-.11,1.58-.33,2.89-.44,3.8A7.07,7.07,0,0,1,25.33,166.42Z"/><path class="cls-5" d="M14.49,180.51a1.71,1.71,0,0,1,.07-1,8.09,8.09,0,0,1,.8-2A13.24,13.24,0,0,1,17.2,175a9.81,9.81,0,0,1,2.6-1.8,4.44,4.44,0,0,1,2.14-.5,2.07,2.07,0,0,1,.71.12c.17.06.25.11.24.14s-.39,0-.93.14a5,5,0,0,0-1.82.73,10.6,10.6,0,0,0-2.22,1.89,14.47,14.47,0,0,0-2,2.22,10.94,10.94,0,0,0-1,1.75C14.68,180.16,14.58,180.52,14.49,180.51Z"/><path class="cls-5" d="M18.29,182.14a7.45,7.45,0,0,1,.23-2.93,15.29,15.29,0,0,1,1-2.81A17.49,17.49,0,0,1,21.23,174a8.12,8.12,0,0,1,2.21-1.91,15.34,15.34,0,0,1-1.64,2.36,20.54,20.54,0,0,0-1.41,2.41l-.41.77a15.28,15.28,0,0,0-.77,1.76A20.36,20.36,0,0,1,18.29,182.14Z"/><path class="cls-13" d="M43.9,162.83c-3.76-2.77-8.7-4.67-13.19-2.81-5,2.09-9.61,12.9-8,13,2.07.14,5.44-1.24,7.38-2,3.77-1.4,7.26-2.7,11.15-4,2.33-.76,3.55-1.18,5.22-1.85A29.77,29.77,0,0,0,43.9,162.83Z"/><path class="cls-14" d="M43.9,162.83a20.64,20.64,0,0,0-4.78-2.65,8.45,8.45,0,0,1-8.36,8.11h-.28a8.31,8.31,0,0,1-5.6-2.2c-2,3.39-3.07,6.88-2.16,6.95,2.07.14,5.44-1.24,7.38-2,3.77-1.4,7.26-2.7,11.15-4,2.33-.76,3.55-1.18,5.22-1.85A29.77,29.77,0,0,0,43.9,162.83Z"/><path class="cls-15" d="M32.56,167.77a21,21,0,0,1-2.8.89,22.11,22.11,0,0,0-2.66,1.06l-.82.35a9.35,9.35,0,0,0-1.65,1,5.41,5.41,0,0,0-1.31,1.38c-.3.44-.43.78-.51.76s0-.4.15-.94a4.83,4.83,0,0,1,1.2-1.74,9,9,0,0,1,1.68-1.27c.5-.28.84-.45.84-.45a18.1,18.1,0,0,1,2.9-.83A7.69,7.69,0,0,1,32.56,167.77Z"/><path class="cls-15" d="M32.92,164c0,.07-.37,0-.88-.07a5.73,5.73,0,0,0-1.84.14,8.06,8.06,0,0,0-1.73.63c-.44.23-.73.4-.73.4l-.73.41a10.29,10.29,0,0,0-1.5,1.1,21.79,21.79,0,0,0-1.8,2.08c-.06,0,0-.38.2-.89A6.32,6.32,0,0,1,25,166.09a9.71,9.71,0,0,1,2.25-1.9s.33-.16.85-.37a7.85,7.85,0,0,1,2-.48,5,5,0,0,1,2,.18C32.65,163.7,33,163.93,32.92,164Z"/><path class="cls-15" d="M34.73,160.72c-.07.16-1.2-.22-2.33-.14a6.25,6.25,0,0,0-1.49.32l-.65.23-.65.27a11,11,0,0,0-1.39.72c-1,.63-1.87,1.42-2,1.31a5.4,5.4,0,0,1,1.55-1.89,9.49,9.49,0,0,1,1.4-1l.7-.38.78-.19a6.63,6.63,0,0,1,1.74-.14A4.06,4.06,0,0,1,34.73,160.72Z"/><path class="cls-16" d="M42.19,37.15C34.28,35.78,26.69,33.07,22,25.23a16.06,16.06,0,0,0,2.1,4.32s1.45,10.84,2.53,15.54a7.93,7.93,0,0,1,5.78,3.25c2.53,3.25,2.17,5.42,2.17,5.42L40,52.68,38.34,39.31A13.33,13.33,0,0,0,42.19,37.15Z"/><path class="cls-13" d="M87.49,40.42s7-5.25,8.53.36-.74,19.92-6.14,16.61S87.49,40.42,87.49,40.42Z"/><path class="cls-14" d="M87.49,40.42a14.81,14.81,0,0,1,2.89-1.63,3,3,0,0,1,2.53,2.55c1.15,4.22.15,13.35-2.71,16.21l-.32-.16C84.47,54.07,87.49,40.42,87.49,40.42Z"/><path class="cls-15" d="M91.1,55.74a25.31,25.31,0,0,1-.7-3.88,16.8,16.8,0,0,1,.2-3.9s.07-.49.22-1.2a11.63,11.63,0,0,1,.9-2.51,7.94,7.94,0,0,1,1.59-2.14,12.33,12.33,0,0,0,.92-.83,3.41,3.41,0,0,0-1.09.63A7.43,7.43,0,0,0,91.32,44a10.87,10.87,0,0,0-1.08,2.59c-.2.74-.29,1.24-.29,1.24a16.32,16.32,0,0,0,0,4A10,10,0,0,0,91.1,55.74Z"/><path class="cls-15" d="M93.5,53.18a4.21,4.21,0,0,0,0-1.68,9.35,9.35,0,0,0-.2-1.15c-.1-.3-.16-.51-.16-.51a2.25,2.25,0,0,0-.25-.48l-.29-.47-.43-.49a2.38,2.38,0,0,0-1.49-.79c0,.1.69.47,1.14,1.1l.32.47c.07.17.15.32.21.45a2.5,2.5,0,0,1,.18.46s.07.18.19.45a10.09,10.09,0,0,1,.32,1A8.24,8.24,0,0,0,93.5,53.18Z"/><path class="cls-13" d="M62.17,7.08S79.25,10.21,84,21.15s3.78,28.6,3.78,28.6,1.46,10-.23,17.5c-.53,4.39-2.36,7-4.88,8.62-4.6,2.9-11.52,2.36-17.12,2.79-3.48,1.64-.33,5.1-1.7,8.35-8.18,3.9-15.18,1-20.4-2.86C40.05,81.67,42,71.73,35.9,65.73a3.5,3.5,0,0,1-.52-.74s-9.87,4-15.14-3.84-2.63-19.93,8.84-15.32C29.08,45.83,24.54,7.69,62.17,7.08Z"/><g class="cls-17"><path class="cls-15" d="M30.32,53.66c2,3.3,1.56,7.22-1,8.76s-4.56-.13-6.56-3.42-3.22-7-.68-8.52S28.32,50.36,30.32,53.66Z"/></g><path class="cls-15" d="M30.92,54.62a7.72,7.72,0,0,0-1.7-2.37,9.61,9.61,0,0,0-2.59-1.87,6.42,6.42,0,0,0-3.09-.71,2.56,2.56,0,0,0-1.39.36c0,.08.58-.05,1.39,0a6.56,6.56,0,0,1,2.77.94,9.53,9.53,0,0,1,2.26,1.87,11.12,11.12,0,0,1,.82,1A10.34,10.34,0,0,1,30.13,55l.16.32h0a3.08,3.08,0,0,0-1.6-.36,3.52,3.52,0,0,0-1.62.48,2.34,2.34,0,0,0-.47.32l-.17.14-.14.17a3.1,3.1,0,0,0-.33.46,3.41,3.41,0,0,0-.47,1.65,3,3,0,0,0,.42,1.59c.25.37.45.57.51.53s0-.31-.17-.68a3.18,3.18,0,0,1-.08-1.39,2.72,2.72,0,0,1,.54-1.2,3.72,3.72,0,0,1,.4-.44l.12-.11a1.68,1.68,0,0,1,.33-.29,3,3,0,0,1,1.21-.55,3.34,3.34,0,0,1,1.38,0l.36.1a8,8,0,0,1,.59,2,6.88,6.88,0,0,1,0,1.57,5.37,5.37,0,0,1-.35,1.33c-.3.76-.65,1.21-.59,1.26a2.67,2.67,0,0,0,.93-1.1,4.87,4.87,0,0,0,.54-1.4,6.49,6.49,0,0,0,.14-1.72A8.4,8.4,0,0,0,30.92,54.62Z"/><g class="cls-17"><path class="cls-15" d="M74.8,53.3a3.2,3.2,0,0,1-3.73,2.13,2.7,2.7,0,0,1-2.61-3.07s-2.65,2.31-2.54,3.46S77.19,60.39,74.8,53.3Z"/></g><path class="cls-15" d="M65.92,55.55c.07,0,.26-.34.63-.8a6.55,6.55,0,0,1,1.58-1.43A7.11,7.11,0,0,1,70,52.44a4.88,4.88,0,0,1,.92-.17,1.43,1.43,0,0,1,.25-.05,5.08,5.08,0,0,1,.65,0,2.59,2.59,0,0,1,1.77.63,3.18,3.18,0,0,1,.89,1.79c.11.57.12,1,.2,1a1.89,1.89,0,0,0,.19-1,3.31,3.31,0,0,0-.77-2.24,2.78,2.78,0,0,0-1.09-.79,3.8,3.8,0,0,0-1.13-.28,5.63,5.63,0,0,0-.81,0l-.31,0a5,5,0,0,0-1,.3,7.16,7.16,0,0,0-2,1.18,5.79,5.79,0,0,0-1.48,1.79C65.93,55.11,65.86,55.53,65.92,55.55Z"/><path class="cls-3" d="M53.53,48.4c.11,2.49,1.49,4.46,3.07,4.39s2.78-2.15,2.67-4.65-1.49-4.46-3.07-4.39S53.42,45.9,53.53,48.4Z"/><path class="cls-3" d="M77.76,47.46c.11,2.5,1.49,4.46,3.08,4.39s2.78-2.15,2.66-4.65S82,42.74,80.43,42.82,77.64,45,77.76,47.46Z"/><path class="cls-14" d="M84.93,23.7c-.29-.85-.6-1.7-1-2.55C79.25,10.21,62.17,7.08,62.17,7.08c-37.63.61-33.09,38.75-33.09,38.75l-.66-.24c.12.61.24,1.17.35,1.67a7.93,7.93,0,0,1,5.78,3.25c2.53,3.25,0,3.25,0,3.25l6.78-.9-.82-11.39s9-2.71,10.3-14.63a65.37,65.37,0,0,0,24.94-2.35A28.85,28.85,0,0,0,84.93,23.7Z"/><path class="cls-18" d="M24.07,29.55s1.45,10.84,2.53,15.54a7.93,7.93,0,0,1,5.78,3.25,17.32,17.32,0,0,1,3.14,7.07l5.25-.5-1.25-15.5s7.86-2.81,9.12-14.74a65.13,65.13,0,0,0,24.94-2.35A27.42,27.42,0,0,0,84,21.15s3.34,8,3,13.46a50.32,50.32,0,0,0,.72,12.65l2.53-1.81L89.3,38s6-8.13-.55-16.53c0,0,13.74-6,1.45-21.14A23.16,23.16,0,0,1,72.49,2.45C62.74-.44,32.74-3.34,29.13,11.84,29.13,11.84,16.12,17.62,24.07,29.55Z"/><path class="cls-16" d="M90.33.45C81,12.24,63.79,18.54,49.43,12.54a18.62,18.62,0,0,1-1.85-.9,11.24,11.24,0,0,1-7.51-9.7c-5.47,1.7-9.72,4.76-10.94,9.9a16.19,16.19,0,0,0-3,1.85A59.94,59.94,0,0,0,48.24,27.1a21.61,21.61,0,0,0,.4-2.43,65.13,65.13,0,0,0,24.94-2.35A27.42,27.42,0,0,0,84,21.15s3.34,8,3,13.46a50.32,50.32,0,0,0,.72,12.65l2.53-1.81L89.3,38s6-8.13-.55-16.53C88.75,21.42,102.37,15.5,90.33.45Z"/><path class="cls-16" d="M36,31.72c-6.93,1-10.53-1.09-12.18-2.59l.26.42s1.45,10.84,2.53,15.54a7.93,7.93,0,0,1,5.78,3.25,17.32,17.32,0,0,1,3.14,7.07l5.25-.5-.45-5.59-2-10s9-2.71,10.3-14.64C48.64,24.67,46.47,30.27,36,31.72Z"/><path class="cls-16" d="M87,34.61a50.32,50.32,0,0,0,.72,12.65l2.53-1.81L89.3,38s5.93-8.1-.51-16.48c-3.46.59-4.82-.32-4.82-.32S87.31,29.19,87,34.61Z"/><path class="cls-19" d="M82.23,16a26.19,26.19,0,0,0,3-3.36,21.13,21.13,0,0,0,2-3.37,14.27,14.27,0,0,0,.61-1.44,9.54,9.54,0,0,0,.38-1.15,3.73,3.73,0,0,0,.23-1c-.09,0-.5,1.44-1.57,3.43a22.89,22.89,0,0,1-2.12,3.2,25.83,25.83,0,0,1-3,3.17A32.14,32.14,0,0,1,74.87,20a33.59,33.59,0,0,1-3.44,1.48S70.05,22,67.9,22.7a49.18,49.18,0,0,1-8.06,1.72,46,46,0,0,1-8.25.31c-2.26-.13-3.74-.41-3.76-.33a4.28,4.28,0,0,0,1,.29c.65.14,1.59.31,2.73.44a41.51,41.51,0,0,0,8.36,0,47.24,47.24,0,0,0,8.25-1.53c2.2-.63,3.63-1.19,3.63-1.19a34.09,34.09,0,0,0,3.49-1.59A31.85,31.85,0,0,0,82.23,16Z"/><path class="cls-19" d="M84.13,20.2l.48-.29.45-.34a12.47,12.47,0,0,0,1.15-.95,17.13,17.13,0,0,0,2.89-3.43,18.8,18.8,0,0,0,1.9-4,6.86,6.86,0,0,0,.46-2A10.75,10.75,0,0,0,90.63,11a21.77,21.77,0,0,1-2.13,3.76,16.79,16.79,0,0,1-2.91,3.12,12,12,0,0,1-1.11.85l-.44.3-.44.29a11,11,0,0,1-1.2.72,19,19,0,0,1-4,1.61c-3,.89-6.22.93-6.22,1.09a7.3,7.3,0,0,0,2,.13,22.87,22.87,0,0,0,4.39-.52,19,19,0,0,0,4.22-1.47A12.33,12.33,0,0,0,84.13,20.2Z"/><path class="cls-19" d="M94.72,7.32c-.17,0-.12,2.75-.78,5.36a13,13,0,0,1-1.28,3.39,6.41,6.41,0,0,1-.63,1l-.25.37-.28.34a5.38,5.38,0,0,1-.77.87,9,9,0,0,1-3,1.93,14.11,14.11,0,0,1-3.54.89,6.22,6.22,0,0,0-1.69.23,6,6,0,0,0,1.71.17A12.92,12.92,0,0,0,88,21.25a9.32,9.32,0,0,0,3.37-1.92,7.66,7.66,0,0,0,.91-.92L92.6,18l.26-.42a6.89,6.89,0,0,0,.64-1.12,13.63,13.63,0,0,0,1.15-3.68A15.19,15.19,0,0,0,94.72,7.32Z"/><path class="cls-19" d="M30.41,9.72a9.32,9.32,0,0,1,1.26-2.28,11,11,0,0,1,2.11-2.08,17.09,17.09,0,0,1,5-2.44c1.47-.45,2.48-.65,2.48-.65s1-.26,2.54-.53a55.4,55.4,0,0,1,5.67-.69C51.58.88,53.67.81,55.24.74A14.94,14.94,0,0,0,57.86.55a14.27,14.27,0,0,0-2.62-.2c-1.58-.06-3.68-.1-5.79,0a52.38,52.38,0,0,0-5.78.48c-1.58.22-2.62.46-2.62.46S40,1.51,38.5,2A17.26,17.26,0,0,0,33.34,4.8,10.83,10.83,0,0,0,31.2,7.11,9.35,9.35,0,0,0,30,9.59a7.26,7.26,0,0,0-.25,1.06,3.87,3.87,0,0,0-.11.83,2.24,2.24,0,0,0,0,.72C29.77,12.22,29.85,11.16,30.41,9.72Z"/><path class="cls-19" d="M79,5.2s.79-.14,2-.39a28.35,28.35,0,0,0,4.25-1.3,17.73,17.73,0,0,0,3.91-2.13A6.12,6.12,0,0,0,90.65,0a13,13,0,0,0-1.69,1A20.26,20.26,0,0,1,85,2.83a30.63,30.63,0,0,1-4.19,1.06c-1.16.19-1.94.3-1.94.3a52.61,52.61,0,0,1-6.28.63c-3.16.16-6.33-.08-6.35.07a27.45,27.45,0,0,0,6.36.65A47.55,47.55,0,0,0,79,5.2Z"/><path class="cls-19" d="M36.29,9.37,37,8.78A24.55,24.55,0,0,1,39.19,6.9,26.15,26.15,0,0,0,41.6,5.16,7.34,7.34,0,0,0,38.8,6.3,17.81,17.81,0,0,0,36.29,8l-.67.68a12,12,0,0,0-1.28,1.68,6.74,6.74,0,0,0-.83,1.95c-.13.56-.1.95,0,1s.18-.35.42-.83a7.92,7.92,0,0,1,1-1.66A11.92,11.92,0,0,1,36.29,9.37Z"/><path class="cls-19" d="M37.78,12.77a13.71,13.71,0,0,1,2.88-3,18.1,18.1,0,0,1,3.62-2c1.06-.4,1.77-.63,1.77-.63l.5-.15c.32-.09.76-.27,1.32-.39A33,33,0,0,1,52,5.86c3-.4,6.14-.29,6.15-.43a22.07,22.07,0,0,0-6.22-.29,31.4,31.4,0,0,0-4.26.6c-.58.11-1,.27-1.39.35l-.52.14S45,6.5,43.91,7a17,17,0,0,0-3.69,2.28,12.3,12.3,0,0,0-2.77,3.31,5.63,5.63,0,0,0-.73,1.81A13.33,13.33,0,0,0,37.78,12.77Z"/><path class="cls-19" d="M23.44,22c.08,0,.19-.35.46-.84A11,11,0,0,1,25,19.39a14.8,14.8,0,0,1,2-2.17s.26-.26.66-.63a7.33,7.33,0,0,1,1.64-1.11,3.5,3.5,0,0,1,1.88-.41c.53,0,.89.2.93.11s0-.09-.2-.19a1.77,1.77,0,0,0-.66-.31,3.52,3.52,0,0,0-2.22.13,7.71,7.71,0,0,0-2,1c-.47.36-.78.62-.78.62A14,14,0,0,0,24.39,19a8.09,8.09,0,0,0-.86,2A1.6,1.6,0,0,0,23.44,22Z"/><path class="cls-19" d="M31.34,23.25a6,6,0,0,1,.1-.77,11,11,0,0,1,.64-2.28,13.82,13.82,0,0,1,1.09-2.15c.34-.56.63-.91.57-1s-.43.22-.89.73a10.26,10.26,0,0,0-1.43,2.09,11.2,11.2,0,0,0-.9,2.39,4.59,4.59,0,0,0-.17.84,3.15,3.15,0,0,0-.05.32,10.08,10.08,0,0,0,0,1.2,5.38,5.38,0,0,0,.92,2.49,4.35,4.35,0,0,0,2.16,1.48,2.6,2.6,0,0,0,1.15.12c0-.08-.41-.25-1-.49a4.24,4.24,0,0,1-1.7-1.51,4.77,4.77,0,0,1-.58-2.16c0-.63,0-1,0-1S31.32,23.43,31.34,23.25Z"/><path class="cls-19" d="M32.65,31.45c0-.09-.74.17-1.83.25A7.05,7.05,0,0,1,29,31.59a7.53,7.53,0,0,1-2-.71,9,9,0,0,1-2.93-2.58,10.13,10.13,0,0,1-.95-1.51,10,10,0,0,1-.76-1.62,10.39,10.39,0,0,1-.71-3.86A9.41,9.41,0,0,1,22,19.23a7.43,7.43,0,0,1,.72-1.7c.54-1,1.09-1.47,1-1.53a4,4,0,0,0-1.37,1.31,7.93,7.93,0,0,0-.93,1.75,9.72,9.72,0,0,0-.48,2.22,10.91,10.91,0,0,0,.54,4.21,12,12,0,0,0,.75,1.79,11,11,0,0,0,1.12,1.6,9.68,9.68,0,0,0,3.34,2.65,8.25,8.25,0,0,0,2.21.63,7.1,7.1,0,0,0,2-.06A4.21,4.21,0,0,0,32.65,31.45Z"/><path class="cls-19" d="M47.47,29.34a17.3,17.3,0,0,1-1.67,3.29,13.55,13.55,0,0,1-2.38,2.77,8.64,8.64,0,0,1-.92.77l-.36.28s-.52.4-1.36.92a14.62,14.62,0,0,1-3.33,1.47,17.46,17.46,0,0,1-3.63.62,7.88,7.88,0,0,0-1.71.12,5.22,5.22,0,0,0,1.71.27,14.29,14.29,0,0,0,3.81-.31,14.5,14.5,0,0,0,3.61-1.35,13.57,13.57,0,0,0,1.51-.93l.37-.31a8.2,8.2,0,0,0,1-.87A14.1,14.1,0,0,0,46.42,33a15,15,0,0,0,1.43-3.55,5.34,5.34,0,0,0,.25-1.72A7.69,7.69,0,0,0,47.47,29.34Z"/><path class="cls-19" d="M90.8,25.25a10.41,10.41,0,0,0-1.44-2.67c-.49-.67-.93-1-1-1s.27.48.64,1.19a13.17,13.17,0,0,1,1.09,2.69,17,17,0,0,1,.54,2.84c0,.79.07,1.31.07,1.31V30a9.35,9.35,0,0,1,0,1,12.17,12.17,0,0,1-.39,2.85,8.65,8.65,0,0,1-1.19,2.61c-.45.65-.84,1-.78,1.1a3,3,0,0,0,1.09-.86A8,8,0,0,0,91.05,34a12.32,12.32,0,0,0,.64-3c.06-.42,0-.77,0-1s0-.39,0-.39,0-.56-.16-1.39A15.21,15.21,0,0,0,90.8,25.25Z"/><path class="cls-14" d="M65.52,78.66c5.6-.43,12.52.11,17.12-2.79,2.52-1.6,4.35-4.23,4.88-8.62a39.21,39.21,0,0,0,.81-7.81,34.61,34.61,0,0,1-3,10.64C81.91,76.64,71,78.37,54.8,76.64S36.33,64,36.33,64l-.28,1.85c5.87,6,4,15.8,7.37,18.26A25.5,25.5,0,0,0,50.77,88c2-3.68,4.76-7.51,7.14-7.05s3.9,3.74,4.68,6.57c.41-.16.82-.33,1.23-.52C65.19,83.76,62,80.3,65.52,78.66Z"/><path class="cls-18" d="M89.43,40.32c-.12,0-2.58-.09-2.7-.08l.07.33.14-.29-.33,18.27s-4.55-3.55-18-2.33-21.66,6-21.66,6-1.15-11.35-7.42-17.29l-12.67.34c2.53,1.12,8.07,5.09,8.17,10.33.13,7.25-.5,8.21-.5,8.21-1.16,2,3.55,9.67,5,11A25.94,25.94,0,0,0,50,80.54c7.3,2,18,1.38,25.4.31,15.51-2.25,16.69-8.2,16.54-16.12C91.73,55.18,90.22,43.2,89.43,40.32Z"/><path class="cls-16" d="M91.91,64.73c-.18-9.55-1.69-21.53-2.48-24.41-.12,0-2.58-.09-2.7-.08l.07.33.14-.29-.2,11.4c3,4.1,4.18,9.27,1.58,14.36-4.44,8.68-13.27,11.26-22.1,10.82-5.92-.3-11.12-.44-16.44-3.49-3.59-2.06-5.86-5.42-7.6-9.08a20.73,20.73,0,0,1-2.06-8.57c0-2.91,1.29-4.19,3-6.08-.23-.42-.48-.83-.73-1.24l0-.06c-.25-.4-.52-.78-.79-1.16l-.08-.09c-.27-.37-.56-.73-.86-1.08l-.08-.08a13.4,13.4,0,0,0-1-1L38,45l-10,.27h-.18l-.6,0h-.32c2.53,1.12,8.07,5.09,8.17,10.33.13,7.25-.5,8.21-.5,8.21-1.16,2,3.55,9.67,5,11A25.94,25.94,0,0,0,50,80.54c7.3,2,18,1.38,25.4.31l1.41-.22C91,78.23,92,72.4,91.91,64.73Z"/><path class="cls-19" d="M77.29,60.54a3.33,3.33,0,0,1-.56,1.15,9,9,0,0,1-1.9,2.08,7.86,7.86,0,0,1-2.53,1.38,6.1,6.1,0,0,1-.93.24l-.36.07h-.37a4.93,4.93,0,0,1-1,0A6.5,6.5,0,0,1,67,64.48a7.61,7.61,0,0,1-2.08-1.9,3.52,3.52,0,0,1-.61-1.11c.06,0,.4.33.9.86a8.43,8.43,0,0,0,2.13,1.55,5.91,5.91,0,0,0,2.46.65,5.54,5.54,0,0,0,.84,0l.32,0,.31,0a5.55,5.55,0,0,0,.83-.16,7.84,7.84,0,0,0,2.37-1.07,11.23,11.23,0,0,0,2-1.76C76.91,60.9,77.22,60.5,77.29,60.54Z"/><path class="cls-18" d="M58.91,36.69c-.08.07-.3,0-.6-.17a4.32,4.32,0,0,0-1.1-.28,3.68,3.68,0,0,0-1.08.06l-.47.11a5,5,0,0,0-1.55.42c-.77.32-1.36,1-1.55.9s.15-1.08,1-1.77a5.4,5.4,0,0,1,1.84-1,5.72,5.72,0,0,1,.68,0,4.1,4.1,0,0,1,1.45.29,3,3,0,0,1,1.17.85C58.9,36.38,59,36.62,58.91,36.69Z"/><path class="cls-18" d="M83.45,36.54c-.22.06-.63-.65-1.22-1a3.11,3.11,0,0,0-.86-.36L81,35.05l-.4-.1a1.1,1.1,0,0,0-.43-.08c-.15,0-.34,0-.51,0-.72,0-1.45.41-1.6.23s.43-.88,1.34-1.25a5.91,5.91,0,0,1,.69-.19,1.75,1.75,0,0,1,.63-.06l.63,0,.58.28a3.45,3.45,0,0,1,1,.87C83.58,35.56,83.62,36.51,83.45,36.54Z"/></g></g></g></svg>