<svg xmlns="http://www.w3.org/2000/svg" viewBox="0 0 99.94 92.62"><defs><style>.cls-1{isolation:isolate;}.cls-2{fill:#1b205e;}.cls-10,.cls-3{opacity:0.4;}.cls-10,.cls-13,.cls-14,.cls-3,.cls-6,.cls-7,.cls-8,.cls-9{mix-blend-mode:multiply;}.cls-10,.cls-14,.cls-4{fill:#1d255b;}.cls-13,.cls-5{fill:#cc5252;}.cls-6{opacity:0.3;}.cls-7{opacity:0.6;}.cls-8{fill:#c87568;opacity:0.8;}.cls-12,.cls-9{fill:#d2e4ff;}.cls-11{fill:#4052a0;}.cls-13{opacity:0.5;}.cls-14,.cls-17,.cls-19{opacity:0.2;}.cls-15{fill:#65a1ff;}.cls-16{fill:#fad0bf;}.cls-17,.cls-18{fill:#fa7296;}.cls-20{fill:#963e35;}.cls-21{fill:#ba5443;}</style></defs><title>speechРесурс 9</title><g class="cls-1"><g id="Слой_2" data-name="Слой 2"><g id="OBJECTS"><path class="cls-2" d="M30.23,67.5c0,.37,0,.74-.07,1.12v0c-.17,2.8-.45,5.71-.81,8.63h0c-.05.33-.09.68-.14,1h0c-.25,1.91-.55,3.82-.88,5.7-.27,1.54-.57,3-.89,4.52-.19.85-.37,1.69-.56,2.5h0c-.12.54-.25,1.07-.37,1.59H15.66l.43-1.49.23-.81L17,88.07l.11-.37.16-1.37,2.68-22.61s.48-10.73,1.75-13h0a1.24,1.24,0,0,1,.17-.24l.31-.33.13-.13A12.76,12.76,0,0,1,24,48.51l.36-.24.34-.21a4.62,4.62,0,0,1,1.11-.45l.18,0,.22,0a2.43,2.43,0,0,1,2.27,1.32,7,7,0,0,1,.68,1.5,1.72,1.72,0,0,1,.07.21,25.46,25.46,0,0,1,.93,5.4v0c0,.25.05.51.07.77h0A88.84,88.84,0,0,1,30.23,67.5Z"/><g class="cls-3"><path class="cls-4" d="M30.23,67.5c0,.37,0,.74-.07,1.12v0c-.17,2.8-.45,5.71-.81,8.63h0c-.05.33-.09.68-.14,1h0c-.25,1.91-.55,3.82-.88,5.7-.27,1.54-.57,3-.89,4.52-.19.85-.37,1.69-.56,2.5h0c-.12.54-.25,1.07-.37,1.59H15.66l.43-1.49.23-.81L17,88.07l.11-.37.16-1.37,2.68-22.61s.48-10.73,1.75-13h0a1.24,1.24,0,0,1,.17-.24l.31-.33.13-.13A12.76,12.76,0,0,1,24,48.51l.36-.24.34-.21a4.62,4.62,0,0,1,1.11-.45l.18,0,.22,0a2.43,2.43,0,0,1,2.27,1.32,7,7,0,0,1,.68,1.5,1.72,1.72,0,0,1,.07.21,25.46,25.46,0,0,1,.93,5.4v0c0,.25.05.51.07.77h0A88.84,88.84,0,0,1,30.23,67.5Z"/></g><g class="cls-3"><path class="cls-4" d="M30.23,67.5c0,.37,0,.74-.07,1.12v0c-.17,2.8-.45,5.71-.81,8.63h0c-.05.33-.09.68-.14,1h0c-.25,1.91-.55,3.82-.88,5.7-.27,1.54-.57,3-.89,4.52-.19.85-.37,1.69-.56,2.5h0c-.12.54-.25,1.07-.37,1.59h-6.1c0-.25-.05-.51-.08-.76a.09.09,0,0,1,0,0A3.93,3.93,0,0,0,17,88.07l.11-.37.16-1.37a2,2,0,0,0,.33-.08,10.27,10.27,0,0,0,7.06-6.83h0c2.94-8,.29-20.48.63-27.27A4.68,4.68,0,0,0,24,48.51l.36-.24.34-.21a4.62,4.62,0,0,1,1.11-.45l.18,0,.22,0a2.43,2.43,0,0,1,2.27,1.32,7,7,0,0,1,.68,1.5,1.72,1.72,0,0,1,.07.21,25.46,25.46,0,0,1,.93,5.4v0c0,.25.05.51.07.77h0A88.84,88.84,0,0,1,30.23,67.5Z"/></g><polygon class="cls-5" points="22.3 92.62 0 92.62 2.88 85.14 16.32 90.32 20.33 91.86 22.3 92.62"/><g class="cls-6"><polygon class="cls-5" points="22.3 92.62 19.95 92.62 16.09 91.13 3.69 86.36 3.68 86.36 3.12 86.14 0.62 92.62 0 92.62 2.88 85.14 16.32 90.32 20.33 91.86 22.3 92.62"/></g><g class="cls-7"><polygon class="cls-5" points="22.3 92.62 7.82 92.62 3.69 86.36 3.68 86.36 2.88 85.14 16.32 90.32 20.33 91.86 22.3 92.62"/></g><path class="cls-8" d="M46.64,17.76c3.74-.64,7.33-1.93,9.57-5.63a7.64,7.64,0,0,1-1,2S54.53,19.3,54,21.52a3.77,3.77,0,0,0-2.74,1.53,3.69,3.69,0,0,0-1,2.57l-2.57-.52.77-6.32A6.25,6.25,0,0,1,46.64,17.76Z"/><path class="cls-9" d="M33.63,49.36c.16-.37.32-.74.46-1.12A6.66,6.66,0,0,0,34,50.31S33.82,50,33.63,49.36Z"/><path class="cls-2" d="M61.79,48.77a2.29,2.29,0,0,1,0,.25h0c-.24,2.9-2.24,9.47-4.11,16.4a1,1,0,0,1,0,.16h0C56,71.68,54.48,78,54.36,82.34c-.09,3.31.07,7,.31,10.28H27c0-.41,0-.76,0-1.05s0-.35-.05-.54h0l0-.24c0-.15,0-.29,0-.45s0-.32-.06-.48,0-.33-.07-.5c-.07-.52-.15-1.08-.24-1.67-.05-.31-.1-.63-.16-1a1.85,1.85,0,0,0,0-.23c-.07-.41-.14-.83-.23-1.26v0c-.08-.38-.15-.77-.24-1.17s-.2-1-.31-1.44c-.25-1.07-.53-2.14-.84-3.18h0c-.31-1-.65-2-1-3-1.11-2.77-1.92-7.93-2.29-13.06,0-.38,0-.59,0-.59s0-.22,0-.59a4.19,4.19,0,0,0,0-.5v-.07s0,0,0,0h0a0,0,0,0,0,0,0,0,0,0,0,0,0,0,44.34,44.34,0,0,1,.47-10.78h0a3.71,3.71,0,0,1,.92-2,25.92,25.92,0,0,1,10.32-4.9H33l.44-.1,1.19-.25.42-.07.15,0,.42-.06h0l.75-.1h0c.53-.08,1.07-.14,1.64-.19h0l.36,0h0c.47,0,1-.08,1.46-.1h0c.61,0,1.23,0,1.87,0h.33s0,0,0,0a32.62,32.62,0,0,1,5.78.59h0l.33.06.39.08h.06l.19,0h0l.45.1q1.14.27,2.19.57l.08,0c1.25.37,2.42.77,3.49,1.18l.73.29.19.08.5.21.58.25.07,0,.26.11.36.16.26.13.31.15.25.12.29.14.24.11.26.14.22.11.23.12.2.11a1,1,0,0,1,.21.11l.18.09.19.11.15.08.16.09.14.08.13.08.11.06.11.07.08,0h0s.06.05.09.05h0l0,0,.07,0h0Z"/><path class="cls-10" d="M61.79,48.77a2.29,2.29,0,0,1,0,.25h0c-.24,2.9-2.24,9.47-4.11,16.4a1,1,0,0,1,0,.16h0C56,71.68,54.48,78,54.36,82.34c-.09,3.31.07,7,.31,10.28h-10A11.86,11.86,0,0,0,38.72,91a11.14,11.14,0,0,0-1.74.13h0l-.1,0h-.08l-.2,0a11.67,11.67,0,0,0-3.79,1.39H27c0-.41,0-.76,0-1.05s0-.35-.05-.54h0l0-.24c0-.15,0-.29,0-.45s0-.32-.06-.48,0-.33-.07-.5c-.07-.52-.15-1.08-.24-1.67-.05-.31-.1-.63-.16-1a1.85,1.85,0,0,0,0-.23c-.07-.41-.14-.83-.23-1.26v0c-.08-.38-.15-.77-.24-1.17s-.2-1-.31-1.44A16.93,16.93,0,0,0,28.33,84a17.84,17.84,0,0,0,3.83,1c.36.06.73.11,1.1.14h0a18.92,18.92,0,0,0,2.61.06,2.73,2.73,0,0,0,.41,0h0a.16.16,0,0,0,.07,0l.24,0,.59-.05.15,0h.2c.56-.07,1.13-.17,1.69-.29l.2-.05h0c.37-.09.74-.19,1.1-.31C48.42,82,54.24,73.63,55.47,65.74c.14-.92.27-1.81.38-2.7h0a53.2,53.2,0,0,0,.27-10.83h0c-.13-1.7-.35-3.44-.66-5.26a10.81,10.81,0,0,0-.33-1.39l.73.29.19.08.5.21.25.1.33.15.07,0,.26.11.36.16.26.13.31.15.25.12.29.14.24.11.26.14.22.11.23.12.2.11a1,1,0,0,1,.21.11l.18.09.19.11.15.08.16.09.14.08.13.08.11.06.11.07.08,0h0l.08,0s0,0,0,0h0l0,0,.07,0h0Z"/><path class="cls-11" d="M23.6,76.32a2.09,2.09,0,0,0-.09-.58c-.07-.37-.18-.9-.3-1.53s-.27-1.36-.41-2.15-.31-1.63-.4-2.48c-.2-1.7-.46-3.39-.51-4.67l-.15-2.14s0-.21,0-.58,0-.9,0-1.54,0-1.38,0-2.18.08-1.65.12-2.5.14-1.7.2-2.5.13-1.55.19-2.18.11-1.17.14-1.55a2.44,2.44,0,0,0,0-.59,2.56,2.56,0,0,0-.12.58c-.05.37-.13.9-.22,1.54s-.19,1.37-.28,2.17-.21,1.65-.27,2.5-.12,1.71-.18,2.52,0,1.55,0,2.2a15.22,15.22,0,0,0,0,1.55c0,.38,0,.59,0,.59s.07.86.19,2.14.36,3,.61,4.69c.11.85.33,1.69.48,2.48s.31,1.53.48,2.14.3,1.15.4,1.51A3.21,3.21,0,0,0,23.6,76.32Z"/><path class="cls-11" d="M36.92,92.62h-.37c0-.2,0-.4,0-.61s0-.53,0-.78,0-.23,0-.34a7.25,7.25,0,0,1,.12-1.51,10.11,10.11,0,0,1,.15,1.8v.12l0,.71C36.91,92.22,36.91,92.42,36.92,92.62Z"/><path class="cls-12" d="M49.23,42.87S45.13,53.38,43.08,58s-2.56,14.86-3.33,17.17-2.48,11-2.48,11a45.07,45.07,0,0,1-6.75-15.56c-2.05-9.23,0-21.53,3.59-26.4S44.36,40.06,49.23,42.87Z"/><path class="cls-9" d="M49.23,42.87S45.13,53.38,43.08,58s-2.56,14.86-3.33,17.17-2.48,11-2.48,11a45.07,45.07,0,0,1-6.75-15.56c-2.05-9.23,0-21.53,3.59-26.4S44.36,40.06,49.23,42.87Z"/><path class="cls-5" d="M41.8,47s-1.28,3.2-3.08,4.22c0,0,.52,7,.77,12.44S37.1,87.51,37.1,87.51s-4.27-12.09-5-17.47S35.9,51,35.9,51s-1.92-.77-1.41-4.62S41,39.8,41.8,47Z"/><path class="cls-13" d="M36.13,67.17c.34-4.78,1.64-9.73.39-14.47a2.05,2.05,0,0,0-.8-1.21c.12-.34.18-.54.18-.54a2.88,2.88,0,0,1-1.41-2.37,4.14,4.14,0,0,0,2,.73,3.08,3.08,0,0,0,3.32-2.93,3.34,3.34,0,0,0-.64-2.07,2.4,2.4,0,0,0-1.33-1,2.28,2.28,0,0,0-1.73.23,1.78,1.78,0,0,0-.27.17c2-1.92,5.37-2,5.93,3.3,0,0-1.28,3.2-3.08,4.22,0,0,.52,7,.77,12.44S37.1,87.51,37.1,87.51s-.69-2-1.57-4.65C35.87,77.64,35.75,72.39,36.13,67.17Z"/><path class="cls-10" d="M28.66,51.94c4.79-11.69,7.48-9.77,7.48-9.77a53.13,53.13,0,0,0-3.76,23.16A104.13,104.13,0,0,0,37,89c.44-5.22,1.6-17.83,3.18-25.28,2-9.55,8.83-18,7.82-22.8,0,0,4.62,2.4,4.45,7s-1.85,14.33-3.7,16.35-5.72,1-5.72,1,3.53,5.79,2.19,9.69a52,52,0,0,1-3.75,7.73c-.82,1.5-1.66,3-2.47,4.5s-1.1,2.9-2.15,4.1c-.7-1.3-2.19-2.41-3.07-3.67A31.55,31.55,0,0,1,31.11,83a45.32,45.32,0,0,1-3.21-9.19c-1.39-6,1.4-9.58,1.4-9.58C27.08,63.64,25.3,60.14,28.66,51.94Z"/><path class="cls-11" d="M48,40.89s4.62,2.31,4.45,6.77-1.85,13.79-3.7,15.74-5.72,1-5.72,1,3.53,5.57,2.19,9.33S39.51,84.3,36.82,89.46c0,0,1.35-17.42,3.37-26.61S49,45.49,48,40.89Z"/><path class="cls-14" d="M41.69,67.41A11.49,11.49,0,0,0,40.2,62.8l.06-.27a10.27,10.27,0,0,0,5-2.48c3.77-3,4.63-7.63,5.14-12.11A8.33,8.33,0,0,0,48.11,42a4.54,4.54,0,0,0-.1-1.12s4.62,2.31,4.45,6.77-1.85,13.79-3.7,15.74-5.72,1-5.72,1,3.53,5.57,2.19,9.33S39.51,84.3,36.82,89.46c0,0,.11-1.43.32-3.67C40.29,80.21,42.41,73.88,41.69,67.41Z"/><path class="cls-11" d="M37.34,88.11a96.62,96.62,0,0,1-5-23.69,49.43,49.43,0,0,1,3.76-22.29s-2.69-1.85-7.48,9.39c-3.36,7.9-1.58,11.27.64,11.8,0,0-2.79,3.45-1.4,9.22,1.15,4.83,4.31,13.13,9.26,17Z"/><path class="cls-14" d="M31.71,73c-.4-1.91-1.2-6.94-3.41-7.84a7.71,7.71,0,0,1,1-1.83,3,3,0,0,1-1.92-1.59c1.71-1.27,2.66-3.88,3.1-6a25.73,25.73,0,0,1,1.57-5.84A65.08,65.08,0,0,0,35.56,42v0a.92.92,0,0,1,.57.11,49.43,49.43,0,0,0-3.76,22.29,96.62,96.62,0,0,0,5,23.69l-.18,1.39a19.59,19.59,0,0,1-4.41-5.15C33.42,80.66,32.42,76.39,31.71,73Z"/><path class="cls-12" d="M47,37.75a5.22,5.22,0,0,1,.56,7.69A13.57,13.57,0,0,1,41,50.82s1.2-4.87-2.56-7.77c0,0-5,2.3-4.49,7.26a13.36,13.36,0,0,1-1-6.58C33.51,40.48,39.66,35.18,47,37.75Z"/><path class="cls-9" d="M35.21,43.66s0-.06,0-.09a5.78,5.78,0,0,0-.51-2.89A11.58,11.58,0,0,1,47,37.75a5.43,5.43,0,0,1,2,4.81,2.13,2.13,0,0,0-1.61-.73c-2.66-.07-5.33,0-6.59,2.87-.11.26-.21.53-.3.79a6.72,6.72,0,0,0-2-2.44A9.27,9.27,0,0,0,35.07,46,6.26,6.26,0,0,0,35.21,43.66Z"/><path class="cls-15" d="M39,42.25a9.86,9.86,0,0,1-3.05-.78c0-.07,1.53.37,3.08.44a13.21,13.21,0,0,0,2.12,0l.69-.09a1.11,1.11,0,0,0,.26,0l.26,0a6.37,6.37,0,0,0,.68-.14,8.32,8.32,0,0,0,2-.72,7.33,7.33,0,0,0,1.69-1.24,7.79,7.79,0,0,1,.67-.71,3.56,3.56,0,0,1-.53.83,6.65,6.65,0,0,1-1.66,1.42,8.13,8.13,0,0,1-2,.85,5.67,5.67,0,0,1-.7.17l-.27.06-.27,0-.73.07A12.9,12.9,0,0,1,39,42.25Z"/><path class="cls-15" d="M34.65,46.26a3.88,3.88,0,0,1,.23-.46,1.32,1.32,0,0,1,.09-.17s.15-.24.41-.57A6.35,6.35,0,0,1,36.49,44a5.25,5.25,0,0,1,1.38-.67l.49-.1-.16-.11c-.36-.23-.64-.32-.63-.36s.08,0,.21,0a2.31,2.31,0,0,1,.51.17,4.14,4.14,0,0,1,1.3,1,6.7,6.7,0,0,1,.9,1.38c.1.21.17.38.23.5l.08.19a10.68,10.68,0,0,1,.46,2.33,7.78,7.78,0,0,1,0,1.63,1.67,1.67,0,0,1-.19.71A3.62,3.62,0,0,1,41,50a9.15,9.15,0,0,0-.11-1.57,11.38,11.38,0,0,0-.58-2.21L40.28,46c-.05-.11-.11-.28-.19-.48a6.82,6.82,0,0,0-.77-1.35,4.88,4.88,0,0,0-.86-.89l-.53.22a5.88,5.88,0,0,0-1.23.76,6.61,6.61,0,0,0-1,1.07c-.22.32-.35.55-.35.55l-.09.16a3.2,3.2,0,0,0-.24.41,11.24,11.24,0,0,0-.59,1.35c-.36,1-.54,2.09-.61,2.08a6.74,6.74,0,0,1,.29-2.18A8.52,8.52,0,0,1,34.65,46.26Z"/><path class="cls-15" d="M32.89,45a12.47,12.47,0,0,1,.14-1.4c.06-.38.12-.63.12-.63s.08-.25.22-.61A6.17,6.17,0,0,1,34,41.15a5.12,5.12,0,0,1,1-1c.31-.22.54-.35.55-.32s-.16.2-.42.46a6.09,6.09,0,0,0-.81,1.07,5.94,5.94,0,0,0-.54,1.22,5.76,5.76,0,0,0-.17.58s-.07.24-.15.6a13.32,13.32,0,0,0-.24,1.34,15.93,15.93,0,0,1-.23,2A8.1,8.1,0,0,1,32.89,45Z"/><path class="cls-15" d="M43.42,49.38c.55-.47,1.27-1.12,1.95-1.81a18.4,18.4,0,0,0,1.71-2,9.11,9.11,0,0,0,.64-1,7.77,7.77,0,0,0,.56-1A5.3,5.3,0,0,0,48.79,41a4.24,4.24,0,0,0-.31-1.33,5.09,5.09,0,0,0-.61-1c-.43-.57-.8-.89-.77-.92a1.15,1.15,0,0,1,.28.19,4.8,4.8,0,0,1,.64.61,4.92,4.92,0,0,1,.71,1.05,4.34,4.34,0,0,1,.4,1.41,5.58,5.58,0,0,1-.44,2.69,8,8,0,0,1-1.26,2.13,16.8,16.8,0,0,1-1.83,2,21.8,21.8,0,0,1-2.07,1.7,6.26,6.26,0,0,1-1,.66A6.59,6.59,0,0,1,43.42,49.38Z"/><path class="cls-11" d="M82.19,50s5.53-.66,9.61,5.79C91.8,55.83,84.06,57.91,82.19,50Z"/><path class="cls-16" d="M82.83,50.68a5.5,5.5,0,0,1,.22-2.7,6.71,6.71,0,0,1,1.42-2.47c.78-.85,1.65-1.5,1.87-2.73.09-.49,0-1,.12-1.49a5.53,5.53,0,0,1,.86-2.76c.93-1,1.88.42,2.15,1.31a7.22,7.22,0,0,1,0,3.07c0,.17-.14.37-.19.54a7,7,0,0,1,1.33-1.83,13,13,0,0,0,1.48-2.48,12.35,12.35,0,0,1,1.07-2.23c1.38-2.09,5.54-3.08,6,.18a10.15,10.15,0,0,1-2.27,7.09s2.33-1.42,3-.42-1.75,3.83-4.92,5.67-5.89,4.2-6.33,6.16C88.58,55.59,83.74,54.68,82.83,50.68Z"/><path class="cls-17" d="M98.49,43.48c-3.6,4.89-9,10.12-14.21,5.42a7.19,7.19,0,0,1-1.09-1.28c0,.12-.1.24-.14.36a5.5,5.5,0,0,0-.22,2.7c.91,4,5.75,4.91,5.75,4.91.44-2,3.16-4.33,6.33-6.16s5.58-4.67,4.92-5.67C99.56,43.36,99,43.35,98.49,43.48Z"/><path class="cls-18" d="M84.24,45.51c-.14-.12,1.6-1.24,2.06-3.1.06-.46.21-.91.22-1.33s0-.87,0-1.25A2.19,2.19,0,0,1,87,38.56a1.55,1.55,0,0,1,.29-.27,1.1,1.1,0,0,1,1.11-.17,2.23,2.23,0,0,1,1,1,3.85,3.85,0,0,1,.44,1.43,4,4,0,0,1-.55,2.65,2.55,2.55,0,0,1-.82.9s.29-.39.61-1a3.89,3.89,0,0,0,.32-2.47,2.64,2.64,0,0,0-1.19-1.94c-.45-.15-.72.35-.71.31a1.51,1.51,0,0,0-.38.93c-.06.33-.06.74-.1,1.21a11,11,0,0,1-.32,1.44,7.93,7.93,0,0,1-.66,1.3,4.14,4.14,0,0,1-.85.94A6.14,6.14,0,0,1,84.24,45.51Z"/><path class="cls-18" d="M96.08,48.76s.79-.82,1.7-1.88A8.12,8.12,0,0,0,99,45.1a1.78,1.78,0,0,0,.22-.9c0-.28-.21-.4-.38-.54h0a2,2,0,0,0-1.16.23c-.37.17-.69.34-.94.47l-.72.39s-.14.07-.38.22l-1,.59a16.57,16.57,0,0,1-3.18,1.53,11.86,11.86,0,0,0-3.07,1.55,4.83,4.83,0,0,0-.79.8,1.58,1.58,0,0,1-.29.33s0-.15.19-.4a3.89,3.89,0,0,1,.73-.91,11,11,0,0,1,3.06-1.78,16.5,16.5,0,0,0,3-1.61l1-.63.37-.23.78-.39c.25-.13.56-.29,1-.46a7.2,7.2,0,0,1,.7-.23,1.41,1.41,0,0,1,1,.08h0a1.64,1.64,0,0,1,.41.38l.15.28a1.54,1.54,0,0,1,0,.31,2.12,2.12,0,0,1-.31,1.14A9.1,9.1,0,0,1,98,47.1a15.84,15.84,0,0,1-1.34,1.22A2.55,2.55,0,0,1,96.08,48.76Z"/><path class="cls-18" d="M93.82,45.41c-.08,0-.27-.56-.74-.85a3.56,3.56,0,0,0-1-.45c.05,0-2.27-.79-2.18-1a14.4,14.4,0,0,1,2.4.43,3.56,3.56,0,0,1,1.08.7C93.88,44.71,93.91,45.41,93.82,45.41Z"/><path class="cls-18" d="M98.7,36.59c0,.06-.31.08-.73.24a2.64,2.64,0,0,0-1.23,1A6.23,6.23,0,0,0,96,39.25l-.27.71s-.48,1.14-1.09,2.24a7.31,7.31,0,0,1-1,1.42c-.32.35-.53.56-.57.54a2.34,2.34,0,0,1,.37-.69,9,9,0,0,0,.8-1.47c.48-1.11.9-2.28.9-2.28l.33-.7a5.81,5.81,0,0,1,.93-1.49,2.69,2.69,0,0,1,1.51-.94A1.55,1.55,0,0,1,98.7,36.59Z"/><path class="cls-18" d="M97.76,34.84a6,6,0,0,0-2.33,1.32,4.6,4.6,0,0,0-.93,1.56,5.67,5.67,0,0,0-.29.8s-.48,1.31-1.07,2.6a9.55,9.55,0,0,1-1,1.68c-.32.42-.54.69-.58.67s.7-1.22,1.16-2.53.89-2.64.89-2.64a8.49,8.49,0,0,1,.35-.82,5.08,5.08,0,0,1,1.15-1.64,3.8,3.8,0,0,1,1.75-.93A2.18,2.18,0,0,1,97.76,34.84Z"/><path class="cls-2" d="M82.47,49.77C80.57,56.62,76.85,68,76.85,68L67,55.85c-1.66-2-3.56-5.4-5.53-7.13-2.52-2.21-4.61,1.49-5.5,4A18.39,18.39,0,0,0,55,56.9a10.58,10.58,0,0,0,1.18,6.72c2.25,3.48,5.72,6.59,8.65,9.5,2.71,2.69,11.12,12.14,15.8,9.14,6.38-4.09,10.59-23,11.3-26.47A15.61,15.61,0,0,1,82.47,49.77Z"/><path class="cls-10" d="M91.84,55.77a11.93,11.93,0,0,1-2.32-.64A21.47,21.47,0,0,1,87,63,9.88,9.88,0,0,1,77.8,68.1c-3-.22-6.32.43-9.22-.71-1.75-.69-3.47-2.5-4.79-3.81C61.14,61,59.61,56,61.39,52.51c.44-.87,1-1,1.55-1.68l.18-.26a14,14,0,0,0-1.69-1.85c-2.52-2.21-4.61,1.49-5.5,4A18.39,18.39,0,0,0,55,56.9a10.58,10.58,0,0,0,1.18,6.72c.14.21.29.41.44.62,7.49,8.67,19.36,21,24,18a6.28,6.28,0,0,0,.52-.38C86,78,90,63.69,91.84,55.77Z"/><path class="cls-11" d="M76.18,72.74a15.2,15.2,0,0,1,.38-3.53c.22-.88.4-1.41.4-1.41s-.08.55-.2,1.44a26.08,26.08,0,0,0-.19,3.49,21,21,0,0,0,.37,3.45l.34,1.42a14.2,14.2,0,0,1-.53-1.37A12.86,12.86,0,0,1,76.18,72.74Z"/><path class="cls-11" d="M76.55,71.87a7.6,7.6,0,0,1,0-2.26,7.43,7.43,0,0,1,.21-.91A28.34,28.34,0,0,0,77,71.85,10.38,10.38,0,0,0,77.59,74a4.58,4.58,0,0,0,.33.64l.14.24-.2-.22a2.81,2.81,0,0,1-.49-.61A5.79,5.79,0,0,1,76.55,71.87Z"/><path class="cls-8" d="M47.32,18.21C51.05,17.7,54.65,16.56,57,13a7.87,7.87,0,0,1-1.05,2S55.08,20,54.5,22.19a3.74,3.74,0,0,0-2.77,1.43,3.59,3.59,0,0,0-1.1,2.5l-2.53-.59,1-6.25A6,6,0,0,1,47.32,18.21Z"/><path class="cls-16" d="M26,19s-3.19-2.57-4,0,0,9.34,2.6,7.88S26,19,26,19Z"/><path class="cls-17" d="M26,19a7.05,7.05,0,0,0-1.32-.8,1.4,1.4,0,0,0-1.23,1.15c-.61,1.95-.29,6.25,1,7.64l.15-.07C27.22,25.44,26,19,26,19Z"/><path class="cls-18" d="M24.09,26.12a13.71,13.71,0,0,0,.39-1.81,7.7,7.7,0,0,0,0-1.83s0-.23-.08-.57A5.77,5.77,0,0,0,24,20.72a3.8,3.8,0,0,0-.71-1c-.24-.24-.44-.38-.42-.4a1.4,1.4,0,0,1,.5.31,3.34,3.34,0,0,1,.82,1,5,5,0,0,1,.46,1.23c.08.35.12.59.12.59a7.43,7.43,0,0,1-.06,1.9A4.74,4.74,0,0,1,24.09,26.12Z"/><path class="cls-18" d="M23,24.88a1.83,1.83,0,0,1,0-.79,3.06,3.06,0,0,1,.11-.53c.05-.15.09-.24.09-.24a.91.91,0,0,1,.12-.23c.05-.06.09-.13.15-.21l.2-.22a1.2,1.2,0,0,1,.72-.35c0,.05-.33.21-.56.5l-.15.22-.11.2a.82.82,0,0,0-.09.21l-.1.21c-.05.13-.11.3-.17.49A4.26,4.26,0,0,1,23,24.88Z"/><path class="cls-16" d="M38.45,3.79S30.4,5,28,10s-2.24,13.34-2.24,13.34a27.08,27.08,0,0,0-.18,8.21,5.17,5.17,0,0,0,2.14,4.12c2.11,1.44,5.36,1.3,8,1.59,1.6.83.07,2.39.66,3.94,3.77,2,7.1.71,9.61-1,1.62-1.11.88-5.8,3.83-8.51a1.62,1.62,0,0,0,.25-.34s4.56,2.05,7.16-1.55,1.56-9.3-3.89-7.32C53.32,22.5,56.08,4.7,38.45,3.79Z"/><g class="cls-19"><path class="cls-18" d="M52.61,26.14c-1,1.52-.85,3.36.32,4.13s2.14,0,3.13-1.5,1.62-3.22.46-4S53.6,24.63,52.61,26.14Z"/></g><path class="cls-18" d="M52.31,26.58a5.05,5.05,0,0,1,.37-.58,4.69,4.69,0,0,1,.47-.5,4.62,4.62,0,0,1,1.24-.83,3,3,0,0,1,1.46-.28,1.26,1.26,0,0,1,.65.19s-.27,0-.65,0a3,3,0,0,0-1.32.39,4.47,4.47,0,0,0-1.09.84,5.46,5.46,0,0,0-.4.48,4.89,4.89,0,0,0-.36.51,1.09,1.09,0,0,0-.08.15h0a1.42,1.42,0,0,1,.75-.15,1.63,1.63,0,0,1,.75.26,1.14,1.14,0,0,1,.22.16l.08.06.06.08a1.36,1.36,0,0,1,.14.23,1.53,1.53,0,0,1,.2.78,1.47,1.47,0,0,1-.22.74c-.13.16-.23.25-.25.24s0-.15.09-.32a1.7,1.7,0,0,0,.06-.65,1.42,1.42,0,0,0-.23-.57,2.49,2.49,0,0,0-.19-.22l-.05,0a1.08,1.08,0,0,0-.15-.14,1.4,1.4,0,0,0-.56-.28,1.78,1.78,0,0,0-.65,0l-.16,0a3.55,3.55,0,0,0-.31.92,3.66,3.66,0,0,0,0,.73,2.77,2.77,0,0,0,.15.63c.13.36.28.58.25.6a1.3,1.3,0,0,1-.42-.53,2.68,2.68,0,0,1-.23-.66,3.13,3.13,0,0,1,0-.81A3.87,3.87,0,0,1,52.31,26.58Z"/><g class="cls-19"><path class="cls-18" d="M31.77,25.24a1.5,1.5,0,0,0,1.71,1.06,1.27,1.27,0,0,0,1.28-1.39S36,26,35.89,26.57,30.53,28.52,31.77,25.24Z"/></g><path class="cls-18" d="M35.89,26.44s-.11-.16-.28-.38a3,3,0,0,0-.71-.7,3.33,3.33,0,0,0-.89-.44,2.48,2.48,0,0,0-.42-.1l-.12,0a1.82,1.82,0,0,0-.3,0,1.28,1.28,0,0,0-.85.27,1.54,1.54,0,0,0-.44.83c-.06.26-.07.46-.11.46s-.08-.19-.07-.49a1.56,1.56,0,0,1,.39-1,1.4,1.4,0,0,1,.53-.35,1.93,1.93,0,0,1,.53-.11,2.17,2.17,0,0,1,.38,0l.15,0a2.33,2.33,0,0,1,.49.15,3.49,3.49,0,0,1,.93.59,2.65,2.65,0,0,1,.67.86C35.9,26.24,35.92,26.43,35.89,26.44Z"/><path class="cls-17" d="M27.51,11.2c.15-.39.31-.78.49-1.18,2.4-5,10.45-6.23,10.45-6.23C56.08,4.7,53.32,22.5,53.32,22.5l.32-.11c-.07.29-.14.55-.2.78a3.73,3.73,0,0,0-2.76,1.43c-1.24,1.48,0,1.52,0,1.52l-3.16-.53L48,20.26s-4.19-1.41-4.59-7A30.73,30.73,0,0,1,31.8,11.72,13.34,13.34,0,0,1,27.51,11.2Z"/><path class="cls-20" d="M55.94,15S55.08,20,54.5,22.19a3.74,3.74,0,0,0-2.77,1.43,8.12,8.12,0,0,0-1.59,3.26l-2.45-.32.84-7.25s-3.63-1.44-4-7a30.73,30.73,0,0,1-11.65-1.52A12.76,12.76,0,0,1,28,10s-1.7,3.71-1.62,6.26a23.5,23.5,0,0,1-.54,5.92l-1.16-.89.55-3.5a6.55,6.55,0,0,1,.53-7.74s-6.34-3-.33-9.93a10.87,10.87,0,0,0,8.26,1.31C38.31.25,52.41-.61,53.86,6.57,53.86,6.57,59.86,9.49,55.94,15Z"/><path class="cls-8" d="M25.36.22c4.2,5.68,12.14,8.91,19,6.34.3-.12.6-.25.89-.4A5.27,5.27,0,0,0,48.9,1.74c2.53.89,4.47,2.4,5,4.83a7.86,7.86,0,0,1,1.36.91A28.32,28.32,0,0,1,44.65,13.4a9.82,9.82,0,0,1-.15-1.14,30.73,30.73,0,0,1-11.65-1.52A12.76,12.76,0,0,1,28,10s-1.7,3.71-1.62,6.26a23.5,23.5,0,0,1-.54,5.92l-1.16-.89.55-3.5a6.55,6.55,0,0,1,.53-7.74S19.47,7.07,25.36.22Z"/><path class="cls-8" d="M50.31,15.77c3.24.56,5-.34,5.75-1l-.12.19S55.08,20,54.5,22.19a3.74,3.74,0,0,0-2.77,1.43,8.12,8.12,0,0,0-1.59,3.26l-2.45-.32L48,24l1.09-4.67s-4.19-1.41-4.59-7C44.5,12.26,45.42,14.92,50.31,15.77Z"/><path class="cls-8" d="M26.38,16.28a23.5,23.5,0,0,1-.54,5.92l-1.16-.89.55-3.5a6.55,6.55,0,0,1,.51-7.72A3.27,3.27,0,0,0,28,10S26.3,13.73,26.38,16.28Z"/><path class="cls-21" d="M28.9,7.65A12,12,0,0,1,27.54,6a10.16,10.16,0,0,1-.89-1.61c-.11-.25-.19-.48-.26-.69a4.36,4.36,0,0,1-.16-.54,2.81,2.81,0,0,1-.09-.48c.05,0,.22.68.68,1.63a11.2,11.2,0,0,0,.94,1.54,13.91,13.91,0,0,0,1.37,1.53,14.93,14.93,0,0,0,3.16,2.22c.93.49,1.58.75,1.58.75s.64.29,1.64.63a21.1,21.1,0,0,0,3.75.94,21.24,21.24,0,0,0,3.86.29c1.06,0,1.76-.14,1.77-.1a1.76,1.76,0,0,1-.48.12,11.59,11.59,0,0,1-1.28.16,19.79,19.79,0,0,1-3.92-.13,22,22,0,0,1-3.84-.86c-1-.33-1.69-.61-1.69-.61S33,10.54,32.07,10A15,15,0,0,1,28.9,7.65Z"/><path class="cls-21" d="M27.94,9.57l-.22-.14-.2-.17A5.46,5.46,0,0,1,27,8.8,8,8,0,0,1,25.7,7.15a8.9,8.9,0,0,1-.83-1.92,3.16,3.16,0,0,1-.18-.92,4.86,4.86,0,0,1,.36.86A10.36,10.36,0,0,0,26,7,8.14,8.14,0,0,0,27.3,8.48a4.33,4.33,0,0,0,.51.41L28,9l.21.15a5.51,5.51,0,0,0,.55.35,8.75,8.75,0,0,0,1.83.82,29.38,29.38,0,0,0,2.89.62,3.27,3.27,0,0,1-.94,0,10.76,10.76,0,0,1-2.05-.31,8.72,8.72,0,0,1-1.95-.76C28.28,9.8,28.09,9.66,27.94,9.57Z"/><path class="cls-21" d="M23.19,3.37c.08,0,0,1.29.28,2.52A6.45,6.45,0,0,0,24,7.5a2.89,2.89,0,0,0,.28.47l.11.18.13.17a3.18,3.18,0,0,0,.35.42,4.14,4.14,0,0,0,1.36.95,6.67,6.67,0,0,0,1.64.47,2.81,2.81,0,0,1,.79.14,2.88,2.88,0,0,1-.8,0A6,6,0,0,1,26.11,10a4.59,4.59,0,0,1-1.55-.95,3.71,3.71,0,0,1-.41-.45L24,8.42l-.12-.2a4.07,4.07,0,0,1-.28-.53,6.62,6.62,0,0,1-.48-1.75A7.3,7.3,0,0,1,23.19,3.37Z"/><path class="cls-21" d="M53.3,5.55a4.35,4.35,0,0,0-.56-1.09,4.81,4.81,0,0,0-1-1,8.15,8.15,0,0,0-2.31-1.23c-.68-.23-1.15-.34-1.15-.34s-.47-.14-1.18-.29a26.06,26.06,0,0,0-2.65-.42c-1-.11-2-.18-2.68-.24A7.06,7.06,0,0,1,40.58.8,6.73,6.73,0,0,1,41.81.75c.74,0,1.73,0,2.71.08s2,.19,2.71.32,1.21.26,1.21.26.49.13,1.19.4A8.09,8.09,0,0,1,52,3.19a4.85,4.85,0,0,1,1,1.13,3.89,3.89,0,0,1,.51,1.17,2.6,2.6,0,0,1,.1.5,2.05,2.05,0,0,1,0,.39,1.26,1.26,0,0,1,0,.35C53.55,6.73,53.53,6.23,53.3,5.55Z"/><path class="cls-21" d="M30.58,2.63l-.93-.22a13.29,13.29,0,0,1-2-.68A8.21,8.21,0,0,1,25.89.67,2.44,2.44,0,0,1,25.22,0,7.76,7.76,0,0,1,26,.52a9.24,9.24,0,0,0,1.81.9,13.31,13.31,0,0,0,2,.56l.91.18a24.41,24.41,0,0,0,2.93.4c1.47.12,3,.06,3,.13a12.57,12.57,0,0,1-3,.21A22.55,22.55,0,0,1,30.58,2.63Z"/><path class="cls-21" d="M50.54,5.29c-.18-.18-.31-.29-.31-.29a11.67,11.67,0,0,0-1-.92,10.53,10.53,0,0,1-1.09-.85,3.62,3.62,0,0,1,1.29.58,8,8,0,0,1,1.14.84l.31.34a5.35,5.35,0,0,1,.57.81,3.06,3.06,0,0,1,.36.92c.05.27,0,.45,0,.45s-.08-.16-.18-.39a3.6,3.6,0,0,0-.47-.8A5.41,5.41,0,0,0,50.54,5.29Z"/><path class="cls-21" d="M49.79,6.86a6.06,6.06,0,0,0-1.3-1.43,7.94,7.94,0,0,0-1.66-1c-.49-.21-.83-.33-.83-.33L45.77,4a5.46,5.46,0,0,0-.61-.2,17.57,17.57,0,0,0-1.91-.45c-1.42-.23-2.87-.23-2.88-.3a10.46,10.46,0,0,1,2.92,0,14.74,14.74,0,0,1,2,.35,6,6,0,0,1,.64.19l.25.07s.34.14.84.38a7.93,7.93,0,0,1,1.7,1.13A5.9,5.9,0,0,1,50,6.76a2.85,2.85,0,0,1,.31.87A6.36,6.36,0,0,1,49.79,6.86Z"/><path class="cls-21" d="M56.36,11.4s-.08-.16-.2-.4a5.93,5.93,0,0,0-.49-.83,6.75,6.75,0,0,0-.9-1.05l-.3-.31a3.93,3.93,0,0,0-.75-.54A1.69,1.69,0,0,0,52.85,8c-.26,0-.42.08-.44,0s0,0,.09-.09a.81.81,0,0,1,.32-.13,1.64,1.64,0,0,1,1,.1,3.28,3.28,0,0,1,.9.52l.36.3A6.23,6.23,0,0,1,56,10a3.7,3.7,0,0,1,.37.95A.8.8,0,0,1,56.36,11.4Z"/><path class="cls-21" d="M52.63,11.87a1.77,1.77,0,0,0,0-.36,5.39,5.39,0,0,0-.26-1.08,6.11,6.11,0,0,0-.48-1c-.15-.27-.27-.44-.25-.47A1.32,1.32,0,0,1,52,9.3a5.08,5.08,0,0,1,.63,1A5.32,5.32,0,0,1,53,11.44a2.68,2.68,0,0,1,.06.39c0,.1,0,.16,0,.16s0,.22,0,.56a2.58,2.58,0,0,1-.47,1.15,2.08,2.08,0,0,1-1,.66c-.32.06-.54.06-.54,0s.2-.1.48-.21a1.94,1.94,0,0,0,.82-.68,2.14,2.14,0,0,0,.31-1,4,4,0,0,0,0-.49S52.64,12,52.63,11.87Z"/><path class="cls-21" d="M51.88,15.7s.35.09.86.14a3.19,3.19,0,0,0,.87,0,4,4,0,0,0,.93-.3A4.24,4.24,0,0,0,56,14.36a5.09,5.09,0,0,0,.47-.69,4.39,4.39,0,0,0,.38-.75,5.08,5.08,0,0,0,.4-1.79,4.39,4.39,0,0,0-.11-1,3.61,3.61,0,0,0-.31-.81c-.24-.46-.49-.71-.46-.74a1.9,1.9,0,0,1,.62.64,3.57,3.57,0,0,1,.41.83,4.52,4.52,0,0,1,.18,1,4.91,4.91,0,0,1-.32,2,5.17,5.17,0,0,1-.38.82,4.86,4.86,0,0,1-.55.74,4.55,4.55,0,0,1-1.61,1.18,3.61,3.61,0,0,1-1,.26,3.38,3.38,0,0,1-.93-.06A2.19,2.19,0,0,1,51.88,15.7Z"/><path class="cls-21" d="M45,14.46A8.29,8.29,0,0,0,45.7,16a6.75,6.75,0,0,0,1.07,1.34,3.68,3.68,0,0,0,.42.37l.17.14a5.3,5.3,0,0,0,.62.46,6.61,6.61,0,0,0,1.53.74,7.57,7.57,0,0,0,1.7.35,4.53,4.53,0,0,1,.79.08,2.22,2.22,0,0,1-.8.11,6.93,6.93,0,0,1-4.14-1.36l-.18-.16c-.1-.1-.26-.23-.43-.42a6.94,6.94,0,0,1-1.66-3.17,3.12,3.12,0,0,1-.09-.81A3.16,3.16,0,0,1,45,14.46Z"/><path class="cls-21" d="M24.73,11.83a5.25,5.25,0,0,1,.72-1.23,1.46,1.46,0,0,1,.47-.44s-.13.22-.32.55A6,6,0,0,0,25.05,12a8.32,8.32,0,0,0-.3,1.32c0,.37-.06.62-.06.62s0,.06,0,.16,0,.26,0,.45a5.6,5.6,0,0,0,.14,1.34,4.06,4.06,0,0,0,.51,1.24c.2.31.38.5.35.53s-.24-.12-.5-.42a3.67,3.67,0,0,1-.69-1.26,5.83,5.83,0,0,1-.25-1.42,3.78,3.78,0,0,1,0-.48v-.18s0-.26.09-.65A8,8,0,0,1,24.73,11.83Z"/><path class="cls-17" d="M35.7,37.28c-2.62-.29-5.87-.15-8-1.59a5.17,5.17,0,0,1-2.14-4.12,18,18,0,0,1-.25-3.67,16.13,16.13,0,0,0,1.21,5c1.51,3.14,6.58,4.13,14.22,3.58s8.86-5.6,8.86-5.6l.1.87c-2.85,2.73-2.14,7.34-3.75,8.44a12.27,12.27,0,0,1-3.51,1.69c-.9-1.76-2.11-3.6-3.23-3.43s-1.89,1.69-2.31,3l-.56-.27C35.77,39.67,37.3,38.11,35.7,37.28Z"/><path class="cls-20" d="M25.13,18.92h1.26l0,.15a1.42,1.42,0,0,1-.07-.14l-.14,8.57s2.19-1.59,8.48-.8a26.83,26.83,0,0,1,10,3.16s.73-5.3,3.76-8l5.93.37c-1.2.48-3.86,2.25-4,4.71-.19,3.4.09,3.86.09,3.86.51.93-1.82,4.47-2.51,5.06a12.23,12.23,0,0,1-5,2.53c-3.46.82-8.46.35-11.91-.28-7.23-1.3-7.69-4.12-7.49-7.82A69.76,69.76,0,0,1,25.13,18.92Z"/><path class="cls-8" d="M23.56,30.32a69.76,69.76,0,0,1,1.57-11.4h1.26l0,.15a1.42,1.42,0,0,1-.07-.14l-.09,5.34a6.24,6.24,0,0,0-1,6.71c1.94,4.14,6,5.5,10.18,5.44,2.78,0,5.22,0,7.76-1.37a9.15,9.15,0,0,0,3.72-4.13A9.6,9.6,0,0,0,48,27a3.8,3.8,0,0,0-1.28-2.9c.12-.19.24-.38.37-.57,0,0,0,0,0,0,.12-.18.25-.35.38-.53a.08.08,0,0,0,0,0c.13-.17.28-.33.42-.49s0,0,0,0,.31-.31.47-.46l.73.05,4.69.29H54l.28,0h.14c-1.2.48-3.86,2.25-4,4.71-.19,3.4.09,3.86.09,3.86.51.93-1.82,4.47-2.51,5.06a12.23,12.23,0,0,1-5,2.53c-3.46.82-8.46.35-11.91-.28L30.39,38C23.79,36.66,23.37,33.91,23.56,30.32Z"/><path class="cls-20" d="M42.48,17.81s-.14,0-.29,0a1.88,1.88,0,0,1-.53,0,1.78,1.78,0,0,1-.49-.15l-.2-.11a2.32,2.32,0,0,1-.65-.37c-.32-.24-.51-.61-.6-.59s-.06.51.23.92a2.44,2.44,0,0,0,.72.67,1.58,1.58,0,0,0,.3.09,1.72,1.72,0,0,0,.69,0,1.34,1.34,0,0,0,.63-.24C42.44,18,42.5,17.85,42.48,17.81Z"/><path class="cls-20" d="M31,17c-.09-.05-.35.23-.66.35a1.52,1.52,0,0,1-.43.07h-.39a.46.46,0,0,1-.2,0c-.07,0-.16,0-.24-.05-.32-.09-.61-.34-.7-.28s.1.45.48.72a2.09,2.09,0,0,0,.29.16,1.37,1.37,0,0,0,.28.1l.3.05.29-.07a1.59,1.59,0,0,0,.57-.28C31,17.49,31.07,17.05,31,17Z"/><path class="cls-2" d="M31.35,20.37c-.06,0-.19.25-.31.67s-.23,1-.39,1.47a2.29,2.29,0,0,1-.72,1.06,3,3,0,0,0-.36.18c-.06,0-.09,0-.1,0a.91.91,0,0,1-.49,0,1.66,1.66,0,0,1-1-.71c-.63-.83-.95-2-1.09-1.91a3.66,3.66,0,0,0,.54,2.27,2.35,2.35,0,0,0,1.34,1.2,2.5,2.5,0,0,0,.66.07l.24,0,.07,0a.37.37,0,0,0,.2-.08c.13-.08.32-.19.53-.34a2.87,2.87,0,0,0,.82-1.57,9.64,9.64,0,0,0,.11-1.59C31.41,20.67,31.42,20.39,31.35,20.37Z"/><path class="cls-2" d="M39.28,21.64c-.07,0-.12.31-.19.77A8.34,8.34,0,0,0,39,24.16,2.93,2.93,0,0,0,39.67,26l.28.27.13.12.16.07.26.12.29,0a1.67,1.67,0,0,0,.72-.1A3.41,3.41,0,0,0,43,25.32,4.28,4.28,0,0,0,44.14,23c-.11-.05-.74,1-1.61,1.83a3.05,3.05,0,0,1-1.26.76,1.3,1.3,0,0,1-.53,0l-.13-.05s-.16-.12-.31-.22a2.19,2.19,0,0,1-.66-1.28,15.8,15.8,0,0,1-.19-1.65C39.41,22,39.34,21.63,39.28,21.64Z"/><path class="cls-2" d="M31.18,27.79c.24.38,2.61,1.62,5.89.73,0,0-1.11,3.22-3.76,3.62S31.18,27.79,31.18,27.79Z"/><path class="cls-18" d="M37.54,28.17l-.12.11a2.57,2.57,0,0,1-.38.24,4,4,0,0,1-1.29.38,7.46,7.46,0,0,1-2,0,7.29,7.29,0,0,1-1.87-.59,4.28,4.28,0,0,1-1.12-.75,2.62,2.62,0,0,1-.3-.33c-.06-.09-.09-.14-.08-.15s.17.17.46.39a4.42,4.42,0,0,0,1.13.64,9.07,9.07,0,0,0,3.72.57A4.42,4.42,0,0,0,37,28.4C37.33,28.28,37.52,28.14,37.54,28.17Z"/><path class="cls-18" d="M33.85,32.85a1.67,1.67,0,0,1-.83.48,1.77,1.77,0,0,1-.69,0L32,33.24a1.7,1.7,0,0,1-.72-.69,1.22,1.22,0,0,1-.18-.66c0-.19.08-.3.09-.29a1.47,1.47,0,0,0,.28.83,1.55,1.55,0,0,0,.67.53,1.8,1.8,0,0,0,.82.15C33.42,33.05,33.82,32.8,33.85,32.85Z"/></g></g></g></svg>