<svg xmlns="http://www.w3.org/2000/svg" viewBox="0 0 53.82 58.66"><defs><style>.cls-1{fill:#fb9988;}.cls-2{fill:#fdbd8e;}.cls-3{fill:#171228;}.cls-4{fill:#28b69a;}.cls-5{fill:#909aa3;}.cls-6{fill:#ff9300;}.cls-7{fill:#cf691f;}.cls-8{fill:#85441d;}.cls-9{fill:#965326;}.cls-10{fill:#b5693c;}.cls-11{fill:#fff0e7;}.cls-12{fill:#ffdaba;}.cls-13{fill:#fd7d6f;}.cls-14{fill:#161818;}.cls-15{fill:#fc5b68;}.cls-16{fill:#fff;}.cls-17{fill:#ffb800;}</style></defs><title>Ресурс 5</title><g id="Слой_2" data-name="Слой 2"><g id="OBJECTS"><polygon class="cls-1" points="10.7 26.03 12.26 23.36 15.04 24.89 13.24 27.75 10.7 26.03"/><path class="cls-2" d="M13.59,28l-.35-.24-.36-1.34a3.76,3.76,0,0,1,1.62-2.66,1.63,1.63,0,0,1,.8-.2,4.83,4.83,0,0,1,1.18.1,13.39,13.39,0,0,1,2.35.68,17.22,17.22,0,0,1,2-1.83c.4-.3.63-.34.77-.29s.19.36.19.36l-2.22,4.3a30.54,30.54,0,0,1-4.83,1.9Z"/><rect class="cls-3" x="13.39" y="15.63" width="7.46" height="12.35" rx="0.7" ry="0.7" transform="translate(19.08 49.47) rotate(-145.92)"/><rect class="cls-4" x="14.41" y="16.64" width="5.91" height="9.63" transform="translate(19.72 48.95) rotate(-145.92)"/><path class="cls-5" d="M13.73,25.83a.56.56,0,0,0,.15.77.55.55,0,1,0,.62-.92A.56.56,0,0,0,13.73,25.83Z"/><path class="cls-2" d="M13.39,15.92a1.44,1.44,0,0,0,.13,1c.17.35.34.71.54,1.05a.36.36,0,0,1,.07.1,3.43,3.43,0,0,0,.32.43l.13.14a2.11,2.11,0,0,0,.53.37.44.44,0,0,0,.64-.44,3.33,3.33,0,0,0-.36-1.38,5.82,5.82,0,0,0-1.15-1.47C13.88,15.4,13.53,15.34,13.39,15.92Z"/><path class="cls-2" d="M12.86,17.82a1.44,1.44,0,0,0,.13,1c.11.22.22.46.34.68s.09.18.15.27a4,4,0,0,0,.44.63l.1.11a2.09,2.09,0,0,0,.55.4.44.44,0,0,0,.64-.45,3,3,0,0,0-.36-1.37,3.45,3.45,0,0,0-.27-.45,6.56,6.56,0,0,0-.43-.57.81.81,0,0,0-.09-.1C13.59,17.4,13.05,17.05,12.86,17.82Z"/><path class="cls-2" d="M12,19.25a1.43,1.43,0,0,0,.13,1c.14.28.28.58.44.86l.15.25a2.69,2.69,0,0,0,.34.47,1.88,1.88,0,0,0,.25.24,1.65,1.65,0,0,0,.41.28.45.45,0,0,0,.64-.45A3.18,3.18,0,0,0,14,20.49h0a5.08,5.08,0,0,0-.59-.88l-.1-.13C12.83,18.89,12.23,18.43,12,19.25Z"/><path class="cls-2" d="M11.5,21.08a1.43,1.43,0,0,0,.13,1c0,.05,0,.1.07.14a6.77,6.77,0,0,0,.86,1.45,2.3,2.3,0,0,0,.66.51.45.45,0,0,0,.64-.45,3.08,3.08,0,0,0-.36-1.38L13.34,22a6.3,6.3,0,0,0-.64-.85l-.1-.11C12.15,20.62,11.68,20.38,11.5,21.08Z"/><path class="cls-1" d="M13.39,15.92a1.44,1.44,0,0,0,.13,1c.17.35.34.71.54,1.05-.47-.54-1-.89-1.2-.12a1.44,1.44,0,0,0,.13,1c.11.22.22.46.34.68-.5-.58-1.1-1-1.3-.22a1.43,1.43,0,0,0,.13,1c.14.28.28.58.44.86-.45-.46-.92-.7-1.1,0a1.43,1.43,0,0,0,.13,1c0,.05,0,.1.07.14s0-.06,0-.09a1.32,1.32,0,0,1,.36-.64.62.62,0,0,1,.67-.13h0l-.06-.15a1.56,1.56,0,0,1-.15-1c.13-.38.68-.63.95-.34a.31.31,0,0,0,0-.08s0-.1-.05-.14a1.77,1.77,0,0,1-.09-1,.76.76,0,0,1,.79-.6h0l.1,0A2.93,2.93,0,0,1,14,16.23c.05-.18.14-.36.21-.54C13.88,15.4,13.53,15.34,13.39,15.92Z"/><path class="cls-6" d="M23.73,49s-1.8,1-4.37,2.25h0c-5.28,2.54-13.82,6-16.7,3.65-8.79-7.27,7-28,7.66-29.33l.38.22,6,3.52c-3,5.88-8.42,13.31-7.51,14.12,2.84-1.09,13.33-5.86,13.33-5.86Z"/><path class="cls-7" d="M19.36,51.26h0c-5.28,2.54-13.82,6-16.7,3.65-8.79-7.27,7-28,7.66-29.33l.38.22V26S-2.88,48.83,2.93,53.26s16.31-4,16.31-4Z"/><path class="cls-6" d="M46.22,40.12c-.21,1-.63,2.56-1.21,5.54-.44,2.3-1,4.91-1.66,7.56-.43,1.82-.89,3.65-1.32,5.44H20.12c0-.1,0-.19-.05-.27a54.62,54.62,0,0,1-.8-7.08c0-.65-.05-1.32-.05-2,0-4.55.64-9.52,3.26-11.72A19,19,0,0,1,28,34.15c.31-.11.58-.19.82-.25A4.82,4.82,0,0,1,30,33.72H37s1.37.32,2.89.86a24.87,24.87,0,0,1,6,3.61c.07.06.13.13.19.19h0a1.32,1.32,0,0,1,.2.27C46.42,39,46.39,39.34,46.22,40.12Z"/><path class="cls-7" d="M21.88,55.05l.7,0,1.87-.12a19.14,19.14,0,0,1,5.9.39c.55.14,1.11.32,1.67.47a15.4,15.4,0,0,0,1.66.35,13.61,13.61,0,0,0,2.87.09A4.47,4.47,0,0,0,37.66,56a2.63,2.63,0,0,0,.77-.39,2,2,0,0,0,.36-.39.71.71,0,0,0,.09-.16l-.13.12a1.49,1.49,0,0,1-.43.24,3.54,3.54,0,0,1-1.76.1A21.23,21.23,0,0,1,33.92,55c-.49-.13-1-.29-1.52-.47s-1.09-.38-1.7-.54a10.31,10.31,0,0,0-3.57-.27,16.07,16.07,0,0,0-2.79.54c-.78.22-1.39.44-1.81.59S21.88,55.05,21.88,55.05Z"/><path class="cls-8" d="M18.48,22.87c0-.15.07-.38.15-.66a5.93,5.93,0,0,1,.36-1,3.84,3.84,0,0,1,.72-1.08,4.1,4.1,0,0,1,1-.78,5.27,5.27,0,0,1,1-.38l.33-.08.2-.18-.06.15.2,0,.25,0-.58.38-.29.67a11.83,11.83,0,0,0-.84,2.65,15.67,15.67,0,0,0-.13,2.8c0,.38,0,.68,0,.9s0,.33,0,.33,0-.11-.13-.31-.2-.48-.32-.84A8.53,8.53,0,0,1,20,24.07a5.75,5.75,0,0,1,0-1.71,5,5,0,0,1,.58-1.61,6,6,0,0,1,.73-1.07,6.9,6.9,0,0,0-1.12,1A11.19,11.19,0,0,0,19,22.35c-.16.24-.29.43-.37.57l-.15.2Z"/><path class="cls-8" d="M40.34,27.61a13.2,13.2,0,0,0,1.87,3.09c1.66,2.1,4,3.88,6.66,4.06a9.38,9.38,0,0,1-3.53-2.36c.17.1.33.21.5.3a9,9,0,0,0,6.16,1,7.74,7.74,0,0,1-1.72-3.25,11.41,11.41,0,0,1-.37-2.6,37.15,37.15,0,0,1,.61-6.31,59.82,59.82,0,0,0,.69-10.35,10.87,10.87,0,0,0-3.08-7.65,4.69,4.69,0,0,0-7,.77,5.35,5.35,0,0,0-.41.7c-.17.38-.27.67,0,1a8,8,0,0,0,.84.91,6.22,6.22,0,0,1,1.5,3c-.13.11-.25.21-.37.33A8.1,8.1,0,0,0,41,12.93a23.34,23.34,0,0,0-1.64,8.27A15.51,15.51,0,0,0,40.34,27.61Z"/><path class="cls-9" d="M41.12,4.29a4.16,4.16,0,0,0,.57,1.25,3.39,3.39,0,0,1,3,2,8.44,8.44,0,0,1,.68,3.7,35.81,35.81,0,0,1-.42,5.67,34.51,34.51,0,0,0-.78,6,7,7,0,0,0,2.21,5.39A7.92,7.92,0,0,1,47,24.79a7.62,7.62,0,0,0,3.33,5.64,11.41,11.41,0,0,1-.37-2.6,25.45,25.45,0,0,1,.37-4.61c.08-.57.17-1.13.24-1.7a59.82,59.82,0,0,0,.69-10.35,10.87,10.87,0,0,0-3.08-7.65,4.8,4.8,0,0,0-4.08-1.14,4.61,4.61,0,0,0-1.15.4A4.9,4.9,0,0,0,41.12,4.29Z"/><path class="cls-10" d="M42.9,2.78a8.48,8.48,0,0,1,3.18,3.11,8,8,0,0,1,.53,2A18,18,0,0,1,47,10.57c.06,1.61-.3,3.2-.4,4.81A15.33,15.33,0,0,0,47.29,21a9.93,9.93,0,0,1,1-2.47,8.8,8.8,0,0,0,2,4.68c.08-.57.17-1.13.24-1.7a59.82,59.82,0,0,0,.69-10.35,10.87,10.87,0,0,0-3.08-7.65,4.8,4.8,0,0,0-4.08-1.14A4.61,4.61,0,0,0,42.9,2.78Z"/><path class="cls-11" d="M38.23,6.38A2.74,2.74,0,1,0,41,3.64,2.74,2.74,0,0,0,38.23,6.38Z"/><path class="cls-11" d="M28,34.15l-.73,8.21,3.62-1.84,1.88-2.33s0-3,0-4.46H30a4.82,4.82,0,0,0-1.23.18h0C28.57,34,28.3,34,28,34.15Z"/><path class="cls-2" d="M30.88,40.52,37,33.73c0-1-.09-1.38-.18-3.88-.1-2.77-.2-5.37-.2-5.37l-7.83,3.09a18.78,18.78,0,0,1,1.4,6.32A49.92,49.92,0,0,0,30.88,40.52Z"/><path class="cls-1" d="M28.75,27.57a18.78,18.78,0,0,1,1.4,6.32l.71.28c.91.31,3.83-2.28,5.92-4.32-.1-2.77-.2-5.37-.2-5.37Z"/><path class="cls-2" d="M20.53,18.27c.16.72.36,1.48.61,2.28,0,0-.35,3.92.06,4.8s3.06,6.36,5.83,6c2.31-.28,8-3.67,9.93-5.69a2.33,2.33,0,0,0,.69-1c.27-1.55,1.19-8.42,1.28-9,.24-1.56.89-13.34-13.36-10.06a6.85,6.85,0,0,0-5.17,5.14A17.21,17.21,0,0,0,20.53,18.27Z"/><path class="cls-8" d="M18.29,10.94a6.47,6.47,0,0,0,.37,1.84A6.55,6.55,0,0,0,20.61,16a20,20,0,0,1,.21-4.76c3.4,3.7,10.51,5,10.8,5-1.35-.42-1.75-3.11-1.75-3.11,1.62,3.79,8.74,4.56,8.74,4.56,1.7-1.38,2.88,1.24,2.88,1.24A32.11,32.11,0,0,0,42.92,16l.28-.69a9.51,9.51,0,0,0,.48-1.83c1-5.69-3.3-11.26-8.78-12.85h0C29.71-.88,23.59.49,20.7,3.35a5.94,5.94,0,0,0-1.22,1.7c-.05.09-.08.18-.12.27l0,.09a4.3,4.3,0,0,0-.28,1.68,5.8,5.8,0,0,0,.12,1A5.57,5.57,0,0,0,18.29,10.94Z"/><path class="cls-9" d="M19.36,5.32a4.51,4.51,0,0,0,1,.4c.69.18,1.41.19,2.1.38a4.31,4.31,0,0,1,2.15,1.34c1,1.14,1.45,2.83,2.8,3.52a4.35,4.35,0,0,0,3.08.06,10.71,10.71,0,0,1,3.08-.64,5.81,5.81,0,0,1,4.14,2.43,5.08,5.08,0,0,0,1,1.07,3.09,3.09,0,0,0,2,.42,7.34,7.34,0,0,0,3-.83,10.16,10.16,0,0,0-.59-5.39A12.76,12.76,0,0,0,34.9.62h0A17.16,17.16,0,0,0,24.71,1a11,11,0,0,0-4,2.39,5.94,5.94,0,0,0-1.22,1.7C19.43,5.14,19.4,5.23,19.36,5.32Z"/><path class="cls-10" d="M24.71,1c1.67,1.37,2.53,3.76,4.55,4.51A8.05,8.05,0,0,0,33,5.54a4.94,4.94,0,0,1,3.61.62c.51.41.86,1,1.35,1.43a4.58,4.58,0,0,0,3.91.85,7.65,7.65,0,0,0,1.24-.36A12.76,12.76,0,0,0,34.9.62h0A17.16,17.16,0,0,0,24.71,1Z"/><path class="cls-12" d="M21.14,20.55s-.35,3.92.06,4.8,3.06,6.36,5.83,6c2.31-.28,8-3.67,9.93-5.69-2.4,1.67-8.83,5.94-10.71,5.28-2.33-.81-5-6-4.92-6.48s.2-3.86.2-3.86-.47-1.06-1-2.35C20.69,19,20.89,19.75,21.14,20.55Z"/><path class="cls-12" d="M37,24.48a5.49,5.49,0,0,0,3.79-2.1,4.47,4.47,0,0,0,.37-.56c.52-.92.66-4.14-.65-4.88a1.4,1.4,0,0,0-1.91.73h0a2.44,2.44,0,0,0-.21.38Z"/><path class="cls-2" d="M37,24.48a5.49,5.49,0,0,0,3.79-2.1l.16-.25c.51-.93.65-4.14-.66-4.89a1.26,1.26,0,0,0-1.69.43h0a2.44,2.44,0,0,0-.21.38Z"/><path class="cls-1" d="M40.93,19.49a1.31,1.31,0,0,1-.06.78,6.31,6.31,0,0,1-2.47,2.66,2.67,2.67,0,0,0,.37-1.69,4.09,4.09,0,0,1-.07-.6C38.69,19.83,40.54,18,40.93,19.49Z"/><path class="cls-13" d="M37.89,23.24l.06,0a.91.91,0,0,1,.16-.1,2.5,2.5,0,0,0,.51-.46,2.1,2.1,0,0,0,.42-.86,1.81,1.81,0,0,0-.13-1.13.64.64,0,0,0-.08-.14l0,0h0l0,0,0-.06.08-.12a2.88,2.88,0,0,1,.31-.44,4.29,4.29,0,0,1,.33-.38,3,3,0,0,1,.32-.31.85.85,0,0,1,.34-.15.59.59,0,0,1,.28.05.31.31,0,0,1,.13.12s0,.05,0,.05a.28.28,0,0,0,0-.06.21.21,0,0,0-.1-.14.64.64,0,0,0-.33-.11.93.93,0,0,0-.44.13,2.7,2.7,0,0,0-.4.29,4.49,4.49,0,0,0-.4.37,3.94,3.94,0,0,0-.36.45l-.09.13,0,.06,0,.1,0,.06,0,.06,0,.09.07.13a1.87,1.87,0,0,1,.16,1,2,2,0,0,1-.27.82,2.19,2.19,0,0,1-.39.49,1.56,1.56,0,0,1-.13.13Z"/><path class="cls-11" d="M30.88,40.52l4.62,3.62,4.35-9.55c-1.52-.54-2.89-.86-2.89-.86Z"/><path class="cls-8" d="M35.26,20.76c0-.16.08-.39.16-.67a6.28,6.28,0,0,1,.36-1,4,4,0,0,1,.71-1.07,3.86,3.86,0,0,1,1-.78,4.63,4.63,0,0,1,1-.38l.33-.09a2.1,2.1,0,0,1,.2-.18l-.07.15.21,0,.25,0-.58.38c-.08.18-.18.41-.29.68a11.51,11.51,0,0,0-.84,2.65,15.53,15.53,0,0,0-.13,2.79c0,.38,0,.69,0,.9s0,.33,0,.33l-.13-.3c-.08-.2-.2-.49-.32-.85A8.25,8.25,0,0,1,36.81,22a5.69,5.69,0,0,1,0-1.7,5.33,5.33,0,0,1,.57-1.62,7.07,7.07,0,0,1,.74-1.07,7.44,7.44,0,0,0-1.12,1,11.19,11.19,0,0,0-1.26,1.71l-.38.57-.14.21Z"/><path class="cls-9" d="M19.24,15.45S21.06,13,22.07,14s.56,1.06.56,1.06Z"/><path class="cls-9" d="M33.64,15.82S30.28,12,28.91,13.33c-.81.8-.25,1.34-.25,1.34Z"/><path class="cls-14" d="M29.14,16.22a2.21,2.21,0,0,0,1.08.92.93.93,0,0,1,.69-.35c.65,0,1.18.85,1.18,1.9s-.53,1.9-1.18,1.9-1.18-.85-1.18-1.9a2.83,2.83,0,0,1,.14-.9A3.53,3.53,0,0,1,29.14,16.22Z"/><path class="cls-14" d="M23.48,18.87h-.14l-.36,0a2.42,2.42,0,0,0-.45,0L22,19l-.57.07a3,3,0,0,0-.45.12l-.33.13-.13.05.05-.13a1.92,1.92,0,0,1,.2-.33,1.39,1.39,0,0,1,.46-.38,2,2,0,0,1,.66-.21,2.28,2.28,0,0,1,.69,0,1.41,1.41,0,0,1,.57.21c.13.1.22.19.29.25Z"/><path class="cls-11" d="M33.22,17.63a2.66,2.66,0,0,1-1.13.94,2.74,2.74,0,0,1-1.48.11,2.44,2.44,0,0,1,2.61-1.05Z"/><path class="cls-1" d="M26.37,23.07a2.08,2.08,0,0,1,.89-.24,2.93,2.93,0,0,1-1.61,1.56.53.53,0,0,1-.17,0,.48.48,0,0,1-.2-.07,3.57,3.57,0,0,1-1-.91.67.67,0,0,1-.13-.25c-.08-.3.13-.23.31-.16a2.74,2.74,0,0,0,.64.17A2.83,2.83,0,0,0,26.37,23.07Z"/><path class="cls-15" d="M24.8,26.1a8.15,8.15,0,0,1,6.31-.89S30,27.77,28.4,28C26.41,28.2,24.8,26.1,24.8,26.1Z"/><path class="cls-16" d="M25,26.14a16.79,16.79,0,0,1,5.93-.86,3.29,3.29,0,0,1-2.76,2.23A3.41,3.41,0,0,1,25,26.14Z"/><path class="cls-13" d="M25.59,24.22,25,23.76a4.3,4.3,0,0,1-.63-.65c1-.67,1-1.68.91-2.84a3.2,3.2,0,0,0-.42-1.48,3.09,3.09,0,0,0-.48-.66,2.76,2.76,0,0,0-.3-.29,1.22,1.22,0,0,0-.34-.18c.06.06.1.14.16.21s.29.36.41.56a4,4,0,0,1,.31.62,3.82,3.82,0,0,1,.29,1.37,3.39,3.39,0,0,1-.21,1.34,2.78,2.78,0,0,1-1,1.26l.73.84a3.26,3.26,0,0,0,.55.43,1.26,1.26,0,0,0,.66.26.39.39,0,0,0,.21-.06l-.12-.09a.1.1,0,0,0,0,0A1.59,1.59,0,0,0,25.59,24.22Z"/><path class="cls-1" d="M22.71,23.48c-.15.41-1.05.46-2,.1s-1.59-1-1.44-1.4,1.06-.46,2-.1S22.87,23.06,22.71,23.48Z"/><path class="cls-1" d="M34.7,21.53c.16.63-.88,1.44-2.31,1.81s-2.74.17-2.9-.46.87-1.44,2.31-1.81S34.53,20.91,34.7,21.53Z"/><path class="cls-11" d="M39.86,16.77v0l0-.29-1,.17h0l-2.95.48h0l-1.25.21a2.89,2.89,0,0,0-.41-.75h0a3.25,3.25,0,0,0-.66-.77,3.84,3.84,0,0,0-2.4-1h-.23a3,3,0,0,0-.52,0,2.85,2.85,0,0,0-.58.12,3.6,3.6,0,0,0-1.15.55,4,4,0,0,0-1.69,2.8,2.37,2.37,0,0,0-1.75,0,3.6,3.6,0,0,0-3.45-3.09h-.13a3.45,3.45,0,0,0-1,.14h-.07l-.45.18h0a2.51,2.51,0,0,0-.7.42A3.62,3.62,0,0,0,19,21.26a3.22,3.22,0,0,0,.43.39,1.9,1.9,0,0,0,.33.22,2.37,2.37,0,0,0,.35.19,2,2,0,0,0,.34.14,3.07,3.07,0,0,0,.52.14h.1a1.25,1.25,0,0,0,.19,0h.67a3.57,3.57,0,0,0,3-2.13,3.09,3.09,0,0,0,.25-.78,3.31,3.31,0,0,0,.07-.55,1.73,1.73,0,0,1,1.69,0,4,4,0,0,0,2.62,3.53,3.75,3.75,0,0,0,1.34.24A3.93,3.93,0,0,0,34.1,21h0a3.93,3.93,0,0,0,.74-2.28,3.86,3.86,0,0,0-.09-.84l2.39-.39.23,0,1.34-.22h.06l.21,0,.22,0h0l.58-.09h.11Zm-18.22,5h-.16a1.72,1.72,0,0,1-.39,0h0l-.27-.07a2.36,2.36,0,0,1-.52-.21,2,2,0,0,1-.5-.31,2.56,2.56,0,0,1-.48-.45,3,3,0,0,1-.05-3.79,2.6,2.6,0,0,1,.71-.65,1.64,1.64,0,0,1,.22-.14,2,2,0,0,1,.42-.18h0a2.77,2.77,0,0,1,1-.18,3,3,0,0,1,3,2.63,2.56,2.56,0,0,1,0,.39,1,1,0,0,1,0,.24h0A3,3,0,0,1,21.64,21.79Zm11.8-.89a3.3,3.3,0,0,1-2.56,1.2,3.24,3.24,0,0,1-.94-.14h0a3.36,3.36,0,0,1-.5-6.25,3.2,3.2,0,0,1,1.24-.32h.21a3.36,3.36,0,0,1,3.36,3.36A3.31,3.31,0,0,1,33.44,20.9Z"/><path class="cls-6" d="M52,45.89c.09.82,1,6.6,1.82,12.77H44.63c-.5-2.16-1-4.09-1.28-5.44L42.9,51.3V42.36l2.3-3.23.66-.93c.07.06.13.13.19.19h0C47.1,39.46,51.85,44.38,52,45.89Z"/><path class="cls-7" d="M43.82,51.64s.91,3.15,2,7H44.63c-.5-2.16-1-4.09-1.28-5.44Z"/><path class="cls-17" d="M52,45.89c.09.82,1,6.6,1.82,12.77H52.46c-.75-5.62-1.54-11-2.05-12.77s-2.24-3.82-4.19-5.77l-1-1a69,69,0,0,0-5.35-4.54,24.87,24.87,0,0,1,6,3.61c.07.06.13.13.19.19h0C47.1,39.46,51.85,44.38,52,45.89Z"/></g></g></svg>