<svg xmlns="http://www.w3.org/2000/svg" viewBox="0 0 80.62 186.67"><defs><style>.cls-1{fill:#6c3509;}.cls-2{fill:#fdbd8e;}.cls-3{fill:#2e3032;}.cls-4{fill:#1f2123;}.cls-5{fill:#fb9988;}.cls-6{fill:#fd7d6f;}.cls-7{fill:#ffdaba;}.cls-8{fill:#ff9300;}.cls-9{fill:#cf691f;}.cls-10{fill:#ffb800;}.cls-11{fill:#85441d;}.cls-12{fill:#965326;}.cls-13{fill:#b5693c;}.cls-14{fill:#fff0e7;}.cls-15{fill:#ff7d6f;}.cls-16{fill:#161818;}.cls-17{fill:#006aab;}.cls-18{fill:#005789;}.cls-19{fill:#ebf1ed;}</style></defs><title>Ресурс 1</title><g id="Слой_2" data-name="Слой 2"><g id="OBJECTS"><path class="cls-1" d="M76.4,159.25l2.2-6.69c.47-1.45-1.11-5.28-1.11-5.28a13,13,0,0,0,3.05-.81c1-.52-7.21-3-7.21-3l-1.43,3.82,2.22,10,.42,1.9a1,1,0,0,0,.47.64A1,1,0,0,0,76.4,159.25Z"/><path class="cls-2" d="M74.12,157.26c6-8.16-.79-13.79-.79-13.79l-1.43,3.82Z"/><path class="cls-1" d="M1,186.67l7-.24c1.52-.05,4.58-2.84,4.58-2.84a13.18,13.18,0,0,0,1.81,2.58c.84.78.34-7.8.34-7.8l-4.08,0-8.6,5.5-1.64,1A1,1,0,0,0,1,186.67Z"/><path class="cls-2" d="M2.09,183.84c9.72,2.82,12.68-5.47,12.68-5.47l-4.08,0Z"/><path class="cls-3" d="M8.37,178.92h7.31s3.75-10.32,6.94-19.63C25,152.49,27,146.23,27,145c.05-3-1.88-7.85-1.88-7.85.91-3.88,6.37-33.41,6.37-33.41s-1.21,26.95,2.64,28.78l17.95,8.44,19.59,9.21,3.65-7.37S58.85,130.1,56.44,128.54a40.34,40.34,0,0,0-4.38-2.35c-4.42-2.09-9.61-4.07-9.61-4.07s3-10.34,3.91-15.21a12.46,12.46,0,0,0,0-3.19c-.7-7.31-4.64-21.44-4.64-21.44l-18.64-.81S18.84,92.2,17.85,97c0,.13-.06.32-.1.58-.83,5.33-4.52,37.91-7,60.19Z"/><path class="cls-4" d="M17.75,97.57c9.91.82,21.61,4,28.6,6.15-.7-7.31-4.64-21.44-4.64-21.44l-18.64-.81S18.84,92.2,17.85,97C17.82,97.12,17.79,97.31,17.75,97.57Z"/><path class="cls-4" d="M52.06,126.19a40.45,40.45,0,0,1,0,14.72l19.59,9.21,3.65-7.37S58.85,130.1,56.44,128.54A40.34,40.34,0,0,0,52.06,126.19Z"/><path class="cls-4" d="M8.37,178.92h7.31s3.75-10.32,6.94-19.63a81.78,81.78,0,0,1-11.89-1.53Z"/><path class="cls-2" d="M1.11,39c-.46.27,1.52,8.15,2.09,8.8l.9.79L5,52.51a6.38,6.38,0,0,0,1.56-.15,5.08,5.08,0,0,0,1.49-.59,4,4,0,0,0,.78-.61,12,12,0,0,0-.23-2.25s2.53-1.24,2.72-2.78A7.14,7.14,0,0,1,12,43.49a14.07,14.07,0,0,0,.71-1.26,1.65,1.65,0,0,0,0-1.39.26.26,0,0,0-.1-.13c-.1-.07-.23,0-.34,0l0,0a6,6,0,0,0-2.58,3s-1.84-4.12-1.94-5.38c0,0-.93-2.59-1.45-2.52a1.23,1.23,0,0,0-.48.18,1.12,1.12,0,0,0-.3.28s1.21,5.72,1.07,6-2.39-4.54-2.85-4.71a.64.64,0,0,0-.49.11,2.54,2.54,0,0,0-.49.39,4.94,4.94,0,0,0-.47.46l-.17.05c-.14,0-.36.12-.58.21A3.29,3.29,0,0,0,1.11,39Z"/><path class="cls-5" d="M1.11,39c-.46.27,1.52,8.15,2.09,8.8l.9.79L5,52.51a6.38,6.38,0,0,0,1.56-.15,9.69,9.69,0,0,1-.42-4.92c.27-1.57.94-3.06,1.07-4.65a10.69,10.69,0,0,0-.27-3,23.37,23.37,0,0,0-.84-3.05,6.61,6.61,0,0,0-.3-.71,1.12,1.12,0,0,0-.3.28s1.21,5.72,1.07,6-2.39-4.54-2.85-4.71a.64.64,0,0,0-.49.11,2.54,2.54,0,0,0-.49.39,4.94,4.94,0,0,0-.47.46l-.17.05c-.14,0-.36.12-.58.21A3.29,3.29,0,0,0,1.11,39Z"/><path class="cls-6" d="M2.75,38.08c0,.14.1.28.16.43A12.49,12.49,0,0,0,4,40.6c.3.48.52.77.55.81s-.1-.4-.27-.94-.44-1.35-.77-2.19c-.09-.2-.17-.4-.25-.59A2.54,2.54,0,0,0,2.75,38.08Z"/><path class="cls-6" d="M1.53,38.8a13.51,13.51,0,0,0,1.2,2.44,13.14,13.14,0,0,0-.62-2.65C2,38.63,1.75,38.71,1.53,38.8Z"/><path class="cls-7" d="M12.29,40.74V41a7.24,7.24,0,0,1-.87,2.24,16.6,16.6,0,0,1-1.07,3.14,7.59,7.59,0,0,1-2.1,1.84,1.38,1.38,0,0,0-.57.63,1.42,1.42,0,0,0,0,.71c.12.72.28,1.45.38,2.17a4,4,0,0,0,.78-.61,12,12,0,0,0-.23-2.25s2.53-1.24,2.72-2.78A7.14,7.14,0,0,1,12,43.49a14.07,14.07,0,0,0,.71-1.26,1.65,1.65,0,0,0,0-1.39.26.26,0,0,0-.1-.13C12.53,40.64,12.4,40.69,12.29,40.74Z"/><path class="cls-6" d="M8.33,44a3,3,0,0,0-2.18,1.18,5.17,5.17,0,0,0-1,2.34c.48-.49.68-1.28,1.12-1.83S7.65,44,8.33,44Z"/><path class="cls-8" d="M2.48,50.08C2.78,58.87,4.24,80,11.26,80c4,0,8.15-3.94,11.6-8.28h0a79.3,79.3,0,0,0,7.38-11.44l-2.7-13.94a10.26,10.26,0,0,0-2.82,2.32,27.45,27.45,0,0,0-2.57,3.19c-3.57,5.08-8.22,13.85-9.54,16,0,0-1.22-12.64-2.28-18.94l-1.79.28L3.33,50Z"/><path class="cls-9" d="M2.48,50.08C2.78,58.87,4.24,80,11.26,80c4,0,8.15-3.94,11.6-8.28h0l-.25-2.79S11.77,83.21,8.37,77.14c-2.78-5-4.5-21.39-5-27.19Z"/><path class="cls-10" d="M10.18,70.53c-.13.56,1.76,0,1.76,0s0,2.28.73,3,.62-3.93.62-3.93c.13-1,9.61-17.72,11.43-20.93a27.45,27.45,0,0,0-2.57,3.19c-3.57,5.08-8.22,13.85-9.54,16,0,0-1.22-12.64-2.28-18.94l-1.79.28L11.67,69S10.32,70,10.18,70.53Z"/><path class="cls-8" d="M48.77,50.63c-.21,1-.64,2.56-1.22,5.54-.44,2.3-1,4.91-1.66,7.55h0C44,71.79,41.66,80.3,41.71,82.28c0,0-10.3,6.19-18.64-.81,0,0-.05-10.65-.46-12.57S21.14,51.51,25,48.1a18.68,18.68,0,0,1,5.52-3.44,7.94,7.94,0,0,1,.81-.25h0a5.15,5.15,0,0,1,1.23-.17h6.93a27.18,27.18,0,0,1,2.89.86,23.32,23.32,0,0,1,6.2,3.8h0a1.23,1.23,0,0,1,.19.27C49,49.5,48.94,49.85,48.77,50.63Z"/><path class="cls-9" d="M24.42,65.55l.7,0L27,65.4a18.8,18.8,0,0,1,5.9.38l1.67.47a11.57,11.57,0,0,0,1.67.35,12.93,12.93,0,0,0,2.86.1,5.48,5.48,0,0,0,1.11-.21A2.75,2.75,0,0,0,41,66.1a1.79,1.79,0,0,0,.37-.39l.09-.16-.14.12a1.77,1.77,0,0,1-.43.24,3.63,3.63,0,0,1-1.75.1,21,21,0,0,1-2.65-.55c-.49-.13-1-.29-1.51-.47s-1.09-.38-1.71-.54a10,10,0,0,0-3.56-.27,15.14,15.14,0,0,0-2.8.54c-.77.22-1.39.43-1.81.59Z"/><path class="cls-11" d="M21,33.38c0-.16.08-.39.16-.67a5,5,0,0,1,.35-1,4.15,4.15,0,0,1,.72-1.08,3.88,3.88,0,0,1,1-.78,5.27,5.27,0,0,1,1-.38l.34-.09.19-.18-.06.15.21,0,.24,0-.58.38-.29.67A12.4,12.4,0,0,0,23.47,33a15.78,15.78,0,0,0-.14,2.8c0,.37,0,.68,0,.89v.34l-.14-.31c-.08-.2-.19-.48-.31-.85a7.18,7.18,0,0,1-.32-1.31,5.09,5.09,0,0,1,.57-3.33,7.07,7.07,0,0,1,.73-1.07,8.69,8.69,0,0,0-1.12,1,13.13,13.13,0,0,0-1.26,1.71l-.37.57a2.09,2.09,0,0,1-.15.21Z"/><path class="cls-11" d="M42.88,38.11a13.13,13.13,0,0,0,1.87,3.09c1.66,2.1,4,3.89,6.66,4.07a9.18,9.18,0,0,1-3.52-2.37l.49.31a9,9,0,0,0,6.16,1,7.61,7.61,0,0,1-1.71-3.25,11.5,11.5,0,0,1-.38-2.6A37.38,37.38,0,0,1,53.07,32a60.69,60.69,0,0,0,.68-10.35A10.86,10.86,0,0,0,50.67,14a4.69,4.69,0,0,0-7,.78,3.77,3.77,0,0,0-.41.7.91.91,0,0,0,0,1,7.93,7.93,0,0,0,.83.91,6.06,6.06,0,0,1,1.5,3,3.8,3.8,0,0,0-.37.33,8,8,0,0,0-1.63,2.68,23.13,23.13,0,0,0-1.65,8.27A15.44,15.44,0,0,0,42.88,38.11Z"/><path class="cls-12" d="M43.67,14.8a4.39,4.39,0,0,0,.56,1.25,3.39,3.39,0,0,1,3,2,8.5,8.5,0,0,1,.67,3.71,33.59,33.59,0,0,1-.42,5.67,35.36,35.36,0,0,0-.77,6,7.08,7.08,0,0,0,2.2,5.39,8.07,8.07,0,0,1,.59-3.47,7.65,7.65,0,0,0,3.34,5.64,11.5,11.5,0,0,1-.38-2.6,26.39,26.39,0,0,1,.37-4.61c.08-.57.17-1.14.25-1.71a60.69,60.69,0,0,0,.68-10.35A10.86,10.86,0,0,0,50.67,14a4.77,4.77,0,0,0-4.08-1.13,4.24,4.24,0,0,0-1.15.4A4.78,4.78,0,0,0,43.67,14.8Z"/><path class="cls-13" d="M45.44,13.29a8.46,8.46,0,0,1,3.18,3.1,8.82,8.82,0,0,1,.54,1.95,19.48,19.48,0,0,1,.38,2.73,46.06,46.06,0,0,1-.4,4.82,15.31,15.31,0,0,0,.7,5.62,10,10,0,0,1,1-2.46,8.74,8.74,0,0,0,2,4.68c.08-.57.17-1.14.25-1.71a60.69,60.69,0,0,0,.68-10.35A10.86,10.86,0,0,0,50.67,14a4.77,4.77,0,0,0-4.08-1.13A4.24,4.24,0,0,0,45.44,13.29Z"/><path class="cls-14" d="M40.77,16.89a2.74,2.74,0,1,0,2.74-2.74A2.74,2.74,0,0,0,40.77,16.89Z"/><path class="cls-14" d="M30.54,44.66l-.73,8.21L33.42,51,35.3,48.7s0-3,0-4.46H32.58a5.15,5.15,0,0,0-1.23.17h0A7.94,7.94,0,0,0,30.54,44.66Z"/><path class="cls-2" d="M33.42,51l6.09-6.79c0-1-.1-1.39-.19-3.88-.1-2.78-.2-5.38-.2-5.38l-7.83,3.1a18.54,18.54,0,0,1,1.4,6.31A52.28,52.28,0,0,0,33.42,51Z"/><path class="cls-5" d="M31.29,38.08a18.54,18.54,0,0,1,1.4,6.31c.25.11.49.2.72.28.91.32,3.83-2.27,5.91-4.31-.1-2.78-.2-5.38-.2-5.38Z"/><path class="cls-2" d="M23.07,28.77c.16.73.37,1.49.62,2.29,0,0-.35,3.92.06,4.8s3.05,6.35,5.82,6c2.31-.28,8-3.67,9.94-5.68a2.34,2.34,0,0,0,.68-1c.27-1.56,1.2-8.42,1.28-9,.24-1.56.89-13.35-13.36-10.07a6.88,6.88,0,0,0-5.17,5.15A17.32,17.32,0,0,0,23.07,28.77Z"/><path class="cls-15" d="M27.21,37.22l.86-.13c.53-.08,1.24-.18,2-.22a8.48,8.48,0,0,1,2,.12c.25,0,.46.11.6.15l.23.07-.19-.15a3.44,3.44,0,0,0-.56-.33,4.46,4.46,0,0,0-2.1-.4,6,6,0,0,0-2.06.5c-.25.11-.45.21-.58.28Z"/><path class="cls-15" d="M31.41,38.42a2.78,2.78,0,0,1-2.34.09,1.2,1.2,0,0,0,1.08.57A2,2,0,0,0,31.41,38.42Z"/><path class="cls-11" d="M20.83,21.45a6,6,0,0,0,.38,1.83,6.57,6.57,0,0,0,1.94,3.19,20.07,20.07,0,0,1,.22-4.77c3.4,3.71,10.5,5,10.79,5-1.34-.41-1.75-3.11-1.75-3.11,1.62,3.79,8.74,4.57,8.74,4.57C42.85,26.8,44,29.42,44,29.42c.57-1.07,1.05-2,1.43-2.93.09-.23.19-.46.27-.68A9.55,9.55,0,0,0,46.23,24c1-5.69-3.31-11.26-8.78-12.85h0c-5.18-1.5-11.3-.13-14.18,2.74A5.84,5.84,0,0,0,22,15.56l-.12.27,0,.09a4.48,4.48,0,0,0-.28,1.67,5.91,5.91,0,0,0,.12,1A5.66,5.66,0,0,0,20.83,21.45Z"/><path class="cls-12" d="M21.9,15.83a4.92,4.92,0,0,0,1,.4c.68.18,1.4.19,2.09.37a4.38,4.38,0,0,1,2.15,1.34c1,1.15,1.45,2.84,2.81,3.53a4.3,4.3,0,0,0,3.08.05,10.9,10.9,0,0,1,3.07-.63,5.79,5.79,0,0,1,4.14,2.43,5.08,5.08,0,0,0,1,1.07,3.24,3.24,0,0,0,2,.42,7.66,7.66,0,0,0,3-.83,10.16,10.16,0,0,0-.6-5.39,12.74,12.74,0,0,0-8.18-7.46h0a17,17,0,0,0-10.17.35,10.89,10.89,0,0,0-4,2.39A5.84,5.84,0,0,0,22,15.56Z"/><path class="cls-13" d="M27.26,11.47c1.67,1.37,2.52,3.76,4.54,4.51a8.05,8.05,0,0,0,3.72.07,4.93,4.93,0,0,1,3.61.62c.51.41.86,1,1.35,1.42a4.53,4.53,0,0,0,3.91.85,7.61,7.61,0,0,0,1.24-.35,12.74,12.74,0,0,0-8.18-7.46h0A17,17,0,0,0,27.26,11.47Z"/><path class="cls-7" d="M23.69,31.06s-.35,3.92.06,4.8,3.05,6.35,5.82,6c2.31-.28,8-3.67,9.94-5.68-2.41,1.67-8.83,5.93-10.72,5.28-2.33-.81-5-6-4.92-6.49s.21-3.86.21-3.86-.47-1.05-1-2.35C23.23,29.5,23.44,30.26,23.69,31.06Z"/><path class="cls-7" d="M39.55,35a5.45,5.45,0,0,0,3.79-2.09,4.64,4.64,0,0,0,.38-.56c.51-.93.66-4.14-.66-4.89-.92-.52-1.59.24-1.91.74h0a3.11,3.11,0,0,0-.21.38Z"/><path class="cls-2" d="M39.55,35a5.45,5.45,0,0,0,3.79-2.09l.16-.26c.51-.92.66-4.14-.66-4.88a1.25,1.25,0,0,0-1.69.43h0a3.11,3.11,0,0,0-.21.38Z"/><path class="cls-5" d="M43.48,30a1.36,1.36,0,0,1-.07.77A6.25,6.25,0,0,1,41,33.44a2.73,2.73,0,0,0,.36-1.69c0-.2-.07-.4-.07-.6C41.23,30.34,43.09,28.48,43.48,30Z"/><path class="cls-6" d="M40.43,33.75l.06,0a.79.79,0,0,0,.16-.1,2.23,2.23,0,0,0,.51-.46,2.06,2.06,0,0,0,.42-.85,1.74,1.74,0,0,0-.13-1.13L41.38,31l0,0h0v0l0-.06a.75.75,0,0,1,.07-.12,5.09,5.09,0,0,1,.31-.45l.33-.38a3,3,0,0,1,.33-.3.76.76,0,0,1,.33-.15.54.54,0,0,1,.29.05.26.26,0,0,1,.12.11.15.15,0,0,1,0,.06v-.06a.31.31,0,0,0-.11-.15.56.56,0,0,0-.33-.1.93.93,0,0,0-.44.13,2.7,2.7,0,0,0-.4.29,4.49,4.49,0,0,0-.4.37,5.46,5.46,0,0,0-.36.45l-.08.13,0,.06-.06.09L41,31l0,.06.06.09.06.13a1.88,1.88,0,0,1,.17,1,2.16,2.16,0,0,1-.28.81,2,2,0,0,1-.39.5,1.21,1.21,0,0,1-.13.12Z"/><path class="cls-14" d="M33.42,51,38,54.64,42.4,45.1a27.18,27.18,0,0,0-2.89-.86Z"/><path class="cls-11" d="M37.81,31.26c0-.15.08-.38.15-.66a5.93,5.93,0,0,1,.36-1A4.32,4.32,0,0,1,39,28.55a4.1,4.1,0,0,1,1-.78,5.27,5.27,0,0,1,1-.38l.34-.08.19-.18-.06.15.2,0,.25,0-.58.38c-.08.18-.17.41-.29.67a11.86,11.86,0,0,0-.83,2.65,15.78,15.78,0,0,0-.14,2.8c0,.38,0,.68,0,.9v.33L40,34.62c-.08-.19-.2-.48-.32-.84a8.61,8.61,0,0,1-.31-1.32,5.16,5.16,0,0,1,0-1.71,5,5,0,0,1,.57-1.61,6.6,6.6,0,0,1,.73-1.07,7.35,7.35,0,0,0-1.12,1,11.9,11.9,0,0,0-1.26,1.71l-.37.57-.15.2Z"/><path class="cls-12" d="M21.44,25.11s1.82-2.44,2.83-1.48.56,1.07.56,1.07Z"/><path class="cls-12" d="M38,24.4s-3.36-3.87-4.73-2.49c-.8.8-.24,1.34-.24,1.34Z"/><path class="cls-16" d="M31.69,26.72a2.19,2.19,0,0,0,1.08.93.89.89,0,0,1,.68-.36c.66,0,1.19.85,1.19,1.9s-.53,1.9-1.19,1.9-1.18-.85-1.18-1.9a2.77,2.77,0,0,1,.14-.89A3.49,3.49,0,0,1,31.69,26.72Z"/><path class="cls-16" d="M23.64,27.36a1.53,1.53,0,0,0,.74.63.68.68,0,0,1,.46-.21c.5,0,.9.64.9,1.44s-.4,1.43-.9,1.43S24,30,24,29.22a2.05,2.05,0,0,1,.16-.81A2.62,2.62,0,0,1,23.64,27.36Z"/><path class="cls-14" d="M23.18,28.52a2.22,2.22,0,0,0,.83.63,2.08,2.08,0,0,0,1,.12,1.95,1.95,0,0,0-1.86-.75Z"/><path class="cls-14" d="M35.77,28.13a2.42,2.42,0,0,1-2.61,1.06,2.41,2.41,0,0,1,2.61-1.06Z"/><path class="cls-5" d="M28.92,33.57a2.18,2.18,0,0,1,.89-.23,3,3,0,0,1-1.62,1.56.47.47,0,0,1-.17,0,.5.5,0,0,1-.2-.08,3.52,3.52,0,0,1-1-.9.67.67,0,0,1-.13-.25c-.07-.3.13-.23.31-.16a2.86,2.86,0,0,0,.64.16A2.73,2.73,0,0,0,28.92,33.57Z"/><path class="cls-6" d="M28.13,34.73c-.18-.17-.39-.31-.58-.46a4.84,4.84,0,0,1-.63-.65c1-.67,1-1.69.92-2.84a3.46,3.46,0,0,0-.42-1.48,4,4,0,0,0-.48-.66,2.81,2.81,0,0,0-.31-.29,1.09,1.09,0,0,0-.33-.19c.06.07.1.15.15.22s.29.36.41.56a3.3,3.3,0,0,1,.32.62,4.24,4.24,0,0,1,.29,1.36,3.45,3.45,0,0,1-.22,1.35,2.65,2.65,0,0,1-1,1.26s.67.77.74.83a3,3,0,0,0,.55.44,1.2,1.2,0,0,0,.65.26.38.38,0,0,0,.21-.07.31.31,0,0,1-.11-.09l0,0Z"/><path class="cls-5" d="M25.25,34c-.15.42-1.05.47-2,.11s-1.6-1-1.44-1.4,1.05-.46,2-.11S25.41,33.57,25.25,34Z"/><path class="cls-5" d="M37.24,32c.16.63-.87,1.44-2.31,1.81S32.2,34,32,33.39s.87-1.44,2.3-1.81S37.08,31.41,37.24,32Z"/><path class="cls-14" d="M20.53,29.28a3.62,3.62,0,0,0,7.24.15,1.73,1.73,0,0,1,1.69,0,4,4,0,0,0,7.93-.2,3.84,3.84,0,0,0-.09-.83l5.15-.84-.1-.6-5.23.85a4,4,0,0,0-7.64,1,2.35,2.35,0,0,0-1.74,0,3.62,3.62,0,0,0-7.21.53Zm9.53,0a3.36,3.36,0,1,1,3.36,3.36A3.36,3.36,0,0,1,30.06,29.24Zm-8.92,0a3,3,0,1,1,3,3A3,3,0,0,1,21.14,29.28Z"/><rect class="cls-14" x="30.67" y="73.12" width="25.29" height="31.02" transform="translate(135.89 122.72) rotate(136.26)"/><rect class="cls-17" x="30.52" y="74.6" width="25.29" height="31.02" transform="translate(136.65 125.37) rotate(136.26)"/><rect class="cls-18" x="33.3" y="81.52" width="5.28" height="31.02" transform="translate(128.99 142.28) rotate(136.26)"/><rect class="cls-14" x="33.26" y="83.8" width="2.62" height="23.61" transform="translate(-56.51 50.44) rotate(-43.74)"/><path class="cls-17" d="M43.7,107.2a1.37,1.37,0,1,0,0-1.94A1.37,1.37,0,0,0,43.7,107.2Z"/><rect class="cls-14" x="32.19" y="79.74" width="13.18" height="4.06" transform="translate(123.33 114.04) rotate(136.26)"/><rect class="cls-14" x="44.42" y="92.12" width="9.68" height="1.22" transform="translate(148.96 125.65) rotate(136.25)"/><rect class="cls-14" x="46.06" y="93.83" width="9.68" height="1.22" transform="translate(152.96 127.48) rotate(136.26)"/><rect class="cls-14" x="47.7" y="95.55" width="9.68" height="1.22" transform="translate(156.98 129.3) rotate(136.26)"/><path class="cls-5" d="M39.6,92.86s-2.69-2.06-3.39-1.34,1.34,2.57,1.34,2.57Z"/><path class="cls-2" d="M31.31,95.42c.27.72,5-1.69,5-1.69l1.1,1-1.89,1.19-1.59,2.84s.37.51.87,1.11l.19.23a13.17,13.17,0,0,0,.94,1l.09.09a4.13,4.13,0,0,0,.44.36,1,1,0,0,0,.41.17l1.69-1.9a22.68,22.68,0,0,0,4-.08A7.61,7.61,0,0,0,43.72,98c.25-.44.5-.91.73-1.35l-1.06-1.16L41,92.84c-.33-.09-.78-.19-1.28-.29h0L39,92.41a10.6,10.6,0,0,0-2.82-.16,2.68,2.68,0,0,0-.89.24C33.57,93.36,31,94.7,31.31,95.42Z"/><path class="cls-6" d="M35.94,101.11l.09.09.23-.34c.21-.31.5-.73.83-1.18A8.46,8.46,0,0,1,38,98.6l.19-.17.16-.12.13-.11-.17,0-.21.06-.26.11a3.27,3.27,0,0,0-1.21,1,3.89,3.89,0,0,0-.64,1.36A1.87,1.87,0,0,0,35.94,101.11Z"/><path class="cls-6" d="M34.81,99.87l.19.23,0,0c.22-.32.51-.73.84-1.18a8.46,8.46,0,0,1,.93-1.08l.19-.17.16-.13.13-.1-.17,0-.21,0-.26.11a3.43,3.43,0,0,0-1.22,1A3.82,3.82,0,0,0,34.81,99.87Z"/><path class="cls-5" d="M36.47,101.56a1,1,0,0,0,.41.17l1.69-1.9a22.68,22.68,0,0,0,4-.08A7.61,7.61,0,0,0,43.72,98c.25-.44.5-.91.73-1.35l-1.06-1.16c-.19.42-.4.84-.61,1.23-.59,1.1-1.2,2-1.64,2.1-1.17.24-3.09.49-3.09.49Z"/><path class="cls-8" d="M40,91.93l1.2,1.4L44.37,97l.64.74S62.64,85.52,63.12,82.39,50.91,51.66,50,50.55c-.19-.22-1.05-1.36-1.35-1.65a11.68,11.68,0,0,0-2.49-1.82L41.36,58l2.55,5.45h0l8,17.13Z"/><path class="cls-9" d="M40,91.93l1.2,1.4L52.35,81.94s1.21,1.11,2.13.88-1.17-1.76-1.22-1.8,1.84.6,2.33,0-2.53-1.41-2.53-1.41L45.83,64c-.19.78-.38,1.56-.56,2.33l6.65,14.22Z"/><path class="cls-10" d="M44.37,97l.64.74S62.64,85.52,63.12,82.39,50.91,51.66,50,50.55c0,0,11.93,30.37,11.63,31.69C61.33,83.33,48.76,93.49,44.37,97Z"/><path class="cls-19" d="M45.82,2.58c-.32,1.13-1.41,1.83-2.32,2.57a11.5,11.5,0,0,0-3.13,4,16.88,16.88,0,0,1,.32-4.6C41.06,3,41.93,1.05,43.43.23S46.26,1.05,45.82,2.58Z"/><path class="cls-19" d="M49.34,9.25a4.71,4.71,0,0,1-2.79.11,9.3,9.3,0,0,0-4.09.48,13.63,13.63,0,0,1,2.83-2.42,5.4,5.4,0,0,1,4.06-.88C50.71,7,50.47,8.62,49.34,9.25Z"/><path class="cls-19" d="M38.17,3.55A3.08,3.08,0,0,1,37.9,5.4a6.28,6.28,0,0,0-.19,2.76A9.17,9.17,0,0,1,36.47,6a3.6,3.6,0,0,1-.08-2.77C36.82,2.37,37.9,2.73,38.17,3.55Z"/></g></g></svg>