<svg xmlns="http://www.w3.org/2000/svg" viewBox="0 0 116.71 183.81"><defs><style>.cls-1{fill:#fdbd8e;}.cls-2{fill:#fb9988;}.cls-3{fill:#fd7d6f;}.cls-4{fill:#ffdaba;}.cls-5{fill:#ff9300;}.cls-6{fill:#cf691f;}.cls-7{fill:#6c3509;}.cls-8{fill:#85441d;}.cls-9{fill:#965326;}.cls-10{fill:#b5693c;}.cls-11{fill:#fff0e7;}.cls-12{fill:#161818;}.cls-13{fill:#2e3032;}.cls-14{fill:#1f2123;}.cls-15{fill:#ffb800;}</style></defs><title>Ресурс 9</title><g id="Слой_2" data-name="Слой 2"><g id="OBJECTS"><path class="cls-1" d="M0,44.74c-.07.54,7.33,3.88,8.19,3.83l1.18-.21L13,50.07a5.76,5.76,0,0,0,.85-1.31,5,5,0,0,0,.47-1.53,3.72,3.72,0,0,0,0-1A12.09,12.09,0,0,0,12.42,45s.6-2.74-.5-3.85A7.19,7.19,0,0,1,10.28,39c-.19-.44-.32-.91-.55-1.33a1.68,1.68,0,0,0-1.08-.89.29.29,0,0,0-.16,0,.35.35,0,0,0-.18.29s0,0,0,0A6,6,0,0,0,9.06,41s-4.37-1.12-5.43-1.83c0,0-2.61-.88-2.87-.42a1.18,1.18,0,0,0-.16.48,1.23,1.23,0,0,0,0,.41S5.87,42.24,6,42.5s-5-1-5.46-.7a.61.61,0,0,0-.22.46,4.23,4.23,0,0,0,0,.62,5.25,5.25,0,0,0,.08.65,1.78,1.78,0,0,0-.07.17,6,6,0,0,0-.19.59A3.63,3.63,0,0,0,0,44.74Z"/><path class="cls-2" d="M0,44.74c-.07.54,7.33,3.88,8.19,3.83l1.18-.21L13,50.07a5.76,5.76,0,0,0,.85-1.31A9.6,9.6,0,0,1,9.74,46c-1.06-1.19-1.82-2.64-3-3.72a10.94,10.94,0,0,0-2.5-1.65,24.06,24.06,0,0,0-2.92-1.23,5.46,5.46,0,0,0-.74-.21,1.23,1.23,0,0,0,0,.41S5.87,42.24,6,42.5s-5-1-5.46-.7a.61.61,0,0,0-.22.46,4.23,4.23,0,0,0,0,.62,5.25,5.25,0,0,0,.08.65,1.78,1.78,0,0,0-.07.17,6,6,0,0,0-.19.59A3.63,3.63,0,0,0,0,44.74Z"/><path class="cls-3" d="M.28,42.88.73,43a13,13,0,0,0,2.3.47,9.48,9.48,0,0,0,1,.06l-.91-.36c-.56-.22-1.33-.5-2.19-.76l-.62-.17A4.23,4.23,0,0,0,.28,42.88Z"/><path class="cls-3" d="M.1,44.29a14.52,14.52,0,0,0,2.66.57A13.46,13.46,0,0,0,.29,43.7,6,6,0,0,0,.1,44.29Z"/><path class="cls-4" d="M8.31,37.06l.23.19a7.64,7.64,0,0,1,1.22,2.07,17.6,17.6,0,0,1,1.79,2.79,7.44,7.44,0,0,1,.13,2.79,1.52,1.52,0,0,0,.14.84,1.53,1.53,0,0,0,.56.44c.64.35,1.31.68,1.94,1a3.72,3.72,0,0,0,0-1A12.09,12.09,0,0,0,12.42,45s.6-2.74-.5-3.85A7.19,7.19,0,0,1,10.28,39c-.19-.44-.32-.91-.55-1.33a1.68,1.68,0,0,0-1.08-.89.29.29,0,0,0-.16,0A.35.35,0,0,0,8.31,37.06Z"/><path class="cls-3" d="M8.36,42.16a3,3,0,0,0-.42,2.44,5,5,0,0,0,1.2,2.25c-.08-.68-.58-1.33-.74-2S8,42.7,8.36,42.16Z"/><path class="cls-5" d="M50.77,50.8c-2.43,2.91-5,5.85-7.32,8.15l-.8.79c-.59.56-1.15,1.08-1.68,1.53l-.18.15q-.43.36-.84.66l-.31.23-.31.21c-.2.13-.39.24-.57.34L38.5,63l-.13.06C32.84,65.47,10.45,51.8,10.45,51.8l1-1.73L14,45.71l.45-.77S33,52.31,35.28,54.31c0,0,3.71-6.67,5-8.53,0,0,5.61-7.64,6.65-8,.13-.05,2.78,9.3,3.6,12.21C50.67,50.46,50.76,50.77,50.77,50.8Z"/><path class="cls-6" d="M50.77,50.8c-2.43,2.91-5,5.85-7.32,8.15l-.8.79c-.59.56-1.15,1.08-1.68,1.53l-.18.15q-.43.36-.84.66l-.31.23-.31.21c-.2.13-.39.24-.57.34L38.5,63l-.13.06C32.84,65.47,10.45,51.8,10.45,51.8l1-1.73c6,3.15,23.59,12.27,26.14,12.07C39.2,62,45.17,55.84,50.53,50,50.67,50.46,50.76,50.77,50.77,50.8Z"/><path class="cls-1" d="M116.71,33.11c.19.5-6.22,5.48-7.07,5.64l-1.2.07-3.12,2.51a5.51,5.51,0,0,1-1.14-1.08,4.69,4.69,0,0,1-.81-1.37,3.83,3.83,0,0,1-.24-1,12.27,12.27,0,0,1,1.57-1.63s-1.23-2.53-.43-3.86a7,7,0,0,0,1.1-2.5,13.52,13.52,0,0,1,.22-1.42,1.65,1.65,0,0,1,.84-1.11.24.24,0,0,1,.16,0c.12,0,.19.12.24.23s0,0,0,0a6,6,0,0,1,.17,4,32.19,32.19,0,0,0,4.85-3s2.33-1.47,2.7-1.09a1.24,1.24,0,0,1,.26.43,1.18,1.18,0,0,1,.07.41s-4.48,3.76-4.53,4,4.69-2.1,5.16-2c.13,0,.23.19.31.39a3.62,3.62,0,0,1,.16.61,5.18,5.18,0,0,1,.07.65l.11.14c.08.13.21.32.32.53A4.11,4.11,0,0,1,116.71,33.11Z"/><path class="cls-2" d="M116.71,33.11c.19.5-6.22,5.48-7.07,5.64l-1.2.07-3.12,2.51a5.51,5.51,0,0,1-1.14-1.08,9.55,9.55,0,0,0,3.36-3.61c.75-1.4,1.15-3,2-4.31a10.6,10.6,0,0,1,2-2.19,24.62,24.62,0,0,1,2.55-1.88,6.28,6.28,0,0,1,.67-.38,1.18,1.18,0,0,1,.07.41s-4.48,3.76-4.53,4,4.69-2.1,5.16-2c.13,0,.23.19.31.39a3.62,3.62,0,0,1,.16.61,5.18,5.18,0,0,1,.07.65l.11.14c.08.13.21.32.32.53A4.11,4.11,0,0,1,116.71,33.11Z"/><path class="cls-3" d="M116,31.37l-.4.24a13.14,13.14,0,0,1-2.13,1c-.54.19-.89.28-.94.29s.33-.25.79-.57,1.19-.79,2-1.24l.55-.32A3.62,3.62,0,0,1,116,31.37Z"/><path class="cls-3" d="M116.5,32.69a14.51,14.51,0,0,1-2.45,1.18,13.76,13.76,0,0,1,2.13-1.71C116.26,32.29,116.39,32.48,116.5,32.69Z"/><path class="cls-4" d="M106.83,27.58l-.18.24a7.78,7.78,0,0,0-.7,2.3,18.46,18.46,0,0,0-1.09,3.13,7.3,7.3,0,0,0,.53,2.74,1.41,1.41,0,0,1,0,.86,1.53,1.53,0,0,1-.43.55c-.54.49-1.12,1-1.64,1.48a3.83,3.83,0,0,1-.24-1,12.27,12.27,0,0,1,1.57-1.63s-1.23-2.53-.43-3.86a7,7,0,0,0,1.1-2.5,13.52,13.52,0,0,1,.22-1.42,1.65,1.65,0,0,1,.84-1.11.24.24,0,0,1,.16,0C106.71,27.36,106.78,27.47,106.83,27.58Z"/><path class="cls-3" d="M108,32.56a3,3,0,0,1,1,2.27,5.2,5.2,0,0,1-.65,2.47,20.07,20.07,0,0,1,.25-2.14C108.56,34.55,108.5,33,108,32.56Z"/><path class="cls-5" d="M108.2,42.42S89.62,61,83.68,59.89c-2.2-.39-6.43-3-10.87-6.09-1.35-.95-2.71-1.94-4-2.93L65.85,38.79c1.06-.38,1.42-2,1.6-2.66,0-.15.08-.24.11-.23a20.9,20.9,0,0,1,2.74,2A141.47,141.47,0,0,1,84.41,50.44c.15.14.23.23.23.23,1.79-2.5,18-14,18-14l.77.79L106.81,41Z"/><path class="cls-6" d="M68.5,49.79c6.66,4.54,14.11,9.29,15.72,9,2.52-.4,17.5-13.38,22.59-17.85l1.39,1.45S89.62,61,83.68,59.89c-2.88-.51-9.19-4.77-14.92-9Z"/><path class="cls-7" d="M85.74,183.14h-7c-1.53,0-4.67-2.7-4.67-2.7a13,13,0,0,1-1.72,2.64c-.82.81-.61-7.78-.61-7.78l4.08-.17,8.78,5.21,1.68,1a1,1,0,0,1-.5,1.8Z"/><path class="cls-1" d="M84.56,180.34c-9.62,3.15-12.86-5-12.86-5l4.08-.17Z"/><path class="cls-7" d="M85.74,183.14h-7c-1.53,0-4.67-2.7-4.67-2.7a13,13,0,0,1-1.72,2.64c-.82.81-.61-7.78-.61-7.78l4.08-.17,8.78,5.21,1.68,1a1,1,0,0,1-.5,1.8Z"/><path class="cls-1" d="M84.56,180.34c-9.62,3.15-12.86-5-12.86-5l4.08-.17Z"/><path class="cls-1" d="M61.11,179.9c-.31,1.21-2.77,3-3.9,3.76a.92.92,0,0,1-1.09-.06c-1-.82-3.06-2.65-3.26-3.7a11,11,0,0,1,.94-3.72c.82-2.25,1.88-4.63,1.88-4.63l4.08.17s.94,3.55,1.29,6.07A6.71,6.71,0,0,1,61.11,179.9Z"/><path class="cls-7" d="M61.11,179.9c-.31,1.21-2.77,3-3.9,3.76a.92.92,0,0,1-1.09-.06c-1-.82-3.06-2.65-3.26-3.7a11,11,0,0,1,.94-3.72c.44,1.64,1.33,3.62,3.08,3.72s3.14-1.05,4.17-2.11A6.71,6.71,0,0,1,61.11,179.9Z"/><path class="cls-5" d="M72.81,53.8c-.21,2.26-.5,4-.62,4.59C71.78,60.32,71.72,71,71.72,71c-8.33,7-18.63.82-18.63.82C53.16,69.15,49,55,47.24,45.66c-1-5.42-1.6-6.28-1.24-7,.49-1,4.8-3.51,6.4-4.08s2.89-.86,2.89-.86h6.93a4.88,4.88,0,0,1,1.23.18h0a7.94,7.94,0,0,1,.81.25,14.92,14.92,0,0,1,2.13,1h0c.37.21.76.45,1.17.73a27.41,27.41,0,0,1,2.22,1.69,6.61,6.61,0,0,1,1.62,2.13C73.29,43.44,73.2,49.54,72.81,53.8Z"/><path class="cls-6" d="M70.38,55l-.7,0-1.87-.12a18.82,18.82,0,0,0-5.9.39c-.56.14-1.11.32-1.67.47a15.08,15.08,0,0,1-1.67.35,13.5,13.5,0,0,1-2.86.09A4.38,4.38,0,0,1,54.6,56a2.51,2.51,0,0,1-.77-.39,1.79,1.79,0,0,1-.37-.39L53.37,55l.14.12a1.49,1.49,0,0,0,.43.24,3.51,3.51,0,0,0,1.75.1A21,21,0,0,0,58.34,55c.49-.13,1-.29,1.51-.47s1.09-.38,1.71-.54a10,10,0,0,1,3.56-.27,16,16,0,0,1,2.8.54c.77.22,1.38.43,1.81.59Z"/><path class="cls-8" d="M73.78,22.87c0-.15-.08-.38-.16-.66a5,5,0,0,0-.35-1,4.32,4.32,0,0,0-.72-1.08,4.1,4.1,0,0,0-1-.78,5.27,5.27,0,0,0-1-.38l-.34-.08L70,18.74l.06.15-.21,0-.25,0,.59.38c.08.18.17.41.29.67a12.4,12.4,0,0,1,.83,2.65,15.78,15.78,0,0,1,.14,2.8c0,.38,0,.68,0,.9v.33l.14-.31c.08-.19.19-.48.31-.84a7.52,7.52,0,0,0,.32-1.32,5.16,5.16,0,0,0,0-1.71,5,5,0,0,0-.57-1.61,6.6,6.6,0,0,0-.73-1.07,7.35,7.35,0,0,1,1.12,1,11.9,11.9,0,0,1,1.26,1.71l.37.57.15.2Z"/><path class="cls-8" d="M51.92,27.61a13.55,13.55,0,0,1-1.87,3.09c-1.66,2.1-4,3.88-6.66,4.06a9.27,9.27,0,0,0,3.52-2.36c-.16.1-.32.21-.49.3a9,9,0,0,1-6.16,1A7.61,7.61,0,0,0,42,30.43a11.42,11.42,0,0,0,.38-2.6,37.17,37.17,0,0,0-.62-6.31,60.82,60.82,0,0,1-.68-10.35,10.82,10.82,0,0,1,3.08-7.65,4.68,4.68,0,0,1,7,.77,3.77,3.77,0,0,1,.41.7c.18.38.27.67,0,1a7.93,7.93,0,0,1-.83.91,6.14,6.14,0,0,0-1.5,3,3.8,3.8,0,0,1,.37.33,8.08,8.08,0,0,1,1.63,2.68A23.13,23.13,0,0,1,52.9,21.2,15.48,15.48,0,0,1,51.92,27.61Z"/><path class="cls-9" d="M51.13,4.29a4.39,4.39,0,0,1-.56,1.25,3.4,3.4,0,0,0-3,2,8.43,8.43,0,0,0-.67,3.7,33.59,33.59,0,0,0,.42,5.67,35.49,35.49,0,0,1,.77,6,7.08,7.08,0,0,1-2.2,5.39,8.07,8.07,0,0,0-.59-3.47A7.63,7.63,0,0,1,42,30.43a11.42,11.42,0,0,0,.38-2.6A26.39,26.39,0,0,0,42,23.22c-.08-.57-.17-1.14-.25-1.7a60.82,60.82,0,0,1-.68-10.35,10.82,10.82,0,0,1,3.08-7.65,4.78,4.78,0,0,1,4.08-1.14,4.61,4.61,0,0,1,1.15.4A4.78,4.78,0,0,1,51.13,4.29Z"/><path class="cls-10" d="M49.36,2.78a8.41,8.41,0,0,0-3.18,3.11,8.53,8.53,0,0,0-.54,2,19.28,19.28,0,0,0-.38,2.73,45.87,45.87,0,0,0,.4,4.81A15.33,15.33,0,0,1,45,21a9.93,9.93,0,0,0-1-2.47,8.71,8.71,0,0,1-2,4.68c-.08-.57-.17-1.14-.25-1.7a60.82,60.82,0,0,1-.68-10.35,10.82,10.82,0,0,1,3.08-7.65,4.78,4.78,0,0,1,4.08-1.14A4.61,4.61,0,0,1,49.36,2.78Z"/><path class="cls-11" d="M54,6.38a2.74,2.74,0,1,1-2.74-2.74A2.74,2.74,0,0,1,54,6.38Z"/><path class="cls-11" d="M64.26,34.15,65,42.36l-3.61-1.84L59.5,38.19s0-3,0-4.46h2.74a4.88,4.88,0,0,1,1.23.18h0A7.94,7.94,0,0,1,64.26,34.15Z"/><path class="cls-1" d="M61.38,40.52l-6.09-6.78c0-1,.1-1.39.19-3.89.1-2.77.2-5.37.2-5.37l7.83,3.09a18.54,18.54,0,0,0-1.4,6.32A52.24,52.24,0,0,1,61.38,40.52Z"/><path class="cls-2" d="M63.51,27.57a18.54,18.54,0,0,0-1.4,6.32l-.72.28c-.91.31-3.83-2.28-5.91-4.32.1-2.77.2-5.37.2-5.37Z"/><path class="cls-1" d="M71.72,18.27c-.15.72-.36,1.48-.61,2.28,0,0,.35,3.92-.06,4.8s-3,6.36-5.82,6c-2.31-.28-8-3.67-9.94-5.69a2.29,2.29,0,0,1-.68-1c-.27-1.55-1.2-8.42-1.28-9-.24-1.56-.89-13.34,13.36-10.06a6.87,6.87,0,0,1,5.17,5.14A17.23,17.23,0,0,1,71.72,18.27Z"/><path class="cls-8" d="M74,10.94a6.16,6.16,0,0,1-.38,1.84A6.54,6.54,0,0,1,71.65,16a20,20,0,0,0-.22-4.76c-3.4,3.7-10.5,5-10.79,5,1.34-.42,1.75-3.11,1.75-3.11-1.62,3.78-8.74,4.56-8.74,4.56-1.7-1.38-2.89,1.24-2.89,1.24-.57-1.07-1-2-1.43-2.92-.09-.24-.19-.46-.27-.69a9.55,9.55,0,0,1-.49-1.83c-1-5.69,3.31-11.26,8.78-12.85h0C62.55-.88,68.67.49,71.55,3.35a6,6,0,0,1,1.23,1.7l.12.27,0,.09a4.5,4.5,0,0,1,.28,1.68,5.8,5.8,0,0,1-.12,1A5.66,5.66,0,0,1,74,10.94Z"/><path class="cls-9" d="M72.9,5.32a4.39,4.39,0,0,1-1,.4c-.68.18-1.4.19-2.09.38a4.31,4.31,0,0,0-2.15,1.34c-1,1.14-1.45,2.83-2.81,3.52a4.35,4.35,0,0,1-3.08.06,10.58,10.58,0,0,0-3.07-.64,5.79,5.79,0,0,0-4.14,2.43,5.36,5.36,0,0,1-1,1.07,3.12,3.12,0,0,1-2,.42,7.34,7.34,0,0,1-3-.83,10.16,10.16,0,0,1,.6-5.39A12.74,12.74,0,0,1,57.35.62h0A17.13,17.13,0,0,1,67.54,1a10.89,10.89,0,0,1,4,2.39,6,6,0,0,1,1.23,1.7Z"/><path class="cls-10" d="M67.54,1C65.87,2.33,65,4.72,63,5.47a8.05,8.05,0,0,1-3.72.07,4.93,4.93,0,0,0-3.61.62c-.51.41-.86,1-1.35,1.43a4.59,4.59,0,0,1-3.91.85,7.65,7.65,0,0,1-1.24-.36A12.74,12.74,0,0,1,57.35.62h0A17.13,17.13,0,0,1,67.54,1Z"/><path class="cls-4" d="M71.11,20.55s.35,3.92-.06,4.8-3,6.36-5.82,6c-2.31-.28-8-3.67-9.94-5.69C57.7,27.35,64.12,31.62,66,31c2.33-.81,5-6,4.92-6.48s-.21-3.86-.21-3.86.47-1.06,1-2.35C71.57,19,71.36,19.75,71.11,20.55Z"/><path class="cls-4" d="M55.25,24.47a5.45,5.45,0,0,1-3.79-2.09,4.64,4.64,0,0,1-.38-.56c-.51-.92-.66-4.14.66-4.88.92-.53,1.59.23,1.91.73h0a2.44,2.44,0,0,1,.21.38Z"/><path class="cls-1" d="M55.25,24.47a5.45,5.45,0,0,1-3.79-2.09l-.16-.25c-.51-.93-.66-4.14.66-4.89a1.26,1.26,0,0,1,1.69.43h0a2.44,2.44,0,0,1,.21.38Z"/><path class="cls-2" d="M51.32,19.49a1.49,1.49,0,0,0,.06.78,6.38,6.38,0,0,0,2.47,2.66,2.73,2.73,0,0,1-.36-1.69c0-.2.07-.4.07-.6C53.57,19.83,51.71,18,51.32,19.49Z"/><path class="cls-3" d="M54.37,23.24l-.06,0-.16-.1a2.5,2.5,0,0,1-.51-.46,2.1,2.1,0,0,1-.42-.86,1.74,1.74,0,0,1,.13-1.13c0-.05,0-.1.07-.14l0,0s0,0,0,0h0v0l0-.06a.75.75,0,0,0-.07-.12,3.8,3.8,0,0,0-.31-.44,4.29,4.29,0,0,0-.33-.38,2.34,2.34,0,0,0-.33-.31A.76.76,0,0,0,52,19a.63.63,0,0,0-.29.05q-.1.06-.12.12a.1.1,0,0,0,0,.05.09.09,0,0,1,0-.06A.3.3,0,0,1,51.7,19a.56.56,0,0,1,.33-.11.93.93,0,0,1,.44.13,2.7,2.7,0,0,1,.4.29,3.37,3.37,0,0,1,.39.37,4,4,0,0,1,.37.45l.08.13,0,.06.06.1,0,.06,0,.06-.06.1a.67.67,0,0,0-.06.12,1.88,1.88,0,0,0-.17,1,2.21,2.21,0,0,0,.28.82,1.94,1.94,0,0,0,.39.49l.13.13Z"/><path class="cls-11" d="M61.38,40.52l-4.62,3.62L52.4,34.59c1.52-.54,2.89-.86,2.89-.86Z"/><path class="cls-8" d="M57,20.76c0-.16-.08-.39-.15-.67a6.28,6.28,0,0,0-.36-1,4.28,4.28,0,0,0-.72-1.07,3.68,3.68,0,0,0-1-.78,5.38,5.38,0,0,0-1-.39l-.34-.08-.19-.18.06.15-.2,0-.25,0,.58.38c.08.18.17.41.29.68a11.53,11.53,0,0,1,.83,2.65,15.63,15.63,0,0,1,.14,2.79c0,.38,0,.69,0,.9v.33l.14-.3c.08-.2.2-.49.32-.85A8.33,8.33,0,0,0,55.44,22a5.07,5.07,0,0,0-.57-3.32,7.07,7.07,0,0,0-.73-1.07,8,8,0,0,1,1.12,1,11.9,11.9,0,0,1,1.26,1.71l.37.57L57,21Z"/><path class="cls-9" d="M73,15.45S71.2,13,70.18,14,69.63,15,69.63,15Z"/><path class="cls-9" d="M58.62,15.82S62,12,63.35,13.33c.8.8.25,1.34.25,1.34Z"/><path class="cls-2" d="M65.88,23.07a2,2,0,0,0-.89-.24,3,3,0,0,0,1.62,1.56.47.47,0,0,0,.17,0,.48.48,0,0,0,.2-.07,3.71,3.71,0,0,0,1-.91.67.67,0,0,0,.13-.25c.07-.3-.13-.23-.31-.16a2.7,2.7,0,0,1-1.94,0Z"/><path class="cls-3" d="M66.67,24.22c.18-.16.39-.3.58-.46a4.84,4.84,0,0,0,.63-.65c-1-.67-1-1.69-.92-2.84a3.46,3.46,0,0,1,.42-1.48,4,4,0,0,1,.48-.66c.1-.1.2-.2.31-.29a1.32,1.32,0,0,1,.33-.18,1.59,1.59,0,0,0-.15.21c-.14.19-.29.36-.41.56a4.05,4.05,0,0,0-.32.62,4.3,4.3,0,0,0-.29,1.37,3.4,3.4,0,0,0,.22,1.34,2.69,2.69,0,0,0,1,1.26s-.66.77-.72.84a4,4,0,0,1-.56.43,1.2,1.2,0,0,1-.65.26.37.37,0,0,1-.21-.06l.11-.09.05,0A.8.8,0,0,1,66.67,24.22Z"/><path class="cls-3" d="M65,27.21a2.88,2.88,0,0,0,2.37.07,1.24,1.24,0,0,1-1.08.58A2,2,0,0,1,65,27.21Z"/><path class="cls-3" d="M62.25,25.14a7.12,7.12,0,0,0,6.55.9,10.5,10.5,0,0,1-3.58,0A8.06,8.06,0,0,1,62.25,25.14Z"/><path class="cls-2" d="M69.55,23.47c.15.42,1,.47,2,.11s1.6-1,1.44-1.4-1-.46-2-.1S69.39,23.06,69.55,23.47Z"/><path class="cls-2" d="M57.56,21.53c-.16.63.87,1.44,2.31,1.81s2.73.17,2.89-.46-.87-1.44-2.3-1.81S57.72,20.91,57.56,21.53Z"/><path class="cls-12" d="M63.52,19.53a1,1,0,0,0-.16-.12,1.58,1.58,0,0,0-.45-.21c-.19-.06-.44-.11-.72-.17s-.57-.11-.88-.15a7.86,7.86,0,0,0-1.61-.09,2.85,2.85,0,0,0-.51.06l-.2,0,.15-.13a3,3,0,0,1,.47-.3,3.2,3.2,0,0,1,1.8-.26,3.73,3.73,0,0,1,1,.29,3,3,0,0,1,.71.42,1.47,1.47,0,0,1,.37.44A.7.7,0,0,1,63.52,19.53Z"/><path class="cls-12" d="M72.19,19H71.7c-.29,0-.65.06-1.08.06S69.81,19,69.54,19a1.14,1.14,0,0,0-.34,0l-.13,0,.07-.11a1.09,1.09,0,0,1,.29-.26,2.28,2.28,0,0,1,1.19-.3,2.32,2.32,0,0,1,1.17.3,1.91,1.91,0,0,1,.31.23Z"/><path class="cls-11" d="M70.65,15.14a3.64,3.64,0,0,0-3.59,3.1,2.34,2.34,0,0,0-1.74,0,4,4,0,0,0-7.64-1l-5.23-.85-.1.6,5.15.84a3.86,3.86,0,0,0-.09.84,4,4,0,0,0,7.93.19,1.73,1.73,0,0,1,1.69,0,3.62,3.62,0,1,0,3.62-3.78Zm-9.27,7a3.36,3.36,0,1,1,3.36-3.36A3.37,3.37,0,0,1,61.38,22.1Zm9.27-.31a3,3,0,1,1,3-3A3,3,0,0,1,70.65,21.79Z"/><path class="cls-13" d="M77.43,175.06l-7.29.3-.68-38.19v-.7l.67-10.55L65.5,101.48H63.76l-1.06,24.3-.59,9.28L62,140.35l-.8,31.42-7-.28S51,145,51,137.65a9.59,9.59,0,0,1,.09-1.58l.1-.7L52.89,123S48.06,99.49,48.3,93.63a69.45,69.45,0,0,1,1.87-10.56c1.34-5.75,2.92-11.29,2.92-11.29L71.72,71c.8,2.16,1.6,4.63,2.36,7.1,2.22,7.3,4,14.7,4,14.7.34,1.15,1.75,25.45,2.41,37,.2,3.61.34,6,.34,6C81.62,139.12,77.43,175.06,77.43,175.06Z"/><path class="cls-14" d="M62,140.35l-.8,31.42-7-.28S51,145,51,137.65a9.59,9.59,0,0,1,.09-1.58l.1-.7a10.82,10.82,0,0,0,1.25,1.84A10.15,10.15,0,0,0,59,140.66,9.65,9.65,0,0,0,62,140.35Z"/><path class="cls-14" d="M77.43,175.06l-7.29.3-.68-38.19a61.7,61.7,0,0,0,11.08-7.44c.2,3.61.34,6,.34,6C81.62,139.12,77.43,175.06,77.43,175.06Z"/><path class="cls-14" d="M74.08,78.06c-1.75-.1-3.5-.32-5.25-.41-5.71-.31-11.81.68-16.67,3.83a19.46,19.46,0,0,0-2,1.59c1.34-5.75,2.92-11.29,2.92-11.29L71.72,71C72.52,73.12,73.32,75.59,74.08,78.06Z"/><path class="cls-15" d="M36.38,54.69s2,2.37,1.66,2.57-2.17-1-2.17-1-.54,2.05-1.15,2.25.21-3.28.21-3.28c-1.24-.9-16-7.35-20.92-9.49l.45-.77S33,52.31,35.28,54.31c0,0,3.71-6.67,5-8.53,0,0,5.61-7.64,6.65-8C46.63,38,36.38,54.69,36.38,54.69Z"/><path class="cls-15" d="M87,52.85c-.59.51-1.7-.61-1.7-.61s-.71,1.93-1.32,2,.35-2.08.35-2.08c-.42-.88-7.79-7.7-13-12.42l-4-3.59-1.06-1c.37.21.76.45,1.17.73a20.9,20.9,0,0,1,2.74,2A141.47,141.47,0,0,1,84.41,50.44c.15.14.23.23.23.23,1.79-2.5,18-14,18-14l.77.79L85.63,51S87.61,52.34,87,52.85Z"/></g></g></svg>