<svg xmlns="http://www.w3.org/2000/svg" viewBox="0 0 89.63 80.72"><defs><style>.cls-1{fill:#fdbd8e;}.cls-2{fill:#ff9300;}.cls-3{fill:#cf691f;}.cls-4{fill:#85441d;}.cls-5{fill:#965326;}.cls-6{fill:#b5693c;}.cls-7{fill:#fff0e7;}.cls-8{fill:#fb9988;}.cls-9{fill:#ffdaba;}.cls-10{fill:#fd7d6f;}.cls-11{fill:#161818;}.cls-12{fill:#fc5b68;}.cls-13{fill:#fff;}.cls-14{fill:#2e3032;}.cls-15{fill:#1f2123;}.cls-16{fill:#006aab;}.cls-17{fill:#005789;}.cls-18{fill:#ffb800;}.cls-19{fill:#f0f4f8;}.cls-20{fill:#28b69a;}.cls-21{fill:#f23336;}</style></defs><title>Ресурс 4</title><g id="Слой_2" data-name="Слой 2"><g id="OBJECTS"><path class="cls-1" d="M17.19,47.42a2.25,2.25,0,0,1-.08-.24A1.74,1.74,0,0,1,17,47c-.1-.16-.2-.31-.31-.46h0A13.61,13.61,0,0,0,14.42,44a7.57,7.57,0,0,0-2.87-1.77c-1-.13-4.94-1.79-4.92-1.43a1.73,1.73,0,0,0,1,1.38c.68.26,3.21,1.3,3.34,2s-5.53.05-6.35-.49S.25,42.1,0,42.42c0,0,0,.11.09.2.8.82,7.19,4.51,7.19,4.51s3,.65,5.43,1.33h0l.75.21.31.09.36.11c.48.14.91.29,1.23.42l1.32-1.36Z"/><path class="cls-2" d="M13.76,48.15,16,45.45l.86-1S34,54.54,36,56.94c0,0,3.15-3.85,6.23-7A57.2,57.2,0,0,1,48,43.44l5.08,5.92-1.3,7.41c-5.5,4.63-11.58,9.31-14.45,10-5.9,1.44-24.85-17.09-24.85-17.09Z"/><path class="cls-3" d="M52,55.67c-6.42,5-13.61,10.23-15.24,10.07-2.57-.25-17.55-13.42-23-17.59l-1.3,1.54s19,18.53,24.85,17.09c2.87-.7,8.95-5.38,14.45-10Z"/><path class="cls-3" d="M73.21,80.72H77.3c-.36-4-.87-14.68-1.32-22.23,0-.35,0-.7-.07-1-.18-3-.35-5.33-.5-6.44-.32-2.44-2.49-4.65-4.4-6.14a23.75,23.75,0,0,0-3-2l-.31,12.74-1,4.51-.22,1L63.17,76.22l.5.91h0l.25.44.44.81,1.07,1.93.22.4h7.56Z"/><path class="cls-3" d="M73.21,80.72h.87L73.32,79l-.41-14.81a16.76,16.76,0,0,0,.44-5.87c0-.34,0-.69-.07-1h0a0,0,0,0,1,0,0,0,0,0,0,1,0,0c-.16-1.86-.44-3.63-.65-4.86a43.5,43.5,0,0,1-.18,4.88c0,.34,0,.69-.08,1-.23,2.64-.53,4.94-.53,4.94V77.7l-.79,2-.43,1.06h2.59Z"/><path class="cls-2" d="M72,77.22s0-10.64.46-12.57,2.66-16.54-2.41-20.8a18.9,18.9,0,0,0-5.52-3.44,7.94,7.94,0,0,0-.81-.25h0A4.82,4.82,0,0,0,62.5,40H55.57s-1.36.32-2.89.86-5.91,3.09-6.4,4.08c-.36.71.2,1.57,1.25,7,1.79,9.3,5.91,23.48,5.84,26.12C53.37,78,63.67,84.22,72,77.22Z"/><path class="cls-3" d="M70.66,61.3l-.7,0-1.87-.12a18.54,18.54,0,0,0-5.9.39c-.56.14-1.11.32-1.67.47a15.4,15.4,0,0,1-1.66.35,13.61,13.61,0,0,1-2.87.09,5.62,5.62,0,0,1-1.11-.21,2.63,2.63,0,0,1-.77-.39,1.49,1.49,0,0,1-.36-.39,1.43,1.43,0,0,1-.1-.16l.14.12a1.49,1.49,0,0,0,.43.24,3.51,3.51,0,0,0,1.75.1,21,21,0,0,0,2.65-.55c.49-.13,1-.29,1.51-.47s1.09-.38,1.71-.54a10,10,0,0,1,3.56-.27,16,16,0,0,1,2.8.54c.78.22,1.39.43,1.81.59Z"/><path class="cls-4" d="M74.06,29.13c0-.16-.08-.39-.15-.66a5.93,5.93,0,0,0-.36-1,4.15,4.15,0,0,0-.72-1.08,4.1,4.1,0,0,0-1-.78,5.27,5.27,0,0,0-1-.38l-.33-.08L70.3,25l.06.15-.2,0-.25,0,.58.38.29.67a12.37,12.37,0,0,1,.84,2.65,16.67,16.67,0,0,1,.13,2.8c0,.38,0,.68,0,.9v.33l.14-.31c.08-.19.2-.48.32-.84a8.61,8.61,0,0,0,.31-1.32,5.16,5.16,0,0,0,0-1.71A5,5,0,0,0,71.94,27a6.6,6.6,0,0,0-.73-1.07,7.35,7.35,0,0,1,1.12,1,11.9,11.9,0,0,1,1.26,1.71l.37.57.15.2Z"/><path class="cls-4" d="M52.2,33.87A13.2,13.2,0,0,1,50.33,37c-1.66,2.1-4,3.88-6.66,4.06a9.27,9.27,0,0,0,3.52-2.36c-.16.1-.32.21-.49.3a9,9,0,0,1-6.16,1,7.61,7.61,0,0,0,1.71-3.25,11.5,11.5,0,0,0,.38-2.6A37.17,37.17,0,0,0,42,27.78a60.82,60.82,0,0,1-.68-10.35,10.82,10.82,0,0,1,3.08-7.65,4.68,4.68,0,0,1,7,.77,4.48,4.48,0,0,1,.42.7c.17.38.27.67,0,1a7.93,7.93,0,0,1-.83.91,6.22,6.22,0,0,0-1.5,3,3.8,3.8,0,0,1,.37.33,8.1,8.1,0,0,1,1.64,2.68,23.34,23.34,0,0,1,1.64,8.27A15.51,15.51,0,0,1,52.2,33.87Z"/><path class="cls-5" d="M51.41,10.55a4.13,4.13,0,0,1-.56,1.25,3.38,3.38,0,0,0-3,2,8.3,8.3,0,0,0-.68,3.7,33.59,33.59,0,0,0,.42,5.67,35.36,35.36,0,0,1,.77,6,7,7,0,0,1-2.2,5.39,8.07,8.07,0,0,0-.59-3.47,7.63,7.63,0,0,1-3.34,5.64,11.5,11.5,0,0,0,.38-2.6,26.39,26.39,0,0,0-.37-4.61c-.08-.57-.17-1.14-.25-1.7a60.82,60.82,0,0,1-.68-10.35,10.82,10.82,0,0,1,3.08-7.65,4.79,4.79,0,0,1,4.08-1.14,4.61,4.61,0,0,1,1.15.4A4.78,4.78,0,0,1,51.41,10.55Z"/><path class="cls-6" d="M49.64,9a8.48,8.48,0,0,0-3.18,3.11,8.53,8.53,0,0,0-.54,1.95,19.28,19.28,0,0,0-.38,2.73,45.87,45.87,0,0,0,.4,4.81,15.57,15.57,0,0,1-.69,5.63,10,10,0,0,0-1-2.47,8.71,8.71,0,0,1-2,4.68c-.08-.57-.17-1.14-.25-1.7a60.82,60.82,0,0,1-.68-10.35,10.82,10.82,0,0,1,3.08-7.65,4.79,4.79,0,0,1,4.08-1.14A4.61,4.61,0,0,1,49.64,9Z"/><path class="cls-7" d="M54.31,12.64A2.74,2.74,0,1,1,51.57,9.9,2.74,2.74,0,0,1,54.31,12.64Z"/><path class="cls-7" d="M64.54,40.41l.74,8.21-3.62-1.84-1.88-2.33s0-3,0-4.46H62.5a4.82,4.82,0,0,1,1.23.18h0A7.94,7.94,0,0,1,64.54,40.41Z"/><path class="cls-1" d="M61.66,46.78,55.57,40c0-1,.1-1.38.19-3.88.1-2.77.2-5.37.2-5.37l7.83,3.09a18.54,18.54,0,0,0-1.4,6.32A49.92,49.92,0,0,1,61.66,46.78Z"/><path class="cls-8" d="M63.79,33.83a18.54,18.54,0,0,0-1.4,6.32c-.25.1-.49.2-.71.27-.91.32-3.84-2.27-5.92-4.31.1-2.77.2-5.37.2-5.37Z"/><path class="cls-1" d="M72,24.53c-.16.72-.36,1.48-.62,2.28,0,0,.35,3.92-.06,4.8s-3,6.36-5.82,6c-2.31-.29-8-3.67-9.94-5.69a2.38,2.38,0,0,1-.68-1c-.27-1.55-1.2-8.42-1.28-9C53.37,20.38,52.72,8.6,67,11.87A6.89,6.89,0,0,1,72.14,17,17.21,17.21,0,0,1,72,24.53Z"/><path class="cls-4" d="M74.25,17.2A6.16,6.16,0,0,1,73.87,19a6.58,6.58,0,0,1-1.94,3.18,20.07,20.07,0,0,0-.22-4.77c-3.39,3.71-10.5,5-10.79,5,1.35-.41,1.75-3.1,1.75-3.1-1.62,3.78-8.74,4.56-8.74,4.56C52.23,22.55,51,25.17,51,25.17c-.57-1.07-1-2-1.42-2.92l-.28-.69a9.55,9.55,0,0,1-.49-1.83C47.91,14,52.16,8.47,57.64,6.88h0C62.83,5.38,69,6.75,71.83,9.61a5.79,5.79,0,0,1,1.23,1.7l.12.27,0,.09a4.3,4.3,0,0,1,.28,1.68,5.8,5.8,0,0,1-.12,1A5.66,5.66,0,0,1,74.25,17.2Z"/><path class="cls-5" d="M73.18,11.58a4.39,4.39,0,0,1-1,.4c-.68.18-1.4.19-2.09.37A4.4,4.4,0,0,0,68,13.7c-1,1.14-1.45,2.83-2.8,3.52a4.35,4.35,0,0,1-3.08.06A10.71,10.71,0,0,0,59,16.64a5.81,5.81,0,0,0-4.14,2.43,5.08,5.08,0,0,1-1,1.07,3.17,3.17,0,0,1-2,.42,7.54,7.54,0,0,1-3-.83,10.16,10.16,0,0,1,.6-5.39,12.74,12.74,0,0,1,8.19-7.46h0a17.12,17.12,0,0,1,10.17.35,10.81,10.81,0,0,1,4,2.39,5.79,5.79,0,0,1,1.23,1.7Z"/><path class="cls-6" d="M67.82,7.22C66.15,8.59,65.3,11,63.28,11.73a8.05,8.05,0,0,1-3.72.07,4.93,4.93,0,0,0-3.61.62c-.51.41-.86,1-1.35,1.43a4.59,4.59,0,0,1-3.91.85,8.81,8.81,0,0,1-1.24-.36,12.74,12.74,0,0,1,8.19-7.46h0A17.12,17.12,0,0,1,67.82,7.22Z"/><path class="cls-9" d="M71.39,26.81s.35,3.92-.06,4.8-3,6.36-5.82,6c-2.31-.29-8-3.67-9.94-5.69,2.41,1.67,8.83,5.94,10.72,5.28,2.33-.81,5-6,4.92-6.48S71,26.88,71,26.88s.47-1.06,1-2.35C71.85,25.25,71.65,26,71.39,26.81Z"/><path class="cls-9" d="M55.53,30.73a5.45,5.45,0,0,1-3.79-2.09,4.64,4.64,0,0,1-.38-.56c-.51-.92-.65-4.14.66-4.88.92-.53,1.59.23,1.91.73h0a3.11,3.11,0,0,1,.21.38Z"/><path class="cls-1" d="M55.53,30.73a5.45,5.45,0,0,1-3.79-2.09l-.16-.26c-.51-.92-.66-4.13.66-4.88a1.26,1.26,0,0,1,1.69.43h0a3.11,3.11,0,0,1,.21.38Z"/><path class="cls-8" d="M51.61,25.75a1.31,1.31,0,0,0,.06.78,6.35,6.35,0,0,0,2.46,2.66,2.73,2.73,0,0,1-.36-1.69c0-.2.07-.4.07-.6C53.85,26.09,52,24.23,51.61,25.75Z"/><path class="cls-10" d="M54.65,29.5l-.06,0-.16-.09a2.5,2.5,0,0,1-.51-.46,2.1,2.1,0,0,1-.42-.86,1.74,1.74,0,0,1,.13-1.13c0-.05,0-.1.07-.14l0,0h0l0,0,0-.06a.75.75,0,0,0-.07-.12,5.09,5.09,0,0,0-.31-.45L53,25.69a3,3,0,0,0-.33-.3.76.76,0,0,0-.33-.15.59.59,0,0,0-.28.05.31.31,0,0,0-.13.12.1.1,0,0,0,0,.05V25.4a.26.26,0,0,1,.11-.14.56.56,0,0,1,.33-.11.93.93,0,0,1,.44.13,2.7,2.7,0,0,1,.4.29,4.49,4.49,0,0,1,.4.37,5.46,5.46,0,0,1,.36.45l.09.13,0,.06.05.09,0,.07,0,.06-.05.09A.54.54,0,0,0,54,27a1.78,1.78,0,0,0-.16,1,2.09,2.09,0,0,0,.27.82,2.45,2.45,0,0,0,.39.49.64.64,0,0,0,.13.12Z"/><path class="cls-7" d="M61.66,46.78,57,50.4l-4.36-9.55c1.53-.54,2.9-.86,2.9-.86Z"/><path class="cls-4" d="M57.27,27c0-.16-.08-.39-.15-.67a6.28,6.28,0,0,0-.36-1A3.8,3.8,0,0,0,56,24.31a3.68,3.68,0,0,0-1-.78,5.38,5.38,0,0,0-1-.39l-.33-.08-.2-.18.06.15-.2,0-.25,0,.58.38c.08.18.18.41.29.68a11.51,11.51,0,0,1,.84,2.65A16.52,16.52,0,0,1,55,29.45c0,.38,0,.69,0,.9v.33l.14-.3c.08-.2.2-.49.32-.85a9.86,9.86,0,0,0,.32-1.32,5.46,5.46,0,0,0,0-1.71,4.87,4.87,0,0,0-.57-1.61,6,6,0,0,0-.73-1.07,8,8,0,0,1,1.12,1,11.9,11.9,0,0,1,1.26,1.71c.16.24.29.43.37.57l.15.21Z"/><path class="cls-5" d="M73.3,21.71s-1.82-2.44-2.84-1.48-.55,1.07-.55,1.07Z"/><path class="cls-5" d="M58.9,22.08s3.36-3.87,4.73-2.49c.8.8.25,1.34.25,1.34Z"/><path class="cls-11" d="M63.39,22.48a2.17,2.17,0,0,1-1.08.92.93.93,0,0,0-.68-.36c-.66,0-1.19.86-1.19,1.9s.53,1.91,1.19,1.91,1.18-.86,1.18-1.91a2.77,2.77,0,0,0-.14-.89A3.47,3.47,0,0,0,63.39,22.48Z"/><path class="cls-7" d="M59.31,23.88a2.43,2.43,0,0,0,2.62,1.06A2.73,2.73,0,0,0,60.79,24,2.79,2.79,0,0,0,59.31,23.88Z"/><path class="cls-11" d="M71.4,23.49a1.48,1.48,0,0,1-.74.63.68.68,0,0,0-.46-.21c-.49,0-.89.65-.89,1.44s.4,1.43.89,1.43.89-.64.89-1.43a2.05,2.05,0,0,0-.16-.81A2.62,2.62,0,0,0,71.4,23.49Z"/><path class="cls-7" d="M71.86,24.65a2.22,2.22,0,0,1-.83.63,2.08,2.08,0,0,1-1,.12,2.14,2.14,0,0,1,.82-.63A2.27,2.27,0,0,1,71.86,24.65Z"/><path class="cls-8" d="M66.16,29.33a2,2,0,0,0-.89-.24,3,3,0,0,0,1.62,1.56.47.47,0,0,0,.17,0,.39.39,0,0,0,.2-.08,3.4,3.4,0,0,0,1-.9.67.67,0,0,0,.13-.25c.07-.3-.13-.23-.31-.16a2.4,2.4,0,0,1-.64.16A2.74,2.74,0,0,1,66.16,29.33Z"/><path class="cls-10" d="M67,30.48c.19-.17.39-.3.58-.46a4.84,4.84,0,0,0,.63-.65c-1-.67-1-1.69-.91-2.84a3.32,3.32,0,0,1,.41-1.48,3.53,3.53,0,0,1,.49-.66,2.76,2.76,0,0,1,.3-.29,1.35,1.35,0,0,1,.33-.19c-.06.07-.1.15-.15.22s-.29.36-.41.56a5.2,5.2,0,0,0-.32.62,4.3,4.3,0,0,0-.29,1.37A3.59,3.59,0,0,0,67.83,28a2.65,2.65,0,0,0,1,1.26l-.73.83a3.79,3.79,0,0,1-.55.44,1.26,1.26,0,0,1-.66.26.39.39,0,0,1-.21-.06.52.52,0,0,0,.11-.1l0,0Z"/><path class="cls-12" d="M61.2,31.11a8.17,8.17,0,0,1,6.23,1.3S65.56,34.46,64,34.09C62,33.63,61.2,31.11,61.2,31.11Z"/><path class="cls-13" d="M61.37,31.22a16.59,16.59,0,0,1,5.87,1.19,3.29,3.29,0,0,1-3.35,1.17A3.4,3.4,0,0,1,61.37,31.22Z"/><path class="cls-8" d="M69.83,29.73c.15.42,1,.47,2,.11s1.6-1,1.45-1.4-1.06-.46-2-.1S69.67,29.32,69.83,29.73Z"/><path class="cls-8" d="M57.84,27.79c-.16.63.87,1.44,2.31,1.81s2.73.17,2.9-.46-.88-1.44-2.31-1.81S58,27.16,57.84,27.79Z"/><path class="cls-7" d="M72.43,21.74h0a3,3,0,0,0-.45-.18h-.07a3.45,3.45,0,0,0-1-.14h-.13a3.61,3.61,0,0,0-3.45,3.09,2.34,2.34,0,0,0-1.74,0,4,4,0,0,0-1.69-2.8,3.85,3.85,0,0,0-1.13-.56h0a3.84,3.84,0,0,0-.59-.11,3,3,0,0,0-.52,0h-.23a3.89,3.89,0,0,0-2.41,1,3.08,3.08,0,0,0-.66.78,3.12,3.12,0,0,0-.4.74l-1.26-.2h0l-2.95-.49h0l-1-.16,0,.29h0l0,.3h.12l.58.09h0l.21,0,.21,0h0l1.33.22h0l.24,0,2.38.39a3.93,3.93,0,0,0,.65,3.13A4,4,0,0,0,61.66,29,3.91,3.91,0,0,0,63,28.73a4,4,0,0,0,2.63-3.54,1.73,1.73,0,0,1,1.69,0,3.21,3.21,0,0,0,.07.53h0a2.88,2.88,0,0,0,.25.75v0a3.55,3.55,0,0,0,3,2.14h0a1.32,1.32,0,0,0,.28,0h.16a3,3,0,0,0,.43,0h.07a3.61,3.61,0,0,0,.86-.28,2,2,0,0,0,.36-.19,2.7,2.7,0,0,0,.33-.22,3.24,3.24,0,0,0,.43-.4,3.61,3.61,0,0,0-1.13-5.77ZM62.6,28.23a3.62,3.62,0,0,1-.94.13,3.3,3.3,0,0,1-2.56-1.2A3.27,3.27,0,0,1,58.3,25a3.36,3.36,0,0,1,3.36-3.36h.21a3.2,3.2,0,0,1,1.24.32A3.35,3.35,0,0,1,65,25,3.39,3.39,0,0,1,62.6,28.23ZM73.24,27a2.27,2.27,0,0,1-.47.46,2.33,2.33,0,0,1-.5.31,2.54,2.54,0,0,1-.8.28h0a1.64,1.64,0,0,1-.38,0h-.14a3,3,0,0,1-3-2.79,1.77,1.77,0,0,1,0-.23,2.56,2.56,0,0,1,0-.39h0a3,3,0,0,1,3-2.62,2.77,2.77,0,0,1,1,.18s0,0,0,0a2.13,2.13,0,0,1,.41.18A3,3,0,0,1,73.94,25,3,3,0,0,1,73.24,27Z"/><path class="cls-14" d="M73.21,80.72c-.39-1.22-.8-2.4-1.21-3.5h-.16l-3.36.14-3.93.18-.63,0h-.35L53.37,78s-.3,1-.74,2.68H73.21Z"/><path class="cls-15" d="M73.21,80.72c-.39-1.22-.8-2.4-1.21-3.5h-.16l-3.36.14-3.93.18-.63,0h-.35L53.37,78s-.3,1-.74,2.68H73.21Z"/><polygon class="cls-7" points="73.21 80.72 74.08 80.72 77.3 80.72 83.82 80.72 83.89 80.39 84.37 78.3 84.38 78.26 84.82 76.3 84.83 76.26 84.83 76.25 85.28 74.26 85.36 73.94 85.7 72.43 88.67 59.3 88.9 58.29 75.91 57.46 73.28 57.29 72.45 57.24 68.24 56.97 67.49 60.29 67.3 61.11 63.67 77.13 63.67 77.14 63.57 77.59 62.9 80.56 62.86 80.72 63.83 80.72 65.65 80.72 70.62 80.72 72.67 80.72 73.21 80.72"/><polygon class="cls-16" points="73.21 80.72 74.08 80.72 77.3 80.72 83.82 80.72 84.79 80.72 84.96 79.97 85.36 78.23 85.4 78.04 85.4 78.02 85.41 77.99 85.85 76.05 85.86 76 85.87 75.94 85.87 75.93 86.33 73.93 86.34 73.89 86.81 71.81 89.63 59.36 88.67 59.3 75.98 58.49 73.35 58.32 73.22 58.31 72.37 58.26 68.97 58.04 68.41 60.53 68.26 61.16 65.64 72.74 64.55 77.55 64.36 78.39 63.88 80.52 63.83 80.72 65.65 80.72 70.62 80.72 72.67 80.72 73.21 80.72"/><path class="cls-17" d="M63.83,80.72l.05-.2.48-2.13.19-.84,1.09-4.81a14.15,14.15,0,0,0,2.84,4.63,14.76,14.76,0,0,0,1.38,1.35c.37.32.77.64,1.19.94a18.14,18.14,0,0,0,1.62,1.06Z"/><path class="cls-1" d="M88.87,72.42a1.8,1.8,0,0,1-.84.82c-.39.19-.79.4-1.19.55l-.12,0a4,4,0,0,1-.57.14L86,74a1.84,1.84,0,0,1-.67-.08.6.6,0,0,1-.12-1,3.76,3.76,0,0,1,1.31-1,5.25,5.25,0,0,1,2-.44C88.91,71.52,89.21,71.75,88.87,72.42Z"/><path class="cls-1" d="M87.8,74.68a1.83,1.83,0,0,1-.83.82c-.26.12-.52.25-.78.36a1.94,1.94,0,0,1-.3.13,3.56,3.56,0,0,1-.81.24l-.16,0a1.69,1.69,0,0,1-.71-.08c-.34-.11-.41-.6-.12-1a3.76,3.76,0,0,1,1.32-1A3.59,3.59,0,0,1,86,74a6.63,6.63,0,0,1,.74-.19l.15,0C87.59,73.67,88.25,73.79,87.8,74.68Z"/><path class="cls-1" d="M87.31,76.73a1.9,1.9,0,0,1-.84.82c-.32.15-.65.32-1,.46l-.31.11a3.22,3.22,0,0,1-.61.16,2.19,2.19,0,0,1-.36,0,1.64,1.64,0,0,1-.5-.08c-.35-.12-.41-.61-.12-1a3.67,3.67,0,0,1,1.31-1h0A6.14,6.14,0,0,1,86,75.9l.16,0C87,75.72,87.78,75.78,87.31,76.73Z"/><path class="cls-1" d="M86.29,78.92a1.85,1.85,0,0,1-.84.82l-.16.08a6.39,6.39,0,0,1-1.73.65,1.77,1.77,0,0,1-.86,0c-.35-.12-.41-.61-.12-1a3.85,3.85,0,0,1,1.31-1,2.51,2.51,0,0,1,.33-.13A5.73,5.73,0,0,1,85.34,78l.16,0C86.17,77.94,86.7,78.1,86.29,78.92Z"/><path class="cls-9" d="M88.87,72.42a1.8,1.8,0,0,1-.84.82c-.39.19-.79.4-1.19.55.75-.12,1.41,0,1,.89a1.83,1.83,0,0,1-.83.82c-.26.12-.52.25-.78.36.81-.14,1.59-.08,1.12.87a1.9,1.9,0,0,1-.84.82c-.32.15-.65.32-1,.46.67-.07,1.2.09.79.91a1.85,1.85,0,0,1-.84.82l-.16.08.06-.11a2.11,2.11,0,0,0,.23-.91.72.72,0,0,0-.39-.68h0l.16-.09a2.11,2.11,0,0,0,.89-.86c.2-.47,0-1.17-.43-1.12l.09-.06L86,75.9a2.36,2.36,0,0,0,.79-.84,1.1,1.1,0,0,0-.1-1.23l0,0-.09,0a3.83,3.83,0,0,0,1.57-1.57c.09-.21.17-.45.25-.69C88.91,71.52,89.21,71.75,88.87,72.42Z"/><path class="cls-18" d="M16,45.45l.86-1S34,54.54,36,56.94c0,0,6.37-9.88,12-13.5,0,0-4.09,5.17-6,7.57l-5.69,7c.15.22.29.45.38.59A12.39,12.39,0,0,1,37.82,61c0,.15.09.34,0,.43s-.34,0-.46-.17l-2-2.33a3.33,3.33,0,0,1-1.53,1.78,5.88,5.88,0,0,1,.94-3C31,54.73,19.83,48.32,16,45.45Z"/><path class="cls-19" d="M19.26,0c10,0,18.17,6,18.17,13.35,0,4-2.37,7.55-6.13,10L35,26.62,32,28.69l3.13,2.78-2,1.27,4.33,5.16-9.19-5L30,31.65l-4.77-3.26,3-1.71-2.08-1a23.81,23.81,0,0,1-6.92,1c-10,0-18.16-6-18.16-13.35S9.23,0,19.26,0Z"/><path class="cls-20" d="M27.65,10.4A8.78,8.78,0,0,0,16.11,5.81l3.48,8.07-8.17-3.25a8.78,8.78,0,1,0,16.23-.23Z"/><path class="cls-21" d="M14,3.76A8.73,8.73,0,0,0,9.36,8.58l8.16,3.25Z"/></g></g></svg>