<svg xmlns="http://www.w3.org/2000/svg" viewBox="0 0 57.84 67.07"><defs><style>.cls-1{fill:#cf691f;}.cls-2{fill:#ff9300;}.cls-3{fill:#85441d;}.cls-4{fill:#965326;}.cls-5{fill:#b5693c;}.cls-6{fill:#fff0e7;}.cls-7{fill:#fdbd8e;}.cls-8{fill:#fb9988;}.cls-9{fill:#ffdaba;}.cls-10{fill:#fd7d6f;}.cls-11{fill:#161818;}.cls-12{fill:#ffb800;}.cls-13{fill:#006aab;}.cls-14{fill:#005789;}</style></defs><title>Ресурс 11</title><g id="Слой_2" data-name="Слой 2"><g id="OBJECTS"><path class="cls-1" d="M32,67.07l2.7-12.23.21-1,1-4.51.3-12.74a23.79,23.79,0,0,1,3,2c1.91,1.5,4.09,3.7,4.41,6.15.15,1.11.32,3.48.5,6.45,0,.33,0,.67.07,1,.27,4.53.56,10.18.83,14.84Z"/><path class="cls-1" d="M40.05,67.07V56.94s.3-2.3.53-4.94c0-.33.06-.67.08-1a43.67,43.67,0,0,0,.18-4.89c.21,1.24.49,3,.65,4.93h0c0,.34,0,.68.07,1a16.76,16.76,0,0,1-.44,5.87l.26,9.14Z"/><path class="cls-2" d="M41.49,51h0c0,.34,0,.68-.05,1a52.12,52.12,0,0,1-.76,6.34,81.85,81.85,0,0,0-.41,8.68H20.77C20,63.58,18.72,58.76,17.59,54c-.71-2.92-1.36-5.82-1.85-8.35-1.05-5.42-1.61-6.27-1.25-7a2.52,2.52,0,0,1,.55-.63l.23-.19,0,0a26.74,26.74,0,0,1,5.58-3.23,28.49,28.49,0,0,1,2.89-.85h6.93a4.26,4.26,0,0,1,1.23.17,7.94,7.94,0,0,1,.81.25,18.9,18.9,0,0,1,5.52,3.44,5.72,5.72,0,0,1,.94,1C41.33,41.48,41.67,46.66,41.49,51Z"/><path class="cls-1" d="M38.87,55l-.7,0-1.87-.12a18.84,18.84,0,0,0-5.9.39c-.56.14-1.11.32-1.67.47a15.08,15.08,0,0,1-1.67.35,13.5,13.5,0,0,1-2.86.09A4.38,4.38,0,0,1,23.09,56a2.63,2.63,0,0,1-.77-.39A1.79,1.79,0,0,1,22,55.2L21.86,55l.14.12a1.49,1.49,0,0,0,.43.24,3.51,3.51,0,0,0,1.75.1A21,21,0,0,0,26.83,55c.49-.13,1-.29,1.51-.47s1.09-.38,1.71-.54a10,10,0,0,1,3.56-.27,16,16,0,0,1,2.8.54c.77.22,1.38.43,1.81.59Z"/><path class="cls-3" d="M42.27,22.87c0-.15-.08-.38-.16-.66a5,5,0,0,0-.35-1A4.32,4.32,0,0,0,41,20.16a4.1,4.1,0,0,0-1-.78A5.27,5.27,0,0,0,39,19l-.34-.08-.19-.18.06.15-.2,0-.25,0,.58.38c.08.18.17.41.29.67a11.86,11.86,0,0,1,.83,2.65,15.78,15.78,0,0,1,.14,2.8c0,.38,0,.68,0,.9v.33l.14-.31a8.53,8.53,0,0,0,.31-.84,7.52,7.52,0,0,0,.32-1.32,5.16,5.16,0,0,0,0-1.71,5,5,0,0,0-.57-1.61,6.6,6.6,0,0,0-.73-1.07,7.35,7.35,0,0,1,1.12,1,11.9,11.9,0,0,1,1.26,1.71l.37.57.15.2S42.3,23,42.27,22.87Z"/><path class="cls-3" d="M20.41,27.61a13.2,13.2,0,0,1-1.87,3.09c-1.66,2.1-4,3.88-6.66,4.06A9.27,9.27,0,0,0,15.4,32.4c-.16.1-.32.21-.49.3a9,9,0,0,1-6.16,1,7.61,7.61,0,0,0,1.71-3.25,11.42,11.42,0,0,0,.38-2.6,37.17,37.17,0,0,0-.62-6.31,60.82,60.82,0,0,1-.68-10.35,10.82,10.82,0,0,1,3.08-7.65,4.68,4.68,0,0,1,7,.77A3.77,3.77,0,0,1,20,5c.18.38.27.67,0,1a7.93,7.93,0,0,1-.83.91,6.22,6.22,0,0,0-1.5,3c.13.11.25.21.37.33a8.08,8.08,0,0,1,1.63,2.68,23.13,23.13,0,0,1,1.65,8.27A15.48,15.48,0,0,1,20.41,27.61Z"/><path class="cls-4" d="M19.62,4.29a4.39,4.39,0,0,1-.56,1.25,3.4,3.4,0,0,0-3,2,8.43,8.43,0,0,0-.67,3.7,33.59,33.59,0,0,0,.42,5.67,35.49,35.49,0,0,1,.77,6,7,7,0,0,1-2.2,5.39,8.07,8.07,0,0,0-.59-3.47,7.63,7.63,0,0,1-3.34,5.64,11.42,11.42,0,0,0,.38-2.6,26.39,26.39,0,0,0-.37-4.61c-.08-.57-.17-1.14-.25-1.7a60.82,60.82,0,0,1-.68-10.35,10.82,10.82,0,0,1,3.08-7.65A4.78,4.78,0,0,1,16.7,2.38a4.61,4.61,0,0,1,1.15.4A4.78,4.78,0,0,1,19.62,4.29Z"/><path class="cls-5" d="M17.85,2.78a8.48,8.48,0,0,0-3.18,3.11,8.53,8.53,0,0,0-.54,2,19.28,19.28,0,0,0-.38,2.73,45.87,45.87,0,0,0,.4,4.81,15.33,15.33,0,0,1-.7,5.63,9.93,9.93,0,0,0-1-2.47,8.71,8.71,0,0,1-1.95,4.68c-.08-.57-.17-1.14-.25-1.7a60.82,60.82,0,0,1-.68-10.35,10.82,10.82,0,0,1,3.08-7.65A4.78,4.78,0,0,1,16.7,2.38,4.61,4.61,0,0,1,17.85,2.78Z"/><path class="cls-6" d="M22.52,6.38a2.74,2.74,0,1,1-2.74-2.74A2.74,2.74,0,0,1,22.52,6.38Z"/><path class="cls-6" d="M32.75,34.15l.73,8.21-3.61-1.84L28,38.19s0-3,0-4.46h2.74a4.82,4.82,0,0,1,1.23.18h0A7.94,7.94,0,0,1,32.75,34.15Z"/><path class="cls-7" d="M29.87,40.52l-6.09-6.78c0-1,.1-1.39.19-3.89.1-2.77.2-5.37.2-5.37L32,27.57a18.54,18.54,0,0,0-1.4,6.32A52.24,52.24,0,0,1,29.87,40.52Z"/><path class="cls-8" d="M32,27.57a18.54,18.54,0,0,0-1.4,6.32l-.72.28c-.9.31-3.83-2.28-5.91-4.32.1-2.77.2-5.37.2-5.37Z"/><path class="cls-7" d="M40.22,18.27c-.16.72-.37,1.48-.62,2.28,0,0,.35,3.92-.06,4.8s-3,6.36-5.82,6c-2.31-.28-8-3.67-9.94-5.69a2.29,2.29,0,0,1-.68-1c-.27-1.55-1.2-8.42-1.28-9-.24-1.56-.89-13.34,13.36-10.06a6.87,6.87,0,0,1,5.17,5.14A17.21,17.21,0,0,1,40.22,18.27Z"/><path class="cls-3" d="M42.46,10.94a6.16,6.16,0,0,1-.38,1.84A6.54,6.54,0,0,1,40.14,16a20,20,0,0,0-.22-4.76c-3.39,3.7-10.5,5-10.79,5,1.34-.42,1.75-3.11,1.75-3.11-1.62,3.78-8.74,4.56-8.74,4.56-1.7-1.38-2.89,1.24-2.89,1.24-.57-1.07-1.05-2-1.42-2.92-.1-.24-.2-.46-.28-.69a9.55,9.55,0,0,1-.49-1.83C16.11,7.78,20.37,2.21,25.85.62h0C31-.88,37.16.49,40,3.35a6,6,0,0,1,1.23,1.7l.12.27,0,.09a4.5,4.5,0,0,1,.28,1.68,5.8,5.8,0,0,1-.12,1A5.66,5.66,0,0,1,42.46,10.94Z"/><path class="cls-4" d="M41.39,5.32a4.39,4.39,0,0,1-1,.4c-.68.18-1.4.19-2.09.38a4.31,4.31,0,0,0-2.15,1.34c-1,1.14-1.45,2.83-2.81,3.52a4.35,4.35,0,0,1-3.08.06,10.58,10.58,0,0,0-3.07-.64,5.79,5.79,0,0,0-4.14,2.43,5.36,5.36,0,0,1-1,1.07,3.12,3.12,0,0,1-2,.42,7.34,7.34,0,0,1-3-.83,10.16,10.16,0,0,1,.6-5.39A12.74,12.74,0,0,1,25.85.62h0A17.13,17.13,0,0,1,36,1a10.81,10.81,0,0,1,4,2.39,6,6,0,0,1,1.23,1.7Z"/><path class="cls-5" d="M36,1c-1.67,1.37-2.52,3.76-4.54,4.51a8.05,8.05,0,0,1-3.72.07,4.93,4.93,0,0,0-3.61.62c-.51.41-.86,1-1.35,1.43a4.59,4.59,0,0,1-3.91.85,7.65,7.65,0,0,1-1.24-.36A12.74,12.74,0,0,1,25.85.62h0A17.13,17.13,0,0,1,36,1Z"/><path class="cls-9" d="M39.6,20.55s.35,3.92-.06,4.8-3,6.36-5.82,6c-2.31-.28-8-3.67-9.94-5.69,2.41,1.67,8.83,5.94,10.72,5.28,2.33-.81,5-6,4.92-6.48s-.21-3.86-.21-3.86.47-1.06,1-2.35C40.06,19,39.85,19.75,39.6,20.55Z"/><path class="cls-9" d="M23.74,24.47A5.45,5.45,0,0,1,20,22.38a4.64,4.64,0,0,1-.38-.56c-.51-.92-.66-4.14.66-4.88.92-.53,1.59.23,1.91.73h0a2.44,2.44,0,0,1,.21.38Z"/><path class="cls-7" d="M23.74,24.47A5.45,5.45,0,0,1,20,22.38l-.16-.25c-.51-.93-.66-4.14.66-4.89a1.26,1.26,0,0,1,1.69.43h0a2.44,2.44,0,0,1,.21.38Z"/><path class="cls-8" d="M19.81,19.49a1.4,1.4,0,0,0,.07.78,6.23,6.23,0,0,0,2.46,2.66A2.73,2.73,0,0,1,22,21.24c0-.2.07-.4.07-.6C22.06,19.83,20.2,18,19.81,19.49Z"/><path class="cls-10" d="M22.86,23.24l-.06,0-.16-.1a2.5,2.5,0,0,1-.51-.46,2.1,2.1,0,0,1-.42-.86,1.74,1.74,0,0,1,.13-1.13c0-.05.05-.1.07-.14l0,0s0,0,0,0h0v0l0-.06a.75.75,0,0,0-.07-.12,3.8,3.8,0,0,0-.31-.44,4.29,4.29,0,0,0-.33-.38,2.34,2.34,0,0,0-.33-.31.76.76,0,0,0-.33-.15.59.59,0,0,0-.28.05c-.08,0-.12.08-.13.12a.1.1,0,0,0,0,.05v-.06a.3.3,0,0,1,.11-.14.64.64,0,0,1,.33-.11A.93.93,0,0,1,21,19a2.7,2.7,0,0,1,.4.29,4.49,4.49,0,0,1,.4.37,5.46,5.46,0,0,1,.36.45l.08.13,0,.06.06.1,0,.06,0,.06-.05.1a.47.47,0,0,0-.07.12,1.88,1.88,0,0,0-.17,1,2.21,2.21,0,0,0,.28.82,1.94,1.94,0,0,0,.39.49l.13.13Z"/><path class="cls-6" d="M29.87,40.52l-4.62,3.62-4.36-9.55c1.52-.54,2.89-.86,2.89-.86Z"/><path class="cls-3" d="M25.48,20.76c0-.16-.08-.39-.15-.67a6.28,6.28,0,0,0-.36-1,4.28,4.28,0,0,0-.72-1.07,3.68,3.68,0,0,0-1-.78,5.38,5.38,0,0,0-1-.39l-.33-.08-.2-.18.06.15-.2,0-.25,0,.58.38c.08.18.18.41.29.68A12,12,0,0,1,23,20.4a16.52,16.52,0,0,1,.13,2.79c0,.38,0,.69,0,.9v.33l.14-.3c.08-.2.2-.49.32-.85A8.33,8.33,0,0,0,23.93,22a5.07,5.07,0,0,0-.57-3.32,6.41,6.41,0,0,0-.73-1.07,8,8,0,0,1,1.12,1A11.9,11.9,0,0,1,25,20.23l.37.57.15.21Z"/><path class="cls-4" d="M41.51,15.45S39.69,13,38.67,14,38.12,15,38.12,15Z"/><path class="cls-4" d="M27.11,15.82s3.36-3.87,4.73-2.49c.8.8.25,1.34.25,1.34Z"/><path class="cls-11" d="M31.6,16.22a2.17,2.17,0,0,1-1.08.92.91.91,0,0,0-.68-.35c-.66,0-1.19.85-1.19,1.9s.53,1.9,1.19,1.9S31,19.74,31,18.69a2.83,2.83,0,0,0-.14-.9A3.47,3.47,0,0,0,31.6,16.22Z"/><path class="cls-6" d="M27.52,17.63a2.44,2.44,0,0,0,2.62,1.05,2.44,2.44,0,0,0-2.62-1.05Z"/><path class="cls-11" d="M39.61,17.23a1.55,1.55,0,0,1-.74.64.63.63,0,0,0-.46-.21c-.5,0-.9.64-.9,1.43s.4,1.43.9,1.43.89-.64.89-1.43a2.05,2.05,0,0,0-.16-.81A2.62,2.62,0,0,0,39.61,17.23Z"/><path class="cls-6" d="M40.06,18.39a2,2,0,0,1-.82.63,2.16,2.16,0,0,1-1,.13,2,2,0,0,1,.82-.63A2.16,2.16,0,0,1,40.06,18.39Z"/><path class="cls-8" d="M34.37,23.07a2,2,0,0,0-.89-.24,3,3,0,0,0,1.62,1.56.47.47,0,0,0,.17,0,.48.48,0,0,0,.2-.07,3.71,3.71,0,0,0,1-.91.67.67,0,0,0,.13-.25c.07-.29-.13-.23-.31-.16a2.7,2.7,0,0,1-1.94,0Z"/><path class="cls-10" d="M35.16,24.22c.18-.16.39-.3.58-.46a4.84,4.84,0,0,0,.63-.65c-1-.67-1-1.69-.91-2.84a3.32,3.32,0,0,1,.41-1.48,4,4,0,0,1,.48-.66c.1-.1.2-.2.31-.29a1.32,1.32,0,0,1,.33-.18,1.59,1.59,0,0,0-.15.21c-.14.19-.29.36-.41.56a5.2,5.2,0,0,0-.32.62,4.3,4.3,0,0,0-.29,1.37A3.4,3.4,0,0,0,36,21.76,2.65,2.65,0,0,0,37,23l-.73.84a3.33,3.33,0,0,1-.56.43,1.2,1.2,0,0,1-.65.26.37.37,0,0,1-.21-.06L35,24.4l.05,0Z"/><path class="cls-10" d="M33.48,27.21a2.88,2.88,0,0,0,2.37.07,1.24,1.24,0,0,1-1.08.58A2,2,0,0,1,33.48,27.21Z"/><path class="cls-10" d="M30.74,25.14a7.12,7.12,0,0,0,6.55.9,10.5,10.5,0,0,1-3.58,0A8.06,8.06,0,0,1,30.74,25.14Z"/><path class="cls-8" d="M38,23.47c.15.42,1.05.47,2,.11s1.6-1,1.45-1.4-1.06-.46-2-.1S37.88,23.06,38,23.47Z"/><path class="cls-8" d="M26.05,21.53c-.16.63.87,1.44,2.31,1.81s2.73.17,2.89-.46-.87-1.44-2.3-1.81S26.21,20.91,26.05,21.53Z"/><path class="cls-6" d="M40.64,15.48h0l-.45-.18h-.07a3.45,3.45,0,0,0-1-.14H39a3.62,3.62,0,0,0-3.46,3.09,2.34,2.34,0,0,0-1.74,0,4,4,0,0,0-1.69-2.8A3.83,3.83,0,0,0,31,14.93h0a4.54,4.54,0,0,0-1.11-.16h-.23a3.87,3.87,0,0,0-2.41,1,3.3,3.3,0,0,0-.66.79,3.12,3.12,0,0,0-.4.74l-1.24-.21h0l-3-.48-1-.17-.05.29h0l-.05.3H21l.58.09h0l.21,0,.21,0H22l1.33.22h0l.22,0L26,17.9a3.86,3.86,0,0,0-.09.84A3.91,3.91,0,0,0,26.63,21a4,4,0,0,0,4.58,1.45,4,4,0,0,0,2.62-3.55,1.75,1.75,0,0,1,1.69,0,3.43,3.43,0,0,0,.07.56,2.74,2.74,0,0,0,.25.73v0a3.57,3.57,0,0,0,3,2.14,1.51,1.51,0,0,0,.3,0h.16a2,2,0,0,0,.42,0h.07a3.21,3.21,0,0,0,.86-.28,2.09,2.09,0,0,0,.36-.19,1.9,1.9,0,0,0,.33-.22,3.22,3.22,0,0,0,.43-.39,3.62,3.62,0,0,0-1.13-5.78ZM30.81,22a3.62,3.62,0,0,1-.94.13,3.39,3.39,0,0,1-3.36-3.36,3.37,3.37,0,0,1,3.36-3.36h.21a3,3,0,0,1,1.24.33,3.34,3.34,0,0,1,1.91,3A3.39,3.39,0,0,1,30.81,22Zm10.65-1.28h0a3.37,3.37,0,0,1-.48.45,2.37,2.37,0,0,1-.5.32,2.8,2.8,0,0,1-.8.27h0a1.72,1.72,0,0,1-.39,0h-.12a3,3,0,0,1-3-2.78h0a1.77,1.77,0,0,1,0-.23,2.56,2.56,0,0,1,0-.39,3,3,0,0,1,3-2.63,2.77,2.77,0,0,1,1,.18h0a2,2,0,0,1,.42.18,3,3,0,0,1,.88,4.57Z"/><path class="cls-2" d="M17.52,54.16l-6,12.91H0C3.38,58,10.67,42.31,11.46,41.31v0A38.48,38.48,0,0,1,15,38.05l.23-.19,0,0,4.76,10.89L17.59,54Z"/><polygon class="cls-1" points="16.91 51.9 17.52 54.16 11.48 67.07 9.88 67.07 16.91 51.9"/><path class="cls-12" d="M11.46,41.31C11.2,42,4.88,58.07,1.68,67.07H0C3.38,58,10.67,42.31,11.46,41.31Z"/><polygon class="cls-6" points="57.11 52.03 56.88 53.04 53.91 66.17 53.7 67.07 32.75 67.07 35.52 54.86 35.71 54.03 36.46 50.72 40.66 50.99 41.49 51.04 44.12 51.21 57.11 52.03"/><polygon class="cls-13" points="57.84 53.1 55.02 65.55 54.68 67.07 33.72 67.07 33.85 66.48 36.47 54.9 36.62 54.27 37.18 51.78 40.58 52 41.44 52.05 41.56 52.06 44.19 52.23 56.88 53.04 57.84 53.1"/><path class="cls-14" d="M34.09,67.07h-.37l.13-.59C33.92,66.68,34,66.87,34.09,67.07Z"/><path class="cls-7" d="M57.08,66.16a1.8,1.8,0,0,1-.84.82l-.19.09H53.2a.83.83,0,0,1,.17-.37,3.38,3.38,0,0,1,.54-.53,3.29,3.29,0,0,1,.77-.48l.34-.14a5.11,5.11,0,0,1,1.61-.31C57.12,65.26,57.42,65.49,57.08,66.16Z"/><path class="cls-9" d="M57.08,66.16a1.8,1.8,0,0,1-.84.82l-.19.09h-.62a3.07,3.07,0,0,0,1-1.14c.09-.21.17-.45.25-.69C57.12,65.26,57.42,65.49,57.08,66.16Z"/></g></g></svg>