<svg xmlns="http://www.w3.org/2000/svg" viewBox="0 0 53.73 67.38"><defs><style>.cls-1{fill:#cf691f;}.cls-2{fill:#ffb800;}.cls-3{fill:#171228;}.cls-4{fill:#909aa3;}.cls-5{fill:#fdbd8e;}.cls-6{fill:#fd7d6f;}.cls-7{fill:#ffdaba;}.cls-8{fill:#ff9300;}.cls-9{fill:#85441d;}.cls-10{fill:#965326;}.cls-11{fill:#b5693c;}.cls-12{fill:#fff0e7;}.cls-13{fill:#fb9988;}.cls-14{fill:#ff7d6f;}.cls-15{fill:#cf4a57;}.cls-16{fill:#161818;}.cls-17{fill:#006aab;}</style></defs><title>Ресурс 7</title><g id="Слой_2" data-name="Слой 2"><g id="OBJECTS"><path class="cls-1" d="M47.7,67.36h2.71s0,0,0,0a.08.08,0,0,1,0,0c-.08-.25-.19-.61-.34-1.06,0-.17-.11-.36-.18-.56s-.22-.71-.36-1.12L49,62.87h0l-.1-.3-.59-1.82L48,60c-.26-.78-.52-1.6-.8-2.43h0c0-.12-.07-.23-.12-.35l-.24-.73-.42-1.26c-.1-.32-.21-.64-.32-1-.2-.58-.39-1.16-.58-1.73A109.28,109.28,0,0,0,41.3,41.13a11.84,11.84,0,0,0-1.79-2.23,24,24,0,0,0-2.44-2.17c-.92-.72-1.6-1.17-1.6-1.17v6.36s0,5.37.41,12.12c0,.27,0,.55,0,.83.26,4,.67,8.44,1.32,12.49H47.7Z"/><path class="cls-2" d="M50.42,67.36v0H47.7c-.11-.27-.21-.55-.3-.83s-.23-.7-.33-1a80.36,80.36,0,0,1-1.79-8c-.35-1.79-.71-3.58-1.17-5.33a45.83,45.83,0,0,0-2.52-7.14c-.07-.16-.15-.32-.24-.49h0c-1.24-2.49-3.39-5.11-4.28-7.83a24,24,0,0,1,2.44,2.17,11.84,11.84,0,0,1,1.79,2.23,109.28,109.28,0,0,1,4.26,11.41c.19.57.38,1.15.58,1.73.11.32.22.64.32,1h0q.2.65.42,1.26c.08.25.16.49.23.73s.08.23.12.35h0c.28.83.54,1.65.8,2.43l.24.73.59,1.82.1.3h0l.53,1.65c.14.41.26.78.36,1.12s.13.39.18.56c.15.45.26.81.34,1.06a.08.08,0,0,0,0,0S50.42,67.34,50.42,67.36Z"/><path class="cls-3" d="M47.7,67.36h1.88L50,66.2l.17-.43.15-.37L51,63.85h0l.42-1,1.73-4.32a.73.73,0,0,0-.4-.93L47,55.24a.75.75,0,0,0-.49,0h0a.75.75,0,0,0-.43.41l-.75,1.89-3.42,8.54a.72.72,0,0,0,.4.93l.9.36H47.7Z"/><path class="cls-4" d="M47.58,57.25a.57.57,0,0,1-.74.32.57.57,0,0,1-.31-.74.57.57,0,0,1,.74-.32A.57.57,0,0,1,47.58,57.25Z"/><path class="cls-5" d="M47.7,67.36h2.71v0h2.66a7.88,7.88,0,0,0,.65-2.28s-.34-.42-.88-1L52.7,64a9,9,0,0,0-.83-.77,5.71,5.71,0,0,0-.47-.39c-.12-.1-.25-.19-.38-.28a3.87,3.87,0,0,0-.37-.24,4.77,4.77,0,0,0-.84-.43l-.55.65-.29.36h0c-.24.29-.51.64-.8,1l-.47.65c-.21.3-.42.61-.63.94s-.33.5-.49.76-.27.46-.4.69a3.48,3.48,0,0,0-.22.43H47.7Z"/><path class="cls-6" d="M50.69,65.94s-.28-.08-.67-.23a12.47,12.47,0,0,1-1.44-.64c-.32-.17-.62-.35-.88-.52l.47-.66a4,4,0,0,1,.86.33,3.89,3.89,0,0,1,1.28,1.11A3.09,3.09,0,0,1,50.69,65.94Z"/><path class="cls-6" d="M47.7,67.36h.8a3.6,3.6,0,0,0-1-.81l-.05,0a4.51,4.51,0,0,0-.82-.29c-.14.23-.27.46-.4.69.22.14.47.29.74.43Z"/><path class="cls-7" d="M53.08,67.36a5.55,5.55,0,0,0-.65-1.91,6.79,6.79,0,0,0-1.23-1.4,11.63,11.63,0,0,0-1.65-1.4l-.29-.15.55-.64c1.9.72,3.92,3.22,3.92,3.22A7.79,7.79,0,0,1,53.08,67.36Z"/><path class="cls-8" d="M40.78,58.39a87.51,87.51,0,0,0-.42,9H20.93c-.33-1.45-.74-3.15-1.19-5-.11-.43-.21-.86-.33-1.3-.55-2.25-1.15-4.67-1.72-7.06-.71-2.92-1.36-5.81-1.85-8.34-1.05-5.42-1.6-6.28-1.25-7a2.44,2.44,0,0,1,.49-.56l.15-.13.15-.12,0,0A27,27,0,0,1,21,34.58c.38-.14.75-.26,1.09-.36L23,34l.87-.22h6.92a5.15,5.15,0,0,1,1.23.17h0a7.35,7.35,0,0,1,.82.25,18.66,18.66,0,0,1,5.51,3.44,5.75,5.75,0,0,1,1.14,1.31,13.56,13.56,0,0,1,1.84,5.66h0A49.11,49.11,0,0,1,40.78,58.39Z"/><path class="cls-1" d="M39,55l-.69,0-1.88-.12a18.84,18.84,0,0,0-5.9.39c-.55.14-1.11.32-1.67.47a15.4,15.4,0,0,1-1.66.35,13.59,13.59,0,0,1-2.87.09A5,5,0,0,1,23.19,56a2.63,2.63,0,0,1-.77-.39,2,2,0,0,1-.36-.39L22,55l.13.12a1.49,1.49,0,0,0,.43.24,3.56,3.56,0,0,0,1.76.1A20.86,20.86,0,0,0,26.93,55c.49-.13,1-.29,1.52-.47s1.09-.38,1.7-.54a10.08,10.08,0,0,1,3.57-.27,16.39,16.39,0,0,1,2.8.54c.77.22,1.38.43,1.8.59Z"/><path class="cls-9" d="M42.38,22.88c0-.16-.08-.39-.16-.67a5.93,5.93,0,0,0-.36-1,4,4,0,0,0-.71-1.08,4.14,4.14,0,0,0-1-.78,5.27,5.27,0,0,0-1-.38l-.33-.08a2.1,2.1,0,0,0-.2-.18,1.15,1.15,0,0,1,.07.15l-.21,0-.25,0,.59.38c.07.18.17.41.28.67a11.83,11.83,0,0,1,.84,2.65,15.67,15.67,0,0,1,.13,2.8c0,.38,0,.68,0,.9s0,.33,0,.33l.13-.31c.08-.19.2-.48.32-.84a8.53,8.53,0,0,0,.32-1.32,5.75,5.75,0,0,0,0-1.71,5.27,5.27,0,0,0-.57-1.61,6.59,6.59,0,0,0-.74-1.07,6.9,6.9,0,0,1,1.12,1,11.19,11.19,0,0,1,1.26,1.71l.38.57.14.2S42.4,23,42.38,22.88Z"/><path class="cls-9" d="M20.51,27.61a13.51,13.51,0,0,1-1.86,3.09c-1.67,2.1-4,3.88-6.67,4.06a9.38,9.38,0,0,0,3.53-2.36c-.17.1-.33.21-.5.3a8.94,8.94,0,0,1-6.16,1,7.74,7.74,0,0,0,1.72-3.25,11,11,0,0,0,.37-2.6,37.15,37.15,0,0,0-.61-6.31,60.83,60.83,0,0,1-.69-10.35,10.87,10.87,0,0,1,3.08-7.65,4.69,4.69,0,0,1,7,.77,5.35,5.35,0,0,1,.41.7c.17.38.27.67,0,1a7.19,7.19,0,0,1-.84.91,6.22,6.22,0,0,0-1.5,3,4,4,0,0,1,.37.33,7.94,7.94,0,0,1,1.64,2.68A23.35,23.35,0,0,1,21.5,21.2,15.66,15.66,0,0,1,20.51,27.61Z"/><path class="cls-10" d="M19.73,4.29a4.16,4.16,0,0,1-.57,1.25,3.4,3.4,0,0,0-3,2,8.44,8.44,0,0,0-.68,3.7,35.81,35.81,0,0,0,.42,5.67,34.38,34.38,0,0,1,.78,6,7,7,0,0,1-2.21,5.39,7.92,7.92,0,0,0-.59-3.47,7.62,7.62,0,0,1-3.33,5.64,11,11,0,0,0,.37-2.6,25.45,25.45,0,0,0-.37-4.61l-.24-1.7a60.83,60.83,0,0,1-.69-10.35,10.87,10.87,0,0,1,3.08-7.65A4.8,4.8,0,0,1,16.8,2.38a4.61,4.61,0,0,1,1.15.4A4.82,4.82,0,0,1,19.73,4.29Z"/><path class="cls-11" d="M18,2.78a8.38,8.38,0,0,0-3.17,3.11,7.62,7.62,0,0,0-.54,2,16.76,16.76,0,0,0-.38,2.73,45.84,45.84,0,0,0,.39,4.81A15.33,15.33,0,0,1,13.56,21a9.93,9.93,0,0,0-1-2.47,8.72,8.72,0,0,1-2,4.68l-.24-1.7a60.83,60.83,0,0,1-.69-10.35,10.87,10.87,0,0,1,3.08-7.65A4.8,4.8,0,0,1,16.8,2.38,4.61,4.61,0,0,1,18,2.78Z"/><path class="cls-12" d="M22.62,6.38a2.74,2.74,0,1,1-2.73-2.74A2.74,2.74,0,0,1,22.62,6.38Z"/><path class="cls-12" d="M32.86,34.15l.73,8.21L30,40.52l-1.88-2.33s0-3,0-4.46h2.74A4.82,4.82,0,0,1,32,33.9h0A7.35,7.35,0,0,1,32.86,34.15Z"/><path class="cls-5" d="M30,40.52l-6.08-6.79c0-1,.09-1.38.18-3.88.1-2.77.2-5.37.2-5.37l7.83,3.09a18.78,18.78,0,0,0-1.4,6.32A49.92,49.92,0,0,1,30,40.52Z"/><path class="cls-13" d="M32.1,27.57a18.78,18.78,0,0,0-1.4,6.32c-.24.1-.48.2-.71.28-.91.31-3.83-2.28-5.92-4.32.1-2.77.2-5.37.2-5.37Z"/><path class="cls-5" d="M40.32,18.27c-.16.72-.36,1.48-.61,2.28,0,0,.35,3.92-.06,4.8s-3.06,6.36-5.83,6c-2.31-.28-8-3.67-9.93-5.69a2.33,2.33,0,0,1-.69-1c-.27-1.55-1.19-8.42-1.28-9C21.68,14.12,21,2.34,35.28,5.62a6.85,6.85,0,0,1,5.17,5.14A17.21,17.21,0,0,1,40.32,18.27Z"/><path class="cls-9" d="M42.56,10.94a6.15,6.15,0,0,1-.37,1.84A6.55,6.55,0,0,1,40.24,16,20,20,0,0,0,40,11.2c-3.4,3.7-10.51,5-10.8,5C30.58,15.8,31,13.11,31,13.11c-1.62,3.78-8.74,4.56-8.74,4.56-1.7-1.38-2.88,1.24-2.88,1.24A32.11,32.11,0,0,1,17.93,16q-.15-.36-.27-.69a9.55,9.55,0,0,1-.49-1.83C16.22,7.78,20.47,2.21,26,.62h0C31.14-.88,37.26.49,40.15,3.35a5.94,5.94,0,0,1,1.22,1.7,1.59,1.59,0,0,1,.12.27l0,.09a4.3,4.3,0,0,1,.28,1.68,5.8,5.8,0,0,1-.12,1A5.57,5.57,0,0,1,42.56,10.94Z"/><path class="cls-10" d="M41.49,5.32a4.31,4.31,0,0,1-1,.4c-.69.18-1.41.19-2.1.38a4.31,4.31,0,0,0-2.15,1.34c-1,1.14-1.45,2.83-2.8,3.52a4.35,4.35,0,0,1-3.08.06,10.71,10.71,0,0,0-3.08-.64,5.81,5.81,0,0,0-4.14,2.43,5.31,5.31,0,0,1-1,1.07,3.2,3.2,0,0,1-2,.42,7.34,7.34,0,0,1-3-.83,10.16,10.16,0,0,1,.59-5.39A12.76,12.76,0,0,1,26,.62h0A17.13,17.13,0,0,1,36.14,1a11,11,0,0,1,4,2.39,5.94,5.94,0,0,1,1.22,1.7A1.59,1.59,0,0,1,41.49,5.32Z"/><path class="cls-11" d="M36.14,1c-1.67,1.37-2.53,3.76-4.55,4.51a8.05,8.05,0,0,1-3.72.07,4.9,4.9,0,0,0-3.6.62c-.52.41-.87,1-1.36,1.43A4.58,4.58,0,0,1,19,8.44a7.65,7.65,0,0,1-1.24-.36A12.76,12.76,0,0,1,26,.62h0A17.13,17.13,0,0,1,36.14,1Z"/><path class="cls-7" d="M39.71,20.55s.35,3.92-.06,4.8-3.06,6.36-5.83,6c-2.31-.28-8-3.67-9.93-5.69C26.3,27.35,32.72,31.62,34.6,31c2.33-.81,5-6,4.92-6.48s-.2-3.86-.2-3.86.47-1.06,1-2.35C40.16,19,40,19.75,39.71,20.55Z"/><path class="cls-7" d="M23.84,24.48a5.49,5.49,0,0,1-3.79-2.1,4.47,4.47,0,0,1-.37-.56c-.51-.92-.66-4.14.65-4.88.93-.53,1.6.23,1.92.73h0a3.28,3.28,0,0,1,.2.37Z"/><path class="cls-5" d="M23.84,24.48a5.49,5.49,0,0,1-3.79-2.1,2.36,2.36,0,0,1-.15-.25c-.52-.93-.66-4.14.65-4.89a1.28,1.28,0,0,1,1.7.43h0a3.28,3.28,0,0,1,.2.37Z"/><path class="cls-14" d="M19.92,19.49a1.31,1.31,0,0,0,.06.78,6.38,6.38,0,0,0,2.47,2.66,2.74,2.74,0,0,1-.37-1.69,4.09,4.09,0,0,0,.07-.6C22.16,19.83,20.31,18,19.92,19.49Z"/><path class="cls-15" d="M23,23.24l-.05,0-.17-.1a2.5,2.5,0,0,1-.51-.46,2.1,2.1,0,0,1-.42-.86,1.81,1.81,0,0,1,.13-1.13.64.64,0,0,1,.08-.14l0,0h0l0,0,0-.06-.08-.12a2.88,2.88,0,0,0-.31-.44,3.11,3.11,0,0,0-.33-.38,3,3,0,0,0-.32-.31.85.85,0,0,0-.34-.15.59.59,0,0,0-.28.05.31.31,0,0,0-.13.12s0,.05,0,.05a.28.28,0,0,1,0-.06s0-.09.1-.14a.64.64,0,0,1,.33-.11.9.9,0,0,1,.44.13,2.7,2.7,0,0,1,.4.29,3.44,3.44,0,0,1,.4.37,5.54,5.54,0,0,1,.37.45l.08.13,0,.06,0,.09,0,.07,0,.06,0,.09s-.05.08-.07.13a1.87,1.87,0,0,0-.16,1,2.14,2.14,0,0,0,.27.82,2.19,2.19,0,0,0,.39.49l.14.13Z"/><path class="cls-12" d="M30,40.52l-4.62,3.62L21,34.59c1.52-.54,2.89-.86,2.89-.86Z"/><path class="cls-9" d="M25.59,20.76c0-.16-.08-.39-.16-.67a7.34,7.34,0,0,0-.35-1,4.28,4.28,0,0,0-.72-1.07,3.82,3.82,0,0,0-1-.78,5.76,5.76,0,0,0-1-.39L22,16.8a2.1,2.1,0,0,0-.2-.18l.07.15-.21,0-.25,0,.59.38.28.68a11.51,11.51,0,0,1,.84,2.65,15.53,15.53,0,0,1,.13,2.79c0,.38,0,.69,0,.9v.33l.13-.3c.08-.2.2-.49.32-.85A8.25,8.25,0,0,0,24,22a5.69,5.69,0,0,0,0-1.7,5.33,5.33,0,0,0-.57-1.62,6.59,6.59,0,0,0-.74-1.07,7.44,7.44,0,0,1,1.12,1,11.19,11.19,0,0,1,1.26,1.71l.38.57.14.21Z"/><path class="cls-10" d="M41.61,15.45S39.79,13,38.78,14,38.22,15,38.22,15Z"/><path class="cls-10" d="M27.22,15.82S30.57,12,32,13.33c.8.8.24,1.34.24,1.34Z"/><path class="cls-16" d="M31.71,16.22a2.17,2.17,0,0,1-1.08.92,1,1,0,0,0-.69-.36c-.65,0-1.18.86-1.18,1.91s.53,1.9,1.18,1.9,1.18-.85,1.18-1.9a2.79,2.79,0,0,0-.14-.9A3.53,3.53,0,0,0,31.71,16.22Z"/><path class="cls-12" d="M27.63,17.63a2.66,2.66,0,0,0,1.13.94,2.73,2.73,0,0,0,1.48.11,2.44,2.44,0,0,0-2.61-1.05Z"/><path class="cls-16" d="M39.71,17.23a1.44,1.44,0,0,1-.74.63.65.65,0,0,0-.46-.2c-.49,0-.89.64-.89,1.43s.4,1.43.89,1.43.89-.64.89-1.43a2.05,2.05,0,0,0-.15-.81A2.54,2.54,0,0,0,39.71,17.23Z"/><path class="cls-12" d="M40.17,18.39a2,2,0,0,1-.83.63,2.16,2.16,0,0,1-1,.13,2.1,2.1,0,0,1,.83-.64A2.23,2.23,0,0,1,40.17,18.39Z"/><path class="cls-13" d="M34.48,23.07a2,2,0,0,0-.89-.24,2.93,2.93,0,0,0,1.61,1.56.53.53,0,0,0,.17,0,.36.36,0,0,0,.2-.08,3.56,3.56,0,0,0,1-.9,1.19,1.19,0,0,0,.13-.25c.07-.3-.14-.23-.32-.16a2.31,2.31,0,0,1-.64.16A2.7,2.7,0,0,1,34.48,23.07Z"/><path class="cls-6" d="M35.27,24.22c.18-.16.38-.3.57-.46a4.3,4.3,0,0,0,.63-.65c-1-.67-1-1.69-.91-2.84A3.36,3.36,0,0,1,36,18.79a3.09,3.09,0,0,1,.48-.66,2.76,2.76,0,0,1,.3-.29,1.22,1.22,0,0,1,.34-.18c-.06.06-.1.14-.16.21s-.29.36-.41.56a4,4,0,0,0-.31.62,4,4,0,0,0-.29,1.37,3.23,3.23,0,0,0,.22,1.34,2.69,2.69,0,0,0,1,1.26l-.73.84a3.26,3.26,0,0,1-.55.43,1.26,1.26,0,0,1-.66.26.39.39,0,0,1-.21-.06l.12-.1,0,0A.86.86,0,0,1,35.27,24.22Z"/><path class="cls-6" d="M33.59,27.21a2.86,2.86,0,0,0,2.36.07,1.23,1.23,0,0,1-1.08.58A2,2,0,0,1,33.59,27.21Z"/><path class="cls-6" d="M30.85,25.14a7.1,7.1,0,0,0,6.54.9,10.44,10.44,0,0,1-3.57,0A8,8,0,0,1,30.85,25.14Z"/><path class="cls-13" d="M38.14,23.48c.16.41,1,.46,2,.1s1.59-1,1.44-1.4-1.06-.46-2-.1S38,23.06,38.14,23.48Z"/><path class="cls-13" d="M26.16,21.53c-.17.63.87,1.44,2.3,1.81s2.74.17,2.9-.46-.87-1.44-2.31-1.81S26.32,20.91,26.16,21.53Z"/><path class="cls-12" d="M40.75,15.48s0,0,0,0a3.52,3.52,0,0,0-.45-.18H40.2a3.77,3.77,0,0,0-1-.13h-.12a3.6,3.6,0,0,0-3.46,3.09,2.37,2.37,0,0,0-1.75,0,4,4,0,0,0-1.66-2.8h0a3.88,3.88,0,0,0-1.14-.55,3.14,3.14,0,0,0-.61-.12,3,3,0,0,0-.52,0h-.22a3.89,3.89,0,0,0-2.44,1,3.45,3.45,0,0,0-.65.77,3.49,3.49,0,0,0-.39.74L25,17.11l-3-.49h0l-1-.16-.05.29h0l-.05.3h.12l.57.09h0l.23,0,.21,0h.05l1.34.22.25,0h0l2.36.39a3.84,3.84,0,0,0-.09.83,4,4,0,0,0,4,4,3.75,3.75,0,0,0,1.34-.24,4,4,0,0,0,2.62-3.53,1.73,1.73,0,0,1,1.69,0,3.31,3.31,0,0,0,.07.55,3.39,3.39,0,0,0,.25.78h0a3.61,3.61,0,0,0,3,2.11h0a1.27,1.27,0,0,0,.28,0h.16a3,3,0,0,0,.43,0h.07a3.61,3.61,0,0,0,.86-.28,2.47,2.47,0,0,0,.36-.19,2.27,2.27,0,0,0,.32-.22,3.16,3.16,0,0,0,.43-.38,3.61,3.61,0,0,0-1.12-5.78ZM30.91,22a3.62,3.62,0,0,1-.94.13,3.36,3.36,0,0,1,0-6.72h.21a3,3,0,0,1,1.24.33A3.36,3.36,0,0,1,30.91,22Zm10.65-1.27a2.62,2.62,0,0,1-.48.46,2.71,2.71,0,0,1-.49.31,3.14,3.14,0,0,1-.8.27h0a1.72,1.72,0,0,1-.39,0h-.13a3,3,0,0,1-3-2.77,1,1,0,0,1,0-.24,2.56,2.56,0,0,1,0-.39,3,3,0,0,1,3-2.63,2.77,2.77,0,0,1,1,.18h0a2.63,2.63,0,0,1,.42.17,3,3,0,0,1,1.58,2.66A3,3,0,0,1,41.56,20.69Z"/><polygon class="cls-12" points="20.93 67.36 26.42 67.36 27.81 67.36 20.28 60.15 19.41 61.06 13.38 67.36 14.95 67.36 19.74 67.36 20.02 67.36 20.93 67.36"/><polygon class="cls-17" points="20.93 67.36 26.42 67.36 20.43 61.63 19.74 62.36 14.95 67.36 19.74 67.36 20.02 67.36 20.93 67.36"/><polygon class="cls-12" points="19.87 67.22 20.02 67.36 19.74 67.36 19.87 67.22"/><path class="cls-8" d="M0,67.36c3.33-9,10.77-25,11.57-26v0a36.47,36.47,0,0,1,3.5-3.18l.15-.13.15-.12,0,0,4.75,10.89L17.69,54l-.07.15h0l-6.17,13.2Z"/><polygon class="cls-1" points="17.02 51.9 17.62 54.15 17.62 54.16 11.45 67.36 9.85 67.36 17.02 51.9"/><path class="cls-2" d="M11.57,41.31c-.26.68-6.72,17.12-9.89,26.05H0C3.33,58.34,10.77,42.32,11.57,41.31Z"/></g></g></svg>