<svg xmlns="http://www.w3.org/2000/svg" viewBox="0 0 72.74 68.53"><defs><style>.cls-1{fill:#ffa07f;}.cls-2{fill:#ff7d6f;}.cls-3{fill:#cd4a57;}.cls-4{fill:#fdbd8e;}.cls-5{fill:#ff9300;}.cls-6{fill:#cf691f;}.cls-7{fill:#ffb800;}.cls-8{fill:#85441d;}.cls-9{fill:#965326;}.cls-10{fill:#b5693c;}.cls-11{fill:#fff0e7;}.cls-12{fill:#fb9988;}.cls-13{fill:#ffdaba;}.cls-14{fill:#cf4a57;}.cls-15{fill:#fd7d6f;}.cls-16{fill:#161818;}.cls-17{fill:#fc5b68;}.cls-18{fill:#f8b555;}</style></defs><title>Ресурс 10</title><g id="Слой_2" data-name="Слой 2"><g id="OBJECTS"><path class="cls-1" d="M72.57,2.38c.51.2-.28,8.48-.75,9.23l-.79.94-.32,4.1a6.36,6.36,0,0,1-1.6.09,5.47,5.47,0,0,1-1.6-.36,4,4,0,0,1-.89-.51,12.34,12.34,0,0,1-.11-2.31s-2.75-.86-3.18-2.4A7.48,7.48,0,0,0,62.24,8.6a11.45,11.45,0,0,1-.91-1.17A1.69,1.69,0,0,1,61.09,6a.39.39,0,0,1,.08-.14.36.36,0,0,1,.35,0l0,0a6.1,6.1,0,0,1,3.08,2.65,33.9,33.9,0,0,0,1.14-5.76S66.31,0,66.85,0a1.06,1.06,0,0,1,.5.11,1.26,1.26,0,0,1,.36.23s-.34,6-.17,6.21,1.72-5,2.16-5.21a.56.56,0,0,1,.51,0,2.57,2.57,0,0,1,.56.31,5.76,5.76,0,0,1,.54.39l.18,0c.16,0,.39.07.62.13A3.1,3.1,0,0,1,72.57,2.38Z"/><path class="cls-2" d="M72.57,2.38c.51.2-.28,8.48-.75,9.23l-.79.94-.32,4.1a6.36,6.36,0,0,1-1.6.09,10.06,10.06,0,0,0-.33-5c-.53-1.54-1.43-2.95-1.81-4.54a11.19,11.19,0,0,1-.19-3.06A23.39,23.39,0,0,1,67.17.87a5,5,0,0,1,.18-.76,1.26,1.26,0,0,1,.36.23s-.34,6-.17,6.21,1.72-5,2.16-5.21a.56.56,0,0,1,.51,0,2.57,2.57,0,0,1,.56.31,5.76,5.76,0,0,1,.54.39l.18,0c.16,0,.39.07.62.13A3.1,3.1,0,0,1,72.57,2.38Z"/><path class="cls-3" d="M70.77,1.69c0,.15-.06.3-.1.46a14,14,0,0,1-.75,2.29c-.24.53-.42.86-.44.89s0-.41.13-1,.24-1.44.44-2.34c.06-.22.11-.43.16-.63A2.57,2.57,0,0,1,70.77,1.69Z"/><path class="cls-3" d="M72.11,2.23a13.55,13.55,0,0,1-.84,2.66,15,15,0,0,1,.22-2.79C71.65,2.13,71.88,2.17,72.11,2.23Z"/><path class="cls-4" d="M61.52,5.86a2.34,2.34,0,0,0,0,.3A7.89,7.89,0,0,0,62.79,8.3a18.77,18.77,0,0,0,1.57,3,8,8,0,0,0,2.41,1.53,1.43,1.43,0,0,1,.68.55,1.58,1.58,0,0,1,.11.72c0,.74-.06,1.51,0,2.26a4,4,0,0,1-.89-.51,12.34,12.34,0,0,1-.11-2.31s-2.75-.86-3.18-2.4A7.48,7.48,0,0,0,62.24,8.6a11.45,11.45,0,0,1-.91-1.17A1.69,1.69,0,0,1,61.09,6a.39.39,0,0,1,.08-.14A.36.36,0,0,1,61.52,5.86Z"/><path class="cls-3" d="M66,8.5a3,3,0,0,1,2.39.87,5.15,5.15,0,0,1,1.38,2.2c-.56-.41-.89-1.18-1.42-1.68S66.72,8.41,66,8.5Z"/><path class="cls-5" d="M72,15.8s-.81,29-6.58,32.25c-2.8,1.57-11.12,2.37-18.95,2.76l-6.54-4.93V39.76a73.8,73.8,0,0,0,8.66-1.37c3.84.09,7.47.46,9.31.67l.26,0,.13,0,.16,0,.2,0,.24,0,.27,0C58.93,35.85,65,15,65,15l1.44.17,3.35.36Z"/><path class="cls-6" d="M45.49,50.08c8.82-.8,18.45-2,19.63-3.31C67,44.67,68.6,22.88,69.8,15.55L72,15.8s-.81,29-6.58,32.25c-2.8,1.57-11.12,2.37-18.95,2.77Z"/><path class="cls-7" d="M60.77,38.92a6.3,6.3,0,0,1,2.95,1.66,3.65,3.65,0,0,1-2.54-.28l.11,3.36c0,.19,0,.45-.23.48s-.28-.16-.35-.32A12.89,12.89,0,0,1,59.88,41c0-.19-.09-.47-.14-.77l-9.63-.72c-3.35-.46-6.83.24-10.19.58V38.86a45.24,45.24,0,0,1,8.66-.47c3.84.09,7.47.46,9.31.67l.26,0,.13,0,.16,0,.2,0,.24,0,.27,0C58.93,35.85,65,15,65,15l1.44.17C65.56,20.3,61.46,33.77,60.77,38.92Z"/><path class="cls-5" d="M45.54,62a57.94,57.94,0,0,0-.37,6.52h-20c-.77-3.19-1.76-7.07-2.67-10.91-.71-2.92-1.36-5.81-1.85-8.34-1.05-5.42-1.61-6.28-1.25-7a2.35,2.35,0,0,1,.55-.62l.23-.19,0,0a27.28,27.28,0,0,1,5.58-3.24c.39-.14.76-.26,1.1-.36l.92-.27.88-.22h6.92a5.15,5.15,0,0,1,1.23.17h0c.24.06.51.14.82.25a13.45,13.45,0,0,1,2.3,1.12c.38.22.77.48,1.19.77l.4.28c.51.37,1.05.79,1.62,1.27C45.19,42.94,46,46.39,46.3,50c0,.25,0,.49,0,.73A52.72,52.72,0,0,1,45.54,62Z"/><path class="cls-6" d="M43.73,58.67l-.69,0-1.88-.12a19.14,19.14,0,0,0-5.9.39l-1.67.47a14.91,14.91,0,0,1-1.66.35,13,13,0,0,1-2.87.09A4.47,4.47,0,0,1,28,59.6a2.63,2.63,0,0,1-.77-.39,2,2,0,0,1-.36-.39l-.09-.16.13.12a1.82,1.82,0,0,0,.43.24,3.56,3.56,0,0,0,1.76.1,21.35,21.35,0,0,0,2.65-.55c.48-.13,1-.29,1.51-.47s1.09-.38,1.7-.54a10.08,10.08,0,0,1,3.57-.27,16.39,16.39,0,0,1,2.8.54c.77.22,1.38.44,1.8.59S43.73,58.67,43.73,58.67Z"/><path class="cls-8" d="M47.14,26.5c0-.16-.08-.39-.16-.67a7.34,7.34,0,0,0-.35-1A3.85,3.85,0,0,0,44.87,23a5.63,5.63,0,0,0-1-.38l-.33-.08a2.1,2.1,0,0,0-.2-.18l.07.15-.21,0-.25,0,.59.38c.07.18.17.41.28.67a11.83,11.83,0,0,1,.84,2.65,15.67,15.67,0,0,1,.13,2.8c0,.38,0,.68,0,.9s0,.33,0,.33l.13-.3c.08-.2.2-.49.32-.85a8.53,8.53,0,0,0,.32-1.32,5.75,5.75,0,0,0,0-1.71A5.27,5.27,0,0,0,45,24.37a6.59,6.59,0,0,0-.74-1.07,6.9,6.9,0,0,1,1.12,1A11.19,11.19,0,0,1,46.66,26l.38.57.14.2Z"/><path class="cls-8" d="M25.27,31.23a13.51,13.51,0,0,1-1.86,3.09c-1.67,2.1-4,3.89-6.66,4.06A9.35,9.35,0,0,0,20.27,36c-.17.1-.33.21-.5.3a8.94,8.94,0,0,1-6.16,1,7.74,7.74,0,0,0,1.72-3.25,10.88,10.88,0,0,0,.37-2.6,37.25,37.25,0,0,0-.61-6.31,60.83,60.83,0,0,1-.69-10.35,10.87,10.87,0,0,1,3.08-7.65,4.69,4.69,0,0,1,7,.77,4.43,4.43,0,0,1,.41.7c.17.38.27.67,0,1a7.19,7.19,0,0,1-.84.91,6.22,6.22,0,0,0-1.5,3c.13.11.26.22.37.33a8,8,0,0,1,1.64,2.68,23.35,23.35,0,0,1,1.65,8.27A15.66,15.66,0,0,1,25.27,31.23Z"/><path class="cls-9" d="M24.49,7.91a4.16,4.16,0,0,1-.57,1.25,3.4,3.4,0,0,0-3,2,8.29,8.29,0,0,0-.67,3.7,33.59,33.59,0,0,0,.42,5.67,35.49,35.49,0,0,1,.77,6,7,7,0,0,1-2.21,5.39,7.92,7.92,0,0,0-.59-3.47,7.59,7.59,0,0,1-3.33,5.64,10.88,10.88,0,0,0,.37-2.6,25.51,25.51,0,0,0-.36-4.61c-.09-.57-.17-1.13-.25-1.7a60.83,60.83,0,0,1-.69-10.35,10.87,10.87,0,0,1,3.08-7.65A4.8,4.8,0,0,1,21.56,6a4.61,4.61,0,0,1,1.15.4A4.82,4.82,0,0,1,24.49,7.91Z"/><path class="cls-10" d="M22.71,6.4a8.38,8.38,0,0,0-3.17,3.11,7.62,7.62,0,0,0-.54,2,16.76,16.76,0,0,0-.38,2.73A45.84,45.84,0,0,0,19,19a15.33,15.33,0,0,1-.69,5.63,9.93,9.93,0,0,0-1-2.47,8.75,8.75,0,0,1-1.95,4.68c-.09-.57-.17-1.13-.25-1.7a60.83,60.83,0,0,1-.69-10.35,10.87,10.87,0,0,1,3.08-7.65A4.8,4.8,0,0,1,21.56,6,4.61,4.61,0,0,1,22.71,6.4Z"/><path class="cls-11" d="M27.39,10a2.74,2.74,0,1,1-2.74-2.74A2.74,2.74,0,0,1,27.39,10Z"/><path class="cls-11" d="M37.62,37.77,38.35,46l-3.61-1.84-1.89-2.33s0-3,0-4.45h2.74a4.82,4.82,0,0,1,1.23.18h0A7.35,7.35,0,0,1,37.62,37.77Z"/><path class="cls-4" d="M34.73,44.14l-6.08-6.78c0-1,.09-1.39.18-3.89.1-2.77.2-5.37.2-5.37l7.83,3.09a18.53,18.53,0,0,0-1.39,6.32A50.67,50.67,0,0,1,34.73,44.14Z"/><path class="cls-12" d="M36.86,31.19a18.53,18.53,0,0,0-1.39,6.32l-.72.28c-.91.31-3.83-2.28-5.92-4.32.1-2.77.2-5.37.2-5.37Z"/><path class="cls-4" d="M45.08,21.89c-.16.72-.36,1.48-.61,2.28,0,0,.35,3.92-.06,4.8s-3,6.36-5.83,6c-2.31-.28-8-3.67-9.93-5.69a2.33,2.33,0,0,1-.69-1c-.27-1.55-1.19-8.42-1.28-9C26.45,17.74,25.79,6,40,9.24a6.85,6.85,0,0,1,5.17,5.15A17.16,17.16,0,0,1,45.08,21.89Z"/><path class="cls-8" d="M47.32,14.56A5.85,5.85,0,0,1,47,16.4a6.55,6.55,0,0,1-2,3.18,20,20,0,0,0-.21-4.76c-3.4,3.7-10.51,5-10.8,5,1.35-.42,1.75-3.11,1.75-3.11C34.12,20.52,27,21.29,27,21.29c-1.71-1.38-2.89,1.24-2.89,1.24a32.11,32.11,0,0,1-1.43-2.92c-.1-.24-.19-.46-.27-.69a9.55,9.55,0,0,1-.49-1.83C21,11.4,25.23,5.83,30.71,4.24h0C35.9,2.74,42,4.11,44.91,7a6.18,6.18,0,0,1,1.23,1.7,2.33,2.33,0,0,1,.11.28l0,.08a4.3,4.3,0,0,1,.28,1.68,5.69,5.69,0,0,1-.12,1A5.57,5.57,0,0,1,47.32,14.56Z"/><path class="cls-9" d="M46.25,9a4.28,4.28,0,0,1-1,.39c-.69.18-1.41.19-2.09.38A4.34,4.34,0,0,0,41,11.06c-1,1.14-1.45,2.83-2.8,3.52a4.35,4.35,0,0,1-3.08.06A10.71,10.71,0,0,0,32.07,14a5.81,5.81,0,0,0-4.14,2.43,5,5,0,0,1-1,1.07,3.13,3.13,0,0,1-2,.42,7.34,7.34,0,0,1-3-.83,10.16,10.16,0,0,1,.59-5.39,12.76,12.76,0,0,1,8.19-7.46h0a17.13,17.13,0,0,1,10.17.35,10.89,10.89,0,0,1,4,2.39,6.18,6.18,0,0,1,1.23,1.7A2.33,2.33,0,0,1,46.25,9Z"/><path class="cls-10" d="M40.9,4.58C39.23,6,38.37,8.34,36.35,9.1a8.19,8.19,0,0,1-3.72.06,4.9,4.9,0,0,0-3.6.62c-.52.41-.87,1-1.36,1.43a4.58,4.58,0,0,1-3.91.85,7.65,7.65,0,0,1-1.24-.36,12.76,12.76,0,0,1,8.19-7.46h0A17.13,17.13,0,0,1,40.9,4.58Z"/><path class="cls-13" d="M44.47,24.17s.35,3.92-.06,4.8-3,6.36-5.83,6c-2.31-.28-8-3.67-9.93-5.69,2.41,1.67,8.83,5.94,10.71,5.28,2.33-.81,5-6,4.92-6.48s-.2-3.86-.2-3.86.47-1.06,1-2.35C44.92,22.61,44.72,23.37,44.47,24.17Z"/><path class="cls-13" d="M28.6,28.1A5.52,5.52,0,0,1,24.81,26a5.37,5.37,0,0,1-.37-.57c-.51-.92-.66-4.14.65-4.88.93-.53,1.6.23,1.92.73h0a2.91,2.91,0,0,1,.2.38Z"/><path class="cls-4" d="M28.6,28.1A5.52,5.52,0,0,1,24.81,26c-.06-.1-.11-.18-.15-.26-.51-.93-.66-4.14.65-4.89a1.28,1.28,0,0,1,1.7.43h0a2.91,2.91,0,0,1,.2.38Z"/><path class="cls-2" d="M24.68,23.11a1.39,1.39,0,0,0,.06.78,6.32,6.32,0,0,0,2.47,2.66,2.66,2.66,0,0,1-.36-1.69,5.8,5.8,0,0,0,.06-.6C26.92,23.46,25.07,21.59,24.68,23.11Z"/><path class="cls-14" d="M27.72,26.86l0,0-.17-.1a2.5,2.5,0,0,1-.51-.46,2.1,2.1,0,0,1-.42-.86,1.82,1.82,0,0,1,.13-1.13.64.64,0,0,1,.08-.14l0,0h0l0,0,0-.06a.75.75,0,0,1-.07-.12,3.84,3.84,0,0,0-.32-.44,3.11,3.11,0,0,0-.33-.38,3,3,0,0,0-.32-.31.71.71,0,0,0-.34-.14.49.49,0,0,0-.28,0,.31.31,0,0,0-.13.12.18.18,0,0,0,0,.05.09.09,0,0,1,0-.06.26.26,0,0,1,.1-.14.64.64,0,0,1,.33-.11.9.9,0,0,1,.44.13,2.7,2.7,0,0,1,.4.29,3.44,3.44,0,0,1,.4.37,5.54,5.54,0,0,1,.37.45l.08.13,0,.07.05.09,0,.06,0,.06-.05.1a.67.67,0,0,0-.06.12,1.8,1.8,0,0,0-.17,1,2.14,2.14,0,0,0,.27.82,2.19,2.19,0,0,0,.39.49l.14.13Z"/><path class="cls-11" d="M34.74,44.14l-4.63,3.62-4.35-9.55a28.49,28.49,0,0,1,2.89-.85Z"/><path class="cls-8" d="M30.35,24.38c0-.16-.08-.39-.16-.67a6.14,6.14,0,0,0-.35-1,4.28,4.28,0,0,0-.72-1.07,3.68,3.68,0,0,0-1-.78,5.63,5.63,0,0,0-1-.38l-.33-.09a2.1,2.1,0,0,0-.2-.18,1.15,1.15,0,0,1,.07.15l-.21,0-.25,0,.59.38.28.68A11.51,11.51,0,0,1,27.9,24,15.57,15.57,0,0,1,28,26.81c0,.38,0,.69,0,.9S28,28,28,28l.13-.3c.09-.2.2-.49.32-.85a8.25,8.25,0,0,0,.32-1.32,5.38,5.38,0,0,0,0-1.7,5.08,5.08,0,0,0-.57-1.62,7.07,7.07,0,0,0-.74-1.07,7,7,0,0,1,1.12,1,12,12,0,0,1,1.27,1.71l.37.57.14.21S30.38,24.54,30.35,24.38Z"/><path class="cls-9" d="M46.37,19.07s-1.82-2.44-2.83-1.47S43,18.66,43,18.66Z"/><path class="cls-9" d="M32,19.44s3.35-3.86,4.73-2.49c.8.8.24,1.35.24,1.35Z"/><path class="cls-12" d="M39.24,26.69a2,2,0,0,0-.89-.24A2.93,2.93,0,0,0,40,28a.59.59,0,0,0,.17,0,.52.52,0,0,0,.21-.07,3.86,3.86,0,0,0,1-.91.75.75,0,0,0,.13-.25c.07-.29-.14-.23-.32-.16a2.74,2.74,0,0,1-.64.17A2.83,2.83,0,0,1,39.24,26.69Z"/><path class="cls-15" d="M40,27.84c.18-.16.38-.3.57-.46a4.91,4.91,0,0,0,.64-.65c-1-.67-1-1.68-.92-2.83a3.37,3.37,0,0,1,.42-1.49,3.09,3.09,0,0,1,.48-.66,2.76,2.76,0,0,1,.3-.29,1.38,1.38,0,0,1,.34-.18c-.06.07-.1.14-.16.22a5.61,5.61,0,0,0-.41.55,5.12,5.12,0,0,0-.31.62A4,4,0,0,0,40.69,24a3.23,3.23,0,0,0,.22,1.34,2.69,2.69,0,0,0,1,1.26s-.66.77-.73.84a3.26,3.26,0,0,1-.55.43,1.23,1.23,0,0,1-.66.26.39.39,0,0,1-.21-.06l.12-.09,0-.05A.86.86,0,0,1,40,27.84Z"/><path class="cls-16" d="M36.92,23.21a.84.84,0,0,0-.15-.11,1.82,1.82,0,0,0-.46-.21c-.19-.06-.44-.11-.72-.17s-.57-.11-.88-.15a7.28,7.28,0,0,0-1.61-.1l-.51.06-.2,0,.15-.14a2.93,2.93,0,0,1,2.27-.55,3.38,3.38,0,0,1,1,.29,2.66,2.66,0,0,1,.71.42,1.46,1.46,0,0,1,.37.43A.7.7,0,0,1,36.92,23.21Z"/><path class="cls-16" d="M45.59,22.66H45.1c-.29,0-.65.06-1.08.06s-.81-.07-1.08-.07a1.52,1.52,0,0,0-.34,0l-.13,0,.07-.11a1.1,1.1,0,0,1,.29-.27A2.38,2.38,0,0,1,44,22a2.22,2.22,0,0,1,1.17.3,1.91,1.91,0,0,1,.31.23Z"/><path class="cls-15" d="M39.72,32.34a3.49,3.49,0,0,1-2.91-.27,1.49,1.49,0,0,0,1.24.88A2.48,2.48,0,0,0,39.72,32.34Z"/><path class="cls-17" d="M35.07,28.79A4.66,4.66,0,0,0,36.29,31a3.5,3.5,0,0,0,1.88,1,3.16,3.16,0,0,0,2.1-.32,5.13,5.13,0,0,0,1.91-1.91,16.2,16.2,0,0,0-7.1-.94Z"/><path class="cls-11" d="M35.07,28.79s.07.24.67.57a27,27,0,0,0,5.42.81,2.56,2.56,0,0,0,1-.45,16.2,16.2,0,0,0-7.1-.94Z"/><path class="cls-14" d="M36.29,31a3.5,3.5,0,0,0,1.88,1,3.16,3.16,0,0,0,2.1-.32C39.52,31.08,37.79,30.05,36.29,31Z"/><path class="cls-12" d="M42.9,27.1c.16.41,1.05.46,2,.1s1.6-1,1.44-1.4-1.05-.46-2-.1S42.74,26.68,42.9,27.1Z"/><path class="cls-12" d="M30.92,25.15c-.17.63.87,1.44,2.3,1.81s2.74.17,2.9-.46-.87-1.44-2.31-1.81S31.08,24.53,30.92,25.15Z"/><path class="cls-11" d="M45.5,19.1h0a4.22,4.22,0,0,0-.45-.18H45a3.83,3.83,0,0,0-1-.13h-.12a3.62,3.62,0,0,0-3.47,3.09,2.35,2.35,0,0,0-1.74,0A4,4,0,0,0,37,19.1a3.62,3.62,0,0,0-1.13-.56,4.11,4.11,0,0,0-.61-.12,3,3,0,0,0-.52,0h-.22a3.93,3.93,0,0,0-2.43,1h0a3.41,3.41,0,0,0-.65.77,3.49,3.49,0,0,0-.39.74l-1.24-.2-3-.49-1-.16-.05.29v0l0,.29h.11l.58.09h0l.22,0,.21,0h.06l1.33.22h0l.24,0h0l2.36.39a4.58,4.58,0,0,0-.09.83,4,4,0,0,0,4,4,3.75,3.75,0,0,0,1.34-.24,4,4,0,0,0,2.62-3.53,1.73,1.73,0,0,1,1.69,0,3.31,3.31,0,0,0,.07.55,2.63,2.63,0,0,0,.25.73v0a3.56,3.56,0,0,0,3,2.14h0A1.27,1.27,0,0,0,44,26h.16a2,2,0,0,0,.42,0h.08a3.61,3.61,0,0,0,.86-.28,2.37,2.37,0,0,0,.35-.19,1.66,1.66,0,0,0,.32-.22,3.16,3.16,0,0,0,.44-.38A3.62,3.62,0,0,0,45.5,19.1Zm-9.83,6.48a3.62,3.62,0,0,1-.94.13,3.36,3.36,0,1,1,0-6.72h.21a3,3,0,0,1,1.24.33,3.34,3.34,0,0,1,1.91,3A3.38,3.38,0,0,1,35.67,25.58ZM46.32,24.3h0a2.65,2.65,0,0,1-.49.46,3,3,0,0,1-.48.31,2.76,2.76,0,0,1-.81.27h0a1.72,1.72,0,0,1-.39,0H44a3,3,0,0,1-3-2.77,1,1,0,0,1,0-.24A2.56,2.56,0,0,1,41,22a3,3,0,0,1,3-2.63,2.77,2.77,0,0,1,1,.18h0a2.63,2.63,0,0,1,.42.17A3,3,0,0,1,47,22.39,3,3,0,0,1,46.32,24.3Z"/><path class="cls-5" d="M24.93,52.33l-2.48,5.29-.07.15h0l-5,10.75H5.69c3.62-9.19,9.9-22.68,10.63-23.6a0,0,0,0,0,0,0,39.66,39.66,0,0,1,3.57-3.24l.23-.19,0,0Z"/><polygon class="cls-6" points="22.38 57.77 22.38 57.78 17.35 68.53 15.75 68.53 21.78 55.52 22.38 57.77"/><path class="cls-7" d="M16.32,44.93c-.24.62-5.66,14.42-9,23.6H5.69C9.31,59.34,15.59,45.85,16.32,44.93Z"/><path class="cls-18" d="M56.27,21.75l-.37,1.18-.37-1.18a6.27,6.27,0,0,0-2.76-3.56h0a6.28,6.28,0,0,0,2.76-3.55l.37-1.18.37,1.18A6.32,6.32,0,0,0,59,18.19h0A6.31,6.31,0,0,0,56.27,21.75Z"/><path class="cls-18" d="M52,13.93l-.26.82-.25-.82a4.35,4.35,0,0,0-1.92-2.47h0A4.42,4.42,0,0,0,51.53,9l.25-.82L52,9A4.38,4.38,0,0,0,54,11.46h0A4.31,4.31,0,0,0,52,13.93Z"/><path class="cls-18" d="M2.76,52.18l.37,1.18.37-1.18a6.27,6.27,0,0,1,2.77-3.55h0A6.33,6.33,0,0,1,3.5,45.07l-.37-1.18-.37,1.18A6.27,6.27,0,0,1,0,48.63H0A6.22,6.22,0,0,1,2.76,52.18Z"/><path class="cls-18" d="M7,44.36l.25.82.26-.82a4.34,4.34,0,0,1,1.92-2.47h0a4.31,4.31,0,0,1-1.92-2.47l-.26-.82L7,39.42a4.35,4.35,0,0,1-1.92,2.47h0A4.38,4.38,0,0,1,7,44.36Z"/></g></g></svg>