<svg xmlns="http://www.w3.org/2000/svg" viewBox="0 0 50.14 73.14"><defs><style>.cls-1{fill:#ff9300;}.cls-2{fill:#cf691f;}.cls-3{fill:#85441d;}.cls-4{fill:#965326;}.cls-5{fill:#b5693c;}.cls-6{fill:#fff0e7;}.cls-7{fill:#fdbd8e;}.cls-8{fill:#fb9988;}.cls-9{fill:#ffdaba;}.cls-10{fill:#fd7d6f;}.cls-11{fill:#161818;}.cls-12{fill:#fc5b68;}.cls-13{fill:#cf4a57;}.cls-14{fill:#ffb800;}.cls-15{fill:#f8b555;}</style></defs><title>Ресурс 8</title><g id="Слой_2" data-name="Слой 2"><g id="OBJECTS"><path class="cls-1" d="M35.79,51.3c-.2,1-.43,2.15-.68,3.29-.09.37-.17.75-.26,1.14C34.28,58.29,33.61,61,33,63.62c-.1.41-.2.81-.31,1.21s-.23,1-.34,1.41a.29.29,0,0,0,0,.09c-.07.26-.13.51-.19.76-.46,1.87-.89,3.61-1.24,5.13H11.25c0-1.35-.06-2.84-.1-4.19,0-.74-.07-1.44-.11-2a15.55,15.55,0,0,0-.19-2c0-.25-.14-.71-.23-1.34-.13-.86-.29-2-.41-3.38h0c-.46-5.17-.47-12.94,2.92-15.95h0l.12-.11a18.9,18.9,0,0,1,5.52-3.44,7.94,7.94,0,0,1,.81-.25,4.29,4.29,0,0,1,1.23-.17h6.93a28.49,28.49,0,0,1,2.89.85c.28.1.65.27,1.07.47l.07,0,.12.06c1.94,1,4.75,2.73,5.15,3.52a.9.9,0,0,1,.08.23C37.27,45.26,36.72,46.46,35.79,51.3Z"/><path class="cls-2" d="M12.65,60.69l.7,0,1.87-.12a19.14,19.14,0,0,1,5.9.39l1.67.47a15.4,15.4,0,0,0,1.66.35,13,13,0,0,0,2.87.09,4.38,4.38,0,0,0,1.11-.21,2.41,2.41,0,0,0,.77-.39,1.79,1.79,0,0,0,.37-.39l.09-.16-.14.12a1.49,1.49,0,0,1-.43.24,3.51,3.51,0,0,1-1.75.1,22.71,22.71,0,0,1-2.65-.54c-.49-.14-1-.29-1.51-.48s-1.09-.38-1.71-.54a10.28,10.28,0,0,0-3.56-.27,16,16,0,0,0-2.8.54c-.77.22-1.39.44-1.81.59S12.65,60.69,12.65,60.69Z"/><path class="cls-3" d="M9.25,28.52c0-.16.08-.39.16-.67a5.28,5.28,0,0,1,.35-1,4.51,4.51,0,0,1,.72-1.08,4.1,4.1,0,0,1,1-.78,5.27,5.27,0,0,1,1-.38l.34-.08.19-.18-.06.15.2,0,.25,0-.58.38c-.08.18-.17.41-.29.67a12.4,12.4,0,0,0-.83,2.65,15.78,15.78,0,0,0-.14,2.8c0,.38,0,.69,0,.9v.33l-.14-.3c-.08-.2-.19-.49-.31-.85a7.52,7.52,0,0,1-.32-1.32,5.16,5.16,0,0,1,0-1.71,5,5,0,0,1,.57-1.61,6.6,6.6,0,0,1,.73-1.07,7.35,7.35,0,0,0-1.12,1A11.9,11.9,0,0,0,9.72,28l-.37.57-.15.21S9.22,28.68,9.25,28.52Z"/><path class="cls-3" d="M31.11,33.25A13.2,13.2,0,0,0,33,36.34c1.66,2.1,4,3.89,6.66,4.06A9.16,9.16,0,0,1,36.12,38c.16.1.32.21.49.3a8.9,8.9,0,0,0,6.16,1,7.61,7.61,0,0,1-1.71-3.25,11.42,11.42,0,0,1-.38-2.6,37.27,37.27,0,0,1,.62-6.31A60.82,60.82,0,0,0,42,16.81,10.82,10.82,0,0,0,38.9,9.16a4.68,4.68,0,0,0-7,.77,4.13,4.13,0,0,0-.41.7c-.18.38-.27.67,0,1a7.93,7.93,0,0,0,.83.91,6.22,6.22,0,0,1,1.5,3l-.37.33a8.18,8.18,0,0,0-1.63,2.68,23.13,23.13,0,0,0-1.65,8.27A15.48,15.48,0,0,0,31.11,33.25Z"/><path class="cls-4" d="M31.9,9.93a4,4,0,0,0,.56,1.25,3.4,3.4,0,0,1,3,2,8.46,8.46,0,0,1,.67,3.7,33.59,33.59,0,0,1-.42,5.67,35.49,35.49,0,0,0-.77,6,7,7,0,0,0,2.2,5.39,8.07,8.07,0,0,1,.59-3.47,7.63,7.63,0,0,0,3.34,5.64,11.42,11.42,0,0,1-.38-2.6,26.46,26.46,0,0,1,.37-4.61c.08-.57.17-1.13.25-1.7A60.82,60.82,0,0,0,42,16.81,10.82,10.82,0,0,0,38.9,9.16,4.78,4.78,0,0,0,34.82,8a4.61,4.61,0,0,0-1.15.4A4.78,4.78,0,0,0,31.9,9.93Z"/><path class="cls-5" d="M33.67,8.42a8.48,8.48,0,0,1,3.18,3.11,8.53,8.53,0,0,1,.54,2,19.28,19.28,0,0,1,.38,2.73,45.87,45.87,0,0,1-.4,4.81,15.54,15.54,0,0,0,.69,5.63,10.35,10.35,0,0,1,1-2.47,8.68,8.68,0,0,0,1.95,4.68c.08-.57.17-1.13.25-1.7A60.82,60.82,0,0,0,42,16.81,10.82,10.82,0,0,0,38.9,9.16,4.78,4.78,0,0,0,34.82,8,4.61,4.61,0,0,0,33.67,8.42Z"/><circle class="cls-6" cx="31.74" cy="12.02" r="2.74"/><path class="cls-6" d="M18.77,39.79,18,48l3.61-1.84,1.88-2.33s0-3,0-4.45H20.81a4.26,4.26,0,0,0-1.23.17h0A7.94,7.94,0,0,0,18.77,39.79Z"/><path class="cls-7" d="M21.65,46.16l6.09-6.78c0-1-.1-1.39-.19-3.89-.1-2.77-.2-5.37-.2-5.37l-7.83,3.09a18.54,18.54,0,0,1,1.4,6.32A52.24,52.24,0,0,0,21.65,46.16Z"/><path class="cls-8" d="M19.52,33.21a18.54,18.54,0,0,1,1.4,6.32l.72.28c.9.31,3.83-2.28,5.91-4.32-.1-2.77-.2-5.37-.2-5.37Z"/><path class="cls-7" d="M11.3,23.91c.16.72.37,1.48.62,2.28,0,0-.35,3.92.06,4.8s3,6.36,5.82,6c2.31-.28,8-3.67,9.94-5.69a2.29,2.29,0,0,0,.68-1c.27-1.55,1.2-8.42,1.28-9,.24-1.56.89-13.34-13.36-10.06a6.86,6.86,0,0,0-5.17,5.15A17.31,17.31,0,0,0,11.3,23.91Z"/><path class="cls-3" d="M9.06,16.58a6.16,6.16,0,0,0,.38,1.84,6.54,6.54,0,0,0,1.94,3.18,20,20,0,0,1,.22-4.76c3.4,3.7,10.5,5,10.79,5-1.34-.42-1.75-3.11-1.75-3.11,1.62,3.79,8.74,4.57,8.74,4.57,1.7-1.39,2.89,1.23,2.89,1.23.57-1.06,1-2,1.43-2.92.09-.24.19-.46.27-.69a9.36,9.36,0,0,0,.49-1.83c.95-5.69-3.31-11.26-8.79-12.85h0C20.48,4.76,14.36,6.13,11.48,9a6,6,0,0,0-1.23,1.7l-.12.28,0,.08a4.5,4.5,0,0,0-.28,1.68,5.69,5.69,0,0,0,.12,1A5.66,5.66,0,0,0,9.06,16.58Z"/><path class="cls-4" d="M10.13,11a4.36,4.36,0,0,0,1,.39c.68.18,1.4.19,2.09.38a4.31,4.31,0,0,1,2.15,1.34c1,1.14,1.45,2.83,2.81,3.52a4.35,4.35,0,0,0,3.08.06A10.58,10.58,0,0,1,24.31,16a5.81,5.81,0,0,1,4.14,2.43,4.64,4.64,0,0,0,1,1.07,3.1,3.1,0,0,0,2,.42,7.34,7.34,0,0,0,3-.83,10.18,10.18,0,0,0-.6-5.39,12.74,12.74,0,0,0-8.19-7.46h0a17.12,17.12,0,0,0-10.17.35,10.81,10.81,0,0,0-4,2.39,6,6,0,0,0-1.23,1.7Z"/><path class="cls-5" d="M15.49,6.6C17.16,8,18,10.36,20,11.12a8.19,8.19,0,0,0,3.72.06,4.93,4.93,0,0,1,3.61.62c.51.41.86,1,1.35,1.43a4.59,4.59,0,0,0,3.91.85,6.76,6.76,0,0,0,1.24-.36,12.74,12.74,0,0,0-8.19-7.46h0A17.12,17.12,0,0,0,15.49,6.6Z"/><path class="cls-9" d="M11.92,26.19s-.35,3.92.06,4.8,3,6.36,5.82,6c2.31-.28,8-3.67,9.94-5.69C25.33,33,18.91,37.26,17,36.6c-2.33-.81-5-6-4.92-6.48s.21-3.86.21-3.86-.47-1.06-1-2.35C11.46,24.63,11.67,25.39,11.92,26.19Z"/><path class="cls-9" d="M27.78,30.12A5.48,5.48,0,0,0,31.57,28a4.69,4.69,0,0,0,.38-.57c.51-.92.66-4.14-.66-4.88-.92-.53-1.59.23-1.91.73h0a2.44,2.44,0,0,0-.21.38Z"/><path class="cls-7" d="M27.78,30.12A5.48,5.48,0,0,0,31.57,28l.16-.26c.51-.93.66-4.14-.66-4.89a1.26,1.26,0,0,0-1.69.43h0a2.44,2.44,0,0,0-.21.38Z"/><path class="cls-8" d="M31.71,25.13a1.4,1.4,0,0,1-.07.78,6.23,6.23,0,0,1-2.46,2.66,2.73,2.73,0,0,0,.36-1.69,5.79,5.79,0,0,1-.07-.6C29.46,25.48,31.32,23.61,31.71,25.13Z"/><path class="cls-10" d="M28.66,28.88l.06,0,.16-.1a2.23,2.23,0,0,0,.51-.46,2.1,2.1,0,0,0,.42-.86,1.75,1.75,0,0,0-.13-1.13c0-.05-.05-.1-.07-.14l0,0s0,0,0,0h0v0l0-.06a.75.75,0,0,1,.07-.12,4.91,4.91,0,0,1,.31-.44,4.29,4.29,0,0,1,.33-.38,2.34,2.34,0,0,1,.33-.31.64.64,0,0,1,.33-.14.49.49,0,0,1,.28,0c.08,0,.12.08.13.12a.1.1,0,0,1,0,.05v-.06a.3.3,0,0,0-.11-.14.56.56,0,0,0-.33-.1.81.81,0,0,0-.44.12,2.7,2.7,0,0,0-.4.29,4.49,4.49,0,0,0-.4.37,4.32,4.32,0,0,0-.36.46l-.08.12,0,.07-.06.09,0,.06,0,.06.05.1a.75.75,0,0,1,.07.12,1.9,1.9,0,0,1,.17,1,2.15,2.15,0,0,1-.28.82,2.23,2.23,0,0,1-.39.5l-.13.12Z"/><path class="cls-6" d="M21.65,46.16l4.62,3.62,4.36-9.55a28.49,28.49,0,0,0-2.89-.85Z"/><path class="cls-3" d="M26,26.4c0-.16.08-.39.15-.67a6.28,6.28,0,0,1,.36-1,4,4,0,0,1,.72-1.07,3.68,3.68,0,0,1,1-.78,5.27,5.27,0,0,1,1-.38l.34-.09.19-.18-.06.15.2,0,.25,0-.58.39c-.08.17-.18.4-.29.67A12.37,12.37,0,0,0,28.48,26a16.56,16.56,0,0,0-.13,2.79c0,.38,0,.69,0,.9v.33l-.14-.3c-.08-.2-.2-.49-.32-.85a8.33,8.33,0,0,1-.31-1.32,5.07,5.07,0,0,1,.57-3.32,7.07,7.07,0,0,1,.73-1.07,8,8,0,0,0-1.12,1,12.49,12.49,0,0,0-1.26,1.71l-.37.57-.15.21S26,26.56,26,26.4Z"/><path class="cls-4" d="M10,21.09s1.82-2.44,2.84-1.47.55,1.06.55,1.06Z"/><path class="cls-4" d="M24.41,21.46S21.05,17.6,19.68,19c-.8.8-.25,1.35-.25,1.35Z"/><path class="cls-11" d="M19.92,21.86a2.17,2.17,0,0,0,1.08.92.91.91,0,0,1,.68-.35c.66,0,1.19.85,1.19,1.9s-.53,1.9-1.19,1.9-1.18-.85-1.18-1.9a2.83,2.83,0,0,1,.14-.9A3.47,3.47,0,0,1,19.92,21.86Z"/><path class="cls-6" d="M24,23.27a2.44,2.44,0,0,1-2.61,1.05,2.66,2.66,0,0,1,1.13-.94A2.74,2.74,0,0,1,24,23.27Z"/><path class="cls-11" d="M11.91,22.87a1.55,1.55,0,0,0,.74.64.63.63,0,0,1,.46-.21c.5,0,.9.64.9,1.43s-.4,1.43-.9,1.43-.89-.64-.89-1.43a2.05,2.05,0,0,1,.16-.81A2.56,2.56,0,0,1,11.91,22.87Z"/><path class="cls-6" d="M11.46,24a2.11,2.11,0,0,0,.82.64,2.23,2.23,0,0,0,1,.12,2,2,0,0,0-.82-.63A2.16,2.16,0,0,0,11.46,24Z"/><path class="cls-8" d="M17.15,28.71a2,2,0,0,1,.89-.24A3,3,0,0,1,16.42,30a.47.47,0,0,1-.17,0,.48.48,0,0,1-.2-.07,3.57,3.57,0,0,1-1-.91.63.63,0,0,1-.13-.24c-.07-.3.13-.24.31-.17a2.7,2.7,0,0,0,1.94,0Z"/><path class="cls-10" d="M16.36,29.86c-.18-.16-.39-.3-.58-.46a4.84,4.84,0,0,1-.63-.65c1-.67,1-1.68.91-2.83a3.36,3.36,0,0,0-.41-1.49,4,4,0,0,0-.48-.66c-.1-.1-.2-.2-.31-.29a1.32,1.32,0,0,0-.33-.18c.06.07.1.15.15.22a5.61,5.61,0,0,1,.41.55,4.05,4.05,0,0,1,.32.62,4.3,4.3,0,0,1,.29,1.37,3.37,3.37,0,0,1-.22,1.34,2.6,2.6,0,0,1-1,1.26l.73.84a3.33,3.33,0,0,0,.56.43,1.2,1.2,0,0,0,.65.26.39.39,0,0,0,.21-.06L16.54,30,16.49,30A.8.8,0,0,0,16.36,29.86Z"/><path class="cls-8" d="M13.48,29.12c-.15.41-1.05.46-2,.1s-1.6-1-1.45-1.4,1.06-.46,2-.1S13.64,28.7,13.48,29.12Z"/><path class="cls-8" d="M25.47,27.17c.16.63-.87,1.44-2.31,1.81s-2.73.17-2.89-.46.87-1.43,2.3-1.81S25.31,26.55,25.47,27.17Z"/><path class="cls-10" d="M17.73,33.83a3.49,3.49,0,0,0,2.91-.27,1.51,1.51,0,0,1-1.24.88A2.48,2.48,0,0,1,17.73,33.83Z"/><path class="cls-12" d="M22.38,30.28a4.66,4.66,0,0,1-1.22,2.18,3.5,3.5,0,0,1-1.88,1,3.1,3.1,0,0,1-2.1-.32,5.13,5.13,0,0,1-1.91-1.91,16.2,16.2,0,0,1,7.1-.94Z"/><path class="cls-6" d="M22.38,30.28s-.07.24-.67.57a27,27,0,0,1-5.42.81,2.48,2.48,0,0,1-1-.45,16.2,16.2,0,0,1,7.1-.94Z"/><path class="cls-13" d="M21.16,32.46a3.5,3.5,0,0,1-1.88,1,3.1,3.1,0,0,1-2.1-.32C17.93,32.57,19.66,31.54,21.16,32.46Z"/><path class="cls-6" d="M30.63,22.4h0l-.05-.29-1,.17h0l-3,.48h0L25.35,23a3.85,3.85,0,0,0-.37-.73,3.79,3.79,0,0,0-.69-.8,3.87,3.87,0,0,0-2.41-1h-.23a3,3,0,0,0-.52,0,2.85,2.85,0,0,0-.58.12h0a3.83,3.83,0,0,0-1.13.55,4,4,0,0,0-1.7,2.8,2.34,2.34,0,0,0-1.74,0,3.62,3.62,0,0,0-3.48-3.09h-.1a4,4,0,0,0-.92.12h0l-.08,0a3.66,3.66,0,0,0-.46.18,3.6,3.6,0,0,0-2.13,3.29,3.64,3.64,0,0,0,1,2.49,2.6,2.6,0,0,0,.43.38,1.94,1.94,0,0,0,.33.23,2.47,2.47,0,0,0,.36.19,3.61,3.61,0,0,0,.86.28h.07a3,3,0,0,0,.43,0h.16a1.32,1.32,0,0,0,.28,0h0a3.55,3.55,0,0,0,3-2.14v0a2.88,2.88,0,0,0,.25-.75,3.33,3.33,0,0,0,.07-.54,1.75,1.75,0,0,1,1.69,0,4,4,0,0,0,2.62,3.55h0a3.87,3.87,0,0,0,1.33.23,4,4,0,0,0,3.24-1.68,3.91,3.91,0,0,0,.73-2.29,3.7,3.7,0,0,0-.09-.83l2.36-.39h0l.24,0h0l1.34-.22h.05l.2,0h0l.24,0h0l.54-.09h0l.08,0Zm-18.24,5h-.13a1.72,1.72,0,0,1-.39,0h0a2.7,2.7,0,0,1-.8-.27,2.8,2.8,0,0,1-.5-.31,3.46,3.46,0,0,1-.48-.46h0A3,3,0,0,1,11,21.76a1.65,1.65,0,0,1,.41-.18s0,0,0,0a2.77,2.77,0,0,1,1-.18,3,3,0,0,1,3,2.62,2.69,2.69,0,0,1,0,.4.82.82,0,0,1,0,.22h0A3,3,0,0,1,12.39,27.43Zm11.82-.89a3.3,3.3,0,0,1-2.56,1.2,3.17,3.17,0,0,1-.93-.14,3.36,3.36,0,0,1-2.43-3.22,3.33,3.33,0,0,1,1.92-3A3,3,0,0,1,21.44,21h.21A3.37,3.37,0,0,1,25,24.38,3.31,3.31,0,0,1,24.21,26.54Z"/><path class="cls-7" d="M29,66.28l6.34.08h.57s-1.26-2.84-2.06-3S29.11,66.19,29,66.28Z"/><path class="cls-9" d="M29,66.28c.13,0,4.31-1.76,4.73-1.8s1.52,1.76,1.6,1.88h.57s-1.26-2.84-2.06-3S29.11,66.19,29,66.28Z"/><path class="cls-1" d="M44.58,72.22H17.64l.42-2.52.58-3.4.12-.67,10.47.47h.19l2.9.13,2.55.12,1,0v-.13l-1-10.54-.76-8-.29-3-2.1-4h0c.5.16,8.53,2.85,10.21,9.7A118.86,118.86,0,0,1,44.58,72.22Z"/><path class="cls-14" d="M44.58,72.22H43.46C43.19,65.74,41.34,52,40.91,50s-2-3.89-3.79-5.46a32.71,32.71,0,0,0-5.23-3.75l-.12-.06-.06,0c.5.16,8.53,2.85,10.21,9.7A118.86,118.86,0,0,1,44.58,72.22Z"/><path class="cls-2" d="M18.75,65.62l16.5,1.81s1.89,2.71,2,2.45S36.84,68,36.83,68A11.18,11.18,0,0,0,39.53,69c.41-.1-2.62-2.34-2.62-2.34l-2.82-19L35.86,66.4Z"/><path class="cls-1" d="M18.06,69.7l-.42,2.52H3.53c0,.31,0,.62-.06.92a1.48,1.48,0,0,1-.29-.92C2.77,68,6.25,51,8.86,47.1a6.92,6.92,0,0,1,.52-.69c1.19-1.37,2.59-1.95,3-2.48a3.2,3.2,0,0,1,.74-.57l0,0h0l-2.05,13a.06.06,0,0,1,0,.06l-.31,1.94.05,1.53.12,4.18.63,2,.69,2.17h0l.57.15,3.24.85Z"/><path class="cls-14" d="M13.1,43.36l-.47.43s-3.46,3.53-3.54,4.43S4.29,61,3.53,72.22c0,.31,0,.62-.06.92a1.48,1.48,0,0,1-.29-.92C2.77,68,6.25,51,8.86,47.1a6.92,6.92,0,0,1,.52-.69A13.46,13.46,0,0,1,13.1,43.36Z"/><path class="cls-2" d="M8.94,66.46c.44-2.67,1.65-9.85,2.21-10.91,0,0-.76,9.59-.72,10.36,0,0,5.9.69,8.32-.29l-2.67,3.57L9.51,67.64c-.45.58-1,1.17-1.26,1.22-.58.11.53-1.4.53-1.4a4.7,4.7,0,0,1-1.67-.21C6.83,67.09,8,66.72,8.94,66.46Z"/><path class="cls-7" d="M12.21,68.27l.56.14,5.29,1.29.58-3.41.11-.67a32.35,32.35,0,0,0-3.62-.76C14.63,64.9,12.21,68.27,12.21,68.27Z"/><path class="cls-9" d="M12.21,68.27l.56.14c.91-.94,2.26-2.34,2.45-2.5s2.61.22,3.42.38l.11-.67a32.35,32.35,0,0,0-3.62-.76C14.63,64.9,12.21,68.27,12.21,68.27Z"/><path class="cls-15" d="M6.66,40.65,6.3,41.83l-.37-1.18a6.33,6.33,0,0,0-2.77-3.56h0a6.33,6.33,0,0,0,2.77-3.56l.37-1.18.36,1.18a6.33,6.33,0,0,0,2.77,3.56h0A6.33,6.33,0,0,0,6.66,40.65Z"/><path class="cls-15" d="M2.43,32.82l-.25.82-.26-.82A4.42,4.42,0,0,0,0,30.35H0a4.35,4.35,0,0,0,1.92-2.47l.26-.82.25.82a4.35,4.35,0,0,0,1.92,2.47h0A4.42,4.42,0,0,0,2.43,32.82Z"/><path class="cls-15" d="M47.38,13.58,47,14.76l-.37-1.18A6.29,6.29,0,0,0,43.87,10h0a6.3,6.3,0,0,0,2.77-3.55L47,5.29l.37,1.18A6.28,6.28,0,0,0,50.14,10h0A6.27,6.27,0,0,0,47.38,13.58Z"/><path class="cls-15" d="M43.15,5.76l-.26.82-.26-.82a4.34,4.34,0,0,0-1.92-2.47h0A4.38,4.38,0,0,0,42.63.82L42.89,0l.26.82a4.38,4.38,0,0,0,1.92,2.47h0A4.34,4.34,0,0,0,43.15,5.76Z"/></g></g></svg>