<svg xmlns="http://www.w3.org/2000/svg" viewBox="0 0 62.04 81.77"><defs><style>.cls-1{fill:none;}.cls-2{fill:#fdbd8e;}.cls-3{fill:#fb9988;}.cls-4{fill:#fd7d6f;}.cls-5{fill:#ffdaba;}.cls-6{fill:#ff9300;}.cls-7{fill:#cf691f;}.cls-8{fill:#ffb800;}.cls-9{fill:#85441d;}.cls-10{fill:#965326;}.cls-11{fill:#b5693c;}.cls-12{fill:#fff0e7;}.cls-13{fill:#ff7d6f;}.cls-14{fill:#161818;}.cls-15{fill:#006aab;}.cls-16{fill:#ebf1ed;}</style></defs><title>Ресурс 6</title><g id="Слой_2" data-name="Слой 2"><g id="OBJECTS"><polyline class="cls-1" points="22.41 81.77 27.01 81.77 28.4 81.77 28.93 81.77 28.42 81.75 27.09 81.69 22.03 81.47"/><polyline class="cls-1" points="22.41 81.77 27.01 81.77 28.4 81.77 28.93 81.77 28.42 81.75 27.09 81.69 22.03 81.47"/><path class="cls-2" d="M.07,39c-.47.27,1.52,8.15,2.09,8.8l.9.79L4,52.51a6.44,6.44,0,0,0,1.57-.15A5.19,5.19,0,0,0,7,51.77a4,4,0,0,0,.78-.61,12,12,0,0,0-.23-2.25s2.52-1.24,2.71-2.78A7.15,7.15,0,0,1,11,43.49a11.89,11.89,0,0,0,.7-1.26,1.65,1.65,0,0,0,0-1.39.35.35,0,0,0-.11-.13c-.1-.07-.22,0-.33,0l0,0a6,6,0,0,0-2.58,3,32.69,32.69,0,0,1-1.95-5.38s-.93-2.59-1.45-2.52a1.18,1.18,0,0,0-.47.18,1.28,1.28,0,0,0-.31.28s1.21,5.72,1.08,6-2.4-4.54-2.85-4.71a.64.64,0,0,0-.49.11,3,3,0,0,0-.5.39,5.59,5.59,0,0,0-.46.46l-.17.05a5.42,5.42,0,0,0-.58.21A2.74,2.74,0,0,0,.07,39Z"/><path class="cls-3" d="M.07,39c-.47.27,1.52,8.15,2.09,8.8l.9.79L4,52.51a6.44,6.44,0,0,0,1.57-.15,9.69,9.69,0,0,1-.43-4.92,47.34,47.34,0,0,0,1.07-4.65,10.68,10.68,0,0,0-.26-3,25.1,25.1,0,0,0-.85-3.05,5.15,5.15,0,0,0-.29-.71,1.28,1.28,0,0,0-.31.28s1.21,5.72,1.08,6-2.4-4.54-2.85-4.71a.64.64,0,0,0-.49.11,3,3,0,0,0-.5.39,5.59,5.59,0,0,0-.46.46l-.17.05a5.42,5.42,0,0,0-.58.21A2.74,2.74,0,0,0,.07,39Z"/><path class="cls-4" d="M1.7,38.08c.05.14.11.28.16.43A13.29,13.29,0,0,0,2.93,40.6c.31.48.53.77.56.81s-.11-.4-.27-.94-.44-1.35-.78-2.19l-.24-.59A3,3,0,0,0,1.7,38.08Z"/><path class="cls-4" d="M.49,38.8a13.51,13.51,0,0,0,1.2,2.44,14,14,0,0,0-.62-2.65A5.42,5.42,0,0,0,.49,38.8Z"/><path class="cls-5" d="M11.25,40.74c0,.1,0,.2,0,.3a7.47,7.47,0,0,1-.86,2.24,18.14,18.14,0,0,1-1.07,3.14A7.49,7.49,0,0,1,7.2,48.26a1.5,1.5,0,0,0-.57.63,1.7,1.7,0,0,0,0,.71c.12.72.29,1.45.39,2.17a4,4,0,0,0,.78-.61,12,12,0,0,0-.23-2.25s2.52-1.24,2.71-2.78A7.15,7.15,0,0,1,11,43.49a11.89,11.89,0,0,0,.7-1.26,1.65,1.65,0,0,0,0-1.39.35.35,0,0,0-.11-.13C11.48,40.64,11.36,40.69,11.25,40.74Z"/><path class="cls-4" d="M7.28,44a2.94,2.94,0,0,0-2.17,1.18,5,5,0,0,0-1,2.34c.48-.49.68-1.28,1.12-1.83S6.61,44,7.28,44Z"/><path class="cls-6" d="M1.44,50.08C1.74,58.87,3.2,80,10.22,80c3.95,0,8.15-3.94,11.59-8.28h0A79.88,79.88,0,0,0,29.2,60.25L26.49,46.31a10.44,10.44,0,0,0-2.82,2.32,29.72,29.72,0,0,0-2.57,3.19c-3.57,5.08-8.21,13.85-9.53,16,0,0-1.22-12.64-2.29-18.94l-1.79.28L2.28,50Z"/><path class="cls-7" d="M1.44,50.08C1.74,58.87,3.2,80,10.22,80c3.95,0,8.15-3.94,11.59-8.28h0l-.24-2.79S10.72,83.21,7.33,77.14C4.55,72.17,2.82,55.75,2.28,50Z"/><path class="cls-8" d="M9.14,70.53c-.14.56,1.76,0,1.76,0s0,2.28.73,3,.62-3.93.62-3.93c.12-1,9.6-17.72,11.42-20.93a29.72,29.72,0,0,0-2.57,3.19c-3.57,5.08-8.21,13.85-9.53,16,0,0-1.22-12.64-2.29-18.94l-1.79.28L10.63,69S9.27,70,9.14,70.53Z"/><path class="cls-6" d="M47.72,50.63c-.21,1-.64,2.56-1.21,5.54-.45,2.3-1,4.9-1.66,7.55h0a2.68,2.68,0,0,1-.07.27h0c-.18.77-.37,1.54-.56,2.31h0c-.4,1.64-.8,3.26-1.19,4.81-.11.44-.22.87-.32,1.3-.35,1.42-.68,2.77-1,4a48.14,48.14,0,0,0-1,5.3v0s0,0,0,0H22.41c-.13-.09-.25-.19-.38-.3s0-6-.22-9.77h0v0a23.23,23.23,0,0,0-.24-2.77h0c-.33-1.56-1.11-12.11.72-17.81h0A10.36,10.36,0,0,1,23,49.4h0a4.78,4.78,0,0,1,1-1.29,18.68,18.68,0,0,1,5.52-3.44c.3-.11.57-.19.81-.26a5.27,5.27,0,0,1,1.24-.17h6.92a28.49,28.49,0,0,1,2.89.85,24.54,24.54,0,0,1,3.93,2.1l.15.09.25.16.17.11.17.11.34.24c.23.17.48.36.73.57a4,4,0,0,1,.46.42v0a1.67,1.67,0,0,1,.2.27C47.92,49.5,47.89,49.85,47.72,50.63Z"/><path class="cls-7" d="M23.38,65.55l.7,0L26,65.4a18.8,18.8,0,0,1,5.9.38l1.67.47a11.73,11.73,0,0,0,1.66.35,13,13,0,0,0,2.87.1,5.62,5.62,0,0,0,1.11-.21,2.9,2.9,0,0,0,.77-.39,2,2,0,0,0,.36-.39l.09-.16-.13.12a1.77,1.77,0,0,1-.43.24,3.67,3.67,0,0,1-1.76.1,21.23,21.23,0,0,1-2.64-.55c-.49-.13-1-.29-1.52-.47s-1.09-.38-1.7-.54a10.08,10.08,0,0,0-3.57-.27,15.18,15.18,0,0,0-2.79.54c-.78.22-1.39.43-1.81.59Z"/><path class="cls-9" d="M20,33.38a6.83,6.83,0,0,1,.15-.67,5.85,5.85,0,0,1,.36-1,3.87,3.87,0,0,1,.71-1.08,4.08,4.08,0,0,1,1.05-.78,5.27,5.27,0,0,1,1-.38l.33-.09.2-.18-.06.15.2,0,.25,0-.58.38c-.08.18-.18.4-.29.67A11.83,11.83,0,0,0,22.42,33a15.67,15.67,0,0,0-.13,2.8c0,.37,0,.68,0,.89v.34s0-.11-.13-.31-.2-.48-.32-.85a8.11,8.11,0,0,1-.32-1.31,5.75,5.75,0,0,1,0-1.71,5.43,5.43,0,0,1,.57-1.62,7.07,7.07,0,0,1,.74-1.07,8.07,8.07,0,0,0-1.12,1,13.13,13.13,0,0,0-1.26,1.71l-.37.57-.15.21Z"/><path class="cls-9" d="M41.84,38.11a12.8,12.8,0,0,0,1.87,3.09c1.66,2.1,4,3.89,6.66,4.07a9.29,9.29,0,0,1-3.53-2.37l.5.31a9,9,0,0,0,6.16,1,7.74,7.74,0,0,1-1.72-3.25,11.49,11.49,0,0,1-.37-2.6A37.37,37.37,0,0,1,52,32a59.69,59.69,0,0,0,.69-10.35A10.9,10.9,0,0,0,49.63,14a4.7,4.7,0,0,0-7,.78,5.35,5.35,0,0,0-.41.7.93.93,0,0,0,0,1,8,8,0,0,0,.84.91,6.14,6.14,0,0,1,1.5,3,3.8,3.8,0,0,0-.37.33,7.84,7.84,0,0,0-1.64,2.68,23.57,23.57,0,0,0-1.65,8.27A15.61,15.61,0,0,0,41.84,38.11Z"/><path class="cls-10" d="M42.62,14.8a4.16,4.16,0,0,0,.57,1.25,3.39,3.39,0,0,1,3,2,8.51,8.51,0,0,1,.68,3.71,35.81,35.81,0,0,1-.42,5.67,34.38,34.38,0,0,0-.78,6,7.08,7.08,0,0,0,2.21,5.39,7.92,7.92,0,0,1,.59-3.47,7.64,7.64,0,0,0,3.33,5.64,11.49,11.49,0,0,1-.37-2.6,25.45,25.45,0,0,1,.37-4.61L52,32a59.69,59.69,0,0,0,.69-10.35A10.9,10.9,0,0,0,49.63,14a4.79,4.79,0,0,0-4.08-1.13,4.24,4.24,0,0,0-1.15.4A4.9,4.9,0,0,0,42.62,14.8Z"/><path class="cls-11" d="M44.4,13.29a8.43,8.43,0,0,1,3.17,3.1,7.85,7.85,0,0,1,.54,1.95,18.13,18.13,0,0,1,.39,2.73c.06,1.61-.3,3.21-.4,4.82a15.3,15.3,0,0,0,.69,5.62,10,10,0,0,1,1-2.46,8.83,8.83,0,0,0,2,4.68L52,32a59.69,59.69,0,0,0,.69-10.35A10.9,10.9,0,0,0,49.63,14a4.79,4.79,0,0,0-4.08-1.13A4.24,4.24,0,0,0,44.4,13.29Z"/><path class="cls-12" d="M39.73,16.89a2.74,2.74,0,1,0,2.73-2.74A2.74,2.74,0,0,0,39.73,16.89Z"/><path class="cls-12" d="M29.49,44.66l-.73,8.21L32.38,51l1.88-2.33s0-3,0-4.46H31.54a5.15,5.15,0,0,0-1.23.17h0C30.07,44.47,29.8,44.55,29.49,44.66Z"/><path class="cls-2" d="M32.38,51l6.08-6.79c0-1-.09-1.39-.18-3.88-.1-2.78-.2-5.38-.2-5.38l-7.83,3.1a18.77,18.77,0,0,1,1.4,6.31A50,50,0,0,0,32.38,51Z"/><path class="cls-3" d="M30.25,38.08a18.77,18.77,0,0,1,1.4,6.31c.24.11.49.2.71.28.91.32,3.83-2.27,5.92-4.31-.1-2.78-.2-5.38-.2-5.38Z"/><path class="cls-2" d="M22,28.77c.16.73.36,1.49.61,2.29,0,0-.35,3.92.06,4.8s3.06,6.35,5.83,6c2.31-.28,8-3.67,9.93-5.68a2.39,2.39,0,0,0,.69-1c.27-1.56,1.19-8.42,1.28-9,.24-1.56.89-13.35-13.36-10.07a6.86,6.86,0,0,0-5.17,5.15A17.16,17.16,0,0,0,22,28.77Z"/><path class="cls-13" d="M26.17,37.22l.86-.13a20.2,20.2,0,0,1,2-.22A8.44,8.44,0,0,1,31,37c.26,0,.47.11.61.15l.22.07a1.84,1.84,0,0,0-.18-.15,3.44,3.44,0,0,0-.56-.33,4.49,4.49,0,0,0-2.1-.4,6.09,6.09,0,0,0-2.07.5c-.25.11-.44.21-.57.28Z"/><path class="cls-13" d="M30.37,38.42a2.78,2.78,0,0,1-2.34.09,1.19,1.19,0,0,0,1.07.57A2,2,0,0,0,30.37,38.42Z"/><path class="cls-9" d="M19.79,21.45a6.34,6.34,0,0,0,.37,1.83,6.58,6.58,0,0,0,1.95,3.19,20.06,20.06,0,0,1,.21-4.77c3.4,3.71,10.51,5,10.8,5-1.35-.41-1.75-3.11-1.75-3.11,1.62,3.79,8.74,4.57,8.74,4.57C41.81,26.8,43,29.42,43,29.42a31,31,0,0,0,1.43-2.93c.1-.23.19-.46.28-.68A10.3,10.3,0,0,0,45.18,24c1-5.69-3.3-11.26-8.78-12.85a0,0,0,0,0,0,0c-5.18-1.5-11.3-.13-14.19,2.74A5.81,5.81,0,0,0,21,15.56a1.59,1.59,0,0,0-.12.27l0,.09a4.29,4.29,0,0,0-.28,1.67,5.91,5.91,0,0,0,.12,1A5.57,5.57,0,0,0,19.79,21.45Z"/><path class="cls-10" d="M20.86,15.83a5.09,5.09,0,0,0,1,.4c.69.18,1.41.19,2.1.37a4.38,4.38,0,0,1,2.15,1.34c1,1.15,1.45,2.84,2.8,3.53a4.3,4.3,0,0,0,3.08.05A11,11,0,0,1,35,20.89a5.81,5.81,0,0,1,4.14,2.43,5.08,5.08,0,0,0,1,1.07,3.22,3.22,0,0,0,2,.42,7.66,7.66,0,0,0,3-.83,10.16,10.16,0,0,0-.59-5.39,12.76,12.76,0,0,0-8.19-7.46,0,0,0,0,0,0,0,17.08,17.08,0,0,0-10.18.35,11,11,0,0,0-4,2.39A5.81,5.81,0,0,0,21,15.56,1.59,1.59,0,0,0,20.86,15.83Z"/><path class="cls-11" d="M26.21,11.47c1.67,1.37,2.53,3.76,4.55,4.51a8.05,8.05,0,0,0,3.72.07,4.94,4.94,0,0,1,3.61.62c.51.41.86,1,1.35,1.42a4.52,4.52,0,0,0,3.91.85,7.61,7.61,0,0,0,1.24-.35,12.76,12.76,0,0,0-8.19-7.46,0,0,0,0,0,0,0A17.08,17.08,0,0,0,26.21,11.47Z"/><path class="cls-5" d="M22.64,31.06s-.35,3.92.06,4.8,3.06,6.35,5.83,6c2.31-.28,8-3.67,9.93-5.68-2.41,1.67-8.83,5.93-10.71,5.28-2.33-.81-5-6-4.92-6.49s.2-3.86.2-3.86-.47-1.05-1-2.35C22.19,29.5,22.39,30.26,22.64,31.06Z"/><path class="cls-5" d="M38.51,35a5.45,5.45,0,0,0,3.79-2.09,4.47,4.47,0,0,0,.37-.56c.52-.93.66-4.14-.65-4.89a1.41,1.41,0,0,0-1.91.74h0a3.11,3.11,0,0,0-.21.38Z"/><path class="cls-2" d="M38.51,35a5.45,5.45,0,0,0,3.79-2.09l.16-.26c.51-.92.65-4.14-.66-4.88a1.25,1.25,0,0,0-1.69.43h0a3.11,3.11,0,0,0-.21.38Z"/><path class="cls-3" d="M42.43,30a1.28,1.28,0,0,1-.06.77,6.28,6.28,0,0,1-2.47,2.67,2.67,2.67,0,0,0,.37-1.69,4.09,4.09,0,0,1-.07-.6C40.19,30.34,42,28.48,42.43,30Z"/><path class="cls-4" d="M39.39,33.75l.06,0,.16-.1a2.23,2.23,0,0,0,.51-.46,2.06,2.06,0,0,0,.42-.85,1.8,1.8,0,0,0-.13-1.13,1.09,1.09,0,0,0-.08-.15l0,0h0l0,0,0-.06.08-.12a3.58,3.58,0,0,1,.31-.45c.1-.13.22-.26.33-.38a4.26,4.26,0,0,1,.32-.3.85.85,0,0,1,.34-.15.49.49,0,0,1,.28.05.38.38,0,0,1,.13.11s0,.06,0,.06a.28.28,0,0,0,0-.06s0-.09-.1-.15a.56.56,0,0,0-.33-.1.93.93,0,0,0-.44.13,2.7,2.7,0,0,0-.4.29,3.44,3.44,0,0,0-.4.37,5.54,5.54,0,0,0-.37.45l-.08.13,0,.06,0,.09,0,.07,0,.06,0,.09a.54.54,0,0,1,.07.13,1.87,1.87,0,0,1,.16,1,2.15,2.15,0,0,1-.27.81,2.28,2.28,0,0,1-.39.5,1.21,1.21,0,0,1-.13.12A.17.17,0,0,0,39.39,33.75Z"/><path class="cls-12" d="M32.38,51,37,54.64l4.35-9.54a27.18,27.18,0,0,0-2.89-.86Z"/><path class="cls-9" d="M36.76,31.26c0-.15.08-.38.16-.66a5.93,5.93,0,0,1,.36-1A4,4,0,0,1,38,28.55a4.14,4.14,0,0,1,1-.78,5.27,5.27,0,0,1,1-.38l.33-.08a2.1,2.1,0,0,1,.2-.18l-.07.15.21,0,.25,0-.59.38c-.07.18-.17.41-.28.67a11.83,11.83,0,0,0-.84,2.65,15.67,15.67,0,0,0-.13,2.8c0,.38,0,.68,0,.9s0,.33,0,.33L39,34.62c-.08-.19-.2-.48-.32-.84a8.53,8.53,0,0,1-.32-1.32,5.75,5.75,0,0,1,0-1.71,5.27,5.27,0,0,1,.57-1.61,6.59,6.59,0,0,1,.74-1.07,6.9,6.9,0,0,0-1.12,1,11.19,11.19,0,0,0-1.26,1.71l-.38.57-.14.2Z"/><path class="cls-10" d="M20.39,25.11s1.82-2.44,2.84-1.48.56,1.07.56,1.07Z"/><path class="cls-10" d="M36.94,24.4s-3.36-3.87-4.73-2.49c-.81.8-.25,1.34-.25,1.34Z"/><path class="cls-14" d="M30.64,26.72a2.23,2.23,0,0,0,1.08.93.91.91,0,0,1,.69-.36c.65,0,1.18.85,1.18,1.9s-.53,1.9-1.18,1.9-1.18-.85-1.18-1.9a2.77,2.77,0,0,1,.14-.89A3.55,3.55,0,0,1,30.64,26.72Z"/><path class="cls-14" d="M22.6,27.36a1.48,1.48,0,0,0,.74.63.66.66,0,0,1,.46-.21c.49,0,.89.64.89,1.44s-.4,1.43-.89,1.43-.89-.64-.89-1.43a2.05,2.05,0,0,1,.15-.81A2.54,2.54,0,0,1,22.6,27.36Z"/><path class="cls-12" d="M22.14,28.52a2.12,2.12,0,0,0,.83.63,2.08,2.08,0,0,0,1,.12,2.12,2.12,0,0,0-.83-.63A2.08,2.08,0,0,0,22.14,28.52Z"/><path class="cls-12" d="M34.72,28.13a2.65,2.65,0,0,1-1.13.95,2.74,2.74,0,0,1-1.48.11,2.79,2.79,0,0,1,1.14-1A2.7,2.7,0,0,1,34.72,28.13Z"/><path class="cls-3" d="M27.87,33.57a2.18,2.18,0,0,1,.89-.23,3,3,0,0,1-1.61,1.56.53.53,0,0,1-.17,0,.44.44,0,0,1-.2-.08,3.4,3.4,0,0,1-1-.9.89.89,0,0,1-.14-.25c-.07-.3.14-.23.32-.16a2.73,2.73,0,0,0,.64.16A2.7,2.7,0,0,0,27.87,33.57Z"/><path class="cls-4" d="M27.09,34.73c-.19-.17-.39-.31-.58-.46a4.3,4.3,0,0,1-.63-.65c1-.67,1-1.69.91-2.84a3.2,3.2,0,0,0-.42-1.48,3.09,3.09,0,0,0-.48-.66,2.06,2.06,0,0,0-.3-.29,1,1,0,0,0-.34-.19c.06.07.1.15.16.22s.29.36.41.56a3.26,3.26,0,0,1,.31.62,3.77,3.77,0,0,1,.29,1.36,3.44,3.44,0,0,1-.21,1.35,2.71,2.71,0,0,1-1,1.26l.73.83a3.32,3.32,0,0,0,.55.44,1.26,1.26,0,0,0,.66.26.4.4,0,0,0,.21-.07l-.12-.09,0,0Z"/><path class="cls-3" d="M24.21,34c-.15.42-1.05.47-2,.11s-1.59-1-1.44-1.4,1.06-.46,2-.11S24.37,33.57,24.21,34Z"/><path class="cls-3" d="M36.19,32c.17.63-.87,1.44-2.3,1.81s-2.74.17-2.9-.46.87-1.44,2.31-1.81S36,31.41,36.19,32Z"/><path class="cls-12" d="M41.35,27.27h0L41.3,27l-1,.16-2.95.49h0l-1.26.2a3.12,3.12,0,0,0-.4-.74,3.84,3.84,0,0,0-3.06-1.79h-.24a2.74,2.74,0,0,0-.5,0,3.81,3.81,0,0,0-1.74.66,4,4,0,0,0-1.7,2.8,2.35,2.35,0,0,0-1.74,0,3.63,3.63,0,0,0-3.58-3.1,3.58,3.58,0,0,0-1,.15,3,3,0,0,0-.45.18h0a3.61,3.61,0,0,0-1.13,5.77,3.31,3.31,0,0,0,.44.4,2.2,2.2,0,0,0,.32.21,2.08,2.08,0,0,0,.36.2,3.59,3.59,0,0,0,.86.27h.07a2,2,0,0,0,.43,0h.16a1.32,1.32,0,0,0,.28,0h0a3.6,3.6,0,0,0,3-2.11,3.16,3.16,0,0,0,.25-.79,3.31,3.31,0,0,0,.07-.55,1.73,1.73,0,0,1,1.69,0A4,4,0,0,0,31,33a3.87,3.87,0,0,0,1.33.23,4,4,0,0,0,3.24-1.68,3.91,3.91,0,0,0,.73-2.29,3.84,3.84,0,0,0-.09-.83L38.6,28h0l.26-.05h0l1.33-.22h0l.22,0,.23,0h0l.57-.09h.12Zm-18.24,5H23a1.72,1.72,0,0,1-.39,0h0a2.8,2.8,0,0,1-.8-.27,2.71,2.71,0,0,1-.49-.31,3,3,0,0,1-.49-.46h0a3,3,0,0,1-.69-1.91,3,3,0,0,1,1.58-2.66,2.09,2.09,0,0,1,.41-.17s0,0,0,0a2.77,2.77,0,0,1,1-.18,3,3,0,0,1,3,2.63,2.56,2.56,0,0,1,0,.39,1,1,0,0,1,0,.24A3,3,0,0,1,23.11,32.29ZM35,31.4h0a3.37,3.37,0,0,1-2.58,1.2,3.54,3.54,0,0,1-.93-.13,3.35,3.35,0,0,1-.51-6.25,3,3,0,0,1,1.24-.33h.2A3.37,3.37,0,0,1,35,31.4Z"/><polygon class="cls-12" points="53.2 81.77 27.01 81.77 27.09 81.69 40.68 68.68 43.03 71.14 49.77 78.18 52.58 81.12 53.2 81.77"/><polygon class="cls-15" points="34.8 81.77 40.66 81.77 40.7 81.77 49.6 81.77 51.64 81.77 50.67 80.75 42.71 72.44 40.53 70.16 28.42 81.75 28.4 81.77 28.93 81.77 34.8 81.77"/><polygon class="cls-12" points="43.89 78.68 40.7 81.73 40.69 81.75 40.66 81.77 34.8 81.77 41.09 75.75 41.74 76.43 43.89 78.68"/><path class="cls-6" d="M62,81.77H49.6l1.07-1,.21-.2-1.11-2.37L44.22,66.33h0l-1.36-2.9L40.31,58l4.76-10.89.36.2.25.16.17.11.17.11.34.24c.23.17.48.36.73.57s.31.27.46.42v0c.33.32,1.16,1.42,1.35,1.64v0C49.92,51.84,61.33,76.65,62,81.77Z"/><path class="cls-7" d="M54.55,81c-.37.45-1.42.25-2,.11l-.36-.1a8.31,8.31,0,0,1,.9.75H49.6l1.07-1,.21-.2-1.11-2.37L44.22,66.33h0c.19-.77.38-1.54.56-2.31L52,79.6S55.05,80.4,54.55,81Z"/><path class="cls-8" d="M62,81.77H60.48c-.88-4-11.22-30.34-11.56-31.2C49.92,51.84,61.33,76.65,62,81.77Z"/><path class="cls-16" d="M44.78,2.58c-.32,1.13-1.41,1.83-2.32,2.57a11.5,11.5,0,0,0-3.13,4,17.28,17.28,0,0,1,.31-4.6C40,3,40.88,1.05,42.39.23S45.21,1.05,44.78,2.58Z"/><path class="cls-16" d="M48.3,9.25a4.71,4.71,0,0,1-2.79.11,9.37,9.37,0,0,0-4.1.48,14.17,14.17,0,0,1,2.83-2.42,5.4,5.4,0,0,1,4.06-.88C49.66,7,49.43,8.62,48.3,9.25Z"/><path class="cls-16" d="M37.12,3.55a3.15,3.15,0,0,1-.26,1.85,6.28,6.28,0,0,0-.19,2.76A9.56,9.56,0,0,1,35.42,6a3.64,3.64,0,0,1-.08-2.77C35.78,2.37,36.85,2.73,37.12,3.55Z"/></g></g></svg>