<svg xmlns="http://www.w3.org/2000/svg" viewBox="0 0 46.72 83.07"><defs><style>.cls-1{fill:#ff9300;}.cls-2{fill:#cf691f;}.cls-3{fill:#1f2123;}.cls-4{fill:#2e3032;}.cls-5{fill:#85441d;}.cls-6{fill:#965326;}.cls-7{fill:#b5693c;}.cls-8{fill:#fff0e7;}.cls-9{fill:#fdbd8e;}.cls-10{fill:#fb9988;}.cls-11{fill:#ffdaba;}.cls-12{fill:#fd7d6f;}.cls-13{fill:#161818;}.cls-14{fill:#005584;}.cls-15{fill:#006aab;}.cls-16{fill:#ffb800;}</style></defs><title>Ресурс 12</title><g id="Слой_2" data-name="Слой 2"><g id="OBJECTS"><path class="cls-1" d="M46.72,83.07H37l-1.33-2.4-.6-1.1L35,79.44l-.16-.29-.39-.7-1.68-3.06L32,73.94l-.34-.62-.16-.3,0,0-.21-.38-.61-1.11-.22-.39-.68-1.24,3.32-15,.18-.86,1.05-4.73.3-12.75.14.07,0,0c1,.61,6.69,4,7.22,8.06.44,3.33,1.1,18,1.63,26a48.82,48.82,0,0,0,.47,5.22c.14.49.58,1.72,1.16,3.26C45.67,80.34,46.2,81.72,46.72,83.07Z"/><path class="cls-2" d="M44.24,83.07H37l-1.33-2.4-.6-1.1.15-.37,1.6-4h0L38,72.41l.44-1.08V56.83s.79-6.11.81-9.83v0c0-.35,0-.68,0-1,.5,2.89,1.31,8.79.28,11.84l.35,12.23.07,2.58s2.29,5.1,4.23,10.08C44.15,82.83,44.19,83,44.24,83.07Z"/><path class="cls-3" d="M38.14,83.07H21.79v-7l5.79-1.85.26-.08.42-.14,3.19-1h0L31.7,73,33,72.52l.57-.17,0,0,.45-.14,1.11-.36h0l2.2-.7.07,0,.14,0,.32-.1,0,1.45.17,9.49Z"/><path class="cls-4" d="M36,83.07H17a48.28,48.28,0,0,1,.72-5.47c.1-.53.21-1,.32-1.49a27.1,27.1,0,0,1,1.31-4.34l6.4-.39,3.25-.2,1.45-.09L32.59,71s0,.11.1.33h0s0,.1,0,.16c.07.22.15.52.26.89a1.54,1.54,0,0,0,0,.17c0,.1.06.22.09.34a.76.76,0,0,0,0,.11c0,.19.1.39.16.6.35,1.21.8,2.81,1.32,4.66q.14.45.27.93c0,.09,0,.18.08.28.11.38.22.78.33,1.18C35.56,81.41,35.79,82.23,36,83.07Z"/><path class="cls-1" d="M12.24,40.12c.21,1,.64,2.56,1.22,5.54.44,2.3,1,4.91,1.66,7.56h0C17,61.28,19.35,69.8,19.3,71.77c0,0,10.3,6.19,18.64-.81,0,0,.05-10.64.46-12.57S41.06,41.85,36,37.59a18.9,18.9,0,0,0-5.52-3.44,7.94,7.94,0,0,0-.81-.25h0a4.82,4.82,0,0,0-1.23-.18H21.5s-1.36.32-2.89.86a23.36,23.36,0,0,0-6.19,3.8h0a1.32,1.32,0,0,0-.2.27C12.05,39,12.07,39.34,12.24,40.12Z"/><path class="cls-2" d="M36.59,55l-.7,0L34,54.89a18.84,18.84,0,0,0-5.9.39c-.56.14-1.11.32-1.67.47a15.4,15.4,0,0,1-1.66.35,13.61,13.61,0,0,1-2.87.09A5,5,0,0,1,20.81,56a2.63,2.63,0,0,1-.77-.39,1.49,1.49,0,0,1-.36-.39,1.43,1.43,0,0,1-.1-.16l.14.12a1.49,1.49,0,0,0,.43.24,3.51,3.51,0,0,0,1.75.1A21,21,0,0,0,24.55,55c.49-.13,1-.29,1.51-.47s1.09-.38,1.71-.54a10,10,0,0,1,3.56-.27,16,16,0,0,1,2.8.54c.78.22,1.39.43,1.81.59Z"/><path class="cls-5" d="M40,22.88c0-.16-.08-.39-.15-.67a5.93,5.93,0,0,0-.36-1,4.32,4.32,0,0,0-.72-1.08,4.1,4.1,0,0,0-1-.78,5.27,5.27,0,0,0-1-.38l-.33-.08-.2-.18.06.15-.2,0-.25,0,.58.38.29.67a12.37,12.37,0,0,1,.84,2.65,16.67,16.67,0,0,1,.13,2.8c0,.38,0,.68,0,.9v.33l.14-.31c.08-.19.2-.48.32-.84a8.61,8.61,0,0,0,.31-1.32,5.16,5.16,0,0,0,0-1.71,5,5,0,0,0-.57-1.61,6.6,6.6,0,0,0-.73-1.07,7.35,7.35,0,0,1,1.12,1,11.9,11.9,0,0,1,1.26,1.71l.37.57.15.2Z"/><path class="cls-5" d="M18.13,27.61a13.2,13.2,0,0,1-1.87,3.09c-1.66,2.1-4,3.88-6.66,4.06a9.27,9.27,0,0,0,3.52-2.36c-.16.1-.32.21-.49.3a9,9,0,0,1-6.16,1,7.61,7.61,0,0,0,1.71-3.25,11.5,11.5,0,0,0,.38-2.6,37.17,37.17,0,0,0-.62-6.31,60.82,60.82,0,0,1-.68-10.35,10.82,10.82,0,0,1,3.08-7.65,4.68,4.68,0,0,1,7,.77,4.48,4.48,0,0,1,.42.7c.17.38.27.67,0,1a7.93,7.93,0,0,1-.83.91,6.22,6.22,0,0,0-1.5,3c.13.11.25.21.37.33a8.1,8.1,0,0,1,1.64,2.68,23.34,23.34,0,0,1,1.64,8.27A15.48,15.48,0,0,1,18.13,27.61Z"/><path class="cls-6" d="M17.34,4.29a4.13,4.13,0,0,1-.56,1.25,3.38,3.38,0,0,0-3,2,8.3,8.3,0,0,0-.68,3.7,33.59,33.59,0,0,0,.42,5.67,35.36,35.36,0,0,1,.77,6,7,7,0,0,1-2.2,5.39,8.07,8.07,0,0,0-.59-3.47,7.63,7.63,0,0,1-3.34,5.64,11.5,11.5,0,0,0,.38-2.6,26.39,26.39,0,0,0-.37-4.61c-.08-.57-.17-1.14-.25-1.7a60.82,60.82,0,0,1-.68-10.35,10.82,10.82,0,0,1,3.08-7.65,4.79,4.79,0,0,1,4.08-1.14,4.61,4.61,0,0,1,1.15.4A4.78,4.78,0,0,1,17.34,4.29Z"/><path class="cls-7" d="M15.57,2.78a8.48,8.48,0,0,0-3.18,3.11,8.53,8.53,0,0,0-.54,2,19.28,19.28,0,0,0-.38,2.73,45.87,45.87,0,0,0,.4,4.81A15.54,15.54,0,0,1,11.18,21a10,10,0,0,0-1-2.47,8.71,8.71,0,0,1-2,4.68c-.08-.57-.17-1.14-.25-1.7a60.82,60.82,0,0,1-.68-10.35,10.82,10.82,0,0,1,3.08-7.65,4.79,4.79,0,0,1,4.08-1.14A4.61,4.61,0,0,1,15.57,2.78Z"/><path class="cls-8" d="M20.24,6.38A2.74,2.74,0,1,1,17.5,3.64,2.74,2.74,0,0,1,20.24,6.38Z"/><path class="cls-8" d="M30.47,34.15l.74,8.21-3.62-1.84-1.88-2.33s0-3,0-4.46h2.74a4.82,4.82,0,0,1,1.23.18h0A7.94,7.94,0,0,1,30.47,34.15Z"/><path class="cls-9" d="M27.59,40.52,21.5,33.73c0-1,.1-1.38.19-3.88.1-2.77.2-5.37.2-5.37l7.83,3.09a18.54,18.54,0,0,0-1.4,6.32A49.92,49.92,0,0,1,27.59,40.52Z"/><path class="cls-10" d="M29.72,27.57a18.54,18.54,0,0,0-1.4,6.32l-.71.28c-.91.31-3.84-2.28-5.92-4.32.1-2.77.2-5.37.2-5.37Z"/><path class="cls-9" d="M37.94,18.27c-.16.72-.36,1.48-.62,2.28,0,0,.35,3.92-.06,4.8s-3,6.36-5.82,6c-2.31-.28-8-3.67-9.94-5.69a2.38,2.38,0,0,1-.68-1c-.27-1.55-1.2-8.42-1.28-9C19.3,14.12,18.65,2.34,32.9,5.62a6.87,6.87,0,0,1,5.17,5.14A17.21,17.21,0,0,1,37.94,18.27Z"/><path class="cls-5" d="M40.18,10.94a6.16,6.16,0,0,1-.38,1.84A6.54,6.54,0,0,1,37.86,16a20,20,0,0,0-.22-4.76c-3.39,3.7-10.5,5-10.79,5,1.35-.42,1.75-3.11,1.75-3.11-1.62,3.78-8.74,4.56-8.74,4.56C18.16,16.29,17,18.91,17,18.91c-.57-1.07-1-2-1.42-2.92l-.28-.69a9.55,9.55,0,0,1-.49-1.83C13.84,7.78,18.09,2.21,23.57.62h0C28.76-.88,34.88.49,37.76,3.35A5.79,5.79,0,0,1,39,5.05l.12.27,0,.09a4.3,4.3,0,0,1,.28,1.68,5.8,5.8,0,0,1-.12,1A5.66,5.66,0,0,1,40.18,10.94Z"/><path class="cls-6" d="M39.11,5.32a4.39,4.39,0,0,1-1,.4c-.68.18-1.4.19-2.09.38a4.31,4.31,0,0,0-2.15,1.34c-1,1.14-1.45,2.83-2.8,3.52A4.35,4.35,0,0,1,28,11a10.71,10.71,0,0,0-3.08-.64,5.81,5.81,0,0,0-4.14,2.43,5.08,5.08,0,0,1-1,1.07,3.17,3.17,0,0,1-2,.42,7.39,7.39,0,0,1-3-.83,10.16,10.16,0,0,1,.6-5.39A12.74,12.74,0,0,1,23.57.62h0A17.12,17.12,0,0,1,33.75,1a10.81,10.81,0,0,1,4,2.39A5.79,5.79,0,0,1,39,5.05Z"/><path class="cls-7" d="M33.75,1c-1.67,1.37-2.52,3.76-4.54,4.51a8.05,8.05,0,0,1-3.72.07,4.93,4.93,0,0,0-3.61.62c-.51.41-.86,1-1.35,1.43a4.59,4.59,0,0,1-3.91.85,7.65,7.65,0,0,1-1.24-.36A12.74,12.74,0,0,1,23.57.62h0A17.12,17.12,0,0,1,33.75,1Z"/><path class="cls-11" d="M37.32,20.55s.35,3.92-.06,4.8-3,6.36-5.82,6c-2.31-.28-8-3.67-9.94-5.69,2.41,1.67,8.83,5.94,10.72,5.28,2.33-.81,5-6,4.92-6.48s-.21-3.86-.21-3.86.47-1.06,1-2.35C37.78,19,37.58,19.75,37.32,20.55Z"/><path class="cls-11" d="M21.46,24.48a5.49,5.49,0,0,1-3.79-2.1,4.64,4.64,0,0,1-.38-.56c-.51-.92-.65-4.14.66-4.88.92-.53,1.59.23,1.91.73h0a2.68,2.68,0,0,1,.21.37Z"/><path class="cls-9" d="M21.46,24.48a5.49,5.49,0,0,1-3.79-2.1l-.16-.25c-.51-.93-.66-4.14.66-4.89a1.26,1.26,0,0,1,1.69.43h0a2.68,2.68,0,0,1,.21.37Z"/><path class="cls-10" d="M17.54,19.49a1.31,1.31,0,0,0,.06.78,6.35,6.35,0,0,0,2.46,2.66,2.73,2.73,0,0,1-.36-1.69c0-.2.07-.4.07-.6C19.78,19.83,17.93,18,17.54,19.49Z"/><path class="cls-12" d="M20.58,23.24l-.06,0-.16-.1a2.5,2.5,0,0,1-.51-.46,2.1,2.1,0,0,1-.42-.86,1.74,1.74,0,0,1,.13-1.13c0-.05.05-.1.07-.14l0,0s0,0,0,0h0l0,0,0-.06a.75.75,0,0,0-.07-.12,3.8,3.8,0,0,0-.31-.44,4.29,4.29,0,0,0-.33-.38,2.34,2.34,0,0,0-.33-.31.76.76,0,0,0-.33-.15A.59.59,0,0,0,18,19a.31.31,0,0,0-.13.12.1.1,0,0,0,0,.05v-.06a.26.26,0,0,1,.11-.14.64.64,0,0,1,.33-.11.93.93,0,0,1,.44.13,2.7,2.7,0,0,1,.4.29,4.49,4.49,0,0,1,.4.37,5.46,5.46,0,0,1,.36.45l.09.13,0,.06.05.09,0,.07,0,.06-.05.09a.54.54,0,0,0-.07.13,1.78,1.78,0,0,0-.16,1,2,2,0,0,0,.27.82,2.19,2.19,0,0,0,.39.49l.13.13Z"/><path class="cls-8" d="M27.59,40.52,23,44.14l-4.36-9.55c1.53-.54,2.89-.86,2.89-.86Z"/><path class="cls-5" d="M23.2,20.76c0-.16-.08-.39-.15-.67a6.28,6.28,0,0,0-.36-1A3.8,3.8,0,0,0,22,18.05a3.68,3.68,0,0,0-1-.78,5.38,5.38,0,0,0-1-.39l-.33-.08-.2-.18.06.15-.2,0-.25,0,.58.38c.08.18.18.41.29.68a11.51,11.51,0,0,1,.84,2.65,16.52,16.52,0,0,1,.13,2.79c0,.38,0,.69,0,.9v.33l.14-.3c.08-.2.2-.49.32-.85A9.49,9.49,0,0,0,21.66,22a5.39,5.39,0,0,0,0-1.7,4.85,4.85,0,0,0-.57-1.62,6,6,0,0,0-.73-1.07,8,8,0,0,1,1.12,1,11.9,11.9,0,0,1,1.26,1.71c.16.24.29.43.37.57s.15.21.15.21Z"/><path class="cls-6" d="M39.23,15.45S37.41,13,36.39,14,35.84,15,35.84,15Z"/><path class="cls-6" d="M24.83,15.82s3.36-3.87,4.73-2.49c.8.8.25,1.34.25,1.34Z"/><path class="cls-13" d="M29.32,16.22a2.17,2.17,0,0,1-1.08.92.93.93,0,0,0-.68-.36c-.66,0-1.19.86-1.19,1.91s.53,1.9,1.19,1.9,1.18-.85,1.18-1.9a2.79,2.79,0,0,0-.14-.9A3.47,3.47,0,0,0,29.32,16.22Z"/><path class="cls-13" d="M35,18.87h.14l.35,0a2.53,2.53,0,0,1,.46,0l.58.12.57.07a3,3,0,0,1,.45.12l.33.13.13.05-.06-.13a1.14,1.14,0,0,0-.2-.33,1.25,1.25,0,0,0-.45-.38,1.94,1.94,0,0,0-.67-.21,2.22,2.22,0,0,0-.68,0,1.36,1.36,0,0,0-.57.21,2.17,2.17,0,0,0-.29.25Z"/><path class="cls-8" d="M25.24,17.63a2.44,2.44,0,0,0,2.62,1.05,2.44,2.44,0,0,0-2.62-1.05Z"/><path class="cls-10" d="M32.09,23.07a2,2,0,0,0-.89-.24,3,3,0,0,0,1.62,1.56.47.47,0,0,0,.17,0,.39.39,0,0,0,.2-.08,3.4,3.4,0,0,0,1-.9.67.67,0,0,0,.13-.25c.07-.3-.13-.23-.31-.16a2.4,2.4,0,0,1-.64.16A2.74,2.74,0,0,1,32.09,23.07Z"/><path class="cls-12" d="M32.88,24.22l.58-.46a4.84,4.84,0,0,0,.63-.65c-1-.67-1-1.69-.91-2.84a3.35,3.35,0,0,1,.41-1.48,4,4,0,0,1,.48-.66c.1-.1.2-.2.31-.29a1.32,1.32,0,0,1,.33-.18,1.59,1.59,0,0,0-.15.21c-.14.19-.29.36-.41.56a5.2,5.2,0,0,0-.32.62,4.3,4.3,0,0,0-.29,1.37,3.59,3.59,0,0,0,.22,1.34,2.65,2.65,0,0,0,1,1.26l-.73.84a3.71,3.71,0,0,1-.55.43,1.26,1.26,0,0,1-.66.26.39.39,0,0,1-.21-.06.52.52,0,0,0,.11-.1l0,0A1.59,1.59,0,0,1,32.88,24.22Z"/><path class="cls-12" d="M30,27.25a2.88,2.88,0,0,0,2.37.07,1.24,1.24,0,0,1-1.08.58A2.08,2.08,0,0,1,30,27.25Z"/><path class="cls-12" d="M27.21,25.18a7.12,7.12,0,0,0,6.55.9,10.5,10.5,0,0,1-3.58,0A8.06,8.06,0,0,1,27.21,25.18Z"/><path class="cls-10" d="M35.76,23.48c.15.41,1.05.46,2,.1s1.6-1,1.45-1.4-1.06-.46-2-.1S35.6,23.06,35.76,23.48Z"/><path class="cls-10" d="M23.77,21.53c-.16.63.87,1.44,2.31,1.81s2.73.17,2.9-.46-.88-1.44-2.31-1.81S23.94,20.91,23.77,21.53Z"/><path class="cls-8" d="M38.36,15.48h0a3,3,0,0,0-.45-.18h-.19a3,3,0,0,0-.86-.12h-.11a3.62,3.62,0,0,0-3.47,3.09,2.35,2.35,0,0,0-1.74,0,4,4,0,0,0-1.68-2.79,3.62,3.62,0,0,0-1.13-.56,4.11,4.11,0,0,0-.61-.12,3,3,0,0,0-.52,0h-.22a3.85,3.85,0,0,0-2.42,1h0a3.28,3.28,0,0,0-.66.77,3.49,3.49,0,0,0-.39.74l-1.24-.2-3-.49-1-.16-.05.29h0l-.05.3h.12l.58.09h0l.21,0,.21,0h.05l1.34.22h0l.25.05h0l2.35.38a3.84,3.84,0,0,0-.09.83,4,4,0,0,0,4,4,3.69,3.69,0,0,0,1.33-.24,4,4,0,0,0,2.63-3.53,1.73,1.73,0,0,1,1.69,0,3.31,3.31,0,0,0,.07.55,2.63,2.63,0,0,0,.25.73v0a3.55,3.55,0,0,0,3,2.14h0a1.32,1.32,0,0,0,.28,0H37a3,3,0,0,0,.43,0h.07a3.61,3.61,0,0,0,.86-.28,2,2,0,0,0,.36-.19,2.27,2.27,0,0,0,.32-.22,3.23,3.23,0,0,0,.44-.39,3.61,3.61,0,0,0-1.13-5.77ZM28.52,22a3.17,3.17,0,0,1-.93.13,3.36,3.36,0,0,1,0-6.72h.21a3,3,0,0,1,1.23.33A3.35,3.35,0,0,1,28.52,22Zm10.66-1.28h0a3,3,0,0,1-.49.46,2.71,2.71,0,0,1-.49.31,2.8,2.8,0,0,1-.8.27h0a1.72,1.72,0,0,1-.39,0h-.13a3,3,0,0,1-3-2.77h0a1.77,1.77,0,0,1,0-.23,2.56,2.56,0,0,1,0-.39,3,3,0,0,1,3-2.63,2.87,2.87,0,0,1,1,.18h0a2.09,2.09,0,0,1,.41.17h0a3,3,0,0,1,1.57,2.66A3,3,0,0,1,39.18,20.68Z"/><path class="cls-14" d="M35.36,70.45a3,3,0,0,0-.42,0,2.56,2.56,0,0,0-.39,0l-.22,0-.29.07-.21.07a1.88,1.88,0,0,0-.3.12,2.82,2.82,0,0,0-.38.21.57.57,0,0,0-.18.12l-.28.22h0l-.16.15h0a2.69,2.69,0,0,0-.27.32c-.06.08-.11.16-.16.24a3.33,3.33,0,0,0-.39.93.65.65,0,0,0,0,.13h0l0,.23a.06.06,0,0,0,0,0l-.08.67-.34,2.69a3.32,3.32,0,0,0,.89,2.72,3.29,3.29,0,0,0,2,1l1.22.15.34,0,.3,0,.22,0,.18-1.39-.2,0-1-.12-.3,0h-.08l-.56-.07a2.33,2.33,0,0,1-.36-.08h0a2,2,0,0,1-1.33-2.11l.19-1.5L33,73.68l0-.15a1.74,1.74,0,0,1,.17-.56.6.6,0,0,1,.08-.16,1.8,1.8,0,0,1,.29-.39l.07-.07,0,0A1.44,1.44,0,0,1,34,72.1l0,0,.22-.11h0l.27-.08a1,1,0,0,1,.17,0,1.67,1.67,0,0,1,.5,0h0l1.33.17.75.09.08-.68,0-.28.05-.42Z"/><path class="cls-9" d="M33.58,71.63A2.69,2.69,0,0,1,34,72a2,2,0,0,1,.32.61,11.71,11.71,0,0,1,2.5,1.46c.25.42-.79,2.41-1.05,2.81a11.88,11.88,0,0,1-2.49,2.67c-.79.42-6.25-2-6.25-2l1.53-5.88S33,71.22,33.58,71.63Z"/><path class="cls-10" d="M34,72a2,2,0,0,1,.32.61,5.12,5.12,0,0,0-1.16.26,5.44,5.44,0,0,1-.81.51s-1.29-.55-1.25-.67.69-.33.69-.33l.94.12A6.48,6.48,0,0,1,34,72Z"/><path class="cls-14" d="M32.53,71.46a3.2,3.2,0,0,0-.64.94,2.78,2.78,0,0,0-.22.69l.64.29a5.44,5.44,0,0,0,.81-.51s.06,0,.13-.06a1.91,1.91,0,0,1,.75-.74,1.87,1.87,0,0,1,1.19-.23l2.26.29.22-1.46-2.3-.22A3.32,3.32,0,0,0,32.53,71.46Z"/><path class="cls-15" d="M37.73,70.35h6.86a1,1,0,0,1,1,1V82.31a0,0,0,0,1,0,0H36.7a0,0,0,0,1,0,0V71.38A1,1,0,0,1,37.73,70.35Z" transform="translate(69.82 158.17) rotate(-170.97)"/><path class="cls-1" d="M.15,73.3c1.15,2.14,27,5.76,27,5.76l.33-1.43,1.3-5.55L29.22,70,11.93,66s2.68-11.4,3.43-17a53.07,53.07,0,0,0,0-11.88c-3.64.69-6.68,4.73-9.06,9.89C1.55,57.23-.62,71.88.15,73.3Z"/><path class="cls-2" d="M7.44,66.07a2.54,2.54,0,0,0,2.19,1.24s-1.42,3.47-.87,3.36S10.91,68,10.91,68l17.83,4.1L29.22,70,11.93,66s3.85-17.41,3.73-18.15c-.18-1.06-5.15,17.49-5.15,17.49S6.67,64.75,7.44,66.07Z"/><path class="cls-16" d="M.15,73.3c1.15,2.14,27,5.76,27,5.76l.33-1.43c-6.65-1-24.09-3.79-25.15-4.77S4,56.68,6.3,47C1.55,57.23-.62,71.88.15,73.3Z"/></g></g></svg>