<svg xmlns="http://www.w3.org/2000/svg" viewBox="0 0 149.71 187.27"><defs><style>.cls-1{fill:#651924;}.cls-2{fill:#7e2426;}.cls-3{fill:#fb9988;}.cls-4{fill:#fdbd8e;}.cls-5{fill:#171228;}.cls-6{fill:#28b69a;}.cls-7{fill:#909aa3;}.cls-8{fill:#ffdaba;}.cls-9{fill:#007c7e;}.cls-10{fill:#63ccca;}.cls-11{fill:#006060;}.cls-12{fill:#ff9300;}.cls-13{fill:#cf691f;}.cls-14{fill:#749ec2;}.cls-15{fill:#4f83a7;}.cls-16{fill:#fff0e7;}.cls-17{fill:#fd7d6f;}.cls-18{fill:#161818;}.cls-19{fill:#fc5b68;}.cls-20{fill:#cf4a57;}.cls-21{fill:#a94739;}.cls-22{fill:#118c8c;}.cls-23{fill:#f8b555;}.cls-24{fill:#f48fb1;}</style></defs><title>callРесурс 2</title><g id="Слой_2" data-name="Слой 2"><g id="OBJECTS"><path class="cls-1" d="M104.19,72.15a11.53,11.53,0,0,0,2.25,11.48,20.18,20.18,0,0,1-9.07-5.76,7.46,7.46,0,0,0-.5,5.67,12,12,0,0,1-8.52-6.36l-2,5.14A23.41,23.41,0,0,0,85,74.15c-.08-.24-.18-.48-.27-.72a10,10,0,0,0-1.25.67,11.05,11.05,0,0,0-5,7.66,10.61,10.61,0,0,1-8.35-7.71l-4.42,7.38a11.94,11.94,0,0,0-3.49-7.12,6.88,6.88,0,0,0-.25,7.23,9.18,9.18,0,0,1-7.22-7.9,11.81,11.81,0,0,1-4.91,9.18c2.49-3.45-3.4-8.16-1.77-12.09-2.14,1.43-2,4.53-2.09,7.1s-1.55,5.82-4.1,5.45c1.24-2.77-.45-5.89-1.83-8.59-1-1.92-.11-5.9,1.28-8.79A50.62,50.62,0,0,0,45.13,55c.53-2.39,1.14-5.35,1.84-9,.46-2.4,1-5.08,1.48-8.07A33.5,33.5,0,0,1,59.64,18.41a35.86,35.86,0,0,1,8.61-5.66l0,0c9.47,0,19.37,4,27.82,8.32,1.08.54,2.17,1.1,3.2,1.73a14.65,14.65,0,0,1,3,2.39,13.1,13.1,0,0,1,2.43,3.7,25.92,25.92,0,0,1,1.7,5.38c.13.6.26,1.21.37,1.81a151.23,151.23,0,0,1,2.55,21.63c.23,5.08,1.18,21.19,3.77,25.57a19,19,0,0,1-7-6.2C104.53,74.24,104.63,71,104.19,72.15Z"/><path class="cls-2" d="M81.27,73.72c.72.15,1.46.3,2.2.38a11.05,11.05,0,0,0-5,7.66,10.61,10.61,0,0,1-8.35-7.71l-4.42,7.38a11.94,11.94,0,0,0-3.49-7.12,6.88,6.88,0,0,0-.25,7.23,9.18,9.18,0,0,1-7.22-7.9,11.81,11.81,0,0,1-4.91,9.18c2.49-3.45-3.4-8.16-1.77-12.09-2.14,1.43-2,4.53-2.09,7.1s-1.55,5.82-4.1,5.45c1.24-2.77-.45-5.89-1.83-8.59-1-1.92-.11-5.9,1.28-8.79A50.62,50.62,0,0,0,45.13,55c.53-2.39,1.14-5.35,1.84-9,.46-2.4,1-5.08,1.48-8.07A33.5,33.5,0,0,1,59.64,18.41C58.88,20,57.45,21.81,57,22.8a68.88,68.88,0,0,0-3.48,8.27c-1.14,3.25-2.08,6.56-2.91,9.9C48.06,51.12,46.49,61.54,43,71.39A19.88,19.88,0,0,0,50.19,65a20.68,20.68,0,0,0,2.07,7.1c.53-1.89,1.05-3.78,1.58-5.67l3.95,4.84a13.23,13.23,0,0,1,1-4.92,21.31,21.31,0,0,1,4.68,5,9.1,9.1,0,0,0,.81-3.88C69.12,71.17,75.31,72.5,81.27,73.72Z"/><path class="cls-2" d="M104.19,72.15a11.53,11.53,0,0,0,2.25,11.48,20.18,20.18,0,0,1-9.07-5.76,7.46,7.46,0,0,0-.5,5.67,12,12,0,0,1-8.52-6.36l-2,5.14A23.41,23.41,0,0,0,85,74.15a6,6,0,0,0,1.33-.21c1.64-.47,3.11-2,2.86-3.7l2.93,4.23c1.18-1.92,2.36-3.85,3.55-5.76a20.27,20.27,0,0,0,5,5.65,12.67,12.67,0,0,1,2.13-7,16.48,16.48,0,0,0,6.54,4.8Q107,50.51,104.78,28.87a25.92,25.92,0,0,1,1.7,5.38c.13.6.26,1.21.37,1.81a151.23,151.23,0,0,1,2.55,21.63c.23,5.08,1.18,21.19,3.77,25.57a19,19,0,0,1-7-6.2C104.53,74.24,104.63,71,104.19,72.15Z"/><polygon class="cls-3" points="112.53 71.26 108.96 65.5 102.97 69 107.06 75.16 112.53 71.26"/><path class="cls-4" d="M106.3,75.7l.65-1.52.83-2s-.53-4-3.68-5.74a3.87,3.87,0,0,0-1.78-.39,11.33,11.33,0,0,0-2.58.27A30.07,30.07,0,0,0,94.65,68a39.19,39.19,0,0,0-4.49-3.9c-.89-.63-1.4-.71-1.7-.58s-.4.79-.4.79l5.08,9.29s6.89,3.15,10.66,3.9Z"/><path class="cls-3" d="M104.1,66.48c3.15,1.71,3.68,5.74,3.68,5.74l-.83,2a22.12,22.12,0,0,0-1.8-2.62,6.65,6.65,0,0,0-1.21-1.33,5,5,0,0,0-1.75-.83,7.53,7.53,0,0,0-7.3,1.49,14.7,14.7,0,0,0-6.43-7.39c.3-.13.81,0,1.7.58A39.19,39.19,0,0,1,94.65,68a30.07,30.07,0,0,1,5.09-1.62,4.82,4.82,0,0,0,2.58-.27A3.87,3.87,0,0,1,104.1,66.48Z"/><rect class="cls-5" x="90.09" y="48.86" width="16.32" height="27.02" rx="1.64" ry="1.64" transform="translate(-17.96 68.62) rotate(-35.49)"/><rect class="cls-6" x="91.24" y="51.08" width="12.93" height="21.07" transform="translate(-17.62 68.16) rotate(-35.49)"/><path class="cls-7" d="M105.88,71a1.22,1.22,0,1,1-1.69-.28A1.21,1.21,0,0,1,105.88,71Z"/><path class="cls-4" d="M106.1,49.29a3.19,3.19,0,0,1-.23,2.14c-.37.77-.71,1.57-1.14,2.32l-.13.21a6.79,6.79,0,0,1-.69,1c-.09.11-.18.22-.28.32a4.27,4.27,0,0,1-1.12.84,1,1,0,0,1-1.43-.94,7,7,0,0,1,.71-3,12.32,12.32,0,0,1,2.43-3.27C105,48.19,105.75,48,106.1,49.29Z"/><path class="cls-4" d="M107.37,53.42a3.1,3.1,0,0,1-.24,2.13c-.23.5-.46,1-.71,1.52-.1.2-.2.39-.31.58a8.39,8.39,0,0,1-.93,1.41l-.22.24a4.37,4.37,0,0,1-1.19.92,1,1,0,0,1-1.42-.95,6.87,6.87,0,0,1,.71-3,9.92,9.92,0,0,1,.57-1,15.24,15.24,0,0,1,.91-1.27,2.11,2.11,0,0,1,.19-.23C105.74,52.55,106.91,51.75,107.37,53.42Z"/><path class="cls-4" d="M109.25,56.51a3.16,3.16,0,0,1-.23,2.13c-.3.63-.59,1.28-.91,1.9-.1.19-.21.38-.32.56a8.54,8.54,0,0,1-.73,1,5.29,5.29,0,0,1-.52.54,4.18,4.18,0,0,1-.89.62,1,1,0,0,1-1.42-1,7,7,0,0,1,.71-3l0,0a14,14,0,0,1,1.24-2l.22-.27C107.47,55.76,108.76,54.73,109.25,56.51Z"/><path class="cls-4" d="M110.5,60.49a3.16,3.16,0,0,1-.23,2.13l-.14.31a14.18,14.18,0,0,1-1.82,3.2,4.67,4.67,0,0,1-1.4,1.16,1,1,0,0,1-1.43-1,6.92,6.92,0,0,1,.72-3,5.42,5.42,0,0,1,.34-.62,14,14,0,0,1,1.36-1.91c.07-.09.14-.16.21-.24C109.06,59.52,110.08,59,110.5,60.49Z"/><path class="cls-8" d="M106.1,49.29a3.19,3.19,0,0,1-.23,2.14c-.37.77-.71,1.57-1.14,2.32,1-1.2,2.18-2,2.64-.33a3.1,3.1,0,0,1-.24,2.13c-.23.5-.46,1-.71,1.52,1-1.31,2.34-2.34,2.83-.56a3.16,3.16,0,0,1-.23,2.13c-.3.63-.59,1.28-.91,1.9,1-1,2-1.58,2.39,0a3.16,3.16,0,0,1-.23,2.13l-.14.31-.06-.2a2.81,2.81,0,0,0-.81-1.38,1.34,1.34,0,0,0-1.47-.25l0,0a3.45,3.45,0,0,1,.14-.34,3.37,3.37,0,0,0,.25-2.24c-.28-.85-1.51-1.36-2.1-.69l.06-.2.09-.31a3.87,3.87,0,0,0,.15-2.1A1.69,1.69,0,0,0,104.6,54l-.06,0-.2.07a6.46,6.46,0,0,0,.37-4,10.29,10.29,0,0,0-.49-1.16C105,48.19,105.75,48,106.1,49.29Z"/><path class="cls-9" d="M145.61,136.24c-13.17,1.56-25.91-2.13-33-4.74h0c-1.39-.52-2.57-1-3.49-1.37h0a26.76,26.76,0,0,1-4.59-2.36l1.27-14.56L99.26,96.87s3-.2,9.49,3.79c3.06,1.9,9.13,7.52,11.83,9.4-.15-.32-10-20.93-18.72-32.3L113,70.18A131.22,131.22,0,0,1,121.63,81l0,0C135.47,99.34,159.3,134.62,145.61,136.24Z"/><path class="cls-10" d="M100.46,78.55s9.55-8.85,14.39-9.74c0,0,3.3,3.61,3.08,4.25s-15.11,9.83-15.58,9.56S100.46,78.55,100.46,78.55Z"/><path class="cls-11" d="M145.61,136.24c-13.17,1.56-37.44-3.39-44.53-6l1.13-9.59s30.64,16.55,40.5,12S122.46,82.23,121.65,81C135.47,99.34,159.3,134.62,145.61,136.24Z"/><path class="cls-12" d="M40.67,113.37S9.93,129.79,13.18,151.76s11,22.05,11,22.05l16.51-18.26,13.6-31.81Z"/><path class="cls-13" d="M26.71,186.69a49.35,49.35,0,0,1-.7-14.93q.28-3.06.86-6.12.46-2.47,1.08-4.92a102.7,102.7,0,0,1,4.65-13.91v0c1.07-2.6,2.2-5.11,3.36-7.49a157.38,157.38,0,0,1,11.51-19.81c0-.07.09-.13.13-.19s.2-.29.28-.42c1.08-1.55,1.72-2.39,1.72-2.39l3.48,3.58,3.54,3.63,10.22,10.5,1.65,1.7,4.67,4.8,2.33,30.52,1.19,15.47Z"/><path class="cls-14" d="M52.61,186.69l.07-.19c.06-.15.12-.3.17-.45.24-.61.47-1.2.7-1.77l.21-.53h0c.41-1,.83-2,1.23-3a1.73,1.73,0,0,0,.1-.24c.06-.11.1-.23.15-.34l.49-1.11.37-.85.09-.19.18-.42c.1-.2.19-.39.27-.58.76-1.66,1.41-3,1.89-4h0c.1-.21.2-.4.29-.57l.12-.26.51-1h45.78l.09.42h0c.12.54.35,1.59.66,3l.46,2.12c.12.55.24,1.14.38,1.77s.26,1.24.4,1.91c.39,1.88.83,4,1.28,6.21Z"/><path class="cls-15" d="M65.36,171.5s-.54,1.56-1.42,4.06c-.41,1.17-.89,2.55-1.43,4.06s-1.17,3.27-1.81,5.06l-.73,2H52.61l.07-.19c.06-.15.12-.3.17-.45.24-.61.47-1.2.7-1.77l.21-.53h0c.41-1,.83-2,1.23-3a1.73,1.73,0,0,0,.1-.24c.06-.11.1-.23.15-.34l.49-1.11.37-.85.09-.19.18-.42c.1-.2.19-.39.27-.58.76-1.66,1.41-3,1.89-4h0c.1-.21.2-.4.29-.57l.12-.26.51-1h4l.38.06Z"/><path class="cls-15" d="M108.51,186.69H52.61l.07-.19c.06-.15.12-.3.17-.45.24-.61.47-1.2.7-1.77l.21-.53h0c.41-1,.83-2,1.23-3a1.73,1.73,0,0,0,.1-.24c.06-.11.1-.23.15-.34l.49-1.11.37-.85.09-.19.18-.42c.1-.2.19-.39.27-.58.76-1.66,1.41-3,1.89-4h0c.1-.21.2-.4.29-.57l.12-.26.51-1h45.78l.09.42h0c.12.54.35,1.59.66,3l.46,2.12c.12.55.24,1.14.38,1.77s.26,1.24.4,1.91C107.62,182.36,108.06,184.46,108.51,186.69Z"/><path class="cls-9" d="M47,116.9a49.15,49.15,0,0,1-.22-17.16A25.18,25.18,0,0,1,48.23,94a1.74,1.74,0,0,1,.11-.18A11.75,11.75,0,0,1,51,91.43l.85-.61h0l.8-.54.12-.08L53,90l0,0s0,0,0,0c.9-.58,1.85-1.16,2.8-1.71a43.18,43.18,0,0,1,6.21-3.11l.07,0,.6-.22c.4-.14.8-.26,1.18-.38l.1,0,.88-.27h0l.11,0,.3-.08.21-.07.19,0,.38-.11,1-.27.14,0,.81-.2h0l.14,0H83.81l.29,0a6.17,6.17,0,0,1,.76.09l.79.15.44.11.35.09h0s0,0,0,0l.15,0,.39.12.82.28a32.51,32.51,0,0,1,6.59,3.42,56.59,56.59,0,0,1,5.38,4,21.93,21.93,0,0,1,3.3,3.45,22.35,22.35,0,0,1,2.32,3.71h0c3.58,7.11,3.71,16.05,1.48,24.24a42.92,42.92,0,0,1-1.76,5.12c-.41,1-.86,2-1.35,2.94a2,2,0,0,1-.1.21c-.67,1.31-.71,6.48-.48,12.68v0c.24,6.1.74,13.19,1.18,18.61,0,.19,0,.38,0,.57,0,.48.06.78.07.88v0c.32,3.88.57,6.63.61,7.08a.28.28,0,0,1,0,.06l.18.36h0c1.35,2.92,2.71,8.78,3.9,15H52.46c3-7.4,5.78-13.16,5.78-13.16.06-2.36-1.18-9-3-17.35-1.46-7-3.28-15.17-5-23.15h0c-.11-.56-.23-1.11-.35-1.67l-.09-.41a2.21,2.21,0,0,1-.05-.25,0,0,0,0,0,0,0c0-.11,0-.21-.07-.32-.28-1.31-.55-2.61-.82-3.89-.51-2.39-1-4.73-1.42-7-.08-.37-.15-.73-.22-1.09L47,117S47,116.94,47,116.9Z"/><path class="cls-11" d="M98,133.33l-1.51-.08L92.4,133c-3.41-.17-8.08-.43-12.8.83-1.2.32-2.41.7-3.62,1a28.31,28.31,0,0,1-9.83,1,10.24,10.24,0,0,1-2.41-.45,5.31,5.31,0,0,1-1.67-.85,3.83,3.83,0,0,1-.79-.84l-.19-.34.29.25a3.89,3.89,0,0,0,.93.53,7.78,7.78,0,0,0,3.81.2,45.24,45.24,0,0,0,5.74-1.18c1.06-.29,2.14-.63,3.28-1s2.37-.83,3.7-1.18a22.13,22.13,0,0,1,7.73-.58,35,35,0,0,1,6.08,1.17c1.67.48,3,.94,3.91,1.28S98,133.33,98,133.33Z"/><path class="cls-16" d="M103.13,95.1c-3.29,4.53-5.82,11.73-19.66,12.82-16,1.27-26.25-13.94-27.54-19.67a43.16,43.16,0,0,1,6.2-3.11l.07,0c.65-.23,1.29-.44,1.89-.63,2.43-.76,4.31-1.19,4.31-1.19h15a10.28,10.28,0,0,1,2.67.38h0a17.06,17.06,0,0,1,1.76.55,32.28,32.28,0,0,1,6.6,3.42,57.87,57.87,0,0,1,5.37,4A21.46,21.46,0,0,1,103.13,95.1Z"/><path class="cls-4" d="M94.45,87.61a18.12,18.12,0,0,1-12.27,12.45c-10.72,3.59-17.76-9.88-20-15a64,64,0,0,1,6.2-1.82h15a10.48,10.48,0,0,1,2.67.37h0c.53.14,1.11.31,1.77.55A32.12,32.12,0,0,1,94.45,87.61Z"/><path class="cls-4" d="M81.6,98,68.4,83.28c0-2.19.21-3,.4-8.43.22-6,.44-11.66.44-11.66l17,6.72a39.82,39.82,0,0,0-3,13.7A110.79,110.79,0,0,1,81.6,98Z"/><path class="cls-3" d="M86.23,69.91a39.82,39.82,0,0,0-3,13.7c-.54.22-1.06.43-1.56.6-2,.69-8.31-4.94-12.83-9.36.22-6,.44-11.66.44-11.66Z"/><path class="cls-4" d="M104.05,49.72q-.52,2.36-1.33,5s.76,8.51-.13,10.41S96,78.88,90,78.14c-5-.61-17.29-8-21.55-12.34a5,5,0,0,1-1.48-2.18c-.59-3.38-2.6-18.27-2.79-19.51-.51-3.38-1.93-28.95,29-21.84a14.89,14.89,0,0,1,11.22,11.18A37.34,37.34,0,0,1,104.05,49.72Z"/><path class="cls-8" d="M102.72,54.67s.76,8.51-.13,10.41S96,78.88,90,78.14c-5-.61-17.29-8-21.55-12.34,5.22,3.63,19.16,12.88,23.24,11.46,5.06-1.76,10.78-13,10.67-14.07s-.44-8.37-.44-8.37,1-2.29,2.18-5.1Q103.53,52.08,102.72,54.67Z"/><path class="cls-8" d="M68.3,63.19a11.83,11.83,0,0,1-8.22-4.54,9.65,9.65,0,0,1-.82-1.22c-1.11-2-1.42-9,1.43-10.6,2-1.13,3.45.52,4.15,1.6h0a7.19,7.19,0,0,1,.45.82Z"/><path class="cls-4" d="M68.3,63.19a11.83,11.83,0,0,1-8.22-4.54c-.13-.19-.24-.38-.34-.56-1.11-2-1.43-9,1.43-10.6,1.61-.92,2.88,0,3.67.94h0a7.19,7.19,0,0,1,.45.82Z"/><path class="cls-3" d="M59.79,52.37a3.05,3.05,0,0,0,.13,1.69c.78,2.34,3.12,4.12,5.35,5.78a5.86,5.86,0,0,1-.78-3.66,11.72,11.72,0,0,0,.14-1.3C64.65,53.12,60.63,49.07,59.79,52.37Z"/><path class="cls-17" d="M66.4,60.51l-.13-.08a3.41,3.41,0,0,1-.36-.21,5,5,0,0,1-1.1-1,4.34,4.34,0,0,1-.91-1.85,3.9,3.9,0,0,1,.28-2.46,1.82,1.82,0,0,1,.16-.31l0-.07s0,0,0,0h0s0,0,0,0l0-.07-.07-.13-.16-.26a10.33,10.33,0,0,0-.67-1c-.24-.3-.48-.57-.72-.82A7,7,0,0,0,62,51.6a1.53,1.53,0,0,0-.72-.32,1.18,1.18,0,0,0-.62.1.6.6,0,0,0-.27.25.27.27,0,0,0,0,.12.23.23,0,0,1,0-.13.62.62,0,0,1,.23-.32,1.3,1.3,0,0,1,.71-.22,2,2,0,0,1,1,.27,6.39,6.39,0,0,1,.87.63,9.21,9.21,0,0,1,.86.81,7.69,7.69,0,0,1,.79,1A2.11,2.11,0,0,1,65,54l.09.14.11.2.08.14s0,.09-.07.14l-.12.2a2.15,2.15,0,0,0-.14.26,4.16,4.16,0,0,0-.36,2.18,4.62,4.62,0,0,0,.59,1.77A5.33,5.33,0,0,0,66,60.15c.12.12.22.2.29.26Z"/><path class="cls-2" d="M106.85,43.6s-3.95-5.28-6.15-3.19-1.21,2.31-1.21,2.31Z"/><path class="cls-2" d="M75.12,44.5S84,37.77,86.27,41.29c1.35,2.06-.08,3-.08,3Z"/><path class="cls-18" d="M85.36,45.27a4.76,4.76,0,0,1-2.34,2,2,2,0,0,0-1.49-.77c-1.42,0-2.57,1.84-2.57,4.12s1.15,4.12,2.57,4.12,2.57-1.84,2.57-4.12a6,6,0,0,0-.31-2C84.88,47.73,85.36,45.27,85.36,45.27Z"/><path class="cls-16" d="M76.51,48.33a5.28,5.28,0,0,0,5.67,2.29,5.28,5.28,0,0,0-5.67-2.29Z"/><path class="cls-18" d="M102.73,47.47a3.28,3.28,0,0,1-1.6,1.38,1.44,1.44,0,0,0-1-.45c-1.06,0-1.93,1.39-1.93,3.1s.87,3.11,1.93,3.11,1.94-1.39,1.94-3.11a4.37,4.37,0,0,0-.34-1.75A5.5,5.5,0,0,0,102.73,47.47Z"/><path class="cls-16" d="M103.72,50a4.63,4.63,0,0,1-1.79,1.37,4.69,4.69,0,0,1-2.24.27,4.63,4.63,0,0,1,1.79-1.37A4.69,4.69,0,0,1,103.72,50Z"/><path class="cls-3" d="M91.37,60.13a4.47,4.47,0,0,0-1.93-.5A6.44,6.44,0,0,0,93,63a.81.81,0,0,0,.37.09.87.87,0,0,0,.43-.16A7.61,7.61,0,0,0,96,61a1.36,1.36,0,0,0,.28-.53c.15-.65-.29-.51-.68-.35a6.07,6.07,0,0,1-4.2.05Z"/><path class="cls-17" d="M93.08,62.63c.4-.35.84-.65,1.25-1a10.14,10.14,0,0,0,1.38-1.4c-2.11-1.45-2.09-3.66-2-6.15a7.33,7.33,0,0,1,.91-3.23,7.13,7.13,0,0,1,1.7-2.05,2.35,2.35,0,0,1,.73-.4c-.13.14-.22.32-.34.47a12.83,12.83,0,0,0-.89,1.2,8.63,8.63,0,0,0-.68,1.36,8.8,8.8,0,0,0-.63,3A7.31,7.31,0,0,0,95,57.31,5.81,5.81,0,0,0,97.11,60s-1.45,1.68-1.59,1.82a7.24,7.24,0,0,1-1.19.94,2.62,2.62,0,0,1-1.42.56.8.8,0,0,1-.46-.13,1.59,1.59,0,0,0,.24-.2l.1-.1A4,4,0,0,1,93.08,62.63Z"/><path class="cls-17" d="M84,70.64A7.54,7.54,0,0,0,90.13,72,3.24,3.24,0,0,1,87,73,5.37,5.37,0,0,1,84,70.64Z"/><path class="cls-19" d="M95.86,66.29A10.16,10.16,0,0,1,91.92,70a7.8,7.8,0,0,1-4.52.81,6.84,6.84,0,0,1-4.13-2,11.18,11.18,0,0,1-2.72-5.21c9.63-.16,15.09,2.56,15.31,2.67Z"/><path class="cls-16" d="M95.86,66.29s-.29.46-1.75.75-10.74-1.37-11.75-1.83a5.31,5.31,0,0,1-1.81-1.6c9.63-.16,15.09,2.56,15.31,2.67Z"/><path class="cls-20" d="M91.92,70a7.8,7.8,0,0,1-4.52.81,6.84,6.84,0,0,1-4.13-2C85.17,68.16,89.42,67.14,91.92,70Z"/><path class="cls-3" d="M99.32,61c.34.9,2.29,1,4.35.23s3.47-2.13,3.13-3-2.28-1-4.35-.24S99,60.12,99.32,61Z"/><path class="cls-3" d="M73.32,56.81c-.35,1.36,1.89,3.12,5,3.92s5.92.36,6.28-1-1.89-3.12-5-3.93S73.67,55.45,73.32,56.81Z"/><path class="cls-1" d="M106.51,35.1c0,.29,0,.58,0,.86,0,.79-.09,1.57-.13,2.34,0,.3-.3,1.79-.11,2-3.44-3.82-6.94-7.73-9-12.43a8,8,0,0,1-.77-3.08,21.27,21.27,0,0,1-4,6,20.85,20.85,0,0,1-3,2.37,29.73,29.73,0,0,0-3.09,1.74,11.55,11.55,0,0,0,3.56-6c-4.13,6-10.7,9.88-17.45,12.61a12.29,12.29,0,0,0,3.16-5.27c-4.14,5.63-9.85,9.24-16.15,12a13,13,0,0,1-2.25-3.67,16.55,16.55,0,0,1-.69-1.86,1.09,1.09,0,0,1,0-.17,20.24,20.24,0,0,1-.71-3.35c-.51-4-.08-9.27,2.74-15.9a21,21,0,0,1,9.79-10.51l0,0A22.26,22.26,0,0,1,80.57,10.4a37.71,37.71,0,0,1,11.59,3.24c1.1.48,5,2.57,5,2.57s3.39.29,4.79,1.28c2.43,1.69,3.44,4.71,3.95,7.57.09.52.17,1,.24,1.55a49.67,49.67,0,0,1,.34,6.1c0,.52,0,1,0,1.54Z"/><path class="cls-1" d="M71.54,53.23c-.11-.33-.28-.81-.53-1.39a13.1,13.1,0,0,0-1-2,9,9,0,0,0-1.86-2.11,8.24,8.24,0,0,0-2.46-1.38,12,12,0,0,0-2.18-.55l-.74-.09-.47-.33s.06.12.18.31l-.46,0h-.55l1.37.66.81,1.36a26.12,26.12,0,0,1,2.56,5.46,34.88,34.88,0,0,1,1.08,6c.1.81.18,1.47.23,1.93l.11.71.2-.69c.12-.45.29-1.1.44-1.92a16.65,16.65,0,0,0,.31-2.92,11.89,11.89,0,0,0-.48-3.67,11.2,11.2,0,0,0-1.69-3.31,14.86,14.86,0,0,0-1.89-2.09,15.81,15.81,0,0,1,2.68,1.74,26.24,26.24,0,0,1,3.21,3.32l1,1.12.37.4Z"/><path class="cls-1" d="M67.84,45.51a59.78,59.78,0,0,0,17-10.13,7.17,7.17,0,0,1-2.15,3,24.89,24.89,0,0,0,13.26-9.87,10.49,10.49,0,0,0,2-5.31,2.1,2.1,0,0,0-.13-.93,2.25,2.25,0,0,0-1.23-1.07A9.74,9.74,0,0,0,90,20.89,22.87,22.87,0,0,0,84,23.82a24.09,24.09,0,0,0-4.61,3.55c-2.63,2.72-3,5.71-4.39,9A22.68,22.68,0,0,1,67.84,45.51Z"/><path class="cls-1" d="M91.29,46.27A9.93,9.93,0,0,0,95,42.74a27.69,27.69,0,0,0,4.57-11.66,11.48,11.48,0,0,0-.83-7.17c-.65-1.2-3.16-3.22-4.2-1.23-.63,1.22.84,4,1.07,5.23a23.91,23.91,0,0,1-1,12.15A22.39,22.39,0,0,1,91.29,46.27Z"/><path class="cls-2" d="M99.32,22.78c-.6-.14-1.2-.27-1.81-.38a14.91,14.91,0,0,1,.22,4.32,20.15,20.15,0,0,0-3.59-5.44,20.52,20.52,0,0,1-7.48,6.36,15.23,15.23,0,0,0,1.25-9.33A39.12,39.12,0,0,1,74,30.47,16.53,16.53,0,0,0,74,24.2,47.91,47.91,0,0,1,56.48,42.68l-.21.12.16-.29a18.68,18.68,0,0,0,2.07-6.92,31,31,0,0,1-2.78,3.57A32,32,0,0,1,47,46c.46-2.4,1-5.08,1.48-8.07a32.48,32.48,0,0,1,3.34-9.71A36.72,36.72,0,0,1,68.25,12.75l0,0A22.26,22.26,0,0,1,80.57,10.4a37.71,37.71,0,0,1,11.59,3.24l.4.19c1.42.69,4.55,2.38,4.55,2.38s3.39.29,4.79,1.28c2.43,1.69,3.44,4.71,3.95,7.57A34.39,34.39,0,0,0,99.32,22.78Z"/><path class="cls-21" d="M92.77,17.45a31.43,31.43,0,0,0-12.65-2.92,35.15,35.15,0,0,1-4.26,4.28,6,6,0,0,0,.08-3.69A34.44,34.44,0,0,1,61.88,25.3a14.25,14.25,0,0,0,2.44-4.54,26.52,26.52,0,0,1-12.53,7.47A36.72,36.72,0,0,1,68.25,12.75l0,0A22.26,22.26,0,0,1,80.57,10.4a37.71,37.71,0,0,1,11.59,3.24l.4.19c-.7.22-1.4.47-2.09.73Z"/><path class="cls-21" d="M90.1,9.13a9.44,9.44,0,0,0-1.41-4.28A9.87,9.87,0,0,0,82.9,0c3.8,0,7.86,1.3,10,4.43,1.5,2.19,1.76,5.41,0,7.35a6.44,6.44,0,0,1-1.74,1.27,8.36,8.36,0,0,1-3.72,1.1C88.76,12.47,90.2,11.68,90.1,9.13Z"/><path class="cls-9" d="M26.71,186.69c0,.19.07.39.12.58-.15-.19-.3-.39-.46-.58h-7.6C8.41,173.55-1.68,158.43.23,151.43,3,141.19,28.33,113.77,41,100.49c4.07-4.26,6.84-7.07,7.17-7.4l0,0h0s0,.18.08.52c0,.07,0,.15,0,.24.56,3.6,3,18.94,4.75,26.25a16.77,16.77,0,0,0,1.17,3.67c.25.4-.17,1.29-1.08,2.53-.32.45-.72,1-1.17,1.48-.64.78-1.41,1.63-2.26,2.56l0,0c-3.13,3.35-7.44,7.51-11.68,11.46h0c-1.86,1.73-3.7,3.42-5.42,5l-.72.65-.64.58c-3.13,2.83-5.74,5.13-7.08,6.31l-.89.78-.08.07h0c.17.15.36.33.56.54a58.63,58.63,0,0,1,4.18,5c1.12,1.44,2.34,3.08,3.65,4.85h0c.7.95,1.42,1.94,2.15,3l1,1.43.67.93,1.32,1.87h0l1.33,1.89c2.9,4.11,5.8,8.32,8.33,12Z"/><path class="cls-22" d="M3.07,153c.13,3.44,12.36,19.75,23.3,33.71h-7.6C8.41,173.55-1.68,158.43.23,151.43,3,141.19,28.33,113.77,41,100.49c4.07-4.26,6.84-7.07,7.17-7.4l0,0h0s0,.18.08.52c-1.63,1.93-4,4.72-6.78,8C27.61,118.28,2.89,148.49,3.07,153Z"/><path class="cls-11" d="M38.11,174.67c2.9,4.11,5.8,8.32,8.33,12H42.15c-4.28-5.95-9-12.56-13.18-18.2-.72-1-1.42-1.94-2.1-2.85-2.22-3-4.18-5.63-5.65-7.53a13.68,13.68,0,0,1-6.37,2c-.21,0-.41,0-.62,0a3.62,3.62,0,0,1,.43-.77,9.13,9.13,0,0,1,3.83-2.69l-5.32-4.9c-.31-.28-.64-.74-.39-1.08a.4.4,0,0,1,.24-.16,1.34,1.34,0,0,1,.78.1,28,28,0,0,1,5.51,2.94c.34.23.87.55,1.38.93L36,139.3,48.9,126.45l.22-.22,1.45-1.44,1.44,3,.29.58.31.64-.94.84-1.73,1.54,0,.05L32.6,146.81l-.71.63-.64.58-7.08,6.31-.89.78-.07.08c.17.15.36.33.56.54a58.63,58.63,0,0,1,4.18,5c1.12,1.44,2.34,3.08,3.65,4.85h0c.7.95,1.42,1.94,2.15,3l1,1.43.67.93c.43.62.88,1.24,1.32,1.87h0C37.22,173.4,37.67,174,38.11,174.67Z"/><path class="cls-12" d="M40.67,99.7s5.23-8,10.11-9c0,0,20,72.94-10.11,85.31C40.67,176,62.77,148.67,40.67,99.7Z"/><path class="cls-12" d="M103.13,95.1s6.24,3.75,6.56,8.55l-5.15,60.49S100,103.1,103.13,95.1Z"/><path class="cls-23" d="M19.93,94.45l.8,2.56.8-2.56a13.61,13.61,0,0,1,6-7.72h0a13.61,13.61,0,0,1-6-7.72l-.8-2.56L19.93,79a13.69,13.69,0,0,1-6,7.72h0A13.69,13.69,0,0,1,19.93,94.45Z"/><path class="cls-23" d="M29.11,77.48l.55,1.78.56-1.78a9.45,9.45,0,0,1,4.16-5.36h0a9.45,9.45,0,0,1-4.16-5.36L29.66,65l-.55,1.78a9.5,9.5,0,0,1-4.17,5.36h0A9.5,9.5,0,0,1,29.11,77.48Z"/><path class="cls-23" d="M130.78,55.66l-.8,2.55-.81-2.55a13.64,13.64,0,0,0-6-7.72h0a13.64,13.64,0,0,0,6-7.72l.81-2.56.8,2.56a13.61,13.61,0,0,0,6,7.72h0A13.61,13.61,0,0,0,130.78,55.66Z"/><path class="cls-23" d="M121.6,38.69,121,40.46l-.56-1.77a9.45,9.45,0,0,0-4.16-5.36h0A9.45,9.45,0,0,0,120.48,28l.56-1.78L121.6,28a9.45,9.45,0,0,0,4.16,5.36h0A9.45,9.45,0,0,0,121.6,38.69Z"/><path class="cls-24" d="M26.83,187.27c-.15-.19-.3-.39-.46-.58h.34C26.74,186.88,26.78,187.08,26.83,187.27Z"/></g></g></svg>