<svg xmlns="http://www.w3.org/2000/svg" viewBox="0 0 79.39 87.79"><defs><style>.cls-1{fill:#fdbd8e;}.cls-2{fill:#fb9988;}.cls-3{fill:#fd7d6f;}.cls-4{fill:#ffdaba;}.cls-5{fill:#007c7e;}.cls-6{fill:#006060;}.cls-7{fill:#118c8c;}.cls-8{fill:#4f83a7;}.cls-9{fill:#749ec2;}.cls-10{fill:#ff9300;}.cls-11{fill:#cf691f;}.cls-12{fill:#fff0e7;}.cls-13{fill:#651924;}.cls-14{fill:#7e2426;}.cls-15{fill:#161818;}.cls-16{fill:#a94739;}.cls-17{fill:#edb838;}.cls-18{fill:#ffd455;}.cls-19{fill:#940b20;}.cls-20{fill:#ac1426;}.cls-21{fill:#ffa07f;}.cls-22{fill:#ff7d6f;}.cls-23{fill:#cf4a57;}.cls-24{fill:#ffbf90;}.cls-25{fill:#63ccca;}.cls-26{fill:#ebf1ed;}</style></defs><title>closed_eyesРесурс 12</title><g id="Слой_2" data-name="Слой 2"><g id="OBJECTS"><path class="cls-1" d="M79.35,18.85c.45.41-3.47,8.62-4.24,9.21L74,28.72l-1.86,4.09a6.63,6.63,0,0,1-1.69-.51,5.46,5.46,0,0,1-1.5-1,4,4,0,0,1-.73-.85,13.78,13.78,0,0,1,.75-2.42s-2.49-1.92-2.36-3.65a8,8,0,0,0-.16-3.05,14.47,14.47,0,0,1-.49-1.54,1.85,1.85,0,0,1,.28-1.54.38.38,0,0,1,.14-.11.36.36,0,0,1,.36.11l0,0a6.64,6.64,0,0,1,2.17,3.88s2.93-4.12,3.33-5.49c0,0,1.59-2.64,2.15-2.44a1.27,1.27,0,0,1,.48.3,1.38,1.38,0,0,1,.27.37s-2.59,6-2.5,6.32,3.64-4.46,4.18-4.55a.72.72,0,0,1,.51.24,3.44,3.44,0,0,1,.46.53c.23.31.4.6.4.6l.18.1a6.77,6.77,0,0,1,.59.36A3.43,3.43,0,0,1,79.35,18.85Z"/><path class="cls-2" d="M79.35,18.85c.45.41-3.47,8.62-4.24,9.21L74,28.72l-1.86,4.09a6.63,6.63,0,0,1-1.69-.51A10.79,10.79,0,0,0,72,27c0-1.79-.36-3.58-.15-5.35a12.09,12.09,0,0,1,1-3.21,27,27,0,0,1,1.61-3.17,6.17,6.17,0,0,1,.48-.71,1.38,1.38,0,0,1,.27.37s-2.59,6-2.5,6.32,3.64-4.46,4.18-4.55a.72.72,0,0,1,.51.24,3.44,3.44,0,0,1,.46.53c.23.31.4.6.4.6l.18.1a6.77,6.77,0,0,1,.59.36A3.43,3.43,0,0,1,79.35,18.85Z"/><path class="cls-3" d="M77.77,17.47l-.28.44A14.33,14.33,0,0,1,75.85,20c-.43.46-.75.73-.78.76s.2-.41.5-1,.79-1.38,1.34-2.23c.13-.21.27-.4.4-.59A3.44,3.44,0,0,1,77.77,17.47Z"/><path class="cls-3" d="M78.94,18.53a15.45,15.45,0,0,1-1.86,2.41,14.9,14.9,0,0,1,1.27-2.77A6.77,6.77,0,0,1,78.94,18.53Z"/><path class="cls-4" d="M66.69,18.28l-.06.33a8.43,8.43,0,0,0,.45,2.65c.23,1.23,0,2.53.48,3.69a8.46,8.46,0,0,0,1.91,2.48,1.66,1.66,0,0,1,.49.82,1.76,1.76,0,0,1-.16.78c-.29.76-.63,1.53-.9,2.3a4,4,0,0,1-.73-.85,13.78,13.78,0,0,1,.75-2.42s-2.49-1.92-2.36-3.65a8,8,0,0,0-.16-3.05,14.47,14.47,0,0,1-.49-1.54,1.85,1.85,0,0,1,.28-1.54.38.38,0,0,1,.14-.11A.36.36,0,0,1,66.69,18.28Z"/><path class="cls-3" d="M70.33,22.69a3.32,3.32,0,0,1,2.13,1.78,5.76,5.76,0,0,1,.6,2.79A21.52,21.52,0,0,1,72.23,25C71.92,24.38,71.07,22.86,70.33,22.69Z"/><path class="cls-5" d="M71.75,31l-3.26-1-1.4-.49s-11,19.11-11.57,22.52c0,0-5.18-1.93-9.89-3.21,0,0-3.19-.77-6.1-1.39L39.65,60l.62.74c7.88,1.37,16.34,2.46,19.48,1.53,6.48-1.93,14.12-30.52,14.12-30.52Z"/><path class="cls-6" d="M71.75,31c-2.85,7-9.68,28.25-12,29.93-1.47,1.06-11.2.06-20.1-1.12V60l.62.74c7.88,1.37,16.34,2.46,19.48,1.53,6.48-1.93,14.12-30.52,14.12-30.52Z"/><path class="cls-7" d="M57.19,52.13c1.86-5,9.26-17.2,11.3-22.09l-1.4-.49s-11,19.11-11.57,22.52c0,0-8.83-4.49-16-5.76v1.42a44.38,44.38,0,0,1,6.95,2l9.39,3.54c0,.3,0,.6,0,.79a13.37,13.37,0,0,0,.2,3c0,.17.11.38.28.39s.3-.23.34-.42c.21-1.13.43-2.25.64-3.37a3.71,3.71,0,0,0,2.46.85A6.58,6.58,0,0,0,57.19,52.13Z"/><path class="cls-8" d="M44.25,87.79H27.45V84.5l2-.16,1.43-.12,4.46.58,2.69.35.93.12.16,0,.93.12,3.89.51C44,86.48,44.14,87.11,44.25,87.79Z"/><path class="cls-9" d="M35.94,87.79H19.83c0-.17.07-.34.1-.51.06-.32.13-.62.19-.91,0,0,0-.06,0-.08.07-.31.13-.61.19-.9.13-.64.26-1.21.37-1.71H35.11l.23,1.12.41,2.07,0,.18Z"/><path class="cls-8" d="M21.85,87.79h-2c0-.17.07-.34.1-.51.06-.32.13-.62.19-.91,0,0,0-.06,0-.08.07-.31.13-.61.19-.9.13-.64.26-1.21.37-1.71h1.67c-.07.59-.15,1.22-.23,1.88,0,.29-.08.59-.11.89,0,.13,0,.26-.05.39,0,.3-.07.6-.11.91A.08.08,0,0,1,21.85,87.79Z"/><path class="cls-10" d="M13.06,53.56S-1.13,61.14.36,71.29,5.43,81.46,5.43,81.46L13.06,73l6.27-14.69Z"/><path class="cls-11" d="M29.71,87.79H6.7a21.26,21.26,0,0,1-.51-5.64c0-.54,0-1.08.09-1.62A34.69,34.69,0,0,1,7,76.27c.23-1,.5-2,.8-3,.15-.48.3-1,.46-1.44a68.35,68.35,0,0,1,8-15.48l.06-.08c0-.07.09-.14.14-.2.49-.72.79-1.11.79-1.11l.64.66.09.09L19,56.91l1.12,1.14.26.27,2.5,2.57,1,1,.2.21.76.78.3.31.77.79,1.58,1.62.15.16.42.43.11,1.4.47,6.12.12,1.62v.16l.09,1.13L29,78.52l.13,1.68,0,.28h0l.08,1,.16,2.15.05.66.15,1.94,0,.5Z"/><path class="cls-5" d="M16,55.12a22.58,22.58,0,0,1-.3-6.11h0c0-.63.12-1.21.21-1.73a11.45,11.45,0,0,1,.69-2.65,4.41,4.41,0,0,1,1.26-1.18,3.89,3.89,0,0,1,.39-.28h0l.37-.25a.1.1,0,0,0,.05,0l.12-.08h0c.42-.27.86-.54,1.3-.8A20.79,20.79,0,0,1,23,40.53h0l.44-.16.11,0,.31-.09.41-.13.38-.11.33-.1.2,0,.17,0,.27-.07.09,0h.06l.09,0h6.93a4.41,4.41,0,0,1,.81.08l.43.1a7.94,7.94,0,0,1,.81.25c.2.07.41.16.64.26s.47.21.72.34a15.88,15.88,0,0,1,1.68,1h0a25.17,25.17,0,0,1,2.48,1.87,9.92,9.92,0,0,1,1.52,1.59,10.34,10.34,0,0,1,1.23,2,11.5,11.5,0,0,1,.49,1.22l.13.4a17.87,17.87,0,0,1-.84,11.44c-.11.3-.24.6-.38.89a.09.09,0,0,1,0,.07,5.31,5.31,0,0,1-.3.64s0,0,0,0a2.64,2.64,0,0,0-.19.88,37.08,37.08,0,0,0-.07,4.31l0,.7c.05,1.38.14,2.87.23,4.32,0,.69.09,1.37.14,2s.07,1,.11,1.47a.22.22,0,0,0,0,.08h0c.06.75.11,1.46.16,2.07,0,.18,0,.35,0,.51v0l.18,2a35.55,35.55,0,0,1,2,7.49H18.35q.3-.77.6-1.47l.18-.43c0-.1.08-.19.13-.29a2.77,2.77,0,0,1,.1-.26s0,0,0,0c.71-1.66,1.31-3,1.61-3.57.11-.25.18-.39.18-.39a9.25,9.25,0,0,0-.1-1.29c0-.31-.09-.66-.16-1-.13-.8-.3-1.75-.51-2.82-.11-.52-.22-1.08-.34-1.66-.07-.33-.14-.67-.22-1a1.13,1.13,0,0,0,0-.18v0h0c-.08-.38-.16-.76-.25-1.16h0c-.3-1.43-.63-2.94-1-4.48-.13-.61-.26-1.23-.4-1.85-.19-.89-.39-1.76-.58-2.65v0c0-.16-.07-.32-.1-.48l-.21-1s0,0,0-.06a0,0,0,0,0,0,0c-.38-1.8-.75-3.56-1.07-5.2,0-.17-.07-.34-.11-.51h0L16,55.25a.5.5,0,0,1,0-.12Z"/><path class="cls-6" d="M39.51,62.78l-.69,0-1.88-.12A19.2,19.2,0,0,0,31,63l-1.67.47a15.08,15.08,0,0,1-1.67.35,12.38,12.38,0,0,1-2.87.09,4.47,4.47,0,0,1-1.11-.21,2.41,2.41,0,0,1-.77-.39,1.59,1.59,0,0,1-.37-.39l-.09-.15.14.11a1.49,1.49,0,0,0,.43.24,3.54,3.54,0,0,0,1.76.1,23.57,23.57,0,0,0,2.65-.54c.49-.14,1-.29,1.51-.48s1.1-.38,1.71-.54a10.08,10.08,0,0,1,3.57-.27,16,16,0,0,1,2.8.54c.78.22,1.39.44,1.81.59S39.51,62.78,39.51,62.78Z"/><path class="cls-12" d="M41.89,45.13c-1.52,2.09-2.68,5.41-9.07,5.92-7.4.58-12.12-6.44-12.72-9.09A20.26,20.26,0,0,1,23,40.53h0c.3-.11.59-.21.87-.29,1.12-.36,2-.56,2-.56H32.8a4.88,4.88,0,0,1,1.23.18h0a7.94,7.94,0,0,1,.81.25,14.93,14.93,0,0,1,3,1.58,25.33,25.33,0,0,1,2.48,1.86A10,10,0,0,1,41.89,45.13Z"/><path class="cls-13" d="M42.38,34.53a5.34,5.34,0,0,0,1,5.3,9.27,9.27,0,0,1-4.19-2.66A3.51,3.51,0,0,0,39,39.79a5.53,5.53,0,0,1-3.93-2.93l-.94,2.36a10.94,10.94,0,0,0-.61-3.76,3.42,3.42,0,0,0-.13-.34,6.28,6.28,0,0,0-.57.31A5.16,5.16,0,0,0,30.49,39a4.92,4.92,0,0,1-3.85-3.56l-2,3.41A5.5,5.5,0,0,0,23,35.53a3.17,3.17,0,0,0-.12,3.34,4.24,4.24,0,0,1-3.33-3.65,5.44,5.44,0,0,1-2.27,4.24c1.15-1.6-1.57-3.77-.81-5.58-1,.66-.93,2.09-1,3.27s-.72,2.69-1.89,2.52c.57-1.28-.21-2.72-.85-4-.45-.88-.05-2.72.59-4.05a23.43,23.43,0,0,0,1.78-5c.24-1.11.52-2.48.85-4.15.21-1.11.44-2.34.68-3.72a15.43,15.43,0,0,1,5.17-9,16.08,16.08,0,0,1,4-2.61h0c4.38,0,9,1.87,12.85,3.84.5.25,1,.51,1.47.8a6.8,6.8,0,0,1,1.4,1.1,6.27,6.27,0,0,1,1.13,1.71A12.33,12.33,0,0,1,43.44,17c.06.28.12.56.17.84a69.82,69.82,0,0,1,1.18,10c.11,2.34.54,9.78,1.74,11.8a8.69,8.69,0,0,1-3.21-2.86C42.54,35.5,42.59,34,42.38,34.53Z"/><path class="cls-14" d="M31.8,35.26a8.68,8.68,0,0,0,1,.17A5.16,5.16,0,0,0,30.49,39a4.92,4.92,0,0,1-3.85-3.56l-2,3.41A5.5,5.5,0,0,0,23,35.53a3.17,3.17,0,0,0-.12,3.34,4.24,4.24,0,0,1-3.33-3.65,5.44,5.44,0,0,1-2.27,4.24c1.15-1.6-1.57-3.77-.81-5.58-1,.66-.93,2.09-1,3.27s-.72,2.69-1.89,2.52c.57-1.28-.21-2.72-.85-4-.45-.88-.05-2.72.59-4.05a23.43,23.43,0,0,0,1.78-5c.24-1.11.52-2.48.85-4.15.21-1.11.44-2.34.68-3.72a15.43,15.43,0,0,1,5.17-9c-.36.75-1,1.57-1.24,2A30.55,30.55,0,0,0,19,15.57c-.52,1.5-1,3-1.34,4.57-1.16,4.68-1.89,9.49-3.5,14a9,9,0,0,0,3.32-3,9.62,9.62,0,0,0,1,3.28c.24-.87.48-1.74.73-2.62.6.75,1.21,1.49,1.82,2.24a6.06,6.06,0,0,1,.47-2.27,9.92,9.92,0,0,1,2.16,2.32A4.26,4.26,0,0,0,24,32.37C26.19,34.08,29.05,34.69,31.8,35.26Z"/><path class="cls-14" d="M42.38,34.53a5.34,5.34,0,0,0,1,5.3,9.27,9.27,0,0,1-4.19-2.66A3.51,3.51,0,0,0,39,39.79a5.53,5.53,0,0,1-3.93-2.93l-.94,2.36a10.94,10.94,0,0,0-.61-3.76,3.11,3.11,0,0,0,.61-.1,1.69,1.69,0,0,0,1.32-1.71l1.35,2c.55-.88,1.1-1.77,1.64-2.66a9.32,9.32,0,0,0,2.31,2.61,5.89,5.89,0,0,1,1-3.23,7.62,7.62,0,0,0,3,2.21q-1.05-10-2.09-20A12.33,12.33,0,0,1,43.44,17c.06.28.12.56.17.84a69.82,69.82,0,0,1,1.18,10c.11,2.34.54,9.78,1.74,11.8a8.69,8.69,0,0,1-3.21-2.86C42.54,35.5,42.59,34,42.38,34.53Z"/><path class="cls-1" d="M37.89,41.67a8.4,8.4,0,0,1-5.67,5.75C27.27,49.08,24,42.85,23,40.51c1.51-.53,2.86-.84,2.86-.84H32.8a5.27,5.27,0,0,1,1.23.17h0c.24.07.51.15.81.26A14.68,14.68,0,0,1,37.89,41.67Z"/><path class="cls-1" d="M32,46.47l-6.1-6.8c0-1,.09-1.39.19-3.89.09-2.78.2-5.38.2-5.38l7.84,3.1a18.31,18.31,0,0,0-1.4,6.32A52.67,52.67,0,0,1,32,46.47Z"/><path class="cls-2" d="M34.09,33.5a18.31,18.31,0,0,0-1.4,6.32c-.25.11-.49.2-.72.28-.91.32-3.84-2.28-5.92-4.32.09-2.78.2-5.38.2-5.38Z"/><path class="cls-1" d="M42.32,24.18c-.16.72-.36,1.48-.62,2.28,0,0,.35,3.93-.06,4.81s-3,6.37-5.83,6c-2.32-.28-8-3.68-10-5.7a2.42,2.42,0,0,1-.69-1c-.27-1.56-1.19-8.43-1.28-9C23.65,20,23,8.22,37.27,11.51a6.86,6.86,0,0,1,5.18,5.15A17.25,17.25,0,0,1,42.32,24.18Z"/><path class="cls-4" d="M41.7,26.46s.35,3.93-.06,4.81-3,6.37-5.83,6c-2.32-.28-8-3.68-10-5.7,2.41,1.68,8.84,5.95,10.73,5.29,2.34-.81,5-6,4.93-6.49s-.21-3.87-.21-3.87.47-1.06,1-2.35C42.16,24.9,42,25.66,41.7,26.46Z"/><path class="cls-4" d="M25.81,30.4A5.49,5.49,0,0,1,22,28.3a4.64,4.64,0,0,1-.38-.56c-.51-.93-.66-4.15.66-4.9a1.41,1.41,0,0,1,1.91.74h0a2.44,2.44,0,0,1,.21.38Z"/><path class="cls-1" d="M25.81,30.4A5.49,5.49,0,0,1,22,28.3L21.86,28c-.51-.93-.66-4.14.66-4.89a1.25,1.25,0,0,1,1.69.43h0a2.44,2.44,0,0,1,.21.38Z"/><path class="cls-2" d="M21.88,25.4a1.48,1.48,0,0,0,.06.78,6.36,6.36,0,0,0,2.48,2.67,2.68,2.68,0,0,1-.37-1.69,4.09,4.09,0,0,0,.07-.6C24.13,25.75,22.27,23.88,21.88,25.4Z"/><path class="cls-3" d="M24.93,29.16l-.05,0-.17-.1a2.23,2.23,0,0,1-.51-.46,2.12,2.12,0,0,1-.42-.85,1.84,1.84,0,0,1,.13-1.14,1,1,0,0,1,.08-.14l0,0h0l0,0,0-.06-.08-.12a4.37,4.37,0,0,0-.31-.44,4.29,4.29,0,0,0-.33-.38,2.34,2.34,0,0,0-.33-.31.64.64,0,0,0-.33-.14.49.49,0,0,0-.28,0c-.08,0-.12.08-.13.12a.1.1,0,0,0,0,.05v-.06a.3.3,0,0,1,.11-.14.56.56,0,0,1,.33-.1.81.81,0,0,1,.44.12,2.7,2.7,0,0,1,.4.29,4.49,4.49,0,0,1,.4.37,4.37,4.37,0,0,1,.37.46.83.83,0,0,0,.08.12l0,.07.05.09,0,.06a.43.43,0,0,1,0,.07l-.05.09a.75.75,0,0,0-.07.12,1.92,1.92,0,0,0-.16,1,2,2,0,0,0,.27.81,2.28,2.28,0,0,0,.39.5l.14.12Z"/><path class="cls-14" d="M43.61,21.35s-1.82-2.44-2.84-1.47S40.21,21,40.21,21Z"/><path class="cls-14" d="M29,21.77s4.08-3.11,5.15-1.48c.62.94,0,1.37,0,1.37Z"/><path class="cls-15" d="M29.54,25.29l.22-.07a4.48,4.48,0,0,1,.58-.16,7.11,7.11,0,0,1,1.76-.18,7.59,7.59,0,0,1,1.78.24,6,6,0,0,1,.58.18l.23.08a1.41,1.41,0,0,0-.1-.18,2.06,2.06,0,0,0-.4-.45A3.34,3.34,0,0,0,32.07,24a3.07,3.07,0,0,0-2.07.7,2,2,0,0,0-.37.43Z"/><path class="cls-15" d="M42.84,25.4l-.12-.06-.34-.13a3.48,3.48,0,0,0-1-.16,3.64,3.64,0,0,0-1,.14l-.34.13-.13.06.06-.14a1.43,1.43,0,0,1,.23-.33,1.63,1.63,0,0,1,2.44,0,1.46,1.46,0,0,1,.22.34A.58.58,0,0,1,42.84,25.4Z"/><path class="cls-2" d="M36.47,29a2.12,2.12,0,0,0-.9-.24,3,3,0,0,0,1.62,1.56.53.53,0,0,0,.17,0,.42.42,0,0,0,.21-.08,3.65,3.65,0,0,0,1-.9.85.85,0,0,0,.13-.25c.07-.3-.14-.23-.32-.16a2.73,2.73,0,0,1-.64.16A2.83,2.83,0,0,1,36.47,29Z"/><path class="cls-3" d="M37.26,30.14c.18-.17.38-.3.57-.46a4.91,4.91,0,0,0,.64-.65c-1-.67-1-1.69-.92-2.84A3.37,3.37,0,0,1,38,24.7a3.09,3.09,0,0,1,.48-.66,4.11,4.11,0,0,1,.3-.29,1.11,1.11,0,0,1,.34-.18c-.06.06-.1.14-.16.21s-.29.36-.41.56a5.12,5.12,0,0,0-.31.62,4,4,0,0,0-.29,1.37,3.28,3.28,0,0,0,.22,1.35,2.69,2.69,0,0,0,1,1.26s-.66.77-.73.83a3.32,3.32,0,0,1-.55.44,1.26,1.26,0,0,1-.66.26.39.39,0,0,1-.21-.06l.12-.09,0-.05A.86.86,0,0,1,37.26,30.14Z"/><path class="cls-3" d="M35.58,33.13a2.82,2.82,0,0,0,2.36.07,1.23,1.23,0,0,1-1.08.59A2,2,0,0,1,35.58,33.13Z"/><path class="cls-3" d="M39,32.74a7.12,7.12,0,0,0-6.55-.9,10.5,10.5,0,0,1,3.58,0A8.14,8.14,0,0,1,39,32.74Z"/><path class="cls-2" d="M40.13,29.39c.16.42,1.06.47,2,.11s1.61-1,1.45-1.4-1.06-.46-2-.11S40,29,40.13,29.39Z"/><path class="cls-2" d="M28.13,27.45c-.16.63.87,1.44,2.31,1.81s2.74.17,2.9-.46S32.47,27.36,31,27,28.29,26.82,28.13,27.45Z"/><path class="cls-13" d="M43.45,17.43c0,.13,0,.26,0,.4l-.06,1.08c0,.13-.13.82-.05.91a22.91,22.91,0,0,1-4.17-5.74,3.71,3.71,0,0,1-.35-1.42,10,10,0,0,1-1.87,2.77,10.5,10.5,0,0,1-1.39,1.1,13,13,0,0,0-1.42.8,5.44,5.44,0,0,0,1.64-2.77c-1.91,2.77-4.94,4.56-8.06,5.82A5.67,5.67,0,0,0,29.17,18a17.59,17.59,0,0,1-7.46,5.53,6,6,0,0,1-1-1.69c-.11-.26-.22-.55-.32-.87a.19.19,0,0,0,0-.07A9,9,0,0,1,20,19.3,14.06,14.06,0,0,1,21.27,12a9.73,9.73,0,0,1,4.52-4.85h0A10.18,10.18,0,0,1,31.48,6a17.2,17.2,0,0,1,5.35,1.49c.5.22,2.28,1.19,2.28,1.19a6,6,0,0,1,2.22.59,5.21,5.21,0,0,1,1.82,3.49c0,.24.08.48.11.72a23.94,23.94,0,0,1,.16,2.81c0,.24,0,.48,0,.71S43.45,17.3,43.45,17.43Z"/><path class="cls-13" d="M27.31,25.8c0-.16-.13-.38-.24-.65a7.48,7.48,0,0,0-.48-.91,4.06,4.06,0,0,0-.86-1,3.84,3.84,0,0,0-1.14-.64,5.2,5.2,0,0,0-1-.25l-.34,0L23,22.18l.08.14h-.46l.63.3c.1.17.23.38.37.63a11.44,11.44,0,0,1,1.18,2.52,15.51,15.51,0,0,1,.5,2.76c.05.38.09.68.11.89s0,.33,0,.33l.09-.32c.06-.21.14-.51.21-.88a8.38,8.38,0,0,0,.14-1.35,5.52,5.52,0,0,0-.22-1.7A5.36,5.36,0,0,0,24.93,24a7.77,7.77,0,0,0-.87-1,7.55,7.55,0,0,1,1.23.8,11.5,11.5,0,0,1,1.48,1.54l.45.51.17.19Z"/><path class="cls-13" d="M25.6,22.23a27.58,27.58,0,0,0,7.84-4.67,3.18,3.18,0,0,1-1,1.38,11.46,11.46,0,0,0,6.12-4.56,4.72,4.72,0,0,0,.94-2.45,1,1,0,0,0,0-.42,1.08,1.08,0,0,0-.57-.5,4.5,4.5,0,0,0-3-.14A10.34,10.34,0,0,0,33,12.22a10.92,10.92,0,0,0-2.12,1.64c-1.22,1.25-1.39,2.63-2,4.15A10.48,10.48,0,0,1,25.6,22.23Z"/><path class="cls-13" d="M36.42,22.59A4.61,4.61,0,0,0,38.12,21a12.81,12.81,0,0,0,2.11-5.38,5.34,5.34,0,0,0-.38-3.31c-.3-.55-1.46-1.49-1.94-.57-.29.56.39,1.83.49,2.42A10.93,10.93,0,0,1,38,19.72,10.34,10.34,0,0,1,36.42,22.59Z"/><path class="cls-14" d="M40.13,11.74c-.27-.07-.55-.12-.83-.18a7.06,7.06,0,0,1,.1,2,9.13,9.13,0,0,0-1.66-2.51A9.62,9.62,0,0,1,34.29,14a7.05,7.05,0,0,0,.58-4.31,18.22,18.22,0,0,1-6.41,5.61,7.8,7.8,0,0,0,0-2.89,22.06,22.06,0,0,1-8.08,8.52l-.09.06.07-.13a8.73,8.73,0,0,0,1-3.2A15.8,15.8,0,0,1,20,19.3a14.73,14.73,0,0,1-4,3.16c.21-1.11.44-2.34.68-3.72a15,15,0,0,1,1.54-4.49,16.91,16.91,0,0,1,7.6-7.14h0A10.18,10.18,0,0,1,31.48,6a17.2,17.2,0,0,1,5.35,1.49l.19.09c.65.32,2.09,1.1,2.09,1.1a6,6,0,0,1,2.22.59,5.21,5.21,0,0,1,1.82,3.49A16.12,16.12,0,0,0,40.13,11.74Z"/><path class="cls-16" d="M37.11,9.28a14.55,14.55,0,0,0-5.84-1.35,16.75,16.75,0,0,1-2,2,2.78,2.78,0,0,0,0-1.71,15.83,15.83,0,0,1-6.49,4.7A6.62,6.62,0,0,0,24,10.81a12.23,12.23,0,0,1-5.79,3.44,16.91,16.91,0,0,1,7.6-7.14h0A10.18,10.18,0,0,1,31.48,6a17.2,17.2,0,0,1,5.35,1.49l.19.09c-.33.1-.65.21-1,.33Z"/><path class="cls-16" d="M35.88,5.44a4.42,4.42,0,0,0-.65-2,4.59,4.59,0,0,0-2.68-2.24,5.51,5.51,0,0,1,4.63,2.05,2.8,2.8,0,0,1,0,3.39,3.13,3.13,0,0,1-.8.59,4,4,0,0,1-1.72.51C35.26,7,35.92,6.61,35.88,5.44Z"/><path class="cls-5" d="M.25,76.77S6.31,52,14.75,46.47c0,0,5.25,14.26,4.58,16.68s-6.77,12.7-6.77,12.7Z"/><path class="cls-10" d="M13.06,47.25s2.41-3.7,4.66-4.16c0,0,9.26,33.67-4.66,39.38C13.06,82.47,23.26,69.86,13.06,47.25Z"/><path class="cls-10" d="M41.89,45.13s2.89,1.73,3,3.94L42.54,77S40.45,48.82,41.89,45.13Z"/><polygon class="cls-17" points="16.71 83.78 17.88 83.88 18.99 85.26 39.04 87.19 39.23 82.97 40.29 58.16 38.03 56.43 17.93 55.57 16.71 83.78"/><polygon class="cls-12" points="17.88 83.88 18.55 84.71 19.88 86.36 37.95 87.14 38.12 83.09 39.17 58.77 37.14 57.09 19.07 56.31 17.88 83.88"/><rect class="cls-18" x="15.09" y="62.18" width="29.06" height="20.12" transform="translate(-43.83 98.72) rotate(-87.54)"/><rect class="cls-12" x="28.3" y="57.36" width="3.35" height="13.31" transform="translate(-35.27 91.21) rotate(-87.54)"/><polygon class="cls-19" points="45.37 63.57 42.78 74.19 42.78 74.22 42.45 75.56 42.44 75.6 42.43 75.64 42.43 75.65 41.99 77.45 41.81 78.17 41.65 78.84 41.44 79.7 41.29 80.33 41.09 81.14 40.05 85.41 39.47 87.79 25.13 87.79 21.97 86.84 20.45 86.39 20.45 86.38 20.13 86.29 19.71 86.16 19.2 86.01 19.13 85.89 18.97 85.58 18.97 85.57 18.87 85.38 18.48 84.64 18.46 84.6 18.38 84.44 18.32 84.42 18.31 84.42 17.26 84.12 17.33 83.84 17.76 82.07 18 81.08 18.11 80.61 19.42 75.28 19.42 75.26 19.62 74.43 19.84 73.5 19.89 73.32 19.89 73.31 22.92 60.89 23.75 57.44 23.94 56.68 27.8 57.62 39.1 60.37 40.18 60.63 40.18 60.64 40.19 60.64 41.37 60.93 41.45 60.94 41.49 60.95 41.61 60.98 42.48 61.19 43.49 61.44 43.83 61.83 45.37 63.57"/><polygon class="cls-12" points="44.15 63.96 43.38 67.09 43.38 67.11 42.2 71.97 42.17 72.07 41.71 73.98 41.31 75.6 40.94 77.12 40.94 77.13 40.76 77.87 40.72 78.04 40.58 78.62 40.32 79.67 40.22 80.12 39.94 81.24 39.16 84.46 39.16 84.48 38.96 85.27 38.5 87.14 38.5 87.17 38.39 87.61 38.35 87.79 22.03 87.79 21.86 87.75 19.93 87.28 19.85 87.26 19.37 86.34 19.2 86.01 19.13 85.89 18.97 85.58 18.97 85.57 18.87 85.38 18.48 84.64 18.46 84.6 18.38 84.44 18.99 81.95 19.16 81.26 19.16 81.25 19.37 80.38 20.4 76.18 20.76 74.67 21.04 73.55 21.04 73.53 23.3 64.29 23.3 64.28 23.46 63.62 23.55 63.26 23.83 62.08 23.88 61.88 24.92 57.63 39.07 61.08 40.15 61.34 41.64 61.7 42.18 61.83 42.49 61.91 43.46 63.1 43.7 63.4 44.15 63.96"/><polygon class="cls-20" points="45.37 63.57 42.78 74.19 42.78 74.22 42.45 75.56 42.44 75.6 42.43 75.64 42.43 75.65 41.99 77.45 41.81 78.17 41.65 78.84 41.44 79.7 41.29 80.33 41.09 81.14 40.05 85.41 39.47 87.79 22.03 87.79 21.86 87.75 19.93 87.28 19.85 87.26 18.95 87.04 19.12 86.33 19.2 86.01 19.29 85.64 19.36 85.34 19.37 85.3 19.38 85.3 20.22 81.82 20.63 80.14 20.91 79 21.9 74.93 22.18 73.79 22.19 73.75 24.21 65.45 24.59 63.9 24.75 63.23 24.84 62.87 25.02 62.13 25.83 58.81 39.03 62.03 40.11 62.29 41.68 62.67 41.98 62.74 43.46 63.1 43.72 63.17 45.37 63.57"/><rect class="cls-12" x="32.44" y="60.66" width="3.35" height="13.31" transform="translate(-39.36 84.51) rotate(-76.3)"/><path class="cls-5" d="M31.05,75.91l-.29,4.27-2,.38c-4.28.76-14.54,2.38-21.57,1.7C2.93,81.85-.14,80.61,0,77.83c0,0,0-2.22,3-4.3H3a13.8,13.8,0,0,1,1.95-1.12C8.8,70.58,23,73.87,28.69,75.3h0Z"/><path class="cls-7" d="M28.76,80.56c-4.28.76-14.54,2.38-21.57,1.7,7.88-.8,21.5-3.74,21.5-3.74Z"/><path class="cls-21" d="M43.79,74.58c0-.58-9.31-1.6-9.31-1.6A6.51,6.51,0,0,0,37,69.46l0,0a.4.4,0,0,0,0-.37.38.38,0,0,0-.17-.08,1.83,1.83,0,0,0-1.48.39,13,13,0,0,0-1.16,1.07,7.93,7.93,0,0,1-2.65,1.4c-1.59.6-2.27,3.61-2.27,3.61l-.58,0V80.2l2.07,0,1.07.76c.84.45,9.76.54,9.94,0a4,4,0,0,0,.11-.5c0-.26.07-.51.08-.67s0-.2,0-.2a4.62,4.62,0,0,0,.37-.61,2.9,2.9,0,0,0,.28-.63.65.65,0,0,0,0-.55,3.89,3.89,0,0,0-1.33-.53c-1.76-.52-4.59-1.16-4.44-1.31s6.65-.38,6.65-.38a1.26,1.26,0,0,0,.23-.4A1.35,1.35,0,0,0,43.79,74.58Z"/><path class="cls-22" d="M42.62,77.75a3.89,3.89,0,0,0-1.33-.53c-.38.39-.68.92-1,1.25a5.07,5.07,0,0,1-2,1.09,7.89,7.89,0,0,1-3.77-.09c-1.24-.27-2.46-.66-3.71-.84a14,14,0,0,0-2-.11l.07,2,2-.38,1.07.76c.84.45,9.76.54,9.94,0a4,4,0,0,0,.11-.5c0-.26.07-.51.08-.67s0-.2,0-.2a4.62,4.62,0,0,0,.37-.61,2.9,2.9,0,0,0,.28-.63A.65.65,0,0,0,42.62,77.75Z"/><path class="cls-23" d="M42.35,78.93l-.51-.06a14.2,14.2,0,0,1-2.51-.61c-.59-.2-1-.36-1-.38s.45,0,1.06.05,1.56.12,2.55.26l.69.11A4.34,4.34,0,0,1,42.35,78.93Z"/><path class="cls-23" d="M41.88,80.41A15.14,15.14,0,0,1,39,79.75a15.47,15.47,0,0,1,3,0C42,79.9,41.92,80.15,41.88,80.41Z"/><path class="cls-24" d="M37,69.05a.38.38,0,0,0-.17-.08,1.83,1.83,0,0,0-1.48.39,13,13,0,0,0-1.16,1.07,7.93,7.93,0,0,1-2.65,1.4c-1.59.6-2.27,3.61-2.27,3.61l-.58-.14v1.32h.08a1.64,1.64,0,0,0,.76-.18,1.54,1.54,0,0,0,.53-.78,8.41,8.41,0,0,1,1.42-2.72c.84-.88,2.08-1.23,3.07-1.94a8.16,8.16,0,0,1,2.18-1.5l.32-.08A.4.4,0,0,0,37,69.05Z"/><path class="cls-6" d="M28.77,76.62S12.06,72,7.78,73.31l5.46-1.09,4.32-8,0,3-3,5.09s10.75,1.7,14.12,2.9Z"/><path class="cls-25" d="M27,73.48S26.36,81.4,27,82s2.6-.65,2.6-.65-.06-7.28-.22-7.43A15.75,15.75,0,0,0,27,73.48Z"/><path class="cls-26" d="M9,3.48c.8,1.06,2.23,1.34,3.49,1.75a12.89,12.89,0,0,1,5,2.95,19.34,19.34,0,0,0-2.22-4.71C14.19,2,12.48.27,10.56,0S7.93,2,9,3.48Z"/><path class="cls-26" d="M8.05,11.94a5.26,5.26,0,0,0,3-1,10.57,10.57,0,0,1,4.51-1.18,15.66,15.66,0,0,0-4-1.38,6.1,6.1,0,0,0-4.63.74C5.67,10.08,6.61,11.75,8.05,11.94Z"/><path class="cls-26" d="M17.13,1.35a3.5,3.5,0,0,0,1,1.84A7,7,0,0,1,19.5,6a10.53,10.53,0,0,0,.42-2.79A4.08,4.08,0,0,0,18.86.27C18.06-.44,17.07.38,17.13,1.35Z"/><path class="cls-25" d="M64.66,32.08l2.44-3.23s7.81,1.47,8,2.57-1.2,3.4-1.2,3.4Z"/></g></g></svg>