<svg xmlns="http://www.w3.org/2000/svg" viewBox="0 0 149.7 415.8"><defs><style>.cls-1{fill:#651924;}.cls-2{fill:#7e2426;}.cls-3{fill:#fb9988;}.cls-4{fill:#fdbd8e;}.cls-5{fill:#171228;}.cls-6{fill:#28b69a;}.cls-7{fill:#909aa3;}.cls-8{fill:#ffdaba;}.cls-9{fill:#007c7e;}.cls-10{fill:#63ccca;}.cls-11{fill:#006060;}.cls-12{fill:#ff9300;}.cls-13{fill:#cf691f;}.cls-14{fill:#fff0e7;}.cls-15{fill:#161818;}.cls-16{fill:#749ec2;}.cls-17{fill:#4f83a7;}.cls-18{fill:#a4c3db;}.cls-19{fill:#fd7d6f;}.cls-20{fill:#fc5b68;}.cls-21{fill:#cf4a57;}.cls-22{fill:#a94739;}.cls-23{fill:#118c8c;}.cls-24{fill:#f8b555;}</style></defs><title>full_regularРесурс 1</title><g id="Слой_2" data-name="Слой 2"><g id="OBJECTS"><path class="cls-1" d="M104.18,72.15a11.56,11.56,0,0,0,2.26,11.48,20.18,20.18,0,0,1-9.07-5.76,7.46,7.46,0,0,0-.51,5.67,12,12,0,0,1-8.51-6.36l-2,5.14A23.65,23.65,0,0,0,85,74.15c-.08-.24-.17-.48-.26-.72a9.35,9.35,0,0,0-1.25.67,11.1,11.1,0,0,0-5,7.66,10.62,10.62,0,0,1-8.35-7.71l-4.42,7.38a11.88,11.88,0,0,0-3.49-7.12,6.88,6.88,0,0,0-.24,7.23,9.18,9.18,0,0,1-7.22-7.9,11.83,11.83,0,0,1-4.91,9.18c2.49-3.45-3.4-8.16-1.77-12.09-2.14,1.43-2,4.53-2.09,7.1s-1.56,5.82-4.1,5.45c1.23-2.77-.46-5.89-1.83-8.59-1-1.92-.11-5.9,1.27-8.79A50.65,50.65,0,0,0,45.13,55c.52-2.39,1.14-5.35,1.83-9,.47-2.4,1-5.08,1.49-8.07A33.45,33.45,0,0,1,59.64,18.41a35.65,35.65,0,0,1,8.61-5.66l0,0c9.48,0,19.38,4,27.83,8.32,1.08.54,2.17,1.1,3.2,1.73a14.92,14.92,0,0,1,3,2.39,13.55,13.55,0,0,1,2.43,3.7,26.54,26.54,0,0,1,1.7,5.38c.13.6.25,1.21.37,1.81a151.23,151.23,0,0,1,2.55,21.63c.23,5.08,1.18,21.19,3.77,25.57a18.84,18.84,0,0,1-7-6.2C104.53,74.24,104.62,71,104.18,72.15Z"/><path class="cls-2" d="M81.27,73.72c.72.15,1.46.3,2.2.38a11.1,11.1,0,0,0-5,7.66,10.62,10.62,0,0,1-8.35-7.71l-4.42,7.38a11.88,11.88,0,0,0-3.49-7.12,6.88,6.88,0,0,0-.24,7.23,9.18,9.18,0,0,1-7.22-7.9,11.83,11.83,0,0,1-4.91,9.18c2.49-3.45-3.4-8.16-1.77-12.09-2.14,1.43-2,4.53-2.09,7.1s-1.56,5.82-4.1,5.45c1.23-2.77-.46-5.89-1.83-8.59-1-1.92-.11-5.9,1.27-8.79A50.65,50.65,0,0,0,45.13,55c.52-2.39,1.14-5.35,1.83-9,.47-2.4,1-5.08,1.49-8.07A33.45,33.45,0,0,1,59.64,18.41C58.88,20,57.45,21.81,57,22.8a68.88,68.88,0,0,0-3.48,8.27c-1.13,3.25-2.07,6.56-2.9,9.9C48.05,51.12,46.48,61.54,43,71.39A20,20,0,0,0,50.19,65a20.68,20.68,0,0,0,2.07,7.1q.78-2.84,1.58-5.67c1.31,1.62,2.63,3.23,3.94,4.84a13.24,13.24,0,0,1,1-4.92,21.31,21.31,0,0,1,4.68,5,9.24,9.24,0,0,0,.8-3.88C69.11,71.17,75.3,72.5,81.27,73.72Z"/><path class="cls-2" d="M104.18,72.15a11.56,11.56,0,0,0,2.26,11.48,20.18,20.18,0,0,1-9.07-5.76,7.46,7.46,0,0,0-.51,5.67,12,12,0,0,1-8.51-6.36l-2,5.14A23.65,23.65,0,0,0,85,74.15a6.13,6.13,0,0,0,1.34-.21c1.64-.47,3.1-2,2.85-3.7l2.93,4.23c1.19-1.92,2.37-3.85,3.55-5.76a20.31,20.31,0,0,0,5,5.65,12.67,12.67,0,0,1,2.13-7,16.45,16.45,0,0,0,6.53,4.8l-4.53-43.28a26.54,26.54,0,0,1,1.7,5.38c.13.6.25,1.21.37,1.81a151.23,151.23,0,0,1,2.55,21.63c.23,5.08,1.18,21.19,3.77,25.57a18.84,18.84,0,0,1-7-6.2C104.53,74.24,104.62,71,104.18,72.15Z"/><polygon class="cls-3" points="112.52 71.26 108.95 65.5 102.96 69 107.05 75.16 112.52 71.26"/><path class="cls-4" d="M106.3,75.7l.64-1.52.83-2s-.52-4-3.68-5.74a3.82,3.82,0,0,0-1.77-.39,11.27,11.27,0,0,0-2.58.27A30.36,30.36,0,0,0,94.64,68a39.64,39.64,0,0,0-4.48-3.9c-.89-.63-1.4-.71-1.7-.58s-.4.79-.4.79l5.07,9.29s6.89,3.15,10.67,3.9Z"/><path class="cls-3" d="M104.09,66.48c3.16,1.71,3.68,5.74,3.68,5.74l-.83,2a20.91,20.91,0,0,0-1.79-2.62,6.65,6.65,0,0,0-1.21-1.33,5.13,5.13,0,0,0-1.75-.83,7.56,7.56,0,0,0-7.31,1.49,14.68,14.68,0,0,0-6.42-7.39c.3-.13.81,0,1.7.58A39.64,39.64,0,0,1,94.64,68a30.36,30.36,0,0,1,5.1-1.62,4.82,4.82,0,0,0,2.58-.27A3.82,3.82,0,0,1,104.09,66.48Z"/><rect class="cls-5" x="90.08" y="48.86" width="16.32" height="27.02" rx="1.64" ry="1.64" transform="translate(-17.96 68.62) rotate(-35.49)"/><rect class="cls-6" x="91.23" y="51.08" width="12.93" height="21.07" transform="translate(-17.62 68.16) rotate(-35.49)"/><path class="cls-7" d="M105.87,71a1.21,1.21,0,1,1-1.69-.28A1.2,1.2,0,0,1,105.87,71Z"/><path class="cls-4" d="M106.1,49.29a3.13,3.13,0,0,1-.24,2.14c-.36.77-.71,1.57-1.14,2.32a2.39,2.39,0,0,1-.13.21,6.73,6.73,0,0,1-.68,1c-.09.11-.19.22-.29.32a4.11,4.11,0,0,1-1.12.84,1,1,0,0,1-1.43-.94,7.14,7.14,0,0,1,.72-3,12.24,12.24,0,0,1,2.42-3.27C105,48.19,105.75,48,106.1,49.29Z"/><path class="cls-4" d="M107.36,53.42a3.16,3.16,0,0,1-.23,2.13c-.24.5-.46,1-.71,1.52-.1.2-.2.39-.31.58a8.44,8.44,0,0,1-.94,1.41l-.22.24a4.49,4.49,0,0,1-1.18.92,1,1,0,0,1-1.43-.95,6.88,6.88,0,0,1,.72-3,9.38,9.38,0,0,1,.56-1,15.24,15.24,0,0,1,.91-1.27l.19-.23C105.74,52.55,106.91,51.75,107.36,53.42Z"/><path class="cls-4" d="M109.24,56.51a3.1,3.1,0,0,1-.23,2.13c-.29.63-.58,1.28-.91,1.9a6.22,6.22,0,0,1-.32.56,7.51,7.51,0,0,1-.72,1,6.75,6.75,0,0,1-.53.54,4.38,4.38,0,0,1-.88.62,1,1,0,0,1-1.42-1,6.87,6.87,0,0,1,.71-3,0,0,0,0,0,0,0,14.3,14.3,0,0,1,1.25-2l.22-.27C107.47,55.76,108.76,54.73,109.24,56.51Z"/><path class="cls-4" d="M110.5,60.49a3.16,3.16,0,0,1-.23,2.13l-.15.31a13.77,13.77,0,0,1-1.81,3.2,4.59,4.59,0,0,1-1.41,1.16,1,1,0,0,1-1.42-1,7,7,0,0,1,.71-3c.07-.14.19-.36.34-.62a15,15,0,0,1,1.36-1.91c.07-.09.14-.16.21-.24C109.05,59.52,110.08,59,110.5,60.49Z"/><path class="cls-8" d="M106.1,49.29a3.13,3.13,0,0,1-.24,2.14c-.36.77-.71,1.57-1.14,2.32,1-1.2,2.19-2,2.64-.33a3.16,3.16,0,0,1-.23,2.13c-.24.5-.46,1-.71,1.52,1-1.31,2.34-2.34,2.82-.56a3.1,3.1,0,0,1-.23,2.13c-.29.63-.58,1.28-.91,1.9,1-1,2-1.58,2.4,0a3.16,3.16,0,0,1-.23,2.13l-.15.31c0-.07,0-.14-.05-.2a3,3,0,0,0-.81-1.38,1.36,1.36,0,0,0-1.48-.25l0,0c0-.12.09-.23.14-.34a3.38,3.38,0,0,0,.26-2.24c-.29-.85-1.51-1.36-2.1-.69l.06-.2.09-.31a3.87,3.87,0,0,0,.15-2.1A1.7,1.7,0,0,0,104.59,54l-.06,0-.2.07a6.47,6.47,0,0,0,.38-4,10.41,10.41,0,0,0-.5-1.16C105,48.19,105.75,48,106.1,49.29Z"/><path class="cls-9" d="M145.61,136.24c-13.18,1.56-25.91-2.13-33-4.74h0c-1.4-.52-2.57-1-3.49-1.37h0a26.26,26.26,0,0,1-4.59-2.36l1.27-14.56L99.25,96.87s3-.2,9.49,3.79c3.07,1.9,9.14,7.52,11.83,9.4-.15-.32-10-20.93-18.72-32.3L113,70.18A133.65,133.65,0,0,1,121.63,81l0,0C135.47,99.34,159.29,134.62,145.61,136.24Z"/><path class="cls-10" d="M100.46,78.55s9.55-8.85,14.39-9.74c0,0,3.3,3.61,3.08,4.25s-15.11,9.83-15.59,9.56S100.46,78.55,100.46,78.55Z"/><path class="cls-11" d="M145.61,136.24c-13.18,1.56-37.44-3.39-44.54-6l1.13-9.59s30.64,16.55,40.51,12S122.46,82.23,121.65,81C135.47,99.34,159.29,134.62,145.61,136.24Z"/><path class="cls-12" d="M40.67,113.37s-30.74,16.42-27.5,38.39,11,22.05,11,22.05l16.52-18.26,13.59-31.81Z"/><path class="cls-13" d="M49.61,116.49s-43.08,56.9-13.47,88.4,41.68-3.36,41.68-3.36L73.17,140.7Z"/><polygon class="cls-3" points="83.33 371.26 84.78 390.69 97.01 390.69 97.01 371.26 83.33 371.26"/><path class="cls-4" d="M84.78,390.69H97V383a52,52,0,0,1-13-2.77Z"/><polygon class="cls-4" points="44.87 372.3 43.84 379.87 42.97 386.31 31.76 385.85 31.52 378.64 31.32 372.3 44.87 372.3"/><polygon class="cls-3" points="44.87 372.3 43.84 379.87 31.52 378.64 31.32 372.3 44.87 372.3"/><path class="cls-14" d="M84.54,404.24s.94,5.73,1.6,6.45,33.06,0,33.06,0l0-5-19.36-6.55Z"/><path class="cls-15" d="M98,390.69H84c0,4.27-.07,14,.84,15.17,1.71,2.25,34.32-.16,34.32-.16C120.17,405.7,105.49,395.44,98,390.69Z"/><path class="cls-14" d="M45,406.24c-.76,3-6.76,7.31-9.52,9.18a2.22,2.22,0,0,1-2.66-.13c-2.42-2-7.47-6.47-8-9.05a11.2,11.2,0,0,1,.66-4.13c.42-1.49,1-3.21,1.64-5,2-5.5,4.59-11.3,4.59-11.3l10,.41a150.34,150.34,0,0,1,3.15,14.79v.05A16.37,16.37,0,0,1,45,406.24Z"/><path class="cls-15" d="M44.87,401.05c-1.21,2.93-6.75,6.94-9.37,8.71a2.21,2.21,0,0,1-2.66-.13c-2-1.66-5.76-5-7.31-7.52.42-1.49,1-3.21,1.64-5,2-5.5,4.59-11.3,4.59-11.3l11.21.46S44,394.9,44.87,401.05Z"/><path class="cls-14" d="M31.54,395.79c.13.64.8,1,1.41,1.23,2.27.85,5,1.1,7-.27a1,1,0,0,0,.37-.37.82.82,0,0,0-.17-.92,2.13,2.13,0,0,0-.85-.52C38.15,394.5,31,392.82,31.54,395.79Z"/><path class="cls-14" d="M30.81,401.29c.12.64.8,1,1.41,1.23,2.26.85,5,1.1,7-.27a1.09,1.09,0,0,0,.37-.37.84.84,0,0,0-.17-.92,2.13,2.13,0,0,0-.85-.52C37.42,400,30.23,398.32,30.81,401.29Z"/><path class="cls-14" d="M99.8,398.25a1.7,1.7,0,0,0,1.5-.51c1.64-1.3,3.07-3.19,3-5.26a.87.87,0,0,0-.08-.43.65.65,0,0,0-.72-.28,2.06,2.06,0,0,0-.76.4C102,392.8,97.47,397.39,99.8,398.25Z"/><path class="cls-14" d="M103.27,401.18a1.73,1.73,0,0,0,1.51-.51c1.63-1.3,3.06-3.19,3-5.26a.89.89,0,0,0-.08-.43.66.66,0,0,0-.72-.28,2,2,0,0,0-.75.4C105.44,395.73,101,400.32,103.27,401.18Z"/><path class="cls-16" d="M29.79,370.78h18c4.59-22.87,12.3-60.09,14.92-65.73,3.81-8.24,16.72-79.11,16.72-79.11l4.11.33s.88,64.6,1.47,67.9c0,0-5.42,16-7,24.39-.75,3.87,1.39,32,3.08,52.22H99.8c1.73-25.64,4.63-66,6-70,2.06-5.93,10.57-64.27,8.51-81.08-.91-7.49-2.82-17.91-4.65-27.17-.87-4.42-1.73-8.58-2.45-12-.14-.66-.28-1.3-.4-1.91s-.26-1.22-.38-1.77l-.46-2.12c-.47-2.18-.75-3.46-.75-3.46H59.46l-.51,1-.12.26c-.09.17-.19.36-.29.57h0c-.48,1-1.13,2.33-1.89,4-.08.19-.17.39-.27.58l-1.13,2.57c-.08.19-.16.39-.25.59-.4.94-.82,1.93-1.23,3h0c-.3.74-.6,1.51-.91,2.3s-.61,1.6-.92,2.44c-.14.37-.27.74-.41,1.12h0s0,.09-.06.15l-.12.35c-.1.27-.2.55-.29.83l-.29.8c-.48,1.43-1,2.9-1.43,4.4l-.27.89-.36,1.23c-.19.66-.38,1.32-.56,2-.73,2.69-1.38,5.46-1.9,8.24-.06.32-.12.64-.17,1s-.13.77-.19,1.15-.1.61-.14.92-.09.55-.12.83c-.2,1.44-.36,2.88-.47,4.32,0,.34,0,.68-.07,1-.57,9.54,0,72.51,0,72.51s-12.2,23.49-12.91,33C31.93,326.34,30.67,352.47,29.79,370.78Z"/><path class="cls-17" d="M29.79,370.78H32.5c1.28-20.74,3.09-47.9,3.91-48.72,1.32-1.32,14.93-34.33,14.93-34.33s-3.54-73.39,0-79.61c1.58-2.76,4.52-10.3,7.31-17.82l1-2.63c.37-1,.74-2,1.09-3,.64-1.79,1.26-3.5,1.81-5.06s1-2.89,1.43-4.06c.88-2.5,1.42-4.06,1.42-4.06l-1.53-.22-.38-.06h-4l-.51,1-.12.26c-.09.17-.19.36-.29.57h0c-.48,1-1.13,2.33-1.89,4-.08.19-.17.39-.27.58l-1.13,2.57c-.08.19-.16.39-.25.59-.4.94-.82,1.93-1.23,3h0c-.3.74-.6,1.51-.91,2.3s-.61,1.6-.92,2.44c-.14.37-.27.74-.41,1.12h0s0,.09-.06.15l-.12.35c-.1.27-.2.55-.29.83l-.29.8c-.48,1.43-1,2.9-1.43,4.4l-.27.89-.36,1.23c-.19.66-.38,1.32-.56,2-.73,2.69-1.38,5.46-1.9,8.24-.06.32-.12.64-.17,1s-.13.77-.19,1.15-.1.61-.14.92-.09.55-.12.83c-.2,1.44-.36,2.88-.47,4.32,0,.34,0,.68-.07,1-.57,9.54,0,72.51,0,72.51s-12.2,23.49-12.91,33C31.93,326.34,30.67,352.47,29.79,370.78Z"/><path class="cls-17" d="M109.68,192.51c-13.26,5.81-36.7,1.42-51-2.21-.9-.22-1.77-.45-2.59-.67l-2.68-.73-1.45-.41c.25-.68.5-1.34.75-2,.06-.15.12-.3.17-.45l.7-1.77.21-.53h0c.41-1,.83-2,1.23-3a2.6,2.6,0,0,0,.1-.25c.06-.11.1-.23.15-.34.33-.76.65-1.47,1-2.15l.18-.42c.1-.19.19-.39.27-.58.76-1.66,1.41-3,1.89-4h0c.1-.21.2-.4.29-.57l.12-.26.51-1h45.78s.28,1.28.75,3.46l.46,2.12c.12.55.24,1.14.38,1.77s.26,1.25.4,1.91C108,183.93,108.81,188.09,109.68,192.51Z"/><path class="cls-17" d="M84.91,370.78l-3.22-47.84,7.84-30.51L89.06,232l-5.54-5.71s.88,64.6,1.47,67.9c0,0-5.42,16-7,24.39-.75,3.87,1.39,32,3.08,52.22Z"/><path class="cls-18" d="M93.91,305.85a4.68,4.68,0,0,0,2.47,3.07,3.48,3.48,0,0,0,3.17-.65,8.64,8.64,0,0,0,2.11-2.61,15.87,15.87,0,0,0,2.24-5.73c.61-4.14-2.57-9.57-7.32-7.51S92.51,301.9,93.91,305.85Z"/><path class="cls-18" d="M53.67,299.42a4.1,4.1,0,0,0,2.21,2.69,3.18,3.18,0,0,0,2.84-.57,7.72,7.72,0,0,0,1.88-2.29,13.73,13.73,0,0,0,2-5c.54-3.63-2.3-8.39-6.55-6.58S52.42,296,53.67,299.42Z"/><polygon class="cls-18" points="27.91 369.9 49.47 369.13 48.48 375.29 27.47 375.29 27.91 369.9"/><polygon class="cls-18" points="79.41 369.13 80.24 375.29 101.05 377.05 101.05 368.65 79.41 369.13"/><path class="cls-9" d="M105.15,171.28s-3.38-36.15-1.43-39.95c5.8-11.27,6.9-26.49-.59-36.23a22.37,22.37,0,0,0-3.3-3.45,56.59,56.59,0,0,0-5.38-4,32.51,32.51,0,0,0-6.59-3.42,17.17,17.17,0,0,0-1.77-.55h0a10.23,10.23,0,0,0-2.67-.38h-15s-1.88.43-4.32,1.19c-.6.19-1.24.4-1.88.63l-.07,0a43.18,43.18,0,0,0-6.21,3.11c-1,.55-1.9,1.13-2.8,1.71l0,0,0,0-.26.17-.12.08-.8.54,0,0A12.85,12.85,0,0,0,48.23,94a25.18,25.18,0,0,0-1.48,5.74A49.36,49.36,0,0,0,47,117c.82,4.29,1.81,9,2.86,13.93,3.87,18.14,8.51,38.1,8.39,42.59,0,0-13,26.53-12.62,38.83,0,0,53.8,9,67.23-2.68C112.85,209.68,108.88,178.66,105.15,171.28Z"/><path class="cls-10" d="M45.62,212.36s-2.35,3.5-.68,9.88c0,0,52.34,5,69.26-3.57a16,16,0,0,0-1.35-9S52.77,208.21,45.62,212.36Z"/><path class="cls-11" d="M98,133.33l-1.51-.08L92.39,133c-3.4-.17-8.07-.43-12.79.83-1.21.32-2.41.7-3.63,1a27.24,27.24,0,0,1-3.6.76,27.94,27.94,0,0,1-6.22.2,10.43,10.43,0,0,1-2.42-.45,5.25,5.25,0,0,1-1.66-.85,3.39,3.39,0,0,1-.79-.84l-.2-.34.29.25a4.11,4.11,0,0,0,.93.53,7.79,7.79,0,0,0,3.81.2,45,45,0,0,0,5.75-1.18c1.06-.29,2.13-.63,3.28-1s2.37-.83,3.69-1.18a22.19,22.19,0,0,1,7.74-.58,35,35,0,0,1,6.07,1.17c1.68.48,3,.94,3.92,1.28S98,133.33,98,133.33Z"/><path class="cls-14" d="M103.13,95.1c-3.3,4.53-5.83,11.73-19.66,12.82-16,1.27-26.25-13.94-27.55-19.67a43.18,43.18,0,0,1,6.21-3.11l.07,0c.64-.23,1.28-.44,1.88-.63,2.44-.76,4.32-1.19,4.32-1.19h15a10.23,10.23,0,0,1,2.67.38h0a17.17,17.17,0,0,1,1.77.55,32.51,32.51,0,0,1,6.59,3.42,56.59,56.59,0,0,1,5.38,4A22.37,22.37,0,0,1,103.13,95.1Z"/><path class="cls-4" d="M94.45,87.61a18.11,18.11,0,0,1-12.28,12.45c-10.71,3.59-17.75-9.88-20-15a64.65,64.65,0,0,1,6.21-1.82h15a10.53,10.53,0,0,1,2.67.37h0c.52.14,1.11.31,1.76.55A31.9,31.9,0,0,1,94.45,87.61Z"/><path class="cls-4" d="M81.6,98,68.39,83.28c0-2.19.21-3,.41-8.43.21-6,.43-11.66.43-11.66l17,6.72a40,40,0,0,0-3,13.7A110,110,0,0,1,81.6,98Z"/><path class="cls-3" d="M86.22,69.91a40,40,0,0,0-3,13.7c-.53.22-1.06.43-1.55.6-2,.69-8.31-4.94-12.83-9.36.21-6,.43-11.66.43-11.66Z"/><path class="cls-4" d="M104,49.72q-.51,2.36-1.33,5s.77,8.51-.13,10.41S96,78.88,90,78.14c-5-.61-17.29-8-21.55-12.34a5,5,0,0,1-1.49-2.18c-.58-3.38-2.59-18.27-2.78-19.51-.51-3.38-1.93-28.95,29-21.84a14.89,14.89,0,0,1,11.22,11.18A37.22,37.22,0,0,1,104,49.72Z"/><path class="cls-8" d="M102.71,54.67s.77,8.51-.13,10.41S96,78.88,90,78.14c-5-.61-17.29-8-21.55-12.34,5.22,3.63,19.15,12.88,23.24,11.46,5.06-1.76,10.78-13,10.67-14.07s-.44-8.37-.44-8.37,1-2.29,2.17-5.1Q103.53,52.08,102.71,54.67Z"/><path class="cls-8" d="M68.3,63.19a11.81,11.81,0,0,1-8.22-4.54,8.69,8.69,0,0,1-.82-1.22c-1.11-2-1.43-9,1.42-10.6,2-1.13,3.46.52,4.15,1.6h0a5.66,5.66,0,0,1,.45.82Z"/><path class="cls-4" d="M68.3,63.19a11.81,11.81,0,0,1-8.22-4.54c-.13-.19-.25-.38-.35-.56-1.1-2-1.42-9,1.43-10.6,1.62-.92,2.88,0,3.67.94h0a5.66,5.66,0,0,1,.45.82Z"/><path class="cls-3" d="M59.79,52.37a2.88,2.88,0,0,0,.13,1.69c.78,2.34,3.11,4.12,5.35,5.78a5.87,5.87,0,0,1-.79-3.66,11.77,11.77,0,0,0,.15-1.3C64.65,53.12,60.63,49.07,59.79,52.37Z"/><path class="cls-19" d="M66.39,60.51l-.13-.08a3.41,3.41,0,0,1-.36-.21,5,5,0,0,1-1.1-1,4.46,4.46,0,0,1-.91-1.85,3.84,3.84,0,0,1,.29-2.46,1.82,1.82,0,0,1,.16-.31l0-.07s0,0,0,0h0l0-.07-.08-.13-.15-.26a10.38,10.38,0,0,0-.68-1,9.8,9.8,0,0,0-.72-.82,6,6,0,0,0-.7-.66,1.56,1.56,0,0,0-.73-.32,1.14,1.14,0,0,0-.61.1.64.64,0,0,0-.28.25c0,.07,0,.12,0,.12a.32.32,0,0,1,0-.13.56.56,0,0,1,.23-.32,1.27,1.27,0,0,1,.71-.22,2,2,0,0,1,.95.27,6.47,6.47,0,0,1,.88.63c.28.24.57.51.86.81a8.67,8.67,0,0,1,.79,1L65,54l.09.14.11.2.08.14a1,1,0,0,1-.08.14l-.11.2a1.3,1.3,0,0,0-.14.26,4.06,4.06,0,0,0-.36,2.18,4.62,4.62,0,0,0,.59,1.77A5.34,5.34,0,0,0,66,60.15c.12.12.23.2.3.26Z"/><path class="cls-2" d="M106.85,43.6s-3.95-5.28-6.15-3.19-1.21,2.31-1.21,2.31Z"/><path class="cls-2" d="M75.12,44.5S84,37.77,86.26,41.29c1.35,2.06-.07,3-.07,3Z"/><path class="cls-15" d="M85.36,45.27a4.76,4.76,0,0,1-2.34,2,2,2,0,0,0-1.49-.77c-1.42,0-2.57,1.84-2.57,4.12s1.15,4.12,2.57,4.12,2.56-1.84,2.56-4.12a6.28,6.28,0,0,0-.3-2C84.87,47.73,85.36,45.27,85.36,45.27Z"/><path class="cls-14" d="M76.51,48.33a5.26,5.26,0,0,0,5.66,2.29,5.26,5.26,0,0,0-5.66-2.29Z"/><path class="cls-15" d="M102.73,47.47a3.31,3.31,0,0,1-1.61,1.38,1.4,1.4,0,0,0-1-.45c-1.07,0-1.94,1.39-1.94,3.1s.87,3.11,1.94,3.11,1.94-1.39,1.94-3.11a4.55,4.55,0,0,0-.34-1.75A5.64,5.64,0,0,0,102.73,47.47Z"/><path class="cls-14" d="M103.72,50a4.61,4.61,0,0,1-1.8,1.37,4.69,4.69,0,0,1-2.24.27,4.61,4.61,0,0,1,1.8-1.37A4.69,4.69,0,0,1,103.72,50Z"/><path class="cls-3" d="M91.37,60.13a4.47,4.47,0,0,0-1.93-.5A6.39,6.39,0,0,0,92.94,63a.84.84,0,0,0,.37.09.87.87,0,0,0,.44-.16A7.57,7.57,0,0,0,96,61a1.52,1.52,0,0,0,.29-.53c.15-.65-.3-.51-.68-.35a6.11,6.11,0,0,1-1.4.35A5.8,5.8,0,0,1,91.37,60.13Z"/><path class="cls-19" d="M93.08,62.63c.4-.35.84-.65,1.25-1a10.07,10.07,0,0,0,1.37-1.4c-2.11-1.45-2.09-3.66-2-6.15a7.14,7.14,0,0,1,2-4.66,6.35,6.35,0,0,1,.65-.62,2.6,2.6,0,0,1,.73-.4,5,5,0,0,0-.33.47c-.31.4-.63.77-.9,1.2a8.58,8.58,0,0,0-.67,1.36,8.82,8.82,0,0,0-.64,3A7.49,7.49,0,0,0,95,57.31,5.79,5.79,0,0,0,97.1,60s-1.44,1.68-1.58,1.82a7.77,7.77,0,0,1-1.2.94,2.59,2.59,0,0,1-1.42.56.82.82,0,0,1-.46-.13,2.43,2.43,0,0,0,.25-.2.94.94,0,0,1,.1-.1A4,4,0,0,1,93.08,62.63Z"/><path class="cls-19" d="M83.94,70.64A7.57,7.57,0,0,0,90.13,72,3.26,3.26,0,0,1,87,73,5.37,5.37,0,0,1,83.94,70.64Z"/><path class="cls-20" d="M95.86,66.29A10.25,10.25,0,0,1,91.92,70a7.81,7.81,0,0,1-4.52.81,6.87,6.87,0,0,1-4.14-2,11.29,11.29,0,0,1-2.72-5.21c9.64-.16,15.09,2.56,15.31,2.67Z"/><path class="cls-14" d="M95.86,66.29s-.29.46-1.76.75-10.73-1.37-11.74-1.83a5.39,5.39,0,0,1-1.82-1.6c9.64-.16,15.09,2.56,15.31,2.67Z"/><path class="cls-21" d="M91.92,70a7.81,7.81,0,0,1-4.52.81,6.87,6.87,0,0,1-4.14-2C85.17,68.16,89.42,67.14,91.92,70Z"/><path class="cls-3" d="M99.31,61c.34.9,2.29,1,4.36.23s3.47-2.13,3.13-3-2.29-1-4.36-.24S99,60.12,99.31,61Z"/><path class="cls-3" d="M73.32,56.81c-.36,1.36,1.88,3.12,5,3.92s5.93.36,6.28-1-1.89-3.12-5-3.93S73.67,55.45,73.32,56.81Z"/><path class="cls-1" d="M106.5,35.1c0,.29,0,.58,0,.86,0,.79-.09,1.57-.14,2.34,0,.3-.29,1.79-.11,2-3.44-3.82-6.93-7.73-9-12.43a8.21,8.21,0,0,1-.76-3.08,21.48,21.48,0,0,1-4,6,22,22,0,0,1-3,2.37,28.73,28.73,0,0,0-3.09,1.74,11.61,11.61,0,0,0,3.56-6c-4.14,6-10.71,9.88-17.46,12.61a12.31,12.31,0,0,0,3.17-5.27c-4.15,5.63-9.85,9.24-16.15,12a12.89,12.89,0,0,1-2.26-3.67,18.76,18.76,0,0,1-.69-1.86l0-.17a19.31,19.31,0,0,1-.7-3.35c-.51-4-.08-9.27,2.74-15.9a21,21,0,0,1,9.79-10.51l0,0A22.31,22.31,0,0,1,80.57,10.4a37.79,37.79,0,0,1,11.59,3.24c1.09.48,4.94,2.57,4.94,2.57s3.4.29,4.8,1.28c2.42,1.69,3.44,4.71,3.94,7.57.1.52.18,1,.24,1.55a47.77,47.77,0,0,1,.34,6.1c0,.52,0,1,.06,1.54C106.49,34.54,106.5,34.82,106.5,35.1Z"/><path class="cls-1" d="M71.54,53.23c-.11-.33-.28-.81-.53-1.39a12.37,12.37,0,0,0-1-2,9,9,0,0,0-1.85-2.11,8.36,8.36,0,0,0-2.46-1.38,12.19,12.19,0,0,0-2.18-.55l-.74-.09-.48-.33.18.31-.45,0h-.55l1.37.66.81,1.36a26.14,26.14,0,0,1,2.55,5.46,33.93,33.93,0,0,1,1.08,6c.1.81.18,1.47.24,1.93l.11.71.2-.69c.12-.45.29-1.1.44-1.92a17.67,17.67,0,0,0,.31-2.92,11.62,11.62,0,0,0-.49-3.67,11,11,0,0,0-1.69-3.31,14.26,14.26,0,0,0-1.88-2.09,15.81,15.81,0,0,1,2.68,1.74,25.41,25.41,0,0,1,3.2,3.32c.41.47.74.85,1,1.12l.37.4S71.64,53.57,71.54,53.23Z"/><path class="cls-1" d="M67.84,45.51a59.59,59.59,0,0,0,17-10.13,7,7,0,0,1-2.15,3,25,25,0,0,0,13.27-9.87,10.56,10.56,0,0,0,2-5.31,2.25,2.25,0,0,0-.12-.93,2.28,2.28,0,0,0-1.23-1.07A9.74,9.74,0,0,0,90,20.89,22.72,22.72,0,0,0,84,23.82a23.79,23.79,0,0,0-4.61,3.55c-2.63,2.72-3,5.71-4.4,9A22.66,22.66,0,0,1,67.84,45.51Z"/><path class="cls-1" d="M91.28,46.27A10,10,0,0,0,95,42.74a27.82,27.82,0,0,0,4.57-11.66,11.48,11.48,0,0,0-.83-7.17c-.65-1.2-3.16-3.22-4.2-1.23-.63,1.22.83,4,1.07,5.23a24,24,0,0,1-1,12.15A22.42,22.42,0,0,1,91.28,46.27Z"/><path class="cls-2" d="M99.32,22.78c-.6-.14-1.21-.27-1.81-.38a15.27,15.27,0,0,1,.22,4.32,20.64,20.64,0,0,0-3.59-5.44,20.6,20.6,0,0,1-7.48,6.36,15.3,15.3,0,0,0,1.25-9.33A39.2,39.2,0,0,1,74,30.47,16.74,16.74,0,0,0,74,24.2,47.94,47.94,0,0,1,56.47,42.68l-.21.12a2.69,2.69,0,0,0,.16-.29,18.89,18.89,0,0,0,2.08-6.92,31,31,0,0,1-2.78,3.57A32,32,0,0,1,47,46c.47-2.4,1-5.08,1.49-8.07a32.47,32.47,0,0,1,3.33-9.71A36.67,36.67,0,0,1,68.25,12.75l0,0A22.31,22.31,0,0,1,80.57,10.4a37.79,37.79,0,0,1,11.59,3.24l.4.19c1.42.69,4.54,2.38,4.54,2.38s3.4.29,4.8,1.28c2.42,1.69,3.44,4.71,3.94,7.57A34.3,34.3,0,0,0,99.32,22.78Z"/><path class="cls-22" d="M92.77,17.45a31.47,31.47,0,0,0-12.65-2.92,35.23,35.23,0,0,1-4.27,4.28,6,6,0,0,0,.09-3.69A34.5,34.5,0,0,1,61.88,25.3a14.25,14.25,0,0,0,2.44-4.54,26.51,26.51,0,0,1-12.54,7.47A36.67,36.67,0,0,1,68.25,12.75l0,0A22.31,22.31,0,0,1,80.57,10.4a37.79,37.79,0,0,1,11.59,3.24l.4.19c-.7.22-1.4.47-2.09.73C91.23,15.53,92,16.49,92.77,17.45Z"/><path class="cls-22" d="M90.09,9.13a9.32,9.32,0,0,0-1.41-4.28A9.88,9.88,0,0,0,82.9,0c3.79,0,7.86,1.3,10,4.43,1.49,2.19,1.76,5.41,0,7.35a6.44,6.44,0,0,1-1.74,1.27,8.36,8.36,0,0,1-3.72,1.1C88.76,12.47,90.2,11.68,90.09,9.13Z"/><path class="cls-3" d="M54.75,200.9s8.63-2.9,9.78-.47-5.63,5.38-5.63,5.38Z"/><path class="cls-4" d="M73.59,214.59c-1.32,1.6-11.27-8.64-11.27-8.64l-3.64,1.58,3.76,4.67L64,220.8s-1.39,1-3.17,2.07l-.68.41A35,35,0,0,1,56.89,225l-.3.14a10,10,0,0,1-1.45.52,2.44,2.44,0,0,1-1.17.08l-2.64-6.28s-9-2.62-10-3.64c-.4-.4-.94-2.82-1.45-5.59-.24-1.33-.48-2.74-.68-4.05l3.68-2,8.35-4.58c.92.08,2.15.2,3.5.38h0c.67.09,1.37.19,2.08.31a28.48,28.48,0,0,1,7.31,2,6.9,6.9,0,0,1,2.05,1.4C69.62,207.39,74.89,213,73.59,214.59Z"/><path class="cls-19" d="M56.89,225l-.3.14c-.07-.27-.17-.63-.28-1.06-.27-1-.66-2.3-1.1-3.72a23.19,23.19,0,0,0-1.43-3.55c-.12-.22-.24-.43-.33-.61s-.21-.32-.3-.44l-.25-.39a4.69,4.69,0,0,1,.41.26l.48.32.56.5a9,9,0,0,1,2.22,3.61,10.64,10.64,0,0,1,.45,4C57,224.47,56.94,224.79,56.89,225Z"/><path class="cls-19" d="M60.84,222.87l-.68.41c0-.05,0-.11,0-.17-.27-1-.65-2.3-1.1-3.71a22.86,22.86,0,0,0-1.42-3.55c-.13-.23-.24-.43-.33-.61l-.3-.44-.25-.39.41.25c.13.09.29.19.47.33l.57.49a9.07,9.07,0,0,1,2.22,3.62A10.6,10.6,0,0,1,60.84,222.87Z"/><path class="cls-3" d="M55.14,225.7a2.44,2.44,0,0,1-1.17.08l-2.64-6.28s-9-2.62-10-3.64c-.4-.4-.94-2.82-1.45-5.59-.24-1.33-.48-2.74-.68-4.05l3.68-2c.14,1.22.31,2.46.5,3.65.54,3.3,1.3,6.14,2.35,6.76,2.76,1.62,7.42,3.9,7.42,3.9Z"/><path class="cls-9" d="M54.26,198.25l-2.44,2-9,7-3.87,3s-42.46-45-38.72-58.75c3.69-13.52,46.62-57,48-58.33l0,0h0s0,.18.08.52c.6,3.84,4.33,27.54,6,30.16.94,1.51-7.78,10.2-16.22,18.07h0c-7.53,7-14.83,13.38-14.83,13.38C28.69,159.93,54.26,198.25,54.26,198.25Z"/><path class="cls-23" d="M3.07,153c.22,5.81,35,48.37,39.75,54.2l-3.87,3s-42.46-45-38.72-58.75c3.69-13.52,46.62-57,48-58.33l0,0h0s0,.18.08.52C38.5,105.15,2.85,147.59,3.07,153Z"/><path class="cls-11" d="M12.78,150.68c.22-.29.68-.19,1-.06a28,28,0,0,1,5.51,2.94c.34.23.87.55,1.38.93l29.88-29.7,2,4.18L23.2,155.19c5.5,4.74,31.06,43.06,31.06,43.06l-2.44,2c-6.48-9.09-23.76-33.27-30.6-42.1a13.7,13.7,0,0,1-7,2c.72-1.73,2.56-2.67,4.26-3.46l-5.32-4.9C12.86,151.48,12.53,151,12.78,150.68Z"/><path class="cls-10" d="M51.05,191c-2.39-.9-17.57,14.86-17.57,14.86l-.81.85s2.94,5,4.26,6.06,19-15.21,19-15.21S53.44,191.86,51.05,191Z"/><path class="cls-12" d="M40.67,99.7s5.22-8,10.1-9c0,0,20,72.94-10.1,85.31C40.67,176,62.76,148.67,40.67,99.7Z"/><path class="cls-12" d="M103.13,95.1s6.24,3.75,6.55,8.55l-5.15,60.49S100,103.1,103.13,95.1Z"/><path class="cls-24" d="M19.92,94.45l.8,2.56.8-2.56a13.61,13.61,0,0,1,6-7.72h0a13.61,13.61,0,0,1-6-7.72l-.8-2.56L19.92,79a13.61,13.61,0,0,1-6,7.72h0A13.61,13.61,0,0,1,19.92,94.45Z"/><path class="cls-24" d="M29.1,77.48l.56,1.78.55-1.78a9.5,9.5,0,0,1,4.17-5.36h0a9.5,9.5,0,0,1-4.17-5.36L29.66,65l-.56,1.78a9.45,9.45,0,0,1-4.16,5.36h0A9.45,9.45,0,0,1,29.1,77.48Z"/><path class="cls-24" d="M130.77,55.66l-.8,2.55-.8-2.55a13.61,13.61,0,0,0-6-7.72h0a13.61,13.61,0,0,0,6-7.72l.8-2.56.8,2.56a13.61,13.61,0,0,0,6,7.72h0A13.61,13.61,0,0,0,130.77,55.66Z"/><path class="cls-24" d="M121.59,38.69,121,40.46l-.56-1.77a9.46,9.46,0,0,0-4.17-5.36h0A9.46,9.46,0,0,0,120.48,28l.56-1.78.55,1.78a9.46,9.46,0,0,0,4.17,5.36h0A9.46,9.46,0,0,0,121.59,38.69Z"/></g></g></svg>