<svg xmlns="http://www.w3.org/2000/svg" viewBox="0 0 87.98 86.57"><defs><style>.cls-1{fill:#ffa07f;}.cls-2{fill:#ff7d6f;}.cls-3{fill:#fdbd8e;}.cls-4{fill:#cd4a57;}.cls-5{fill:#007c7e;}.cls-6{fill:#006060;}.cls-7{fill:#118c8c;}.cls-8{fill:#63ccca;}.cls-9{fill:#ff9300;}.cls-10{fill:#cf691f;}.cls-11{fill:#749ec2;}.cls-12{fill:#4f83a7;}.cls-13{fill:#fff0e7;}.cls-14{fill:#651924;}.cls-15{fill:#7e2426;}.cls-16{fill:#fb9988;}.cls-17{fill:#ffdaba;}.cls-18{fill:#fd7d6f;}.cls-19{fill:#161818;}.cls-20{fill:#fc5b68;}.cls-21{fill:#cf4a57;}.cls-22{fill:#a94739;}</style></defs><title>ideaРесурс 8</title><g id="Слой_2" data-name="Слой 2"><g id="OBJECTS"><path class="cls-1" d="M85.55,19.29s-1.21,3.31-2,5.16a6.81,6.81,0,0,1,1.89.13c.17.14,2.32,2.72,2.45,2.84.35.32-.87,2.9-1.79,4.31a3.63,3.63,0,0,1-.68.83l-1.18.67-1.91,4.12a6.86,6.86,0,0,1-1.7-.53l-.38-.19a5.45,5.45,0,0,1-1.13-.8,3.92,3.92,0,0,1-.73-.87,14,14,0,0,1,.77-2.44s-2.51-2-2.36-3.71a8.38,8.38,0,0,0-.14-3.08,12.64,12.64,0,0,1-.49-1.55,1.93,1.93,0,0,1,.29-1.56.35.35,0,0,1,.15-.12.4.4,0,0,1,.36.12l0,0a6.8,6.8,0,0,1,2.17,3.93s3-4.14,3.4-5.52c0,0,1.63-2.66,2.19-2.46a1.42,1.42,0,0,1,.48.31A1.26,1.26,0,0,1,85.55,19.29Z"/><path class="cls-2" d="M86.13,31.73a3.63,3.63,0,0,1-.68.83l-1.18.67-1.91,4.12a6.86,6.86,0,0,1-1.7-.53l-.38-.19a23.45,23.45,0,0,0,2.3-3.87c0-.4,2.11-2.38,2.37-4.68.13-1.17-2.61-2.11-1.37-3.63a6.81,6.81,0,0,1,1.89.13c.17.14,2.32,2.72,2.45,2.84C88.27,27.74,87.05,30.32,86.13,31.73Z"/><path class="cls-3" d="M77,22.62a1.91,1.91,0,0,0-.06.33,8.37,8.37,0,0,0,.44,2.69c.22,1.24,0,2.56.46,3.73a8.45,8.45,0,0,0,1.91,2.52,1.62,1.62,0,0,1,.49.83,1.68,1.68,0,0,1-.17.79c-.3.77-.64,1.54-.92,2.32a4.37,4.37,0,0,1-.73-.86,13.84,13.84,0,0,1,.77-2.45s-2.51-2-2.36-3.71a8.17,8.17,0,0,0-.14-3.08,14.64,14.64,0,0,1-.49-1.55,1.89,1.89,0,0,1,.29-1.56.35.35,0,0,1,.15-.12A.4.4,0,0,1,77,22.62Z"/><path class="cls-3" d="M87.81,28.37a17.57,17.57,0,0,1-1.68,3.36l-1-.65L85,31l-.29-.2-.54-.37-.12-.09,0,0L83.67,30c-.24-.17-.47-.35-.69-.52l-.16-.12-.06-.05-.35-.29L82.3,29a2.13,2.13,0,0,1-.64-.72c-.21-.78,1.92-3.78,1.92-3.78h0a6.81,6.81,0,0,1,1.89.13c.17.14,2.32,2.72,2.45,2.84S88,27.88,87.81,28.37Z"/><path class="cls-4" d="M84.59,26.43s-.11.25-.29.61a14.12,14.12,0,0,1-.8,1.34,11.25,11.25,0,0,1-.74,1l-.35-.29A5,5,0,0,1,83,28,5.8,5.8,0,0,1,84,26.84,4.93,4.93,0,0,1,84.59,26.43Z"/><path class="cls-4" d="M86.13,26.88a13.39,13.39,0,0,1-1.29,2.41c-.26.38-.52.73-.77,1l0,0L83.67,30a9.35,9.35,0,0,1,.64-1.1A10.78,10.78,0,0,1,86.13,26.88Z"/><path class="cls-4" d="M86.44,28.54a6,6,0,0,1-.79,1.89,5.77,5.77,0,0,1-.48.65L85,31l-.29-.2a5.31,5.31,0,0,1,.38-.69A7.45,7.45,0,0,1,86.44,28.54Z"/><path class="cls-5" d="M82,36l-2.91-1.32L77.82,34S65.29,50.62,64.36,53.72c0,0-4.58-2.44-8.81-4.23,0,0-3.82-1.48-6.7-2.47V59.55l.22.34c7.17,2.27,14.91,4.34,18,3.87C73.3,62.78,83.85,37,83.85,37Z"/><path class="cls-6" d="M82,36C78.44,42.18,69.57,61.24,67.2,62.51c-1.49.8-10.26-1.3-18.35-3.49v.53l.22.34c7.17,2.27,14.91,4.34,18,3.87C73.3,62.78,83.85,37,83.85,37Z"/><path class="cls-7" d="M65.92,54c2.34-4.39,10.63-15,13.15-19.32L77.82,34S65.29,50.62,64.36,53.72c0,0-8.74-6-15.51-7.75V47.3a41.23,41.23,0,0,1,7.39,3.09l8.3,4.48c-.06.28-.1.55-.13.73a12.35,12.35,0,0,0-.19,2.78c0,.17,0,.37.21.41s.31-.18.37-.36l1-3.06A3.45,3.45,0,0,0,68,56.47,6.21,6.21,0,0,0,65.92,54Z"/><path class="cls-8" d="M76.15,35.3s1-2,1.52-2,7.27,3.34,7.23,3.87A14.47,14.47,0,0,1,83,40S77.13,36.79,76.15,35.3Z"/><path class="cls-9" d="M18.78,52.34S4.58,59.92,6.08,70.06s5.07,10.18,5.07,10.18l7.63-8.43,6.27-14.68Z"/><path class="cls-10" d="M35.43,86.57h-23a.29.29,0,0,1,0-.09,22.91,22.91,0,0,1-.4-7.17c.1-1,.23-1.9.4-2.84.15-.76.32-1.51.51-2.26h0a47.41,47.41,0,0,1,2.15-6.42v0h0c.49-1.19,1-2.34,1.53-3.43a73.07,73.07,0,0,1,5.32-9.15l.06-.08c.05-.07.09-.14.14-.2.49-.72.79-1.11.79-1.11l1.6,1.64h0l1.64,1.68L30.86,62l.77.79L33.78,65l1.08,14.09Z"/><path class="cls-11" d="M50.17,86.57h-26c.06-.16.11-.31.17-.46a1.8,1.8,0,0,0,.08-.21c.11-.28.22-.55.32-.82a2.44,2.44,0,0,0,.1-.24l.57-1.38a.37.37,0,0,0,.05-.11.77.77,0,0,0,.07-.16c.15-.35.3-.68.44-1,0-.07.05-.13.08-.19s.09-.19.13-.27c.34-.77.65-1.39.87-1.85l.13-.26.06-.12.23-.46H48.59a.17.17,0,0,1,0,.07l0,.11v0s0,0,0,0c.06.26.16.73.3,1.36.06.29.13.62.21,1l.17.82c.06.28.12.57.19.88C49.71,84.3,49.94,85.4,50.17,86.57Z"/><path class="cls-12" d="M30.18,79.18l-.66,1.88-.66,1.87c-.25.72-.54,1.51-.84,2.34-.15.43-.31.86-.47,1.3h-3.4c.06-.16.11-.31.17-.46a1.8,1.8,0,0,0,.08-.21c.11-.28.22-.55.32-.82a2.44,2.44,0,0,0,.1-.24l.57-1.38a.37.37,0,0,0,.05-.11.77.77,0,0,0,.07-.16c.15-.35.3-.68.44-1,0-.07.05-.13.08-.19s.09-.19.13-.27c.34-.77.65-1.39.87-1.85l.13-.26.06-.12.23-.46H29.3l.17,0Z"/><path class="cls-12" d="M50.17,86.57h-26c.06-.16.11-.31.17-.46a1.8,1.8,0,0,0,.08-.21c.11-.28.22-.55.32-.82a2.44,2.44,0,0,0,.1-.24l.57-1.38a.37.37,0,0,0,.05-.11.77.77,0,0,0,.07-.16c.15-.35.3-.68.44-1,0-.07.05-.13.08-.19s.09-.19.13-.27c.34-.77.65-1.39.87-1.85l.13-.26.06-.12.23-.46H48.59a.17.17,0,0,1,0,.07l0,.11v0s0,0,0,0c.06.26.16.73.3,1.36.06.29.13.62.21,1l.17.82c.06.28.12.57.19.88C49.71,84.3,49.94,85.4,50.17,86.57Z"/><path class="cls-5" d="M50.5,86.57H24.08c1.42-3.59,2.81-6.45,2.81-6.45a56.49,56.49,0,0,0-1.36-8c-.68-3.22-1.52-7-2.31-10.68-.06-.26-.11-.52-.17-.77,0-.06,0-.13,0-.19l0-.06a0,0,0,0,0,0,0c0-.06,0-.13,0-.19-.13-.61-.25-1.2-.37-1.79-.24-1.11-.46-2.19-.66-3.22,0-.17-.07-.34-.11-.51h0L21.69,54a.5.5,0,0,1,0-.12h0a23,23,0,0,1-.09-7.85,11.45,11.45,0,0,1,.69-2.65.23.23,0,0,1,.05-.07,4.66,4.66,0,0,1,1.21-1.11l.4-.28h0l.37-.25a.1.1,0,0,0,.05,0l.12-.08h0c.42-.27.86-.54,1.3-.8a20.79,20.79,0,0,1,2.86-1.43h0l.34-.13.22-.07.31-.09.41-.13.91-.26.16,0,.51-.13h7.13l.27,0,.25,0,.3.06.22,0a7.94,7.94,0,0,1,.81.25c.2.07.41.16.64.26s.47.21.72.34.52.27.8.43h0l.43.25.45.29a25.17,25.17,0,0,1,2.48,1.87,9.92,9.92,0,0,1,1.52,1.59A11,11,0,0,1,48.85,46a11.42,11.42,0,0,1,.48,1.22c0,.1.07.2.1.3a17.56,17.56,0,0,1-.58,10.93,18.34,18.34,0,0,1-1,2.22c-.33.63-.33,3.16-.21,6.16,0,.31,0,.63,0,.94.1,2.19.26,4.55.42,6.54,0,.22,0,.41,0,.59s0,.15,0,.22c0,.37,0,.6,0,.67v0c.15,1.79.27,3.06.29,3.27v0a1.42,1.42,0,0,1,.08.18s0,0,0,0A38.55,38.55,0,0,1,50.5,86.57Z"/><path class="cls-6" d="M45.23,61.56l-.7,0-1.87-.12a18.59,18.59,0,0,0-5.91.39c-.56.14-1.11.32-1.68.47a14.91,14.91,0,0,1-1.66.35,13,13,0,0,1-2.87.09,4.46,4.46,0,0,1-1.12-.21,2.25,2.25,0,0,1-.76-.39,1.79,1.79,0,0,1-.37-.39l-.09-.16.13.12a1.82,1.82,0,0,0,.43.24,3.56,3.56,0,0,0,1.76.1,21,21,0,0,0,2.65-.55c.49-.13,1-.29,1.52-.47s1.09-.38,1.71-.54A10.08,10.08,0,0,1,40,60.18a15.47,15.47,0,0,1,2.8.54c.77.22,1.39.43,1.81.59S45.23,61.56,45.23,61.56Z"/><path class="cls-13" d="M47.61,43.9c-1.52,2.1-2.69,5.42-9.08,5.92-7.4.59-12.11-6.43-12.71-9.08a20.79,20.79,0,0,1,2.86-1.43l0,0,.87-.29c1.13-.35,2-.55,2-.55h6.93a5.27,5.27,0,0,1,1.24.17h0c.24.07.51.15.81.26a14.68,14.68,0,0,1,3,1.58,26.59,26.59,0,0,1,2.48,1.86A10.36,10.36,0,0,1,47.61,43.9Z"/><path class="cls-14" d="M48.1,33.31a5.34,5.34,0,0,0,1,5.3A9.39,9.39,0,0,1,45,36a3.46,3.46,0,0,0-.23,2.62,5.52,5.52,0,0,1-3.93-2.94L39.85,38a10.9,10.9,0,0,0-.61-3.76c0-.12-.09-.23-.13-.34a4.63,4.63,0,0,0-.58.31,5.12,5.12,0,0,0-2.32,3.54,4.92,4.92,0,0,1-3.86-3.56l-2,3.4a5.51,5.51,0,0,0-1.61-3.28,3.19,3.19,0,0,0-.11,3.34A4.24,4.24,0,0,1,25.26,34,5.5,5.5,0,0,1,23,38.24c1.15-1.6-1.57-3.77-.82-5.59-1,.66-.92,2.1-1,3.28s-.72,2.69-1.9,2.52c.58-1.28-.2-2.72-.84-4-.45-.88,0-2.72.59-4.06a23.59,23.59,0,0,0,1.78-5c.24-1.1.52-2.47.84-4.14.22-1.11.44-2.35.69-3.72a15.42,15.42,0,0,1,5.16-9,16.24,16.24,0,0,1,4-2.61h0c4.37,0,8.94,1.86,12.85,3.84.49.25,1,.51,1.47.8a6.8,6.8,0,0,1,1.4,1.1,5.88,5.88,0,0,1,1.12,1.71,12.36,12.36,0,0,1,.79,2.48c.06.28.12.56.17.84a71.14,71.14,0,0,1,1.18,10c.1,2.35.54,9.79,1.74,11.81A8.63,8.63,0,0,1,49,35.58C48.26,34.28,48.3,32.75,48.1,33.31Z"/><path class="cls-15" d="M37.52,34c.33.07.67.13,1,.17a5.12,5.12,0,0,0-2.32,3.54,4.92,4.92,0,0,1-3.86-3.56l-2,3.4a5.51,5.51,0,0,0-1.61-3.28,3.19,3.19,0,0,0-.11,3.34A4.24,4.24,0,0,1,25.26,34,5.5,5.5,0,0,1,23,38.24c1.15-1.6-1.57-3.77-.82-5.59-1,.66-.92,2.1-1,3.28s-.72,2.69-1.9,2.52c.58-1.28-.2-2.72-.84-4-.45-.88,0-2.72.59-4.06a23.59,23.59,0,0,0,1.78-5c.24-1.1.52-2.47.84-4.14.22-1.11.44-2.35.69-3.72a15.42,15.42,0,0,1,5.16-9c-.35.75-1,1.57-1.24,2a30.49,30.49,0,0,0-1.6,3.82c-.53,1.5-1,3-1.34,4.57-1.17,4.68-1.89,9.49-3.5,14a9.21,9.21,0,0,0,3.32-3,9.6,9.6,0,0,0,.95,3.28c.25-.87.49-1.75.73-2.62l1.83,2.23a6,6,0,0,1,.47-2.27,9.78,9.78,0,0,1,2.16,2.33,4.27,4.27,0,0,0,.37-1.8C31.91,32.86,34.76,33.47,37.52,34Z"/><path class="cls-15" d="M48.1,33.31a5.34,5.34,0,0,0,1,5.3A9.39,9.39,0,0,1,45,36a3.46,3.46,0,0,0-.23,2.62,5.52,5.52,0,0,1-3.93-2.94L39.85,38a10.9,10.9,0,0,0-.61-3.76,3.23,3.23,0,0,0,.61-.1,1.7,1.7,0,0,0,1.32-1.71l1.35,2,1.64-2.66a9.57,9.57,0,0,0,2.3,2.61,5.83,5.83,0,0,1,1-3.24,7.55,7.55,0,0,0,3,2.22l-2.1-20a12.36,12.36,0,0,1,.79,2.48c.06.28.12.56.17.84a71.14,71.14,0,0,1,1.18,10c.1,2.35.54,9.79,1.74,11.81A8.63,8.63,0,0,1,49,35.58C48.26,34.28,48.3,32.75,48.1,33.31Z"/><path class="cls-3" d="M43.6,40.44a8.35,8.35,0,0,1-5.66,5.76c-4.95,1.65-8.2-4.57-9.23-6.91a29.63,29.63,0,0,1,2.87-.84h6.93a4.77,4.77,0,0,1,1.24.17h0a7.94,7.94,0,0,1,.81.25A14.9,14.9,0,0,1,43.6,40.44Z"/><path class="cls-3" d="M37.67,45.24l-6.09-6.79c0-1,.09-1.39.18-3.89.1-2.78.2-5.39.2-5.39l7.85,3.1A18.66,18.66,0,0,0,38.4,38.6,50,50,0,0,1,37.67,45.24Z"/><path class="cls-16" d="M39.81,32.27A18.66,18.66,0,0,0,38.4,38.6l-.71.28c-.91.31-3.84-2.28-5.93-4.32.1-2.78.2-5.39.2-5.39Z"/><path class="cls-3" d="M48,23c-.15.73-.36,1.49-.61,2.29,0,0,.35,3.93-.06,4.81s-3.06,6.37-5.83,6c-2.32-.29-8-3.68-10-5.7a2.33,2.33,0,0,1-.69-1c-.27-1.56-1.2-8.43-1.28-9C29.37,18.8,28.71,7,43,10.28a6.9,6.9,0,0,1,5.18,5.16A17.23,17.23,0,0,1,48,23Z"/><path class="cls-17" d="M47.42,25.24s.35,3.93-.06,4.81-3.06,6.37-5.83,6c-2.32-.29-8-3.68-10-5.7,2.41,1.67,8.84,5.95,10.73,5.29,2.33-.81,5-6,4.92-6.5s-.2-3.86-.2-3.86.47-1.06,1-2.36C47.88,23.68,47.67,24.44,47.42,25.24Z"/><path class="cls-17" d="M31.53,29.17a5.43,5.43,0,0,1-3.79-2.09,3.71,3.71,0,0,1-.38-.56c-.51-.93-.66-4.15.66-4.9.92-.52,1.59.24,1.91.74h0a3.11,3.11,0,0,1,.21.38Z"/><path class="cls-3" d="M31.53,29.17a5.43,5.43,0,0,1-3.79-2.09,2.63,2.63,0,0,1-.16-.26c-.51-.93-.66-4.15.66-4.89a1.25,1.25,0,0,1,1.69.43h0a3.11,3.11,0,0,1,.21.38Z"/><path class="cls-16" d="M27.6,24.18a1.49,1.49,0,0,0,.06.78,6.4,6.4,0,0,0,2.47,2.67,2.76,2.76,0,0,1-.36-1.69,6,6,0,0,0,.07-.61C29.85,24.53,28,22.66,27.6,24.18Z"/><path class="cls-18" d="M30.65,27.93l-.06,0a1.21,1.21,0,0,1-.16-.1,2.23,2.23,0,0,1-.51-.46,2.1,2.1,0,0,1-.42-.86,1.75,1.75,0,0,1,.13-1.13c0-.05.05-.1.07-.14l0,0s0,0,0,0h0v0l0-.06A.75.75,0,0,0,29.6,25a3.8,3.8,0,0,0-.31-.44q-.16-.21-.33-.39a3,3,0,0,0-.33-.3.81.81,0,0,0-.33-.15.63.63,0,0,0-.29,0,.26.26,0,0,0-.12.11.15.15,0,0,0,0,.06.09.09,0,0,1,0-.06.26.26,0,0,1,.11-.14.55.55,0,0,1,.32-.11.93.93,0,0,1,.45.13,3.92,3.92,0,0,1,.79.66,4,4,0,0,1,.37.45L30,25,30,25l.06.09,0,.06,0,.07-.06.09-.06.12a1.91,1.91,0,0,0-.17,1,2.15,2.15,0,0,0,.28.82,2.56,2.56,0,0,0,.39.5l.13.12Z"/><path class="cls-15" d="M49.33,20.13s-1.82-2.44-2.84-1.47-.56,1.06-.56,1.06Z"/><path class="cls-15" d="M34.68,20.55s4.08-3.11,5.14-1.49c.63,1,0,1.37,0,1.37Z"/><path class="cls-19" d="M39.41,20.9a2.19,2.19,0,0,1-1.08.93.91.91,0,0,0-.69-.36c-.66,0-1.19.85-1.19,1.9s.53,1.91,1.19,1.91,1.18-.85,1.18-1.91a2.88,2.88,0,0,0-.14-.9A3.53,3.53,0,0,0,39.41,20.9Z"/><path class="cls-19" d="M48.22,24.18l-.12-.07L47.77,24a3.59,3.59,0,0,0-2.05-.2,2.26,2.26,0,0,0-.35.1l-.14,0,.07-.12a1.47,1.47,0,0,1,.25-.31,1.63,1.63,0,0,1,2.44.23,1.38,1.38,0,0,1,.19.35A1.31,1.31,0,0,1,48.22,24.18Z"/><path class="cls-13" d="M35.32,22.31a2.43,2.43,0,0,0,2.62,1.06,2.79,2.79,0,0,0-1.14-.95A2.74,2.74,0,0,0,35.32,22.31Z"/><path class="cls-16" d="M42.18,27.76a2.18,2.18,0,0,0-.89-.23,3,3,0,0,0,1.62,1.56.47.47,0,0,0,.17,0,.5.5,0,0,0,.2-.08,3.3,3.3,0,0,0,1-.91.56.56,0,0,0,.13-.24c.08-.3-.13-.23-.31-.16a2.81,2.81,0,0,1-1.94,0Z"/><path class="cls-18" d="M43,28.92c.18-.17.39-.31.58-.47a4.76,4.76,0,0,0,.63-.64c-1-.68-1-1.69-.91-2.84a3.24,3.24,0,0,1,.42-1.49,3.09,3.09,0,0,1,.48-.66,2.06,2.06,0,0,1,.3-.29,1,1,0,0,1,.34-.19c-.06.07-.1.15-.16.22s-.29.36-.41.56a3.59,3.59,0,0,0-.31.62,4.06,4.06,0,0,0-.3,1.37,3.65,3.65,0,0,0,.22,1.35,2.69,2.69,0,0,0,1,1.25l-.73.84a4.61,4.61,0,0,1-.55.44,1.26,1.26,0,0,1-.66.26.4.4,0,0,1-.21-.07.31.31,0,0,0,.11-.09l.05,0A1.59,1.59,0,0,1,43,28.92Z"/><path class="cls-18" d="M39.68,33.51a3.54,3.54,0,0,0,2.92.09,1.53,1.53,0,0,1-1.34.72A2.48,2.48,0,0,1,39.68,33.51Z"/><path class="cls-20" d="M44.83,31.1A4.66,4.66,0,0,1,43,32.83a3.56,3.56,0,0,1-2.09.37A3.15,3.15,0,0,1,39,32.27a5.15,5.15,0,0,1-1.25-2.4,15.92,15.92,0,0,1,7.06,1.23Z"/><path class="cls-13" d="M44.83,31.1s-.14.21-.81.35a26.68,26.68,0,0,1-5.43-.84,2.5,2.5,0,0,1-.83-.74,15.92,15.92,0,0,1,7.06,1.23Z"/><path class="cls-21" d="M43,32.83a3.56,3.56,0,0,1-2.09.37A3.15,3.15,0,0,1,39,32.27C39.89,32,41.85,31.5,43,32.83Z"/><path class="cls-16" d="M45.85,28.17c.16.42,1.06.47,2,.11s1.6-1,1.45-1.4-1.06-.47-2-.11S45.69,27.75,45.85,28.17Z"/><path class="cls-16" d="M33.85,26.23c-.16.62.87,1.44,2.31,1.81s2.74.16,2.9-.46-.87-1.44-2.31-1.82S34,25.6,33.85,26.23Z"/><path class="cls-14" d="M49.17,16.21c0,.13,0,.26,0,.39l-.06,1.08c0,.14-.14.83-.05.92a22.91,22.91,0,0,1-4.17-5.74,3.77,3.77,0,0,1-.36-1.42,9.8,9.8,0,0,1-1.87,2.77,9.06,9.06,0,0,1-1.38,1.09,14,14,0,0,0-1.43.81,5.3,5.3,0,0,0,1.64-2.77c-1.9,2.77-4.94,4.56-8,5.82a5.7,5.7,0,0,0,1.46-2.44,17.59,17.59,0,0,1-7.46,5.54,5.94,5.94,0,0,1-1-1.7,8.29,8.29,0,0,1-.32-.86s0-.05,0-.07a9,9,0,0,1-.33-1.55A14.18,14.18,0,0,1,27,10.74a9.65,9.65,0,0,1,4.52-4.85h0A10.27,10.27,0,0,1,37.2,4.8a17.57,17.57,0,0,1,5.35,1.5c.5.22,2.28,1.19,2.28,1.19A6.07,6.07,0,0,1,47,8.07a5.24,5.24,0,0,1,1.83,3.5c0,.24.07.48.1.71a22.22,22.22,0,0,1,.16,2.82l0,.71C49.16,15.94,49.17,16.07,49.17,16.21Z"/><path class="cls-14" d="M33,24.57c-.05-.15-.13-.37-.25-.64A5.07,5.07,0,0,0,32.3,23a4.24,4.24,0,0,0-.85-1,3.7,3.7,0,0,0-1.14-.63,4.69,4.69,0,0,0-1-.25L29,21.11,28.74,21a1.1,1.1,0,0,1,.09.14h-.47l.64.31.37.63a11.91,11.91,0,0,1,1.18,2.52,15.2,15.2,0,0,1,.5,2.76c0,.37.08.68.11.89s.05.33.05.33l.09-.32c.06-.21.13-.51.2-.89A8,8,0,0,0,31.65,26a5.2,5.2,0,0,0-.23-1.69,5.12,5.12,0,0,0-.78-1.53,7.12,7.12,0,0,0-.87-1,8.45,8.45,0,0,1,1.24.81,12.12,12.12,0,0,1,1.48,1.53l.44.52.17.19Z"/><path class="cls-14" d="M31.32,21a27.61,27.61,0,0,0,7.84-4.68,3.29,3.29,0,0,1-1,1.39,11.46,11.46,0,0,0,6.12-4.56,4.81,4.81,0,0,0,.94-2.45.92.92,0,0,0-.06-.43,1,1,0,0,0-.57-.49,4.47,4.47,0,0,0-3-.15A10.8,10.8,0,0,0,38.76,11a11.73,11.73,0,0,0-2.13,1.64c-1.21,1.26-1.38,2.64-2,4.16A10.37,10.37,0,0,1,31.32,21Z"/><path class="cls-14" d="M42.14,21.36a4.5,4.5,0,0,0,1.7-1.63A12.81,12.81,0,0,0,46,14.35,5.34,5.34,0,0,0,45.57,11c-.3-.55-1.46-1.49-1.94-.57-.29.56.38,1.83.49,2.42a11.11,11.11,0,0,1-.44,5.6A10.32,10.32,0,0,1,42.14,21.36Z"/><path class="cls-15" d="M45.85,10.52c-.27-.07-.55-.13-.83-.18a7.06,7.06,0,0,1,.1,2,9.41,9.41,0,0,0-1.66-2.52A9.51,9.51,0,0,1,40,12.76a7,7,0,0,0,.57-4.31,18,18,0,0,1-6.4,5.62,7.85,7.85,0,0,0,0-2.9,22.22,22.22,0,0,1-8.08,8.53l-.09.06a.83.83,0,0,1,.07-.13,8.79,8.79,0,0,0,1-3.2,14.89,14.89,0,0,1-5.33,4.81c.22-1.11.44-2.35.69-3.72A14.94,14.94,0,0,1,23.91,13a16.84,16.84,0,0,1,7.6-7.14h0A10.27,10.27,0,0,1,37.2,4.8a17.57,17.57,0,0,1,5.35,1.5l.18.08c.66.32,2.1,1.11,2.1,1.11A6.07,6.07,0,0,1,47,8.07a5.24,5.24,0,0,1,1.83,3.5A16.12,16.12,0,0,0,45.85,10.52Z"/><path class="cls-22" d="M42.83,8.06A14.42,14.42,0,0,0,37,6.71a16.66,16.66,0,0,1-2,2,2.74,2.74,0,0,0,0-1.7,16,16,0,0,1-6.49,4.7,6.64,6.64,0,0,0,1.12-2.1A12.14,12.14,0,0,1,23.91,13a16.84,16.84,0,0,1,7.6-7.14h0A10.27,10.27,0,0,1,37.2,4.8a17.57,17.57,0,0,1,5.35,1.5l.18.08-1,.34Z"/><path class="cls-22" d="M41.59,4.22a4.3,4.3,0,0,0-.65-2A4.54,4.54,0,0,0,38.27,0a5.49,5.49,0,0,1,4.62,2.05,2.8,2.8,0,0,1,0,3.39,3,3,0,0,1-.8.58,3.81,3.81,0,0,1-1.72.51C41,5.76,41.64,5.39,41.59,4.22Z"/><path class="cls-5" d="M9,86.57C4.08,80.42-.79,73.22.11,69.92c1.29-4.73,13-17.38,18.83-23.52,1.88-2,3.16-3.27,3.31-3.42h0a2.26,2.26,0,0,1,0,.24s0,.08,0,.12c.26,1.67,1.38,8.72,2.19,12.09h0a7.82,7.82,0,0,0,.54,1.7c.11.18-.07.58-.48,1.14l0,0A6.65,6.65,0,0,1,24,59c-.29.36-.64.75-1.05,1.18h0c-1.44,1.55-3.43,3.47-5.39,5.29q-1.29,1.2-2.49,2.28h0l-.35.32-4,3.57a18.57,18.57,0,0,1,2,2.34l.18.21h0l.39.51.42.55.87,1.18.59.81.57.79c1.31,1.82,2.7,3.8,4,5.67.2.29.39.58.59.86l.29.42.56.82q.27.38.51.75Z"/><path class="cls-7" d="M12.4,86.48l.07.09H9C4.08,80.42-.79,73.22.11,69.92c1.29-4.73,13-17.38,18.83-23.52,1.88-2,3.16-3.27,3.31-3.42h0a2.26,2.26,0,0,1,0,.24c-.76.89-1.84,2.18-3.13,3.72C12.74,54.62,1.34,68.56,1.42,70.63,1.48,72.24,7.29,80,12.4,86.48Z"/><path class="cls-6" d="M21.18,85.82q.27.38.51.75h-2c-2-2.84-4.36-6-6.35-8.78l-1-1.32c-1-1.39-1.92-2.59-2.6-3.47a6.42,6.42,0,0,1-2.94.92H6.57a1.51,1.51,0,0,1,.2-.35,4.36,4.36,0,0,1,1.77-1.25L6.08,70.07c-.14-.13-.29-.34-.18-.5A.19.19,0,0,1,6,69.5a.6.6,0,0,1,.35,0A13,13,0,0,1,8.92,70.9a7.22,7.22,0,0,1,.63.43l7.05-7,6-5.93.1-.1.67-.67L24,59l.13.27.15.3-.44.39-.8.71,0,0-8,7.11-.35.3-4,3.57a18.57,18.57,0,0,1,2,2.34l.18.22.39.51.42.55.87,1.18.59.81.57.79c1.31,1.82,2.7,3.8,4,5.67.2.29.4.57.59.86l.29.42Z"/><path class="cls-9" d="M18.78,46s2.41-3.7,4.66-4.17c0,0,9.25,33.68-4.66,39.39C18.78,81.25,29,68.64,18.78,46Z"/><path class="cls-9" d="M47.61,43.9s2.88,1.74,3,4L48.26,75.78S46.17,47.6,47.61,43.9Z"/></g></g></svg>