<svg xmlns="http://www.w3.org/2000/svg" viewBox="0 0 88.03 85.08"><defs><style>.cls-1{fill:#fb9988;}.cls-2{fill:#fdbd8e;}.cls-3{fill:#fd7d6f;}.cls-4{fill:#ffdaba;}.cls-5{fill:#007c7e;}.cls-6{fill:#118c8c;}.cls-7{fill:#63ccca;}.cls-8{fill:#ff9300;}.cls-9{fill:#cf691f;}.cls-10{fill:#749ec2;}.cls-11{fill:#4f83a7;}.cls-12{fill:#006060;}.cls-13{fill:#fff0e7;}.cls-14{fill:#651924;}.cls-15{fill:#7e2426;}.cls-16{fill:#161818;}.cls-17{fill:#a94739;}.cls-18{fill:#f48fb1;}</style></defs><title>likeРесурс 6</title><g id="Слой_2" data-name="Слой 2"><g id="OBJECTS"><path class="cls-1" d="M.63,38.65A3.48,3.48,0,0,0,2.2,40.16c1.14.72,2.25,1.57,3.4,2.28l2.1,2.32,3-2.48.88-.73L9.48,39.33a15.09,15.09,0,0,0,.23-5.91,22.91,22.91,0,0,1-.48-2.33,27.94,27.94,0,0,1,.25-3,1,1,0,0,0-.14-.66.68.68,0,0,0-.82-.14,1.63,1.63,0,0,0-.64.61L7.82,28a6.27,6.27,0,0,0-1,3.88.88.88,0,0,1-.06.51.76.76,0,0,1-.38.27,4.33,4.33,0,0,1-2.82,0,2.18,2.18,0,0,0-1.17-.17c-.56.15-.85.76-1,1.3a16.59,16.59,0,0,0-.77,3.33A3.21,3.21,0,0,0,.63,38.65Z"/><path class="cls-2" d="M8.28,39.5l2.41,2.78.88-.73L9.48,39.33a15.09,15.09,0,0,0,.23-5.91,22.91,22.91,0,0,1-.48-2.33,27.94,27.94,0,0,1,.25-3,1,1,0,0,0-.14-.66.68.68,0,0,0-.82-.14,1.63,1.63,0,0,0-.64.61L7.82,28a1.18,1.18,0,0,1,.56,0c.47.15.33.82.22,1.3a8.25,8.25,0,0,0,.3,3.44A13.21,13.21,0,0,1,8.28,39.5Z"/><path class="cls-3" d="M4.85,36.94a6.67,6.67,0,0,0,.06,3.14,5.3,5.3,0,0,1-.73-3,3.17,3.17,0,0,1,1.54-2.55,1.42,1.42,0,0,1,.54-.2c-.07.37-.62.78-.82,1.13A5.09,5.09,0,0,0,4.85,36.94Z"/><path class="cls-2" d="M.47,39A7,7,0,0,0,4,39.51a3.88,3.88,0,0,0,.43-1.1c0-.18.08-.36.11-.55a10.56,10.56,0,0,0,.14-1.3c0-.19,0-.39,0-.58,0-.53,0-1,0-1.53,0-.21,0-.41,0-.6,0-.52-.1-1-.14-1.31s-.09-.63-.09-.63a9.24,9.24,0,0,0-3.77.5,5.73,5.73,0,0,0-.48,1.7A13.73,13.73,0,0,0,.47,39Z"/><path class="cls-3" d="M2.17,34.16l.51.11a9.29,9.29,0,0,0,1.17.17,6.53,6.53,0,0,0,.76,0c0-.21,0-.41,0-.6a3.32,3.32,0,0,0-.67-.13,3,3,0,0,0-1.25.2A1.9,1.9,0,0,0,2.17,34.16Z"/><path class="cls-3" d="M2.33,36.19l.48.15a6.67,6.67,0,0,0,1.11.21,5.84,5.84,0,0,0,.72,0c0-.19,0-.39,0-.58A2.72,2.72,0,0,0,4,35.83,3,3,0,0,0,2.8,36,2.25,2.25,0,0,0,2.33,36.19Z"/><path class="cls-3" d="M1.92,38a4.85,4.85,0,0,0,.5.16,6.46,6.46,0,0,0,1.18.21,7.05,7.05,0,0,0,.79,0c0-.18.08-.36.11-.55a3.87,3.87,0,0,0-.84-.18,3.45,3.45,0,0,0-1.24.15A2.92,2.92,0,0,0,1.92,38Z"/><path class="cls-4" d="M.09,34.11a4,4,0,0,1,1.17-1,4.69,4.69,0,0,1,1.32-.4,8.84,8.84,0,0,1,1.61-.25l.24,0c0-.39-.09-.63-.09-.63a9.24,9.24,0,0,0-3.77.5A5.73,5.73,0,0,0,.09,34.11Z"/><path class="cls-5" d="M48.14,53.19c.59,3.7-9.91,9.08-18.4,15.38a4.75,4.75,0,0,1-6.18-.45C19,63.52,8,48.59,5.36,42.56l4.88-3,1-.61S23.61,52.66,27.17,57.24c0,0,9.17-9,12.1-11a4.23,4.23,0,0,1,2,1.1C42,48,47.86,51.43,48.14,53.19Z"/><path class="cls-6" d="M38.24,49.36V46.72C33.83,50,27.17,57.24,27.17,57.24c-3.56-4.58-15.94-18.32-15.94-18.32l-1,.61c2.95,3.65,14.52,17.93,16.42,19,0,0-1.16,5.28-.21,4.37s1.53-4,1.53-4,1.81,2.15,2.09,1.86-.7-3.36-.7-3.36Z"/><path class="cls-7" d="M13.39,40.56s-1.4-2-1.82-2.1-6.91,4.12-6.91,4.4c0,.52,1.37,1.9,1.37,1.9Z"/><path class="cls-8" d="M68.8,52.34S83,59.92,81.49,70.06s-5.07,10.18-5.07,10.18L68.8,71.81,62.52,57.13Z"/><path class="cls-9" d="M75.45,85H62.83a.14.14,0,0,0,0,.06l0-.06H52.25l.46-6L53.79,65,56,62.74l.76-.78,4.71-4.85,3.24-3.33.2.28c.14.19.34.46.59.83,0,.06.09.13.14.2l.06.08a69.92,69.92,0,0,1,4,6.53h0c.7,1.27,1.4,2.67,2.06,4.14l.06.12a49.16,49.16,0,0,1,3.09,8.9c.17.75.32,1.49.45,2.25h0c.12.72.21,1.44.28,2.16A24.37,24.37,0,0,1,75.45,85Z"/><path class="cls-10" d="M37.71,85c.13-.6.25-1.17.36-1.7.06-.3.12-.6.18-.88s.12-.56.17-.82.15-.68.21-1c.14-.63.24-1.1.3-1.36a0,0,0,0,0,0,0v0l0-.11a.17.17,0,0,1,0-.07H60.12l.23.46a.67.67,0,0,1,.06.12l.13.26c.23.46.53,1.08.88,1.85a2.86,2.86,0,0,0,.12.27c0,.06.05.12.08.19.14.31.29.64.44,1a1.11,1.11,0,0,0,.07.16l0,.11.57,1.38.07.18Z"/><path class="cls-11" d="M62.82,85H59.46c-.27-.73-.52-1.44-.75-2.09s-.47-1.34-.66-1.88c-.41-1.15-.66-1.87-.66-1.87l.71-.11.17,0h1.85l.23.46a.67.67,0,0,1,.06.12l.13.26c.23.46.53,1.08.88,1.85a2.86,2.86,0,0,0,.12.27c0,.06.05.12.08.19.14.31.29.64.44,1a1.11,1.11,0,0,0,.07.16l0,.11.57,1.38Z"/><path class="cls-11" d="M62.75,84.84l.07.18H37.71c.13-.6.25-1.17.36-1.7.06-.3.12-.6.18-.88s.12-.56.17-.82.15-.68.21-1c.14-.63.24-1.1.3-1.36a0,0,0,0,0,0,0v0l0-.11a.17.17,0,0,1,0-.07H60.12l.23.46a.67.67,0,0,1,.06.12l.13.26c.23.46.53,1.08.88,1.85a2.86,2.86,0,0,0,.12.27c0,.06.05.12.08.19.14.31.29.64.44,1a1.11,1.11,0,0,0,.07.16l0,.11Z"/><path class="cls-11" d="M62.85,85.08l0-.06h0A.14.14,0,0,0,62.85,85.08Z"/><path class="cls-5" d="M39.58,72.21a88.57,88.57,0,0,0,.31-10.59h0a3.23,3.23,0,0,0-.21-1,19.13,19.13,0,0,1-2-10.73h0a13.43,13.43,0,0,1,.59-2.69c0-.09.07-.18.1-.28a11.11,11.11,0,0,1,1.63-3,10.42,10.42,0,0,1,1.52-1.6A26.59,26.59,0,0,1,44,40.45q.69-.45,1.29-.78c.41-.21.78-.39,1.12-.54s.44-.19.64-.26a7.94,7.94,0,0,1,.81-.25h0c.23-.06.43-.09.6-.12h.1a.82.82,0,0,1,.21,0h7.41l.09,0,.63.16.42.12.24.07.25.08.35.11a2.53,2.53,0,0,1,.36.12l.37.13h0a20.79,20.79,0,0,1,2.86,1.43l1.3.79v0h0l.12.08,0,0,.37.25h0l.4.29A4.41,4.41,0,0,1,65.3,43.4,11.45,11.45,0,0,1,66,46.05c.05.31.1.64.14,1a23.13,23.13,0,0,1-.23,6.84v0s0,.07,0,.11c0,.21-.08.42-.13.64s-.06.34-.1.51c-.13.67-.27,1.37-.42,2.08s-.25,1.2-.38,1.82c-.08.38-.17.77-.25,1.16a0,0,0,0,0,0,0c0,.07,0,.13,0,.2-.07.31-.13.61-.21.93h0c-.79,3.67-1.63,7.46-2.3,10.68h0a56.78,56.78,0,0,0-1.36,8s1,2.07,2.19,4.9h0a.14.14,0,0,0,0,.06l0-.06H37.37c.34-1.69.71-3.25,1.08-4.44a9.14,9.14,0,0,1,.48-1.29,0,0,0,0,0,0,0,1,1,0,0,1,.08-.18v0c0-.34.31-3.33.56-6.82Z"/><path class="cls-12" d="M42.34,61.56l.7,0,1.88-.12a18.9,18.9,0,0,1,5.91.39c.55.14,1.11.32,1.67.47a15.4,15.4,0,0,0,1.66.35A13,13,0,0,0,57,62.7a4.46,4.46,0,0,0,1.12-.21,2.63,2.63,0,0,0,.77-.39,2,2,0,0,0,.36-.39.71.71,0,0,0,.09-.16l-.13.12a1.49,1.49,0,0,1-.43.24,3.56,3.56,0,0,1-1.76.1,21,21,0,0,1-2.65-.55c-.49-.13-1-.29-1.52-.47s-1.09-.38-1.7-.54a10.11,10.11,0,0,0-3.57-.27,16.33,16.33,0,0,0-2.81.54c-.77.22-1.38.43-1.8.59S42.34,61.56,42.34,61.56Z"/><path class="cls-13" d="M40,43.9c1.52,2.1,2.69,5.42,9.08,5.92,7.4.59,12.12-6.43,12.72-9.08a19.22,19.22,0,0,0-2.87-1.43l0,0L58,39c-1.13-.35-2-.55-2-.55H49.06a5.15,5.15,0,0,0-1.23.17h0a7.35,7.35,0,0,0-.82.25,14.4,14.4,0,0,0-3,1.58,25.33,25.33,0,0,0-2.48,1.86A10.41,10.41,0,0,0,40,43.9Z"/><path class="cls-14" d="M39.47,33.31a5.31,5.31,0,0,1-1,5.3A9.39,9.39,0,0,0,42.62,36a3.41,3.41,0,0,1,.23,2.62,5.5,5.5,0,0,0,3.93-2.94L47.73,38a10.67,10.67,0,0,1,.61-3.76l.12-.34a4.63,4.63,0,0,1,.58.31,5.12,5.12,0,0,1,2.32,3.54,4.92,4.92,0,0,0,3.86-3.56l2,3.4a5.51,5.51,0,0,1,1.61-3.28A3.17,3.17,0,0,1,59,37.65,4.25,4.25,0,0,0,62.32,34a5.43,5.43,0,0,0,2.26,4.24c-1.15-1.6,1.57-3.77.82-5.59,1,.66.92,2.1,1,3.28s.72,2.69,1.9,2.52c-.57-1.28.21-2.72.84-4,.45-.88.05-2.72-.59-4.06a23,23,0,0,1-1.77-5c-.24-1.1-.53-2.47-.85-4.14-.21-1.11-.44-2.34-.68-3.72A15.48,15.48,0,0,0,60,8.5a16.28,16.28,0,0,0-4-2.61h0c-4.37,0-8.94,1.86-12.84,3.84-.5.25-1,.51-1.48.8a6.8,6.8,0,0,0-1.4,1.1,5.88,5.88,0,0,0-1.12,1.71,11.73,11.73,0,0,0-.78,2.48c-.07.28-.12.56-.18.84a69.67,69.67,0,0,0-1.17,10C37,29,36.52,36.42,35.33,38.44a8.78,8.78,0,0,0,3.21-2.86C39.32,34.28,39.27,32.75,39.47,33.31Z"/><path class="cls-15" d="M50.05,34c-.33.07-.67.13-1,.17a5.12,5.12,0,0,1,2.32,3.54,4.92,4.92,0,0,0,3.86-3.56l2,3.4a5.51,5.51,0,0,1,1.61-3.28A3.17,3.17,0,0,1,59,37.65,4.25,4.25,0,0,0,62.32,34a5.43,5.43,0,0,0,2.26,4.24c-1.15-1.6,1.57-3.77.82-5.59,1,.66.92,2.1,1,3.28s.72,2.69,1.9,2.52c-.57-1.28.21-2.72.84-4,.45-.88.05-2.72-.59-4.06a23,23,0,0,1-1.77-5c-.24-1.1-.53-2.47-.85-4.14-.21-1.11-.44-2.34-.68-3.72A15.48,15.48,0,0,0,60,8.5c.35.75,1,1.57,1.24,2a32.12,32.12,0,0,1,1.61,3.82c.52,1.5,1,3,1.34,4.57,1.16,4.68,1.88,9.49,3.5,14a9.24,9.24,0,0,1-3.33-3,9.6,9.6,0,0,1-1,3.28c-.25-.87-.49-1.75-.73-2.62L60.9,32.88a6.15,6.15,0,0,0-.47-2.27,9.58,9.58,0,0,0-2.16,2.33,4.28,4.28,0,0,1-.38-1.8C55.67,32.86,52.81,33.47,50.05,34Z"/><path class="cls-15" d="M39.47,33.31a5.31,5.31,0,0,1-1,5.3A9.39,9.39,0,0,0,42.62,36a3.41,3.41,0,0,1,.23,2.62,5.5,5.5,0,0,0,3.93-2.94L47.73,38a10.67,10.67,0,0,1,.61-3.76,3.34,3.34,0,0,1-.62-.1,1.71,1.71,0,0,1-1.32-1.71l-1.35,2-1.64-2.66a9.4,9.4,0,0,1-2.3,2.61,5.83,5.83,0,0,0-1-3.24,7.59,7.59,0,0,1-3,2.22q1.05-10,2.09-20a11.73,11.73,0,0,0-.78,2.48c-.07.28-.12.56-.18.84a69.67,69.67,0,0,0-1.17,10C37,29,36.52,36.42,35.33,38.44a8.78,8.78,0,0,0,3.21-2.86C39.32,34.28,39.27,32.75,39.47,33.31Z"/><path class="cls-2" d="M44,40.45a8.36,8.36,0,0,0,5.67,5.75c4.94,1.65,8.19-4.57,9.22-6.91-1.51-.53-2.86-.84-2.86-.84H49.06a4.66,4.66,0,0,0-1.23.17h0c-.24.06-.51.14-.82.25A14.78,14.78,0,0,0,44,40.45Z"/><path class="cls-2" d="M49.9,45.25l6.1-6.8c0-1-.1-1.39-.19-3.89-.1-2.78-.2-5.39-.2-5.39l-7.84,3.1a18.65,18.65,0,0,1,1.4,6.33A52.67,52.67,0,0,0,49.9,45.25Z"/><path class="cls-1" d="M47.77,32.27a18.65,18.65,0,0,1,1.4,6.33l.72.28c.91.32,3.83-2.28,5.92-4.32-.1-2.78-.2-5.39-.2-5.39Z"/><path class="cls-2" d="M39.54,23c.16.72.36,1.48.61,2.28,0,0-.35,3.93.06,4.81s3.06,6.37,5.84,6c2.31-.29,8-3.68,10-5.7a2.29,2.29,0,0,0,.68-1c.27-1.56,1.2-8.43,1.29-9C58.2,18.8,58.86,7,44.59,10.28a6.89,6.89,0,0,0-5.18,5.16A17.25,17.25,0,0,0,39.54,23Z"/><path class="cls-4" d="M40.15,25.24s-.35,3.93.06,4.81,3.06,6.37,5.84,6c2.31-.29,8-3.68,10-5.7-2.42,1.67-8.85,5.95-10.73,5.29-2.34-.81-5-6-4.93-6.5s.2-3.86.2-3.86-.47-1.06-1-2.35C39.7,23.68,39.9,24.44,40.15,25.24Z"/><path class="cls-4" d="M56,29.17a5.47,5.47,0,0,0,3.8-2.09,4.47,4.47,0,0,0,.37-.56c.52-.93.66-4.15-.65-4.9-.93-.52-1.6.24-1.92.74h0c-.13.22-.21.38-.21.38Z"/><path class="cls-2" d="M56,29.17a5.47,5.47,0,0,0,3.8-2.09,2.43,2.43,0,0,0,.15-.26c.52-.93.66-4.15-.65-4.89a1.27,1.27,0,0,0-1.7.43h0c-.13.22-.21.38-.21.38Z"/><path class="cls-1" d="M60,24.18a1.31,1.31,0,0,1-.06.78,6.4,6.4,0,0,1-2.47,2.67,2.69,2.69,0,0,0,.36-1.69,6,6,0,0,1-.06-.61C57.73,24.53,59.58,22.66,60,24.18Z"/><path class="cls-3" d="M56.92,27.93l.06,0,.17-.1a2.23,2.23,0,0,0,.51-.46,2,2,0,0,0,.41-.86,1.75,1.75,0,0,0-.13-1.13.37.37,0,0,0-.07-.14l0,0h0s0,0,0,0l0,0,0-.06L58,25c.1-.16.21-.31.31-.44a4.32,4.32,0,0,1,.34-.39,4.26,4.26,0,0,1,.32-.3.85.85,0,0,1,.34-.15.59.59,0,0,1,.28,0,.31.31,0,0,1,.13.12s0,.05,0,.05a.28.28,0,0,0,0-.06s0-.09-.1-.14a.56.56,0,0,0-.33-.11.9.9,0,0,0-.44.13,3.43,3.43,0,0,0-.41.29,4.43,4.43,0,0,0-.39.37,4,4,0,0,0-.37.45l-.08.13,0,.07,0,.09,0,.06,0,.07,0,.09.06.12a1.91,1.91,0,0,1,.17,1,2.33,2.33,0,0,1-.27.82,2.56,2.56,0,0,1-.39.5l-.14.12Z"/><path class="cls-15" d="M38.25,20.13s1.82-2.44,2.83-1.47.56,1.06.56,1.06Z"/><path class="cls-15" d="M52.89,20.55s-4.07-3.11-5.14-1.49c-.63,1,0,1.37,0,1.37Z"/><path class="cls-16" d="M40.15,21.91a1.46,1.46,0,0,0,.74.64.66.66,0,0,1,.46-.21c.49,0,.89.65.89,1.44s-.4,1.43-.89,1.43-.89-.64-.89-1.43a2.05,2.05,0,0,1,.15-.81A2.57,2.57,0,0,1,40.15,21.91Z"/><path class="cls-16" d="M48.57,21.36a2.14,2.14,0,0,0,1.08.93,1,1,0,0,1,.69-.36c.65,0,1.18.86,1.18,1.91s-.53,1.9-1.18,1.9-1.19-.85-1.19-1.9a2.83,2.83,0,0,1,.14-.9A3.49,3.49,0,0,1,48.57,21.36Z"/><path class="cls-13" d="M52.66,22.78a2.44,2.44,0,0,1-2.62,1,2.44,2.44,0,0,1,2.62-1Z"/><path class="cls-3" d="M46.69,32.37a2.81,2.81,0,0,1-2.37.07A1.23,1.23,0,0,0,45.4,33,2,2,0,0,0,46.69,32.37Z"/><path class="cls-3" d="M49.43,30.3a7.06,7.06,0,0,1-6.55.9,10.25,10.25,0,0,0,3.58,0A8.07,8.07,0,0,0,49.43,30.3Z"/><path class="cls-13" d="M39.69,23.08a2.12,2.12,0,0,0,.83.63,2.08,2.08,0,0,0,1,.12,2.12,2.12,0,0,0-.83-.63A2.23,2.23,0,0,0,39.69,23.08Z"/><path class="cls-1" d="M45.39,27.76a2.18,2.18,0,0,1,.89-.23,3,3,0,0,1-1.62,1.56.47.47,0,0,1-.17,0,.39.39,0,0,1-.2-.08,3.41,3.41,0,0,1-1-.91.56.56,0,0,1-.13-.24c-.07-.3.13-.23.31-.16a2.94,2.94,0,0,0,.65.16A2.7,2.7,0,0,0,45.39,27.76Z"/><path class="cls-3" d="M44.6,28.92c-.18-.17-.39-.31-.57-.47a4.3,4.3,0,0,1-.64-.64c1-.68,1-1.69.92-2.84a3.37,3.37,0,0,0-.42-1.49,4,4,0,0,0-.48-.66,2.81,2.81,0,0,0-.31-.29,1.09,1.09,0,0,0-.33-.19c.06.07.1.15.15.22s.29.36.41.56a4.05,4.05,0,0,1,.32.62,4.3,4.3,0,0,1,.29,1.37,3.45,3.45,0,0,1-.22,1.35,2.63,2.63,0,0,1-1,1.25l.73.84A4,4,0,0,0,44,29a1.2,1.2,0,0,0,.65.26.47.47,0,0,0,.21-.06l-.11-.1s0,0,0,0Z"/><path class="cls-1" d="M41.72,28.17c-.15.42-1,.47-2,.11s-1.6-1-1.44-1.4,1-.47,2-.11S41.88,27.75,41.72,28.17Z"/><path class="cls-1" d="M53.72,26.23c.17.62-.87,1.44-2.31,1.81s-2.73.16-2.9-.46.88-1.44,2.31-1.82S53.56,25.6,53.72,26.23Z"/><path class="cls-14" d="M38.4,16.21c0,.13,0,.26,0,.39l.06,1.08c0,.14.14.83.05.92a23,23,0,0,0,4.18-5.74,3.76,3.76,0,0,0,.35-1.42,9.8,9.8,0,0,0,1.87,2.77,9.14,9.14,0,0,0,1.39,1.09,15,15,0,0,1,1.42.81,5.37,5.37,0,0,1-1.64-2.77C48,16.11,51,17.9,54.15,19.16a5.63,5.63,0,0,1-1.47-2.44,17.59,17.59,0,0,0,7.46,5.54,5.94,5.94,0,0,0,1-1.7,8.29,8.29,0,0,0,.32-.86.19.19,0,0,0,0-.07,9,9,0,0,0,.33-1.55,14.09,14.09,0,0,0-1.27-7.34,9.63,9.63,0,0,0-4.51-4.85h0A10.24,10.24,0,0,0,50.38,4.8,17.49,17.49,0,0,0,45,6.3c-.51.22-2.29,1.19-2.29,1.19a6.11,6.11,0,0,0-2.21.58,5.19,5.19,0,0,0-1.82,3.5c-.05.24-.08.48-.11.71a22.22,22.22,0,0,0-.16,2.82c0,.24,0,.48,0,.71S38.4,16.07,38.4,16.21Z"/><path class="cls-14" d="M54.55,24.57c.05-.15.13-.37.24-.64a5.07,5.07,0,0,1,.48-.91,4.24,4.24,0,0,1,.85-1,3.82,3.82,0,0,1,1.14-.63,4.63,4.63,0,0,1,1-.25l.34-.05.22-.15-.09.14h.47l-.63.31L58.2,22A12.43,12.43,0,0,0,57,24.54a17.16,17.16,0,0,0-.5,2.76c0,.37-.08.68-.11.89s0,.33,0,.33,0-.12-.09-.32-.13-.51-.2-.89A7.19,7.19,0,0,1,55.93,26a5.46,5.46,0,0,1,.22-1.69,5.12,5.12,0,0,1,.78-1.53,7,7,0,0,1,.87-1,7.61,7.61,0,0,0-1.24.8,13.71,13.71,0,0,0-1.48,1.53c-.18.22-.33.4-.44.52l-.17.19Z"/><path class="cls-14" d="M56.25,21a27.61,27.61,0,0,1-7.84-4.68,3.23,3.23,0,0,0,1,1.39,11.48,11.48,0,0,1-6.13-4.56,4.81,4.81,0,0,1-.94-2.45,1.07,1.07,0,0,1,.06-.43A1,1,0,0,1,43,9.79,4.5,4.5,0,0,1,46,9.64,10.74,10.74,0,0,1,48.81,11a11.39,11.39,0,0,1,2.13,1.64c1.21,1.26,1.38,2.64,2,4.16A10.54,10.54,0,0,0,56.25,21Z"/><path class="cls-14" d="M45.43,21.36a4.58,4.58,0,0,1-1.7-1.63,12.81,12.81,0,0,1-2.11-5.38A5.27,5.27,0,0,1,42,11c.3-.55,1.46-1.49,1.94-.57.29.56-.39,1.83-.5,2.42a11.1,11.1,0,0,0,.44,5.6A10.32,10.32,0,0,0,45.43,21.36Z"/><path class="cls-15" d="M41.72,10.52l.84-.18a7.06,7.06,0,0,0-.11,2,9.66,9.66,0,0,1,1.66-2.52,9.46,9.46,0,0,0,3.46,2.94A7,7,0,0,1,47,8.45a18,18,0,0,0,6.4,5.62,7.65,7.65,0,0,1,0-2.9A22.2,22.2,0,0,0,61.5,19.7l.1.06-.08-.13a8.79,8.79,0,0,1-1-3.2,14.89,14.89,0,0,0,5.33,4.81c-.21-1.11-.44-2.34-.68-3.72A15.22,15.22,0,0,0,63.67,13a16.94,16.94,0,0,0-7.6-7.14h0A10.24,10.24,0,0,0,50.38,4.8,17.49,17.49,0,0,0,45,6.3l-.19.08c-.65.32-2.1,1.11-2.1,1.11a6.11,6.11,0,0,0-2.21.58,5.19,5.19,0,0,0-1.82,3.5A15.78,15.78,0,0,1,41.72,10.52Z"/><path class="cls-17" d="M44.75,8.06a14.35,14.35,0,0,1,5.84-1.35,15.86,15.86,0,0,0,2,2,2.82,2.82,0,0,1,0-1.7,15.93,15.93,0,0,0,6.5,4.7,6.47,6.47,0,0,1-1.13-2.1A12.17,12.17,0,0,0,63.67,13a16.94,16.94,0,0,0-7.6-7.14h0A10.24,10.24,0,0,0,50.38,4.8,17.49,17.49,0,0,0,45,6.3l-.19.08,1,.34Z"/><path class="cls-17" d="M46,4.22a4.42,4.42,0,0,1,.65-2A4.54,4.54,0,0,1,49.3,0a5.49,5.49,0,0,0-4.62,2.05,2.82,2.82,0,0,0,0,3.39A3.18,3.18,0,0,0,45.5,6a3.85,3.85,0,0,0,1.71.5C46.6,5.76,45.93,5.39,46,4.22Z"/><path class="cls-8" d="M40,43.9s-2.88,1.74-3,4L39.63,72.7S41.41,47.6,40,43.9Z"/><path class="cls-5" d="M80,85H67.65l0,0c.35-.52.72-1.06,1.1-1.6.23-.35.47-.69.72-1l.44-.63.23-.34.36-.51.55-.78L72,78.75l.3-.41.14-.21.3-.41.28-.4.18-.24.16-.21a.83.83,0,0,1,.08-.12l.7-1,.14-.19.54-.73.16-.21.15-.19c.39-.52.76-1,1.09-1.42a2.32,2.32,0,0,0,.21-.25l.16-.2c.31-.37.59-.68.81-.92l.07-.07.13-.13a.65.65,0,0,0,.12-.11l0-.05-.17-.15-.11-.09c-.45-.4-1.34-1.18-2.44-2.17S72.89,67,71.74,66l-.58-.53-.09-.08-.66-.62h0L69,63.42c-.86-.83-1.68-1.64-2.4-2.38l-.81-.86c-.37-.4-.69-.78-1-1.11L64.78,59A4.46,4.46,0,0,1,64,57.72a.5.5,0,0,1,0-.16.25.25,0,0,1,0-.13,5.23,5.23,0,0,0,.37-1.08l.19-.75h0c.1-.45.22-1,.33-1.53.45-2.16.92-4.9,1.27-7,.23-1.41.41-2.53.48-3a.3.3,0,0,1,0-.1v0a.32.32,0,0,0,0-.08h0l0,0,.54.54,1.55,1.6c4.93,5.12,16.85,17.84,18.93,23.06h0c0,.11.08.21.11.31l.09.29C88.75,72.76,84.46,79.27,80,85Z"/><path class="cls-12" d="M81.41,70.56,79.83,72A6.25,6.25,0,0,1,81,72.7a2.17,2.17,0,0,1,.7.86,5.35,5.35,0,0,1-.89-.08,6,6,0,0,1-2.21-.81c-.82,1.06-2,2.64-3.33,4.45h0c-.25.33-.49.67-.75,1L71.77,82C71,83,70.28,84,69.57,85H67.65l0,0c.35-.52.72-1.06,1.1-1.6.23-.35.47-.69.72-1l.44-.63.23-.34.36-.51.55-.78L72,78.75l.3-.41.14-.21.3-.41.28-.4.18-.24.16-.21a.83.83,0,0,1,.08-.12l.7-1,.14-.19.54-.73.16-.21.15-.19c.39-.52.76-1,1.09-1.42a2.32,2.32,0,0,0,.21-.25l.16-.2c.31-.37.59-.68.81-.92l.07-.07.13-.13a.65.65,0,0,0,.12-.11l0-.05-.17-.15-2.88-2.62-2.95-2.7L69,63.42c-.86-.83-1.68-1.64-2.4-2.38l-.81-.86c-.37-.4-.69-.78-1-1.11L64.78,59A4.46,4.46,0,0,1,64,57.72a.5.5,0,0,1,0-.16.25.25,0,0,1,0-.13,5.23,5.23,0,0,0,.37-1.08l.77.79.12.11,4.39,4.45h0l9.23,9.36c.23-.17.46-.32.61-.42a12.16,12.16,0,0,1,2.09-1.15l.35-.15c.15-.06.36-.1.45,0s0,.35-.17.47Z"/><path class="cls-6" d="M80,85H76.57c4.8-6.11,10-13.13,10.09-14.63.09-2.1-12.16-16.94-18-24l-.27-.32c-.6-.72-1.45-1.91-1.65-2.21l.54.54,1.55,1.6c4.93,5.12,16.85,17.84,18.93,23.06h0c0,.11.08.21.11.31l.09.29C88.75,72.76,84.46,79.27,80,85Z"/><path class="cls-8" d="M68.8,46s-2.41-3.7-4.67-4.17c0,0-9.25,33.68,4.67,39.39C68.8,81.25,58.6,68.64,68.8,46Z"/><path class="cls-18" d="M62.85,85.08l0-.06h0A.14.14,0,0,0,62.85,85.08Z"/></g></g></svg>