<svg xmlns="http://www.w3.org/2000/svg" viewBox="0 0 70.27 86.57"><defs><style>.cls-1{fill:#007c7e;}.cls-2{fill:#006060;}.cls-3{fill:#63ccca;}.cls-4{fill:#ffa07f;}.cls-5{fill:#171228;}.cls-6{fill:#909aa3;}.cls-7{fill:#cf4a57;}.cls-8{fill:#ffbf90;}.cls-9{fill:#118c8c;}.cls-10{fill:#4f83a7;}.cls-11{fill:#749ec2;}.cls-12{fill:#ff9300;}.cls-13{fill:#cf691f;}.cls-14{fill:#fff0e7;}.cls-15{fill:#651924;}.cls-16{fill:#7e2426;}.cls-17{fill:#fdbd8e;}.cls-18{fill:#fb9988;}.cls-19{fill:#ffdaba;}.cls-20{fill:#fd7d6f;}.cls-21{fill:#161818;}.cls-22{fill:#a94739;}.cls-23{fill:#edb838;}.cls-24{fill:#ffd455;}.cls-25{fill:#940b20;}.cls-26{fill:#ac1426;}.cls-27{fill:#ff7d6f;}.cls-28{fill:none;}</style></defs><title>phone_scrollingРесурс 9</title><g id="Слой_2" data-name="Слой 2"><g id="OBJECTS"><path class="cls-1" d="M41.69,66s6.93,16.37,14.42,16.47c1.32,0,2.48-.9,3.49-2.43,4.73-7.13,6.25-27.53,6.25-27.53l-5.08-2.24c-.19.45-.55,1.54-1,3-.61,1.94-1.37,4.54-2.13,7.14-1.51,5.19-3,10.37-3,10.37-.49-1.53-1.92-4.76-3.06-7.24-.84-1.83-1.51-3.24-1.51-3.24l-.63.43-7.31,4.95Z"/><path class="cls-2" d="M59.6,80c3.11-7.87,4.29-23.1,3.14-23.48s-2.34-2.24-3-3.29c.45-1.46.81-2.55,1-3l5.08,2.24S64.33,72.89,59.6,80Z"/><path class="cls-3" d="M60.35,50.11s-1.37,1.42-1.43,2.1.54,4.4,2.83,5.21S67,56.91,67,56.91s1.9-4,1-5-2.72-3.91-2.8-3.82S60.35,50.11,60.35,50.11Z"/><path class="cls-4" d="M61.75,53.3s-3.17-7.66-3.46-10.59a.67.67,0,0,1,.88-.7c2.21.79,6.56,7.76,6.56,7.76Z"/><rect class="cls-5" x="59.22" y="37.85" width="8.16" height="13.51" rx="0.76" ry="0.76" transform="matrix(0.97, 0.25, -0.25, 0.97, 13.33, -14.55)"/><path class="cls-6" d="M62.72,39.27a.61.61,0,0,1-.74.44.61.61,0,0,1,.31-1.18A.62.62,0,0,1,62.72,39.27Z"/><path class="cls-4" d="M66.48,55.32a9.86,9.86,0,0,1-4.84-1.39,5.86,5.86,0,0,1,.11-1.69,7.64,7.64,0,0,1,.17-.77,14.16,14.16,0,0,1,.61-1.76c.1-.26.21-.52.32-.78.31-.68.64-1.34,1-2,.13-.26.27-.51.41-.75.37-.65.71-1.2,1-1.62l.5-.76c2.11.52,4.58,2.9,4.58,2.9a8.31,8.31,0,0,1-.39,2.5A19.36,19.36,0,0,1,66.48,55.32Z"/><path class="cls-7" d="M67.16,48.06s-.3-.05-.74-.16a12.29,12.29,0,0,1-1.61-.48,10.4,10.4,0,0,1-1-.44c.13-.26.27-.51.41-.75a4.51,4.51,0,0,1,1,.23,4.25,4.25,0,0,1,1.5,1A3.44,3.44,0,0,1,67.16,48.06Z"/><path class="cls-7" d="M65.73,50.6a6.65,6.65,0,0,1-.71-.1,8.83,8.83,0,0,1-1.56-.39,8.12,8.12,0,0,1-.93-.4c.1-.26.21-.52.32-.78a4,4,0,0,1,1,.21,4.06,4.06,0,0,1,1.44.91A3.13,3.13,0,0,1,65.73,50.6Z"/><path class="cls-7" d="M65.17,53.23s-.3,0-.75-.09a10.13,10.13,0,0,1-1.65-.43,8.14,8.14,0,0,1-1-.47,7.64,7.64,0,0,1,.17-.77,5.24,5.24,0,0,1,1.2.27,4.84,4.84,0,0,1,1.53.94A3.65,3.65,0,0,1,65.17,53.23Z"/><path class="cls-8" d="M69.88,49.25a5.73,5.73,0,0,0-.94-1.94A7.1,7.1,0,0,0,67.46,46a12.51,12.51,0,0,0-1.94-1.28,3.17,3.17,0,0,0-.33-.11l.5-.76c2.11.52,4.58,2.9,4.58,2.9A8.31,8.31,0,0,1,69.88,49.25Z"/><path class="cls-1" d="M43.77,46.08H41.83v13.1H37.94L41.69,66l9.07-2.14.85-.32h0S47.71,52.92,43.77,46.08Z"/><path class="cls-9" d="M57.64,60.39c-1.51,5.19-3,10.37-3,10.37-.49-1.53-1.92-4.76-3.06-7.24h0s-3.91-10.6-7.85-17.44h-.33l6,14.63,1.29,3.13,3,7.32s-1,2.43-.51,2.7,1.35-1.71,1.35-1.71,1.62,2.53,2,2.61-1-4-1-4Z"/><path class="cls-10" d="M44.25,86.57H27.45V83.28l2-.16L30.89,83l4.45.58,2.69.35.93.12.16,0h0l.92.12h0l3.88.51C44,85.26,44.14,85.89,44.25,86.57Z"/><path class="cls-11" d="M27.45,86.57h8.49l-.15-.74,0-.18-.41-2.07-.23-1.12H20.69c-.11.5-.24,1.07-.37,1.71-.06.29-.12.59-.19.9,0,0,0,.05,0,.08-.06.29-.13.6-.19.91s-.07.34-.1.51h7.62Z"/><path class="cls-10" d="M21.86,86.57h-2c0-.17.07-.34.1-.51s.13-.62.19-.91c0,0,0-.06,0-.08.07-.31.13-.61.19-.9.13-.64.26-1.21.37-1.71h1.68c-.08.59-.15,1.22-.23,1.88l-.12.89c0,.13,0,.26-.05.39,0,.3-.07.6-.1.91C21.87,86.54,21.86,86.55,21.86,86.57Z"/><path class="cls-12" d="M13.06,52.34S-1.13,59.92.36,70.06,5.43,80.24,5.43,80.24l7.63-8.43,6.27-14.68Z"/><path class="cls-13" d="M27.45,86.57h2.26l-.07-1,0-.5-.15-1.94-.05-.66-.15-1.95-.09-1.24h0l0-.28L29,77.3l-.14-1.91-.09-1.13V74.1l-.14-1.78-.45-6L28.06,65l-.42-.43-.15-.16-1.58-1.62L25.14,62l-.3-.31-.76-.78-.2-.21-1-1-2.49-2.57-.26-.27L19,55.69l-1.12-1.16-.08-.08h0l-.64-.66s-.3.39-.79,1.11c0,.06-.09.13-.14.2l-.06.08a68.35,68.35,0,0,0-8,15.48c-.16.48-.31,1-.46,1.44-.3,1-.57,2-.8,3a34.69,34.69,0,0,0-.7,4.26c0,.54-.08,1.08-.09,1.62a21.26,21.26,0,0,0,.51,5.64H27.45Z"/><path class="cls-1" d="M27.45,86.57H44.78a36.3,36.3,0,0,0-2-7.49s-.07-.79-.18-2.06v0c0-.16,0-.32,0-.49s0-.47-.06-.73v0s0-.12,0-.23a2.5,2.5,0,0,0,0-.25c0-.22,0-.5-.06-.83v0a.13.13,0,0,1,0-.06s0,0,0-.06c0-.45-.07-.93-.1-1.41h0c0-.67-.09-1.35-.14-2.05h0c-.06-1-.12-2-.17-3,0,0,0,0,0,0l0-.56,0-.59v0c0-.21,0-.43,0-.64v-.1a36.15,36.15,0,0,1,0-4.31,2.86,2.86,0,0,1,.2-.88v0a5.31,5.31,0,0,0,.3-.64c2-4.33,2.57-9.72.7-13.89a10.36,10.36,0,0,0-1.29-2.17,9.5,9.5,0,0,0-1.52-1.59,24,24,0,0,0-2.48-1.87l-.45-.29-.84-.49a13.23,13.23,0,0,0-1.76-.8,7.94,7.94,0,0,0-.81-.25l-.22,0-.55-.1-.27,0H32.8s0,0,0,0H25.73s0,0,0,0l-.81.21-.16,0-.09,0-.08,0-.7.22-.43.13L23,39.3h0a20.26,20.26,0,0,0-2.87,1.43c-.44.26-.88.53-1.29.8h0l-.12.08-.06,0-.37.25h0l-.4.28a4.41,4.41,0,0,0-1.26,1.18,11.65,11.65,0,0,0-.68,2.65c-.09.52-.16,1.11-.21,1.75h0A22,22,0,0,0,16,53.9h0A.5.5,0,0,0,16,54l.12.62h0c0,.17.07.34.11.51.32,1.6.67,3.29,1.05,5a.06.06,0,0,1,0,0c0,.07,0,.13,0,.2.07.31.13.62.21.94,0,.15.06.29.1.44v0l.57,2.71c.14.61.28,1.21.4,1.81v0c.35,1.56.68,3,1,4.48v0c.09.4.17.78.25,1.16h0c0,.06,0,.12,0,.18.07.35.15.7.22,1,.11.58.23,1.12.33,1.65h0c.21,1.06.38,2,.51,2.82.07.39.12.74.16,1a9.25,9.25,0,0,1,.1,1.29s-.07.14-.18.39c-.3.62-.9,1.91-1.61,3.57v0l-.1.25a1.78,1.78,0,0,0-.12.29h0L19,85.1q-.3.7-.6,1.47h9.1Z"/><path class="cls-2" d="M39.51,61.56l-.69,0-1.88-.12a18.6,18.6,0,0,0-5.91.39c-.55.14-1.11.32-1.67.47a15.08,15.08,0,0,1-1.67.35,13,13,0,0,1-2.87.09,4.47,4.47,0,0,1-1.11-.21,2.41,2.41,0,0,1-.77-.39,1.79,1.79,0,0,1-.37-.39l-.09-.16.14.12a1.49,1.49,0,0,0,.43.24,3.54,3.54,0,0,0,1.76.1,21.73,21.73,0,0,0,2.65-.55c.49-.13,1-.29,1.51-.47s1.1-.38,1.71-.54a10.08,10.08,0,0,1,3.57-.27,15.14,15.14,0,0,1,2.8.54c.78.22,1.39.43,1.81.59S39.51,61.56,39.51,61.56Z"/><path class="cls-14" d="M41.89,43.9c-1.52,2.1-2.68,5.42-9.07,5.92-7.4.59-12.12-6.43-12.72-9.08A20.26,20.26,0,0,1,23,39.31l0,0,.87-.29c1.12-.35,2-.55,2-.55H32.8a5.21,5.21,0,0,1,1.23.17h0c.24.07.51.15.81.26a14.44,14.44,0,0,1,3,1.58,25.33,25.33,0,0,1,2.48,1.86A9.9,9.9,0,0,1,41.89,43.9Z"/><path class="cls-15" d="M42.38,33.31a5.34,5.34,0,0,0,1,5.3A9.44,9.44,0,0,1,39.23,36,3.51,3.51,0,0,0,39,38.57a5.52,5.52,0,0,1-3.93-2.94L34.13,38a10.9,10.9,0,0,0-.61-3.76,3.42,3.42,0,0,0-.13-.34,4.51,4.51,0,0,0-.57.31,5.13,5.13,0,0,0-2.33,3.54,4.92,4.92,0,0,1-3.85-3.56l-2,3.4A5.51,5.51,0,0,0,23,34.31a3.19,3.19,0,0,0-.12,3.34A4.25,4.25,0,0,1,19.54,34a5.47,5.47,0,0,1-2.27,4.25c1.15-1.6-1.57-3.77-.81-5.59-1,.66-.93,2.1-1,3.28s-.72,2.69-1.89,2.52c.57-1.28-.21-2.72-.85-4-.45-.88-.05-2.72.59-4.06a23.06,23.06,0,0,0,1.78-5c.24-1.1.52-2.47.85-4.14.21-1.11.44-2.35.68-3.72a15.43,15.43,0,0,1,5.17-9,16.08,16.08,0,0,1,4-2.61h0c4.38,0,9,1.86,12.85,3.84.5.25,1,.51,1.47.8a6.8,6.8,0,0,1,1.4,1.1,6.13,6.13,0,0,1,1.13,1.71,12.33,12.33,0,0,1,.78,2.48c.06.28.12.56.17.84a69.68,69.68,0,0,1,1.18,10c.11,2.35.54,9.79,1.74,11.81a8.78,8.78,0,0,1-3.21-2.86C42.54,34.28,42.59,32.75,42.38,33.31Z"/><path class="cls-16" d="M31.8,34c.33.07.68.13,1,.17a5.13,5.13,0,0,0-2.33,3.54,4.92,4.92,0,0,1-3.85-3.56l-2,3.4A5.51,5.51,0,0,0,23,34.31a3.19,3.19,0,0,0-.12,3.34A4.25,4.25,0,0,1,19.54,34a5.47,5.47,0,0,1-2.27,4.25c1.15-1.6-1.57-3.77-.81-5.59-1,.66-.93,2.1-1,3.28s-.72,2.69-1.89,2.52c.57-1.28-.21-2.72-.85-4-.45-.88-.05-2.72.59-4.06a23.06,23.06,0,0,0,1.78-5c.24-1.1.52-2.47.85-4.14.21-1.11.44-2.35.68-3.72a15.43,15.43,0,0,1,5.17-9c-.36.75-1,1.57-1.24,2A30.55,30.55,0,0,0,19,14.35c-.52,1.5-1,3-1.34,4.57-1.16,4.68-1.89,9.49-3.5,14a9.21,9.21,0,0,0,3.32-3,9.62,9.62,0,0,0,1,3.28c.24-.87.48-1.75.73-2.62.6.75,1.21,1.49,1.82,2.23a6.15,6.15,0,0,1,.47-2.27,9.78,9.78,0,0,1,2.16,2.33,4.27,4.27,0,0,0,.37-1.8C26.19,32.86,29.05,33.47,31.8,34Z"/><path class="cls-16" d="M42.38,33.31a5.34,5.34,0,0,0,1,5.3A9.44,9.44,0,0,1,39.23,36,3.51,3.51,0,0,0,39,38.57a5.52,5.52,0,0,1-3.93-2.94L34.13,38a10.9,10.9,0,0,0-.61-3.76,3.11,3.11,0,0,0,.61-.1,1.69,1.69,0,0,0,1.32-1.71l1.35,2c.55-.89,1.1-1.77,1.64-2.66a9.6,9.6,0,0,0,2.31,2.61,5.9,5.9,0,0,1,1-3.24,7.55,7.55,0,0,0,3,2.22q-1.05-10-2.09-20a12.33,12.33,0,0,1,.78,2.48c.06.28.12.56.17.84a69.68,69.68,0,0,1,1.18,10c.11,2.35.54,9.79,1.74,11.81a8.78,8.78,0,0,1-3.21-2.86C42.54,34.28,42.59,32.75,42.38,33.31Z"/><path class="cls-17" d="M37.89,40.44a8.39,8.39,0,0,1-5.67,5.76C27.27,47.85,24,41.63,23,39.29c1.51-.53,2.86-.84,2.86-.84h6.93a4.77,4.77,0,0,1,1.24.17h0a7.94,7.94,0,0,1,.81.25A15.19,15.19,0,0,1,37.89,40.44Z"/><path class="cls-17" d="M32,45.24l-6.1-6.79c0-1,.09-1.39.19-3.89.09-2.78.2-5.39.2-5.39l7.84,3.1a18.41,18.41,0,0,0-1.4,6.33A52.28,52.28,0,0,1,32,45.24Z"/><path class="cls-18" d="M34.09,32.27a18.41,18.41,0,0,0-1.4,6.33l-.72.28c-.91.31-3.84-2.28-5.92-4.32.09-2.78.2-5.39.2-5.39Z"/><path class="cls-17" d="M42.32,23c-.16.72-.36,1.48-.62,2.28,0,0,.35,3.93-.06,4.81s-3,6.37-5.83,6c-2.32-.29-8-3.68-10-5.7a2.42,2.42,0,0,1-.69-1c-.27-1.56-1.19-8.43-1.28-9C23.65,18.8,23,7,37.27,10.28a6.89,6.89,0,0,1,5.18,5.16A17.25,17.25,0,0,1,42.32,23Z"/><path class="cls-19" d="M41.7,25.24s.35,3.93-.06,4.81-3,6.37-5.83,6c-2.32-.29-8-3.68-10-5.7,2.41,1.67,8.84,5.95,10.73,5.29,2.34-.81,5-6,4.93-6.5s-.21-3.86-.21-3.86.47-1.06,1-2.35C42.16,23.68,42,24.44,41.7,25.24Z"/><path class="cls-19" d="M25.81,29.17A5.45,5.45,0,0,1,22,27.08a4.64,4.64,0,0,1-.38-.56c-.51-.93-.66-4.15.66-4.9.92-.52,1.59.24,1.91.74h0a3.11,3.11,0,0,1,.21.38Z"/><path class="cls-17" d="M25.81,29.17A5.45,5.45,0,0,1,22,27.08l-.16-.26c-.51-.93-.66-4.15.66-4.89a1.25,1.25,0,0,1,1.69.43h0a3.11,3.11,0,0,1,.21.38Z"/><path class="cls-18" d="M21.88,24.18a1.49,1.49,0,0,0,.06.78,6.36,6.36,0,0,0,2.48,2.67,2.7,2.7,0,0,1-.37-1.69,4.07,4.07,0,0,0,.07-.61C24.13,24.53,22.27,22.66,21.88,24.18Z"/><path class="cls-20" d="M24.93,27.93l-.05,0-.17-.1a2.23,2.23,0,0,1-.51-.46,2.1,2.1,0,0,1-.42-.86,1.82,1.82,0,0,1,.13-1.13.64.64,0,0,1,.08-.14l0,0h0l0,0,0-.06L23.88,25a2.88,2.88,0,0,0-.31-.44,4.29,4.29,0,0,0-.33-.38,2.34,2.34,0,0,0-.33-.31.76.76,0,0,0-.33-.15.59.59,0,0,0-.28,0c-.08,0-.12.08-.13.11a.15.15,0,0,0,0,.06.09.09,0,0,1,0-.06.26.26,0,0,1,.11-.14.56.56,0,0,1,.33-.11.93.93,0,0,1,.44.13,2.7,2.7,0,0,1,.4.29,4.49,4.49,0,0,1,.4.37,3.94,3.94,0,0,1,.36.45l.09.13,0,.07.05.09,0,.06a.43.43,0,0,0,0,.07l-.05.09a.75.75,0,0,0-.07.12,1.9,1.9,0,0,0-.16,1,2,2,0,0,0,.27.82,2.56,2.56,0,0,0,.39.5l.14.12Z"/><path class="cls-16" d="M43.61,20.13s-1.82-2.44-2.84-1.47-.56,1.06-.56,1.06Z"/><path class="cls-16" d="M29,20.55s4.08-3.11,5.15-1.49c.62,1,0,1.37,0,1.37Z"/><path class="cls-21" d="M41.71,21.91a1.5,1.5,0,0,1-.74.64.68.68,0,0,0-.46-.21c-.5,0-.9.65-.9,1.44s.4,1.43.9,1.43.89-.64.89-1.43a2.05,2.05,0,0,0-.16-.81A2.64,2.64,0,0,0,41.71,21.91Z"/><path class="cls-21" d="M33.71,21.29a2.19,2.19,0,0,1-1.08.93.93.93,0,0,0-.69-.36c-.65,0-1.18.86-1.18,1.91s.53,1.9,1.18,1.9,1.19-.85,1.19-1.9a2.79,2.79,0,0,0-.14-.9A3.49,3.49,0,0,0,33.71,21.29Z"/><path class="cls-14" d="M29.63,22.7a2.64,2.64,0,0,0,1.14.95,2.7,2.7,0,0,0,1.47.11,2.73,2.73,0,0,0-1.14-.94A2.65,2.65,0,0,0,29.63,22.7Z"/><path class="cls-14" d="M42.17,23.08a2.22,2.22,0,0,1-.83.63,2.08,2.08,0,0,1-1,.12,1.95,1.95,0,0,1,1.86-.75Z"/><path class="cls-18" d="M36.47,27.76a2.26,2.26,0,0,0-.9-.23,3,3,0,0,0,1.62,1.56.53.53,0,0,0,.17,0,.54.54,0,0,0,.21-.08,3.54,3.54,0,0,0,1-.91.7.7,0,0,0,.13-.24c.07-.3-.14-.23-.32-.16a2.73,2.73,0,0,1-.64.16A2.7,2.7,0,0,1,36.47,27.76Z"/><path class="cls-20" d="M37.26,28.92c.18-.17.38-.31.57-.47a4.84,4.84,0,0,0,.64-.64c-1-.68-1-1.69-.92-2.84A3.37,3.37,0,0,1,38,23.48a3.09,3.09,0,0,1,.48-.66,2.72,2.72,0,0,1,.3-.29,1.14,1.14,0,0,1,.34-.19c-.06.07-.1.15-.16.22s-.29.36-.41.56a4.48,4.48,0,0,0-.31.62,4,4,0,0,0-.29,1.37,3.31,3.31,0,0,0,.22,1.35,2.67,2.67,0,0,0,1,1.25s-.66.78-.73.84a3.93,3.93,0,0,1-.55.44,1.26,1.26,0,0,1-.66.26.4.4,0,0,1-.21-.07.47.47,0,0,0,.12-.09l0,0A.86.86,0,0,1,37.26,28.92Z"/><path class="cls-20" d="M35.58,31.91a2.82,2.82,0,0,0,2.36.07,1.2,1.2,0,0,1-1.08.58A1.94,1.94,0,0,1,35.58,31.91Z"/><path class="cls-20" d="M32.83,29.84a7.12,7.12,0,0,0,6.55.9,10.44,10.44,0,0,1-3.57,0A8.05,8.05,0,0,1,32.83,29.84Z"/><path class="cls-18" d="M40.13,28.17c.16.42,1.06.47,2,.11s1.61-1,1.45-1.4-1.06-.47-2-.11S40,27.75,40.13,28.17Z"/><path class="cls-18" d="M28.13,26.23c-.16.62.87,1.44,2.31,1.81s2.74.16,2.9-.46-.87-1.44-2.31-1.82S28.29,25.6,28.13,26.23Z"/><path class="cls-15" d="M43.45,16.21c0,.13,0,.26,0,.39l-.06,1.08c0,.14-.13.83-.05.92a22.91,22.91,0,0,1-4.17-5.74,3.76,3.76,0,0,1-.35-1.42,10,10,0,0,1-1.87,2.77,9.66,9.66,0,0,1-1.39,1.09,15,15,0,0,0-1.42.81,5.44,5.44,0,0,0,1.64-2.77c-1.91,2.77-4.94,4.56-8.06,5.82a5.7,5.7,0,0,0,1.46-2.44,17.53,17.53,0,0,1-7.46,5.54,5.94,5.94,0,0,1-1-1.7,8.29,8.29,0,0,1-.32-.86.19.19,0,0,0,0-.07A9,9,0,0,1,20,18.08a14,14,0,0,1,1.26-7.34,9.69,9.69,0,0,1,4.52-4.85h0A10.27,10.27,0,0,1,31.48,4.8a17.49,17.49,0,0,1,5.35,1.5c.5.22,2.28,1.19,2.28,1.19a6.15,6.15,0,0,1,2.22.58,5.23,5.23,0,0,1,1.82,3.5c0,.24.08.48.11.71a24.24,24.24,0,0,1,.16,2.82c0,.24,0,.48,0,.71S43.45,16.07,43.45,16.21Z"/><path class="cls-15" d="M27.31,24.57c0-.15-.13-.37-.24-.64a6.81,6.81,0,0,0-.48-.91,4.29,4.29,0,0,0-.86-1,3.59,3.59,0,0,0-1.14-.63,4.55,4.55,0,0,0-1-.25l-.34-.05L23,21l.08.14h-.46l.63.31c.1.17.23.38.37.63a11.44,11.44,0,0,1,1.18,2.52,15.2,15.2,0,0,1,.5,2.76c.05.37.09.68.11.89s0,.33,0,.33,0-.12.09-.32.14-.51.21-.89A8.13,8.13,0,0,0,25.93,26a5.46,5.46,0,0,0-.22-1.69,5.36,5.36,0,0,0-.78-1.53,7.77,7.77,0,0,0-.87-1,7.55,7.55,0,0,1,1.23.8,12.12,12.12,0,0,1,1.48,1.53l.45.52.17.19Z"/><path class="cls-15" d="M25.6,21a27.61,27.61,0,0,0,7.84-4.68,3.21,3.21,0,0,1-1,1.39,11.46,11.46,0,0,0,6.12-4.56,4.72,4.72,0,0,0,.94-2.45,1.06,1.06,0,0,0,0-.43,1,1,0,0,0-.57-.49,4.5,4.5,0,0,0-3-.15A11,11,0,0,0,33,11a11.32,11.32,0,0,0-2.12,1.64c-1.22,1.26-1.39,2.64-2,4.16A10.48,10.48,0,0,1,25.6,21Z"/><path class="cls-15" d="M36.42,21.36a4.5,4.5,0,0,0,1.7-1.63,12.81,12.81,0,0,0,2.11-5.38A5.34,5.34,0,0,0,39.85,11c-.3-.55-1.46-1.49-1.94-.57-.29.56.39,1.83.49,2.42a10.89,10.89,0,0,1-.44,5.6A10.07,10.07,0,0,1,36.42,21.36Z"/><path class="cls-16" d="M40.13,10.52c-.27-.07-.55-.13-.83-.18a7.06,7.06,0,0,1,.1,2,9.18,9.18,0,0,0-1.66-2.52,9.42,9.42,0,0,1-3.45,2.94,7,7,0,0,0,.58-4.31,18.15,18.15,0,0,1-6.41,5.62,7.65,7.65,0,0,0,0-2.9,22.15,22.15,0,0,1-8.08,8.53l-.09.06.07-.13a8.79,8.79,0,0,0,1-3.2A15.8,15.8,0,0,1,20,18.08a14.92,14.92,0,0,1-4,3.16c.21-1.11.44-2.35.68-3.72A14.94,14.94,0,0,1,18.19,13a16.84,16.84,0,0,1,7.6-7.14h0A10.27,10.27,0,0,1,31.48,4.8a17.49,17.49,0,0,1,5.35,1.5l.19.08c.65.32,2.09,1.11,2.09,1.11a6.15,6.15,0,0,1,2.22.58,5.23,5.23,0,0,1,1.82,3.5A16.12,16.12,0,0,0,40.13,10.52Z"/><path class="cls-22" d="M37.11,8.06a14.39,14.39,0,0,0-5.84-1.35,16.66,16.66,0,0,1-2,2,2.74,2.74,0,0,0,0-1.7,15.83,15.83,0,0,1-6.49,4.7A6.67,6.67,0,0,0,24,9.58,12.17,12.17,0,0,1,18.19,13a16.84,16.84,0,0,1,7.6-7.14h0A10.27,10.27,0,0,1,31.48,4.8a17.49,17.49,0,0,1,5.35,1.5l.19.08-1,.34Z"/><path class="cls-22" d="M35.88,4.22a4.42,4.42,0,0,0-.65-2A4.59,4.59,0,0,0,32.55,0a5.51,5.51,0,0,1,4.63,2.05,2.8,2.8,0,0,1,0,3.39,2.88,2.88,0,0,1-.8.58,3.77,3.77,0,0,1-1.72.51C35.26,5.76,35.93,5.39,35.88,4.22Z"/><path class="cls-1" d="M.25,75.55s6.06-24.8,14.5-30.31c0,0,5.25,14.26,4.58,16.69s-6.77,12.7-6.77,12.7Z"/><path class="cls-12" d="M13.06,46s2.41-3.7,4.66-4.17c0,0,9.26,33.68-4.66,39.39C13.06,81.25,23.26,68.64,13.06,46Z"/><path class="cls-12" d="M41.89,43.9s2.89,1.74,3,4L42.54,75.78S40.45,47.6,41.89,43.9Z"/><polygon class="cls-23" points="16.72 82.56 17.88 82.66 18.99 84.04 39.04 85.96 39.23 81.75 40.29 56.93 38.03 55.21 17.93 54.34 16.72 82.56"/><polygon class="cls-14" points="17.88 82.66 18.55 83.48 19.88 85.14 37.95 85.92 38.12 81.87 39.17 57.55 37.14 55.87 19.07 55.09 17.88 82.66"/><rect class="cls-24" x="15.09" y="60.96" width="29.06" height="20.12" transform="translate(-42.6 97.55) rotate(-87.53)"/><rect class="cls-14" x="28.3" y="56.14" width="3.35" height="13.31" transform="translate(-34.05 90.04) rotate(-87.54)"/><path class="cls-25" d="M27.45,86.57h12l0-.08.56-2.3,1-4.27h0l.19-.8.15-.63h0l.2-.86h0l.16-.67.17-.72.45-1.81v-.08h0l.31-1.29V73l.76-3.12,1.11-4.56h0l.39-1.57.33-1.36-1.55-1.74-.34-.39-1-.25-.87-.21-1.43-.35-.92-.22-.16,0L27.81,56.4,24,55.46l-.19.76-.84,3.46-3,12.41h0l0,.17-.23.94-.19.8h0l-1.31,5.37-.12.47-.24,1-.43,1.77-.07.28,1,.3h0l.06,0,.09.17h0l.4.76.11.21h0l.14.29.07.12.52.16h0l.4.12.32.09h0l1.5.45,3.16.95Z"/><polygon class="cls-14" points="27.45 86.57 29.71 86.57 35.94 86.57 38.35 86.57 38.39 86.39 38.5 85.95 38.5 85.92 38.96 84.05 39.16 83.26 39.16 83.25 39.16 83.21 39.17 83.19 39.94 80.02 40.22 78.89 40.32 78.45 40.58 77.4 40.72 76.82 40.76 76.65 40.94 75.91 40.94 75.9 41.31 74.38 41.71 72.76 42.18 70.82 42.18 70.81 42.2 70.75 42.79 68.35 42.79 68.34 43.38 65.89 43.38 65.87 43.39 65.84 43.46 65.57 43.69 64.63 44.15 62.74 43.7 62.18 43.45 61.88 42.49 60.69 42.18 60.61 41.64 60.48 40.15 60.12 39.07 59.86 38.19 59.64 24.92 56.41 23.88 60.66 23.83 60.86 23.55 62.04 23.46 62.4 23.3 63.03 23.3 63.04 23.3 63.05 21.04 72.31 21.04 72.33 20.76 73.45 20.4 74.95 20.4 74.96 19.37 79.16 19.17 79.98 18.99 80.73 18.38 83.22 18.47 83.39 18.47 83.4 18.87 84.16 18.98 84.37 18.99 84.38 19.14 84.66 19.2 84.79 19.37 85.12 19.86 86.04 19.93 86.06 21.87 86.53 22.03 86.57 25.13 86.57 27.45 86.57"/><path class="cls-26" d="M27.45,86.57h12l.58-2.38,1-4.27h0l.19-.8h0l.15-.63.21-.86.16-.67.18-.72.44-1.81v0l0-.06.31-1.29V73l.76-3.12,1.11-4.56h0l.39-1.57.33-1.36L43.72,62l-.27-.07L42,61.52l-.29-.07-1.57-.38L39,60.8l-.23,0-13-3.16L25,60.91l-.18.74-.09.37-.16.66-.38,1.55-2,8.3v0L21.9,73.7l-1,4.08-.28,1.14-.41,1.68-.84,3.48h0v0l-.07.29-.09.38-.08.32-.17.71.91.22.07,0,1.94.47.16,0h5.42Z"/><rect class="cls-14" x="32.44" y="59.43" width="3.35" height="13.31" transform="translate(-38.17 83.58) rotate(-76.3)"/><path class="cls-1" d="M31.05,74.69,30.76,79s-.75.15-2,.37C24.48,80.1,14.22,81.72,7.19,81,2.93,80.63-.14,79.38,0,76.61c0,0,0-2.22,3-4.3H3a13.8,13.8,0,0,1,1.95-1.12C8.8,69.36,23,72.65,28.69,74.08h0C30.15,74.44,31.05,74.69,31.05,74.69Z"/><path class="cls-9" d="M28.76,79.33C24.48,80.1,14.22,81.72,7.19,81c7.88-.8,21.5-3.74,21.5-3.74Z"/><path class="cls-4" d="M43.79,73.36c0-.58-9.31-1.6-9.31-1.6A6.6,6.6,0,0,0,37,68.23v0a.38.38,0,0,0,0-.36.3.3,0,0,0-.17-.08,1.83,1.83,0,0,0-1.48.38,13.13,13.13,0,0,0-1.16,1.08,7.73,7.73,0,0,1-2.65,1.39c-1.59.61-2.27,3.62-2.27,3.62l-.58,0V79h2.07l1.07.76c.84.44,9.76.54,9.94,0a4,4,0,0,0,.11-.5c0-.26.07-.51.08-.68s0-.19,0-.19a4.62,4.62,0,0,0,.37-.61,3.54,3.54,0,0,0,.29-.63.68.68,0,0,0,0-.55A3.89,3.89,0,0,0,41.29,76c-1.76-.52-4.59-1.16-4.44-1.31s6.65-.38,6.65-.38a1.26,1.26,0,0,0,.23-.4A1.35,1.35,0,0,0,43.79,73.36Z"/><path class="cls-27" d="M42.62,76.53A3.89,3.89,0,0,0,41.29,76c-.38.38-.68.92-1,1.25a5.07,5.07,0,0,1-2,1.09,7.89,7.89,0,0,1-3.77-.09c-1.24-.27-2.46-.66-3.71-.84a14,14,0,0,0-2-.11l.07,2,2-.37,1.07.76c.84.44,9.76.54,9.94,0a4,4,0,0,0,.11-.5c0-.26.07-.51.08-.68s0-.19,0-.19a4.62,4.62,0,0,0,.37-.61,3.54,3.54,0,0,0,.29-.63A.68.68,0,0,0,42.62,76.53Z"/><path class="cls-7" d="M42.35,77.71l-.51-.07a14.29,14.29,0,0,1-2.51-.6,10,10,0,0,1-1-.39c.05,0,.45,0,1.06,0s1.56.13,2.55.27l.69.11A4.34,4.34,0,0,1,42.35,77.71Z"/><path class="cls-7" d="M41.88,79.19A15.14,15.14,0,0,1,39,78.53a15,15,0,0,1,3,0C42,78.68,41.92,78.93,41.88,79.19Z"/><path class="cls-8" d="M37,67.83a.3.3,0,0,0-.17-.08,1.83,1.83,0,0,0-1.48.38,13.13,13.13,0,0,0-1.16,1.08,7.73,7.73,0,0,1-2.65,1.39c-1.59.61-2.27,3.62-2.27,3.62l-.58-.14V75.4h.08a1.64,1.64,0,0,0,.76-.18,1.54,1.54,0,0,0,.53-.78,8.41,8.41,0,0,1,1.42-2.72c.84-.88,2.08-1.24,3.07-2a8.36,8.36,0,0,1,2.18-1.49l.32-.09A.38.38,0,0,0,37,67.83Z"/><path class="cls-2" d="M28.77,75.4s-16.71-4.59-21-3.31L13.24,71l4.32-7.94,0,3-3,5.08s10.75,1.71,14.12,2.91Z"/><path class="cls-3" d="M26.91,73s.1,7.17.71,7.57S30,80.24,30,80.24s0-7.52-.68-7.88S26.91,73,26.91,73Z"/><line class="cls-28" x1="27.45" y1="86.57" x2="25.13" y2="86.57"/></g></g></svg>