<svg xmlns="http://www.w3.org/2000/svg" viewBox="0 0 58.53 85.06"><defs><style>.cls-1{fill:#007c7e;}.cls-2{fill:#006060;}.cls-3{fill:#ff9300;}.cls-4{fill:#cf691f;}.cls-5{fill:#749ec2;}.cls-6{fill:#4f83a7;}.cls-7{fill:#fff0e7;}.cls-8{fill:#651924;}.cls-9{fill:#7e2426;}.cls-10{fill:#fdbd8e;}.cls-11{fill:#fb9988;}.cls-12{fill:#ffdaba;}.cls-13{fill:#fd7d6f;}.cls-14{fill:#161818;}.cls-15{fill:#a94739;}.cls-16{fill:#118c8c;}</style></defs><title>regularРесурс 3</title><g id="Слой_2" data-name="Слой 2"><g id="OBJECTS"><path class="cls-1" d="M58.53,85.06H51.19c-.44-1.11-.88-2.25-1.32-3.36h0c-.5-1.28-1-2.53-1.45-3.69-1.27-3.26-2.25-5.75-2.35-6s-.06-2,0-4.77c.11-6.36.43-17.33.57-21.76,0-.41,0-.77,0-1.06,0-.56,0-.88,0-.88a5.93,5.93,0,0,1,.77.54l.06,0,.06,0,.63.53a13.7,13.7,0,0,1,1,1,11.8,11.8,0,0,1,1.49,2.16h0a12.16,12.16,0,0,1,.84,2c1.42,4.37,4.93,27.38,4.93,27.38Z"/><path class="cls-2" d="M49.31,76.46c-.08.62,1.67,4.54,3.59,8.59H51.19c-.44-1.11-.88-2.25-1.32-3.36h0c-.5-1.28-1-2.53-1.45-3.69-1.27-3.26-2.25-5.75-2.35-6s-.06-2,0-4.77c.45-2.34.92-5,1.29-7.65v0a57.49,57.49,0,0,0,.77-11A72.14,72.14,0,0,1,49,58.12c.1,2.13.17,4.37.24,6.54v0C49.37,70.63,49.39,75.94,49.31,76.46Z"/><path class="cls-3" d="M18.81,52.3S4.61,59.85,6.08,70s5.05,10.19,5.05,10.19l7.64-8.41L25.08,57.1Z"/><path class="cls-4" d="M12.09,85a23.84,23.84,0,0,1-.1-5.73c.09-.94.22-1.88.4-2.82.15-.76.32-1.51.51-2.26h0a47.44,47.44,0,0,1,2.16-6.42h0c.5-1.2,1-2.35,1.56-3.45A75.1,75.1,0,0,1,22,55.13l.06-.08c0-.07.09-.14.14-.2.49-.72.79-1.1.79-1.1l1.6,1.65,1.63,1.67,4.71,4.87.75.78L33.79,65,34.84,79l.45,6Z"/><path class="cls-5" d="M24.72,85l.07-.18.57-1.38.05-.11a1.11,1.11,0,0,0,.07-.16c.15-.35.3-.68.44-1,0-.07,0-.13.08-.19a2.86,2.86,0,0,0,.12-.27c.35-.77.66-1.39.89-1.85,0-.1.09-.18.13-.26a.67.67,0,0,1,.06-.12l.23-.45,21.14,0s0,.08,0,.24c0,0,0,0,0,0s0,0,0,0c.06.26.16.72.29,1.32,0,.29.12.62.2,1s.11.53.17.82.12.58.18.88c.11.53.23,1.1.36,1.7Z"/><path class="cls-6" d="M30.16,79.16s-.25.72-.67,1.87c-.19.54-.41,1.18-.66,1.88s-.48,1.36-.75,2.09H24.72l.07-.18.57-1.38.05-.11a1.11,1.11,0,0,0,.07-.16c.15-.35.3-.68.44-1,0-.07,0-.13.08-.19a2.86,2.86,0,0,0,.12-.27c.35-.77.66-1.39.89-1.85,0-.1.09-.18.13-.26a.67.67,0,0,1,.06-.12l.23-.45h1.85l.17,0Z"/><path class="cls-6" d="M49.83,85,24.72,85l.07-.18.57-1.38.05-.11a1.11,1.11,0,0,0,.07-.16c.15-.35.3-.68.44-1,0-.07,0-.13.08-.19a2.86,2.86,0,0,0,.12-.27c.35-.77.66-1.39.89-1.85,0-.1.09-.18.13-.26a.67.67,0,0,1,.06-.12l.23-.45,21.14,0s0,.08,0,.24c0,0,0,0,0,0s0,0,0,0c.06.26.16.72.29,1.32,0,.29.12.62.2,1s.11.53.17.82.12.58.18.88C49.58,83.87,49.7,84.44,49.83,85Z"/><path class="cls-1" d="M21.7,53.85A22.91,22.91,0,0,1,21.63,46a11.11,11.11,0,0,1,.7-2.65.23.23,0,0,1,.05-.07,4.67,4.67,0,0,1,1.21-1.1A4,4,0,0,1,24,41.9h0l.37-.24.05,0,.12-.08h0s0,0,0,0l1.3-.79a20,20,0,0,1,2.87-1.42h0l.44-.16c.22-.08.44-.14.64-.2l.25-.08.24-.07.42-.12.63-.16.09,0h.06l.09,0,6.77,0h.36a.9.9,0,0,1,.22,0,4.52,4.52,0,0,1,.82.14h0a7.94,7.94,0,0,1,.81.25,15.3,15.3,0,0,1,3,1.59,25.17,25.17,0,0,1,2.48,1.87,10.42,10.42,0,0,1,1.52,1.6q.28.38.54.78c2.38,3.77,2.33,8.95.77,13.41a19.59,19.59,0,0,1-1.07,2.53c-.29.56-.34,2.63-.27,5.2l0,.7c.1,2.84.33,6.14.53,8.64,0,.4,0,.61,0,.61.06.87.12,1.62.17,2.19s.09,1,.1,1.08v0l.1.21s0,0,0,0,0,0,0,0A31.17,31.17,0,0,1,50.17,85L24.68,85c1.17-2.83,2.19-4.9,2.19-4.9a55.93,55.93,0,0,0-1.35-8c-.67-3.22-1.5-7-2.28-10.69-.06-.26-.11-.52-.17-.77,0-.06,0-.13,0-.19s0-.07,0-.1,0,0,0,0l0-.12c-.13-.6-.25-1.21-.38-1.8-.22-1.11-.44-2.19-.64-3.22,0-.17-.07-.34-.1-.51s-.09-.43-.13-.64c0,0,0-.07,0-.11Z"/><path class="cls-2" d="M45.25,61.57l-.7,0-1.88-.12a19.07,19.07,0,0,0-5.9.37l-1.68.47a15.08,15.08,0,0,1-1.67.35,12.89,12.89,0,0,1-2.87.08,4.47,4.47,0,0,1-1.11-.21,2.63,2.63,0,0,1-.77-.39,2,2,0,0,1-.36-.39l-.09-.16.13.12a1.49,1.49,0,0,0,.43.24,3.56,3.56,0,0,0,1.76.1,19.2,19.2,0,0,0,2.65-.54c.49-.13,1-.29,1.52-.47s1.09-.38,1.71-.54A10.3,10.3,0,0,1,40,60.18a15.24,15.24,0,0,1,2.8.55c.77.22,1.39.44,1.81.59Z"/><path class="cls-7" d="M47.67,43.92c-1.53,2.09-2.7,5.41-9.09,5.9-7.4.57-12.11-6.46-12.7-9.11a20,20,0,0,1,2.87-1.42l0,0,.87-.29c1.13-.35,2-.54,2-.54h6.93a4.82,4.82,0,0,1,1.23.18h0a7.35,7.35,0,0,1,.82.25,14.78,14.78,0,0,1,3,1.59,26.86,26.86,0,0,1,2.48,1.87A10.36,10.36,0,0,1,47.67,43.92Z"/><path class="cls-8" d="M48.18,33.33a5.31,5.31,0,0,0,1,5.3A9.39,9.39,0,0,1,45,36a3.43,3.43,0,0,0-.23,2.61,5.52,5.52,0,0,1-3.93-2.94L39.92,38a11,11,0,0,0-.61-3.77l-.12-.34a4.63,4.63,0,0,0-.58.31,5.12,5.12,0,0,0-2.33,3.53,4.91,4.91,0,0,1-3.85-3.57l-2.05,3.41a5.44,5.44,0,0,0-1.6-3.29,3.15,3.15,0,0,0-.12,3.33A4.23,4.23,0,0,1,25.33,34a5.41,5.41,0,0,1-2.27,4.23c1.15-1.59-1.56-3.77-.81-5.58-1,.66-.92,2.09-1,3.27s-.72,2.69-1.9,2.52c.58-1.28-.2-2.72-.83-4-.45-.89-.05-2.72.59-4.06a22.68,22.68,0,0,0,1.79-5c.25-1.11.53-2.48.86-4.15q.32-1.65.69-3.72a15.44,15.44,0,0,1,5.19-9,16.38,16.38,0,0,1,4-2.61h0c4.37,0,8.94,1.89,12.84,3.87.49.25,1,.51,1.47.81a6.8,6.8,0,0,1,1.4,1.1,6.48,6.48,0,0,1,1.12,1.71,12.2,12.2,0,0,1,.77,2.49c.07.27.12.56.17.83a70,70,0,0,1,1.16,10c.1,2.34.52,9.78,1.71,11.81a8.73,8.73,0,0,1-3.2-2.87C48.33,34.3,48.38,32.78,48.18,33.33Z"/><path class="cls-9" d="M37.6,34c.33.07.67.14,1,.18a5.12,5.12,0,0,0-2.33,3.53,4.91,4.91,0,0,1-3.85-3.57l-2.05,3.41a5.44,5.44,0,0,0-1.6-3.29,3.15,3.15,0,0,0-.12,3.33A4.23,4.23,0,0,1,25.33,34a5.41,5.41,0,0,1-2.27,4.23c1.15-1.59-1.56-3.77-.81-5.58-1,.66-.92,2.09-1,3.27s-.72,2.69-1.9,2.52c.58-1.28-.2-2.72-.83-4-.45-.89-.05-2.72.59-4.06a22.68,22.68,0,0,0,1.79-5c.25-1.11.53-2.48.86-4.15q.32-1.65.69-3.72a15.44,15.44,0,0,1,5.19-9c-.36.74-1,1.56-1.25,2a32.12,32.12,0,0,0-1.61,3.82c-.53,1.49-1,3-1.35,4.56-1.18,4.68-1.91,9.49-3.53,14a9.29,9.29,0,0,0,3.33-3,9.65,9.65,0,0,0,.94,3.28c.25-.87.49-1.74.74-2.62l1.82,2.24a6.1,6.1,0,0,1,.47-2.27,9.78,9.78,0,0,1,2.16,2.33,4.26,4.26,0,0,0,.37-1.79C32,32.84,34.84,33.46,37.6,34Z"/><path class="cls-9" d="M48.18,33.33a5.31,5.31,0,0,0,1,5.3A9.39,9.39,0,0,1,45,36a3.43,3.43,0,0,0-.23,2.61,5.52,5.52,0,0,1-3.93-2.94L39.92,38a11,11,0,0,0-.61-3.77,2.67,2.67,0,0,0,.62-.1,1.7,1.7,0,0,0,1.32-1.71l1.35,2c.55-.89,1.1-1.77,1.64-2.66a9.46,9.46,0,0,0,2.3,2.62,5.83,5.83,0,0,1,1-3.24,7.67,7.67,0,0,0,3,2.23q-1-10-2-20a12.2,12.2,0,0,1,.77,2.49c.07.27.12.56.17.83a70,70,0,0,1,1.16,10c.1,2.34.52,9.78,1.71,11.81a8.73,8.73,0,0,1-3.2-2.87C48.33,34.3,48.38,32.78,48.18,33.33Z"/><path class="cls-10" d="M43.67,40.46A8.36,8.36,0,0,1,38,46.19c-5,1.65-8.19-4.58-9.21-6.92,1.51-.53,2.86-.84,2.86-.84l6.78,0h.16a4.66,4.66,0,0,1,1.23.17h0c.24.06.51.14.82.25A14.78,14.78,0,0,1,43.67,40.46Z"/><path class="cls-10" d="M37.73,45.24l-6.09-6.81c0-1,.1-1.39.2-3.89.1-2.78.21-5.38.21-5.38l7.84,3.12a18.56,18.56,0,0,0-1.42,6.32A50.72,50.72,0,0,1,37.73,45.24Z"/><path class="cls-11" d="M39.89,32.28a18.56,18.56,0,0,0-1.42,6.32l-.72.28c-.91.31-3.83-2.29-5.91-4.34.1-2.78.21-5.38.21-5.38Z"/><path class="cls-10" d="M48.14,23c-.16.72-.37,1.48-.62,2.28,0,0,.34,3.93-.07,4.81s-3.07,6.36-5.85,6c-2.32-.28-8-3.69-9.94-5.72a2.29,2.29,0,0,1-.68-1c-.27-1.56-1.18-8.43-1.27-9-.23-1.56-.86-13.36,13.41-10a6.88,6.88,0,0,1,5.16,5.17A17.28,17.28,0,0,1,48.14,23Z"/><path class="cls-12" d="M47.52,25.26s.34,3.93-.07,4.81-3.07,6.36-5.85,6c-2.32-.28-8-3.69-9.94-5.72,2.41,1.68,8.83,6,10.72,5.32,2.34-.81,5-6,4.94-6.49s-.19-3.86-.19-3.86.47-1.06,1-2.35C48,23.7,47.77,24.46,47.52,25.26Z"/><path class="cls-12" d="M31.62,29.16a5.47,5.47,0,0,1-3.79-2.1,4.69,4.69,0,0,1-.38-.57c-.51-.93-.65-4.15.67-4.89a1.41,1.41,0,0,1,1.91.74h0a3.11,3.11,0,0,1,.21.38Z"/><path class="cls-10" d="M31.62,29.16a5.47,5.47,0,0,1-3.79-2.1l-.16-.26c-.51-.93-.65-4.15.67-4.9a1.26,1.26,0,0,1,1.69.44h0a3.11,3.11,0,0,1,.21.38Z"/><path class="cls-11" d="M27.7,24.16a1.36,1.36,0,0,0,.06.77,6.33,6.33,0,0,0,2.46,2.68,2.68,2.68,0,0,1-.35-1.69c0-.2.06-.4.06-.6C29.94,24.51,28.09,22.63,27.7,24.16Z"/><path class="cls-13" d="M30.74,27.92l-.06,0-.16-.1a2.23,2.23,0,0,1-.51-.46,2.1,2.1,0,0,1-.42-.86,1.82,1.82,0,0,1,.13-1.13.64.64,0,0,1,.08-.14l0,0h0l0,0,0-.06-.07-.12a4.91,4.91,0,0,0-.31-.44q-.16-.21-.33-.39a3,3,0,0,0-.33-.3.81.81,0,0,0-.33-.15.52.52,0,0,0-.29.05.22.22,0,0,0-.12.11.15.15,0,0,0,0,.06.09.09,0,0,1,0-.06.31.31,0,0,1,.11-.15.55.55,0,0,1,.32-.1.93.93,0,0,1,.45.13,3.35,3.35,0,0,1,.4.29,4.43,4.43,0,0,1,.39.37,3.38,3.38,0,0,1,.37.46l.08.12,0,.07.05.09,0,.06a.25.25,0,0,1,0,.07l-.05.09a.67.67,0,0,0-.06.12,1.91,1.91,0,0,0-.17,1,2.14,2.14,0,0,0,.27.82,2.28,2.28,0,0,0,.39.5.64.64,0,0,0,.13.12Z"/><path class="cls-9" d="M49.44,20.15s-1.82-2.44-2.84-1.48S46,19.74,46,19.74Z"/><path class="cls-9" d="M34.79,20.54s4.08-3.1,5.14-1.47c.63.95,0,1.37,0,1.37Z"/><path class="cls-14" d="M39.51,20.9a2.19,2.19,0,0,1-1.08.93.9.9,0,0,0-.69-.36c-.65,0-1.18.85-1.19,1.9s.53,1.91,1.19,1.91,1.18-.85,1.19-1.9a2.79,2.79,0,0,0-.14-.9A3.49,3.49,0,0,0,39.51,20.9Z"/><path class="cls-7" d="M35.42,22.31a2.73,2.73,0,0,0,1.14.94,2.68,2.68,0,0,0,1.48.12,2.79,2.79,0,0,0-1.14-.95A2.74,2.74,0,0,0,35.42,22.31Z"/><path class="cls-14" d="M47.53,21.93a1.5,1.5,0,0,1-.74.64.68.68,0,0,0-.46-.21c-.5,0-.9.64-.9,1.43s.4,1.44.89,1.44.89-.64.9-1.43a2.05,2.05,0,0,0-.16-.81A2.64,2.64,0,0,0,47.53,21.93Z"/><path class="cls-7" d="M48,23.1a1.95,1.95,0,0,1-1.86.75,2.22,2.22,0,0,1,.83-.63A2.08,2.08,0,0,1,48,23.1Z"/><path class="cls-11" d="M42.27,27.77a2,2,0,0,0-.89-.24A3,3,0,0,0,43,29.1a.47.47,0,0,0,.17,0,.39.39,0,0,0,.2-.08,3.4,3.4,0,0,0,1-.9.89.89,0,0,0,.14-.25c.07-.3-.14-.23-.32-.16a2.81,2.81,0,0,1-1.94,0Z"/><path class="cls-13" d="M43.06,28.93c.18-.17.39-.3.58-.46a4.84,4.84,0,0,0,.63-.65c-1-.67-1-1.69-.91-2.84a3.38,3.38,0,0,1,.43-1.49,3.09,3.09,0,0,1,.48-.66,4.11,4.11,0,0,1,.3-.29,1.38,1.38,0,0,1,.34-.18l-.16.21c-.14.19-.29.36-.41.56a4,4,0,0,0-.31.62,4.06,4.06,0,0,0-.3,1.37A3.28,3.28,0,0,0,44,26.47a2.69,2.69,0,0,0,1,1.26l-.73.83a3.39,3.39,0,0,1-.56.44,1.2,1.2,0,0,1-.65.26.38.38,0,0,1-.21-.07.31.31,0,0,0,.11-.09l0,0A.8.8,0,0,1,43.06,28.93Z"/><path class="cls-13" d="M41.37,31.92a2.88,2.88,0,0,0,2.37.07,1.2,1.2,0,0,1-1.08.58A2,2,0,0,1,41.37,31.92Z"/><path class="cls-13" d="M38.63,29.84a7.11,7.11,0,0,0,6.56.91,10.25,10.25,0,0,1-3.58,0A8.07,8.07,0,0,1,38.63,29.84Z"/><path class="cls-11" d="M45.94,28.19c.16.41,1.06.46,2,.11s1.6-1,1.45-1.4-1.06-.47-2-.11S45.79,27.77,45.94,28.19Z"/><path class="cls-11" d="M33.94,26.22c-.16.62.87,1.44,2.31,1.81s2.74.18,2.9-.45-.87-1.44-2.31-1.82S34.11,25.59,33.94,26.22Z"/><path class="cls-8" d="M49.29,16.23c0,.13,0,.26,0,.4,0,.36-.05.72-.07,1.08,0,.14-.13.82-.05.91A23.18,23.18,0,0,1,45,12.87a3.71,3.71,0,0,1-.35-1.42,9.83,9.83,0,0,1-1.88,2.77,9.73,9.73,0,0,1-1.38,1.09,12.28,12.28,0,0,0-1.43.8,5.31,5.31,0,0,0,1.65-2.77,17.4,17.4,0,0,1-8.07,5.81A5.67,5.67,0,0,0,35,16.72a17.57,17.57,0,0,1-7.47,5.51,5.83,5.83,0,0,1-1-1.69c-.11-.26-.22-.55-.32-.86a.31.31,0,0,1,0-.08,9,9,0,0,1-.32-1.55,14,14,0,0,1,1.28-7.34,9.72,9.72,0,0,1,4.53-4.84h0A10.35,10.35,0,0,1,37.34,4.8a17.31,17.31,0,0,1,5.35,1.51C43.19,6.53,45,7.5,45,7.5a6.23,6.23,0,0,1,2.22.59A5.2,5.2,0,0,1,49,11.59c0,.24.08.48.11.72a22,22,0,0,1,.15,2.81c0,.25,0,.48,0,.72S49.28,16.1,49.29,16.23Z"/><path class="cls-8" d="M33.13,24.56c-.06-.15-.13-.37-.25-.64a5.68,5.68,0,0,0-.47-.91,4.29,4.29,0,0,0-.86-1,3.92,3.92,0,0,0-1.13-.64,5.47,5.47,0,0,0-1-.25l-.34-.05-.22-.15.08.14h-.46l.63.31c.1.17.23.38.37.63a11.44,11.44,0,0,1,1.18,2.52,16.34,16.34,0,0,1,.49,2.76c.05.38.08.68.11.89s.05.33.05.33l.09-.32c.06-.2.13-.5.21-.88A8.25,8.25,0,0,0,31.74,26a5.42,5.42,0,0,0-.22-1.69,5.18,5.18,0,0,0-.78-1.54,7,7,0,0,0-.86-1,7,7,0,0,1,1.23.81,11.48,11.48,0,0,1,1.48,1.53c.18.22.34.39.44.52l.17.18Z"/><path class="cls-8" d="M31.42,21a27.62,27.62,0,0,0,7.86-4.65,3.35,3.35,0,0,1-1,1.38,11.47,11.47,0,0,0,6.13-4.55,4.73,4.73,0,0,0,1-2.44.88.88,0,0,0-.06-.43,1,1,0,0,0-.56-.5,4.56,4.56,0,0,0-3.05-.15A10.49,10.49,0,0,0,38.89,11a10.94,10.94,0,0,0-2.13,1.63c-1.22,1.25-1.39,2.64-2,4.15A10.4,10.4,0,0,1,31.42,21Z"/><path class="cls-8" d="M42.25,21.37A4.58,4.58,0,0,0,44,19.74a12.91,12.91,0,0,0,2.12-5.38,5.29,5.29,0,0,0-.38-3.31c-.3-.55-1.45-1.49-1.93-.57-.3.56.38,1.83.48,2.42a11,11,0,0,1-.45,5.61A10.41,10.41,0,0,1,42.25,21.37Z"/><path class="cls-9" d="M46,10.54c-.28-.07-.55-.13-.83-.18a7,7,0,0,1,.09,2,9.54,9.54,0,0,0-1.65-2.52,9.46,9.46,0,0,1-3.46,2.94,7.12,7.12,0,0,0,.59-4.31,18,18,0,0,1-6.42,5.6,7.45,7.45,0,0,0,0-2.9,22.15,22.15,0,0,1-8.09,8.52l-.1.05.08-.13a8.74,8.74,0,0,0,1-3.19,14.65,14.65,0,0,1-5.33,4.79q.32-1.65.69-3.72A15,15,0,0,1,24,13a17,17,0,0,1,7.62-7.13h0A10.35,10.35,0,0,1,37.34,4.8a17.31,17.31,0,0,1,5.35,1.51l.18.08C43.52,6.71,45,7.5,45,7.5a6.23,6.23,0,0,1,2.22.59A5.2,5.2,0,0,1,49,11.59,15.78,15.78,0,0,0,46,10.54Z"/><path class="cls-15" d="M43,8.07a14.36,14.36,0,0,0-5.84-1.36,16.66,16.66,0,0,1-2,2A2.85,2.85,0,0,0,35.2,7a15.85,15.85,0,0,1-6.51,4.69,6.65,6.65,0,0,0,1.14-2.09A12.21,12.21,0,0,1,24,13a17,17,0,0,1,7.62-7.13h0A10.35,10.35,0,0,1,37.34,4.8a17.31,17.31,0,0,1,5.35,1.51l.18.08-1,.34Z"/><path class="cls-15" d="M41.74,4.22a4.34,4.34,0,0,0-.65-2A4.52,4.52,0,0,0,38.42,0,5.51,5.51,0,0,1,43,2.06a2.8,2.8,0,0,1,0,3.39,3,3,0,0,1-.8.58,3.94,3.94,0,0,1-1.72.51C41.12,5.76,41.78,5.4,41.74,4.22Z"/><path class="cls-1" d="M7.72,85C3.29,79.17-.72,72.85.11,69.83c1.3-4.73,13-17.37,18.88-23.48,1.88-2,3.17-3.26,3.32-3.41h0s0,.11,0,.24,0,.07,0,.12C22.63,45,23.74,52,24.54,55.4a7.82,7.82,0,0,0,.54,1.7c.11.18-.07.58-.49,1.14l0,0L24,59c-.3.36-.65.75-1.06,1.18h0c-1.44,1.53-3.44,3.45-5.4,5.27-.65.61-1.3,1.21-1.93,1.78l-.29.26-.29.25h0l-1.2,1.08-.53.47-.5.45-.87.77-.67.59-.58.51a23.38,23.38,0,0,1,2.19,2.55h0c.51.66,1.08,1.42,1.66,2.24h0c1.91,2.59,4.13,5.8,6,8.58Z"/><path class="cls-16" d="M1.42,70.55C1.47,72,6.45,78.8,11.23,85H7.72C3.29,79.17-.72,72.85.11,69.83c1.3-4.73,13-17.37,18.88-23.48,1.88-2,3.17-3.26,3.32-3.41h0s0,.11,0,.24c-.77.89-1.85,2.17-3.14,3.71C12.78,54.54,1.34,68.47,1.42,70.55Z"/><path class="cls-2" d="M14.56,76.4c1.91,2.59,4.13,5.8,6,8.58h-2c-1.75-2.43-3.59-5-5.24-7.25l-1-1.32c-1-1.39-1.92-2.59-2.6-3.47a6.52,6.52,0,0,1-2.94.9H6.56a1.51,1.51,0,0,1,.2-.35,4.25,4.25,0,0,1,1.77-1.24C7.72,71.5,6.9,70.75,6.08,70c-.14-.14-.29-.35-.18-.5A.2.2,0,0,1,6,69.42a.6.6,0,0,1,.35,0,13,13,0,0,1,2.55,1.35c.15.12.4.27.63.45l7.07-7,6-5.91.1-.11.69-.66L24,59l.13.26h0l.14.29-.43.38h0l-.8.71,0,0L15.64,67.2l-.29.26-.29.26-1.2,1.08-.53.47L12,70.49l-.67.59-.58.51a23.38,23.38,0,0,1,2.19,2.55h0c.51.66,1.08,1.42,1.66,2.24h0Z"/><path class="cls-3" d="M18.83,46s2.42-3.7,4.67-4.16c0,0,9.18,33.7-4.75,39.38C18.75,81.21,29,68.62,18.83,46Z"/><path class="cls-3" d="M47.67,43.92s2.88,1.74,3,4L48.25,75.8S46.22,47.61,47.67,43.92Z"/></g></g></svg>