<svg xmlns="http://www.w3.org/2000/svg" viewBox="0 0 63.14 85.02"><defs><style>.cls-1{fill:#651924;}.cls-2{fill:#7e2426;}.cls-3{fill:#fb9988;}.cls-4{fill:#fdbd8e;}.cls-5{fill:#171228;}.cls-6{fill:#28b69a;}.cls-7{fill:#909aa3;}.cls-8{fill:#ffdaba;}.cls-9{fill:#007c7e;}.cls-10{fill:#63ccca;}.cls-11{fill:#006060;}.cls-12{fill:#4f83a7;}.cls-13{fill:#749ec2;}.cls-14{fill:#ff9300;}.cls-15{fill:#cf691f;}.cls-16{fill:#fff0e7;}.cls-17{fill:#fd7d6f;}.cls-18{fill:#161818;}.cls-19{fill:#a94739;}.cls-20{fill:#ffa07f;}.cls-21{fill:#ffbf90;}.cls-22{fill:#f37c71;}.cls-23{fill:#118c8c;}</style></defs><title>smile_callРесурс 5</title><g id="Слой_2" data-name="Слой 2"><g id="OBJECTS"><path class="cls-1" d="M21,33.31a5.34,5.34,0,0,1-1,5.3A9.36,9.36,0,0,0,24.16,36a3.46,3.46,0,0,1,.24,2.62,5.53,5.53,0,0,0,3.93-2.94L29.27,38a10.9,10.9,0,0,1,.61-3.76L30,33.9a4,4,0,0,1,.58.31,5.12,5.12,0,0,1,2.32,3.54,4.92,4.92,0,0,0,3.86-3.56l2,3.4a5.51,5.51,0,0,1,1.61-3.28,3.17,3.17,0,0,1,.11,3.34A4.25,4.25,0,0,0,43.86,34a5.46,5.46,0,0,0,2.26,4.24c-1.15-1.6,1.57-3.77.82-5.59,1,.66.92,2.1,1,3.28s.71,2.69,1.89,2.52c-.57-1.28.21-2.72.85-4,.45-.88,0-2.72-.59-4.06a23.06,23.06,0,0,1-1.78-5c-.24-1.1-.53-2.47-.85-4.14-.21-1.11-.44-2.34-.68-3.72a15.48,15.48,0,0,0-5.17-9,16.28,16.28,0,0,0-4-2.61h0c-4.38,0-9,1.86-12.85,3.84-.5.25-1,.51-1.48.8a7.07,7.07,0,0,0-1.4,1.1,6.32,6.32,0,0,0-1.12,1.71A11.73,11.73,0,0,0,20,15.81c-.06.28-.12.56-.17.84a68.29,68.29,0,0,0-1.18,10c-.11,2.35-.55,9.79-1.74,11.81a8.78,8.78,0,0,0,3.21-2.86C20.86,34.28,20.81,32.75,21,33.31Z"/><path class="cls-2" d="M31.6,34c-.34.07-.68.13-1,.17a5.12,5.12,0,0,1,2.32,3.54,4.92,4.92,0,0,0,3.86-3.56l2,3.4a5.51,5.51,0,0,1,1.61-3.28,3.17,3.17,0,0,1,.11,3.34A4.25,4.25,0,0,0,43.86,34a5.46,5.46,0,0,0,2.26,4.24c-1.15-1.6,1.57-3.77.82-5.59,1,.66.92,2.1,1,3.28s.71,2.69,1.89,2.52c-.57-1.28.21-2.72.85-4,.45-.88,0-2.72-.59-4.06a23.06,23.06,0,0,1-1.78-5c-.24-1.1-.53-2.47-.85-4.14-.21-1.11-.44-2.34-.68-3.72a15.48,15.48,0,0,0-5.17-9c.35.75,1,1.57,1.24,2a32.12,32.12,0,0,1,1.61,3.82c.52,1.5,1,3,1.34,4.57,1.16,4.68,1.88,9.49,3.5,14A9.21,9.21,0,0,1,46,30a9.62,9.62,0,0,1-1,3.28l-.73-2.62-1.82,2.23A6.15,6.15,0,0,0,42,30.61a9.78,9.78,0,0,0-2.16,2.33,4.27,4.27,0,0,1-.37-1.8C37.21,32.86,34.35,33.47,31.6,34Z"/><path class="cls-2" d="M21,33.31a5.34,5.34,0,0,1-1,5.3A9.36,9.36,0,0,0,24.16,36a3.46,3.46,0,0,1,.24,2.62,5.53,5.53,0,0,0,3.93-2.94L29.27,38a10.9,10.9,0,0,1,.61-3.76,3.34,3.34,0,0,1-.62-.1A1.69,1.69,0,0,1,28,32.43l-1.36,2c-.54-.89-1.09-1.77-1.64-2.66a9.4,9.4,0,0,1-2.3,2.61,5.9,5.9,0,0,0-1-3.24,7.55,7.55,0,0,1-3,2.22q1.05-10,2.09-20A11.73,11.73,0,0,0,20,15.81c-.06.28-.12.56-.17.84a68.29,68.29,0,0,0-1.18,10c-.11,2.35-.55,9.79-1.74,11.81a8.78,8.78,0,0,0,3.21-2.86C20.86,34.28,20.81,32.75,21,33.31Z"/><polygon class="cls-3" points="17.17 32.9 18.81 30.24 21.58 31.85 19.69 34.7 17.17 32.9"/><path class="cls-4" d="M20,35l-.3-.7-.38-.91a3.81,3.81,0,0,1,1.7-2.65,1.84,1.84,0,0,1,.82-.18,5.09,5.09,0,0,1,1.19.13,13.21,13.21,0,0,1,2.35.75,18.14,18.14,0,0,1,2.07-1.81c.41-.29.65-.32.78-.26s.19.36.19.36L26.12,34a31.91,31.91,0,0,1-4.92,1.8Z"/><path class="cls-3" d="M21.06,30.69a3.81,3.81,0,0,0-1.7,2.65l.38.91A10,10,0,0,1,20.57,33a3.31,3.31,0,0,1,.56-.62,2.32,2.32,0,0,1,.81-.38,3.48,3.48,0,0,1,3.37.69,6.81,6.81,0,0,1,3-3.41c-.13-.06-.37,0-.78.26a18.14,18.14,0,0,0-2.07,1.81,13.21,13.21,0,0,0-2.35-.75,2.23,2.23,0,0,1-1.19-.13A1.84,1.84,0,0,0,21.06,30.69Z"/><rect class="cls-5" x="19.99" y="22.56" width="7.53" height="12.48" rx="0.7" ry="0.7" transform="translate(26.39 66.04) rotate(-144.51)"/><rect class="cls-6" x="21.02" y="23.58" width="5.97" height="9.73" transform="translate(27.04 65.55) rotate(-144.51)"/><path class="cls-7" d="M20.24,32.78a.55.55,0,0,0,.13.78.56.56,0,0,0,.78-.13.57.57,0,0,0-.13-.79A.55.55,0,0,0,20.24,32.78Z"/><path class="cls-4" d="M20.13,22.76a1.46,1.46,0,0,0,.11,1c.17.36.33.73.53,1.07l.06.1a3.58,3.58,0,0,0,.31.45l.13.15a2.44,2.44,0,0,0,.52.39.45.45,0,0,0,.66-.44,3.16,3.16,0,0,0-.33-1.4A5.46,5.46,0,0,0,21,22.55C20.64,22.25,20.29,22.18,20.13,22.76Z"/><path class="cls-4" d="M19.55,24.66a1.43,1.43,0,0,0,.11,1c.1.23.21.46.33.7,0,.09.09.18.14.27a3.49,3.49,0,0,0,.43.65l.1.11a2,2,0,0,0,.55.42.46.46,0,0,0,.66-.44,3.46,3.46,0,0,0-.33-1.4,5.18,5.18,0,0,0-.27-.45,4.3,4.3,0,0,0-.42-.59.76.76,0,0,0-.08-.11C20.3,24.26,19.76,23.89,19.55,24.66Z"/><path class="cls-4" d="M18.68,26.09a1.4,1.4,0,0,0,.11,1c.13.29.27.59.42.88a2.15,2.15,0,0,0,.14.26,3.21,3.21,0,0,0,.34.48,2.83,2.83,0,0,0,.24.25,1.91,1.91,0,0,0,.41.29.46.46,0,0,0,.66-.44,3.27,3.27,0,0,0-.33-1.4h0a6.55,6.55,0,0,0-.57-.91l-.1-.12C19.5,25.74,18.9,25.27,18.68,26.09Z"/><path class="cls-4" d="M18.1,27.93a1.4,1.4,0,0,0,.11,1l.06.14a6.52,6.52,0,0,0,.84,1.48,2.37,2.37,0,0,0,.65.54.46.46,0,0,0,.66-.44,3.13,3.13,0,0,0-.33-1.4,3.3,3.3,0,0,0-.16-.29,6.71,6.71,0,0,0-.63-.88L19.21,28C18.77,27.48,18.3,27.22,18.1,27.93Z"/><path class="cls-8" d="M20.13,22.76a1.46,1.46,0,0,0,.11,1c.17.36.33.73.53,1.07-.47-.55-1-.92-1.22-.15a1.43,1.43,0,0,0,.11,1c.1.23.21.46.33.7-.49-.61-1.09-1.08-1.31-.26a1.4,1.4,0,0,0,.11,1c.13.29.27.59.42.88-.44-.47-.91-.73-1.11,0a1.4,1.4,0,0,0,.11,1l.06.14,0-.09a1.37,1.37,0,0,1,.37-.64.62.62,0,0,1,.68-.11h0a.77.77,0,0,0-.07-.16,1.61,1.61,0,0,1-.11-1c.13-.39.69-.63,1-.32a.29.29,0,0,0,0-.09.83.83,0,0,1,0-.15,1.7,1.7,0,0,1-.07-1,.78.78,0,0,1,.81-.59h0l.1,0a3,3,0,0,1-.18-1.86c.06-.18.15-.36.23-.54C20.64,22.25,20.29,22.18,20.13,22.76Z"/><path class="cls-9" d="M1.89,62.9c6.08.72,12-1,15.24-2.19h0c.65-.24,1.19-.46,1.61-.63h0A12.19,12.19,0,0,0,20.86,59l-.59-6.73,3-7.54s-1.41-.09-4.38,1.75c-1.41.88-4.22,3.48-5.46,4.34.07-.15,4.61-9.66,8.64-14.91L17,32.4a59.52,59.52,0,0,0-4,5h0C6.57,45.86-4.43,62.15,1.89,62.9Z"/><path class="cls-10" d="M22.74,36.26s-4.41-4.08-6.65-4.49c0,0-1.52,1.66-1.42,2a55.42,55.42,0,0,0,7.2,4.41A9.56,9.56,0,0,0,22.74,36.26Z"/><path class="cls-11" d="M1.89,62.9c6.08.72,17.29-1.56,20.56-2.77l-.52-4.43S7.79,63.34,3.23,61.23,12.58,38,13,37.39C6.57,45.86-4.43,62.15,1.89,62.9Z"/><path class="cls-12" d="M19.63,85l.06-.32,8.6-1.12L32.75,83l1.2.1,2.25.18V85Z"/><path class="cls-13" d="M28,85l.29-1.44.23-1.12H43c.16.71.34,1.58.55,2.56Z"/><path class="cls-12" d="M41.59,85c-.11-.9-.22-1.76-.32-2.56H43c.16.71.34,1.58.55,2.56Z"/><path class="cls-14" d="M50.34,52.34S64.53,59.92,63,70.06,58,80.24,58,80.24l-7.62-8.43L44.06,57.13Z"/><path class="cls-15" d="M57,85H33.8L34,83.1l0-.64L35.33,65l2.16-2.22.76-.78L43,57.11l.63-.65,2.61-2.68s.3.39.79,1.11c0,.06.09.13.14.2l0,.07c.34.49.75,1.11,1.21,1.83a66.85,66.85,0,0,1,6.75,13.64l.18.56a37.2,37.2,0,0,1,1.79,8.12A24.74,24.74,0,0,1,57,85Z"/><path class="cls-9" d="M21.46,66.33c.1-2.8.07-5.1-.23-5.7a.36.36,0,0,1,0-.09c-.23-.44-.44-.89-.63-1.36a19.46,19.46,0,0,1-.81-2.37,15.93,15.93,0,0,1,.68-11.19,10.87,10.87,0,0,1,1.07-1.71A10,10,0,0,1,23,42.31a25.33,25.33,0,0,1,2.48-1.86,14.65,14.65,0,0,1,3-1.58l.43-.14.2-.06.19-.05h0l.26-.06.12,0a2,2,0,0,1,.31-.05h.1l.24,0h7.14l.51.13.16,0,.2.05.42.12.34.1.36.11.19.06.31.11.37.13h0a20.26,20.26,0,0,1,2.87,1.43l1.29.79,0,0h0l.12.08.06,0,.37.24h0l.39.28a4.79,4.79,0,0,1,1.27,1.19,10.65,10.65,0,0,1,.54,1.87c0,.24.09.5.14.78a22.8,22.8,0,0,1,.24,5.31c0,.55-.1,1.12-.19,1.7,0,.29-.09.58-.14.89a.14.14,0,0,0,0,.07c0,.21-.08.43-.13.65s-.06.33-.1.49c-.2,1.05-.43,2.15-.66,3.27-.13.59-.25,1.19-.38,1.8a0,0,0,0,0,0,0,1.29,1.29,0,0,1,0,.19l-.21,1c0,.11,0,.22-.07.33h0c-.77,3.58-1.58,7.23-2.23,10.36h0a55.43,55.43,0,0,0-1.37,8s1,2.07,2.19,4.9H18.92a28.94,28.94,0,0,1,1.65-5.94s.12-1.34.28-3.3a2.45,2.45,0,0,0,0-.27c0-.08,0-.16,0-.26.18-2.17.38-4.94.49-7.51,0-.31,0-.62.05-.93Z"/><path class="cls-11" d="M23.89,61.56l.69,0,1.88-.12a18.9,18.9,0,0,1,5.91.39c.55.14,1.11.32,1.67.47a15.08,15.08,0,0,0,1.67.35,12.94,12.94,0,0,0,2.87.09,4.47,4.47,0,0,0,1.11-.21,2.41,2.41,0,0,0,.77-.39,1.49,1.49,0,0,0,.36-.39.71.71,0,0,0,.09-.16l-.13.12a1.49,1.49,0,0,1-.43.24,3.55,3.55,0,0,1-1.76.1,21.35,21.35,0,0,1-2.65-.55c-.49-.13-1-.29-1.51-.47s-1.1-.38-1.71-.54a10.08,10.08,0,0,0-3.57-.27,16.33,16.33,0,0,0-2.81.54c-.77.22-1.38.43-1.8.59S23.89,61.56,23.89,61.56Z"/><path class="cls-16" d="M21.5,43.9c1.52,2.1,2.69,5.42,9.08,5.92,7.4.59,12.12-6.43,12.72-9.08a19.22,19.22,0,0,0-2.87-1.43l0,0L39.53,39c-1.12-.35-2-.55-2-.55H30.6a5.15,5.15,0,0,0-1.23.17h0c-.24.06-.51.14-.82.25a14.65,14.65,0,0,0-3,1.58A25.33,25.33,0,0,0,23,42.31,10.41,10.41,0,0,0,21.5,43.9Z"/><path class="cls-4" d="M25.51,40.45a8.36,8.36,0,0,0,5.67,5.75c4.94,1.65,8.2-4.57,9.22-6.91-1.51-.53-2.86-.84-2.86-.84H30.6a4.71,4.71,0,0,0-1.23.17h0c-.24.06-.51.14-.82.25A14.78,14.78,0,0,0,25.51,40.45Z"/><path class="cls-4" d="M31.44,45.25l6.1-6.8c0-1-.1-1.39-.19-3.89-.1-2.78-.2-5.39-.2-5.39l-7.84,3.1a18.65,18.65,0,0,1,1.4,6.33A52.67,52.67,0,0,0,31.44,45.25Z"/><path class="cls-3" d="M29.31,32.27a18.65,18.65,0,0,1,1.4,6.33l.72.28c.91.32,3.83-2.28,5.92-4.32-.1-2.78-.2-5.39-.2-5.39Z"/><path class="cls-4" d="M21.08,23c.16.72.36,1.48.61,2.28,0,0-.35,3.93.07,4.81s3,6.37,5.83,6c2.31-.29,8-3.68,10-5.7a2.29,2.29,0,0,0,.68-1c.27-1.56,1.2-8.43,1.29-9C39.75,18.8,40.4,7,26.13,10.28A6.89,6.89,0,0,0,21,15.44,17.25,17.25,0,0,0,21.08,23Z"/><path class="cls-8" d="M21.69,25.24s-.35,3.93.07,4.81,3,6.37,5.83,6c2.31-.29,8-3.68,10-5.7-2.41,1.67-8.85,5.95-10.73,5.29-2.34-.81-5-6-4.93-6.5s.2-3.86.2-3.86-.47-1.06-1-2.35C21.24,23.68,21.44,24.44,21.69,25.24Z"/><path class="cls-8" d="M37.59,29.17a5.45,5.45,0,0,0,3.79-2.09,4.64,4.64,0,0,0,.38-.56c.51-.93.66-4.15-.66-4.9-.93-.52-1.6.24-1.92.74h0c-.13.22-.21.38-.21.38Z"/><path class="cls-4" d="M37.59,29.17a5.45,5.45,0,0,0,3.79-2.09l.16-.26c.51-.93.66-4.15-.66-4.89a1.27,1.27,0,0,0-1.7.43h0c-.13.22-.21.38-.21.38Z"/><path class="cls-3" d="M41.51,24.18a1.31,1.31,0,0,1-.06.78A6.4,6.4,0,0,1,39,27.63a2.69,2.69,0,0,0,.36-1.69,6,6,0,0,1-.06-.61C39.27,24.53,41.12,22.66,41.51,24.18Z"/><path class="cls-17" d="M38.46,27.93l.06,0,.17-.1a2.23,2.23,0,0,0,.51-.46,2.1,2.1,0,0,0,.42-.86,1.82,1.82,0,0,0-.13-1.13.64.64,0,0,0-.08-.14l0,0h0l0,0,0-.06a.75.75,0,0,0,.07-.12,3.84,3.84,0,0,1,.32-.44,4.12,4.12,0,0,1,.65-.69.85.85,0,0,1,.34-.15.59.59,0,0,1,.28,0,.31.31,0,0,1,.13.12.1.1,0,0,1,0,.05.28.28,0,0,0,0-.06s0-.09-.1-.14a.56.56,0,0,0-.33-.11.93.93,0,0,0-.44.13A2.7,2.7,0,0,0,40,24a3.44,3.44,0,0,0-.4.37,5.54,5.54,0,0,0-.37.45l-.08.13,0,.07,0,.09,0,.06a.43.43,0,0,1,0,.07l0,.09a.67.67,0,0,1,.06.12,1.91,1.91,0,0,1,.17,1,2.14,2.14,0,0,1-.27.82,2.56,2.56,0,0,1-.39.5l-.14.12Z"/><path class="cls-2" d="M19.79,20.13s1.82-2.44,2.83-1.47.56,1.06.56,1.06Z"/><path class="cls-2" d="M34.44,20.55s-4.08-3.11-5.15-1.49c-.62,1,0,1.37,0,1.37Z"/><path class="cls-18" d="M29.71,20.9a2.19,2.19,0,0,0,1.08.93.9.9,0,0,1,.69-.36c.65,0,1.18.85,1.18,1.9s-.53,1.91-1.18,1.91-1.19-.85-1.19-1.91a2.88,2.88,0,0,1,.14-.9A3.43,3.43,0,0,1,29.71,20.9Z"/><path class="cls-16" d="M33.79,22.31a2.64,2.64,0,0,1-1.14,1,2.7,2.7,0,0,1-1.47.11,2.42,2.42,0,0,1,2.61-1.06Z"/><path class="cls-18" d="M21.69,21.91a1.5,1.5,0,0,0,.74.64.66.66,0,0,1,.46-.21c.5,0,.9.65.9,1.44s-.4,1.43-.9,1.43S22,24.57,22,23.78a2.25,2.25,0,0,1,.15-.81A2.57,2.57,0,0,1,21.69,21.91Z"/><path class="cls-16" d="M21.23,23.08a2.22,2.22,0,0,0,.83.63,2.08,2.08,0,0,0,1,.12,2.14,2.14,0,0,0-.82-.63A2.27,2.27,0,0,0,21.23,23.08Z"/><path class="cls-3" d="M26.93,27.76a2.18,2.18,0,0,1,.89-.23,3,3,0,0,1-1.61,1.56.58.58,0,0,1-.18,0,.42.42,0,0,1-.2-.08,3.54,3.54,0,0,1-1-.91.7.7,0,0,1-.13-.24c-.07-.3.14-.23.31-.16a2.94,2.94,0,0,0,.65.16A2.7,2.7,0,0,0,26.93,27.76Z"/><path class="cls-17" d="M26.14,28.92c-.18-.17-.39-.31-.57-.47a4.84,4.84,0,0,1-.64-.64c1-.68,1-1.69.92-2.84a3.37,3.37,0,0,0-.42-1.49,3.48,3.48,0,0,0-.48-.66,4,4,0,0,0-.3-.29,1.28,1.28,0,0,0-.34-.19c.06.07.1.15.15.22s.29.36.42.56a5.12,5.12,0,0,1,.31.62,4.3,4.3,0,0,1,.29,1.37,3.28,3.28,0,0,1-.22,1.35,2.67,2.67,0,0,1-1,1.25s.66.78.73.84a3.93,3.93,0,0,0,.55.44,1.23,1.23,0,0,0,.65.26.51.51,0,0,0,.22-.06l-.12-.1,0,0Z"/><path class="cls-17" d="M30.36,32.61a3.5,3.5,0,0,1-2.85.62,1.49,1.49,0,0,0,1.44.46A2.48,2.48,0,0,0,30.36,32.61Z"/><path class="cls-16" d="M24.86,30.6a4.66,4.66,0,0,0,1.82,1.73,3.55,3.55,0,0,0,2.09.37,3.12,3.12,0,0,0,1.9-.93,5.11,5.11,0,0,0,1.26-2.4,16,16,0,0,0-7.07,1.23Z"/><path class="cls-3" d="M23.26,28.17c-.15.42-1.05.47-2,.11s-1.6-1-1.44-1.4,1.05-.47,2-.11S23.42,27.75,23.26,28.17Z"/><path class="cls-3" d="M35.27,26.23c.16.62-.88,1.44-2.31,1.81s-2.74.16-2.9-.46.87-1.44,2.31-1.82S35.1,25.6,35.27,26.23Z"/><path class="cls-1" d="M20,16.21v.39L20,17.68c0,.14.14.83,0,.92a23,23,0,0,0,4.18-5.74,3.76,3.76,0,0,0,.35-1.42,10,10,0,0,0,1.87,2.77,9.66,9.66,0,0,0,1.39,1.09,15,15,0,0,1,1.42.81,5.44,5.44,0,0,1-1.64-2.77c1.91,2.77,4.94,4.56,8.06,5.82a5.7,5.7,0,0,1-1.46-2.44,17.5,17.5,0,0,0,7.45,5.54,5.94,5.94,0,0,0,1-1.7A5.34,5.34,0,0,0,43,19.7l0-.07a10,10,0,0,0,.32-1.55,14.06,14.06,0,0,0-1.26-7.34,9.69,9.69,0,0,0-4.52-4.85h0A10.29,10.29,0,0,0,31.92,4.8a17.49,17.49,0,0,0-5.35,1.5c-.51.22-2.28,1.19-2.28,1.19a6.15,6.15,0,0,0-2.22.58,5.19,5.19,0,0,0-1.82,3.5c-.05.24-.08.48-.11.71A24.24,24.24,0,0,0,20,15.1c0,.24,0,.48,0,.71S20,16.07,20,16.21Z"/><path class="cls-1" d="M36.09,24.57c0-.15.13-.37.24-.64a6.81,6.81,0,0,1,.48-.91,4.06,4.06,0,0,1,.86-1,3.66,3.66,0,0,1,1.13-.63,4.77,4.77,0,0,1,1-.25l.34-.05.22-.15-.08.14h.46l-.63.31c-.1.17-.23.38-.37.63a11.89,11.89,0,0,0-1.19,2.52,16,16,0,0,0-.49,2.76c0,.37-.09.68-.11.89s-.05.33-.05.33l-.1-.32c-.05-.21-.13-.51-.2-.89A7.19,7.19,0,0,1,37.47,26a5.46,5.46,0,0,1,.22-1.69,5.36,5.36,0,0,1,.78-1.53,7.77,7.77,0,0,1,.87-1,8.07,8.07,0,0,0-1.24.8,12.7,12.7,0,0,0-1.47,1.53l-.45.52-.17.19Z"/><path class="cls-1" d="M37.8,21A27.66,27.66,0,0,1,30,16.33a3.31,3.31,0,0,0,1,1.39,11.52,11.52,0,0,1-6.13-4.56,4.9,4.9,0,0,1-.94-2.45,1.07,1.07,0,0,1,.06-.43,1.06,1.06,0,0,1,.57-.49,4.5,4.5,0,0,1,3-.15A11,11,0,0,1,30.36,11a11.66,11.66,0,0,1,2.12,1.64c1.22,1.26,1.38,2.64,2,4.16A10.48,10.48,0,0,0,37.8,21Z"/><path class="cls-1" d="M27,21.36a4.48,4.48,0,0,1-1.69-1.63,12.68,12.68,0,0,1-2.11-5.38A5.2,5.2,0,0,1,23.55,11c.3-.55,1.46-1.49,1.94-.57.29.56-.39,1.83-.5,2.42a11,11,0,0,0,.45,5.6A10.29,10.29,0,0,0,27,21.36Z"/><path class="cls-2" d="M23.26,10.52q.42-.11.84-.18a6.71,6.71,0,0,0-.1,2,9.18,9.18,0,0,1,1.66-2.52,9.34,9.34,0,0,0,3.45,2.94,7,7,0,0,1-.58-4.31,18.12,18.12,0,0,0,6.4,5.62,7.65,7.65,0,0,1,0-2.9A22.2,22.2,0,0,0,43,19.7l.1.06a.83.83,0,0,1-.07-.13,8.6,8.6,0,0,1-1-3.2,14.56,14.56,0,0,0,1.28,1.65,14.77,14.77,0,0,0,4,3.16c-.21-1.11-.44-2.34-.68-3.72A14.94,14.94,0,0,0,45.21,13a16.84,16.84,0,0,0-7.6-7.14h0A10.29,10.29,0,0,0,31.92,4.8a17.49,17.49,0,0,0-5.35,1.5l-.19.08c-.65.32-2.09,1.11-2.09,1.11a6.15,6.15,0,0,0-2.22.58,5.19,5.19,0,0,0-1.82,3.5A16,16,0,0,1,23.26,10.52Z"/><path class="cls-19" d="M26.29,8.06a14.39,14.39,0,0,1,5.84-1.35,16.66,16.66,0,0,0,2,2,2.67,2.67,0,0,1,0-1.7,15.83,15.83,0,0,0,6.49,4.7,6.67,6.67,0,0,1-1.13-2.1A12.17,12.17,0,0,0,45.21,13a16.84,16.84,0,0,0-7.6-7.14h0A10.29,10.29,0,0,0,31.92,4.8a17.49,17.49,0,0,0-5.35,1.5l-.19.08,1,.34Z"/><path class="cls-19" d="M27.52,4.22a4.42,4.42,0,0,1,.65-2A4.57,4.57,0,0,1,30.84,0a5.49,5.49,0,0,0-4.62,2.05,2.8,2.8,0,0,0,0,3.39A3,3,0,0,0,27,6a3.85,3.85,0,0,0,1.72.5C28.14,5.76,27.47,5.39,27.52,4.22Z"/><path class="cls-14" d="M21.5,43.9s-2.88,1.74-3,4l2.38,27.93S23,47.6,21.5,43.9Z"/><path class="cls-20" d="M61,85H54c-.32-1.21-.63-2.41-.92-3.56-1-4-1.83-7.5-2-8.83a2,2,0,0,1,0-.45,20.62,20.62,0,0,0-.39-3.33v0C50.13,65.6,49.17,60.76,48.4,57c-.21-1-.4-1.94-.57-2.74-.07-.35-.14-.67-.2-1a1.42,1.42,0,0,0-.05-.22c-.22-1.08-.36-1.73-.36-1.73h0l.54,0,.33,0h.13c.52,0,1.05.08,1.58.14a8.35,8.35,0,0,1,3.37,1.07,4.69,4.69,0,0,1,1.64,1.67,14.21,14.21,0,0,1,1,1.85,16,16,0,0,1,1.32,5.16l.5,5.71.25,1.63S60,74.07,60.17,76l.22,2.4Z"/><path class="cls-21" d="M58,71.41c-.11-.32-.22-.64-.31-1-.89-3.11-.8-6.51-1.42-9.65a13.32,13.32,0,0,0-1-3.28,9.06,9.06,0,0,0-.49-.92,15.63,15.63,0,0,0-3-3.47l0,0h0c-.59-.53-1.21-1-1.81-1.56a8.35,8.35,0,0,1,3.37,1.07,4.69,4.69,0,0,1,1.64,1.67,14.21,14.21,0,0,1,1,1.85,16,16,0,0,1,1.32,5.16l.5,5.71.25,1.63S60,74.07,60.17,76l.22,2.4L61,85h-.83c-.23-1.88-.45-3.75-.64-5.63l-.15-1.48a26.76,26.76,0,0,0-.55-3.8c-.23-.91-.57-1.79-.87-2.68Z"/><path class="cls-22" d="M56.53,69.63s0,.07-.07.2a.89.89,0,0,1-.1.23,1.81,1.81,0,0,1-.17.29,1.67,1.67,0,0,1-.24.32,3.37,3.37,0,0,1-.33.32,2.85,2.85,0,0,1-.91.5,2.6,2.6,0,0,1-1,.13,2,2,0,0,1-.44-.07,1.79,1.79,0,0,1-.37-.11,2.43,2.43,0,0,1-.28-.14.86.86,0,0,1-.2-.14,1,1,0,0,1-.16-.12l.19,0a1.3,1.3,0,0,0,.22,0l.29,0h.35c.12,0,.25,0,.38,0a6.2,6.2,0,0,0,.86-.2,5.48,5.48,0,0,0,.81-.35c.12-.07.24-.13.34-.2l.29-.2.23-.2a1.38,1.38,0,0,0,.17-.15Z"/><path class="cls-9" d="M61.86,85H53.25L50.5,72.91,46,62.06h0l-.13-.3h0L44.29,58.1l-.69-1.64-.45-1.08-2.06-4.91,3.24-2.68h0l3-2.52.59-.49a6.4,6.4,0,0,1,1,.45,7.75,7.75,0,0,1,1.29.88c2.61,2.16,4.48,6.15,5.8,10.27h0A75.38,75.38,0,0,1,59,70l.12.37a49.88,49.88,0,0,1,1.76,7.26l.18,1.2Z"/><path class="cls-23" d="M61.86,85H60.14c-.28-1.82-.57-3.66-.85-5.41-.53-3.34-1-6.33-1.33-8.18v0l-.32-1.91a37.84,37.84,0,0,0-1.41-8.71c-.31-1.13-.66-2.23-1-3.28s-.68-1.83-1-2.68-.65-1.53-1-2.23A57.17,57.17,0,0,0,50,46.76c-.61-1-1-1.53-1-1.53a7.75,7.75,0,0,1,1.29.88c2.61,2.16,4.48,6.15,5.8,10.27h0A75.38,75.38,0,0,1,59,70l.12.37a49.88,49.88,0,0,1,1.76,7.26l.18,1.2Z"/><polygon class="cls-11" points="53.25 85.02 50.5 72.91 45.95 62.06 45.95 62.05 45.82 61.75 45.82 61.74 44.29 58.1 44.4 57.92 45.56 55.99 46.45 58.24 46.53 58.43 50.66 68.83 50.66 68.85 52.03 72.29 52.42 74.11 54.75 85.02 53.25 85.02"/><path class="cls-14" d="M50.34,46s-2.41-3.7-4.66-4.17c0,0-9.26,33.68,4.66,39.39C50.34,81.25,40.14,68.64,50.34,46Z"/></g></g></svg>