<svg xmlns="http://www.w3.org/2000/svg" viewBox="0 0 53.64 86.68"><defs><style>.cls-1{fill:#ff9300;}.cls-2{fill:#cf691f;}.cls-3{fill:#749ec2;}.cls-4{fill:#4f83a7;}.cls-5{fill:#007c7e;}.cls-6{fill:#006060;}.cls-7{fill:#fff0e7;}.cls-8{fill:#651924;}.cls-9{fill:#7e2426;}.cls-10{fill:#fdbd8e;}.cls-11{fill:#fb9988;}.cls-12{fill:#ffdaba;}.cls-13{fill:#fd7d6f;}.cls-14{fill:#161818;}.cls-15{fill:#a94739;}.cls-16{fill:#118c8c;}.cls-17{fill:#63ccca;}.cls-18{fill:#f48fb1;}</style></defs><title>smileРесурс 11</title><g id="Слой_2" data-name="Слой 2"><g id="OBJECTS"><path class="cls-1" d="M40.83,52.34S55,59.92,53.53,70.06s-5.07,10.18-5.07,10.18l-7.63-8.43L34.56,57.13Z"/><path class="cls-2" d="M47.62,84a19.58,19.58,0,0,1-.33,2.17c0,.15-.06.29-.1.43h-23l.14-1.87.32-4.19,0-.24.09-1.22.49-6.33,0-.38L25.83,65,28,62.75l.77-.79,4.71-4.85,3.24-3.33s.3.39.79,1.11l.13.18s0,0,0,0l.06.07c2.49,3.64,9,13.94,9.92,24.15A25.91,25.91,0,0,1,47.62,84Z"/><path class="cls-3" d="M35.46,86.57h-26v0l.12-.59c.1-.47.19-.92.28-1.36s.18-.85.26-1.25.13-.6.19-.88l.17-.82c.08-.36.15-.69.21-1,0,0,0-.06,0-.08s0,0,0-.06,0-.15.05-.22.05-.22.07-.32c.06-.29.11-.52.15-.68s0,0,0,0v0l0-.11a.17.17,0,0,1,0-.07H32.15s.09.16.24.46l.06.12.13.26c.22.46.52,1.08.87,1.85,0,.08.08.18.12.27l.09.19c.14.31.29.64.44,1a.77.77,0,0,0,.07.16s0,.08,0,.11q.28.66.57,1.38a2.44,2.44,0,0,1,.1.24.14.14,0,0,1,0,.06c.11.25.21.5.3.76l.09.21C35.35,86.26,35.4,86.41,35.46,86.57Z"/><path class="cls-4" d="M35.46,86.57H32.05c-.16-.44-.31-.87-.47-1.3L31,83.68c-.05-.16-.11-.32-.16-.47s-.07-.19-.1-.28c-.25-.7-.48-1.33-.66-1.87l-.66-1.88.71-.1.17,0h1.84s.09.16.24.46l.06.12.13.26c.22.46.52,1.08.87,1.85,0,.08.08.18.12.27l.09.19c.14.31.29.64.44,1a.77.77,0,0,0,.07.16s0,.08,0,.11q.28.66.57,1.38a2.44,2.44,0,0,1,.1.24.14.14,0,0,1,0,.06c.11.25.21.5.3.76l.09.21C35.35,86.26,35.4,86.41,35.46,86.57Z"/><path class="cls-4" d="M35.46,86.57h-26v0l.12-.59c.1-.47.19-.92.28-1.36s.18-.85.26-1.25.13-.6.19-.88l.17-.82c.08-.36.15-.69.21-1,0,0,0-.06,0-.08s0,0,0-.06,0-.15.05-.22.05-.22.07-.32c.06-.29.11-.52.15-.68s0,0,0,0v0l0-.11a.17.17,0,0,1,0-.07H32.15s.09.16.24.46l.06.12.13.26c.22.46.52,1.08.87,1.85,0,.08.08.18.12.27l.09.19c.14.31.29.64.44,1a.77.77,0,0,0,.07.16s0,.08,0,.11q.28.66.57,1.38a2.44,2.44,0,0,1,.1.24.14.14,0,0,1,0,.06c.11.25.21.5.3.76l.09.21C35.35,86.26,35.4,86.41,35.46,86.57Z"/><path class="cls-5" d="M37.92,54h0s0,0,0,.06l-.12.63c0,.17-.07.33-.1.5-.06.32-.13.65-.2,1s-.14.66-.21,1v0c-.21,1-.41,2-.64,3a.06.06,0,0,0,0,0c0,.07,0,.13,0,.2l-.21.95h0c-.6,2.81-1.24,5.69-1.81,8.33h0c-.09.43-.18.85-.26,1.27s-.16.71-.23,1.06c0,.17-.07.33-.1.49-.07.33-.14.65-.2,1a44.16,44.16,0,0,0-1.07,6.58s1,2.14,2.25,5l0,0c.18.44.37.89.55,1.36H9.35l-.26.11s0-.07,0-.11a54.83,54.83,0,0,1,1.37-5.95s0,0,0,0A10.19,10.19,0,0,1,11,79.29s0,0,0,0a1.08,1.08,0,0,1,.08-.19v0c0-.23.17-1.77.33-3.86h0a.25.25,0,0,0,0-.08h0c.06-.74.12-1.54.18-2.38l0-.44v0c.34-4.83.62-10.61.11-11.6a18.73,18.73,0,0,1-1.86-12h0c.08-.36.17-.71.27-1.07A11.31,11.31,0,0,1,12,43.91a9.57,9.57,0,0,1,1.53-1.59A24,24,0,0,1,16,40.45l.45-.29c.29-.18.57-.34.84-.49l.39-.2c.25-.13.49-.24.72-.34s.44-.19.64-.26.58-.19.82-.25l.42-.1a4.56,4.56,0,0,1,.81-.08s0,0,0,0H28l.34.08h0l.09,0h.06l.16,0,.25.07.29.08.37.11L30,39l.87.29h0a20.26,20.26,0,0,1,2.87,1.43c.44.26.88.53,1.29.8h0l.12.08.06,0,.37.25h0l.4.28a4.55,4.55,0,0,1,1.26,1.18A11.65,11.65,0,0,1,38,46.05,22.68,22.68,0,0,1,37.92,54Z"/><path class="cls-6" d="M35.53,86.57H29.12l-4.8-1.87-5.57-2.18-9.31,4-.09,0-.26.11s0-.07,0-.11a54.83,54.83,0,0,1,1.37-5.95s0,0,0,0l.21-.07,4.63-1.46,2.38-.75,1.95-.62.19.11a10,10,0,0,0,.91.52l.24.14,1.17.6c.74.37,1.59.79,2.49,1.22,2,1,4.3,2.06,6.19,2.94l4,1.87.06.07,0,.06C35.16,85.65,35.35,86.1,35.53,86.57Z"/><path class="cls-6" d="M14.38,61.56l.69,0L17,61.4a18.6,18.6,0,0,1,5.91.39c.56.14,1.11.32,1.67.47a15.08,15.08,0,0,0,1.67.35,13,13,0,0,0,2.87.09,4.47,4.47,0,0,0,1.11-.21A2.3,2.3,0,0,0,31,62.1a1.79,1.79,0,0,0,.37-.39l.09-.16-.14.12a1.49,1.49,0,0,1-.43.24,3.54,3.54,0,0,1-1.76.1,21.73,21.73,0,0,1-2.65-.55c-.49-.13-1-.29-1.51-.47s-1.09-.38-1.71-.54a10.08,10.08,0,0,0-3.57-.27,15.14,15.14,0,0,0-2.8.54c-.78.22-1.39.43-1.81.59S14.38,61.56,14.38,61.56Z"/><path class="cls-7" d="M12,43.9c1.52,2.1,2.68,5.42,9.07,5.92,7.4.59,12.12-6.43,12.72-9.08a20.79,20.79,0,0,0-2.86-1.43l0,0L30,39c-1.12-.35-2-.55-2-.55H21.09a5.21,5.21,0,0,0-1.23.17h0c-.24.07-.51.15-.81.26A14.68,14.68,0,0,0,16,40.45a25.33,25.33,0,0,0-2.48,1.86A10.36,10.36,0,0,0,12,43.9Z"/><path class="cls-8" d="M11.51,33.31a5.34,5.34,0,0,1-1,5.3A9.44,9.44,0,0,0,14.66,36a3.51,3.51,0,0,1,.23,2.62,5.52,5.52,0,0,0,3.93-2.94L19.76,38a10.9,10.9,0,0,1,.61-3.76,3.42,3.42,0,0,1,.13-.34,3.91,3.91,0,0,1,.57.31,5.13,5.13,0,0,1,2.33,3.54,4.92,4.92,0,0,0,3.85-3.56l2,3.4a5.51,5.51,0,0,1,1.61-3.28A3.17,3.17,0,0,1,31,37.65,4.25,4.25,0,0,0,34.35,34a5.47,5.47,0,0,0,2.27,4.25c-1.15-1.6,1.57-3.77.81-5.59,1,.66.93,2.1,1,3.28s.72,2.69,1.89,2.52c-.57-1.28.21-2.72.85-4,.45-.88,0-2.72-.59-4.06a23.06,23.06,0,0,1-1.78-5c-.24-1.1-.52-2.47-.84-4.14q-.33-1.66-.69-3.72a15.43,15.43,0,0,0-5.17-9,16.08,16.08,0,0,0-4-2.61h0c-4.38,0-8.95,1.86-12.85,3.84-.5.25-1,.51-1.47.8a6.8,6.8,0,0,0-1.4,1.1,6.13,6.13,0,0,0-1.13,1.71,12.33,12.33,0,0,0-.78,2.48c-.06.28-.12.56-.17.84a71.14,71.14,0,0,0-1.18,10C9,29,8.56,36.42,7.36,38.44a8.78,8.78,0,0,0,3.21-2.86C11.35,34.28,11.31,32.75,11.51,33.31Z"/><path class="cls-9" d="M22.09,34c-.33.07-.67.13-1,.17a5.13,5.13,0,0,1,2.33,3.54,4.92,4.92,0,0,0,3.85-3.56l2,3.4a5.51,5.51,0,0,1,1.61-3.28A3.17,3.17,0,0,1,31,37.65,4.25,4.25,0,0,0,34.35,34a5.47,5.47,0,0,0,2.27,4.25c-1.15-1.6,1.57-3.77.81-5.59,1,.66.93,2.1,1,3.28s.72,2.69,1.89,2.52c-.57-1.28.21-2.72.85-4,.45-.88,0-2.72-.59-4.06a23.06,23.06,0,0,1-1.78-5c-.24-1.1-.52-2.47-.84-4.14q-.33-1.66-.69-3.72a15.43,15.43,0,0,0-5.17-9c.36.75,1,1.57,1.24,2a30.55,30.55,0,0,1,1.61,3.82c.52,1.5,1,3,1.34,4.57,1.16,4.68,1.89,9.49,3.5,14a9.21,9.21,0,0,1-3.32-3,9.62,9.62,0,0,1-1,3.28c-.24-.87-.48-1.75-.73-2.62-.6.75-1.21,1.49-1.82,2.23a6.15,6.15,0,0,0-.47-2.27,9.78,9.78,0,0,0-2.16,2.33,4.27,4.27,0,0,1-.37-1.8C27.7,32.86,24.84,33.47,22.09,34Z"/><path class="cls-9" d="M11.51,33.31a5.34,5.34,0,0,1-1,5.3A9.44,9.44,0,0,0,14.66,36a3.51,3.51,0,0,1,.23,2.62,5.52,5.52,0,0,0,3.93-2.94L19.76,38a10.9,10.9,0,0,1,.61-3.76,3.11,3.11,0,0,1-.61-.1,1.69,1.69,0,0,1-1.32-1.71l-1.35,2c-.55-.89-1.1-1.77-1.64-2.66a9.6,9.6,0,0,1-2.31,2.61,5.9,5.9,0,0,0-1-3.24,7.55,7.55,0,0,1-3,2.22q1-10,2.09-20a12.33,12.33,0,0,0-.78,2.48c-.06.28-.12.56-.17.84a71.14,71.14,0,0,0-1.18,10C9,29,8.56,36.42,7.36,38.44a8.78,8.78,0,0,0,3.21-2.86C11.35,34.28,11.31,32.75,11.51,33.31Z"/><path class="cls-10" d="M16,40.44a8.39,8.39,0,0,0,5.67,5.76c4.95,1.65,8.2-4.57,9.22-6.91-1.51-.53-2.86-.84-2.86-.84H21.1a4.77,4.77,0,0,0-1.24.17h0a7.94,7.94,0,0,0-.81.25A15.19,15.19,0,0,0,16,40.44Z"/><path class="cls-10" d="M21.94,45.24,28,38.45c0-1-.09-1.39-.19-3.89-.09-2.78-.19-5.39-.19-5.39l-7.85,3.1a18.41,18.41,0,0,1,1.4,6.33A50.72,50.72,0,0,0,21.94,45.24Z"/><path class="cls-11" d="M19.8,32.27a18.41,18.41,0,0,1,1.4,6.33l.72.28c.91.31,3.84-2.28,5.92-4.32-.09-2.78-.19-5.39-.19-5.39Z"/><path class="cls-10" d="M11.57,23c.16.72.36,1.48.62,2.28,0,0-.35,3.93.06,4.81s3.05,6.37,5.83,6c2.32-.29,8-3.68,10-5.7a2.33,2.33,0,0,0,.69-1c.27-1.56,1.19-8.43,1.28-9,.24-1.56.89-13.36-13.38-10.08a6.89,6.89,0,0,0-5.18,5.16A17.25,17.25,0,0,0,11.57,23Z"/><path class="cls-12" d="M12.19,25.24s-.35,3.93.06,4.81,3.05,6.37,5.83,6c2.32-.29,8-3.68,10-5.7-2.41,1.67-8.84,5.95-10.73,5.29-2.34-.81-5-6-4.93-6.5s.21-3.86.21-3.86-.47-1.06-1-2.35C11.73,23.68,11.93,24.44,12.19,25.24Z"/><path class="cls-12" d="M28.08,29.17a5.45,5.45,0,0,0,3.79-2.09,4.64,4.64,0,0,0,.38-.56c.51-.93.66-4.15-.66-4.9-.92-.52-1.59.24-1.91.74h0a3.11,3.11,0,0,0-.21.38Z"/><path class="cls-10" d="M28.08,29.17a5.45,5.45,0,0,0,3.79-2.09,2.63,2.63,0,0,0,.16-.26c.51-.93.66-4.15-.66-4.89a1.25,1.25,0,0,0-1.69.43h0a3.11,3.11,0,0,0-.21.38Z"/><path class="cls-11" d="M32,24.18A1.49,1.49,0,0,1,32,25a6.36,6.36,0,0,1-2.48,2.67,2.7,2.7,0,0,0,.37-1.69,4.07,4.07,0,0,1-.07-.61C29.76,24.53,31.62,22.66,32,24.18Z"/><path class="cls-13" d="M29,27.93l.05,0,.17-.1a2.23,2.23,0,0,0,.51-.46,2.1,2.1,0,0,0,.42-.86A1.82,1.82,0,0,0,30,25.35a.64.64,0,0,0-.08-.14l0,0h0l0,0,0-.06A.75.75,0,0,1,30,25a2.88,2.88,0,0,1,.31-.44q.16-.21.33-.39a3,3,0,0,1,.33-.3.76.76,0,0,1,.33-.15.63.63,0,0,1,.29,0,.26.26,0,0,1,.12.11.15.15,0,0,1,0,.06.09.09,0,0,0,0-.06.26.26,0,0,0-.11-.14.56.56,0,0,0-.33-.11.93.93,0,0,0-.44.13,2.7,2.7,0,0,0-.4.29,4.49,4.49,0,0,0-.4.37,3.94,3.94,0,0,0-.36.45l-.09.13,0,.07-.05.09,0,.06a.43.43,0,0,1,0,.07l.05.09a.75.75,0,0,1,.07.12,1.9,1.9,0,0,1,.16,1,2,2,0,0,1-.27.82,2.56,2.56,0,0,1-.39.5l-.14.12Z"/><path class="cls-9" d="M10.28,20.13s1.82-2.44,2.84-1.47.56,1.06.56,1.06Z"/><path class="cls-9" d="M24.93,20.55s-4.08-3.11-5.15-1.49c-.62,1,0,1.37,0,1.37Z"/><path class="cls-14" d="M20.2,20.9a2.19,2.19,0,0,0,1.08.93.91.91,0,0,1,.69-.36c.65,0,1.18.85,1.18,1.9s-.53,1.91-1.18,1.91-1.19-.85-1.19-1.91a2.88,2.88,0,0,1,.14-.9A3.47,3.47,0,0,1,20.2,20.9Z"/><path class="cls-7" d="M24.29,22.31a2.43,2.43,0,0,1-2.62,1.06,2.79,2.79,0,0,1,1.14-.95A2.74,2.74,0,0,1,24.29,22.31Z"/><path class="cls-14" d="M12.18,21.91a1.5,1.5,0,0,0,.74.64.7.7,0,0,1,.46-.21c.5,0,.9.65.9,1.44s-.4,1.43-.9,1.43-.89-.64-.89-1.43a2.05,2.05,0,0,1,.16-.81A2.64,2.64,0,0,1,12.18,21.91Z"/><path class="cls-7" d="M11.72,23.08a2.22,2.22,0,0,0,.83.63,2.12,2.12,0,0,0,1,.12,2.22,2.22,0,0,0-.83-.63A2.12,2.12,0,0,0,11.72,23.08Z"/><path class="cls-11" d="M17.42,27.76a2.26,2.26,0,0,1,.9-.23,3,3,0,0,1-1.62,1.56.53.53,0,0,1-.17,0,.44.44,0,0,1-.2-.08,3.45,3.45,0,0,1-1-.91.7.7,0,0,1-.13-.24c-.07-.3.14-.23.32-.16a2.73,2.73,0,0,0,.64.16A2.7,2.7,0,0,0,17.42,27.76Z"/><path class="cls-13" d="M16.63,28.92c-.18-.17-.38-.31-.57-.47a4.84,4.84,0,0,1-.64-.64c1-.68,1-1.69.92-2.84a3.24,3.24,0,0,0-.42-1.49,3.09,3.09,0,0,0-.48-.66,2.06,2.06,0,0,0-.3-.29,1.14,1.14,0,0,0-.34-.19c.06.07.1.15.16.22s.29.36.41.56a3.59,3.59,0,0,1,.31.62A4,4,0,0,1,16,25.11a3.28,3.28,0,0,1-.22,1.35,2.67,2.67,0,0,1-1,1.25s.66.78.73.84a3.93,3.93,0,0,0,.55.44,1.26,1.26,0,0,0,.66.26.4.4,0,0,0,.21-.07.31.31,0,0,1-.11-.09l-.05,0A.86.86,0,0,0,16.63,28.92Z"/><path class="cls-7" d="M15.33,30.69a4.66,4.66,0,0,0,1.8,1.75,3.61,3.61,0,0,0,2.08.4,3.14,3.14,0,0,0,1.92-.92,5.22,5.22,0,0,0,1.29-2.39,16.14,16.14,0,0,0-7.09,1.16Z"/><path class="cls-13" d="M21,33.17a3.51,3.51,0,0,1-2.92.09,1.51,1.51,0,0,0,1.34.72A2.48,2.48,0,0,0,21,33.17Z"/><path class="cls-11" d="M13.76,28.17c-.16.42-1.06.47-2,.11s-1.6-1-1.45-1.4,1.06-.47,2-.11S13.91,27.75,13.76,28.17Z"/><path class="cls-11" d="M25.76,26.23c.16.62-.87,1.44-2.31,1.81s-2.74.16-2.9-.46.87-1.44,2.31-1.82S25.6,25.6,25.76,26.23Z"/><path class="cls-8" d="M10.44,16.21c0,.13,0,.26,0,.39l.06,1.08a3.26,3.26,0,0,1,.05.92,22.91,22.91,0,0,0,4.17-5.74,3.76,3.76,0,0,0,.35-1.42A10,10,0,0,0,17,14.21a9.66,9.66,0,0,0,1.39,1.09,15,15,0,0,1,1.42.81,5.44,5.44,0,0,1-1.64-2.77c1.91,2.77,4.94,4.56,8.06,5.82a5.7,5.7,0,0,1-1.46-2.44,17.53,17.53,0,0,0,7.46,5.54,5.94,5.94,0,0,0,1-1.7,8.29,8.29,0,0,0,.32-.86.19.19,0,0,1,0-.07,9,9,0,0,0,.32-1.55,14,14,0,0,0-1.26-7.34A9.69,9.69,0,0,0,28.1,5.89h0A10.27,10.27,0,0,0,22.41,4.8a17.49,17.49,0,0,0-5.35,1.5c-.5.22-2.28,1.19-2.28,1.19a6.15,6.15,0,0,0-2.22.58,5.23,5.23,0,0,0-1.82,3.5c0,.24-.08.48-.11.71a24.24,24.24,0,0,0-.16,2.82c0,.24,0,.48,0,.71S10.44,16.07,10.44,16.21Z"/><path class="cls-8" d="M26.58,24.57c.05-.15.13-.37.24-.64A6.81,6.81,0,0,1,27.3,23a4.29,4.29,0,0,1,.86-1,3.7,3.7,0,0,1,1.14-.63,4.55,4.55,0,0,1,1-.25l.34-.05.22-.15-.08.14h.46l-.63.31-.37.63a11.44,11.44,0,0,0-1.18,2.52,15.2,15.2,0,0,0-.5,2.76c0,.37-.08.68-.11.89s-.05.33-.05.33,0-.12-.09-.32-.14-.51-.21-.89A8.13,8.13,0,0,1,28,26a5.2,5.2,0,0,1,.23-1.69A4.9,4.9,0,0,1,29,22.74a6.45,6.45,0,0,1,.87-1,7.21,7.21,0,0,0-1.24.8,12.12,12.12,0,0,0-1.48,1.53l-.45.52-.17.19Z"/><path class="cls-8" d="M28.29,21a27.61,27.61,0,0,1-7.84-4.68,3.29,3.29,0,0,0,1,1.39,11.46,11.46,0,0,1-6.12-4.56,4.72,4.72,0,0,1-.94-2.45,1.06,1.06,0,0,1,0-.43A1,1,0,0,1,15,9.79a4.5,4.5,0,0,1,3.05-.15A11,11,0,0,1,20.85,11,11.32,11.32,0,0,1,23,12.63c1.22,1.26,1.39,2.64,2,4.16A10.48,10.48,0,0,0,28.29,21Z"/><path class="cls-8" d="M17.47,21.36a4.5,4.5,0,0,1-1.7-1.63,12.81,12.81,0,0,1-2.11-5.38A5.34,5.34,0,0,1,14,11c.3-.55,1.46-1.49,1.94-.57.29.56-.38,1.83-.49,2.42a10.89,10.89,0,0,0,.44,5.6A10.07,10.07,0,0,0,17.47,21.36Z"/><path class="cls-9" d="M13.76,10.52c.27-.07.55-.13.83-.18a7.06,7.06,0,0,0-.1,2,9.41,9.41,0,0,1,1.66-2.52,9.42,9.42,0,0,0,3.45,2.94A7,7,0,0,1,19,8.45a18.15,18.15,0,0,0,6.41,5.62,7.85,7.85,0,0,1,0-2.9,22.15,22.15,0,0,0,8.08,8.53l.09.06-.07-.13a8.79,8.79,0,0,1-1-3.2,15.8,15.8,0,0,0,1.28,1.65,14.82,14.82,0,0,0,4,3.16q-.33-1.66-.69-3.72A14.94,14.94,0,0,0,35.7,13a16.84,16.84,0,0,0-7.6-7.14h0A10.27,10.27,0,0,0,22.41,4.8a17.49,17.49,0,0,0-5.35,1.5l-.18.08c-.66.32-2.1,1.11-2.1,1.11a6.15,6.15,0,0,0-2.22.58,5.23,5.23,0,0,0-1.82,3.5A16.12,16.12,0,0,1,13.76,10.52Z"/><path class="cls-15" d="M16.78,8.06a14.39,14.39,0,0,1,5.84-1.35,16.66,16.66,0,0,0,2,2,2.74,2.74,0,0,1,0-1.7A15.83,15.83,0,0,0,31,11.68a6.67,6.67,0,0,1-1.13-2.1A12.22,12.22,0,0,0,35.7,13a16.84,16.84,0,0,0-7.6-7.14h0A10.27,10.27,0,0,0,22.41,4.8a17.49,17.49,0,0,0-5.35,1.5l-.18.08,1,.34Z"/><path class="cls-15" d="M18,4.22a4.32,4.32,0,0,1,.66-2A4.54,4.54,0,0,1,21.34,0a5.51,5.51,0,0,0-4.63,2.05,2.8,2.8,0,0,0,0,3.39,3,3,0,0,0,.8.58,3.77,3.77,0,0,0,1.72.51C18.63,5.76,18,5.39,18,4.22Z"/><path class="cls-5" d="M.4,81C4,83.69,18.66,78,18.66,78l1-.34-1.4-.81-6.92-1.7,2.45-3.9-.4-10.9L11.94,46.71a4.46,4.46,0,0,0-.43.17,10.54,10.54,0,0,0-4.39,3.6C3.5,55.59-1.45,79.57.4,81Z"/><path class="cls-16" d="M.4,81c.7-13.41,6.91-28.14,7-29.18S11.67,47,11.67,47l-.16-.08a10.54,10.54,0,0,0-4.39,3.6C3.5,55.59-1.45,79.57.4,81Z"/><path class="cls-1" d="M40.83,46s-2.41-3.7-4.66-4.17c0,0-9.26,33.68,4.66,39.39C40.83,81.25,30.63,68.64,40.83,46Z"/><path class="cls-6" d="M7.22,73.15C7.76,70,9.27,61.62,10,60.37c0,0-.94,11.23-.89,12.13,0,0,7.34.81,10.36-.33L16.1,76.34,8,74.33C7.41,75,6.72,75.9,6.36,76c-.73.13.66-1.64.66-1.64a6.1,6.1,0,0,1-2.09-.25C4.59,73.88,6.08,73.45,7.22,73.15Z"/><path class="cls-10" d="M11.35,75.17l.68.17,6.24,1.53,1-3.9.2-.8a41.26,41.26,0,0,0-4.52-.9C14.3,71.32,11.35,75.17,11.35,75.17Z"/><path class="cls-12" d="M11.35,75.17l.68.17c1.13-1.09,2.76-2.65,3-2.84s3.19.28,4.2.47l.2-.8a41.26,41.26,0,0,0-4.52-.9C14.3,71.32,11.35,75.17,11.35,75.17Z"/><path class="cls-1" d="M12,43.9s-2.89,1.74-3,4l2.7,24.85S13.44,47.6,12,43.9Z"/><path class="cls-5" d="M18.26,76.87c5.35,3,14.16,8.62,21.43,9.28h0c4.59.43,8.19.26,9.07-.62,2.29-2.28-.25-23.45-2.4-31.85a14.6,14.6,0,0,0-5.74-7.94l.2.29c-.12.26-.23.52-.35.77a54.25,54.25,0,0,0-3,9c-.08.31-.15.61-.21.92l1.59,16-.73,0-1,0-1.65,0-1.28,0-2,0h-.1l-12.72-.35Z"/><path class="cls-16" d="M39.7,86.15c4.59.43,8.19.26,9.07-.62,2.29-2.28-.25-23.45-2.4-31.85a14.6,14.6,0,0,0-5.74-7.94l.2.29c-.12.26-.23.52-.35.77,2.14,1.85,4.09,4.09,4.62,6.41.68,3,4.2,28.51,2.95,30.32S40,86.15,39.7,86.15Z"/><path class="cls-6" d="M19.43,72.17l13,1.24,2.06.19,1.2.12,1.74.16.63.06s2.34,3.22,2.53,2.91-.55-2.23-.57-2.28,2.86,1.39,3.36,1.27S40.13,73,40.13,73L37.45,55.81c-.08.31-.15.61-.21.92l1.59,16-.73,0-1,0-1.65,0-1.28,0-2,0h-.1Z"/><path class="cls-17" d="M22.3,71.27S20.88,79.08,20.41,79s-2.7-.72-2.7-.72l1.72-7.37Z"/><path class="cls-10" d="M30.28,72.47l7.83.23h.72s-1.57-3.39-2.57-3.58-5.83,3.23-6,3.34Z"/><path class="cls-12" d="M30.28,72.47c.17-.07,5.32-2,5.84-2s1.89,2.1,2,2.24h.72s-1.57-3.39-2.57-3.58S30.43,72.36,30.28,72.47Z"/><path class="cls-18" d="M9.35,86.57l-.26.11s0-.07,0-.11Z"/></g></g></svg>