<svg xmlns="http://www.w3.org/2000/svg" viewBox="0 0 52.84 85.06"><defs><style>.cls-1{fill:#4f83a7;}.cls-2{fill:#749ec2;}.cls-3{fill:#007c7e;}.cls-4{fill:#006060;}.cls-5{fill:#ff9300;}.cls-6{fill:#cf691f;}.cls-7{fill:#fff0e7;}.cls-8{fill:#651924;}.cls-9{fill:#7e2426;}.cls-10{fill:#fdbd8e;}.cls-11{fill:#fb9988;}.cls-12{fill:#ffdaba;}.cls-13{fill:#fd7d6f;}.cls-14{fill:#161818;}.cls-15{fill:#a94739;}.cls-16{fill:#edb838;}.cls-17{fill:#ffd455;}.cls-18{fill:#940b20;}.cls-19{fill:#ac1426;}.cls-20{fill:#118c8c;}.cls-21{fill:#ffa07f;}.cls-22{fill:#ff7d6f;}.cls-23{fill:#cf4a57;}.cls-24{fill:#ffbf90;}.cls-25{fill:#63ccca;}.cls-26{fill:none;}.cls-27{fill:#f48fb1;}</style></defs><title>winkРесурс 7</title><g id="Слой_2" data-name="Слой 2"><g id="OBJECTS"><path class="cls-1" d="M44,85H29.6v0l-.37,0H27.44V83.28l2-.16L30.89,83l4.45.58,2.69.35.93.12.17,0,.93.12L44,84.7Z"/><path class="cls-2" d="M35.63,85h-6v0l-.37,0H20.14c.06-.3.12-.58.18-.85.13-.64.26-1.21.37-1.71H35.11l.23,1.12Z"/><path class="cls-1" d="M22.37,82.46c-.08.59-.16,1.22-.23,1.88l-.09.68H20.14c.06-.3.12-.58.18-.85.13-.64.26-1.21.37-1.71Z"/><path class="cls-3" d="M52.84,85H45.51c-.44-1.11-.89-2.24-1.32-3.35h0c-.5-1.28-1-2.53-1.45-3.69-.08-.19-.15-.39-.23-.57L42.36,77c-.1-.27-.21-.53-.31-.79a.25.25,0,0,0,0-.07h0c-.25-.65-.49-1.25-.69-1.78h0c-.3-.78-.55-1.41-.72-1.83L40.37,72a27.83,27.83,0,0,1,0-3.26v0c0-.46,0-1,0-1.49s0-.88,0-1.34c0-1.45.06-3.06.1-4.74,0-.31,0-.63,0-.95s0-.47,0-.71c.12-5.37.28-11.09.36-14h0c0-.42,0-.78,0-1.07,0-.56,0-.88,0-.88a6.85,6.85,0,0,1,.79.54l.06,0,.06,0,.64.56a11.28,11.28,0,0,1,1,1,12.06,12.06,0,0,1,1.49,2.15h0a12.17,12.17,0,0,1,.85,2c1.43,4.37,5,27.37,5,27.37Z"/><path class="cls-4" d="M43.61,76.44c-.07.62,1.69,4.53,3.61,8.58H45.51c-.44-1.11-.89-2.24-1.32-3.35h0c-.5-1.28-1-2.53-1.45-3.69-.08-.19-.15-.39-.23-.57L42.36,77c-.1-.27-.21-.53-.31-.79a.25.25,0,0,0,0-.07h0c-.25-.65-.49-1.25-.69-1.78h0c-.3-.78-.55-1.41-.72-1.83L40.37,72a27.83,27.83,0,0,1,0-3.26v0c0-.46,0-1,0-1.49s.16-.85.24-1.29c.26-1.46.53-3,.77-4.57,0-.31.09-.62.14-.93s.07-.46.1-.69l0-.14v0a56.57,56.57,0,0,0,.73-11.08,71.1,71.1,0,0,1,.9,9.62c0,.67.06,1.36.09,2s0,1.08.07,1.62c0,0,0,0,0,.07l.09,2.77v0c0,.24,0,.48,0,.72,0,1.49.07,2.93.09,4.24v0c0,1.34,0,2.55,0,3.57,0,.31,0,.6,0,.87C43.65,75.4,43.63,76.25,43.61,76.44Z"/><path class="cls-5" d="M13.06,52.34S-1.13,59.92.36,70.06,5.43,80.24,5.43,80.24l7.63-8.43,6.27-14.68Z"/><path class="cls-6" d="M19,85H6.4a22.3,22.3,0,0,1-.21-4.09h0c0-.54,0-1.09.1-1.63A32.28,32.28,0,0,1,7,75.05c.23-1,.5-2,.8-3,.15-.48.3-1,.46-1.43h0a68.83,68.83,0,0,1,8-15.49l.05-.07c0-.07.09-.14.14-.2.49-.72.79-1.11.79-1.11l.66.68.07.07L19,55.69l1.13,1.15.26.27,2.49,2.56,1,1,.2.21.76.78.3.31.76.78,1.58,1.62.16.17.42.43.11,1.4.45,6,.14,1.78v.16l.09,1.13L29,77.3,29.13,79l0,.28h0l.09,1.24.15,1.95.05.66L29.6,85v0l-.37,0H19Z"/><path class="cls-3" d="M20.14,85h9.09l.37,0v0H44.49a29.47,29.47,0,0,0-1.66-5.94s0-.41-.1-1.11c0-.27,0-.59-.08-1v0c0-.16,0-.32,0-.49s0-.48-.06-.73v0s0-.12,0-.22a.49.49,0,0,0,0-.12c0-.23,0-.56-.07-1h0s0,0,0-.06v-.07c0-.46-.07-.93-.11-1.42,0-.66-.09-1.33-.14-2h0c-.07-1.18-.14-2.38-.19-3.53,0-.07,0-.13,0-.2l0-.61a.71.71,0,0,1,0-.14,38.49,38.49,0,0,1,0-4.83,2.65,2.65,0,0,1,.19-.89s0,0,0,0c.11-.21.21-.42.3-.64a16.53,16.53,0,0,0,.76-1.84c1.56-4.46,1.59-9.64-.78-13.41a9,9,0,0,0-.56-.81,10.49,10.49,0,0,0-1.53-1.6,25.33,25.33,0,0,0-2.48-1.86,14.44,14.44,0,0,0-3-1.58l-.1,0-.19-.06-.14,0h0L34,38.62h0a5.32,5.32,0,0,0-.79-.14l-.24,0H25.86l-.51.13-.16,0-.2.05-.42.12-.34.1-.36.11-.29.1-.21.07L23,39.3h0a20.26,20.26,0,0,0-2.87,1.43l-1.29.79,0,0h0l-.12.08-.06,0-.37.24h0l-.4.29a4.55,4.55,0,0,0-1.26,1.18,11.49,11.49,0,0,0-.68,2.65c-.09.52-.16,1.1-.21,1.73h0a21.93,21.93,0,0,0,.3,6.13.44.44,0,0,0,0,.1c0,.21.08.43.13.65s.06.33.1.49c.31,1.6.67,3.32,1,5.07a0,0,0,0,1,0,0,1.29,1.29,0,0,0,0,.19l.21,1c0,.15.06.29.1.44h0c.19.9.39,1.8.58,2.7h0c.13.61.27,1.21.39,1.81h0c.35,1.56.68,3.07,1,4.5h0c.09.4.17.78.25,1.17h0c0,.06,0,.11,0,.17.07.35.15.7.22,1,.11.58.23,1.12.33,1.65h0c.21,1.06.38,2,.51,2.82.07.39.12.74.16,1.06a9,9,0,0,1,.1,1.28s-.07.14-.18.39c-.3.61-.9,1.91-1.61,3.57v0c0,.08-.07.16-.1.25s-.09.19-.13.29L19,85h1.16Z"/><path class="cls-4" d="M39.51,61.56l-.69,0-1.88-.12a18.9,18.9,0,0,0-5.91.39c-.56.14-1.11.32-1.67.47a15.08,15.08,0,0,1-1.67.35,13,13,0,0,1-2.87.09,4.47,4.47,0,0,1-1.11-.21,2.63,2.63,0,0,1-.77-.39,1.79,1.79,0,0,1-.37-.39l-.09-.16.14.12a1.49,1.49,0,0,0,.43.24,3.54,3.54,0,0,0,1.76.1,21.73,21.73,0,0,0,2.65-.55c.49-.13,1-.29,1.51-.47s1.09-.38,1.71-.54a10.08,10.08,0,0,1,3.57-.27,16,16,0,0,1,2.8.54c.78.22,1.39.43,1.81.59S39.51,61.56,39.51,61.56Z"/><path class="cls-7" d="M41.89,43.9c-1.52,2.1-2.68,5.42-9.07,5.92-7.4.59-12.12-6.43-12.72-9.08A19.22,19.22,0,0,1,23,39.31l0,0,.87-.29c1.12-.35,2-.55,2-.55H32.8a5.21,5.21,0,0,1,1.23.17h0a7.94,7.94,0,0,1,.81.25,14.44,14.44,0,0,1,3,1.58,25.33,25.33,0,0,1,2.48,1.86A10.33,10.33,0,0,1,41.89,43.9Z"/><path class="cls-8" d="M42.38,33.31a5.34,5.34,0,0,0,1,5.3A9.44,9.44,0,0,1,39.23,36,3.51,3.51,0,0,0,39,38.57a5.52,5.52,0,0,1-3.93-2.94L34.13,38a10.9,10.9,0,0,0-.61-3.76,3.42,3.42,0,0,0-.13-.34,4.51,4.51,0,0,0-.57.31,5.13,5.13,0,0,0-2.33,3.54,4.92,4.92,0,0,1-3.85-3.56l-2,3.4A5.51,5.51,0,0,0,23,34.31a3.17,3.17,0,0,0-.12,3.34A4.25,4.25,0,0,1,19.54,34a5.44,5.44,0,0,1-2.27,4.24c1.15-1.6-1.57-3.77-.81-5.59-1,.66-.93,2.1-1,3.28s-.72,2.69-1.89,2.52c.57-1.28-.21-2.72-.85-4-.45-.88-.05-2.72.59-4.06a23.06,23.06,0,0,0,1.78-5c.24-1.1.52-2.47.85-4.14.21-1.11.44-2.34.68-3.72a15.43,15.43,0,0,1,5.17-9,16.08,16.08,0,0,1,4-2.61h0c4.38,0,9,1.86,12.85,3.84.5.25,1,.51,1.47.8a6.8,6.8,0,0,1,1.4,1.1,6.13,6.13,0,0,1,1.13,1.71,12.33,12.33,0,0,1,.78,2.48c.06.28.12.56.17.84a69.68,69.68,0,0,1,1.18,10c.11,2.35.54,9.79,1.74,11.81a8.78,8.78,0,0,1-3.21-2.86C42.54,34.28,42.59,32.75,42.38,33.31Z"/><path class="cls-9" d="M31.8,34c.33.07.68.13,1,.17a5.13,5.13,0,0,0-2.33,3.54,4.92,4.92,0,0,1-3.85-3.56l-2,3.4A5.51,5.51,0,0,0,23,34.31a3.17,3.17,0,0,0-.12,3.34A4.25,4.25,0,0,1,19.54,34a5.44,5.44,0,0,1-2.27,4.24c1.15-1.6-1.57-3.77-.81-5.59-1,.66-.93,2.1-1,3.28s-.72,2.69-1.89,2.52c.57-1.28-.21-2.72-.85-4-.45-.88-.05-2.72.59-4.06a23.06,23.06,0,0,0,1.78-5c.24-1.1.52-2.47.85-4.14.21-1.11.44-2.34.68-3.72a15.43,15.43,0,0,1,5.17-9c-.36.75-1,1.57-1.24,2A30.55,30.55,0,0,0,19,14.35c-.52,1.5-1,3-1.34,4.57-1.16,4.68-1.89,9.49-3.5,14a9.21,9.21,0,0,0,3.32-3,9.62,9.62,0,0,0,1,3.28c.24-.87.48-1.75.73-2.62.6.75,1.21,1.49,1.82,2.23a6.15,6.15,0,0,1,.47-2.27,9.78,9.78,0,0,1,2.16,2.33,4.27,4.27,0,0,0,.37-1.8C26.19,32.86,29.05,33.47,31.8,34Z"/><path class="cls-9" d="M42.38,33.31a5.34,5.34,0,0,0,1,5.3A9.44,9.44,0,0,1,39.23,36,3.51,3.51,0,0,0,39,38.57a5.52,5.52,0,0,1-3.93-2.94L34.13,38a10.9,10.9,0,0,0-.61-3.76,3.11,3.11,0,0,0,.61-.1,1.69,1.69,0,0,0,1.32-1.71l1.35,2c.55-.89,1.1-1.77,1.64-2.66a9.6,9.6,0,0,0,2.31,2.61,5.9,5.9,0,0,1,1-3.24,7.55,7.55,0,0,0,3,2.22q-1.05-10-2.09-20a12.33,12.33,0,0,1,.78,2.48c.06.28.12.56.17.84a69.68,69.68,0,0,1,1.18,10c.11,2.35.54,9.79,1.74,11.81a8.78,8.78,0,0,1-3.21-2.86C42.54,34.28,42.59,32.75,42.38,33.31Z"/><path class="cls-10" d="M37.89,40.45a8.4,8.4,0,0,1-5.67,5.75C27.27,47.85,24,41.63,23,39.29c1.51-.53,2.86-.84,2.86-.84h6.93a4.77,4.77,0,0,1,1.24.17h0a7.94,7.94,0,0,1,.81.25A14.81,14.81,0,0,1,37.89,40.45Z"/><path class="cls-10" d="M32,45.25l-6.09-6.8c0-1,.09-1.39.19-3.89.09-2.78.2-5.39.2-5.39l7.84,3.1a18.41,18.41,0,0,0-1.4,6.33A51.09,51.09,0,0,1,32,45.25Z"/><path class="cls-11" d="M34.09,32.27a18.41,18.41,0,0,0-1.4,6.33l-.72.28c-.91.32-3.84-2.28-5.92-4.32.09-2.78.2-5.39.2-5.39Z"/><path class="cls-10" d="M42.32,23c-.16.72-.36,1.48-.62,2.28,0,0,.35,3.93-.06,4.81s-3,6.37-5.83,6c-2.32-.29-8-3.68-10-5.7a2.33,2.33,0,0,1-.69-1c-.27-1.56-1.19-8.43-1.28-9C23.65,18.8,23,7,37.27,10.28a6.89,6.89,0,0,1,5.18,5.16A17.25,17.25,0,0,1,42.32,23Z"/><path class="cls-12" d="M41.7,25.24s.35,3.93-.06,4.81-3,6.37-5.83,6c-2.32-.29-8-3.68-10-5.7,2.41,1.67,8.84,5.95,10.73,5.29,2.34-.81,5-6,4.93-6.5s-.21-3.86-.21-3.86.47-1.06,1-2.35C42.16,23.68,42,24.44,41.7,25.24Z"/><path class="cls-12" d="M25.81,29.17A5.45,5.45,0,0,1,22,27.08a4.64,4.64,0,0,1-.38-.56c-.51-.93-.66-4.15.66-4.9.92-.52,1.59.24,1.91.74h0a3.11,3.11,0,0,1,.21.38Z"/><path class="cls-10" d="M25.81,29.17A5.45,5.45,0,0,1,22,27.08l-.16-.26c-.51-.93-.66-4.15.66-4.89a1.25,1.25,0,0,1,1.69.43h0a3.11,3.11,0,0,1,.21.38Z"/><path class="cls-11" d="M21.88,24.18a1.49,1.49,0,0,0,.06.78,6.36,6.36,0,0,0,2.48,2.67,2.7,2.7,0,0,1-.37-1.69,4.07,4.07,0,0,0,.07-.61C24.13,24.53,22.27,22.66,21.88,24.18Z"/><path class="cls-13" d="M24.93,27.93l-.05,0-.17-.1a2.23,2.23,0,0,1-.51-.46,2.1,2.1,0,0,1-.42-.86,1.82,1.82,0,0,1,.13-1.13.64.64,0,0,1,.08-.14l0,0h0l0,0,0-.06L23.88,25a2.88,2.88,0,0,0-.31-.44q-.16-.21-.33-.39a3,3,0,0,0-.33-.3.76.76,0,0,0-.33-.15.59.59,0,0,0-.28,0c-.08,0-.12.08-.13.12a.1.1,0,0,0,0,.05.09.09,0,0,1,0-.06.26.26,0,0,1,.11-.14.56.56,0,0,1,.33-.11.93.93,0,0,1,.44.13,2.7,2.7,0,0,1,.4.29,4.49,4.49,0,0,1,.4.37,3.94,3.94,0,0,1,.36.45l.09.13,0,.07.05.09,0,.06a.43.43,0,0,0,0,.07l-.05.09a.75.75,0,0,0-.07.12,1.9,1.9,0,0,0-.16,1,2,2,0,0,0,.27.82,2.56,2.56,0,0,0,.39.5l.14.12Z"/><path class="cls-9" d="M43.61,20.13s-1.82-2.44-2.84-1.47-.56,1.06-.56,1.06Z"/><path class="cls-9" d="M29,20.55s4.08-3.11,5.15-1.49c.62,1,0,1.37,0,1.37Z"/><path class="cls-14" d="M41.71,21.91a1.5,1.5,0,0,1-.74.64.68.68,0,0,0-.46-.21c-.5,0-.9.65-.9,1.44s.4,1.43.9,1.43.89-.64.89-1.43a2.05,2.05,0,0,0-.16-.81A2.64,2.64,0,0,0,41.71,21.91Z"/><path class="cls-14" d="M29.54,24.07l.22-.08.58-.16a7.67,7.67,0,0,1,1.76-.17,8.19,8.19,0,0,1,1.78.23l.58.18.23.09a1.41,1.41,0,0,0-.1-.18,1.86,1.86,0,0,0-.4-.45,3.34,3.34,0,0,0-2.12-.77,3,3,0,0,0-2.07.7,1.81,1.81,0,0,0-.37.43Z"/><path class="cls-7" d="M42.17,23.08a2.22,2.22,0,0,1-.83.63,2.08,2.08,0,0,1-1,.12,2.14,2.14,0,0,1,.82-.63A2.27,2.27,0,0,1,42.17,23.08Z"/><path class="cls-11" d="M36.47,27.76a2.26,2.26,0,0,0-.9-.23,3,3,0,0,0,1.62,1.56.53.53,0,0,0,.17,0,.42.42,0,0,0,.21-.08,3.54,3.54,0,0,0,1-.91.7.7,0,0,0,.13-.24c.07-.3-.14-.23-.32-.16a2.73,2.73,0,0,1-.64.16A2.7,2.7,0,0,1,36.47,27.76Z"/><path class="cls-13" d="M37.26,28.92c.18-.17.38-.31.57-.47a4.84,4.84,0,0,0,.64-.64c-1-.68-1-1.69-.92-2.84A3.37,3.37,0,0,1,38,23.48a3.09,3.09,0,0,1,.48-.66,2.72,2.72,0,0,1,.3-.29,1.14,1.14,0,0,1,.34-.19c-.06.07-.1.15-.16.22s-.29.36-.41.56a5.12,5.12,0,0,0-.31.62,4,4,0,0,0-.29,1.37,3.28,3.28,0,0,0,.22,1.35,2.67,2.67,0,0,0,1,1.25s-.66.78-.73.84a3.93,3.93,0,0,1-.55.44,1.26,1.26,0,0,1-.66.26.4.4,0,0,1-.21-.07.47.47,0,0,0,.12-.09l0,0A.86.86,0,0,1,37.26,28.92Z"/><path class="cls-13" d="M35.58,31.91a2.82,2.82,0,0,0,2.36.07,1.2,1.2,0,0,1-1.08.58A1.94,1.94,0,0,1,35.58,31.91Z"/><path class="cls-13" d="M32.83,29.84a7.12,7.12,0,0,0,6.55.9,10.44,10.44,0,0,1-3.57,0A8.05,8.05,0,0,1,32.83,29.84Z"/><path class="cls-11" d="M40.13,28.17c.16.42,1.06.47,2,.11s1.6-1,1.45-1.4-1.06-.47-2-.11S40,27.75,40.13,28.17Z"/><path class="cls-11" d="M28.13,26.23c-.16.62.87,1.44,2.31,1.81s2.74.16,2.9-.46-.87-1.44-2.31-1.82S28.29,25.6,28.13,26.23Z"/><path class="cls-8" d="M43.45,16.21c0,.13,0,.26,0,.39l-.06,1.08c0,.14-.13.83-.05.92a22.91,22.91,0,0,1-4.17-5.74,3.76,3.76,0,0,1-.35-1.42,10,10,0,0,1-1.87,2.77,9.66,9.66,0,0,1-1.39,1.09,15,15,0,0,0-1.42.81,5.44,5.44,0,0,0,1.64-2.77c-1.91,2.77-4.94,4.56-8.06,5.82a5.7,5.7,0,0,0,1.46-2.44,17.53,17.53,0,0,1-7.46,5.54,5.94,5.94,0,0,1-1-1.7,8.29,8.29,0,0,1-.32-.86.19.19,0,0,0,0-.07A9,9,0,0,1,20,18.08a14.06,14.06,0,0,1,1.26-7.34,9.69,9.69,0,0,1,4.52-4.85h0A10.27,10.27,0,0,1,31.48,4.8a17.49,17.49,0,0,1,5.35,1.5c.5.22,2.28,1.19,2.28,1.19a6.15,6.15,0,0,1,2.22.58,5.23,5.23,0,0,1,1.82,3.5c0,.24.08.48.11.71a24.24,24.24,0,0,1,.16,2.82c0,.24,0,.48,0,.71S43.45,16.07,43.45,16.21Z"/><path class="cls-8" d="M27.31,24.57c0-.15-.13-.37-.24-.64a6.81,6.81,0,0,0-.48-.91,4.29,4.29,0,0,0-.86-1,3.59,3.59,0,0,0-1.14-.63,4.55,4.55,0,0,0-1-.25l-.34-.05L23,21l.08.14h-.46l.63.31c.1.17.23.38.37.63a11.44,11.44,0,0,1,1.18,2.52,15.2,15.2,0,0,1,.5,2.76c.05.37.09.68.11.89s0,.33,0,.33,0-.12.09-.32.14-.51.21-.89A8.13,8.13,0,0,0,25.93,26a5.46,5.46,0,0,0-.22-1.69,5.36,5.36,0,0,0-.78-1.53,7.77,7.77,0,0,0-.87-1,7.55,7.55,0,0,1,1.23.8,12.12,12.12,0,0,1,1.48,1.53l.45.52.17.19Z"/><path class="cls-8" d="M25.6,21a27.61,27.61,0,0,0,7.84-4.68,3.21,3.21,0,0,1-1,1.39,11.46,11.46,0,0,0,6.12-4.56,4.72,4.72,0,0,0,.94-2.45,1.06,1.06,0,0,0,0-.43,1.06,1.06,0,0,0-.57-.49,4.5,4.5,0,0,0-3-.15A11,11,0,0,0,33,11a11.32,11.32,0,0,0-2.12,1.64c-1.22,1.26-1.39,2.64-2,4.16A10.48,10.48,0,0,1,25.6,21Z"/><path class="cls-8" d="M36.42,21.36a4.5,4.5,0,0,0,1.7-1.63,12.81,12.81,0,0,0,2.11-5.38A5.34,5.34,0,0,0,39.85,11c-.3-.55-1.46-1.49-1.94-.57-.29.56.39,1.83.49,2.42a10.88,10.88,0,0,1-.44,5.6A10.07,10.07,0,0,1,36.42,21.36Z"/><path class="cls-9" d="M40.13,10.52c-.27-.07-.55-.13-.83-.18a7.06,7.06,0,0,1,.1,2,9.18,9.18,0,0,0-1.66-2.52,9.42,9.42,0,0,1-3.45,2.94,7,7,0,0,0,.58-4.31,18.15,18.15,0,0,1-6.41,5.62,7.65,7.65,0,0,0,0-2.9,22.15,22.15,0,0,1-8.08,8.53l-.09.06.07-.13a8.79,8.79,0,0,0,1-3.2A15.8,15.8,0,0,1,20,18.08a14.92,14.92,0,0,1-4,3.16c.21-1.11.44-2.34.68-3.72A14.94,14.94,0,0,1,18.19,13a16.84,16.84,0,0,1,7.6-7.14h0A10.27,10.27,0,0,1,31.48,4.8a17.49,17.49,0,0,1,5.35,1.5l.19.08c.65.32,2.09,1.11,2.09,1.11a6.15,6.15,0,0,1,2.22.58,5.23,5.23,0,0,1,1.82,3.5A16.12,16.12,0,0,0,40.13,10.52Z"/><path class="cls-15" d="M37.11,8.06a14.39,14.39,0,0,0-5.84-1.35,16.66,16.66,0,0,1-2,2,2.74,2.74,0,0,0,0-1.7,15.83,15.83,0,0,1-6.49,4.7A6.67,6.67,0,0,0,24,9.58,12.17,12.17,0,0,1,18.19,13a16.84,16.84,0,0,1,7.6-7.14h0A10.27,10.27,0,0,1,31.48,4.8a17.49,17.49,0,0,1,5.35,1.5l.19.08-1,.34Z"/><path class="cls-15" d="M35.88,4.22a4.42,4.42,0,0,0-.65-2A4.59,4.59,0,0,0,32.55,0a5.51,5.51,0,0,1,4.63,2.05,2.8,2.8,0,0,1,0,3.39,3.13,3.13,0,0,1-.8.59,3.89,3.89,0,0,1-1.72.5C35.26,5.76,35.92,5.39,35.88,4.22Z"/><path class="cls-3" d="M.25,75.55s6.06-24.8,14.5-30.3c0,0,5.25,14.25,4.58,16.68s-6.77,12.7-6.77,12.7Z"/><path class="cls-5" d="M13.06,46s2.41-3.7,4.66-4.17c0,0,9.26,33.68-4.66,39.39C13.06,81.25,23.26,68.64,13.06,46Z"/><path class="cls-5" d="M41.89,43.9s2.89,1.74,3,4L42.54,75.78S40.45,47.6,41.89,43.9Z"/><polygon class="cls-16" points="40.3 56.94 40.19 59.42 40.16 60.12 40.12 61.07 39.92 65.78 39.77 69.19 39.63 72.41 39.54 74.46 39.5 75.51 39.45 76.71 39.43 77.07 39.4 77.84 39.37 78.49 39.36 78.66 39.3 80.05 39.17 83.2 39.13 84.07 39.09 85.02 29.6 85.02 29.6 85.06 29.23 85.02 27.44 84.85 22.14 84.34 20.32 84.17 19.38 84.08 19.37 84.08 19 84.04 18.55 83.49 18.47 83.4 18.47 83.39 18.32 83.2 17.88 82.66 17.33 82.61 16.72 82.56 16.79 80.94 16.85 79.61 16.9 78.37 17.14 72.72 17.19 71.61 17.19 71.59 17.26 69.96 17.26 69.95 17.41 66.38 17.41 66.37 17.43 66.03 17.54 63.42 17.54 63.41 17.56 63.06 17.56 63.05 17.61 61.86 17.61 61.85 17.64 61.1 17.86 56 17.92 54.7 17.92 54.53 17.93 54.34 20.14 54.44 38.03 55.21 40.3 56.94"/><polygon class="cls-7" points="20.14 85.02 22.05 85.02 27.44 85.02 29.23 85.02 29.6 85.06 29.6 85.02 35.63 85.02 37.99 85.02 38.03 83.93 38.12 81.87 38.2 80.07 38.27 78.32 38.35 76.66 38.35 76.65 38.41 75.21 38.44 74.51 38.53 72.26 38.68 68.92 38.83 65.51 39 61.53 39.01 61.36 39.03 60.8 39.07 59.86 39.1 59.15 39.17 57.55 38.33 56.85 37.14 55.87 20.22 55.14 19.07 55.09 19.04 55.69 18.99 56.86 18.99 56.87 18.94 58.06 18.94 58.07 18.93 58.4 18.93 58.41 18.71 63.48 18.71 63.49 18.58 66.38 18.58 66.39 18.35 71.8 18.35 71.81 18.3 72.94 18.15 76.51 18.02 79.4 18 79.85 17.96 80.83 17.88 82.66 18.32 83.2 18.47 83.39 18.47 83.4 18.55 83.49 19 84.04 19.26 84.37 19.29 84.41 19.72 84.95 19.78 85.02 19.97 85.02 20.14 85.02"/><polygon class="cls-17" points="18.95 85.02 18.98 84.37 19 84.04 19.14 80.71 19.17 79.98 19.2 79.19 19.43 74 19.46 73.37 19.46 73.36 19.46 73.18 19.51 72.02 19.56 70.9 19.56 70.89 20.17 56.84 20.2 56.07 20.33 56.08 23.76 56.22 27.85 56.4 38.33 56.85 40.3 56.94 40.19 59.42 40.16 60.12 40.12 61.07 39.92 65.78 39.77 69.19 39.63 72.41 39.55 74.46 39.5 75.51 39.45 76.71 39.43 77.07 39.4 77.84 39.37 78.49 39.36 78.66 39.3 80.05 39.17 83.2 39.13 84.07 39.09 85.02 38.72 85.02 37.99 85.02 35.63 85.02 29.6 85.02 29.6 85.06 29.23 85.02 27.44 85.02 22.05 85.02 20.14 85.02 19.97 85.02 19.78 85.02 19.32 85.02 19.14 85.02 18.98 85.02 18.95 85.02"/><rect class="cls-7" x="28.3" y="56.14" width="3.35" height="13.31" transform="translate(-34.05 90.04) rotate(-87.54)"/><polygon class="cls-18" points="20.14 85.02 22.05 85.02 27.44 85.02 29.23 85.02 29.6 85.06 29.6 85.02 35.63 85.02 37.99 85.02 38.72 85.02 39.09 85.02 39.86 85.02 40.06 84.19 41.1 79.91 41.3 79.11 41.45 78.48 41.66 77.62 41.82 76.95 42 76.23 42.01 76.18 42.01 76.17 42.44 74.42 42.44 74.41 42.46 74.35 42.77 73.06 42.77 73.03 42.78 73.01 42.79 72.97 43.6 69.66 43.6 69.64 45.38 62.35 43.83 60.61 43.49 60.22 43.33 60.18 42.48 59.97 41.61 59.76 41.58 59.75 40.49 59.49 40.19 59.42 39.1 59.15 27.85 56.4 23.95 55.45 23.76 56.22 22.92 59.67 19.89 72.09 19.89 72.1 19.85 72.26 19.62 73.21 19.43 74 18.12 79.38 18 79.85 17.76 80.85 17.33 82.61 17.26 82.89 18.32 83.2 18.38 83.22 18.47 83.39 18.47 83.4 18.87 84.16 18.98 84.37 19.13 84.66 19.2 84.79 19.72 84.95 19.97 85.02 20.14 85.02"/><polygon class="cls-7" points="20.14 85.02 22.05 85.02 27.44 85.02 29.23 85.02 29.6 85.06 29.6 85.02 35.63 85.02 37.99 85.02 38.72 85.02 38.96 84.05 39.17 83.2 39.94 80.02 40.22 78.89 40.33 78.45 40.58 77.4 40.72 76.82 40.77 76.63 40.95 75.9 41.32 74.39 41.32 74.38 41.72 72.75 42.18 70.84 42.18 70.83 42.2 70.77 42.2 70.76 43.38 65.93 43.51 65.4 44.16 62.73 43.7 62.17 43.47 61.88 43.4 61.8 42.49 60.69 42.18 60.61 41.64 60.48 41.48 60.44 40.47 60.2 40.16 60.12 39.07 59.86 24.92 56.41 23.88 60.66 23.83 60.86 23.55 62.04 23.46 62.4 23.3 63.05 21.04 72.31 21.04 72.33 20.76 73.45 20.4 74.95 20.4 74.96 19.37 79.16 19.17 79.98 18.99 80.73 18.38 83.22 18.47 83.39 18.47 83.4 18.87 84.16 18.98 84.37 19.13 84.66 19.2 84.79 19.32 85.02 19.78 85.02 19.97 85.02 20.14 85.02"/><polygon class="cls-19" points="20.14 85.02 22.05 85.02 27.44 85.02 29.23 85.02 29.6 85.06 29.6 85.02 35.63 85.02 37.99 85.02 38.72 85.02 39.09 85.02 39.86 85.02 40.06 84.19 41.1 79.91 41.3 79.11 41.45 78.48 41.66 77.62 41.82 76.95 42 76.23 42.01 76.18 42.01 76.17 42.44 74.42 42.44 74.41 42.46 74.35 42.77 73.06 42.77 73.03 42.78 73.01 42.79 72.97 43.6 69.66 43.6 69.64 45.38 62.35 43.72 61.95 43.47 61.88 43.4 61.87 41.98 61.52 41.69 61.45 41.34 61.37 40.45 61.15 40.12 61.07 39.03 60.8 25.83 57.59 25.02 60.91 24.84 61.65 24.75 62.02 24.59 62.68 24.21 64.22 22.19 72.53 22.18 72.56 21.9 73.7 20.91 77.78 20.63 78.92 20.22 80.6 19.38 84.08 19.37 84.08 19.37 84.1 19.36 84.12 19.29 84.41 19.2 84.79 19.14 85.02 19.32 85.02 19.78 85.02 19.97 85.02 20.14 85.02"/><rect class="cls-7" x="32.44" y="59.43" width="3.35" height="13.31" transform="translate(-38.17 83.58) rotate(-76.3)"/><path class="cls-3" d="M31.05,74.69,30.76,79s-.75.15-2,.37C24.48,80.1,14.22,81.72,7.19,81,2.93,80.63-.14,79.39,0,76.61c0,0,0-2.22,3-4.3H3a13.8,13.8,0,0,1,1.95-1.12C8.8,69.36,23,72.65,28.69,74.08h0Z"/><path class="cls-20" d="M28.76,79.33C24.48,80.1,14.22,81.72,7.19,81c7.88-.8,21.5-3.74,21.5-3.74Z"/><path class="cls-21" d="M43.79,73.36c0-.58-9.31-1.6-9.31-1.6A6.53,6.53,0,0,0,37,68.23l0,0a.38.38,0,0,0,0-.36.3.3,0,0,0-.17-.08,1.83,1.83,0,0,0-1.48.38,13.13,13.13,0,0,0-1.16,1.08,7.73,7.73,0,0,1-2.65,1.39c-1.59.61-2.27,3.62-2.27,3.62l-.58,0V79h2.07l1.07.76c.84.44,9.76.54,9.94,0a4,4,0,0,0,.11-.5c0-.26.07-.51.08-.68s0-.19,0-.19a4.62,4.62,0,0,0,.37-.61,3.54,3.54,0,0,0,.29-.63.68.68,0,0,0,0-.55A3.89,3.89,0,0,0,41.29,76c-1.76-.52-4.59-1.16-4.44-1.31s6.65-.38,6.65-.38a1.26,1.26,0,0,0,.23-.4A1.35,1.35,0,0,0,43.79,73.36Z"/><path class="cls-22" d="M42.62,76.53A3.89,3.89,0,0,0,41.29,76c-.38.38-.68.92-1,1.25a5.07,5.07,0,0,1-2,1.09,7.89,7.89,0,0,1-3.77-.09c-1.24-.27-2.46-.66-3.71-.84a14,14,0,0,0-2-.11l.07,2,2-.37,1.07.76c.84.44,9.76.54,9.94,0a4,4,0,0,0,.11-.5c0-.26.07-.51.08-.68s0-.19,0-.19a4.62,4.62,0,0,0,.37-.61,3.54,3.54,0,0,0,.29-.63A.68.68,0,0,0,42.62,76.53Z"/><path class="cls-23" d="M42.35,77.71l-.51-.07a14.29,14.29,0,0,1-2.51-.6,10,10,0,0,1-1-.39c.05,0,.45,0,1.06,0s1.56.13,2.55.27l.69.11A4.34,4.34,0,0,1,42.35,77.71Z"/><path class="cls-23" d="M41.88,79.19A15.14,15.14,0,0,1,39,78.53a16,16,0,0,1,3,0C42,78.68,41.92,78.93,41.88,79.19Z"/><path class="cls-24" d="M37,67.83a.3.3,0,0,0-.17-.08,1.83,1.83,0,0,0-1.48.38,13.13,13.13,0,0,0-1.16,1.08,7.73,7.73,0,0,1-2.65,1.39c-1.59.61-2.27,3.62-2.27,3.62l-.58-.14V75.4h.08a1.64,1.64,0,0,0,.76-.18,1.54,1.54,0,0,0,.53-.78,8.41,8.41,0,0,1,1.42-2.72c.84-.88,2.08-1.24,3.07-2a8.36,8.36,0,0,1,2.18-1.49l.32-.09A.38.38,0,0,0,37,67.83Z"/><path class="cls-4" d="M28.77,75.4s-16.71-4.6-21-3.31L13.24,71l4.32-7.94,0,3-3,5.08s10.75,1.71,14.12,2.91Z"/><path class="cls-25" d="M26.91,73s.1,7.17.71,7.57S30,80.24,30,80.24s0-7.52-.68-7.88S26.91,73,26.91,73Z"/><line class="cls-26" x1="18.98" y1="85.02" x2="18.95" y2="85.02"/><line class="cls-26" x1="20.14" y1="85.02" x2="19.97" y2="85.02"/><polygon class="cls-27" points="29.6 85.02 29.6 85.06 29.23 85.02 29.6 85.02"/></g></g></svg>