<svg xmlns="http://www.w3.org/2000/svg" xmlns:xlink="http://www.w3.org/1999/xlink" viewBox="0 0 27.25 56.95"><defs><style>.cls-1{fill:#1a1b1e;}.cls-2{fill:#c38e79;}.cls-3,.cls-6{fill:#995e52;}.cls-13,.cls-3{opacity:0.28;}.cls-4{fill:#c1ad9f;}.cls-5{fill:#a08472;}.cls-6{opacity:0.22;}.cls-7{fill:#e2ad8f;}.cls-8{fill:#d68772;}.cls-9{fill:#e5b699;}.cls-10{opacity:0.82;fill:url(#Degradado_sin_nombre_15);}.cls-11{fill:#f5f0e1;}.cls-12{opacity:0.51;}.cls-14{fill:#bf846a;}.cls-15{fill:#896e59;}.cls-16{fill:#f5f0e8;}.cls-17{fill:#3a3047;}.cls-18{fill:#fff;}.cls-19{fill:#e8e8e8;}.cls-20{fill:#222326;}.cls-21{fill:#dbdbdb;}</style><linearGradient id="Degradado_sin_nombre_15" x1="11.33" y1="7.6" x2="11.33" y2="15.88" gradientUnits="userSpaceOnUse"><stop offset="0" stop-color="#e96450"/><stop offset="1" stop-color="#d45d4b" stop-opacity="0"/></linearGradient></defs><title>angryРесурс 11</title><g id="Слой_2" data-name="Слой 2"><g id="Objects"><path class="cls-1" d="M13.18,57H5.24c.43-.57.8-1,1-1.22h0l.21-.22a11.7,11.7,0,0,1,4.1.15A6,6,0,0,1,13.18,57Z"/><path class="cls-1" d="M17.16,56.82a2.32,2.32,0,0,1,.37.13H13.86A5.7,5.7,0,0,1,15,56.69a4.83,4.83,0,0,1,2,.08Z"/><polygon class="cls-2" points="9.61 25.34 9.61 29.85 13.15 29.85 13.15 24.96 9.61 25.34"/><path class="cls-3" d="M9.61,25.34v.92s1.38.86,3.54-.46l.09-1Z"/><path class="cls-4" d="M6.07,8.22s-3.49-6,1.12-7.7,7.2,5.37,12,6.13,5.19,4.56,3,9.92S21,20.93,20,21.94s-6.5,3.79-13.58,1.58-7.46-14.16-5-17.44S6.07,8.22,6.07,8.22Z"/><path class="cls-5" d="M4.54,22.75s-.06,0-.14-.09A3.33,3.33,0,0,1,4,22.35l-.25-.24-.29-.3c-.19-.23-.4-.49-.61-.8a8.87,8.87,0,0,1-1.13-2.37,9.94,9.94,0,0,1-.35-1.52,11.16,11.16,0,0,1-.13-1.66,12.79,12.79,0,0,1,.09-1.66,11.61,11.61,0,0,1,.26-1.53,7.54,7.54,0,0,1,.46-1.34,3.83,3.83,0,0,1,.65-1,1.65,1.65,0,0,1,.89-.52,1.33,1.33,0,0,1,.77.09.94.94,0,0,1,.37.32.24.24,0,0,1,.06.11s0,0,0,0l0,0a.37.37,0,0,0-.07-.1,1,1,0,0,0-.37-.26,1.29,1.29,0,0,0-.72-.06,1.58,1.58,0,0,0-.8.51,4.11,4.11,0,0,0-.61,1,8,8,0,0,0-.42,1.31,13.59,13.59,0,0,0-.25,1.51,14.65,14.65,0,0,0-.08,1.64,10.76,10.76,0,0,0,.13,1.63,9.32,9.32,0,0,0,.32,1.49A9.46,9.46,0,0,0,3,20.92c.2.31.4.58.58.81s.19.22.27.31l.23.25.34.34A1.06,1.06,0,0,1,4.54,22.75Z"/><path class="cls-6" d="M6.48,8.46S1.73,3.23,1.06,14.9a9.16,9.16,0,0,0,2.42,6.81,7.56,7.56,0,0,0,4.57,2.45Z"/><path class="cls-5" d="M6.63,2.25s0,0,0,.06l-.12.13A2.39,2.39,0,0,0,6.11,3a2.87,2.87,0,0,0-.26.91A3.57,3.57,0,0,0,5.92,5a5.89,5.89,0,0,0,.39,1.12c.15.33.3.63.43.87a4,4,0,0,0,.34.55c.1.12.16.18.15.19s-.09,0-.21-.14a2.59,2.59,0,0,1-.41-.52,9.45,9.45,0,0,1-.48-.87,5.37,5.37,0,0,1-.41-1.15,3.25,3.25,0,0,1-.06-1.23A2.71,2.71,0,0,1,6,2.9a2.06,2.06,0,0,1,.43-.52l.16-.11S6.62,2.24,6.63,2.25Z"/><path class="cls-5" d="M20.89,20s0-.1.08-.28a3.64,3.64,0,0,0,.17-.76,3.77,3.77,0,0,0,0-1.15,5.59,5.59,0,0,0-.16-.65,5.72,5.72,0,0,0-.28-.68,6.55,6.55,0,0,0-.79-1.18,10,10,0,0,0-.79-.86,8.45,8.45,0,0,1-.78-.75,3.74,3.74,0,0,1,.88.64,7.53,7.53,0,0,1,.84.85,5.59,5.59,0,0,1,.83,1.21,5.11,5.11,0,0,1,.28.7,3.79,3.79,0,0,1,.16.69,3.41,3.41,0,0,1,0,1.2,3.06,3.06,0,0,1-.24.77C21,19.91,20.9,20,20.89,20Z"/><path class="cls-5" d="M17.73,23.2a4.39,4.39,0,0,1,.38-.63,2.81,2.81,0,0,0,.19-.31l.2-.37a7.11,7.11,0,0,0,.37-.87c.11-.32.2-.63.27-.92s.05-.28.07-.41l0-.18a1.1,1.1,0,0,0,0-.18,5.62,5.62,0,0,1,.09-.72,1.69,1.69,0,0,1,.06.74,1,1,0,0,1,0,.17c0,.07,0,.13,0,.2l-.06.42a6.48,6.48,0,0,1-.26.95,6.76,6.76,0,0,1-.4.89l-.22.37a2.77,2.77,0,0,1-.22.31A2.14,2.14,0,0,1,17.73,23.2Z"/><path class="cls-5" d="M1.21,18.54A2.8,2.8,0,0,1,.92,18l0-.07,0-.08L.8,17.69l-.14-.37a4.38,4.38,0,0,1-.13-.43,2.17,2.17,0,0,1-.07-.24L.4,16.4l-.06-.27a2.33,2.33,0,0,1-.05-.28q0-.28-.09-.6c0-.21,0-.43-.05-.65v-.69a10.11,10.11,0,0,1,.53-3A9.7,9.7,0,0,1,2.09,8.18a4.65,4.65,0,0,1,.45-.53,1.86,1.86,0,0,1,.54-.39,1.21,1.21,0,0,1,.3-.11l.31-.06a2.15,2.15,0,0,1,.57,0,3.11,3.11,0,0,1,.92.3,4,4,0,0,1,.62.39,3,3,0,0,1,.48.38,3.39,3.39,0,0,1-.52-.32c-.17-.1-.38-.22-.63-.34a2.82,2.82,0,0,0-.89-.26,2.34,2.34,0,0,0-.53,0,1.27,1.27,0,0,0-.28.06,2.15,2.15,0,0,0-.27.1,2.49,2.49,0,0,0-.91.89A9.59,9.59,0,0,0,.88,11a10.36,10.36,0,0,0-.54,2.95v.67c0,.22,0,.44,0,.64s0,.4.07.59,0,.19,0,.28l.06.27a2.17,2.17,0,0,0,0,.25c0,.08.05.16.07.23s.07.3.11.44.09.25.12.37l.06.16a.24.24,0,0,0,0,.08L1,18A3.67,3.67,0,0,1,1.21,18.54Z"/><path class="cls-6" d="M18.31,13.86S22,16.7,19,22.57l-1.36.66a5.86,5.86,0,0,1-1,.36L14.9,24S19.48,16.31,18.31,13.86Z"/><path class="cls-7" d="M4.36,15.23S2.44,14.47,2.3,16.4c-.21,2.65,2,2.63,2,2.63Z"/><path class="cls-8" d="M2.77,16.19s0,0,0-.1A.51.51,0,0,1,3,15.9a.73.73,0,0,1,.43-.05.9.9,0,0,1,.45.26,1.29,1.29,0,0,1,.29.41,1.49,1.49,0,0,1,.14.38c0,.23,0,.38,0,.38s-.05-.14-.13-.33A2.14,2.14,0,0,0,4,16.61a1.67,1.67,0,0,0-.26-.35A.82.82,0,0,0,3.4,16a.73.73,0,0,0-.33,0C2.87,16.09,2.8,16.21,2.77,16.19Z"/><path class="cls-8" d="M4,17.69s0,0,0,.11a.37.37,0,0,1-.29.11.55.55,0,0,1-.41-.23,1,1,0,0,1-.22-.5,1.26,1.26,0,0,1,0-.55.63.63,0,0,1,.29-.36.35.35,0,0,1,.31,0c.07,0,.1.06.09.08H3.7a.37.37,0,0,0-.22.08.47.47,0,0,0-.18.29,1,1,0,0,0,0,.46,1.31,1.31,0,0,0,.16.42.49.49,0,0,0,.27.2.38.38,0,0,0,.23,0C4,17.71,4,17.68,4,17.69Z"/><path class="cls-7" d="M18.31,15.23s1.91-.76,2.05,1.17c.21,2.65-2,2.63-2,2.63Z"/><path class="cls-8" d="M19.89,16.19s-.1-.1-.3-.15a.73.73,0,0,0-.33,0,.82.82,0,0,0-.36.22,1.67,1.67,0,0,0-.26.35,3.57,3.57,0,0,0-.17.34c-.08.19-.1.33-.13.33s-.06-.15,0-.38a1.49,1.49,0,0,1,.14-.38,1.29,1.29,0,0,1,.29-.41.9.9,0,0,1,.45-.26.78.78,0,0,1,.44.05.53.53,0,0,1,.22.19C19.9,16.15,19.9,16.19,19.89,16.19Z"/><path class="cls-8" d="M18.63,17.69s0,0,.09,0a.38.38,0,0,0,.23,0,.49.49,0,0,0,.27-.2,1.31,1.31,0,0,0,.16-.42,1,1,0,0,0,0-.46.47.47,0,0,0-.18-.29.35.35,0,0,0-.22-.08h-.1s0-.05.09-.08a.35.35,0,0,1,.31,0,.63.63,0,0,1,.29.36,1.26,1.26,0,0,1,0,.55,1,1,0,0,1-.22.5.55.55,0,0,1-.41.23.37.37,0,0,1-.29-.11C18.62,17.74,18.62,17.69,18.63,17.69Z"/><path class="cls-9" d="M11.54,6.82a6.33,6.33,0,0,0-7.32,5.9c-.17,3-.14,6.81.92,8.52,1.87,3,5.33,5,6.82,4.6s6.6-3.62,6.56-7.24-.21-8.69-.21-8.69A16.45,16.45,0,0,0,11.54,6.82Z"/><path class="cls-10" d="M11.54,6.82a6.33,6.33,0,0,0-7.32,5.9c-.17,3-.14,6.81.92,8.52,1.87,3,5.33,5,6.82,4.6s6.6-3.62,6.56-7.24-.21-8.69-.21-8.69A16.45,16.45,0,0,0,11.54,6.82Z"/><path class="cls-8" d="M11.41,19.82s-.18.07-.49,0a3.12,3.12,0,0,1-1.25-.45l-.21-.12.21-.16a6.26,6.26,0,0,0,.85-.75,3.11,3.11,0,0,0,.39-.49,1.17,1.17,0,0,0,.19-.56,5.67,5.67,0,0,0,0-.82c0-.27-.06-.54-.09-.79-.08-.5-.17-1-.25-1.32a6.18,6.18,0,0,1-.27-1.23A2.86,2.86,0,0,1,11,14.31a9.51,9.51,0,0,1,.35,1.34c.05.25.09.53.12.81s0,.28,0,.43a3.68,3.68,0,0,1,0,.47,1.92,1.92,0,0,1-.09.4,1.42,1.42,0,0,1-.17.35,4.15,4.15,0,0,1-.45.54,5.55,5.55,0,0,1-1,.75v-.28a3.78,3.78,0,0,0,1.1.54C11.25,19.75,11.42,19.79,11.41,19.82Z"/><path class="cls-6" d="M4.88,3.12S7.9,1.72,9,4.64c1.19,3.13,6.33,9.82,12.17,8.87,0,0-10.41-13.76-15.8-11.26l-.32.19Z"/><path class="cls-11" d="M4.94,2.84C4.88,3,8,.18,10.21,5.28s7.27,8.18,10.69,8.21c2.68,0,1,3.76,1,3.76s4.82-9.34-1.82-10.42C13.59,5.78,12.27-1.43,7,.25A4.27,4.27,0,0,0,4.94,2.84Z"/><g class="cls-12"><path class="cls-5" d="M23.65,9.9l-.2.12a4.5,4.5,0,0,1-.61.29,6.21,6.21,0,0,1-1,.32,6.37,6.37,0,0,1-1.41.18,6.56,6.56,0,0,1-1.71-.17,7.15,7.15,0,0,1-1.84-.72,7,7,0,0,1-1.72-1.35A9.89,9.89,0,0,1,13.8,6.64c-.39-.7-.73-1.4-1.09-2a10,10,0,0,0-1.22-1.76,5.75,5.75,0,0,0-.72-.68L10.58,2a1.37,1.37,0,0,0-.2-.13,3.11,3.11,0,0,0-.4-.22,4.8,4.8,0,0,0-1.6-.46A5.21,5.21,0,0,0,7,1.25a4.37,4.37,0,0,0-1,.29l-.19.08-.16.08-.14.06-.11.07a1,1,0,0,1-.21.11.86.86,0,0,1,.19-.15l.11-.07.13-.08.16-.09L6,1.46a5.32,5.32,0,0,1,1-.33,5.33,5.33,0,0,1,1.42-.08,5,5,0,0,1,1.67.45,4.36,4.36,0,0,1,.42.23,1.37,1.37,0,0,1,.2.13,1.49,1.49,0,0,1,.2.15,5.45,5.45,0,0,1,.76.69,10.35,10.35,0,0,1,1.25,1.79c.37.66.71,1.36,1.09,2.05a10.39,10.39,0,0,0,1.31,1.89,7,7,0,0,0,3.45,2,6.74,6.74,0,0,0,1.67.19,7.09,7.09,0,0,0,1.39-.14,8.2,8.2,0,0,0,1-.28C23.36,10,23.64,9.88,23.65,9.9Z"/></g><g class="cls-12"><path class="cls-5" d="M23.35,13.59s0,0,0-.07a.15.15,0,0,0,0-.07v-.11a.69.69,0,0,0,0-.13,1.1,1.1,0,0,0,0-.16,2,2,0,0,0-.18-.36,1.86,1.86,0,0,0-.85-.67,2.66,2.66,0,0,0-.66-.16,6.53,6.53,0,0,0-.78,0H20c-.31,0-.62,0-.95-.05a16.4,16.4,0,0,1-2.07-.3,6.46,6.46,0,0,1-1.09-.33,3.75,3.75,0,0,1-1-.6,3.56,3.56,0,0,1-.45-.42,4.7,4.7,0,0,1-.38-.5,6.28,6.28,0,0,1-.61-1.11,24.14,24.14,0,0,1-.81-2.34,9.07,9.07,0,0,0-.91-2.07,4.9,4.9,0,0,0-1.44-1.43A5.39,5.39,0,0,0,7.1,1.84l-.31,0-.29,0-.13,0L6.24,2,6,2a6.17,6.17,0,0,0-.67.23l-.23.09a1,1,0,0,1,.22-.13A3.93,3.93,0,0,1,6,1.93l.24-.06.13,0,.13,0,.3-.05a3.16,3.16,0,0,1,.32,0,5,5,0,0,1,1.5.11,5.6,5.6,0,0,1,1.7.68A5,5,0,0,1,11.81,4a9,9,0,0,1,.95,2.11,23.61,23.61,0,0,0,.8,2.32,6.7,6.7,0,0,0,.59,1.09,5.45,5.45,0,0,0,.37.47,4,4,0,0,0,.42.4,3.62,3.62,0,0,0,1,.58,7.12,7.12,0,0,0,1.06.32,16.16,16.16,0,0,0,2,.32c.33,0,.64,0,.94.05l.87,0a5,5,0,0,1,.79.05,2.87,2.87,0,0,1,.7.19,1.92,1.92,0,0,1,.87.74,1.54,1.54,0,0,1,.17.38l0,.17v.14a.37.37,0,0,1,0,.11s0,.06,0,.08Z"/></g><path class="cls-8" d="M13.24,21.85s-.05-.05-.1-.12a1.87,1.87,0,0,0-.25-.29,1.08,1.08,0,0,0-.2-.16l-.11-.05a.2.2,0,0,0-.1,0,.88.88,0,0,0-.3,0l-.37.1c-1,.29-1.69.79-1.77.7s.1-.23.38-.46A3.66,3.66,0,0,1,11.69,21a3.34,3.34,0,0,1,.4-.1,1.48,1.48,0,0,1,.43,0,.27.27,0,0,1,.12,0l.1,0,.16.11a1.64,1.64,0,0,1,.22.25.91.91,0,0,1,.17.43C13.3,21.79,13.27,21.85,13.24,21.85Z"/><g class="cls-13"><path class="cls-8" d="M12.76,21c.07.16-.29.48-.8.73s-1,.31-1.07.16.28-.49.8-.73S12.68,20.86,12.76,21Z"/></g><path class="cls-14" d="M13,15.93s0-2.09,1.91-2.25a3.12,3.12,0,0,1,2.64.74S13.57,14,13,15.93Z"/><path class="cls-14" d="M9.86,16s0-2.09-1.9-2.25a3.08,3.08,0,0,0-2.64.75S9.28,14.1,9.86,16Z"/><path class="cls-15" d="M16.75,12.73c0,.12-.21.26-.58.44l-.65.29-.78.34-.78.36-.65.29c-.38.16-.64.24-.71.14s.07-.33.38-.63a3.93,3.93,0,0,1,.6-.48,7.55,7.55,0,0,1,.81-.45,7.16,7.16,0,0,1,.88-.31,4.73,4.73,0,0,1,.75-.13C16.45,12.56,16.73,12.62,16.75,12.73Z"/><path class="cls-15" d="M5.5,13.36c0-.11.24-.24.67-.31A4.34,4.34,0,0,1,6.93,13a6.26,6.26,0,0,1,.93.08,5.62,5.62,0,0,1,.9.24,3.45,3.45,0,0,1,.69.31c.38.21.58.42.53.52s-.32.1-.72,0l-.7-.12-.85-.16-.84-.14-.7-.12C5.77,13.57,5.51,13.48,5.5,13.36Z"/><path class="cls-16" d="M9.87,16.26s.25-2.4-4.56-1.72A4.33,4.33,0,0,0,9.87,16.26Z"/><path class="cls-17" d="M8.83,14.78a.73.73,0,0,1,.43,1.29,1.19,1.19,0,0,1-.8.24c-1.27,0-1.08-1.48-1.08-1.48A7.82,7.82,0,0,1,8.83,14.78Z"/><path class="cls-17" d="M5.31,14.54s.29-.12.78-.15A11,11,0,0,1,8,14.48l.54.08A3.07,3.07,0,0,1,9,14.7a1.66,1.66,0,0,1,.43.27,1.48,1.48,0,0,1,.28.35,1.22,1.22,0,0,1,.16.59c0,.15,0,.22-.06.22s-.06-.07-.1-.19a2,2,0,0,0-.25-.46,1.43,1.43,0,0,0-.25-.24,1.14,1.14,0,0,0-.35-.17,1.87,1.87,0,0,0-.45-.1l-.52-.08A16,16,0,0,1,5.31,14.54Z"/><path class="cls-18" d="M7.74,15.26c0,.05,0,.12-.11.16a.57.57,0,0,1-.32.05.7.7,0,0,1-.25-.06.27.27,0,0,1-.15-.1c0-.05,0-.12.08-.19a.44.44,0,0,1,.16-.06.61.61,0,0,1,.19,0,.74.74,0,0,1,.27.07C7.67,15.16,7.73,15.2,7.74,15.26Z"/><path class="cls-16" d="M13,16.26s-.25-2.4,4.56-1.72A4.33,4.33,0,0,1,13,16.26Z"/><path class="cls-17" d="M14.39,14.62S14.46,16,15.73,16s1.08-1.48,1.08-1.48A6.5,6.5,0,0,0,14.39,14.62Z"/><path class="cls-17" d="M17.55,14.54a16.26,16.26,0,0,1-2.62.35l-.52.08a1.87,1.87,0,0,0-.45.1,1.14,1.14,0,0,0-.35.17,1.43,1.43,0,0,0-.25.24,2,2,0,0,0-.25.46c0,.12-.07.19-.1.19s-.06-.07-.06-.22a1.22,1.22,0,0,1,.16-.59,1.48,1.48,0,0,1,.28-.35,1.66,1.66,0,0,1,.43-.27,2.83,2.83,0,0,1,.52-.14l.53-.08a11.11,11.11,0,0,1,1.9-.09C17.26,14.42,17.55,14.49,17.55,14.54Z"/><path class="cls-18" d="M15,15.39c0,.11-.15.25-.39.3s-.45,0-.48-.12.15-.24.39-.29S14.92,15.27,15,15.39Z"/><path class="cls-19" d="M13.86,57h6.41l.54-5.14L21,50.45l-.05-1.32V49l0-1,0-.81-.22-5.5-5.48-11L15,30.34l-.21-.43-.21-.43A5.55,5.55,0,0,0,13.16,29h0a3,3,0,0,0-.43-.09l-.29-.05a8.76,8.76,0,0,0-1-.08c-.39,0-.77,0-1.14,0-.22,0-.45,0-.66.06H9.5a18.46,18.46,0,0,0-3.37.72l-.06,0H6L3.91,33.49S9,42.24,10.78,45.57a5.66,5.66,0,0,1,.53,2,18.38,18.38,0,0,1,0,3.14c-.06.75-.15,1.51-.26,2.26l-.06.44c-.12.79-.26,1.54-.4,2.24-.09.47-.18.9-.28,1.3h3.57Z"/><path class="cls-20" d="M13.86,57h1.08c0-.08,0-.17.05-.26.26-1.45.48-3,.6-4.49,0-.3,0-.6.05-.9h0s0,0,0,0h0a.81.81,0,0,0,0-.16c0-.55,0-1.1,0-1.65s0-1.39-.11-2.06a14.74,14.74,0,0,0-1-4.29A56.56,56.56,0,0,0,6.36,29.48l-.23.06-.06,0H6l-3,.85-.32.09-.42.12v7.78a34.29,34.29,0,0,1,3.52,5h0A25,25,0,0,1,7.13,46c.24.57.46,1.15.64,1.73v0a8.32,8.32,0,0,1,0,5.8L6.74,55l-.48.68h0L5.39,57h8.47Z"/><path class="cls-20" d="M22.76,46.31a7.45,7.45,0,0,1-.09.84.07.07,0,0,1,0,.05,2,2,0,0,0,0,.24c0,.17-.08.34-.13.5v.63l0,3.19L22.57,57H19.31c.17-1.64.35-3.38.51-5.09q.12-1.24.21-2.43a.49.49,0,0,1,0-.12v-.07c0-.37.06-.73.08-1.08l.06-1a21.34,21.34,0,0,0-.14-5.3c-.5-1.95-3.86-9-5-11.53l-.21-.43-.21-.43,3.31,1.15.12.22a53.1,53.1,0,0,1,2.7,5.85c.39,1,.72,1.92,1,2.85a27.42,27.42,0,0,1,.79,3.12h0A14.76,14.76,0,0,1,22.76,46.31Z"/><polygon class="cls-2" points="12.01 30.3 13.72 33.39 12.43 30.31 12.43 28.59 11.2 28.17 12.01 30.3"/><path class="cls-21" d="M9.46,27.15a2.21,2.21,0,0,0,.44,1.32A2.88,2.88,0,0,0,12,29V30.3s-2.41.09-2.51-1.44Z"/><path class="cls-21" d="M12.43,29.08v1.23A1.73,1.73,0,0,0,13.16,29v-.74a1,1,0,0,0-.24-.66h0S13.16,28.8,12.43,29.08Z"/><g class="cls-12"><path class="cls-5" d="M17.62,48.87h0c0,.28,0,.54,0,.82s0,.31,0,.46a1.21,1.21,0,0,1,0,.19s0,0,0,0v.12l0,.81c0,.23,0,.47,0,.7v.09c0,.52-.07,1-.1,1.54s-.07,1-.11,1.47-.1,1.15-.15,1.7a.57.57,0,0,0,0,.13H17a1.09,1.09,0,0,1,0-.18c0-.53.09-1.09.13-1.67s.07-1,.11-1.47.07-1,.09-1.53V52c0-.24,0-.48,0-.72l0-.8v-.06c0-.07,0-.13,0-.2s0-.37,0-.56,0-.5,0-.75v-.07c0-.53,0-1-.06-1.57s-.09-1.11-.15-1.65c-.13-1-.29-2-.48-3a37.44,37.44,0,0,0-1.35-4.9c-.47-1.37-.94-2.45-1.27-3.19-.16-.37-.3-.66-.39-.85a2.37,2.37,0,0,1-.12-.28,1.37,1.37,0,0,1,.16.26c.1.19.25.47.42.83a30.26,30.26,0,0,1,1.34,3.18,35,35,0,0,1,1.4,4.92c.2.94.36,1.94.49,3l.09.79c0,.26,0,.53.07.8v.07c0,.11,0,.22,0,.34s0,.27,0,.41,0,.27,0,.41S17.61,48.73,17.62,48.87Z"/></g><polygon class="cls-1" points="9.57 56.95 7.92 56.95 8.69 56.05 9.57 56.95"/><path class="cls-1" d="M17.88,30.63h0c1.26.79,7.09,4.3,8.84,16.17l.53,5S17,51.42,10.7,53.05l-1.27-1.8,13.21-3.82C23.24,42.58,21.18,37,17.88,30.63Z"/><path class="cls-9" d="M22.19,46.77c-.1-.16.27-5.75.78-5.58a19.34,19.34,0,0,1-.08,3s.69-2.51.91-2.42-.21,2.71-.21,2.71.64-2.22.8-1.92A12.15,12.15,0,0,1,24,45.19s.4-1.72.7-1.69-.39,4.93-2.58,4.82Z"/><path class="cls-9" d="M22.19,46.77s-1.34-3.54-1-3.57,1.15,2.2,1.15,2.2Z"/><path class="cls-9" d="M6.34,45.78c.19-.05,2.26.49,2.67,1.85l-2.24.14Z"/><path class="cls-9" d="M22.52,45.93s-.6,1.32-1.08,1.36l.84,1,1-1.2Z"/><path class="cls-1" d="M3.05,30.35S.2,31.5.06,35.78s1.57,18,3,19.36S9.87,54,15.76,51.2c6.09-2.88,6.76-2.63,6.76-2.63l-1-1.46-14.78.66Z"/><path d="M22.34,48.57A9.22,9.22,0,0,1,21,49.1c-.42.15-.93.32-1.49.53l-.42.16-.45.17-.92.38-.92.41-.43.21-.41.19-1.42.71a9.75,9.75,0,0,1-1.32.62,1.84,1.84,0,0,1,.33-.22c.21-.13.53-.32.93-.53s.86-.48,1.4-.75l.41-.21.43-.2.91-.42.94-.38L19,49.6l.43-.15c.56-.2,1.07-.36,1.5-.5l1-.3Z"/></g></g></svg>