<svg xmlns="http://www.w3.org/2000/svg" viewBox="0 0 45.23 96.89"><defs><style>.cls-1{opacity:0.64;}.cls-2{fill:#6f9331;}.cls-3{fill:#99c445;}.cls-4{fill:#e5b699;}.cls-5{fill:#1a1b1e;}.cls-6{fill:#e8e8e8;}.cls-7{fill:#222326;}.cls-8{fill:#c38e79;}.cls-9{opacity:0.51;}.cls-10{fill:#a08472;}.cls-11,.cls-13{fill:#995e52;}.cls-11{opacity:0.28;}.cls-12{fill:#c1ad9f;}.cls-13{opacity:0.22;}.cls-14{fill:#e2ad8f;}.cls-15{fill:#d68772;}.cls-16{fill:#bf846a;}.cls-17{fill:#3a3047;}.cls-18{opacity:0.19;}.cls-19{fill:#aa8b71;}.cls-20{fill:#f5f0e1;}.cls-21{fill:#dbdbdb;}.cls-22{fill:none;stroke:#99c445;stroke-miterlimit:10;stroke-width:0.25px;}</style></defs><title>cashРесурс 10</title><g id="Слой_2" data-name="Слой 2"><g id="Objects"><g class="cls-1"><path class="cls-2" d="M9.44,21.92a3.62,3.62,0,0,1,3.17,1.92c.75,1.26,2.53,3.51,3.57,3.08l2.14-2.44a8.91,8.91,0,0,1-2.55-2.86C14.86,19.89,12,18.71,12,18.71Z"/><path class="cls-3" d="M15.28,21.74A1.55,1.55,0,0,1,14.76,24a1.83,1.83,0,0,1-2.12-1,1.48,1.48,0,0,1,.68-2A1.57,1.57,0,0,1,15.28,21.74Z"/><path class="cls-2" d="M15.11,22.43s-.07,0-.14-.1a1.76,1.76,0,0,0-.31-.28.92.92,0,0,0-.23-.09.34.34,0,0,0-.23,0,.23.23,0,0,0-.11.18.45.45,0,0,0,.13.26l.14.16a1.26,1.26,0,0,1,.13.23.68.68,0,0,1,0,.14.37.37,0,0,1,0,.15.58.58,0,0,1-.15.24.57.57,0,0,1-.23.12.63.63,0,0,1-.24,0,.71.71,0,0,1-.32-.18,1.56,1.56,0,0,1-.18-.21,1.5,1.5,0,0,1-.09-.18q-.06-.15,0-.18s.07,0,.15.1a1.66,1.66,0,0,0,.3.28.65.65,0,0,0,.23.09.23.23,0,0,0,.24-.15v0s0,0,0-.06a1.17,1.17,0,0,0-.21-.28,1.1,1.1,0,0,1-.14-.21.58.58,0,0,1-.05-.14.71.71,0,0,1,0-.15.56.56,0,0,1,.29-.44.58.58,0,0,1,.46,0,.85.85,0,0,1,.31.18,1,1,0,0,1,.27.4C15.12,22.36,15.13,22.42,15.11,22.43Z"/><path class="cls-2" d="M14.85,21.58a3.94,3.94,0,0,1-.73.94,4.71,4.71,0,0,1-.85.82A4.18,4.18,0,0,1,14,22.4,4.25,4.25,0,0,1,14.85,21.58Z"/><path class="cls-2" d="M15,21.81a3.67,3.67,0,0,1-.66.85,3.73,3.73,0,0,1-.78.74,3.39,3.39,0,0,1,.65-.86C14.62,22.1,15,21.77,15,21.81Z"/><path class="cls-3" d="M17.82,24.48s-.27-.19-.62-.48a5.49,5.49,0,0,1-1.4-1.62,6,6,0,0,0-3.73-3.13h0L10,21.66l0,.05a1.22,1.22,0,0,1,.55,0,2.67,2.67,0,0,1,1.72,1.08l.36.57c.74,1.2,1.86,3,3.23,3.31h0l0,0,1.9-2.16Zm-1.88,2.1,0,.05c-1.34-.31-2.44-2.1-3.18-3.28-.12-.21-.25-.41-.35-.57a2.8,2.8,0,0,0-1.93-1.14l-.25,0h-.08l2-2.31a6,6,0,0,1,3.67,3.09A5.66,5.66,0,0,0,17.12,24c.3.25.55.43.63.49Z"/></g><g class="cls-1"><path class="cls-2" d="M31.32,32.66a3.6,3.6,0,0,1,1.38,3.43c-.16,1.46-.08,4.33,1,4.62L36.88,40a9,9,0,0,1-.32-3.82c.31-1.93-1.23-4.56-1.23-4.56Z"/><path class="cls-3" d="M36.1,36a1.55,1.55,0,0,1-1.79,1.52c-.8-.16-1.24-1.29-1.09-2.08a1.47,1.47,0,0,1,1.72-1.16A1.58,1.58,0,0,1,36.1,36Z"/><path class="cls-2" d="M35.54,36.47s0-.06,0-.17a1.41,1.41,0,0,0-.08-.4.57.57,0,0,0-.13-.21.26.26,0,0,0-.2-.11.24.24,0,0,0-.2.08.42.42,0,0,0-.05.28c0,.07,0,.14,0,.22a.74.74,0,0,1,0,.25.91.91,0,0,1-.07.14.46.46,0,0,1-.36.21.58.58,0,0,1-.26,0,.54.54,0,0,1-.18-.15.74.74,0,0,1-.15-.33.9.9,0,0,1,0-.28.94.94,0,0,1,0-.2c0-.1.06-.16.08-.16s0,.07.06.17a1.41,1.41,0,0,0,.08.4.61.61,0,0,0,.12.21.25.25,0,0,0,.2.07.2.2,0,0,0,.08,0l0,0s0,0,0,0a1.33,1.33,0,0,0,0-.35,1.18,1.18,0,0,1,0-.26.33.33,0,0,1,0-.13.57.57,0,0,1,.08-.13.54.54,0,0,1,.5-.18.64.64,0,0,1,.39.24.84.84,0,0,1,.14.33,1,1,0,0,1,0,.48C35.6,36.42,35.57,36.47,35.54,36.47Z"/><path class="cls-2" d="M35.85,35.64A5,5,0,0,1,34.7,36a4.17,4.17,0,0,1-1.18.14,4,4,0,0,1,1.15-.31A3.78,3.78,0,0,1,35.85,35.64Z"/><path class="cls-2" d="M35.84,35.91a3.58,3.58,0,0,1-1,.29,3.79,3.79,0,0,1-1.07.12,3.25,3.25,0,0,1,1-.29A3.08,3.08,0,0,1,35.84,35.91Z"/><path class="cls-3" d="M36.48,39.74a7.07,7.07,0,0,1-.35-2.89A6,6,0,0,0,35,32.1h0l-3.1.69v.07a1.18,1.18,0,0,1,.42.35,2.66,2.66,0,0,1,.73,1.9c0,.19,0,.42-.06.66-.13,1.41-.32,3.53.6,4.6h0l2.86-.59Zm-2.82.56c-.89-1-.7-3.14-.57-4.53,0-.24,0-.47,0-.67A2.82,2.82,0,0,0,32.29,33l-.19-.16-.07,0,3-.66a6,6,0,0,1,1.08,4.67,6.74,6.74,0,0,0,.34,2.9Z"/></g><path class="cls-4" d="M45,22.44l-.71,4.75-.88.58-.66-2L41.14,25c-.24-.13.06-1.59.06-1.59l1.87-1.65Z"/><path class="cls-5" d="M36.37,72.58s4.55-23.66,4.76-26.35S42.4,38.8,42.88,35a39.55,39.55,0,0,0-.12-8.52l1.65-.21s2.12,23.92-.48,34A135.24,135.24,0,0,0,40.66,76Z"/><path class="cls-5" d="M40.61,96.88H35.55c.22-.45.37-.69.37-.69A8.54,8.54,0,0,1,37.65,96a3.09,3.09,0,0,1,.53,0l.18,0a4.46,4.46,0,0,1,2.09.73A.76.76,0,0,1,40.61,96.88Z"/><path class="cls-6" d="M31.91,96.89h9.48l.76-7.2-.36-8.81-3.23-6.53-1.82-3.67L36,69.14l-.21-.43a5.11,5.11,0,0,0-1.4-.52h0a2.57,2.57,0,0,0-.4-.08l-.29,0a7,7,0,0,0-1-.08,8.5,8.5,0,0,0-1.13,0c-.23,0-.46,0-.68.06h-.1a18.78,18.78,0,0,0-3.37.71l-.06,0h0l-.71,1.3-1.42,2.62,2.12,3.65h0C28.85,79.19,31,82.89,32,84.8c1.3,2.46.13,8.69-.57,11.77,0,.11-.05.21-.07.31Z"/><path class="cls-7" d="M31.91,96.89h5.73c0-.29,0-.58,0-.88,0-4.76-.35-10-1.88-13.67a56.76,56.76,0,0,0-8.21-13.62l-.23.06-.06,0h0l-1.07.31-2.65.75v7.78s9.93,9.29,7.34,15.19l-1.37,4h2.42Z"/><path class="cls-7" d="M43.78,96.88H40.44a.45.45,0,0,0,0-.11c.61-5.84,1.4-13.31.79-15.67a62.12,62.12,0,0,0-2.89-6.93c-.59-1.28-1.16-2.49-1.62-3.46L36,69.14l-.21-.43,1.26.44,2,.71a17.57,17.57,0,0,1,2,3.53,33.08,33.08,0,0,1,2.62,13.78Z"/><polygon class="cls-8" points="33.21 69.54 34.92 72.62 33.63 69.54 33.63 67.82 32.4 67.41 33.21 69.54"/><g class="cls-9"><path class="cls-10" d="M38.82,88.1c0,.28,0,.56,0,.83s0,.55,0,.82l0,.8c0,.27,0,.53,0,.79,0,.52-.07,1-.1,1.54s-.07,1-.11,1.47-.1,1.15-.15,1.69c0,.29,0,.57-.08.84h-.17c0-.28,0-.57.07-.86,0-.54.09-1.1.13-1.68s.07-1,.11-1.47.07-1,.09-1.54c0-.26,0-.52,0-.79l0-.8c0-.27,0-.54,0-.81s0-.55,0-.83a27.77,27.77,0,0,0-.21-3.21q-.19-1.56-.48-3A37.19,37.19,0,0,0,36.57,77c-.47-1.37-.94-2.45-1.27-3.19-.16-.37-.3-.65-.39-.85a1.81,1.81,0,0,1-.12-.28s.07.09.16.26.25.47.42.84A29.93,29.93,0,0,1,36.71,77a35,35,0,0,1,1.4,4.92c.2.94.36,1.94.49,3l.09.79c0,.27,0,.53.07.8s0,.27,0,.41,0,.27,0,.41,0,.28,0,.42S38.82,88,38.82,88.1Z"/></g><polygon class="cls-5" points="31.91 96.89 31.9 96.88 31.41 96.57 30.37 95.91 29.88 96.88 31.34 96.88 31.91 96.89"/><path class="cls-4" d="M15.64,24.55l.71,4.76.88.58.67-2,1.56-.79c.24-.13-.05-1.6-.05-1.6l-1.87-1.64Z"/><path class="cls-5" d="M16.16,28.69S13.31,42.38,16,53.13s6,25.85,8.85,25.07,3.82-3.07.72-10.51-6.27-13.92-5.82-16.53-2.48-17.58-2.2-21.59Z"/><path class="cls-8" d="M30.8,64.48V68a1,1,0,0,0,1,1h1.56a1,1,0,0,0,1-1V64.1Z"/><path class="cls-11" d="M30.8,64.48v.92s1.38.86,3.54-.46l.09-1Z"/><path class="cls-12" d="M27.25,47.36s-3.48-6,1.13-7.7,7.2,5.37,12,6.13,5.19,4.55,3,9.92-1.13,4.36-2.21,5.37-6.5,3.79-13.58,1.58-7.46-14.16-5-17.44S27.25,47.36,27.25,47.36Z"/><path class="cls-10" d="M25.73,61.89s-.06,0-.15-.09-.21-.17-.36-.31L25,61.25l-.29-.3c-.19-.23-.4-.49-.61-.8a8.87,8.87,0,0,1-1.13-2.37,9.94,9.94,0,0,1-.35-1.52,11.16,11.16,0,0,1-.13-1.66,12.79,12.79,0,0,1,.09-1.66,11.61,11.61,0,0,1,.26-1.53,7.54,7.54,0,0,1,.46-1.34,3.83,3.83,0,0,1,.65-1,1.65,1.65,0,0,1,.89-.52,1.34,1.34,0,0,1,.77.09.94.94,0,0,1,.37.32A.24.24,0,0,1,26,49s0,0,0,0l0,0a.37.37,0,0,0-.07-.1,1,1,0,0,0-.37-.26,1.29,1.29,0,0,0-.72-.06,1.58,1.58,0,0,0-.8.51,4.11,4.11,0,0,0-.61,1A8,8,0,0,0,23,51.45,13.59,13.59,0,0,0,22.75,53a14.65,14.65,0,0,0-.08,1.64,12.25,12.25,0,0,0,.12,1.63,10.54,10.54,0,0,0,.33,1.49,9.46,9.46,0,0,0,1.07,2.34c.2.31.4.58.58.81s.19.22.27.31l.23.25.34.34Z"/><path class="cls-13" d="M27.67,47.6S22.92,42.37,22.24,54a9.21,9.21,0,0,0,2.43,6.81,7.54,7.54,0,0,0,4.57,2.45Z"/><path class="cls-10" d="M27.82,41.39s0,0,0,.06l-.12.13a2.39,2.39,0,0,0-.36.53A2.87,2.87,0,0,0,27,43a3.57,3.57,0,0,0,.07,1.16,5.89,5.89,0,0,0,.39,1.12c.14.33.3.63.43.87a4.7,4.7,0,0,0,.34.55c.1.12.16.18.15.19s-.09,0-.21-.14a2.59,2.59,0,0,1-.41-.52,9.45,9.45,0,0,1-.48-.87,5.37,5.37,0,0,1-.41-1.15A3.25,3.25,0,0,1,26.85,43a2.71,2.71,0,0,1,.32-1,2.06,2.06,0,0,1,.43-.52l.15-.11S27.81,41.38,27.82,41.39Z"/><path class="cls-10" d="M42.08,59.13s0-.1.08-.28a3.64,3.64,0,0,0,.17-.76,3.77,3.77,0,0,0,0-1.15,5.59,5.59,0,0,0-.16-.65,5.72,5.72,0,0,0-.28-.68,6.55,6.55,0,0,0-.79-1.18,10,10,0,0,0-.79-.86,8.45,8.45,0,0,1-.78-.75,3.74,3.74,0,0,1,.88.64,7.53,7.53,0,0,1,.84.85A5.24,5.24,0,0,1,42,55.52a4.15,4.15,0,0,1,.29.7,3.79,3.79,0,0,1,.16.69,3.67,3.67,0,0,1,0,1.2,3.06,3.06,0,0,1-.24.77C42.15,59.05,42.09,59.14,42.08,59.13Z"/><path class="cls-10" d="M38.92,62.34a3.48,3.48,0,0,1,.38-.63,2.81,2.81,0,0,0,.19-.31l.2-.37a7.11,7.11,0,0,0,.37-.87,7.62,7.62,0,0,0,.26-.92c0-.14.06-.28.08-.41l0-.18,0-.18a4,4,0,0,1,.09-.72,1.69,1.69,0,0,1,.06.74,1,1,0,0,1,0,.17,1.36,1.36,0,0,1,0,.2c0,.13,0,.27,0,.42a6.48,6.48,0,0,1-.26.95,6.76,6.76,0,0,1-.4.89l-.22.37a2.77,2.77,0,0,1-.22.31A2.14,2.14,0,0,1,38.92,62.34Z"/><path class="cls-10" d="M22.4,57.68a2.24,2.24,0,0,1-.29-.54l0-.07,0-.08L22,56.83c0-.11-.09-.24-.14-.37a4.38,4.38,0,0,1-.13-.43,2.17,2.17,0,0,1-.07-.24,2.27,2.27,0,0,1-.06-.25l-.06-.27a2.33,2.33,0,0,1-.05-.28q0-.29-.09-.6c0-.21,0-.43-.05-.65v-.69a10.11,10.11,0,0,1,.53-3,9.7,9.7,0,0,1,1.41-2.72,3.82,3.82,0,0,1,.45-.53,1.86,1.86,0,0,1,.54-.39,1.21,1.21,0,0,1,.3-.11l.31-.06a2.15,2.15,0,0,1,.57,0,3.11,3.11,0,0,1,.92.3,4.51,4.51,0,0,1,.62.39,3,3,0,0,1,.48.38,3.71,3.71,0,0,1-.53-.32,6.42,6.42,0,0,0-.62-.34,2.82,2.82,0,0,0-.89-.26,2.41,2.41,0,0,0-.54,0,1.31,1.31,0,0,0-.27.06,2.15,2.15,0,0,0-.27.1,2.49,2.49,0,0,0-.91.89,9.59,9.59,0,0,0-1.37,2.67,10.36,10.36,0,0,0-.54,3v.67c0,.22,0,.44,0,.64s0,.4.07.59,0,.19,0,.28a2.56,2.56,0,0,1,.05.27c0,.08,0,.17.05.25s0,.16.07.23.07.3.11.44l.12.37.06.16,0,.08,0,.07A3.67,3.67,0,0,1,22.4,57.68Z"/><path class="cls-13" d="M39.5,53s3.66,2.84.73,8.71l-1.36.66a5.86,5.86,0,0,1-1,.36l-1.8.45S40.67,55.45,39.5,53Z"/><path class="cls-14" d="M25.54,54.37s-1.91-.76-2.06,1.17c-.2,2.65,2,2.63,2,2.63Z"/><path class="cls-15" d="M24,55.33s0,0,0-.1a.51.51,0,0,1,.23-.19.73.73,0,0,1,.43,0,.9.9,0,0,1,.45.26,1.29,1.29,0,0,1,.29.41,1.49,1.49,0,0,1,.14.38c.05.23,0,.38,0,.38s-.05-.14-.13-.33a3.57,3.57,0,0,0-.17-.34A1.67,1.67,0,0,0,25,55.4a.82.82,0,0,0-.36-.22.73.73,0,0,0-.33,0C24.06,55.23,24,55.35,24,55.33Z"/><path class="cls-15" d="M25.22,56.83s0,.05,0,.11a.37.37,0,0,1-.29.11.55.55,0,0,1-.41-.23,1,1,0,0,1-.22-.5,1.26,1.26,0,0,1,0-.55.63.63,0,0,1,.29-.36.35.35,0,0,1,.31,0c.07,0,.1.06.09.08h-.1a.35.35,0,0,0-.22.08.47.47,0,0,0-.18.29,1,1,0,0,0,0,.46,1.31,1.31,0,0,0,.16.42.49.49,0,0,0,.27.2.38.38,0,0,0,.23,0C25.18,56.85,25.21,56.82,25.22,56.83Z"/><path class="cls-14" d="M39.49,54.37s1.92-.76,2.06,1.17c.21,2.65-2,2.63-2,2.63Z"/><path class="cls-15" d="M41.08,55.33s-.1-.1-.3-.15a.73.73,0,0,0-.33,0,.82.82,0,0,0-.36.22,1.67,1.67,0,0,0-.26.35,3.57,3.57,0,0,0-.17.34c-.08.19-.1.33-.13.33s-.06-.15,0-.38a1.9,1.9,0,0,1,.13-.38,1.72,1.72,0,0,1,.29-.41A1,1,0,0,1,40.4,55a.73.73,0,0,1,.43,0,.51.51,0,0,1,.23.19C41.09,55.29,41.09,55.33,41.08,55.33Z"/><path class="cls-15" d="M39.82,56.83s0,0,.09,0a.38.38,0,0,0,.23,0,.49.49,0,0,0,.27-.2,1.31,1.31,0,0,0,.16-.42,1,1,0,0,0,0-.46.47.47,0,0,0-.18-.29.37.37,0,0,0-.22-.08h-.1s0-.05.09-.08a.35.35,0,0,1,.31,0,.63.63,0,0,1,.29.36,1.26,1.26,0,0,1,0,.55,1,1,0,0,1-.22.5.55.55,0,0,1-.41.23.37.37,0,0,1-.29-.11C39.81,56.88,39.81,56.83,39.82,56.83Z"/><path class="cls-4" d="M32.73,46a6.33,6.33,0,0,0-7.32,5.9c-.17,3-.14,6.81.92,8.52,1.87,3,5.33,5,6.82,4.6s6.6-3.62,6.56-7.24-.21-8.69-.21-8.69A16.45,16.45,0,0,0,32.73,46Z"/><path class="cls-16" d="M34,55.46s-.44-2.86,1.34-3.24c1.46-.32,3.16,1.22,3.16,1.22S34.31,51.08,34,55.46Z"/><path class="cls-17" d="M38.72,53.51s-.11,0-.27,0l-.68-.17a10,10,0,0,0-1-.19,3.82,3.82,0,0,0-.59,0,2.54,2.54,0,0,0-.61.07,1.36,1.36,0,0,0-.52.23,1.7,1.7,0,0,0-.37.39,2.64,2.64,0,0,0-.38.9c-.07.28-.12.51-.15.68s-.08.25-.11.25,0-.1-.06-.27a4.72,4.72,0,0,1,0-.72,2.76,2.76,0,0,1,.35-1,1.94,1.94,0,0,1,.45-.51,1.71,1.71,0,0,1,.67-.31,3,3,0,0,1,.71-.08,4.18,4.18,0,0,1,.64.07,5.48,5.48,0,0,1,1,.29,5.29,5.29,0,0,1,.64.29C38.65,53.42,38.73,53.48,38.72,53.51Z"/><path class="cls-15" d="M32.6,59s-.18.07-.49,0a3.12,3.12,0,0,1-1.25-.45l-.21-.13.21-.15a6.26,6.26,0,0,0,.85-.75A3.11,3.11,0,0,0,32.1,57a1.17,1.17,0,0,0,.19-.56,5.67,5.67,0,0,0,0-.82c0-.27-.06-.54-.09-.79-.08-.5-.17-1-.25-1.32a6.18,6.18,0,0,1-.27-1.23,2.86,2.86,0,0,1,.55,1.15,9.51,9.51,0,0,1,.35,1.34c.05.25.09.53.12.81s0,.28,0,.43a3.68,3.68,0,0,1,0,.47,1.92,1.92,0,0,1-.09.4,1.42,1.42,0,0,1-.17.35,4.15,4.15,0,0,1-.45.54,5.55,5.55,0,0,1-.95.75v-.28a3.78,3.78,0,0,0,1.1.54C32.44,58.89,32.61,58.93,32.6,59Z"/><g class="cls-18"><path class="cls-15" d="M39.08,56.55a1.16,1.16,0,0,1-.56,1,4.07,4.07,0,0,1-1.54.7,4.13,4.13,0,0,1-1.69.08,1.17,1.17,0,0,1-.95-.62,1.06,1.06,0,0,1,.4-1.08,3.62,3.62,0,0,1,1.65-.84,3.57,3.57,0,0,1,1.84,0C38.72,55.92,39,56.2,39.08,56.55Z"/></g><g class="cls-18"><path class="cls-15" d="M30.39,57.88a1.18,1.18,0,0,1-.94.64,4,4,0,0,1-1.68,0,3.93,3.93,0,0,1-1.56-.65,1.14,1.14,0,0,1-.59-1c0-.35.34-.64.83-.81a3.94,3.94,0,0,1,3.5.74A1.07,1.07,0,0,1,30.39,57.88Z"/></g><path class="cls-19" d="M38.28,52c-.05.11-.32.09-.72,0l-.7-.15L36,51.69l-.84-.18-.69-.15c-.4-.09-.66-.19-.66-.3s.25-.24.69-.29a4.45,4.45,0,0,1,.76,0,6.76,6.76,0,0,1,.92.13,5.47,5.47,0,0,1,.89.27,4.78,4.78,0,0,1,.68.34C38.15,51.71,38.33,51.92,38.28,52Z"/><path class="cls-13" d="M26.06,42.26s3-1.4,4.15,1.52c1.19,3.13,6.33,9.82,12.17,8.87,0,0-10.41-13.76-15.8-11.26l-.32.19Z"/><path class="cls-20" d="M26.13,42c-.06.19,3-2.66,5.27,2.44s7.27,8.18,10.69,8.21c2.68,0,1,3.76,1,3.76S47.9,47.05,41.26,46c-6.48-1-7.8-8.26-13.09-6.58A4.27,4.27,0,0,0,26.13,42Z"/><g class="cls-9"><path class="cls-10" d="M44.84,49l-.2.12a4.5,4.5,0,0,1-.61.29,6.21,6.21,0,0,1-1,.32A6.37,6.37,0,0,1,41.6,50a6.56,6.56,0,0,1-1.71-.17,7.15,7.15,0,0,1-1.84-.72,7,7,0,0,1-1.72-1.35A9.89,9.89,0,0,1,35,45.78c-.39-.7-.73-1.4-1.09-2.05A10,10,0,0,0,32.68,42a6.54,6.54,0,0,0-.72-.68l-.19-.14a1.37,1.37,0,0,0-.2-.13,3.11,3.11,0,0,0-.4-.22,4.8,4.8,0,0,0-1.6-.46,5.19,5.19,0,0,0-1.39,0,4.37,4.37,0,0,0-1,.29l-.19.08-.16.08-.14.06-.11.07a1,1,0,0,1-.21.11.86.86,0,0,1,.19-.15l.11-.07.13-.08.16-.09.19-.09a4.87,4.87,0,0,1,2.44-.41,5,5,0,0,1,1.67.45,4.36,4.36,0,0,1,.42.23,1.37,1.37,0,0,1,.2.13,1.49,1.49,0,0,1,.2.15,5.45,5.45,0,0,1,.76.69,10.35,10.35,0,0,1,1.25,1.79c.37.66.71,1.36,1.09,2a10.39,10.39,0,0,0,1.31,1.89,7,7,0,0,0,3.45,2,6.74,6.74,0,0,0,1.67.19A7.17,7.17,0,0,0,43,49.66a8.2,8.2,0,0,0,1-.28C44.55,49.18,44.83,49,44.84,49Z"/></g><g class="cls-9"><path class="cls-10" d="M44.53,52.73v-.07a.15.15,0,0,0,0-.07v-.11a.69.69,0,0,0,0-.13.53.53,0,0,0,0-.16,1.44,1.44,0,0,0-.17-.36,1.86,1.86,0,0,0-.85-.67A2.66,2.66,0,0,0,42.8,51,5,5,0,0,0,42,51h-.87c-.31,0-.62,0-.95-.05a16.4,16.4,0,0,1-2.07-.3A6.46,6.46,0,0,1,37,50.28a3.75,3.75,0,0,1-1-.6,3.56,3.56,0,0,1-.45-.42,4.7,4.7,0,0,1-.38-.5,6.28,6.28,0,0,1-.61-1.11,24.14,24.14,0,0,1-.81-2.34,8.67,8.67,0,0,0-.92-2.07,4.75,4.75,0,0,0-1.43-1.43,5.7,5.7,0,0,0-1.64-.69A5.56,5.56,0,0,0,28.29,41L28,41l-.29,0-.13,0-.13,0-.24.06a6.17,6.17,0,0,0-.67.23l-.23.09.21-.13a4.54,4.54,0,0,1,.67-.27l.24-.06.13,0,.13,0,.3-.05a3.16,3.16,0,0,1,.32,0,5,5,0,0,1,1.5.11,5.7,5.7,0,0,1,1.7.68A5,5,0,0,1,33,43.13a8.58,8.58,0,0,1,.94,2.11c.26.76.47,1.56.81,2.32a6.7,6.7,0,0,0,.59,1.09,5.45,5.45,0,0,0,.37.47,4,4,0,0,0,.42.4,3.62,3.62,0,0,0,1,.58,7.12,7.12,0,0,0,1.06.32,16.16,16.16,0,0,0,2,.32c.33,0,.64,0,.94,0l.87,0a5,5,0,0,1,.79,0,2.87,2.87,0,0,1,.7.19,1.92,1.92,0,0,1,.87.74,1.54,1.54,0,0,1,.17.38l0,.17v.14s0,.08,0,.11,0,.06,0,.08S44.54,52.73,44.53,52.73Z"/></g><path class="cls-20" d="M34.75,59.23a.43.43,0,0,1,.19.34,1.37,1.37,0,0,1-.1.65,2.28,2.28,0,0,1-.21.41l-.12.19,0,0,0,.06-.1.12a2.67,2.67,0,0,1-2.44.74,2.74,2.74,0,0,1-.91-.37,1.43,1.43,0,0,1-.46-.47.4.4,0,0,1,0-.39c.1-.21.45-.26.87-.28l.68,0a4,4,0,0,0,.68-.12,3.28,3.28,0,0,0,.59-.24l.06,0h0l0,0,.16-.11.28-.17a3.05,3.05,0,0,1,.49-.27A.42.42,0,0,1,34.75,59.23Z"/><path class="cls-16" d="M30.66,55.64s.44-2.86-1.34-3.25c-1.46-.31-3.16,1.23-3.16,1.23S30.39,51.26,30.66,55.64Z"/><path class="cls-17" d="M26,53.69s.07-.09.22-.17a4.89,4.89,0,0,1,.65-.29,5.16,5.16,0,0,1,1-.29,4.18,4.18,0,0,1,.64-.07,3,3,0,0,1,.71.08,1.65,1.65,0,0,1,.67.31,1.94,1.94,0,0,1,.45.51,2.76,2.76,0,0,1,.35,1,4.72,4.72,0,0,1,0,.72c0,.17,0,.27-.06.27s-.07-.09-.1-.25-.08-.4-.16-.68A2.64,2.64,0,0,0,30,54a1.7,1.7,0,0,0-.37-.39,1.46,1.46,0,0,0-.52-.24,3.15,3.15,0,0,0-.61-.06,3.82,3.82,0,0,0-.59,0,7.28,7.28,0,0,0-1,.19l-.69.17C26.09,53.71,26,53.72,26,53.69Z"/><path class="cls-19" d="M26.42,52.2c-.05-.1.13-.31.5-.54a3.91,3.91,0,0,1,.68-.34,5.47,5.47,0,0,1,.89-.27,6.76,6.76,0,0,1,.92-.13,4.45,4.45,0,0,1,.76,0c.44,0,.69.17.69.28s-.26.22-.66.31l-.69.15-.84.18-.83.19-.7.15C26.74,52.29,26.47,52.31,26.42,52.2Z"/><path class="cls-21" d="M30.66,66.38a2.21,2.21,0,0,0,.44,1.32,2.88,2.88,0,0,0,2.11.55v1.29s-2.41.08-2.51-1.45Z"/><path class="cls-21" d="M33.63,68.31v1.23a1.75,1.75,0,0,0,.74-1.36v-.73a1,1,0,0,0-.25-.67h0S34.37,68,33.63,68.31Z"/><path class="cls-2" d="M0,27.43a4.37,4.37,0,0,1,2.44,3.76c.14,1.77.9,5.14,2.26,5.23l3.61-1.53a10.74,10.74,0,0,1-1.26-4.45C7,28.08,4.52,25.31,4.52,25.31Z"/><path class="cls-3" d="M6.45,30.31a1.88,1.88,0,0,1-1.77,2.22c-1,0-1.77-1.24-1.77-2.22a1.77,1.77,0,0,1,1.77-1.77A1.91,1.91,0,0,1,6.45,30.31Z"/><path class="cls-2" d="M5.89,31s-.06-.07-.1-.19a2,2,0,0,0-.19-.46.83.83,0,0,0-.2-.22A.38.38,0,0,0,5.14,30a.29.29,0,0,0-.22.15.48.48,0,0,0,0,.34c0,.08,0,.16.07.25a1.1,1.1,0,0,1,0,.32,1.54,1.54,0,0,1,0,.17.46.46,0,0,1-.09.15.61.61,0,0,1-.29.18.58.58,0,0,1-.32,0A.54.54,0,0,1,4,31.46a.93.93,0,0,1-.26-.37,1.13,1.13,0,0,1-.08-.33,2.09,2.09,0,0,1,0-.24c0-.13,0-.2.06-.2s.06.06.11.18A2,2,0,0,0,4,31a1,1,0,0,0,.2.22.28.28,0,0,0,.25,0,.31.31,0,0,0,.09-.07l0,0a.64.64,0,0,0,0-.07,1.84,1.84,0,0,0-.08-.42.94.94,0,0,1,0-.3A.59.59,0,0,1,4.56,30a.68.68,0,0,1,.55-.34.7.7,0,0,1,.51.2.91.91,0,0,1,.25.36,1.36,1.36,0,0,1,.09.58C6,30.9,5.92,31,5.89,31Z"/><path class="cls-2" d="M6.06,29.91a4.72,4.72,0,0,1-1.29.64A5,5,0,0,1,3.41,31a4.72,4.72,0,0,1,1.29-.64A5.43,5.43,0,0,1,6.06,29.91Z"/><path class="cls-2" d="M6.11,30.24A4.38,4.38,0,0,1,5,30.82a3.85,3.85,0,0,1-1.24.39,4.38,4.38,0,0,1,1.16-.58A3.92,3.92,0,0,1,6.11,30.24Z"/><path class="cls-22" d="M.75,27.47a3.19,3.19,0,0,1,1.94,2.44C2.9,31.52,3,34.77,4.54,36l3.19-1.35a8.53,8.53,0,0,1-1.09-3.37,7.22,7.22,0,0,0-2.4-5.34Z"/><path class="cls-2" d="M28.67,25.91a4.37,4.37,0,0,1,4.47-.28c1.62.74,4.93,1.73,5.68.6l.43-3.9a10.78,10.78,0,0,1-4.5-1.09c-2.1-1.08-5.71-.31-5.71-.31Z"/><path class="cls-3" d="M34.35,21.7a1.88,1.88,0,0,1,1.06,2.63c-.48.86-1.95.94-2.8.46a1.77,1.77,0,0,1-.68-2.41A1.92,1.92,0,0,1,34.35,21.7Z"/><path class="cls-2" d="M34.65,22.51s-.09,0-.21,0a2.17,2.17,0,0,0-.49-.05.77.77,0,0,0-.3.06.41.41,0,0,0-.2.19.33.33,0,0,0,0,.26.49.49,0,0,0,.3.17l.26.07a1.38,1.38,0,0,1,.28.13l.13.13a.8.8,0,0,1,.08.16.58.58,0,0,1-.13.61.63.63,0,0,1-.24.15.77.77,0,0,1-.44.05,1.31,1.31,0,0,1-.33-.09l-.21-.12q-.16-.11-.15-.15s.09,0,.21,0a2.13,2.13,0,0,0,.5.06.55.55,0,0,0,.28-.07.24.24,0,0,0,.15-.19.37.37,0,0,0,0-.11l0-.05,0,0a1.47,1.47,0,0,0-.41-.14,1,1,0,0,1-.29-.11l-.14-.1a.76.76,0,0,1-.11-.14.66.66,0,0,1,0-.64.69.69,0,0,1,.43-.35.93.93,0,0,1,.43,0,1.22,1.22,0,0,1,.54.2C34.61,22.43,34.66,22.48,34.65,22.51Z"/><path class="cls-2" d="M33.81,21.85a4.91,4.91,0,0,1-.08,1.43,4.91,4.91,0,0,1-.28,1.4,4.7,4.7,0,0,1,.07-1.43A4.71,4.71,0,0,1,33.81,21.85Z"/><path class="cls-2" d="M34.12,22a4,4,0,0,1-.06,1.3,3.91,3.91,0,0,1-.27,1.27,4,4,0,0,1,.06-1.3A3.91,3.91,0,0,1,34.12,22Z"/><path class="cls-22" d="M29.08,25.28a3.14,3.14,0,0,1,3.07-.5c1.51.61,4.39,2.13,6.22,1.37l.39-3.44a8.46,8.46,0,0,1-3.48-.7,7.19,7.19,0,0,0-5.82-.53Z"/><path class="cls-2" d="M9.93,0A4.36,4.36,0,0,1,7.05,3.42c-1.66.65-4.67,2.36-4.36,3.69l2.52,3A10.58,10.58,0,0,1,9.1,7.62c2.23-.77,4.17-3.91,4.17-3.91Z"/><path class="cls-3" d="M9.05,7A1.88,1.88,0,0,1,6.41,6C6.13,5,7.08,3.9,8,3.62A1.77,1.77,0,0,1,10.23,4.8,1.92,1.92,0,0,1,9.05,7Z"/><path class="cls-2" d="M8.25,6.67s.05-.08.15-.15a2,2,0,0,0,.39-.32.74.74,0,0,0,.15-.26.32.32,0,0,0,0-.27.31.31,0,0,0-.2-.17.53.53,0,0,0-.33.11l-.22.13a.89.89,0,0,1-.3.11H7.72a.61.61,0,0,1-.18-.05.51.51,0,0,1-.25-.23.63.63,0,0,1-.1-.29.78.78,0,0,1,0-.28.84.84,0,0,1,.28-.35,1.28,1.28,0,0,1,.29-.17L8,4.41q.2,0,.21,0s0,.08-.14.15a2.4,2.4,0,0,0-.39.32.79.79,0,0,0-.15.25.29.29,0,0,0,0,.24.28.28,0,0,0,.09.07h.12a1.27,1.27,0,0,0,.38-.2,1.47,1.47,0,0,1,.28-.12l.17,0,.18,0a.72.72,0,0,1,.48.43.73.73,0,0,1-.05.55A1,1,0,0,1,9,6.42a1.26,1.26,0,0,1-.52.25C8.34,6.7,8.26,6.69,8.25,6.67Z"/><path class="cls-2" d="M9.31,6.52a5,5,0,0,1-1-1A5,5,0,0,1,7.52,4.3a5.11,5.11,0,0,1,1,1A4.68,4.68,0,0,1,9.31,6.52Z"/><path class="cls-2" d="M9,6.66a4,4,0,0,1-.9-.94,4.07,4.07,0,0,1-.73-1.07,4,4,0,0,1,.9.94A4.07,4.07,0,0,1,9,6.66Z"/><path class="cls-22" d="M10.11.73A3.18,3.18,0,0,1,8.34,3.29C6.86,4,3.77,5,3.05,6.83L5.26,9.5a8.52,8.52,0,0,1,2.92-2,7.2,7.2,0,0,0,4.41-3.84Z"/><path class="cls-2" d="M18.24,15a4.42,4.42,0,0,1,4.43-.71c1.67.59,5.07,1.26,5.7.06l.06-3.92a10.72,10.72,0,0,1-4.58-.65c-2.19-.88-5.71.24-5.71.24Z"/><path class="cls-3" d="M23.49,10.29A1.87,1.87,0,0,1,24.8,12.8c-.4.9-1.85,1.12-2.75.72a1.77,1.77,0,0,1-.9-2.33A1.9,1.9,0,0,1,23.49,10.29Z"/><path class="cls-2" d="M23.87,11.06s-.09,0-.21,0a2.63,2.63,0,0,0-.5,0,1,1,0,0,0-.29.1.4.4,0,0,0-.18.21.31.31,0,0,0,0,.25.47.47,0,0,0,.31.14l.26,0a1,1,0,0,1,.3.11.69.69,0,0,1,.13.11.72.72,0,0,1,.11.15.65.65,0,0,1-.08.63.69.69,0,0,1-.22.17.78.78,0,0,1-.43.09,1,1,0,0,1-.34-.06l-.22-.09c-.12-.06-.17-.11-.17-.14s.09,0,.21,0a2,2,0,0,0,.5,0,.66.66,0,0,0,.28-.09.28.28,0,0,0,.13-.21.36.36,0,0,0,0-.11.08.08,0,0,0,0,0,.1.1,0,0,0-.05,0,1.43,1.43,0,0,0-.42-.1,1.15,1.15,0,0,1-.29-.08.38.38,0,0,1-.15-.09.53.53,0,0,1-.13-.13.66.66,0,0,1-.08-.63.73.73,0,0,1,.39-.4,1.16,1.16,0,0,1,.43-.08,1.45,1.45,0,0,1,.56.16C23.82,11,23.88,11,23.87,11.06Z"/><path class="cls-2" d="M23,10.48A5,5,0,0,1,23,11.91a5.15,5.15,0,0,1-.15,1.43,4.77,4.77,0,0,1-.06-1.44A4.7,4.7,0,0,1,23,10.48Z"/><path class="cls-2" d="M23.29,10.56a4.62,4.62,0,0,1,.06,1.3,3.78,3.78,0,0,1-.15,1.29,4.57,4.57,0,0,1-.06-1.3A3.89,3.89,0,0,1,23.29,10.56Z"/><path class="cls-22" d="M18.59,14.34a3.15,3.15,0,0,1,3-.78c1.56.46,4.57,1.69,6.31.77L28,10.87a8.46,8.46,0,0,1-3.53-.37,7.19,7.19,0,0,0-5.85,0Z"/><path class="cls-2" d="M37.73,5.1a4.36,4.36,0,0,1,.69,4.42c-.59,1.68-1.27,5.07-.07,5.71l3.92.07a10.72,10.72,0,0,1,.67-4.58C43.83,8.53,42.72,5,42.72,5Z"/><path class="cls-3" d="M42.44,10.36a1.87,1.87,0,0,1-2.52,1.3c-.89-.4-1.11-1.86-.71-2.75A1.77,1.77,0,0,1,41.55,8,1.9,1.9,0,0,1,42.44,10.36Z"/><path class="cls-2" d="M41.66,10.73s0-.08,0-.21a1.92,1.92,0,0,0,0-.49.75.75,0,0,0-.09-.29.36.36,0,0,0-.21-.18.3.3,0,0,0-.26,0,.57.57,0,0,0-.13.32c0,.08,0,.16,0,.26a1,1,0,0,1-.11.29.49.49,0,0,1-.11.14.4.4,0,0,1-.15.1.67.67,0,0,1-.34,0,.72.72,0,0,1-.28-.13.6.6,0,0,1-.18-.22,1.08,1.08,0,0,1-.09-.44,1.36,1.36,0,0,1,.07-.33,1.65,1.65,0,0,1,.09-.22c.06-.12.11-.17.14-.17s0,.09,0,.22A2.42,2.42,0,0,0,40,10a.67.67,0,0,0,.1.28.27.27,0,0,0,.2.13l.12,0,0,0,0-.05a2,2,0,0,0,.09-.42,1.2,1.2,0,0,1,.09-.29.6.6,0,0,1,.09-.15.53.53,0,0,1,.13-.13.67.67,0,0,1,1,.32A.84.84,0,0,1,42,10a1.26,1.26,0,0,1-.15.55C41.74,10.69,41.69,10.74,41.66,10.73Z"/><path class="cls-2" d="M42.25,9.83a4.64,4.64,0,0,1-1.43.06,5.15,5.15,0,0,1-1.43-.15,4.64,4.64,0,0,1,1.43-.06A5.64,5.64,0,0,1,42.25,9.83Z"/><path class="cls-2" d="M42.17,10.15a3.91,3.91,0,0,1-1.3.06,3.93,3.93,0,0,1-1.3-.15,4.62,4.62,0,0,1,1.3-.06A4.67,4.67,0,0,1,42.17,10.15Z"/><path class="cls-22" d="M38.4,5.44a3.2,3.2,0,0,1,.78,3c-.47,1.55-1.72,4.56-.8,6.31l3.46.08a8.52,8.52,0,0,1,.38-3.53,7.22,7.22,0,0,0,0-5.85Z"/></g></g></svg>