<svg xmlns="http://www.w3.org/2000/svg" viewBox="0 0 110.47 113.4"><defs><style>.cls-1{fill:#e5b699;}.cls-2{fill:#1a1b1e;}.cls-3{fill:#c38e79;}.cls-11,.cls-4{fill:#995e52;}.cls-4{opacity:0.28;}.cls-5{fill:#e8e8e8;}.cls-6{fill:#222326;}.cls-7{fill:#dbdbdb;}.cls-8{opacity:0.51;}.cls-9{fill:#a08472;}.cls-10{fill:#c1ad9f;}.cls-11{opacity:0.22;}.cls-12{fill:#e2ad8f;}.cls-13{fill:#d68772;}.cls-14{opacity:0.19;}.cls-15{fill:#f5f0e1;}.cls-16{fill:#3a3047;}.cls-17{fill:#aa8b71;}.cls-18{fill:#e2d6d0;}.cls-19{fill:#4f3f3b;}.cls-20{fill:#352a28;}.cls-21{opacity:0.27;}.cls-22{fill:#fff;}.cls-23{fill:#42495e;}.cls-24{fill:#383d4f;}.cls-25{fill:#bababa;}.cls-26{fill:#a9aaa9;}.cls-27{fill:#70533a;}.cls-28{fill:#5ebc8d;}.cls-29{fill:#2d323f;}</style></defs><title>desk_coffeeРесурс 5</title><g id="Слой_2" data-name="Слой 2"><g id="Objects"><polygon class="cls-1" points="94.58 80.91 96.75 83.17 97.73 82.53 95.72 80.15 94.58 80.91"/><path class="cls-2" d="M96.76,83.18l.78-.88s3.59-2,3.45-1.43-4.15,2.63-4.2,2.36S96.76,83.18,96.76,83.18Z"/><polygon class="cls-1" points="79.69 98.09 80.24 101.18 81.41 101.18 81.05 98.09 79.69 98.09"/><path class="cls-2" d="M80.24,101.18l1.14-.29s4.07.37,3.67.72-4.92-.11-4.81-.36S80.24,101.18,80.24,101.18Z"/><path class="cls-2" d="M72.61,70.24s-1.71,5.28,0,9.69,7.11,19.39,7.11,19.39h1.66s-2.4-31-2.71-40.43c0,0-7.43-1.74-23.48,1,0,0-8.39,7.49-5.52,10.35,3.65,3.65,22.94-.05,22.94-.05"/><path class="cls-2" d="M47.39,60.91s-1.84,8.39,4.48,10.65c6.81,2.43,25.91-5.83,25.91-5.83s1.87,5.23,5.91,7.68a137.62,137.62,0,0,1,11.59,8.76L97,80.71S87,66.25,80.22,58.27a4.78,4.78,0,0,0-4.76-1.56C71.71,57.61,65.07,58.93,47.39,60.91Z"/><path class="cls-2" d="M66.38,54.21s-1.65-5.42-.67-9.18S68.44,32.2,68.44,32.2h1.73S72.43,56.34,66.38,54.21Z"/><polygon class="cls-3" points="52.53 25.02 52.53 29.53 56.08 29.53 56.08 24.63 52.53 25.02"/><path class="cls-4" d="M52.53,25v.93s1.39.85,3.55-.46l.09-1Z"/><path class="cls-5" d="M49,29.33s5.36-1.84,8.52-.09l6,12.16.35,8.81L64.94,58s-10.19,7.75-12.24.82c0,0,2.77-10.21,1-13.54s-6.87-12.07-6.87-12.07Z"/><path class="cls-6" d="M45.11,32.74l-.18,2.9s8.38,11.75,5.79,17.65L46.14,62S50,68.37,56.51,66c0,0,4.44-15,1-23.12a56.56,56.56,0,0,0-8.21-13.61l-1.77.5A3.33,3.33,0,0,0,45.11,32.74Z"/><path class="cls-6" d="M57.49,29.24l3.31,1.15s6.34,11.28,4.61,17.31l.3,11.3s-4.11,4.48-3.7.1c.36-3.88,2.11-15.32,1-17.48S57.49,29.24,57.49,29.24Z"/><polygon class="cls-3" points="54.94 30.06 56.65 33.15 55.36 30.07 55.36 28.34 54.12 27.93 54.94 30.06"/><path class="cls-7" d="M52.38,26.9a2.31,2.31,0,0,0,.44,1.33,2.88,2.88,0,0,0,2.12.54v1.29s-2.42.09-2.52-1.44Z"/><path class="cls-7" d="M55.36,28.84v1.22a1.75,1.75,0,0,0,.73-1.35V28a1,1,0,0,0-.24-.67h0S56.09,28.56,55.36,28.84Z"/><g class="cls-8"><path class="cls-9" d="M59.61,60.62a1,1,0,0,1,0-.28c0-.19,0-.47.07-.82.06-.71.15-1.73.27-3s.24-2.77.33-4.45a38.22,38.22,0,0,0,0-5.44c-.08-1-.19-1.91-.34-2.81s-.32-1.76-.52-2.57A37.87,37.87,0,0,0,58.1,37c-.44-1.19-.85-2.13-1.14-2.78-.14-.32-.27-.57-.34-.74a1.19,1.19,0,0,1-.11-.26s.06.08.15.24.22.41.37.73c.32.64.75,1.57,1.21,2.76a36.58,36.58,0,0,1,1.33,4.27c.2.82.38,1.69.53,2.59s.27,1.85.35,2.82a37.14,37.14,0,0,1,0,5.47c-.1,1.68-.25,3.19-.38,4.46s-.26,2.28-.34,3c0,.35-.08.62-.1.81S59.61,60.62,59.61,60.62Z"/></g><polygon class="cls-2" points="51.61 55.81 50.67 56.91 54.23 60.27 54.75 59.01 51.61 55.81"/><path class="cls-2" d="M60.8,30.39S70.19,39,68.16,52.22c0,0-1.13,3.66-2.45,2.31S60.8,30.39,60.8,30.39Z"/><path class="cls-10" d="M48.89,8.22s-3.48-6,1.13-7.7,7.2,5.37,12,6.13,5.18,4.55,3,9.92-1.13,4.36-2.21,5.37-6.51,3.79-13.58,1.58-7.46-14.16-5-17.44S48.89,8.22,48.89,8.22Z"/><path class="cls-9" d="M47.36,22.75s0,0-.14-.09a4.62,4.62,0,0,1-.37-.31l-.25-.24-.28-.3a8.3,8.3,0,0,1-.61-.8,8.87,8.87,0,0,1-1.13-2.37,9.94,9.94,0,0,1-.35-1.52,11.16,11.16,0,0,1-.13-1.66,12.82,12.82,0,0,1,.08-1.66,11.58,11.58,0,0,1,.27-1.53,8.42,8.42,0,0,1,.45-1.34,3.86,3.86,0,0,1,.66-1,1.62,1.62,0,0,1,.89-.52,1.27,1.27,0,0,1,.77.1.85.85,0,0,1,.37.31.41.41,0,0,1,.06.11v0l0,0-.07-.1a.92.92,0,0,0-.38-.26,1.24,1.24,0,0,0-.71-.06,1.58,1.58,0,0,0-.8.51,3.82,3.82,0,0,0-.61,1,8,8,0,0,0-.42,1.31,13.59,13.59,0,0,0-.25,1.51,12.6,12.6,0,0,0-.08,1.64,10.78,10.78,0,0,0,.12,1.63,10.54,10.54,0,0,0,.33,1.49,9.27,9.27,0,0,0,1.07,2.34c.2.31.4.58.58.81s.19.22.27.31l.23.25.34.34C47.33,22.7,47.37,22.75,47.36,22.75Z"/><path class="cls-11" d="M49.31,8.46s-4.75-5.23-5.43,6.44a9.17,9.17,0,0,0,2.43,6.81,7.54,7.54,0,0,0,4.57,2.45Z"/><path class="cls-9" d="M49.45,2.25s0,0,0,.06l-.12.13a2.39,2.39,0,0,0-.36.53,2.87,2.87,0,0,0-.26.91A3.57,3.57,0,0,0,48.75,5a6.68,6.68,0,0,0,.38,1.12c.15.33.31.63.43.87a4.53,4.53,0,0,0,.35.55c.1.12.16.18.15.19s-.09,0-.21-.14a2.27,2.27,0,0,1-.42-.52c-.14-.25-.31-.54-.47-.87a5.37,5.37,0,0,1-.41-1.15,3.25,3.25,0,0,1-.06-1.23,2.52,2.52,0,0,1,.32-1,2.06,2.06,0,0,1,.43-.52l.15-.11Z"/><path class="cls-9" d="M63.72,20s0-.1.08-.28A3.64,3.64,0,0,0,64,19a4.12,4.12,0,0,0,0-1.15,6.29,6.29,0,0,0-.16-.66,4.85,4.85,0,0,0-.29-.67,6,6,0,0,0-.78-1.18,10,10,0,0,0-.79-.86,8.45,8.45,0,0,1-.78-.75,3.74,3.74,0,0,1,.88.64,7.53,7.53,0,0,1,.84.85,5.57,5.57,0,0,1,.82,1.21,4.15,4.15,0,0,1,.29.7,3.79,3.79,0,0,1,.16.69,4,4,0,0,1,0,1.2,3.06,3.06,0,0,1-.24.77C63.79,19.91,63.73,20,63.72,20Z"/><path class="cls-9" d="M60.56,23.2a3.48,3.48,0,0,1,.38-.63l.19-.31c.06-.11.13-.24.19-.37A7.09,7.09,0,0,0,61.7,21,7.62,7.62,0,0,0,62,20.1c0-.14.06-.28.08-.41l0-.18c0-.06,0-.12,0-.18a4,4,0,0,1,.09-.72,1.87,1.87,0,0,1,.06.73c0,.06,0,.12,0,.18a1.36,1.36,0,0,1,0,.2,3.53,3.53,0,0,1-.06.42,6.39,6.39,0,0,1-.25.95,6.76,6.76,0,0,1-.4.89l-.22.37-.22.31A2.14,2.14,0,0,1,60.56,23.2Z"/><path class="cls-9" d="M44,18.54a2.24,2.24,0,0,1-.29-.54l0-.07,0-.08-.06-.16c-.05-.11-.09-.24-.14-.37s-.09-.28-.14-.43a2.17,2.17,0,0,0-.07-.24c0-.08,0-.17-.05-.25l-.06-.27a2.33,2.33,0,0,1-.05-.28l-.09-.6c0-.21,0-.43-.05-.65v-.69a10.11,10.11,0,0,1,.53-3,9.45,9.45,0,0,1,1.41-2.72,3.75,3.75,0,0,1,.44-.53,2,2,0,0,1,.55-.39l.3-.12.31,0a2.16,2.16,0,0,1,.57,0,3.11,3.11,0,0,1,.92.3,4.51,4.51,0,0,1,.62.39,3,3,0,0,1,.48.38,3.71,3.71,0,0,1-.53-.32A6.42,6.42,0,0,0,48,7.52a2.82,2.82,0,0,0-.89-.26,2.41,2.41,0,0,0-.54,0,1.31,1.31,0,0,0-.27.06,1.69,1.69,0,0,0-.27.1,2.49,2.49,0,0,0-.91.89A9.59,9.59,0,0,0,43.71,11a10.36,10.36,0,0,0-.54,2.95v.67c0,.22,0,.44,0,.64s0,.4.08.59,0,.19,0,.28a2.56,2.56,0,0,1,0,.27c0,.08,0,.17.05.25l.06.23c0,.16.08.3.12.44l.12.37a1,1,0,0,1,.05.16l0,.08,0,.07A5.81,5.81,0,0,1,44,18.54Z"/><path class="cls-11" d="M61.14,13.86s3.66,2.84.73,8.71l-1.36.66a5.86,5.86,0,0,1-1,.36l-1.8.45S62.31,16.31,61.14,13.86Z"/><path class="cls-12" d="M47.18,15.23s-1.91-.76-2.06,1.16c-.2,2.66,2,2.64,2,2.64Z"/><path class="cls-13" d="M45.6,16.19s0,0,0-.1a.53.53,0,0,1,.22-.19.76.76,0,0,1,.43-.05.89.89,0,0,1,.46.26,1.34,1.34,0,0,1,.29.41,1.49,1.49,0,0,1,.14.38c.05.23,0,.38,0,.38s0-.14-.13-.33a2.69,2.69,0,0,0-.17-.34,1.73,1.73,0,0,0-.27-.35.74.74,0,0,0-.35-.22.78.78,0,0,0-.34,0C45.7,16.09,45.63,16.21,45.6,16.19Z"/><path class="cls-13" d="M46.86,17.69s0,0,0,.11a.37.37,0,0,1-.29.11.55.55,0,0,1-.41-.23,1,1,0,0,1-.22-.5,1.26,1.26,0,0,1,0-.55.63.63,0,0,1,.29-.36.35.35,0,0,1,.31,0c.07,0,.1.06.09.08h-.1a.4.4,0,0,0-.23.08.51.51,0,0,0-.17.29,1,1,0,0,0,0,.46,1,1,0,0,0,.16.42.43.43,0,0,0,.27.19.32.32,0,0,0,.23,0S46.85,17.68,46.86,17.69Z"/><path class="cls-12" d="M61.13,15.23s1.91-.76,2.06,1.16c.21,2.66-2,2.64-2,2.64Z"/><path class="cls-13" d="M62.72,16.19s-.11-.1-.3-.15a.77.77,0,0,0-.34,0,.85.85,0,0,0-.35.22,2.19,2.19,0,0,0-.27.35,2.52,2.52,0,0,0-.16.34c-.08.19-.1.33-.13.33s-.06-.15,0-.38a1.9,1.9,0,0,1,.13-.38,1.54,1.54,0,0,1,.29-.41.89.89,0,0,1,.46-.26.73.73,0,0,1,.43.05.43.43,0,0,1,.22.19C62.73,16.15,62.73,16.19,62.72,16.19Z"/><path class="cls-13" d="M61.46,17.69s0,0,.09,0a.31.31,0,0,0,.22,0,.38.38,0,0,0,.27-.19,1.2,1.2,0,0,0,.17-.42,1.16,1.16,0,0,0,0-.46A.52.52,0,0,0,62,16.4a.37.37,0,0,0-.22-.08h-.1s0-.05.09-.08a.35.35,0,0,1,.31,0,.58.58,0,0,1,.28.36,1.13,1.13,0,0,1,.05.55,1.14,1.14,0,0,1-.22.5.56.56,0,0,1-.41.23.4.4,0,0,1-.3-.11C61.44,17.74,61.45,17.69,61.46,17.69Z"/><path class="cls-1" d="M54.37,6.82a6.33,6.33,0,0,0-7.32,5.9c-.18,3-.14,6.81.92,8.52,1.87,3,5.32,5,6.82,4.6s6.6-3.62,6.56-7.24-.22-8.69-.22-8.69A16.37,16.37,0,0,0,54.37,6.82Z"/><path class="cls-13" d="M54.24,19.82s-.18.07-.49,0a3.12,3.12,0,0,1-1.25-.45l-.21-.13.21-.15a6.93,6.93,0,0,0,.85-.75,2.57,2.57,0,0,0,.38-.49,1.07,1.07,0,0,0,.19-.56,3.78,3.78,0,0,0,0-.82c0-.28,0-.54-.09-.79-.07-.5-.16-1-.25-1.32a5.67,5.67,0,0,1-.26-1.23,2.86,2.86,0,0,1,.55,1.15,9.51,9.51,0,0,1,.35,1.34c.05.25.09.53.12.81l0,.43a2.46,2.46,0,0,1,0,.47,1.42,1.42,0,0,1-.08.4,1.89,1.89,0,0,1-.17.35,3,3,0,0,1-.46.53,4.82,4.82,0,0,1-.94.76v-.28a3.66,3.66,0,0,0,1.1.54C54.07,19.75,54.24,19.79,54.24,19.82Z"/><g class="cls-14"><path class="cls-13" d="M60.72,17.41a1.16,1.16,0,0,1-.56,1,4.07,4.07,0,0,1-1.54.7,4.13,4.13,0,0,1-1.69.08,1.16,1.16,0,0,1-1-.62,1.06,1.06,0,0,1,.4-1.08,3.94,3.94,0,0,1,3.49-.84C60.36,16.78,60.68,17.06,60.72,17.41Z"/></g><g class="cls-14"><path class="cls-13" d="M52,18.74a1.18,1.18,0,0,1-.94.64,4.06,4.06,0,0,1-1.69,0,3.94,3.94,0,0,1-1.55-.65,1.17,1.17,0,0,1-.6-1c0-.35.34-.64.84-.81a3.94,3.94,0,0,1,3.5.74A1.08,1.08,0,0,1,52,18.74Z"/></g><path class="cls-11" d="M47.7,3.12s3-1.4,4.15,1.52C53,7.77,58.18,14.46,64,13.51c0,0-10.42-13.76-15.8-11.26l-.32.19"/><path class="cls-15" d="M47.77,2.84C47.71,3,50.79.18,53,5.28s7.27,8.19,10.69,8.21c2.68,0,1,3.76,1,3.76s4.82-9.34-1.83-10.42c-6.47-1-7.79-8.26-13.08-6.58A4.27,4.27,0,0,0,47.77,2.84Z"/><g class="cls-8"><path class="cls-9" d="M66.48,9.89l-.2.13a4.5,4.5,0,0,1-.61.29,6.21,6.21,0,0,1-1,.32,6.45,6.45,0,0,1-1.41.18,6.52,6.52,0,0,1-1.71-.17,7.08,7.08,0,0,1-1.85-.72A7.2,7.2,0,0,1,58,8.57a9.85,9.85,0,0,1-1.33-1.93c-.39-.7-.73-1.4-1.1-2a9.93,9.93,0,0,0-1.21-1.76,6.54,6.54,0,0,0-.72-.68L53.41,2l-.2-.13a4,4,0,0,0-.4-.22A4.85,4.85,0,0,0,51.2,1.2a5.14,5.14,0,0,0-1.38.05,4.93,4.93,0,0,0-1,.29l-.19.08-.16.08-.14.06-.11.07a1,1,0,0,1-.21.11.86.86,0,0,1,.19-.15l.1-.07.14-.08.16-.09.19-.09a5.1,5.1,0,0,1,1-.33,5.33,5.33,0,0,1,1.42-.08,5,5,0,0,1,1.67.45,4.36,4.36,0,0,1,.42.23,2.26,2.26,0,0,1,.2.13l.2.14a5.51,5.51,0,0,1,.75.7,9.36,9.36,0,0,1,1.25,1.79c.38.66.72,1.36,1.1,2.05a9.91,9.91,0,0,0,1.31,1.89,7,7,0,0,0,3.45,2,6.69,6.69,0,0,0,1.67.19,7.17,7.17,0,0,0,1.39-.14,8.2,8.2,0,0,0,1-.28C66.19,10,66.47,9.88,66.48,9.89Z"/></g><g class="cls-8"><path class="cls-9" d="M66.17,13.59v-.07s0,0,0-.07v-.11s0-.08,0-.13a1.24,1.24,0,0,0,0-.16,1.44,1.44,0,0,0-.17-.36A1.86,1.86,0,0,0,65.1,12a2.63,2.63,0,0,0-.67-.16,4.8,4.8,0,0,0-.78,0h-.87c-.3,0-.62,0-.94,0a16.14,16.14,0,0,1-2.07-.3,6.46,6.46,0,0,1-1.09-.33,3.61,3.61,0,0,1-1-.6,3.56,3.56,0,0,1-.45-.42,3.66,3.66,0,0,1-.38-.5,6.28,6.28,0,0,1-.61-1.11c-.35-.79-.56-1.59-.81-2.34a9.37,9.37,0,0,0-.92-2.08A4.75,4.75,0,0,0,53,2.67a5.34,5.34,0,0,0-3.1-.83l-.31,0-.29,0-.14,0-.12,0L48.83,2a4.56,4.56,0,0,0-.67.23l-.23.09s.07-.05.21-.13a4.54,4.54,0,0,1,.67-.27l.24-.06.12,0,.14,0,.3,0a2.91,2.91,0,0,1,.32,0,5,5,0,0,1,1.5.11,5.7,5.7,0,0,1,1.7.68A5.13,5.13,0,0,1,54.64,4a9.4,9.4,0,0,1,.94,2.11c.26.76.47,1.56.81,2.32A6.7,6.7,0,0,0,57,9.51a5.45,5.45,0,0,0,.37.47,4,4,0,0,0,.42.4,3.62,3.62,0,0,0,1,.58,8.55,8.55,0,0,0,1.06.32,16.16,16.16,0,0,0,2,.32c.32,0,.64,0,.94.05l.87,0a5.08,5.08,0,0,1,.79.05,3,3,0,0,1,.7.19,1.92,1.92,0,0,1,.87.74,1.11,1.11,0,0,1,.16.38,1.22,1.22,0,0,1,0,.17.71.71,0,0,1,0,.14v.11a.19.19,0,0,1,0,.08S66.18,13.59,66.17,13.59Z"/></g><path class="cls-16" d="M47.76,14.38s.11,0,.23.14l.52.48a8.31,8.31,0,0,0,.78.66,3.41,3.41,0,0,0,.49.31,2.49,2.49,0,0,0,.56.24,1.41,1.41,0,0,0,.57.05,1.5,1.5,0,0,0,.52-.16,2.69,2.69,0,0,0,.77-.59c.2-.21.35-.4.47-.52s.18-.19.21-.17,0,.11-.08.26a3.94,3.94,0,0,1-.37.62,2.68,2.68,0,0,1-.81.74,1.93,1.93,0,0,1-.65.23,1.86,1.86,0,0,1-.74-.05,2.57,2.57,0,0,1-.65-.29,4.45,4.45,0,0,1-.53-.36,5.46,5.46,0,0,1-.76-.77,6,6,0,0,1-.42-.57C47.78,14.49,47.74,14.4,47.76,14.38Z"/><path class="cls-16" d="M60.24,14.38s0,.11-.1.25a6,6,0,0,1-.42.57A5.46,5.46,0,0,1,59,16a4.45,4.45,0,0,1-.53.36,2.74,2.74,0,0,1-.65.29,1.86,1.86,0,0,1-.74.05,1.93,1.93,0,0,1-.65-.23,2.68,2.68,0,0,1-.81-.74,3.29,3.29,0,0,1-.37-.62c-.08-.15-.1-.24-.08-.26s.1,0,.21.17l.46.52a3,3,0,0,0,.77.59,1.57,1.57,0,0,0,.52.16,1.38,1.38,0,0,0,.57-.05,2.38,2.38,0,0,0,.57-.24,3.41,3.41,0,0,0,.49-.31A9.84,9.84,0,0,0,59.5,15l.51-.48C60.14,14.41,60.22,14.36,60.24,14.38Z"/><path class="cls-13" d="M56.17,20.2s-.09.25-.37.54a3.19,3.19,0,0,1-.53.47,2.54,2.54,0,0,1-.81.39,1.89,1.89,0,0,1-.47.06h-.23l-.22,0a2.25,2.25,0,0,1-.66-.3,1.83,1.83,0,0,1-.37-.29c-.08-.08-.12-.13-.1-.16s.08,0,.18,0L53,21a2.93,2.93,0,0,0,.61.19,1.67,1.67,0,0,0,.73,0,2.45,2.45,0,0,0,.7-.31c.21-.12.39-.25.55-.36C55.92,20.3,56.13,20.16,56.17,20.2Z"/><path class="cls-17" d="M52.07,12c0,.11-.27.14-.62.17l-.28,0-.32,0-.71.09-.71.14-.31.08-.27.07c-.34.09-.58.14-.65,0s.06-.32.38-.57a2.11,2.11,0,0,1,.27-.18,2.55,2.55,0,0,1,.33-.17,3.28,3.28,0,0,1,.82-.24,3.62,3.62,0,0,1,.86,0c.13,0,.25,0,.37.06a1.58,1.58,0,0,1,.31.09C51.91,11.68,52.11,11.86,52.07,12Z"/><path class="cls-17" d="M59.7,12.47c-.08.1-.32,0-.65-.08l-.13-.05-.14,0-.31-.1L57.76,12c-.25,0-.49-.08-.72-.11l-.32,0-.14,0h-.14c-.35,0-.6-.06-.63-.18s.17-.29.55-.41l.16,0,.16,0a2.32,2.32,0,0,1,.38,0,3.78,3.78,0,0,1,.87.07,3.24,3.24,0,0,1,.83.28c.12.07.23.12.33.19l.14.1.12.11C59.66,12.15,59.77,12.39,59.7,12.47Z"/><polygon class="cls-18" points="69.19 24.88 68.31 32.8 64.91 33.2 63.34 25.19 69.19 24.88"/><polygon class="cls-19" points="70.3 25.6 63.11 26.1 62.81 25.07 63.89 25.06 63.84 23.8 68.72 24.2 68.95 24.77 70.21 24.78 70.3 25.6"/><path class="cls-20" d="M64.3,24.94a2.87,2.87,0,0,1,.68-.07c.42,0,1-.06,1.64-.08l1.65,0a3.76,3.76,0,0,1,.68,0,5.32,5.32,0,0,1-.68.07c-.42,0-1,.06-1.65.08L65,25A3.76,3.76,0,0,1,64.3,24.94Z"/><polygon class="cls-20" points="64 24.3 64.6 24.34 64.62 24.52 63.98 24.6 64 24.3"/><g class="cls-21"><path class="cls-22" d="M62.31,20.2c0,.05,0,.17-.15.35a1.08,1.08,0,0,0-.26.7.49.49,0,0,0,.06.17l0,0h0l0,0a.52.52,0,0,0,.19,0,2.43,2.43,0,0,0,.33,0,3.2,3.2,0,0,1,.48,0l.15,0,.16,0,.16.07.16.1a.83.83,0,0,1,.24.29.89.89,0,0,1,.13.34,1,1,0,0,1-.13.72,1.13,1.13,0,0,1-.27.3,1.3,1.3,0,0,1-.32.15,1.61,1.61,0,0,1-.54.08l-.39,0-.22.06a.19.19,0,0,0-.1.1.33.33,0,0,0,0,.18.7.7,0,0,0,.17.38,2.06,2.06,0,0,0,.73.36c.21.06.34.11.34.17s-.12.12-.36.15a1.63,1.63,0,0,1-.45,0,1.51,1.51,0,0,1-.61-.22,1.19,1.19,0,0,1-.51-.71,1,1,0,0,1,0-.55.79.79,0,0,1,.13-.28,1.1,1.1,0,0,1,.77-.44,4.28,4.28,0,0,1,.46-.05,1.3,1.3,0,0,0,.33-.06.19.19,0,0,0,.09,0s0,0,0,0a.32.32,0,0,0,0-.15.11.11,0,0,0,0-.08l0-.05h0l0,0h-.45l-.44,0a1,1,0,0,1-.51-.16L61.6,22l-.1-.1a.94.94,0,0,1-.13-.24.88.88,0,0,1-.07-.44,1.15,1.15,0,0,1,.28-.64,1.4,1.4,0,0,1,.35-.29C62.14,20.19,62.27,20.16,62.31,20.2Z"/></g><path class="cls-19" d="M67.53,29.1a.69.69,0,0,1,.41.81.88.88,0,0,1-.52.42,3.05,3.05,0,0,1-1,.21,1.08,1.08,0,0,1-.51-.09.51.51,0,0,1-.31-.39.66.66,0,0,1,.24-.53A2,2,0,0,1,67.19,29,.82.82,0,0,1,67.53,29.1Z"/><path class="cls-20" d="M66.59,30.11c-.17,0-.33-.16-.37-.37a.4.4,0,0,1,.2-.48.24.24,0,0,1,.25.06.47.47,0,0,1,.17.3C66.89,29.87,66.77,30.1,66.59,30.11Z"/><path class="cls-1" d="M69.79,32.14s0-5.51-1.1-5.92-3.84-.35-3.19.24.38,3,1.78,3.43,1.41,2.25,1.41,2.25Z"/><polyline class="cls-23" points="46.48 70.75 68.5 71.23 68.5 75.06 46.48 75.06"/><circle class="cls-24" cx="51.06" cy="102.87" r="1.11"/><path class="cls-24" d="M69.72,102.39a1.12,1.12,0,1,1-1.11-1.12A1.11,1.11,0,0,1,69.72,102.39Z"/><path class="cls-24" d="M58.76,102.71a1.12,1.12,0,1,1-1.11-1.11A1.12,1.12,0,0,1,58.76,102.71Z"/><polygon class="cls-25" points="57 80.38 57.65 100.42 59.77 100.42 59.52 80.7 57 80.38"/><polyline class="cls-25" points="48.6 100.2 48.6 101.76 70.44 101.28 70.44 99.92 48.6 99.92"/><polygon class="cls-26" points="46.48 75.06 46.48 75.5 68.5 75.94 68.5 75.06 46.48 75.06"/><polygon class="cls-26" points="56.08 75.61 56.37 81.82 60.73 82.1 60.73 75.61 56.08 75.61"/><polygon class="cls-26" points="60.73 78.54 61.26 78.54 61.26 77.91 61.72 77.91 61.72 79.42 61.23 79.42 61.23 78.95 60.73 78.95 60.73 78.54"/><path class="cls-2" d="M46.84,29.94s-4.64,1.35-2.22,10,3.3,15.94,5.09,14.9C52.33,53.3,51,38,46.84,29.94Z"/><path class="cls-2" d="M50.41,49.59c0,.13,11,4.47,15.86,7.39l2.17,1.37-2.73.24S50.18,56.52,49.07,54.7,50.41,49.59,50.41,49.59Z"/><polygon class="cls-25" points="15.33 69 99.18 68.07 99.18 70.49 9.81 71.79 9.81 69.18 15.33 69"/><polyline class="cls-25" points="11.11 61.78 15.23 113.4 17.56 113.4 15.34 61.54 12.04 61.78"/><polygon class="cls-25" points="93.03 60.3 95.09 111.91 97.12 111.91 97.13 60.24 93.03 60.3"/><polygon class="cls-25" points="1.61 61.54 1.61 63.28 107.37 61.54 108.2 60.06 1.61 61.54"/><polygon class="cls-27" points="0 57.77 110.47 54.25 110.47 60.03 0 61.78 0 57.77"/><path class="cls-28" d="M92.57,46.27s-6.66-14.91-5.16-13.78,5.16,9.56,5.16,9.56S90.51,29.86,92,30.24s2.53,11.81,2.53,11.81.8-12.1,1.57-11.53S97.17,42.8,97.17,42.8s.65-7.73,1.87-8.18,0,8.84,0,8.84,3.42-8.1,3.89-7.16-3.14,10.16-3.14,10.16Z"/><polygon class="cls-24" points="92.91 54.99 90.29 46.85 101.64 46.43 100.17 54.53 92.91 54.99"/><path class="cls-29" d="M89.72,48.61c.27-.07,12.84-.54,12.84-.54l.37-2.29-13.72.15Z"/></g></g></svg>