<svg xmlns="http://www.w3.org/2000/svg" xmlns:xlink="http://www.w3.org/1999/xlink" viewBox="0 0 110.47 107.06"><defs><style>.cls-1{fill:#383d4f;}.cls-2{fill:#bababa;}.cls-3{fill:#42495e;}.cls-4{fill:#a9aaa9;}.cls-5{fill:#e5b699;}.cls-6{fill:#1a1b1e;}.cls-7{fill:#e8e8e8;}.cls-8{fill:#c38e79;}.cls-16,.cls-9{fill:#995e52;}.cls-9{opacity:0.28;}.cls-10{fill:#222326;}.cls-11{fill:#dbdbdb;}.cls-12{opacity:0.51;}.cls-13{fill:#a08472;}.cls-14{fill:#0e0f11;}.cls-15{fill:#c1ad9f;}.cls-16{opacity:0.22;}.cls-17{fill:#e2ad8f;}.cls-18{fill:#d68772;}.cls-19{fill:#bf846a;}.cls-20{fill:#f5f0e8;}.cls-21{fill:#3a3047;}.cls-22{fill:#fff;}.cls-23{opacity:0.19;}.cls-24{fill:#aa8b71;}.cls-25{fill:#f5f0e1;}.cls-26{fill:#5ebc8d;}.cls-27{fill:#70533a;}.cls-28{fill:#d1d1d1;}.cls-29{fill:#2d323f;}.cls-30{opacity:0.45;fill:url(#Degradado_sin_nombre_11);}.cls-31{fill:#bcbcbc;}</style><linearGradient id="Degradado_sin_nombre_11" x1="-26.21" y1="74.84" x2="51.74" y2="22.35" gradientUnits="userSpaceOnUse"><stop offset="0.02" stop-color="#61c2f2"/><stop offset="0.09" stop-color="#61c2f2"/><stop offset="1" stop-color="#6bbae4" stop-opacity="0"/></linearGradient></defs><title>desk_greetingsРесурс 2</title><g id="Слой_2" data-name="Слой 2"><g id="Objects"><path class="cls-1" d="M60.45,105a1.51,1.51,0,1,1-1.51-1.5A1.51,1.51,0,0,1,60.45,105Z"/><path class="cls-1" d="M84.12,104.37a1.51,1.51,0,1,1-1.51-1.5A1.52,1.52,0,0,1,84.12,104.37Z"/><path class="cls-1" d="M69.33,104.81a1.51,1.51,0,1,1-1.5-1.5A1.51,1.51,0,0,1,69.33,104.81Z"/><polygon class="cls-1" points="51.63 71.6 53.14 77.15 85.65 77.15 86.64 70.94 51.63 71.6"/><polygon class="cls-2" points="67.73 82.8 67.73 101.04 70.79 101.04 70.79 83.19 67.73 82.8"/><polyline class="cls-2" points="55.61 101.43 55.61 103.53 85.09 102.87 85.09 101.04 55.61 101.04"/><path class="cls-3" d="M60.45,71.44s-4.67-44.95-4.84-45.29,34.05-1.44,34.05-1.44L84.12,71.44Z"/><polygon class="cls-4" points="53.68 77.15 53.99 77.83 84.74 78.09 84.74 77.15 53.68 77.15"/><polygon class="cls-4" points="66.5 77.94 66.8 84.33 71.43 84.63 71.43 77.98 66.5 77.94"/><polygon class="cls-4" points="71.43 80.84 71.99 80.84 71.99 80.18 72.48 80.18 72.48 81.78 71.95 81.78 71.95 81.28 71.43 81.28 71.43 80.84"/><path class="cls-5" d="M47.11,30.69l-2.27-3.08a15.19,15.19,0,0,0,.38-2.51c.11-1.48.32-2.5,0-2.18s-.71,2.5-1.24,2.31-3.26-3.8-3.43-3.53,1.79,2.76,1.82,3.13-1.89-2.37-1.94-2,1.62,2.57,1.66,2.83-2-2.34-2.08-1.89,1.69,2,1.82,2.47-1.9-1.74-2-1.3,2.17,2.54,3.07,3.37a19.41,19.41,0,0,1,2.27,3.16Z"/><path class="cls-6" d="M72.75,31.44A57.82,57.82,0,0,1,64,35.9c-4.82,2-12.6,5.73-14.82,2.72a76.54,76.54,0,0,1-5-8.48l2.08-.82a67.08,67.08,0,0,0,6.78,5.47S70.12,27.65,72.75,31.44Z"/><path class="cls-7" d="M79.32,29.9s-5.37-1.84-8.53-.09L64.76,42l-.35,8.8,1.46,13.89s8.3,3,9.71-5.23c0,0-2.77-10.22-1-13.54s6.87-12.07,6.87-12.07Z"/><path class="cls-8" d="M76,25.38l-.13,3.7a.7.7,0,0,1-.66.67l-2.76.14V25Z"/><path class="cls-9" d="M76,25.38v.92s-1.39.85-3.55-.46l-.09-1Z"/><path class="cls-10" d="M83,31v7.78S75,48,77.56,53.86l3.74,5.33S76.55,67.4,73,66.68c0,0-5.62-15.12-2.16-23.26A56.56,56.56,0,0,1,79,29.81Z"/><path class="cls-10" d="M70.79,29.81,67.48,31s-6.34,11.28-4.61,17.3l-.18,19.1s4.06,1,4-2.84-2.52-20.17-1.36-22.33S70.79,29.81,70.79,29.81Z"/><polygon class="cls-8" points="73.34 30.63 71.63 33.71 72.92 30.63 72.92 28.91 74.16 28.5 73.34 30.63"/><path class="cls-11" d="M75.9,27.47a2.31,2.31,0,0,1-.44,1.33,2.88,2.88,0,0,1-2.12.54v1.29s2.42.08,2.52-1.44Z"/><path class="cls-11" d="M72.92,29.4v1.23a1.75,1.75,0,0,1-.73-1.35v-.74a1,1,0,0,1,.24-.67h0S72.19,29.12,72.92,29.4Z"/><g class="cls-12"><path class="cls-13" d="M69.09,65.2a1.43,1.43,0,0,1-.06-.32c0-.21-.06-.53-.11-.93-.1-.81-.23-2-.39-3.42s-.32-3.17-.48-5.09c0-.47-.08-1-.12-1.47s-.07-1-.09-1.54c0-.26,0-.52,0-.79s0-.53,0-.8,0-.54,0-.82,0-.55,0-.83v-.41c0-.14,0-.28,0-.41s0-.28,0-.42,0-.27,0-.4,0-.54.07-.81,0-.53.08-.79c.13-1,.3-2,.49-3a35.43,35.43,0,0,1,1.4-4.92,32.21,32.21,0,0,1,1.34-3.17c.18-.37.33-.64.43-.83a2.18,2.18,0,0,1,.16-.29,1.64,1.64,0,0,1-.12.3c-.09.2-.23.48-.39.86-.34.73-.8,1.81-1.28,3.18A37.19,37.19,0,0,0,68.63,43c-.18.94-.35,1.93-.47,3A27.94,27.94,0,0,0,68,49.2c0,.27,0,.55,0,.82s0,.54,0,.81l0,.8c0,.27,0,.53,0,.79,0,.53.07,1,.09,1.54s.08,1,.11,1.47c.15,1.91.31,3.64.44,5.08s.24,2.62.32,3.43c0,.4.06.72.08.93A2,2,0,0,1,69.09,65.2Z"/></g><path class="cls-5" d="M74.05,50.66s-3.33.6-5.43-.29c0,0-2.71-2.89-2.84-2.6s1.75,2.81,1.55,2.74-6.23.64-5.77,1.1c0,0,6,.32,7.89.4a22.67,22.67,0,0,0,4.26,0Z"/><polygon class="cls-7" points="73.61 50.5 72.4 50.5 72.16 52.13 73.82 52.18 73.61 50.5"/><path class="cls-6" d="M82,30.71a3.14,3.14,0,0,1,2.88,2.88c.28,2.74,2.16,21.9-1.44,22s-9.94-3.17-9.94-3.17V50.3l6.06-.43S77.85,31.29,82,30.71Z"/><polygon class="cls-6" points="76.67 56.38 77.61 57.48 74.05 60.84 73.53 59.57 76.67 56.38"/><polygon class="cls-5" points="58.68 97.64 59.12 100.7 58.03 101.07 57.4 98.07 58.68 97.64"/><path class="cls-6" d="M59.12,100.7l-1.15.08s-3.69,1.61-3.2,1.82,4.56-1.64,4.38-1.84S59.12,100.7,59.12,100.7Z"/><path class="cls-14" d="M63.23,64S43.73,69,45,72.28C47.3,78.09,57.44,99,57.44,99l1.5-.48s-2.37-25-7.31-24l13.22-3.65Z"/><polygon class="cls-5" points="65.47 97.64 65.92 100.7 64.82 101.07 64.19 98.07 65.47 97.64"/><path class="cls-6" d="M65.92,100.7l-1.16.08s-3.68,1.61-3.2,1.82,4.56-1.64,4.38-1.84S65.92,100.7,65.92,100.7Z"/><path class="cls-6" d="M80.52,60.61s4,2.76,2.65,10.83l-18.32.84C68.32,78.39,67,87.92,65.92,99l-1.51.24s-7.8-31.79-7-32.17C61.22,65.4,80.52,60.61,80.52,60.61Z"/><path class="cls-15" d="M69.05,8.22s-3.49-6,1.12-7.7,7.2,5.37,12,6.13,5.18,4.56,3,9.92S84,20.93,82.94,21.94s-6.51,3.79-13.59,1.58-7.45-14.16-5-17.44S69.05,8.22,69.05,8.22Z"/><path class="cls-13" d="M67.52,22.75s-.06,0-.14-.09a3.33,3.33,0,0,1-.37-.31l-.25-.24c-.09-.09-.19-.19-.28-.3a8.29,8.29,0,0,1-.62-.8,9.18,9.18,0,0,1-1.13-2.37,9.94,9.94,0,0,1-.35-1.52,12.58,12.58,0,0,1,0-3.32,13.53,13.53,0,0,1,.26-1.53,7.54,7.54,0,0,1,.46-1.34,3.63,3.63,0,0,1,.66-1,1.6,1.6,0,0,1,.88-.52,1.33,1.33,0,0,1,.77.09,1.07,1.07,0,0,1,.38.32.48.48,0,0,1,0,.11l0,0s0,0,0,0,0-.06-.08-.1a.88.88,0,0,0-.37-.26,1.21,1.21,0,0,0-.72,0,1.44,1.44,0,0,0-.79.5,3.57,3.57,0,0,0-.61,1,8,8,0,0,0-.43,1.31,13.59,13.59,0,0,0-.25,1.51,14.65,14.65,0,0,0-.08,1.64,12.23,12.23,0,0,0,.13,1.63,9.31,9.31,0,0,0,.33,1.49A9.47,9.47,0,0,0,66,20.92a8.56,8.56,0,0,0,.59.81c.09.12.18.22.26.31l.24.25.33.34A1.06,1.06,0,0,1,67.52,22.75Z"/><path class="cls-16" d="M69.46,8.46S64.71,3.23,64,14.9a9.16,9.16,0,0,0,2.42,6.81A7.56,7.56,0,0,0,71,24.16Z"/><path class="cls-13" d="M69.61,2.25s0,0,0,.06l-.12.13A2.41,2.41,0,0,0,69.1,3a3.06,3.06,0,0,0-.27.91A3.33,3.33,0,0,0,68.91,5a5.89,5.89,0,0,0,.38,1.12c.15.33.3.63.43.87a3.56,3.56,0,0,0,.35.55c.09.12.15.18.14.19s-.09,0-.2-.14a2.27,2.27,0,0,1-.42-.52c-.15-.25-.31-.53-.48-.87a6,6,0,0,1-.41-1.15,3.25,3.25,0,0,1-.06-1.23,2.92,2.92,0,0,1,.32-1,1.87,1.87,0,0,1,.44-.52l.15-.11S69.6,2.24,69.61,2.25Z"/><path class="cls-13" d="M83.87,20a1.07,1.07,0,0,1,.08-.28,3.54,3.54,0,0,0,.18-.76,4.16,4.16,0,0,0,0-1.15,4.5,4.5,0,0,0-.16-.66c-.08-.22-.17-.44-.28-.67a7.1,7.1,0,0,0-.78-1.18c-.28-.34-.56-.62-.8-.86a8.45,8.45,0,0,1-.78-.75,3.64,3.64,0,0,1,.88.65,7.37,7.37,0,0,1,.85.84,6,6,0,0,1,.82,1.21,6.91,6.91,0,0,1,.29.7,6.77,6.77,0,0,1,.16.69,3.64,3.64,0,0,1,0,1.2,2.7,2.7,0,0,1-.24.77C84,19.91,83.88,20,83.87,20Z"/><path class="cls-13" d="M80.71,23.2a4.39,4.39,0,0,1,.38-.63,2.81,2.81,0,0,0,.19-.31c.07-.11.13-.24.2-.37a7.11,7.11,0,0,0,.37-.87,7.75,7.75,0,0,0,.27-.92c0-.14.06-.28.07-.41l0-.18,0-.18a4.84,4.84,0,0,1,.08-.72,1.66,1.66,0,0,1,.06.73v.18a1.36,1.36,0,0,0,0,.2c0,.13,0,.27-.06.42a6.48,6.48,0,0,1-.26.95,5.66,5.66,0,0,1-.4.89,4,4,0,0,1-.22.37c-.07.12-.15.22-.21.31A2.27,2.27,0,0,1,80.71,23.2Z"/><path class="cls-13" d="M64.19,18.54a3.3,3.3,0,0,1-.28-.54l0-.07,0-.08-.06-.16-.14-.37c0-.13-.08-.28-.13-.43s0-.16-.07-.24l-.06-.25-.06-.27a2.33,2.33,0,0,1,0-.28q0-.28-.09-.6c0-.21,0-.43,0-.65s0-.45,0-.69a10.44,10.44,0,0,1,.53-3,10,10,0,0,1,1.41-2.72,4.65,4.65,0,0,1,.45-.53,2.1,2.1,0,0,1,.54-.4,2.76,2.76,0,0,1,.61-.16,2.15,2.15,0,0,1,.57,0,3.11,3.11,0,0,1,.92.3,5,5,0,0,1,.62.38,2.69,2.69,0,0,1,.48.39,3.39,3.39,0,0,1-.52-.32c-.17-.1-.38-.22-.63-.34a2.49,2.49,0,0,0-1.42-.27,1.27,1.27,0,0,0-.28.06l-.27.1a2.57,2.57,0,0,0-.91.89A9.59,9.59,0,0,0,63.86,11a10,10,0,0,0-.53,2.95c0,.23,0,.46,0,.67s0,.44,0,.64,0,.4.07.59a2.33,2.33,0,0,0,0,.28,2.56,2.56,0,0,0,.05.27,2.21,2.21,0,0,0,0,.25l.06.23c0,.16.07.3.11.44a3.16,3.16,0,0,1,.12.37l.06.16s0,.05,0,.08L64,18A3.67,3.67,0,0,1,64.19,18.54Z"/><path class="cls-16" d="M81.29,13.86S85,16.7,82,22.57l-1.36.66a5.46,5.46,0,0,1-1,.36l-1.8.45S82.46,16.31,81.29,13.86Z"/><path class="cls-17" d="M67.34,15.23s-1.91-.76-2.06,1.17c-.21,2.65,2,2.63,2,2.63Z"/><path class="cls-18" d="M65.75,16.19s0,0,0-.1A.43.43,0,0,1,66,15.9a.73.73,0,0,1,.43-.05.89.89,0,0,1,.46.26,1.54,1.54,0,0,1,.29.41,1.9,1.9,0,0,1,.13.38c0,.23,0,.38,0,.38s0-.14-.13-.33a3.26,3.26,0,0,0-.16-.34,1.73,1.73,0,0,0-.27-.35.85.85,0,0,0-.35-.22.77.77,0,0,0-.34,0C65.86,16.09,65.78,16.21,65.75,16.19Z"/><path class="cls-18" d="M67,17.69s0,0,0,.11a.4.4,0,0,1-.3.11.56.56,0,0,1-.41-.23,1.14,1.14,0,0,1-.22-.5,1.13,1.13,0,0,1,0-.55.58.58,0,0,1,.28-.36.38.38,0,0,1,.32,0c.07,0,.09.06.08.08h-.1a.37.37,0,0,0-.22.08.52.52,0,0,0-.18.29,1.17,1.17,0,0,0,0,.46,1.06,1.06,0,0,0,.17.42.38.38,0,0,0,.27.19.31.31,0,0,0,.22,0S67,17.68,67,17.69Z"/><path class="cls-17" d="M81.29,15.23s1.91-.76,2.06,1.17c.2,2.65-2,2.63-2,2.63Z"/><path class="cls-18" d="M82.87,16.19s-.1-.1-.29-.15a.78.78,0,0,0-.34,0,.82.82,0,0,0-.36.22,2.11,2.11,0,0,0-.26.35,3.57,3.57,0,0,0-.17.34c-.08.19-.1.33-.13.33s-.06-.15,0-.38a1.49,1.49,0,0,1,.14-.38,1.34,1.34,0,0,1,.29-.41.89.89,0,0,1,.46-.26.76.76,0,0,1,.43.05.53.53,0,0,1,.22.19C82.88,16.15,82.88,16.19,82.87,16.19Z"/><path class="cls-18" d="M81.61,17.69s0,0,.09,0a.32.32,0,0,0,.23,0,.43.43,0,0,0,.27-.19.92.92,0,0,0,.16-.42,1,1,0,0,0,0-.46.51.51,0,0,0-.17-.29.4.4,0,0,0-.22-.08h-.11s0-.05.09-.08a.35.35,0,0,1,.31,0,.59.59,0,0,1,.29.36,1.26,1.26,0,0,1,0,.55,1,1,0,0,1-.22.5.55.55,0,0,1-.41.23.37.37,0,0,1-.29-.11C81.6,17.74,81.6,17.69,81.61,17.69Z"/><path class="cls-5" d="M74.53,6.82a6.34,6.34,0,0,0-7.33,5.9c-.17,3-.14,6.81.92,8.52,1.88,3,5.33,5,6.82,4.6s6.6-3.62,6.56-7.24-.21-8.69-.21-8.69A16.45,16.45,0,0,0,74.53,6.82Z"/><path class="cls-19" d="M75.84,16.32s-.44-2.86,1.34-3.24c1.45-.32,3.15,1.22,3.15,1.22S76.1,11.94,75.84,16.32Z"/><path class="cls-20" d="M75.89,16.57s-.42-4.18,4.27-2.16A11,11,0,0,1,75.89,16.57Z"/><path class="cls-21" d="M80.51,14.37s-.1,0-.27,0l-.68-.17a7.76,7.76,0,0,0-1-.19A3.76,3.76,0,0,0,78,14a2.4,2.4,0,0,0-.6.07,1.34,1.34,0,0,0-.53.23,1.7,1.7,0,0,0-.37.39,2.85,2.85,0,0,0-.38.9c-.07.28-.11.51-.15.68s-.07.25-.1.25,0-.1-.07-.27a3.87,3.87,0,0,1,0-.72,2.56,2.56,0,0,1,.34-1.05,1.94,1.94,0,0,1,.45-.51,1.69,1.69,0,0,1,.68-.31,2.89,2.89,0,0,1,.7-.08,4.46,4.46,0,0,1,.65.07,5.36,5.36,0,0,1,1,.29,6.48,6.48,0,0,1,.65.29C80.45,14.28,80.52,14.34,80.51,14.37Z"/><path class="cls-21" d="M76.23,14.68s.53,1.74,1.73,1.13.6-2.05.6-2.05S76.63,13.59,76.23,14.68Z"/><path class="cls-22" d="M79.18,14.46c0,.12-.26.25-.62.31s-.66,0-.68-.11.26-.25.62-.31S79.16,14.35,79.18,14.46Z"/><path class="cls-19" d="M72,16.67s.23-2.89-1.57-3.14C69,13.32,67.41,15,67.41,15S71.46,12.32,72,16.67Z"/><path class="cls-20" d="M72,16.92s.12-4.2-4.41-1.85A10.93,10.93,0,0,0,72,16.92Z"/><path class="cls-21" d="M67.23,15.05s.06-.09.21-.18a6,6,0,0,1,.62-.34,6.46,6.46,0,0,1,1-.36,4.06,4.06,0,0,1,.64-.11,2.85,2.85,0,0,1,.71,0,1.72,1.72,0,0,1,.69.27,1.87,1.87,0,0,1,.49.48,2.6,2.6,0,0,1,.42,1,3.64,3.64,0,0,1,.07.72c0,.17,0,.26,0,.27s-.07-.09-.12-.25-.11-.39-.2-.66a2.86,2.86,0,0,0-.44-.87,1.76,1.76,0,0,0-.4-.37,1.58,1.58,0,0,0-.54-.19,2.5,2.5,0,0,0-.61,0,3.53,3.53,0,0,0-.58.08,7.78,7.78,0,0,0-1,.26c-.28.09-.51.17-.67.21S67.25,15.08,67.23,15.05Z"/><path class="cls-21" d="M71.53,15.06s-.41,1.77-1.64,1.25-.75-2-.75-2S71.05,14,71.53,15.06Z"/><path class="cls-22" d="M70.69,15.52c.08-.09.36,0,.64.26s.45.49.37.58-.36,0-.64-.26S70.62,15.61,70.69,15.52Z"/><path class="cls-18" d="M74.4,19.82s-.18.07-.5,0a3.12,3.12,0,0,1-1.25-.45l-.21-.13.21-.15a5.72,5.72,0,0,0,.85-.75,3.11,3.11,0,0,0,.39-.49,1.17,1.17,0,0,0,.19-.56,5.67,5.67,0,0,0,0-.82c0-.27,0-.54-.09-.79-.07-.5-.17-1-.25-1.32a5,5,0,0,1-.26-1.23A3,3,0,0,1,74,14.31a9.62,9.62,0,0,1,.34,1.34c0,.25.09.53.12.81s0,.28,0,.43a3.68,3.68,0,0,1,0,.47,1.44,1.44,0,0,1-.09.4,1.42,1.42,0,0,1-.17.35,4.15,4.15,0,0,1-.45.54,5.19,5.19,0,0,1-1,.75v-.28a3.9,3.9,0,0,0,1.1.54C74.23,19.75,74.4,19.79,74.4,19.82Z"/><g class="cls-23"><path class="cls-18" d="M80.87,17.41a1.14,1.14,0,0,1-.56,1,4.07,4.07,0,0,1-1.54.7,4.12,4.12,0,0,1-1.69.08,1.19,1.19,0,0,1-1-.62,1.05,1.05,0,0,1,.41-1.08A3.93,3.93,0,0,1,80,16.63C80.52,16.78,80.84,17.06,80.87,17.41Z"/></g><g class="cls-23"><path class="cls-18" d="M72.18,18.74a1.17,1.17,0,0,1-.93.64,4.06,4.06,0,0,1-1.69,0A4,4,0,0,1,68,18.69a1.16,1.16,0,0,1-.59-1c0-.35.34-.64.83-.81a3.62,3.62,0,0,1,1.84-.05,3.67,3.67,0,0,1,1.67.79A1.08,1.08,0,0,1,72.18,18.74Z"/></g><path class="cls-24" d="M80.08,12.88c-.06.11-.33.09-.73,0l-.69-.15-.84-.19L77,12.37l-.69-.15c-.4-.09-.66-.19-.66-.3s.26-.24.69-.29a4.45,4.45,0,0,1,.76,0,6.55,6.55,0,0,1,.92.13,5.47,5.47,0,0,1,.89.27,3.9,3.9,0,0,1,.68.34C79.94,12.57,80.13,12.78,80.08,12.88Z"/><path class="cls-16" d="M67.86,3.12s3-1.4,4.14,1.52c1.2,3.13,6.33,9.82,12.17,8.87,0,0-10.41-13.76-15.8-11.26l-.32.19"/><path class="cls-25" d="M67.92,2.84c0,.19,3-2.66,5.28,2.44s7.26,8.18,10.68,8.21c2.68,0,1,3.76,1,3.76s4.82-9.34-1.82-10.42c-6.48-1-7.8-8.26-13.08-6.58A4.27,4.27,0,0,0,67.92,2.84Z"/><g class="cls-12"><path class="cls-13" d="M86.63,9.9l-.19.12a5.19,5.19,0,0,1-.61.29,6.69,6.69,0,0,1-1,.32,6.35,6.35,0,0,1-1.4.18,6.6,6.6,0,0,1-1.72-.17,7.15,7.15,0,0,1-1.84-.72,7,7,0,0,1-1.72-1.35,9.89,9.89,0,0,1-1.34-1.93c-.39-.7-.73-1.4-1.09-2a10,10,0,0,0-1.22-1.76,5.13,5.13,0,0,0-.72-.68L73.56,2a1.37,1.37,0,0,0-.2-.13,2.56,2.56,0,0,0-.4-.22,4.8,4.8,0,0,0-1.6-.46A5.23,5.23,0,0,0,70,1.25a4.37,4.37,0,0,0-1,.29l-.18.08a.6.6,0,0,0-.16.08l-.14.06-.11.07-.21.11s.06-.06.18-.15l.11-.07.13-.08.16-.09.19-.09a4.87,4.87,0,0,1,2.44-.41A4.9,4.9,0,0,1,73,1.5a3.42,3.42,0,0,1,.42.23l.21.13.2.14a7,7,0,0,1,.75.7,9.83,9.83,0,0,1,1.25,1.79c.37.66.71,1.36,1.1,2.05a9.87,9.87,0,0,0,1.3,1.89,7.09,7.09,0,0,0,1.66,1.32,7.22,7.22,0,0,0,1.79.72,6.74,6.74,0,0,0,1.67.19,7.09,7.09,0,0,0,1.39-.14,9,9,0,0,0,1-.28C86.34,10,86.62,9.88,86.63,9.9Z"/></g><g class="cls-12"><path class="cls-13" d="M86.33,13.59s0,0,0-.07v-.18s0-.08,0-.13,0-.1,0-.16a1.21,1.21,0,0,0-.18-.36,1.83,1.83,0,0,0-.84-.67,2.74,2.74,0,0,0-.67-.16,5,5,0,0,0-.78,0h-.87c-.31,0-.62,0-1-.05a16.4,16.4,0,0,1-2.07-.3,6.46,6.46,0,0,1-1.09-.33,3.9,3.9,0,0,1-1-.6,4.4,4.4,0,0,1-.45-.42c-.13-.16-.26-.32-.38-.5a6.28,6.28,0,0,1-.61-1.11c-.34-.78-.56-1.59-.81-2.34a8.91,8.91,0,0,0-.91-2.08,5,5,0,0,0-1.44-1.42A5.59,5.59,0,0,0,71.55,2a5.53,5.53,0,0,0-1.46-.14l-.32,0-.29,0-.13,0-.13,0L69,2a5.21,5.21,0,0,0-.66.23l-.24.09a1,1,0,0,1,.22-.13A3.93,3.93,0,0,1,69,1.93l.24-.06.13,0,.14,0,.29-.05a3.16,3.16,0,0,1,.32,0,5,5,0,0,1,1.5.11,5.36,5.36,0,0,1,1.7.68A4.91,4.91,0,0,1,74.79,4a9.18,9.18,0,0,1,.95,2.11c.25.76.47,1.56.8,2.32a6.21,6.21,0,0,0,.59,1.08,4.37,4.37,0,0,0,.37.48,4,4,0,0,0,.42.4,3.67,3.67,0,0,0,1,.58,6.48,6.48,0,0,0,1.06.32,15.89,15.89,0,0,0,2,.32c.32,0,.63,0,.93.05l.87,0a5.13,5.13,0,0,1,.8.05,2.91,2.91,0,0,1,.69.19,1.86,1.86,0,0,1,.87.74,1.54,1.54,0,0,1,.17.38,1.22,1.22,0,0,1,0,.17v.14a.37.37,0,0,1,0,.11s0,.06,0,.08A.32.32,0,0,1,86.33,13.59Z"/></g><path class="cls-24" d="M71.19,12.18c0,.12-.22.21-.55.32l-.56.17c-.21.07-.44.14-.67.23l-.66.26-.54.24c-.31.13-.54.21-.62.12s0-.32.27-.6a2.44,2.44,0,0,1,.23-.22,1.69,1.69,0,0,1,.29-.22,3.56,3.56,0,0,1,.73-.37,3.19,3.19,0,0,1,.81-.2,2.17,2.17,0,0,1,.36,0,1.55,1.55,0,0,1,.31,0C71,12,71.2,12.07,71.19,12.18Z"/><path class="cls-18" d="M77.51,18.94s.07,0,.1.17a1.28,1.28,0,0,1,0,.49,2.66,2.66,0,0,1-.3.65,3.66,3.66,0,0,1-.54.68,3.48,3.48,0,0,1-1.34.82c-.38.12-.63.11-.65.06s.21-.16.54-.34a5.49,5.49,0,0,0,1.15-.84A6.67,6.67,0,0,0,77,20a4.59,4.59,0,0,0,.34-.54C77.46,19.18,77.45,19,77.51,18.94Z"/><path class="cls-26" d="M94.31,39.78S87.65,24.87,89.15,26s5.16,9.57,5.16,9.57-2.06-12.2-.56-11.82,2.53,11.82,2.53,11.82.8-12.1,1.57-11.54S98.9,36.32,98.9,36.32s.66-7.74,1.88-8.19,0,8.84,0,8.84,3.41-8.09,3.88-7.15S101.53,40,101.53,40Z"/><polygon class="cls-2" points="15.33 62.65 99.18 61.72 99.18 64.14 9.8 65.44 9.8 62.83 15.33 62.65"/><polyline class="cls-2" points="11.11 55.44 15.23 107.06 17.56 107.06 15.34 55.19 12.04 55.44"/><polygon class="cls-2" points="93.03 53.96 95.08 105.56 97.12 105.56 97.13 53.89 93.03 53.96"/><polygon class="cls-2" points="1.61 55.19 1.61 56.93 107.37 55.19 108.2 53.71 1.61 55.19"/><polygon class="cls-27" points="0 51.42 110.47 47.9 110.47 53.68 0 55.44 0 51.42"/><polygon class="cls-28" points="37.43 50.23 38.02 49.61 57.31 49.11 58.06 49.67 37.43 50.23"/><polygon class="cls-1" points="94.65 48.5 92.03 40.36 103.37 39.94 101.91 48.04 94.65 48.5"/><path class="cls-29" d="M91.46,42.12c.27-.06,12.84-.54,12.84-.54l.36-2.29L91,39.44Z"/><polygon class="cls-30" points="2.81 24.44 35.19 3.67 74.2 1.37 68.85 41.69 36.49 47.18 6.85 46.73 2.81 24.44"/><path class="cls-28" d="M2.8,25.24,4.74,45.85a1.65,1.65,0,0,0,1.65,1.51H36a1.66,1.66,0,0,0,1.66-1.66V23.59a1.65,1.65,0,0,0-1.74-1.65L4.37,23.43A1.65,1.65,0,0,0,2.8,25.24Z"/><path class="cls-31" d="M18.69,42.62s-1.32,7.87.21,8.26l5.82-.19s-2.21-6-1.4-8.51Z"/><path class="cls-7" d="M21.65,37.44a1.8,1.8,0,1,1,0-2.55A1.8,1.8,0,0,1,21.65,37.44Z"/></g></g></svg>