<svg xmlns="http://www.w3.org/2000/svg" xmlns:xlink="http://www.w3.org/1999/xlink" viewBox="0 0 110.47 108.35"><defs><style>.cls-1{fill:#383d4f;}.cls-2{fill:#bababa;}.cls-3{fill:#42495e;}.cls-4{fill:#a9aaa9;}.cls-5{fill:#e5b699;}.cls-6{fill:#1a1b1e;}.cls-7{fill:#e8e8e8;}.cls-8{fill:#c38e79;}.cls-15,.cls-9{fill:#995e52;}.cls-9{opacity:0.28;}.cls-10{fill:#222326;}.cls-11{fill:#dbdbdb;}.cls-12{opacity:0.51;}.cls-13{fill:#a08472;}.cls-14{fill:#c1ad9f;}.cls-15{opacity:0.22;}.cls-16{fill:#e2ad8f;}.cls-17{fill:#d68772;}.cls-18{opacity:0.67;fill:url(#Degradado_sin_nombre_21);}.cls-19{fill:#bf846a;}.cls-20{fill:#f5f0e8;}.cls-21{fill:#3a3047;}.cls-22{opacity:0.19;}.cls-23{fill:#aa8b71;}.cls-24{fill:#f5f0e1;}.cls-25{fill:#7f443d;}.cls-26{fill:#a1263f;}.cls-27{fill:#0e0f11;}.cls-28{opacity:0.45;fill:url(#Degradado_sin_nombre_11);}.cls-29{fill:#5ebc8d;}.cls-30{fill:#70533a;}.cls-31{fill:#d1d1d1;}.cls-32{fill:#bcbcbc;}.cls-33{fill:#2d323f;}.cls-34{fill:#ffc729;}.cls-35{fill:#2a2c3f;}.cls-36{fill:#e0892b;}</style><linearGradient id="Degradado_sin_nombre_21" x1="62.74" y1="4.33" x2="63.69" y2="14.56" gradientUnits="userSpaceOnUse"><stop offset="0.09" stop-color="#61c2f2"/><stop offset="1" stop-color="#6bbae4" stop-opacity="0"/></linearGradient><linearGradient id="Degradado_sin_nombre_11" x1="-21.95" y1="75.94" x2="56" y2="23.45" gradientUnits="userSpaceOnUse"><stop offset="0.02" stop-color="#61c2f2"/><stop offset="0.09" stop-color="#61c2f2"/><stop offset="1" stop-color="#6bbae4" stop-opacity="0"/></linearGradient></defs><title>desk_fearРесурс 3</title><g id="Слой_2" data-name="Слой 2"><g id="Objects"><path class="cls-1" d="M50.24,105a1.5,1.5,0,1,1-1.5-1.5A1.51,1.51,0,0,1,50.24,105Z"/><path class="cls-1" d="M73.91,104.33a1.5,1.5,0,1,1-1.5-1.5A1.5,1.5,0,0,1,73.91,104.33Z"/><path class="cls-1" d="M59.12,104.77a1.5,1.5,0,1,1-1.5-1.5A1.5,1.5,0,0,1,59.12,104.77Z"/><polygon class="cls-1" points="41.43 71.55 42.94 77.11 75.45 77.11 76.44 70.9 41.43 71.55"/><polygon class="cls-2" points="57.53 82.76 57.53 100.99 60.58 100.99 60.58 83.14 57.53 82.76"/><polyline class="cls-2" points="45.41 101.38 45.41 103.48 74.89 102.83 74.89 100.99 45.41 100.99"/><path class="cls-3" d="M50.24,71.39S45.57,26.44,45.41,26.1s34.05-1.44,34.05-1.44L73.91,71.39Z"/><polygon class="cls-4" points="43.48 77.11 43.79 77.78 74.54 78.04 74.54 77.11 43.48 77.11"/><polygon class="cls-4" points="56.3 77.89 56.6 84.28 61.22 84.58 61.22 77.93 56.3 77.89"/><polygon class="cls-4" points="61.22 80.8 61.79 80.8 61.79 80.13 62.28 80.13 62.28 81.73 61.75 81.73 61.75 81.23 61.22 81.23 61.22 80.8"/><path class="cls-5" d="M42.12,50.84H38.29A15.14,15.14,0,0,0,36.51,49c-1.13-1-1.83-1.74-1.75-1.32s1.59,2.06,1.13,2.37-5,.36-4.88.66,3.29.2,3.6.39-3,.11-2.8.35,3,.23,3.26.35-3.1.25-2.75.55,2.6-.18,3.06,0-2.52.49-2.21.81,3.34-.24,4.54-.47a19.49,19.49,0,0,1,3.89.05Z"/><path class="cls-6" d="M58,30.67a58.63,58.63,0,0,1-1.58,9.65c-1.3,5-2.88,13.54-6.63,13.54a77.45,77.45,0,0,1-9.79-1l.57-2.16A66.82,66.82,0,0,0,49,48.48S53.35,30.52,58,30.67Z"/><path class="cls-7" d="M69.11,29.85s-5.36-1.84-8.52-.09l-6,12.16-.36,8.81,1.46,13.89s8.31,3,9.72-5.24c0,0-2.77-10.21-1-13.53s6.87-12.08,6.87-12.08Z"/><path class="cls-8" d="M65.77,25.33,65.64,29a.69.69,0,0,1-.66.67l-2.75.14V25Z"/><path class="cls-9" d="M65.77,25.33v.92s-1.38.85-3.54-.46l-.09-1Z"/><path class="cls-10" d="M72.83,30.91v7.78s-8.07,9.22-5.47,15.12l3.74,5.33s-4.75,8.21-8.35,7.49c0,0-5.62-15.12-2.16-23.26A56.19,56.19,0,0,1,68.8,29.76Z"/><path class="cls-10" d="M60.59,29.76l-3.32,1.15s-6.33,11.28-4.61,17.31l-.17,19.1s4,1,4-2.85S54,44.31,55.11,42.15,60.59,29.76,60.59,29.76Z"/><polygon class="cls-8" points="63.14 30.58 61.43 33.67 62.72 30.59 62.72 28.86 63.95 28.45 63.14 30.58"/><path class="cls-11" d="M65.7,27.43a2.25,2.25,0,0,1-.45,1.32,2.87,2.87,0,0,1-2.11.55v1.28s2.41.09,2.52-1.44Z"/><path class="cls-11" d="M62.72,29.36v1.23A1.75,1.75,0,0,1,62,29.23v-.74a1,1,0,0,1,.24-.66h0S62,29.08,62.72,29.36Z"/><g class="cls-12"><path class="cls-13" d="M58.89,65.15a1.43,1.43,0,0,1-.06-.32c0-.21-.07-.53-.11-.93-.1-.81-.23-2-.39-3.42s-.33-3.17-.49-5.08c0-.48-.07-1-.11-1.47s-.07-1-.1-1.54c0-.26,0-.53,0-.79l0-.81c0-.27,0-.54,0-.81s0-.55,0-.83v-.42c0-.14,0-.27,0-.41s0-.28,0-.41,0-.28,0-.41,0-.54.07-.8l.09-.79c.13-1,.3-2,.49-3A35,35,0,0,1,59.64,38,30.26,30.26,0,0,1,61,34.83c.17-.37.32-.64.42-.83a1.45,1.45,0,0,1,.17-.28,2.15,2.15,0,0,1-.13.3c-.08.19-.23.48-.39.85-.33.74-.8,1.82-1.27,3.19A37.44,37.44,0,0,0,58.43,43c-.19.94-.35,1.94-.48,3a25.89,25.89,0,0,0-.2,3.22c0,.27,0,.55,0,.82s0,.55,0,.82l0,.8c0,.26,0,.53,0,.79q0,.78.09,1.53c0,.5.07,1,.11,1.47.15,1.92.3,3.64.44,5.09s.24,2.61.32,3.42c0,.41.06.72.07.94S58.89,65.15,58.89,65.15Z"/></g><path class="cls-5" d="M63.85,50.61s-3.34.6-5.44-.29c0,0-2.7-2.89-2.83-2.6s1.75,2.81,1.55,2.75-6.23.63-5.77,1.09c0,0,6,.32,7.89.4a23.51,23.51,0,0,0,4.25,0Z"/><polygon class="cls-7" points="63.4 50.45 62.2 50.45 61.96 52.09 63.62 52.13 63.4 50.45"/><path class="cls-6" d="M71.82,30.67a3.12,3.12,0,0,1,2.88,2.88c.29,2.73,2.16,21.89-1.44,22s-9.93-3.16-9.93-3.16V50.25l6.06-.43S67.65,31.24,71.82,30.67Z"/><polygon class="cls-6" points="66.46 56.33 67.41 57.44 63.85 60.79 63.33 59.53 66.46 56.33"/><path class="cls-14" d="M58.41,8.22s-3.48-6,1.13-7.7,7.2,5.37,12,6.13,5.18,4.56,3,9.92-1.13,4.36-2.21,5.37-6.51,3.79-13.58,1.58-7.46-14.16-5-17.44S58.41,8.22,58.41,8.22Z"/><path class="cls-13" d="M56.88,22.75s-.05,0-.14-.09a4.62,4.62,0,0,1-.37-.31l-.25-.24-.28-.3c-.19-.23-.4-.49-.61-.8a8.87,8.87,0,0,1-1.13-2.37,9.94,9.94,0,0,1-.35-1.52,11.16,11.16,0,0,1-.13-1.66,14.89,14.89,0,0,1,.08-1.66A13.49,13.49,0,0,1,54,12.27a8.42,8.42,0,0,1,.45-1.34,4.12,4.12,0,0,1,.66-1A1.65,1.65,0,0,1,56,9.37a1.35,1.35,0,0,1,.77.09,1,1,0,0,1,.37.32.41.41,0,0,1,.06.11s0,0,0,0l0,0-.07-.1a.92.92,0,0,0-.38-.26,1.17,1.17,0,0,0-.71,0,1.5,1.5,0,0,0-.8.5,3.82,3.82,0,0,0-.61,1,8,8,0,0,0-.42,1.31,13.59,13.59,0,0,0-.25,1.51,12.6,12.6,0,0,0-.08,1.64A10.78,10.78,0,0,0,54,17.09a10.54,10.54,0,0,0,.33,1.49,9.27,9.27,0,0,0,1.07,2.34c.2.31.4.58.58.81s.19.22.27.31l.23.25.34.34C56.85,22.7,56.89,22.75,56.88,22.75Z"/><path class="cls-15" d="M58.83,8.46S54.08,3.23,53.4,14.9a9.21,9.21,0,0,0,2.43,6.81,7.54,7.54,0,0,0,4.57,2.45Z"/><path class="cls-13" d="M59,2.25s0,0,0,.06l-.12.13a2.39,2.39,0,0,0-.36.53,2.79,2.79,0,0,0-.26.91A3.57,3.57,0,0,0,58.27,5a5.89,5.89,0,0,0,.39,1.12c.14.33.3.63.42.87a4.53,4.53,0,0,0,.35.55c.1.12.16.18.15.19s-.09,0-.21-.14A2.28,2.28,0,0,1,59,7.11a9.45,9.45,0,0,1-.48-.87,5.37,5.37,0,0,1-.41-1.15A3.25,3.25,0,0,1,58,3.86a2.71,2.71,0,0,1,.32-1,2.06,2.06,0,0,1,.43-.52l.15-.11S59,2.24,59,2.25Z"/><path class="cls-13" d="M73.24,20s0-.1.08-.28a3.64,3.64,0,0,0,.17-.76,3.77,3.77,0,0,0,0-1.15,6.29,6.29,0,0,0-.16-.66c-.08-.22-.17-.44-.28-.67a6.55,6.55,0,0,0-.79-1.18,10,10,0,0,0-.79-.86,8.45,8.45,0,0,1-.78-.75,3.64,3.64,0,0,1,.88.65,6.63,6.63,0,0,1,.84.84,5.24,5.24,0,0,1,.82,1.21,4.15,4.15,0,0,1,.29.7,3.79,3.79,0,0,1,.16.69,4,4,0,0,1,0,1.2,3.06,3.06,0,0,1-.24.77C73.31,19.91,73.25,20,73.24,20Z"/><path class="cls-13" d="M70.08,23.2a3.48,3.48,0,0,1,.38-.63l.19-.31c.06-.11.13-.24.19-.37a7.09,7.09,0,0,0,.38-.87,7.62,7.62,0,0,0,.26-.92c0-.14.06-.28.08-.41l0-.18a1.1,1.1,0,0,0,0-.18,4,4,0,0,1,.09-.72,1.87,1.87,0,0,1,.06.73c0,.06,0,.12,0,.18a1.36,1.36,0,0,1,0,.2,3.53,3.53,0,0,1-.06.42,5.36,5.36,0,0,1-.25.95A6.76,6.76,0,0,1,71,22l-.22.37a2.77,2.77,0,0,1-.22.31A2.14,2.14,0,0,1,70.08,23.2Z"/><path class="cls-13" d="M53.56,18.54a2.24,2.24,0,0,1-.29-.54l0-.07,0-.08-.06-.16c0-.11-.09-.23-.14-.37s-.09-.28-.14-.43l-.06-.24a2.27,2.27,0,0,1-.06-.25l-.06-.27a2.33,2.33,0,0,1,0-.28q0-.28-.09-.6c0-.21,0-.43,0-.65v-.69a10.11,10.11,0,0,1,.53-3,9.7,9.7,0,0,1,1.41-2.72,3.82,3.82,0,0,1,.45-.53,2.1,2.1,0,0,1,.54-.4l.3-.11.31,0a2.15,2.15,0,0,1,.57,0,3.11,3.11,0,0,1,.92.3,5.73,5.73,0,0,1,.62.39,3,3,0,0,1,.48.38,3.71,3.71,0,0,1-.53-.32,6.42,6.42,0,0,0-.62-.34,3.46,3.46,0,0,0-.89-.27,3.24,3.24,0,0,0-.54,0l-.27.06a2.15,2.15,0,0,0-.27.1,2.49,2.49,0,0,0-.91.89A9.59,9.59,0,0,0,53.23,11a10.36,10.36,0,0,0-.54,2.95v.67c0,.22,0,.44,0,.64s0,.4.07.59,0,.19,0,.28a2.56,2.56,0,0,1,0,.27c0,.08,0,.17,0,.25s.05.16.06.23.08.3.12.44l.12.37a1,1,0,0,1,0,.16l0,.08,0,.07A5.81,5.81,0,0,1,53.56,18.54Z"/><path class="cls-15" d="M70.66,13.86s3.66,2.84.73,8.71L70,23.23a5.86,5.86,0,0,1-1,.36l-1.8.45S71.83,16.31,70.66,13.86Z"/><path class="cls-16" d="M56.7,15.23s-1.91-.76-2.06,1.17c-.2,2.65,2,2.63,2,2.63Z"/><path class="cls-17" d="M55.12,16.19s0,0,0-.1a.53.53,0,0,1,.22-.19.76.76,0,0,1,.43-.05.89.89,0,0,1,.46.26,1.34,1.34,0,0,1,.29.41,1.49,1.49,0,0,1,.14.38c0,.23,0,.38,0,.38s-.05-.14-.13-.33a3.57,3.57,0,0,0-.17-.34,2.11,2.11,0,0,0-.26-.35.82.82,0,0,0-.36-.22.73.73,0,0,0-.33,0C55.22,16.09,55.15,16.21,55.12,16.19Z"/><path class="cls-17" d="M56.38,17.69s0,0,0,.11a.37.37,0,0,1-.29.11.55.55,0,0,1-.41-.23,1,1,0,0,1-.22-.5,1.26,1.26,0,0,1,0-.55.63.63,0,0,1,.29-.36.35.35,0,0,1,.31,0c.07,0,.1.06.09.08h-.1a.35.35,0,0,0-.22.08.47.47,0,0,0-.18.29,1,1,0,0,0,0,.46.92.92,0,0,0,.16.42.49.49,0,0,0,.27.2.38.38,0,0,0,.23,0C56.34,17.71,56.37,17.68,56.38,17.69Z"/><path class="cls-16" d="M70.65,15.23s1.91-.76,2.06,1.17c.21,2.65-2,2.63-2,2.63Z"/><path class="cls-17" d="M72.24,16.19s-.1-.1-.3-.15a.73.73,0,0,0-.33,0,.82.82,0,0,0-.36.22,1.67,1.67,0,0,0-.26.35,2.14,2.14,0,0,0-.17.34c-.08.19-.1.33-.13.33s-.06-.15,0-.38a1.9,1.9,0,0,1,.13-.38,1.54,1.54,0,0,1,.29-.41,1,1,0,0,1,.46-.26.73.73,0,0,1,.43.05.43.43,0,0,1,.22.19C72.25,16.15,72.25,16.19,72.24,16.19Z"/><path class="cls-17" d="M71,17.69s0,0,.09,0a.38.38,0,0,0,.23,0,.44.44,0,0,0,.26-.2,1.06,1.06,0,0,0,.17-.42,1,1,0,0,0,0-.46.47.47,0,0,0-.18-.29.37.37,0,0,0-.22-.08h-.1s0-.05.09-.08a.35.35,0,0,1,.31,0,.63.63,0,0,1,.29.36,1.26,1.26,0,0,1,0,.55,1,1,0,0,1-.22.5.55.55,0,0,1-.41.23A.36.36,0,0,1,71,17.8C71,17.74,71,17.69,71,17.69Z"/><path class="cls-5" d="M63.89,6.82a6.33,6.33,0,0,0-7.32,5.9c-.17,3-.14,6.81.92,8.52,1.87,3,5.32,5,6.82,4.6s6.6-3.62,6.56-7.24-.21-8.69-.21-8.69A16.45,16.45,0,0,0,63.89,6.82Z"/><path class="cls-18" d="M63.89,6.82a6.33,6.33,0,0,0-7.32,5.9c-.17,3-.14,6.81.92,8.52,1.87,3,5.32,5,6.82,4.6s6.6-3.62,6.56-7.24-.21-8.69-.21-8.69A16.45,16.45,0,0,0,63.89,6.82Z"/><path class="cls-19" d="M61.4,16.67s.24-2.89-1.57-3.14c-1.47-.21-3,1.45-3,1.45S60.83,12.32,61.4,16.67Z"/><path class="cls-20" d="M61.37,16.92s.12-4.2-4.42-1.85A11,11,0,0,0,61.37,16.92Z"/><path class="cls-21" d="M56.6,15.05s.06-.09.2-.18.36-.21.63-.34a6.1,6.1,0,0,1,1-.36,4.06,4.06,0,0,1,.64-.11,2.85,2.85,0,0,1,.71,0,1.72,1.72,0,0,1,.69.27,1.87,1.87,0,0,1,.49.48,2.76,2.76,0,0,1,.42,1,4.61,4.61,0,0,1,.07.72c0,.17,0,.26-.05.27s-.06-.09-.11-.25-.11-.39-.2-.66a2.68,2.68,0,0,0-.45-.87,1.57,1.57,0,0,0-.4-.37,1.44,1.44,0,0,0-.54-.19,2.47,2.47,0,0,0-.61,0,3.68,3.68,0,0,0-.58.08,8.06,8.06,0,0,0-1,.26c-.28.09-.51.17-.67.21S56.61,15.08,56.6,15.05Z"/><path class="cls-21" d="M59.69,15.77a.43.43,0,0,1-.43.43.44.44,0,0,1-.44-.43.44.44,0,0,1,.44-.44A.44.44,0,0,1,59.69,15.77Z"/><path class="cls-17" d="M63.76,19.82s-.18.07-.49,0A3.12,3.12,0,0,1,62,19.4l-.21-.12.21-.16a6.93,6.93,0,0,0,.85-.75,3.11,3.11,0,0,0,.39-.49,1.17,1.17,0,0,0,.19-.56,5.67,5.67,0,0,0,0-.82c0-.27-.06-.54-.09-.79-.08-.5-.17-1-.25-1.32a5.4,5.4,0,0,1-.27-1.23,2.86,2.86,0,0,1,.55,1.15,9.51,9.51,0,0,1,.35,1.34c0,.25.09.53.12.81s0,.28,0,.43,0,.31,0,.47a1.92,1.92,0,0,1-.09.4,1.89,1.89,0,0,1-.17.35,3.53,3.53,0,0,1-.46.54,5.15,5.15,0,0,1-.94.75v-.28a3.78,3.78,0,0,0,1.1.54C63.59,19.75,63.77,19.79,63.76,19.82Z"/><g class="cls-22"><path class="cls-17" d="M70.24,17.41a1.16,1.16,0,0,1-.56,1,4.07,4.07,0,0,1-1.54.7,4.13,4.13,0,0,1-1.69.08,1.16,1.16,0,0,1-1-.62,1.06,1.06,0,0,1,.4-1.08,3.94,3.94,0,0,1,3.49-.84C69.88,16.78,70.2,17.06,70.24,17.41Z"/></g><g class="cls-22"><path class="cls-17" d="M61.55,18.74a1.18,1.18,0,0,1-.94.64,4,4,0,0,1-1.68,0,3.93,3.93,0,0,1-1.56-.65,1.14,1.14,0,0,1-.59-1c0-.35.34-.64.83-.81a3.94,3.94,0,0,1,3.5.74A1.07,1.07,0,0,1,61.55,18.74Z"/></g><path class="cls-23" d="M69.65,12c-.05.1-.33.08-.73,0l-.69-.15-.84-.19-.83-.17-.7-.15c-.4-.1-.65-.2-.66-.31s.26-.23.69-.29a3.73,3.73,0,0,1,.76,0,5.16,5.16,0,0,1,.92.12,5.88,5.88,0,0,1,.89.27,3.9,3.9,0,0,1,.68.34C69.51,11.63,69.7,11.84,69.65,12Z"/><path class="cls-15" d="M57.22,3.12s3-1.4,4.15,1.52c1.19,3.13,6.33,9.82,12.17,8.87,0,0-10.42-13.76-15.8-11.26l-.32.19"/><path class="cls-24" d="M57.29,2.84c-.06.19,3-2.66,5.27,2.44s7.27,8.18,10.69,8.21c2.68,0,1,3.76,1,3.76s4.82-9.34-1.83-10.42c-6.47-1-7.79-8.26-13.08-6.58A4.27,4.27,0,0,0,57.29,2.84Z"/><g class="cls-12"><path class="cls-13" d="M76,9.89a.82.82,0,0,1-.2.13,4.5,4.5,0,0,1-.61.29,6.21,6.21,0,0,1-1,.32,6.45,6.45,0,0,1-1.41.18,6.56,6.56,0,0,1-1.71-.17,7.22,7.22,0,0,1-1.85-.72,7,7,0,0,1-1.71-1.35,9.89,9.89,0,0,1-1.34-1.93c-.39-.7-.73-1.4-1.09-2a10.53,10.53,0,0,0-1.22-1.76,6.54,6.54,0,0,0-.72-.68L62.93,2l-.2-.13a4,4,0,0,0-.4-.22,4.8,4.8,0,0,0-1.6-.46,5.19,5.19,0,0,0-1.39.05,4.37,4.37,0,0,0-1,.29l-.19.08A.8.8,0,0,0,58,1.7l-.14.06-.11.07a1,1,0,0,1-.21.11.86.86,0,0,1,.19-.15l.11-.07L58,1.64l.16-.09.19-.09a4.87,4.87,0,0,1,2.44-.41,5,5,0,0,1,1.67.45,4.36,4.36,0,0,1,.42.23,2.26,2.26,0,0,1,.2.13l.2.14a5.51,5.51,0,0,1,.75.7,9.86,9.86,0,0,1,1.26,1.79c.37.66.71,1.36,1.09,2.05a10.39,10.39,0,0,0,1.31,1.89,7,7,0,0,0,3.45,2,6.74,6.74,0,0,0,1.67.19,7.17,7.17,0,0,0,1.39-.14,8.2,8.2,0,0,0,1-.28C75.71,10,76,9.88,76,9.89Z"/></g><g class="cls-12"><path class="cls-13" d="M75.69,13.59v-.07s0,0,0-.07v-.11s0-.08,0-.13a1.24,1.24,0,0,0,0-.16,1.44,1.44,0,0,0-.17-.36,1.86,1.86,0,0,0-.85-.67,2.63,2.63,0,0,0-.67-.16,4.75,4.75,0,0,0-.77,0H72.3c-.3,0-.62,0-.94-.05a14.84,14.84,0,0,1-2.07-.31,5.62,5.62,0,0,1-1.09-.32,3.75,3.75,0,0,1-1-.6,3.56,3.56,0,0,1-.45-.42,4.7,4.7,0,0,1-.38-.5,6.28,6.28,0,0,1-.61-1.11,24.14,24.14,0,0,1-.81-2.34A9.37,9.37,0,0,0,64,4.09a4.83,4.83,0,0,0-1.43-1.42A5.7,5.7,0,0,0,60.92,2a5.56,5.56,0,0,0-1.47-.14l-.31,0-.29,0-.14,0-.12,0L58.35,2a6.17,6.17,0,0,0-.67.23l-.23.09s.07-.05.21-.13a4.54,4.54,0,0,1,.67-.27l.24-.06.13,0,.13,0,.3-.05a3.16,3.16,0,0,1,.32,0,5,5,0,0,1,1.5.11,5.45,5.45,0,0,1,1.7.68A5,5,0,0,1,64.16,4,9.16,9.16,0,0,1,65.1,6.1c.26.76.47,1.56.81,2.32A6.21,6.21,0,0,0,66.5,9.5a4.37,4.37,0,0,0,.37.48,4,4,0,0,0,.42.4,3.62,3.62,0,0,0,1,.58,7.12,7.12,0,0,0,1.06.32,16.16,16.16,0,0,0,2,.32c.33,0,.64,0,.94.05l.87,0a5.08,5.08,0,0,1,.79.05,3,3,0,0,1,.7.19,1.92,1.92,0,0,1,.87.74,1.19,1.19,0,0,1,.16.38,1.36,1.36,0,0,1,0,.17v.14s0,.08,0,.11a.19.19,0,0,1,0,.08S75.7,13.59,75.69,13.59Z"/></g><path class="cls-23" d="M60.56,11.37c0,.11-.23.21-.55.31l-.57.17-.67.23-.65.26-.54.24c-.32.14-.54.21-.63.12s0-.32.28-.6a2.28,2.28,0,0,1,.22-.22l.29-.22a3.41,3.41,0,0,1,.74-.37,3.74,3.74,0,0,1,.8-.2l.36,0H60C60.34,11.13,60.56,11.25,60.56,11.37Z"/><path class="cls-25" d="M62.11,21.06s2.43-1.55,2.7,1.47-2.13,2.28-2.13,2.28Z"/><path class="cls-20" d="M62.11,21.06l.1.67,2.19-.56S63.72,20.13,62.11,21.06Z"/><path class="cls-26" d="M62.68,24.81s.57-1.83,2.12-1.33C64.8,23.48,64.8,25.26,62.68,24.81Z"/><path class="cls-19" d="M65.2,16.32s-.44-2.86,1.34-3.24C68,12.76,69.7,14.3,69.7,14.3S65.47,11.94,65.2,16.32Z"/><path class="cls-20" d="M65.26,16.57s-.43-4.18,4.27-2.16A11,11,0,0,1,65.26,16.57Z"/><path class="cls-21" d="M69.88,14.37s-.11,0-.27,0l-.69-.17a9.22,9.22,0,0,0-1-.19,3.82,3.82,0,0,0-.59,0,2.54,2.54,0,0,0-.61.07,1.29,1.29,0,0,0-.52.23,1.7,1.7,0,0,0-.37.39,2.89,2.89,0,0,0-.39.9c-.07.28-.11.51-.15.68s-.07.25-.1.25,0-.1-.06-.27a4.72,4.72,0,0,1,0-.72,2.76,2.76,0,0,1,.35-1.05,1.94,1.94,0,0,1,.45-.51,1.65,1.65,0,0,1,.67-.31,3,3,0,0,1,.71-.08,4.18,4.18,0,0,1,.64.07,5.16,5.16,0,0,1,1,.29,4.89,4.89,0,0,1,.65.29C69.81,14.28,69.89,14.34,69.88,14.37Z"/><path class="cls-21" d="M66.77,15.72a.44.44,0,0,1-.44.44.44.44,0,0,1,0-.87A.44.44,0,0,1,66.77,15.72Z"/><polygon class="cls-5" points="48.47 97.6 48.92 100.65 47.83 101.02 47.2 98.02 48.47 97.6"/><path class="cls-6" d="M48.92,100.65l-1.15.09s-3.69,1.61-3.2,1.81,4.56-1.63,4.37-1.83S48.92,100.65,48.92,100.65Z"/><path class="cls-27" d="M53,64s-19.5,5-18.22,8.24C37.09,78,47.24,99,47.24,99l1.5-.48s-2.37-25-7.31-24L54.65,70.9Z"/><polygon class="cls-5" points="55.27 97.6 55.72 100.65 54.62 101.02 53.99 98.02 55.27 97.6"/><path class="cls-6" d="M55.71,100.65l-1.15.09s-3.69,1.61-3.2,1.81,4.56-1.63,4.38-1.83S55.71,100.65,55.71,100.65Z"/><path class="cls-6" d="M70.32,60.56s4,2.77,2.65,10.83l-18.32.84c3.46,6.11,2.11,15.64,1.06,26.76l-1.51.24s-7.79-31.79-7-32.16C51,65.35,70.32,60.56,70.32,60.56Z"/><polygon class="cls-28" points="7.08 25.54 39.46 4.77 78.47 2.47 73.11 42.79 40.75 48.28 11.11 47.83 7.08 25.54"/><path class="cls-29" d="M94.31,41.07s-6.66-14.9-5.16-13.78,5.16,9.57,5.16,9.57S92.25,24.67,93.75,25s2.53,11.82,2.53,11.82.8-12.1,1.57-11.54S98.9,37.61,98.9,37.61s.66-7.74,1.88-8.18,0,8.83,0,8.83,3.41-8.09,3.88-7.15-3.13,10.15-3.13,10.15Z"/><polygon class="cls-2" points="15.33 63.94 99.18 63.02 99.18 65.43 9.81 66.74 9.81 64.13 15.33 63.94"/><polyline class="cls-2" points="11.11 56.73 15.23 108.35 17.56 108.35 15.34 56.48 12.04 56.73"/><polygon class="cls-2" points="93.03 55.25 95.09 106.86 97.12 106.86 97.13 55.18 93.03 55.25"/><polygon class="cls-2" points="1.61 56.48 1.61 58.22 107.37 56.48 108.2 55.01 1.61 56.48"/><polygon class="cls-30" points="0 52.71 110.47 49.2 110.47 54.97 0 56.73 0 52.71"/><path class="cls-31" d="M7.06,26.34,9,47a1.66,1.66,0,0,0,1.65,1.5H40.22a1.65,1.65,0,0,0,1.65-1.65V24.69A1.66,1.66,0,0,0,40.14,23L8.63,24.53A1.66,1.66,0,0,0,7.06,26.34Z"/><path class="cls-32" d="M23,43.72s-1.32,7.86.21,8.25L29,51.79s-2.2-6-1.39-8.51Z"/><polygon class="cls-31" points="37.43 51.52 38.02 50.9 57.31 50.41 58.06 50.96 37.43 51.52"/><polygon class="cls-1" points="94.65 49.8 92.03 41.66 103.37 41.23 101.91 49.33 94.65 49.8"/><path class="cls-33" d="M91.46,43.42c.27-.07,12.84-.55,12.84-.55l.36-2.28L91,40.73Z"/><circle class="cls-7" cx="24.64" cy="37.26" r="1.8"/><polygon class="cls-34" points="68.37 50.89 67.84 45.55 86.73 45.55 87.67 50.28 68.37 50.89"/><rect class="cls-35" x="72.15" y="47.61" width="11.81" height="0.97"/><path class="cls-36" d="M70.14,50.89c-.06,0-.13-.3-.17-.78s-.06-1.16-.08-1.9c0-.36,0-.71,0-1s0-.6-.06-.84c0-.48-.05-.78,0-.79s.18.26.29.75c0,.24.1.52.14.85s.07.68.08,1.05c0,.75,0,1.42,0,1.9S70.2,50.89,70.14,50.89Z"/><path class="cls-36" d="M85.52,50.34a7.36,7.36,0,0,1-.4-2.43,7.23,7.23,0,0,1,0-2.47,7.52,7.52,0,0,1,.39,2.43A7.07,7.07,0,0,1,85.52,50.34Z"/><polygon class="cls-35" points="65.82 45.95 65.35 40.6 84.24 40.8 85.12 45.55 65.82 45.95"/><path class="cls-7" d="M65.34,41.36l19-.16L85,44.88l-19.21.72s-.44-4.75-.45-4"/><g class="cls-12"><path class="cls-13" d="M84.27,44.26a3.61,3.61,0,0,1-.71,0l-1.92,0c-1.63,0-3.87,0-6.35-.09s-4.73-.16-6.35-.25L67,43.87a4.14,4.14,0,0,1-.71-.08H67c.45,0,1.11,0,1.92.05l6.35.18,6.35.15c.81,0,1.47,0,1.92,0A5,5,0,0,1,84.27,44.26Z"/></g><g class="cls-12"><path class="cls-13" d="M83.68,42.85a2.77,2.77,0,0,1-.68,0H81.13c-1.58,0-3.76,0-6.17,0s-4.59.13-6.17.2l-1.86.08a4,4,0,0,1-.69,0,5.55,5.55,0,0,1,.68-.08c.44-.05,1.08-.1,1.87-.15,1.57-.11,3.75-.22,6.16-.26s4.6,0,6.18,0c.79,0,1.43,0,1.87.08Z"/></g><g class="cls-12"><path class="cls-13" d="M84,42.55a4.09,4.09,0,0,1-.7,0l-.82-.07-1.09-.09-1.31-.09-1.51-.09c-1.06,0-2.23-.1-3.46-.13s-2.4,0-3.46,0c-.53,0-1,0-1.51,0s-.92,0-1.32,0l-1.08,0-.82,0a5.32,5.32,0,0,1-.7,0,3.09,3.09,0,0,1,.69-.09l.82-.07,1.09-.07,1.31-.06,1.52,0c1.06,0,2.24,0,3.47,0s2.4.08,3.46.15l1.51.11,1.32.11,1.08.12.82.1Z"/></g><polygon class="cls-36" points="66.02 40.89 65.66 35.53 84.54 36.09 85.33 40.85 66.02 40.89"/><path class="cls-7" d="M65.64,36.29l19,.2.62,3.7L66,40.54s-.35-4.77-.37-4"/><g class="cls-12"><path class="cls-13" d="M84.5,39.55a3.22,3.22,0,0,1-.7,0l-1.93,0c-1.62,0-3.87-.1-6.35-.21S70.8,39.1,69.18,39l-1.92-.15-.7-.09a5.46,5.46,0,0,1,.71,0l1.92.08,6.34.3,6.34.28,1.93.08Z"/></g><g class="cls-12"><path class="cls-13" d="M83.94,38.13a3.25,3.25,0,0,1-.68,0l-1.87,0c-1.58,0-3.76-.09-6.17-.09s-4.59,0-6.17.08l-1.87.05c-.44,0-.68,0-.68,0a3.82,3.82,0,0,1,.68-.08l1.87-.11c1.58-.08,3.76-.14,6.17-.14s4.59.07,6.17.15c.79,0,1.43.08,1.87.12A4.76,4.76,0,0,1,83.94,38.13Z"/></g><g class="cls-12"><path class="cls-13" d="M84.29,37.84l-.7-.05-.81-.08L81.7,37.6l-1.32-.12-1.5-.12c-1.06-.07-2.23-.14-3.46-.19S73,37.09,72,37.08H68l-.82,0a3.46,3.46,0,0,1-.7,0,5.11,5.11,0,0,1,.7-.07L68,37l1.09-.05,1.32,0H72c1.07,0,2.24,0,3.47.07s2.4.12,3.46.21l1.51.14c.47,0,.91.09,1.31.14l1.08.14.81.12A3.46,3.46,0,0,1,84.29,37.84Z"/></g></g></g></svg>