<svg xmlns="http://www.w3.org/2000/svg" xmlns:xlink="http://www.w3.org/1999/xlink" viewBox="0 0 110.31 131.32"><defs><style>.cls-1{fill:#e8e8e8;}.cls-2{fill:#4f3f3b;}.cls-3{fill:#2a2c3f;}.cls-4{fill:#c6c6c6;}.cls-5{fill:#ff4a4a;}.cls-6{fill:#afb9d3;}.cls-7{fill:#e5b699;}.cls-8{fill:#1a1b1e;}.cls-9{fill:#c38e79;}.cls-10,.cls-16{fill:#995e52;}.cls-10{opacity:0.28;}.cls-11{fill:#222326;}.cls-12{fill:#dbdbdb;}.cls-13{opacity:0.51;}.cls-14{fill:#a08472;}.cls-15{fill:#c1ad9f;}.cls-16{opacity:0.22;}.cls-17{fill:#e2ad8f;}.cls-18{fill:#d68772;}.cls-19{fill:#f5f0e1;}.cls-20,.cls-21{opacity:0.55;}.cls-20{fill:url(#Degradado_sin_nombre_21);}.cls-21{fill:url(#Degradado_sin_nombre_21-2);}.cls-22{fill:#3a3047;}.cls-23{fill:#aa8b71;}</style><linearGradient id="Degradado_sin_nombre_21" x1="7.19" y1="19.02" x2="8" y2="30.53" gradientUnits="userSpaceOnUse"><stop offset="0.09" stop-color="#61c2f2"/><stop offset="1" stop-color="#6bbae4" stop-opacity="0"/></linearGradient><linearGradient id="Degradado_sin_nombre_21-2" x1="-1745.39" y1="18.77" x2="-1744.52" y2="31.13" gradientTransform="matrix(-1, 0, 0, 1, -1730.17, 0)" xlink:href="#Degradado_sin_nombre_21"/></defs><title>full_chart_downРесурс 6</title><g id="Слой_2" data-name="Слой 2"><g id="Objects"><polygon class="cls-1" points="31.38 4.63 35.31 67.38 101.43 66.91 104.73 3.53 31.38 4.63"/><polygon class="cls-2" points="27.51 5.48 109.24 4.63 110.31 0 26.69 1.47 27.51 5.48"/><polygon class="cls-2" points="35.31 67.38 101.43 66.91 101.43 67.83 35.31 68.43 35.31 67.38"/><path class="cls-2" d="M66.21,69.77c-.12,0-.24-.53-.27-1.19s0-1.21.15-1.22.24.53.27,1.2S66.33,69.77,66.21,69.77Z"/><path class="cls-2" d="M66.2,69.3s.11,0,.29,0a1.17,1.17,0,0,1,.3.17,1.59,1.59,0,0,1,.3.36,1.2,1.2,0,0,1,0,1.24,1.33,1.33,0,0,1-.25.29,1.18,1.18,0,0,1-.37.19,1.25,1.25,0,0,1-.83-.06,1.21,1.21,0,0,1-.35-.24,1,1,0,0,1-.24-.35,1.29,1.29,0,0,1-.07-.77,1.23,1.23,0,0,1,.34-.6,1,1,0,0,1,.51-.29,1.14,1.14,0,0,1,.81.07c.18.08.24.17.23.19s-.12,0-.28,0a1.26,1.26,0,0,0-.67.06.91.91,0,0,0-.35.25,1,1,0,0,0-.21.44.93.93,0,0,0,.06.52.78.78,0,0,0,.39.37.81.81,0,0,0,.55,0,.71.71,0,0,0,.41-.29,1,1,0,0,0,.16-.46,1.69,1.69,0,0,0,0-.23l-.06-.2a1.33,1.33,0,0,0-.42-.53C66.28,69.37,66.19,69.33,66.2,69.3Z"/><path class="cls-3" d="M95.27,56.71H95l-.7,0-2.68.11-9.86.37L49.28,58.39l-4.36.15h-.11v-.1c-.89-11.67-1.68-22.06-2.23-29.52-.27-3.74-.49-6.74-.64-8.81-.08-1-.13-1.84-.17-2.38,0-.28,0-.48,0-.62V16.9a.18.18,0,0,0,0,.05s0,.09,0,.16,0,.34.06.61c0,.55.12,1.35.2,2.38.17,2.07.41,5.07.71,8.81.59,7.46,1.4,17.84,2.3,29.51l-.11-.09,4.37-.16L81.8,57.09l9.86-.3,2.68-.07.7,0h.23Z"/><polygon class="cls-3" points="61.43 11.71 61.43 13.04 75.32 12.39 75.32 11.26 61.43 11.71"/><polygon class="cls-4" points="90.13 54.63 85.31 54.85 85.47 41.73 90.2 41.52 90.13 54.63"/><polygon class="cls-4" points="81.39 55.03 76.57 55.26 76.49 36.92 81.22 36.71 81.39 55.03"/><polygon class="cls-4" points="73.18 54.83 68.36 55.04 68.03 31.06 72.75 30.84 73.18 54.83"/><polygon class="cls-4" points="54.37 54.75 49.55 54.97 48.82 22.29 53.54 22.07 54.37 54.75"/><polygon class="cls-4" points="63.62 54.98 58.8 55.2 58.28 27.07 63 26.85 63.62 54.98"/><path class="cls-5" d="M49.78,15.75c.11-.2,9.3,4.58,20.53,10.68S90.55,37.64,90.44,37.85s-9.3-4.58-20.53-10.68S49.67,16,49.78,15.75Z"/><path class="cls-5" d="M88.14,33.66c.18-.14,2.37,2.22,4.9,5.28l.64.78-1-.09h0c-4-.36-7.2-.84-7.18-1.07s3.27-.13,7.25.23h.06l-.36.69C89.86,36.41,88,33.81,88.14,33.66Z"/><polygon class="cls-6" points="48.82 59.98 53.86 59.98 54.02 60.88 48.82 60.88 48.82 59.98"/><polygon class="cls-6" points="57.74 59.61 62.79 59.61 62.95 60.51 57.74 60.51 57.74 59.61"/><polygon class="cls-6" points="66.94 59.35 71.98 59.35 72.14 60.25 66.94 60.25 66.94 59.35"/><polygon class="cls-6" points="75.55 59.14 80.59 59.14 80.75 60.04 75.55 60.04 75.55 59.14"/><polygon class="cls-6" points="86.22 58.82 91.26 58.82 91.42 59.72 86.22 59.72 86.22 58.82"/><polygon class="cls-7" points="19.76 127.55 20.06 130.76 21.23 130.76 21.23 127.71 19.76 127.55"/><path class="cls-8" d="M20.06,130.76l1.13-.29s4.08.36,3.67.72-4.92-.11-4.8-.36S20.06,130.76,20.06,130.76Z"/><polygon class="cls-7" points="13.95 127.67 14.5 130.76 15.68 130.76 15.32 127.67 13.95 127.67"/><path class="cls-8" d="M7.13,59.62S1.26,68.18,3.21,73.67,9.37,89.75,9,94.18,6.68,103.58,8.1,108,14,128.73,14,128.73h1.77s-2.13-27.81-1.6-29.94S15.9,79.9,15.37,76.18c0,0,6.71,22.72,6.18,24.31s-4.72,6.27-3.48,15.49,1.69,12.75,1.69,12.75h1.62s3.37-21.79,4.79-26.22c0,0,.6-11.59-3.72-35.79C22.14,65,7.13,59.62,7.13,59.62Z"/><path class="cls-7" d="M33.61,54.88h3.83a15.14,15.14,0,0,1,1.78-1.8c1.13-1,1.83-1.75,1.75-1.32s-1.59,2.05-1.13,2.36,5,.36,4.88.66-3.29.21-3.6.4,3,.11,2.8.34-3,.24-3.26.35,3.1.26,2.76.56-2.61-.18-3.07,0,2.52.49,2.21.8S39.22,57,38,56.76a19.51,19.51,0,0,0-3.89.05Z"/><polygon class="cls-1" points="35.24 54.88 36.19 54.88 36.83 56.78 35.44 56.78 35.24 54.88"/><path class="cls-8" d="M17.77,34.7a58.63,58.63,0,0,0,1.58,9.65c1.3,5,2.88,13.54,6.63,13.54a77.45,77.45,0,0,0,9.79-1l-.57-2.16a66.29,66.29,0,0,1-8.43-2.2S22.38,34.56,17.77,34.7Z"/><path class="cls-1" d="M6.62,33.88s5.36-1.83,8.52-.09l6,12.17.36,8.8L20.07,68.65s-8.31,3-9.71-5.23c0,0,2.76-10.22,1-13.54S4.49,37.8,4.49,37.8Z"/><path class="cls-9" d="M10,29.36l.13,3.71a.7.7,0,0,0,.66.67l2.75.14V29Z"/><path class="cls-10" d="M10,29.36v.93s1.38.85,3.54-.46l.1-1Z"/><path class="cls-11" d="M2.9,35v7.77S11,51.94,8.38,57.85L4.63,63.18S9.38,71.39,13,70.67c0,0,5.62-15.12,2.16-23.26A56.39,56.39,0,0,0,6.93,33.79Z"/><path class="cls-11" d="M15.14,33.79,18.46,35s6.34,11.28,4.61,17.3l.17,19.1s-4,1-4-2.84,2.51-20.17,1.36-22.33S15.14,33.79,15.14,33.79Z"/><polygon class="cls-9" points="12.59 34.62 14.3 37.7 13.01 34.62 13.01 32.9 11.78 32.49 12.59 34.62"/><path class="cls-12" d="M10,31.46a2.23,2.23,0,0,0,.44,1.33,2.86,2.86,0,0,0,2.11.54v1.29s-2.41.08-2.51-1.44Z"/><path class="cls-12" d="M13,33.39v1.23a1.74,1.74,0,0,0,.74-1.35v-.74a1,1,0,0,0-.25-.67h0S13.75,33.11,13,33.39Z"/><g class="cls-13"><path class="cls-14" d="M16.85,69.19a1.17,1.17,0,0,1,0-.33c0-.21,0-.53.07-.93.08-.81.19-2,.32-3.43s.3-3.17.44-5.08c0-.48.07-1,.11-1.47s.07-1,.09-1.54c0-.26,0-.52,0-.79l0-.8c0-.27,0-.54,0-.81s0-.55,0-.83A27.77,27.77,0,0,0,17.78,50q-.2-1.56-.48-3A37.19,37.19,0,0,0,16,42.09c-.47-1.37-.94-2.45-1.27-3.19-.16-.37-.3-.65-.39-.85s-.13-.3-.13-.3a1.72,1.72,0,0,1,.17.28c.1.19.25.47.42.84A29.93,29.93,0,0,1,16.09,42,35,35,0,0,1,17.49,47c.2.94.36,1.94.49,3l.09.79c0,.27,0,.54.07.81s0,.27,0,.4,0,.28,0,.41,0,.28,0,.42,0,.27,0,.41,0,.56,0,.83,0,.55,0,.82l0,.8c0,.27,0,.53,0,.79,0,.53-.07,1-.1,1.54s-.07,1-.11,1.47c-.16,1.92-.34,3.64-.49,5.09s-.29,2.61-.38,3.42q-.07.6-.12.93C16.87,69.08,16.85,69.19,16.85,69.19Z"/></g><path class="cls-7" d="M11.89,54.65s3.33.6,5.43-.29c0,0,2.7-2.89,2.83-2.61S18.4,54.57,18.6,54.5s6.23.64,5.78,1.1l-7.9.4a22.5,22.5,0,0,1-4.25,0Z"/><polygon class="cls-1" points="12.33 54.49 13.53 54.49 13.77 56.12 12.11 56.17 12.33 54.49"/><path class="cls-8" d="M3.91,34.7A3.14,3.14,0,0,0,1,37.58c-.29,2.74-2.16,21.9,1.44,22s9.94-3.17,9.94-3.17V54.29l-6.06-.43S8.09,35.28,3.91,34.7Z"/><polygon class="cls-8" points="9.27 60.37 8.32 61.47 11.89 64.83 12.41 63.56 9.27 60.37"/><polygon class="cls-8" points="22.73 64.47 22.73 65.69 23.19 65.69 23.18 64.47 22.73 64.47"/><path d="M15.14,74.56a3.52,3.52,0,0,1,.88.18l-.09.06c0-.59.08-1.43.16-2.37s.15-1.71.21-2.29a5.71,5.71,0,0,1,.15-1,4,4,0,0,1,0,1c0,.59-.08,1.4-.15,2.3s-.16,1.78-.23,2.36v.09l-.08,0A4.4,4.4,0,0,1,15.14,74.56Z"/><path d="M10.07,69.67s0,.06-.13.13l-.08.07-.1.07-.25.16-.15.08-.17.08a3.17,3.17,0,0,1-.37.15l-.22.07-.11,0-.11,0a3.41,3.41,0,0,1-.48.09,4.05,4.05,0,0,1-.48,0H7c-.14,0-.28,0-.4-.06l-.19,0-.16,0-.28-.09-.11,0-.1-.05c-.11,0-.16-.08-.16-.1a.44.44,0,0,1,.19,0l.1,0,.11,0,.28,0,.16,0,.18,0c.12,0,.26,0,.39,0h.44a3.89,3.89,0,0,0,.47,0,3.25,3.25,0,0,0,.45-.08l.11,0,.11,0,.2-.06.38-.13L9.29,70,9.44,70l.26-.12.1-.06.09,0C10,69.68,10.06,69.65,10.07,69.67Z"/><path d="M14.08,99.32a4.76,4.76,0,0,1-1.1.38,5,5,0,0,1-1.13.32s.09-.1.29-.2a5,5,0,0,1,.77-.32,4.26,4.26,0,0,1,.82-.18C13.94,99.29,14.08,99.29,14.08,99.32Z"/><path d="M13.89,99.14s0,0-.08,0l-.1,0-.13,0a2.1,2.1,0,0,1-.36,0l-.22,0-.22,0-.22-.08L12.37,99a1.42,1.42,0,0,1-.3-.2L12,98.71l-.07-.08s-.05-.07,0-.08,0,0,.09,0l.09.05a1.33,1.33,0,0,1,.12.06l.3.15.19.07.2.06L13,99l.2,0a2.26,2.26,0,0,0,.33,0h.23Q13.89,99.13,13.89,99.14Z"/><path d="M25.76,102.56a2.18,2.18,0,0,1-.92-.2A2.38,2.38,0,0,1,24,102a2,2,0,0,1,.93.2C25.4,102.33,25.78,102.5,25.76,102.56Z"/><path class="cls-8" d="M14.5,130.76l1.14-.29s4.08.36,3.67.72-4.92-.11-4.81-.36S14.5,130.76,14.5,130.76Z"/><path class="cls-15" d="M6.06,12.22s-3.48-6,1.13-7.71,7.2,5.38,12,6.13,5.19,4.56,3,9.93S21,24.92,20,25.93s-6.5,3.79-13.58,1.58-7.46-14.15-5-17.44S6.06,12.22,6.06,12.22Z"/><path class="cls-14" d="M4.54,26.75l-.15-.1a3.1,3.1,0,0,1-.36-.3l-.25-.24c-.09-.1-.19-.19-.29-.31a8.7,8.7,0,0,1-.61-.8,8.87,8.87,0,0,1-1.13-2.37,9.81,9.81,0,0,1-.35-1.51,11.16,11.16,0,0,1-.13-1.66,13,13,0,0,1,.09-1.67,11.9,11.9,0,0,1,.26-1.53,7.16,7.16,0,0,1,.46-1.33,3.89,3.89,0,0,1,.65-1,1.72,1.72,0,0,1,.89-.52,1.32,1.32,0,0,1,.77.1.86.86,0,0,1,.37.31.33.33,0,0,1,.06.12s0,0,0,0l0,0a.46.46,0,0,0-.07-.1,1,1,0,0,0-.37-.26,1.2,1.2,0,0,0-.72-.06,1.63,1.63,0,0,0-.8.5,4,4,0,0,0-.61,1,7.46,7.46,0,0,0-.42,1.31,13.21,13.21,0,0,0-.25,1.51,14.35,14.35,0,0,0-.08,1.63,12.4,12.4,0,0,0,.12,1.64,11.2,11.2,0,0,0,.33,1.49A9.64,9.64,0,0,0,3,24.92c.2.31.4.58.58.81l.27.31.23.25.34.33A.74.74,0,0,1,4.54,26.75Z"/><path class="cls-16" d="M6.48,12.46S1.73,7.23,1.05,18.9a9.23,9.23,0,0,0,2.43,6.81,7.55,7.55,0,0,0,4.57,2.44Z"/><path class="cls-14" d="M6.63,6.25l0,0-.12.13A2.49,2.49,0,0,0,6.11,7a2.72,2.72,0,0,0-.26.91A3.59,3.59,0,0,0,5.92,9a5.79,5.79,0,0,0,.39,1.11c.15.33.3.63.43.88a4.42,4.42,0,0,0,.34.54c.1.12.16.18.15.2s-.09,0-.21-.14a3.07,3.07,0,0,1-.41-.53,8.29,8.29,0,0,1-.48-.87,5,5,0,0,1-.41-1.15,3.23,3.23,0,0,1-.06-1.23A2.65,2.65,0,0,1,6,6.9a2.06,2.06,0,0,1,.43-.52.77.77,0,0,1,.15-.11S6.62,6.24,6.63,6.25Z"/><path class="cls-14" d="M20.89,24s0-.11.08-.28a4,4,0,0,0,.17-.76,3.76,3.76,0,0,0,0-1.15,5.74,5.74,0,0,0-.16-.66,6.35,6.35,0,0,0-.28-.67,6.22,6.22,0,0,0-.79-1.18,8.66,8.66,0,0,0-.79-.86,10.46,10.46,0,0,1-.78-.75,3.74,3.74,0,0,1,.88.64,7.37,7.37,0,0,1,.84.84,5.7,5.7,0,0,1,.82,1.21,3.92,3.92,0,0,1,.29.71,3.44,3.44,0,0,1,.16.69,3.67,3.67,0,0,1,0,1.2,3.06,3.06,0,0,1-.24.77A1,1,0,0,1,20.89,24Z"/><path class="cls-14" d="M17.73,27.19a5.62,5.62,0,0,1,.38-.62c.06-.1.13-.2.19-.31l.2-.37a7.28,7.28,0,0,0,.37-.88c.11-.32.2-.63.27-.91s.05-.28.07-.41l0-.19a1.11,1.11,0,0,0,0-.17,4,4,0,0,1,.09-.72,1.63,1.63,0,0,1,.06.73,1.09,1.09,0,0,1,0,.18c0,.06,0,.13,0,.19l-.06.43a6.83,6.83,0,0,1-.26.95,8.19,8.19,0,0,1-.4.89l-.22.37c-.07.11-.15.21-.22.3C18,27,17.75,27.21,17.73,27.19Z"/><path class="cls-14" d="M1.21,22.54A2.87,2.87,0,0,1,.92,22l0-.07,0-.07L.8,21.69c0-.12-.09-.24-.14-.37S.57,21,.53,20.88a1.55,1.55,0,0,1-.07-.23,2,2,0,0,1-.06-.26l-.06-.26c0-.1,0-.19-.05-.28L.2,19.24c0-.2,0-.42-.05-.64v-.69a10.17,10.17,0,0,1,.53-3,9.64,9.64,0,0,1,1.41-2.71,4.77,4.77,0,0,1,.45-.54,1.86,1.86,0,0,1,.54-.39,1.66,1.66,0,0,1,.61-.16,2.69,2.69,0,0,1,.57,0,2.84,2.84,0,0,1,.92.31,5.84,5.84,0,0,1,.62.38,2.64,2.64,0,0,1,.48.39,4.89,4.89,0,0,1-.52-.32,5.82,5.82,0,0,0-.63-.34,2.82,2.82,0,0,0-.89-.27,1.88,1.88,0,0,0-.53,0l-.28.05a1.28,1.28,0,0,0-.27.11,2.54,2.54,0,0,0-.91.88A9.87,9.87,0,0,0,.88,15a10.42,10.42,0,0,0-.54,2.95v.68c0,.22,0,.43,0,.64s0,.4.07.59,0,.19,0,.28l.06.26c0,.09,0,.17,0,.25a2.17,2.17,0,0,1,.07.24c0,.15.07.3.11.43s.08.26.12.37l.06.17a.19.19,0,0,0,0,.07L1,22A3.52,3.52,0,0,1,1.21,22.54Z"/><path class="cls-16" d="M18.31,17.86S22,20.69,19,26.57l-1.36.65a5.11,5.11,0,0,1-1,.36L14.9,28S19.48,20.31,18.31,17.86Z"/><path class="cls-17" d="M4.35,19.22s-1.91-.76-2,1.17C2.09,23,4.31,23,4.31,23Z"/><path class="cls-18" d="M2.77,20.19s0-.05,0-.11A.61.61,0,0,1,3,19.89a.78.78,0,0,1,.44,0,.88.88,0,0,1,.45.25,1.22,1.22,0,0,1,.29.42,1.37,1.37,0,0,1,.14.38c0,.23,0,.37,0,.37s-.05-.13-.13-.33A1.74,1.74,0,0,0,4,20.61a1.72,1.72,0,0,0-.26-.36A.89.89,0,0,0,3.4,20a.62.62,0,0,0-.33,0C2.87,20.08,2.8,20.21,2.77,20.19Z"/><path class="cls-18" d="M4,21.68s0,.05,0,.11a.38.38,0,0,1-.29.12.55.55,0,0,1-.41-.23,1.07,1.07,0,0,1-.22-.51,1.21,1.21,0,0,1,0-.54.69.69,0,0,1,.29-.37.44.44,0,0,1,.31,0c.07,0,.1.07.09.08s0,0-.1,0a.42.42,0,0,0-.22.08.5.5,0,0,0-.18.3,1,1,0,0,0,0,.45,1.23,1.23,0,0,0,.16.42.49.49,0,0,0,.27.2.39.39,0,0,0,.23,0C4,21.7,4,21.67,4,21.68Z"/><path class="cls-17" d="M18.3,19.22s1.92-.76,2.06,1.17c.21,2.65-2,2.63-2,2.63Z"/><path class="cls-18" d="M19.89,20.19s-.1-.11-.3-.16a.62.62,0,0,0-.33,0,.89.89,0,0,0-.36.21,1.72,1.72,0,0,0-.26.36,2.62,2.62,0,0,0-.17.33c-.08.2-.1.33-.13.33s-.06-.14,0-.37a1.37,1.37,0,0,1,.14-.38,1.22,1.22,0,0,1,.29-.42.88.88,0,0,1,.45-.25.74.74,0,0,1,.43,0,.58.58,0,0,1,.23.19C19.9,20.14,19.9,20.18,19.89,20.19Z"/><path class="cls-18" d="M18.63,21.68s0,0,.09.05a.39.39,0,0,0,.23,0,.49.49,0,0,0,.27-.2,1.23,1.23,0,0,0,.16-.42,1,1,0,0,0,0-.45.5.5,0,0,0-.18-.3.46.46,0,0,0-.22-.08c-.06,0-.09,0-.1,0s0,0,.09-.08a.44.44,0,0,1,.31,0,.69.69,0,0,1,.29.37,1.21,1.21,0,0,1,0,.54,1.07,1.07,0,0,1-.22.51.55.55,0,0,1-.41.23.38.38,0,0,1-.29-.12C18.62,21.73,18.62,21.69,18.63,21.68Z"/><path class="cls-7" d="M11.54,11a6.34,6.34,0,0,0-7.32,5.9c-.17,3-.14,6.81.92,8.52,1.87,3,5.33,5,6.82,4.61s6.6-3.63,6.56-7.25-.21-8.69-.21-8.69A16.45,16.45,0,0,0,11.54,11Z"/><path class="cls-18" d="M11.41,23.82s-.18.06-.49,0a3.12,3.12,0,0,1-1.25-.45l-.21-.13.21-.15a7.17,7.17,0,0,0,.85-.76,3.56,3.56,0,0,0,.39-.48,1.21,1.21,0,0,0,.19-.56,5.86,5.86,0,0,0,0-.83L11,19.71c-.08-.5-.17-.95-.25-1.33a6,6,0,0,1-.27-1.23A2.86,2.86,0,0,1,11,18.3a10.3,10.3,0,0,1,.35,1.34q.08.39.12.81c0,.15,0,.29,0,.44a3.68,3.68,0,0,1,0,.47,1.83,1.83,0,0,1-.09.39,1.27,1.27,0,0,1-.17.35,3.11,3.11,0,0,1-.46.54,5.7,5.7,0,0,1-.94.76v-.28a4.05,4.05,0,0,0,1.1.54C11.25,23.75,11.42,23.78,11.41,23.82Z"/><path class="cls-16" d="M4.88,7.11S7.9,5.72,9,8.64c1.19,3.13,6.33,9.82,12.17,8.86,0,0-10.41-13.76-15.8-11.25l-.32.19"/><path class="cls-19" d="M4.94,6.84C4.88,7,8,4.18,10.21,9.28s7.27,8.18,10.69,8.2c2.68,0,1,3.76,1,3.76s4.82-9.34-1.82-10.41C13.59,9.78,12.27,2.57,7,4.25A4.27,4.27,0,0,0,4.94,6.84Z"/><g class="cls-13"><path class="cls-14" d="M23.65,13.89s-.06,0-.2.13l-.61.29a7.35,7.35,0,0,1-1,.32,6.79,6.79,0,0,1-3.12,0,7.11,7.11,0,0,1-1.84-.71,7.31,7.31,0,0,1-1.72-1.36,9.82,9.82,0,0,1-1.34-1.92c-.39-.7-.73-1.4-1.09-2.05a9.61,9.61,0,0,0-1.22-1.76,5.07,5.07,0,0,0-.72-.68L10.58,6l-.2-.12a3.18,3.18,0,0,0-.4-.23,4.55,4.55,0,0,0-1.6-.45A4.85,4.85,0,0,0,7,5.24a4.93,4.93,0,0,0-1,.29l-.19.08-.16.08-.14.07-.11.06c-.13.08-.2.12-.21.11l.19-.14.11-.08.13-.07.16-.09L6,5.46a4.21,4.21,0,0,1,1-.33,4.61,4.61,0,0,1,1.42-.08,4.94,4.94,0,0,1,1.67.44c.14.08.28.14.42.23l.2.13.2.15a5.53,5.53,0,0,1,.76.7,10.26,10.26,0,0,1,1.25,1.78c.37.66.71,1.36,1.09,2.06a10,10,0,0,0,1.31,1.88A6.89,6.89,0,0,0,17,13.75a7,7,0,0,0,1.79.71,6.78,6.78,0,0,0,1.67.2,6.43,6.43,0,0,0,1.39-.15,6.74,6.74,0,0,0,1-.28C23.36,14,23.64,13.87,23.65,13.89Z"/></g><g class="cls-13"><path class="cls-14" d="M23.35,17.58s0,0,0-.06a.19.19,0,0,0,0-.08v-.1a.78.78,0,0,0,0-.14.8.8,0,0,0,0-.15,1.51,1.51,0,0,0-.18-.36,1.87,1.87,0,0,0-.85-.68,3.19,3.19,0,0,0-.66-.16,6.57,6.57,0,0,0-.78,0H20c-.31,0-.62,0-.95,0a16.5,16.5,0,0,1-2.07-.31,7.48,7.48,0,0,1-1.09-.32,3.75,3.75,0,0,1-1-.6,4.19,4.19,0,0,1-.83-.92,6.37,6.37,0,0,1-.61-1.12,23.25,23.25,0,0,1-.81-2.34,8.85,8.85,0,0,0-.92-2.07,4.61,4.61,0,0,0-1.43-1.42A5.33,5.33,0,0,0,8.57,6,5.17,5.17,0,0,0,7.1,5.84l-.31,0-.29,0-.13,0L6.24,6,6,6a5.83,5.83,0,0,0-.67.24l-.23.08a1.72,1.72,0,0,1,.21-.12A5.69,5.69,0,0,1,6,5.92l.24-.06.13,0a.61.61,0,0,1,.13,0l.3,0,.32,0a5.73,5.73,0,0,1,1.5.11,5.39,5.39,0,0,1,1.7.69A4.87,4.87,0,0,1,11.81,8a9.07,9.07,0,0,1,.95,2.12c.25.76.46,1.55.8,2.32a6.6,6.6,0,0,0,.59,1.08,4.25,4.25,0,0,0,.37.47,3.25,3.25,0,0,0,.42.41,3.86,3.86,0,0,0,1,.57,7.12,7.12,0,0,0,1.06.32,16.16,16.16,0,0,0,2,.32l.94.06h.87a6.5,6.5,0,0,1,.79.06,2.87,2.87,0,0,1,.7.18,1.92,1.92,0,0,1,.87.74,1.59,1.59,0,0,1,.17.39l0,.17v.14a.31.31,0,0,1,0,.1s0,.06,0,.08Z"/></g><path class="cls-18" d="M13.42,25.86c0,.05-.27,0-.64-.18-.19-.08-.41-.19-.63-.27a1.45,1.45,0,0,0-.35-.07,1.29,1.29,0,0,0-.39,0,2.1,2.1,0,0,0-.72.29,4.77,4.77,0,0,0-.51.42c-.29.27-.46.46-.51.42s0-.27.28-.62a2.34,2.34,0,0,1,.52-.53,2.08,2.08,0,0,1,.86-.4,1.69,1.69,0,0,1,.5,0,1.64,1.64,0,0,1,.46.12,2.29,2.29,0,0,1,.35.19l.28.18C13.25,25.64,13.45,25.81,13.42,25.86Z"/><path class="cls-20" d="M5.73,19.79l.33,6.78a6.73,6.73,0,0,0,2.72,2.3l.15-8.69S7.89,21.66,5.73,19.79Z"/><path class="cls-21" d="M16.5,19.58v7.36a11.22,11.22,0,0,1-3.08,2.4L13.29,20S14.33,21.47,16.5,19.58Z"/><path class="cls-22" d="M4.5,18.67s.11,0,.23.14l.52.48A7.88,7.88,0,0,0,6,20a4.19,4.19,0,0,0,.5.31,2.49,2.49,0,0,0,.56.24,1.41,1.41,0,0,0,.57.05,1.5,1.5,0,0,0,.52-.16,3,3,0,0,0,.77-.59c.2-.21.35-.4.47-.52s.18-.19.21-.17,0,.11-.08.26a3.94,3.94,0,0,1-.37.62,2.68,2.68,0,0,1-.81.74,1.74,1.74,0,0,1-.65.23A1.86,1.86,0,0,1,7,20.91a2.57,2.57,0,0,1-.65-.29,3.55,3.55,0,0,1-.53-.37A4.53,4.53,0,0,1,5,19.49a6,6,0,0,1-.42-.57C4.52,18.78,4.48,18.69,4.5,18.67Z"/><path class="cls-22" d="M17.42,18.38s0,.1-.11.24a4.94,4.94,0,0,1-.42.58,6,6,0,0,1-.76.76,3.55,3.55,0,0,1-.53.37,3,3,0,0,1-.65.28,1.86,1.86,0,0,1-.74.06,2.18,2.18,0,0,1-.65-.23,2.58,2.58,0,0,1-.81-.75,3.94,3.94,0,0,1-.37-.61c-.08-.16-.1-.25-.08-.26s.1,0,.21.16.27.31.47.52a2.82,2.82,0,0,0,.77.6,2.1,2.1,0,0,0,.52.16,1.62,1.62,0,0,0,.57-.05A3.93,3.93,0,0,0,15.4,20a4.61,4.61,0,0,0,.49-.32,7,7,0,0,0,.78-.65c.22-.21.39-.37.52-.48S17.39,18.36,17.42,18.38Z"/><path class="cls-23" d="M8.83,16.36s.05.11,0,.23a.36.36,0,0,1,0,.09.54.54,0,0,1-.05.11A1.38,1.38,0,0,1,8.6,17l-.1.12-.13.12a2.49,2.49,0,0,1-.31.23,2.85,2.85,0,0,1-.81.36,3,3,0,0,1-.86.12A2.36,2.36,0,0,1,6,18a1.65,1.65,0,0,1-.32-.06c-.39-.1-.6-.26-.57-.37s.93-.2,1.9-.48a6.5,6.5,0,0,0,.67-.23c.1,0,.2-.08.28-.13l.13-.06.12-.06C8.52,16.4,8.73,16.29,8.83,16.36Z"/><path class="cls-23" d="M16.87,17.51c0,.11-.22.22-.61.27a3.84,3.84,0,0,1-.68,0,4.35,4.35,0,0,1-.81-.17,4.45,4.45,0,0,1-.76-.32,3,3,0,0,1-.56-.39c-.3-.25-.42-.48-.35-.57s.3,0,.64.05l.58.2.7.23.7.2.59.18C16.65,17.29,16.87,17.39,16.87,17.51Z"/></g></g></svg>