<svg xmlns="http://www.w3.org/2000/svg" viewBox="0 0 110.03 131.32"><defs><style>.cls-1{fill:#e8e8e8;}.cls-2{fill:#4f3f3b;}.cls-3{fill:#2a2c3f;}.cls-4{fill:#c6c6c6;}.cls-5{fill:#6cdda7;}.cls-6{fill:#afb9d3;}.cls-7{fill:#e5b699;}.cls-8{fill:#1a1b1e;}.cls-9{fill:#c38e79;}.cls-10,.cls-13{fill:#995e52;}.cls-10,.cls-24{opacity:0.28;}.cls-11{fill:#c1ad9f;}.cls-12{fill:#a08472;}.cls-13{opacity:0.22;}.cls-14{fill:#e2ad8f;}.cls-15{fill:#d68772;}.cls-16{fill:#7f443d;}.cls-17{fill:#a1263f;}.cls-18{fill:#dad7d1;}.cls-19{fill:#bf846a;}.cls-20{fill:#f5f0e8;}.cls-21{fill:#3a3047;}.cls-22{fill:#fff;}.cls-23{opacity:0.19;}.cls-25{fill:#aa8b71;}.cls-26{fill:#f5f0e1;}.cls-27{opacity:0.51;}.cls-28{fill:#222326;}.cls-29{fill:#dbdbdb;}</style></defs><title>full_regularРесурс 1</title><g id="Слой_2" data-name="Слой 2"><g id="Objects"><polygon class="cls-1" points="31.09 4.63 35.02 67.38 101.14 66.91 104.44 3.53 31.09 4.63"/><polygon class="cls-2" points="27.22 5.48 108.96 4.63 110.03 0 26.41 1.47 27.22 5.48"/><polygon class="cls-2" points="35.02 67.38 101.14 66.91 101.14 67.83 35.02 68.43 35.02 67.38"/><path class="cls-2" d="M65.92,69.77c-.11,0-.23-.53-.26-1.19s0-1.21.15-1.22.24.53.27,1.2S66,69.77,65.92,69.77Z"/><path class="cls-2" d="M65.91,69.29s.12,0,.29,0a1.3,1.3,0,0,1,.61.54,1.25,1.25,0,0,1,0,1.24,1.39,1.39,0,0,1-.26.29,1.13,1.13,0,0,1-.36.19,1.25,1.25,0,0,1-.83-.06,1.13,1.13,0,0,1-.36-.24,1.15,1.15,0,0,1-.24-.35,1.21,1.21,0,0,1-.06-.77,1.14,1.14,0,0,1,.33-.6,1.09,1.09,0,0,1,.52-.29,1.14,1.14,0,0,1,.81.07c.17.08.23.17.22.19s-.11,0-.27,0a1.25,1.25,0,0,0-.67.06.87.87,0,0,0-.36.25.89.89,0,0,0-.2.44.93.93,0,0,0,.06.52.74.74,0,0,0,.39.37.81.81,0,0,0,.55,0,.69.69,0,0,0,.4-.29.91.91,0,0,0,.16-.46.87.87,0,0,0,0-.23.66.66,0,0,0-.06-.2,1.33,1.33,0,0,0-.42-.53C66,69.37,65.9,69.33,65.91,69.29Z"/><path class="cls-3" d="M95,56.71h-.24l-.7,0-2.67.11-9.86.37L49,58.39l-4.37.14h-.1v-.1c-.89-11.67-1.67-22.06-2.23-29.52-.27-3.74-.49-6.74-.64-8.81-.07-1-.13-1.84-.16-2.38,0-.28,0-.48,0-.62s0-.12,0-.16V16.9s0,0,0,.05,0,.09,0,.16,0,.34.06.61c0,.55.11,1.35.2,2.38.16,2.07.41,5.07.7,8.81.6,7.46,1.4,17.84,2.3,29.51l-.11-.09L49,58.17l32.52-1.08,9.86-.3,2.68-.07.7,0H95Z"/><polygon class="cls-3" points="61.15 11.71 61.15 13.04 75.03 12.39 75.03 11.26 61.15 11.71"/><polygon class="cls-4" points="49.19 55.56 54.02 55.56 53.26 42.46 48.53 42.46 49.19 55.56"/><polygon class="cls-4" points="57.94 55.56 62.77 55.56 62.01 37.25 57.28 37.25 57.94 55.56"/><polygon class="cls-4" points="66.14 54.98 70.96 54.98 70.2 31 65.47 31 66.14 54.98"/><polygon class="cls-4" points="84.93 54.05 89.75 54.05 88.99 21.37 84.26 21.37 84.93 54.05"/><polygon class="cls-4" points="75.69 54.7 80.52 54.7 79.76 26.57 75.03 26.57 75.69 54.7"/><path class="cls-5" d="M46.16,39.06c-.13-.2,8.5-6,19.25-12.84S85,13.89,85.13,14.09,76.63,20,65.87,26.93,46.29,39.25,46.16,39.06Z"/><path class="cls-5" d="M80.35,14.09c0-.23,3.08-1,7-1.75l1-.18-.57.83,0,0c-2.23,3.32-4.2,5.9-4.39,5.77S84.8,15.89,87,12.57l0-.05.42.65C83.59,13.91,80.39,14.32,80.35,14.09Z"/><polygon class="cls-6" points="48.53 59.98 53.58 59.98 53.73 60.88 48.53 60.88 48.53 59.98"/><polygon class="cls-6" points="57.46 59.61 62.5 59.61 62.66 60.51 57.46 60.51 57.46 59.61"/><polygon class="cls-6" points="66.65 59.35 71.69 59.35 71.85 60.25 66.65 60.25 66.65 59.35"/><polygon class="cls-6" points="75.26 59.14 80.3 59.14 80.46 60.04 75.26 60.04 75.26 59.14"/><polygon class="cls-6" points="85.93 58.82 90.97 58.82 91.13 59.72 85.93 59.72 85.93 58.82"/><polygon class="cls-7" points="19.48 127.55 19.77 130.76 20.94 130.76 20.94 127.71 19.48 127.55"/><path class="cls-8" d="M19.77,130.76l1.14-.29s4.07.36,3.67.72-4.92-.11-4.81-.36S19.77,130.76,19.77,130.76Z"/><polygon class="cls-7" points="13.66 127.67 14.22 130.76 15.39 130.76 15.03 127.67 13.66 127.67"/><path class="cls-8" d="M6.84,59.62S1,68.18,2.92,73.67,9.09,89.75,8.73,94.18s-2.34,9.4-.92,13.82,5.86,20.73,5.86,20.73h1.76s-2.13-27.81-1.59-29.94,1.77-18.89,1.24-22.61c0,0,6.71,22.72,6.18,24.31s-4.71,6.27-3.47,15.49,1.69,12.75,1.69,12.75H21.1s3.37-21.79,4.78-26.22c0,0,.61-11.59-3.72-35.79C21.85,65,6.84,59.62,6.84,59.62Z"/><path class="cls-7" d="M33.33,54.88h3.82a14.83,14.83,0,0,1,1.79-1.8c1.12-1,1.82-1.75,1.74-1.32s-1.59,2.05-1.12,2.37,5,.35,4.87.65-3.29.21-3.6.4,3,.11,2.8.34-3,.23-3.26.35,3.11.26,2.76.56-2.6-.18-3.07,0,2.53.49,2.22.8-3.34-.23-4.55-.47a19.51,19.51,0,0,0-3.89.05Z"/><polygon class="cls-1" points="34.95 54.88 35.9 54.88 36.54 56.78 35.15 56.78 34.95 54.88"/><path class="cls-8" d="M17.48,34.7a58.06,58.06,0,0,0,1.59,9.65c1.29,5,2.88,13.54,6.62,13.54a77.45,77.45,0,0,0,9.8-1l-.58-2.16a66.27,66.27,0,0,1-8.42-2.2S22.09,34.56,17.48,34.7Z"/><path class="cls-1" d="M6.33,33.88s5.37-1.83,8.53-.09l6,12.17.35,8.8L19.78,68.65s-8.3,3-9.71-5.23c0,0,2.77-10.22,1-13.54S4.21,37.8,4.21,37.8Z"/><path class="cls-9" d="M9.67,29.36l.13,3.71a.7.7,0,0,0,.66.67l2.76.13V29Z"/><path class="cls-10" d="M9.67,29.36v.93s1.39.85,3.55-.46l.09-1Z"/><path class="cls-11" d="M6.13,12.25s-3.49-6,1.13-7.71,7.2,5.38,12,6.13,5.18,4.56,3,9.93S21.09,25,20,26s-6.51,3.79-13.58,1.58S-1,13.39,1.44,10.1,6.13,12.25,6.13,12.25Z"/><path class="cls-12" d="M4.6,26.78l-.14-.1a4.08,4.08,0,0,1-.37-.3c-.07-.08-.16-.15-.25-.25l-.28-.3a7.22,7.22,0,0,1-.62-.8,9.18,9.18,0,0,1-1.13-2.37,11.14,11.14,0,0,1-.34-1.51,11.26,11.26,0,0,1-.14-1.66,15,15,0,0,1,.09-1.67,11.88,11.88,0,0,1,.27-1.53A8,8,0,0,1,2.14,15a3.92,3.92,0,0,1,.66-1.05,1.68,1.68,0,0,1,.89-.52,1.35,1.35,0,0,1,.77.1.92.92,0,0,1,.37.31.66.66,0,0,1,.06.12.1.1,0,0,1,0,0l0,0-.07-.1a1,1,0,0,0-.38-.27,1.25,1.25,0,0,0-.71-.05,1.59,1.59,0,0,0-.8.5,3.73,3.73,0,0,0-.61,1,7.46,7.46,0,0,0-.42,1.31,11.44,11.44,0,0,0-.25,1.5,12.6,12.6,0,0,0-.08,1.64,10.91,10.91,0,0,0,.12,1.64A11.2,11.2,0,0,0,2,22.61,9.27,9.27,0,0,0,3.07,25a7.26,7.26,0,0,0,.58.8c.09.12.18.22.27.32l.23.25.34.33C4.57,26.73,4.61,26.77,4.6,26.78Z"/><path class="cls-13" d="M6.55,12.49S1.8,7.26,1.12,18.93a9.22,9.22,0,0,0,2.42,6.81,7.55,7.55,0,0,0,4.58,2.44Z"/><path class="cls-12" d="M6.69,6.27s0,0,0,.06l-.12.13A2.49,2.49,0,0,0,6.18,7a2.72,2.72,0,0,0-.26.91A3.33,3.33,0,0,0,6,9.07a6.56,6.56,0,0,0,.38,1.11c.15.33.3.63.43.88a4.27,4.27,0,0,0,.35.54c.1.12.16.18.15.2s-.09,0-.21-.14a2.63,2.63,0,0,1-.42-.53c-.14-.24-.31-.53-.47-.87a5.74,5.74,0,0,1-.42-1.15,3.69,3.69,0,0,1-.06-1.23,2.65,2.65,0,0,1,.33-1,2.11,2.11,0,0,1,.43-.53.77.77,0,0,1,.15-.1Z"/><path class="cls-12" d="M21,24s0-.11.08-.28a4,4,0,0,0,.17-.76,4.11,4.11,0,0,0,0-1.15,4.28,4.28,0,0,0-.17-.66,3.82,3.82,0,0,0-.28-.67A6.12,6.12,0,0,0,20,19.31a11.53,11.53,0,0,0-.79-.85,10.46,10.46,0,0,1-.78-.75,4,4,0,0,1,.88.64,8.28,8.28,0,0,1,.84.84,6.56,6.56,0,0,1,.82,1.21,4.81,4.81,0,0,1,.29.71,4.3,4.3,0,0,1,.16.69,4,4,0,0,1,0,1.2,2.66,2.66,0,0,1-.25.77A.81.81,0,0,1,21,24Z"/><path class="cls-12" d="M17.8,27.22a3.31,3.31,0,0,1,.38-.62l.18-.31.2-.37a9.28,9.28,0,0,0,.38-.88,8,8,0,0,0,.26-.91c0-.15.06-.28.08-.41l0-.19c0-.06,0-.12,0-.17a4,4,0,0,1,.09-.72,2,2,0,0,1,.06.73c0,.06,0,.12,0,.18a1.37,1.37,0,0,1,0,.19,3.41,3.41,0,0,1-.06.43A5.86,5.86,0,0,1,18.73,26a3.28,3.28,0,0,1-.22.37q-.11.16-.21.3C18,27.05,17.82,27.24,17.8,27.22Z"/><path class="cls-12" d="M1.27,22.57A4.73,4.73,0,0,1,1,22L1,22l0-.07a1.11,1.11,0,0,0-.07-.16l-.14-.37-.13-.44c0-.07,0-.15-.07-.23s0-.17-.05-.26l-.06-.26-.06-.29c0-.19,0-.39-.08-.6s0-.42-.05-.64v-.69a9.86,9.86,0,0,1,.53-3,9.39,9.39,0,0,1,1.41-2.71,3.34,3.34,0,0,1,.44-.54,2,2,0,0,1,.55-.39,1.82,1.82,0,0,1,.3-.11,1.57,1.57,0,0,1,.3-.05,2.79,2.79,0,0,1,.58,0,2.93,2.93,0,0,1,.92.31,7.08,7.08,0,0,1,.62.38,3.21,3.21,0,0,1,.48.39,5.54,5.54,0,0,1-.53-.32c-.17-.1-.37-.23-.62-.35a3.21,3.21,0,0,0-.89-.26,2,2,0,0,0-.54,0l-.28.05a1.53,1.53,0,0,0-.27.11,2.62,2.62,0,0,0-.91.88A10.15,10.15,0,0,0,1,15a10.42,10.42,0,0,0-.54,3c0,.23,0,.46,0,.68l0,.64c0,.2,0,.4.07.59a2.74,2.74,0,0,0,.05.28c0,.09,0,.18,0,.26s0,.17.05.25l.06.24c0,.15.08.3.12.43s.08.26.12.37a1.42,1.42,0,0,1,.05.16l0,.08a.19.19,0,0,1,0,.07A2.62,2.62,0,0,1,1.27,22.57Z"/><path class="cls-13" d="M18.38,17.88s3.66,2.84.72,8.72l-1.35.65a5.86,5.86,0,0,1-1,.36l-1.8.46S19.55,20.33,18.38,17.88Z"/><path class="cls-14" d="M4.42,19.25s-1.91-.76-2.06,1.17c-.2,2.65,2,2.63,2,2.63Z"/><path class="cls-15" d="M2.84,20.22s0,0,0-.11a.54.54,0,0,1,.22-.19.76.76,0,0,1,.43,0,.87.87,0,0,1,.46.25,1.59,1.59,0,0,1,.29.42,1.78,1.78,0,0,1,.14.38c0,.23,0,.37,0,.37s-.06-.13-.13-.33a2.62,2.62,0,0,0-.17-.33,1.78,1.78,0,0,0-.27-.36.8.8,0,0,0-.35-.21.66.66,0,0,0-.34,0A1,1,0,0,0,2.84,20.22Z"/><path class="cls-15" d="M4.1,21.71s0,.05,0,.11a.38.38,0,0,1-.29.12.53.53,0,0,1-.41-.23,1.15,1.15,0,0,1-.18-1.05.64.64,0,0,1,.29-.37.44.44,0,0,1,.31,0c.07,0,.09.07.09.08s-.05,0-.11,0a.49.49,0,0,0-.22.08.54.54,0,0,0-.17.3,1,1,0,0,0,0,.45.92.92,0,0,0,.16.42.49.49,0,0,0,.27.2.4.4,0,0,0,.23,0S4.08,21.7,4.1,21.71Z"/><path class="cls-14" d="M18.37,19.25s1.91-.76,2.06,1.17c.21,2.65-2,2.63-2,2.63Z"/><path class="cls-15" d="M20,20.22s-.11-.11-.3-.16a.66.66,0,0,0-.34,0,.86.86,0,0,0-.35.21,1.78,1.78,0,0,0-.27.36,2.45,2.45,0,0,0-.16.33c-.08.2-.1.33-.14.33s0-.14,0-.37a1.78,1.78,0,0,1,.14-.38,1.59,1.59,0,0,1,.29-.42.87.87,0,0,1,.46-.25.74.74,0,0,1,.43,0,.48.48,0,0,1,.22.19C20,20.17,20,20.21,20,20.22Z"/><path class="cls-15" d="M18.69,21.71s0,0,.1.05a.37.37,0,0,0,.22,0,.46.46,0,0,0,.27-.2,1.06,1.06,0,0,0,.17-.42,1.33,1.33,0,0,0,0-.45.55.55,0,0,0-.18-.3.46.46,0,0,0-.22-.08c-.06,0-.09,0-.1,0s0-.05.08-.08a.47.47,0,0,1,.32,0,.67.67,0,0,1,.28.37,1.08,1.08,0,0,1,.05.54,1.18,1.18,0,0,1-.22.51.56.56,0,0,1-.41.23.4.4,0,0,1-.3-.12C18.68,21.76,18.68,21.72,18.69,21.71Z"/><path class="cls-7" d="M11.61,10.85a6.32,6.32,0,0,0-7.32,5.9c-.18,3-.15,6.8.92,8.52,1.87,3,5.32,5,6.81,4.6s6.61-3.62,6.57-7.25-.22-8.69-.22-8.69A16.5,16.5,0,0,0,11.61,10.85Z"/><path class="cls-16" d="M8.79,25.39s1.66,2.32,2.87,1.71a13.68,13.68,0,0,0,2.89-2.53S11.28,26.11,8.79,25.39Z"/><path class="cls-17" d="M10.28,26.87a6.62,6.62,0,0,1,1.38-.76c.56-.18,1.91-.52,1.91-.52S11.75,28.13,10.28,26.87Z"/><path class="cls-18" d="M9.8,25.55c-.47-.06.47.88.94.92a2.82,2.82,0,0,0,.87-.06,8.7,8.7,0,0,0,1.65-.81.93.93,0,0,0,.33-.26.33.33,0,0,0,0-.39A10.07,10.07,0,0,1,9.8,25.55Z"/><path class="cls-15" d="M15.14,24s-.24.37-.84.73a7,7,0,0,1-1.09.52c-.21.08-.44.15-.68.22a6,6,0,0,1-.76.15,7.3,7.3,0,0,1-2.68-.13,2.79,2.79,0,0,1-.76-.33A.66.66,0,0,1,8.16,25s-.05-.07,0-.08,0,0,.09,0a2,2,0,0,0,.2.07,3.31,3.31,0,0,0,.74.18,9.46,9.46,0,0,0,2.57,0,5.55,5.55,0,0,0,.71-.13c.23-.06.45-.12.65-.19a8.44,8.44,0,0,0,1.08-.42C14.77,24.21,15.1,24,15.14,24Z"/><path class="cls-19" d="M12.92,20.35s-.44-2.87,1.34-3.25c1.45-.31,3.16,1.23,3.16,1.23S13.19,16,12.92,20.35Z"/><path class="cls-20" d="M13,20.6s-.43-4.19,4.27-2.16A11.3,11.3,0,0,1,13,20.6Z"/><path class="cls-21" d="M17.6,18.39s-.11,0-.27,0l-.69-.16a8.8,8.8,0,0,0-1-.2,5.35,5.35,0,0,0-.58,0,3.17,3.17,0,0,0-.61.07,1.64,1.64,0,0,0-.52.23,1.6,1.6,0,0,0-.38.4,3.06,3.06,0,0,0-.38.89c-.07.28-.11.52-.15.68s-.07.26-.1.25-.05-.09-.06-.26a3.68,3.68,0,0,1,0-.72,2.59,2.59,0,0,1,.35-1.05,2,2,0,0,1,.45-.52,1.79,1.79,0,0,1,.67-.31,2.9,2.9,0,0,1,.71-.07,3.31,3.31,0,0,1,.64.06,5.66,5.66,0,0,1,1.68.59C17.53,18.31,17.61,18.37,17.6,18.39Z"/><path class="cls-21" d="M13.31,18.71s.54,1.73,1.73,1.13.6-2.05.6-2.05S13.71,17.62,13.31,18.71Z"/><path class="cls-22" d="M16.26,18.49c0,.11-.26.25-.62.3s-.66,0-.68-.1.26-.26.62-.31S16.25,18.37,16.26,18.49Z"/><path class="cls-19" d="M12.92,20.35s-.44-2.87,1.34-3.25c1.45-.31,3.16,1.23,3.16,1.23S13.19,16,12.92,20.35Z"/><path class="cls-20" d="M13,20.6s-.43-4.19,4.27-2.16A11.3,11.3,0,0,1,13,20.6Z"/><path class="cls-21" d="M17.6,18.39s-.11,0-.27,0l-.69-.16a8.8,8.8,0,0,0-1-.2,5.35,5.35,0,0,0-.58,0,3.17,3.17,0,0,0-.61.07,1.64,1.64,0,0,0-.52.23,1.6,1.6,0,0,0-.38.4,3.06,3.06,0,0,0-.38.89c-.07.28-.11.52-.15.68s-.07.26-.1.25-.05-.09-.06-.26a3.68,3.68,0,0,1,0-.72,2.59,2.59,0,0,1,.35-1.05,2,2,0,0,1,.45-.52,1.79,1.79,0,0,1,.67-.31,2.9,2.9,0,0,1,.71-.07,3.31,3.31,0,0,1,.64.06,5.66,5.66,0,0,1,1.68.59C17.53,18.31,17.61,18.37,17.6,18.39Z"/><path class="cls-21" d="M13.31,18.71s.54,1.73,1.73,1.13.6-2.05.6-2.05S13.71,17.62,13.31,18.71Z"/><path class="cls-22" d="M16.26,18.49c0,.11-.26.25-.62.3s-.66,0-.68-.1.26-.26.62-.31S16.25,18.37,16.26,18.49Z"/><path class="cls-19" d="M9.12,20.69s.24-2.88-1.57-3.14C6.08,17.34,4.49,19,4.49,19S8.54,16.34,9.12,20.69Z"/><path class="cls-20" d="M9.08,21s.13-4.21-4.41-1.85A11.2,11.2,0,0,0,9.08,21Z"/><path class="cls-21" d="M4.32,19.08s.06-.09.2-.18a5.34,5.34,0,0,1,.63-.34,5.27,5.27,0,0,1,1-.37,3.93,3.93,0,0,1,.63-.11,3.41,3.41,0,0,1,.71,0,1.91,1.91,0,0,1,.7.26,2,2,0,0,1,.48.48,2.7,2.7,0,0,1,.42,1,4.75,4.75,0,0,1,.08.71c0,.17,0,.27,0,.27s-.07-.08-.12-.24-.1-.39-.2-.67a2.6,2.6,0,0,0-.44-.86,1.57,1.57,0,0,0-.4-.37,1.51,1.51,0,0,0-.54-.2,3.11,3.11,0,0,0-.61,0,5.11,5.11,0,0,0-.58.07,8,8,0,0,0-1,.27l-.67.21C4.43,19.09,4.33,19.11,4.32,19.08Z"/><path class="cls-21" d="M8.62,19.08S8.2,20.85,7,20.34s-.75-2-.75-2S8.14,18,8.62,19.08Z"/><path class="cls-22" d="M7.78,19.54c.07-.09.36,0,.64.26s.44.5.37.59-.36,0-.64-.26S7.7,19.63,7.78,19.54Z"/><path class="cls-15" d="M11.48,23.85s-.18.06-.49,0a3.07,3.07,0,0,1-1.25-.45l-.21-.13.21-.15a7.12,7.12,0,0,0,.84-.76,2.93,2.93,0,0,0,.39-.48,1.1,1.1,0,0,0,.19-.56,4.68,4.68,0,0,0,0-.83q0-.4-.09-.78c-.07-.5-.16-.95-.25-1.33a5.55,5.55,0,0,1-.26-1.23,2.86,2.86,0,0,1,.55,1.15,10.3,10.3,0,0,1,.35,1.34c0,.26.08.53.11.81s0,.29,0,.44a2.46,2.46,0,0,1,0,.47,1.36,1.36,0,0,1-.08.39,1.64,1.64,0,0,1-.18.35,3.07,3.07,0,0,1-.45.54,6.15,6.15,0,0,1-.94.76v-.28a3.92,3.92,0,0,0,1.1.54C11.31,23.78,11.48,23.81,11.48,23.85Z"/><g class="cls-23"><path class="cls-15" d="M18,21.43a1.18,1.18,0,0,1-.57,1,4.07,4.07,0,0,1-1.54.69,4.1,4.1,0,0,1-1.68.09,1.18,1.18,0,0,1-.95-.62,1.05,1.05,0,0,1,.4-1.09,3.63,3.63,0,0,1,1.64-.84,3.68,3.68,0,0,1,1.84,0C17.6,20.8,17.92,21.09,18,21.43Z"/></g><g class="cls-23"><path class="cls-15" d="M9.26,22.76a1.17,1.17,0,0,1-.93.65,4.23,4.23,0,0,1-1.69,0,4.15,4.15,0,0,1-1.56-.65,1.17,1.17,0,0,1-.59-1c0-.35.34-.64.83-.8a3.65,3.65,0,0,1,1.85-.06,3.63,3.63,0,0,1,1.66.8A1,1,0,0,1,9.26,22.76Z"/></g><g class="cls-24"><path class="cls-15" d="M12.81,26.75c0,.07,0,.23-.2.43a2.51,2.51,0,0,1-.37.32,1.92,1.92,0,0,1-.58.25,1.51,1.51,0,0,1-.67,0,1.2,1.2,0,0,1-.48-.24c-.23-.19-.29-.37-.24-.43s.22,0,.45,0,.24.05.36.06a1.67,1.67,0,0,0,.43-.05,6.21,6.21,0,0,0,.84-.31C12.58,26.72,12.76,26.68,12.81,26.75Z"/></g><path class="cls-25" d="M16.39,16.26c0,.12-.25.22-.64.33l-.69.18-.83.21-.83.22-.69.18c-.4.09-.67.12-.72,0s.12-.33.48-.57a4.12,4.12,0,0,1,.67-.36,5,5,0,0,1,.88-.31,6.72,6.72,0,0,1,.91-.16,4.79,4.79,0,0,1,.76,0C16.13,16,16.39,16.15,16.39,16.26Z"/><path class="cls-25" d="M8.43,17.37c-.09.09-.28,0-.54,0l-.1,0-.11,0-.24-.06c-.16,0-.34-.07-.54-.1l-.54,0H5.9c-.27,0-.47,0-.53-.09s0-.12,0-.21a.71.71,0,0,1,.12-.13.72.72,0,0,1,.19-.14l.11-.06A.59.59,0,0,1,6,16.41a1.32,1.32,0,0,1,.3-.09,2.25,2.25,0,0,1,.74,0,2.12,2.12,0,0,1,.7.2,1.87,1.87,0,0,1,.28.16l.11.09.1.09a1.19,1.19,0,0,1,.15.18.44.44,0,0,1,.08.15Q8.49,17.31,8.43,17.37Z"/><path class="cls-13" d="M4.94,7.14S8,5.75,9.08,8.67c1.2,3.13,6.34,9.82,12.18,8.86,0,0-10.42-13.76-15.81-11.25l-.31.19"/><path class="cls-26" d="M5,6.86c0,.19,3-2.65,5.28,2.45s7.26,8.18,10.68,8.2c2.68,0,1,3.76,1,3.76s4.81-9.34-1.83-10.41c-6.47-1-7.8-8.26-13.08-6.58A4.3,4.3,0,0,0,5,6.86Z"/><g class="cls-27"><path class="cls-12" d="M23.72,13.92l-.2.13-.61.29a7.35,7.35,0,0,1-1,.32,7.12,7.12,0,0,1-1.41.18,7,7,0,0,1-1.71-.18,6.74,6.74,0,0,1-1.85-.72,7,7,0,0,1-1.72-1.35,9.37,9.37,0,0,1-1.33-1.92c-.39-.7-.73-1.4-1.1-2.05a9.58,9.58,0,0,0-1.21-1.76,5.07,5.07,0,0,0-.72-.68L10.65,6l-.2-.12a4.1,4.1,0,0,0-.4-.23,4.6,4.6,0,0,0-1.61-.45,4.78,4.78,0,0,0-1.38,0,4.93,4.93,0,0,0-1,.29l-.19.08-.16.08-.14.07-.11.06c-.13.08-.2.12-.21.11l.19-.14.1-.08.14-.07.16-.09L6,5.49a4.07,4.07,0,0,1,1-.33,4.61,4.61,0,0,1,1.42-.08,4.77,4.77,0,0,1,1.67.44c.13.08.28.14.41.23l.21.13L11,6a4.94,4.94,0,0,1,.75.7A9.74,9.74,0,0,1,13,8.51c.38.66.72,1.36,1.1,2.05a8.94,8.94,0,0,0,1.31,1.89A6.89,6.89,0,0,0,17,13.78a7,7,0,0,0,1.79.71,6.72,6.72,0,0,0,1.67.2,6.27,6.27,0,0,0,1.38-.15,6.57,6.57,0,0,0,1-.28C23.43,14.06,23.71,13.9,23.72,13.92Z"/></g><g class="cls-27"><path class="cls-12" d="M23.41,17.61v-.06s0-.05,0-.08v-.1s0-.09,0-.14a.83.83,0,0,0,0-.15,1.18,1.18,0,0,0-.17-.36,1.87,1.87,0,0,0-.85-.68,3.13,3.13,0,0,0-.67-.16,6.35,6.35,0,0,0-.78,0H20c-.3,0-.62,0-.94-.05a14.55,14.55,0,0,1-2.07-.3,8,8,0,0,1-1.1-.32,3.7,3.7,0,0,1-1-.6,4.57,4.57,0,0,1-.45-.43,6,6,0,0,1-.39-.49,7,7,0,0,1-.6-1.12,21,21,0,0,1-.81-2.34,9.29,9.29,0,0,0-.92-2.07A4.53,4.53,0,0,0,10.27,6.7a5.34,5.34,0,0,0-3.1-.83l-.31,0-.29,0L6.43,6,6.3,6,6.07,6a5.19,5.19,0,0,0-.67.24.88.88,0,0,1-.23.08l.21-.12A3.4,3.4,0,0,1,6,6l.24-.06.13,0,.14,0,.29,0,.32,0a5.78,5.78,0,0,1,1.51.11,5.49,5.49,0,0,1,1.7.69A4.84,4.84,0,0,1,11.87,8a9.07,9.07,0,0,1,1,2.12c.25.76.47,1.55.81,2.32a6.6,6.6,0,0,0,.59,1.08,5.82,5.82,0,0,0,.36.47,4.12,4.12,0,0,0,.43.41A3.86,3.86,0,0,0,16,15a7.12,7.12,0,0,0,1.06.32,16.16,16.16,0,0,0,2,.32l.94.06h.86a6.67,6.67,0,0,1,.8.06,2.79,2.79,0,0,1,.69.18,2,2,0,0,1,.88.74,1.53,1.53,0,0,1,.16.39,1,1,0,0,1,0,.17.62.62,0,0,1,0,.13v.11s0,.06,0,.08S23.42,17.61,23.41,17.61Z"/></g><path class="cls-28" d="M2.62,35v7.77s8.06,9.22,5.47,15.13L4.35,63.18s4.75,8.21,8.35,7.49c0,0,5.62-15.12,2.16-23.26A56.76,56.76,0,0,0,6.65,33.79Z"/><path class="cls-28" d="M14.86,33.79,18.17,35s6.34,11.28,4.61,17.3L23,71.35s-4.06,1-4-2.84,2.52-20.17,1.36-22.33S14.86,33.79,14.86,33.79Z"/><polygon class="cls-9" points="12.31 34.62 14.02 37.7 12.72 34.62 12.72 32.9 11.49 32.49 12.31 34.62"/><path class="cls-29" d="M9.75,31.46a2.31,2.31,0,0,0,.44,1.33,2.93,2.93,0,0,0,2.12.54v1.29s-2.42.08-2.52-1.44Z"/><path class="cls-29" d="M12.72,33.39v1.23a1.74,1.74,0,0,0,.74-1.35v-.74a1.1,1.1,0,0,0-.24-.67h0S13.46,33.11,12.72,33.39Z"/><g class="cls-27"><path class="cls-12" d="M16.56,69.19a2,2,0,0,1,0-.33c0-.21,0-.53.08-.93.07-.81.18-2,.32-3.43s.29-3.17.44-5.08c0-.48.07-1,.1-1.47s.07-1,.1-1.54c0-.26,0-.52,0-.79s0-.53,0-.8,0-.54,0-.81,0-.55,0-.83A27.77,27.77,0,0,0,17.49,50c-.12-1-.29-2-.47-3a38.79,38.79,0,0,0-1.35-4.91c-.48-1.37-.94-2.45-1.28-3.19-.16-.37-.3-.65-.39-.85a2,2,0,0,1-.12-.3L14,38c.1.19.25.47.43.84A32.21,32.21,0,0,1,15.81,42,38,38,0,0,1,17.21,47c.19.94.36,1.94.49,3,0,.26.05.53.08.79s0,.54.07.81,0,.27,0,.4,0,.28,0,.41,0,.28,0,.42v.41c0,.28,0,.56,0,.83s0,.55,0,.82l0,.8c0,.27,0,.53,0,.79,0,.53-.06,1-.09,1.54s-.08,1-.12,1.47c-.16,1.92-.33,3.64-.48,5.09s-.29,2.61-.39,3.42c-.05.4-.09.71-.11.93A1.43,1.43,0,0,1,16.56,69.19Z"/></g><path class="cls-7" d="M11.6,54.65s3.33.6,5.43-.29c0,0,2.71-2.89,2.84-2.61s-1.75,2.82-1.56,2.75,6.24.64,5.78,1.1l-7.9.4a22.59,22.59,0,0,1-4.25,0Z"/><polygon class="cls-1" points="12.04 54.49 13.24 54.49 13.49 56.12 11.83 56.17 12.04 54.49"/><path class="cls-8" d="M3.62,34.7A3.14,3.14,0,0,0,.74,37.58c-.29,2.74-2.16,21.9,1.44,22s9.94-3.17,9.94-3.17V54.29l-6.06-.43S7.8,35.28,3.62,34.7Z"/><polygon class="cls-8" points="8.98 60.37 8.04 61.47 11.6 64.83 12.12 63.56 8.98 60.37"/><polygon class="cls-8" points="22.44 64.47 22.44 65.69 22.9 65.69 22.89 64.47 22.44 64.47"/><path d="M14.86,74.56a3.42,3.42,0,0,1,.87.18l-.09.06c0-.59.08-1.43.16-2.37s.15-1.71.22-2.29a3.92,3.92,0,0,1,.15-1,4.85,4.85,0,0,1,0,1c0,.59-.09,1.4-.16,2.3s-.16,1.78-.22,2.36l0,.09-.08,0A5,5,0,0,1,14.86,74.56Z"/><path d="M9.78,69.66s0,.07-.13.14l-.08.07-.1.07-.24.16-.15.08-.17.08a3.34,3.34,0,0,1-.38.15l-.21.07-.11,0-.11,0a4,4,0,0,1-.48.09,4.22,4.22,0,0,1-.49,0H6.68c-.15,0-.28,0-.41-.06l-.18,0-.17,0-.28-.09-.11,0-.09-.05c-.11,0-.17-.08-.16-.1s.07,0,.19,0l.09,0,.12,0,.28,0,.16,0,.18,0c.12,0,.25,0,.39,0a1.47,1.47,0,0,0,.21,0h.22a3.73,3.73,0,0,0,.47,0,3.4,3.4,0,0,0,.46-.08l.11,0,.1,0,.21-.06a3.19,3.19,0,0,0,.37-.13L9,70,9.16,70l.25-.12.11-.06.08,0C9.71,69.68,9.77,69.65,9.78,69.66Z"/><path d="M13.8,99.32a5,5,0,0,1-1.11.38,4.7,4.7,0,0,1-1.13.32s.1-.1.29-.2a4.76,4.76,0,0,1,.78-.32,4,4,0,0,1,.82-.18C13.66,99.29,13.79,99.29,13.8,99.32Z"/><path d="M13.61,99.14s0,0-.08,0l-.1,0-.14,0a2,2,0,0,1-.36,0l-.21,0-.23,0-.21-.08-.2-.09a1.42,1.42,0,0,1-.3-.2l-.1-.09s-.06,0-.07-.08,0-.07,0-.08,0,0,.09,0l.09.05.11.06.31.14.18.08.2.06.21.06.19,0a2.38,2.38,0,0,0,.34,0h.23C13.57,99.12,13.61,99.13,13.61,99.14Z"/><path d="M25.48,102.56a2.21,2.21,0,0,1-.93-.2,2.28,2.28,0,0,1-.85-.4,2,2,0,0,1,.92.2C25.11,102.33,25.5,102.5,25.48,102.56Z"/><path class="cls-8" d="M14.22,130.76l1.14-.29s4.07.36,3.67.72-4.93-.11-4.81-.36S14.22,130.76,14.22,130.76Z"/></g></g></svg>