<svg xmlns="http://www.w3.org/2000/svg" viewBox="0 0 62.03 76.47"><defs><style>.cls-1{fill:#1a1b1e;}.cls-2{fill:#0d0e0f;}.cls-3{fill:#e5b699;}.cls-4{fill:#e8e8e8;}.cls-5{fill:#c38e79;}.cls-6,.cls-9{fill:#995e52;}.cls-6{opacity:0.28;}.cls-7{fill:#c1ad9f;}.cls-8{fill:#a08472;}.cls-9{opacity:0.22;}.cls-10{fill:#e2ad8f;}.cls-11{fill:#d68772;}.cls-12{opacity:0.19;}.cls-13{fill:#f5f0e1;}.cls-14{opacity:0.51;}.cls-15{fill:#3a3047;}.cls-16{fill:#aa8b71;}.cls-17{fill:#dbdbdb;}.cls-18{fill:none;}</style></defs><title>meditationРесурс 4</title><g id="Слой_2" data-name="Слой 2"><g id="Objects"><path class="cls-1" d="M38.09,60.8s4.16.77,7.44,1.77c4,1.21,10.85,3.49,13.29,6.14s2.13,3.44,1.62,3.85S26.81,70,26.81,70L24,64Z"/><path class="cls-2" d="M28.41,67.58a1.29,1.29,0,0,1,.29,0h.82c.72,0,1.76,0,3,0A29.46,29.46,0,0,0,37,67.21a20.42,20.42,0,0,0,2.57-.63c.88-.26,1.78-.57,2.73-.83a11.81,11.81,0,0,1,2.83-.48,11.63,11.63,0,0,1,2.67.19,16.5,16.5,0,0,1,4.28,1.43,26.53,26.53,0,0,1,2.65,1.47l.7.44.23.17a1.34,1.34,0,0,1-.25-.13l-.72-.41c-.62-.36-1.52-.87-2.68-1.41a17.4,17.4,0,0,0-4.25-1.37,12.45,12.45,0,0,0-2.62-.18,12.65,12.65,0,0,0-2.79.48c-.93.26-1.84.57-2.72.83a20.34,20.34,0,0,1-2.6.62,28.18,28.18,0,0,1-4.49.34c-1.29,0-2.32,0-3-.08l-.82,0Z"/><path class="cls-3" d="M54.24,66.41l-1.18-1.78.51-.79,1.21,1.24s1.51-1.61,2.69-1,.74,1.21.11,1-1.31.25-.6.72,1.84.74,2,0,.63-1.74.77-.88.2,2-1,2A34.73,34.73,0,0,1,62,68.13s.48.69-3.62-.48c0,0,2.27,1.3,1.83,1.4s-2.5-1.17-2.5-1.17,2,1.74,1.3,1.69a20.68,20.68,0,0,1-3.91-2.28A3,3,0,0,1,54.24,66.41Z"/><polygon class="cls-3" points="20.15 70.23 16.93 71.27 17.1 72.52 20.34 71.37 20.15 70.23"/><path class="cls-1" d="M16.93,71.27l.48,1.17s.2,4.39-.24,4-.59-5.26-.31-5.17S16.93,71.27,16.93,71.27Z"/><path class="cls-1" d="M26,60.8s-4.15.77-7.44,1.77c-4,1.21-10.84,3.49-13.28,6.14s-2.14,3.44-1.63,3.85S37.27,70,37.27,70L40.11,64Z"/><path class="cls-4" d="M36.8,31.25a3.36,3.36,0,0,1,4.14,1.43c1.56,2.51,2.22,14.71,4.64,17.74,2.9,3.63,5.85,5.49,9,14l-1.92.23L42.35,54.3S33,33.76,36.8,31.25Z"/><path class="cls-4" d="M23.51,31.37c-1.2.37,11.19-2,14.82-.21l1.56,10.13-1.2,13,1.62,9.17s-14.61,6.6-16.13-2.27a12.48,12.48,0,0,0,1.19-12.57c-1.58-3.72-2.68-12.37-2.68-12.37Z"/><polygon class="cls-5" points="31.4 32.85 32.64 36.53 31.85 32.85 31.85 31 30.52 30.56 31.4 32.85"/><path class="cls-5" d="M28.73,27.24v3.49a1.36,1.36,0,0,0,1.37,1.36h1.19a1.26,1.26,0,0,0,1.25-1.26v-4Z"/><path class="cls-6" d="M28.73,27.24v1s1.49.92,3.81-.5l.11-1.06Z"/><path class="cls-7" d="M24.93,8.84S21.18,2.39,26.14.56,33.88,6.34,39,7.15,44.61,12,42.23,17.81,41,22.49,39.86,23.58s-7,4.08-14.61,1.7-8-15.22-5.36-18.75S24.93,8.84,24.93,8.84Z"/><path class="cls-8" d="M23.28,24.46l-.15-.1L22.74,24l-.27-.26c-.09-.1-.2-.2-.3-.32a8.34,8.34,0,0,1-.66-.86A9.93,9.93,0,0,1,20.29,20a11.13,11.13,0,0,1-.37-1.63,11.46,11.46,0,0,1-.14-1.78,15,15,0,0,1,.09-1.79,13.65,13.65,0,0,1,.29-1.64,8,8,0,0,1,.48-1.43,4.19,4.19,0,0,1,.71-1.13,1.7,1.7,0,0,1,.95-.55,1.32,1.32,0,0,1,.82.1.9.9,0,0,1,.41.33l.06.12s0,0,0,0l0,0a.48.48,0,0,0-.08-.1,1,1,0,0,0-.4-.29,1.37,1.37,0,0,0-.77-.06,1.73,1.73,0,0,0-.86.54,4.17,4.17,0,0,0-.66,1.1,8.52,8.52,0,0,0-.45,1.4,13.35,13.35,0,0,0-.27,1.62A14.56,14.56,0,0,0,20,16.62a12.4,12.4,0,0,0,.14,1.75,10.74,10.74,0,0,0,.35,1.6,9.94,9.94,0,0,0,1.15,2.53,8.38,8.38,0,0,0,.63.86c.09.13.19.23.28.34s.18.18.25.27l.37.35C23.25,24.41,23.29,24.45,23.28,24.46Z"/><path class="cls-9" d="M25.37,9.1S20.27,3.47,19.54,16a9.91,9.91,0,0,0,2.61,7.32A8.15,8.15,0,0,0,27.06,26Z"/><path class="cls-8" d="M25.53,2.42s0,0,0,.06l-.13.14a2.88,2.88,0,0,0-.39.57,3.16,3.16,0,0,0-.28,1,3.61,3.61,0,0,0,.08,1.25,6.49,6.49,0,0,0,.41,1.2c.16.36.32.68.46.94a4.39,4.39,0,0,0,.38.59c.1.13.17.19.16.2s-.09,0-.22-.15a2.64,2.64,0,0,1-.45-.56c-.15-.26-.33-.58-.51-.94a5.72,5.72,0,0,1-.44-1.23,3.73,3.73,0,0,1-.06-1.32,3,3,0,0,1,.34-1,2,2,0,0,1,.47-.56.57.57,0,0,1,.16-.11S25.53,2.41,25.53,2.42Z"/><path class="cls-8" d="M40.86,21.49a1.68,1.68,0,0,1,.09-.3,3.56,3.56,0,0,0,.19-.82,4.3,4.3,0,0,0,0-1.23,4.93,4.93,0,0,0-.18-.71,5.62,5.62,0,0,0-.3-.73,7.17,7.17,0,0,0-.84-1.27,11.48,11.48,0,0,0-.86-.92c-.51-.49-.86-.78-.84-.8a4.14,4.14,0,0,1,.94.69,8.64,8.64,0,0,1,.91.91,6.86,6.86,0,0,1,.88,1.3,5.94,5.94,0,0,1,.31.75,5.7,5.7,0,0,1,.17.75,3.88,3.88,0,0,1,0,1.28,3.26,3.26,0,0,1-.26.83C40.94,21.4,40.87,21.5,40.86,21.49Z"/><path class="cls-8" d="M37.47,24.93a4.29,4.29,0,0,1,.41-.66c.06-.1.13-.21.2-.34l.22-.39a8.3,8.3,0,0,0,.4-.94,9.47,9.47,0,0,0,.28-1c0-.15.07-.3.09-.44l0-.2c0-.07,0-.13,0-.19a4.59,4.59,0,0,1,.09-.77,2.09,2.09,0,0,1,.06.78c0,.07,0,.13,0,.2s0,.13,0,.2a4,4,0,0,1-.07.46,7.77,7.77,0,0,1-.27,1,8.62,8.62,0,0,1-.43,1q-.12.21-.24.39a2.13,2.13,0,0,1-.23.33C37.71,24.75,37.49,25,37.47,24.93Z"/><path class="cls-8" d="M19.71,19.93a3.19,3.19,0,0,1-.31-.59l0-.07,0-.08c0-.06-.05-.11-.07-.18s-.1-.25-.15-.39-.09-.3-.14-.47-.05-.16-.08-.25l-.06-.27-.06-.29-.06-.3-.09-.65c0-.22,0-.46-.05-.69V15a10.69,10.69,0,0,1,.57-3.24A10.32,10.32,0,0,1,20.66,8.8a4.51,4.51,0,0,1,.48-.57,2,2,0,0,1,.58-.43,2.13,2.13,0,0,1,.33-.11,1.8,1.8,0,0,1,.32-.06,2.54,2.54,0,0,1,.62,0A3.39,3.39,0,0,1,24,8a5.58,5.58,0,0,1,.66.41l.39.3c.09.07.13.11.13.12a4.85,4.85,0,0,1-.56-.35c-.18-.11-.41-.24-.68-.37a3.54,3.54,0,0,0-1-.29,2.81,2.81,0,0,0-.58,0,1.59,1.59,0,0,0-.3.06A1.45,1.45,0,0,0,21.8,8a2.72,2.72,0,0,0-1,1,10.34,10.34,0,0,0-1.47,2.87A10.92,10.92,0,0,0,18.77,15c0,.25,0,.49,0,.73s0,.46,0,.68.05.44.07.64,0,.2.05.3l.06.28c0,.1,0,.19.05.28l.07.25c0,.16.08.32.12.46l.13.4.06.18,0,.08,0,.07A5.46,5.46,0,0,1,19.71,19.93Z"/><path class="cls-9" d="M38.09,14.9s3.93,3,.78,9.36L37.41,25a5.57,5.57,0,0,1-1.06.38l-1.93.5S39.35,17.53,38.09,14.9Z"/><path class="cls-10" d="M23.09,16.37s-2.05-.82-2.21,1.25C20.65,20.48,23,20.46,23,20.46Z"/><path class="cls-11" d="M21.39,17.41s0-.05,0-.12a.54.54,0,0,1,.24-.19.69.69,0,0,1,.46-.05.92.92,0,0,1,.49.27,1.69,1.69,0,0,1,.31.44,2.32,2.32,0,0,1,.15.41c.05.25,0,.4,0,.4s-.05-.14-.13-.35a3,3,0,0,0-.18-.36,1.8,1.8,0,0,0-.29-.39.81.81,0,0,0-.38-.23.66.66,0,0,0-.37,0A.9.9,0,0,0,21.39,17.41Z"/><path class="cls-11" d="M22.74,19s0,.06,0,.12a.39.39,0,0,1-.31.12A.61.61,0,0,1,22,19a1.14,1.14,0,0,1-.23-.54,1.16,1.16,0,0,1,0-.59.71.71,0,0,1,.3-.39.42.42,0,0,1,.34,0c.07,0,.1.07.09.08s0,0-.11,0a.45.45,0,0,0-.24.08.87.87,0,0,0-.21.81,1.1,1.1,0,0,0,.17.46.52.52,0,0,0,.3.21.39.39,0,0,0,.25,0C22.7,19,22.73,19,22.74,19Z"/><path class="cls-10" d="M38.08,16.37s2.06-.82,2.22,1.25c.22,2.86-2.17,2.84-2.17,2.84Z"/><path class="cls-11" d="M39.79,17.41s-.11-.12-.32-.17a.63.63,0,0,0-.36,0,.84.84,0,0,0-.39.23,1.8,1.8,0,0,0-.29.39,2.84,2.84,0,0,0-.17.36c-.09.21-.11.35-.14.35s-.06-.15,0-.4a1.66,1.66,0,0,1,.14-.41,2,2,0,0,1,.31-.44,1,1,0,0,1,.49-.27.69.69,0,0,1,.46.05.54.54,0,0,1,.24.19C39.8,17.36,39.8,17.4,39.79,17.41Z"/><path class="cls-11" d="M38.43,19s0,0,.1,0a.37.37,0,0,0,.25,0,.5.5,0,0,0,.29-.21,1.27,1.27,0,0,0,.18-.46.87.87,0,0,0-.22-.81.43.43,0,0,0-.24-.08c-.06,0-.1,0-.11,0s0-.05.1-.08a.4.4,0,0,1,.33,0,.67.67,0,0,1,.3.39,1.28,1.28,0,0,1,.05.59,1.26,1.26,0,0,1-.24.54.6.6,0,0,1-.43.24.37.37,0,0,1-.31-.12C38.42,19.07,38.42,19,38.43,19Z"/><path class="cls-3" d="M30.82,7.33a6.82,6.82,0,0,0-7.88,6.35c-.18,3.21-.15,7.31,1,9.15,2,3.26,5.73,5.36,7.33,5s7.1-3.89,7.06-7.79-.23-9.34-.23-9.34A17.76,17.76,0,0,0,30.82,7.33Z"/><path class="cls-11" d="M30.68,21.31s-.19.06-.53,0a3.3,3.3,0,0,1-1.34-.48l-.21-.13.21-.16a5.52,5.52,0,0,0,.91-.81,3,3,0,0,0,.43-.52,1.38,1.38,0,0,0,.2-.61,5.37,5.37,0,0,0,0-.89c0-.29-.06-.57-.1-.84-.08-.54-.18-1-.27-1.43a6.19,6.19,0,0,1-.29-1.32,3.37,3.37,0,0,1,.58,1.24,11.17,11.17,0,0,1,.36,1.44,7.91,7.91,0,0,1,.13.87c0,.16,0,.31,0,.47a2.78,2.78,0,0,1,0,.5,1.5,1.5,0,0,1-.09.42,2.22,2.22,0,0,1-.18.38A4,4,0,0,1,30,20a5.6,5.6,0,0,1-1,.82v-.29a3.75,3.75,0,0,0,1.19.58C30.5,21.24,30.68,21.27,30.68,21.31Z"/><g class="cls-12"><path class="cls-11" d="M37.64,18.71a1.19,1.19,0,0,1-.62,1,5.12,5.12,0,0,1-1.66.72,4.81,4.81,0,0,1-1.81.11,1.19,1.19,0,0,1-1-.6c-.12-.32.05-.73.46-1.1a4.47,4.47,0,0,1,3.73-.9C37.26,18.09,37.6,18.37,37.64,18.71Z"/></g><g class="cls-12"><path class="cls-11" d="M28.29,20.14a1.16,1.16,0,0,1-1,.63,4.91,4.91,0,0,1-1.81-.07A4.7,4.7,0,0,1,23.81,20a1.18,1.18,0,0,1-.64-1c0-.34.36-.63.88-.79a3.92,3.92,0,0,1,2,0,4,4,0,0,1,1.79.82C28.22,19.41,28.41,19.81,28.29,20.14Z"/></g><path class="cls-9" d="M23.65,3.35S26.9,1.85,28.1,5c1.29,3.36,6.81,10.56,13.09,9.53,0,0-11.2-14.79-17-12.1l-.34.21"/><path class="cls-13" d="M23.72,3.05c-.06.21,3.24-2.86,5.67,2.63s7.81,8.79,11.48,8.82c2.88,0,1.07,4,1.07,4s5.18-10-2-11.2C33,6.22,31.59-1.53,25.91.27A4.61,4.61,0,0,0,23.72,3.05Z"/><g class="cls-14"><path class="cls-8" d="M43.83,10.64l-.21.13c-.15.08-.37.19-.66.31a7,7,0,0,1-1.09.35,7.41,7.41,0,0,1-1.52.19,7.62,7.62,0,0,1-1.84-.19,7.5,7.5,0,0,1-2-.77A7.87,7.87,0,0,1,34.68,9.2a10.49,10.49,0,0,1-1.43-2.06c-.42-.75-.78-1.51-1.18-2.21A10.67,10.67,0,0,0,30.77,3,6.63,6.63,0,0,0,30,2.31l-.21-.16A1.48,1.48,0,0,0,29.57,2a4.77,4.77,0,0,0-.43-.25,5.06,5.06,0,0,0-1.73-.48,5.17,5.17,0,0,0-1.49.05,4.69,4.69,0,0,0-1.08.31l-.21.09-.17.08-.15.07L24.19,2a.85.85,0,0,1-.22.11,1.31,1.31,0,0,1,.2-.15l.12-.08.14-.08.17-.1.21-.09a4.48,4.48,0,0,1,1.09-.36,5.35,5.35,0,0,1,1.53-.08,5.26,5.26,0,0,1,1.79.48,4.92,4.92,0,0,1,.45.24l.22.14.21.16a5.72,5.72,0,0,1,.81.75,10.41,10.41,0,0,1,1.34,1.92c.4.71.77,1.46,1.18,2.2a10,10,0,0,0,1.41,2,7.51,7.51,0,0,0,1.79,1.43,7.71,7.71,0,0,0,1.92.77,7.85,7.85,0,0,0,1.8.21,7.24,7.24,0,0,0,1.49-.16,9,9,0,0,0,1.09-.3C43.52,10.79,43.82,10.62,43.83,10.64Z"/></g><g class="cls-14"><path class="cls-8" d="M43.5,14.61v-.07s0,0,0-.09v-.11s0-.09,0-.14a1.36,1.36,0,0,0,0-.17,1.39,1.39,0,0,0-.19-.39,2,2,0,0,0-.91-.72,2.53,2.53,0,0,0-.72-.18c-.26,0-.54,0-.84-.05h-.93c-.33,0-.67,0-1,0a17,17,0,0,1-2.22-.33A7.42,7.42,0,0,1,35.45,12a4.05,4.05,0,0,1-1.12-.64,5.22,5.22,0,0,1-.48-.46,5.34,5.34,0,0,1-.41-.53,6.61,6.61,0,0,1-.65-1.2,25.13,25.13,0,0,1-.88-2.51,9.41,9.41,0,0,0-1-2.23,4.91,4.91,0,0,0-1.55-1.53,5.62,5.62,0,0,0-1.76-.74A6,6,0,0,0,26,2a5.2,5.2,0,0,0-1.18.19,9.33,9.33,0,0,0-1,.34l.23-.14a6.16,6.16,0,0,1,.71-.28A5.25,5.25,0,0,1,26,1.86a5.81,5.81,0,0,1,3.44.86,5.11,5.11,0,0,1,1.61,1.57,9.75,9.75,0,0,1,1,2.27c.27.82.51,1.67.87,2.5a7.6,7.6,0,0,0,.63,1.16,5,5,0,0,0,.4.51,3.73,3.73,0,0,0,.45.44,3.89,3.89,0,0,0,1.06.61,7.1,7.1,0,0,0,1.14.35,16.86,16.86,0,0,0,2.2.34l1,.06.94,0a5.77,5.77,0,0,1,.85.06,3.44,3.44,0,0,1,.75.2,2,2,0,0,1,.93.79,1.32,1.32,0,0,1,.18.41,1.35,1.35,0,0,1,0,.18.86.86,0,0,1,0,.15s0,.08,0,.12a.19.19,0,0,1,0,.08S43.51,14.61,43.5,14.61Z"/></g><path class="cls-15" d="M23.71,15.46s.11,0,.25.16.32.29.55.51a8,8,0,0,0,.83.71,4.79,4.79,0,0,0,.53.34,3,3,0,0,0,.61.26,1.7,1.7,0,0,0,.62.06,1.9,1.9,0,0,0,.57-.18,3.26,3.26,0,0,0,.83-.64c.21-.23.37-.43.49-.56s.2-.21.22-.19,0,.11-.08.28a4.49,4.49,0,0,1-.41.66,2.71,2.71,0,0,1-.87.79,1.89,1.89,0,0,1-.69.25,2.12,2.12,0,0,1-.79-.06,3.45,3.45,0,0,1-.7-.31,4.07,4.07,0,0,1-.57-.39,6.53,6.53,0,0,1-1.27-1.43C23.74,15.57,23.69,15.48,23.71,15.46Z"/><path class="cls-15" d="M37.13,15.46s0,.11-.12.26a6.78,6.78,0,0,1-.46.62,6.16,6.16,0,0,1-.81.81,4.07,4.07,0,0,1-.57.39,3.45,3.45,0,0,1-.7.31,2.1,2.1,0,0,1-.79.06,2,2,0,0,1-.69-.25,2.82,2.82,0,0,1-.87-.79,4.26,4.26,0,0,1-.4-.66c-.08-.17-.11-.26-.09-.28s.1.05.22.19l.5.56a2.94,2.94,0,0,0,.83.64,1.75,1.75,0,0,0,.56.18,1.66,1.66,0,0,0,.62-.06,2.73,2.73,0,0,0,.61-.26,4,4,0,0,0,.53-.34,8.16,8.16,0,0,0,.84-.71c.23-.22.41-.4.55-.51S37.11,15.44,37.13,15.46Z"/><path class="cls-11" d="M32.75,21.72s-.11.26-.4.57a5.06,5.06,0,0,1-.57.5,2.7,2.7,0,0,1-.87.41,1.79,1.79,0,0,1-.51.07,1,1,0,0,1-.24,0H30l-.11,0a2.35,2.35,0,0,1-.71-.32,2.38,2.38,0,0,1-.41-.31c-.08-.08-.12-.14-.11-.16s.09,0,.2,0l.46.19a3.33,3.33,0,0,0,.65.2,1.82,1.82,0,0,0,.8,0,3.43,3.43,0,0,0,.75-.34,5.44,5.44,0,0,0,.59-.4C32.49,21.82,32.71,21.67,32.75,21.72Z"/><path class="cls-16" d="M28.35,12.87c0,.11-.3.14-.67.15h-.31l-.34,0c-.24,0-.5,0-.77.1s-.53.1-.76.15l-.34.09-.15,0-.14,0c-.36.1-.61.16-.68.06s.07-.33.41-.59l.13-.1.16-.09a2.86,2.86,0,0,1,.35-.18,4.33,4.33,0,0,1,.88-.26,3.6,3.6,0,0,1,.92,0l.39.05.18.05.16,0C28.17,12.58,28.38,12.76,28.35,12.87Z"/><path class="cls-16" d="M36.54,13.41c-.08.09-.32,0-.68-.11l-.14-.05-.16-.05-.33-.11c-.23-.07-.49-.14-.76-.2l-.78-.12-.35,0-.16,0H33c-.37,0-.63-.06-.67-.18s.18-.28.6-.42l.16,0,.18,0a2.7,2.7,0,0,1,.41,0,3.82,3.82,0,0,1,.93.08,4.13,4.13,0,0,1,.88.3l.36.2.15.11.13.11C36.49,13.07,36.61,13.32,36.54,13.41Z"/><path class="cls-17" d="M28.65,29.46a2.45,2.45,0,0,0,.47,1.42,3.14,3.14,0,0,0,2.28.59v1.38s-2.6.09-2.71-1.55Z"/><path class="cls-17" d="M31.85,31.53v1.32a1.86,1.86,0,0,0,.79-1.45v-.79a1.15,1.15,0,0,0-.26-.72h0S32.64,31.23,31.85,31.53Z"/><g class="cls-14"><path class="cls-8" d="M32.45,35.69s0,.09.11.28.07.21.11.35l.14.49a23.12,23.12,0,0,1,.6,3.15c.16,1.34.25,2.95.3,4.74s.1,3.75.16,5.81c.1,4.12.18,7.86.23,10.56,0,1.35,0,2.44,0,3.2,0,.38,0,.67,0,.87a1.36,1.36,0,0,1,0,.3,1.16,1.16,0,0,1,0-.3c0-.2,0-.49,0-.87,0-.75-.07-1.85-.12-3.2-.08-2.7-.19-6.43-.29-10.56,0-2.06-.1-4-.14-5.81s-.11-3.39-.26-4.73a23.54,23.54,0,0,0-.53-3.14c0-.19-.08-.35-.12-.49s-.07-.26-.09-.35A1,1,0,0,1,32.45,35.69Z"/></g><path class="cls-2" d="M35.9,68.75a2.25,2.25,0,0,1-.3,0l-.86,0-3.16-.2-1-.08c-.37,0-.74-.06-1.14-.11a22.44,22.44,0,0,1-2.48-.41c-.86-.19-1.76-.44-2.68-.72l-1.4-.44c-.47-.15-.95-.32-1.43-.45-.12,0-.25-.06-.37-.09l-.37-.08-.36-.05-.37,0c-.25,0-.49,0-.73,0l-.36,0h-.36a14.89,14.89,0,0,0-2.73.32,23.89,23.89,0,0,0-4.44,1.44c-1.22.53-2.17,1-2.83,1.4l-.74.43a1.32,1.32,0,0,1-.26.14,1.09,1.09,0,0,1,.24-.18c.16-.11.4-.27.72-.46a28.13,28.13,0,0,1,2.81-1.46,22.53,22.53,0,0,1,4.46-1.5,15.21,15.21,0,0,1,2.77-.34h.73c.24,0,.49,0,.74,0l.38,0,.37,0,.38.08.37.1c.5.13,1,.3,1.45.45L24.3,67c.92.29,1.81.54,2.66.74s1.69.32,2.46.42l1.13.12,1.05.09,3.15.27.85.08A1,1,0,0,1,35.9,68.75Z"/><polygon class="cls-18" points="36.31 68.06 35.9 69.7 38.01 70.11 38.7 69.08 36.31 68.06"/><polygon class="cls-3" points="36.41 68.86 39.77 69.18 39.88 70.44 36.53 70.32 36.41 68.86"/><path class="cls-1" d="M39.77,69.18l-.21,1.24s.75,4.34,1.09,3.87-.54-5.26-.8-5.12S39.77,69.18,39.77,69.18Z"/><path class="cls-3" d="M7.79,66.54,9,64.76l-.5-.8L7.25,65.2s-1.51-1.61-2.69-1-.74,1.2-.11,1,1.3.25.6.72-1.84.75-2,0-.62-1.73-.77-.87-.19,2,1,2A33.73,33.73,0,0,0,0,68.26s-.49.68,3.62-.49c0,0-2.27,1.3-1.84,1.4S4.31,68,4.31,68s-2,1.74-1.3,1.68a21.43,21.43,0,0,0,3.91-2.27A3.17,3.17,0,0,0,7.79,66.54Z"/><path class="cls-4" d="M25.29,31.56A3.36,3.36,0,0,0,21.15,33c-1.56,2.52-2.22,14.72-4.64,17.74-2.91,3.64-5.85,5.49-9,14L9.4,65,19.74,54.62S29.06,34.08,25.29,31.56Z"/><g class="cls-14"><path class="cls-8" d="M24.2,42.25a1.66,1.66,0,0,1,.1-.47c.07-.31.18-.75.32-1.29.27-1.08.61-2.58.92-4.25.08-.42.15-.83.22-1.23s.12-.77.14-1.13a3.29,3.29,0,0,0-.08-1,1.82,1.82,0,0,0-.16-.43,1.77,1.77,0,0,0-.23-.35,2,2,0,0,0-.57-.44,1.32,1.32,0,0,0-.53-.13h-.2l-.15,0-.12,0s0,0,.11-.07l.15-.05h.1l.11,0a1.46,1.46,0,0,1,.57.12,1.84,1.84,0,0,1,.64.44,2.07,2.07,0,0,1,.27.37,3.14,3.14,0,0,1,.18.46,3.7,3.7,0,0,1,.11,1.07A9.89,9.89,0,0,1,26,35.05q-.09.6-.21,1.23c-.31,1.68-.68,3.18-1,4.25-.15.54-.29,1-.39,1.27A2.28,2.28,0,0,1,24.2,42.25Z"/></g><g class="cls-14"><path class="cls-8" d="M38.16,33.53s0,0,0,.15,0,.1,0,.17a2.42,2.42,0,0,1,0,.25,7.87,7.87,0,0,0,0,1.55,12.78,12.78,0,0,0,.47,2.27c.24.84.58,1.74.9,2.71a14,14,0,0,1,.65,2.79A6.84,6.84,0,0,1,40,45.77a4.45,4.45,0,0,1-.6,1.46l-.14.21-.11.14-.11.11a.55.55,0,0,1,.07-.13l.1-.16a2,2,0,0,0,.12-.21,5.31,5.31,0,0,0,.53-1.45,7.48,7.48,0,0,0,.07-2.3,14.75,14.75,0,0,0-.66-2.75c-.32-1-.65-1.87-.89-2.72a11.85,11.85,0,0,1-.43-2.3A7.21,7.21,0,0,1,38,34.09c0-.1,0-.18.05-.25l0-.17C38.14,33.57,38.15,33.52,38.16,33.53Z"/></g></g></g></svg>