<svg xmlns="http://www.w3.org/2000/svg" xmlns:xlink="http://www.w3.org/1999/xlink" viewBox="0 0 49.21 58.21"><defs><style>.cls-1{fill:#e5b699;}.cls-2{fill:#1a1b1e;}.cls-3{fill:#e8e8e8;}.cls-4{fill:#c38e79;}.cls-5,.cls-8{fill:#995e52;}.cls-19,.cls-5{opacity:0.28;}.cls-6{fill:#c1ad9f;}.cls-7{fill:#a08472;}.cls-8{opacity:0.22;}.cls-9{fill:#e2ad8f;}.cls-10{fill:#d68772;}.cls-11{fill:#7f443d;}.cls-12{fill:#a1263f;}.cls-13{fill:#dad7d1;}.cls-14{fill:#bf846a;}.cls-15{fill:#f5f0e8;}.cls-16{fill:#3a3047;}.cls-17{fill:#fff;}.cls-18{opacity:0.19;}.cls-20{fill:#aa8b71;}.cls-21{fill:#f5f0e1;}.cls-22{opacity:0.51;}.cls-23{fill:#222326;}.cls-24{fill:#dbdbdb;}.cls-25{opacity:0.55;fill:url(#Degradado_sin_nombre_21);}.cls-26{fill:#d1d1d1;}.cls-27{fill:#5b312b;}</style><linearGradient id="Degradado_sin_nombre_21" x1="39.96" y1="58.02" x2="24.62" y2="30.25" gradientUnits="userSpaceOnUse"><stop offset="0.09" stop-color="#61c2f2"/><stop offset="1" stop-color="#6bbae4" stop-opacity="0"/></linearGradient></defs><title>regularРесурс 9</title><g id="Слой_2" data-name="Слой 2"><g id="Objects"><polygon class="cls-1" points="35.4 52.52 39.52 51 34.99 51 35.4 52.52"/><path class="cls-2" d="M5.76,58.21c.3-.53.49-.83.49-.83a9.11,9.11,0,0,1,1.89-.06,13.11,13.11,0,0,1,2.11.31l.24,0a18.18,18.18,0,0,1,1.84.53Z"/><path class="cls-2" d="M17.48,30.68a58.06,58.06,0,0,0,1.59,9.65c1.29,5,2.88,13.54,6.62,13.54a77.45,77.45,0,0,0,9.8-1l-.58-2.16a65.05,65.05,0,0,1-8.42-2.21S22.09,30.53,17.48,30.68Z"/><path class="cls-3" d="M21.24,50.74h0v0l0,.2-.07.72-.69,6.49H10.37c0-.11.05-.24.08-.37s0-.1,0-.16c.28-1.24.65-3,.9-4.88.09-.71.17-1.44.22-2.14v0c0-.13,0-.26,0-.39a9.13,9.13,0,0,0-.56-4.38c-1-1.94-3.19-5.72-4.81-8.54L4.2,33.78l.93-1.72,1.2-2.2h0l.57-.17a18.67,18.67,0,0,1,2.86-.56s0,0,0,0a6.31,6.31,0,0,1,.76-.07,8.5,8.5,0,0,1,1.13,0,7,7,0,0,1,1,.08l.29,0,.21,0,.24.06a5.11,5.11,0,0,1,1.4.52.08.08,0,0,0,0,0l3.39,6.82,2.63,5.31.24,6.13.09,2.24Z"/><path class="cls-4" d="M9.67,25.34,9.8,29a.7.7,0,0,0,.66.67l2.76.14V25Z"/><path class="cls-5" d="M9.67,25.34v.92s1.39.86,3.55-.46l.09-1Z"/><path class="cls-6" d="M6.13,8.22s-3.49-6,1.13-7.7,7.2,5.37,12,6.13,5.18,4.55,3,9.92S21.09,20.93,20,21.94s-6.51,3.79-13.58,1.58S-1,9.36,1.44,6.08,6.13,8.22,6.13,8.22Z"/><path class="cls-7" d="M4.6,22.75s0,0-.14-.09a4.62,4.62,0,0,1-.37-.31l-.25-.24-.28-.3a8.29,8.29,0,0,1-.62-.8,9.18,9.18,0,0,1-1.13-2.37,11.29,11.29,0,0,1-.34-1.52,11.15,11.15,0,0,1-.14-1.66,14.85,14.85,0,0,1,.09-1.66,11.58,11.58,0,0,1,.27-1.53,8.42,8.42,0,0,1,.45-1.34,3.86,3.86,0,0,1,.66-1,1.62,1.62,0,0,1,.89-.52,1.35,1.35,0,0,1,.77.09,1,1,0,0,1,.37.32.41.41,0,0,1,.06.11v0l0,0L4.8,9.8a.92.92,0,0,0-.38-.26,1.24,1.24,0,0,0-.71-.06,1.54,1.54,0,0,0-.8.51,3.82,3.82,0,0,0-.61,1,8,8,0,0,0-.42,1.31,11.6,11.6,0,0,0-.25,1.51,12.6,12.6,0,0,0-.08,1.64,10.78,10.78,0,0,0,.12,1.63A10.54,10.54,0,0,0,2,18.58a9.11,9.11,0,0,0,1.07,2.34,8.59,8.59,0,0,0,.58.81,2.86,2.86,0,0,0,.27.31l.23.25.34.34C4.57,22.7,4.61,22.75,4.6,22.75Z"/><path class="cls-8" d="M6.55,8.46S1.8,3.23,1.12,14.9a9.2,9.2,0,0,0,2.42,6.81,7.59,7.59,0,0,0,4.58,2.45Z"/><path class="cls-7" d="M6.69,2.25s0,0,0,.06l-.12.13A2.39,2.39,0,0,0,6.18,3a2.87,2.87,0,0,0-.26.91A3.31,3.31,0,0,0,6,5a5.89,5.89,0,0,0,.38,1.12c.15.33.3.63.43.87a4.53,4.53,0,0,0,.35.55c.1.12.16.18.15.19s-.09,0-.21-.14a2.27,2.27,0,0,1-.42-.52c-.14-.25-.31-.53-.47-.87a6,6,0,0,1-.42-1.15,3.71,3.71,0,0,1-.06-1.23,2.71,2.71,0,0,1,.33-1,2.06,2.06,0,0,1,.43-.52l.15-.11Z"/><path class="cls-7" d="M21,20s0-.1.08-.28a3.64,3.64,0,0,0,.17-.76,4.12,4.12,0,0,0,0-1.15,4.16,4.16,0,0,0-.17-.65,3.61,3.61,0,0,0-.28-.68A6,6,0,0,0,20,15.29c-.28-.34-.55-.62-.79-.86a8.45,8.45,0,0,1-.78-.75,4,4,0,0,1,.88.64,8.48,8.48,0,0,1,.84.85,6,6,0,0,1,.82,1.21,4.15,4.15,0,0,1,.29.7,4.86,4.86,0,0,1,.16.69,4,4,0,0,1,0,1.2,2.66,2.66,0,0,1-.25.77C21,19.91,21,20,21,20Z"/><path class="cls-7" d="M17.8,23.2s.14-.25.38-.63a2.84,2.84,0,0,0,.18-.31c.07-.11.13-.24.2-.37a9,9,0,0,0,.38-.87,7.62,7.62,0,0,0,.26-.92c0-.14.06-.28.08-.41l0-.18,0-.18a4,4,0,0,1,.09-.72,2.18,2.18,0,0,1,.06.74s0,.11,0,.17a1.36,1.36,0,0,1,0,.2,3.53,3.53,0,0,1-.06.42,6.39,6.39,0,0,1-.25.95,5.66,5.66,0,0,1-.41.89,2.58,2.58,0,0,1-.22.37,2.77,2.77,0,0,1-.21.31A2.14,2.14,0,0,1,17.8,23.2Z"/><path class="cls-7" d="M1.28,18.54A2.24,2.24,0,0,1,1,18l0-.07,0-.08-.07-.16c0-.11-.08-.24-.14-.37S.64,17,.59,16.89a2.17,2.17,0,0,0-.07-.24c0-.08,0-.17-.05-.25l-.06-.27-.06-.28c0-.19,0-.39-.08-.6s0-.43-.05-.65v-.69a9.8,9.8,0,0,1,.53-3A9.45,9.45,0,0,1,2.16,8.18a3.75,3.75,0,0,1,.44-.53,2.34,2.34,0,0,1,.55-.4,1.76,1.76,0,0,1,.3-.1,1.59,1.59,0,0,1,.3-.06,2.22,2.22,0,0,1,.58,0,3.21,3.21,0,0,1,.92.3,5.22,5.22,0,0,1,.62.39,3.71,3.71,0,0,1,.48.38,3.71,3.71,0,0,1-.53-.32c-.17-.1-.37-.22-.62-.34a2.58,2.58,0,0,0-.89-.26,2.41,2.41,0,0,0-.54,0l-.28.06-.27.1a2.65,2.65,0,0,0-.91.89A9.84,9.84,0,0,0,1,11a10.36,10.36,0,0,0-.54,2.95c0,.23,0,.46,0,.67s0,.44,0,.64,0,.4.07.59a2.33,2.33,0,0,0,.05.28c0,.09,0,.18,0,.27s0,.17.05.25l.06.23c0,.16.08.3.12.44l.12.37.05.16,0,.08,0,.07A5.81,5.81,0,0,1,1.28,18.54Z"/><path class="cls-8" d="M18.38,13.86s3.66,2.84.72,8.71l-1.35.66a5.86,5.86,0,0,1-1,.36L15,24S19.55,16.31,18.38,13.86Z"/><path class="cls-9" d="M4.42,15.23s-1.91-.76-2.06,1.17c-.2,2.65,2,2.63,2,2.63Z"/><path class="cls-10" d="M2.84,16.19s0,0,0-.1a.53.53,0,0,1,.22-.19.76.76,0,0,1,.43-.05.89.89,0,0,1,.46.26,1.72,1.72,0,0,1,.29.41,2,2,0,0,1,.14.38c0,.23,0,.38,0,.38s0-.14-.13-.33a3.57,3.57,0,0,0-.17-.34,1.73,1.73,0,0,0-.27-.35A.74.74,0,0,0,3.47,16a.78.78,0,0,0-.34,0C2.94,16.09,2.86,16.21,2.84,16.19Z"/><path class="cls-10" d="M4.1,17.69s0,0,0,.11a.37.37,0,0,1-.29.11.53.53,0,0,1-.41-.23,1,1,0,0,1-.22-.5,1.26,1.26,0,0,1,0-.55.59.59,0,0,1,.29-.36.35.35,0,0,1,.31,0c.07,0,.09.06.09.08H3.76a.4.4,0,0,0-.22.08.51.51,0,0,0-.17.29,1,1,0,0,0,0,.46,1,1,0,0,0,.16.42.49.49,0,0,0,.27.2.38.38,0,0,0,.23,0S4.08,17.68,4.1,17.69Z"/><path class="cls-9" d="M18.37,15.23s1.91-.76,2.06,1.17c.21,2.65-2,2.63-2,2.63Z"/><path class="cls-10" d="M20,16.19s-.11-.1-.3-.15a.77.77,0,0,0-.34,0,.79.79,0,0,0-.35.22,1.73,1.73,0,0,0-.27.35,3.26,3.26,0,0,0-.16.34c-.08.19-.1.33-.13.33s-.06-.15,0-.38a1.43,1.43,0,0,1,.13-.38,1.72,1.72,0,0,1,.29-.41.89.89,0,0,1,.46-.26.73.73,0,0,1,.43.05.43.43,0,0,1,.22.19C20,16.15,20,16.19,20,16.19Z"/><path class="cls-10" d="M18.7,17.69s0,0,.09,0a.36.36,0,0,0,.22,0,.46.46,0,0,0,.27-.2,1.13,1.13,0,0,0,.17-.42,1.4,1.4,0,0,0,0-.46.52.52,0,0,0-.18-.29.37.37,0,0,0-.22-.08h-.1s0-.05.08-.08a.38.38,0,0,1,.32,0,.61.61,0,0,1,.28.36,1.13,1.13,0,0,1,.05.55,1.14,1.14,0,0,1-.22.5.56.56,0,0,1-.41.23.4.4,0,0,1-.3-.11C18.68,17.74,18.68,17.69,18.7,17.69Z"/><path class="cls-1" d="M11.61,6.82a6.32,6.32,0,0,0-7.32,5.9c-.18,3-.15,6.81.92,8.52,1.87,3,5.32,5,6.81,4.6s6.61-3.62,6.57-7.24-.22-8.69-.22-8.69A16.37,16.37,0,0,0,11.61,6.82Z"/><path class="cls-11" d="M8.79,21.36s1.66,2.33,2.87,1.71a13.74,13.74,0,0,0,2.89-2.52S11.28,22.09,8.79,21.36Z"/><path class="cls-12" d="M10.28,22.84a7.15,7.15,0,0,1,1.38-.76c.56-.17,1.91-.51,1.91-.51S11.75,24.11,10.28,22.84Z"/><path class="cls-13" d="M9.8,21.53c-.47-.07.47.87.94.91a2.54,2.54,0,0,0,.87-.06,8.7,8.7,0,0,0,1.65-.81,1,1,0,0,0,.33-.25.33.33,0,0,0,0-.39A10.29,10.29,0,0,1,9.8,21.53Z"/><path class="cls-10" d="M15.15,20s-.25.38-.85.73a6.19,6.19,0,0,1-1.09.52,6,6,0,0,1-.68.23,6,6,0,0,1-.76.14,7.09,7.09,0,0,1-2.68-.13,2.28,2.28,0,0,1-.76-.33A.66.66,0,0,1,8.16,21s-.05-.06,0-.07,0,0,.09,0l.2.07a4,4,0,0,0,.74.18,9.89,9.89,0,0,0,2.57,0c.24,0,.48-.08.71-.14a5.56,5.56,0,0,0,.65-.18c.42-.14.78-.29,1.08-.42C14.77,20.18,15.1,19.94,15.15,20Z"/><path class="cls-14" d="M12.92,16.32s-.44-2.86,1.34-3.24c1.45-.32,3.16,1.22,3.16,1.22S13.19,11.94,12.92,16.32Z"/><path class="cls-15" d="M13,16.57s-.43-4.18,4.27-2.16A11,11,0,0,1,13,16.57Z"/><path class="cls-16" d="M17.6,14.37s-.11,0-.27,0l-.69-.17a7.15,7.15,0,0,0-1-.19,3.63,3.63,0,0,0-.58,0,2.54,2.54,0,0,0-.61.07,1.29,1.29,0,0,0-.52.23,1.75,1.75,0,0,0-.38.39,3.11,3.11,0,0,0-.38.9c-.07.28-.11.51-.15.68s-.07.25-.1.25-.05-.1-.06-.27a3.69,3.69,0,0,1,0-.72,2.59,2.59,0,0,1,.35-1.05,1.94,1.94,0,0,1,.45-.51,1.65,1.65,0,0,1,.67-.31,2.92,2.92,0,0,1,.71-.08,4.32,4.32,0,0,1,.64.07,5.36,5.36,0,0,1,1,.29,6.48,6.48,0,0,1,.65.29C17.53,14.28,17.61,14.34,17.6,14.37Z"/><path class="cls-16" d="M13.31,14.68s.54,1.74,1.73,1.13.6-2.05.6-2.05S13.71,13.6,13.31,14.68Z"/><path class="cls-17" d="M16.26,14.46c0,.12-.26.25-.62.31s-.66,0-.68-.11.26-.25.62-.31S16.25,14.35,16.26,14.46Z"/><path class="cls-14" d="M12.92,16.32s-.44-2.86,1.34-3.24c1.45-.32,3.16,1.22,3.16,1.22S13.19,11.94,12.92,16.32Z"/><path class="cls-15" d="M13,16.57s-.43-4.18,4.27-2.16A11,11,0,0,1,13,16.57Z"/><path class="cls-16" d="M17.6,14.37s-.11,0-.27,0l-.69-.17a7.15,7.15,0,0,0-1-.19,3.63,3.63,0,0,0-.58,0,2.54,2.54,0,0,0-.61.07,1.29,1.29,0,0,0-.52.23,1.75,1.75,0,0,0-.38.39,3.11,3.11,0,0,0-.38.9c-.07.28-.11.51-.15.68s-.07.25-.1.25-.05-.1-.06-.27a3.69,3.69,0,0,1,0-.72,2.59,2.59,0,0,1,.35-1.05,1.94,1.94,0,0,1,.45-.51,1.65,1.65,0,0,1,.67-.31,2.92,2.92,0,0,1,.71-.08,4.32,4.32,0,0,1,.64.07,5.36,5.36,0,0,1,1,.29,6.48,6.48,0,0,1,.65.29C17.53,14.28,17.61,14.34,17.6,14.37Z"/><path class="cls-16" d="M13.31,14.68s.54,1.74,1.73,1.13.6-2.05.6-2.05S13.71,13.6,13.31,14.68Z"/><path class="cls-17" d="M16.26,14.46c0,.12-.26.25-.62.31s-.66,0-.68-.11.26-.25.62-.31S16.25,14.35,16.26,14.46Z"/><path class="cls-14" d="M9.12,16.67s.24-2.89-1.57-3.14C6.08,13.32,4.49,15,4.49,15S8.54,12.32,9.12,16.67Z"/><path class="cls-15" d="M9.08,16.92s.13-4.2-4.41-1.85A11.06,11.06,0,0,0,9.08,16.92Z"/><path class="cls-16" d="M4.32,15.05s.06-.09.2-.18a5.34,5.34,0,0,1,.63-.34,6.1,6.1,0,0,1,1-.36,3.93,3.93,0,0,1,.63-.11,2.83,2.83,0,0,1,.71,0,1.76,1.76,0,0,1,.7.27,1.69,1.69,0,0,1,.48.48,2.6,2.6,0,0,1,.42,1,3.8,3.8,0,0,1,.08.72c0,.17,0,.26,0,.27s-.07-.09-.12-.25-.1-.39-.19-.66a2.9,2.9,0,0,0-.45-.87,1.57,1.57,0,0,0-.4-.37,1.5,1.5,0,0,0-.54-.19,2.5,2.5,0,0,0-.61,0,3.68,3.68,0,0,0-.58.08,8.06,8.06,0,0,0-1,.26c-.28.09-.51.17-.67.21S4.33,15.08,4.32,15.05Z"/><path class="cls-16" d="M8.61,15.06S8.2,16.83,7,16.31s-.75-2-.75-2S8.14,14,8.61,15.06Z"/><path class="cls-17" d="M7.78,15.52c.07-.09.36,0,.64.26s.44.49.37.58-.36,0-.64-.26S7.7,15.61,7.78,15.52Z"/><path class="cls-10" d="M11.48,19.82s-.18.07-.49,0a3.07,3.07,0,0,1-1.25-.45l-.21-.13.21-.15a6.22,6.22,0,0,0,.84-.75,2.63,2.63,0,0,0,.39-.49,1.07,1.07,0,0,0,.19-.56,4.53,4.53,0,0,0,0-.82c0-.27-.05-.54-.09-.79-.07-.5-.16-1-.25-1.32a5.67,5.67,0,0,1-.26-1.23,2.86,2.86,0,0,1,.55,1.15,9.51,9.51,0,0,1,.35,1.34c0,.25.08.53.12.81l0,.43a2.46,2.46,0,0,1,0,.47,1.42,1.42,0,0,1-.08.4,1.92,1.92,0,0,1-.18.35,3.48,3.48,0,0,1-.45.54,5.51,5.51,0,0,1-.94.75v-.28a3.66,3.66,0,0,0,1.1.54C11.31,19.75,11.48,19.79,11.48,19.82Z"/><g class="cls-18"><path class="cls-10" d="M18,17.41a1.16,1.16,0,0,1-.56,1,4.07,4.07,0,0,1-1.54.7,4.13,4.13,0,0,1-1.69.08,1.16,1.16,0,0,1-.95-.62,1,1,0,0,1,.4-1.08,3.53,3.53,0,0,1,1.64-.84,3.6,3.6,0,0,1,1.85,0C17.6,16.78,17.92,17.06,18,17.41Z"/></g><g class="cls-18"><path class="cls-10" d="M9.26,18.74a1.14,1.14,0,0,1-.93.64,4.06,4.06,0,0,1-1.69,0,4,4,0,0,1-1.56-.65,1.16,1.16,0,0,1-.59-1c0-.35.34-.64.83-.81a3.66,3.66,0,0,1,1.85-.05,3.63,3.63,0,0,1,1.66.79A1.06,1.06,0,0,1,9.26,18.74Z"/></g><g class="cls-19"><path class="cls-10" d="M12.81,22.73c0,.06,0,.22-.2.43a2,2,0,0,1-.37.31,1.7,1.7,0,0,1-.58.25,1.39,1.39,0,0,1-.67,0,1.2,1.2,0,0,1-.48-.25c-.23-.19-.29-.36-.24-.43s.22,0,.45,0a1.43,1.43,0,0,0,.36.06,1.64,1.64,0,0,0,.43,0,5.09,5.09,0,0,0,.84-.32C12.58,22.69,12.76,22.65,12.81,22.73Z"/></g><path class="cls-20" d="M16.39,12.24c0,.11-.25.22-.64.33l-.69.18-.83.2-.83.22-.69.18c-.4.09-.67.13-.72,0s.12-.32.48-.56a4.11,4.11,0,0,1,.67-.37,6,6,0,0,1,.88-.3,5.46,5.46,0,0,1,.91-.16,3.84,3.84,0,0,1,.76,0C16.13,12,16.39,12.12,16.39,12.24Z"/><path class="cls-20" d="M8.43,13.35c-.09.09-.28,0-.54,0l-.1,0a.35.35,0,0,1-.11,0,2.1,2.1,0,0,1-.24-.06c-.16,0-.34-.07-.53-.09l-.55,0H5.9c-.27,0-.47,0-.53-.09s0-.12,0-.2a.75.75,0,0,1,.12-.14,1,1,0,0,1,.19-.13.41.41,0,0,1,.11-.07L6,12.38l.3-.09a2.56,2.56,0,0,1,.74,0,2.12,2.12,0,0,1,.7.21,1.87,1.87,0,0,1,.28.16l.11.08.1.1a1.14,1.14,0,0,1,.15.17.48.48,0,0,1,.08.16Q8.49,13.29,8.43,13.35Z"/><path class="cls-8" d="M4.94,3.12s3-1.4,4.15,1.52c1.19,3.13,6.33,9.82,12.17,8.87,0,0-10.42-13.76-15.81-11.26l-.31.19Z"/><path class="cls-21" d="M5,2.84C5,3,8,.18,10.28,5.28S17.54,13.46,21,13.49c2.67,0,1,3.76,1,3.76s4.81-9.34-1.83-10.42c-6.47-1-7.8-8.26-13.08-6.58A4.3,4.3,0,0,0,5,2.84Z"/><g class="cls-22"><path class="cls-7" d="M23.72,9.9l-.2.12a4.5,4.5,0,0,1-.61.29,6.21,6.21,0,0,1-1,.32,7,7,0,0,1-3.12,0,7.08,7.08,0,0,1-1.85-.72A7,7,0,0,1,15.2,8.57a9.44,9.44,0,0,1-1.33-1.93c-.39-.7-.73-1.4-1.1-2a9.93,9.93,0,0,0-1.21-1.76,6.54,6.54,0,0,0-.72-.68L10.65,2l-.2-.13a4,4,0,0,0-.4-.22A4.85,4.85,0,0,0,8.44,1.2a5.14,5.14,0,0,0-1.38.05,4.37,4.37,0,0,0-1,.29l-.19.08L5.7,1.7l-.14.06-.11.07a1,1,0,0,1-.21.11.86.86,0,0,1,.19-.15l.1-.07.14-.08.16-.09L6,1.46a5.1,5.1,0,0,1,1-.33,5.33,5.33,0,0,1,1.42-.08,5,5,0,0,1,1.67.45,4.23,4.23,0,0,1,.41.23l.21.13L11,2a5.51,5.51,0,0,1,.75.7A9.83,9.83,0,0,1,13,4.49c.38.66.72,1.36,1.1,2.05a9.48,9.48,0,0,0,1.31,1.89,7,7,0,0,0,3.45,2,6.69,6.69,0,0,0,1.67.19,7,7,0,0,0,1.38-.14,7.92,7.92,0,0,0,1-.28C23.43,10,23.71,9.88,23.72,9.9Z"/></g><g class="cls-22"><path class="cls-7" d="M23.41,13.59v-.07s0,0,0-.07v-.11s0-.08,0-.13a1.24,1.24,0,0,0,0-.16,1.44,1.44,0,0,0-.17-.36,1.86,1.86,0,0,0-.85-.67,2.63,2.63,0,0,0-.67-.16,4.8,4.8,0,0,0-.78,0H20c-.3,0-.62,0-.94-.05a16.14,16.14,0,0,1-2.07-.3,6.86,6.86,0,0,1-1.1-.33,3.7,3.7,0,0,1-1-.6,3.56,3.56,0,0,1-.45-.42,4.78,4.78,0,0,1-.39-.5,7,7,0,0,1-.6-1.11,21.72,21.72,0,0,1-.81-2.34,9.09,9.09,0,0,0-.92-2.07,4.67,4.67,0,0,0-1.44-1.43A5.54,5.54,0,0,0,8.64,2a5.64,5.64,0,0,0-1.47-.14l-.31,0-.29,0-.14,0A.5.5,0,0,1,6.3,2L6.07,2a5.48,5.48,0,0,0-.67.23l-.23.09s.07-.05.21-.13a4.11,4.11,0,0,1,.67-.27l.23-.06.13,0,.14,0,.29-.05.32,0a5,5,0,0,1,1.51.11,5.7,5.7,0,0,1,1.7.68A5,5,0,0,1,11.87,4a9,9,0,0,1,1,2.11,23.7,23.7,0,0,0,.81,2.32,6.21,6.21,0,0,0,.59,1.08,4.29,4.29,0,0,0,.36.48,5.36,5.36,0,0,0,.43.4A3.62,3.62,0,0,0,16,11a7.12,7.12,0,0,0,1.06.32,16.16,16.16,0,0,0,2,.32c.32,0,.64,0,.94.05l.86,0a6.73,6.73,0,0,1,.8.05,3,3,0,0,1,.7.19,2,2,0,0,1,.87.74,1.48,1.48,0,0,1,.16.38,1.22,1.22,0,0,1,0,.17.71.71,0,0,1,0,.14.45.45,0,0,0,0,.11s0,.06,0,.08S23.42,13.59,23.41,13.59Z"/></g><path class="cls-23" d="M16,49.76c0,.3,0,.6,0,.89,0,.44,0,.89-.06,1.33A44.1,44.1,0,0,1,15,58.21H5l2.71-3.84.38-.54A6.94,6.94,0,0,0,8.51,50a17.43,17.43,0,0,0-2.12-5.84A35,35,0,0,0,2.61,38.7V30.92l.16,0a1.91,1.91,0,0,1,.44-.13l3.12-.89h0l.29-.08s.27.31.72.89a58.54,58.54,0,0,1,7.49,12.72A17,17,0,0,1,16,49.76Z"/><path class="cls-23" d="M22.81,51.82l.06,6.39H19.52c.22-2,.47-4.28.68-6.44l.06-.77,0-.28a.09.09,0,0,1,0,0l0-.35c.12-1.43.22-2.79.27-4a11.36,11.36,0,0,0-.27-4.18c-.34-.65-1-2-1.68-3.62-1.6-3.58-3.6-8.32-3.78-8.74a.08.08,0,0,1,0,0l2.62.91.69.24s6.34,11.28,4.61,17.31l0,2v1.55Z"/><polygon class="cls-4" points="12.31 30.59 14.02 33.68 12.72 30.6 12.72 28.88 11.49 28.46 12.31 30.59"/><path class="cls-24" d="M9.75,27.44a2.28,2.28,0,0,0,.44,1.32,2.9,2.9,0,0,0,2.12.55V30.6s-2.42.08-2.52-1.45Z"/><path class="cls-24" d="M12.72,29.37V30.6a1.75,1.75,0,0,0,.74-1.36v-.73a1.06,1.06,0,0,0-.24-.67h0S13.46,29.09,12.72,29.37Z"/><g class="cls-22"><path class="cls-7" d="M17.91,49.16v.26c0,.19,0,.38,0,.57s0,.25,0,.38a1.93,1.93,0,0,1,0,.24s0,0,0,0v.18l0,.8c0,.1,0,.19,0,.28l0,.51c0,.52-.07,1-.1,1.54s-.07,1-.11,1.47c-.08,1-.17,1.93-.25,2.8h-.18c.08-.88.16-1.82.23-2.81,0-.48.07-1,.11-1.48s.07-1,.09-1.53c0-.16,0-.32,0-.49s0-.2,0-.3l0-.8v-.18c0-.21,0-.42,0-.63v-.35c0-.16,0-.32,0-.48A27.77,27.77,0,0,0,17.49,46q-.19-1.56-.48-3a38.91,38.91,0,0,0-1.34-4.91c-.48-1.37-.95-2.45-1.28-3.19-.16-.37-.3-.65-.39-.85a1.81,1.81,0,0,1-.12-.28s.07.09.16.26.25.47.42.84A31.83,31.83,0,0,1,15.81,38a36.54,36.54,0,0,1,1.39,4.92c.2.94.37,1.94.49,3l.09.79c0,.27,0,.53.07.8s0,.27,0,.41,0,.27,0,.41,0,.28,0,.42S17.91,49,17.91,49.16Z"/></g><path class="cls-1" d="M11.6,50.62s3.33.6,5.43-.28c0,0,2.71-2.9,2.84-2.61s-1.75,2.81-1.55,2.75,6.23.63,5.77,1.09c0,0-6,.32-7.9.4a23.59,23.59,0,0,1-4.25,0Z"/><polygon class="cls-3" points="12.04 50.47 13.24 50.47 13.49 52.1 11.83 52.14 12.04 50.47"/><path class="cls-2" d="M3.62,30.68A3.12,3.12,0,0,0,.74,33.56c-.29,2.73-2.16,21.89,1.44,22s9.94-3.17,9.94-3.17V50.27l-6.06-.44S7.8,31.25,3.62,30.68Z"/><polygon class="cls-2" points="10.81 58.21 8.84 58.21 8.03 57.45 8.14 57.32 8.98 56.34 10.25 57.63 10.45 57.84 10.81 58.21"/><polygon class="cls-25" points="49.21 39.46 27.84 17.98 5.52 26.54 16.34 50.56 27.98 51 42.33 50.47 49.21 39.46"/><polygon class="cls-26" points="17.94 51 42 51 49.21 39.46 33.18 38.64 27.47 50.16 17.86 50.37 17.94 51"/><path class="cls-3" d="M38.73,45.77a1.15,1.15,0,1,1,0-1.63A1.15,1.15,0,0,1,38.73,45.77Z"/><path class="cls-27" d="M18.89,15.34a.68.68,0,0,1,0-.22.53.53,0,0,1,0-.13l0-.14,0-.17a1.8,1.8,0,0,0-.05-.19,3.66,3.66,0,0,0-.4-.92,3.57,3.57,0,0,0-.88-1l-.15-.1-.16-.1L17,12.3l-.18-.08-.09,0-.1,0-.19-.07-.2-.05L16,12a3.13,3.13,0,0,0-.43,0H15l-.11,0-.23,0c-.15,0-.31.08-.46.14a4.28,4.28,0,0,0-.44.2l-.21.12-.11.07-.1.08a3,3,0,0,0-.39.33l-.17.19,0,.05,0,.05-.08.1-.08.11-.07.11-.06.11,0,.06,0,.06-.11.24a2.6,2.6,0,0,1-.1.25A3.54,3.54,0,0,0,12,15.34a3.47,3.47,0,0,0,.17,1.07,2.77,2.77,0,0,1,.1.26l.11.24,0,.06,0,.05.06.12.07.11.08.1.08.11,0,.05,0,0,.17.19c.13.11.25.23.39.33l.1.08.11.06.21.13a4.28,4.28,0,0,0,.44.2,4,4,0,0,0,.46.13l.23,0,.11,0h.57A3.15,3.15,0,0,0,16,18.7a1.55,1.55,0,0,0,.21,0l.2-.06.19-.06.1,0,.09,0,.18-.09a1.4,1.4,0,0,0,.17-.09l.16-.1.15-.11a3.43,3.43,0,0,0,.88-1,3.62,3.62,0,0,0,.4-.91,1.8,1.8,0,0,0,.05-.19l0-.17,0-.15a.49.49,0,0,1,0-.12.68.68,0,0,1,0-.22.77.77,0,0,1,0,.22v.13a1,1,0,0,1,0,.15,1.11,1.11,0,0,1,0,.17,1.77,1.77,0,0,1,0,.2,3.61,3.61,0,0,1-1.27,2l-.16.12-.16.1-.18.11-.18.09-.1,0-.1,0-.2.08-.21.05a1.41,1.41,0,0,1-.22.06,3.44,3.44,0,0,1-.45.05h-.72l-.24,0a3.79,3.79,0,0,1-.48-.14,2.49,2.49,0,0,1-.47-.21l-.23-.13a.41.41,0,0,1-.11-.07l-.11-.08a2.71,2.71,0,0,1-.41-.35l-.18-.2-.05-.05,0-.05-.09-.11-.08-.12-.07-.11-.08-.12,0-.06,0-.07c0-.08-.08-.17-.13-.25L12,16.48a3.51,3.51,0,0,1,0-2.28l.09-.27c.05-.09.09-.17.13-.26l0-.06,0-.06.07-.12.07-.12.08-.11.09-.11,0-.05.05-.06.18-.2a3.36,3.36,0,0,1,.41-.34l.11-.08a.41.41,0,0,1,.11-.07l.23-.14a3.32,3.32,0,0,1,.47-.2,2.64,2.64,0,0,1,.48-.14l.24,0,.12,0h.12l.24,0,.24,0a3.44,3.44,0,0,1,.45.05l.22,0,.21.06.2.08.1,0,.1.05.18.09.18.1.16.11.16.12a3.6,3.6,0,0,1,.89,1,3.4,3.4,0,0,1,.38,1,1.42,1.42,0,0,1,0,.2,1.11,1.11,0,0,1,0,.17.77.77,0,0,1,0,.15v.12A.82.82,0,0,1,18.89,15.34Z"/><path class="cls-27" d="M10.63,15.34a.86.86,0,0,1,0-.22.62.62,0,0,0,0-.13.78.78,0,0,0,0-.14l0-.17c0-.06,0-.12,0-.19a3.66,3.66,0,0,0-.4-.92,3.46,3.46,0,0,0-.89-1L9,12.5l-.16-.1-.17-.1-.18-.08-.09,0-.09,0-.19-.07L8,12l-.21,0a3,3,0,0,0-.43,0H6.75l-.12,0L6.4,12c-.15,0-.3.08-.45.14a4.43,4.43,0,0,0-.45.2l-.21.12-.1.07-.1.08a3,3,0,0,0-.39.33l-.17.19,0,.05,0,.05-.07.1-.08.11-.07.11-.07.11,0,.06,0,.06L4,14l-.09.25a3.88,3.88,0,0,0-.18,1.08,3.81,3.81,0,0,0,.18,1.07l.09.26.12.24,0,.06,0,.05.07.12.07.11.08.1.07.11,0,.05,0,0,.17.19c.13.11.25.23.39.33l.1.08.1.06.21.13a4.43,4.43,0,0,0,.45.2,3.81,3.81,0,0,0,.45.13l.23,0,.12,0h.56a3.29,3.29,0,0,0,.44-.05,1.42,1.42,0,0,0,.2,0l.21-.06.19-.06.09,0,.09,0,.18-.09a.91.91,0,0,0,.17-.09l.16-.1.15-.11a3.33,3.33,0,0,0,.89-1,3.62,3.62,0,0,0,.4-.91c0-.07,0-.13,0-.19l0-.17a.77.77,0,0,0,0-.15.49.49,0,0,0,0-.12.86.86,0,0,1,0-.22,2,2,0,0,1,0,.22.62.62,0,0,1,0,.13s0,.09,0,.15l0,.17c0,.06,0,.13,0,.2a3.47,3.47,0,0,1-.38.95,3.4,3.4,0,0,1-.9,1l-.15.12-.17.1-.17.11-.19.09-.09,0-.1,0-.2.08L8,18.82a1.66,1.66,0,0,1-.21.06,3.41,3.41,0,0,1-.46.05H6.61l-.25,0c-.15,0-.32-.08-.48-.14a3.23,3.23,0,0,1-.47-.21l-.22-.13-.12-.07L5,18.24a2.71,2.71,0,0,1-.41-.35,1.8,1.8,0,0,1-.19-.2l0-.05,0-.05-.08-.11-.08-.12L4,17.25,4,17.13l0-.06,0-.07-.12-.25-.1-.27a3.51,3.51,0,0,1,0-2.28l.1-.27.12-.26,0-.06,0-.06L4,13.43l.08-.12.08-.11.08-.11,0-.05,0-.06.19-.2A3.36,3.36,0,0,1,5,12.44l.1-.08.12-.07a1.64,1.64,0,0,1,.22-.14,4.73,4.73,0,0,1,.47-.2,3.21,3.21,0,0,1,.48-.14l.25,0,.12,0h.12l.24,0,.23,0a3.41,3.41,0,0,1,.46.05l.21,0,.22.06.2.08.1,0,.09.05.19.09.17.1.17.11.15.12a3.5,3.5,0,0,1,.9,1,3.4,3.4,0,0,1,.38,1c0,.07,0,.13,0,.2l0,.17c0,.05,0,.1,0,.15a.53.53,0,0,1,0,.12A2.07,2.07,0,0,1,10.63,15.34Z"/><path class="cls-27" d="M11.86,15.34a1.7,1.7,0,0,1-.62.06,1.67,1.67,0,0,1-.61-.06,1.36,1.36,0,0,1,.61-.07A1.38,1.38,0,0,1,11.86,15.34Z"/></g></g></svg>