<svg xmlns="http://www.w3.org/2000/svg" xmlns:xlink="http://www.w3.org/1999/xlink" viewBox="0 0 109.95 142.22"><defs><style>.cls-1{fill:none;}.cls-2{fill:#e5b699;}.cls-3{fill:#1a1b1e;}.cls-10,.cls-4{fill:#0e6eaf;}.cls-5{fill:#0a4d72;}.cls-6{fill:#5ea0cc;}.cls-7{fill:#a3c7e5;}.cls-25,.cls-27,.cls-8{fill:#f5f0e1;}.cls-8{opacity:0.5;}.cls-9{clip-path:url(#clip-path);}.cls-10{stroke:#f5f0e1;stroke-miterlimit:10;}.cls-11{fill:#e8e8e8;}.cls-12{fill:#222326;}.cls-13{fill:#c38e79;}.cls-14{opacity:0.51;}.cls-15{fill:#a08472;}.cls-16,.cls-18{fill:#995e52;}.cls-16{opacity:0.28;}.cls-17{fill:#c1ad9f;}.cls-18{opacity:0.22;}.cls-19{fill:#e2ad8f;}.cls-20{fill:#d68772;}.cls-21{fill:#bf846a;}.cls-22{fill:#3a3047;}.cls-23{opacity:0.19;}.cls-24{fill:#aa8b71;}.cls-26{fill:#dbdbdb;}.cls-27{opacity:0.34;}</style><clipPath id="clip-path"><path class="cls-1" d="M89.93,84.36s-19.5-6.49-41,5.78-28.11,18.55-28.11,18.55l10.08,18.64s36.55-13,47.11-25.48C88.08,90,89.93,84.36,89.93,84.36Z"/></clipPath></defs><title>rocket_happyРесурс 7</title><g id="Слой_2" data-name="Слой 2"><g id="Objects"><polygon class="cls-2" points="66.38 113.74 65.92 116.81 66.92 117.24 67.54 114.25 66.38 113.74"/><path class="cls-3" d="M65.92,116.81,67,117s3.35,1.84,2.9,2-4.15-1.92-4-2.11S65.92,116.81,65.92,116.81Z"/><path class="cls-3" d="M58,85.28l14.3,5.3-4.7,25.62-1.35-1.83a51.09,51.09,0,0,0-.33-8.08c-.52-3.18-1.22-9.3,1-11L58.36,93Z"/><path class="cls-3" d="M68.85,96.44C63,93,55.58,94,47.59,92.67S36.07,82.48,36.07,82.48C39,69.59,50.43,80.79,52.7,82l19,8.35"/><path class="cls-4" d="M34.5,102.1c-.45-.26-12.65-3.47-15.31-2.37S-.15,113.9,3.3,113.16s16.44-6.93,18.71-6.3,4.62,1.47,4.62,1.47Z"/><path class="cls-4" d="M42.19,121.27c0,.52-3.84,12.54-6.2,14.19s-22.33,8.74-19.85,6.23,14.65-10.17,15.34-12.42,1.23-4.7,1.23-4.7Z"/><polygon class="cls-5" points="24.14 109.12 16.02 114.82 23.32 128.34 32.45 124.96 24.14 109.12"/><path class="cls-6" d="M89.93,84.36s-19.5-6.49-41,5.78-28.11,18.55-28.11,18.55l10.08,18.64s36.55-13,47.11-25.48C88.08,90,89.93,84.36,89.93,84.36Z"/><path class="cls-7" d="M63.56,103.78a5.24,5.24,0,1,1,2.12-7.1A5.24,5.24,0,0,1,63.56,103.78Z"/><path class="cls-8" d="M56.21,97.2,66.3,98.88a5.19,5.19,0,0,1-.71,2.94l-9.69-1.75A4.35,4.35,0,0,1,56.21,97.2Z"/><path class="cls-8" d="M57,95.89l9.11,1.77a4,4,0,0,0-.41-1c-.29-.47-8-1.48-8-1.48A3.77,3.77,0,0,0,57,95.89Z"/><path class="cls-4" d="M39,110.21S3.93,126,5.06,127.82s34.57-14.76,34.82-15.56S39,110.21,39,110.21Z"/><g class="cls-9"><polygon class="cls-10" points="67.34 83.47 78.05 101.85 93.51 87.86 92.7 81.88 84.99 75.81 71.85 79.14 67.34 83.47"/></g><path class="cls-2" d="M53.8.67l-.68,4.76L52.24,6l-.67-2S50.24,3.38,50,3.25s0-1.59,0-1.59L51.9,0Z"/><polygon class="cls-2" points="23.9 117.39 20.82 118.02 20.85 119.19 23.93 118.75 23.9 117.39"/><path class="cls-3" d="M20.82,118l.32,1.13s-.25,4.08-.62,3.69,0-4.93.23-4.82S20.82,118,20.82,118Z"/><path class="cls-3" d="M45.52,50.86s4.4-23.69,4.6-26.37S51.34,17,51.8,13.2a39.68,39.68,0,0,0-.18-8.51l1.65-.23S55.54,28.37,53,38.51a136.52,136.52,0,0,0-3.17,15.78Z"/><path class="cls-3" d="M47,98.68l1.28,16.46-26.09,4.42,1.13-2a46.83,46.83,0,0,0,7.43-3.24c2.75-1.67,8.19-4.58,10.8-2.9l-1.65-9.61Z"/><path class="cls-3" d="M41.21,113.7c.68-7.21-3.55-14.38-5.76-23S40,75.3,40,75.3c13.38-1.61,7.86,14,7.73,16.75l.48,22.35"/><path class="cls-11" d="M36.36,47.14s5.36-1.87,8.53-.14L51,59.12l.41,8.81L50,81.82s-8.28,3.07-9.74-5.17c0,0,2.71-10.23.92-13.54s-6.94-12-6.94-12Z"/><path class="cls-12" d="M32.68,52.42l0,3.58s10,9.23,7.43,15.15l-2.29,6.92s4.81,8.05,8.41,7.31c0,0,2.23-16.65-1.28-24.77a56.23,56.23,0,0,0-8.29-13.56h0A5.55,5.55,0,0,0,32.68,52.42Z"/><path class="cls-12" d="M44.89,47l3.32,1.13S53,54,52.92,65.41l.3,19.09s-4,1.07-4-2.82,2.16-18.8,1.23-22.33C49.81,57,44.89,47,44.89,47Z"/><polygon class="cls-13" points="42.34 47.84 44.07 50.91 42.76 47.84 42.75 46.12 41.51 45.71 42.34 47.84"/><g class="cls-14"><path class="cls-15" d="M46.81,82.38a1.17,1.17,0,0,1,0-.33c0-.21,0-.52.07-.93.07-.81.17-2,.29-3.43s.28-3.17.41-5.09c0-.47.07-1,.1-1.47s.06-1,.08-1.53c0-.26,0-.53,0-.79s0-.53,0-.8,0-.54,0-.82,0-.54,0-.82a28,28,0,0,0-.23-3.22c-.13-1-.3-2-.49-3a38.27,38.27,0,0,0-1.38-4.9c-.48-1.37-1-2.44-1.3-3.18-.16-.37-.3-.65-.39-.85s-.13-.3-.13-.3a1.28,1.28,0,0,1,.17.28c.1.19.25.47.43.83a31.47,31.47,0,0,1,1.36,3.17,37.93,37.93,0,0,1,1.43,4.91c.2.94.37,1.94.5,3,0,.26.07.52.1.79s0,.53.07.8l0,.41c0,.13,0,.27,0,.41s0,.27,0,.41,0,.28,0,.42,0,.55,0,.83,0,.54,0,.81,0,.54,0,.81,0,.53,0,.79c0,.52-.06,1-.09,1.54s-.06,1-.1,1.47c-.15,1.92-.31,3.64-.46,5.09s-.27,2.61-.36,3.42c0,.4-.08.72-.11.93S46.81,82.38,46.81,82.38Z"/></g><polygon class="cls-3" points="39.66 74.23 39 75.53 43.26 77.95 43.47 76.6 39.66 74.23"/><polygon class="cls-3" points="52.66 77.63 52.66 78.85 53.13 78.85 53.11 77.62 52.66 77.63"/><path d="M46.38,88.22a3.52,3.52,0,0,1,.88.18l-.1.06c0-.59.08-1.43.15-2.37s.14-1.71.2-2.3a3.92,3.92,0,0,1,.15-1,4.09,4.09,0,0,1,0,1c0,.59-.07,1.41-.14,2.31s-.15,1.77-.21,2.36v.09l-.08,0A3.78,3.78,0,0,1,46.38,88.22Z"/><path d="M40,82.9s0,.06-.13.14l-.08.06-.1.07a2.5,2.5,0,0,1-.24.16l-.15.09-.17.08c-.11.06-.24.1-.38.16l-.21.06-.11,0-.11,0a3.39,3.39,0,0,1-.48.1,4.05,4.05,0,0,1-.48,0h-.46l-.4,0-.19,0-.16,0c-.11,0-.2-.06-.28-.08l-.12,0-.09,0c-.11,0-.17-.08-.16-.1s.07,0,.19,0l.09,0,.12,0,.28.06.16,0,.18,0,.39,0h.44a3.73,3.73,0,0,0,.46,0c.16,0,.31,0,.46-.09l.11,0,.11,0,.2-.06a3.19,3.19,0,0,0,.37-.13l.17-.07.15-.07.25-.13.11,0,.08,0C40,82.91,40,82.89,40,82.9Z"/><path class="cls-13" d="M39.89,42.8l0,3.53a1,1,0,0,0,1,1h1.57a1,1,0,0,0,1-1l0-3.9Z"/><path class="cls-16" d="M39.89,42.8v.92s1.39.84,3.54-.48l.09-1Z"/><path class="cls-17" d="M36.25,25.7s-3.53-6,1.08-7.71,7.23,5.33,12,6.06,5.21,4.52,3,9.9-1.11,4.36-2.18,5.38S43.73,43.16,36.64,41s-7.54-14.1-5.09-17.4S36.25,25.7,36.25,25.7Z"/><path class="cls-15" d="M34.81,40.24s-.06,0-.14-.09a4.41,4.41,0,0,1-.38-.31L34,39.6l-.28-.3a7.22,7.22,0,0,1-.62-.8A9.27,9.27,0,0,1,32,36.14a9.81,9.81,0,0,1-.35-1.51A11.13,11.13,0,0,1,31.49,33a15.19,15.19,0,0,1,.08-1.67,12.2,12.2,0,0,1,.26-1.53,7.15,7.15,0,0,1,.44-1.33,3.55,3.55,0,0,1,.66-1.05,1.68,1.68,0,0,1,.88-.53,1.34,1.34,0,0,1,.77.09.9.9,0,0,1,.38.32.41.41,0,0,1,.06.11.1.1,0,0,1,0,0s0,0,0,0a.58.58,0,0,0-.08-.1,1,1,0,0,0-.37-.26,1.21,1.21,0,0,0-.72-.05,1.52,1.52,0,0,0-.79.51,3.48,3.48,0,0,0-.6,1A7.46,7.46,0,0,0,32,29.82a11.35,11.35,0,0,0-.24,1.51A12.47,12.47,0,0,0,31.71,33a12.23,12.23,0,0,0,.13,1.63,10.7,10.7,0,0,0,.34,1.48,9.11,9.11,0,0,0,1.08,2.34,7.24,7.24,0,0,0,.59.8,2.86,2.86,0,0,0,.27.31,3,3,0,0,0,.23.25l.34.34Q34.81,40.22,34.81,40.24Z"/><path class="cls-18" d="M36.66,25.94s-4.78-5.2-5.38,6.47a9.2,9.2,0,0,0,2.46,6.8,7.56,7.56,0,0,0,4.59,2.41Z"/><path class="cls-15" d="M36.77,19.73s0,0,0,.05l-.12.14a2.39,2.39,0,0,0-.36.53,2.8,2.8,0,0,0-.25.91,3.33,3.33,0,0,0,.08,1.16,5.56,5.56,0,0,0,.39,1.11c.15.34.3.63.43.88a4.27,4.27,0,0,0,.35.54c.1.12.16.18.15.19s-.09,0-.21-.13a2.63,2.63,0,0,1-.42-.53c-.15-.24-.31-.53-.48-.86a6,6,0,0,1-.42-1.15,3.47,3.47,0,0,1-.07-1.23,2.92,2.92,0,0,1,.32-1,2.06,2.06,0,0,1,.43-.52.55.55,0,0,1,.15-.11S36.77,19.72,36.77,19.73Z"/><path class="cls-15" d="M51.14,37.38a2,2,0,0,1,.08-.28,4,4,0,0,0,.17-.76,3.79,3.79,0,0,0,0-1.15,4.59,4.59,0,0,0-.17-.66,4.77,4.77,0,0,0-.28-.67,6.55,6.55,0,0,0-.79-1.18c-.28-.33-.56-.61-.8-.85a8.45,8.45,0,0,1-.78-.75,4.47,4.47,0,0,1,.88.64,8.29,8.29,0,0,1,.85.84,6.5,6.5,0,0,1,.83,1.2,5.3,5.3,0,0,1,.29.71,3.61,3.61,0,0,1,.16.69,3.7,3.7,0,0,1,0,1.2,2.7,2.7,0,0,1-.24.77C51.22,37.3,51.15,37.39,51.14,37.38Z"/><path class="cls-15" d="M48,40.6a3.55,3.55,0,0,1,.37-.62l.19-.31.19-.37a8,8,0,0,0,.37-.88,7.62,7.62,0,0,0,.26-.92,3.2,3.2,0,0,0,.07-.41l0-.18a1.1,1.1,0,0,0,0-.18A4,4,0,0,1,49.6,36a2.14,2.14,0,0,1,.06.73,1.09,1.09,0,0,1,0,.18c0,.06,0,.13,0,.19s0,.28-.06.43a6.12,6.12,0,0,1-.65,1.85l-.21.37-.21.3C48.23,40.43,48,40.62,48,40.6Z"/><path class="cls-15" d="M31.45,36.05a4,4,0,0,1-.28-.54l0-.07,0-.08L31,35.2c-.05-.11-.09-.23-.14-.37s-.09-.27-.14-.43,0-.15-.07-.23l-.06-.26c0-.09,0-.17-.06-.27a2.33,2.33,0,0,1-.05-.28q0-.28-.09-.6c0-.2,0-.42-.05-.64s0-.46,0-.69a10.12,10.12,0,0,1,.51-3,9.53,9.53,0,0,1,1.39-2.72,4,4,0,0,1,.45-.54,2.1,2.1,0,0,1,.54-.4,1.82,1.82,0,0,1,.3-.11,1.57,1.57,0,0,1,.3-.05,1.87,1.87,0,0,1,.58,0,2.93,2.93,0,0,1,.92.3,4.55,4.55,0,0,1,.62.38,3,3,0,0,1,.48.38,4.89,4.89,0,0,1-.52-.32c-.17-.1-.38-.22-.63-.34a2.82,2.82,0,0,0-.89-.25,2,2,0,0,0-.54,0l-.27.05a1.09,1.09,0,0,0-.27.11,2.49,2.49,0,0,0-.91.89,9.76,9.76,0,0,0-1.35,2.68,10.37,10.37,0,0,0-.52,2.95v.68c0,.22,0,.43,0,.64s0,.4.08.59a39970472915091,39970472915091,0,0,1,.1.54c0,.08,0,.17,0,.25l.06.24.12.43.12.37.06.16s0,.05,0,.08l0,.07A2.68,2.68,0,0,1,31.45,36.05Z"/><path class="cls-18" d="M48.53,31.26s3.67,2.82.78,8.71L48,40.64A5.46,5.46,0,0,1,47,41l-1.8.47S49.71,33.71,48.53,31.26Z"/><path class="cls-19" d="M34.58,32.72s-1.91-.75-2,1.18c-.19,2.65,2,2.62,2,2.62Z"/><path class="cls-20" d="M33,33.69s0,0,0-.1a.51.51,0,0,1,.23-.19.73.73,0,0,1,.43,0,1,1,0,0,1,.46.25,1.72,1.72,0,0,1,.29.41,2,2,0,0,1,.14.38c0,.23,0,.38,0,.38s-.05-.14-.14-.33a2.45,2.45,0,0,0-.16-.33,1.54,1.54,0,0,0-.27-.36.79.79,0,0,0-.36-.21.53.53,0,0,0-.33,0C33.1,33.59,33,33.71,33,33.69Z"/><path class="cls-20" d="M34.27,35.18s0,0,0,.11a.36.36,0,0,1-.29.12.56.56,0,0,1-.41-.23,1.08,1.08,0,0,1-.22-.5,1,1,0,0,1,0-.55.67.67,0,0,1,.28-.37.44.44,0,0,1,.31,0c.08,0,.1.07.09.08h-.1a.37.37,0,0,0-.22.08.55.55,0,0,0-.18.3,1.12,1.12,0,0,0,0,.45.92.92,0,0,0,.16.42.49.49,0,0,0,.27.2.39.39,0,0,0,.23,0S34.26,35.17,34.27,35.18Z"/><path class="cls-19" d="M48.53,32.63s1.91-.77,2.07,1.16c.22,2.65-2,2.64-2,2.64Z"/><path class="cls-20" d="M50.12,33.59s-.1-.11-.3-.15a.61.61,0,0,0-.33,0,.82.82,0,0,0-.36.22,1.83,1.83,0,0,0-.26.36,2.45,2.45,0,0,0-.16.33c-.08.2-.1.33-.13.33s-.06-.14,0-.37a1.61,1.61,0,0,1,.14-.38,1.59,1.59,0,0,1,.29-.42.9.9,0,0,1,.45-.26.73.73,0,0,1,.43,0,.5.5,0,0,1,.23.18C50.13,33.54,50.13,33.58,50.12,33.59Z"/><path class="cls-20" d="M48.87,35.09s0,0,.09,0a.49.49,0,0,0,.23,0,.47.47,0,0,0,.27-.21,1.23,1.23,0,0,0,.16-.42,1.33,1.33,0,0,0,0-.45.61.61,0,0,0-.18-.3.46.46,0,0,0-.23-.07h-.1s0,0,.09-.08a.35.35,0,0,1,.31,0,.59.59,0,0,1,.29.36,1.11,1.11,0,0,1,0,.55,1.2,1.2,0,0,1-.22.5.55.55,0,0,1-.41.23.34.34,0,0,1-.29-.11C48.86,35.14,48.86,35.09,48.87,35.09Z"/><path class="cls-2" d="M41.72,24.27a6.33,6.33,0,0,0-7.29,5.94c-.15,3-.1,6.81,1,8.52,1.89,3,5.36,5,6.85,4.56s6.58-3.67,6.52-7.29-.27-8.69-.27-8.69A16.35,16.35,0,0,0,41.72,24.27Z"/><path class="cls-21" d="M43.09,33.76s-.46-2.86,1.32-3.26c1.45-.31,3.16,1.21,3.16,1.21S43.33,29.38,43.09,33.76Z"/><path class="cls-22" d="M47.75,31.78s-.11,0-.27,0l-.68-.16a7.76,7.76,0,0,0-1-.19,5.68,5.68,0,0,0-.59,0,3.17,3.17,0,0,0-.61.07,1.46,1.46,0,0,0-.52.24,1.56,1.56,0,0,0-.37.4,2.85,2.85,0,0,0-.38.9c-.06.27-.1.51-.14.67s-.07.26-.1.26-.05-.1-.07-.27a4.69,4.69,0,0,1,0-.72,2.72,2.72,0,0,1,.34-1,2,2,0,0,1,.45-.52,1.81,1.81,0,0,1,.67-.32,2.9,2.9,0,0,1,.71-.07,3.31,3.31,0,0,1,.64.06,5.4,5.4,0,0,1,1,.28,4.89,4.89,0,0,1,.65.29C47.68,31.69,47.76,31.75,47.75,31.78Z"/><path class="cls-20" d="M41.67,37.27s-.18.07-.5,0a3.08,3.08,0,0,1-1.25-.44l-.21-.13.21-.15a7.12,7.12,0,0,0,.84-.76,3.11,3.11,0,0,0,.39-.49,1.09,1.09,0,0,0,.18-.56,5.67,5.67,0,0,0,0-.82c0-.28-.06-.54-.1-.79-.07-.5-.16-.95-.25-1.32a5.4,5.4,0,0,1-.27-1.23,2.86,2.86,0,0,1,.55,1.15,9.62,9.62,0,0,1,.36,1.33q.07.39.12.81c0,.15,0,.29,0,.44a2.46,2.46,0,0,1,0,.47,1.36,1.36,0,0,1-.08.39,1.49,1.49,0,0,1-.17.36,4.15,4.15,0,0,1-.45.54,5.7,5.7,0,0,1-.94.76v-.28a4,4,0,0,0,1.1.53C41.5,37.2,41.67,37.23,41.67,37.27Z"/><g class="cls-23"><path class="cls-20" d="M48.13,34.82a1.15,1.15,0,0,1-.56,1,4.1,4.1,0,0,1-1.53.71,4.15,4.15,0,0,1-1.69.09,1.17,1.17,0,0,1-1-.61,1,1,0,0,1,.39-1.09,3.64,3.64,0,0,1,1.64-.85,3.58,3.58,0,0,1,1.84,0C47.77,34.19,48.09,34.47,48.13,34.82Z"/></g><g class="cls-23"><path class="cls-20" d="M39.44,36.2a1.17,1.17,0,0,1-.92.65,4.61,4.61,0,0,1-3.26-.67,1.17,1.17,0,0,1-.59-1c0-.34.33-.64.82-.8a3.63,3.63,0,0,1,1.85-.07,3.53,3.53,0,0,1,1.66.79A1,1,0,0,1,39.44,36.2Z"/></g><path class="cls-24" d="M47.3,30.3c0,.1-.32.08-.72,0l-.7-.15L45.05,30l-.84-.18-.7-.14c-.39-.09-.65-.19-.66-.31s.26-.23.69-.29a4.5,4.5,0,0,1,.76,0,6.28,6.28,0,0,1,.92.12,4.92,4.92,0,0,1,.89.27,4.47,4.47,0,0,1,.69.33C47.17,30,47.35,30.19,47.3,30.3Z"/><path class="cls-18" d="M35,20.6s3-1.41,4.15,1.5c1.21,3.13,6.39,9.79,12.22,8.8,0,0-10.49-13.7-15.87-11.17l-.31.2"/><path class="cls-25" d="M35.09,20.33c-.06.18,3-2.68,5.29,2.41s7.31,8.13,10.73,8.14c2.68,0,1,3.75,1,3.75s4.76-9.37-1.89-10.4c-6.48-1-7.85-8.22-13.12-6.5A4.28,4.28,0,0,0,35.09,20.33Z"/><g class="cls-14"><path class="cls-15" d="M53.84,27.27a.79.79,0,0,1-.19.12c-.14.08-.34.18-.61.3A7.23,7.23,0,0,1,52,28a7.12,7.12,0,0,1-1.41.18A6.49,6.49,0,0,1,48.9,28,7.15,7.15,0,0,1,45.32,26,9.86,9.86,0,0,1,44,24.07c-.39-.69-.73-1.39-1.1-2a9.56,9.56,0,0,0-1.23-1.75,5.71,5.71,0,0,0-.72-.68l-.2-.14-.19-.13-.4-.22a4.86,4.86,0,0,0-1.61-.44,5.21,5.21,0,0,0-1.39,0,4.89,4.89,0,0,0-1,.3l-.18.08-.16.08-.14.07-.11.06-.21.11.18-.14.11-.08.14-.08L35.9,19l.19-.09a4.21,4.21,0,0,1,1-.33A5,5,0,0,1,40.2,19a4.36,4.36,0,0,1,.42.23l.21.13.2.14a6.16,6.16,0,0,1,.75.7,9.48,9.48,0,0,1,1.27,1.78c.37.65.72,1.35,1.11,2a9.53,9.53,0,0,0,1.31,1.88,7,7,0,0,0,1.67,1.31,6.87,6.87,0,0,0,1.8.71,6.66,6.66,0,0,0,1.67.18A6.27,6.27,0,0,0,52,27.9a6.47,6.47,0,0,0,1-.29C53.55,27.41,53.84,27.25,53.84,27.27Z"/></g><g class="cls-14"><path class="cls-15" d="M53.56,31v-.25s0-.08,0-.13,0-.1,0-.16a1.67,1.67,0,0,0-.18-.35,1.8,1.8,0,0,0-.85-.67,2.74,2.74,0,0,0-.67-.16,6.35,6.35,0,0,0-.78,0h-.87c-.3,0-.62,0-.95,0a16.56,16.56,0,0,1-2.07-.29,7.48,7.48,0,0,1-1.09-.32A3.72,3.72,0,0,1,45,28a4.47,4.47,0,0,1-.45-.42,4.78,4.78,0,0,1-.39-.5,7,7,0,0,1-.62-1.11,24.11,24.11,0,0,1-.82-2.33,8.69,8.69,0,0,0-.93-2.07,4.63,4.63,0,0,0-1.45-1.41,5.3,5.3,0,0,0-1.64-.68,5.11,5.11,0,0,0-1.46-.13l-.32,0-.29,0-.13,0-.13,0-.23.06a5.48,5.48,0,0,0-.67.23.76.76,0,0,1-.23.09l.21-.12a3.4,3.4,0,0,1,.66-.28l.24-.07.13,0,.14,0,.29-.05a3.16,3.16,0,0,1,.32,0,5.37,5.37,0,0,1,1.51.1,5.55,5.55,0,0,1,1.7.68A4.73,4.73,0,0,1,42,21.43a8.8,8.8,0,0,1,1,2.11c.26.76.48,1.55.83,2.32a6.5,6.5,0,0,0,.59,1.07,4.37,4.37,0,0,0,.37.48,4.07,4.07,0,0,0,.43.4,3.86,3.86,0,0,0,1,.57,8.15,8.15,0,0,0,1.07.31,17.43,17.43,0,0,0,2,.31l.93.05H51a6.67,6.67,0,0,1,.8.06,2.91,2.91,0,0,1,.69.18,1.93,1.93,0,0,1,.88.73,1.59,1.59,0,0,1,.17.39,1.1,1.1,0,0,1,0,.16v.25a.31.31,0,0,0,0,.08A.32.32,0,0,1,53.56,31Z"/></g><path class="cls-25" d="M43.82,37.52a.43.43,0,0,1,.19.34,1.37,1.37,0,0,1-.1.65,2.22,2.22,0,0,1-.2.41l-.13.2,0,0,0,.06-.1.12a2.51,2.51,0,0,1-1.15.7A2.82,2.82,0,0,1,41,40.1a2.55,2.55,0,0,1-.91-.37,1.42,1.42,0,0,1-.46-.46.41.41,0,0,1-.05-.39c.11-.21.45-.26.87-.28l.68-.05a3.14,3.14,0,0,0,.68-.13,3.28,3.28,0,0,0,.59-.24l.06,0,0,0,0,0a1.67,1.67,0,0,1,.16-.12l.28-.17a2.43,2.43,0,0,1,.49-.27A.47.47,0,0,1,43.82,37.52Z"/><path class="cls-21" d="M39.7,34s.42-2.87-1.36-3.24c-1.45-.3-3.15,1.25-3.15,1.25S39.41,29.58,39.7,34Z"/><path class="cls-22" d="M35,32s.07-.09.22-.17a5.06,5.06,0,0,1,.64-.3,5.54,5.54,0,0,1,1-.3,4.31,4.31,0,0,1,.65-.07,2.87,2.87,0,0,1,.7.07,1.83,1.83,0,0,1,.68.31,1.94,1.94,0,0,1,.45.51,2.63,2.63,0,0,1,.36,1,4.69,4.69,0,0,1,0,.72q0,.26-.06.27s-.06-.09-.1-.25-.08-.4-.16-.68a2.72,2.72,0,0,0-.38-.89,1.6,1.6,0,0,0-.38-.4,1.75,1.75,0,0,0-.52-.23,3.15,3.15,0,0,0-.61-.06,5.68,5.68,0,0,0-.59,0,9.06,9.06,0,0,0-1,.2c-.29.08-.52.14-.69.17S35,32.06,35,32Z"/><path class="cls-24" d="M35.44,30.55c0-.11.13-.32.5-.55a4.28,4.28,0,0,1,.68-.35,6.67,6.67,0,0,1,.89-.27,6.35,6.35,0,0,1,.92-.13,3.71,3.71,0,0,1,.76,0c.43.05.69.17.69.28s-.26.22-.66.31l-.69.16-.84.18-.83.19-.69.16C35.77,30.63,35.49,30.65,35.44,30.55Z"/><path class="cls-26" d="M39.77,44.7A2.25,2.25,0,0,0,40.22,46a2.88,2.88,0,0,0,2.11.53v1.29s-2.41.1-2.52-1.43Z"/><path class="cls-26" d="M42.75,46.61v1.23a1.75,1.75,0,0,0,.73-1.36v-.74a1.1,1.1,0,0,0-.24-.67h0S43.49,46.32,42.75,46.61Z"/><path d="M46.49,113a1,1,0,0,1,0-.23c0-.14,0-.35.07-.63s0-.29.06-.45,0-.35,0-.54c0-.39.1-.84.15-1.33,0-.24.05-.5.07-.76s.05-.55.08-.84c.05-.58.09-1.19.14-1.84l.06-1,0-.52c0-.17,0-.34,0-.52,0-.35,0-.71.05-1.08l0-1.11c0-.38,0-.75,0-1.11s0-.73,0-1.08v-.53c0-.17,0-.35,0-.52,0-.34,0-.67,0-1,0-.65,0-1.27-.06-1.84,0-.29,0-.57,0-.84s0-.53,0-.77c0-.5,0-.94-.08-1.33,0-.19,0-.38,0-.54s0-.32,0-.46,0-.49,0-.64a.77.77,0,0,1,0-.22s0,.08,0,.22,0,.36.08.63,0,.29.05.46,0,.35,0,.54c0,.39.08.83.11,1.33,0,.24,0,.5.06.77s0,.55,0,.84c0,.58.06,1.2.08,1.85,0,.32,0,.66,0,1,0,.17,0,.34,0,.52V100c0,.36,0,.72,0,1.09s0,.74,0,1.11l0,1.12c0,.36,0,.72-.05,1.08l0,.53,0,.51c0,.34,0,.68-.07,1-.05.65-.1,1.27-.16,1.85,0,.29,0,.56-.09.83s-.06.53-.09.77c0,.49-.12.93-.17,1.32,0,.2,0,.37-.07.54s-.06.32-.08.45c0,.28-.08.49-.11.63A.63.63,0,0,1,46.49,113Z"/><path class="cls-2" d="M24.65,3.05l.72,4.76.88.58.66-2,1.57-.79c.24-.13-.06-1.59-.06-1.59L26.55,2.37Z"/><path class="cls-3" d="M25.18,7.19s-2.86,13.69-.12,24.44,6,25.85,8.84,25.07,3.83-3.07.73-10.51-6.28-13.92-5.82-16.53S26.33,12.08,26.6,8.07Z"/><path class="cls-25" d="M63.16,64.32H94.89S91,54.92,83,56.6c0,0,.82-10.29-7-6.86A14.26,14.26,0,0,0,67.54,60.6S62.55,57.27,63.16,64.32Z"/><path class="cls-25" d="M0,90.57H24.65s-3-7.3-9.21-6c0,0,.64-8-5.4-5.33a11.06,11.06,0,0,0-6.6,8.43S-.44,85.09,0,90.57Z"/><path class="cls-27" d="M85.75,54.14H110s-3-7.17-9.06-5.89c0,0,.63-7.85-5.3-5.24a10.87,10.87,0,0,0-6.5,8.29S85.28,48.76,85.75,54.14Z"/><path class="cls-27" d="M6,40H30.17s-3-7.18-9.06-5.89c0,0,.63-7.86-5.31-5.24a10.9,10.9,0,0,0-6.5,8.29S5.5,34.64,6,40Z"/></g></g></svg>