<svg xmlns="http://www.w3.org/2000/svg" viewBox="0 0 50.15 56.93"><defs><style>.cls-1{fill:#1a1b1e;}.cls-2{fill:#e8e8e8;}.cls-3{fill:#c38e79;}.cls-4,.cls-7{fill:#995e52;}.cls-18,.cls-4{opacity:0.28;}.cls-5{fill:#c1ad9f;}.cls-6{fill:#a08472;}.cls-7{opacity:0.22;}.cls-8{fill:#e2ad8f;}.cls-9{fill:#d68772;}.cls-10{fill:#e5b699;}.cls-11{fill:#bf846a;}.cls-12{fill:#f5f0e8;}.cls-13{fill:#3a3047;}.cls-14{fill:#fff;}.cls-15{opacity:0.19;}.cls-16{fill:#f5f0e1;}.cls-17{opacity:0.51;}.cls-19{fill:#aa8b71;}.cls-20{fill:#222326;}.cls-21{fill:#dbdbdb;}</style></defs><title>smileРесурс 14</title><g id="Слой_2" data-name="Слой 2"><g id="Objects"><path class="cls-1" d="M20.49,56.93H12.55c.28-.37.54-.68.73-.91s.5-.54.5-.54a12.62,12.62,0,0,1,3.44,0A6.18,6.18,0,0,1,20.49,56.93Z"/><path class="cls-1" d="M24.85,56.93H21.18l.42-.12a5.67,5.67,0,0,1,2-.18.55.55,0,0,1,.18,0A3.75,3.75,0,0,1,24.85,56.93Z"/><path class="cls-2" d="M27.53,50.68l-.66,6.25H16.94a1.62,1.62,0,0,1,0-.19c0-.12.05-.25.08-.39s.06-.27.09-.42.05-.28.07-.43c.63-3.25,1.2-7.71.15-9.7-1.23-2.3-4.06-7.22-5.68-10h0c-.72-1.23-1.19-2.05-1.19-2.05L12,30.87l.58-1.07h0l.29-.08a17,17,0,0,1,3.14-.66l.48-.05.29,0c.37,0,.76,0,1.14,0A8.76,8.76,0,0,1,19,29l.29.05a1.36,1.36,0,0,1,.29.06l.16,0a5.48,5.48,0,0,1,1.4.53v0s0,0,0,.05l3.36,6.76a0,0,0,0,1,0,0l2.63,5.31L27.42,48h0Z"/><path class="cls-3" d="M16,25.34v2.2a2.32,2.32,0,0,0,2.32,2.31h1.23V25Z"/><path class="cls-4" d="M16,25.34v.92s1.39.86,3.55-.46l.09-1Z"/><path class="cls-5" d="M12.5,8.22S9,2.22,13.63.52s7.2,5.37,12,6.13,5.18,4.56,3,9.92-1.13,4.36-2.21,5.37-6.51,3.79-13.58,1.58S5.35,9.36,7.82,6.08,12.5,8.22,12.5,8.22Z"/><path class="cls-6" d="M11,22.75s-.05,0-.14-.09a4.62,4.62,0,0,1-.37-.31l-.25-.24-.28-.3a8.3,8.3,0,0,1-.61-.8,8.87,8.87,0,0,1-1.13-2.37,9.94,9.94,0,0,1-.35-1.52,11.16,11.16,0,0,1-.13-1.66,12.82,12.82,0,0,1,.08-1.66,11.58,11.58,0,0,1,.27-1.53,8.42,8.42,0,0,1,.45-1.34,3.86,3.86,0,0,1,.66-1,1.62,1.62,0,0,1,.89-.52,1.35,1.35,0,0,1,.77.09,1,1,0,0,1,.37.32.41.41,0,0,1,.06.11v0l0,0-.07-.1a.92.92,0,0,0-.38-.26,1.24,1.24,0,0,0-.71-.06,1.58,1.58,0,0,0-.8.51,3.82,3.82,0,0,0-.61,1,8,8,0,0,0-.42,1.31A13.59,13.59,0,0,0,8,13.82a12.6,12.6,0,0,0-.08,1.64A10.78,10.78,0,0,0,8,17.09a10.54,10.54,0,0,0,.33,1.49,9.11,9.11,0,0,0,1.07,2.34c.2.31.4.58.58.81s.19.22.27.31l.23.25.34.34C10.94,22.7,11,22.75,11,22.75Z"/><path class="cls-7" d="M12.92,8.46S8.17,3.23,7.49,14.9a9.17,9.17,0,0,0,2.43,6.81,7.54,7.54,0,0,0,4.57,2.45Z"/><path class="cls-6" d="M13.06,2.25s0,0,0,.06l-.12.13a2.39,2.39,0,0,0-.36.53,2.87,2.87,0,0,0-.26.91A3.31,3.31,0,0,0,12.36,5a6.68,6.68,0,0,0,.38,1.12c.15.33.3.63.43.87a3.85,3.85,0,0,0,.35.55c.1.12.16.18.15.19s-.09,0-.21-.14A2.27,2.27,0,0,1,13,7.11c-.14-.25-.31-.54-.47-.87a6,6,0,0,1-.42-1.15,3.45,3.45,0,0,1-.05-1.23,2.52,2.52,0,0,1,.32-1,2.06,2.06,0,0,1,.43-.52L13,2.27Z"/><path class="cls-6" d="M27.33,20s0-.1.08-.28a3.64,3.64,0,0,0,.17-.76,4.12,4.12,0,0,0,0-1.15,5.59,5.59,0,0,0-.16-.65,4.48,4.48,0,0,0-.29-.68,6,6,0,0,0-.78-1.18,10,10,0,0,0-.79-.86,8.45,8.45,0,0,1-.78-.75,3.74,3.74,0,0,1,.88.64,8.48,8.48,0,0,1,.84.85,5.57,5.57,0,0,1,.82,1.21,4.15,4.15,0,0,1,.29.7,4.86,4.86,0,0,1,.16.69,4,4,0,0,1,0,1.2,2.66,2.66,0,0,1-.25.77C27.4,19.91,27.34,20,27.33,20Z"/><path class="cls-6" d="M24.17,23.2a3.48,3.48,0,0,1,.38-.63l.19-.31c.06-.11.13-.24.19-.37a7.09,7.09,0,0,0,.38-.87,7.62,7.62,0,0,0,.26-.92c0-.14.06-.28.08-.41l0-.18c0-.06,0-.12,0-.18a4,4,0,0,1,.09-.72,1.9,1.9,0,0,1,.06.74s0,.11,0,.17a1.36,1.36,0,0,1,0,.2,3.53,3.53,0,0,1-.06.42,6.39,6.39,0,0,1-.25.95,6.76,6.76,0,0,1-.4.89l-.22.37-.22.31A2.14,2.14,0,0,1,24.17,23.2Z"/><path class="cls-6" d="M7.65,18.54A2.24,2.24,0,0,1,7.36,18l0-.07,0-.08-.06-.16c0-.11-.09-.24-.14-.37S7,17,7,16.89a2.17,2.17,0,0,0-.07-.24c0-.08,0-.17,0-.25l-.06-.27a2.33,2.33,0,0,1,0-.28q0-.28-.09-.6c0-.21,0-.43,0-.65v-.69a10.11,10.11,0,0,1,.53-3A9.45,9.45,0,0,1,8.53,8.18,3.75,3.75,0,0,1,9,7.65a2.34,2.34,0,0,1,.55-.4,1.76,1.76,0,0,1,.3-.1l.3-.06a2.22,2.22,0,0,1,.58,0,3.11,3.11,0,0,1,.92.3,4.51,4.51,0,0,1,.62.39,3.71,3.71,0,0,1,.48.38,3.71,3.71,0,0,1-.53-.32,6.42,6.42,0,0,0-.62-.34,2.82,2.82,0,0,0-.89-.26,2.41,2.41,0,0,0-.54,0l-.27.06a2.15,2.15,0,0,0-.27.1,2.49,2.49,0,0,0-.91.89A9.59,9.59,0,0,0,7.32,11a10.36,10.36,0,0,0-.54,2.95v.67c0,.22,0,.44,0,.64s.05.4.08.59,0,.19,0,.28a2.56,2.56,0,0,1,.05.27c0,.08,0,.17,0,.25l.06.23c0,.16.08.3.12.44l.12.37a1,1,0,0,1,0,.16l0,.08,0,.07A5.81,5.81,0,0,1,7.65,18.54Z"/><path class="cls-7" d="M24.75,13.86s3.66,2.84.73,8.71l-1.36.66a5.86,5.86,0,0,1-1,.36l-1.8.45S25.92,16.31,24.75,13.86Z"/><path class="cls-8" d="M10.79,15.23s-1.91-.76-2.06,1.17c-.2,2.65,2,2.63,2,2.63Z"/><path class="cls-9" d="M9.21,16.19s0,0,0-.1a.53.53,0,0,1,.22-.19.76.76,0,0,1,.43-.05.89.89,0,0,1,.46.26,1.48,1.48,0,0,1,.29.41,2,2,0,0,1,.14.38c.05.23,0,.38,0,.38s0-.14-.13-.33a3.57,3.57,0,0,0-.17-.34,1.73,1.73,0,0,0-.27-.35A.74.74,0,0,0,9.84,16a.78.78,0,0,0-.34,0C9.31,16.09,9.24,16.21,9.21,16.19Z"/><path class="cls-9" d="M10.47,17.69s0,0,0,.11a.37.37,0,0,1-.29.11.55.55,0,0,1-.41-.23,1,1,0,0,1-.22-.5,1.26,1.26,0,0,1,0-.55.63.63,0,0,1,.29-.36.35.35,0,0,1,.31,0c.07,0,.09.06.09.08h-.11a.4.4,0,0,0-.22.08.51.51,0,0,0-.17.29,1,1,0,0,0,0,.46,1,1,0,0,0,.16.42.49.49,0,0,0,.27.2.38.38,0,0,0,.23,0S10.46,17.68,10.47,17.69Z"/><path class="cls-8" d="M24.74,15.23s1.91-.76,2.06,1.17c.21,2.65-2,2.63-2,2.63Z"/><path class="cls-9" d="M26.33,16.19s-.11-.1-.3-.15a.77.77,0,0,0-.34,0,.85.85,0,0,0-.35.22,2.19,2.19,0,0,0-.27.35,3.26,3.26,0,0,0-.16.34c-.08.19-.1.33-.13.33s-.06-.15,0-.38a1.9,1.9,0,0,1,.13-.38,1.72,1.72,0,0,1,.29-.41.89.89,0,0,1,.46-.26.73.73,0,0,1,.43.05.43.43,0,0,1,.22.19C26.34,16.15,26.34,16.19,26.33,16.19Z"/><path class="cls-9" d="M25.07,17.69s0,0,.09,0a.36.36,0,0,0,.22,0,.43.43,0,0,0,.27-.2,1.13,1.13,0,0,0,.17-.42,1.17,1.17,0,0,0,0-.46.52.52,0,0,0-.18-.29.37.37,0,0,0-.22-.08h-.1s0-.05.09-.08a.35.35,0,0,1,.31,0,.61.61,0,0,1,.28.36,1.13,1.13,0,0,1,.05.55,1.14,1.14,0,0,1-.22.5.56.56,0,0,1-.41.23.4.4,0,0,1-.3-.11C25.05,17.74,25.05,17.69,25.07,17.69Z"/><path class="cls-10" d="M18,6.82a6.32,6.32,0,0,0-7.32,5.9c-.18,3-.14,6.81.92,8.52,1.87,3,5.32,5,6.82,4.6S25,22.22,25,18.6s-.22-8.69-.22-8.69A16.37,16.37,0,0,0,18,6.82Z"/><path class="cls-9" d="M20.31,20.38s0,.09-.11.18-.1.11-.17.17l-.24.2-.15.11-.17.1-.18.12-.2.1a4.16,4.16,0,0,1-1,.35,3.58,3.58,0,0,1-1,.07,3,3,0,0,1-.81-.16c-.45-.15-.69-.32-.67-.37s.3,0,.74.08a4.33,4.33,0,0,0,1.67,0,6.78,6.78,0,0,0,1.59-.61c.09-.06.19-.1.26-.14l.21-.11C20.21,20.38,20.29,20.36,20.31,20.38Z"/><path class="cls-11" d="M19.15,16.21s0-2.9,1.84-3c1.48-.08,2.92,1.71,2.92,1.71S20.1,11.93,19.15,16.21Z"/><path class="cls-12" d="M19.17,16.47s.23-4.2,4.55-1.47A11.05,11.05,0,0,1,19.17,16.47Z"/><path class="cls-13" d="M24.08,15s-.11,0-.27,0l-.65-.27c-.27-.11-.59-.24-.95-.35a5,5,0,0,0-.58-.12,3.08,3.08,0,0,0-.61,0,1.44,1.44,0,0,0-1,.48,2.92,2.92,0,0,0-.52.83c-.11.26-.19.49-.25.64s-.11.24-.14.24,0-.11,0-.27a3.62,3.62,0,0,1,.13-.71,2.64,2.64,0,0,1,.51-1,1.78,1.78,0,0,1,.53-.44,1.72,1.72,0,0,1,.71-.21,2.75,2.75,0,0,1,.71,0,5.09,5.09,0,0,1,.62.16,6.53,6.53,0,0,1,1,.45,5.26,5.26,0,0,1,.59.4C24,14.92,24.09,15,24.08,15Z"/><path class="cls-13" d="M20.68,14.15s.05,2.06,1.75,1.57c1.28-.37,1.05-1.13,1.05-1.13S21.57,13.75,20.68,14.15Z"/><path class="cls-14" d="M21.67,15c0,.11-.23.27-.59.36s-.67.08-.7,0,.24-.27.59-.37S21.65,14.83,21.67,15Z"/><path class="cls-11" d="M15.49,16.67s.24-2.89-1.57-3.14C12.45,13.32,10.86,15,10.86,15S14.91,12.32,15.49,16.67Z"/><path class="cls-12" d="M15.46,16.92s.12-4.2-4.42-1.85A11,11,0,0,0,15.46,16.92Z"/><path class="cls-13" d="M10.69,15.05s.06-.09.2-.18a6.32,6.32,0,0,1,.63-.34,6.1,6.1,0,0,1,1-.36,4.14,4.14,0,0,1,.63-.11,2.83,2.83,0,0,1,.71,0,1.76,1.76,0,0,1,.7.27,1.69,1.69,0,0,1,.48.48,2.6,2.6,0,0,1,.42,1,3.8,3.8,0,0,1,.08.72c0,.17,0,.26-.05.27s-.07-.09-.12-.25-.1-.39-.19-.66a2.9,2.9,0,0,0-.45-.87,1.57,1.57,0,0,0-.4-.37,1.44,1.44,0,0,0-.54-.19,2.47,2.47,0,0,0-.61,0,3.68,3.68,0,0,0-.58.08,8.06,8.06,0,0,0-1,.26c-.28.09-.51.17-.67.21S10.7,15.08,10.69,15.05Z"/><path class="cls-13" d="M15.46,16.08s-.12.84-1.37.54-.5-2.31-.5-2.31A2.09,2.09,0,0,1,15.46,16.08Z"/><path class="cls-14" d="M12.44,15.11c0-.12.33-.17.69-.12s.64.19.62.31-.32.16-.68.11S12.43,15.22,12.44,15.11Z"/><path class="cls-9" d="M17.85,19.82s-.18.07-.49,0a3.12,3.12,0,0,1-1.25-.45l-.21-.12.21-.16a6.22,6.22,0,0,0,.84-.75,2.27,2.27,0,0,0,.39-.49,1.07,1.07,0,0,0,.19-.56,3.78,3.78,0,0,0,0-.82c0-.27-.05-.54-.09-.79-.07-.5-.16-1-.25-1.32a5.67,5.67,0,0,1-.26-1.23,2.86,2.86,0,0,1,.55,1.15,9.51,9.51,0,0,1,.35,1.34c.05.25.09.53.12.81l0,.43a2.46,2.46,0,0,1,0,.47,1.42,1.42,0,0,1-.08.4,1.45,1.45,0,0,1-.18.35,3,3,0,0,1-.45.54,5.15,5.15,0,0,1-.94.75v-.28a3.66,3.66,0,0,0,1.1.54C17.68,19.75,17.85,19.79,17.85,19.82Z"/><g class="cls-15"><path class="cls-9" d="M24.33,17.41a1.16,1.16,0,0,1-.56,1,4.07,4.07,0,0,1-1.54.7,4.13,4.13,0,0,1-1.69.08,1.16,1.16,0,0,1-.95-.62,1.06,1.06,0,0,1,.4-1.08,3.94,3.94,0,0,1,3.49-.84C24,16.78,24.29,17.06,24.33,17.41Z"/></g><g class="cls-15"><path class="cls-9" d="M15.63,18.74a1.14,1.14,0,0,1-.93.64,4.06,4.06,0,0,1-1.69,0,4.06,4.06,0,0,1-1.56-.65,1.18,1.18,0,0,1-.59-1c0-.35.34-.64.84-.81a3.62,3.62,0,0,1,1.84-.05,3.63,3.63,0,0,1,1.66.79A1.06,1.06,0,0,1,15.63,18.74Z"/></g><path class="cls-7" d="M11.31,3.12s3-1.4,4.15,1.52c1.19,3.13,6.33,9.82,12.17,8.87,0,0-10.42-13.76-15.8-11.26l-.32.19Z"/><path class="cls-16" d="M11.37,2.84c0,.19,3-2.66,5.28,2.44s7.27,8.18,10.69,8.21c2.68,0,1,3.76,1,3.76S33.15,7.91,26.5,6.83C20,5.78,18.7-1.43,13.42.25A4.3,4.3,0,0,0,11.37,2.84Z"/><g class="cls-17"><path class="cls-6" d="M30.09,9.9l-.2.12a4.5,4.5,0,0,1-.61.29,6.21,6.21,0,0,1-1,.32,7,7,0,0,1-3.12,0,7.08,7.08,0,0,1-1.85-.72,7.2,7.2,0,0,1-1.72-1.35,9.85,9.85,0,0,1-1.33-1.93c-.39-.7-.73-1.4-1.1-2a9.93,9.93,0,0,0-1.21-1.76,6.54,6.54,0,0,0-.72-.68L17,2l-.2-.13a4,4,0,0,0-.4-.22,4.85,4.85,0,0,0-1.61-.46,5.14,5.14,0,0,0-1.38.05,4.37,4.37,0,0,0-1,.29l-.19.08a.8.8,0,0,0-.16.08l-.14.06-.11.07a1,1,0,0,1-.21.11.86.86,0,0,1,.19-.15l.1-.07L12,1.64l.16-.09.19-.09a5.1,5.1,0,0,1,1-.33,5.33,5.33,0,0,1,1.42-.08,5,5,0,0,1,1.67.45,3.3,3.3,0,0,1,.41.23,1.48,1.48,0,0,1,.21.13l.2.14a5.51,5.51,0,0,1,.75.7,9.36,9.36,0,0,1,1.25,1.79c.38.66.72,1.36,1.1,2.05a9.91,9.91,0,0,0,1.31,1.89,7,7,0,0,0,3.45,2,6.69,6.69,0,0,0,1.67.19,7,7,0,0,0,1.38-.14,7.92,7.92,0,0,0,1-.28C29.8,10,30.08,9.88,30.09,9.9Z"/></g><g class="cls-17"><path class="cls-6" d="M29.78,13.59v-.07s0,0,0-.07v-.11s0-.08,0-.13a1.24,1.24,0,0,0,0-.16,1.44,1.44,0,0,0-.17-.36,1.86,1.86,0,0,0-.85-.67,2.63,2.63,0,0,0-.67-.16,6.26,6.26,0,0,0-.78,0h-.87c-.3,0-.62,0-.94-.05a16.14,16.14,0,0,1-2.07-.3,6.46,6.46,0,0,1-1.09-.33,3.75,3.75,0,0,1-1-.6,3.56,3.56,0,0,1-.45-.42,4.78,4.78,0,0,1-.39-.5,7,7,0,0,1-.6-1.11A24.14,24.14,0,0,1,19,6.17a9.09,9.09,0,0,0-.92-2.07,4.67,4.67,0,0,0-1.44-1.43,5.34,5.34,0,0,0-3.1-.83l-.31,0-.29,0-.14,0-.12,0L12.44,2a6.17,6.17,0,0,0-.67.23l-.23.09s.07-.05.21-.13a4.54,4.54,0,0,1,.67-.27l.23-.06.13,0,.14,0,.29-.05c.11,0,.21,0,.33,0a5,5,0,0,1,1.5.11,5.7,5.7,0,0,1,1.7.68A5.13,5.13,0,0,1,18.25,4a9.4,9.4,0,0,1,.94,2.11c.26.76.47,1.56.81,2.32a6.21,6.21,0,0,0,.59,1.08c.11.17.24.33.36.48a5.36,5.36,0,0,0,.43.4,3.62,3.62,0,0,0,1,.58,7.12,7.12,0,0,0,1.06.32,16.16,16.16,0,0,0,2,.32c.32,0,.64,0,.94.05l.87,0a6.7,6.7,0,0,1,.79.05,3,3,0,0,1,.7.19,1.92,1.92,0,0,1,.87.74,1.19,1.19,0,0,1,.16.38,1.22,1.22,0,0,1,0,.17.71.71,0,0,1,0,.14s0,.08,0,.11a.19.19,0,0,1,0,.08S29.79,13.59,29.78,13.59Z"/></g><g class="cls-18"><path class="cls-9" d="M19,21.61c.05.07,0,.23-.25.4a1.93,1.93,0,0,1-1,.32,2.45,2.45,0,0,1-1-.14c-.24-.08-.38-.18-.37-.27s.17-.14.41-.17.57,0,.9-.05a7.14,7.14,0,0,0,.85-.1C18.83,21.56,19,21.54,19,21.61Z"/></g><g class="cls-18"><path class="cls-9" d="M18.53,21.2c0,.09-.11.15-.26.2a2.44,2.44,0,0,1-.59.09,2.76,2.76,0,0,1-.6,0c-.16,0-.27-.09-.28-.18s.06-.18.21-.26a1.58,1.58,0,0,1,.64-.16,1.51,1.51,0,0,1,.64.1C18.45,21,18.54,21.11,18.53,21.2Z"/></g><path class="cls-19" d="M22.05,11c-.08.1-.32,0-.65,0a2.09,2.09,0,0,0-.57.09,2.13,2.13,0,0,0-.63.3,5.14,5.14,0,0,0-1,1c-.25.31-.45.5-.55.45s-.11-.32,0-.73a2.64,2.64,0,0,1,.35-.69,2.44,2.44,0,0,1,.69-.71,2,2,0,0,1,1-.37,1.72,1.72,0,0,1,.84.09,1.06,1.06,0,0,1,.47.32C22.07,10.86,22.09,11,22.05,11Z"/><path class="cls-19" d="M15.78,13.16c0,.12-.27.17-.64.19a14,14,0,0,1-1.42,0c-.55,0-1.05-.06-1.42-.11s-.61-.14-.62-.25.21-.25.59-.35a5,5,0,0,1,1.49-.13,5.36,5.36,0,0,1,1.47.27C15.6,12.9,15.8,13.05,15.78,13.16Z"/><path class="cls-10" d="M43.52,52.65a19.52,19.52,0,0,0-3.89.18l-.58-1.92,3.82-.12a15.8,15.8,0,0,1,1.73-1.86c1.09-1,1.77-1.8,1.7-1.38s-1.52,2.11-1,2.41,5,.2,4.89.5-3.28.31-3.59.51c0,0,.12.92-.13,1.18s-.41.68-.76.62S43.52,52.65,43.52,52.65Z"/><path class="cls-1" d="M23.77,30.62a58.06,58.06,0,0,0,1.59,9.65c1.29,5,2.88,13.54,6.62,13.54a77.45,77.45,0,0,0,9.8-1l-.58-2.16a66.27,66.27,0,0,1-8.42-2.2S28.38,30.48,23.77,30.62Z"/><path class="cls-20" d="M21.6,56.81s0,.08,0,.12H12.15l.62-.88.09-.14,1.52-2.15c2-4.51-2.26-11-4.37-13.75-.65-.86-1.1-1.37-1.1-1.37V30.86l2.15-.61,1.56-.45h0l.29-.08a56.56,56.56,0,0,1,8.21,13.61C22.74,47.06,22.41,52.27,21.6,56.81Z"/><path class="cls-20" d="M29.15,56.93H26c.39-3.59.81-7.65.94-10.65a11.36,11.36,0,0,0-.27-4.18c-.34-.65-1-2-1.68-3.62v0c-1.6-3.58-3.59-8.3-3.77-8.72v0l2.62.91.69.24s6.34,11.28,4.61,17.31l0,3.59h0Z"/><polygon class="cls-3" points="18.6 30.54 20.31 33.62 19.01 30.54 19.01 28.82 17.78 28.41 18.6 30.54"/><path class="cls-21" d="M16,27.38a2.33,2.33,0,0,0,.44,1.33,2.93,2.93,0,0,0,2.12.54v1.29s-2.42.08-2.52-1.44Z"/><path class="cls-21" d="M19,29.31v1.23a1.75,1.75,0,0,0,.74-1.36v-.73a1.08,1.08,0,0,0-.24-.67h0S19.75,29,19,29.31Z"/><g class="cls-17"><path class="cls-6" d="M24.2,48.68v.42c0,.28,0,.55,0,.83s0,.55,0,.82l0,.8c0,.27,0,.53,0,.79,0,.52-.06,1-.1,1.54s-.07,1-.11,1.47-.07.88-.11,1.3l0,.28h-.18l0-.3c0-.42.07-.85.1-1.3s.07-1,.1-1.47.07-1,.09-1.53c0-.26,0-.52,0-.79l0-.8c0-.27,0-.54,0-.81s0-.55,0-.83a28.09,28.09,0,0,0-.21-3.22c-.12-1-.29-2-.48-3A37.29,37.29,0,0,0,22,38c-.48-1.37-.94-2.45-1.28-3.19-.16-.37-.3-.65-.39-.85a1.59,1.59,0,0,1-.12-.3,2.43,2.43,0,0,1,.16.28c.1.19.25.47.43.84.35.73.84,1.8,1.34,3.17a36.54,36.54,0,0,1,1.39,4.92c.2.94.37,1.94.5,3,0,.26.05.52.08.79s.05.53.07.8l0,.41c0,.14,0,.27,0,.41S24.19,48.55,24.2,48.68Z"/></g><path class="cls-1" d="M12.87,55.92l-.08.13-.53.88H9.77C7.07,55.42,2.93,53.54.44,50.8S6.29,34.07,7.75,31.73a3,3,0,0,1,3.31-1.48,2.75,2.75,0,0,1,.54.15,1.41,1.41,0,0,1,.44.47c.58,1,.32,2.78-.35,4.9h0A39,39,0,0,1,10,40a94.34,94.34,0,0,1-4.59,8.68l7.44,7.22Z"/><polygon class="cls-1" points="15.91 56.93 14.71 56.93 14.92 56.69 15.27 56.28 15.59 56.61 15.66 56.68 15.91 56.93"/><path class="cls-10" d="M17,56.74c.29,0,.47.1.41.19H12l.67-.88h.08l.49,0c.94-.05,2.84-.13,3.87-.09.45,0,.73,0,.71.12s-.37.2-.8.3-1,.19-1.47.26l-.67.08h.74A11,11,0,0,1,17,56.74Z"/></g></g></svg>