<svg xmlns="http://www.w3.org/2000/svg" xmlns:xlink="http://www.w3.org/1999/xlink" viewBox="0 0 39.77 55.99"><defs><style>.cls-1{fill:#1a1b1e;}.cls-2{fill:#0a0b0c;}.cls-3{fill:#c38e79;}.cls-11,.cls-4{fill:#995e52;}.cls-24,.cls-4{opacity:0.28;}.cls-5{fill:#e8e8e8;}.cls-6{fill:#222326;}.cls-7{fill:#dbdbdb;}.cls-8{opacity:0.51;}.cls-9{fill:#a08472;}.cls-10{fill:#c1ad9f;}.cls-11{opacity:0.22;}.cls-12{fill:#e2ad8f;}.cls-13{fill:#d68772;}.cls-14{fill:#e5b699;}.cls-15{fill:#f5f0e1;}.cls-16{fill:#bf846a;}.cls-17{fill:#f5f0e8;}.cls-18{fill:#3a3047;}.cls-19{fill:#fff;}.cls-20{fill:#aa8b71;}.cls-21{fill:#dda98c;}.cls-22{opacity:0.39;}.cls-23,.cls-25{fill:#313b51;}.cls-25{opacity:0.19;}.cls-26{opacity:0.25;fill:url(#Degradado_sin_nombre_21);}.cls-27{fill:#d1d1d1;}</style><linearGradient id="Degradado_sin_nombre_21" x1="525.34" y1="575.15" x2="517.51" y2="557.57" gradientTransform="translate(-385.23 -600.53) rotate(9.82)" gradientUnits="userSpaceOnUse"><stop offset="0.09" stop-color="#61c2f2"/><stop offset="1" stop-color="#6bbae4" stop-opacity="0"/></linearGradient></defs><title>untrust_chartРесурс 13</title><g id="Слой_2" data-name="Слой 2"><g id="Objects"><path class="cls-1" d="M6.86,56A14.9,14.9,0,0,1,8,54.65c.59-.07,1.14-.1,1.66-.11a10.54,10.54,0,0,1,1.74.11l.53.09h0A6.13,6.13,0,0,1,14.62,56Z"/><path class="cls-1" d="M15.63,56l.14,0a5.68,5.68,0,0,1,1.95-.2h.18a4.13,4.13,0,0,1,1,.23Z"/><path class="cls-2" d="M18.69,32.07s5.59,16.37,7,16,9.83-1.54,9.83-1.54l1.14.48S27,53.25,24.47,52.27,17,42,17.08,42,18.69,32.07,18.69,32.07Z"/><polygon class="cls-3" points="10.11 25.25 10.13 29.76 13.68 29.75 13.65 24.85 10.11 25.25"/><path class="cls-4" d="M10.11,25.25v.93s1.39.84,3.55-.48l.08-1Z"/><path class="cls-5" d="M21.58,50.38l-.2,2L21,56H11.16c.07-.39.15-.79.22-1.22a.5.5,0,0,0,0-.12,23.81,23.81,0,0,0,.4-7.87.19.19,0,0,1,0-.07,3.2,3.2,0,0,0-.29-.92.14.14,0,0,0,0-.06,1.42,1.42,0,0,0-.08-.18c-1.78-3.31-6.94-12-6.94-12L5.27,32l1.29-2.4h0l.29-.08A17.76,17.76,0,0,1,10,28.82l.12,0c.22,0,.43-.05.66-.06h0c.37,0,.75,0,1.13,0a8.59,8.59,0,0,1,1,.07l.29.05.43.08h0a5.69,5.69,0,0,1,1.41.53.08.08,0,0,0,0,0l3,6,3,6.06.34,7.47v.25Z"/><path class="cls-6" d="M16.31,49.22A33.68,33.68,0,0,1,16.05,54c-.08.65-.17,1.3-.28,1.94v0h-9l1.71-2.46a.19.19,0,0,0,0-.07c2.48-5.93-5.9-17.55-5.9-17.55L2.83,31h0l0-.32,3.71-1.08h0l.29-.08a56.59,56.59,0,0,1,8.28,13.57A16.69,16.69,0,0,1,16.31,49.22Z"/><path class="cls-6" d="M23.39,45.71a8.21,8.21,0,0,1-.29,2.15l0,1.14,0,2.26v.59L23.22,56H20.09c.11-1.08.22-2.19.33-3.29h0c.11-1.23.22-2.45.31-3.61l.06-.83c.21-3.14.25-5.68-.17-6.45S19.09,38.58,18,36.2c-1.39-3.13-2.78-6.38-2.93-6.72a.08.08,0,0,1,0,0l3.32,1.13s.58,1,1.34,2.6c1.32,2.75,3.2,7.22,3.57,11.07a14.35,14.35,0,0,1,.07,1.45Z"/><polygon class="cls-3" points="12.54 30.29 14.27 33.36 12.96 30.29 12.95 28.57 11.71 28.16 12.54 30.29"/><path class="cls-7" d="M10,27.14a2.27,2.27,0,0,0,.45,1.33,2.88,2.88,0,0,0,2.11.53v1.29s-2.41.09-2.52-1.43Z"/><path class="cls-7" d="M13,29.06v1.23a1.75,1.75,0,0,0,.73-1.36v-.74a1.1,1.1,0,0,0-.24-.67h0S13.69,28.77,13,29.06Z"/><g class="cls-8"><path class="cls-9" d="M18.24,48.82v.83c0,.27,0,.54,0,.81l0,.81,0,.79c0,.46-.05.92-.08,1.37,0,.06,0,.11,0,.17,0,.5-.07,1-.11,1.47l-.06.69a1.64,1.64,0,0,1,0,.23H17.7c0-.08,0-.16,0-.24s0-.46.05-.69c0-.48.06-1,.1-1.48v-.09c0-.47.06-1,.08-1.44,0-.26,0-.52,0-.79s0-.53,0-.8,0-.54,0-.81v-.83a25.66,25.66,0,0,0-.23-3.21c-.13-1-.3-2-.49-3,0-.13,0-.26-.09-.39s-.07-.32-.1-.48a41.16,41.16,0,0,0-1.18-4c-.48-1.37-1-2.44-1.29-3.18l-.4-.85a1.66,1.66,0,0,1-.11-.27,2.21,2.21,0,0,1,.15.25c.1.19.26.47.43.83a31.47,31.47,0,0,1,1.36,3.17c.38,1,.77,2.25,1.12,3.6v0q.16.63.3,1.29c0,.08,0,.16.05.25.18.86.33,1.78.46,2.73l.09.79c0,.26,0,.53.07.8s0,.27,0,.41,0,.27,0,.41,0,.27,0,.41S18.24,48.68,18.24,48.82Z"/></g><path class="cls-10" d="M6.05,8.24S2.53,2.25,7.13.52s7.23,5.34,12,6.07,5.2,4.53,3,9.91S21.07,20.86,20,21.88,13.52,25.7,6.43,23.53-1.1,9.41,1.35,6.11,6.05,8.24,6.05,8.24Z"/><path class="cls-9" d="M4.59,22.77s0,0-.14-.09a4.62,4.62,0,0,1-.37-.31l-.25-.24a2.74,2.74,0,0,1-.28-.3A8.08,8.08,0,0,1,2.93,21a8.87,8.87,0,0,1-1.15-2.37,9.81,9.81,0,0,1-.35-1.51,11.15,11.15,0,0,1-.14-1.66,13.07,13.07,0,0,1,.08-1.67,12.21,12.21,0,0,1,.25-1.53A8,8,0,0,1,2.07,11a3.74,3.74,0,0,1,.65-1.05,1.7,1.7,0,0,1,.89-.53,1.27,1.27,0,0,1,.77.1.92.92,0,0,1,.37.31.41.41,0,0,1,.06.11s0,0,0,0l0,0-.07-.1a.92.92,0,0,0-.38-.26,1.25,1.25,0,0,0-.71-.05,1.58,1.58,0,0,0-.8.51,3.71,3.71,0,0,0-.6,1,7.46,7.46,0,0,0-.42,1.31,13.26,13.26,0,0,0-.24,1.51A14.47,14.47,0,0,0,1.5,15.5a12.36,12.36,0,0,0,.13,1.63A11.19,11.19,0,0,0,2,18.62,9,9,0,0,0,3.05,21a8.56,8.56,0,0,0,.59.81l.26.31.24.25.34.33C4.56,22.72,4.6,22.77,4.59,22.77Z"/><path class="cls-11" d="M6.46,8.47s-4.78-5.2-5.39,6.47a9.2,9.2,0,0,0,2.46,6.8,7.51,7.51,0,0,0,4.59,2.42Z"/><path class="cls-9" d="M6.58,2.26s0,0,0,.06l-.12.13A2.52,2.52,0,0,0,6.07,3a2.72,2.72,0,0,0-.26.91,3.27,3.27,0,0,0,.08,1.15,5.89,5.89,0,0,0,.39,1.12c.15.33.3.63.43.87a4.53,4.53,0,0,0,.35.55c.1.12.16.18.15.19s-.09,0-.21-.14a2.27,2.27,0,0,1-.42-.52q-.23-.36-.48-.87A5.74,5.74,0,0,1,5.68,5.1a3.23,3.23,0,0,1-.06-1.23,2.41,2.41,0,0,1,.32-1,1.65,1.65,0,0,1,.43-.53l.15-.11S6.57,2.25,6.58,2.26Z"/><path class="cls-9" d="M20.93,19.93a1,1,0,0,1,.08-.28,4,4,0,0,0,.17-.76,4.15,4.15,0,0,0,0-1.15,5.74,5.74,0,0,0-.16-.66,6.46,6.46,0,0,0-.29-.67,6.55,6.55,0,0,0-.79-1.18,9.78,9.78,0,0,0-.8-.85,8.45,8.45,0,0,1-.78-.75,3.74,3.74,0,0,1,.88.64,8.13,8.13,0,0,1,.85.83,6.13,6.13,0,0,1,.83,1.21,4.81,4.81,0,0,1,.29.71,3.44,3.44,0,0,1,.16.69,3.7,3.7,0,0,1,0,1.2,3.2,3.2,0,0,1-.24.77A1,1,0,0,1,20.93,19.93Z"/><path class="cls-9" d="M17.79,23.15a3.93,3.93,0,0,1,.38-.63,2.84,2.84,0,0,0,.18-.31c.07-.11.13-.24.2-.37a7.28,7.28,0,0,0,.37-.88c.11-.31.19-.63.26-.91s.05-.28.07-.41l0-.19a1.11,1.11,0,0,0,0-.17,3.43,3.43,0,0,1,.09-.73,2.18,2.18,0,0,1,.06.74,1.09,1.09,0,0,1,0,.18c0,.06,0,.12,0,.19s0,.28-.06.42a7.9,7.9,0,0,1-.25,1,6.92,6.92,0,0,1-.4.9,3.28,3.28,0,0,1-.22.37l-.21.31A2.14,2.14,0,0,1,17.79,23.15Z"/><path class="cls-9" d="M1.24,18.58A4.66,4.66,0,0,1,1,18l0-.07,0-.08-.06-.16c0-.11-.09-.23-.14-.37s-.09-.28-.14-.43,0-.15-.07-.24l-.06-.25-.06-.27a2.33,2.33,0,0,1,0-.28l-.09-.6c0-.21,0-.42,0-.65s0-.45,0-.68a9.79,9.79,0,0,1,.52-3A9.53,9.53,0,0,1,2.07,8.22a3.39,3.39,0,0,1,.45-.54,2.1,2.1,0,0,1,.54-.4,1.82,1.82,0,0,1,.3-.11l.3,0a1.81,1.81,0,0,1,.57,0,2.91,2.91,0,0,1,.93.3,5.84,5.84,0,0,1,.62.38,3,3,0,0,1,.48.38,3,3,0,0,1-.53-.31,4.8,4.8,0,0,0-.62-.34,2.9,2.9,0,0,0-.89-.26,2,2,0,0,0-.54,0l-.28,0-.27.11a2.55,2.55,0,0,0-.9.89A9.76,9.76,0,0,0,.88,11a10.33,10.33,0,0,0-.53,3v.68c0,.22,0,.43,0,.63s0,.41.08.6a2.56,2.56,0,0,0,.05.27,2.56,2.56,0,0,0,0,.27c0,.08,0,.17.05.25l.06.24.12.43.12.37.06.16a.64.64,0,0,0,0,.07L1,18A2.47,2.47,0,0,1,1.24,18.58Z"/><path class="cls-11" d="M18.32,13.81s3.67,2.81.77,8.71l-1.35.66a6.09,6.09,0,0,1-1,.36L15,24S19.5,16.25,18.32,13.81Z"/><path class="cls-12" d="M4.37,15.25s-1.91-.75-2.05,1.18c-.19,2.65,2,2.62,2,2.62Z"/><path class="cls-13" d="M2.79,16.22s0,0,0-.1A.43.43,0,0,1,3,15.93a.73.73,0,0,1,.43,0,.91.91,0,0,1,.46.25,1.72,1.72,0,0,1,.29.41,1.85,1.85,0,0,1,.14.39c0,.23,0,.37,0,.37s0-.13-.13-.33a2.62,2.62,0,0,0-.17-.33,1.78,1.78,0,0,0-.27-.36.93.93,0,0,0-.35-.21.65.65,0,0,0-.34,0C2.9,16.12,2.82,16.24,2.79,16.22Z"/><path class="cls-13" d="M4.06,17.71s0,.05,0,.11a.36.36,0,0,1-.29.12.56.56,0,0,1-.41-.23,1,1,0,0,1-.22-.5,1.11,1.11,0,0,1,0-.55.67.67,0,0,1,.28-.37.47.47,0,0,1,.32,0c.07,0,.09.07.08.08s0,0-.1,0a.46.46,0,0,0-.22.08.55.55,0,0,0-.18.3,1.12,1.12,0,0,0,0,.45,1.05,1.05,0,0,0,.16.42.49.49,0,0,0,.27.2.39.39,0,0,0,.23,0S4.05,17.7,4.06,17.71Z"/><path class="cls-12" d="M18.32,15.18s1.91-.77,2.07,1.15c.22,2.66-2,2.65-2,2.65Z"/><path class="cls-13" d="M19.91,16.13s-.1-.1-.3-.15a.62.62,0,0,0-.33,0,.8.8,0,0,0-.35.21,1.78,1.78,0,0,0-.27.36,2.52,2.52,0,0,0-.16.34c-.08.19-.1.33-.13.33s-.06-.15,0-.38a2,2,0,0,1,.14-.38,1.76,1.76,0,0,1,.29-.42.88.88,0,0,1,.45-.25.71.71,0,0,1,.44,0,.53.53,0,0,1,.22.19C19.92,16.09,19.92,16.13,19.91,16.13Z"/><path class="cls-13" d="M18.66,17.63l.09.05a.32.32,0,0,0,.23,0,.49.49,0,0,0,.27-.2,1.23,1.23,0,0,0,.16-.42,1.4,1.4,0,0,0,0-.46.63.63,0,0,0-.18-.29.49.49,0,0,0-.22-.08h-.11s0-.05.09-.08a.44.44,0,0,1,.31,0,.61.61,0,0,1,.29.37,1.08,1.08,0,0,1,.05.54,1.18,1.18,0,0,1-.22.51.58.58,0,0,1-.41.23.38.38,0,0,1-.29-.12C18.65,17.68,18.65,17.64,18.66,17.63Z"/><path class="cls-14" d="M11.52,6.8a6.33,6.33,0,0,0-7.29,5.94c-.16,3-.11,6.81,1,8.52,1.89,3,5.35,5,6.84,4.57s6.59-3.66,6.53-7.28-.26-8.69-.26-8.69A16.54,16.54,0,0,0,11.52,6.8Z"/><path class="cls-13" d="M11.46,19.81s-.18.06-.5,0a3.24,3.24,0,0,1-1.25-.44l-.21-.13.21-.15a7.12,7.12,0,0,0,.84-.76,4.41,4.41,0,0,0,.39-.49,1.09,1.09,0,0,0,.18-.56,4.53,4.53,0,0,0,0-.82c0-.28-.06-.54-.09-.79-.08-.5-.17-.95-.26-1.32a5.4,5.4,0,0,1-.27-1.23A2.94,2.94,0,0,1,11,14.29a12.21,12.21,0,0,1,.35,1.34q.07.39.12.81c0,.15,0,.29,0,.44a3.61,3.61,0,0,1,0,.47,1.83,1.83,0,0,1-.09.39,1.27,1.27,0,0,1-.17.35,3.14,3.14,0,0,1-.45.54,5.31,5.31,0,0,1-.94.77v-.29a3.78,3.78,0,0,0,1.1.54C11.29,19.74,11.46,19.77,11.46,19.81Z"/><path class="cls-11" d="M4.83,3.14s3-1.42,4.15,1.5c1.21,3.12,6.39,9.79,12.22,8.8,0,0-10.49-13.71-15.86-11.17L5,2.46Z"/><path class="cls-15" d="M4.89,2.86c0,.19,3-2.68,5.29,2.41s7.31,8.15,10.73,8.16c2.68,0,1,3.75,1,3.75S26.69,7.81,20,6.77C13.56,5.76,12.2-1.45,6.92.26A4.31,4.31,0,0,0,4.89,2.86Z"/><g class="cls-8"><path class="cls-9" d="M23.64,9.82a1.13,1.13,0,0,1-.2.12,5.45,5.45,0,0,1-.6.3,6.9,6.9,0,0,1-1,.32,6.41,6.41,0,0,1-1.41.19,6.6,6.6,0,0,1-1.72-.17,6.73,6.73,0,0,1-1.84-.7,6.87,6.87,0,0,1-1.73-1.35,9.79,9.79,0,0,1-1.35-1.91c-.39-.7-.73-1.4-1.1-2a9.56,9.56,0,0,0-1.23-1.75,5.1,5.1,0,0,0-.72-.68L10.53,2l-.2-.13a4,4,0,0,0-.4-.22A5.08,5.08,0,0,0,8.32,1.2a4.73,4.73,0,0,0-1.38.06,4.58,4.58,0,0,0-1,.29l-.19.08-.16.08-.14.07-.11.07c-.13.07-.2.11-.21.1l.19-.14.1-.08.14-.07.16-.09a1.11,1.11,0,0,1,.19-.09,4.39,4.39,0,0,1,1-.34,5.33,5.33,0,0,1,1.42-.09A4.88,4.88,0,0,1,10,1.49a3.42,3.42,0,0,1,.42.23l.21.13.2.14a6.15,6.15,0,0,1,.76.69,10.38,10.38,0,0,1,1.26,1.79c.37.65.72,1.35,1.11,2a9.53,9.53,0,0,0,1.31,1.88,7.14,7.14,0,0,0,1.67,1.32,7,7,0,0,0,1.79.7,6.77,6.77,0,0,0,1.68.19,7,7,0,0,0,1.38-.15,7.17,7.17,0,0,0,1-.29C23.35,10,23.63,9.8,23.64,9.82Z"/></g><g class="cls-8"><path class="cls-9" d="M23.35,13.51v-.06s0,0,0-.08v-.11s0-.08,0-.13a1.24,1.24,0,0,0,0-.16,1.06,1.06,0,0,0-.18-.35,1.75,1.75,0,0,0-.85-.67,2.66,2.66,0,0,0-.66-.16,6.57,6.57,0,0,0-.78,0H20l-.95,0a16.4,16.4,0,0,1-2.07-.3,7.92,7.92,0,0,1-1.1-.31,4.19,4.19,0,0,1-1-.6,5.89,5.89,0,0,1-.45-.42,4.7,4.7,0,0,1-.38-.5,7,7,0,0,1-.62-1.11,24.11,24.11,0,0,1-.82-2.33,8.69,8.69,0,0,0-.93-2.07,4.64,4.64,0,0,0-1.44-1.42,5.35,5.35,0,0,0-3.11-.81l-.31,0-.29,0-.14,0L6.19,2,6,2a5.83,5.83,0,0,0-.67.24l-.23.09a1.12,1.12,0,0,1,.21-.13,5.69,5.69,0,0,1,.67-.28l.24-.06.12,0,.14,0,.29-.06.32,0a5.78,5.78,0,0,1,1.51.11,5.57,5.57,0,0,1,1.7.67A4.89,4.89,0,0,1,11.77,4a9.44,9.44,0,0,1,1,2.11,23.7,23.7,0,0,0,.81,2.32,7.09,7.09,0,0,0,.6,1.08,5.45,5.45,0,0,0,.37.47,4,4,0,0,0,.42.4,3.92,3.92,0,0,0,1,.57,7.07,7.07,0,0,0,1.06.31,14.45,14.45,0,0,0,2,.31c.33,0,.64,0,.94.05h.87a5.06,5.06,0,0,1,.79.06,2.48,2.48,0,0,1,.7.18,1.8,1.8,0,0,1,.87.73,1.29,1.29,0,0,1,.17.39.9.9,0,0,1,0,.16.71.71,0,0,1,0,.14s0,.08,0,.11a.19.19,0,0,1,0,.08S23.36,13.51,23.35,13.51Z"/></g><path class="cls-16" d="M13,15.91s0-2.1,1.89-2.26a3.11,3.11,0,0,1,2.65.72S13.58,14,13,15.91Z"/><path class="cls-16" d="M9.89,16s0-2.1-1.93-2.24a3.07,3.07,0,0,0-2.63.75S9.29,14.09,9.89,16Z"/><path class="cls-17" d="M9.89,16.25s.24-2.4-4.57-1.69A4.32,4.32,0,0,0,9.89,16.25Z"/><path class="cls-18" d="M5.32,14.56c0-.06.29-.12.78-.15a9.15,9.15,0,0,1,1.9.07l.54.08a2.27,2.27,0,0,1,.51.14,1.3,1.3,0,0,1,.44.27,1.34,1.34,0,0,1,.27.34,1.15,1.15,0,0,1,.17.6c0,.14,0,.22-.06.22s-.06-.08-.1-.2a1.92,1.92,0,0,0-.25-.45,1.14,1.14,0,0,0-.25-.24,1.64,1.64,0,0,0-.35-.18A2.75,2.75,0,0,0,8.47,15L8,14.9A17.25,17.25,0,0,1,5.32,14.56Z"/><path class="cls-18" d="M7.41,16.14a4.73,4.73,0,0,0,2.48.11c.23-.23-.08-1.56-1.47-1.08A1.37,1.37,0,0,0,7.41,16.14Z"/><path class="cls-19" d="M7.76,15.26c0,.06,0,.12-.11.17a.83.83,0,0,1-.32.05.7.7,0,0,1-.25-.06.27.27,0,0,1-.15-.1c0-.05,0-.13.08-.19a.38.38,0,0,1,.16-.06.61.61,0,0,1,.46.06A.24.24,0,0,1,7.76,15.26Z"/><path class="cls-17" d="M13,16.24s-.26-2.4,4.56-1.74A4.35,4.35,0,0,1,13,16.24Z"/><path class="cls-18" d="M17.57,14.5a17.18,17.18,0,0,1-2.63.36l-.52.08A2.11,2.11,0,0,0,14,15a1,1,0,0,0-.34.18,1.14,1.14,0,0,0-.25.24,2.13,2.13,0,0,0-.25.45c0,.13-.06.2-.1.2S13,16,13,15.89a1.28,1.28,0,0,1,.16-.6,1.48,1.48,0,0,1,.7-.62,3.34,3.34,0,0,1,.52-.14l.54-.09a10,10,0,0,1,1.89-.09C17.27,14.38,17.57,14.44,17.57,14.5Z"/><path class="cls-18" d="M14.59,16.35s-.08-1.64,1.31-1.68a1.06,1.06,0,0,1,1,.54A3.75,3.75,0,0,1,14.59,16.35Z"/><path class="cls-20" d="M16.38,10.85c0,.12-.25.21-.61.33l-.14,0-.15.06-.32.12c-.22.09-.46.19-.71.32s-.46.27-.66.4a3.39,3.39,0,0,0-.28.2l-.13.09-.12.09c-.3.23-.51.38-.61.32s-.06-.12,0-.24l0-.1a.49.49,0,0,1,0-.11l.13-.27.1-.14a1.34,1.34,0,0,1,.11-.14,2.62,2.62,0,0,1,.28-.3,3.71,3.71,0,0,1,.76-.55,3.77,3.77,0,0,1,.88-.32l.41-.06h.35a2.16,2.16,0,0,1,.29,0l.12,0,.1,0C16.32,10.74,16.38,10.8,16.38,10.85Z"/><path class="cls-20" d="M9.62,13.55c0,.23-1,.32-2.2.19s-2.14-.41-2.12-.64,1-.32,2.21-.19S9.65,13.32,9.62,13.55Z"/><path class="cls-13" d="M13.09,21.28c0,.13-.81.06-1.74.24s-1.65.52-1.72.41.12-.2.41-.37a2.91,2.91,0,0,1,.53-.26,4.45,4.45,0,0,1,.7-.19A3.73,3.73,0,0,1,12,21a3.49,3.49,0,0,1,.59,0C12.91,21.14,13.1,21.23,13.09,21.28Z"/><path class="cls-21" d="M34.23,47.26c.1-.27,2.75.67,3.23.36S39.31,46,39.31,46L34,47Z"/><g class="cls-22"><rect class="cls-23" x="27.03" y="40.3" width="1.43" height="6.97" transform="translate(-7.19 5.49) rotate(-10.01)"/><rect class="cls-23" x="29.94" y="40.95" width="1.43" height="5.85" transform="translate(-7.15 5.99) rotate(-10)"/><rect class="cls-23" x="33.05" y="41.55" width="1.43" height="4.61" transform="translate(-7.11 6.54) rotate(-10.01)"/><rect class="cls-23" x="35.9" y="43.74" width="1.43" height="2" transform="translate(-7.21 7.03) rotate(-9.99)"/></g><g class="cls-24"><path class="cls-23" d="M25.22,43.27s.75-2.88,5.88-1.11,6.75-1.11,6.75-1.11l.64,4.29L26.24,47.63Z"/></g><path class="cls-25" d="M31.22,41.93a.27.27,0,0,1,.07.37.25.25,0,0,1-.37.07.27.27,0,1,1,.3-.44Z"/><path class="cls-23" d="M31.21,42.1a.15.15,0,0,1-.08.19.15.15,0,0,1-.2-.08A.16.16,0,0,1,31,42,.15.15,0,0,1,31.21,42.1Z"/><path class="cls-25" d="M28.2,41.38a.25.25,0,0,1,.07.37.27.27,0,0,1-.37.07.28.28,0,0,1-.07-.38A.26.26,0,0,1,28.2,41.38Z"/><path class="cls-23" d="M28.19,41.54a.14.14,0,0,1-.08.2.16.16,0,0,1-.2-.09.14.14,0,0,1,.09-.19A.14.14,0,0,1,28.19,41.54Z"/><path class="cls-25" d="M34.43,42.51a.27.27,0,1,1-.37.07A.25.25,0,0,1,34.43,42.51Z"/><path class="cls-23" d="M34.42,42.67a.16.16,0,0,1-.08.2.16.16,0,0,1-.2-.09.15.15,0,0,1,.09-.19A.15.15,0,0,1,34.42,42.67Z"/><polygon class="cls-26" points="39.55 45.76 39.24 31.57 17.5 33.37 24.97 49.01 39.55 45.76"/><polygon class="cls-27" points="25.11 48.2 39.59 45.52 39.77 46.41 24.97 49.01 25.11 48.2"/><path class="cls-21" d="M23.6,49.7a16.83,16.83,0,0,1,2.58-2.34c.52-.16,4.18-1,4.18-1s-.32,1-2.32,1.22a24,24,0,0,1,3.85.24c.8.26-4.65,2.74-5.54,2.35s-2.28.52-2.28.52Z"/><path class="cls-1" d="M3,30.91a3.37,3.37,0,0,0-1.84,4c.72,2.87,5.43,19.77,9.3,19.89,5.05.16,11-2.77,13.94-3.18L23.69,49l-11.15.37S7.41,29.94,3,30.91Z"/></g></g></svg>