<svg xmlns="http://www.w3.org/2000/svg" viewBox="0 0 106.95 109.93"><defs><style>.cls-1{fill:#fccab1;}.cls-2{fill:#1a1b1e;}.cls-3{fill:#e5b699;}.cls-4{fill:#60bf8f;}.cls-5{fill:#0d0e0f;}.cls-6{fill:#c38e79;}.cls-15,.cls-7{fill:#995e52;}.cls-23,.cls-7{opacity:0.28;}.cls-8{fill:#e8e8e8;}.cls-9{fill:#222326;}.cls-10{fill:#dbdbdb;}.cls-11{opacity:0.51;}.cls-12{fill:#a08472;}.cls-13{fill:#6cdda7;}.cls-14{fill:#c1ad9f;}.cls-15{opacity:0.22;}.cls-16{fill:#e2ad8f;}.cls-17{fill:#d68772;}.cls-18{fill:#bf846a;}.cls-19{fill:#f5f0e8;}.cls-20{fill:#3a3047;}.cls-21{fill:#fff;}.cls-22{opacity:0.19;}.cls-24{fill:#aa8b71;}.cls-25{fill:#f5f0e1;}</style></defs><title>win_maraphoneРесурс 8</title><g id="Слой_2" data-name="Слой 2"><g id="Objects"><path class="cls-1" d="M87.57,49.24s4.35-1.47,4.6-1.42,2.37,4.15,1.1,4-3,.58-3-.4-2-.42-2-.42Z"/><path class="cls-2" d="M68.41,30a3.27,3.27,0,0,0-2.22,3.81c.62,2.89,5,20,8.85,20.3,5,.33,11.07-2.38,14-2.69l-.6-2.64-11.16,0S73.42,28.7,68.41,30Z"/><polygon class="cls-3" points="28.11 69.27 26.11 66.85 25.09 67.42 26.92 69.94 28.11 69.27"/><path class="cls-2" d="M26.11,66.85l-.85.81s-3.73,1.68-3.55,1.17,4.34-2.32,4.37-2S26.11,66.85,26.11,66.85Z"/><polygon class="cls-3" points="101.57 106.28 102.12 109.37 103.29 109.37 102.93 106.28 101.57 106.28"/><path class="cls-2" d="M102.12,109.37l1.14-.29s4.07.36,3.67.72-4.93-.11-4.81-.36S102.12,109.37,102.12,109.37Z"/><path class="cls-4" d="M57.74,41.25S28.12,26.89,16,31.5v5.83s19.36-3,43.49,10.39c0,0,2.49-.09,2-2.38S57.74,41.25,57.74,41.25Z"/><path class="cls-2" d="M76,60.63S63.75,109.08,26,70.06l1.9-2s30.6,24.73,31.82-1.44l9.08-5.88Z"/><path class="cls-2" d="M57.46,59.05s-10.6,13.89,27.9,18.16c9.37,1,15.82,30.54,15.82,30.54l2.4-.54s1.87-28.58-14.18-37.5L68.75,61.3Z"/><path class="cls-5" d="M80.82,76.55h-.24c-.17,0-.41,0-.72-.06-.61-.06-1.51-.17-2.6-.35a65.71,65.71,0,0,1-8.43-2c-.81-.25-1.6-.52-2.35-.78s-1.47-.55-2.15-.84a25.78,25.78,0,0,1-3.47-1.78,10.47,10.47,0,0,1-2-1.65c-.11-.11-.2-.22-.28-.31l-.18-.24a1.31,1.31,0,0,1-.13-.21s.06.06.17.18a2.84,2.84,0,0,0,.19.23l.29.3a11.25,11.25,0,0,0,2.07,1.57,26,26,0,0,0,3.47,1.73c.67.28,1.39.55,2.14.82s1.53.53,2.34.77a75.8,75.8,0,0,0,8.4,2c1.08.19,2,.33,2.58.41l.71.1C80.74,76.52,80.83,76.54,80.82,76.55Z"/><path class="cls-1" d="M51.6,57.43s3.49,3,3.56,3.22-2.35,4.17-2.87,3-2-2.24-1.21-2.81-.66-1.93-.66-1.93Z"/><path class="cls-4" d="M82.32,43.3a6.06,6.06,0,0,0-4.92-.7L78,46.76s5.77-.89,6,1.87C83.93,48.63,84.76,44.15,82.32,43.3Z"/><path class="cls-5" d="M76.15,64.18a8.26,8.26,0,0,1-1.76-.48A7.42,7.42,0,0,1,72.71,63a8.26,8.26,0,0,1,1.75.48A7.64,7.64,0,0,1,76.15,64.18Z"/><polygon class="cls-6" points="61.55 25.05 61.73 29.55 65.27 29.41 65.07 24.53 61.55 25.05"/><path class="cls-7" d="M61.55,25.05l0,.92s1.42.8,3.53-.6l0-1Z"/><path class="cls-8" d="M58.15,29.5s5.29-2.05,8.52-.43L73.18,41l.7,8.79L73,63.7s-8.18,3.35-9.91-4.84c0,0,2.36-10.32.47-13.57S56.18,33.5,56.18,33.5Z"/><path class="cls-9" d="M54.48,30.71,54.37,36s8.84,11.41,6.49,17.41l-3.53,5.48S62.4,66.86,66,66c0,0,5-15.33,1.24-23.33A56.55,56.55,0,0,0,58.46,29.4Z"/><path class="cls-9" d="M66.67,29.07l3.35,1s6.78,11,5.3,17.11l.93,19.08s-4,1.2-4.1-2.69,1.72-20.25.48-22.36S66.67,29.07,66.67,29.07Z"/><polygon class="cls-6" points="64.15 30 65.98 33.01 64.57 29.98 64.5 28.26 63.25 27.9 64.15 30"/><path class="cls-10" d="M61.47,26.94A2.27,2.27,0,0,0,62,28.25a2.9,2.9,0,0,0,2.14.46L64.15,30s-2.41.17-2.57-1.34Z"/><path class="cls-10" d="M64.52,28.75l0,1.23a1.75,1.75,0,0,0,.68-1.38l0-.74A1,1,0,0,0,65,27.2h0S65.24,28.44,64.52,28.75Z"/><g class="cls-11"><path class="cls-12" d="M69.77,64.37V64c0-.21,0-.53,0-.93,0-.82.11-2,.18-3.44s.17-3.18.24-5.1c0-.48,0-1,0-1.47s0-1,0-1.54c0-.26,0-.52,0-.79V50c0-.27,0-.54,0-.81s0-.55,0-.83a27.26,27.26,0,0,0-.34-3.2c-.16-1-.37-2-.59-3a38.9,38.9,0,0,0-1.54-4.85c-.53-1.35-1-2.41-1.4-3.14-.18-.36-.33-.64-.43-.83l-.14-.3a1.53,1.53,0,0,1,.18.28c.11.18.27.46.46.82a31.42,31.42,0,0,1,1.46,3.11,36.45,36.45,0,0,1,1.6,4.86c.23.94.44,1.93.6,3l.12.79c0,.26.07.53.1.8s0,.27,0,.4,0,.28,0,.42l0,.41,0,.41c0,.28,0,.56,0,.83s0,.55,0,.82v.8c0,.27,0,.53,0,.8,0,.52,0,1,0,1.54s0,1,0,1.47c-.09,1.92-.19,3.65-.29,5.1s-.18,2.62-.25,3.43c0,.41-.06.72-.08.93A1.68,1.68,0,0,1,69.77,64.37Z"/></g><polygon class="cls-2" points="61.85 55.85 60.95 57 64.64 60.21 65.11 58.92 61.85 55.85"/><polygon class="cls-2" points="75.46 59.42 75.51 60.64 75.97 60.63 75.91 59.4 75.46 59.42"/><path class="cls-2" d="M58.32,31.12a3.27,3.27,0,0,0-4.41,0c-2.17,2-14.68,14.55-12.92,18,2.3,4.49,7.72,8.28,9.51,10.68l2-1.87-5.7-9.59S62,34.76,58.32,31.12Z"/><path class="cls-13" d="M0,56.91S29.49,43.27,45.56,50,68,50,68,50l-3.76,4.4h6.57S61,59.86,53.38,58.85,33.56,48.7,2.89,64.06Z"/><path class="cls-13" d="M74,47.88s7.26-3.45,8.34-4.58q2.4,1.52,1.61,5.33l-8.12,3.5-5-.66Z"/><path class="cls-14" d="M57,8.39S53,2.65,57.51.62s7.57,4.85,12.42,5.26,5.49,4.17,3.67,9.68-.82,4.42-1.82,5.51-6.22,4.25-13.43,2.55S49.89,10,52.12,6.58,57,8.39,57,8.39Z"/><path class="cls-12" d="M56.46,23s-.05,0-.14-.08-.23-.16-.4-.28-.17-.14-.26-.23a3.71,3.71,0,0,1-.3-.28,8.76,8.76,0,0,1-.68-.75,9.17,9.17,0,0,1-1.29-2.28,9.6,9.6,0,0,1-.46-1.49A12.36,12.36,0,0,1,52.68,16a13.27,13.27,0,0,1,0-1.66,12.53,12.53,0,0,1,.15-1.55,8.41,8.41,0,0,1,.36-1.36,3.64,3.64,0,0,1,.58-1.09,1.61,1.61,0,0,1,.85-.58,1.22,1.22,0,0,1,.77,0,.89.89,0,0,1,.4.28l.07.11v0l0,0-.08-.09a1,1,0,0,0-.39-.24,1.25,1.25,0,0,0-.72,0,1.59,1.59,0,0,0-.76.56,3.75,3.75,0,0,0-.53,1.06A6.47,6.47,0,0,0,53,12.77a12,12,0,0,0-.15,1.52,15.15,15.15,0,0,0,0,1.64,13.42,13.42,0,0,0,.24,1.62A10.52,10.52,0,0,0,53.57,19a9.35,9.35,0,0,0,1.23,2.26,9.06,9.06,0,0,0,.64.76l.29.29.25.23c.15.14.28.24.36.31S56.47,23,56.46,23Z"/><path class="cls-15" d="M57.38,8.6s-5.12-4.88-5,6.81A9.21,9.21,0,0,0,55.33,22a7.57,7.57,0,0,0,4.74,2.11Z"/><path class="cls-12" d="M57.08,2.39a.15.15,0,0,1,0,.06l-.11.14a2.13,2.13,0,0,0-.32.56,2.72,2.72,0,0,0-.2.92,3.36,3.36,0,0,0,.16,1.15A6.05,6.05,0,0,0,57,6.31c.17.32.34.61.49.84a3.46,3.46,0,0,0,.39.52c.1.12.17.17.16.18s-.09,0-.22-.12a2.31,2.31,0,0,1-.45-.5,7.06,7.06,0,0,1-.54-.83,5.26,5.26,0,0,1-.5-1.12,3.48,3.48,0,0,1-.14-1.22,2.65,2.65,0,0,1,.25-1,2,2,0,0,1,.39-.55A.64.64,0,0,1,57,2.42S57.07,2.38,57.08,2.39Z"/><path class="cls-12" d="M72.58,19.06s0-.1.06-.28a3.9,3.9,0,0,0,.12-.77,4.5,4.5,0,0,0-.12-1.15,4.34,4.34,0,0,0-.21-.64,4.41,4.41,0,0,0-.33-.65,6.35,6.35,0,0,0-.86-1.12,8.6,8.6,0,0,0-.86-.8,8.66,8.66,0,0,1-.83-.7,4.18,4.18,0,0,1,.93.58,8.13,8.13,0,0,1,.9.78,6.38,6.38,0,0,1,.9,1.15,3.93,3.93,0,0,1,.34.68,4.79,4.79,0,0,1,.21.68A3.89,3.89,0,0,1,72.9,18a2.72,2.72,0,0,1-.18.78C72.64,19,72.59,19.07,72.58,19.06Z"/><path class="cls-12" d="M69.66,22.48a3.46,3.46,0,0,1,.33-.64c.05-.1.11-.21.16-.33s.12-.24.18-.38a7.85,7.85,0,0,0,.31-.9,7,7,0,0,0,.19-.93c0-.15,0-.28,0-.41s0-.13,0-.19a1.09,1.09,0,0,1,0-.18,4.85,4.85,0,0,1,0-.72,1.65,1.65,0,0,1,.12.72v.38q0,.2,0,.42a7.87,7.87,0,0,1-.19,1,5.5,5.5,0,0,1-.34.92,2.69,2.69,0,0,1-.19.38,3,3,0,0,1-.19.32C69.87,22.3,69.68,22.5,69.66,22.48Z"/><path class="cls-12" d="M52.84,19a3.17,3.17,0,0,1-.32-.52.43.43,0,0,0,0-.07l0-.07-.08-.16c0-.11-.11-.23-.16-.36s-.11-.27-.17-.42A2.09,2.09,0,0,0,52,17.2c0-.08-.05-.17-.08-.25a2.58,2.58,0,0,0-.08-.26c0-.09,0-.18-.07-.28s-.08-.39-.13-.59l-.09-.65-.06-.68a10,10,0,0,1,.32-3.05A9.82,9.82,0,0,1,53,8.63a4.69,4.69,0,0,1,.4-.56,1.89,1.89,0,0,1,.52-.43,2.53,2.53,0,0,1,.29-.14l.3-.07a2.23,2.23,0,0,1,.57,0,3.14,3.14,0,0,1,.95.24,7.07,7.07,0,0,1,.64.34,3.59,3.59,0,0,1,.51.35,3,3,0,0,1-.55-.28,5.92,5.92,0,0,0-.65-.3,3.31,3.31,0,0,0-.9-.2,2.46,2.46,0,0,0-.54,0l-.27.07a2.1,2.1,0,0,0-.26.13,2.48,2.48,0,0,0-.85,1A9.9,9.9,0,0,0,52,11.5a10.11,10.11,0,0,0-.32,3c0,.23,0,.46,0,.67s.06.43.08.64.08.4.12.58a1.28,1.28,0,0,0,.07.28l.06.26a2.17,2.17,0,0,1,.07.24c0,.08,0,.16.08.24s.1.29.14.42.11.25.15.36a1.11,1.11,0,0,1,.07.16l0,.07,0,.07A3.8,3.8,0,0,1,52.84,19Z"/><path class="cls-15" d="M69.57,13.13s3.85,2.57,1.35,8.64l-1.31.75a5.87,5.87,0,0,1-1,.43l-1.76.58S70.91,15.49,69.57,13.13Z"/><path class="cls-16" d="M55.74,15.5s-2-.62-2,1.31c0,2.66,2.2,2.48,2.2,2.48Z"/><path class="cls-17" d="M54.23,16.57s0,0,0-.1a.42.42,0,0,1,.21-.21.75.75,0,0,1,.42-.08,1,1,0,0,1,.48.23,1.62,1.62,0,0,1,.32.39,1.88,1.88,0,0,1,.16.37c.06.23,0,.37,0,.37s-.07-.12-.16-.32-.11-.2-.19-.32a1.76,1.76,0,0,0-.29-.33.82.82,0,0,0-.37-.19.6.6,0,0,0-.33,0C54.33,16.46,54.26,16.59,54.23,16.57Z"/><path class="cls-17" d="M55.6,18s0,.05,0,.12a.38.38,0,0,1-.29.13.54.54,0,0,1-.42-.2,1.06,1.06,0,0,1-.26-.48,1.27,1.27,0,0,1,0-.55.7.7,0,0,1,.26-.39.41.41,0,0,1,.31-.05c.08,0,.1.06.1.07s-.05,0-.1,0a.39.39,0,0,0-.22.1.57.57,0,0,0-.16.3,1.21,1.21,0,0,0,0,.46,1.29,1.29,0,0,0,.19.41.47.47,0,0,0,.29.17.3.3,0,0,0,.22,0C55.56,18,55.58,18,55.6,18Z"/><path class="cls-16" d="M69.66,14.5s1.85-.9,2.13,1c.4,2.64-1.81,2.78-1.81,2.78Z"/><path class="cls-17" d="M71.31,15.34s-.11-.09-.31-.13a.81.81,0,0,0-.34,0,.9.9,0,0,0-.33.24,1.94,1.94,0,0,0-.24.37,1.81,1.81,0,0,0-.14.35c-.07.2-.08.34-.11.34s-.07-.14,0-.37a1.66,1.66,0,0,1,.11-.39,1.54,1.54,0,0,1,.26-.44.92.92,0,0,1,.44-.29.77.77,0,0,1,.43,0,.46.46,0,0,1,.24.17C71.31,15.3,71.32,15.34,71.31,15.34Z"/><path class="cls-17" d="M70.16,16.93s0,0,.09,0a.35.35,0,0,0,.23,0,.43.43,0,0,0,.25-.22,1.09,1.09,0,0,0,.14-.43,1.3,1.3,0,0,0-.05-.45.56.56,0,0,0-.2-.28.46.46,0,0,0-.23-.06c-.06,0-.09,0-.1,0s0,0,.08-.08a.37.37,0,0,1,.31,0,.6.6,0,0,1,.32.34,1.2,1.2,0,0,1,.08.54,1.08,1.08,0,0,1-.18.52.58.58,0,0,1-.4.26.36.36,0,0,1-.3-.1C70.15,17,70.14,16.93,70.16,16.93Z"/><path class="cls-3" d="M62.31,6.6A6.33,6.33,0,0,0,55.43,13c0,3,.34,6.8,1.53,8.43,2.08,2.88,5.67,4.59,7.13,4.1s6.33-4.09,6-7.7-.83-8.65-.83-8.65A16.48,16.48,0,0,0,62.31,6.6Z"/><path class="cls-17" d="M65.6,20s0,.09-.1.19l-.15.18a2.49,2.49,0,0,1-.23.22l-.14.12-.16.12-.17.12-.19.12a4.66,4.66,0,0,1-.93.41,3.39,3.39,0,0,1-1,.15,3.31,3.31,0,0,1-.83-.1c-.46-.12-.7-.28-.69-.33s.3,0,.74,0A4.45,4.45,0,0,0,63.41,21a6.44,6.44,0,0,0,1.53-.73l.26-.16.2-.12C65.51,20,65.58,19.93,65.6,20Z"/><path class="cls-18" d="M64.15,15.88S64,13,65.76,12.76c1.48-.19,3,1.49,3,1.49S64.79,11.54,64.15,15.88Z"/><path class="cls-19" d="M64.19,16.13s-.07-4.2,4.43-1.78A11,11,0,0,1,64.19,16.13Z"/><path class="cls-20" d="M69,14.33s-.11,0-.27,0L68,14.07a8,8,0,0,0-1-.27,5,5,0,0,0-.58-.09,3.11,3.11,0,0,0-.61,0,1.39,1.39,0,0,0-.54.19,1.77,1.77,0,0,0-.41.36,2.85,2.85,0,0,0-.45.86c-.1.27-.16.5-.21.66s-.09.25-.12.24,0-.09,0-.26a3.8,3.8,0,0,1,.08-.72,2.67,2.67,0,0,1,.44-1,1.84,1.84,0,0,1,.49-.47,1.91,1.91,0,0,1,.7-.26,3.38,3.38,0,0,1,.71,0,3.91,3.91,0,0,1,.63.12,5.5,5.5,0,0,1,1,.38,4.4,4.4,0,0,1,.62.35C68.92,14.24,69,14.3,69,14.33Z"/><path class="cls-20" d="M65.53,13.71s.2,2.06,1.85,1.44c1.26-.46,1-1.2,1-1.2S66.39,13.25,65.53,13.71Z"/><path class="cls-21" d="M66.58,14.44c0,.11-.22.29-.57.41s-.67.11-.7,0,.21-.29.56-.41S66.54,14.32,66.58,14.44Z"/><path class="cls-18" d="M60.53,16.6s0-2.9-1.79-3c-1.48-.1-2.94,1.66-2.94,1.66S59.64,12.3,60.53,16.6Z"/><path class="cls-19" d="M60.52,16.85s-.18-4.2-4.54-1.52A11.13,11.13,0,0,0,60.52,16.85Z"/><path class="cls-20" d="M55.63,15.33s0-.09.19-.19a4.86,4.86,0,0,1,.6-.39,5.39,5.39,0,0,1,1-.43,3.74,3.74,0,0,1,.62-.16,3.32,3.32,0,0,1,.71,0,1.9,1.9,0,0,1,.71.22,1.76,1.76,0,0,1,.52.44,2.64,2.64,0,0,1,.5,1,3.58,3.58,0,0,1,.12.71c0,.17,0,.27,0,.27s-.08-.07-.14-.23-.13-.38-.25-.65a2.82,2.82,0,0,0-.5-.83,1.74,1.74,0,0,0-.42-.34,1.46,1.46,0,0,0-.56-.16,3.11,3.11,0,0,0-.61,0,4.78,4.78,0,0,0-.57.12,8.16,8.16,0,0,0-1,.33c-.28.11-.5.21-.66.26S55.64,15.36,55.63,15.33Z"/><path class="cls-20" d="M60.46,16s-.06.85-1.33.63-.66-2.26-.66-2.26A2.08,2.08,0,0,1,60.46,16Z"/><path class="cls-21" d="M57.38,15.26c0-.06.1-.11.25-.12a1.88,1.88,0,0,1,.55.06,2.51,2.51,0,0,1,.51.17c.12.06.2.12.2.18s-.1.1-.25.12a2,2,0,0,1-.56-.06,3.57,3.57,0,0,1-.5-.17C57.46,15.38,57.38,15.32,57.38,15.26Z"/><path class="cls-17" d="M63.11,19.58s-.17.07-.49.06a3.3,3.3,0,0,1-1.28-.36l-.21-.11.19-.17a5.55,5.55,0,0,0,.79-.81,3.61,3.61,0,0,0,.36-.51,1.25,1.25,0,0,0,.15-.58,5.87,5.87,0,0,0-.09-.82q-.06-.4-.15-.78c-.11-.49-.23-.93-.34-1.3A5,5,0,0,1,61.69,13a3,3,0,0,1,.63,1.11,10,10,0,0,1,.44,1.31c.07.26.12.52.18.8l.06.43a2.42,2.42,0,0,1,0,.47,1.39,1.39,0,0,1-.06.4,1.51,1.51,0,0,1-.15.37,3.12,3.12,0,0,1-.41.56,5.23,5.23,0,0,1-.89.83l0-.28a4.15,4.15,0,0,0,1.14.46C62.94,19.52,63.11,19.54,63.11,19.58Z"/><g class="cls-22"><path class="cls-17" d="M69.4,16.7a1.18,1.18,0,0,1-.49,1,4.2,4.2,0,0,1-1.49.81,4.09,4.09,0,0,1-1.67.2,1.16,1.16,0,0,1-1-.55,1.07,1.07,0,0,1,.33-1.11A4,4,0,0,1,68.49,16C69,16.1,69.34,16.36,69.4,16.7Z"/></g><g class="cls-22"><path class="cls-17" d="M60.82,18.65a1.16,1.16,0,0,1-.88.71,4,4,0,0,1-1.69.08,4.13,4.13,0,0,1-1.6-.53A1.21,1.21,0,0,1,56,18c0-.34.3-.66.77-.86a3.6,3.6,0,0,1,1.84-.18,3.51,3.51,0,0,1,1.71.67C60.72,17.93,60.92,18.31,60.82,18.65Z"/></g><g class="cls-23"><path class="cls-17" d="M64.42,21.27c.06.06,0,.24-.22.42a1.85,1.85,0,0,1-1,.39,2.5,2.5,0,0,1-1-.07c-.24-.06-.39-.15-.38-.24s.16-.16.4-.2.56-.08.89-.12a7.25,7.25,0,0,0,.83-.16C64.21,21.24,64.36,21.2,64.42,21.27Z"/></g><g class="cls-23"><path class="cls-17" d="M63.89,20.9c0,.08-.1.16-.25.22a2.51,2.51,0,0,1-.58.13,2.45,2.45,0,0,1-.6,0c-.16,0-.27-.07-.29-.15s0-.19.19-.28a1.61,1.61,0,0,1,.62-.21,1.64,1.64,0,0,1,.65.05C63.8,20.73,63.89,20.81,63.89,20.9Z"/></g><path class="cls-24" d="M60.57,13.08c0,.11-.26.19-.62.23a13,13,0,0,1-1.42.09c-.56,0-1.06,0-1.43,0s-.61-.09-.63-.2.19-.26.56-.39a5.15,5.15,0,0,1,1.47-.23,4.88,4.88,0,0,1,1.49.16C60.37,12.83,60.58,13,60.57,13.08Z"/><path class="cls-24" d="M66.67,10.47c-.08.1-.32,0-.65.06a2.14,2.14,0,0,0-.56.13,2.31,2.31,0,0,0-.61.34,5.16,5.16,0,0,0-.92,1.07c-.23.32-.4.52-.51.48s-.14-.31,0-.73a2.71,2.71,0,0,1,.29-.72,2.75,2.75,0,0,1,.64-.75,2.07,2.07,0,0,1,.94-.44,1.79,1.79,0,0,1,.84,0,1.05,1.05,0,0,1,.49.29C66.68,10.34,66.7,10.42,66.67,10.47Z"/><path class="cls-15" d="M55.39,3.38s2.92-1.61,4.24,1.22c1.42,3,7,9.35,12.78,8,0,0-11.37-13-16.57-10.09l-.3.22"/><path class="cls-25" d="M55.43,3.1c0,.19,2.83-2.87,5.44,2.06s7.84,7.64,11.25,7.42c2.67-.18,1.26,3.67,1.26,3.67S77.51,6.59,70.81,6C64.28,5.41,62.44-1.68,57.29.37A4.33,4.33,0,0,0,55.43,3.1Z"/><g class="cls-11"><path class="cls-12" d="M74.61,8.79a.71.71,0,0,1-.19.14,5,5,0,0,1-.59.34,6.19,6.19,0,0,1-1,.39,6.53,6.53,0,0,1-1.4.28,6.73,6.73,0,0,1-1.72,0,7.44,7.44,0,0,1-1.89-.58A7.25,7.25,0,0,1,66,8.08a9.37,9.37,0,0,1-1.47-1.82c-.44-.67-.83-1.35-1.24-2A9.8,9.8,0,0,0,62,2.62,5.05,5.05,0,0,0,61.2,2L61,1.87a1.32,1.32,0,0,0-.2-.12,3.89,3.89,0,0,0-.42-.19,4.76,4.76,0,0,0-1.63-.34,4.87,4.87,0,0,0-1.38.15,3.89,3.89,0,0,0-1,.36l-.18.09-.15.09L55.91,2l-.1.07c-.13.09-.2.13-.2.12s0-.06.17-.16l.1-.08L56,1.86l.16-.11.18-.1a4.5,4.5,0,0,1,1-.4,5,5,0,0,1,1.41-.18,5.14,5.14,0,0,1,1.7.32c.14.07.29.12.43.2l.22.12.21.13a6.6,6.6,0,0,1,.8.64,10.52,10.52,0,0,1,1.37,1.69c.42.63.81,1.31,1.24,2a10.26,10.26,0,0,0,1.44,1.79,6.83,6.83,0,0,0,1.75,1.2,7.15,7.15,0,0,0,1.84.59,6.94,6.94,0,0,0,1.68.07,7,7,0,0,0,1.37-.24,7,7,0,0,0,1-.36C74.33,9,74.6,8.78,74.61,8.79Z"/></g><g class="cls-11"><path class="cls-12" d="M74.57,12.5s0,0,0-.07v-.07a.45.45,0,0,0,0-.11.69.69,0,0,0,0-.13l0-.15a1.41,1.41,0,0,0-.2-.35,1.88,1.88,0,0,0-.89-.61,2.93,2.93,0,0,0-.68-.11,5.11,5.11,0,0,0-.78,0c-.28,0-.57.05-.87.06s-.62,0-1,0A15.51,15.51,0,0,1,68,10.84a6.6,6.6,0,0,1-1.12-.24,4,4,0,0,1-1.08-.53,4.22,4.22,0,0,1-.47-.39,4.58,4.58,0,0,1-.42-.46,6.3,6.3,0,0,1-.69-1.07,24.32,24.32,0,0,1-1-2.28,8.86,8.86,0,0,0-1.07-2,4.65,4.65,0,0,0-1.53-1.32A5.54,5.54,0,0,0,57.52,2l-.31,0-.28.06-.14,0-.12,0-.23.07a5.13,5.13,0,0,0-.65.28l-.23.11a.87.87,0,0,1,.21-.14,3.11,3.11,0,0,1,.64-.32L56.64,2,56.77,2l.13,0,.29-.07a3,3,0,0,1,.32-.06,5.5,5.5,0,0,1,3.25.57,4.87,4.87,0,0,1,1.61,1.35,9.71,9.71,0,0,1,1.1,2,24.39,24.39,0,0,0,1,2.26,6.54,6.54,0,0,0,.66,1,5.66,5.66,0,0,0,.4.44,3.94,3.94,0,0,0,.45.38,4.19,4.19,0,0,0,1,.5,8.51,8.51,0,0,0,1.09.24,15,15,0,0,0,2,.17c.33,0,.64,0,.94,0l.87-.05a7.11,7.11,0,0,1,.8,0,3,3,0,0,1,.7.14,1.92,1.92,0,0,1,.92.67,1.27,1.27,0,0,1,.2.38.94.94,0,0,1,0,.16.71.71,0,0,1,0,.14v.11s0,.06,0,.08A.15.15,0,0,1,74.57,12.5Z"/></g></g></g></svg>